<svg style="display:none" xmlns="http://www.w3.org/2000/svg">
  <!-- Logos -->
  <symbol id="nrk-logo-nrk" viewBox="0 0 32 15"><title>NRK</title><path d="M26.36 7.1L28.9 3h-3.5L23 6.87c-.3.47-.28.77 0 1.25L25.4 12h3.5l-2.52-4.08c-.2-.32-.2-.52-.02-.83zm-16.3-2.66C9.9 3.62 9.2 3 8.35 3H6.4l1.97 9h3.32l-1.65-7.56zM3 12h3.25V3H3m8.83 9h3.24V3h-3.24m7.47 9h3.24V3H19.3m-2.07-.17c-1 0-1.8.8-1.8 1.8 0 .98.8 1.78 1.8 1.78s1.8-.8 1.8-1.78c0-1-.8-1.8-1.8-1.8"/></symbol>
  <symbol id="nrk-logo-nrkp3" viewBox="0 0 15 15"><title>NRK P3</title><path fill-opacity=".5" d="M7.2 14.05c2.9-3.33 4.2-3.57 7-3.44L7.1 14.9c.05-.1-.13-.56.08-.85z"/><path d="M7.5.14C3.4.14.1 3.44.1 7.52c0 3.96 3.1 7.2 7.02 7.38l.16-.33c1.38-2.64 4.12-4.1 6.9-3.96.45-.93.7-1.97.7-3.08 0-4.07-3.32-7.38-7.4-7.38zM5.2 7.36v4.74H3.73V7.36c0-1.5 1.23-2.75 2.75-2.75v1.46c-.73 0-1.3.6-1.3 1.3zm.78 4.74H5.6v-1.07h.38v1.07zm.67 0h-.4L6 11.03h.24c.1 0 .2.08.2.17l.2.9zm.4 0h-.38v-1.07h.38v1.07zm.23-.66c-.12 0-.2-.1-.2-.22s.08-.2.2-.2c.12 0 .2.08.2.2 0 .12-.08.22-.2.22zm.6.66h-.37v-1.07h.4v1.07zm.48-.48l.3.48h-.42l-.28-.46c-.03-.06-.03-.1 0-.15l.28-.47h.4l-.28.5c-.03.02-.02.05 0 .1zm2.88-4.1c0 1.52-1.24 2.75-2.75 2.75H5.6V8.82h2.9c.7 0 1.3-.58 1.3-1.3v-.16c0-.7-.6-1.3-1.3-1.3H6.9V4.6l1.67-1H5.8V2.4h4.5v1.37l-1.3.9c1.27.22 2.24 1.35 2.24 2.7v.15z"/></symbol>
  <symbol id="nrk-logo-nrksuper" viewBox="0 0 22 15"><title>NRK Super</title><path d="M13.63 11.3c-.14 0-.27.13-.27.28v1.48c0 .36-.36.4-.52.4-.15 0-.52-.04-.52-.4v-1.48c0-.15-.12-.27-.27-.27-.14 0-.26.14-.26.3v1.47c0 .3.1.54.3.7.2.16.45.24.73.24.28 0 .53-.07.73-.22.2-.17.33-.42.33-.7v-1.5c0-.14-.13-.26-.28-.26zm-3.14 1.07c-.47-.13-.47-.24-.47-.27 0-.2.12-.3.35-.3.1 0 .3.04.36.22.02.07.07.12.13.15s.13.03.2 0c.06 0 .12-.06.15-.13.03-.06.03-.14 0-.2-.12-.35-.44-.56-.86-.56-.54 0-.9.33-.9.8 0 .14.05.4.32.58.14.1.3.14.53.2.46.12.46.2.46.3 0 .3-.3.33-.44.33-.2 0-.4-.1-.43-.3 0-.08-.06-.14-.1-.18-.08-.04-.15-.05-.2-.04-.16.02-.26.15-.23.3.07.43.45.72.96.72.57 0 .97-.35.97-.86 0-.2-.05-.33-.2-.47-.12-.15-.33-.25-.64-.33zm8.4-.82c-.2-.15-.47-.24-.75-.24-.27 0-.53.1-.72.26-.2.18-.33.43-.33.72v.8c0 .28.13.53.34.7.2.15.45.23.72.23.47 0 .84-.2 1-.56v-.08c0-.15-.1-.27-.26-.27-.1 0-.2.05-.25.15-.1.2-.37.22-.5.22-.14 0-.5-.04-.5-.4v-.22H19c.13-.02.22-.13.22-.26v-.3c0-.3-.1-.56-.32-.74zm-.2.8h-1.07v-.08c0-.32.3-.43.52-.43.25 0 .53.1.53.43v.1zm2-1.04c-.17 0-.3.06-.46.14-.04-.07-.13-.12-.22-.12-.14 0-.26.13-.26.28v2.15c0 .15.12.27.26.27.15 0 .27-.12.27-.27v-1.4c0-.07 0-.5.4-.5.15 0 .26-.1.26-.25s-.12-.27-.27-.27zm-4.65 1.75c0 .3-.28.42-.52.42-.25 0-.52-.1-.52-.42v-.8c0-.36.37-.4.53-.4.15 0 .52.04.52.4v.8zm.2-1.5c-.2-.15-.44-.23-.72-.23-.22 0-.42.06-.58.14-.06-.06-.13-.1-.2-.1-.16 0-.28.12-.28.27v3.1c0 .15.12.27.27.27.15 0 .27-.12.27-.26v-.82c.16.08.34.12.53.12.28 0 .54-.1.73-.25.2-.18.33-.44.33-.7v-.8c0-.3-.13-.55-.35-.73zM11 0C8.24 0 6 2.24 6 5s2.24 5 5 5 5-2.24 5-5-2.24-5-5-5zm0 9C8.8 9 7 7.2 7 5s1.8-4 4-4 4 1.8 4 4-1.8 4-4 4zm2.52-4.4l-.62-.04c-.03 0-.07-.03-.08-.06l-.22-.58c-.02-.03-.03-.03-.05 0l-.22.58c0 .03-.05.06-.08.06l-.62.03c-.04 0-.04 0-.02.02l.5.4c.03 0 .05.06.04.1l-.16.6c0 .02 0 .03.03 0l.54-.33h.1l.52.33c.03.02.04 0 .03-.02l-.17-.6c0-.02 0-.07.03-.1l.5-.4s0-.02-.03-.02zm-4.14-.35c-.4 0-.75.33-.75.74 0 .4.34.73.75.73.4 0 .75-.34.75-.75 0-.42-.34-.75-.75-.75zM1 14h.93v-2.63H1M3.66 14h.93v-2.63h-.95M5.75 14h.93v-2.63h-.93m-.58-.05c-.3 0-.53.23-.53.53 0 .3.24.52.53.52.3 0 .53-.23.53-.52 0-.3-.24-.53-.53-.53zm3.4.05h-1l-.7 1.14c-.1.16-.1.25 0 .4l.7 1.12h1l-.72-1.18c-.06-.1-.06-.15 0-.25l.73-1.2zm-6 0h-.6L2.6 14h1l-.5-2.2c-.05-.24-.26-.43-.52-.43z"/></symbol>
  <symbol id="nrk-logo-nrkradio" viewBox="0 0 69 15"><title>NRK Radio</title><path d="M62.47 11.33c1.8 0 2.95-1.25 2.95-3.92 0-2.4-1.2-3.7-2.95-3.7-1.83 0-3 1.32-3 3.7 0 2.65 1.2 3.93 3 3.93m.04-8.53c2.27 0 3.9 1.58 3.9 4.6 0 3.34-1.68 4.8-3.95 4.8-2.3 0-3.98-1.5-3.98-4.8 0-3.02 1.7-4.6 4.04-4.6M56.04 12h1.02V3h-1.02m-7.53.87v7.26h1.57c2.3 0 3.26-1.25 3.26-3.62 0-2.33-.96-3.63-3.26-3.63H48.5zM50 3c2.8 0 4.32 1.42 4.32 4.5 0 3.2-1.54 4.5-4.45 4.5h-2.3V3H50zm-5.74 5.55l-1.5-4.46-1.5 4.45h3zm-1-5.55l3.18 9h-1l-.9-2.58H41L40.1 12h-1l3.17-9h.98zm-10.18.85V7.6h1.6c1.44 0 2.2-.7 2.2-1.94 0-1.2-.63-1.8-2.04-1.8h-1.76zm1.8-.85c2.02 0 2.94 1 2.94 2.6 0 1.1-.45 2-1.46 2.5L38.3 12h-1l-1.84-3.7c-.28.07-.57.1-.93.1h-1.45V12h-.93V3h2.72zM26.36 7.1L28.9 3h-3.5L23 6.87c-.3.47-.28.77 0 1.25L25.4 12h3.5l-2.52-4.08c-.2-.32-.2-.52-.02-.83zm-16.3-2.66C9.9 3.62 9.2 3 8.35 3H6.4l1.97 9h3.32l-1.65-7.56zM3 12h3.25V3H3m8.83 9h3.24V3h-3.24m7.47 9h3.24V3H19.3m-2.07-.17c-1 0-1.8.8-1.8 1.8 0 .98.8 1.78 1.8 1.78s1.8-.8 1.8-1.78c0-1-.8-1.8-1.8-1.8"/></symbol>
  <symbol id="nrk-logo-nrktv" viewBox="0 0 49 15"><title>NRK TV</title><path d="M44.95 3l-2.44 7.7L40.1 3h-1.2l2.9 9h1.4l2.93-9M31.97 3v1.05h2.82V12h1.16V4.05h2.82V3M26.36 7.1L28.9 3h-3.5L23 6.87c-.3.47-.28.77 0 1.25L25.4 12h3.5l-2.52-4.08c-.2-.32-.2-.52-.02-.83zm-16.3-2.66C9.9 3.62 9.2 3 8.35 3H6.4l1.97 9h3.32l-1.65-7.56zM3 12h3.25V3H3m8.83 9h3.24V3h-3.24m7.47 9h3.24V3H19.3m-2.07-.17c-1 0-1.8.8-1.8 1.8 0 .98.8 1.78 1.8 1.78s1.8-.8 1.8-1.78c0-1-.8-1.8-1.8-1.8"/></symbol>
  <symbol id="nrk-logo-yr" viewBox="0 0 15 15"><title>Yr</title><path d="M7.5 14.9C3.413 14.9.1 11.587.1 7.5S3.413.1 7.5.1s7.4 3.313 7.4 7.4-3.313 7.4-7.4 7.4zm4.47-5.09c-.255-.275-.66-.827-.66-.827.357-.1.68-.283.934-.54.41-.407.633-.985.63-1.607.006-.646-.277-1.226-.725-1.59-.447-.368-1.022-.54-1.62-.54H9.473c-.99.003-1.79.804-1.793 1.795v4.428h1.196V9.672c0-.325.273-.598.598-.598h.477l1.378 1.686c.097.094.225.155.367.167h.026l.026.002.025-.002h.708l.002-.967s-.292.083-.51-.15zM6.904 4.9H5.72V6.83c-.022.72-.696.953-1.234.96-.614-.008-1.26-.35-1.26-1.284l-.002-1.61H2.058v1.61c0 .73.253 1.354.73 1.804.433.408 1.026.636 1.674.647h.048c.435-.008 1.074-.292 1.198-.543v.533c0 .706-.898 1.166-1.14 1.287l.018.02-.017.01.75.908c.435-.254 1.58-.76 1.584-2.356V4.9zm3.733 2.978H9.474c-.21 0-.41.086-.598.152V6.5c0-.324.273-.597.598-.598h1.055c.372 0 .67.11.856.265.183.158.287.344.293.67-.003.35-.115.59-.282.76-.17.168-.41.28-.76.28z"/></symbol>
  <symbol id="nrk-logo-pfu" viewBox="0 0 15 15"><title>Pressens faglige utvalg</title><path d="M14.8 7.5c0-4-3.3-7.4-7.3-7.4-2 0-3.7.8-5 2h3c1.7 0 3 .3 4 1 .8.5 1.5 1.5 1.5 3 0 1.7-1.2 2.7-2 3-1.6.6-3.3.5-4 .5v3c0 2 1.7 2.4 2.5 2.4h.3c4-.2 7-3.5 7-7.5zM1.8 3C.7 4.4.2 6 .2 7.6c0 2.5 1.2 4.7 3 6V5.8c0-1.3-.6-2.4-1.6-2.6zm3 6.4H6C7.2 9 9.2 8.7 9.2 6c0-1.4-.5-3.2-2.4-3.6H5.2s-.3 0-.3.2v6.8z"/></symbol>

  <!-- General -->
  <symbol id="nrk-close"  viewBox="0 0 15 15"><path fill="none" stroke="currentColor" stroke-linecap="round" d="M1 1l13 13M1 14L14 1"/></symbol>
  <symbol id="nrk-spinner" viewBox="0 0 15 15"><path fill="none" stroke="currentColor" stroke-linecap="round" d="M1 7.5C1 11 4 14 7.5 14 11 14 14 11 14 7.5 14 4 11 1 7.5 1"/></symbol>
  <symbol id="nrk-chevron-up" viewBox="0 0 15 15"><path stroke="currentColor" fill="none" stroke-linecap="round" d="M1.5 10l6-6 6 6"/></symbol>
  <symbol id="nrk-chevron-down" viewBox="0 0 15 15"><path stroke="currentColor" fill="none" stroke-linecap="round" d="M1.5 5l6 6 6-6"/></symbol>
  <symbol id="nrk-chevron-left" viewBox="0 0 15 15"><path stroke="currentColor" fill="none" stroke-linecap="round" d="M10 13.5l-6-6 6-6"/></symbol>
  <symbol id="nrk-chevron-right" viewBox="0 0 15 15"><path stroke="currentColor" fill="none" stroke-linecap="round" d="M5 1.5l6 6-6 6"/></symbol>
  <symbol id="nrk-arrow-left--long" viewBox="0 0 26 15"><path stroke="currentColor" fill="none" stroke-linecap="round" d="M2 7.5h22m-16-6l-6 6 6 6"/></symbol>
  <symbol id="nrk-arrow-right--long" viewBox="0 0 26 15"><path stroke="currentColor" fill="none" stroke-linecap="round" d="M2 7.5h22m-6-6l6 6-6 6"/></symbol>
  <symbol id="nrk-arrow-left" viewBox="0 0 15 15"><path stroke="currentColor" fill="none" stroke-linecap="round" d="M2 7.5h11m-5-6l-6 6 6 6"/></symbol>
  <symbol id="nrk-arrow-right" viewBox="0 0 15 15"><path stroke="currentColor" fill="none" stroke-linecap="round" d="M2 7.5h11m-6-6l6 6-6 6"/></symbol>
  <symbol id="nrk-plus" viewBox="0 0 15 15"><path fill="none" stroke="currentColor" stroke-linecap="round" d="M1.5 7.5h12m-6-6v12"/></symbol>
  <symbol id="nrk-minus" viewBox="0 0 15 15"><path fill="none" stroke="currentColor" stroke-linecap="round" d="M1.5 7.5h12"/></symbol>
  <symbol id="nrk-fullscreen--on" viewBox="0 0 15 15"><path fill="none" stroke="currentColor" stroke-linecap="round" d="M9 6l5-5M1 14l5-5m7-2.5H8.5V2M2 8.5h4.5V13"/></symbol>
  <symbol id="nrk-fullscreen--off" viewBox="0 0 15 15"><path fill="none" stroke="currentColor" stroke-linecap="round" d="M8.5 6.5L13 2M2 13l4.5-4.5m-.5 5H1.5V9M9 1.5h4.5V6"/></symbol>
  <symbol id="nrk-download" viewBox="0 0 15 15"><path stroke="currentColor" fill="none" stroke-linecap="round" d="M1.5 13.5h12M3.5 8l4 4 4-4m-4-5.5v9"/></symbol>

  <!-- Video and Audio -->
  <symbol id="nrk-playpause--play" viewBox="0 0 15 15"><path d="M3 2C3 1 3.8.5 4.7 1l8 5.4c1 .6 1 1.6 0 2.2l-8 5.3c-1 .5-1.7 0-1.7-1V2z"/></symbol>
  <symbol id="nrk-playpause--pause" viewBox="0 0 15 15"><rect x="10" y="1" width="2" height="13" rx="1"/><rect x="3" y="1" width="2" height="13" rx="1"/></symbol>
  <symbol id="nrk-subtitles--on" viewBox="0 0 15 15"><path fill="none" stroke="currentColor" d="M.5 3c0-.3.2-.5.5-.5h13c.3 0 .5.2.5.5v8c0 .3-.2.5-.5.5h-1.5v2l-2.5-2H1c-.3 0-.5-.2-.5-.5V3z"/><path stroke="currentColor" stroke-width=".5" d="M6 8.8h1m-4 1h1m4-1h2m-7 0h2m0 1h3"/></symbol>
  <symbol id="nrk-subtitles--off" viewBox="0 0 15 15"><path fill="none" stroke="currentColor" d="M.5 3c0-.3.2-.5.5-.5h13c.3 0 .5.2.5.5v8c0 .3-.2.5-.5.5h-1.5v2l-2.5-2H1c-.3 0-.5-.2-.5-.5V3z"/></symbol>
  <symbol id="nrk-subtitles--unavailable" viewBox="0 0 15 15"><path fill="none" stroke="currentColor" stroke-opacity=".5" d="M.5 3c0-.3.2-.5.5-.5h13c.3 0 .5.2.5.5v8c0 .3-.2.5-.5.5h-1.5v2l-2.5-2H1c-.3 0-.5-.2-.5-.5V3z"/></symbol>
  <symbol id="nrk-volume--off" viewBox="0 0 15 15"><path stroke="currentColor" fill="none" d="M2 6.5s-1 0-1 1 1 1 1 1h2l3 5h.5v-12H7l-3 5H2z"/><path stroke="currentColor" stroke-linecap="round" d="M10 6l3 3m0-3l-3 3"/></symbol>
  <symbol id="nrk-volume--on1" viewBox="0 0 15 15"><path stroke="currentColor" d="M2 6.5s-1 0-1 1 1 1 1 1h2l3 5h.5v-12H7l-3 5H2z"/><path fill="none" stroke="currentColor" d="M9 8.5c.6 0 1-.4 1-1s-.4-1-1-1"/></symbol>
  <symbol id="nrk-volume--on2" viewBox="0 0 15 15"><path stroke="currentColor" d="M2 6.5s-1 0-1 1 1 1 1 1h2l3 5h.5v-12H7l-3 5H2z"/><path fill="none" stroke="currentColor" d="M9 8.5c.6 0 1-.4 1-1s-.4-1-1-1m0 4.2c1.6 0 3-1.4 3-3 0-1.8-1.4-3.2-3-3.2"/></symbol>
  <symbol id="nrk-volume--on3" viewBox="0 0 15 15"><path stroke="currentColor" d="M2 6.5s-1 0-1 1 1 1 1 1h2l3 5h.5v-12H7l-3 5H2z"/><path fill="none" stroke="currentColor" d="M9 8.5c.6 0 1-.4 1-1s-.4-1-1-1m0 4.2c1.6 0 3-1.4 3-3 0-1.8-1.4-3.2-3-3.2m0 8c2.8 0 5-2.2 5-5s-2.2-5-5-5"/></symbol>
  <symbol id="nrk-playpause--prev" viewBox="0 0 15 15"><path d="M10 5c0-.6-.4-.7-.8-.4L5.8 7c-.4.2-.4.8 0 1l3.4 2.4c.4.3.8.2.8-.4V5z"/><path fill="none" stroke="currentColor" stroke-linecap="round" d="M4.5 3.5v8"/></symbol>
  <symbol id="nrk-playpause--next" viewBox="0 0 15 15"><path d="M5 5c0-.6.4-.7.8-.4L9.2 7c.4.2.4.8 0 1l-3.4 2.4c-.4.3-.8.2-.8-.4V5z"/><path fill="none" stroke="currentColor" stroke-linecap="round" d="M10.5 3.5v8"/></symbol>
  <symbol id="nrk-playpause-spole-rwd" viewBox="0 0 15 15"><path d="M7 5c0-.6-.4-.7-.8-.4L2.8 7c-.4.2-.4.8 0 1l3.4 2.4c.4.3.8.2.8-.4V5zm5 0c0-.6-.4-.7-.8-.4L7.8 7c-.4.2-.4.8 0 1l3.4 2.4c.4.3.8.2.8-.4V5z"/></symbol>
  <symbol id="nrk-playpause-spole--ffw" viewBox="0 0 15 15"><path d="M8 5c0-.6.4-.7.8-.4L12.2 7c.4.2.4.8 0 1l-3.4 2.4c-.4.3-.8.2-.8-.4V5zM3 5c0-.6.4-.7.8-.4L7.2 7c.4.2.4.8 0 1l-3.4 2.4c-.4.3-.8.2-.8-.4V5z"/></symbol>
  <symbol id="nrk-playpause-spole30sec--rwd" viewBox="0 0 15 15"><path d="M4 9.47l.4-.42c.27.24.56.36.9.36.22 0 .4-.04.56-.16.15-.12.23-.3.23-.5 0-.34-.24-.5-.66-.5-.17 0-.28 0-.35.02l.1-.58c.27 0 .5-.07.7-.2.2-.13.3-.3.3-.52 0-.12-.04-.2-.1-.27-.1-.08-.2-.1-.36-.1-.26 0-.55.1-.87.24l-.2-.44c.44-.27.87-.4 1.3-.4.28 0 .52.07.7.2.17.15.26.34.26.6 0 .24-.1.46-.25.65-.17.2-.4.33-.68.4v.03c.25.03.44.1.57.25.1.14.18.32.18.54 0 .4-.15.73-.46.97-.3.25-.68.37-1.1.37-.5 0-.9-.15-1.2-.5zM8.13 8c-.04.2-.06.43-.06.63 0 .27.04.46.12.58.06.14.2.2.37.2.46 0 .77-.46.93-1.4.05-.2.07-.42.07-.6 0-.53-.18-.78-.52-.78-.47 0-.78.47-.94 1.4zM7.4 8c.1-.67.3-1.17.6-1.5.32-.33.7-.5 1.18-.5.37 0 .65.12.85.36.2.23.3.57.3 1 0 .22-.03.42-.06.6-.2 1.36-.8 2.04-1.78 2.04-.8 0-1.17-.46-1.17-1.37 0-.2.02-.4.05-.62zM9 .5c0-.28-.18-.37-.4-.2L6.1 2.2c-.22.16-.22.43 0 .6l2.5 1.9c.22.16.4.08.4-.2v-4zm-3 0c0-.28-.18-.37-.4-.2L3.1 2.2c-.22.16-.22.43 0 .6l2.5 1.9c.22.16.4.08.4-.2v-4z"/><path fill="none" stroke="currentColor" stroke-linecap="round" d="M3.15 11.96C4.2 13.1 5.7 13.82 7.4 13.82c3.17 0 5.75-2.58 5.75-5.76 0-3.18-2.58-5.76-5.76-5.76"/></symbol>
  <symbol id="nrk-playpause-spole30sec--ffw" viewBox="0 0 15 15"><path d="M5 9.47l.4-.42c.27.24.56.37.9.37.22 0 .4-.06.56-.18.15-.12.23-.3.23-.52 0-.33-.24-.5-.66-.5-.17 0-.28 0-.35.02l.1-.58c.27 0 .5-.08.7-.2.2-.14.3-.3.3-.52 0-.13-.04-.22-.12-.28-.1-.06-.2-.1-.34-.1-.27 0-.55.1-.87.26l-.2-.44c.42-.26.85-.4 1.27-.4.3 0 .53.08.7.22.18.14.27.33.27.58 0 .25-.1.47-.24.66-.17.2-.4.33-.68.4v.03c.25.02.43.1.56.24.13.16.2.34.2.56 0 .4-.16.73-.47.97-.3.25-.66.37-1.08.37-.54 0-.95-.18-1.24-.54zM9.13 8c-.04.2-.06.43-.06.63 0 .27.04.46.13.58.1.14.22.2.4.2.46 0 .77-.46.93-1.4.04-.2.06-.42.06-.6 0-.53-.2-.78-.54-.78-.47 0-.78.47-.94 1.4zM8.4 8c.1-.67.3-1.18.6-1.5.32-.34.7-.5 1.18-.5.37 0 .66.1.85.34.2.23.3.57.3 1 0 .22-.03.42-.06.62-.2 1.35-.8 2.03-1.77 2.03-.76 0-1.15-.48-1.15-1.4 0-.2.02-.4.06-.6zM7 .5c0-.28.18-.37.4-.2l2.5 1.9c.22.16.22.43 0 .6L7.4 4.7c-.22.16-.4.08-.4-.2v-4zm3 0c0-.28.18-.37.4-.2l2.5 1.9c.22.16.22.43 0 .6l-2.5 1.9c-.22.16-.4.08-.4-.2v-4z"/><path fill="none" stroke="currentColor" stroke-linecap="round" d="M11.85 11.96C10.8 13.1 9.3 13.82 7.6 13.82c-3.16 0-5.74-2.58-5.74-5.76 0-3.18 2.58-5.76 5.76-5.76"/></symbol>

  <!-- Reading -->
  <symbol id="nrk-longread--unread" viewBox="0 0 15 15"><path stroke-linecap="round" stroke="currentColor" fill="none" d="M6.5 7.5S7 7 7.5 7s1 .5 1 .5m5 0h1m-14 0h1"/><circle stroke="currentColor" fill="none" cx="4" cy="8.5" r="2.5"/><circle stroke="currentColor" fill="none" cx="11" cy="8.5" r="2.5"/></symbol>
  <symbol id="nrk-longread--read" viewBox="0 0 15 15"><path stroke-linecap="round" stroke="currentColor" fill="none" d="M6.5 7.5S7 7 7.5 7s1 .5 1 .5m5 0h1m-14 0h1"/><circle stroke="currentColor" cx="4" cy="8.5" r="2.5"/><circle stroke="currentColor" cx="11" cy="8.5" r="2.5"/></symbol>

  <!-- Personalization -->
  <symbol id="nrk-alarm--off" viewBox="0 0 15 15"><path d="M9 12.5H6S6 14 7.5 14 9 12.5 9 12.5z"/><path stroke="currentColor" stroke-linecap="round" d="M7.5 1v1"/><path fill="none" stroke="currentColor" d="M7.5 2c-1.56 0-2.62.55-3.3 1.52l-.15.25c-.32.55-.43 1-.55 1.96-.2 1.63-.43 2.4-1.25 3.74-.16.3-.27.74-.25 1.1.04.63.3.93 1 .93h9c.7 0 .96-.3 1-.9.02-.35-.08-.75-.22-1.07-.83-1.37-1.04-2.17-1.16-3.75-.08-1-.18-1.44-.5-2-.04-.1-.1-.18-.16-.26C10.3 2.58 9.1 2 7.5 2z"/></symbol>
  <symbol id="nrk-alarm--on" viewBox="0 0 15 15"><path d="M9 12.5H6S6 14 7.5 14 9 12.5 9 12.5z"/><path stroke="currentColor" stroke-linecap="round" d="M7.5 1v1"/><path stroke="currentColor" d="M7.5 2c-1.56 0-2.62.55-3.3 1.52l-.15.25c-.32.55-.43 1-.55 1.96-.2 1.63-.43 2.4-1.25 3.74-.16.3-.27.74-.25 1.1.04.63.3.93 1 .93h9c.7 0 .96-.3 1-.9.02-.35-.08-.75-.22-1.07-.83-1.37-1.04-2.17-1.16-3.75-.08-1-.18-1.44-.5-2-.04-.1-.1-.18-.16-.26C10.3 2.58 9.1 2 7.5 2z"/></symbol>
  <symbol id="nrk-bookmark--off" viewBox="0 0 15 15"><path stroke="currentColor" fill="none" d="M4.5 2.5c0-.6.5-1 1-1h4c.6 0 1 .4 1 1V13l-3-4-3 4V2.4z"/></symbol>
  <symbol id="nrk-bookmark--on" viewBox="0 0 15 15"><path stroke="currentColor" d="M4.5 2.5c0-.6.5-1 1-1h4c.6 0 1 .4 1 1V13l-3-4-3 4V2.4z"/></symbol>
  <symbol id="nrk-favorite--off" viewBox="0 0 15 15"><path stroke="currentColor" fill="none" d="M7.5 10.97l-3.62 2.76c-.12.1-.27.1-.4 0-.1-.08-.15-.24-.1-.38L4.75 8.9 1.13 6.12c-.1-.1-.16-.24-.12-.38.06-.14.18-.24.33-.24H5.8l1.4-4.46C7.22.9 7.35.8 7.5.8c.14 0 .27.1.3.24L9.2 5.5h4.47c.14 0 .27.1.3.24.06.15 0 .3-.1.4l-3.63 2.75 1.4 4.45c.03.15-.02.3-.13.4-.05.03-.12.05-.18.05s-.14-.02-.2-.06L7.5 10.97z"/></symbol>
  <symbol id="nrk-favorite--on" viewBox="0 0 15 15"><path stroke="currentColor" d="M7.5 10.97l-3.62 2.76c-.12.1-.27.1-.4 0-.1-.08-.15-.24-.1-.38L4.75 8.9 1.13 6.12c-.1-.1-.16-.24-.12-.38.06-.14.18-.24.33-.24H5.8l1.4-4.46C7.22.9 7.35.8 7.5.8c.14 0 .27.1.3.24L9.2 5.5h4.47c.14 0 .27.1.3.24.06.15 0 .3-.1.4l-3.63 2.75 1.4 4.45c.03.15-.02.3-.13.4-.05.03-.12.05-.18.05s-.14-.02-.2-.06L7.5 10.97z"/></symbol>
  <symbol id="nrk-heart--off" viewBox="0 0 15 15"><path stroke="currentColor" fill="none" d="M7.5 13.14l-.2-.18C2.72 9 1.5 7.62 1.5 5.36 1.5 3.52 2.92 2 4.67 2c1.45 0 2.28.88 2.83 1.54C8.05 2.88 8.88 2 10.34 2c1.74 0 3.16 1.5 3.16 3.37 0 2.25-1.23 3.64-5.8 7.6l-.2.17z"/></symbol>
  <symbol id="nrk-heart--on" viewBox="0 0 15 15"><path stroke="currentColor" d="M7.5 13.14l-.2-.18C2.72 9 1.5 7.62 1.5 5.36 1.5 3.52 2.92 2 4.67 2c1.45 0 2.28.88 2.83 1.54C8.05 2.88 8.88 2 10.34 2c1.74 0 3.16 1.5 3.16 3.37 0 2.25-1.23 3.64-5.8 7.6l-.2.17z"/></symbol>

  <!-- SoMe -->
  <symbol id="nrk-some-twitter" viewBox="0 0 15 15"><path d="M14 4.12c-.44.2-.92.32-1.4.38.5-.3.9-.77 1.07-1.32-.48.27-1 .47-1.56.58C11.67 3.3 11 3 10.3 3 8.96 3 7.86 4.07 7.86 5.4c0 .17.02.36.06.53-2.04-.1-3.85-1.05-5.07-2.5-.2.36-.33.77-.33 1.2 0 .83.44 1.57 1.1 2-.4-.02-.8-.12-1.12-.3v.02c0 1.16.85 2.13 1.98 2.34-.2.05-.43.08-.65.08-.15 0-.3-.02-.45-.05.3.95 1.22 1.64 2.3 1.66-.84.63-1.9 1-3.06 1-.2 0-.4 0-.6-.02 1.1.7 2.38 1.08 3.77 1.08 4.53 0 7-3.64 7-6.8v-.3c.48-.34.9-.76 1.23-1.24"/></symbol>
  <symbol id="nrk-some-youtube" viewBox="0 0 15 15"><path fill-rule="evenodd" d="M13.87 4.94s-.13-.88-.52-1.27c-.5-.5-1.04-.5-1.3-.54C10.25 3 7.5 3 7.5 3s-2.73 0-4.55.13c-.25.03-.8.03-1.3.54-.4.4-.52 1.27-.52 1.27S1 5.98 1 7v1c0 1.04.13 2.07.13 2.07s.13.9.52 1.27c.5.5 1.14.5 1.43.55C4.12 12 7.5 12 7.5 12s2.73 0 4.55-.13c.26-.04.8-.04 1.3-.55.4-.4.52-1.27.52-1.27S14 9.02 14 8V7c0-1.04-.13-2.08-.13-2.08zm-7.7 4.32l3.5-1.82L6.14 5.6v3.66z"/></symbol>
  <symbol id="nrk-some-instagram" viewBox="0 0 15 15"><path d="M7.5 2.24c1.7 0 1.92 0 2.6.04.62.03.96.13 1.18.22.3.12.52.25.74.48.23.22.37.44.48.74.1.22.2.56.22 1.2.03.66.04.87.04 2.58s0 1.92-.04 2.6c-.03.62-.13.96-.22 1.18-.1.3-.25.52-.48.74-.22.23-.44.37-.74.48-.22.1-.56.2-1.2.22-.66.03-.87.04-2.58.04s-1.92 0-2.6-.04c-.62-.03-.96-.13-1.18-.22-.3-.1-.52-.25-.74-.48-.23-.22-.36-.44-.48-.74-.1-.22-.2-.56-.22-1.2-.03-.66-.04-.87-.04-2.58s0-1.92.04-2.6c.03-.62.13-.96.22-1.18.12-.3.25-.52.48-.74.22-.23.44-.36.74-.48.22-.1.56-.2 1.2-.22.66-.03.87-.04 2.58-.04m0-1.16c-1.74 0-1.96 0-2.65.04-.68.03-1.14.14-1.55.3-.42.17-.78.38-1.14.74-.35.36-.57.72-.74 1.14-.16.4-.26.87-.3 1.56-.03.68-.03.9-.03 2.64 0 1.74 0 1.96.02 2.65.04.68.14 1.14.3 1.55.17.43.4.78.74 1.14.36.35.72.57 1.14.74.4.16.87.26 1.56.3.68.03.9.03 2.64.03 1.74 0 1.96 0 2.65-.02.68-.04 1.15-.14 1.55-.3.43-.17.78-.4 1.14-.74.36-.36.57-.72.74-1.14.16-.4.27-.87.3-1.56.03-.68.04-.9.04-2.64 0-1.74 0-1.96-.04-2.65-.03-.68-.14-1.15-.3-1.55-.17-.43-.38-.78-.74-1.14-.36-.36-.72-.58-1.14-.74-.4-.16-.87-.27-1.56-.3-.68-.03-.9-.04-2.64-.04m0 3.13c-1.82 0-3.3 1.48-3.3 3.3 0 1.82 1.48 3.3 3.3 3.3 1.82 0 3.3-1.48 3.3-3.3 0-1.82-1.48-3.3-3.3-3.3zm0 5.44c-1.18 0-2.14-.96-2.14-2.14 0-1.18.96-2.14 2.14-2.14 1.18 0 2.14.96 2.14 2.14 0 1.18-.96 2.14-2.14 2.14zm4.2-5.57c0 .43-.35.77-.77.77-.43 0-.77-.34-.77-.76 0-.43.34-.77.77-.77.42 0 .77.35.77.78"/></symbol>
  <symbol id="nrk-some-snapchat" viewBox="0 0 15 15"><path fill="none" stroke="currentColor" d="M7.62 2h-.25c-.5 0-2.18.14-2.97 1.9-.26.6-.2 1.63-.14 2.44v.3c-.03.02-.1.04-.23.04-.15 0-.34-.05-.55-.14-.05-.03-.12-.04-.2-.04-.23 0-.53.16-.57.4-.02.17.06.42.6.64l.2.06c.22.07.56.18.66.4.05.12.03.27-.06.45-.04.08-.77 1.75-2.4 2.02-.13.02-.22.13-.2.26 0 .04 0 .08.02.1.12.3.64.5 1.58.65.03.05.06.2.08.3l.07.27c.03.1.1.2.3.2.06 0 .15 0 .26-.03.17-.03.38-.07.65-.07.15 0 .3 0 .46.04.3.04.57.22.87.43.42.3.9.64 1.64.64h.17c.73 0 1.2-.35 1.64-.65.3-.2.57-.4.87-.45.16-.02.3-.04.46-.04.26 0 .46.04.64.07l.27.03h.02c.14 0 .24-.07.28-.2l.06-.28c.02-.1.06-.24.1-.3.93-.13 1.45-.34 1.57-.63l.02-.1c0-.13-.1-.25-.22-.27-1.63-.27-2.36-1.94-2.4-2v-.02c-.1-.18-.1-.33-.06-.44.1-.23.45-.34.67-.42l.17-.06c.4-.16.6-.36.6-.6 0-.17-.14-.33-.36-.4-.06-.04-.15-.06-.24-.06-.06 0-.15 0-.23.05-.2.1-.37.15-.52.15-.1 0-.15-.03-.2-.05l.03-.25V6.3c.05-.8.12-1.82-.15-2.4C9.78 2.13 8.1 2 7.62 2z"/></symbol>
  <symbol id="nrk-some-facebook" viewBox="0 0 15 15"><path d="M8.4 4.6c0-.5 0-.8.8-.8h1V2H8.7C7 2 6.2 3.2 6.2 4.6v1H4.7v2h1.5V13h2.2V7.5H10l.2-1.8H8.4v-1z"/></symbol>
  <symbol id="nrk-some-google" viewBox="0 0 15 15"><path d="M4.873 7.322v1.636H7.58c-.11.702-.82 2.06-2.707 2.06-1.63 0-2.96-1.35-2.96-3.015 0-1.663 1.33-3.013 2.96-3.013.927 0 1.547.395 1.902.736L8.07 4.478C7.24 3.7 6.16 3.23 4.873 3.23 2.233 3.23.1 5.366.1 8.004c0 2.64 2.134 4.773 4.773 4.773 2.754 0 4.582-1.936 4.582-4.663 0-.314-.035-.553-.075-.79H4.873zM14.5 7.333h-1.333V6h-1.334v1.333H10.5v1.334h1.333V10h1.334V8.667H14.5"/></symbol>
  <symbol id="nrk-some-email" viewBox="0 0 15 15"><g fill="none" stroke="currentColor"><path d="M1.5 3c0-.3.2-.5.5-.5h11c.3 0 .5.2.5.5v8c0 .3-.2.5-.5.5H2c-.3 0-.5-.2-.5-.5V3z"/><path stroke-width=".8" d="M1.5 3l6 5.5 6-5.5"/><path stroke-width=".5" d="M13.5 11.5L9 7.5m-7.5 4l4.5-4"/></g></symbol>

  <!-- Other -->
  <symbol id="nrk-geo--off" viewBox="0 0 15 15"><path stroke="currentColor" fill="none" stroke-width=".5" d="M5.5 7.5c0-1 1-2 2-2s2 1 2 2-1 2-2 2-2-1-2-2z"/><path stroke="currentColor" fill="none" d="M7.5 12.5c-2.8 0-5-2.2-5-5s2.2-5 5-5 5 2.2 5 5-2.2 5-5 5z"/><path stroke="currentColor" stroke-linecap="round" d="M12 7.5h1.5m-12 0H3m4.5-6V3m0 9v1.5"/></symbol>
  <symbol id="nrk-geo--on" viewBox="0 0 15 15"><path stroke="currentColor" stroke-width=".5" d="M5.5 7.5c0-1 1-2 2-2s2 1 2 2-1 2-2 2-2-1-2-2z"/><path stroke="currentColor" fill="none" d="M7.5 12.5c-2.8 0-5-2.2-5-5s2.2-5 5-5 5 2.2 5 5-2.2 5-5 5z"/><path stroke="currentColor" stroke-linecap="round" d="M12 7.5h1.5m-12 0H3m4.5-6V3m0 9v1.5"/></symbol>
  <symbol id="nrk-geopoint--off" viewBox="0 0 15 15"><path fill="none" stroke="currentColor" d="M3 5.7C3 3 4.8 1 7.5 1 10.3 1 12 3 12 5.7c0 2.6-4.5 8-4.5 8S3 8.4 3 5.6z"/><path stroke-width=".5" fill="none" stroke="currentColor" d="M5.5 5.5c0-1 1-2 2-2s2 1 2 2-1 2-2 2-2-1-2-2z"/></symbol>
  <symbol id="nrk-geopoint--on" viewBox="0 0 15 15"><path fill="none" stroke="currentColor" d="M3 5.7C3 3 4.8 1 7.5 1 10.3 1 12 3 12 5.7c0 2.6-4.5 8-4.5 8S3 8.4 3 5.6z"/><path stroke-width=".5" stroke="currentColor" d="M5.5 5.5c0-1 1-2 2-2s2 1 2 2-1 2-2 2-2-1-2-2z"/></symbol>
  <symbol id="nrk-home--off" viewBox="0 0 15 15"><path fill="none" stroke="currentColor" d="M12.5 5.7v7.8h-10V5.7"/><circle fill="none" stroke="currentColor" cx="7.5" cy="6" r=".8" stroke-width=".5"/><path fill="none" stroke="currentColor" d="M.6 7.5l.8-.7 6-5.3 7 6" stroke-linecap="round"/><path fill="none" stroke="currentColor" stroke-width=".5" d="M6.3 13v-2.7c0-.7.5-1.3 1.2-1.3s1.3.6 1.3 1.3V13"/></symbol>
  <symbol id="nrk-home--on" viewBox="0 0 15 15"><path fill="none" stroke="currentColor" d="M12.5 5.7v7.8h-10V5.7"/><circle fill="none" stroke="currentColor" cx="7.5" cy="6" r=".8" stroke-width=".5"/><path fill="none" stroke="currentColor" d="M.6 7.5l.8-.7 6-5.3 7 6" stroke-linecap="round"/><path stroke="currentColor" stroke-width=".5" d="M6.3 13v-2.7c0-.7.5-1.3 1.2-1.3s1.3.6 1.3 1.3V13"/></symbol>
  <symbol id="nrk-settings--off" viewBox="0 0 15 15"><path d="M7.5 14.75c-.3 0-.55-.25-.55-.56v-.53c0-1.13-1.48-1.54-2.05-.56l-.27.47c-.1.18-.34.28-.53.28-.1 0-.18-.02-.27-.07-.27-.16-.36-.5-.2-.76l.22-.4c.56-.98-.53-2.1-1.5-1.52l-.4.23c-.08.05-.17.07-.26.07-.2 0-.4-.1-.5-.28-.14-.26-.05-.6.2-.76l.4-.22c.97-.57.57-2.08-.56-2.08H.8c-.3 0-.55-.25-.55-.56 0-.3.25-.56.55-.56h.44c1.13 0 1.53-1.5.55-2.08l-.4-.22c-.25-.16-.34-.5-.2-.76.16-.27.5-.36.76-.2l.4.22c.97.57 2.07-.53 1.5-1.52l-.22-.4c-.15-.26-.05-.6.2-.76.27-.15.63-.06.8.2l.26.47c.57.97 2.05.56 2.05-.57V.8c0-.3.24-.55.55-.55.3 0 .55.25.55.56v.53c0 1.13 1.48 1.54 2.05.56l.27-.48c.16-.26.52-.35.78-.2.26.16.36.5.2.76l-.2.4c-.58 1 .52 2.1 1.5 1.52l.4-.23c.25-.15.6-.06.74.2.14.27.05.6-.2.77l-.4.22c-.97.57-.57 2.08.56 2.08h.44c.3 0 .55.25.55.56 0 .3-.25.56-.55.56h-.44c-1.13 0-1.53 1.5-.55 2.08l.4.22c.25.16.34.5.2.76-.1.18-.3.28-.5.28-.08 0-.17-.02-.26-.07l-.38-.23c-.98-.57-2.07.54-1.5 1.53l.2.4c.17.25.07.6-.2.75-.08.05-.17.07-.26.07-.2 0-.42-.1-.53-.28l-.27-.46c-.57-.97-2.05-.56-2.05.57v.52c0 .3-.24.55-.55.55zm0-2.72c2.5 0 4.53-2.03 4.53-4.53C12.03 5 10 2.97 7.5 2.97 5 2.97 2.97 5 2.97 7.5c0 2.5 2.03 4.53 4.53 4.53z"/><path stroke="currentColor" fill="none" stroke-width=".5" d="M5.5 7.5c0-1.1.9-2 2-2s2 .9 2 2-.9 2-2 2-2-.9-2-2z"/></symbol>
  <symbol id="nrk-settings--on" viewBox="0 0 15 15"><path d="M6.947 14.192v-.52c0-1.135-1.48-1.543-2.05-.565l-.27.468c-.103.18-.334.28-.524.28-.093 0-.188-.026-.275-.076-.263-.155-.353-.496-.2-.763l.22-.388c.563-.99-.528-2.095-1.504-1.525l-.383.224c-.086.05-.18.074-.274.074-.19 0-.376-.1-.477-.28-.154-.266-.064-.607.2-.76l.383-.225c.975-.57.576-2.082-.55-2.082H.8c-.304 0-.55-.25-.55-.558 0-.308.246-.558.55-.558h.443c1.127 0 1.526-1.51.55-2.08l-.382-.225c-.263-.154-.352-.495-.2-.762.152-.266.49-.36.753-.204l.396.232c.974.57 2.065-.535 1.503-1.523l-.225-.397c-.152-.267-.05-.608.213-.762.265-.154.623-.062.776.205l.272.468c.57.978 2.05.57 2.05-.566v-.52c0-.308.246-.557.55-.557.308 0 .554.25.554.557v.52c0 1.135 1.48 1.544 2.05.566l.272-.468c.152-.267.51-.36.775-.204.262.155.364.496.212.763l-.225.396c-.562.987.53 2.092 1.504 1.522l.397-.23c.264-.156.6-.063.753.203.152.267.063.608-.2.762l-.384.224c-.975.57-.576 2.082.55 2.082h.443c.304 0 .55.25.55.558 0 .308-.246.558-.55.558h-.443c-1.126 0-1.526 1.51-.55 2.08l.383.225c.263.154.354.495.2.762-.1.18-.286.28-.476.28-.093 0-.188-.025-.275-.076l-.384-.225c-.976-.57-2.067.535-1.504 1.524l.22.387c.153.267.063.608-.2.762-.087.05-.182.074-.275.074-.19 0-.42-.1-.523-.28l-.272-.467c-.57-.978-2.05-.57-2.05.566v.52c0 .307-.246.557-.55.557-.308 0-.555-.25-.555-.558zM7.5 9C8.328 9 9 8.328 9 7.5S8.328 6 7.5 6 6 6.672 6 7.5 6.672 9 7.5 9z"/></symbol>

  <symbol id="nrk-search" viewBox="0 0 15 15"><path fill="none" stroke="currentColor" d="M5.8 11C8.6 11 11 8.6 11 5.8S8.6.5 5.8.5.5 3 .5 5.8 3 11 5.8 11z"/><path d="M9.5 11s.5-.6 0-1c-.3-.4-.8-.4-.3-.8.4-.5.6 0 .8.3.5.5 1 0 1 0l1.7 1.8c.5.5.5 1 0 1.4s-1 .5-1.4 0L9.5 11z"/></symbol>
  <symbol id="nrk-calendar" viewBox="0 0 15 15"><path stroke="currentColor" fill="none" d="M1.5 3c0-.3.2-.5.5-.5h11c.3 0 .5.2.5.5v10c0 .3-.2.5-.5.5H2c-.3 0-.5-.2-.5-.5V3z" stroke-linecap="square"/><circle cx="4.5" cy="10.5" r="1"/><circle cx="7.5" cy="10.5" r="1"/><circle cx="10.5" cy="10.5" r="1"/><circle cx="4.5" cy="7.5" r="1" stroke="currentColor" fill="none" stroke-width=".5"/><circle cx="7.5" cy="7.5" r="1"/><circle cx="10.5" cy="7.5" r="1"/><path stroke="currentColor" stroke-linecap="round" d="M10.5 1.5v2m-6-2v2"/><path stroke="currentColor" stroke-linecap="square" stroke-width=".5" d="M2 4.8h11"/></symbol>
  <symbol id="nrk-reload" viewBox="0 0 15 15"><path fill="currentColor" stroke-linecap="round" d="M3.05 1.23c-.16-.22-.37-.18-.44.07L1.54 4.95c-.07.26.1.47.36.47l3.8-.03c.27 0 .36-.18.18-.42L3.05 1.23z"/><path stroke="currentColor" stroke-linecap="round" fill="none" d="M3.15 11.97C4.2 13.1 5.7 13.82 7.4 13.82c3.17 0 5.75-2.58 5.75-5.76 0-3.18-2.58-5.76-5.76-5.76-1.58 0-3 .63-4.04 1.65"/></symbol>
  <symbol id="nrk-mening" viewBox="0 0 15 15"><path fill="none" stroke="currentColor" stroke-linejoin="round" d="M3 10.6V13l3-1h1.5C11 12 14 9.8 14 7s-3-5-6.5-5S1 4.2 1 7c0 1.4.8 2.7 2 3.6z"/></symbol>
  <symbol id="nrk-gallery" viewBox="0 0 15 15"><path fill="none" stroke="currentColor" stroke-linecap="round" d="M1 10l3-3 4 5m-1-2l2-2 4 4.5"/><ellipse fill="none" stroke="currentColor" cx="11.5" cy="5" rx="1.5" ry="1.5"/></symbol>
  <symbol id="nrk-mat" viewBox="0 0 15 15"><path fill="none" stroke="currentColor" d="M3.5 8C2 7.8 1 6.6 1 5c0-1.5 1.3-2.8 3-2.8.8 0 1.6.4 2.2 1C7 2 8.2 1 9.8 1c2.3 0 4 1.8 4 4 0 1.8-1 3.3-2.5 4l-.3 4c0 .3-.2.5-.5.5h-6c-.3 0-.5-.2-.5-.5l-.5-5z"/><path stroke="currentColor" stroke-width=".5" d="M5.8 11.5v-3m3.5 3v-3M7.5 11V8.5"/><path stroke="currentColor" d="M4 11.5h7"/></symbol>
  <symbol id="nrk-info" viewBox="0 0 15 15"><path d="M7.5 3.62c-.33 0-.6.2-.6.53 0 .32.27.52.6.52.32 0 .56-.2.56-.52s-.25-.53-.57-.53zm.45 2.1H6.4v.5l.75.22v4.35l-.77.22v.48h2.34v-.48l-.77-.23V5.7z"/></symbol>
  <symbol id="nrk-help" viewBox="0 0 15 15"><path fill="currentColor" d="M7.07 9.04c0-.3.04-.57.13-.8.1-.24.2-.44.35-.63l.46-.52c.17-.16.33-.33.47-.5.14-.16.26-.33.35-.5.1-.2.14-.4.14-.62 0-.42-.12-.74-.36-.97-.24-.24-.6-.35-1.07-.35-.5 0-.87.14-1.15.42-.27.28-.4.68-.4 1.2H5.2c0-.76.2-1.34.62-1.75.4-.4 1-.6 1.76-.6.33 0 .62.03.9.12.27.08.5.2.7.37.2.18.34.38.45.62.1.24.16.5.16.82 0 .3-.06.54-.16.76-.1.23-.22.43-.37.62s-.3.37-.48.54c-.18.17-.34.35-.5.53-.14.17-.26.36-.36.56-.1.2-.15.43-.15.7v.24h-.75v-.28zm-.25 2.03c0-.2.06-.33.17-.44.1-.1.26-.15.44-.15.17 0 .3.05.43.15.12.1.17.24.17.42s-.05.33-.17.43c-.12.1-.26.16-.43.16-.18 0-.33-.05-.45-.15-.12-.1-.18-.25-.18-.4z"/></symbol>

  <!-- Terningkast -->
  <symbol id="nrk-terningkast--1" viewBox="0 0 15 15"><path d="M8.5 7.5c0 .6-.4 1-1 1s-1-.4-1-1 .4-1 1-1 1 .4 1 1"/></symbol>
  <symbol id="nrk-terningkast--2" viewBox="0 0 15 15"><path d="M4.5 3.5c0 .6-.4 1-1 1s-1-.4-1-1 .4-1 1-1 1 .4 1 1m8 8c0 .6-.4 1-1 1s-1-.4-1-1 .4-1 1-1 1 .4 1 1"/></symbol>
  <symbol id="nrk-terningkast--3" viewBox="0 0 15 15"><path d="M4.5 3.5c0 .6-.4 1-1 1s-1-.4-1-1 .4-1 1-1 1 .4 1 1m4 4c0 .6-.4 1-1 1s-1-.4-1-1 .4-1 1-1 1 .4 1 1m4 4c0 .6-.4 1-1 1s-1-.4-1-1 .4-1 1-1 1 .4 1 1"/></symbol>
  <symbol id="nrk-terningkast--4" viewBox="0 0 15 15"><path d="M4.5 3.5c0 .6-.4 1-1 1s-1-.4-1-1 .4-1 1-1 1 .4 1 1m8 0c0 .6-.4 1-1 1s-1-.4-1-1 .4-1 1-1 1 .4 1 1m-8 8c0 .6-.4 1-1 1s-1-.4-1-1 .4-1 1-1 1 .4 1 1m8 0c0 .6-.4 1-1 1s-1-.4-1-1 .4-1 1-1 1 .4 1 1"/></symbol>
  <symbol id="nrk-terningkast--5" viewBox="0 0 15 15"><path d="M4.5 3.5c0 .6-.4 1-1 1s-1-.4-1-1 .4-1 1-1 1 .4 1 1m8 0c0 .6-.4 1-1 1s-1-.4-1-1 .4-1 1-1 1 .4 1 1m-4 4c0 .6-.4 1-1 1s-1-.4-1-1 .4-1 1-1 1 .4 1 1m-4 4c0 .6-.4 1-1 1s-1-.4-1-1 .4-1 1-1 1 .4 1 1m8 0c0 .6-.4 1-1 1s-1-.4-1-1 .4-1 1-1 1 .4 1 1"/></symbol>
  <symbol id="nrk-terningkast--6" viewBox="0 0 15 15"><path d="M4.5 3.5c0 .6-.4 1-1 1s-1-.4-1-1 .4-1 1-1 1 .4 1 1m8 0c0 .6-.4 1-1 1s-1-.4-1-1 .4-1 1-1 1 .4 1 1m-8 4c0 .6-.4 1-1 1s-1-.4-1-1 .4-1 1-1 1 .4 1 1m8 0c0 .6-.4 1-1 1s-1-.4-1-1 .4-1 1-1 1 .4 1 1m-8 4c0 .6-.4 1-1 1s-1-.4-1-1 .4-1 1-1 1 .4 1 1m8 0c0 .6-.4 1-1 1s-1-.4-1-1 .4-1 1-1 1 .4 1 1"/></symbol>
  <symbol id="nrk-terningkast-filled--1" viewBox="0 0 15 15"><path fill-rule="evenodd" d="M1 2c0-.6.4-1 1-1h11c.6 0 1 .4 1 1v11c0 .6-.4 1-1 1H2c-.6 0-1-.4-1-1V2zm7.5 5.5c0 .6-.4 1-1 1s-1-.4-1-1 .4-1 1-1 1 .4 1 1z"/></symbol>
  <symbol id="nrk-terningkast-filled--2" viewBox="0 0 15 15"><path fill-rule="evenodd" d="M1 2c0-.6.4-1 1-1h11c.6 0 1 .4 1 1v11c0 .6-.4 1-1 1H2c-.6 0-1-.4-1-1V2zm4.5 2.5c0 .6-.4 1-1 1s-1-.4-1-1 .4-1 1-1 1 .4 1 1zm6 6c0 .6-.4 1-1 1s-1-.4-1-1 .4-1 1-1 1 .4 1 1z"/></symbol>
  <symbol id="nrk-terningkast-filled--3" viewBox="0 0 15 15"><path fill-rule="evenodd" d="M1 2c0-.6.4-1 1-1h11c.6 0 1 .4 1 1v11c0 .6-.4 1-1 1H2c-.6 0-1-.4-1-1V2zm4.5 2.5c0 .6-.4 1-1 1s-1-.4-1-1 .4-1 1-1 1 .4 1 1zm3 3c0 .6-.4 1-1 1s-1-.4-1-1 .4-1 1-1 1 .4 1 1zm3 3c0 .6-.4 1-1 1s-1-.4-1-1 .4-1 1-1 1 .4 1 1z"/></symbol>
  <symbol id="nrk-terningkast-filled--4" viewBox="0 0 15 15"><path fill-rule="evenodd" d="M1 2c0-.6.4-1 1-1h11c.6 0 1 .4 1 1v11c0 .6-.4 1-1 1H2c-.6 0-1-.4-1-1V2zm4.5 2.5c0 .6-.4 1-1 1s-1-.4-1-1 .4-1 1-1 1 .4 1 1zm6 0c0 .6-.4 1-1 1s-1-.4-1-1 .4-1 1-1 1 .4 1 1zm-6 6c0 .6-.4 1-1 1s-1-.4-1-1 .4-1 1-1 1 .4 1 1zm6 0c0 .6-.4 1-1 1s-1-.4-1-1 .4-1 1-1 1 .4 1 1z"/></symbol>
  <symbol id="nrk-terningkast-filled--5" viewBox="0 0 15 15"><path fill-rule="evenodd" d="M1 2c0-.6.4-1 1-1h11c.6 0 1 .4 1 1v11c0 .6-.4 1-1 1H2c-.6 0-1-.4-1-1V2zm4.5 2.5c0 .6-.4 1-1 1s-1-.4-1-1 .4-1 1-1 1 .4 1 1zm6 0c0 .6-.4 1-1 1s-1-.4-1-1 .4-1 1-1 1 .4 1 1zm-3 3c0 .6-.4 1-1 1s-1-.4-1-1 .4-1 1-1 1 .4 1 1zm-3 3c0 .6-.4 1-1 1s-1-.4-1-1 .4-1 1-1 1 .4 1 1zm6 0c0 .6-.4 1-1 1s-1-.4-1-1 .4-1 1-1 1 .4 1 1z"/></symbol>
  <symbol id="nrk-terningkast-filled--6" viewBox="0 0 15 15"><path fill-rule="evenodd" d="M1 2c0-.6.4-1 1-1h11c.6 0 1 .4 1 1v11c0 .6-.4 1-1 1H2c-.6 0-1-.4-1-1V2zm4.5 2.5c0 .6-.4 1-1 1s-1-.4-1-1 .4-1 1-1 1 .4 1 1zm6 0c0 .6-.4 1-1 1s-1-.4-1-1 .4-1 1-1 1 .4 1 1zm-6 3c0 .6-.4 1-1 1s-1-.4-1-1 .4-1 1-1 1 .4 1 1zm6 0c0 .6-.4 1-1 1s-1-.4-1-1 .4-1 1-1 1 .4 1 1zm-6 3c0 .6-.4 1-1 1s-1-.4-1-1 .4-1 1-1 1 .4 1 1zm6 0c0 .6-.4 1-1 1s-1-.4-1-1 .4-1 1-1 1 .4 1 1z"/></symbol>
</svg>
