<?xml version="1.0" encoding="UTF-8"?>
<svg xmlns="http://www.w3.org/2000/svg" xmlns:xlink="http://www.w3.org/1999/xlink" version="1.2" >
<font id="LFTEticaDisplayTh">
<font-face  font-family="LFT Etica Display" units-per-em="1000" ascent="930" descent="-270" font-style="normal" font-weight="250" font-stretch="normal" cap-height="720" x-height="523" underline-position="-75" underline-thickness="50" />
<missing-glyph  horiz-adv-x="180" d="" />
<glyph glyph-name="space" unicode="&#x20;" horiz-adv-x="170" d="" />
<glyph glyph-name="numbersign" unicode="&#x23;" horiz-adv-x="692" d="M231 238 L406 238 L462 395 L282 395 L231 238 Z M492 395 L438 238 L585 238 L585 208 L428 208 L358 17 L331 24 L397 208 L217 208 L149 17 L122 24 L187 208 L61 208 L61 238 L197 238 L252 395 L113 395 L113 425 L263 425 L336 634 L363 627 L294 425 L472 425 L546 634 L574 627 L503 425 L636 425 L636 395 L492 395 Z " />
<glyph glyph-name="ampersand" unicode="&#x26;" horiz-adv-x="702" d="M215 583 Q215 551 234.5 513 Q254 475 298 427 Q367 456 398.5 495.5 Q430 535 430 584 Q430 605 422 624 Q414 643 399 657.5 Q384 672 364 680 Q344 688 320 688 Q274 688 244.5 659 Q215 630 215 583 Z M309 10 Q428 10 503 122 L287 394 Q200 358 161.5 310.5 Q123 263 123 190 Q123 152 136.5 119 Q150 86 174.5 62 Q199 38 233.5 24 Q268 10 309 10 Z M522 96 Q477 39 426 9.5 Q375 -20 309 -20 Q261 -20 220.5 -4 Q180 12 150.5 40 Q121 68 104.5 107 Q88 146 88 193 Q88 336 267 416 Q232 454 206.5 494.5 Q181 535 181 582 Q181 613 191.5 638.5 Q202 664 221 682 Q240 700 266 709.5 Q292 719 323 719 Q385 719 424 682 Q463 645 463 586 Q463 525 425.5 482 Q388 439 316 405 L417 278 Q417 278 422.5 282.5 Q428 287 438 294 Q448 301 460 310 Q472 319 485 329 Q515 352 554 381 L571 359 L503 307 Q473 284 434 255 L632 10 L608 -9 L522 96 Z " />
<glyph glyph-name="asterisk" unicode="&#x2a;" horiz-adv-x="433" d="M216 557 L133 455 L116 466 L189 575 L80 613 L86 631 L201 602 L207 720 L227 720 L232 603 L347 632 L353 613 L243 575 L314 465 L298 455 L216 557 Z " />
<glyph glyph-name="comma" unicode="&#x2c;" horiz-adv-x="250" d="M90 22 Q90 40 101.5 49.5 Q113 59 127 59 Q140 59 149 53.5 Q158 48 163 39.5 Q168 31 170 20.5 Q172 10 172 0 Q172 -38 155 -71.5 Q138 -105 91 -126 L83 -111 Q118 -93 134 -66 Q150 -39 150 -1 Q139 -12 123 -12 Q108 -12 99 -2 Q90 8 90 22 Z " />
<glyph glyph-name="hyphen" unicode="&#x2d;" horiz-adv-x="340" d="M37 292 L303 292 L303 264 L37 264 L37 292 Z " />
<glyph glyph-name="period" unicode="&#x2e;" horiz-adv-x="250" d="M90 23 Q90 41 100.5 50 Q111 59 125 59 Q139 59 149.5 50 Q160 41 160 24 Q160 7 149.5 -2.5 Q139 -12 125 -12 Q111 -12 100.5 -3 Q90 6 90 23 Z " />
<glyph glyph-name="colon" unicode="&#x3a;" horiz-adv-x="250" d="M90 23 Q90 41 100.5 50 Q111 59 125 59 Q139 59 149.5 50 Q160 41 160 24 Q160 7 149.5 -2.5 Q139 -12 125 -12 Q111 -12 100.5 -3 Q90 6 90 23 Z M90 443 Q90 461 100.5 470 Q111 479 125 479 Q139 479 149.5 470 Q160 461 160 444 Q160 427 149.5 417.5 Q139 408 125 408 Q111 408 100.5 417 Q90 426 90 443 Z " />
<glyph glyph-name="semicolon" unicode="&#x3b;" horiz-adv-x="250" d="M101 22 Q101 40 112.5 49.5 Q124 59 138 59 Q151 59 160 53.5 Q169 48 174 39.5 Q179 31 181 20.5 Q183 10 183 0 Q183 -38 166 -71.5 Q149 -105 102 -126 L94 -111 Q129 -93 145 -66 Q161 -39 161 -1 Q150 -12 134 -12 Q119 -12 110 -2 Q101 8 101 22 Z M102 443 Q102 461 112.5 470 Q123 479 137 479 Q151 479 161.5 470 Q172 461 172 444 Q172 427 161.5 417.5 Q151 408 137 408 Q123 408 112.5 417 Q102 426 102 443 Z " />
<glyph glyph-name="question" unicode="&#x3f;" horiz-adv-x="505" d="M229 209 Q229 254 242.5 287.5 Q256 321 276 348 Q296 375 320 398.5 Q344 422 364 445.5 Q384 469 397.5 496 Q411 523 411 558 Q411 624 373 662.5 Q335 701 257 701 Q179 701 136 654.5 Q93 608 93 528 L61 528 Q61 573 73 610.5 Q85 648 109.5 675 Q134 702 171.5 717 Q209 732 260 732 Q301 732 335.5 720 Q370 708 394.5 686.5 Q419 665 433 634 Q447 603 447 565 Q447 526 433 495.5 Q419 465 398 439 Q377 413 353 389 Q329 365 308 339 Q287 313 273 282.5 Q259 252 259 213 L259 187 L229 187 L229 209 Z M208 23 Q208 41 218.5 50 Q229 59 243 59 Q257 59 267.5 50 Q278 41 278 24 Q278 7 267.5 -2.5 Q257 -12 243 -12 Q229 -12 218.5 -3 Q208 6 208 23 Z " />
<glyph glyph-name="exclam" unicode="&#x21;" horiz-adv-x="306" d="M133 476 L133 720 L171 720 L171 476 L165 187 L140 187 L133 476 Z M117 23 Q117 41 127.5 50 Q138 59 152 59 Q166 59 176.5 50 Q187 41 187 24 Q187 7 176.5 -2.5 Q166 -12 152 -12 Q138 -12 127.5 -3 Q117 6 117 23 Z " />
<glyph glyph-name="exclamdown" unicode="&#xa1;" horiz-adv-x="306" d="M140 335 L165 335 L171 46 L171 -198 L133 -198 L133 46 L140 335 Z M117 499 Q117 516 127.5 525 Q138 534 152 534 Q166 534 176.5 524.5 Q187 515 187 498 Q187 481 176.5 472 Q166 463 152 463 Q138 463 127.5 472 Q117 481 117 499 Z " />
<glyph glyph-name="questiondown" unicode="&#xbf;" horiz-adv-x="505" d="M279 314 Q279 269 265.5 235.5 Q252 202 232 175 Q212 148 188 124.5 Q164 101 144 77.5 Q124 54 110.5 27 Q97 0 97 -35 Q97 -101 135 -139.5 Q173 -178 251 -178 Q329 -178 372 -131.5 Q415 -85 415 -5 L447 -5 Q447 -50 435 -87.5 Q423 -125 398.5 -152 Q374 -179 336.5 -194 Q299 -209 248 -209 Q207 -209 172.5 -197.5 Q138 -186 113.5 -164 Q89 -142 75 -111 Q61 -80 61 -42 Q61 -3 75 27.5 Q89 58 110 84 Q131 110 155 134 Q179 158 200 184 Q221 210 235 240.5 Q249 271 249 310 L249 336 L279 336 L279 314 Z M300 500 Q300 482 289.5 473 Q279 464 265 464 Q251 464 240.5 473 Q230 482 230 499 Q230 516 240.5 525.5 Q251 535 265 535 Q279 535 289.5 526 Q300 517 300 500 Z " />
<glyph glyph-name="at" unicode="&#x40;" horiz-adv-x="982" d="M620 347 Q606 358 580 364.5 Q554 371 521 371 Q477 371 439.5 352 Q402 333 375 301.5 Q348 270 333 229 Q318 188 318 143 Q318 89 343.5 53.5 Q369 18 419 18 Q449 18 474.5 31 Q500 44 519.5 65 Q539 86 552.5 112 Q566 138 573 164 L620 347 Z M602 125 Q598 105 598 87 Q598 66 604 52.5 Q610 39 620 30.5 Q630 22 643 19 Q656 16 669 16 Q717 16 756.5 40.5 Q796 65 824.5 105.5 Q853 146 869 198 Q885 250 885 304 Q885 379 859 437.5 Q833 496 786 536 Q739 576 674 596.5 Q609 617 531 617 Q439 617 360 584 Q281 551 222 493 Q163 435 129.5 355 Q96 275 96 182 Q96 95 128 27 Q160 -41 214 -88.5 Q268 -136 340.5 -161 Q413 -186 494 -186 Q584 -186 652 -160.5 Q720 -135 782 -91 L800 -115 Q669 -217 497 -217 Q407 -217 328 -190 Q249 -163 189.5 -111.5 Q130 -60 96 14 Q62 88 62 182 Q62 287 98.5 373 Q135 459 199 520 Q263 581 349 614.5 Q435 648 534 648 Q621 648 692 624 Q763 600 813.5 556 Q864 512 891.5 449.5 Q919 387 919 311 Q919 248 902 189.5 Q885 131 852.5 86.5 Q820 42 772.5 15 Q725 -12 664 -12 Q612 -12 587.5 15.5 Q563 43 571 90 Q561 73 547 55 Q533 37 515 22 Q497 7 473.5 -2.5 Q450 -12 420 -12 Q351 -12 317 29.5 Q283 71 283 144 Q283 194 300 240.5 Q317 287 349.5 323 Q382 359 428 381 Q474 403 533 403 Q569 403 603 393 Q637 383 660 368 L602 125 Z " />
<glyph glyph-name="A" unicode="A" horiz-adv-x="618" d="M326 720 L593 0 L558 0 L467 245 L151 245 L61 0 L25 0 L290 720 L326 720 Z M456 275 L308 680 L162 275 L456 275 Z " />
<glyph glyph-name="B" unicode="B" horiz-adv-x="623" d="M95 720 L324 720 Q382 720 422 707 Q462 694 487.5 671 Q513 648 524.5 615 Q536 582 536 542 Q536 517 529 489.5 Q522 462 505.5 439 Q489 416 462.5 399.5 Q436 383 398 379 L398 377 Q448 374 481.5 356.5 Q515 339 535.5 313.5 Q556 288 564.5 258.5 Q573 229 573 201 Q573 146 554.5 108 Q536 70 503.5 46 Q471 22 426 11 Q381 0 327 0 L95 0 L95 720 Z M128 30 L334 30 Q437 30 487.5 77.5 Q538 125 538 202 Q538 246 522 276.5 Q506 307 477 325.5 Q448 344 408 352.5 Q368 361 320 361 L128 361 L128 30 Z M128 690 L128 388 L287 388 Q327 388 365.5 394 Q404 400 434 417.5 Q464 435 482.5 466 Q501 497 501 547 Q501 587 487.5 614.5 Q474 642 448.5 659 Q423 676 386 683 Q349 690 303 690 L128 690 Z " />
<glyph glyph-name="C" unicode="C" horiz-adv-x="640" d="M593 95 Q550 44 494 16 Q438 -12 361 -12 Q282 -12 226 19 Q170 50 134 102 Q98 154 81.5 222 Q65 290 65 364 Q65 438 83 505 Q101 572 138 622.5 Q175 673 231.5 703 Q288 733 364 733 Q413 733 455.5 719 Q498 705 529 679 Q560 653 577.5 615.5 Q595 578 595 531 L563 531 Q563 562 551 593 Q539 624 514 648 Q489 672 451.5 687 Q414 702 362 702 Q299 702 250 677 Q201 652 168 607.5 Q135 563 118 501.5 Q101 440 101 367 Q101 283 119.5 218 Q138 153 172 108.5 Q206 64 254 41.5 Q302 19 360 19 Q434 19 483 45.5 Q532 72 571 115 L593 95 Z " />
<glyph glyph-name="D" unicode="D" horiz-adv-x="686" d="M129 689 L129 31 L276 31 Q358 31 417 52.5 Q476 74 513 116 Q550 158 567.5 219 Q585 280 585 359 Q585 438 567.5 499.5 Q550 561 513 603 Q476 645 417 667 Q358 689 276 689 L129 689 Z M270 720 Q354 720 419.5 700 Q485 680 529.5 637 Q574 594 597.5 525 Q621 456 621 359 Q621 261 597.5 193 Q574 125 529 82 Q484 39 417.5 19.5 Q351 0 265 0 L95 0 L95 720 L270 720 Z " />
<glyph glyph-name="E" unicode="E" horiz-adv-x="593" d="M95 720 L523 720 L523 690 L129 690 L129 389 L489 389 L489 360 L129 360 L129 29 L533 29 L533 0 L95 0 L95 720 Z " />
<glyph glyph-name="F" unicode="F" horiz-adv-x="534" d="M95 720 L499 720 L499 691 L129 691 L129 389 L457 389 L457 360 L129 360 L129 0 L95 0 L95 720 Z " />
<glyph glyph-name="G" unicode="G" horiz-adv-x="712" d="M428 349 L637 349 L637 103 Q607 66 573 43.5 Q539 21 506 8.5 Q473 -4 442.5 -8 Q412 -12 390 -12 Q304 -12 242.5 16.5 Q181 45 141.5 96 Q102 147 83.5 216.5 Q65 286 65 367 Q65 449 86 516.5 Q107 584 147.5 632 Q188 680 247 706 Q306 732 383 732 Q455 732 503 715 Q551 698 580 670.5 Q609 643 621 608.5 Q633 574 633 539 L599 539 Q599 572 586.5 601.5 Q574 631 547 652.5 Q520 674 478 687 Q436 700 377 700 Q307 700 255 673 Q203 646 169 600 Q135 554 118 494 Q101 434 101 367 Q101 199 175 109 Q249 19 385 19 Q455 19 507.5 42.5 Q560 66 607 115 L607 319 L428 319 L428 349 Z " />
<glyph glyph-name="H" unicode="H" horiz-adv-x="689" d="M95 720 L129 720 L129 399 L560 399 L560 720 L594 720 L594 0 L560 0 L560 369 L129 369 L129 0 L95 0 L95 720 Z " />
<glyph glyph-name="I" unicode="I" horiz-adv-x="224" d="M95 720 L129 720 L129 0 L95 0 L95 720 Z " />
<glyph glyph-name="J" unicode="J" horiz-adv-x="379" d="M289 141 Q289 62 257.5 25 Q226 -12 152 -12 Q124 -12 87 -5 Q50 2 20 17 L33 44 Q92 18 149 18 Q206 18 230.5 46.5 Q255 75 255 153 L255 720 L289 720 L289 141 Z " />
<glyph glyph-name="K" unicode="K" horiz-adv-x="608" d="M95 720 L129 720 L129 392 L295 392 L496 720 L535 720 L326 380 L578 0 L539 0 L296 362 L129 362 L129 0 L95 0 L95 720 Z " />
<glyph glyph-name="L" unicode="L" horiz-adv-x="511" d="M129 720 L129 31 L481 31 L481 0 L95 0 L95 720 L129 720 Z " />
<glyph glyph-name="M" unicode="M" horiz-adv-x="860" d="M757 0 L686 677 L444 0 L413 0 L173 676 L104 0 L70 0 L144 720 L194 720 L429 46 L665 720 L715 720 L790 0 L757 0 Z " />
<glyph glyph-name="N" unicode="N" horiz-adv-x="693" d="M95 720 L131 720 L564 61 L564 720 L598 720 L598 0 L564 0 L129 662 L129 0 L95 0 L95 720 Z " />
<glyph glyph-name="O" unicode="O" horiz-adv-x="750" d="M101 372 Q101 280 121.5 213.5 Q142 147 179 104 Q216 61 267 40.5 Q318 20 378 20 Q438 20 488 40 Q538 60 574 103 Q610 146 629.5 212.5 Q649 279 649 372 Q649 454 629 515.5 Q609 577 573 618 Q537 659 487.5 679.5 Q438 700 379 700 Q317 700 266 679.5 Q215 659 178 617.5 Q141 576 121 514.5 Q101 453 101 372 Z M65 372 Q65 464 89.5 531.5 Q114 599 156.5 643.5 Q199 688 256 710 Q313 732 378 732 Q442 732 498.5 710 Q555 688 596 643.5 Q637 599 661 531.5 Q685 464 685 372 Q685 268 660.5 195 Q636 122 594 76 Q552 30 495.5 9 Q439 -12 375 -12 Q311 -12 254.5 9.5 Q198 31 156 77 Q114 123 89.5 196 Q65 269 65 372 Z " />
<glyph glyph-name="P" unicode="P" horiz-adv-x="579" d="M129 689 L129 342 L286 342 Q392 342 443.5 387 Q495 432 495 519 Q495 605 448.5 647 Q402 689 297 689 L129 689 Z M95 720 L297 720 Q419 720 474 666.5 Q529 613 529 519 Q529 425 470 368.5 Q411 312 285 312 L129 312 L129 0 L95 0 L95 720 Z " />
<glyph glyph-name="Q" unicode="Q" horiz-adv-x="750" d="M65 372 Q65 464 89.5 531.5 Q114 599 156.5 643.5 Q199 688 256 710 Q313 732 378 732 Q442 732 498.5 710 Q555 688 596 643.5 Q637 599 661 531.5 Q685 464 685 372 Q685 271 662.5 200 Q640 129 600.5 83 Q561 37 508 14.5 Q455 -8 394 -11 L394 -134 L361 -134 L361 -12 Q299 -10 245 12.5 Q191 35 151 81.5 Q111 128 88 199.5 Q65 271 65 372 Z M101 372 Q101 280 121.5 213.5 Q142 147 179 104 Q216 61 267 40.5 Q318 20 378 20 Q438 20 488 40 Q538 60 574 103 Q610 146 629.5 212.5 Q649 279 649 372 Q649 454 629 515.5 Q609 577 573 618 Q537 659 487.5 679.5 Q438 700 379 700 Q317 700 266 679.5 Q215 659 178 617.5 Q141 576 121 514.5 Q101 453 101 372 Z " />
<glyph glyph-name="R" unicode="R" horiz-adv-x="611" d="M297 720 Q358 720 402 705.5 Q446 691 474 665 Q502 639 515.5 602 Q529 565 529 519 Q529 452 499.5 402.5 Q470 353 403 324 L571 0 L534 0 L368 317 Q333 310 282 310 L129 310 L129 0 L95 0 L95 720 L297 720 Z M129 689 L129 340 L289 340 Q395 340 445 385.5 Q495 431 495 520 Q495 603 448.5 646 Q402 689 297 689 L129 689 Z " />
<glyph glyph-name="S" unicode="S" horiz-adv-x="559" d="M66 112 Q114 64 165.5 42 Q217 20 275 20 Q315 20 350 30.5 Q385 41 411 61 Q437 81 451.5 111 Q466 141 466 180 Q466 213 457.5 238 Q449 263 428 284 Q407 305 372 322 Q337 339 285 356 Q225 375 183 393.5 Q141 412 115.5 434.5 Q90 457 78.5 486 Q67 515 67 554 Q67 597 83 630 Q99 663 127 685.5 Q155 708 194 720 Q233 732 280 732 Q349 732 400 707.5 Q451 683 493 628 L468 607 Q430 659 379 679.5 Q328 700 280 700 Q243 700 210.5 691 Q178 682 154 664 Q130 646 116.5 619 Q103 592 103 556 Q103 518 116.5 492 Q130 466 155 447.5 Q180 429 216.5 415 Q253 401 299 386 Q357 367 396 347.5 Q435 328 458.5 304 Q482 280 492 250.5 Q502 221 502 182 Q502 138 485 102 Q468 66 438 40.5 Q408 15 366 1.5 Q324 -12 274 -12 Q202 -12 142 17.5 Q82 47 43 89 L66 112 Z " />
<glyph glyph-name="T" unicode="T" horiz-adv-x="543" d="M255 690 L20 690 L20 720 L523 720 L523 690 L289 690 L289 0 L255 0 L255 690 Z " />
<glyph glyph-name="U" unicode="U" horiz-adv-x="684" d="M123 720 L123 274 Q123 144 182 81.5 Q241 19 347 19 Q407 19 448 36 Q489 53 514 85.5 Q539 118 550 165.5 Q561 213 561 274 L561 720 L594 720 L594 262 Q594 126 532.5 57 Q471 -12 343 -12 Q288 -12 241.5 4.5 Q195 21 161.5 54.5 Q128 88 109 139.5 Q90 191 90 262 L90 720 L123 720 Z " />
<glyph glyph-name="V" unicode="V" horiz-adv-x="569" d="M25 720 L60 720 L284 34 L510 720 L544 720 L306 0 L263 0 L25 720 Z " />
<glyph glyph-name="W" unicode="W" horiz-adv-x="919" d="M25 720 L58 720 L248 40 L440 720 L481 720 L672 40 L861 720 L894 720 L697 0 L649 0 L460 678 L270 0 L223 0 L25 720 Z " />
<glyph glyph-name="X" unicode="X" horiz-adv-x="541" d="M252 369 L30 720 L67 720 L273 395 L472 720 L510 720 L291 366 L516 0 L478 0 L270 337 L62 0 L25 0 L252 369 Z " />
<glyph glyph-name="Y" unicode="Y" horiz-adv-x="535" d="M250 318 L25 720 L64 720 L268 353 L472 720 L510 720 L284 318 L284 0 L250 0 L250 318 Z " />
<glyph glyph-name="Z" unicode="Z" horiz-adv-x="562" d="M44 25 L473 690 L78 690 L78 720 L522 720 L522 702 L86 29 L521 29 L521 0 L44 0 L44 25 Z " />
<glyph glyph-name="a" unicode="a" horiz-adv-x="493" d="M387 260 Q368 262 349 264 Q330 266 299 266 Q239 266 197.5 256.5 Q156 247 130.5 229 Q105 211 94 185.5 Q83 160 83 129 Q83 79 116 47 Q149 15 208 15 Q247 15 280 35 Q313 55 336.5 85.5 Q360 116 373.5 153 Q387 190 387 225 L387 260 Z M418 0 L388 0 L388 127 Q358 55 312 21.5 Q266 -12 202 -12 Q133 -12 91.5 27 Q50 66 50 135 Q50 159 59 187 Q68 215 94.5 238.5 Q121 262 169.5 277.5 Q218 293 296 293 Q321 293 341.5 291.5 Q362 290 387 287 L387 356 Q387 431 349.5 468.5 Q312 506 243 506 Q158 506 96 435 L77 456 Q108 492 150 513.5 Q192 535 243 535 Q280 535 312.5 525 Q345 515 368 494 Q391 473 404.5 440.5 Q418 408 418 362 L418 0 Z " />
<glyph glyph-name="b" unicode="b" horiz-adv-x="558" d="M111 121 Q121 104 137.5 85.5 Q154 67 176.5 52 Q199 37 227 27 Q255 17 288 17 Q373 17 421.5 79.5 Q470 142 470 260 Q470 378 425 442 Q380 506 295 506 Q232 506 189 472.5 Q146 439 111 388 L111 121 Z M80 0 L80 720 L111 720 L111 431 Q146 479 191.5 507 Q237 535 296 535 Q351 535 390.5 514 Q430 493 455 456.5 Q480 420 491.5 369.5 Q503 319 503 260 Q503 201 490 151 Q477 101 450.5 65 Q424 29 383 8.5 Q342 -12 287 -12 Q250 -12 220.5 -2 Q191 8 169 22 Q147 36 132.5 51.5 Q118 67 111 78 L111 0 L80 0 Z " />
<glyph glyph-name="c" unicode="c" horiz-adv-x="507" d="M458 59 Q414 18 370 3 Q326 -12 277 -12 Q224 -12 183 8.5 Q142 29 113.5 66 Q85 103 70 154 Q55 205 55 266 Q55 333 72.5 383.5 Q90 434 120.5 468 Q151 502 191 518.5 Q231 535 276 535 Q359 535 407 487.5 Q455 440 462 360 L432 360 Q422 435 379 470.5 Q336 506 275 506 Q231 506 196.5 488.5 Q162 471 138 439.5 Q114 408 101 364 Q88 320 88 266 Q88 218 100 173 Q112 128 136 93.5 Q160 59 195.5 38 Q231 17 278 17 Q303 17 323.5 20.5 Q344 24 363 31.5 Q382 39 400.5 51 Q419 63 441 81 L458 59 Z " />
<glyph glyph-name="d" unicode="d" horiz-adv-x="558" d="M448 78 Q439 67 423.5 52 Q408 37 385.5 22.5 Q363 8 333.5 -2 Q304 -12 268 -12 Q212 -12 172 8.5 Q132 29 106 65 Q80 101 67.5 151 Q55 201 55 260 Q55 319 68 369.5 Q81 420 107 456.5 Q133 493 173.5 514 Q214 535 268 535 Q301 535 327.5 526 Q354 517 376 502.5 Q398 488 415 469.5 Q432 451 447 432 L447 720 L478 720 L478 0 L447 0 L448 78 Z M447 387 Q436 402 419.5 422.5 Q403 443 380.5 461.5 Q358 480 329 493 Q300 506 265 506 Q226 506 193.5 489.5 Q161 473 137.5 441.5 Q114 410 101 364.5 Q88 319 88 260 Q88 217 97 173.5 Q106 130 127.5 95.5 Q149 61 184 39 Q219 17 271 17 Q304 17 331.5 27.5 Q359 38 381 54 Q403 70 419.5 87.5 Q436 105 447 119 L447 387 Z " />
<glyph glyph-name="e" unicode="e" horiz-adv-x="517" d="M460 60 Q418 18 373.5 3 Q329 -12 281 -12 Q230 -12 188.5 4 Q147 20 117.5 53 Q88 86 71.5 137.5 Q55 189 55 260 Q55 322 70.5 373 Q86 424 115.5 460 Q145 496 186 515.5 Q227 535 278 535 Q373 535 420 471.5 Q467 408 467 274 L467 258 L88 258 Q88 203 99.5 158.5 Q111 114 135 82.5 Q159 51 195.5 34 Q232 17 282 17 Q330 17 367.5 31.5 Q405 46 441 81 L460 60 Z M434 287 Q434 334 426 374 Q418 414 400 443.5 Q382 473 352 489.5 Q322 506 278 506 Q220 506 183.5 481 Q147 456 126 420.5 Q105 385 97 348 Q89 311 89 287 L434 287 Z " />
<glyph glyph-name="f" unicode="f" horiz-adv-x="231" d="M92 495 L35 495 L35 514 L92 522 L92 614 Q92 636 97 657.5 Q102 679 113 695.5 Q124 712 143 722 Q162 732 189 732 Q200 732 213.5 730.5 Q227 729 241 725 L238 698 Q229 701 217 703 Q205 705 191 705 Q165 705 144 687 Q123 669 123 617 L123 523 L215 523 L215 495 L123 495 L123 0 L92 0 L92 495 Z " />
<glyph glyph-name="g" unicode="g" horiz-adv-x="568" d="M478 -1 Q478 -63 465.5 -103 Q453 -143 427.5 -167 Q402 -191 363.5 -200.5 Q325 -210 274 -210 Q226 -210 179.5 -201 Q133 -192 100 -178 L112 -150 Q142 -164 185 -173 Q228 -182 275 -182 Q329 -182 363 -169 Q397 -156 416 -131.5 Q435 -107 441.5 -70.5 Q448 -34 448 13 L448 78 Q434 61 416 45 Q398 29 375 16 Q352 3 324.5 -4.5 Q297 -12 264 -12 Q206 -12 166 11 Q126 34 101.5 72 Q77 110 66 159.5 Q55 209 55 263 Q55 317 67 366 Q79 415 105 452.5 Q131 490 172 512.5 Q213 535 271 535 Q305 535 333 524 Q361 513 383 497.5 Q405 482 421 464 Q437 446 447 431 L447 523 L478 523 L478 -1 Z M447 384 Q437 400 420 421.5 Q403 443 380.5 461.5 Q358 480 330 493 Q302 506 271 506 Q225 506 191 488 Q157 470 134 438 Q111 406 99.5 361.5 Q88 317 88 263 Q88 209 99 164 Q110 119 132.5 86.5 Q155 54 188.5 35.5 Q222 17 268 17 Q303 17 330.5 27.5 Q358 38 380 54 Q402 70 418.5 87.5 Q435 105 447 119 L447 384 Z " />
<glyph glyph-name="h" unicode="h" horiz-adv-x="523" d="M111 720 L111 432 Q127 453 146.5 471.5 Q166 490 188.5 504 Q211 518 237 526.5 Q263 535 292 535 Q336 535 366 520.5 Q396 506 414 479.5 Q432 453 440 415 Q448 377 448 330 L448 0 L416 0 L416 330 Q416 361 412.5 392 Q409 423 395.5 448.5 Q382 474 356 490 Q330 506 286 506 Q257 506 232 496 Q207 486 185.5 470.5 Q164 455 145.5 434.5 Q127 414 111 393 L111 0 L80 0 L80 720 L111 720 Z " />
<glyph glyph-name="i" unicode="i" horiz-adv-x="218" d="M80 671 Q80 683 88.5 691.5 Q97 700 110 700 Q122 700 130 691.5 Q138 683 138 671 Q138 659 130 650.5 Q122 642 110 642 Q97 642 88.5 650.5 Q80 659 80 671 Z M125 0 L94 0 L94 523 L125 523 L125 0 Z " />
<glyph glyph-name="j" unicode="j" horiz-adv-x="220" d="M126 -91 Q126 -117 122.5 -137.5 Q119 -158 109.5 -172.5 Q100 -187 82.5 -195 Q65 -203 37 -203 Q23 -203 8.5 -201 Q-6 -199 -20 -194 L-14 -169 Q-5 -172 8 -174 Q21 -176 34 -176 Q48 -176 59.5 -172.5 Q71 -169 79 -160 Q87 -151 91 -134.5 Q95 -118 95 -92 L95 523 L126 523 L126 -91 Z M82 671 Q82 683 90.5 691.5 Q99 700 112 700 Q124 700 132 691.5 Q140 683 140 671 Q140 659 132 650.5 Q124 642 112 642 Q99 642 90.5 650.5 Q82 659 82 671 Z " />
<glyph glyph-name="k" unicode="k" horiz-adv-x="475" d="M111 307 L195 307 L381 523 L424 523 L224 292 L450 0 L409 0 L193 278 L111 278 L111 0 L80 0 L80 720 L111 720 L111 307 Z " />
<glyph glyph-name="l" unicode="l" horiz-adv-x="191" d="M80 0 L80 720 L111 720 L111 0 L80 0 Z " />
<glyph glyph-name="m" unicode="m" horiz-adv-x="785" d="M80 523 L261 523 Q322 523 356 497.5 Q390 472 400 434 Q418 485 459.5 510 Q501 535 553 535 Q600 535 630.5 522 Q661 509 678.5 485.5 Q696 462 703 430.5 Q710 399 710 362 L710 0 L678 0 L678 362 Q678 391 674 417 Q670 443 656.5 463 Q643 483 618.5 495 Q594 507 553 507 Q519 507 493 494.5 Q467 482 449 461 Q431 440 422 412 Q413 384 413 353 L413 0 L380 0 L380 368 Q380 430 349.5 462.5 Q319 495 256 495 L111 495 L111 0 L80 0 L80 523 Z " />
<glyph glyph-name="n" unicode="n" horiz-adv-x="523" d="M111 523 L111 432 Q146 477 190 506 Q234 535 288 535 Q337 535 368 519 Q399 503 417 475 Q435 447 441.5 409 Q448 371 448 328 L448 0 L416 0 L416 335 Q416 420 386.5 463 Q357 506 287 506 Q255 506 227.5 493.5 Q200 481 178 463.5 Q156 446 139 426.5 Q122 407 111 393 L111 0 L80 0 L80 523 L111 523 Z " />
<glyph glyph-name="o" unicode="o" horiz-adv-x="554" d="M88 260 Q88 198 102.5 152.5 Q117 107 142 77 Q167 47 201 32 Q235 17 275 17 Q315 17 349.5 32 Q384 47 410 77 Q436 107 451 152.5 Q466 198 466 260 Q466 323 451 369 Q436 415 410 445.5 Q384 476 349.5 491 Q315 506 275 506 Q235 506 201 490.5 Q167 475 142 444.5 Q117 414 102.5 367.5 Q88 321 88 260 Z M55 260 Q55 322 70 373 Q85 424 113.5 460 Q142 496 182.5 515.5 Q223 535 275 535 Q327 535 368.5 516 Q410 497 439 461.5 Q468 426 483.5 375 Q499 324 499 260 Q499 198 483.5 147.5 Q468 97 439 61.5 Q410 26 368.5 7 Q327 -12 275 -12 Q222 -12 181 7 Q140 26 112 61.5 Q84 97 69.5 147.5 Q55 198 55 260 Z " />
<glyph glyph-name="p" unicode="p" horiz-adv-x="562" d="M111 121 Q121 104 137.5 85.5 Q154 67 176.5 52 Q199 37 227 27 Q255 17 288 17 Q373 17 421.5 79.5 Q470 142 470 260 Q470 378 425 442 Q380 506 295 506 Q232 506 189 472.5 Q146 439 111 388 L111 121 Z M80 -200 L80 523 L111 523 L111 431 Q146 479 191.5 507 Q237 535 296 535 Q351 535 390.5 514 Q430 493 455 456.5 Q480 420 491.5 369.5 Q503 319 503 260 Q503 201 490 151 Q477 101 450.5 65 Q424 29 383 8.5 Q342 -12 287 -12 Q250 -12 220.5 -2 Q191 8 169 22 Q147 36 132.5 51.5 Q118 67 111 78 L111 -200 L80 -200 Z " />
<glyph glyph-name="q" unicode="q" horiz-adv-x="562" d="M447 78 Q438 67 422.5 52 Q407 37 385 22.5 Q363 8 333.5 -2 Q304 -12 268 -12 Q212 -12 172 8.5 Q132 29 106 65 Q80 101 67.5 151 Q55 201 55 260 Q55 319 68 369.5 Q81 420 107 456.5 Q133 493 173.5 514 Q214 535 268 535 Q301 535 327.5 526 Q354 517 376 502.5 Q398 488 415 469.5 Q432 451 447 432 L447 523 L478 523 L478 -200 L447 -200 L447 78 Z M447 387 Q436 402 419.5 422.5 Q403 443 380.5 461.5 Q358 480 329 493 Q300 506 265 506 Q226 506 193.5 489.5 Q161 473 137.5 441.5 Q114 410 101 364.5 Q88 319 88 260 Q88 217 97 173.5 Q106 130 127.5 95.5 Q149 61 184 39 Q219 17 271 17 Q304 17 331.5 27.5 Q359 38 381 54 Q403 70 419.5 87.5 Q436 105 447 119 L447 387 Z " />
<glyph glyph-name="r" unicode="r" horiz-adv-x="285" d="M108 434 Q125 476 157 505.5 Q189 535 231 535 Q242 535 253.5 533.5 Q265 532 275 529 L268 499 Q260 501 250 502 Q240 503 229 503 Q208 503 189.5 492 Q171 481 156 463.5 Q141 446 129.5 425 Q118 404 111 385 L111 0 L80 0 L80 523 L111 523 L108 434 Z " />
<glyph glyph-name="s" unicode="s" horiz-adv-x="449" d="M51 87 Q89 53 130.5 34.5 Q172 16 219 16 Q251 16 278.5 24 Q306 32 326.5 47 Q347 62 359 83.5 Q371 105 371 132 Q371 155 363.5 173.5 Q356 192 338.5 207 Q321 222 291.5 234.5 Q262 247 219 258 Q172 270 140.5 283.5 Q109 297 90 313.5 Q71 330 63 351.5 Q55 373 55 400 Q55 463 101 499 Q147 535 223 535 Q277 535 319 517 Q361 499 396 459 L374 439 Q342 477 302 492 Q262 507 223 507 Q160 507 124 480 Q88 453 88 402 Q88 376 97 358 Q106 340 124.5 326.5 Q143 313 171 303.5 Q199 294 236 284 Q328 260 366 225.5 Q404 191 404 135 Q404 102 390.5 75 Q377 48 353 28.5 Q329 9 295 -1.5 Q261 -12 220 -12 Q160 -12 110.5 10.5 Q61 33 30 64 L51 87 Z " />
<glyph glyph-name="t" unicode="t" horiz-adv-x="248" d="M122 495 L122 70 Q122 38 135.5 27.5 Q149 17 167 17 Q182 17 198.5 20.5 Q215 24 229 30 L237 5 Q224 -2 202.5 -7 Q181 -12 160 -12 Q131 -12 111 3 Q91 18 91 59 L91 495 L29 495 L29 515 L91 523 L99 656 L122 656 L122 523 L207 523 L207 495 L122 495 Z " />
<glyph glyph-name="u" unicode="u" horiz-adv-x="522" d="M411 0 L411 87 Q399 72 381.5 54.5 Q364 37 341.5 22.5 Q319 8 291.5 -2 Q264 -12 232 -12 Q182 -12 151 4 Q120 20 103 46.5 Q86 73 80.5 107.5 Q75 142 75 178 L75 523 L107 523 L107 181 Q107 101 134 59 Q161 17 232 17 Q262 17 288 27 Q314 37 336 52.5 Q358 68 376.5 88 Q395 108 411 128 L411 523 L442 523 L442 0 L411 0 Z " />
<glyph glyph-name="v" unicode="v" horiz-adv-x="443" d="M50 523 L219 40 L395 523 L428 523 L236 0 L200 0 L15 523 L50 523 Z " />
<glyph glyph-name="w" unicode="w" horiz-adv-x="685" d="M655 523 L530 0 L497 0 L339 471 L187 0 L154 0 L30 523 L62 523 L173 46 L323 516 L356 516 L512 46 L623 523 L655 523 Z " />
<glyph glyph-name="x" unicode="x" horiz-adv-x="441" d="M201 268 L25 523 L63 523 L221 294 L374 523 L411 523 L239 268 L421 0 L383 0 L220 243 L57 0 L20 0 L201 268 Z " />
<glyph glyph-name="y" unicode="y" horiz-adv-x="438" d="M154 -172 Q184 -172 193 -159 Q202 -146 202 -117 L202 0 L15 523 L51 523 L218 46 L387 523 L423 523 L233 0 L233 -126 Q233 -200 165 -200 L93 -200 L93 -172 L154 -172 Z " />
<glyph glyph-name="z" unicode="z" horiz-adv-x="411" d="M35 24 L338 494 L43 494 L43 523 L381 523 L381 500 L76 29 L377 29 L377 0 L35 0 L35 24 Z " />
<glyph glyph-name="bracketleft" unicode="&#x5b;" horiz-adv-x="335" d="M103 -125 L103 720 L252 720 L252 689 L137 689 L137 -94 L252 -94 L252 -125 L103 -125 Z " />
<glyph glyph-name="bracketright" unicode="&#x5d;" horiz-adv-x="335" d="M83 -125 L83 -94 L198 -94 L198 689 L83 689 L83 720 L232 720 L232 -125 L83 -125 Z " />
<glyph glyph-name="parenleft" unicode="&#x28;" horiz-adv-x="335" d="M260 714 Q110 524 110 293 Q110 231 119 178 Q128 125 146 77 Q164 29 192 -16.5 Q220 -62 258 -108 L240 -125 Q158 -43 117.5 62 Q77 167 77 293 Q77 423 120.5 530.5 Q164 638 240 729 L260 714 Z " />
<glyph glyph-name="parenright" unicode="&#x29;" horiz-adv-x="335" d="M95 729 Q171 638 214.5 530.5 Q258 423 258 293 Q258 167 217.5 62 Q177 -43 95 -125 L77 -108 Q115 -62 143 -16.5 Q171 29 189 77 Q207 125 216 178 Q225 231 225 293 Q225 524 75 714 L95 729 Z " />
<glyph glyph-name="braceleft" unicode="&#x7b;" horiz-adv-x="336" d="M272 690 Q245 690 227.5 681 Q210 672 200 655 Q190 638 186.5 614 Q183 590 183 559 L183 415 Q183 390 181 369 Q179 348 170.5 331 Q162 314 145.5 301 Q129 288 100 281 Q129 278 145.5 265 Q162 252 170.5 233.5 Q179 215 181 191.5 Q183 168 183 144 L183 43 Q183 9 187 -16.5 Q191 -42 202.5 -59.5 Q214 -77 233.5 -86 Q253 -95 283 -95 L317 -95 L317 -125 L288 -125 Q211 -125 180 -89.5 Q149 -54 149 24 L149 142 Q149 170 145 192.5 Q141 215 131 231 Q121 247 103 255.5 Q85 264 57 264 L35 264 L35 299 L57 299 Q113 299 131 332 Q149 365 149 435 L149 553 Q149 594 154.5 625 Q160 656 174.5 677 Q189 698 214.5 709 Q240 720 281 720 L317 720 L317 690 L272 690 Z " />
<glyph glyph-name="braceright" unicode="&#x7d;" horiz-adv-x="336" d="M19 690 L19 720 L55 720 Q96 720 121.5 709 Q147 698 161.5 677 Q176 656 181.5 625 Q187 594 187 553 L187 435 Q187 365 205 332 Q223 299 279 299 L301 299 L301 264 L279 264 Q251 264 233 255.5 Q215 247 205 231 Q195 215 191 192.5 Q187 170 187 142 L187 24 Q187 -54 156 -89.5 Q125 -125 48 -125 L19 -125 L19 -95 L53 -95 Q83 -95 102.5 -86 Q122 -77 133.5 -59.5 Q145 -42 149 -16.5 Q153 9 153 43 L153 144 Q153 168 155 191.5 Q157 215 165 233.5 Q173 252 190 265 Q207 278 236 281 Q207 288 190 301 Q173 314 165 331 Q157 348 155 369 Q153 390 153 415 L153 559 Q153 590 149.5 614 Q146 638 136 655 Q126 672 108.5 681 Q91 690 64 690 L19 690 Z " />
<glyph glyph-name="backslash" unicode="&#x5c;" horiz-adv-x="336" d="M310 -92 L277 -92 L27 739 L63 739 L310 -92 Z " />
<glyph glyph-name="slash" unicode="&#x2f;" horiz-adv-x="336" d="M274 739 L310 739 L60 -92 L27 -92 L274 739 Z " />
<glyph glyph-name="brokenbar" unicode="&#xa6;" horiz-adv-x="500" d="M264 -200 L235 -200 L235 200 L264 200 L264 -200 Z M264 320 L235 320 L235 720 L264 720 L264 320 Z " />
<glyph glyph-name="bar" unicode="&#x7c;" horiz-adv-x="500" d="M264 -200 L235 -200 L235 720 L264 720 L264 -200 Z " />
<glyph glyph-name="asciicircum" unicode="&#x5e;" horiz-adv-x="676" d="M601 441 L575 418 L338 664 L101 418 L75 442 L315 693 L361 693 L601 441 Z " />
<glyph glyph-name="underscore" unicode="&#x5f;" horiz-adv-x="500" d="M0 -206 L500 -206 L500 -236 L0 -236 L0 -206 Z " />
<glyph glyph-name="asciitilde" unicode="&#x7e;" horiz-adv-x="780" d="M710 323 Q665 287 620 266 Q575 245 519 245 Q484 245 448.5 255.5 Q413 266 383 281 Q347 298 316.5 308 Q286 318 257 318 Q206 318 166.5 297.5 Q127 277 87 245 L70 269 Q115 305 160 326 Q205 347 261 347 Q296 347 328.5 335.5 Q361 324 392.5 310.5 Q424 297 455.5 285.5 Q487 274 519 274 Q564 274 604.5 293 Q645 312 690 346 L710 323 Z " />
<glyph glyph-name="zero" unicode="0" horiz-adv-x="593" d="M109 355 Q109 180 157.5 99 Q206 18 297 18 Q388 18 436 98.5 Q484 179 484 355 Q484 520 436 605 Q388 690 297 690 Q206 690 157.5 607 Q109 524 109 355 Z M75 355 Q75 541 132.5 630.5 Q190 720 296 720 Q402 720 460 630.5 Q518 541 518 355 Q518 166 460 77 Q402 -12 296 -12 Q190 -12 132.5 77 Q75 166 75 355 Z " />
<glyph glyph-name="one" unicode="1" horiz-adv-x="421" d="M229 655 Q189 626 145 603.5 Q101 581 50 570 L43 595 Q68 601 95 612 Q122 623 149 638 Q176 653 200 671.5 Q224 690 243 710 L262 710 L262 28 L407 28 L407 0 L64 0 L64 28 L229 28 L229 655 Z " />
<glyph glyph-name="two" unicode="2" horiz-adv-x="489" d="M44 25 L321 391 Q354 435 370.5 472.5 Q387 510 387 553 Q387 583 374.5 608.5 Q362 634 341 652 Q320 670 292 680 Q264 690 234 690 Q188 690 145 670 Q102 650 62 605 L42 630 Q81 674 130 697 Q179 720 236 720 Q274 720 307.5 708.5 Q341 697 366.5 676 Q392 655 406.5 624.5 Q421 594 421 556 Q421 530 417 508 Q413 486 405 465 Q397 444 383 422 Q369 400 350 375 L87 28 L425 28 L425 0 L44 0 L44 25 Z " />
<glyph glyph-name="three" unicode="3" horiz-adv-x="502" d="M43 107 Q86 61 130.5 39.5 Q175 18 237 18 Q273 18 304 30 Q335 42 358 64 Q381 86 394 115.5 Q407 145 407 181 Q407 216 398 247 Q389 278 367.5 301 Q346 324 310.5 338 Q275 352 222 352 Q218 352 211 351.5 Q204 351 196 351 L177 351 L175 381 Q215 382 250 395.5 Q285 409 311 432 Q337 455 351.5 486 Q366 517 366 554 Q366 587 354 612.5 Q342 638 322.5 655.5 Q303 673 277.5 681.5 Q252 690 225 690 Q180 690 140 677.5 Q100 665 65 636 L47 658 Q81 684 125 702 Q169 720 223 720 Q261 720 293.5 709 Q326 698 349.5 676.5 Q373 655 386.5 624 Q400 593 400 553 Q400 524 391 495.5 Q382 467 365 443 Q348 419 324 401 Q300 383 270 375 Q316 371 349 354.5 Q382 338 402 313 Q422 288 431.5 255 Q441 222 441 185 Q441 138 424.5 101.5 Q408 65 380 40 Q352 15 315 1.5 Q278 -12 237 -12 Q172 -12 121.5 9 Q71 30 20 84 L43 107 Z " />
<glyph glyph-name="four" unicode="4" horiz-adv-x="512" d="M366 212 L366 680 L76 212 L366 212 Z M366 184 L35 184 L35 205 L350 710 L397 710 L397 212 L487 212 L487 184 L397 184 L397 0 L366 0 L366 184 Z " />
<glyph glyph-name="five" unicode="5" horiz-adv-x="526" d="M108 710 L426 710 L424 682 L138 682 L115 367 Q138 392 178.5 410.5 Q219 429 267 429 Q365 429 413.5 371.5 Q462 314 462 214 Q462 161 445.5 119.5 Q429 78 400 48.5 Q371 19 331 3.5 Q291 -12 244 -12 Q204 -12 154 0 Q104 12 56 43 L72 70 Q159 18 237 18 Q279 18 314.5 32 Q350 46 375 71.5 Q400 97 414 134 Q428 171 428 217 Q428 254 418 287 Q408 320 388 345 Q368 370 337.5 384.5 Q307 399 266 399 Q215 399 176.5 379 Q138 359 113 330 L109 285 L78 285 L108 710 Z " />
<glyph glyph-name="six" unicode="6" horiz-adv-x="526" d="M63 287 Q63 401 80.5 482.5 Q98 564 130 617 Q162 670 207 695 Q252 720 308 720 Q343 720 379.5 706 Q416 692 446 665 L427 642 Q395 670 367.5 680.5 Q340 691 307 691 Q247 691 207.5 661.5 Q168 632 144 582.5 Q120 533 108.5 469.5 Q97 406 94 339 Q132 378 178 405 Q224 432 281 432 Q331 432 366.5 413 Q402 394 424.5 363 Q447 332 457.5 292 Q468 252 468 210 Q468 106 417 47 Q366 -12 270 -12 Q167 -12 115 66 Q63 144 63 287 Z M273 20 Q304 20 333.5 30 Q363 40 385 62.5 Q407 85 420.5 121 Q434 157 434 210 Q434 261 421.5 297 Q409 333 387.5 356.5 Q366 380 338 391 Q310 402 279 402 Q247 402 219.5 392 Q192 382 169 367 Q146 352 127 334.5 Q108 317 95 302 Q95 222 108.5 168 Q122 114 145.5 81 Q169 48 201.5 34 Q234 20 273 20 Z " />
<glyph glyph-name="seven" unicode="7" horiz-adv-x="424" d="M130 0 L94 0 L94 6 L369 682 L16 682 L16 710 L406 710 L406 689 L130 0 Z " />
<glyph glyph-name="eight" unicode="8" horiz-adv-x="512" d="M83 167 Q83 134 95 106.5 Q107 79 129.5 59.5 Q152 40 183.5 29 Q215 18 254 18 Q293 18 325 30 Q357 42 379.5 63.5 Q402 85 414.5 116 Q427 147 427 185 Q427 225 412 255 Q397 285 372.5 307 Q348 329 317 344 Q286 359 253 370 Q220 357 189.5 339.5 Q159 322 135.5 298 Q112 274 97.5 241.5 Q83 209 83 167 Z M112 554 Q112 524 124 500 Q136 476 156.5 457 Q177 438 203 424 Q229 410 256 400 Q278 409 303 424 Q328 439 349.5 459.5 Q371 480 385 505.5 Q399 531 399 562 Q399 623 358 656.5 Q317 690 254 690 Q191 690 151.5 655 Q112 620 112 554 Z M49 172 Q49 247 95 300 Q141 353 219 385 Q78 438 78 557 Q78 595 91.5 625 Q105 655 128.5 676 Q152 697 184 708.5 Q216 720 254 720 Q292 720 324.5 709.5 Q357 699 381 679.5 Q405 660 419 631 Q433 602 433 566 Q433 510 395 462.5 Q357 415 296 386 Q382 351 421.5 303 Q461 255 461 186 Q461 141 446.5 104.5 Q432 68 405 42 Q378 16 340 2 Q302 -12 254 -12 Q158 -12 103.5 37.5 Q49 87 49 172 Z " />
<glyph glyph-name="nine" unicode="9" horiz-adv-x="516" d="M448 421 Q448 307 431 225.5 Q414 144 383.5 91 Q353 38 310.5 13 Q268 -12 217 -12 Q173 -12 136 1.5 Q99 15 70 42 L87 66 Q116 42 146.5 29.5 Q177 17 219 17 Q273 17 309 47 Q345 77 367.5 126 Q390 175 401 238.5 Q412 302 417 369 Q379 330 332.5 303.5 Q286 277 229 277 Q179 277 144 295.5 Q109 314 86.5 345 Q64 376 53.5 416 Q43 456 43 498 Q43 546 56 586.5 Q69 627 94.5 656.5 Q120 686 156.5 703 Q193 720 241 720 Q292 720 331 698.5 Q370 677 396 638 Q422 599 435 543.5 Q448 488 448 421 Z M238 688 Q206 688 177 677 Q148 666 126 643 Q104 620 90.5 584 Q77 548 77 498 Q77 447 89.5 411 Q102 375 123 352 Q144 329 172 318 Q200 307 231 307 Q262 307 290 317 Q318 327 341.5 342 Q365 357 383.5 374.5 Q402 392 416 407 Q417 483 403.5 536 Q390 589 366 623 Q342 657 309.5 672.5 Q277 688 238 688 Z " />
<glyph glyph-name="dollar" unicode="&#x24;" horiz-adv-x="507" d="M226 -2 Q159 0 110 26.5 Q61 53 26 92 L47 115 Q89 72 134 49.5 Q179 27 233 27 Q270 27 302.5 36.5 Q335 46 359.5 65 Q384 84 398 111 Q412 138 412 174 Q412 203 404 226 Q396 249 376.5 268 Q357 287 324.5 303 Q292 319 244 334 Q188 351 151 369 Q114 387 91.5 408.5 Q69 430 59.5 457.5 Q50 485 50 521 Q50 593 98.5 635 Q147 677 226 682 L226 776 L257 776 L257 683 Q378 678 442 588 L418 569 Q400 593 379.5 609 Q359 625 336.5 635 Q314 645 291 649 Q268 653 246 653 Q212 653 182 644.5 Q152 636 130 619 Q108 602 95.5 577.5 Q83 553 83 522 Q83 487 95 463.5 Q107 440 129.5 422.5 Q152 405 184 391.5 Q216 378 257 365 Q309 348 345 329.5 Q381 311 403.5 288 Q426 265 435.5 237.5 Q445 210 445 175 Q445 137 430.5 106 Q416 75 390.5 52 Q365 29 331 15.5 Q297 2 257 -1 L257 -87 L226 -87 L226 -2 Z " />
<glyph glyph-name="Euro" unicode="&#x20ac;" horiz-adv-x="596" d="M8 423 L83 423 Q90 481 110.5 535 Q131 589 164.5 630 Q198 671 245 695.5 Q292 720 353 720 Q385 720 416.5 713.5 Q448 707 477 692 Q506 677 531.5 651.5 Q557 626 578 589 L553 572 Q519 636 465 663 Q411 690 353 690 Q302 690 261 670 Q220 650 190 614 Q160 578 141.5 529 Q123 480 116 423 L483 423 L481 396 L114 396 Q113 387 113 378.5 Q113 370 113 361 Q113 330 116 303 L473 303 L471 276 L119 276 Q128 218 148.5 170.5 Q169 123 199.5 89 Q230 55 269 36.5 Q308 18 355 18 Q424 18 469.5 42 Q515 66 551 106 L571 86 Q531 39 479 13.5 Q427 -12 355 -12 Q293 -12 246.5 12.5 Q200 37 167 77.5 Q134 118 114 169.5 Q94 221 86 276 L-4 276 L-2 303 L83 303 Q80 330 80 359 Q80 368 80 377 Q80 386 81 396 L6 396 L8 423 Z " />
<glyph glyph-name="cent" unicode="&#xa2;" horiz-adv-x="526" d="M274 78 Q224 80 185 101.5 Q146 123 119 159.5 Q92 196 78 246 Q64 296 64 356 Q64 421 80.5 470 Q97 519 125.5 552 Q154 585 192.5 602.5 Q231 620 274 622 L274 720 L305 720 L305 621 Q379 615 421 568 Q463 521 471 447 L439 447 Q429 522 387 557.5 Q345 593 284 593 Q240 593 205.5 576 Q171 559 147 528.5 Q123 498 110 454 Q97 410 97 356 Q97 308 109 263 Q121 218 145 183.5 Q169 149 204.5 128 Q240 107 287 107 Q312 107 333 110.5 Q354 114 373 122 Q392 130 410.5 143 Q429 156 451 174 L467 149 Q426 111 387.5 95.5 Q349 80 305 78 L305 -18 L274 -18 L274 78 Z " />
<glyph glyph-name="sterling" unicode="&#xa3;" horiz-adv-x="498" d="M219 215 Q219 186 212 160.5 Q205 135 193.5 112.5 Q182 90 167.5 69.5 Q153 49 139 31 L453 31 L453 0 L57 0 L57 31 L103 31 Q118 49 133.5 69.5 Q149 90 161 113 Q173 136 181 161.5 Q189 187 189 214 Q189 227 186 243 Q183 259 178.5 275.5 Q174 292 168.5 306.5 Q163 321 159 331 L59 331 L59 359 L147 359 L131 391 Q118 418 109 438 Q100 458 94 475.5 Q88 493 85.5 509.5 Q83 526 83 544 Q83 585 99 618 Q115 651 142 673.5 Q169 696 203.5 708 Q238 720 275 720 Q334 720 376.5 701.5 Q419 683 451 640 L428 622 Q402 657 363.5 674.5 Q325 692 278 692 Q247 692 218 682 Q189 672 166.5 653 Q144 634 130.5 606.5 Q117 579 117 544 Q117 530 119 517 Q121 504 126 488 Q131 472 139.5 451 Q148 430 161 402 L181 359 L342 359 L342 331 L192 331 Q196 319 201 304 Q206 289 210 273.5 Q214 258 216.5 242.5 Q219 227 219 215 Z " />
<glyph glyph-name="yen" unicode="&#xa5;" horiz-adv-x="556" d="M495 355 L293 355 L293 265 L495 265 L495 236 L293 236 L293 0 L261 0 L261 236 L60 236 L60 265 L261 265 L261 355 L60 355 L60 384 L245 384 L50 710 L89 710 L277 391 L467 710 L505 710 L308 384 L495 384 L495 355 Z " />
<glyph glyph-name="florin" unicode="&#x192;" horiz-adv-x="401" d="M1 -171 Q33 -171 55 -144.5 Q77 -118 89 -59 L175 361 L99 361 L99 391 L182 391 L219 575 Q224 599 231 623.5 Q238 648 251 667 Q264 686 285 698 Q306 710 338 710 L385 710 L385 681 L340 681 Q314 681 298 670.5 Q282 660 272.5 641 Q263 622 256.5 595.5 Q250 569 243 536 L212 391 L309 391 L309 361 L207 361 L150 80 Q136 12 126.5 -40 Q117 -92 102.5 -127.5 Q88 -163 64.5 -181.5 Q41 -200 1 -200 L-39 -200 L-39 -171 L1 -171 Z " />
<glyph glyph-name="section" unicode="&#xa7;" horiz-adv-x="524" d="M114 86 Q127 72 142 60 Q157 48 174.5 38 Q192 28 213.5 22.5 Q235 17 261 17 Q317 17 354.5 43.5 Q392 70 392 117 Q392 159 365.5 179.5 Q339 200 294 214 L208 240 Q152 257 125 282.5 Q98 308 98 361 Q98 378 105.5 398 Q113 418 129 435 Q145 452 171 463.5 Q197 475 233 477 Q193 486 167 499.5 Q141 513 125.5 530 Q110 547 104 565 Q98 583 98 601 Q98 626 108 650 Q118 674 138 692 Q158 710 186.5 721 Q215 732 253 732 Q274 732 295.5 727.5 Q317 723 337 715 Q357 707 374 695 Q391 683 403 667 L383 648 Q368 662 353.5 672.5 Q339 683 324 689.5 Q309 696 291.5 699.5 Q274 703 252 703 Q230 703 208.5 697 Q187 691 170 679 Q153 667 142.5 649 Q132 631 132 607 Q132 564 158.5 540.5 Q185 517 231 503 Q288 486 326 472 Q364 458 387 442 Q410 426 419.5 405 Q429 384 429 354 Q429 325 418 304.5 Q407 284 389 269.5 Q371 255 348.5 247.5 Q326 240 302 238 Q338 227 361.5 215 Q385 203 399.5 189 Q414 175 420 158 Q426 141 426 120 Q426 93 414.5 69 Q403 45 381.5 27 Q360 9 330 -1.5 Q300 -12 263 -12 Q218 -12 170.5 6.5 Q123 25 93 63 L114 86 Z M260 458 Q197 458 163.5 431.5 Q130 405 130 356 Q130 334 141.5 316 Q153 298 172.5 285.5 Q192 273 217 266.5 Q242 260 270 260 Q293 260 316 264.5 Q339 269 357 279.5 Q375 290 386.5 308 Q398 326 398 354 Q398 378 385.5 397 Q373 416 353 429.5 Q333 443 308.5 450.5 Q284 458 260 458 Z " />
<glyph glyph-name="copyright" unicode="&#xa9;" horiz-adv-x="820" d="M544 228 Q520 200 487.5 183 Q455 166 410 166 Q368 166 337.5 181.5 Q307 197 287.5 224 Q268 251 258.5 287 Q249 323 249 364 Q249 403 259.5 438.5 Q270 474 290.5 501 Q311 528 341.5 543.5 Q372 559 413 559 Q470 559 505.5 527.5 Q541 496 542 438 L514 438 Q510 478 487 504.5 Q464 531 411 531 Q347 531 314.5 484.5 Q282 438 282 366 Q282 277 316.5 235.5 Q351 194 411 194 Q451 194 477.5 208.5 Q504 223 525 245 L544 228 Z M410 691 Q338 691 278 665 Q218 639 174.5 594.5 Q131 550 107 489.5 Q83 429 83 360 Q83 276 110 214 Q137 152 182.5 111 Q228 70 287 50 Q346 30 410 30 Q472 30 531.5 54.5 Q591 79 637 123 Q683 167 711 227.5 Q739 288 739 360 Q739 434 713.5 495 Q688 556 644 599.5 Q600 643 540 667 Q480 691 410 691 Z M410 720 Q489 720 555 693.5 Q621 667 669 620 Q717 573 743.5 507.5 Q770 442 770 364 Q770 285 740 218.5 Q710 152 660.5 103.5 Q611 55 545.5 27.5 Q480 0 410 0 Q338 0 272.5 22.5 Q207 45 157.5 90 Q108 135 79 202.5 Q50 270 50 360 Q50 437 77.5 503 Q105 569 153.5 617 Q202 665 268 692.5 Q334 720 410 720 Z " />
<glyph glyph-name="registered" unicode="&#xae;" horiz-adv-x="420" d="M215 636 Q246 636 260 622.5 Q274 609 274 586 Q274 570 266.5 557.5 Q259 545 244 538 L285 464 L263 464 L224 535 Q219 534 214 534 Q209 534 204 534 L171 534 L171 464 L151 464 L151 636 L215 636 Z M171 619 L171 551 L205 551 Q229 551 241 558 Q253 565 253 584 Q253 619 208 619 L171 619 Z M210 698 Q178 698 151.5 687 Q125 676 105.5 656 Q86 636 75 609 Q64 582 64 550 Q64 476 105.5 439 Q147 402 210 402 Q238 402 264.5 413 Q291 424 311 444 Q331 464 343.5 491 Q356 518 356 550 Q356 616 316.5 657 Q277 698 210 698 Z M210 720 Q248 720 279.5 707.5 Q311 695 333.5 672.5 Q356 650 368 618.5 Q380 587 380 550 Q380 513 366 482 Q352 451 328.5 428.5 Q305 406 274 393 Q243 380 210 380 Q173 380 142 391.5 Q111 403 88.5 424.5 Q66 446 53 477.5 Q40 509 40 550 Q40 586 53 617.5 Q66 649 89 671.5 Q112 694 143 707 Q174 720 210 720 Z " />
<glyph glyph-name="trademark" unicode="&#x2122;" horiz-adv-x="600" d="M524 466 L501 674 L416 466 L395 466 L314 674 L293 466 L266 466 L293 720 L322 720 L407 508 L490 720 L520 720 L550 466 L524 466 Z M115 692 L28 692 L28 720 L229 720 L229 692 L141 692 L141 466 L115 466 L115 692 Z " />
<glyph glyph-name="ordfeminine" unicode="&#xaa;" horiz-adv-x="460" d="M329 448 Q315 450 300 451.5 Q285 453 258 453 Q173 453 135.5 430 Q98 407 98 359 Q98 324 125 303 Q152 282 191 282 Q219 282 244.5 294 Q270 306 288.5 326 Q307 346 318 371 Q329 396 329 423 L329 448 Z M360 264 L331 264 L331 350 Q314 306 275.5 280.5 Q237 255 191 255 Q134 255 100.5 283.5 Q67 312 67 360 Q67 379 74 400 Q81 421 102 438.5 Q123 456 160.5 467 Q198 478 258 478 Q277 478 293.5 476.5 Q310 475 329 473 L329 520 Q329 572 301 598.5 Q273 625 220 625 Q155 625 103 575 L88 594 Q113 620 146.5 635.5 Q180 651 220 651 Q280 651 320 620.5 Q360 590 360 523 L360 264 Z " />
<glyph glyph-name="ordmasculine" unicode="&#xba;" horiz-adv-x="464" d="M95 453 Q95 365 134 322.5 Q173 280 231 280 Q260 280 285 290.5 Q310 301 329 322.5 Q348 344 358.5 376.5 Q369 409 369 453 Q369 497 358.5 529.5 Q348 562 329 584 Q310 606 285 616.5 Q260 627 231 627 Q173 627 134 584 Q95 541 95 453 Z M65 453 Q65 545 109 598 Q153 651 231 651 Q308 651 353.5 598 Q399 545 399 453 Q399 362 353.5 308.5 Q308 255 231 255 Q153 255 109 308.5 Q65 362 65 453 Z " />
<glyph glyph-name="guillemotleft" unicode="&#xab;" horiz-adv-x="476" d="M437.002 391 L417.004 411 L263.013 267 L263.013 255 L417.004 111 L437.002 130 L307.01 261 L437.002 391 Z M224.002 391 L204.004 411 L50.013 267 L50.013 255 L204.004 111 L224.002 130 L94.0103 261 L224.002 391 Z " />
<glyph glyph-name="guillemotright" unicode="&#xbb;" horiz-adv-x="476" d="M252 391 L272 411 L426 267 L426 255 L272 111 L252 130 L382 261 L252 391 Z M39 391 L59 411 L213 267 L213 255 L59 111 L39 130 L169 261 L39 391 Z " />
<glyph glyph-name="guilsinglleft" unicode="&#x2039;" horiz-adv-x="263" d="M94 261 L224 130 L204 111 L50 255 L50 267 L204 411 L224 391 L94 261 Z " />
<glyph glyph-name="guilsinglright" unicode="&#x203a;" horiz-adv-x="263" d="M39 391 L59 411 L213 267 L213 255 L59 111 L39 130 L169 261 L39 391 Z " />
<glyph glyph-name="quoteleft" unicode="&#x2018;" horiz-adv-x="200" d="M152 601 Q152 583 140.5 573.5 Q129 564 115 564 Q88 564 79 584 Q70 604 70 626 Q70 641 72.5 656 Q75 671 82.5 685.5 Q90 700 103 713 Q116 726 138 737 L146 722 Q113 702 101.5 680.5 Q90 659 92 624 Q103 635 119 635 Q134 635 143 625 Q152 615 152 601 Z " />
<glyph glyph-name="quoteright" unicode="&#x2019;" horiz-adv-x="200" d="M48 683 Q48 701 59.5 710.5 Q71 720 85 720 Q112 720 121 700 Q130 680 130 658 Q130 627 117.5 598 Q105 569 62 547 L54 562 Q87 582 98.5 603.5 Q110 625 108 660 Q97 649 81 649 Q66 649 57 659 Q48 669 48 683 Z " />
<glyph glyph-name="quotesinglbase" unicode="&#x201a;" horiz-adv-x="200" d="M68 23 Q68 41 79.5 50.5 Q91 60 105 60 Q132 60 141 40 Q150 20 150 -2 Q150 -33 137.5 -62 Q125 -91 82 -113 L74 -98 Q107 -78 118.5 -56.5 Q130 -35 128 0 Q117 -11 101 -11 Q86 -11 77 -1 Q68 9 68 23 Z " />
<glyph glyph-name="quotedblleft" unicode="&#x201c;" horiz-adv-x="344" d="M152.003 601.042 Q152.003 583.043 140.504 573.543 Q129.004 564.044 115.005 564.044 Q88.0068 564.044 79.0074 584.043 Q70.0079 604.042 70.0079 626.04 Q70.0079 657.038 82.5072 686.036 Q95.0064 715.035 138.004 737.033 L146.003 722.034 Q113.005 702.036 101.506 680.537 Q90.0067 659.038 92.0066 624.04 Q103.006 635.04 119.005 635.04 Q134.004 635.04 143.003 625.04 Q152.003 615.041 152.003 601.042 Z M286.003 601.042 Q286.003 583.043 274.504 573.543 Q263.004 564.044 249.005 564.044 Q222.007 564.044 213.007 584.043 Q204.008 604.042 204.008 626.04 Q204.008 657.038 216.507 686.036 Q229.006 715.035 272.004 737.033 L280.003 722.034 Q247.005 702.036 235.506 680.537 Q224.007 659.038 226.007 624.04 Q237.006 635.04 253.005 635.04 Q268.004 635.04 277.003 625.04 Q286.003 615.041 286.003 601.042 Z " />
<glyph glyph-name="quotedblright" unicode="&#x201d;" horiz-adv-x="344" d="M182 683 Q182 701 193.5 710.5 Q205 720 219 720 Q246 720 255 700 Q264 680 264 658 Q264 627 251.5 598 Q239 569 196 547 L188 562 Q221 582 232.5 603.5 Q244 625 242 660 Q231 649 215 649 Q200 649 191 659 Q182 669 182 683 Z M48 683 Q48 701 59.5 710.5 Q71 720 85 720 Q112 720 121 700 Q130 680 130 658 Q130 627 117.5 598 Q105 569 62 547 L54 562 Q87 582 98.5 603.5 Q110 625 108 660 Q97 649 81 649 Q66 649 57 659 Q48 669 48 683 Z " />
<glyph glyph-name="quotedblbase" unicode="&#x201e;" horiz-adv-x="329" d="M197 23 Q197 41 208.5 50.5 Q220 60 234 60 Q261 60 270 40 Q279 20 279 -2 Q279 -33 266.5 -62 Q254 -91 211 -113 L203 -98 Q236 -78 247.5 -56.5 Q259 -35 257 0 Q246 -11 230 -11 Q215 -11 206 -1 Q197 9 197 23 Z M68 23 Q68 41 79.5 50.5 Q91 60 105 60 Q132 60 141 40 Q150 20 150 -2 Q150 -33 137.5 -62 Q125 -91 82 -113 L74 -98 Q107 -78 118.5 -56.5 Q130 -35 128 0 Q117 -11 101 -11 Q86 -11 77 -1 Q68 9 68 23 Z " />
<glyph glyph-name="dagger" unicode="&#x2020;" horiz-adv-x="503" d="M235 -105 L235 477 L50 477 L50 506 L235 506 L235 719 L268 719 L268 506 L453 506 L453 477 L268 477 L268 -105 L235 -105 Z " />
<glyph glyph-name="daggerdbl" unicode="&#x2021;" horiz-adv-x="501" d="M235 -105 L235 107 L50 107 L50 136 L235 136 L235 477 L50 477 L50 506 L235 506 L235 719 L266 719 L266 506 L451 506 L451 477 L266 477 L266 136 L451 136 L451 107 L266 107 L266 -105 L235 -105 Z " />
<glyph glyph-name="bullet" unicode="&#x2022;" horiz-adv-x="500" d="M152 292 Q152 337 182 365 Q212 393 254 393 Q274 393 292 386 Q310 379 324 366 Q338 353 346.5 334.5 Q355 316 355 292 Q355 244 325 217 Q295 190 253 190 Q211 190 181.5 218 Q152 246 152 292 Z " />
<glyph glyph-name="ellipsis" unicode="&#x2026;" horiz-adv-x="752" d="M341 23 Q341 41 351.5 50 Q362 59 376 59 Q390 59 400.5 50 Q411 41 411 24 Q411 7 400.5 -2.5 Q390 -12 376 -12 Q362 -12 351.5 -3 Q341 6 341 23 Z M90 23 Q90 41 100.5 50 Q111 59 125 59 Q139 59 149.5 50 Q160 41 160 24 Q160 7 149.5 -2.5 Q139 -12 125 -12 Q111 -12 100.5 -3 Q90 6 90 23 Z M592 23 Q592 41 602.5 50 Q613 59 627 59 Q641 59 651.5 50 Q662 41 662 24 Q662 7 651.5 -2.5 Q641 -12 627 -12 Q613 -12 602.5 -3 Q592 6 592 23 Z " />
<glyph glyph-name="paragraph" unicode="&#xb6;" horiz-adv-x="531" d="M425 0 L392 0 L392 692 L267 692 L267 0 L234 0 L234 380 Q147 384 97.5 429.5 Q48 475 48 550 Q48 588 61.5 619 Q75 650 100.5 672.5 Q126 695 161.5 707.5 Q197 720 241 720 L425 720 L425 0 Z " />
<glyph glyph-name="periodcentered" unicode="&#xb7;" horiz-adv-x="253" d="M90 340 Q90 358 101 367.5 Q112 377 126 377 Q141 377 152 368 Q163 359 163 340 Q163 325 152 314.5 Q141 304 126 304 Q111 304 100.5 313.5 Q90 323 90 340 Z " />
<glyph glyph-name="uni00AD" unicode="&#xad;" horiz-adv-x="330" d="M28 292 L294 292 L294 264 L28 264 L28 292 Z " />
<glyph glyph-name="endash" unicode="&#x2013;" horiz-adv-x="500" d="M0 276 L500 276 L500 247 L0 247 L0 276 Z " />
<glyph glyph-name="emdash" unicode="&#x2014;" horiz-adv-x="1000" d="M0 277 L1000 277 L1000 248 L0 248 L0 277 Z " />
<glyph glyph-name="Agrave" unicode="&#xc0;" horiz-adv-x="618" d="M326 720 L593 0 L558 0 L467 245 L151 245 L61 0 L25 0 L290 720 L326 720 Z M456 275 L308 680 L162 275 L456 275 Z M398 781 L386 759 L221 841 L237 871 L398 781 Z " />
<glyph glyph-name="Aacute" unicode="&#xc1;" horiz-adv-x="618" d="M326 720 L593 0 L558 0 L467 245 L151 245 L61 0 L25 0 L290 720 L326 720 Z M456 275 L308 680 L162 275 L456 275 Z M382 871 L398 841 L233 759 L221 781 L382 871 Z " />
<glyph glyph-name="Acircumflex" unicode="&#xc2;" horiz-adv-x="618" d="M326 720 L593 0 L558 0 L467 245 L151 245 L61 0 L25 0 L290 720 L326 720 Z M456 275 L308 680 L162 275 L456 275 Z M414 777 L397 761 L311 832 L221 760 L205 777 L298 864 L322 864 L414 777 Z " />
<glyph glyph-name="Atilde" unicode="&#xc3;" horiz-adv-x="618" d="M326 720 L593 0 L558 0 L467 245 L151 245 L61 0 L25 0 L290 720 L326 720 Z M456 275 L308 680 L162 275 L456 275 Z M437 840 Q426 808 408 797.5 Q390 787 370 787 Q353 787 336 792.5 Q319 798 303 804.5 Q287 811 273.5 816.5 Q260 822 249 822 Q237 822 227.5 815 Q218 808 204 785 L181 796 Q196 828 213.5 839 Q231 850 251 850 Q266 850 281 844.5 Q296 839 310.5 832.5 Q325 826 340 820.5 Q355 815 370 815 Q385 815 395 822 Q405 829 415 850 L437 840 Z " />
<glyph glyph-name="Adieresis" unicode="&#xc4;" horiz-adv-x="618" d="M326 720 L593 0 L558 0 L467 245 L151 245 L61 0 L25 0 L290 720 L326 720 Z M456 275 L308 680 L162 275 L456 275 Z M364 813 Q364 825 372.5 833.5 Q381 842 394 842 Q406 842 414 833.5 Q422 825 422 813 Q422 801 414 792.5 Q406 784 394 784 Q381 784 372.5 792.5 Q364 801 364 813 Z M195 813 Q195 825 203.5 833.5 Q212 842 225 842 Q237 842 245 833.5 Q253 825 253 813 Q253 801 245 792.5 Q237 784 225 784 Q212 784 203.5 792.5 Q195 801 195 813 Z " />
<glyph glyph-name="Aring" unicode="&#xc5;" horiz-adv-x="618" d="M223 796 Q223 832 247.5 856.5 Q272 881 309 881 Q346 881 370.5 858 Q395 835 395 799 Q395 765 376 743 Q357 721 327 716 L593 0 L558 0 L467 245 L151 245 L61 0 L25 0 L289 717 Q260 722 241.5 743 Q223 764 223 796 Z M456 275 L308 680 L162 275 L456 275 Z M253 796 Q253 769 268.5 755.5 Q284 742 309 742 Q336 742 350.5 757.5 Q365 773 365 799 Q365 852 309 852 Q283 852 268 837 Q253 822 253 796 Z " />
<glyph glyph-name="AE" unicode="&#xc6;" horiz-adv-x="973" d="M475 243 L205 243 L63 0 L25 0 L440 720 L903 720 L903 690 L509 690 L509 389 L869 389 L869 360 L509 360 L509 29 L913 29 L913 0 L475 0 L475 243 Z M475 275 L475 690 L458 690 L223 275 L475 275 Z " />
<glyph glyph-name="Ccedilla" unicode="&#xc7;" horiz-adv-x="640" d="M287 -158 Q301 -164 316.5 -168 Q332 -172 351 -172 Q360 -172 370.5 -170.5 Q381 -169 390 -164.5 Q399 -160 404.5 -151 Q410 -142 410 -128 Q410 -102 390 -92.5 Q370 -83 335 -83 L328 -83 L343 -11 Q269 -8 216 24 Q163 56 129.5 107.5 Q96 159 80.5 225.5 Q65 292 65 364 Q65 438 83 505 Q101 572 138 622.5 Q175 673 231.5 703 Q288 733 364 733 Q413 733 455.5 719 Q498 705 529 679 Q560 653 577.5 615.5 Q595 578 595 531 L563 531 Q563 562 551 593 Q539 624 514 648 Q489 672 451.5 687 Q414 702 362 702 Q299 702 250 677 Q201 652 168 607.5 Q135 563 118 501.5 Q101 440 101 367 Q101 283 119.5 218 Q138 153 172 108.5 Q206 64 254 41.5 Q302 19 360 19 Q434 19 483 45.5 Q532 72 571 115 L593 95 Q551 45 496.5 17.5 Q442 -10 368 -12 L358 -61 Q371 -62 385.5 -65 Q400 -68 412 -74.5 Q424 -81 431.5 -93 Q439 -105 439 -124 Q439 -166 413 -182 Q387 -198 351 -198 Q328 -198 307.5 -192.5 Q287 -187 279 -182 L287 -158 Z " />
<glyph glyph-name="Egrave" unicode="&#xc8;" horiz-adv-x="593" d="M95 720 L523 720 L523 690 L129 690 L129 389 L489 389 L489 360 L129 360 L129 29 L533 29 L533 0 L95 0 L95 720 Z M384 781 L372 759 L207 841 L223 871 L384 781 Z " />
<glyph glyph-name="Eacute" unicode="&#xc9;" horiz-adv-x="593" d="M95 720 L523 720 L523 690 L129 690 L129 389 L489 389 L489 360 L129 360 L129 29 L533 29 L533 0 L95 0 L95 720 Z M401 871 L417 841 L252 759 L240 781 L401 871 Z " />
<glyph glyph-name="Ecircumflex" unicode="&#xca;" horiz-adv-x="593" d="M95 720 L523 720 L523 690 L129 690 L129 389 L489 389 L489 360 L129 360 L129 29 L533 29 L533 0 L95 0 L95 720 Z M419 777 L402 761 L316 832 L226 760 L210 777 L303 864 L327 864 L419 777 Z " />
<glyph glyph-name="Edieresis" unicode="&#xcb;" horiz-adv-x="593" d="M95 720 L523 720 L523 690 L129 690 L129 389 L489 389 L489 360 L129 360 L129 29 L533 29 L533 0 L95 0 L95 720 Z M369 813 Q369 825 377.5 833.5 Q386 842 399 842 Q411 842 419 833.5 Q427 825 427 813 Q427 801 419 792.5 Q411 784 399 784 Q386 784 377.5 792.5 Q369 801 369 813 Z M200 813 Q200 825 208.5 833.5 Q217 842 230 842 Q242 842 250 833.5 Q258 825 258 813 Q258 801 250 792.5 Q242 784 230 784 Q217 784 208.5 792.5 Q200 801 200 813 Z " />
<glyph glyph-name="Igrave" unicode="&#xcc;" horiz-adv-x="224" d="M95 720 L129 720 L129 0 L95 0 L95 720 Z M202 781 L190 759 L25 841 L41 871 L202 781 Z " />
<glyph glyph-name="Iacute" unicode="&#xcd;" horiz-adv-x="224" d="M95 720 L129 720 L129 0 L95 0 L95 720 Z M186 871 L202 841 L37 759 L25 781 L186 871 Z " />
<glyph glyph-name="Icircumflex" unicode="&#xce;" horiz-adv-x="224" d="M95 720 L129 720 L129 0 L95 0 L95 720 Z M218 777 L201 761 L115 832 L25 760 L9 777 L102 864 L126 864 L218 777 Z " />
<glyph glyph-name="Idieresis" unicode="&#xcf;" horiz-adv-x="224" d="M95 720 L129 720 L129 0 L95 0 L95 720 Z M173 813 Q173 825 181.5 833.5 Q190 842 203 842 Q215 842 223 833.5 Q231 825 231 813 Q231 801 223 792.5 Q215 784 203 784 Q190 784 181.5 792.5 Q173 801 173 813 Z M4 813 Q4 825 12.5 833.5 Q21 842 34 842 Q46 842 54 833.5 Q62 825 62 813 Q62 801 54 792.5 Q46 784 34 784 Q21 784 12.5 792.5 Q4 801 4 813 Z " />
<glyph glyph-name="Eth" unicode="&#xd0;" horiz-adv-x="696" d="M25 382 L105 382 L105 720 L268 720 Q354 720 421.5 700 Q489 680 535.5 637 Q582 594 606.5 525 Q631 456 631 359 Q631 261 606.5 193 Q582 125 535.5 82 Q489 39 421.5 19.5 Q354 0 268 0 L105 0 L105 354 L25 354 L25 382 Z M139 689 L139 382 L291 382 L291 354 L139 354 L139 31 L286 31 Q368 31 427 52.5 Q486 74 523 116 Q560 158 577.5 219 Q595 280 595 359 Q595 438 577.5 499.5 Q560 561 523 603 Q486 645 427 667 Q368 689 286 689 L139 689 Z " />
<glyph glyph-name="Ntilde" unicode="&#xd1;" horiz-adv-x="693" d="M95 720 L131 720 L564 61 L564 720 L598 720 L598 0 L564 0 L129 662 L129 0 L95 0 L95 720 Z M474 840 Q463 808 445 797.5 Q427 787 407 787 Q390 787 373 792.5 Q356 798 340 804.5 Q324 811 310.5 816.5 Q297 822 286 822 Q274 822 264.5 815 Q255 808 241 785 L218 796 Q233 828 250.5 839 Q268 850 288 850 Q303 850 318 844.5 Q333 839 347.5 832.5 Q362 826 377 820.5 Q392 815 407 815 Q422 815 432 822 Q442 829 452 850 L474 840 Z " />
<glyph glyph-name="Ograve" unicode="&#xd2;" horiz-adv-x="750" d="M101 372 Q101 280 121.5 213.5 Q142 147 179 104 Q216 61 267 40.5 Q318 20 378 20 Q438 20 488 40 Q538 60 574 103 Q610 146 629.5 212.5 Q649 279 649 372 Q649 454 629 515.5 Q609 577 573 618 Q537 659 487.5 679.5 Q438 700 379 700 Q317 700 266 679.5 Q215 659 178 617.5 Q141 576 121 514.5 Q101 453 101 372 Z M65 372 Q65 464 89.5 531.5 Q114 599 156.5 643.5 Q199 688 256 710 Q313 732 378 732 Q442 732 498.5 710 Q555 688 596 643.5 Q637 599 661 531.5 Q685 464 685 372 Q685 268 660.5 195 Q636 122 594 76 Q552 30 495.5 9 Q439 -12 375 -12 Q311 -12 254.5 9.5 Q198 31 156 77 Q114 123 89.5 196 Q65 269 65 372 Z M464 781 L452 759 L287 841 L303 871 L464 781 Z " />
<glyph glyph-name="Oacute" unicode="&#xd3;" horiz-adv-x="750" d="M101 372 Q101 280 121.5 213.5 Q142 147 179 104 Q216 61 267 40.5 Q318 20 378 20 Q438 20 488 40 Q538 60 574 103 Q610 146 629.5 212.5 Q649 279 649 372 Q649 454 629 515.5 Q609 577 573 618 Q537 659 487.5 679.5 Q438 700 379 700 Q317 700 266 679.5 Q215 659 178 617.5 Q141 576 121 514.5 Q101 453 101 372 Z M65 372 Q65 464 89.5 531.5 Q114 599 156.5 643.5 Q199 688 256 710 Q313 732 378 732 Q442 732 498.5 710 Q555 688 596 643.5 Q637 599 661 531.5 Q685 464 685 372 Q685 268 660.5 195 Q636 122 594 76 Q552 30 495.5 9 Q439 -12 375 -12 Q311 -12 254.5 9.5 Q198 31 156 77 Q114 123 89.5 196 Q65 269 65 372 Z M448 871 L464 841 L299 759 L287 781 L448 871 Z " />
<glyph glyph-name="Ocircumflex" unicode="&#xd4;" horiz-adv-x="750" d="M101 372 Q101 280 121.5 213.5 Q142 147 179 104 Q216 61 267 40.5 Q318 20 378 20 Q438 20 488 40 Q538 60 574 103 Q610 146 629.5 212.5 Q649 279 649 372 Q649 454 629 515.5 Q609 577 573 618 Q537 659 487.5 679.5 Q438 700 379 700 Q317 700 266 679.5 Q215 659 178 617.5 Q141 576 121 514.5 Q101 453 101 372 Z M65 372 Q65 464 89.5 531.5 Q114 599 156.5 643.5 Q199 688 256 710 Q313 732 378 732 Q442 732 498.5 710 Q555 688 596 643.5 Q637 599 661 531.5 Q685 464 685 372 Q685 268 660.5 195 Q636 122 594 76 Q552 30 495.5 9 Q439 -12 375 -12 Q311 -12 254.5 9.5 Q198 31 156 77 Q114 123 89.5 196 Q65 269 65 372 Z M480 777 L463 761 L377 832 L287 760 L271 777 L364 864 L388 864 L480 777 Z " />
<glyph glyph-name="Otilde" unicode="&#xd5;" horiz-adv-x="750" d="M101 372 Q101 280 121.5 213.5 Q142 147 179 104 Q216 61 267 40.5 Q318 20 378 20 Q438 20 488 40 Q538 60 574 103 Q610 146 629.5 212.5 Q649 279 649 372 Q649 454 629 515.5 Q609 577 573 618 Q537 659 487.5 679.5 Q438 700 379 700 Q317 700 266 679.5 Q215 659 178 617.5 Q141 576 121 514.5 Q101 453 101 372 Z M65 372 Q65 464 89.5 531.5 Q114 599 156.5 643.5 Q199 688 256 710 Q313 732 378 732 Q442 732 498.5 710 Q555 688 596 643.5 Q637 599 661 531.5 Q685 464 685 372 Q685 268 660.5 195 Q636 122 594 76 Q552 30 495.5 9 Q439 -12 375 -12 Q311 -12 254.5 9.5 Q198 31 156 77 Q114 123 89.5 196 Q65 269 65 372 Z M503 840 Q492 808 474 797.5 Q456 787 436 787 Q419 787 402 792.5 Q385 798 369 804.5 Q353 811 339.5 816.5 Q326 822 315 822 Q303 822 293.5 815 Q284 808 270 785 L247 796 Q262 828 279.5 839 Q297 850 317 850 Q332 850 347 844.5 Q362 839 376.5 832.5 Q391 826 406 820.5 Q421 815 436 815 Q451 815 461 822 Q471 829 481 850 L503 840 Z " />
<glyph glyph-name="Odieresis" unicode="&#xd6;" horiz-adv-x="750" d="M101 372 Q101 280 121.5 213.5 Q142 147 179 104 Q216 61 267 40.5 Q318 20 378 20 Q438 20 488 40 Q538 60 574 103 Q610 146 629.5 212.5 Q649 279 649 372 Q649 454 629 515.5 Q609 577 573 618 Q537 659 487.5 679.5 Q438 700 379 700 Q317 700 266 679.5 Q215 659 178 617.5 Q141 576 121 514.5 Q101 453 101 372 Z M65 372 Q65 464 89.5 531.5 Q114 599 156.5 643.5 Q199 688 256 710 Q313 732 378 732 Q442 732 498.5 710 Q555 688 596 643.5 Q637 599 661 531.5 Q685 464 685 372 Q685 268 660.5 195 Q636 122 594 76 Q552 30 495.5 9 Q439 -12 375 -12 Q311 -12 254.5 9.5 Q198 31 156 77 Q114 123 89.5 196 Q65 269 65 372 Z M435 813 Q435 825 443.5 833.5 Q452 842 465 842 Q477 842 485 833.5 Q493 825 493 813 Q493 801 485 792.5 Q477 784 465 784 Q452 784 443.5 792.5 Q435 801 435 813 Z M266 813 Q266 825 274.5 833.5 Q283 842 296 842 Q308 842 316 833.5 Q324 825 324 813 Q324 801 316 792.5 Q308 784 296 784 Q283 784 274.5 792.5 Q266 801 266 813 Z " />
<glyph glyph-name="Oslash" unicode="&#xd8;" horiz-adv-x="750" d="M65 372 Q65 464 89.5 531.5 Q114 599 156.5 643.5 Q199 688 256 710 Q313 732 378 732 Q422 732 464 721 L480 777 L511 777 L493 712 Q535 696 570.5 667.5 Q606 639 631.5 596.5 Q657 554 671 498 Q685 442 685 372 Q685 268 660.5 195 Q636 122 594 76 Q552 30 495.5 9 Q439 -12 375 -12 Q352 -12 331 -9.5 Q310 -7 290 -2 L272 -66 L244 -66 L264 5 Q220 20 183.5 49.5 Q147 79 120.5 124 Q94 169 79.5 230.5 Q65 292 65 372 Z M101 372 Q101 231 148 149 Q195 67 273 38 L456 690 Q422 700 379 700 Q317 700 266 679.5 Q215 659 178 617.5 Q141 576 121 514.5 Q101 453 101 372 Z M649 372 Q649 497 604 574 Q559 651 484 681 L299 30 Q335 20 378 20 Q438 20 488 40 Q538 60 574 103 Q610 146 629.5 212.5 Q649 279 649 372 Z " />
<glyph glyph-name="Ugrave" unicode="&#xd9;" horiz-adv-x="684" d="M123 720 L123 274 Q123 144 182 81.5 Q241 19 347 19 Q407 19 448 36 Q489 53 514 85.5 Q539 118 550 165.5 Q561 213 561 274 L561 720 L594 720 L594 262 Q594 126 532.5 57 Q471 -12 343 -12 Q288 -12 241.5 4.5 Q195 21 161.5 54.5 Q128 88 109 139.5 Q90 191 90 262 L90 720 L123 720 Z M431 781 L419 759 L254 841 L270 871 L431 781 Z " />
<glyph glyph-name="Uacute" unicode="&#xda;" horiz-adv-x="684" d="M123 720 L123 274 Q123 144 182 81.5 Q241 19 347 19 Q407 19 448 36 Q489 53 514 85.5 Q539 118 550 165.5 Q561 213 561 274 L561 720 L594 720 L594 262 Q594 126 532.5 57 Q471 -12 343 -12 Q288 -12 241.5 4.5 Q195 21 161.5 54.5 Q128 88 109 139.5 Q90 191 90 262 L90 720 L123 720 Z M435 871 L451 841 L286 759 L274 781 L435 871 Z " />
<glyph glyph-name="Ucircumflex" unicode="&#xdb;" horiz-adv-x="684" d="M123 720 L123 274 Q123 144 182 81.5 Q241 19 347 19 Q407 19 448 36 Q489 53 514 85.5 Q539 118 550 165.5 Q561 213 561 274 L561 720 L594 720 L594 262 Q594 126 532.5 57 Q471 -12 343 -12 Q288 -12 241.5 4.5 Q195 21 161.5 54.5 Q128 88 109 139.5 Q90 191 90 262 L90 720 L123 720 Z M447 777 L430 761 L344 832 L254 760 L238 777 L331 864 L355 864 L447 777 Z " />
<glyph glyph-name="Udieresis" unicode="&#xdc;" horiz-adv-x="684" d="M123 720 L123 274 Q123 144 182 81.5 Q241 19 347 19 Q407 19 448 36 Q489 53 514 85.5 Q539 118 550 165.5 Q561 213 561 274 L561 720 L594 720 L594 262 Q594 126 532.5 57 Q471 -12 343 -12 Q288 -12 241.5 4.5 Q195 21 161.5 54.5 Q128 88 109 139.5 Q90 191 90 262 L90 720 L123 720 Z M402 813 Q402 825 410.5 833.5 Q419 842 432 842 Q444 842 452 833.5 Q460 825 460 813 Q460 801 452 792.5 Q444 784 432 784 Q419 784 410.5 792.5 Q402 801 402 813 Z M233 813 Q233 825 241.5 833.5 Q250 842 263 842 Q275 842 283 833.5 Q291 825 291 813 Q291 801 283 792.5 Q275 784 263 784 Q250 784 241.5 792.5 Q233 801 233 813 Z " />
<glyph glyph-name="Yacute" unicode="&#xdd;" horiz-adv-x="535" d="M250 318 L25 720 L64 720 L268 353 L472 720 L510 720 L284 318 L284 0 L250 0 L250 318 Z M367 871 L383 841 L218 759 L206 781 L367 871 Z " />
<glyph glyph-name="Thorn" unicode="&#xde;" horiz-adv-x="579" d="M85 720 L119 720 L119 590 L287 590 Q409 590 464 536.5 Q519 483 519 389 Q519 357 513 330 Q497 261 439 221.5 Q381 182 275 182 L119 182 L119 0 L85 0 L85 720 Z M119 559 L119 212 L276 212 Q382 212 433.5 257 Q485 302 485 389 Q485 475 438.5 517 Q392 559 287 559 L119 559 Z " />
<glyph glyph-name="germandbls" unicode="&#xdf;" horiz-adv-x="513" d="M92 494 L23 494 L23 523 L92 523 L92 535 Q92 627 136.5 673.5 Q181 720 254 720 Q342 720 382.5 674 Q423 628 423 553 Q423 521 412 492 Q401 463 380 440 Q359 417 329 401.5 Q299 386 260 380 Q353 370 406.5 320 Q460 270 460 179 Q460 90 410.5 39 Q361 -12 270 -12 Q248 -12 216 -4.5 Q184 3 165 19 L177 44 Q195 31 220 23.5 Q245 16 267 16 Q302 16 331.5 25.5 Q361 35 382 55 Q403 75 415 105.5 Q427 136 427 178 Q427 225 412.5 257.5 Q398 290 371 311.5 Q344 333 306 346 Q268 359 221 366 L221 394 Q255 398 286 409.5 Q317 421 340 440.5 Q363 460 376.5 488 Q390 516 390 553 Q390 624 356.5 657.5 Q323 691 254 691 Q183 691 152.5 649 Q122 607 122 535 L122 0 L92 0 L92 494 Z " />
<glyph glyph-name="agrave" unicode="&#xe0;" horiz-adv-x="493" d="M387 260 Q368 262 349 264 Q330 266 299 266 Q239 266 197.5 256.5 Q156 247 130.5 229 Q105 211 94 185.5 Q83 160 83 129 Q83 79 116 47 Q149 15 208 15 Q247 15 280 35 Q313 55 336.5 85.5 Q360 116 373.5 153 Q387 190 387 225 L387 260 Z M418 0 L388 0 L388 127 Q358 55 312 21.5 Q266 -12 202 -12 Q133 -12 91.5 27 Q50 66 50 135 Q50 159 59 187 Q68 215 94.5 238.5 Q121 262 169.5 277.5 Q218 293 296 293 Q321 293 341.5 291.5 Q362 290 387 287 L387 356 Q387 431 349.5 468.5 Q312 506 243 506 Q158 506 96 435 L77 456 Q108 492 150 513.5 Q192 535 243 535 Q280 535 312.5 525 Q345 515 368 494 Q391 473 404.5 440.5 Q418 408 418 362 L418 0 Z M309 608 L291 589 L152 709 L176 735 L309 608 Z " />
<glyph glyph-name="aacute" unicode="&#xe1;" horiz-adv-x="493" d="M387 260 Q368 262 349 264 Q330 266 299 266 Q239 266 197.5 256.5 Q156 247 130.5 229 Q105 211 94 185.5 Q83 160 83 129 Q83 79 116 47 Q149 15 208 15 Q247 15 280 35 Q313 55 336.5 85.5 Q360 116 373.5 153 Q387 190 387 225 L387 260 Z M418 0 L388 0 L388 127 Q358 55 312 21.5 Q266 -12 202 -12 Q133 -12 91.5 27 Q50 66 50 135 Q50 159 59 187 Q68 215 94.5 238.5 Q121 262 169.5 277.5 Q218 293 296 293 Q321 293 341.5 291.5 Q362 290 387 287 L387 356 Q387 431 349.5 468.5 Q312 506 243 506 Q158 506 96 435 L77 456 Q108 492 150 513.5 Q192 535 243 535 Q280 535 312.5 525 Q345 515 368 494 Q391 473 404.5 440.5 Q418 408 418 362 L418 0 Z M307 734 L331 708 L192 589 L175 608 L307 734 Z " />
<glyph glyph-name="acircumflex" unicode="&#xe2;" horiz-adv-x="493" d="M387 260 Q368 262 349 264 Q330 266 299 266 Q239 266 197.5 256.5 Q156 247 130.5 229 Q105 211 94 185.5 Q83 160 83 129 Q83 79 116 47 Q149 15 208 15 Q247 15 280 35 Q313 55 336.5 85.5 Q360 116 373.5 153 Q387 190 387 225 L387 260 Z M418 0 L388 0 L388 127 Q358 55 312 21.5 Q266 -12 202 -12 Q133 -12 91.5 27 Q50 66 50 135 Q50 159 59 187 Q68 215 94.5 238.5 Q121 262 169.5 277.5 Q218 293 296 293 Q321 293 341.5 291.5 Q362 290 387 287 L387 356 Q387 431 349.5 468.5 Q312 506 243 506 Q158 506 96 435 L77 456 Q108 492 150 513.5 Q192 535 243 535 Q280 535 312.5 525 Q345 515 368 494 Q391 473 404.5 440.5 Q418 408 418 362 L418 0 Z M256 750 L360 600 L338 585 L241 714 L144 586 L122 600 L225 750 L256 750 Z " />
<glyph glyph-name="atilde" unicode="&#xe3;" horiz-adv-x="493" d="M387 260 Q368 262 349 264 Q330 266 299 266 Q239 266 197.5 256.5 Q156 247 130.5 229 Q105 211 94 185.5 Q83 160 83 129 Q83 79 116 47 Q149 15 208 15 Q247 15 280 35 Q313 55 336.5 85.5 Q360 116 373.5 153 Q387 190 387 225 L387 260 Z M418 0 L388 0 L388 127 Q358 55 312 21.5 Q266 -12 202 -12 Q133 -12 91.5 27 Q50 66 50 135 Q50 159 59 187 Q68 215 94.5 238.5 Q121 262 169.5 277.5 Q218 293 296 293 Q321 293 341.5 291.5 Q362 290 387 287 L387 356 Q387 431 349.5 468.5 Q312 506 243 506 Q158 506 96 435 L77 456 Q108 492 150 513.5 Q192 535 243 535 Q280 535 312.5 525 Q345 515 368 494 Q391 473 404.5 440.5 Q418 408 418 362 L418 0 Z M369 671 Q358 639 340 628.5 Q322 618 302 618 Q285 618 268 623.5 Q251 629 235 635.5 Q219 642 205.5 647.5 Q192 653 181 653 Q169 653 159.5 646 Q150 639 136 616 L113 627 Q128 659 145.5 670 Q163 681 183 681 Q198 681 213 675.5 Q228 670 242.5 663.5 Q257 657 272 651.5 Q287 646 302 646 Q317 646 327 653 Q337 660 347 681 L369 671 Z " />
<glyph glyph-name="adieresis" unicode="&#xe4;" horiz-adv-x="493" d="M387 260 Q368 262 349 264 Q330 266 299 266 Q239 266 197.5 256.5 Q156 247 130.5 229 Q105 211 94 185.5 Q83 160 83 129 Q83 79 116 47 Q149 15 208 15 Q247 15 280 35 Q313 55 336.5 85.5 Q360 116 373.5 153 Q387 190 387 225 L387 260 Z M418 0 L388 0 L388 127 Q358 55 312 21.5 Q266 -12 202 -12 Q133 -12 91.5 27 Q50 66 50 135 Q50 159 59 187 Q68 215 94.5 238.5 Q121 262 169.5 277.5 Q218 293 296 293 Q321 293 341.5 291.5 Q362 290 387 287 L387 356 Q387 431 349.5 468.5 Q312 506 243 506 Q158 506 96 435 L77 456 Q108 492 150 513.5 Q192 535 243 535 Q280 535 312.5 525 Q345 515 368 494 Q391 473 404.5 440.5 Q418 408 418 362 L418 0 Z M300 652 Q300 664 308.5 672.5 Q317 681 330 681 Q342 681 350 672.5 Q358 664 358 652 Q358 640 350 631.5 Q342 623 330 623 Q317 623 308.5 631.5 Q300 640 300 652 Z M131 652 Q131 664 139.5 672.5 Q148 681 161 681 Q173 681 181 672.5 Q189 664 189 652 Q189 640 181 631.5 Q173 623 161 623 Q148 623 139.5 631.5 Q131 640 131 652 Z " />
<glyph glyph-name="aring" unicode="&#xe5;" horiz-adv-x="493" d="M387 260 Q368 262 349 264 Q330 266 299 266 Q239 266 197.5 256.5 Q156 247 130.5 229 Q105 211 94 185.5 Q83 160 83 129 Q83 79 116 47 Q149 15 208 15 Q247 15 280 35 Q313 55 336.5 85.5 Q360 116 373.5 153 Q387 190 387 225 L387 260 Z M418 0 L388 0 L388 127 Q358 55 312 21.5 Q266 -12 202 -12 Q133 -12 91.5 27 Q50 66 50 135 Q50 159 59 187 Q68 215 94.5 238.5 Q121 262 169.5 277.5 Q218 293 296 293 Q321 293 341.5 291.5 Q362 290 387 287 L387 356 Q387 431 349.5 468.5 Q312 506 243 506 Q158 506 96 435 L77 456 Q108 492 150 513.5 Q192 535 243 535 Q280 535 312.5 525 Q345 515 368 494 Q391 473 404.5 440.5 Q418 408 418 362 L418 0 Z M189 659 Q189 632 204.5 618.5 Q220 605 245 605 Q272 605 286.5 620.5 Q301 636 301 662 Q301 715 245 715 Q219 715 204 700 Q189 685 189 659 Z M159 659 Q159 695 183.5 719.5 Q208 744 245 744 Q282 744 306.5 721 Q331 698 331 662 Q331 624 307 601 Q283 578 245 578 Q208 578 183.5 599.5 Q159 621 159 659 Z " />
<glyph glyph-name="ae" unicode="&#xe6;" horiz-adv-x="839" d="M792 60 Q750 18 705.5 3 Q661 -12 613 -12 Q536 -12 481 25 Q426 62 403 140 Q390 98 367.5 69 Q345 40 318 22 Q291 4 261.5 -4 Q232 -12 205 -12 Q133 -12 91 27 Q49 66 49 135 Q49 159 58 187 Q67 215 93.5 238.5 Q120 262 168.5 277.5 Q217 293 295 293 Q320 293 340.5 291.5 Q361 290 386 287 L386 356 Q386 431 348.5 468.5 Q311 506 242 506 Q157 506 95 435 L76 456 Q107 492 149 513.5 Q191 535 242 535 Q308 535 355 503.5 Q402 472 413 403 Q440 466 489.5 500.5 Q539 535 606 535 Q704 535 751.5 471.5 Q799 408 799 274 L799 258 L420 258 Q420 203 431.5 158.5 Q443 114 467 82.5 Q491 51 527.5 34 Q564 17 614 17 Q662 17 700.5 31 Q739 45 775 81 L792 60 Z M766 287 Q766 334 758 374 Q750 414 731.5 443.5 Q713 473 682 489.5 Q651 506 606 506 Q550 506 514 481 Q478 456 457.5 420.5 Q437 385 429 348 Q421 311 421 287 L766 287 Z M386 260 Q368 263 348.5 264.5 Q329 266 297 266 Q237 266 196 256.5 Q155 247 129.5 229 Q104 211 93 185.5 Q82 160 82 129 Q82 79 117.5 48 Q153 17 205 17 Q247 17 280.5 34 Q314 51 337.5 78.5 Q361 106 373.5 142 Q386 178 386 217 L386 260 Z " />
<glyph glyph-name="ccedilla" unicode="&#xe7;" horiz-adv-x="502" d="M201 -158 Q215 -164 230.5 -168 Q246 -172 265 -172 Q274 -172 284.5 -170.5 Q295 -169 304 -164.5 Q313 -160 318.5 -151 Q324 -142 324 -128 Q324 -102 304 -92.5 Q284 -83 249 -83 L242 -83 L257 -11 Q209 -7 171.5 15 Q134 37 108 73 Q82 109 68.5 158 Q55 207 55 266 Q55 333 72.5 383.5 Q90 434 120.5 468 Q151 502 191 518.5 Q231 535 276 535 Q359 535 407 487.5 Q455 440 462 360 L432 360 Q422 435 379 470.5 Q336 506 275 506 Q231 506 196.5 488.5 Q162 471 138 439.5 Q114 408 101 364 Q88 320 88 266 Q88 218 100 173 Q112 128 136 93.5 Q160 59 195.5 38 Q231 17 278 17 Q303 17 323.5 20.5 Q344 24 363 31.5 Q382 39 400.5 51 Q419 63 441 81 L458 59 Q414 18 372 3.5 Q330 -11 282 -12 L272 -61 Q285 -62 299.5 -65 Q314 -68 326 -74.5 Q338 -81 345.5 -93 Q353 -105 353 -124 Q353 -166 327 -182 Q301 -198 265 -198 Q242 -198 221.5 -192.5 Q201 -187 193 -182 L201 -158 Z " />
<glyph glyph-name="egrave" unicode="&#xe8;" horiz-adv-x="517" d="M460 60 Q418 18 373.5 3 Q329 -12 281 -12 Q230 -12 188.5 4 Q147 20 117.5 53 Q88 86 71.5 137.5 Q55 189 55 260 Q55 322 70.5 373 Q86 424 115.5 460 Q145 496 186 515.5 Q227 535 278 535 Q373 535 420 471.5 Q467 408 467 274 L467 258 L88 258 Q88 203 99.5 158.5 Q111 114 135 82.5 Q159 51 195.5 34 Q232 17 282 17 Q330 17 367.5 31.5 Q405 46 441 81 L460 60 Z M434 287 Q434 334 426 374 Q418 414 400 443.5 Q382 473 352 489.5 Q322 506 278 506 Q220 506 183.5 481 Q147 456 126 420.5 Q105 385 97 348 Q89 311 89 287 L434 287 Z M336 608 L318 589 L179 709 L203 735 L336 608 Z " />
<glyph glyph-name="eacute" unicode="&#xe9;" horiz-adv-x="517" d="M460 60 Q418 18 373.5 3 Q329 -12 281 -12 Q230 -12 188.5 4 Q147 20 117.5 53 Q88 86 71.5 137.5 Q55 189 55 260 Q55 322 70.5 373 Q86 424 115.5 460 Q145 496 186 515.5 Q227 535 278 535 Q373 535 420 471.5 Q467 408 467 274 L467 258 L88 258 Q88 203 99.5 158.5 Q111 114 135 82.5 Q159 51 195.5 34 Q232 17 282 17 Q330 17 367.5 31.5 Q405 46 441 81 L460 60 Z M434 287 Q434 334 426 374 Q418 414 400 443.5 Q382 473 352 489.5 Q322 506 278 506 Q220 506 183.5 481 Q147 456 126 420.5 Q105 385 97 348 Q89 311 89 287 L434 287 Z M335 734 L359 708 L220 589 L203 608 L335 734 Z " />
<glyph glyph-name="ecircumflex" unicode="&#xea;" horiz-adv-x="517" d="M460 60 Q418 18 373.5 3 Q329 -12 281 -12 Q230 -12 188.5 4 Q147 20 117.5 53 Q88 86 71.5 137.5 Q55 189 55 260 Q55 322 70.5 373 Q86 424 115.5 460 Q145 496 186 515.5 Q227 535 278 535 Q373 535 420 471.5 Q467 408 467 274 L467 258 L88 258 Q88 203 99.5 158.5 Q111 114 135 82.5 Q159 51 195.5 34 Q232 17 282 17 Q330 17 367.5 31.5 Q405 46 441 81 L460 60 Z M434 287 Q434 334 426 374 Q418 414 400 443.5 Q382 473 352 489.5 Q322 506 278 506 Q220 506 183.5 481 Q147 456 126 420.5 Q105 385 97 348 Q89 311 89 287 L434 287 Z M283 750 L387 600 L365 585 L268 714 L171 586 L149 600 L252 750 L283 750 Z " />
<glyph glyph-name="edieresis" unicode="&#xeb;" horiz-adv-x="517" d="M460 60 Q418 18 373.5 3 Q329 -12 281 -12 Q230 -12 188.5 4 Q147 20 117.5 53 Q88 86 71.5 137.5 Q55 189 55 260 Q55 322 70.5 373 Q86 424 115.5 460 Q145 496 186 515.5 Q227 535 278 535 Q373 535 420 471.5 Q467 408 467 274 L467 258 L88 258 Q88 203 99.5 158.5 Q111 114 135 82.5 Q159 51 195.5 34 Q232 17 282 17 Q330 17 367.5 31.5 Q405 46 441 81 L460 60 Z M434 287 Q434 334 426 374 Q418 414 400 443.5 Q382 473 352 489.5 Q322 506 278 506 Q220 506 183.5 481 Q147 456 126 420.5 Q105 385 97 348 Q89 311 89 287 L434 287 Z M326 652 Q326 664 334.5 672.5 Q343 681 356 681 Q368 681 376 672.5 Q384 664 384 652 Q384 640 376 631.5 Q368 623 356 623 Q343 623 334.5 631.5 Q326 640 326 652 Z M157 652 Q157 664 165.5 672.5 Q174 681 187 681 Q199 681 207 672.5 Q215 664 215 652 Q215 640 207 631.5 Q199 623 187 623 Q174 623 165.5 631.5 Q157 640 157 652 Z " />
<glyph glyph-name="igrave" unicode="&#xec;" horiz-adv-x="219" d="M125 0 L94 0 L94 523 L125 523 L125 0 Z M181 608 L163 589 L24 709 L48 735 L181 608 Z " />
<glyph glyph-name="iacute" unicode="&#xed;" horiz-adv-x="219" d="M125 0 L94 0 L94 523 L125 523 L125 0 Z M177 734 L201 708 L62 589 L45 608 L177 734 Z " />
<glyph glyph-name="icircumflex" unicode="&#xee;" horiz-adv-x="219" d="M125 0 L94 0 L94 523 L125 523 L125 0 Z M126 750 L230 600 L208 585 L111 714 L14 586 L-8 600 L95 750 L126 750 Z " />
<glyph glyph-name="idieresis" unicode="&#xef;" horiz-adv-x="219" d="M125 0 L94 0 L94 523 L125 523 L125 0 Z M170 652 Q170 664 178.5 672.5 Q187 681 200 681 Q212 681 220 672.5 Q228 664 228 652 Q228 640 220 631.5 Q212 623 200 623 Q187 623 178.5 631.5 Q170 640 170 652 Z M1 652 Q1 664 9.5 672.5 Q18 681 31 681 Q43 681 51 672.5 Q59 664 59 652 Q59 640 51 631.5 Q43 623 31 623 Q18 623 9.5 631.5 Q1 640 1 652 Z " />
<glyph glyph-name="eth" unicode="&#xf0;" horiz-adv-x="515" d="M203 553 L304 619 Q243 672 155 693 L166 720 Q213 708 254 687.5 Q295 667 330 636 L437 706 L453 683 L351 617 Q402 563 431 482.5 Q460 402 460 287 Q460 219 447 164 Q434 109 408 70 Q382 31 343 9.5 Q304 -12 253 -12 Q205 -12 168 4.5 Q131 21 106 50 Q81 79 68 119 Q55 159 55 207 Q55 250 67 290.5 Q79 331 103 362.5 Q127 394 164 412.5 Q201 431 251 431 Q308 431 351 406 Q394 381 429 339 Q424 415 398.5 482 Q373 549 325 600 L218 531 L203 553 Z M250 18 Q289 18 321.5 33.5 Q354 49 378 83 Q402 117 415.5 170.5 Q429 224 428 300 Q414 315 397 332.5 Q380 350 358.5 365.5 Q337 381 310.5 391 Q284 401 253 401 Q222 401 192.5 390 Q163 379 140 355.5 Q117 332 103 295 Q89 258 89 206 Q89 157 102.5 121.5 Q116 86 138 63 Q160 40 189 29 Q218 18 250 18 Z " />
<glyph glyph-name="ntilde" unicode="&#xf1;" horiz-adv-x="523" d="M111 523 L111 432 Q146 477 190 506 Q234 535 288 535 Q337 535 368 519 Q399 503 417 475 Q435 447 441.5 409 Q448 371 448 328 L448 0 L416 0 L416 335 Q416 420 386.5 463 Q357 506 287 506 Q255 506 227.5 493.5 Q200 481 178 463.5 Q156 446 139 426.5 Q122 407 111 393 L111 0 L80 0 L80 523 L111 523 Z M393 671 Q382 639 364 628.5 Q346 618 326 618 Q309 618 292 623.5 Q275 629 259 635.5 Q243 642 229.5 647.5 Q216 653 205 653 Q193 653 183.5 646 Q174 639 160 616 L137 627 Q152 659 169.5 670 Q187 681 207 681 Q222 681 237 675.5 Q252 670 266.5 663.5 Q281 657 296 651.5 Q311 646 326 646 Q341 646 351 653 Q361 660 371 681 L393 671 Z " />
<glyph glyph-name="ograve" unicode="&#xf2;" horiz-adv-x="554" d="M88 260 Q88 198 102.5 152.5 Q117 107 142 77 Q167 47 201 32 Q235 17 275 17 Q315 17 349.5 32 Q384 47 410 77 Q436 107 451 152.5 Q466 198 466 260 Q466 323 451 369 Q436 415 410 445.5 Q384 476 349.5 491 Q315 506 275 506 Q235 506 201 490.5 Q167 475 142 444.5 Q117 414 102.5 367.5 Q88 321 88 260 Z M55 260 Q55 322 70 373 Q85 424 113.5 460 Q142 496 182.5 515.5 Q223 535 275 535 Q327 535 368.5 516 Q410 497 439 461.5 Q468 426 483.5 375 Q499 324 499 260 Q499 198 483.5 147.5 Q468 97 439 61.5 Q410 26 368.5 7 Q327 -12 275 -12 Q222 -12 181 7 Q140 26 112 61.5 Q84 97 69.5 147.5 Q55 198 55 260 Z M354 608 L336 589 L197 709 L221 735 L354 608 Z " />
<glyph glyph-name="oacute" unicode="&#xf3;" horiz-adv-x="554" d="M88 260 Q88 198 102.5 152.5 Q117 107 142 77 Q167 47 201 32 Q235 17 275 17 Q315 17 349.5 32 Q384 47 410 77 Q436 107 451 152.5 Q466 198 466 260 Q466 323 451 369 Q436 415 410 445.5 Q384 476 349.5 491 Q315 506 275 506 Q235 506 201 490.5 Q167 475 142 444.5 Q117 414 102.5 367.5 Q88 321 88 260 Z M55 260 Q55 322 70 373 Q85 424 113.5 460 Q142 496 182.5 515.5 Q223 535 275 535 Q327 535 368.5 516 Q410 497 439 461.5 Q468 426 483.5 375 Q499 324 499 260 Q499 198 483.5 147.5 Q468 97 439 61.5 Q410 26 368.5 7 Q327 -12 275 -12 Q222 -12 181 7 Q140 26 112 61.5 Q84 97 69.5 147.5 Q55 198 55 260 Z M338 734 L362 708 L223 589 L206 608 L338 734 Z " />
<glyph glyph-name="ocircumflex" unicode="&#xf4;" horiz-adv-x="554" d="M88 260 Q88 198 102.5 152.5 Q117 107 142 77 Q167 47 201 32 Q235 17 275 17 Q315 17 349.5 32 Q384 47 410 77 Q436 107 451 152.5 Q466 198 466 260 Q466 323 451 369 Q436 415 410 445.5 Q384 476 349.5 491 Q315 506 275 506 Q235 506 201 490.5 Q167 475 142 444.5 Q117 414 102.5 367.5 Q88 321 88 260 Z M55 260 Q55 322 70 373 Q85 424 113.5 460 Q142 496 182.5 515.5 Q223 535 275 535 Q327 535 368.5 516 Q410 497 439 461.5 Q468 426 483.5 375 Q499 324 499 260 Q499 198 483.5 147.5 Q468 97 439 61.5 Q410 26 368.5 7 Q327 -12 275 -12 Q222 -12 181 7 Q140 26 112 61.5 Q84 97 69.5 147.5 Q55 198 55 260 Z M288 750 L392 600 L370 585 L273 714 L176 586 L154 600 L257 750 L288 750 Z " />
<glyph glyph-name="otilde" unicode="&#xf5;" horiz-adv-x="554" d="M88 260 Q88 198 102.5 152.5 Q117 107 142 77 Q167 47 201 32 Q235 17 275 17 Q315 17 349.5 32 Q384 47 410 77 Q436 107 451 152.5 Q466 198 466 260 Q466 323 451 369 Q436 415 410 445.5 Q384 476 349.5 491 Q315 506 275 506 Q235 506 201 490.5 Q167 475 142 444.5 Q117 414 102.5 367.5 Q88 321 88 260 Z M55 260 Q55 322 70 373 Q85 424 113.5 460 Q142 496 182.5 515.5 Q223 535 275 535 Q327 535 368.5 516 Q410 497 439 461.5 Q468 426 483.5 375 Q499 324 499 260 Q499 198 483.5 147.5 Q468 97 439 61.5 Q410 26 368.5 7 Q327 -12 275 -12 Q222 -12 181 7 Q140 26 112 61.5 Q84 97 69.5 147.5 Q55 198 55 260 Z M401 671 Q390 639 372 628.5 Q354 618 334 618 Q317 618 300 623.5 Q283 629 267 635.5 Q251 642 237.5 647.5 Q224 653 213 653 Q201 653 191.5 646 Q182 639 168 616 L145 627 Q160 659 177.5 670 Q195 681 215 681 Q230 681 245 675.5 Q260 670 274.5 663.5 Q289 657 304 651.5 Q319 646 334 646 Q349 646 359 653 Q369 660 379 681 L401 671 Z " />
<glyph glyph-name="odieresis" unicode="&#xf6;" horiz-adv-x="554" d="M88 260 Q88 198 102.5 152.5 Q117 107 142 77 Q167 47 201 32 Q235 17 275 17 Q315 17 349.5 32 Q384 47 410 77 Q436 107 451 152.5 Q466 198 466 260 Q466 323 451 369 Q436 415 410 445.5 Q384 476 349.5 491 Q315 506 275 506 Q235 506 201 490.5 Q167 475 142 444.5 Q117 414 102.5 367.5 Q88 321 88 260 Z M55 260 Q55 322 70 373 Q85 424 113.5 460 Q142 496 182.5 515.5 Q223 535 275 535 Q327 535 368.5 516 Q410 497 439 461.5 Q468 426 483.5 375 Q499 324 499 260 Q499 198 483.5 147.5 Q468 97 439 61.5 Q410 26 368.5 7 Q327 -12 275 -12 Q222 -12 181 7 Q140 26 112 61.5 Q84 97 69.5 147.5 Q55 198 55 260 Z M331 652 Q331 664 339.5 672.5 Q348 681 361 681 Q373 681 381 672.5 Q389 664 389 652 Q389 640 381 631.5 Q373 623 361 623 Q348 623 339.5 631.5 Q331 640 331 652 Z M162 652 Q162 664 170.5 672.5 Q179 681 192 681 Q204 681 212 672.5 Q220 664 220 652 Q220 640 212 631.5 Q204 623 192 623 Q179 623 170.5 631.5 Q162 640 162 652 Z " />
<glyph glyph-name="oslash" unicode="&#xf8;" horiz-adv-x="554" d="M55 260 Q55 322 70 373 Q85 424 113.5 460 Q142 496 182.5 515.5 Q223 535 275 535 Q313 535 343 525 L364 592 L395 592 L370 514 Q431 485 465 420.5 Q499 356 499 260 Q499 198 483.5 147.5 Q468 97 439 61.5 Q410 26 368.5 7 Q327 -12 275 -12 Q256 -12 239.5 -9.5 Q223 -7 207 -2 L184 -76 L156 -76 L181 6 Q119 35 87 100.5 Q55 166 55 260 Z M466 260 Q466 349 437 404.5 Q408 460 361 485 L216 26 Q243 17 275 17 Q315 17 349.5 32 Q384 47 410 77 Q436 107 451 152.5 Q466 198 466 260 Z M88 260 Q88 172 116 117 Q144 62 191 37 L334 497 Q307 506 275 506 Q235 506 201 490.5 Q167 475 142 444.5 Q117 414 102.5 367.5 Q88 321 88 260 Z " />
<glyph glyph-name="ugrave" unicode="&#xf9;" horiz-adv-x="522" d="M411 0 L411 87 Q399 72 381.5 54.5 Q364 37 341.5 22.5 Q319 8 291.5 -2 Q264 -12 232 -12 Q182 -12 151 4 Q120 20 103 46.5 Q86 73 80.5 107.5 Q75 142 75 178 L75 523 L107 523 L107 181 Q107 101 134 59 Q161 17 232 17 Q262 17 288 27 Q314 37 336 52.5 Q358 68 376.5 88 Q395 108 411 128 L411 523 L442 523 L442 0 L411 0 Z M336 608 L318 589 L179 709 L203 735 L336 608 Z " />
<glyph glyph-name="uacute" unicode="&#xfa;" horiz-adv-x="522" d="M411 0 L411 87 Q399 72 381.5 54.5 Q364 37 341.5 22.5 Q319 8 291.5 -2 Q264 -12 232 -12 Q182 -12 151 4 Q120 20 103 46.5 Q86 73 80.5 107.5 Q75 142 75 178 L75 523 L107 523 L107 181 Q107 101 134 59 Q161 17 232 17 Q262 17 288 27 Q314 37 336 52.5 Q358 68 376.5 88 Q395 108 411 128 L411 523 L442 523 L442 0 L411 0 Z M333 734 L357 708 L218 589 L201 608 L333 734 Z " />
<glyph glyph-name="ucircumflex" unicode="&#xfb;" horiz-adv-x="522" d="M411 0 L411 87 Q399 72 381.5 54.5 Q364 37 341.5 22.5 Q319 8 291.5 -2 Q264 -12 232 -12 Q182 -12 151 4 Q120 20 103 46.5 Q86 73 80.5 107.5 Q75 142 75 178 L75 523 L107 523 L107 181 Q107 101 134 59 Q161 17 232 17 Q262 17 288 27 Q314 37 336 52.5 Q358 68 376.5 88 Q395 108 411 128 L411 523 L442 523 L442 0 L411 0 Z M277 750 L381 600 L359 585 L262 714 L165 586 L143 600 L246 750 L277 750 Z " />
<glyph glyph-name="udieresis" unicode="&#xfc;" horiz-adv-x="522" d="M411 0 L411 87 Q399 72 381.5 54.5 Q364 37 341.5 22.5 Q319 8 291.5 -2 Q264 -12 232 -12 Q182 -12 151 4 Q120 20 103 46.5 Q86 73 80.5 107.5 Q75 142 75 178 L75 523 L107 523 L107 181 Q107 101 134 59 Q161 17 232 17 Q262 17 288 27 Q314 37 336 52.5 Q358 68 376.5 88 Q395 108 411 128 L411 523 L442 523 L442 0 L411 0 Z M319 652 Q319 664 327.5 672.5 Q336 681 349 681 Q361 681 369 672.5 Q377 664 377 652 Q377 640 369 631.5 Q361 623 349 623 Q336 623 327.5 631.5 Q319 640 319 652 Z M150 652 Q150 664 158.5 672.5 Q167 681 180 681 Q192 681 200 672.5 Q208 664 208 652 Q208 640 200 631.5 Q192 623 180 623 Q167 623 158.5 631.5 Q150 640 150 652 Z " />
<glyph glyph-name="yacute" unicode="&#xfd;" horiz-adv-x="436" d="M154 -172 Q184 -172 193 -159 Q202 -146 202 -117 L202 0 L15 523 L51 523 L218 46 L387 523 L423 523 L233 0 L233 -126 Q233 -200 165 -200 L93 -200 L93 -172 L154 -172 Z M311 734 L335 708 L196 589 L179 608 L311 734 Z " />
<glyph glyph-name="thorn" unicode="&#xfe;" horiz-adv-x="562" d="M111 121 Q121 104 137.5 85.5 Q154 67 176.5 52 Q199 37 227 27 Q255 17 288 17 Q373 17 421.5 79.5 Q470 142 470 260 Q470 378 425 442 Q380 506 295 506 Q232 506 189 472.5 Q146 439 111 388 L111 121 Z M80 -200 L80 720 L111 720 L111 431 Q146 479 191.5 507 Q237 535 296 535 Q351 535 390.5 514 Q430 493 455 456.5 Q480 420 491.5 369.5 Q503 319 503 260 Q503 201 490 151 Q477 101 450.5 65 Q424 29 383 8.5 Q342 -12 287 -12 Q250 -12 220.5 -2 Q191 8 169 22 Q147 36 132.5 51.5 Q118 67 111 78 L111 -200 L80 -200 Z " />
<glyph glyph-name="ydieresis" unicode="&#xff;" horiz-adv-x="436" d="M154 -172 Q184 -172 193 -159 Q202 -146 202 -117 L202 0 L15 523 L51 523 L218 46 L387 523 L423 523 L233 0 L233 -126 Q233 -200 165 -200 L93 -200 L93 -172 L154 -172 Z M287 652 Q287 664 295.5 672.5 Q304 681 317 681 Q329 681 337 672.5 Q345 664 345 652 Q345 640 337 631.5 Q329 623 317 623 Q304 623 295.5 631.5 Q287 640 287 652 Z M118 652 Q118 664 126.5 672.5 Q135 681 148 681 Q160 681 168 672.5 Q176 664 176 652 Q176 640 168 631.5 Q160 623 148 623 Q135 623 126.5 631.5 Q118 640 118 652 Z " />
<glyph glyph-name="Amacron" unicode="&#x100;" horiz-adv-x="618" d="M326 720 L593 0 L558 0 L467 245 L151 245 L61 0 L25 0 L290 720 L326 720 Z M456 275 L308 680 L162 275 L456 275 Z M176 824 L442 824 L442 796 L176 796 L176 824 Z " />
<glyph glyph-name="amacron" unicode="&#x101;" horiz-adv-x="493" d="M387 260 Q368 262 349 264 Q330 266 299 266 Q239 266 197.5 256.5 Q156 247 130.5 229 Q105 211 94 185.5 Q83 160 83 129 Q83 79 116 47 Q149 15 208 15 Q247 15 280 35 Q313 55 336.5 85.5 Q360 116 373.5 153 Q387 190 387 225 L387 260 Z M418 0 L388 0 L388 127 Q358 55 312 21.5 Q266 -12 202 -12 Q133 -12 91.5 27 Q50 66 50 135 Q50 159 59 187 Q68 215 94.5 238.5 Q121 262 169.5 277.5 Q218 293 296 293 Q321 293 341.5 291.5 Q362 290 387 287 L387 356 Q387 431 349.5 468.5 Q312 506 243 506 Q158 506 96 435 L77 456 Q108 492 150 513.5 Q192 535 243 535 Q280 535 312.5 525 Q345 515 368 494 Q391 473 404.5 440.5 Q418 408 418 362 L418 0 Z M115 662 L381 662 L381 634 L115 634 L115 662 Z " />
<glyph glyph-name="Abreve" unicode="&#x102;" horiz-adv-x="618" d="M326 720 L593 0 L558 0 L467 245 L151 245 L61 0 L25 0 L290 720 L326 720 Z M456 275 L308 680 L162 275 L456 275 Z M309 800 Q337 800 356.5 805.5 Q376 811 388.5 822 Q401 833 408 850 Q415 867 418 890 L445 885 Q439 825 405.5 798.5 Q372 772 309 772 Q278 772 255.5 777.5 Q233 783 217 795.5 Q201 808 190.5 829.5 Q180 851 174 883 L203 890 Q212 843 233.5 821.5 Q255 800 309 800 Z " />
<glyph glyph-name="abreve" unicode="&#x103;" horiz-adv-x="493" d="M387 260 Q368 262 349 264 Q330 266 299 266 Q239 266 197.5 256.5 Q156 247 130.5 229 Q105 211 94 185.5 Q83 160 83 129 Q83 79 116 47 Q149 15 208 15 Q247 15 280 35 Q313 55 336.5 85.5 Q360 116 373.5 153 Q387 190 387 225 L387 260 Z M418 0 L388 0 L388 127 Q358 55 312 21.5 Q266 -12 202 -12 Q133 -12 91.5 27 Q50 66 50 135 Q50 159 59 187 Q68 215 94.5 238.5 Q121 262 169.5 277.5 Q218 293 296 293 Q321 293 341.5 291.5 Q362 290 387 287 L387 356 Q387 431 349.5 468.5 Q312 506 243 506 Q158 506 96 435 L77 456 Q108 492 150 513.5 Q192 535 243 535 Q280 535 312.5 525 Q345 515 368 494 Q391 473 404.5 440.5 Q418 408 418 362 L418 0 Z M240 626 Q296 626 318.5 651 Q341 676 347 725 L374 720 Q369 657 336 627.5 Q303 598 240 598 Q178 598 146.5 625.5 Q115 653 105 719 L132 726 Q140 675 163.5 650.5 Q187 626 240 626 Z " />
<glyph glyph-name="Aogonek" unicode="&#x104;" horiz-adv-x="618" d="M326 720 L593 0 Q554 -32 526 -67.5 Q498 -103 498 -140 Q498 -163 511 -174 Q524 -185 547 -185 Q564 -185 580 -178.5 Q596 -172 611 -163 L624 -186 Q610 -197 588.5 -205 Q567 -213 543 -213 Q507 -213 486 -195 Q465 -177 465 -144 Q465 -123 472.5 -103 Q480 -83 493 -64 Q506 -45 522 -28 Q538 -11 556 4 L467 245 L151 245 L61 0 L25 0 L290 720 L326 720 Z M456 275 L308 680 L162 275 L456 275 Z " />
<glyph glyph-name="aogonek" unicode="&#x105;" horiz-adv-x="493" d="M418 0 Q380 -32 352 -67.5 Q324 -103 324 -140 Q324 -163 337 -174 Q350 -185 373 -185 Q390 -185 406 -178.5 Q422 -172 437 -163 L450 -186 Q436 -197 414.5 -205 Q393 -213 369 -213 Q333 -213 312 -195 Q291 -177 291 -144 Q291 -122 299.5 -101 Q308 -80 321.5 -61 Q335 -42 352.5 -24.5 Q370 -7 388 8 L388 127 Q358 55 312 21.5 Q266 -12 202 -12 Q133 -12 91.5 27 Q50 66 50 135 Q50 159 59 187 Q68 215 94.5 238.5 Q121 262 169.5 277.5 Q218 293 296 293 Q321 293 341.5 291.5 Q362 290 387 287 L387 356 Q387 431 349.5 468.5 Q312 506 243 506 Q158 506 96 435 L77 456 Q108 492 150 513.5 Q192 535 243 535 Q280 535 312.5 525 Q345 515 368 494 Q391 473 404.5 440.5 Q418 408 418 362 L418 0 Z M387 260 Q368 262 349 264 Q330 266 299 266 Q239 266 197.5 256.5 Q156 247 130.5 229 Q105 211 94 185.5 Q83 160 83 129 Q83 79 116 47 Q149 15 208 15 Q247 15 280 35 Q313 55 336.5 85.5 Q360 116 373.5 153 Q387 190 387 225 L387 260 Z " />
<glyph glyph-name="Cacute" unicode="&#x106;" horiz-adv-x="640" d="M593 95 Q550 44 494 16 Q438 -12 361 -12 Q282 -12 226 19 Q170 50 134 102 Q98 154 81.5 222 Q65 290 65 364 Q65 438 83 505 Q101 572 138 622.5 Q175 673 231.5 703 Q288 733 364 733 Q413 733 455.5 719 Q498 705 529 679 Q560 653 577.5 615.5 Q595 578 595 531 L563 531 Q563 562 551 593 Q539 624 514 648 Q489 672 451.5 687 Q414 702 362 702 Q299 702 250 677 Q201 652 168 607.5 Q135 563 118 501.5 Q101 440 101 367 Q101 283 119.5 218 Q138 153 172 108.5 Q206 64 254 41.5 Q302 19 360 19 Q434 19 483 45.5 Q532 72 571 115 L593 95 Z M437 871 L453 841 L288 759 L276 781 L437 871 Z " />
<glyph glyph-name="cacute" unicode="&#x107;" horiz-adv-x="502" d="M458 59 Q414 18 370 3 Q326 -12 277 -12 Q224 -12 183 8.5 Q142 29 113.5 66 Q85 103 70 154 Q55 205 55 266 Q55 333 72.5 383.5 Q90 434 120.5 468 Q151 502 191 518.5 Q231 535 276 535 Q359 535 407 487.5 Q455 440 462 360 L432 360 Q422 435 379 470.5 Q336 506 275 506 Q231 506 196.5 488.5 Q162 471 138 439.5 Q114 408 101 364 Q88 320 88 266 Q88 218 100 173 Q112 128 136 93.5 Q160 59 195.5 38 Q231 17 278 17 Q303 17 323.5 20.5 Q344 24 363 31.5 Q382 39 400.5 51 Q419 63 441 81 L458 59 Z M338 734 L362 708 L223 589 L206 608 L338 734 Z " />
<glyph glyph-name="Ccircumflex" unicode="&#x108;" horiz-adv-x="640" d="M593 95 Q550 44 494 16 Q438 -12 361 -12 Q282 -12 226 19 Q170 50 134 102 Q98 154 81.5 222 Q65 290 65 364 Q65 438 83 505 Q101 572 138 622.5 Q175 673 231.5 703 Q288 733 364 733 Q413 733 455.5 719 Q498 705 529 679 Q560 653 577.5 615.5 Q595 578 595 531 L563 531 Q563 562 551 593 Q539 624 514 648 Q489 672 451.5 687 Q414 702 362 702 Q299 702 250 677 Q201 652 168 607.5 Q135 563 118 501.5 Q101 440 101 367 Q101 283 119.5 218 Q138 153 172 108.5 Q206 64 254 41.5 Q302 19 360 19 Q434 19 483 45.5 Q532 72 571 115 L593 95 Z M462 777 L445 761 L359 832 L269 760 L253 777 L346 864 L370 864 L462 777 Z " />
<glyph glyph-name="ccircumflex" unicode="&#x109;" horiz-adv-x="502" d="M458 59 Q414 18 370 3 Q326 -12 277 -12 Q224 -12 183 8.5 Q142 29 113.5 66 Q85 103 70 154 Q55 205 55 266 Q55 333 72.5 383.5 Q90 434 120.5 468 Q151 502 191 518.5 Q231 535 276 535 Q359 535 407 487.5 Q455 440 462 360 L432 360 Q422 435 379 470.5 Q336 506 275 506 Q231 506 196.5 488.5 Q162 471 138 439.5 Q114 408 101 364 Q88 320 88 266 Q88 218 100 173 Q112 128 136 93.5 Q160 59 195.5 38 Q231 17 278 17 Q303 17 323.5 20.5 Q344 24 363 31.5 Q382 39 400.5 51 Q419 63 441 81 L458 59 Z M292 750 L396 600 L374 585 L277 714 L180 586 L158 600 L261 750 L292 750 Z " />
<glyph glyph-name="Cdotaccent" unicode="&#x10a;" horiz-adv-x="640" d="M593 95 Q550 44 494 16 Q438 -12 361 -12 Q282 -12 226 19 Q170 50 134 102 Q98 154 81.5 222 Q65 290 65 364 Q65 438 83 505 Q101 572 138 622.5 Q175 673 231.5 703 Q288 733 364 733 Q413 733 455.5 719 Q498 705 529 679 Q560 653 577.5 615.5 Q595 578 595 531 L563 531 Q563 562 551 593 Q539 624 514 648 Q489 672 451.5 687 Q414 702 362 702 Q299 702 250 677 Q201 652 168 607.5 Q135 563 118 501.5 Q101 440 101 367 Q101 283 119.5 218 Q138 153 172 108.5 Q206 64 254 41.5 Q302 19 360 19 Q434 19 483 45.5 Q532 72 571 115 L593 95 Z M329 818 Q329 830 337.5 838.5 Q346 847 359 847 Q371 847 379 838.5 Q387 830 387 818 Q387 806 379 797.5 Q371 789 359 789 Q346 789 337.5 797.5 Q329 806 329 818 Z " />
<glyph glyph-name="cdotaccent" unicode="&#x10b;" horiz-adv-x="502" d="M458 59 Q414 18 370 3 Q326 -12 277 -12 Q224 -12 183 8.5 Q142 29 113.5 66 Q85 103 70 154 Q55 205 55 266 Q55 333 72.5 383.5 Q90 434 120.5 468 Q151 502 191 518.5 Q231 535 276 535 Q359 535 407 487.5 Q455 440 462 360 L432 360 Q422 435 379 470.5 Q336 506 275 506 Q231 506 196.5 488.5 Q162 471 138 439.5 Q114 408 101 364 Q88 320 88 266 Q88 218 100 173 Q112 128 136 93.5 Q160 59 195.5 38 Q231 17 278 17 Q303 17 323.5 20.5 Q344 24 363 31.5 Q382 39 400.5 51 Q419 63 441 81 L458 59 Z M244 671 Q244 683 252.5 691.5 Q261 700 274 700 Q286 700 294 691.5 Q302 683 302 671 Q302 659 294 650.5 Q286 642 274 642 Q261 642 252.5 650.5 Q244 659 244 671 Z " />
<glyph glyph-name="Ccaron" unicode="&#x10c;" horiz-adv-x="640" d="M593 95 Q550 44 494 16 Q438 -12 361 -12 Q282 -12 226 19 Q170 50 134 102 Q98 154 81.5 222 Q65 290 65 364 Q65 438 83 505 Q101 572 138 622.5 Q175 673 231.5 703 Q288 733 364 733 Q413 733 455.5 719 Q498 705 529 679 Q560 653 577.5 615.5 Q595 578 595 531 L563 531 Q563 562 551 593 Q539 624 514 648 Q489 672 451.5 687 Q414 702 362 702 Q299 702 250 677 Q201 652 168 607.5 Q135 563 118 501.5 Q101 440 101 367 Q101 283 119.5 218 Q138 153 172 108.5 Q206 64 254 41.5 Q302 19 360 19 Q434 19 483 45.5 Q532 72 571 115 L593 95 Z M372 768 L348 768 L255 855 L272 872 L360 800 L447 871 L464 855 L372 768 Z " />
<glyph glyph-name="ccaron" unicode="&#x10d;" horiz-adv-x="502" d="M458 59 Q414 18 370 3 Q326 -12 277 -12 Q224 -12 183 8.5 Q142 29 113.5 66 Q85 103 70 154 Q55 205 55 266 Q55 333 72.5 383.5 Q90 434 120.5 468 Q151 502 191 518.5 Q231 535 276 535 Q359 535 407 487.5 Q455 440 462 360 L432 360 Q422 435 379 470.5 Q336 506 275 506 Q231 506 196.5 488.5 Q162 471 138 439.5 Q114 408 101 364 Q88 320 88 266 Q88 218 100 173 Q112 128 136 93.5 Q160 59 195.5 38 Q231 17 278 17 Q303 17 323.5 20.5 Q344 24 363 31.5 Q382 39 400.5 51 Q419 63 441 81 L458 59 Z M263 594 L160 744 L182 758 L279 630 L377 759 L398 744 L294 594 L263 594 Z " />
<glyph glyph-name="Dcaron" unicode="&#x10e;" horiz-adv-x="686" d="M129 689 L129 31 L276 31 Q358 31 417 52.5 Q476 74 513 116 Q550 158 567.5 219 Q585 280 585 359 Q585 438 567.5 499.5 Q550 561 513 603 Q476 645 417 667 Q358 689 276 689 L129 689 Z M270 720 Q354 720 419.5 700 Q485 680 529.5 637 Q574 594 597.5 525 Q621 456 621 359 Q621 261 597.5 193 Q574 125 529 82 Q484 39 417.5 19.5 Q351 0 265 0 L95 0 L95 720 L270 720 Z M315 768 L291 768 L198 855 L215 872 L303 800 L390 871 L407 855 L315 768 Z " />
<glyph glyph-name="dcaron" unicode="&#x10f;" horiz-adv-x="616" d="M448 78 Q439 67 423.5 52 Q408 37 385.5 22.5 Q363 8 333.5 -2 Q304 -12 268 -12 Q212 -12 172 8.5 Q132 29 106 65 Q80 101 67.5 151 Q55 201 55 260 Q55 319 68 369.5 Q81 420 107 456.5 Q133 493 173.5 514 Q214 535 268 535 Q301 535 327.5 526 Q354 517 376 502.5 Q398 488 415 469.5 Q432 451 447 432 L447 720 L478 720 L478 0 L447 0 L448 78 Z M447 387 Q436 402 419.5 422.5 Q403 443 380.5 461.5 Q358 480 329 493 Q300 506 265 506 Q226 506 193.5 489.5 Q161 473 137.5 441.5 Q114 410 101 364.5 Q88 319 88 260 Q88 217 97 173.5 Q106 130 127.5 95.5 Q149 61 184 39 Q219 17 271 17 Q304 17 331.5 27.5 Q359 38 381 54 Q403 70 419.5 87.5 Q436 105 447 119 L447 387 Z M574 720 L615 720 L565 544 L535 544 L574 720 Z " />
<glyph glyph-name="Dcroat" unicode="&#x110;" horiz-adv-x="696" d="M25 382 L105 382 L105 720 L268 720 Q354 720 421.5 700 Q489 680 535.5 637 Q582 594 606.5 525 Q631 456 631 359 Q631 261 606.5 193 Q582 125 535.5 82 Q489 39 421.5 19.5 Q354 0 268 0 L105 0 L105 354 L25 354 L25 382 Z M139 689 L139 382 L291 382 L291 354 L139 354 L139 31 L286 31 Q368 31 427 52.5 Q486 74 523 116 Q560 158 577.5 219 Q595 280 595 359 Q595 438 577.5 499.5 Q560 561 523 603 Q486 645 427 667 Q368 689 286 689 L139 689 Z " />
<glyph glyph-name="dcroat" unicode="&#x111;" horiz-adv-x="558" d="M264 631 L447 631 L447 720 L478 720 L478 631 L550 631 L550 603 L478 603 L478 0 L447 0 L448 78 Q439 67 423.5 52 Q408 37 385.5 22.5 Q363 8 333.5 -2 Q304 -12 268 -12 Q212 -12 172 7 Q132 26 106 60.5 Q80 95 67.5 143 Q55 191 55 250 Q55 306 68 353 Q81 400 107 433.5 Q133 467 173.5 486 Q214 505 268 505 Q301 505 327.5 496 Q354 487 376 472.5 Q398 458 415 439.5 Q432 421 447 402 L447 603 L264 603 L264 631 Z M447 357 Q436 372 419.5 392.5 Q403 413 380.5 431.5 Q358 450 329 463 Q300 476 265 476 Q187 476 137.5 419 Q88 362 88 250 Q88 207 97 165 Q106 123 127.5 90 Q149 57 184 37 Q219 17 271 17 Q304 17 331.5 27.5 Q359 38 381 54 Q403 70 419.5 87.5 Q436 105 447 119 L447 357 Z " />
<glyph glyph-name="Emacron" unicode="&#x112;" horiz-adv-x="593" d="M95 720 L523 720 L523 690 L129 690 L129 389 L489 389 L489 360 L129 360 L129 29 L533 29 L533 0 L95 0 L95 720 Z M181 824 L447 824 L447 796 L181 796 L181 824 Z " />
<glyph glyph-name="emacron" unicode="&#x113;" horiz-adv-x="517" d="M460 60 Q418 18 373.5 3 Q329 -12 281 -12 Q230 -12 188.5 4 Q147 20 117.5 53 Q88 86 71.5 137.5 Q55 189 55 260 Q55 322 70.5 373 Q86 424 115.5 460 Q145 496 186 515.5 Q227 535 278 535 Q373 535 420 471.5 Q467 408 467 274 L467 258 L88 258 Q88 203 99.5 158.5 Q111 114 135 82.5 Q159 51 195.5 34 Q232 17 282 17 Q330 17 367.5 31.5 Q405 46 441 81 L460 60 Z M434 287 Q434 334 426 374 Q418 414 400 443.5 Q382 473 352 489.5 Q322 506 278 506 Q220 506 183.5 481 Q147 456 126 420.5 Q105 385 97 348 Q89 311 89 287 L434 287 Z M146 662 L412 662 L412 634 L146 634 L146 662 Z " />
<glyph glyph-name="Ebreve" unicode="&#x114;" horiz-adv-x="593" d="M95 720 L523 720 L523 690 L129 690 L129 389 L489 389 L489 360 L129 360 L129 29 L533 29 L533 0 L95 0 L95 720 Z M314 800 Q342 800 361.5 805.5 Q381 811 393.5 822 Q406 833 413 850 Q420 867 423 890 L450 885 Q444 825 410.5 798.5 Q377 772 314 772 Q283 772 260.5 777.5 Q238 783 222 795.5 Q206 808 195.5 829.5 Q185 851 179 883 L208 890 Q217 843 238.5 821.5 Q260 800 314 800 Z " />
<glyph glyph-name="ebreve" unicode="&#x115;" horiz-adv-x="517" d="M460 60 Q418 18 373.5 3 Q329 -12 281 -12 Q230 -12 188.5 4 Q147 20 117.5 53 Q88 86 71.5 137.5 Q55 189 55 260 Q55 322 70.5 373 Q86 424 115.5 460 Q145 496 186 515.5 Q227 535 278 535 Q373 535 420 471.5 Q467 408 467 274 L467 258 L88 258 Q88 203 99.5 158.5 Q111 114 135 82.5 Q159 51 195.5 34 Q232 17 282 17 Q330 17 367.5 31.5 Q405 46 441 81 L460 60 Z M434 287 Q434 334 426 374 Q418 414 400 443.5 Q382 473 352 489.5 Q322 506 278 506 Q220 506 183.5 481 Q147 456 126 420.5 Q105 385 97 348 Q89 311 89 287 L434 287 Z M280 626 Q336 626 358.5 651 Q381 676 387 725 L414 720 Q409 657 376 627.5 Q343 598 280 598 Q218 598 186.5 625.5 Q155 653 145 719 L172 726 Q180 675 203.5 650.5 Q227 626 280 626 Z " />
<glyph glyph-name="Edotaccent" unicode="&#x116;" horiz-adv-x="593" d="M95 720 L523 720 L523 690 L129 690 L129 389 L489 389 L489 360 L129 360 L129 29 L533 29 L533 0 L95 0 L95 720 Z M285 818 Q285 830 293.5 838.5 Q302 847 315 847 Q327 847 335 838.5 Q343 830 343 818 Q343 806 335 797.5 Q327 789 315 789 Q302 789 293.5 797.5 Q285 806 285 818 Z " />
<glyph glyph-name="edotaccent" unicode="&#x117;" horiz-adv-x="517" d="M460 60 Q418 18 373.5 3 Q329 -12 281 -12 Q230 -12 188.5 4 Q147 20 117.5 53 Q88 86 71.5 137.5 Q55 189 55 260 Q55 322 70.5 373 Q86 424 115.5 460 Q145 496 186 515.5 Q227 535 278 535 Q373 535 420 471.5 Q467 408 467 274 L467 258 L88 258 Q88 203 99.5 158.5 Q111 114 135 82.5 Q159 51 195.5 34 Q232 17 282 17 Q330 17 367.5 31.5 Q405 46 441 81 L460 60 Z M434 287 Q434 334 426 374 Q418 414 400 443.5 Q382 473 352 489.5 Q322 506 278 506 Q220 506 183.5 481 Q147 456 126 420.5 Q105 385 97 348 Q89 311 89 287 L434 287 Z M251 671 Q251 683 259.5 691.5 Q268 700 281 700 Q293 700 301 691.5 Q309 683 309 671 Q309 659 301 650.5 Q293 642 281 642 Q268 642 259.5 650.5 Q251 659 251 671 Z " />
<glyph glyph-name="Eogonek" unicode="&#x118;" horiz-adv-x="593" d="M85 720 L513 720 L513 690 L119 690 L119 389 L479 389 L479 360 L119 360 L119 29 L523 29 L523 0 L492 0 Q454 -32 426 -67.5 Q398 -103 398 -140 Q398 -163 411 -174 Q424 -185 447 -185 Q464 -185 480 -178.5 Q496 -172 511 -163 L524 -186 Q510 -197 488.5 -205 Q467 -213 443 -213 Q407 -213 386 -195 Q365 -177 365 -144 Q365 -102 391.5 -66 Q418 -30 452 0 L85 0 L85 720 Z " />
<glyph glyph-name="eogonek" unicode="&#x119;" horiz-adv-x="517" d="M460 60 Q442 42 423 29.5 Q404 17 386 5 Q365 -9 347 -26 Q329 -43 315 -62.5 Q301 -82 293 -102 Q285 -122 285 -140 Q285 -163 298 -174 Q311 -185 334 -185 Q351 -185 367 -178.5 Q383 -172 398 -163 L411 -186 Q397 -197 375.5 -205 Q354 -213 330 -213 Q294 -213 273 -195 Q252 -177 252 -144 Q252 -106 275 -71.5 Q298 -37 330 -8 Q318 -10 305.5 -11 Q293 -12 281 -12 Q230 -12 188.5 4 Q147 20 117.5 53 Q88 86 71.5 137.5 Q55 189 55 260 Q55 322 70.5 373 Q86 424 115.5 460 Q145 496 186 515.5 Q227 535 278 535 Q373 535 420 471.5 Q467 408 467 274 L467 258 L88 258 Q88 203 99.5 158.5 Q111 114 135 82.5 Q159 51 195.5 34 Q232 17 282 17 Q330 17 367.5 31.5 Q405 46 441 81 L460 60 Z M434 287 Q434 334 426 374 Q418 414 400 443.5 Q382 473 352 489.5 Q322 506 278 506 Q220 506 183.5 481 Q147 456 126 420.5 Q105 385 97 348 Q89 311 89 287 L434 287 Z " />
<glyph glyph-name="Ecaron" unicode="&#x11a;" horiz-adv-x="593" d="M95 720 L523 720 L523 690 L129 690 L129 389 L489 389 L489 360 L129 360 L129 29 L533 29 L533 0 L95 0 L95 720 Z M326 768 L302 768 L209 855 L226 872 L314 800 L401 871 L418 855 L326 768 Z " />
<glyph glyph-name="ecaron" unicode="&#x11b;" horiz-adv-x="517" d="M460 60 Q418 18 373.5 3 Q329 -12 281 -12 Q230 -12 188.5 4 Q147 20 117.5 53 Q88 86 71.5 137.5 Q55 189 55 260 Q55 322 70.5 373 Q86 424 115.5 460 Q145 496 186 515.5 Q227 535 278 535 Q373 535 420 471.5 Q467 408 467 274 L467 258 L88 258 Q88 203 99.5 158.5 Q111 114 135 82.5 Q159 51 195.5 34 Q232 17 282 17 Q330 17 367.5 31.5 Q405 46 441 81 L460 60 Z M434 287 Q434 334 426 374 Q418 414 400 443.5 Q382 473 352 489.5 Q322 506 278 506 Q220 506 183.5 481 Q147 456 126 420.5 Q105 385 97 348 Q89 311 89 287 L434 287 Z M260 594 L157 744 L179 758 L276 630 L374 759 L395 744 L291 594 L260 594 Z " />
<glyph glyph-name="Gcircumflex" unicode="&#x11c;" horiz-adv-x="712" d="M428 349 L637 349 L637 103 Q607 66 573 43.5 Q539 21 506 8.5 Q473 -4 442.5 -8 Q412 -12 390 -12 Q304 -12 242.5 16.5 Q181 45 141.5 96 Q102 147 83.5 216.5 Q65 286 65 367 Q65 449 86 516.5 Q107 584 147.5 632 Q188 680 247 706 Q306 732 383 732 Q455 732 503 715 Q551 698 580 670.5 Q609 643 621 608.5 Q633 574 633 539 L599 539 Q599 572 586.5 601.5 Q574 631 547 652.5 Q520 674 478 687 Q436 700 377 700 Q307 700 255 673 Q203 646 169 600 Q135 554 118 494 Q101 434 101 367 Q101 199 175 109 Q249 19 385 19 Q455 19 507.5 42.5 Q560 66 607 115 L607 319 L428 319 L428 349 Z M484 777 L467 761 L381 832 L291 760 L275 777 L368 864 L392 864 L484 777 Z " />
<glyph glyph-name="gcircumflex" unicode="&#x11d;" horiz-adv-x="568" d="M478 -1 Q478 -63 465.5 -103 Q453 -143 427.5 -167 Q402 -191 363.5 -200.5 Q325 -210 274 -210 Q226 -210 179.5 -201 Q133 -192 100 -178 L112 -150 Q142 -164 185 -173 Q228 -182 275 -182 Q329 -182 363 -169 Q397 -156 416 -131.5 Q435 -107 441.5 -70.5 Q448 -34 448 13 L448 78 Q434 61 416 45 Q398 29 375 16 Q352 3 324.5 -4.5 Q297 -12 264 -12 Q206 -12 166 11 Q126 34 101.5 72 Q77 110 66 159.5 Q55 209 55 263 Q55 317 67 366 Q79 415 105 452.5 Q131 490 172 512.5 Q213 535 271 535 Q305 535 333 524 Q361 513 383 497.5 Q405 482 421 464 Q437 446 447 431 L447 523 L478 523 L478 -1 Z M447 384 Q437 400 420 421.5 Q403 443 380.5 461.5 Q358 480 330 493 Q302 506 271 506 Q225 506 191 488 Q157 470 134 438 Q111 406 99.5 361.5 Q88 317 88 263 Q88 209 99 164 Q110 119 132.5 86.5 Q155 54 188.5 35.5 Q222 17 268 17 Q303 17 330.5 27.5 Q358 38 380 54 Q402 70 418.5 87.5 Q435 105 447 119 L447 384 Z M295 750 L399 600 L377 585 L280 714 L183 586 L161 600 L264 750 L295 750 Z " />
<glyph glyph-name="Gbreve" unicode="&#x11e;" horiz-adv-x="712" d="M428 349 L637 349 L637 103 Q607 66 573 43.5 Q539 21 506 8.5 Q473 -4 442.5 -8 Q412 -12 390 -12 Q304 -12 242.5 16.5 Q181 45 141.5 96 Q102 147 83.5 216.5 Q65 286 65 367 Q65 449 86 516.5 Q107 584 147.5 632 Q188 680 247 706 Q306 732 383 732 Q455 732 503 715 Q551 698 580 670.5 Q609 643 621 608.5 Q633 574 633 539 L599 539 Q599 572 586.5 601.5 Q574 631 547 652.5 Q520 674 478 687 Q436 700 377 700 Q307 700 255 673 Q203 646 169 600 Q135 554 118 494 Q101 434 101 367 Q101 199 175 109 Q249 19 385 19 Q455 19 507.5 42.5 Q560 66 607 115 L607 319 L428 319 L428 349 Z M382 800 Q410 800 429.5 805.5 Q449 811 461.5 822 Q474 833 481 850 Q488 867 491 890 L518 885 Q512 825 478.5 798.5 Q445 772 382 772 Q351 772 328.5 777.5 Q306 783 290 795.5 Q274 808 263.5 829.5 Q253 851 247 883 L276 890 Q285 843 306.5 821.5 Q328 800 382 800 Z " />
<glyph glyph-name="gbreve" unicode="&#x11f;" horiz-adv-x="568" d="M478 -1 Q478 -63 465.5 -103 Q453 -143 427.5 -167 Q402 -191 363.5 -200.5 Q325 -210 274 -210 Q226 -210 179.5 -201 Q133 -192 100 -178 L112 -150 Q142 -164 185 -173 Q228 -182 275 -182 Q329 -182 363 -169 Q397 -156 416 -131.5 Q435 -107 441.5 -70.5 Q448 -34 448 13 L448 78 Q434 61 416 45 Q398 29 375 16 Q352 3 324.5 -4.5 Q297 -12 264 -12 Q206 -12 166 11 Q126 34 101.5 72 Q77 110 66 159.5 Q55 209 55 263 Q55 317 67 366 Q79 415 105 452.5 Q131 490 172 512.5 Q213 535 271 535 Q305 535 333 524 Q361 513 383 497.5 Q405 482 421 464 Q437 446 447 431 L447 523 L478 523 L478 -1 Z M447 384 Q437 400 420 421.5 Q403 443 380.5 461.5 Q358 480 330 493 Q302 506 271 506 Q225 506 191 488 Q157 470 134 438 Q111 406 99.5 361.5 Q88 317 88 263 Q88 209 99 164 Q110 119 132.5 86.5 Q155 54 188.5 35.5 Q222 17 268 17 Q303 17 330.5 27.5 Q358 38 380 54 Q402 70 418.5 87.5 Q435 105 447 119 L447 384 Z M277 626 Q333 626 355.5 651 Q378 676 384 725 L411 720 Q406 657 373 627.5 Q340 598 277 598 Q215 598 183.5 625.5 Q152 653 142 719 L169 726 Q177 675 200.5 650.5 Q224 626 277 626 Z " />
<glyph glyph-name="Gdotaccent" unicode="&#x120;" horiz-adv-x="712" d="M428 349 L637 349 L637 103 Q607 66 573 43.5 Q539 21 506 8.5 Q473 -4 442.5 -8 Q412 -12 390 -12 Q304 -12 242.5 16.5 Q181 45 141.5 96 Q102 147 83.5 216.5 Q65 286 65 367 Q65 449 86 516.5 Q107 584 147.5 632 Q188 680 247 706 Q306 732 383 732 Q455 732 503 715 Q551 698 580 670.5 Q609 643 621 608.5 Q633 574 633 539 L599 539 Q599 572 586.5 601.5 Q574 631 547 652.5 Q520 674 478 687 Q436 700 377 700 Q307 700 255 673 Q203 646 169 600 Q135 554 118 494 Q101 434 101 367 Q101 199 175 109 Q249 19 385 19 Q455 19 507.5 42.5 Q560 66 607 115 L607 319 L428 319 L428 349 Z M357 818 Q357 830 365.5 838.5 Q374 847 387 847 Q399 847 407 838.5 Q415 830 415 818 Q415 806 407 797.5 Q399 789 387 789 Q374 789 365.5 797.5 Q357 806 357 818 Z " />
<glyph glyph-name="gdotaccent" unicode="&#x121;" horiz-adv-x="568" d="M478 -1 Q478 -63 465.5 -103 Q453 -143 427.5 -167 Q402 -191 363.5 -200.5 Q325 -210 274 -210 Q226 -210 179.5 -201 Q133 -192 100 -178 L112 -150 Q142 -164 185 -173 Q228 -182 275 -182 Q329 -182 363 -169 Q397 -156 416 -131.5 Q435 -107 441.5 -70.5 Q448 -34 448 13 L448 78 Q434 61 416 45 Q398 29 375 16 Q352 3 324.5 -4.5 Q297 -12 264 -12 Q206 -12 166 11 Q126 34 101.5 72 Q77 110 66 159.5 Q55 209 55 263 Q55 317 67 366 Q79 415 105 452.5 Q131 490 172 512.5 Q213 535 271 535 Q305 535 333 524 Q361 513 383 497.5 Q405 482 421 464 Q437 446 447 431 L447 523 L478 523 L478 -1 Z M447 384 Q437 400 420 421.5 Q403 443 380.5 461.5 Q358 480 330 493 Q302 506 271 506 Q225 506 191 488 Q157 470 134 438 Q111 406 99.5 361.5 Q88 317 88 263 Q88 209 99 164 Q110 119 132.5 86.5 Q155 54 188.5 35.5 Q222 17 268 17 Q303 17 330.5 27.5 Q358 38 380 54 Q402 70 418.5 87.5 Q435 105 447 119 L447 384 Z M249 671 Q249 683 257.5 691.5 Q266 700 279 700 Q291 700 299 691.5 Q307 683 307 671 Q307 659 299 650.5 Q291 642 279 642 Q266 642 257.5 650.5 Q249 659 249 671 Z " />
<glyph glyph-name="Gcommaaccent" unicode="&#x122;" horiz-adv-x="677" d="M428 349 L637 349 L637 103 Q607 66 573 43.5 Q539 21 506 8.5 Q473 -4 442.5 -8 Q412 -12 390 -12 Q304 -12 242.5 16.5 Q181 45 141.5 96 Q102 147 83.5 216.5 Q65 286 65 367 Q65 449 86 516.5 Q107 584 147.5 632 Q188 680 247 706 Q306 732 383 732 Q455 732 503 715 Q551 698 580 670.5 Q609 643 621 608.5 Q633 574 633 539 L599 539 Q599 572 586.5 601.5 Q574 631 547 652.5 Q520 674 478 687 Q436 700 377 700 Q307 700 255 673 Q203 646 169 600 Q135 554 118 494 Q101 434 101 367 Q101 199 175 109 Q249 19 385 19 Q455 19 507.5 42.5 Q560 66 607 115 L607 319 L428 319 L428 349 Z M365 -60 L404 -68 L350 -218 L324 -210 L365 -60 Z " />
<glyph glyph-name="gcommaaccent" unicode="&#x123;" horiz-adv-x="568" d="M478 -1 Q478 -63 465.5 -103 Q453 -143 427.5 -167 Q402 -191 363.5 -200.5 Q325 -210 274 -210 Q226 -210 179.5 -201 Q133 -192 100 -178 L112 -150 Q142 -164 185 -173 Q228 -182 275 -182 Q329 -182 363 -169 Q397 -156 416 -131.5 Q435 -107 441.5 -70.5 Q448 -34 448 13 L448 78 Q434 61 416 45 Q398 29 375 16 Q352 3 324.5 -4.5 Q297 -12 264 -12 Q206 -12 166 11 Q126 34 101.5 72 Q77 110 66 159.5 Q55 209 55 263 Q55 317 67 366 Q79 415 105 452.5 Q131 490 172 512.5 Q213 535 271 535 Q305 535 333 524 Q361 513 383 497.5 Q405 482 421 464 Q437 446 447 431 L447 523 L478 523 L478 -1 Z M447 384 Q437 400 420 421.5 Q403 443 380.5 461.5 Q358 480 330 493 Q302 506 271 506 Q225 506 191 488 Q157 470 134 438 Q111 406 99.5 361.5 Q88 317 88 263 Q88 209 99 164 Q110 119 132.5 86.5 Q155 54 188.5 35.5 Q222 17 268 17 Q303 17 330.5 27.5 Q358 38 380 54 Q402 70 418.5 87.5 Q435 105 447 119 L447 384 Z M292 592 L254 603 L308 753 L335 746 L292 592 Z " />
<glyph glyph-name="Hcircumflex" unicode="&#x124;" horiz-adv-x="689" d="M95 720 L129 720 L129 399 L560 399 L560 720 L594 720 L594 0 L560 0 L560 369 L129 369 L129 0 L95 0 L95 720 Z M449 777 L432 761 L346 832 L256 760 L240 777 L333 864 L357 864 L449 777 Z " />
<glyph glyph-name="hcircumflex" unicode="&#x125;" horiz-adv-x="523" d="M111 720 L111 432 Q127 453 146.5 471.5 Q166 490 188.5 504 Q211 518 237 526.5 Q263 535 292 535 Q336 535 366 520.5 Q396 506 414 479.5 Q432 453 440 415 Q448 377 448 330 L448 0 L416 0 L416 330 Q416 361 412.5 392 Q409 423 395.5 448.5 Q382 474 356 490 Q330 506 286 506 Q257 506 232 496 Q207 486 185.5 470.5 Q164 455 145.5 434.5 Q127 414 111 393 L111 0 L80 0 L80 720 L111 720 Z M197 748 L180 732 L94 803 L4 731 L-12 748 L81 835 L105 835 L197 748 Z " />
<glyph glyph-name="Hbar" unicode="&#x126;" horiz-adv-x="699" d="M36 593 L100 593 L100 720 L134 720 L134 593 L565 593 L565 720 L599 720 L599 593 L662 593 L662 565 L599 565 L599 0 L565 0 L565 369 L134 369 L134 0 L100 0 L100 565 L36 565 L36 593 Z M565 399 L565 565 L134 565 L134 399 L565 399 Z " />
<glyph glyph-name="hbar" unicode="&#x127;" horiz-adv-x="523" d="M111 720 L111 631 L294 631 L294 603 L111 603 L111 392 Q127 413 146.5 431.5 Q166 450 188.5 464 Q211 478 237 486.5 Q263 495 292 495 Q336 495 366 480.5 Q396 466 414 439.5 Q432 413 440 375 Q448 337 448 290 L448 0 L416 0 L416 290 Q416 321 412.5 352 Q409 383 395.5 408.5 Q382 434 356 450 Q330 466 286 466 Q257 466 232 456 Q207 446 185.5 430.5 Q164 415 145.5 394.5 Q127 374 111 353 L111 0 L80 0 L80 603 L8 603 L8 631 L80 631 L80 720 L111 720 Z " />
<glyph glyph-name="Itilde" unicode="&#x128;" horiz-adv-x="224" d="M95 720 L129 720 L129 0 L95 0 L95 720 Z M241 840 Q230 808 212 797.5 Q194 787 174 787 Q157 787 140 792.5 Q123 798 107 804.5 Q91 811 77.5 816.5 Q64 822 53 822 Q41 822 31.5 815 Q22 808 8 785 L-15 796 Q0 828 17.5 839 Q35 850 55 850 Q70 850 85 844.5 Q100 839 114.5 832.5 Q129 826 144 820.5 Q159 815 174 815 Q189 815 199 822 Q209 829 219 850 L241 840 Z " />
<glyph glyph-name="itilde" unicode="&#x129;" horiz-adv-x="219" d="M125 0 L94 0 L94 523 L125 523 L125 0 Z M239 671 Q228 639 210 628.5 Q192 618 172 618 Q155 618 138 623.5 Q121 629 105 635.5 Q89 642 75.5 647.5 Q62 653 51 653 Q39 653 29.5 646 Q20 639 6 616 L-17 627 Q-2 659 15.5 670 Q33 681 53 681 Q68 681 83 675.5 Q98 670 112.5 663.5 Q127 657 142 651.5 Q157 646 172 646 Q187 646 197 653 Q207 660 217 681 L239 671 Z " />
<glyph glyph-name="Imacron" unicode="&#x12a;" horiz-adv-x="224" d="M95 720 L129 720 L129 0 L95 0 L95 720 Z M-20 824 L246 824 L246 796 L-20 796 L-20 824 Z " />
<glyph glyph-name="imacron" unicode="&#x12b;" horiz-adv-x="219" d="M125 0 L94 0 L94 523 L125 523 L125 0 Z M-23 662 L243 662 L243 634 L-23 634 L-23 662 Z " />
<glyph glyph-name="Ibreve" unicode="&#x12c;" horiz-adv-x="224" d="M95 720 L129 720 L129 0 L95 0 L95 720 Z M113 800 Q141 800 160.5 805.5 Q180 811 192.5 822 Q205 833 212 850 Q219 867 222 890 L249 885 Q243 825 209.5 798.5 Q176 772 113 772 Q82 772 59.5 777.5 Q37 783 21 795.5 Q5 808 -5.5 829.5 Q-16 851 -22 883 L7 890 Q16 843 37.5 821.5 Q59 800 113 800 Z " />
<glyph glyph-name="ibreve" unicode="&#x12d;" horiz-adv-x="219" d="M125 0 L94 0 L94 523 L125 523 L125 0 Z M110 626 Q166 626 188.5 651 Q211 676 217 725 L244 720 Q239 657 206 627.5 Q173 598 110 598 Q48 598 16.5 625.5 Q-15 653 -25 719 L2 726 Q10 675 33.5 650.5 Q57 626 110 626 Z " />
<glyph glyph-name="Iogonek" unicode="&#x12e;" horiz-adv-x="224" d="M129 0 Q91 -32 63 -67.5 Q35 -103 35 -140 Q35 -163 48 -174 Q61 -185 84 -185 Q101 -185 117 -178.5 Q133 -172 148 -163 L161 -186 Q147 -197 125.5 -205 Q104 -213 80 -213 Q44 -213 23 -195 Q2 -177 2 -144 Q2 -101 30.5 -63.5 Q59 -26 95 5 L95 720 L129 720 L129 0 Z " />
<glyph glyph-name="iogonek" unicode="&#x12f;" horiz-adv-x="208" d="M125 0 Q87 -32 59 -67.5 Q31 -103 31 -140 Q31 -163 44 -174 Q57 -185 80 -185 Q97 -185 113 -178.5 Q129 -172 144 -163 L157 -186 Q143 -197 121.5 -205 Q100 -213 76 -213 Q40 -213 19 -195 Q-2 -177 -2 -144 Q-2 -122 6 -101.5 Q14 -81 27.5 -62 Q41 -43 58.5 -25.5 Q76 -8 94 7 L94 523 L125 523 L125 0 Z M80 671 Q80 683 88.5 691.5 Q97 700 110 700 Q122 700 130 691.5 Q138 683 138 671 Q138 659 130 650.5 Q122 642 110 642 Q97 642 88.5 650.5 Q80 659 80 671 Z " />
<glyph glyph-name="Idotaccent" unicode="&#x130;" horiz-adv-x="224" d="M95 720 L129 720 L129 0 L95 0 L95 720 Z M84 818 Q84 830 92.5 838.5 Q101 847 114 847 Q126 847 134 838.5 Q142 830 142 818 Q142 806 134 797.5 Q126 789 114 789 Q101 789 92.5 797.5 Q84 806 84 818 Z " />
<glyph glyph-name="dotlessi" unicode="&#x131;" horiz-adv-x="219" d="M125 0 L94 0 L94 523 L125 523 L125 0 Z " />
<glyph glyph-name="IJ" unicode="&#x132;" horiz-adv-x="620" d="M95 720 L129 720 L129 0 L95 0 L95 720 Z M530 141 Q530 62 498.5 25 Q467 -12 393 -12 Q365 -12 328 -5 Q291 2 261 17 L274 44 Q333 18 390 18 Q447 18 471.5 46.5 Q496 75 496 153 L496 720 L530 720 L530 141 Z " />
<glyph glyph-name="ij" unicode="&#x133;" horiz-adv-x="443" d="M80 671 Q80 683 88.5 691.5 Q97 700 110 700 Q122 700 130 691.5 Q138 683 138 671 Q138 659 130 650.5 Q122 642 110 642 Q97 642 88.5 650.5 Q80 659 80 671 Z M125 0 L94 0 L94 523 L125 523 L125 0 Z M349 -91 Q349 -117 345.5 -137.5 Q342 -158 332.5 -172.5 Q323 -187 305.5 -195 Q288 -203 260 -203 Q246 -203 231.5 -201 Q217 -199 203 -194 L209 -169 Q218 -172 231 -174 Q244 -176 257 -176 Q271 -176 282.5 -172.5 Q294 -169 302 -160 Q310 -151 314 -134.5 Q318 -118 318 -92 L318 523 L349 523 L349 -91 Z M305 671 Q305 683 313.5 691.5 Q322 700 335 700 Q347 700 355 691.5 Q363 683 363 671 Q363 659 355 650.5 Q347 642 335 642 Q322 642 313.5 650.5 Q305 659 305 671 Z " />
<glyph glyph-name="Jcircumflex" unicode="&#x134;" horiz-adv-x="379" d="M289 141 Q289 62 257.5 25 Q226 -12 152 -12 Q124 -12 87 -5 Q50 2 20 17 L33 44 Q92 18 149 18 Q206 18 230.5 46.5 Q255 75 255 153 L255 720 L289 720 L289 141 Z M375 777 L358 761 L272 832 L182 760 L166 777 L259 864 L283 864 L375 777 Z " />
<glyph glyph-name="jcircumflex" unicode="&#x135;" horiz-adv-x="220" d="M126 -91 Q126 -117 122.5 -137.5 Q119 -158 109.5 -172.5 Q100 -187 82.5 -195 Q65 -203 37 -203 Q23 -203 8.5 -201 Q-6 -199 -20 -194 L-14 -169 Q-5 -172 8 -174 Q21 -176 34 -176 Q48 -176 59.5 -172.5 Q71 -169 79 -160 Q87 -151 91 -134.5 Q95 -118 95 -92 L95 523 L126 523 L126 -91 Z M130 750 L234 600 L212 585 L115 714 L18 586 L-4 600 L99 750 L130 750 Z " />
<glyph glyph-name="Kcommaaccent" unicode="&#x136;" horiz-adv-x="608" d="M95 720 L129 720 L129 392 L295 392 L496 720 L535 720 L326 380 L578 0 L539 0 L296 362 L129 362 L129 0 L95 0 L95 720 Z M293 -60 L332 -68 L278 -218 L252 -210 L293 -60 Z " />
<glyph glyph-name="kcommaaccent" unicode="&#x137;" horiz-adv-x="474" d="M111 307 L195 307 L381 523 L424 523 L224 292 L450 0 L409 0 L193 278 L111 278 L111 0 L80 0 L80 720 L111 720 L111 307 Z M226 -60 L265 -68 L211 -218 L185 -210 L226 -60 Z " />
<glyph glyph-name="kgreenlandic" unicode="&#x138;" horiz-adv-x="474" d="M106 305 L175 305 L376 523 L419 523 L205 292 L445 0 L403 0 L174 278 L106 278 L106 0 L75 0 L75 523 L106 523 L106 305 Z " />
<glyph glyph-name="Lacute" unicode="&#x139;" horiz-adv-x="511" d="M129 720 L129 31 L481 31 L481 0 L95 0 L95 720 L129 720 Z M204 871 L220 841 L55 759 L43 781 L204 871 Z " />
<glyph glyph-name="lacute" unicode="&#x13a;" horiz-adv-x="191" d="M80 0 L80 720 L111 720 L111 0 L80 0 Z M175 871 L191 841 L26 759 L14 781 L175 871 Z " />
<glyph glyph-name="Lcommaaccent" unicode="&#x13b;" horiz-adv-x="511" d="M129 720 L129 31 L481 31 L481 0 L95 0 L95 720 L129 720 Z M259 -60 L298 -68 L244 -218 L218 -210 L259 -60 Z " />
<glyph glyph-name="lcommaaccent" unicode="&#x13c;" horiz-adv-x="191" d="M80 0 L80 720 L111 720 L111 0 L80 0 Z M71 -60 L110 -68 L56 -218 L30 -210 L71 -60 Z " />
<glyph glyph-name="Lcaron" unicode="&#x13d;" horiz-adv-x="511" d="M129 720 L129 31 L481 31 L481 0 L95 0 L95 720 L129 720 Z M289 720 L330 720 L280 544 L250 544 L289 720 Z " />
<glyph glyph-name="lcaron" unicode="&#x13e;" horiz-adv-x="249" d="M80 0 L80 720 L111 720 L111 0 L80 0 Z M208 720 L249 720 L199 544 L169 544 L208 720 Z " />
<glyph glyph-name="Ldot" unicode="&#x13f;" horiz-adv-x="511" d="M129 720 L129 31 L481 31 L481 0 L95 0 L95 720 L129 720 Z M334 367 Q334 385 345 394.5 Q356 404 370 404 Q385 404 396 395 Q407 386 407 367 Q407 352 396 341.5 Q385 331 370 331 Q355 331 344.5 340.5 Q334 350 334 367 Z " />
<glyph glyph-name="ldot" unicode="&#x140;" horiz-adv-x="263" d="M80 0 L80 720 L111 720 L111 0 L80 0 Z M188 357 Q188 375 199 384.5 Q210 394 224 394 Q239 394 250 385 Q261 376 261 357 Q261 342 250 331.5 Q239 321 224 321 Q209 321 198.5 330.5 Q188 340 188 357 Z " />
<glyph glyph-name="Lslash" unicode="&#x141;" horiz-adv-x="511" d="M129 720 L129 356 L233 398 L366 451 L366 420 L235 368 L129 325 L129 31 L481 31 L481 0 L95 0 L95 312 L62 299 L5 276 L5 307 L63 330 L95 343 L95 720 L129 720 Z " />
<glyph glyph-name="lslash" unicode="&#x142;" horiz-adv-x="211" d="M90 0 L90 349 L2 309 L2 338 L53 361 L90 378 L90 720 L121 720 L121 392 L151 406 L207 432 L207 403 L158 380 L121 363 L121 0 L90 0 Z " />
<glyph glyph-name="Nacute" unicode="&#x143;" horiz-adv-x="693" d="M95 720 L131 720 L564 61 L564 720 L598 720 L598 0 L564 0 L129 662 L129 0 L95 0 L95 720 Z M448 871 L464 841 L299 759 L287 781 L448 871 Z " />
<glyph glyph-name="nacute" unicode="&#x144;" horiz-adv-x="523" d="M111 523 L111 432 Q146 477 190 506 Q234 535 288 535 Q337 535 368 519 Q399 503 417 475 Q435 447 441.5 409 Q448 371 448 328 L448 0 L416 0 L416 335 Q416 420 386.5 463 Q357 506 287 506 Q255 506 227.5 493.5 Q200 481 178 463.5 Q156 446 139 426.5 Q122 407 111 393 L111 0 L80 0 L80 523 L111 523 Z M343 734 L367 708 L228 589 L211 608 L343 734 Z " />
<glyph glyph-name="Ncommaaccent" unicode="&#x145;" horiz-adv-x="693" d="M95 720 L131 720 L564 61 L564 720 L598 720 L598 0 L564 0 L129 662 L129 0 L95 0 L95 720 Z M338 -60 L377 -68 L323 -218 L297 -210 L338 -60 Z " />
<glyph glyph-name="ncommaaccent" unicode="&#x146;" horiz-adv-x="523" d="M111 523 L111 432 Q146 477 190 506 Q234 535 288 535 Q337 535 368 519 Q399 503 417 475 Q435 447 441.5 409 Q448 371 448 328 L448 0 L416 0 L416 335 Q416 420 386.5 463 Q357 506 287 506 Q255 506 227.5 493.5 Q200 481 178 463.5 Q156 446 139 426.5 Q122 407 111 393 L111 0 L80 0 L80 523 L111 523 Z M249 -60 L288 -68 L234 -218 L208 -210 L249 -60 Z " />
<glyph glyph-name="Ncaron" unicode="&#x147;" horiz-adv-x="693" d="M95 720 L131 720 L564 61 L564 720 L598 720 L598 0 L564 0 L129 662 L129 0 L95 0 L95 720 Z M358 768 L334 768 L241 855 L258 872 L346 800 L433 871 L450 855 L358 768 Z " />
<glyph glyph-name="ncaron" unicode="&#x148;" horiz-adv-x="523" d="M111 523 L111 432 Q146 477 190 506 Q234 535 288 535 Q337 535 368 519 Q399 503 417 475 Q435 447 441.5 409 Q448 371 448 328 L448 0 L416 0 L416 335 Q416 420 386.5 463 Q357 506 287 506 Q255 506 227.5 493.5 Q200 481 178 463.5 Q156 446 139 426.5 Q122 407 111 393 L111 0 L80 0 L80 523 L111 523 Z M257 594 L154 744 L176 758 L273 630 L371 759 L392 744 L288 594 L257 594 Z " />
<glyph glyph-name="napostrophe" unicode="&#x149;" horiz-adv-x="543" d="M131 523 L131 432 Q166 477 210 506 Q254 535 308 535 Q357 535 388 519 Q419 503 437 475 Q455 447 461.5 409 Q468 371 468 328 L468 0 L436 0 L436 335 Q436 420 406.5 463 Q377 506 307 506 Q275 506 247.5 493.5 Q220 481 198 463.5 Q176 446 159 426.5 Q142 407 131 393 L131 0 L100 0 L100 523 L131 523 Z M17.4258 647.268 Q17.4258 664.01 28.0695 672.847 Q38.7131 681.683 51.6707 681.683 Q76.6602 681.683 84.99 663.08 Q93.3198 644.478 93.3198 624.016 Q93.3198 595.182 81.7506 568.209 Q70.1814 541.235 30.3833 520.773 L22.979 534.724 Q53.5217 553.327 64.1654 573.324 Q74.8091 593.322 72.958 625.876 Q62.7771 615.644 47.9685 615.644 Q34.0854 615.644 25.7556 624.946 Q17.4258 634.247 17.4258 647.268 Z " />
<glyph glyph-name="Eng" unicode="&#x14a;" horiz-adv-x="693" d="M95 720 L131 720 L564 57 L564 720 L598 720 L598 -71 Q598 -95 592.5 -119 Q587 -143 573 -161.5 Q559 -180 533.5 -191.5 Q508 -203 469 -203 Q457 -203 442.5 -201.5 Q428 -200 414 -197.5 Q400 -195 388 -192 Q376 -189 370 -186 L377 -159 Q386 -162 414 -168 Q442 -174 474 -174 Q518 -174 541 -149.5 Q564 -125 564 -72 L564 0 L129 662 L129 0 L95 0 L95 720 Z " />
<glyph glyph-name="eng" unicode="&#x14b;" horiz-adv-x="523" d="M111 523 L111 432 Q146 477 190 506 Q234 535 288 535 Q337 535 368 519 Q399 503 417 475 Q435 447 441.5 409 Q448 371 448 328 L448 -91 Q448 -114 444.5 -134 Q441 -154 431.5 -169.5 Q422 -185 404.5 -194 Q387 -203 359 -203 Q345 -203 330.5 -201 Q316 -199 302 -194 L308 -169 Q317 -172 330 -174 Q343 -176 356 -176 Q370 -176 381.5 -172.5 Q393 -169 400.5 -160 Q408 -151 412 -134.5 Q416 -118 416 -92 L416 335 Q416 420 386.5 463 Q357 506 287 506 Q255 506 227.5 493.5 Q200 481 178 463.5 Q156 446 139 426.5 Q122 407 111 393 L111 0 L80 0 L80 523 L111 523 Z " />
<glyph glyph-name="Omacron" unicode="&#x14c;" horiz-adv-x="750" d="M101 372 Q101 280 121.5 213.5 Q142 147 179 104 Q216 61 267 40.5 Q318 20 378 20 Q438 20 488 40 Q538 60 574 103 Q610 146 629.5 212.5 Q649 279 649 372 Q649 454 629 515.5 Q609 577 573 618 Q537 659 487.5 679.5 Q438 700 379 700 Q317 700 266 679.5 Q215 659 178 617.5 Q141 576 121 514.5 Q101 453 101 372 Z M65 372 Q65 464 89.5 531.5 Q114 599 156.5 643.5 Q199 688 256 710 Q313 732 378 732 Q442 732 498.5 710 Q555 688 596 643.5 Q637 599 661 531.5 Q685 464 685 372 Q685 268 660.5 195 Q636 122 594 76 Q552 30 495.5 9 Q439 -12 375 -12 Q311 -12 254.5 9.5 Q198 31 156 77 Q114 123 89.5 196 Q65 269 65 372 Z M242 824 L508 824 L508 796 L242 796 L242 824 Z " />
<glyph glyph-name="omacron" unicode="&#x14d;" horiz-adv-x="554" d="M88 260 Q88 198 102.5 152.5 Q117 107 142 77 Q167 47 201 32 Q235 17 275 17 Q315 17 349.5 32 Q384 47 410 77 Q436 107 451 152.5 Q466 198 466 260 Q466 323 451 369 Q436 415 410 445.5 Q384 476 349.5 491 Q315 506 275 506 Q235 506 201 490.5 Q167 475 142 444.5 Q117 414 102.5 367.5 Q88 321 88 260 Z M55 260 Q55 322 70 373 Q85 424 113.5 460 Q142 496 182.5 515.5 Q223 535 275 535 Q327 535 368.5 516 Q410 497 439 461.5 Q468 426 483.5 375 Q499 324 499 260 Q499 198 483.5 147.5 Q468 97 439 61.5 Q410 26 368.5 7 Q327 -12 275 -12 Q222 -12 181 7 Q140 26 112 61.5 Q84 97 69.5 147.5 Q55 198 55 260 Z M144 662 L410 662 L410 634 L144 634 L144 662 Z " />
<glyph glyph-name="Obreve" unicode="&#x14e;" horiz-adv-x="750" d="M101 372 Q101 280 121.5 213.5 Q142 147 179 104 Q216 61 267 40.5 Q318 20 378 20 Q438 20 488 40 Q538 60 574 103 Q610 146 629.5 212.5 Q649 279 649 372 Q649 454 629 515.5 Q609 577 573 618 Q537 659 487.5 679.5 Q438 700 379 700 Q317 700 266 679.5 Q215 659 178 617.5 Q141 576 121 514.5 Q101 453 101 372 Z M65 372 Q65 464 89.5 531.5 Q114 599 156.5 643.5 Q199 688 256 710 Q313 732 378 732 Q442 732 498.5 710 Q555 688 596 643.5 Q637 599 661 531.5 Q685 464 685 372 Q685 268 660.5 195 Q636 122 594 76 Q552 30 495.5 9 Q439 -12 375 -12 Q311 -12 254.5 9.5 Q198 31 156 77 Q114 123 89.5 196 Q65 269 65 372 Z M375 800 Q403 800 422.5 805.5 Q442 811 454.5 822 Q467 833 474 850 Q481 867 484 890 L511 885 Q505 825 471.5 798.5 Q438 772 375 772 Q344 772 321.5 777.5 Q299 783 283 795.5 Q267 808 256.5 829.5 Q246 851 240 883 L269 890 Q278 843 299.5 821.5 Q321 800 375 800 Z " />
<glyph glyph-name="obreve" unicode="&#x14f;" horiz-adv-x="554" d="M88 260 Q88 198 102.5 152.5 Q117 107 142 77 Q167 47 201 32 Q235 17 275 17 Q315 17 349.5 32 Q384 47 410 77 Q436 107 451 152.5 Q466 198 466 260 Q466 323 451 369 Q436 415 410 445.5 Q384 476 349.5 491 Q315 506 275 506 Q235 506 201 490.5 Q167 475 142 444.5 Q117 414 102.5 367.5 Q88 321 88 260 Z M55 260 Q55 322 70 373 Q85 424 113.5 460 Q142 496 182.5 515.5 Q223 535 275 535 Q327 535 368.5 516 Q410 497 439 461.5 Q468 426 483.5 375 Q499 324 499 260 Q499 198 483.5 147.5 Q468 97 439 61.5 Q410 26 368.5 7 Q327 -12 275 -12 Q222 -12 181 7 Q140 26 112 61.5 Q84 97 69.5 147.5 Q55 198 55 260 Z M272 626 Q328 626 350.5 651 Q373 676 379 725 L406 720 Q401 657 368 627.5 Q335 598 272 598 Q210 598 178.5 625.5 Q147 653 137 719 L164 726 Q172 675 195.5 650.5 Q219 626 272 626 Z " />
<glyph glyph-name="Ohungarumlaut" unicode="&#x150;" horiz-adv-x="750" d="M101 372 Q101 280 121.5 213.5 Q142 147 179 104 Q216 61 267 40.5 Q318 20 378 20 Q438 20 488 40 Q538 60 574 103 Q610 146 629.5 212.5 Q649 279 649 372 Q649 454 629 515.5 Q609 577 573 618 Q537 659 487.5 679.5 Q438 700 379 700 Q317 700 266 679.5 Q215 659 178 617.5 Q141 576 121 514.5 Q101 453 101 372 Z M65 372 Q65 464 89.5 531.5 Q114 599 156.5 643.5 Q199 688 256 710 Q313 732 378 732 Q442 732 498.5 710 Q555 688 596 643.5 Q637 599 661 531.5 Q685 464 685 372 Q685 268 660.5 195 Q636 122 594 76 Q552 30 495.5 9 Q439 -12 375 -12 Q311 -12 254.5 9.5 Q198 31 156 77 Q114 123 89.5 196 Q65 269 65 372 Z M435 885 L306 758 L286 775 L409 909 L435 885 Z M537 872 L416 758 L396 776 L510 896 L537 872 Z " />
<glyph glyph-name="ohungarumlaut" unicode="&#x151;" horiz-adv-x="554" d="M88 260 Q88 198 102.5 152.5 Q117 107 142 77 Q167 47 201 32 Q235 17 275 17 Q315 17 349.5 32 Q384 47 410 77 Q436 107 451 152.5 Q466 198 466 260 Q466 323 451 369 Q436 415 410 445.5 Q384 476 349.5 491 Q315 506 275 506 Q235 506 201 490.5 Q167 475 142 444.5 Q117 414 102.5 367.5 Q88 321 88 260 Z M55 260 Q55 322 70 373 Q85 424 113.5 460 Q142 496 182.5 515.5 Q223 535 275 535 Q327 535 368.5 516 Q410 497 439 461.5 Q468 426 483.5 375 Q499 324 499 260 Q499 198 483.5 147.5 Q468 97 439 61.5 Q410 26 368.5 7 Q327 -12 275 -12 Q222 -12 181 7 Q140 26 112 61.5 Q84 97 69.5 147.5 Q55 198 55 260 Z M344 714 L215 587 L197 604 L318 737 L344 714 Z M446 701 L325 587 L307 604 L420 725 L446 701 Z " />
<glyph glyph-name="OE" unicode="&#x152;" horiz-adv-x="1144" d="M646 182 Q629 132 602 95.5 Q575 59 539.5 35 Q504 11 462.5 -0.5 Q421 -12 375 -12 Q311 -12 254.5 10 Q198 32 156 78.5 Q114 125 89.5 198 Q65 271 65 372 Q65 464 89.5 531.5 Q114 599 156 643.5 Q198 688 254.5 710 Q311 732 375 732 Q467 732 540.5 685 Q614 638 646 545 L646 720 L1074 720 L1074 689 L680 689 L680 389 L1040 389 L1040 359 L680 359 L680 31 L1084 31 L1084 0 L646 0 L646 182 Z M101 372 Q101 280 121 213.5 Q141 147 177.5 104 Q214 61 264.5 41 Q315 21 375 21 Q430 21 479 38.5 Q528 56 565 96.5 Q602 137 624 204 Q646 271 646 371 Q646 461 624 523.5 Q602 586 565 625 Q528 664 479 681.5 Q430 699 375 699 Q315 699 264.5 678.5 Q214 658 177.5 617 Q141 576 121 514.5 Q101 453 101 372 Z " />
<glyph glyph-name="oe" unicode="&#x153;" horiz-adv-x="910" d="M50 260 Q50 322 65 373 Q80 424 108.5 460 Q137 496 177.5 515.5 Q218 535 270 535 Q355 535 406.5 486 Q458 437 475 349 Q492 436 541.5 485.5 Q591 535 672 535 Q770 535 817.5 471.5 Q865 408 865 274 L865 258 L486 258 Q486 205 498.5 160.5 Q511 116 536 84 Q561 52 597 34.5 Q633 17 680 17 Q728 17 766.5 31 Q805 45 841 81 L857 58 Q815 16 771 2 Q727 -12 679 -12 Q595 -12 543 31 Q491 74 474 169 Q456 84 404.5 36 Q353 -12 270 -12 Q218 -12 177.5 7 Q137 26 108.5 61.5 Q80 97 65 147.5 Q50 198 50 260 Z M83 260 Q83 198 97.5 152.5 Q112 107 137 77 Q162 47 196 32 Q230 17 270 17 Q310 17 344.5 32 Q379 47 405 77 Q431 107 446 152.5 Q461 198 461 260 Q461 323 446 369 Q431 415 405 445.5 Q379 476 344.5 491 Q310 506 270 506 Q230 506 196 490.5 Q162 475 137 444.5 Q112 414 97.5 367.5 Q83 321 83 260 Z M832 287 Q832 334 824 374 Q816 414 797.5 443.5 Q779 473 748 489.5 Q717 506 672 506 Q616 506 581.5 480.5 Q547 455 527.5 420 Q508 385 500 348 Q492 311 489 287 L832 287 Z " />
<glyph glyph-name="Racute" unicode="&#x154;" horiz-adv-x="611" d="M297 720 Q358 720 402 705.5 Q446 691 474 665 Q502 639 515.5 602 Q529 565 529 519 Q529 452 499.5 402.5 Q470 353 403 324 L571 0 L534 0 L368 317 Q333 310 282 310 L129 310 L129 0 L95 0 L95 720 L297 720 Z M129 689 L129 340 L289 340 Q395 340 445 385.5 Q495 431 495 520 Q495 603 448.5 646 Q402 689 297 689 L129 689 Z M375 871 L391 841 L226 759 L214 781 L375 871 Z " />
<glyph glyph-name="racute" unicode="&#x155;" horiz-adv-x="285" d="M108 434 Q125 476 157 505.5 Q189 535 231 535 Q242 535 253.5 533.5 Q265 532 275 529 L268 499 Q260 501 250 502 Q240 503 229 503 Q208 503 189.5 492 Q171 481 156 463.5 Q141 446 129.5 425 Q118 404 111 385 L111 0 L80 0 L80 523 L111 523 L108 434 Z M261 734 L285 708 L146 589 L129 608 L261 734 Z " />
<glyph glyph-name="Rcommaaccent" unicode="&#x156;" horiz-adv-x="601" d="M288 720 Q349 720 393 705.5 Q437 691 465 665 Q493 639 506.5 602 Q520 565 520 519 Q520 452 490.5 402.5 Q461 353 394 324 L562 0 L525 0 L359 317 Q324 310 273 310 L120 310 L120 0 L86 0 L86 720 L288 720 Z M120 689 L120 340 L280 340 Q386 340 436 385.5 Q486 431 486 520 Q486 603 439.5 646 Q393 689 288 689 L120 689 Z M289 -60 L328 -68 L274 -218 L248 -210 L289 -60 Z " />
<glyph glyph-name="rcommaaccent" unicode="&#x157;" horiz-adv-x="285" d="M108 434 Q125 476 157 505.5 Q189 535 231 535 Q242 535 253.5 533.5 Q265 532 275 529 L268 499 Q260 501 250 502 Q240 503 229 503 Q208 503 189.5 492 Q171 481 156 463.5 Q141 446 129.5 425 Q118 404 111 385 L111 0 L80 0 L80 523 L111 523 L108 434 Z M74 -60 L113 -68 L59 -218 L33 -210 L74 -60 Z " />
<glyph glyph-name="Rcaron" unicode="&#x158;" horiz-adv-x="611" d="M297 720 Q358 720 402 705.5 Q446 691 474 665 Q502 639 515.5 602 Q529 565 529 519 Q529 452 499.5 402.5 Q470 353 403 324 L571 0 L534 0 L368 317 Q333 310 282 310 L129 310 L129 0 L95 0 L95 720 L297 720 Z M129 689 L129 340 L289 340 Q395 340 445 385.5 Q495 431 495 520 Q495 603 448.5 646 Q402 689 297 689 L129 689 Z M288 768 L264 768 L171 855 L188 872 L276 800 L363 871 L380 855 L288 768 Z " />
<glyph glyph-name="rcaron" unicode="&#x159;" horiz-adv-x="285" d="M108 434 Q125 476 157 505.5 Q189 535 231 535 Q242 535 253.5 533.5 Q265 532 275 529 L268 499 Q260 501 250 502 Q240 503 229 503 Q208 503 189.5 492 Q171 481 156 463.5 Q141 446 129.5 425 Q118 404 111 385 L111 0 L80 0 L80 523 L111 523 L108 434 Z M168 594 L65 744 L87 758 L184 630 L282 759 L303 744 L199 594 L168 594 Z " />
<glyph glyph-name="Sacute" unicode="&#x15a;" horiz-adv-x="559" d="M66 112 Q114 64 165.5 42 Q217 20 275 20 Q315 20 350 30.5 Q385 41 411 61 Q437 81 451.5 111 Q466 141 466 180 Q466 213 457.5 238 Q449 263 428 284 Q407 305 372 322 Q337 339 285 356 Q225 375 183 393.5 Q141 412 115.5 434.5 Q90 457 78.5 486 Q67 515 67 554 Q67 597 83 630 Q99 663 127 685.5 Q155 708 194 720 Q233 732 280 732 Q349 732 400 707.5 Q451 683 493 628 L468 607 Q430 659 379 679.5 Q328 700 280 700 Q243 700 210.5 691 Q178 682 154 664 Q130 646 116.5 619 Q103 592 103 556 Q103 518 116.5 492 Q130 466 155 447.5 Q180 429 216.5 415 Q253 401 299 386 Q357 367 396 347.5 Q435 328 458.5 304 Q482 280 492 250.5 Q502 221 502 182 Q502 138 485 102 Q468 66 438 40.5 Q408 15 366 1.5 Q324 -12 274 -12 Q202 -12 142 17.5 Q82 47 43 89 L66 112 Z M370 871 L386 841 L221 759 L209 781 L370 871 Z " />
<glyph glyph-name="sacute" unicode="&#x15b;" horiz-adv-x="449" d="M51 87 Q89 53 130.5 34.5 Q172 16 219 16 Q251 16 278.5 24 Q306 32 326.5 47 Q347 62 359 83.5 Q371 105 371 132 Q371 155 363.5 173.5 Q356 192 338.5 207 Q321 222 291.5 234.5 Q262 247 219 258 Q172 270 140.5 283.5 Q109 297 90 313.5 Q71 330 63 351.5 Q55 373 55 400 Q55 463 101 499 Q147 535 223 535 Q277 535 319 517 Q361 499 396 459 L374 439 Q342 477 302 492 Q262 507 223 507 Q160 507 124 480 Q88 453 88 402 Q88 376 97 358 Q106 340 124.5 326.5 Q143 313 171 303.5 Q199 294 236 284 Q328 260 366 225.5 Q404 191 404 135 Q404 102 390.5 75 Q377 48 353 28.5 Q329 9 295 -1.5 Q261 -12 220 -12 Q160 -12 110.5 10.5 Q61 33 30 64 L51 87 Z M301 734 L325 708 L186 589 L169 608 L301 734 Z " />
<glyph glyph-name="Scircumflex" unicode="&#x15c;" horiz-adv-x="559" d="M66 112 Q114 64 165.5 42 Q217 20 275 20 Q315 20 350 30.5 Q385 41 411 61 Q437 81 451.5 111 Q466 141 466 180 Q466 213 457.5 238 Q449 263 428 284 Q407 305 372 322 Q337 339 285 356 Q225 375 183 393.5 Q141 412 115.5 434.5 Q90 457 78.5 486 Q67 515 67 554 Q67 597 83 630 Q99 663 127 685.5 Q155 708 194 720 Q233 732 280 732 Q349 732 400 707.5 Q451 683 493 628 L468 607 Q430 659 379 679.5 Q328 700 280 700 Q243 700 210.5 691 Q178 682 154 664 Q130 646 116.5 619 Q103 592 103 556 Q103 518 116.5 492 Q130 466 155 447.5 Q180 429 216.5 415 Q253 401 299 386 Q357 367 396 347.5 Q435 328 458.5 304 Q482 280 492 250.5 Q502 221 502 182 Q502 138 485 102 Q468 66 438 40.5 Q408 15 366 1.5 Q324 -12 274 -12 Q202 -12 142 17.5 Q82 47 43 89 L66 112 Z M378 777 L361 761 L275 832 L185 760 L169 777 L262 864 L286 864 L378 777 Z " />
<glyph glyph-name="scircumflex" unicode="&#x15d;" horiz-adv-x="449" d="M51 87 Q89 53 130.5 34.5 Q172 16 219 16 Q251 16 278.5 24 Q306 32 326.5 47 Q347 62 359 83.5 Q371 105 371 132 Q371 155 363.5 173.5 Q356 192 338.5 207 Q321 222 291.5 234.5 Q262 247 219 258 Q172 270 140.5 283.5 Q109 297 90 313.5 Q71 330 63 351.5 Q55 373 55 400 Q55 463 101 499 Q147 535 223 535 Q277 535 319 517 Q361 499 396 459 L374 439 Q342 477 302 492 Q262 507 223 507 Q160 507 124 480 Q88 453 88 402 Q88 376 97 358 Q106 340 124.5 326.5 Q143 313 171 303.5 Q199 294 236 284 Q328 260 366 225.5 Q404 191 404 135 Q404 102 390.5 75 Q377 48 353 28.5 Q329 9 295 -1.5 Q261 -12 220 -12 Q160 -12 110.5 10.5 Q61 33 30 64 L51 87 Z M236 750 L340 600 L318 585 L221 714 L124 586 L102 600 L205 750 L236 750 Z " />
<glyph glyph-name="Scedilla" unicode="&#x15e;" horiz-adv-x="559" d="M221 -158 Q235 -164 250.5 -168 Q266 -172 285 -172 Q294 -172 304.5 -170.5 Q315 -169 324 -164.5 Q333 -160 338.5 -151 Q344 -142 344 -128 Q344 -102 324 -92.5 Q304 -83 269 -83 L262 -83 L277 -12 L274 -12 Q202 -12 142 17.5 Q82 47 43 89 L66 112 Q114 64 165.5 42 Q217 20 275 20 Q315 20 350 30.5 Q385 41 411 61 Q437 81 451.5 111 Q466 141 466 180 Q466 213 457.5 238 Q449 263 428 284 Q407 305 372 322 Q337 339 285 356 Q225 375 183 393.5 Q141 412 115.5 434.5 Q90 457 78.5 486 Q67 515 67 554 Q67 597 83 630 Q99 663 127 685.5 Q155 708 194 720 Q233 732 280 732 Q349 732 400 707.5 Q451 683 493 628 L468 607 Q430 659 379 679.5 Q328 700 280 700 Q243 700 210.5 691 Q178 682 154 664 Q130 646 116.5 619 Q103 592 103 557 Q103 518 117 492.5 Q131 467 156.5 448.5 Q182 430 218 416 Q254 402 299 387 Q356 367 395 347.5 Q434 328 458 304 Q482 280 492 250.5 Q502 221 502 182 Q502 141 487.5 107 Q473 73 446.5 48 Q420 23 383 8 Q346 -7 302 -11 L292 -61 Q305 -62 319.5 -65 Q334 -68 346 -74.5 Q358 -81 365.5 -93 Q373 -105 373 -124 Q373 -166 347 -182 Q321 -198 285 -198 Q262 -198 241.5 -192.5 Q221 -187 213 -182 L221 -158 Z " />
<glyph glyph-name="scedilla" unicode="&#x15f;" horiz-adv-x="449" d="M148 -158 Q162 -164 177.5 -168 Q193 -172 212 -172 Q221 -172 231.5 -170.5 Q242 -169 251 -164.5 Q260 -160 265.5 -151 Q271 -142 271 -128 Q271 -102 251 -92.5 Q231 -83 196 -83 L189 -83 L204 -11 Q150 -8 104.5 13.5 Q59 35 30 64 L51 87 Q89 53 130.5 34.5 Q172 16 219 16 Q251 16 278.5 24 Q306 32 326.5 47 Q347 62 359 83.5 Q371 105 371 132 Q371 155 363 173.5 Q355 192 337 207 Q319 222 290 234.5 Q261 247 219 258 Q172 270 140.5 283.5 Q109 297 90 314 Q71 331 63 352 Q55 373 55 400 Q55 463 101 499 Q147 535 223 535 Q277 535 319 517 Q361 499 396 459 L374 439 Q342 477 302 492 Q262 507 223 507 Q160 507 124 480 Q88 453 88 402 Q88 376 97.5 358 Q107 340 126 326.5 Q145 313 172.5 303.5 Q200 294 236 284 Q328 259 366 225 Q404 191 404 135 Q404 103 391.5 76.5 Q379 50 355.5 31 Q332 12 300 0.5 Q268 -11 229 -12 L219 -61 Q232 -62 246.5 -65 Q261 -68 273 -74.5 Q285 -81 292.5 -93 Q300 -105 300 -124 Q300 -166 274 -182 Q248 -198 212 -198 Q189 -198 168.5 -192.5 Q148 -187 140 -182 L148 -158 Z " />
<glyph glyph-name="Scaron" unicode="&#x160;" horiz-adv-x="559" d="M66 112 Q114 64 165.5 42 Q217 20 275 20 Q315 20 350 30.5 Q385 41 411 61 Q437 81 451.5 111 Q466 141 466 180 Q466 213 457.5 238 Q449 263 428 284 Q407 305 372 322 Q337 339 285 356 Q225 375 183 393.5 Q141 412 115.5 434.5 Q90 457 78.5 486 Q67 515 67 554 Q67 597 83 630 Q99 663 127 685.5 Q155 708 194 720 Q233 732 280 732 Q349 732 400 707.5 Q451 683 493 628 L468 607 Q430 659 379 679.5 Q328 700 280 700 Q243 700 210.5 691 Q178 682 154 664 Q130 646 116.5 619 Q103 592 103 556 Q103 518 116.5 492 Q130 466 155 447.5 Q180 429 216.5 415 Q253 401 299 386 Q357 367 396 347.5 Q435 328 458.5 304 Q482 280 492 250.5 Q502 221 502 182 Q502 138 485 102 Q468 66 438 40.5 Q408 15 366 1.5 Q324 -12 274 -12 Q202 -12 142 17.5 Q82 47 43 89 L66 112 Z M297 768 L273 768 L180 855 L197 872 L285 800 L372 871 L389 855 L297 768 Z " />
<glyph glyph-name="scaron" unicode="&#x161;" horiz-adv-x="449" d="M51 87 Q89 53 130.5 34.5 Q172 16 219 16 Q251 16 278.5 24 Q306 32 326.5 47 Q347 62 359 83.5 Q371 105 371 132 Q371 155 363.5 173.5 Q356 192 338.5 207 Q321 222 291.5 234.5 Q262 247 219 258 Q172 270 140.5 283.5 Q109 297 90 313.5 Q71 330 63 351.5 Q55 373 55 400 Q55 463 101 499 Q147 535 223 535 Q277 535 319 517 Q361 499 396 459 L374 439 Q342 477 302 492 Q262 507 223 507 Q160 507 124 480 Q88 453 88 402 Q88 376 97 358 Q106 340 124.5 326.5 Q143 313 171 303.5 Q199 294 236 284 Q328 260 366 225.5 Q404 191 404 135 Q404 102 390.5 75 Q377 48 353 28.5 Q329 9 295 -1.5 Q261 -12 220 -12 Q160 -12 110.5 10.5 Q61 33 30 64 L51 87 Z M209 594 L106 744 L128 758 L225 630 L323 759 L344 744 L240 594 L209 594 Z " />
<glyph glyph-name="Scommaaccent" unicode="&#x218;" horiz-adv-x="559" d="M66 112 Q114 64 165.5 42 Q217 20 275 20 Q315 20 350 30.5 Q385 41 411 61 Q437 81 451.5 111 Q466 141 466 180 Q466 213 457.5 238 Q449 263 428 284 Q407 305 372 322 Q337 339 285 356 Q225 375 183 393.5 Q141 412 115.5 434.5 Q90 457 78.5 486 Q67 515 67 554 Q67 597 83 630 Q99 663 127 685.5 Q155 708 194 720 Q233 732 280 732 Q349 732 400 707.5 Q451 683 493 628 L468 607 Q430 659 379 679.5 Q328 700 280 700 Q243 700 210.5 691 Q178 682 154 664 Q130 646 116.5 619 Q103 592 103 556 Q103 518 116.5 492 Q130 466 155 447.5 Q180 429 216.5 415 Q253 401 299 386 Q357 367 396 347.5 Q435 328 458.5 304 Q482 280 492 250.5 Q502 221 502 182 Q502 138 485 102 Q468 66 438 40.5 Q408 15 366 1.5 Q324 -12 274 -12 Q202 -12 142 17.5 Q82 47 43 89 L66 112 Z M265 -60 L304 -68 L250 -218 L224 -210 L265 -60 Z " />
<glyph glyph-name="scommaaccent" unicode="&#x219;" horiz-adv-x="449" d="M51 87 Q89 53 130.5 34.5 Q172 16 219 16 Q251 16 278.5 24 Q306 32 326.5 47 Q347 62 359 83.5 Q371 105 371 132 Q371 155 363.5 173.5 Q356 192 338.5 207 Q321 222 291.5 234.5 Q262 247 219 258 Q172 270 140.5 283.5 Q109 297 90 313.5 Q71 330 63 351.5 Q55 373 55 400 Q55 463 101 499 Q147 535 223 535 Q277 535 319 517 Q361 499 396 459 L374 439 Q342 477 302 492 Q262 507 223 507 Q160 507 124 480 Q88 453 88 402 Q88 376 97 358 Q106 340 124.5 326.5 Q143 313 171 303.5 Q199 294 236 284 Q328 260 366 225.5 Q404 191 404 135 Q404 102 390.5 75 Q377 48 353 28.5 Q329 9 295 -1.5 Q261 -12 220 -12 Q160 -12 110.5 10.5 Q61 33 30 64 L51 87 Z M209 -60 L248 -68 L194 -218 L168 -210 L209 -60 Z " />
<glyph glyph-name="uni021A" unicode="&#x21a;" horiz-adv-x="543" d="M255 690 L20 690 L20 720 L523 720 L523 690 L289 690 L289 0 L255 0 L255 690 Z M248 -60 L287 -68 L233 -218 L207 -210 L248 -60 Z " />
<glyph glyph-name="uni021B" unicode="&#x21b;" horiz-adv-x="248" d="M122 495 L122 70 Q122 38 135.5 27.5 Q149 17 167 17 Q182 17 198.5 20.5 Q215 24 229 30 L237 5 Q224 -2 202.5 -7 Q181 -12 160 -12 Q131 -12 111 3 Q91 18 91 59 L91 495 L29 495 L29 515 L91 523 L99 656 L122 656 L122 523 L207 523 L207 495 L122 495 Z M134 -60 L173 -68 L119 -218 L93 -210 L134 -60 Z " />
<glyph glyph-name="Tcaron" unicode="&#x164;" horiz-adv-x="543" d="M255 690 L20 690 L20 720 L523 720 L523 690 L289 690 L289 0 L255 0 L255 690 Z M283 768 L259 768 L166 855 L183 872 L271 800 L358 871 L375 855 L283 768 Z " />
<glyph glyph-name="tcaron" unicode="&#x165;" horiz-adv-x="248" d="M122 495 L122 70 Q122 38 135.5 27.5 Q149 17 167 17 Q182 17 198.5 20.5 Q215 24 229 30 L237 5 Q224 -2 202.5 -7 Q181 -12 160 -12 Q131 -12 111 3 Q91 18 91 59 L91 495 L29 495 L29 515 L91 523 L99 656 L122 656 L122 523 L207 523 L207 495 L122 495 Z M211 752 L252 752 L202 576 L172 576 L211 752 Z " />
<glyph glyph-name="Tbar" unicode="&#x166;" horiz-adv-x="543" d="M128 403 L255 403 L255 690 L20 690 L20 720 L523 720 L523 690 L289 690 L289 403 L434 403 L434 375 L289 375 L289 0 L255 0 L255 375 L128 375 L128 403 Z " />
<glyph glyph-name="tbar" unicode="&#x167;" horiz-adv-x="248" d="M122 495 L122 336 L222 336 L222 308 L122 308 L122 70 Q122 38 135.5 27.5 Q149 17 167 17 Q182 17 198.5 20.5 Q215 24 229 30 L237 5 Q224 -2 202.5 -7 Q181 -12 160 -12 Q131 -12 111 3 Q91 18 91 59 L91 308 L40 308 L40 336 L91 336 L91 495 L29 495 L29 515 L91 523 L99 656 L122 656 L122 523 L207 523 L207 495 L122 495 Z " />
<glyph glyph-name="uni0162" unicode="&#x162;" horiz-adv-x="543" d="M255 690 L20 690 L20 720 L523 720 L523 690 L289 690 L289 0 L283 0 L270 -61 Q283 -62 297.5 -65 Q312 -68 324 -74.5 Q336 -81 343.5 -93 Q351 -105 351 -124 Q351 -166 325 -182 Q299 -198 263 -198 Q240 -198 219.5 -192.5 Q199 -187 191 -182 L199 -158 Q213 -164 228.5 -168 Q244 -172 263 -172 Q272 -172 282.5 -170.5 Q293 -169 302 -164.5 Q311 -160 316.5 -151 Q322 -142 322 -128 Q322 -102 302 -92.5 Q282 -83 247 -83 L240 -83 L258 0 L255 0 L255 690 Z " />
<glyph glyph-name="uni0163" unicode="&#x163;" horiz-adv-x="248" d="M83 -158 Q97 -164 112.5 -168 Q128 -172 147 -172 Q156 -172 166.5 -170.5 Q177 -169 186 -164.5 Q195 -160 200.5 -151 Q206 -142 206 -128 Q206 -102 186 -92.5 Q166 -83 131 -83 L124 -83 L139 -10 Q118 -6 104.5 10 Q91 26 91 59 L91 495 L29 495 L29 515 L91 523 L99 656 L122 656 L122 523 L207 523 L207 495 L122 495 L122 70 Q122 38 135.5 27.5 Q149 17 167 17 Q182 17 198.5 20.5 Q215 24 229 30 L237 5 Q225 -1 204.5 -6 Q184 -11 164 -12 L154 -61 Q167 -62 181.5 -65 Q196 -68 208 -74.5 Q220 -81 227.5 -93 Q235 -105 235 -124 Q235 -166 209 -182 Q183 -198 147 -198 Q124 -198 103.5 -192.5 Q83 -187 75 -182 L83 -158 Z " />
<glyph glyph-name="Utilde" unicode="&#x168;" horiz-adv-x="684" d="M123 720 L123 274 Q123 144 182 81.5 Q241 19 347 19 Q407 19 448 36 Q489 53 514 85.5 Q539 118 550 165.5 Q561 213 561 274 L561 720 L594 720 L594 262 Q594 126 532.5 57 Q471 -12 343 -12 Q288 -12 241.5 4.5 Q195 21 161.5 54.5 Q128 88 109 139.5 Q90 191 90 262 L90 720 L123 720 Z M470 840 Q459 808 441 797.5 Q423 787 403 787 Q386 787 369 792.5 Q352 798 336 804.5 Q320 811 306.5 816.5 Q293 822 282 822 Q270 822 260.5 815 Q251 808 237 785 L214 796 Q229 828 246.5 839 Q264 850 284 850 Q299 850 314 844.5 Q329 839 343.5 832.5 Q358 826 373 820.5 Q388 815 403 815 Q418 815 428 822 Q438 829 448 850 L470 840 Z " />
<glyph glyph-name="utilde" unicode="&#x169;" horiz-adv-x="522" d="M411 0 L411 87 Q399 72 381.5 54.5 Q364 37 341.5 22.5 Q319 8 291.5 -2 Q264 -12 232 -12 Q182 -12 151 4 Q120 20 103 46.5 Q86 73 80.5 107.5 Q75 142 75 178 L75 523 L107 523 L107 181 Q107 101 134 59 Q161 17 232 17 Q262 17 288 27 Q314 37 336 52.5 Q358 68 376.5 88 Q395 108 411 128 L411 523 L442 523 L442 0 L411 0 Z M382 671 Q371 639 353 628.5 Q335 618 315 618 Q298 618 281 623.5 Q264 629 248 635.5 Q232 642 218.5 647.5 Q205 653 194 653 Q182 653 172.5 646 Q163 639 149 616 L126 627 Q141 659 158.5 670 Q176 681 196 681 Q211 681 226 675.5 Q241 670 255.5 663.5 Q270 657 285 651.5 Q300 646 315 646 Q330 646 340 653 Q350 660 360 681 L382 671 Z " />
<glyph glyph-name="Umacron" unicode="&#x16a;" horiz-adv-x="684" d="M123 720 L123 274 Q123 144 182 81.5 Q241 19 347 19 Q407 19 448 36 Q489 53 514 85.5 Q539 118 550 165.5 Q561 213 561 274 L561 720 L594 720 L594 262 Q594 126 532.5 57 Q471 -12 343 -12 Q288 -12 241.5 4.5 Q195 21 161.5 54.5 Q128 88 109 139.5 Q90 191 90 262 L90 720 L123 720 Z M209 824 L475 824 L475 796 L209 796 L209 824 Z " />
<glyph glyph-name="umacron" unicode="&#x16b;" horiz-adv-x="522" d="M411 0 L411 87 Q399 72 381.5 54.5 Q364 37 341.5 22.5 Q319 8 291.5 -2 Q264 -12 232 -12 Q182 -12 151 4 Q120 20 103 46.5 Q86 73 80.5 107.5 Q75 142 75 178 L75 523 L107 523 L107 181 Q107 101 134 59 Q161 17 232 17 Q262 17 288 27 Q314 37 336 52.5 Q358 68 376.5 88 Q395 108 411 128 L411 523 L442 523 L442 0 L411 0 Z M128 662 L394 662 L394 634 L128 634 L128 662 Z " />
<glyph glyph-name="Ubreve" unicode="&#x16c;" horiz-adv-x="684" d="M123 720 L123 274 Q123 144 182 81.5 Q241 19 347 19 Q407 19 448 36 Q489 53 514 85.5 Q539 118 550 165.5 Q561 213 561 274 L561 720 L594 720 L594 262 Q594 126 532.5 57 Q471 -12 343 -12 Q288 -12 241.5 4.5 Q195 21 161.5 54.5 Q128 88 109 139.5 Q90 191 90 262 L90 720 L123 720 Z M352 800 Q380 800 399.5 805.5 Q419 811 431.5 822 Q444 833 451 850 Q458 867 461 890 L488 885 Q482 825 448.5 798.5 Q415 772 352 772 Q321 772 298.5 777.5 Q276 783 260 795.5 Q244 808 233.5 829.5 Q223 851 217 883 L246 890 Q255 843 276.5 821.5 Q298 800 352 800 Z " />
<glyph glyph-name="ubreve" unicode="&#x16d;" horiz-adv-x="522" d="M411 0 L411 87 Q399 72 381.5 54.5 Q364 37 341.5 22.5 Q319 8 291.5 -2 Q264 -12 232 -12 Q182 -12 151 4 Q120 20 103 46.5 Q86 73 80.5 107.5 Q75 142 75 178 L75 523 L107 523 L107 181 Q107 101 134 59 Q161 17 232 17 Q262 17 288 27 Q314 37 336 52.5 Q358 68 376.5 88 Q395 108 411 128 L411 523 L442 523 L442 0 L411 0 Z M259 626 Q315 626 337.5 651 Q360 676 366 725 L393 720 Q388 657 355 627.5 Q322 598 259 598 Q197 598 165.5 625.5 Q134 653 124 719 L151 726 Q159 675 182.5 650.5 Q206 626 259 626 Z " />
<glyph glyph-name="Uring" unicode="&#x16e;" horiz-adv-x="684" d="M123 720 L123 274 Q123 144 182 81.5 Q241 19 347 19 Q407 19 448 36 Q489 53 514 85.5 Q539 118 550 165.5 Q561 213 561 274 L561 720 L594 720 L594 262 Q594 126 532.5 57 Q471 -12 343 -12 Q288 -12 241.5 4.5 Q195 21 161.5 54.5 Q128 88 109 139.5 Q90 191 90 262 L90 720 L123 720 Z M292 823 Q292 796 307.5 782.5 Q323 769 348 769 Q375 769 389.5 784.5 Q404 800 404 826 Q404 879 348 879 Q322 879 307 864 Q292 849 292 823 Z M262 823 Q262 859 286.5 883.5 Q311 908 348 908 Q385 908 409.5 885 Q434 862 434 826 Q434 788 410 765 Q386 742 348 742 Q311 742 286.5 763.5 Q262 785 262 823 Z " />
<glyph glyph-name="uring" unicode="&#x16f;" horiz-adv-x="522" d="M411 0 L411 87 Q399 72 381.5 54.5 Q364 37 341.5 22.5 Q319 8 291.5 -2 Q264 -12 232 -12 Q182 -12 151 4 Q120 20 103 46.5 Q86 73 80.5 107.5 Q75 142 75 178 L75 523 L107 523 L107 181 Q107 101 134 59 Q161 17 232 17 Q262 17 288 27 Q314 37 336 52.5 Q358 68 376.5 88 Q395 108 411 128 L411 523 L442 523 L442 0 L411 0 Z M208 659 Q208 632 223.5 618.5 Q239 605 264 605 Q291 605 305.5 620.5 Q320 636 320 662 Q320 715 264 715 Q238 715 223 700 Q208 685 208 659 Z M178 659 Q178 695 202.5 719.5 Q227 744 264 744 Q301 744 325.5 721 Q350 698 350 662 Q350 624 326 601 Q302 578 264 578 Q227 578 202.5 599.5 Q178 621 178 659 Z " />
<glyph glyph-name="Uhungarumlaut" unicode="&#x170;" horiz-adv-x="684" d="M123 720 L123 274 Q123 144 182 81.5 Q241 19 347 19 Q407 19 448 36 Q489 53 514 85.5 Q539 118 550 165.5 Q561 213 561 274 L561 720 L594 720 L594 262 Q594 126 532.5 57 Q471 -12 343 -12 Q288 -12 241.5 4.5 Q195 21 161.5 54.5 Q128 88 109 139.5 Q90 191 90 262 L90 720 L123 720 Z M402 885 L273 758 L253 775 L376 909 L402 885 Z M504 872 L383 758 L363 776 L477 896 L504 872 Z " />
<glyph glyph-name="uhungarumlaut" unicode="&#x171;" horiz-adv-x="522" d="M411 0 L411 87 Q399 72 381.5 54.5 Q364 37 341.5 22.5 Q319 8 291.5 -2 Q264 -12 232 -12 Q182 -12 151 4 Q120 20 103 46.5 Q86 73 80.5 107.5 Q75 142 75 178 L75 523 L107 523 L107 181 Q107 101 134 59 Q161 17 232 17 Q262 17 288 27 Q314 37 336 52.5 Q358 68 376.5 88 Q395 108 411 128 L411 523 L442 523 L442 0 L411 0 Z M327 714 L198 587 L180 604 L301 737 L327 714 Z M429 701 L308 587 L290 604 L403 725 L429 701 Z " />
<glyph glyph-name="Uogonek" unicode="&#x172;" horiz-adv-x="684" d="M123 720 L123 274 Q123 144 182 81.5 Q241 19 347 19 Q407 19 448 36 Q489 53 514 85.5 Q539 118 550 165.5 Q561 213 561 274 L561 720 L594 720 L594 262 Q594 213 587.5 176 Q581 139 566.5 109 Q552 79 528.5 55 Q505 31 470 8 Q449 -6 429.5 -23.5 Q410 -41 395 -61 Q380 -81 371 -101.5 Q362 -122 362 -140 Q362 -163 375 -174 Q388 -185 411 -185 Q428 -185 444 -178.5 Q460 -172 475 -163 L488 -186 Q474 -197 452.5 -205 Q431 -213 407 -213 Q371 -213 350 -195 Q329 -177 329 -144 Q329 -105 353 -70 Q377 -35 409 -6 Q377 -12 343 -12 Q288 -12 241.5 4.5 Q195 21 161.5 54.5 Q128 88 109 139.5 Q90 191 90 262 L90 720 L123 720 Z " />
<glyph glyph-name="uogonek" unicode="&#x173;" horiz-adv-x="522" d="M442 0 Q404 -32 376 -67.5 Q348 -103 348 -140 Q348 -163 361 -174 Q374 -185 397 -185 Q414 -185 430 -178.5 Q446 -172 461 -163 L474 -186 Q460 -197 438.5 -205 Q417 -213 393 -213 Q357 -213 336 -195 Q315 -177 315 -144 Q315 -122 323 -101.5 Q331 -81 344.5 -62 Q358 -43 375.5 -25.5 Q393 -8 411 7 L411 87 Q399 72 381.5 54.5 Q364 37 341.5 22.5 Q319 8 291.5 -2 Q264 -12 232 -12 Q182 -12 151 4 Q120 20 103 46.5 Q86 73 80.5 107.5 Q75 142 75 178 L75 523 L107 523 L107 181 Q107 101 134 59 Q161 17 232 17 Q262 17 288 27 Q314 37 336 52.5 Q358 68 376.5 88 Q395 108 411 128 L411 523 L442 523 L442 0 L442 0 Z " />
<glyph glyph-name="Wcircumflex" unicode="&#x174;" horiz-adv-x="919" d="M25 720 L58 720 L248 40 L440 720 L481 720 L672 40 L861 720 L894 720 L697 0 L649 0 L460 678 L270 0 L223 0 L25 720 Z M564 777 L547 761 L461 832 L371 760 L355 777 L448 864 L472 864 L564 777 Z " />
<glyph glyph-name="wcircumflex" unicode="&#x175;" horiz-adv-x="685" d="M655 523 L530 0 L497 0 L339 471 L187 0 L154 0 L30 523 L62 523 L173 46 L323 516 L356 516 L512 46 L623 523 L655 523 Z M353 750 L457 600 L435 585 L338 714 L241 586 L219 600 L322 750 L353 750 Z " />
<glyph glyph-name="Wgrave" unicode="&#x1e80;" horiz-adv-x="919" d="M25 720 L58 720 L248 40 L440 720 L481 720 L672 40 L861 720 L894 720 L697 0 L649 0 L460 678 L270 0 L223 0 L25 720 Z M548 781 L536 759 L371 841 L387 871 L548 781 Z " />
<glyph glyph-name="wgrave" unicode="&#x1e81;" horiz-adv-x="685" d="M655 523 L530 0 L497 0 L339 471 L187 0 L154 0 L30 523 L62 523 L173 46 L323 516 L356 516 L512 46 L623 523 L655 523 Z M419 608 L401 589 L262 709 L286 735 L419 608 Z " />
<glyph glyph-name="Wacute" unicode="&#x1e82;" horiz-adv-x="919" d="M25 720 L58 720 L248 40 L440 720 L481 720 L672 40 L861 720 L894 720 L697 0 L649 0 L460 678 L270 0 L223 0 L25 720 Z M532 871 L548 841 L383 759 L371 781 L532 871 Z " />
<glyph glyph-name="wacute" unicode="&#x1e83;" horiz-adv-x="685" d="M655 523 L530 0 L497 0 L339 471 L187 0 L154 0 L30 523 L62 523 L173 46 L323 516 L356 516 L512 46 L623 523 L655 523 Z M394 734 L418 708 L279 589 L262 608 L394 734 Z " />
<glyph glyph-name="Wdieresis" unicode="&#x1e84;" horiz-adv-x="919" d="M25 720 L58 720 L248 40 L440 720 L481 720 L672 40 L861 720 L894 720 L697 0 L649 0 L460 678 L270 0 L223 0 L25 720 Z M516 813 Q516 825 524.5 833.5 Q533 842 546 842 Q558 842 566 833.5 Q574 825 574 813 Q574 801 566 792.5 Q558 784 546 784 Q533 784 524.5 792.5 Q516 801 516 813 Z M347 813 Q347 825 355.5 833.5 Q364 842 377 842 Q389 842 397 833.5 Q405 825 405 813 Q405 801 397 792.5 Q389 784 377 784 Q364 784 355.5 792.5 Q347 801 347 813 Z " />
<glyph glyph-name="wdieresis" unicode="&#x1e85;" horiz-adv-x="685" d="M655 523 L530 0 L497 0 L339 471 L187 0 L154 0 L30 523 L62 523 L173 46 L323 516 L356 516 L512 46 L623 523 L655 523 Z M397 652 Q397 664 405.5 672.5 Q414 681 427 681 Q439 681 447 672.5 Q455 664 455 652 Q455 640 447 631.5 Q439 623 427 623 Q414 623 405.5 631.5 Q397 640 397 652 Z M228 652 Q228 664 236.5 672.5 Q245 681 258 681 Q270 681 278 672.5 Q286 664 286 652 Q286 640 278 631.5 Q270 623 258 623 Q245 623 236.5 631.5 Q228 640 228 652 Z " />
<glyph glyph-name="Ygrave" unicode="&#x1ef2;" horiz-adv-x="535" d="M250 318 L25 720 L64 720 L268 353 L472 720 L510 720 L284 318 L284 0 L250 0 L250 318 Z M356 781 L344 759 L179 841 L195 871 L356 781 Z " />
<glyph glyph-name="ygrave" unicode="&#x1ef3;" horiz-adv-x="436" d="M154 -172 Q184 -172 193 -159 Q202 -146 202 -117 L202 0 L15 523 L51 523 L218 46 L387 523 L423 523 L233 0 L233 -126 Q233 -200 165 -200 L93 -200 L93 -172 L154 -172 Z M309 608 L291 589 L152 709 L176 735 L309 608 Z " />
<glyph glyph-name="Ycircumflex" unicode="&#x176;" horiz-adv-x="535" d="M250 318 L25 720 L64 720 L268 353 L472 720 L510 720 L284 318 L284 0 L250 0 L250 318 Z M372 777 L355 761 L269 832 L179 760 L163 777 L256 864 L280 864 L372 777 Z " />
<glyph glyph-name="ycircumflex" unicode="&#x177;" horiz-adv-x="436" d="M154 -172 Q184 -172 193 -159 Q202 -146 202 -117 L202 0 L15 523 L51 523 L218 46 L387 523 L423 523 L233 0 L233 -126 Q233 -200 165 -200 L93 -200 L93 -172 L154 -172 Z M243 750 L347 600 L325 585 L228 714 L131 586 L109 600 L212 750 L243 750 Z " />
<glyph glyph-name="Ydieresis" unicode="&#x178;" horiz-adv-x="535" d="M250 318 L25 720 L64 720 L268 353 L472 720 L510 720 L284 318 L284 0 L250 0 L250 318 Z M327 813 Q327 825 335.5 833.5 Q344 842 357 842 Q369 842 377 833.5 Q385 825 385 813 Q385 801 377 792.5 Q369 784 357 784 Q344 784 335.5 792.5 Q327 801 327 813 Z M158 813 Q158 825 166.5 833.5 Q175 842 188 842 Q200 842 208 833.5 Q216 825 216 813 Q216 801 208 792.5 Q200 784 188 784 Q175 784 166.5 792.5 Q158 801 158 813 Z " />
<glyph glyph-name="Zacute" unicode="&#x179;" horiz-adv-x="562" d="M44 25 L473 690 L78 690 L78 720 L522 720 L522 702 L86 29 L521 29 L521 0 L44 0 L44 25 Z M389 871 L405 841 L240 759 L228 781 L389 871 Z " />
<glyph glyph-name="zacute" unicode="&#x17a;" horiz-adv-x="411" d="M35 24 L338 494 L43 494 L43 523 L381 523 L381 500 L76 29 L377 29 L377 0 L35 0 L35 24 Z M289 734 L313 708 L174 589 L157 608 L289 734 Z " />
<glyph glyph-name="Zdotaccent" unicode="&#x17b;" horiz-adv-x="562" d="M44 25 L473 690 L78 690 L78 720 L522 720 L522 702 L86 29 L521 29 L521 0 L44 0 L44 25 Z M265 818 Q265 830 273.5 838.5 Q282 847 295 847 Q307 847 315 838.5 Q323 830 323 818 Q323 806 315 797.5 Q307 789 295 789 Q282 789 273.5 797.5 Q265 806 265 818 Z " />
<glyph glyph-name="zdotaccent" unicode="&#x17c;" horiz-adv-x="411" d="M35 24 L338 494 L43 494 L43 523 L381 523 L381 500 L76 29 L377 29 L377 0 L35 0 L35 24 Z M189 671 Q189 683 197.5 691.5 Q206 700 219 700 Q231 700 239 691.5 Q247 683 247 671 Q247 659 239 650.5 Q231 642 219 642 Q206 642 197.5 650.5 Q189 659 189 671 Z " />
<glyph glyph-name="Zcaron" unicode="&#x17d;" horiz-adv-x="562" d="M44 25 L473 690 L78 690 L78 720 L522 720 L522 702 L86 29 L521 29 L521 0 L44 0 L44 25 Z M303 768 L279 768 L186 855 L203 872 L291 800 L378 871 L395 855 L303 768 Z " />
<glyph glyph-name="zcaron" unicode="&#x17e;" horiz-adv-x="411" d="M35 24 L338 494 L43 494 L43 523 L381 523 L381 500 L76 29 L377 29 L377 0 L35 0 L35 24 Z M190 594 L87 744 L109 758 L206 630 L304 759 L325 744 L221 594 L190 594 Z " />
<glyph glyph-name="longs" unicode="&#x17f;" horiz-adv-x="231" d="M92 494 L35 494 L35 514 L92 522 L92 614 Q92 636 97 657.5 Q102 679 113 695.5 Q124 712 143 722 Q162 732 189 732 Q200 732 213.5 730.5 Q227 729 241 725 L238 698 Q229 701 217 703 Q205 705 191 705 Q165 705 144 687 Q123 669 123 617 L123 0 L92 0 L92 494 Z " />
<glyph glyph-name="dotlessj" unicode="&#x237;" horiz-adv-x="220" d="M126 -91 Q126 -117 122.5 -137.5 Q119 -158 109.5 -172.5 Q100 -187 82.5 -195 Q65 -203 37 -203 Q23 -203 8.5 -201 Q-6 -199 -20 -194 L-14 -169 Q-5 -172 8 -174 Q21 -176 34 -176 Q48 -176 59.5 -172.5 Q71 -169 79 -160 Q87 -151 91 -134.5 Q95 -118 95 -92 L95 523 L126 523 L126 -91 Z " />
<glyph glyph-name="ff" unicode="&#xfb00;" horiz-adv-x="482" d="M343 495 L123 495 L123 0 L92 0 L92 495 L35 495 L35 514 L92 522 L92 602 Q92 624 97 645.5 Q102 667 113 683.5 Q124 700 143 710 Q162 720 189 720 Q200 720 213.5 718.5 Q227 717 241 713 L238 686 Q229 689 217 691 Q205 693 191 693 Q165 693 144 675 Q123 657 123 605 L123 523 L343 523 L343 614 Q343 636 348 657.5 Q353 679 364 695.5 Q375 712 394 722 Q413 732 440 732 Q451 732 464.5 730.5 Q478 729 492 725 L489 698 Q480 701 468 703 Q456 705 442 705 Q416 705 395 687 Q374 669 374 617 L374 523 L466 523 L466 495 L374 495 L374 0 L343 0 L343 495 Z " />
<glyph glyph-name="fi" unicode="&#xfb01;" horiz-adv-x="467" d="M374 0 L343 0 L343 495 L123 495 L123 0 L92 0 L92 495 L35 495 L35 514 L92 522 L92 614 Q92 636 97 657.5 Q102 679 113 695.5 Q124 712 143 722 Q162 732 189 732 Q200 732 213.5 730.5 Q227 729 241 725 L238 698 Q229 701 217 703 Q205 705 191 705 Q165 705 144 687 Q123 669 123 617 L123 523 L374 523 L374 0 Z M329 671 Q329 683 337.5 691.5 Q346 700 359 700 Q371 700 379 691.5 Q387 683 387 671 Q387 659 379 650.5 Q371 642 359 642 Q346 642 337.5 650.5 Q329 659 329 671 Z " />
<glyph glyph-name="fl" unicode="&#xfb02;" horiz-adv-x="454" d="M343 0 L343 495 L123 495 L123 0 L92 0 L92 495 L35 495 L35 514 L92 522 L92 614 Q92 636 97 657.5 Q102 679 113 695.5 Q124 712 143 722 Q162 732 189 732 Q200 732 213.5 730.5 Q227 729 241 725 L238 698 Q229 701 217 703 Q205 705 191 705 Q165 705 144 687 Q123 669 123 617 L123 523 L343 523 L343 720 L374 720 L374 0 L343 0 Z " />
<glyph glyph-name="ft" unicode="&#xf603;" horiz-adv-x="500" d="M374 495 L374 70 Q374 38 387.5 27.5 Q401 17 419 17 Q434 17 450.5 20.5 Q467 24 481 30 L489 5 Q476 -2 454.5 -7 Q433 -12 412 -12 Q383 -12 363 3 Q343 18 343 59 L343 495 L123 495 L123 0 L92 0 L92 495 L35 495 L35 514 L92 522 L92 614 Q92 636 97 657.5 Q102 679 113 695.5 Q124 712 143 722 Q162 732 189 732 Q200 732 213.5 730.5 Q227 729 241 725 L238 698 Q229 701 217 703 Q205 705 191 705 Q165 705 144 687 Q123 669 123 617 L123 523 L343 523 L351 656 L374 656 L374 523 L459 523 L459 495 L374 495 Z " />
<glyph glyph-name="ffi" unicode="&#xfb03;" horiz-adv-x="718" d="M343 495 L123 495 L123 0 L92 0 L92 495 L35 495 L35 514 L92 522 L92 603 Q92 625 97 646.5 Q102 668 113 684.5 Q124 701 143 711 Q162 721 189 721 Q200 721 213.5 719.5 Q227 718 241 714 L238 687 Q229 690 217 692 Q205 694 191 694 Q165 694 144 676 Q123 658 123 606 L123 523 L343 523 L343 614 Q343 636 348 657.5 Q353 679 364 695.5 Q375 712 394 722 Q413 732 440 732 Q451 732 464.5 730.5 Q478 729 492 725 L489 698 Q480 701 468 703 Q456 705 442 705 Q416 705 395 687 Q374 669 374 617 L374 523 L625 523 L625 0 L594 0 L594 495 L374 495 L374 0 L343 0 L343 495 Z M580 671 Q580 683 588.5 691.5 Q597 700 610 700 Q622 700 630 691.5 Q638 683 638 671 Q638 659 630 650.5 Q622 642 610 642 Q597 642 588.5 650.5 Q580 659 580 671 Z " />
<glyph glyph-name="ffl" unicode="&#xfb04;" horiz-adv-x="705" d="M343 495 L123 495 L123 0 L92 0 L92 495 L35 495 L35 514 L92 522 L92 602 Q92 624 97 645.5 Q102 667 113 683.5 Q124 700 143 710 Q162 720 189 720 Q200 720 213.5 718.5 Q227 717 241 713 L238 686 Q229 689 217 691 Q205 693 191 693 Q165 693 144 675 Q123 657 123 605 L123 523 L343 523 L343 614 Q343 636 348 657.5 Q353 679 364 695.5 Q375 712 394 722 Q413 732 440 732 Q451 732 464.5 730.5 Q478 729 492 725 L489 698 Q480 701 468 703 Q456 705 442 705 Q416 705 395 687 Q374 669 374 617 L374 523 L594 523 L594 720 L625 720 L625 0 L594 0 L594 495 L374 495 L374 0 L343 0 L343 495 Z " />
<glyph glyph-name="perthousand" unicode="&#x2030;" horiz-adv-x="1052" d="M447 144 Q447 174 458.5 200.5 Q470 227 489.5 246.5 Q509 266 535 277 Q561 288 591 288 Q634 288 668 266 Q702 244 720 209 Q737 244 772 266 Q807 288 849 288 Q879 288 905.5 277 Q932 266 951.5 246.5 Q971 227 982 200.5 Q993 174 993 144 Q993 114 982 87.5 Q971 61 951.5 41.5 Q932 22 905.5 11 Q879 0 849 0 Q806 0 771.5 21.5 Q737 43 719 79 Q702 44 668 22 Q634 0 591 0 Q561 0 535 11 Q509 22 489.5 41 Q470 60 458.5 86.5 Q447 113 447 144 Z M45 575 Q45 605 56 631.5 Q67 658 86.5 677.5 Q106 697 132.5 708 Q159 719 189 719 Q219 719 245 708.5 Q271 698 290.5 679.5 Q310 661 321.5 634.5 Q333 608 333 575 Q333 545 321.5 519 Q310 493 290.5 473.5 Q271 454 245 442.5 Q219 431 189 431 Q159 431 132.5 441.5 Q106 452 86.5 470.5 Q67 489 56 515.5 Q45 542 45 575 Z M75 575 Q75 523 107.5 491 Q140 459 189 459 Q213 459 233.5 468 Q254 477 269.5 492.5 Q285 508 293.5 529 Q302 550 302 575 Q302 626 269.5 658.5 Q237 691 189 691 Q165 691 144 682 Q123 673 107.5 657.5 Q92 642 83.5 620.5 Q75 599 75 575 Z M477 144 Q477 120 485.5 98.5 Q494 77 509.5 61.5 Q525 46 546 37 Q567 28 591 28 Q615 28 635.5 37 Q656 46 671.5 61.5 Q687 77 695.5 98.5 Q704 120 704 144 Q704 168 695.5 189 Q687 210 671.5 225.5 Q656 241 635.5 250.5 Q615 260 591 260 Q567 260 546 250.5 Q525 241 509.5 225.5 Q494 210 485.5 189 Q477 168 477 144 Z M735 144 Q735 120 743.5 98.5 Q752 77 767.5 61.5 Q783 46 804 37 Q825 28 849 28 Q873 28 893.5 37 Q914 46 929.5 61.5 Q945 77 953.5 98.5 Q962 120 962 144 Q962 168 953.5 189 Q945 210 929.5 225.5 Q914 241 893.5 250.5 Q873 260 849 260 Q825 260 804 250.5 Q783 241 768 225 Q753 209 744 188 Q735 167 735 144 Z M591 720 L628 720 L190 0 L154 0 L591 720 Z " />
<glyph glyph-name="percent" unicode="&#x25;" horiz-adv-x="794" d="M477 144 Q477 120 485.5 98.5 Q494 77 509.5 61.5 Q525 46 546 37 Q567 28 591 28 Q615 28 635.5 37 Q656 46 671.5 61.5 Q687 77 695.5 98.5 Q704 120 704 144 Q704 168 695.5 189 Q687 210 671.5 225.5 Q656 241 635.5 250.5 Q615 260 591 260 Q567 260 546 250.5 Q525 241 509.5 225.5 Q494 210 485.5 189 Q477 168 477 144 Z M447 144 Q447 174 458.5 200.5 Q470 227 489.5 246.5 Q509 266 535 277 Q561 288 591 288 Q621 288 647.5 277 Q674 266 693.5 246.5 Q713 227 724 200.5 Q735 174 735 144 Q735 114 724 87.5 Q713 61 693.5 41.5 Q674 22 647.5 11 Q621 0 591 0 Q561 0 535 11 Q509 22 489.5 41 Q470 60 458.5 86.5 Q447 113 447 144 Z M75 575 Q75 523 107.5 491 Q140 459 189 459 Q213 459 233.5 468 Q254 477 269.5 492.5 Q285 508 293.5 529 Q302 550 302 575 Q302 626 269.5 658.5 Q237 691 189 691 Q165 691 144 682 Q123 673 107.5 657.5 Q92 642 83.5 620.5 Q75 599 75 575 Z M45 575 Q45 605 56 631.5 Q67 658 86.5 677.5 Q106 697 132.5 708 Q159 719 189 719 Q219 719 245 708.5 Q271 698 290.5 679.5 Q310 661 321.5 634.5 Q333 608 333 575 Q333 545 321.5 519 Q310 493 290.5 473.5 Q271 454 245 442.5 Q219 431 189 431 Q159 431 132.5 441.5 Q106 452 86.5 470.5 Q67 489 56 515.5 Q45 542 45 575 Z M591 720 L628 720 L190 0 L154 0 L591 720 Z " />
<glyph glyph-name="fraction" unicode="&#x2044;" horiz-adv-x="127" d="M259 720 L294 720 L-141 -1 L-177 -1 L259 720 Z " />
<glyph glyph-name="zerosuperior" unicode="&#x2070;" horiz-adv-x="342" d="M35 581 Q35 668 70 719 Q105 770 171 770 Q237 770 272 719 Q307 668 307 581 Q307 493 272 443 Q237 393 171 393 Q105 393 70 443 Q35 493 35 581 Z M66 581 Q66 506 92.5 463.5 Q119 421 171 421 Q223 421 249.5 463 Q276 505 276 581 Q276 656 249.5 699 Q223 742 171 742 Q119 742 92.5 699 Q66 656 66 581 Z " />
<glyph glyph-name="onesuperior" unicode="&#xb9;" horiz-adv-x="240" d="M128 400 L128 722 Q104 708 78 698.5 Q52 689 23 684 L18 706 Q48 712 81.5 728 Q115 744 138 765 L157 765 L157 400 L128 400 Z " />
<glyph glyph-name="twosuperior" unicode="&#xb2;" horiz-adv-x="285" d="M16 418 L167 586 Q190 612 202 633.5 Q214 655 214 682 Q214 715 192 730 Q170 745 138 745 Q109 745 82.5 733.5 Q56 722 29 699 L14 716 Q38 739 71 754.5 Q104 770 139 770 Q189 770 216.5 746 Q244 722 244 682 Q244 655 230.5 628.5 Q217 602 194 576 L57 425 L251 425 L251 400 L16 400 L16 418 Z " />
<glyph glyph-name="threesuperior" unicode="&#xb3;" horiz-adv-x="305" d="M32 461 Q59 438 83 427.5 Q107 417 144 417 Q186 417 212 437 Q238 457 238 495 Q238 530 215 552 Q192 574 135 574 Q133 574 128.5 573.5 Q124 573 119 573 L108 573 L107 600 Q155 601 184.5 622 Q214 643 214 682 Q214 719 191.5 732.5 Q169 746 137 746 Q110 746 86.5 738.5 Q63 731 43 717 L32 737 Q52 751 78.5 760.5 Q105 770 140 770 Q185 770 214 749 Q243 728 243 683 Q243 651 223.5 625.5 Q204 600 169 591 Q197 589 216 580.5 Q235 572 246.5 559.5 Q258 547 262.5 531 Q267 515 267 497 Q267 447 232.5 420 Q198 393 144 393 Q66 393 16 443 L32 461 Z " />
<glyph glyph-name="foursuperior" unicode="&#x2074;" horiz-adv-x="313" d="M54 511 L212 511 L212 735 L54 511 Z M212 485 L20 485 L20 508 L201 765 L240 765 L240 511 L292 511 L292 485 L240 485 L240 400 L212 400 L212 485 Z " />
<glyph glyph-name="fivesuperior" unicode="&#x2075;" horiz-adv-x="317" d="M72 765 L258 765 L257 740 L97 740 L85 600 Q99 611 121 621 Q143 631 171 631 Q226 631 253.5 599 Q281 567 281 517 Q281 460 243.5 426.5 Q206 393 147 393 Q122 393 91.5 399.5 Q61 406 32 422 L44 446 Q70 433 94.5 426 Q119 419 142 419 Q190 419 220.5 443.5 Q251 468 251 517 Q251 554 230 579.5 Q209 605 167 605 Q135 605 115.5 593.5 Q96 582 82 569 L80 543 L55 543 L72 765 Z " />
<glyph glyph-name="sixsuperior" unicode="&#x2076;" horiz-adv-x="319" d="M44 556 Q44 667 82.5 718.5 Q121 770 190 770 Q212 770 234 763.5 Q256 757 276 743 L263 722 Q244 735 227.5 740 Q211 745 191 745 Q157 745 134.5 732 Q112 719 98.5 696 Q85 673 78.5 642.5 Q72 612 70 578 Q89 599 118 615.5 Q147 632 180 632 Q209 632 229.5 622.5 Q250 613 263.5 597 Q277 581 283 560.5 Q289 540 289 518 Q289 459 256 426 Q223 393 166 393 Q101 393 72.5 437 Q44 481 44 556 Z M168 417 Q205 417 232.5 440 Q260 463 260 517 Q260 564 235 585 Q210 606 177 606 Q159 606 143 600 Q127 594 114 585.5 Q101 577 90.5 567 Q80 557 72 548 Q74 477 99 447 Q124 417 168 417 Z " />
<glyph glyph-name="sevensuperior" unicode="&#x2077;" horiz-adv-x="269" d="M86 400 L57 400 L57 403 L216 740 L10 740 L10 765 L249 765 L249 746 L86 400 Z " />
<glyph glyph-name="eightsuperior" unicode="&#x2078;" horiz-adv-x="316" d="M67 488 Q67 456 92 437 Q117 418 160 418 Q202 418 228 438.5 Q254 459 254 497 Q254 516 246 530 Q238 544 224.5 553.5 Q211 563 194 569.5 Q177 576 159 581 Q143 575 126.5 567.5 Q110 560 97 549 Q84 538 75.5 523.5 Q67 509 67 488 Z M83 682 Q83 667 90 656 Q97 645 108.5 637 Q120 629 133.5 622.5 Q147 616 161 611 Q173 616 186.5 623 Q200 630 211.5 639 Q223 648 230.5 659.5 Q238 671 238 686 Q238 715 216 731 Q194 747 160 747 Q125 747 104 730.5 Q83 714 83 682 Z M36 490 Q36 529 63 554.5 Q90 580 136 597 Q94 611 73.5 631 Q53 651 53 683 Q53 724 83 747 Q113 770 160 770 Q209 770 238.5 748.5 Q268 727 268 688 Q268 659 245.5 636 Q223 613 188 598 Q239 579 262 556.5 Q285 534 285 497 Q285 449 251.5 421 Q218 393 160 393 Q100 393 68 419 Q36 445 36 490 Z " />
<glyph glyph-name="ninesuperior" unicode="&#x2079;" horiz-adv-x="317" d="M277 607 Q277 495 238.5 444 Q200 393 131 393 Q109 393 87 399.5 Q65 406 45 420 L58 443 Q74 432 92.5 425.5 Q111 419 134 419 Q166 419 187.5 432 Q209 445 222 467 Q235 489 241.5 519 Q248 549 250 584 Q230 553 202 538.5 Q174 524 141 524 Q113 524 92.5 534.5 Q72 545 58.5 562.5 Q45 580 38.5 601.5 Q32 623 32 645 Q32 704 65 737 Q98 770 155 770 Q220 770 248.5 726 Q277 682 277 607 Z M153 745 Q116 745 88.5 722.5 Q61 700 61 646 Q61 599 84.5 574 Q108 549 146 549 Q164 549 179.5 555.5 Q195 562 208 572 Q221 582 231.5 594 Q242 606 250 617 Q248 683 222.5 714 Q197 745 153 745 Z " />
<glyph glyph-name="zeroinferior" unicode="&#x2080;" horiz-adv-x="342" d="M35 86 Q35 173 70 224 Q105 275 171 275 Q237 275 272 224 Q307 173 307 86 Q307 -2 272 -52 Q237 -102 171 -102 Q105 -102 70 -52 Q35 -2 35 86 Z M66 86 Q66 11 92.5 -31.5 Q119 -74 171 -74 Q223 -74 249.5 -32 Q276 10 276 86 Q276 161 249.5 204 Q223 247 171 247 Q119 247 92.5 204 Q66 161 66 86 Z " />
<glyph glyph-name="oneinferior" unicode="&#x2081;" horiz-adv-x="240" d="M128 -95 L128 227 Q104 213 78 203.5 Q52 194 23 189 L18 211 Q48 217 81.5 233 Q115 249 138 270 L157 270 L157 -95 L128 -95 Z " />
<glyph glyph-name="twoinferior" unicode="&#x2082;" horiz-adv-x="285" d="M16 -77 L167 91 Q190 117 202 138.5 Q214 160 214 187 Q214 220 192 235 Q170 250 138 250 Q109 250 82.5 238.5 Q56 227 29 204 L14 221 Q38 244 71 259.5 Q104 275 139 275 Q189 275 216.5 251 Q244 227 244 187 Q244 160 230.5 133.5 Q217 107 194 81 L57 -70 L251 -70 L251 -95 L16 -95 L16 -77 Z " />
<glyph glyph-name="threeinferior" unicode="&#x2083;" horiz-adv-x="305" d="M32 -34 Q59 -57 83 -67.5 Q107 -78 144 -78 Q186 -78 212 -58 Q238 -38 238 0 Q238 35 215 57 Q192 79 135 79 Q133 79 128.5 78.5 Q124 78 119 78 L108 78 L107 105 Q155 106 184.5 127 Q214 148 214 187 Q214 224 191.5 237.5 Q169 251 137 251 Q110 251 86.5 243.5 Q63 236 43 222 L32 242 Q52 256 78.5 265.5 Q105 275 140 275 Q185 275 214 254 Q243 233 243 188 Q243 156 223.5 130.5 Q204 105 169 96 Q197 94 216 85.5 Q235 77 246.5 64.5 Q258 52 262.5 36 Q267 20 267 2 Q267 -48 232.5 -75 Q198 -102 144 -102 Q66 -102 16 -52 L32 -34 Z " />
<glyph glyph-name="fourinferior" unicode="&#x2084;" horiz-adv-x="313" d="M54 16 L212 16 L212 240 L54 16 Z M212 -10 L20 -10 L20 13 L201 270 L240 270 L240 16 L292 16 L292 -10 L240 -10 L240 -95 L212 -95 L212 -10 Z " />
<glyph glyph-name="fiveinferior" unicode="&#x2085;" horiz-adv-x="317" d="M72 270 L258 270 L257 245 L97 245 L85 105 Q99 116 121 126 Q143 136 171 136 Q226 136 253.5 104 Q281 72 281 22 Q281 -35 243.5 -68.5 Q206 -102 147 -102 Q122 -102 91.5 -95.5 Q61 -89 32 -73 L44 -49 Q70 -62 94.5 -69 Q119 -76 142 -76 Q190 -76 220.5 -51.5 Q251 -27 251 22 Q251 59 230 84.5 Q209 110 167 110 Q135 110 115.5 98.5 Q96 87 82 74 L80 48 L55 48 L72 270 Z " />
<glyph glyph-name="sixinferior" unicode="&#x2086;" horiz-adv-x="319" d="M44 61 Q44 172 82.5 223.5 Q121 275 190 275 Q212 275 234 268.5 Q256 262 276 248 L263 227 Q244 240 227.5 245 Q211 250 191 250 Q157 250 134.5 237 Q112 224 98.5 201 Q85 178 78.5 147.5 Q72 117 70 83 Q89 104 118 120.5 Q147 137 180 137 Q209 137 229.5 127.5 Q250 118 263.5 102 Q277 86 283 65.5 Q289 45 289 23 Q289 -36 256 -69 Q223 -102 166 -102 Q101 -102 72.5 -58 Q44 -14 44 61 Z M168 -78 Q205 -78 232.5 -55 Q260 -32 260 22 Q260 69 235 90 Q210 111 177 111 Q159 111 143 105 Q127 99 114 90.5 Q101 82 90.5 72 Q80 62 72 53 Q74 -18 99 -48 Q124 -78 168 -78 Z " />
<glyph glyph-name="seveninferior" unicode="&#x2087;" horiz-adv-x="269" d="M86 -95 L57 -95 L57 -92 L216 245 L10 245 L10 270 L249 270 L249 251 L86 -95 Z " />
<glyph glyph-name="eightinferior" unicode="&#x2088;" horiz-adv-x="316" d="M67 -7 Q67 -39 92 -58 Q117 -77 160 -77 Q202 -77 228 -56.5 Q254 -36 254 2 Q254 21 246 35 Q238 49 224.5 58.5 Q211 68 194 74.5 Q177 81 159 86 Q143 80 126.5 72.5 Q110 65 97 54 Q84 43 75.5 28.5 Q67 14 67 -7 Z M83 187 Q83 172 90 161 Q97 150 108.5 142 Q120 134 133.5 127.5 Q147 121 161 116 Q173 121 186.5 128 Q200 135 211.5 144 Q223 153 230.5 164.5 Q238 176 238 191 Q238 220 216 236 Q194 252 160 252 Q125 252 104 235.5 Q83 219 83 187 Z M36 -5 Q36 34 63 59.5 Q90 85 136 102 Q94 116 73.5 136 Q53 156 53 188 Q53 229 83 252 Q113 275 160 275 Q209 275 238.5 253.5 Q268 232 268 193 Q268 164 245.5 141 Q223 118 188 103 Q239 84 262 61.5 Q285 39 285 2 Q285 -46 251.5 -74 Q218 -102 160 -102 Q100 -102 68 -76 Q36 -50 36 -5 Z " />
<glyph glyph-name="nineinferior" unicode="&#x2089;" horiz-adv-x="317" d="M277 112 Q277 0 238.5 -51 Q200 -102 131 -102 Q109 -102 87 -95.5 Q65 -89 45 -75 L58 -52 Q74 -63 92.5 -69.5 Q111 -76 134 -76 Q166 -76 187.5 -63 Q209 -50 222 -28 Q235 -6 241.5 24 Q248 54 250 89 Q230 58 202 43.5 Q174 29 141 29 Q113 29 92.5 39.5 Q72 50 58.5 67.5 Q45 85 38.5 106.5 Q32 128 32 150 Q32 209 65 242 Q98 275 155 275 Q220 275 248.5 231 Q277 187 277 112 Z M153 250 Q116 250 88.5 227.5 Q61 205 61 151 Q61 104 84.5 79 Q108 54 146 54 Q164 54 179.5 60.5 Q195 67 208 77 Q221 87 231.5 99 Q242 111 250 122 Q248 188 222.5 219 Q197 250 153 250 Z " />
<glyph glyph-name="onehalf" unicode="&#xbd;" horiz-adv-x="800" d="M153 351 L153 673 Q129 659 103 649.5 Q77 640 48 635 L43 657 Q73 663 106.5 679 Q140 695 163 716 L182 716 L182 351 L153 351 Z M524 720 L559 720 L124 -1 L88 -1 L524 720 Z M436 19 L587 187 Q610 213 622 234.5 Q634 256 634 283 Q634 316 612 331 Q590 346 558 346 Q529 346 502.5 334.5 Q476 323 449 300 L434 317 Q458 340 491 355.5 Q524 371 559 371 Q609 371 636.5 347 Q664 323 664 283 Q664 256 650.5 229.5 Q637 203 614 177 L477 26 L671 26 L671 1 L436 1 L436 19 Z " />
<glyph glyph-name="onequarter" unicode="&#xbc;" horiz-adv-x="800" d="M158 351 L158 673 Q134 659 108 649.5 Q82 640 53 635 L48 657 Q78 663 111.5 679 Q145 695 168 716 L187 716 L187 351 L158 351 Z M569 720 L604 720 L169 -1 L133 -1 L569 720 Z M479 112 L637 112 L637 336 L479 112 Z M637 86 L445 86 L445 109 L626 366 L665 366 L665 112 L717 112 L717 86 L665 86 L665 1 L637 1 L637 86 Z " />
<glyph glyph-name="threequarters" unicode="&#xbe;" horiz-adv-x="800" d="M97 412 Q124 389 148 378.5 Q172 368 209 368 Q251 368 277 388 Q303 408 303 446 Q303 481 280 503 Q257 525 200 525 Q198 525 193.5 524.5 Q189 524 184 524 L173 524 L172 551 Q220 552 249.5 573 Q279 594 279 633 Q279 670 256.5 683.5 Q234 697 202 697 Q175 697 151.5 689.5 Q128 682 108 668 L97 688 Q117 702 143.5 711.5 Q170 721 205 721 Q250 721 279 700 Q308 679 308 634 Q308 602 288.5 576.5 Q269 551 234 542 Q262 540 281 531.5 Q300 523 311.5 510.5 Q323 498 327.5 482 Q332 466 332 448 Q332 398 297.5 371 Q263 344 209 344 Q131 344 81 394 L97 412 Z M629 720 L664 720 L229 -1 L193 -1 L629 720 Z M514 112 L672 112 L672 336 L514 112 Z M672 86 L480 86 L480 109 L661 366 L700 366 L700 112 L752 112 L752 86 L700 86 L700 1 L672 1 L672 86 Z " />
<glyph glyph-name="onethird" unicode="&#x2153;" horiz-adv-x="800" d="M128 351 L128 673 Q104 659 78 649.5 Q52 640 23 635 L18 657 Q48 663 81.5 679 Q115 695 138 716 L157 716 L157 351 L128 351 Z M529 720 L564 720 L129 -1 L93 -1 L529 720 Z M477 62 Q504 39 528 28.5 Q552 18 589 18 Q631 18 657 38 Q683 58 683 96 Q683 131 660 153 Q637 175 580 175 Q578 175 573.5 174.5 Q569 174 564 174 L553 174 L552 201 Q600 202 629.5 223 Q659 244 659 283 Q659 320 636.5 333.5 Q614 347 582 347 Q555 347 531.5 339.5 Q508 332 488 318 L477 338 Q497 352 523.5 361.5 Q550 371 585 371 Q630 371 659 350 Q688 329 688 284 Q688 252 668.5 226.5 Q649 201 614 192 Q642 190 661 181.5 Q680 173 691.5 160.5 Q703 148 707.5 132 Q712 116 712 98 Q712 48 677.5 21 Q643 -6 589 -6 Q511 -6 461 44 L477 62 Z " />
<glyph glyph-name="twothirds" unicode="&#x2154;" horiz-adv-x="800" d="M51 369 L202 537 Q225 563 237 584.5 Q249 606 249 633 Q249 666 227 681 Q205 696 173 696 Q144 696 117.5 684.5 Q91 673 64 650 L49 667 Q73 690 106 705.5 Q139 721 174 721 Q224 721 251.5 697 Q279 673 279 633 Q279 606 265.5 579.5 Q252 553 229 527 L92 376 L286 376 L286 351 L51 351 L51 369 Z M611 720 L646 720 L211 -1 L175 -1 L611 720 Z M535 62 Q562 39 586 28.5 Q610 18 647 18 Q689 18 715 38 Q741 58 741 96 Q741 131 718 153 Q695 175 638 175 Q636 175 631.5 174.5 Q627 174 622 174 L611 174 L610 201 Q658 202 687.5 223 Q717 244 717 283 Q717 320 694.5 333.5 Q672 347 640 347 Q613 347 589.5 339.5 Q566 332 546 318 L535 338 Q555 352 581.5 361.5 Q608 371 643 371 Q688 371 717 350 Q746 329 746 284 Q746 252 726.5 226.5 Q707 201 672 192 Q700 190 719 181.5 Q738 173 749.5 160.5 Q761 148 765.5 132 Q770 116 770 98 Q770 48 735.5 21 Q701 -6 647 -6 Q569 -6 519 44 L535 62 Z " />
<glyph glyph-name="onefifth" unicode="&#xf500;" horiz-adv-x="800" d="M158 351 L158 673 Q134 659 108 649.5 Q82 640 53 635 L48 657 Q78 663 111.5 679 Q145 695 168 716 L187 716 L187 351 L158 351 Z M539 720 L574 720 L139 -1 L103 -1 L539 720 Z M497 366 L683 366 L682 341 L522 341 L510 201 Q524 212 546 222 Q568 232 596 232 Q651 232 678.5 200 Q706 168 706 118 Q706 61 668.5 27.5 Q631 -6 572 -6 Q547 -6 516.5 0.5 Q486 7 457 23 L469 47 Q495 34 519.5 27 Q544 20 567 20 Q615 20 645.5 44.5 Q676 69 676 118 Q676 155 655 180.5 Q634 206 592 206 Q560 206 540.5 194.5 Q521 183 507 170 L505 144 L480 144 L497 366 Z " />
<glyph glyph-name="twofifths" unicode="&#xf501;" horiz-adv-x="800" d="M46 369 L197 537 Q220 563 232 584.5 Q244 606 244 633 Q244 666 222 681 Q200 696 168 696 Q139 696 112.5 684.5 Q86 673 59 650 L44 667 Q68 690 101 705.5 Q134 721 169 721 Q219 721 246.5 697 Q274 673 274 633 Q274 606 260.5 579.5 Q247 553 224 527 L87 376 L281 376 L281 351 L46 351 L46 369 Z M594 720 L629 720 L194 -1 L158 -1 L594 720 Z M531 366 L717 366 L716 341 L556 341 L544 201 Q558 212 580 222 Q602 232 630 232 Q685 232 712.5 200 Q740 168 740 118 Q740 61 702.5 27.5 Q665 -6 606 -6 Q581 -6 550.5 0.5 Q520 7 491 23 L503 47 Q529 34 553.5 27 Q578 20 601 20 Q649 20 679.5 44.5 Q710 69 710 118 Q710 155 689 180.5 Q668 206 626 206 Q594 206 574.5 194.5 Q555 183 541 170 L539 144 L514 144 L531 366 Z " />
<glyph glyph-name="threefifths" unicode="&#xf502;" horiz-adv-x="800" d="M82 412 Q109 389 133 378.5 Q157 368 194 368 Q236 368 262 388 Q288 408 288 446 Q288 481 265 503 Q242 525 185 525 Q183 525 178.5 524.5 Q174 524 169 524 L158 524 L157 551 Q205 552 234.5 573 Q264 594 264 633 Q264 670 241.5 683.5 Q219 697 187 697 Q160 697 136.5 689.5 Q113 682 93 668 L82 688 Q102 702 128.5 711.5 Q155 721 190 721 Q235 721 264 700 Q293 679 293 634 Q293 602 273.5 576.5 Q254 551 219 542 Q247 540 266 531.5 Q285 523 296.5 510.5 Q308 498 312.5 482 Q317 466 317 448 Q317 398 282.5 371 Q248 344 194 344 Q116 344 66 394 L82 412 Z M614 720 L649 720 L214 -1 L178 -1 L614 720 Z M550 366 L736 366 L735 341 L575 341 L563 201 Q577 212 599 222 Q621 232 649 232 Q704 232 731.5 200 Q759 168 759 118 Q759 61 721.5 27.5 Q684 -6 625 -6 Q600 -6 569.5 0.5 Q539 7 510 23 L522 47 Q548 34 572.5 27 Q597 20 620 20 Q668 20 698.5 44.5 Q729 69 729 118 Q729 155 708 180.5 Q687 206 645 206 Q613 206 593.5 194.5 Q574 183 560 170 L558 144 L533 144 L550 366 Z " />
<glyph glyph-name="fourfifths" unicode="&#xf503;" horiz-adv-x="800" d="M54 462 L212 462 L212 686 L54 462 Z M212 436 L20 436 L20 459 L201 716 L240 716 L240 462 L292 462 L292 436 L240 436 L240 351 L212 351 L212 436 Z M593 720 L628 720 L193 -1 L157 -1 L593 720 Z M538 366 L724 366 L723 341 L563 341 L551 201 Q565 212 587 222 Q609 232 637 232 Q692 232 719.5 200 Q747 168 747 118 Q747 61 709.5 27.5 Q672 -6 613 -6 Q588 -6 557.5 0.5 Q527 7 498 23 L510 47 Q536 34 560.5 27 Q585 20 608 20 Q656 20 686.5 44.5 Q717 69 717 118 Q717 155 696 180.5 Q675 206 633 206 Q601 206 581.5 194.5 Q562 183 548 170 L546 144 L521 144 L538 366 Z " />
<glyph glyph-name="onesixth" unicode="&#xf504;" horiz-adv-x="800" d="M158 351 L158 673 Q134 659 108 649.5 Q82 640 53 635 L48 657 Q78 663 111.5 679 Q145 695 168 716 L187 716 L187 351 L158 351 Z M550 720 L585 720 L150 -1 L114 -1 L550 720 Z M465 157 Q465 268 503.5 319.5 Q542 371 611 371 Q633 371 655 364.5 Q677 358 697 344 L684 323 Q665 336 648.5 341 Q632 346 612 346 Q578 346 555.5 333 Q533 320 519.5 297 Q506 274 499.5 243.5 Q493 213 491 179 Q510 200 539 216.5 Q568 233 601 233 Q630 233 650.5 223.5 Q671 214 684.5 198 Q698 182 704 161.5 Q710 141 710 119 Q710 60 677 27 Q644 -6 587 -6 Q522 -6 493.5 38 Q465 82 465 157 Z M589 18 Q626 18 653.5 41 Q681 64 681 118 Q681 165 656 186 Q631 207 598 207 Q580 207 564 201 Q548 195 535 186.5 Q522 178 511.5 168 Q501 158 493 149 Q495 78 520 48 Q545 18 589 18 Z " />
<glyph glyph-name="fivesixths" unicode="&#xf505;" horiz-adv-x="800" d="M92 716 L278 716 L277 691 L117 691 L105 551 Q119 562 141 572 Q163 582 191 582 Q246 582 273.5 550 Q301 518 301 468 Q301 411 263.5 377.5 Q226 344 167 344 Q142 344 111.5 350.5 Q81 357 52 373 L64 397 Q90 384 114.5 377 Q139 370 162 370 Q210 370 240.5 394.5 Q271 419 271 468 Q271 505 250 530.5 Q229 556 187 556 Q155 556 135.5 544.5 Q116 533 102 520 L100 494 L75 494 L92 716 Z M596 720 L631 720 L196 -1 L160 -1 L596 720 Z M489 157 Q489 268 527.5 319.5 Q566 371 635 371 Q657 371 679 364.5 Q701 358 721 344 L708 323 Q689 336 672.5 341 Q656 346 636 346 Q602 346 579.5 333 Q557 320 543.5 297 Q530 274 523.5 243.5 Q517 213 515 179 Q534 200 563 216.5 Q592 233 625 233 Q654 233 674.5 223.5 Q695 214 708.5 198 Q722 182 728 161.5 Q734 141 734 119 Q734 60 701 27 Q668 -6 611 -6 Q546 -6 517.5 38 Q489 82 489 157 Z M613 18 Q650 18 677.5 41 Q705 64 705 118 Q705 165 680 186 Q655 207 622 207 Q604 207 588 201 Q572 195 559 186.5 Q546 178 535.5 168 Q525 158 517 149 Q519 78 544 48 Q569 18 613 18 Z " />
<glyph glyph-name="oneeighth" unicode="&#x215b;" horiz-adv-x="800" d="M158 351 L158 673 Q134 659 108 649.5 Q82 640 53 635 L48 657 Q78 663 111.5 679 Q145 695 168 716 L187 716 L187 351 L158 351 Z M552 720 L587 720 L152 -1 L116 -1 L552 720 Z M492 89 Q492 57 517 38 Q542 19 585 19 Q627 19 653 39.5 Q679 60 679 98 Q679 117 671 131 Q663 145 649.5 154.5 Q636 164 619 170.5 Q602 177 584 182 Q568 176 551.5 168.5 Q535 161 522 150 Q509 139 500.5 124.5 Q492 110 492 89 Z M508 283 Q508 268 515 257 Q522 246 533.5 238 Q545 230 558.5 223.5 Q572 217 586 212 Q598 217 611.5 224 Q625 231 636.5 240 Q648 249 655.5 260.5 Q663 272 663 287 Q663 316 641 332 Q619 348 585 348 Q550 348 529 331.5 Q508 315 508 283 Z M461 91 Q461 130 488 155.5 Q515 181 561 198 Q519 212 498.5 232 Q478 252 478 284 Q478 325 508 348 Q538 371 585 371 Q634 371 663.5 349.5 Q693 328 693 289 Q693 260 670.5 237 Q648 214 613 199 Q664 180 687 157.5 Q710 135 710 98 Q710 50 676.5 22 Q643 -6 585 -6 Q525 -6 493 20 Q461 46 461 91 Z " />
<glyph glyph-name="threeeighths" unicode="&#x215c;" horiz-adv-x="800" d="M52 412 Q79 389 103 378.5 Q127 368 164 368 Q206 368 232 388 Q258 408 258 446 Q258 481 235 503 Q212 525 155 525 Q153 525 148.5 524.5 Q144 524 139 524 L128 524 L127 551 Q175 552 204.5 573 Q234 594 234 633 Q234 670 211.5 683.5 Q189 697 157 697 Q130 697 106.5 689.5 Q83 682 63 668 L52 688 Q72 702 98.5 711.5 Q125 721 160 721 Q205 721 234 700 Q263 679 263 634 Q263 602 243.5 576.5 Q224 551 189 542 Q217 540 236 531.5 Q255 523 266.5 510.5 Q278 498 282.5 482 Q287 466 287 448 Q287 398 252.5 371 Q218 344 164 344 Q86 344 36 394 L52 412 Z M596 720 L631 720 L196 -1 L160 -1 L596 720 Z M526 89 Q526 57 551 38 Q576 19 619 19 Q661 19 687 39.5 Q713 60 713 98 Q713 117 705 131 Q697 145 683.5 154.5 Q670 164 653 170.5 Q636 177 618 182 Q602 176 585.5 168.5 Q569 161 556 150 Q543 139 534.5 124.5 Q526 110 526 89 Z M542 283 Q542 268 549 257 Q556 246 567.5 238 Q579 230 592.5 223.5 Q606 217 620 212 Q632 217 645.5 224 Q659 231 670.5 240 Q682 249 689.5 260.5 Q697 272 697 287 Q697 316 675 332 Q653 348 619 348 Q584 348 563 331.5 Q542 315 542 283 Z M495 91 Q495 130 522 155.5 Q549 181 595 198 Q553 212 532.5 232 Q512 252 512 284 Q512 325 542 348 Q572 371 619 371 Q668 371 697.5 349.5 Q727 328 727 289 Q727 260 704.5 237 Q682 214 647 199 Q698 180 721 157.5 Q744 135 744 98 Q744 50 710.5 22 Q677 -6 619 -6 Q559 -6 527 20 Q495 46 495 91 Z " />
<glyph glyph-name="fiveeighths" unicode="&#x215d;" horiz-adv-x="800" d="M87 716 L273 716 L272 691 L112 691 L100 551 Q114 562 136 572 Q158 582 186 582 Q241 582 268.5 550 Q296 518 296 468 Q296 411 258.5 377.5 Q221 344 162 344 Q137 344 106.5 350.5 Q76 357 47 373 L59 397 Q85 384 109.5 377 Q134 370 157 370 Q205 370 235.5 394.5 Q266 419 266 468 Q266 505 245 530.5 Q224 556 182 556 Q150 556 130.5 544.5 Q111 533 97 520 L95 494 L70 494 L87 716 Z M605 720 L640 720 L205 -1 L169 -1 L605 720 Z M537 89 Q537 57 562 38 Q587 19 630 19 Q672 19 698 39.5 Q724 60 724 98 Q724 117 716 131 Q708 145 694.5 154.5 Q681 164 664 170.5 Q647 177 629 182 Q613 176 596.5 168.5 Q580 161 567 150 Q554 139 545.5 124.5 Q537 110 537 89 Z M553 283 Q553 268 560 257 Q567 246 578.5 238 Q590 230 603.5 223.5 Q617 217 631 212 Q643 217 656.5 224 Q670 231 681.5 240 Q693 249 700.5 260.5 Q708 272 708 287 Q708 316 686 332 Q664 348 630 348 Q595 348 574 331.5 Q553 315 553 283 Z M506 91 Q506 130 533 155.5 Q560 181 606 198 Q564 212 543.5 232 Q523 252 523 284 Q523 325 553 348 Q583 371 630 371 Q679 371 708.5 349.5 Q738 328 738 289 Q738 260 715.5 237 Q693 214 658 199 Q709 180 732 157.5 Q755 135 755 98 Q755 50 721.5 22 Q688 -6 630 -6 Q570 -6 538 20 Q506 46 506 91 Z " />
<glyph glyph-name="seveneighths" unicode="&#x215e;" horiz-adv-x="800" d="M126 351 L97 351 L97 354 L256 691 L50 691 L50 716 L289 716 L289 697 L126 351 Z M568 720 L603 720 L168 -1 L132 -1 L568 720 Z M518 89 Q518 57 543 38 Q568 19 611 19 Q653 19 679 39.5 Q705 60 705 98 Q705 117 697 131 Q689 145 675.5 154.5 Q662 164 645 170.5 Q628 177 610 182 Q594 176 577.5 168.5 Q561 161 548 150 Q535 139 526.5 124.5 Q518 110 518 89 Z M534 283 Q534 268 541 257 Q548 246 559.5 238 Q571 230 584.5 223.5 Q598 217 612 212 Q624 217 637.5 224 Q651 231 662.5 240 Q674 249 681.5 260.5 Q689 272 689 287 Q689 316 667 332 Q645 348 611 348 Q576 348 555 331.5 Q534 315 534 283 Z M487 91 Q487 130 514 155.5 Q541 181 587 198 Q545 212 524.5 232 Q504 252 504 284 Q504 325 534 348 Q564 371 611 371 Q660 371 689.5 349.5 Q719 328 719 289 Q719 260 696.5 237 Q674 214 639 199 Q690 180 713 157.5 Q736 135 736 98 Q736 50 702.5 22 Q669 -6 611 -6 Q551 -6 519 20 Q487 46 487 91 Z " />
<glyph glyph-name="oneseventh" unicode="&#xf506;" horiz-adv-x="800" d="M145 351 L145 673 Q121 659 95 649.5 Q69 640 40 635 L35 657 Q65 663 98.5 679 Q132 695 155 716 L174 716 L174 351 L145 351 Z M542 720 L577 720 L142 -1 L106 -1 L542 720 Z M568 1 L539 1 L539 4 L698 341 L492 341 L492 366 L731 366 L731 347 L568 1 Z " />
<glyph glyph-name="twosevenths" unicode="&#xf507;" horiz-adv-x="800" d="M51 369 L202 537 Q225 563 237 584.5 Q249 606 249 633 Q249 666 227 681 Q205 696 173 696 Q144 696 117.5 684.5 Q91 673 64 650 L49 667 Q73 690 106 705.5 Q139 721 174 721 Q224 721 251.5 697 Q279 673 279 633 Q279 606 265.5 579.5 Q252 553 229 527 L92 376 L286 376 L286 351 L51 351 L51 369 Z M606 720 L641 720 L206 -1 L170 -1 L606 720 Z M588 1 L559 1 L559 4 L718 341 L512 341 L512 366 L751 366 L751 347 L588 1 Z " />
<glyph glyph-name="threesevenths" unicode="&#xf508;" horiz-adv-x="800" d="M55 412 Q82 389 106 378.5 Q130 368 167 368 Q209 368 235 388 Q261 408 261 446 Q261 481 238 503 Q215 525 158 525 Q156 525 151.5 524.5 Q147 524 142 524 L131 524 L130 551 Q178 552 207.5 573 Q237 594 237 633 Q237 670 214.5 683.5 Q192 697 160 697 Q133 697 109.5 689.5 Q86 682 66 668 L55 688 Q75 702 101.5 711.5 Q128 721 163 721 Q208 721 237 700 Q266 679 266 634 Q266 602 246.5 576.5 Q227 551 192 542 Q220 540 239 531.5 Q258 523 269.5 510.5 Q281 498 285.5 482 Q290 466 290 448 Q290 398 255.5 371 Q221 344 167 344 Q89 344 39 394 L55 412 Z M597 720 L632 720 L197 -1 L161 -1 L597 720 Z M600 1 L571 1 L571 4 L730 341 L524 341 L524 366 L763 366 L763 347 L600 1 Z " />
<glyph glyph-name="foursevenths" unicode="&#xf509;" horiz-adv-x="800" d="M71 462 L229 462 L229 686 L71 462 Z M229 436 L37 436 L37 459 L218 716 L257 716 L257 462 L309 462 L309 436 L257 436 L257 351 L229 351 L229 436 Z M589 720 L624 720 L189 -1 L153 -1 L589 720 Z M589 1 L560 1 L560 4 L719 341 L513 341 L513 366 L752 366 L752 347 L589 1 Z " />
<glyph glyph-name="fivesevenths" unicode="&#xf50a;" horiz-adv-x="800" d="M99 716 L285 716 L284 691 L124 691 L112 551 Q126 562 148 572 Q170 582 198 582 Q253 582 280.5 550 Q308 518 308 468 Q308 411 270.5 377.5 Q233 344 174 344 Q149 344 118.5 350.5 Q88 357 59 373 L71 397 Q97 384 121.5 377 Q146 370 169 370 Q217 370 247.5 394.5 Q278 419 278 468 Q278 505 257 530.5 Q236 556 194 556 Q162 556 142.5 544.5 Q123 533 109 520 L107 494 L82 494 L99 716 Z M603 720 L638 720 L203 -1 L167 -1 L603 720 Z M605 1 L576 1 L576 4 L735 341 L529 341 L529 366 L768 366 L768 347 L605 1 Z " />
<glyph glyph-name="sixsevenths" unicode="&#xf50b;" horiz-adv-x="800" d="M41 507 Q41 618 79.5 669.5 Q118 721 187 721 Q209 721 231 714.5 Q253 708 273 694 L260 673 Q241 686 224.5 691 Q208 696 188 696 Q154 696 131.5 683 Q109 670 95.5 647 Q82 624 75.5 593.5 Q69 563 67 529 Q86 550 115 566.5 Q144 583 177 583 Q206 583 226.5 573.5 Q247 564 260.5 548 Q274 532 280 511.5 Q286 491 286 469 Q286 410 253 377 Q220 344 163 344 Q98 344 69.5 388 Q41 432 41 507 Z M165 368 Q202 368 229.5 391 Q257 414 257 468 Q257 515 232 536 Q207 557 174 557 Q156 557 140 551 Q124 545 111 536.5 Q98 528 87.5 518 Q77 508 69 499 Q71 428 96 398 Q121 368 165 368 Z M578 720 L613 720 L178 -1 L142 -1 L578 720 Z M589 1 L560 1 L560 4 L719 341 L513 341 L513 366 L752 366 L752 347 L589 1 Z " />
<glyph glyph-name="oneninth" unicode="&#xf50c;" horiz-adv-x="800" d="M147 351 L147 673 Q123 659 97 649.5 Q71 640 42 635 L37 657 Q67 663 100.5 679 Q134 695 157 716 L176 716 L176 351 L147 351 Z M552 720 L587 720 L152 -1 L116 -1 L552 720 Z M723 208 Q723 96 684.5 45 Q646 -6 577 -6 Q555 -6 533 0.5 Q511 7 491 21 L504 44 Q520 33 538.5 26.5 Q557 20 580 20 Q612 20 633.5 33 Q655 46 668 68 Q681 90 687.5 120 Q694 150 696 185 Q676 154 648 139.5 Q620 125 587 125 Q559 125 538.5 135.5 Q518 146 504.5 163.5 Q491 181 484.5 202.5 Q478 224 478 246 Q478 305 511 338 Q544 371 601 371 Q666 371 694.5 327 Q723 283 723 208 Z M599 346 Q562 346 534.5 323.5 Q507 301 507 247 Q507 200 530.5 175 Q554 150 592 150 Q610 150 625.5 156.5 Q641 163 654 173 Q667 183 677.5 195 Q688 207 696 218 Q694 284 668.5 315 Q643 346 599 346 Z " />
<glyph glyph-name="twoninths" unicode="&#xf50d;" horiz-adv-x="800" d="M56 369 L207 537 Q230 563 242 584.5 Q254 606 254 633 Q254 666 232 681 Q210 696 178 696 Q149 696 122.5 684.5 Q96 673 69 650 L54 667 Q78 690 111 705.5 Q144 721 179 721 Q229 721 256.5 697 Q284 673 284 633 Q284 606 270.5 579.5 Q257 553 234 527 L97 376 L291 376 L291 351 L56 351 L56 369 Z M628 720 L663 720 L228 -1 L192 -1 L628 720 Z M763 208 Q763 96 724.5 45 Q686 -6 617 -6 Q595 -6 573 0.5 Q551 7 531 21 L544 44 Q560 33 578.5 26.5 Q597 20 620 20 Q652 20 673.5 33 Q695 46 708 68 Q721 90 727.5 120 Q734 150 736 185 Q716 154 688 139.5 Q660 125 627 125 Q599 125 578.5 135.5 Q558 146 544.5 163.5 Q531 181 524.5 202.5 Q518 224 518 246 Q518 305 551 338 Q584 371 641 371 Q706 371 734.5 327 Q763 283 763 208 Z M639 346 Q602 346 574.5 323.5 Q547 301 547 247 Q547 200 570.5 175 Q594 150 632 150 Q650 150 665.5 156.5 Q681 163 694 173 Q707 183 717.5 195 Q728 207 736 218 Q734 284 708.5 315 Q683 346 639 346 Z " />
<glyph glyph-name="fourninths" unicode="&#xf50e;" horiz-adv-x="800" d="M79 462 L237 462 L237 686 L79 462 Z M237 436 L45 436 L45 459 L226 716 L265 716 L265 462 L317 462 L317 436 L265 436 L265 351 L237 351 L237 436 Z M619 720 L654 720 L219 -1 L183 -1 L619 720 Z M756 208 Q756 96 717.5 45 Q679 -6 610 -6 Q588 -6 566 0.5 Q544 7 524 21 L537 44 Q553 33 571.5 26.5 Q590 20 613 20 Q645 20 666.5 33 Q688 46 701 68 Q714 90 720.5 120 Q727 150 729 185 Q709 154 681 139.5 Q653 125 620 125 Q592 125 571.5 135.5 Q551 146 537.5 163.5 Q524 181 517.5 202.5 Q511 224 511 246 Q511 305 544 338 Q577 371 634 371 Q699 371 727.5 327 Q756 283 756 208 Z M632 346 Q595 346 567.5 323.5 Q540 301 540 247 Q540 200 563.5 175 Q587 150 625 150 Q643 150 658.5 156.5 Q674 163 687 173 Q700 183 710.5 195 Q721 207 729 218 Q727 284 701.5 315 Q676 346 632 346 Z " />
<glyph glyph-name="fiveninths" unicode="&#xf50f;" horiz-adv-x="800" d="M72 716 L258 716 L257 691 L97 691 L85 551 Q99 562 121 572 Q143 582 171 582 Q226 582 253.5 550 Q281 518 281 468 Q281 411 243.5 377.5 Q206 344 147 344 Q122 344 91.5 350.5 Q61 357 32 373 L44 397 Q70 384 94.5 377 Q119 370 142 370 Q190 370 220.5 394.5 Q251 419 251 468 Q251 505 230 530.5 Q209 556 167 556 Q135 556 115.5 544.5 Q96 533 82 520 L80 494 L55 494 L72 716 Z M584 720 L619 720 L184 -1 L148 -1 L584 720 Z M727 208 Q727 96 688.5 45 Q650 -6 581 -6 Q559 -6 537 0.5 Q515 7 495 21 L508 44 Q524 33 542.5 26.5 Q561 20 584 20 Q616 20 637.5 33 Q659 46 672 68 Q685 90 691.5 120 Q698 150 700 185 Q680 154 652 139.5 Q624 125 591 125 Q563 125 542.5 135.5 Q522 146 508.5 163.5 Q495 181 488.5 202.5 Q482 224 482 246 Q482 305 515 338 Q548 371 605 371 Q670 371 698.5 327 Q727 283 727 208 Z M603 346 Q566 346 538.5 323.5 Q511 301 511 247 Q511 200 534.5 175 Q558 150 596 150 Q614 150 629.5 156.5 Q645 163 658 173 Q671 183 681.5 195 Q692 207 700 218 Q698 284 672.5 315 Q647 346 603 346 Z " />
<glyph glyph-name="sevenninths" unicode="&#xf510;" horiz-adv-x="800" d="M86 351 L57 351 L57 354 L216 691 L10 691 L10 716 L249 716 L249 697 L86 351 Z M528 720 L563 720 L128 -1 L92 -1 L528 720 Z M726 208 Q726 96 687.5 45 Q649 -6 580 -6 Q558 -6 536 0.5 Q514 7 494 21 L507 44 Q523 33 541.5 26.5 Q560 20 583 20 Q615 20 636.5 33 Q658 46 671 68 Q684 90 690.5 120 Q697 150 699 185 Q679 154 651 139.5 Q623 125 590 125 Q562 125 541.5 135.5 Q521 146 507.5 163.5 Q494 181 487.5 202.5 Q481 224 481 246 Q481 305 514 338 Q547 371 604 371 Q669 371 697.5 327 Q726 283 726 208 Z M602 346 Q565 346 537.5 323.5 Q510 301 510 247 Q510 200 533.5 175 Q557 150 595 150 Q613 150 628.5 156.5 Q644 163 657 173 Q670 183 680.5 195 Q691 207 699 218 Q697 284 671.5 315 Q646 346 602 346 Z " />
<glyph glyph-name="eightninths" unicode="&#xf511;" horiz-adv-x="800" d="M92 439 Q92 407 117 388 Q142 369 185 369 Q227 369 253 389.5 Q279 410 279 448 Q279 467 271 481 Q263 495 249.5 504.5 Q236 514 219 520.5 Q202 527 184 532 Q168 526 151.5 518.5 Q135 511 122 500 Q109 489 100.5 474.5 Q92 460 92 439 Z M108 633 Q108 618 115 607 Q122 596 133.5 588 Q145 580 158.5 573.5 Q172 567 186 562 Q198 567 211.5 574 Q225 581 236.5 590 Q248 599 255.5 610.5 Q263 622 263 637 Q263 666 241 682 Q219 698 185 698 Q150 698 129 681.5 Q108 665 108 633 Z M61 441 Q61 480 88 505.5 Q115 531 161 548 Q119 562 98.5 582 Q78 602 78 634 Q78 675 108 698 Q138 721 185 721 Q234 721 263.5 699.5 Q293 678 293 639 Q293 610 270.5 587 Q248 564 213 549 Q264 530 287 507.5 Q310 485 310 448 Q310 400 276.5 372 Q243 344 185 344 Q125 344 93 370 Q61 396 61 441 Z M600 720 L635 720 L200 -1 L164 -1 L600 720 Z M736 208 Q736 96 697.5 45 Q659 -6 590 -6 Q568 -6 546 0.5 Q524 7 504 21 L517 44 Q533 33 551.5 26.5 Q570 20 593 20 Q625 20 646.5 33 Q668 46 681 68 Q694 90 700.5 120 Q707 150 709 185 Q689 154 661 139.5 Q633 125 600 125 Q572 125 551.5 135.5 Q531 146 517.5 163.5 Q504 181 497.5 202.5 Q491 224 491 246 Q491 305 524 338 Q557 371 614 371 Q679 371 707.5 327 Q736 283 736 208 Z M612 346 Q575 346 547.5 323.5 Q520 301 520 247 Q520 200 543.5 175 Q567 150 605 150 Q623 150 638.5 156.5 Q654 163 667 173 Q680 183 690.5 195 Q701 207 709 218 Q707 284 681.5 315 Q656 346 612 346 Z " />
<glyph glyph-name="minus" unicode="&#x2212;" horiz-adv-x="600" d="M560 285 L40 285 L40 316 L560 316 L560 285 Z " />
<glyph glyph-name="uni2215" unicode="&#x2215;" horiz-adv-x="127" d="M259 720 L294 720 L-141 -1 L-177 -1 L259 720 Z " />
<glyph glyph-name="uni2219" unicode="&#x2219;" horiz-adv-x="253" d="M90 340 Q90 358 101 367.5 Q112 377 126 377 Q141 377 152 368 Q163 359 163 340 Q163 325 152 314.5 Q141 304 126 304 Q111 304 100.5 313.5 Q90 323 90 340 Z " />
<glyph glyph-name="approxequal" unicode="&#x2248;" horiz-adv-x="745" d="M696 402 Q651 366 606 345 Q561 324 505 324 Q470 324 434.5 334.5 Q399 345 369 360 Q333 377 302.5 387 Q272 397 243 397 Q192 397 152.5 376.5 Q113 356 73 324 L56 348 Q101 384 146 405 Q191 426 247 426 Q282 426 314.5 414.5 Q347 403 378.5 389.5 Q410 376 441.5 364.5 Q473 353 505 353 Q550 353 590.5 372 Q631 391 676 425 L696 402 Z M691 217 Q646 181 601 160 Q556 139 500 139 Q465 139 429.5 149.5 Q394 160 364 175 Q328 192 297.5 202 Q267 212 238 212 Q187 212 147.5 191.5 Q108 171 68 139 L51 163 Q96 199 141 220 Q186 241 242 241 Q277 241 309.5 229.5 Q342 218 373.5 204.5 Q405 191 436.5 179.5 Q468 168 500 168 Q545 168 585.5 187 Q626 206 671 240 L691 217 Z " />
<glyph glyph-name="notequal" unicode="&#x2260;" horiz-adv-x="600" d="M560 182 L260 182 L150 0 L114 0 L223 182 L40 182 L40 213 L242 213 L326 353 L40 353 L40 384 L345 384 L429 523 L465 523 L381 384 L560 384 L560 353 L363 353 L278 213 L560 213 L560 182 Z " />
<glyph glyph-name="lessequal" unicode="&#x2264;" horiz-adv-x="600" d="M560 0 L40 0 L40 31 L560 31 L560 0 Z M41 313 L41 328 L547 551 L559 524 L97 320 L559 117 L547 90 L41 313 Z " />
<glyph glyph-name="greaterequal" unicode="&#x2265;" horiz-adv-x="600" d="M39 31 L559 31 L559 0 L39 0 L39 31 Z M52 90 L40 117 L502 320 L40 524 L52 551 L558 328 L558 313 L52 90 Z " />
<glyph glyph-name="less" unicode="&#x3c;" horiz-adv-x="600" d="M18 285 L18 300 L569 523 L581 496 L74 292 L581 89 L569 62 L18 285 Z " />
<glyph glyph-name="equal" unicode="&#x3d;" horiz-adv-x="600" d="M560 353 L40 353 L40 384 L560 384 L560 353 Z M560 182 L40 182 L40 213 L560 213 L560 182 Z " />
<glyph glyph-name="greater" unicode="&#x3e;" horiz-adv-x="600" d="M30 69 L18 96 L524 299 L18 503 L30 530 L581 307 L581 292 L30 69 Z " />
<glyph glyph-name="logicalnot" unicode="&#xac;" horiz-adv-x="600" d="M540 130 L540 346 L32 346 L32 375 L568 375 L568 130 L540 130 Z " />
<glyph glyph-name="plus" unicode="&#x2b;" horiz-adv-x="600" d="M315 316 L561 316 L561 285 L315 285 L315 40 L282 40 L282 285 L38 285 L38 316 L282 316 L282 563 L315 563 L315 316 Z " />
<glyph glyph-name="plusminus" unicode="&#xb1;" horiz-adv-x="600" d="M560 0 L40 0 L40 31 L560 31 L560 0 Z M315 316 L561 316 L561 285 L315 285 L315 70 L282 70 L282 285 L38 285 L38 316 L282 316 L282 533 L315 533 L315 316 Z " />
<glyph glyph-name="divide" unicode="&#xf7;" horiz-adv-x="600" d="M299 507 Q314 507 324.5 496.5 Q335 486 335 471 Q335 457 324 446.5 Q313 436 299 436 Q285 436 274.5 447 Q264 458 264 471 Q264 485 274.5 496 Q285 507 299 507 Z M40 316 L560 316 L560 285 L40 285 L40 316 Z M299 169 Q314 169 324.5 158.5 Q335 148 335 133 Q335 119 324 108.5 Q313 98 299 98 Q285 98 274.5 109 Q264 120 264 133 Q264 147 274.5 158 Q285 169 299 169 Z " />
<glyph glyph-name="multiply" unicode="&#xd7;" horiz-adv-x="600" d="M324 291 L497 119 L472 94 L299 267 L127 94 L102 119 L275 291 L102 464 L127 489 L299 316 L472 489 L497 464 L324 291 Z " />
<glyph glyph-name="partialdiff" unicode="&#x2202;" horiz-adv-x="586" d="M234 -12 Q192 -12 161 1.5 Q130 15 109.5 39 Q89 63 79 96 Q69 129 69 168 Q69 220 82.5 267.5 Q96 315 123 351 Q150 387 190 408.5 Q230 430 283 430 Q311 430 339.5 420.5 Q368 411 392 391.5 Q416 372 431.5 342 Q447 312 450 271 Q455 315 457.5 354 Q460 393 460 428 Q460 545 426 608.5 Q392 672 308 672 Q270 672 238.5 661 Q207 650 172 624 L156 647 Q190 674 229 687.5 Q268 701 303 701 Q348 701 383 686.5 Q418 672 442 641 Q466 610 478.5 561 Q491 512 491 442 Q491 397 487 345.5 Q483 294 473 243.5 Q463 193 445 147 Q427 101 398.5 65.5 Q370 30 329.5 9 Q289 -12 234 -12 Z M237 19 Q283 19 319 39.5 Q355 60 379.5 91.5 Q404 123 416.5 160.5 Q429 198 429 231 Q429 270 417.5 301.5 Q406 333 386 354.5 Q366 376 339 388 Q312 400 280 400 Q233 400 200 379 Q167 358 145 324.5 Q123 291 113 250 Q103 209 103 169 Q103 129 113.5 100.5 Q124 72 142 54 Q160 36 184.5 27.5 Q209 19 237 19 Z " />
<glyph glyph-name="Omega" unicode="&#x2126;" horiz-adv-x="782" d="M462 60 Q498 76 535.5 104 Q573 132 603 173 Q633 214 652 268.5 Q671 323 671 392 Q671 474 651 532.5 Q631 591 594.5 628 Q558 665 507.5 682 Q457 699 397 699 Q337 699 286 680 Q235 661 198 622 Q161 583 140.5 523.5 Q120 464 120 383 Q120 321 137.5 270.5 Q155 220 182 180 Q209 140 241.5 110.5 Q274 81 304 62 L304 0 L75 0 L75 31 L270 31 L270 46 Q237 65 204 96 Q171 127 144.5 170 Q118 213 101 266.5 Q84 320 84 383 Q84 475 109 541 Q134 607 176.5 649.5 Q219 692 276 712 Q333 732 397 732 Q461 732 517.5 713.5 Q574 695 616 654 Q658 613 682.5 548.5 Q707 484 707 392 Q707 321 688 263.5 Q669 206 638.5 162 Q608 118 570.5 88.5 Q533 59 496 44 L496 31 L691 31 L691 0 L462 0 L462 60 Z " />
<glyph glyph-name="Delta" unicode="&#x2206;" horiz-adv-x="638" d="M336 720 L603 0 L35 0 L300 720 L336 720 Z M558 30 L318 680 L80 30 L558 30 Z " />
<glyph glyph-name="product" unicode="&#x220f;" horiz-adv-x="689" d="M95 720 L594 720 L594 -140 L560 -140 L560 691 L129 691 L129 -140 L95 -140 L95 720 Z " />
<glyph glyph-name="summation" unicode="&#x2211;" horiz-adv-x="562" d="M93 689 L339 320 L92 -88 L531 -88 L531 -119 L44 -119 L44 -101 L298 319 L44 702 L44 720 L488 720 L488 689 L93 689 Z " />
<glyph glyph-name="uni0394" unicode="&#x394;" horiz-adv-x="638" d="M336 720 L603 0 L35 0 L300 720 L336 720 Z M558 30 L318 680 L80 30 L558 30 Z " />
<glyph glyph-name="uni03A9" unicode="&#x3a9;" horiz-adv-x="782" d="M462 60 Q498 76 535.5 104 Q573 132 603 173 Q633 214 652 268.5 Q671 323 671 392 Q671 474 651 532.5 Q631 591 594.5 628 Q558 665 507.5 682 Q457 699 397 699 Q337 699 286 680 Q235 661 198 622 Q161 583 140.5 523.5 Q120 464 120 383 Q120 321 137.5 270.5 Q155 220 182 180 Q209 140 241.5 110.5 Q274 81 304 62 L304 0 L75 0 L75 31 L270 31 L270 46 Q237 65 204 96 Q171 127 144.5 170 Q118 213 101 266.5 Q84 320 84 383 Q84 475 109 541 Q134 607 176.5 649.5 Q219 692 276 712 Q333 732 397 732 Q461 732 517.5 713.5 Q574 695 616 654 Q658 613 682.5 548.5 Q707 484 707 392 Q707 321 688 263.5 Q669 206 638.5 162 Q608 118 570.5 88.5 Q533 59 496 44 L496 31 L691 31 L691 0 L462 0 L462 60 Z " />
<glyph glyph-name="uni03BC" unicode="&#x3bc;" horiz-adv-x="559" d="M427 0 L427 88 Q404 38 366.5 13 Q329 -12 270 -12 Q213 -12 179.5 8 Q146 28 123 66 L123 -200 L93 -200 L93 523 L123 523 L123 196 Q123 110 156.5 63 Q190 16 271 16 Q313 16 343 31.5 Q373 47 391.5 70.5 Q410 94 418.5 123 Q427 152 427 179 L427 523 L458 523 L458 0 L427 0 Z " />
<glyph glyph-name="pi" unicode="&#x3c0;" horiz-adv-x="638" d="M35 523 L603 523 L603 495 L508 495 L508 0 L477 0 L477 495 L165 495 L165 0 L134 0 L134 495 L35 495 L35 523 Z " />
<glyph glyph-name="mu" unicode="&#xb5;" horiz-adv-x="559" d="M427 0 L427 88 Q404 38 366.5 13 Q329 -12 270 -12 Q213 -12 179.5 8 Q146 28 123 66 L123 -200 L93 -200 L93 523 L123 523 L123 196 Q123 110 156.5 63 Q190 16 271 16 Q313 16 343 31.5 Q373 47 391.5 70.5 Q410 94 418.5 123 Q427 152 427 179 L427 523 L458 523 L458 0 L427 0 Z " />
<glyph glyph-name="radical" unicode="&#x221a;" horiz-adv-x="703" d="M34 294 L199 294 L335 -117 L654 824 L688 824 L352 -166 L317 -166 L172 264 L34 264 L34 294 Z " />
<glyph glyph-name="infinity" unicode="&#x221e;" horiz-adv-x="751" d="M691 313 Q691 242 654.5 200.5 Q618 159 563 159 Q532 159 505.5 171 Q479 183 456.5 201 Q434 219 415 239.5 Q396 260 380 278 Q342 228 297.5 193.5 Q253 159 203 159 Q138 159 99 196 Q60 233 60 302 Q60 335 70.5 362.5 Q81 390 99.5 410 Q118 430 144.5 441 Q171 452 204 452 Q233 452 257.5 442.5 Q282 433 303 416 Q324 399 343 376 Q362 353 380 327 Q400 351 420 373.5 Q440 396 461.5 413.5 Q483 431 507 442 Q531 453 561 453 Q593 453 617.5 441.5 Q642 430 658.5 411 Q675 392 683 366.5 Q691 341 691 313 Z M659 307 Q659 331 653 352 Q647 373 635 388.5 Q623 404 604 413.5 Q585 423 558 423 Q535 423 516.5 416 Q498 409 480 394 Q462 379 442.5 356.5 Q423 334 399 303 Q416 280 435.5 259.5 Q455 239 476 223 Q497 207 519.5 197.5 Q542 188 564 188 Q588 188 606 198.5 Q624 209 636 226 Q648 243 653.5 264.5 Q659 286 659 307 Z M361 303 Q319 366 281.5 394 Q244 422 201 422 Q172 422 151.5 412 Q131 402 117.5 385 Q104 368 98 346.5 Q92 325 92 303 Q92 252 119.5 219.5 Q147 187 201 187 Q239 187 280.5 216 Q322 245 361 303 Z " />
<glyph glyph-name="integral" unicode="&#x222b;" horiz-adv-x="358" d="M72 -171 Q115 -171 136.5 -145 Q158 -119 158 -50 L158 643 Q158 672 164 698.5 Q170 725 184 745.5 Q198 766 220.5 778 Q243 790 275 790 L334 790 L334 761 L279 761 Q230 761 211.5 725.5 Q193 690 193 630 L193 -40 Q193 -74 189 -103.5 Q185 -133 172 -154.5 Q159 -176 135.5 -188 Q112 -200 72 -200 L24 -200 L24 -171 L72 -171 Z " />
<glyph glyph-name="lozenge" unicode="&#x25ca;" horiz-adv-x="602" d="M90 352 L279 700 L315 700 L512 354 L315 0 L279 0 L90 352 Z M129 353 L297 35 L472 353 L297 666 L129 353 Z " />
<glyph glyph-name="zero.tosf" unicode="&#xf81e;" horiz-adv-x="600" d="M112 306 Q112 153 160.5 85.5 Q209 18 300 18 Q391 18 439 86.5 Q487 155 487 311 Q487 456 440 519 Q393 582 302 582 Q211 582 161.5 516 Q112 450 112 306 Z M78 307 Q78 454 136.5 533 Q195 612 301 612 Q407 612 464 541 Q521 470 521 311 Q521 142 463 65 Q405 -12 299 -12 Q193 -12 135.5 65 Q78 142 78 307 Z " />
</font>
</svg>
