<?xml version="1.0" encoding="UTF-8"?>
<svg xmlns="http://www.w3.org/2000/svg" xmlns:xlink="http://www.w3.org/1999/xlink" version="1.2" >
<font id="LFTEticaDisplayTh-Italic">
<font-face  font-family="LFT Etica Display" units-per-em="1000" ascent="930" descent="-270" font-style="italic" font-weight="250" font-stretch="normal" cap-height="720" x-height="523" underline-position="-75" underline-thickness="50" />
<missing-glyph  horiz-adv-x="180" d="" />
<glyph glyph-name="space" unicode="&#x20;" horiz-adv-x="170" d="" />
<glyph glyph-name="numbersign" unicode="&#x23;" horiz-adv-x="692" d="M231 238 L406 238 L462 395 L282 395 L231 238 Z M492 395 L438 238 L585 238 L585 208 L428 208 L358 17 L331 24 L397 208 L217 208 L149 17 L122 24 L187 208 L61 208 L61 238 L197 238 L252 395 L113 395 L113 425 L263 425 L336 634 L363 627 L294 425 L472 425 L546 634 L574 627 L503 425 L636 425 L636 395 L492 395 Z " />
<glyph glyph-name="ampersand" unicode="&#x26;" horiz-adv-x="684" d="M256 567 Q256 538 268.5 503 Q281 468 310 427 Q388 461 428 504 Q468 547 468 598 Q468 643 443.5 665.5 Q419 688 377 688 Q352 688 330 679 Q308 670 291.5 653.5 Q275 637 265.5 615 Q256 593 256 567 Z M252 8 Q309 8 362 38 Q415 68 460 122 L296 394 Q195 350 147 296 Q99 242 99 163 Q99 130 109.5 101.5 Q120 73 139.5 52.5 Q159 32 187.5 20 Q216 8 252 8 Z M475 96 Q421 39 367 9.5 Q313 -20 248 -20 Q206 -20 172.5 -6.5 Q139 7 115 31 Q91 55 78 88 Q65 121 65 160 Q65 245 116 306.5 Q167 368 280 416 Q256 448 238.5 485 Q221 522 221 562 Q221 597 234 626 Q247 655 269.5 675.5 Q292 696 321.5 707.5 Q351 719 385 719 Q439 719 470 688 Q501 657 501 607 Q501 540 456.5 491 Q412 442 324 403 L402 276 Q402 276 408.5 280.5 Q415 285 425.5 292.5 Q436 300 450 309 Q464 318 478 328 Q511 351 554 381 L567 359 Q555 351 543 342 Q532 334 518.5 325 Q505 316 491 306 Q458 282 414 253 L566 8 L541 -9 L475 96 Z " />
<glyph glyph-name="asterisk" unicode="&#x2a;" horiz-adv-x="433" d="M259 557 L176 455 L159 466 L232 575 L123 613 L129 631 L244 602 L250 720 L270 720 L275 603 L390 632 L396 613 L286 575 L357 465 L341 455 L259 557 Z " />
<glyph glyph-name="comma" unicode="&#x2c;" horiz-adv-x="244" d="M41 16 Q41 36 54.5 47.5 Q68 59 84 59 Q104 59 111.5 44.5 Q119 30 119 14 Q119 -3 114.5 -21.5 Q110 -40 99 -59 Q88 -78 68.5 -95.5 Q49 -113 18 -126 L12 -111 Q50 -93 69.5 -66 Q89 -39 96 -1 Q82 -12 68 -12 Q55 -12 48 -4 Q41 4 41 16 Z " />
<glyph glyph-name="hyphen" unicode="&#x2d;" horiz-adv-x="331" d="M35 292 L294 292 L289 264 L30 264 L35 292 Z " />
<glyph glyph-name="period" unicode="&#x2e;" horiz-adv-x="250" d="M52 23 Q52 41 62.5 50 Q73 59 87 59 Q101 59 111.5 50 Q122 41 122 24 Q122 7 111.5 -2.5 Q101 -12 87 -12 Q73 -12 62.5 -3 Q52 6 52 23 Z " />
<glyph glyph-name="colon" unicode="&#x3a;" horiz-adv-x="250" d="M38 23 Q38 41 48.5 50 Q59 59 73 59 Q87 59 97.5 50 Q108 41 108 24 Q108 7 97.5 -2.5 Q87 -12 73 -12 Q59 -12 48.5 -3 Q38 6 38 23 Z M114 443 Q114 461 124.5 470 Q135 479 149 479 Q163 479 173.5 470 Q184 461 184 444 Q184 427 173.5 417.5 Q163 408 149 408 Q135 408 124.5 417 Q114 426 114 443 Z " />
<glyph glyph-name="semicolon" unicode="&#x3b;" horiz-adv-x="250" d="M47 16 Q47 36 60.5 47.5 Q74 59 90 59 Q110 59 117.5 44.5 Q125 30 125 14 Q125 -3 120.5 -21.5 Q116 -40 105 -59 Q94 -78 74.5 -95.5 Q55 -113 24 -126 L18 -111 Q56 -93 75.5 -66 Q95 -39 102 -1 Q88 -12 74 -12 Q61 -12 54 -4 Q47 4 47 16 Z M124 443 Q124 461 134.5 470 Q145 479 159 479 Q173 479 183.5 470 Q194 461 194 444 Q194 427 183.5 417.5 Q173 408 159 408 Q145 408 134.5 417 Q124 426 124 443 Z " />
<glyph glyph-name="question" unicode="&#x3f;" horiz-adv-x="493" d="M208 209 Q216 257 237 292 Q258 327 284.5 355 Q311 383 339.5 407.5 Q368 432 392 457.5 Q416 483 431.5 513.5 Q447 544 447 585 Q447 638 415.5 669.5 Q384 701 318 701 Q241 701 192 654.5 Q143 608 129 528 L97 528 Q105 573 123 610.5 Q141 648 169.5 675 Q198 702 237 717 Q276 732 326 732 Q398 732 440.5 694 Q483 656 483 591 Q483 546 467 512.5 Q451 479 426 451 Q401 423 371.5 398 Q342 373 315 346 Q288 319 267 287 Q246 255 239 213 L234 187 L204 187 L208 209 Z M156 17 Q156 37 168.5 48 Q181 59 197 59 Q208 59 217 51.5 Q226 44 226 30 Q226 10 212.5 -1 Q199 -12 185 -12 Q173 -12 164.5 -4.5 Q156 3 156 17 Z " />
<glyph glyph-name="exclam" unicode="&#x21;" horiz-adv-x="298" d="M160 476 L200 720 L237 720 L197 476 L142 187 L118 187 L160 476 Z M67 18 Q67 38 80.5 48.5 Q94 59 108 59 Q120 59 128.5 51.5 Q137 44 137 30 Q137 10 124 -1 Q111 -12 96 -12 Q85 -12 76 -4 Q67 4 67 18 Z " />
<glyph glyph-name="exclamdown" unicode="&#xa1;" horiz-adv-x="298" d="M118 46 L78 -198 L41 -198 L81 46 L136 335 L160 335 L118 46 Z M211 504 Q211 484 197.5 473.5 Q184 463 170 463 Q158 463 149.5 470.5 Q141 478 141 492 Q141 512 154 523 Q167 534 182 534 Q193 534 202 526 Q211 518 211 504 Z " />
<glyph glyph-name="questiondown" unicode="&#xbf;" horiz-adv-x="492" d="M280 314 Q272 266 251 231 Q230 196 203.5 168 Q177 140 148.5 115.5 Q120 91 96 65.5 Q72 40 56.5 9.5 Q41 -21 41 -62 Q41 -115 72.5 -146.5 Q104 -178 170 -178 Q247 -178 296 -131.5 Q345 -85 359 -5 L391 -5 Q383 -50 365 -87.5 Q347 -125 318.5 -152 Q290 -179 251 -194 Q212 -209 162 -209 Q90 -209 47.5 -171 Q5 -133 5 -68 Q5 -24 21 10 Q37 44 62 72 Q87 100 116.5 125 Q146 150 173 177 Q200 204 221 236 Q242 268 249 310 L254 336 L284 336 L280 314 Z M332 506 Q332 486 319.5 475 Q307 464 291 464 Q280 464 271 471.5 Q262 479 262 493 Q262 513 275.5 524 Q289 535 303 535 Q315 535 323.5 527.5 Q332 520 332 506 Z " />
<glyph glyph-name="at" unicode="&#x40;" horiz-adv-x="982" d="M620 347 Q606 358 580 364.5 Q554 371 521 371 Q477 371 439.5 352 Q402 333 375 301.5 Q348 270 333 229 Q318 188 318 143 Q318 89 343.5 53.5 Q369 18 419 18 Q449 18 474.5 31 Q500 44 519.5 65 Q539 86 552.5 112 Q566 138 573 164 L620 347 Z M602 125 Q598 105 598 87 Q598 66 604 52.5 Q610 39 620 30.5 Q630 22 643 19 Q656 16 669 16 Q717 16 756.5 40.5 Q796 65 824.5 105.5 Q853 146 869 198 Q885 250 885 304 Q885 379 859 437.5 Q833 496 786 536 Q739 576 674 596.5 Q609 617 531 617 Q439 617 360 584 Q281 551 222 493 Q163 435 129.5 355 Q96 275 96 182 Q96 95 128 27 Q160 -41 214 -88.5 Q268 -136 340.5 -161 Q413 -186 494 -186 Q584 -186 652 -160.5 Q720 -135 782 -91 L800 -115 Q669 -217 497 -217 Q407 -217 328 -190 Q249 -163 189.5 -111.5 Q130 -60 96 14 Q62 88 62 182 Q62 287 98.5 373 Q135 459 199 520 Q263 581 349 614.5 Q435 648 534 648 Q621 648 692 624 Q763 600 813.5 556 Q864 512 891.5 449.5 Q919 387 919 311 Q919 248 902 189.5 Q885 131 852.5 86.5 Q820 42 772.5 15 Q725 -12 664 -12 Q612 -12 587.5 15.5 Q563 43 571 90 Q561 73 547 55 Q533 37 515 22 Q497 7 473.5 -2.5 Q450 -12 420 -12 Q351 -12 317 29.5 Q283 71 283 144 Q283 194 300 240.5 Q317 287 349.5 323 Q382 359 428 381 Q474 403 533 403 Q569 403 603 393 Q637 383 660 368 L602 125 Z " />
<glyph glyph-name="A" unicode="A" horiz-adv-x="602" d="M387 720 L527 0 L493 0 L445 245 L137 245 L8 0 L-27 0 L352 720 L387 720 Z M440 275 L363 680 L153 275 L440 275 Z " />
<glyph glyph-name="B" unicode="B" horiz-adv-x="608" d="M163 720 L386 720 Q435 720 469 709.5 Q503 699 525 680.5 Q547 662 557 635.5 Q567 609 567 576 Q567 546 557.5 513 Q548 480 528 452 Q508 424 476.5 403.5 Q445 383 401 379 L401 377 Q442 374 470 360 Q498 346 514.5 325 Q531 304 538 278.5 Q545 253 545 228 Q545 168 524 124.5 Q503 81 466 53.5 Q429 26 378.5 13 Q328 0 269 0 L43 0 L163 720 Z M80 30 L281 30 Q338 30 381.5 45 Q425 60 454 87 Q483 114 497.5 150.5 Q512 187 512 229 Q512 265 498 290.5 Q484 316 459 331.5 Q434 347 399 354 Q364 361 322 361 L135 361 L80 30 Z M190 690 L140 388 L295 388 Q339 388 381.5 395.5 Q424 403 457.5 423 Q491 443 511.5 479.5 Q532 516 532 574 Q532 638 486 664 Q440 690 360 690 L190 690 Z " />
<glyph glyph-name="C" unicode="C" horiz-adv-x="630" d="M546 95 Q496 44 436.5 16 Q377 -12 302 -12 Q239 -12 194 11.5 Q149 35 121 74.5 Q93 114 80 167 Q67 220 67 279 Q67 366 91 447.5 Q115 529 161 592.5 Q207 656 274.5 694.5 Q342 733 430 733 Q478 733 517 719 Q556 705 581.5 679 Q607 653 618 615.5 Q629 578 621 531 L590 531 Q595 562 588.5 593 Q582 624 562 648 Q542 672 507.5 687 Q473 702 422 702 Q348 702 289 669.5 Q230 637 188.5 580 Q147 523 124.5 446.5 Q102 370 102 283 Q102 155 156.5 87 Q211 19 306 19 Q379 19 431 45.5 Q483 72 528 115 L546 95 Z " />
<glyph glyph-name="D" unicode="D" horiz-adv-x="668" d="M191 689 L81 31 L224 31 Q327 31 396.5 61.5 Q466 92 509 146.5 Q552 201 570.5 276 Q589 351 589 440 Q589 499 574.5 545.5 Q560 592 529 624 Q498 656 449.5 672.5 Q401 689 334 689 L191 689 Z M333 720 Q403 720 457.5 704.5 Q512 689 549 655.5 Q586 622 605.5 570 Q625 518 625 445 Q625 214 520 107 Q415 0 208 0 L43 0 L163 720 L333 720 Z " />
<glyph glyph-name="E" unicode="E" horiz-adv-x="579" d="M163 720 L580 720 L575 690 L191 690 L141 389 L492 389 L487 360 L136 360 L81 29 L475 29 L470 0 L43 0 L163 720 Z " />
<glyph glyph-name="F" unicode="F" horiz-adv-x="521" d="M163 720 L557 720 L553 691 L192 691 L141 389 L461 389 L456 360 L136 360 L76 0 L43 0 L163 720 Z " />
<glyph glyph-name="G" unicode="G" horiz-adv-x="697" d="M427 349 L631 349 L590 103 Q555 66 518 43.5 Q481 21 446.5 8.5 Q412 -4 382 -8 Q352 -12 330 -12 Q260 -12 210.5 10 Q161 32 129 71 Q97 110 82 164 Q67 218 67 281 Q67 379 93.5 462 Q120 545 169.5 605 Q219 665 289 698.5 Q359 732 447 732 Q517 732 561.5 715 Q606 698 629.5 670.5 Q653 643 659 608.5 Q665 574 659 539 L626 539 Q632 572 624.5 601.5 Q617 631 594.5 652.5 Q572 674 533 687 Q494 700 437 700 Q356 700 294 665.5 Q232 631 189.5 573.5 Q147 516 125 441 Q103 366 103 286 Q103 158 161 88.5 Q219 19 330 19 Q399 19 454 42.5 Q509 66 563 115 L597 319 L422 319 L427 349 Z " />
<glyph glyph-name="H" unicode="H" horiz-adv-x="672" d="M163 720 L196 720 L143 399 L563 399 L616 720 L649 720 L529 0 L496 0 L558 369 L138 369 L76 0 L43 0 L163 720 Z " />
<glyph glyph-name="I" unicode="I" horiz-adv-x="219" d="M163 720 L196 720 L76 0 L43 0 L163 720 Z " />
<glyph glyph-name="J" unicode="J" horiz-adv-x="370" d="M256 141 Q242 62 205 25 Q168 -12 96 -12 Q69 -12 34 -5 Q-1 2 -27 17 L-11 44 Q42 18 98 18 Q126 18 146.5 24.5 Q167 31 182.5 46.5 Q198 62 208 88 Q218 114 225 153 L319 720 L352 720 L256 141 Z " />
<glyph glyph-name="K" unicode="K" horiz-adv-x="593" d="M163 720 L196 720 L142 392 L304 392 L554 720 L592 720 L329 376 L511 0 L476 0 L300 362 L137 362 L76 0 L43 0 L163 720 Z " />
<glyph glyph-name="L" unicode="L" horiz-adv-x="498" d="M196 720 L81 31 L424 31 L419 0 L43 0 L163 720 L196 720 Z " />
<glyph glyph-name="M" unicode="M" horiz-adv-x="838" d="M688 0 L732 677 L383 0 L353 0 L232 676 L51 0 L18 0 L210 720 L259 720 L376 46 L718 720 L767 720 L720 0 L688 0 Z " />
<glyph glyph-name="N" unicode="N" horiz-adv-x="676" d="M163 720 L198 720 L511 57 L620 720 L653 720 L533 0 L500 0 L187 667 L76 0 L43 0 L163 720 Z " />
<glyph glyph-name="O" unicode="O" horiz-adv-x="731" d="M110 372 Q101 315 101 267 Q101 203 117 156.5 Q133 110 162 79.5 Q191 49 231.5 34.5 Q272 20 322 20 Q381 20 433 40 Q485 60 526.5 103 Q568 146 598.5 212.5 Q629 279 644 372 Q648 395 649.5 417 Q651 439 651 459 Q651 580 591.5 640 Q532 700 433 700 Q373 700 320 679.5 Q267 659 224.5 617.5 Q182 576 152.5 514.5 Q123 453 110 372 Z M75 372 Q89 465 123.5 533 Q158 601 207 645.5 Q256 690 315.5 711 Q375 732 438 732 Q493 732 538.5 715.5 Q584 699 617 666 Q650 633 668 582 Q686 531 686 462 Q686 441 684.5 418.5 Q683 396 679 372 Q663 266 628 193 Q593 120 545 74.5 Q497 29 438.5 8.5 Q380 -12 318 -12 Q264 -12 218 3.5 Q172 19 138.5 52.5 Q105 86 86 139 Q67 192 67 266 Q67 290 68.5 316.5 Q70 343 75 372 Z " />
<glyph glyph-name="P" unicode="P" horiz-adv-x="565" d="M191 689 L133 342 L286 342 Q407 342 465.5 398 Q524 454 524 555 Q524 622 483.5 655.5 Q443 689 355 689 L191 689 Z M163 720 L360 720 Q464 720 510.5 677 Q557 634 557 558 Q557 504 540.5 459 Q524 414 490 381.5 Q456 349 403.5 330.5 Q351 312 280 312 L128 312 L76 0 L43 0 L163 720 Z " />
<glyph glyph-name="Q" unicode="Q" horiz-adv-x="731" d="M75 372 Q89 465 123.5 533 Q158 601 207 645.5 Q256 690 315.5 711 Q375 732 438 732 Q493 732 538.5 715.5 Q584 699 617 666 Q650 633 668 582 Q686 531 686 462 Q686 441 684.5 418.5 Q683 396 679 372 Q663 269 629.5 197 Q596 125 550 79.5 Q504 34 448 12 Q392 -10 332 -12 L312 -134 L280 -134 L298 -11 Q248 -8 205.5 9 Q163 26 132 59.5 Q101 93 84 144 Q67 195 67 266 Q67 290 68.5 316.5 Q70 343 75 372 Z M110 372 Q101 315 101 267 Q101 203 117 156.5 Q133 110 162 79.5 Q191 49 231.5 34.5 Q272 20 322 20 Q381 20 433 40 Q485 60 526.5 103 Q568 146 598.5 212.5 Q629 279 644 372 Q648 395 649.5 417 Q651 439 651 459 Q651 580 591.5 640 Q532 700 433 700 Q373 700 320 679.5 Q267 659 224.5 617.5 Q182 576 152.5 514.5 Q123 453 110 372 Z " />
<glyph glyph-name="R" unicode="R" horiz-adv-x="596" d="M360 720 Q463 720 510 675.5 Q557 631 557 557 Q557 481 520.5 420.5 Q484 360 397 324 L507 0 L471 0 L362 317 Q342 313 321.5 311.5 Q301 310 277 310 L128 310 L76 0 L43 0 L163 720 L360 720 Z M191 689 L133 340 L289 340 Q409 340 466.5 396.5 Q524 453 524 554 Q524 620 483.5 654.5 Q443 689 355 689 L191 689 Z " />
<glyph glyph-name="S" unicode="S" horiz-adv-x="545" d="M33 112 Q72 64 118 42 Q164 20 221 20 Q265 20 304 32 Q343 44 372.5 68 Q402 92 419.5 127.5 Q437 163 437 209 Q437 260 403.5 293.5 Q370 327 288 356 Q239 372 204.5 389 Q170 406 147.5 425.5 Q125 445 114.5 468.5 Q104 492 104 523 Q104 573 122.5 612 Q141 651 173.5 677.5 Q206 704 250 718 Q294 732 345 732 Q412 732 458 707.5 Q504 683 536 628 L508 607 Q494 633 474.5 651 Q455 669 433 680 Q411 691 387 695.5 Q363 700 340 700 Q299 700 263 689 Q227 678 199.5 657 Q172 636 156 604.5 Q140 573 140 532 Q140 501 151.5 479.5 Q163 458 185 441.5 Q207 425 238 412 Q269 399 307 386 Q398 354 435.5 315.5 Q473 277 473 217 Q473 165 453 122.5 Q433 80 398.5 50 Q364 20 316.5 4 Q269 -12 215 -12 Q145 -12 92 17.5 Q39 47 7 89 L33 112 Z " />
<glyph glyph-name="T" unicode="T" horiz-adv-x="530" d="M310 690 L81 690 L86 720 L576 720 L571 690 L343 690 L228 0 L195 0 L310 690 Z " />
<glyph glyph-name="U" unicode="U" horiz-adv-x="667" d="M190 720 L116 274 Q94 144 141.5 80.5 Q189 17 295 17 Q352 17 394 32 Q436 47 465.5 78.5 Q495 110 513.5 158.5 Q532 207 543 274 L617 720 L649 720 L572 256 Q560 184 537.5 133 Q515 82 480.5 50 Q446 18 399 3 Q352 -12 292 -12 Q237 -12 192.5 4.5 Q148 21 119.5 54.5 Q91 88 80.5 139.5 Q70 191 82 262 L158 720 L190 720 Z " />
<glyph glyph-name="V" unicode="V" horiz-adv-x="554" d="M94 720 L128 720 L232 34 L566 720 L600 720 L248 0 L206 0 L94 720 Z " />
<glyph glyph-name="W" unicode="W" horiz-adv-x="896" d="M94 720 L127 720 L199 40 L499 720 L539 720 L612 40 L909 720 L942 720 L630 0 L583 0 L512 678 L213 0 L167 0 L94 720 Z " />
<glyph glyph-name="X" unicode="X" horiz-adv-x="527" d="M257 373 L99 720 L135 720 L282 393 L528 720 L567 720 L296 362 L453 0 L416 0 L270 340 L13 0 L-26 0 L257 373 Z " />
<glyph glyph-name="Y" unicode="Y" horiz-adv-x="521" d="M247 318 L94 720 L130 720 L268 353 L528 720 L567 720 L280 318 L227 0 L194 0 L247 318 Z " />
<glyph glyph-name="Z" unicode="Z" horiz-adv-x="548" d="M-3 25 L526 690 L141 690 L146 720 L579 720 L576 702 L39 29 L463 29 L458 0 L-7 0 L-3 25 Z " />
<glyph glyph-name="a" unicode="a" horiz-adv-x="544" d="M400 78 Q389 67 371 52 Q353 37 329 22.5 Q305 8 275 -2 Q245 -12 209 -12 Q165 -12 133 3.5 Q101 19 80.5 46 Q60 73 50 111 Q40 149 40 194 Q40 261 56.5 322.5 Q73 384 106 431.5 Q139 479 187.5 507 Q236 535 301 535 Q333 535 357.5 526 Q382 517 401 502.5 Q420 488 433.5 469.5 Q447 451 458 432 L474 523 L504 523 L416 0 L386 0 L400 78 Z M451 387 Q443 402 430.5 422.5 Q418 443 399 461.5 Q380 480 353.5 493 Q327 506 293 506 Q247 506 207 484.5 Q167 463 137.5 423.5 Q108 384 91 328 Q74 272 74 204 Q74 169 81 135 Q88 101 105 75 Q122 49 149 33 Q176 17 217 17 Q250 17 278.5 27.5 Q307 38 331 54 Q355 70 374 87.5 Q393 105 406 119 L451 387 Z " />
<glyph glyph-name="b" unicode="b" horiz-adv-x="544" d="M78 121 Q85 104 98.5 85.5 Q112 67 131 52 Q150 37 175.5 27 Q201 17 234 17 Q285 17 326.5 38.5 Q368 60 397.5 100 Q427 140 443 197.5 Q459 255 459 326 Q459 412 424.5 459 Q390 506 323 506 Q261 506 213 472 Q165 438 123 388 L78 121 Z M28 0 L148 720 L178 720 L130 431 Q173 479 222.5 507 Q272 535 329 535 Q372 535 403 519.5 Q434 504 453.5 477 Q473 450 482 412.5 Q491 375 491 331 Q491 262 474.5 199.5 Q458 137 425.5 90 Q393 43 343.5 15.5 Q294 -12 228 -12 Q192 -12 165 -2 Q138 8 118.5 22 Q99 36 87.5 51.5 Q76 67 71 78 L58 0 L28 0 Z " />
<glyph glyph-name="c" unicode="c" horiz-adv-x="494" d="M407 59 Q357 18 311.5 3 Q266 -12 218 -12 Q175 -12 142 4 Q109 20 87 49 Q65 78 53.5 118 Q42 158 42 206 Q42 287 63.5 348.5 Q85 410 121.5 451.5 Q158 493 206.5 514 Q255 535 308 535 Q389 535 428.5 487.5 Q468 440 460 360 L431 360 Q433 400 424.5 428 Q416 456 398.5 473 Q381 490 357 498 Q333 506 303 506 Q252 506 210 484 Q168 462 138 423 Q108 384 91.5 329.5 Q75 275 75 209 Q75 170 83.5 135.5 Q92 101 110 74.5 Q128 48 156.5 32.5 Q185 17 224 17 Q249 17 269.5 20.5 Q290 24 309.5 31.5 Q329 39 349.5 51 Q370 63 394 81 L407 59 Z " />
<glyph glyph-name="d" unicode="d" horiz-adv-x="547" d="M400 78 Q389 67 371 52 Q353 37 329 22.5 Q305 8 275 -2 Q245 -12 209 -12 Q165 -12 133 3.5 Q101 19 80.5 46 Q60 73 50 111 Q40 149 40 194 Q40 261 56.5 322.5 Q73 384 106 431.5 Q139 479 187.5 507 Q236 535 301 535 Q333 535 357.5 526 Q382 517 401 502.5 Q420 488 433.5 469.5 Q447 451 458 432 L506 720 L536 720 L416 0 L386 0 L400 78 Z M451 387 Q443 402 430.5 422.5 Q418 443 399 461.5 Q380 480 353.5 493 Q327 506 293 506 Q247 506 207 484.5 Q167 463 137.5 423.5 Q108 384 91 328 Q74 272 74 204 Q74 169 81 135 Q88 101 105 75 Q122 49 149 33 Q176 17 217 17 Q250 17 278.5 27.5 Q307 38 331 54 Q355 70 374 87.5 Q393 105 406 119 L451 387 Z " />
<glyph glyph-name="e" unicode="e" horiz-adv-x="498" d="M409 60 Q361 18 315 3 Q269 -12 222 -12 Q138 -12 89.5 37.5 Q41 87 41 194 Q41 269 61 331.5 Q81 394 117 439.5 Q153 485 202.5 510 Q252 535 311 535 Q351 535 379.5 523 Q408 511 425.5 491 Q443 471 451 446 Q459 421 459 395 Q459 354 440 324.5 Q421 295 389.5 274.5 Q358 254 317.5 242 Q277 230 234 223 Q191 216 149 213 Q107 210 73 208 Q73 104 111.5 60.5 Q150 17 228 17 Q274 17 313 31.5 Q352 46 394 81 L409 60 Z M75 236 Q177 242 244.5 254.5 Q312 267 352.5 286.5 Q393 306 409.5 333 Q426 360 426 396 Q426 415 420 435 Q414 455 399.5 470.5 Q385 486 362 496 Q339 506 306 506 Q250 506 208 480.5 Q166 455 137.5 415.5 Q109 376 93.5 328.5 Q78 281 75 236 Z " />
<glyph glyph-name="f" unicode="f" horiz-adv-x="225" d="M123 495 L67 495 L70 514 L127 522 L143 614 Q147 636 155 657.5 Q163 679 176.5 695.5 Q190 712 209.5 722 Q229 732 256 732 Q267 732 280 730.5 Q293 729 306 725 L299 698 Q290 701 279 703 Q268 705 254 705 Q229 705 205.5 687 Q182 669 173 617 L158 523 L248 523 L243 495 L153 495 L70 0 L40 0 L123 495 Z " />
<glyph glyph-name="g" unicode="g" horiz-adv-x="547" d="M416 -1 Q405 -63 386 -103 Q367 -143 338.5 -167 Q310 -191 271 -200.5 Q232 -210 182 -210 Q136 -210 91.5 -201 Q47 -192 18 -178 L34 -150 Q61 -164 102 -173 Q143 -182 188 -182 Q241 -182 276 -169 Q311 -156 333.5 -131.5 Q356 -107 368.5 -70.5 Q381 -34 389 13 L400 78 Q384 61 363.5 45 Q343 29 318.5 16 Q294 3 265.5 -4.5 Q237 -12 205 -12 Q160 -12 128.5 4.5 Q97 21 77.5 49.5 Q58 78 49.5 115.5 Q41 153 41 195 Q41 256 56 317 Q71 378 103.5 426.5 Q136 475 185.5 505 Q235 535 304 535 Q337 535 362.5 524 Q388 513 407 497.5 Q426 482 438.5 464 Q451 446 458 431 L474 523 L504 523 L416 -1 Z M450 384 Q443 400 430 421.5 Q417 443 398.5 461.5 Q380 480 355 493 Q330 506 299 506 Q244 506 202 482 Q160 458 131.5 416.5 Q103 375 88 319.5 Q73 264 73 201 Q73 161 81.5 127 Q90 93 107 68.5 Q124 44 151 30.5 Q178 17 214 17 Q248 17 277 27.5 Q306 38 330 54 Q354 70 373 87.5 Q392 105 406 119 L450 384 Z " />
<glyph glyph-name="h" unicode="h" horiz-adv-x="517" d="M178 720 L130 432 Q149 453 171.5 471.5 Q194 490 218.5 504 Q243 518 270 526.5 Q297 535 325 535 Q368 535 394.5 520.5 Q421 506 434 479.5 Q447 453 448.5 415 Q450 377 442 330 L387 0 L356 0 L411 330 Q416 361 418 392 Q420 423 411 448.5 Q402 474 379.5 490 Q357 506 314 506 Q286 506 260 496 Q234 486 210 470.5 Q186 455 164.5 434.5 Q143 414 124 393 L58 0 L28 0 L148 720 L178 720 Z " />
<glyph glyph-name="i" unicode="i" horiz-adv-x="213" d="M140 667 Q140 681 150.5 690.5 Q161 700 174 700 Q185 700 191.5 693 Q198 686 198 675 Q198 661 188 651.5 Q178 642 164 642 Q153 642 146.5 649 Q140 656 140 667 Z M72 0 L42 0 L130 523 L160 523 L72 0 Z " />
<glyph glyph-name="j" unicode="j" horiz-adv-x="215" d="M58 -91 Q53 -117 46.5 -137.5 Q40 -158 28 -172.5 Q16 -187 -2.5 -195 Q-21 -203 -48 -203 Q-61 -203 -75 -201 Q-89 -199 -102 -194 L-92 -169 Q-84 -172 -71 -174 Q-58 -176 -46 -176 Q-32 -176 -20.5 -172.5 Q-9 -169 0.5 -160 Q10 -151 16.5 -134.5 Q23 -118 28 -92 L131 523 L161 523 L58 -91 Z M142 667 Q142 681 152.5 690.5 Q163 700 176 700 Q187 700 193.5 693 Q200 686 200 675 Q200 661 190 651.5 Q180 642 166 642 Q155 642 148.5 649 Q142 656 142 667 Z " />
<glyph glyph-name="k" unicode="k" horiz-adv-x="463" d="M109 307 L191 307 L409 523 L451 523 L217 292 L389 0 L352 0 L188 278 L105 278 L58 0 L28 0 L148 720 L178 720 L109 307 Z " />
<glyph glyph-name="l" unicode="l" horiz-adv-x="186" d="M28 0 L148 720 L178 720 L58 0 L28 0 Z " />
<glyph glyph-name="m" unicode="m" horiz-adv-x="773" d="M116 523 L292 523 Q352 523 380.5 497.5 Q409 472 413 434 Q439 485 483.5 510 Q528 535 579 535 Q625 535 652 522 Q679 509 692.5 485.5 Q706 462 707.5 430.5 Q709 399 703 362 L642 0 L611 0 L672 362 Q676 391 676.5 417 Q677 443 667.5 463 Q658 483 636 495 Q614 507 574 507 Q541 507 513.5 494.5 Q486 482 465 461 Q444 440 430.5 412 Q417 384 412 353 L353 0 L321 0 L383 368 Q393 430 368.5 462.5 Q344 495 283 495 L141 495 L58 0 L28 0 L116 523 Z " />
<glyph glyph-name="n" unicode="n" horiz-adv-x="518" d="M146 523 L130 432 Q172 477 220.5 506 Q269 535 321 535 Q369 535 396.5 519 Q424 503 436.5 475 Q449 447 449 409 Q449 371 442 328 L387 0 L356 0 L412 335 Q426 420 405 463 Q384 506 315 506 Q284 506 255 493.5 Q226 481 201.5 463.5 Q177 446 157 426.5 Q137 407 124 393 L58 0 L28 0 L116 523 L146 523 Z " />
<glyph glyph-name="o" unicode="o" horiz-adv-x="541" d="M78 260 Q72 224 72 192 Q72 103 112.5 59.5 Q153 16 220 16 Q259 16 295.5 31 Q332 46 362.5 76.5 Q393 107 415 152.5 Q437 198 446 260 Q448 277 449.5 293 Q451 309 451 324 Q451 417 409 461.5 Q367 506 300 506 Q261 506 225 491 Q189 476 159.5 445 Q130 414 108.5 368 Q87 322 78 260 Z M44 260 Q53 323 76 374 Q99 425 133 460.5 Q167 496 210.5 515.5 Q254 535 305 535 Q392 535 439 481 Q486 427 486 329 Q486 296 480 260 Q460 129 389.5 58.5 Q319 -12 216 -12 Q128 -12 83.5 41.5 Q39 95 39 191 Q39 208 40.5 225 Q42 242 44 260 Z " />
<glyph glyph-name="p" unicode="p" horiz-adv-x="548" d="M78 121 Q85 104 98.5 85.5 Q112 67 131 52 Q150 37 175.5 27 Q201 17 234 17 Q285 17 326.5 38.5 Q368 60 397.5 100 Q427 140 443 197.5 Q459 255 459 326 Q459 412 424.5 459 Q390 506 323 506 Q261 506 213 472 Q165 438 123 388 L78 121 Z M-5 -200 L116 523 L146 523 L130 431 Q173 479 222.5 507 Q272 535 329 535 Q372 535 403 519.5 Q434 504 453.5 477 Q473 450 482 412.5 Q491 375 491 331 Q491 262 474.5 199.5 Q458 137 425.5 90 Q393 43 343.5 15.5 Q294 -12 228 -12 Q192 -12 165 -2 Q138 8 118.5 22 Q99 36 87.5 51.5 Q76 67 71 78 L25 -200 L-5 -200 Z " />
<glyph glyph-name="q" unicode="q" horiz-adv-x="548" d="M399 78 Q388 67 370.5 52 Q353 37 329 22.5 Q305 8 275 -2 Q245 -12 209 -12 Q165 -12 133 3.5 Q101 19 80.5 46 Q60 73 50 111 Q40 149 40 194 Q40 261 56.5 322.5 Q73 384 106 431.5 Q139 479 187.5 507 Q236 535 301 535 Q333 535 357.5 526 Q382 517 401 502.5 Q420 488 433.5 469.5 Q447 451 458 432 L474 523 L504 523 L383 -200 L353 -200 L399 78 Z M451 387 Q443 402 430.5 422.5 Q418 443 399 461.5 Q380 480 353.5 493 Q327 506 293 506 Q247 506 207 484.5 Q167 463 137.5 423.5 Q108 384 91 328 Q74 272 74 204 Q74 169 81 135 Q88 101 105 75 Q122 49 149 33 Q176 17 217 17 Q250 17 278.5 27.5 Q307 38 331 54 Q355 70 374 87.5 Q393 105 406 119 L451 387 Z " />
<glyph glyph-name="r" unicode="r" horiz-adv-x="278" d="M128 434 Q152 476 188 505.5 Q224 535 265 535 Q287 535 307 529 L295 499 Q288 501 278 502 Q268 503 257 503 Q236 503 216.5 492 Q197 481 179.5 463.5 Q162 446 147 425 Q132 404 122 385 L58 0 L28 0 L116 523 L146 523 L128 434 Z " />
<glyph glyph-name="s" unicode="s" horiz-adv-x="438" d="M15 87 Q45 53 83 34.5 Q121 16 167 16 Q200 16 231 25 Q262 34 285 51.5 Q308 69 322 93.5 Q336 118 336 149 Q336 186 307 212 Q278 238 207 258 Q131 279 99.5 306.5 Q68 334 68 378 Q68 414 82 443.5 Q96 473 121 493 Q146 513 181 524 Q216 535 257 535 Q311 535 348.5 517 Q386 499 413 459 L388 439 Q363 477 326.5 492 Q290 507 252 507 Q184 507 142.5 475 Q101 443 101 385 Q101 364 109.5 348.5 Q118 333 134 321.5 Q150 310 173.5 301.5 Q197 293 228 284 Q303 263 336 233 Q369 203 369 156 Q369 119 353.5 88 Q338 57 310 35 Q282 13 244.5 0.5 Q207 -12 163 -12 Q104 -12 59.5 10.5 Q15 33 -10 64 L15 87 Z " />
<glyph glyph-name="t" unicode="t" horiz-adv-x="242" d="M152 495 L81 70 Q76 38 87 27.5 Q98 17 116 17 Q130 17 147 20.5 Q164 24 178 30 L182 5 Q168 -2 146 -7 Q124 -12 104 -12 Q90 -12 78.5 -8.5 Q67 -5 59.5 3 Q52 11 49 25 Q46 39 49 59 L122 495 L61 495 L64 515 L127 523 L157 656 L179 656 L157 523 L240 523 L235 495 L152 495 Z " />
<glyph glyph-name="u" unicode="u" horiz-adv-x="509" d="M351 0 L366 87 Q352 72 332 54.5 Q312 37 287 22.5 Q262 8 233.5 -2 Q205 -12 174 -12 Q125 -12 98 4 Q71 20 59 46.5 Q47 73 47 107.5 Q47 142 53 178 L111 523 L142 523 L84 181 Q71 101 90.5 59 Q110 17 179 17 Q209 17 236 27 Q263 37 287 52.5 Q311 68 332.5 88 Q354 108 372 128 L439 523 L469 523 L381 0 L351 0 Z " />
<glyph glyph-name="v" unicode="v" horiz-adv-x="432" d="M85 523 L168 36 L420 523 L455 523 L180 0 L145 0 L53 523 L85 523 Z " />
<glyph glyph-name="w" unicode="w" horiz-adv-x="668" d="M677 523 L467 0 L435 0 L360 471 L132 0 L100 0 L67 523 L98 523 L127 46 L351 516 L383 516 L457 46 L645 523 L677 523 Z " />
<glyph glyph-name="x" unicode="x" horiz-adv-x="429" d="M191 268 L62 523 L99 523 L214 294 L403 523 L439 523 L228 268 L360 0 L323 0 L206 243 L6 0 L-30 0 L191 268 Z " />
<glyph glyph-name="y" unicode="y" horiz-adv-x="427" d="M71 -172 Q100 -172 111 -159 Q122 -146 127 -117 L147 0 L53 523 L88 523 L169 46 L414 523 L450 523 L177 0 L156 -126 Q143 -200 78 -200 L8 -200 L12 -172 L71 -172 Z " />
<glyph glyph-name="z" unicode="z" horiz-adv-x="400" d="M-12 24 L363 494 L75 494 L80 523 L409 523 L405 500 L29 29 L323 29 L318 0 L-16 0 L-12 24 Z " />
<glyph glyph-name="bracketleft" unicode="&#x5b;" horiz-adv-x="327" d="M29 -125 L170 720 L316 720 L311 689 L199 689 L68 -94 L180 -94 L175 -125 L29 -125 Z " />
<glyph glyph-name="bracketright" unicode="&#x5d;" horiz-adv-x="326" d="M10 -125 L15 -94 L127 -94 L258 689 L146 689 L151 720 L296 720 L155 -125 L10 -125 Z " />
<glyph glyph-name="parenleft" unicode="&#x28;" horiz-adv-x="327" d="M324 710 Q266 648 223 586.5 Q180 525 151.5 462 Q123 399 109 333 Q95 267 95 196 Q95 29 184 -108 L163 -125 Q113 -63 88.5 21 Q64 105 64 197 Q64 278 81 350 Q98 422 129.5 487 Q161 552 206 612 Q251 672 306 729 L324 710 Z " />
<glyph glyph-name="parenright" unicode="&#x29;" horiz-adv-x="327" d="M2 -106 Q60 -44 103 17.5 Q146 79 174.5 142 Q203 205 217 271 Q231 337 231 408 Q231 575 142 712 L163 729 Q213 667 237.5 583 Q262 499 262 407 Q262 326 245 254 Q228 182 196.5 117 Q165 52 120 -8 Q75 -68 20 -125 L2 -106 Z " />
<glyph glyph-name="braceleft" unicode="&#x7b;" horiz-adv-x="328" d="M330 690 Q303 690 285 681 Q267 672 254.5 655 Q242 638 234.5 614 Q227 590 222 559 L197 415 Q189 365 166.5 329.5 Q144 294 110 280 Q123 274 132.5 260 Q142 246 147.5 227.5 Q153 209 154.5 187.5 Q156 166 152 144 L135 43 Q129 9 129 -16.5 Q129 -42 137 -59.5 Q145 -77 162.5 -86 Q180 -95 210 -95 L243 -95 L238 -125 L210 -125 Q134 -125 110 -89.5 Q86 -54 99 24 L119 142 Q123 170 123.5 192.5 Q124 215 116.5 231 Q109 247 93 255.5 Q77 264 50 264 L29 264 L34 299 L56 299 Q83 299 102 307 Q121 315 133.5 332 Q146 349 154 374.5 Q162 400 168 435 L188 553 Q195 594 205 625 Q215 656 233 677 Q251 698 277.5 709 Q304 720 344 720 L379 720 L374 690 L330 690 Z " />
<glyph glyph-name="braceright" unicode="&#x7d;" horiz-adv-x="320" d="M84 690 L89 720 L124 720 Q164 720 187 709 Q210 698 220.5 677 Q231 656 231 625 Q231 594 224 553 L204 435 Q193 365 205 332 Q217 299 272 299 L293 299 L286 264 L265 264 Q238 264 219 255.5 Q200 247 187.5 231 Q175 215 167.5 192.5 Q160 170 155 142 L135 24 Q122 -54 86.5 -89.5 Q51 -125 -24 -125 L-51 -125 L-48 -95 L-15 -95 Q15 -95 35.5 -86 Q56 -77 69.5 -59.5 Q83 -42 91.5 -16.5 Q100 9 105 43 L122 144 Q126 168 132 191.5 Q138 215 149.5 233.5 Q161 252 179 265 Q197 278 226 281 Q199 288 185 301 Q171 314 166 331 Q161 348 162.5 369 Q164 390 168 415 L192 559 Q197 590 197.5 614 Q198 638 191.5 655 Q185 672 169.5 681 Q154 690 127 690 L84 690 Z " />
<glyph glyph-name="backslash" unicode="&#x5c;" horiz-adv-x="343" d="M329 -92 L296 -92 L53 739 L88 739 L329 -92 Z " />
<glyph glyph-name="slash" unicode="&#x2f;" horiz-adv-x="327" d="M341 739 L376 739 L-6 -92 L-39 -92 L341 739 Z " />
<glyph glyph-name="brokenbar" unicode="&#xa6;" horiz-adv-x="500" d="M264 -200 L235 -200 L235 200 L264 200 L264 -200 Z M264 320 L235 320 L235 720 L264 720 L264 320 Z " />
<glyph glyph-name="bar" unicode="&#x7c;" horiz-adv-x="500" d="M264 -200 L235 -200 L235 720 L264 720 L264 -200 Z " />
<glyph glyph-name="asciicircum" unicode="&#x5e;" horiz-adv-x="659" d="M610 441 L581 418 L391 664 L118 418 L97 442 L373 693 L418 693 L610 441 Z " />
<glyph glyph-name="underscore" unicode="&#x5f;" horiz-adv-x="488" d="M-84 -206 L404 -206 L399 -236 L-89 -236 L-84 -206 Z " />
<glyph glyph-name="asciitilde" unicode="&#x7e;" horiz-adv-x="760" d="M696 323 Q647 287 599 266 Q551 245 497 245 Q463 245 430 255.5 Q397 266 370 281 Q338 298 310.5 308 Q283 318 254 318 Q203 318 162 297.5 Q121 277 76 245 L63 269 Q113 305 160.5 326 Q208 347 262 347 Q296 347 326 335.5 Q356 324 384.5 310.5 Q413 297 441.5 285.5 Q470 274 502 274 Q547 274 588.5 293 Q630 312 681 346 L696 323 Z " />
<glyph glyph-name="zero" unicode="0" horiz-adv-x="578" d="M108 355 Q96 277 96 217 Q96 114 132 66 Q168 18 237 18 Q325 18 386 96 Q447 174 476 349 Q482 386 484.5 421.5 Q487 457 487 486 Q487 587 452 638.5 Q417 690 348 690 Q259 690 196.5 607 Q134 524 108 355 Z M75 355 Q103 542 175.5 631 Q248 720 351 720 Q435 720 478 663 Q521 606 521 487 Q521 458 518 425 Q515 392 510 355 Q496 258 470 188.5 Q444 119 409 74.5 Q374 30 329.5 9 Q285 -12 234 -12 Q151 -12 107.5 45 Q64 102 64 221 Q64 250 66.5 283.5 Q69 317 75 355 Z " />
<glyph glyph-name="one" unicode="1" horiz-adv-x="411" d="M283 655 Q239 626 192 603.5 Q145 581 94 570 L92 595 Q117 601 145 612 Q173 623 201.5 638 Q230 653 257 671.5 Q284 690 306 710 L324 710 L210 28 L352 28 L347 0 L12 0 L17 28 L178 28 L283 655 Z " />
<glyph glyph-name="two" unicode="2" horiz-adv-x="476" d="M-3 25 L328 391 Q378 446 399.5 487 Q421 528 421 571 Q421 598 411 619.5 Q401 641 384 657 Q367 673 343.5 681.5 Q320 690 293 690 Q248 690 203 670 Q158 650 111 605 L96 630 Q142 674 193 697 Q244 720 300 720 Q334 720 362.5 710 Q391 700 412 682 Q433 664 444.5 638 Q456 612 456 580 Q456 527 428.5 476.5 Q401 426 354 375 L40 28 L369 28 L364 0 L-7 0 L-3 25 Z " />
<glyph glyph-name="three" unicode="3" horiz-adv-x="489" d="M10 107 Q45 61 84 39.5 Q123 18 184 18 Q223 18 259 32.5 Q295 47 322 73 Q349 99 365 135 Q381 171 381 215 Q381 243 373 268 Q365 293 346.5 311.5 Q328 330 298 341 Q268 352 225 352 Q221 352 214.5 351.5 Q208 351 200 351 L182 351 L185 381 Q228 382 267.5 397.5 Q307 413 337 439 Q367 465 384.5 500 Q402 535 402 576 Q402 632 367.5 661 Q333 690 284 690 Q240 690 199.5 677.5 Q159 665 119 636 L106 658 Q144 684 189.5 702 Q235 720 287 720 Q353 720 394.5 684 Q436 648 436 581 Q436 547 424 514 Q412 481 390.5 453.5 Q369 426 339.5 405 Q310 384 276 375 Q313 372 339.5 358.5 Q366 345 383 325 Q400 305 407.5 278.5 Q415 252 415 222 Q415 167 395 123.5 Q375 80 342 50 Q309 20 266.5 4 Q224 -12 179 -12 Q115 -12 70 9 Q25 30 -16 84 L10 107 Z " />
<glyph glyph-name="four" unicode="4" horiz-adv-x="499" d="M342 212 L421 680 L59 212 L342 212 Z M338 184 L15 184 L18 205 L410 710 L456 710 L372 212 L460 212 L456 184 L368 184 L337 0 L307 0 L338 184 Z " />
<glyph glyph-name="five" unicode="5" horiz-adv-x="512" d="M174 710 L484 710 L477 682 L199 682 L123 367 Q149 392 192 410.5 Q235 429 282 429 Q363 429 402 384 Q441 339 441 261 Q441 198 420.5 147.5 Q400 97 365.5 61.5 Q331 26 284.5 7 Q238 -12 186 -12 Q147 -12 100.5 0 Q54 12 12 43 L32 70 Q108 18 184 18 Q231 18 272 35 Q313 52 343 82.5 Q373 113 390 156.5 Q407 200 407 253 Q407 283 399.5 309.5 Q392 336 376 356 Q360 376 335 387.5 Q310 399 276 399 Q226 399 185 379 Q144 359 115 330 L104 285 L74 285 L174 710 Z " />
<glyph glyph-name="six" unicode="6" horiz-adv-x="503" d="M55 287 Q70 401 101 483 Q132 565 174 617.5 Q216 670 266.5 695 Q317 720 373 720 Q408 720 442 706 Q476 692 502 665 L479 642 Q452 670 426 680.5 Q400 691 367 691 Q307 691 262.5 661.5 Q218 632 186 582.5 Q154 533 132 469.5 Q110 406 95 339 Q140 378 190.5 405 Q241 432 298 432 Q340 432 369 418.5 Q398 405 416.5 382.5 Q435 360 443.5 329.5 Q452 299 452 265 Q452 251 450.5 237.5 Q449 224 447 210 Q430 106 370 47 Q310 -12 214 -12 Q129 -12 88.5 41 Q48 94 48 194 Q48 215 49.5 238 Q51 261 55 287 Z M220 18 Q251 18 282 28.5 Q313 39 339.5 61.5 Q366 84 385 120.5 Q404 157 413 210 Q415 224 416.5 237.5 Q418 251 418 263 Q418 299 408 325.5 Q398 352 380.5 369 Q363 386 340 394 Q317 402 291 402 Q259 402 230 392 Q201 382 175 367 Q149 352 127.5 334.5 Q106 317 90 302 Q80 243 80 195 Q80 146 90 112.5 Q100 79 118.5 58 Q137 37 163 27.5 Q189 18 220 18 Z " />
<glyph glyph-name="seven" unicode="7" horiz-adv-x="414" d="M61 0 L26 0 L27 6 L406 682 L64 682 L69 710 L449 710 L445 689 L61 0 Z " />
<glyph glyph-name="eight" unicode="8" horiz-adv-x="499" d="M57 144 Q57 88 94.5 53 Q132 18 201 18 Q244 18 280.5 32 Q317 46 343.5 71.5 Q370 97 385 132.5 Q400 168 400 210 Q400 243 388 269 Q376 295 356.5 314 Q337 333 311.5 347 Q286 361 259 370 Q221 355 184.5 335.5 Q148 316 119.5 289 Q91 262 74 226.5 Q57 191 57 144 Z M150 536 Q150 510 159.5 489 Q169 468 185.5 451 Q202 434 223 421.5 Q244 409 267 400 Q292 410 321 426 Q350 442 375.5 465 Q401 488 418 517 Q435 546 435 582 Q435 633 402 661.5 Q369 690 313 690 Q278 690 248 679.5 Q218 669 196.5 649 Q175 629 162.5 600.5 Q150 572 150 536 Z M24 142 Q24 227 80 288 Q136 349 228 385 Q117 431 117 532 Q117 575 133 609.5 Q149 644 176 668.5 Q203 693 239.5 706.5 Q276 720 318 720 Q385 720 427 685.5 Q469 651 469 589 Q469 557 456.5 527.5 Q444 498 422 472 Q400 446 370 424 Q340 402 304 386 Q370 356 401.5 314.5 Q433 273 433 216 Q433 166 415.5 124.5 Q398 83 367 52.5 Q336 22 292 5 Q248 -12 196 -12 Q113 -12 68.5 29.5 Q24 71 24 142 Z " />
<glyph glyph-name="nine" unicode="9" horiz-adv-x="503" d="M466 500 Q466 388 444.5 294 Q423 200 383 132 Q343 64 287.5 26 Q232 -12 164 -12 Q121 -12 84.5 1.5 Q48 15 25 42 L46 66 Q70 42 97.5 29.5 Q125 17 167 17 Q218 17 261 44.5 Q304 72 337 120 Q370 168 392.5 232 Q415 296 425 368 Q384 323 331.5 300 Q279 277 219 277 Q179 277 150.5 291.5 Q122 306 104 330 Q86 354 78 385.5 Q70 417 70 452 Q70 507 85.5 556 Q101 605 131 641.5 Q161 678 203.5 699 Q246 720 300 720 Q382 720 424 659.5 Q466 599 466 500 Z M297 690 Q261 690 226.5 675.5 Q192 661 164.5 632 Q137 603 120.5 558 Q104 513 104 452 Q104 414 113.5 386.5 Q123 359 139.5 341.5 Q156 324 178 315.5 Q200 307 226 307 Q257 307 286.5 316 Q316 325 342 339 Q368 353 390 371 Q412 389 427 407 Q444 544 410.5 617 Q377 690 297 690 Z " />
<glyph glyph-name="dollar" unicode="&#x24;" horiz-adv-x="494" d="M170 -2 Q105 0 62 26.5 Q19 53 -10 92 L15 115 Q48 72 89 49.5 Q130 27 182 27 Q222 27 258.5 38.5 Q295 50 323 71.5 Q351 93 367.5 125 Q384 157 384 199 Q384 245 352.5 276.5 Q321 308 244 334 Q156 363 119.5 398.5 Q83 434 83 490 Q83 533 98 567.5 Q113 602 140 626.5 Q167 651 203.5 665 Q240 679 284 682 L300 776 L331 776 L315 683 Q433 678 479 588 L453 569 Q440 593 422 609 Q404 625 384 635 Q364 645 342 649 Q320 653 299 653 Q262 653 229 643 Q196 633 171 613.5 Q146 594 131 565 Q116 536 116 499 Q116 471 126 451 Q136 431 155 416 Q174 401 201 389 Q228 377 262 365 Q346 336 381.5 298.5 Q417 261 417 205 Q417 161 399.5 124.5 Q382 88 352 61 Q322 34 283 18 Q244 2 201 -1 L186 -87 L155 -87 L170 -2 Z " />
<glyph glyph-name="Euro" unicode="&#x20ac;" horiz-adv-x="582" d="M29 423 L102 423 Q118 481 147 535 Q176 589 215.5 630 Q255 671 305 695.5 Q355 720 414 720 Q445 720 474.5 713.5 Q504 707 530 692 Q556 677 577.5 651.5 Q599 626 613 589 L585 572 Q562 636 514 663 Q466 690 409 690 Q359 690 316 670 Q273 650 238 614 Q203 578 176.5 529 Q150 480 134 423 L492 423 L485 396 L127 396 Q125 387 123.5 378.5 Q122 370 120 361 Q116 332 114 303 L462 303 L455 276 L112 276 Q111 218 123 170.5 Q135 123 159 89 Q183 55 218.5 36.5 Q254 18 299 18 Q367 18 415 42 Q463 66 505 106 L521 86 Q474 39 419.5 13.5 Q365 -12 294 -12 Q234 -12 192.5 12.5 Q151 37 125.5 77.5 Q100 118 89.5 169.5 Q79 221 80 276 L-8 276 L-1 303 L82 303 Q84 331 88 359 Q90 368 91.5 377 Q93 386 95 396 L22 396 L29 423 Z " />
<glyph glyph-name="cent" unicode="&#xa2;" horiz-adv-x="513" d="M230 78 Q149 82 107 142 Q65 202 65 296 Q65 374 86.5 434 Q108 494 143.5 535 Q179 576 225 598 Q271 620 321 622 L337 720 L367 720 L351 621 Q423 615 456 568 Q489 521 484 447 L453 447 Q456 522 421 557.5 Q386 593 326 593 Q276 593 234 571.5 Q192 550 162 511.5 Q132 473 115.5 420 Q99 367 99 305 Q99 266 108 230 Q117 194 135 166.5 Q153 139 181 123 Q209 107 248 107 Q273 107 293.5 110.5 Q314 114 334 122 Q354 130 374.5 143 Q395 156 419 174 L430 149 Q385 111 344.5 95.5 Q304 80 260 78 L244 -18 L214 -18 L230 78 Z " />
<glyph glyph-name="sterling" unicode="&#xa3;" horiz-adv-x="486" d="M202 239 Q202 206 192 177.5 Q182 149 166.5 123.5 Q151 98 131 75 Q111 52 91 31 L397 31 L392 0 L6 0 L11 31 L55 31 Q75 51 95.5 74 Q116 97 133 123 Q150 149 161 177 Q172 205 172 236 Q172 259 168 287 Q164 315 160 331 L63 331 L68 359 L153 359 L143 391 Q131 430 125 459 Q119 488 119 514 Q119 562 138.5 600.5 Q158 639 189 665.5 Q220 692 259 706 Q298 720 338 720 Q395 720 434 701.5 Q473 683 497 640 L471 622 Q431 692 337 692 Q304 692 270.5 680.5 Q237 669 211 646.5 Q185 624 168.5 592 Q152 560 152 520 Q152 499 157.5 471.5 Q163 444 174 402 L186 359 L343 359 L338 331 L192 331 Q196 314 199 287 Q202 260 202 239 Z " />
<glyph glyph-name="yen" unicode="&#xa5;" horiz-adv-x="542" d="M492 355 L295 355 L280 265 L477 265 L472 236 L275 236 L236 0 L204 0 L243 236 L48 236 L53 265 L248 265 L263 355 L68 355 L73 384 L253 384 L118 710 L156 710 L285 391 L524 710 L561 710 L314 384 L497 384 L492 355 Z " />
<glyph glyph-name="florin" unicode="&#x192;" horiz-adv-x="401" d="M1 -171 Q33 -171 55 -144.5 Q77 -118 89 -59 L175 361 L99 361 L99 391 L182 391 L219 575 Q224 599 231 623.5 Q238 648 251 667 Q264 686 285 698 Q306 710 338 710 L385 710 L385 681 L340 681 Q314 681 298 670.5 Q282 660 272.5 641 Q263 622 256.5 595.5 Q250 569 243 536 L212 391 L309 391 L309 361 L207 361 L150 80 Q136 12 126.5 -40 Q117 -92 102.5 -127.5 Q88 -163 64.5 -181.5 Q41 -200 1 -200 L-39 -200 L-39 -171 L1 -171 Z " />
<glyph glyph-name="section" unicode="&#xa7;" horiz-adv-x="511" d="M75 86 Q97 59 126.5 38 Q156 17 207 17 Q237 17 263.5 25 Q290 33 310 48 Q330 63 341.5 84 Q353 105 353 131 Q353 166 331 184 Q309 202 273 214 L193 240 Q148 255 126 276 Q104 297 104 338 Q104 360 113.5 384 Q123 408 141.5 428 Q160 448 189 461.5 Q218 475 257 477 Q225 484 203.5 496.5 Q182 509 169 523.5 Q156 538 150.5 554 Q145 570 145 586 Q145 613 157 639 Q169 665 191.5 686 Q214 707 246 719.5 Q278 732 319 732 Q339 732 359.5 727.5 Q380 723 398.5 715 Q417 707 431.5 695 Q446 683 455 667 L431 648 Q406 677 381.5 690 Q357 703 314 703 Q290 703 266 696 Q242 689 222.5 675.5 Q203 662 191 640.5 Q179 619 179 591 Q179 556 200.5 535.5 Q222 515 259 503 Q305 488 338 475.5 Q371 463 391 448.5 Q411 434 420.5 416.5 Q430 399 430 375 Q430 341 417 316 Q404 291 383 274.5 Q362 258 336 249 Q310 240 284 238 Q341 218 364 195 Q387 172 387 138 Q387 108 373.5 81 Q360 54 335.5 33 Q311 12 277.5 0 Q244 -12 204 -12 Q160 -12 117.5 6.5 Q75 25 52 63 L75 86 Z M281 458 Q211 458 173 427 Q135 396 135 345 Q135 325 144.5 309.5 Q154 294 170.5 283 Q187 272 209.5 266 Q232 260 257 260 Q282 260 307 265 Q332 270 352 282 Q372 294 385 314 Q398 334 398 365 Q398 386 387.5 403.5 Q377 421 360.5 433 Q344 445 323 451.5 Q302 458 281 458 Z " />
<glyph glyph-name="copyright" unicode="&#xa9;" horiz-adv-x="820" d="M553 228 Q529 200 496.5 183 Q464 166 419 166 Q377 166 346.5 181.5 Q316 197 296.5 224 Q277 251 267.5 287 Q258 323 258 364 Q258 403 268.5 438.5 Q279 474 299.5 501 Q320 528 350.5 543.5 Q381 559 422 559 Q479 559 514.5 527.5 Q550 496 551 438 L523 438 Q519 478 496 504.5 Q473 531 420 531 Q356 531 323.5 484.5 Q291 438 291 366 Q291 277 325.5 235.5 Q360 194 420 194 Q460 194 486.5 208.5 Q513 223 534 245 L553 228 Z M419 691 Q347 691 287 665 Q227 639 183.5 594.5 Q140 550 116 489.5 Q92 429 92 360 Q92 276 119 214 Q146 152 191.5 111 Q237 70 296 50 Q355 30 419 30 Q481 30 540.5 54.5 Q600 79 646 123 Q692 167 720 227.5 Q748 288 748 360 Q748 434 722.5 495 Q697 556 653 599.5 Q609 643 549 667 Q489 691 419 691 Z M419 720 Q498 720 564 693.5 Q630 667 678 620 Q726 573 752.5 507.5 Q779 442 779 364 Q779 285 749 218.5 Q719 152 669.5 103.5 Q620 55 554.5 27.5 Q489 0 419 0 Q347 0 281.5 22.5 Q216 45 166.5 90 Q117 135 88 202.5 Q59 270 59 360 Q59 437 86.5 503 Q114 569 162.5 617 Q211 665 277 692.5 Q343 720 419 720 Z " />
<glyph glyph-name="registered" unicode="&#xae;" horiz-adv-x="420" d="M248 636 Q279 636 293 622.5 Q307 609 307 586 Q307 570 299.5 557.5 Q292 545 277 538 L318 464 L296 464 L257 535 Q252 534 247 534 Q242 534 237 534 L204 534 L204 464 L184 464 L184 636 L248 636 Z M204 619 L204 551 L238 551 Q262 551 274 558 Q286 565 286 584 Q286 619 241 619 L204 619 Z M243 698 Q211 698 184.5 687 Q158 676 138.5 656 Q119 636 108 609 Q97 582 97 550 Q97 476 138.5 439 Q180 402 243 402 Q271 402 297.5 413 Q324 424 344 444 Q364 464 376.5 491 Q389 518 389 550 Q389 616 349.5 657 Q310 698 243 698 Z M243 720 Q281 720 312.5 707.5 Q344 695 366.5 672.5 Q389 650 401 618.5 Q413 587 413 550 Q413 513 399 482 Q385 451 361.5 428.5 Q338 406 307 393 Q276 380 243 380 Q206 380 175 391.5 Q144 403 121.5 424.5 Q99 446 86 477.5 Q73 509 73 550 Q73 586 86 617.5 Q99 649 122 671.5 Q145 694 176 707 Q207 720 243 720 Z " />
<glyph glyph-name="trademark" unicode="&#x2122;" horiz-adv-x="600" d="M573 466 L550 674 L465 466 L444 466 L363 674 L342 466 L315 466 L342 720 L371 720 L456 508 L539 720 L569 720 L599 466 L573 466 Z M164 692 L77 692 L77 720 L278 720 L278 692 L190 692 L190 466 L164 466 L164 692 Z " />
<glyph glyph-name="ordfeminine" unicode="&#xaa;" horiz-adv-x="456" d="M345 309 Q336 301 322 291 Q308 281 290.5 272.5 Q273 264 251 258 Q229 252 204 252 Q169 252 144 263 Q119 274 103.5 294 Q88 314 80.5 341.5 Q73 369 73 402 Q73 451 85.5 496 Q98 541 123.5 575 Q149 609 187 629 Q225 649 276 649 Q320 649 348 627.5 Q376 606 393 581 L404 641 L436 641 L367 261 L336 261 L345 309 Z M386 541 Q380 551 370 565.5 Q360 580 346 592.5 Q332 605 313 614 Q294 623 269 623 Q235 623 205 607.5 Q175 592 153 564.5 Q131 537 118.5 497.5 Q106 458 106 410 Q106 382 111 358 Q116 334 128 316.5 Q140 299 160 289 Q180 279 210 279 Q232 279 253.5 286.5 Q275 294 293 304.5 Q311 315 326 327.5 Q341 340 352 350 L386 541 Z " />
<glyph glyph-name="ordmasculine" unicode="&#xba;" horiz-adv-x="452" d="M117 413 Q117 346 145.5 314.5 Q174 283 222 283 Q255 283 285 296 Q315 309 337.5 335.5 Q360 362 373.5 401 Q387 440 387 492 Q387 560 357.5 592 Q328 624 280 624 Q246 624 216.5 610.5 Q187 597 165 570.5 Q143 544 130 504.5 Q117 465 117 413 Z M84 411 Q84 464 98.5 508 Q113 552 139 584 Q165 616 202 633.5 Q239 651 284 651 Q348 651 383.5 609 Q419 567 419 494 Q419 441 404 397.5 Q389 354 362.5 322 Q336 290 299 272.5 Q262 255 218 255 Q153 255 118.5 297 Q84 339 84 411 Z " />
<glyph glyph-name="guillemotleft" unicode="&#xab;" horiz-adv-x="469" d="M406.003 131.024 L382.005 111.025 L256.012 255.016 L258.012 267.016 L432.002 411.007 L449.001 392.008 L300.01 261.016 L406.003 131.024 Z M193.003 131.024 L169.005 111.025 L43.0124 255.016 L45.0123 267.016 L219.002 411.007 L236.001 392.008 L87.0097 261.016 L193.003 131.024 Z " />
<glyph glyph-name="guillemotright" unicode="&#xbb;" horiz-adv-x="471" d="M266 391 L290 411 L416 267 L414 255 L240 111 L223 130 L372 261 L266 391 Z M53 391 L77 411 L203 267 L201 255 L27 111 L10 130 L159 261 L53 391 Z " />
<glyph glyph-name="guilsinglleft" unicode="&#x2039;" horiz-adv-x="256" d="M193 131 L169 111 L43 255 L45 267 L219 411 L236 392 L87 261 L193 131 Z " />
<glyph glyph-name="guilsinglright" unicode="&#x203a;" horiz-adv-x="257" d="M53 391 L77 411 L203 267 L201 255 L27 111 L10 130 L159 261 L53 391 Z " />
<glyph glyph-name="quoteleft" unicode="&#x2018;" horiz-adv-x="195" d="M180 607 Q180 587 167 575.5 Q154 564 138 564 Q117 564 109.5 578.5 Q102 593 102 610 Q102 641 122 677.5 Q142 714 189 737 L194 722 Q158 702 144 680 Q130 658 126 624 Q137 635 153 635 Q167 635 173.5 627 Q180 619 180 607 Z " />
<glyph glyph-name="quoteright" unicode="&#x2019;" horiz-adv-x="195" d="M115 677 Q115 697 128 708.5 Q141 720 157 720 Q178 720 185.5 705.5 Q193 691 193 674 Q193 643 173 606.5 Q153 570 106 547 L101 562 Q119 572 131 582 Q143 592 151 603.5 Q159 615 163 629 Q167 643 169 660 Q158 649 142 649 Q128 649 121.5 657 Q115 665 115 677 Z " />
<glyph glyph-name="quotesinglbase" unicode="&#x201a;" horiz-adv-x="195" d="M25 17 Q25 37 38 48.5 Q51 60 67 60 Q88 60 95.5 45.5 Q103 31 103 14 Q103 -17 83 -53.5 Q63 -90 16 -113 L11 -98 Q29 -88 41 -78 Q53 -68 61 -56.5 Q69 -45 73 -31 Q77 -17 79 0 Q68 -11 52 -11 Q38 -11 31.5 -3 Q25 5 25 17 Z " />
<glyph glyph-name="quotedblleft" unicode="&#x201c;" horiz-adv-x="329" d="M180.007 607.041 Q180.007 587.043 167.008 575.543 Q154.009 564.044 138.01 564.044 Q117.011 564.044 109.511 578.543 Q102.012 593.042 102.012 610.041 Q102.012 641.039 122.011 677.537 Q142.009 714.035 189.006 737.033 L194.006 722.034 Q176.007 712.035 164.008 702.036 Q152.009 692.036 144.009 680.537 Q136.01 669.038 132.01 655.038 Q128.01 641.039 126.01 624.04 Q137.01 635.04 153.009 635.04 Q167.008 635.04 173.507 627.04 Q180.007 619.041 180.007 607.041 Z M314.007 607.041 Q314.007 587.043 301.008 575.543 Q288.009 564.044 272.01 564.044 Q251.011 564.044 243.511 578.543 Q236.012 593.042 236.012 610.041 Q236.012 641.039 256.011 677.537 Q276.009 714.035 323.006 737.033 L328.006 722.034 Q310.007 712.035 298.008 702.036 Q286.009 692.036 278.009 680.537 Q270.01 669.038 266.01 655.038 Q262.01 641.039 260.01 624.04 Q271.01 635.04 287.009 635.04 Q301.008 635.04 307.507 627.04 Q314.007 619.041 314.007 607.041 Z " />
<glyph glyph-name="quotedblright" unicode="&#x201d;" horiz-adv-x="329" d="M249 677 Q249 697 262 708.5 Q275 720 291 720 Q312 720 319.5 705.5 Q327 691 327 674 Q327 643 307 606.5 Q287 570 240 547 L235 562 Q253 572 265 582 Q277 592 285 603.5 Q293 615 297 629 Q301 643 303 660 Q292 649 276 649 Q262 649 255.5 657 Q249 665 249 677 Z M115 677 Q115 697 128 708.5 Q141 720 157 720 Q178 720 185.5 705.5 Q193 691 193 674 Q193 643 173 606.5 Q153 570 106 547 L101 562 Q119 572 131 582 Q143 592 151 603.5 Q159 615 163 629 Q167 643 169 660 Q158 649 142 649 Q128 649 121.5 657 Q115 665 115 677 Z " />
<glyph glyph-name="quotedblbase" unicode="&#x201e;" horiz-adv-x="324" d="M153 17 Q153 37 166 48.5 Q179 60 195 60 Q216 60 223.5 45.5 Q231 31 231 14 Q231 -17 211 -53.5 Q191 -90 144 -113 L139 -98 Q157 -88 169 -78 Q181 -68 189 -56.5 Q197 -45 201 -31 Q205 -17 207 0 Q196 -11 180 -11 Q166 -11 159.5 -3 Q153 5 153 17 Z M25 17 Q25 37 38 48.5 Q51 60 67 60 Q88 60 95.5 45.5 Q103 31 103 14 Q103 -17 83 -53.5 Q63 -90 16 -113 L11 -98 Q29 -88 41 -78 Q53 -68 61 -56.5 Q69 -45 73 -31 Q77 -17 79 0 Q68 -11 52 -11 Q38 -11 31.5 -3 Q25 5 25 17 Z " />
<glyph glyph-name="dagger" unicode="&#x2020;" horiz-adv-x="491" d="M161 -105 L259 477 L79 477 L84 506 L264 506 L299 719 L331 719 L296 506 L477 506 L472 477 L291 477 L193 -105 L161 -105 Z " />
<glyph glyph-name="daggerdbl" unicode="&#x2021;" horiz-adv-x="489" d="M161 -105 L197 107 L17 107 L22 136 L202 136 L259 477 L79 477 L84 506 L264 506 L299 719 L329 719 L294 506 L475 506 L470 477 L289 477 L232 136 L413 136 L408 107 L227 107 L191 -105 L161 -105 Z " />
<glyph glyph-name="bullet" unicode="&#x2022;" horiz-adv-x="500" d="M152 292 Q152 337 182 365 Q212 393 254 393 Q274 393 292 386 Q310 379 324 366 Q338 353 346.5 334.5 Q355 316 355 292 Q355 244 325 217 Q295 190 253 190 Q211 190 181.5 218 Q152 246 152 292 Z " />
<glyph glyph-name="ellipsis" unicode="&#x2026;" horiz-adv-x="752" d="M303 23 Q303 41 313.5 50 Q324 59 338 59 Q352 59 362.5 50 Q373 41 373 24 Q373 7 362.5 -2.5 Q352 -12 338 -12 Q324 -12 313.5 -3 Q303 6 303 23 Z M52 23 Q52 41 62.5 50 Q73 59 87 59 Q101 59 111.5 50 Q122 41 122 24 Q122 7 111.5 -2.5 Q101 -12 87 -12 Q73 -12 62.5 -3 Q52 6 52 23 Z M554 23 Q554 41 564.5 50 Q575 59 589 59 Q603 59 613.5 50 Q624 41 624 24 Q624 7 613.5 -2.5 Q603 -12 589 -12 Q575 -12 564.5 -3 Q554 6 554 23 Z " />
<glyph glyph-name="paragraph" unicode="&#xb6;" horiz-adv-x="517" d="M364 0 L332 0 L448 692 L326 692 L210 0 L178 0 L242 380 Q167 383 126.5 422 Q86 461 86 524 Q86 567 102.5 603 Q119 639 148 665 Q177 691 217 705.5 Q257 720 305 720 L484 720 L364 0 Z " />
<glyph glyph-name="periodcentered" unicode="&#xb7;" horiz-adv-x="253" d="M90 340 Q90 358 101 367.5 Q112 377 126 377 Q141 377 152 368 Q163 359 163 340 Q163 325 152 314.5 Q141 304 126 304 Q111 304 100.5 313.5 Q90 323 90 340 Z " />
<glyph glyph-name="uni00AD" unicode="&#xad;" horiz-adv-x="322" d="M22 292 L281 292 L276 264 L17 264 L22 292 Z " />
<glyph glyph-name="endash" unicode="&#x2013;" horiz-adv-x="500" d="M-1 276 L487 276 L482 247 L-6 247 L-1 276 Z " />
<glyph glyph-name="emdash" unicode="&#x2014;" horiz-adv-x="1000" d="M5 277 L980 277 L976 248 L1 248 L5 277 Z " />
<glyph glyph-name="Agrave" unicode="&#xc0;" horiz-adv-x="602" d="M387 720 L527 0 L493 0 L445 245 L137 245 L8 0 L-27 0 L352 720 L387 720 Z M440 275 L363 680 L153 275 L440 275 Z M440 778 L425 759 L278 841 L298 868 L440 778 Z " />
<glyph glyph-name="Aacute" unicode="&#xc1;" horiz-adv-x="602" d="M387 720 L527 0 L493 0 L445 245 L137 245 L8 0 L-27 0 L352 720 L387 720 Z M440 275 L363 680 L153 275 L440 275 Z M480 871 L491 841 L316 759 L308 781 L480 871 Z " />
<glyph glyph-name="Acircumflex" unicode="&#xc2;" horiz-adv-x="602" d="M387 720 L527 0 L493 0 L445 245 L137 245 L8 0 L-27 0 L352 720 L387 720 Z M440 275 L363 680 L153 275 L440 275 Z M468 777 L449 761 L377 832 L277 760 L264 777 L370 864 L393 864 L468 777 Z " />
<glyph glyph-name="Atilde" unicode="&#xc3;" horiz-adv-x="602" d="M387 720 L527 0 L493 0 L445 245 L137 245 L8 0 L-27 0 L352 720 L387 720 Z M440 275 L363 680 L153 275 L440 275 Z M509 840 Q492 808 473 797.5 Q454 787 434 787 Q417 787 401.5 792.5 Q386 798 372 804.5 Q358 811 345.5 816.5 Q333 822 322 822 Q311 822 299.5 815 Q288 808 271 785 L251 796 Q271 828 289.5 839 Q308 850 328 850 Q343 850 356.5 844.5 Q370 839 383 832.5 Q396 826 409.5 820.5 Q423 815 438 815 Q453 815 464 822 Q475 829 488 850 L509 840 Z " />
<glyph glyph-name="Adieresis" unicode="&#xc4;" horiz-adv-x="602" d="M387 720 L527 0 L493 0 L445 245 L137 245 L8 0 L-27 0 L352 720 L387 720 Z M440 275 L363 680 L153 275 L440 275 Z M432 809 Q432 823 442.5 832.5 Q453 842 467 842 Q477 842 483 835 Q489 828 489 817 Q489 803 479.5 793.5 Q470 784 457 784 Q446 784 439 791 Q432 798 432 809 Z M268 809 Q268 823 278 832.5 Q288 842 302 842 Q312 842 318 835 Q324 828 324 817 Q324 803 314.5 793.5 Q305 784 292 784 Q281 784 274.5 791 Q268 798 268 809 Z " />
<glyph glyph-name="Aring" unicode="&#xc5;" horiz-adv-x="602" d="M299 783 Q299 804 307 821.5 Q315 839 329 852.5 Q343 866 360.5 873.5 Q378 881 398 881 Q430 881 450 861.5 Q470 842 470 811 Q470 773 447 747.5 Q424 722 389 716 L528 0 L494 0 L446 245 L138 245 L9 0 L-26 0 L352 717 Q328 722 313.5 739.5 Q299 757 299 783 Z M441 275 L364 680 L154 275 L441 275 Z M329 786 Q329 764 341.5 753 Q354 742 375 742 Q406 742 423.5 761 Q441 780 441 809 Q441 852 394 852 Q365 852 347 833.5 Q329 815 329 786 Z " />
<glyph glyph-name="AE" unicode="&#xc6;" horiz-adv-x="949" d="M454 243 L191 243 L11 0 L-26 0 L499 720 L950 720 L945 690 L561 690 L511 389 L862 389 L857 360 L506 360 L451 29 L845 29 L840 0 L413 0 L454 243 Z M459 275 L528 690 L512 690 L213 275 L459 275 Z " />
<glyph glyph-name="Ccedilla" unicode="&#xc7;" horiz-adv-x="624" d="M204 -158 Q216 -164 230.5 -168 Q245 -172 263 -172 Q273 -172 285 -170 Q297 -168 306.5 -163 Q316 -158 322.5 -148 Q329 -138 329 -121 Q329 -100 311.5 -91.5 Q294 -83 263 -83 L256 -83 L282 -11 Q223 -8 182 16 Q141 40 115 79 Q89 118 77 169.5 Q65 221 65 278 Q65 365 89 447 Q113 529 159 592.5 Q205 656 272.5 694.5 Q340 733 428 733 Q476 733 515 719 Q554 705 579.5 679 Q605 653 616 615.5 Q627 578 619 531 L588 531 Q593 562 586.5 593 Q580 624 560 648 Q540 672 505.5 687 Q471 702 420 702 Q346 702 287 669.5 Q228 637 186.5 580 Q145 523 122.5 446.5 Q100 370 100 283 Q100 155 154.5 87 Q209 19 304 19 Q377 19 429 45.5 Q481 72 526 115 L544 95 Q495 45 437 17.5 Q379 -10 307 -12 L289 -61 Q301 -62 313 -64.5 Q325 -67 335 -73 Q345 -79 351.5 -89 Q358 -99 358 -114 Q358 -137 350 -153 Q342 -169 328.5 -179 Q315 -189 297 -193.5 Q279 -198 259 -198 Q237 -198 218 -192.5 Q199 -187 192 -182 L204 -158 Z " />
<glyph glyph-name="Egrave" unicode="&#xc8;" horiz-adv-x="579" d="M163 720 L580 720 L575 690 L191 690 L141 389 L492 389 L487 360 L136 360 L81 29 L475 29 L470 0 L43 0 L163 720 Z M452 778 L437 759 L290 841 L310 868 L452 778 Z " />
<glyph glyph-name="Eacute" unicode="&#xc9;" horiz-adv-x="579" d="M163 720 L580 720 L575 690 L191 690 L141 389 L492 389 L487 360 L136 360 L81 29 L475 29 L470 0 L43 0 L163 720 Z M485 871 L496 841 L321 759 L313 781 L485 871 Z " />
<glyph glyph-name="Ecircumflex" unicode="&#xca;" horiz-adv-x="579" d="M163 720 L580 720 L575 690 L191 690 L141 389 L492 389 L487 360 L136 360 L81 29 L475 29 L470 0 L43 0 L163 720 Z M484 777 L465 761 L393 832 L293 760 L280 777 L386 864 L409 864 L484 777 Z " />
<glyph glyph-name="Edieresis" unicode="&#xcb;" horiz-adv-x="579" d="M163 720 L580 720 L575 690 L191 690 L141 389 L492 389 L487 360 L136 360 L81 29 L475 29 L470 0 L43 0 L163 720 Z M443 809 Q443 823 453.5 832.5 Q464 842 478 842 Q488 842 494 835 Q500 828 500 817 Q500 803 490.5 793.5 Q481 784 468 784 Q457 784 450 791 Q443 798 443 809 Z M279 809 Q279 823 289 832.5 Q299 842 313 842 Q323 842 329 835 Q335 828 335 817 Q335 803 325.5 793.5 Q316 784 303 784 Q292 784 285.5 791 Q279 798 279 809 Z " />
<glyph glyph-name="Igrave" unicode="&#xcc;" horiz-adv-x="219" d="M163 720 L196 720 L76 0 L43 0 L163 720 Z M270 778 L255 759 L108 841 L128 868 L270 778 Z " />
<glyph glyph-name="Iacute" unicode="&#xcd;" horiz-adv-x="219" d="M163 720 L196 720 L76 0 L43 0 L163 720 Z M270 871 L281 841 L106 759 L98 781 L270 871 Z " />
<glyph glyph-name="Icircumflex" unicode="&#xce;" horiz-adv-x="219" d="M163 720 L196 720 L76 0 L43 0 L163 720 Z M290 777 L271 761 L199 832 L99 760 L86 777 L192 864 L215 864 L290 777 Z " />
<glyph glyph-name="Idieresis" unicode="&#xcf;" horiz-adv-x="219" d="M163 720 L196 720 L76 0 L43 0 L163 720 Z M247 809 Q247 823 257.5 832.5 Q268 842 282 842 Q292 842 298 835 Q304 828 304 817 Q304 803 294.5 793.5 Q285 784 272 784 Q261 784 254 791 Q247 798 247 809 Z M83 809 Q83 823 93 832.5 Q103 842 117 842 Q127 842 133 835 Q139 828 139 817 Q139 803 129.5 793.5 Q120 784 107 784 Q96 784 89.5 791 Q83 798 83 809 Z " />
<glyph glyph-name="Eth" unicode="&#xd0;" horiz-adv-x="690" d="M50 382 L128 382 L184 720 L343 720 Q415 720 471.5 704.5 Q528 689 567 655 Q606 621 626 568.5 Q646 516 646 442 Q646 326 618 242.5 Q590 159 536.5 105 Q483 51 404 25.5 Q325 0 223 0 L64 0 L123 354 L45 354 L50 382 Z M213 689 L162 382 L310 382 L305 354 L157 354 L103 31 L246 31 Q348 31 417.5 61.5 Q487 92 530 146 Q573 200 592 275 Q611 350 611 439 Q611 558 550.5 623.5 Q490 689 356 689 L213 689 Z " />
<glyph glyph-name="Ntilde" unicode="&#xd1;" horiz-adv-x="676" d="M163 720 L198 720 L511 57 L620 720 L653 720 L533 0 L500 0 L187 667 L76 0 L43 0 L163 720 Z M552 840 Q535 808 516 797.5 Q497 787 477 787 Q460 787 444.5 792.5 Q429 798 415 804.5 Q401 811 388.5 816.5 Q376 822 365 822 Q354 822 342.5 815 Q331 808 314 785 L294 796 Q314 828 332.5 839 Q351 850 371 850 Q386 850 399.5 844.5 Q413 839 426 832.5 Q439 826 452.5 820.5 Q466 815 481 815 Q496 815 507 822 Q518 829 531 850 L552 840 Z " />
<glyph glyph-name="Ograve" unicode="&#xd2;" horiz-adv-x="731" d="M110 372 Q101 315 101 267 Q101 203 117 156.5 Q133 110 162 79.5 Q191 49 231.5 34.5 Q272 20 322 20 Q381 20 433 40 Q485 60 526.5 103 Q568 146 598.5 212.5 Q629 279 644 372 Q648 395 649.5 417 Q651 439 651 459 Q651 580 591.5 640 Q532 700 433 700 Q373 700 320 679.5 Q267 659 224.5 617.5 Q182 576 152.5 514.5 Q123 453 110 372 Z M75 372 Q89 465 123.5 533 Q158 601 207 645.5 Q256 690 315.5 711 Q375 732 438 732 Q493 732 538.5 715.5 Q584 699 617 666 Q650 633 668 582 Q686 531 686 462 Q686 441 684.5 418.5 Q683 396 679 372 Q663 266 628 193 Q593 120 545 74.5 Q497 29 438.5 8.5 Q380 -12 318 -12 Q264 -12 218 3.5 Q172 19 138.5 52.5 Q105 86 86 139 Q67 192 67 266 Q67 290 68.5 316.5 Q70 343 75 372 Z M536 778 L521 759 L374 841 L394 868 L536 778 Z " />
<glyph glyph-name="Oacute" unicode="&#xd3;" horiz-adv-x="731" d="M110 372 Q101 315 101 267 Q101 203 117 156.5 Q133 110 162 79.5 Q191 49 231.5 34.5 Q272 20 322 20 Q381 20 433 40 Q485 60 526.5 103 Q568 146 598.5 212.5 Q629 279 644 372 Q648 395 649.5 417 Q651 439 651 459 Q651 580 591.5 640 Q532 700 433 700 Q373 700 320 679.5 Q267 659 224.5 617.5 Q182 576 152.5 514.5 Q123 453 110 372 Z M75 372 Q89 465 123.5 533 Q158 601 207 645.5 Q256 690 315.5 711 Q375 732 438 732 Q493 732 538.5 715.5 Q584 699 617 666 Q650 633 668 582 Q686 531 686 462 Q686 441 684.5 418.5 Q683 396 679 372 Q663 266 628 193 Q593 120 545 74.5 Q497 29 438.5 8.5 Q380 -12 318 -12 Q264 -12 218 3.5 Q172 19 138.5 52.5 Q105 86 86 139 Q67 192 67 266 Q67 290 68.5 316.5 Q70 343 75 372 Z M536 871 L547 841 L372 759 L364 781 L536 871 Z " />
<glyph glyph-name="Ocircumflex" unicode="&#xd4;" horiz-adv-x="731" d="M110 372 Q101 315 101 267 Q101 203 117 156.5 Q133 110 162 79.5 Q191 49 231.5 34.5 Q272 20 322 20 Q381 20 433 40 Q485 60 526.5 103 Q568 146 598.5 212.5 Q629 279 644 372 Q648 395 649.5 417 Q651 439 651 459 Q651 580 591.5 640 Q532 700 433 700 Q373 700 320 679.5 Q267 659 224.5 617.5 Q182 576 152.5 514.5 Q123 453 110 372 Z M75 372 Q89 465 123.5 533 Q158 601 207 645.5 Q256 690 315.5 711 Q375 732 438 732 Q493 732 538.5 715.5 Q584 699 617 666 Q650 633 668 582 Q686 531 686 462 Q686 441 684.5 418.5 Q683 396 679 372 Q663 266 628 193 Q593 120 545 74.5 Q497 29 438.5 8.5 Q380 -12 318 -12 Q264 -12 218 3.5 Q172 19 138.5 52.5 Q105 86 86 139 Q67 192 67 266 Q67 290 68.5 316.5 Q70 343 75 372 Z M549 777 L530 761 L458 832 L358 760 L345 777 L451 864 L474 864 L549 777 Z " />
<glyph glyph-name="Otilde" unicode="&#xd5;" horiz-adv-x="731" d="M110 372 Q101 315 101 267 Q101 203 117 156.5 Q133 110 162 79.5 Q191 49 231.5 34.5 Q272 20 322 20 Q381 20 433 40 Q485 60 526.5 103 Q568 146 598.5 212.5 Q629 279 644 372 Q648 395 649.5 417 Q651 439 651 459 Q651 580 591.5 640 Q532 700 433 700 Q373 700 320 679.5 Q267 659 224.5 617.5 Q182 576 152.5 514.5 Q123 453 110 372 Z M75 372 Q89 465 123.5 533 Q158 601 207 645.5 Q256 690 315.5 711 Q375 732 438 732 Q493 732 538.5 715.5 Q584 699 617 666 Q650 633 668 582 Q686 531 686 462 Q686 441 684.5 418.5 Q683 396 679 372 Q663 266 628 193 Q593 120 545 74.5 Q497 29 438.5 8.5 Q380 -12 318 -12 Q264 -12 218 3.5 Q172 19 138.5 52.5 Q105 86 86 139 Q67 192 67 266 Q67 290 68.5 316.5 Q70 343 75 372 Z M585 840 Q568 808 549 797.5 Q530 787 510 787 Q493 787 477.5 792.5 Q462 798 448 804.5 Q434 811 421.5 816.5 Q409 822 398 822 Q387 822 375.5 815 Q364 808 347 785 L327 796 Q347 828 365.5 839 Q384 850 404 850 Q419 850 432.5 844.5 Q446 839 459 832.5 Q472 826 485.5 820.5 Q499 815 514 815 Q529 815 540 822 Q551 829 564 850 L585 840 Z " />
<glyph glyph-name="Odieresis" unicode="&#xd6;" horiz-adv-x="731" d="M110 372 Q101 315 101 267 Q101 203 117 156.5 Q133 110 162 79.5 Q191 49 231.5 34.5 Q272 20 322 20 Q381 20 433 40 Q485 60 526.5 103 Q568 146 598.5 212.5 Q629 279 644 372 Q648 395 649.5 417 Q651 439 651 459 Q651 580 591.5 640 Q532 700 433 700 Q373 700 320 679.5 Q267 659 224.5 617.5 Q182 576 152.5 514.5 Q123 453 110 372 Z M75 372 Q89 465 123.5 533 Q158 601 207 645.5 Q256 690 315.5 711 Q375 732 438 732 Q493 732 538.5 715.5 Q584 699 617 666 Q650 633 668 582 Q686 531 686 462 Q686 441 684.5 418.5 Q683 396 679 372 Q663 266 628 193 Q593 120 545 74.5 Q497 29 438.5 8.5 Q380 -12 318 -12 Q264 -12 218 3.5 Q172 19 138.5 52.5 Q105 86 86 139 Q67 192 67 266 Q67 290 68.5 316.5 Q70 343 75 372 Z M513 809 Q513 823 523.5 832.5 Q534 842 548 842 Q558 842 564 835 Q570 828 570 817 Q570 803 560.5 793.5 Q551 784 538 784 Q527 784 520 791 Q513 798 513 809 Z M349 809 Q349 823 359 832.5 Q369 842 383 842 Q393 842 399 835 Q405 828 405 817 Q405 803 395.5 793.5 Q386 784 373 784 Q362 784 355.5 791 Q349 798 349 809 Z " />
<glyph glyph-name="Oslash" unicode="&#xd8;" horiz-adv-x="731" d="M75 372 Q89 465 123.5 533 Q158 601 207 645.5 Q256 690 315.5 711 Q375 732 438 732 Q484 732 523 720 L548 777 L582 777 L552 710 Q614 683 650 621.5 Q686 560 686 462 Q686 441 684.5 418.5 Q683 396 679 372 Q663 266 628 193 Q593 120 545 74.5 Q497 29 438.5 8.5 Q380 -12 318 -12 Q296 -12 276 -9.5 Q256 -7 236 -2 L208 -66 L177 -66 L209 7 Q144 32 105.5 95 Q67 158 67 266 Q67 290 68.5 316.5 Q70 343 75 372 Z M110 372 Q101 315 101 267 Q101 174 133 117.5 Q165 61 222 38 L509 689 Q473 700 433 700 Q373 700 320 679.5 Q267 659 224.5 617.5 Q182 576 152.5 514.5 Q123 453 110 372 Z M651 459 Q651 544 621.5 598.5 Q592 653 538 678 L250 29 Q283 20 322 20 Q381 20 433 40 Q485 60 526.5 103 Q568 146 598.5 212.5 Q629 279 644 372 Q648 395 649.5 417 Q651 439 651 459 Z " />
<glyph glyph-name="Ugrave" unicode="&#xd9;" horiz-adv-x="667" d="M190 720 L116 274 Q94 144 141.5 80.5 Q189 17 295 17 Q352 17 394 32 Q436 47 465.5 78.5 Q495 110 513.5 158.5 Q532 207 543 274 L617 720 L649 720 L572 256 Q560 184 537.5 133 Q515 82 480.5 50 Q446 18 399 3 Q352 -12 292 -12 Q237 -12 192.5 4.5 Q148 21 119.5 54.5 Q91 88 80.5 139.5 Q70 191 82 262 L158 720 L190 720 Z M493 778 L478 759 L331 841 L351 868 L493 778 Z " />
<glyph glyph-name="Uacute" unicode="&#xda;" horiz-adv-x="667" d="M190 720 L116 274 Q94 144 141.5 80.5 Q189 17 295 17 Q352 17 394 32 Q436 47 465.5 78.5 Q495 110 513.5 158.5 Q532 207 543 274 L617 720 L649 720 L572 256 Q560 184 537.5 133 Q515 82 480.5 50 Q446 18 399 3 Q352 -12 292 -12 Q237 -12 192.5 4.5 Q148 21 119.5 54.5 Q91 88 80.5 139.5 Q70 191 82 262 L158 720 L190 720 Z M513 871 L524 841 L349 759 L341 781 L513 871 Z " />
<glyph glyph-name="Ucircumflex" unicode="&#xdb;" horiz-adv-x="667" d="M190 720 L116 274 Q94 144 141.5 80.5 Q189 17 295 17 Q352 17 394 32 Q436 47 465.5 78.5 Q495 110 513.5 158.5 Q532 207 543 274 L617 720 L649 720 L572 256 Q560 184 537.5 133 Q515 82 480.5 50 Q446 18 399 3 Q352 -12 292 -12 Q237 -12 192.5 4.5 Q148 21 119.5 54.5 Q91 88 80.5 139.5 Q70 191 82 262 L158 720 L190 720 Z M514 777 L495 761 L423 832 L323 760 L310 777 L416 864 L439 864 L514 777 Z " />
<glyph glyph-name="Udieresis" unicode="&#xdc;" horiz-adv-x="667" d="M190 720 L116 274 Q94 144 141.5 80.5 Q189 17 295 17 Q352 17 394 32 Q436 47 465.5 78.5 Q495 110 513.5 158.5 Q532 207 543 274 L617 720 L649 720 L572 256 Q560 184 537.5 133 Q515 82 480.5 50 Q446 18 399 3 Q352 -12 292 -12 Q237 -12 192.5 4.5 Q148 21 119.5 54.5 Q91 88 80.5 139.5 Q70 191 82 262 L158 720 L190 720 Z M467 809 Q467 823 477.5 832.5 Q488 842 502 842 Q512 842 518 835 Q524 828 524 817 Q524 803 514.5 793.5 Q505 784 492 784 Q481 784 474 791 Q467 798 467 809 Z M303 809 Q303 823 313 832.5 Q323 842 337 842 Q347 842 353 835 Q359 828 359 817 Q359 803 349.5 793.5 Q340 784 327 784 Q316 784 309.5 791 Q303 798 303 809 Z " />
<glyph glyph-name="Yacute" unicode="&#xdd;" horiz-adv-x="521" d="M247 318 L94 720 L130 720 L268 353 L528 720 L567 720 L280 318 L227 0 L194 0 L247 318 Z M440 871 L451 841 L276 759 L268 781 L440 871 Z " />
<glyph glyph-name="Thorn" unicode="&#xde;" horiz-adv-x="565" d="M153 720 L186 720 L165 590 L329 590 Q432 590 478.5 547 Q525 504 525 428 Q525 380 505 330 Q479 261 415 221.5 Q351 182 248 182 L96 182 L66 0 L33 0 L153 720 Z M160 559 L101 212 L254 212 Q376 212 434 268 Q492 324 492 425 Q492 492 452 525.5 Q412 559 324 559 L160 559 Z " />
<glyph glyph-name="germandbls" unicode="&#xdf;" horiz-adv-x="501" d="M123 494 L55 494 L60 523 L128 523 L130 535 Q145 627 195.5 673.5 Q246 720 318 720 Q392 720 425 683.5 Q458 647 458 587 Q458 547 444.5 512 Q431 477 406 450 Q381 423 346 404.5 Q311 386 268 380 Q345 372 389 330 Q433 288 433 213 Q433 163 417.5 121.5 Q402 80 373.5 50.5 Q345 21 303.5 4.5 Q262 -12 211 -12 Q200 -12 186.5 -10 Q173 -8 159.5 -4.5 Q146 -1 134 5 Q122 11 114 19 L130 44 Q146 31 169 23.5 Q192 16 213 16 Q253 16 287 28 Q321 40 346 64.5 Q371 89 385 125.5 Q399 162 399 211 Q399 248 387 275 Q375 302 352.5 320 Q330 338 298 349 Q266 360 226 366 L231 394 Q270 398 305 411.5 Q340 425 367 448 Q394 471 410 505 Q426 539 426 585 Q426 691 314 691 Q245 691 208 649 Q171 607 159 535 L69 0 L40 0 L123 494 Z " />
<glyph glyph-name="agrave" unicode="&#xe0;" horiz-adv-x="544" d="M400 78 Q389 67 371 52 Q353 37 329 22.5 Q305 8 275 -2 Q245 -12 209 -12 Q165 -12 133 3.5 Q101 19 80.5 46 Q60 73 50 111 Q40 149 40 194 Q40 261 56.5 322.5 Q73 384 106 431.5 Q139 479 187.5 507 Q236 535 301 535 Q333 535 357.5 526 Q382 517 401 502.5 Q420 488 433.5 469.5 Q447 451 458 432 L474 523 L504 523 L416 0 L386 0 L400 78 Z M451 387 Q443 402 430.5 422.5 Q418 443 399 461.5 Q380 480 353.5 493 Q327 506 293 506 Q247 506 207 484.5 Q167 463 137.5 423.5 Q108 384 91 328 Q74 272 74 204 Q74 169 81 135 Q88 101 105 75 Q122 49 149 33 Q176 17 217 17 Q250 17 278.5 27.5 Q307 38 331 54 Q355 70 374 87.5 Q393 105 406 119 L451 387 Z M396 608 L375 589 L260 709 L287 735 L396 608 Z " />
<glyph glyph-name="aacute" unicode="&#xe1;" horiz-adv-x="544" d="M400 78 Q389 67 371 52 Q353 37 329 22.5 Q305 8 275 -2 Q245 -12 209 -12 Q165 -12 133 3.5 Q101 19 80.5 46 Q60 73 50 111 Q40 149 40 194 Q40 261 56.5 322.5 Q73 384 106 431.5 Q139 479 187.5 507 Q236 535 301 535 Q333 535 357.5 526 Q382 517 401 502.5 Q420 488 433.5 469.5 Q447 451 458 432 L474 523 L504 523 L416 0 L386 0 L400 78 Z M451 387 Q443 402 430.5 422.5 Q418 443 399 461.5 Q380 480 353.5 493 Q327 506 293 506 Q247 506 207 484.5 Q167 463 137.5 423.5 Q108 384 91 328 Q74 272 74 204 Q74 169 81 135 Q88 101 105 75 Q122 49 149 33 Q176 17 217 17 Q250 17 278.5 27.5 Q307 38 331 54 Q355 70 374 87.5 Q393 105 406 119 L451 387 Z M396 734 L415 708 L260 589 L247 608 L396 734 Z " />
<glyph glyph-name="acircumflex" unicode="&#xe2;" horiz-adv-x="544" d="M400 78 Q389 67 371 52 Q353 37 329 22.5 Q305 8 275 -2 Q245 -12 209 -12 Q165 -12 133 3.5 Q101 19 80.5 46 Q60 73 50 111 Q40 149 40 194 Q40 261 56.5 322.5 Q73 384 106 431.5 Q139 479 187.5 507 Q236 535 301 535 Q333 535 357.5 526 Q382 517 401 502.5 Q420 488 433.5 469.5 Q447 451 458 432 L474 523 L504 523 L416 0 L386 0 L400 78 Z M451 387 Q443 402 430.5 422.5 Q418 443 399 461.5 Q380 480 353.5 493 Q327 506 293 506 Q247 506 207 484.5 Q167 463 137.5 423.5 Q108 384 91 328 Q74 272 74 204 Q74 169 81 135 Q88 101 105 75 Q122 49 149 33 Q176 17 217 17 Q250 17 278.5 27.5 Q307 38 331 54 Q355 70 374 87.5 Q393 105 406 119 L451 387 Z M357 750 L433 600 L409 585 L336 714 L220 586 L201 600 L327 750 L357 750 Z " />
<glyph glyph-name="atilde" unicode="&#xe3;" horiz-adv-x="544" d="M400 78 Q389 67 371 52 Q353 37 329 22.5 Q305 8 275 -2 Q245 -12 209 -12 Q165 -12 133 3.5 Q101 19 80.5 46 Q60 73 50 111 Q40 149 40 194 Q40 261 56.5 322.5 Q73 384 106 431.5 Q139 479 187.5 507 Q236 535 301 535 Q333 535 357.5 526 Q382 517 401 502.5 Q420 488 433.5 469.5 Q447 451 458 432 L474 523 L504 523 L416 0 L386 0 L400 78 Z M451 387 Q443 402 430.5 422.5 Q418 443 399 461.5 Q380 480 353.5 493 Q327 506 293 506 Q247 506 207 484.5 Q167 463 137.5 423.5 Q108 384 91 328 Q74 272 74 204 Q74 169 81 135 Q88 101 105 75 Q122 49 149 33 Q176 17 217 17 Q250 17 278.5 27.5 Q307 38 331 54 Q355 70 374 87.5 Q393 105 406 119 L451 387 Z M461 671 Q445 639 425.5 628.5 Q406 618 386 618 Q369 618 353.5 623.5 Q338 629 324 635.5 Q310 642 297.5 647.5 Q285 653 274 653 Q263 653 252 646 Q241 639 224 616 L204 627 Q224 659 242.5 670 Q261 681 281 681 Q296 681 309.5 675.5 Q323 670 336 663.5 Q349 657 362.5 651.5 Q376 646 391 646 Q406 646 416.5 653 Q427 660 441 681 L461 671 Z " />
<glyph glyph-name="adieresis" unicode="&#xe4;" horiz-adv-x="544" d="M400 78 Q389 67 371 52 Q353 37 329 22.5 Q305 8 275 -2 Q245 -12 209 -12 Q165 -12 133 3.5 Q101 19 80.5 46 Q60 73 50 111 Q40 149 40 194 Q40 261 56.5 322.5 Q73 384 106 431.5 Q139 479 187.5 507 Q236 535 301 535 Q333 535 357.5 526 Q382 517 401 502.5 Q420 488 433.5 469.5 Q447 451 458 432 L474 523 L504 523 L416 0 L386 0 L400 78 Z M451 387 Q443 402 430.5 422.5 Q418 443 399 461.5 Q380 480 353.5 493 Q327 506 293 506 Q247 506 207 484.5 Q167 463 137.5 423.5 Q108 384 91 328 Q74 272 74 204 Q74 169 81 135 Q88 101 105 75 Q122 49 149 33 Q176 17 217 17 Q250 17 278.5 27.5 Q307 38 331 54 Q355 70 374 87.5 Q393 105 406 119 L451 387 Z M385 668 Q385 682 395.5 691.5 Q406 701 420 701 Q430 701 436.5 694 Q443 687 443 676 Q443 662 433 652.5 Q423 643 410 643 Q399 643 392 650 Q385 657 385 668 Z M221 668 Q221 682 231 691.5 Q241 701 255 701 Q265 701 271.5 694 Q278 687 278 676 Q278 662 268 652.5 Q258 643 245 643 Q234 643 227.5 650 Q221 657 221 668 Z " />
<glyph glyph-name="aring" unicode="&#xe5;" horiz-adv-x="544" d="M400 78 Q389 67 371 52 Q353 37 329 22.5 Q305 8 275 -2 Q245 -12 209 -12 Q165 -12 133 3.5 Q101 19 80.5 46 Q60 73 50 111 Q40 149 40 194 Q40 261 56.5 322.5 Q73 384 106 431.5 Q139 479 187.5 507 Q236 535 301 535 Q333 535 357.5 526 Q382 517 401 502.5 Q420 488 433.5 469.5 Q447 451 458 432 L474 523 L504 523 L416 0 L386 0 L400 78 Z M451 387 Q443 402 430.5 422.5 Q418 443 399 461.5 Q380 480 353.5 493 Q327 506 293 506 Q247 506 207 484.5 Q167 463 137.5 423.5 Q108 384 91 328 Q74 272 74 204 Q74 169 81 135 Q88 101 105 75 Q122 49 149 33 Q176 17 217 17 Q250 17 278.5 27.5 Q307 38 331 54 Q355 70 374 87.5 Q393 105 406 119 L451 387 Z M273 649 Q273 627 286 616 Q299 605 320 605 Q351 605 368 624 Q385 643 385 672 Q385 715 339 715 Q310 715 291.5 696.5 Q273 678 273 649 Z M244 646 Q244 666 252 684 Q260 702 273.5 715.5 Q287 729 305.5 736.5 Q324 744 344 744 Q376 744 395.5 724.5 Q415 705 415 674 Q415 653 407.5 635.5 Q400 618 386.5 605 Q373 592 355 585 Q337 578 316 578 Q284 578 264 596 Q244 614 244 646 Z " />
<glyph glyph-name="ae" unicode="&#xe6;" horiz-adv-x="884" d="M431 137 Q410 98 383.5 70 Q357 42 328 23.5 Q299 5 268.5 -3.5 Q238 -12 209 -12 Q165 -12 133 3.5 Q101 19 80.5 46 Q60 73 50 111 Q40 149 40 194 Q40 261 56.5 322.5 Q73 384 106 431.5 Q139 479 187.5 507 Q236 535 301 535 Q333 535 357.5 526 Q382 517 401 502.5 Q420 488 433.5 469.5 Q447 451 458 432 L474 523 L504 523 L482 391 Q494 419 514 445.5 Q534 472 561 491.5 Q588 511 623 523 Q658 535 701 535 Q740 535 767.5 522.5 Q795 510 812 490 Q829 470 837 445 Q845 420 845 396 Q845 354 826 324.5 Q807 295 775.5 274.5 Q744 254 703.5 242 Q663 230 620 223 Q577 216 534.5 213 Q492 210 458 208 Q458 104 497 60.5 Q536 17 614 17 Q660 17 699 31.5 Q738 46 780 81 L795 60 Q747 18 701 3 Q655 -12 608 -12 Q527 -12 485 27 Q443 66 431 137 Z M451 387 Q443 402 430.5 422.5 Q418 443 399 461.5 Q380 480 353.5 493 Q327 506 293 506 Q247 506 207 484.5 Q167 463 137.5 423.5 Q108 384 91 328 Q74 272 74 204 Q74 169 80.5 135 Q87 101 102.5 75 Q118 49 144.5 33 Q171 17 212 17 Q245 17 275 28.5 Q305 40 331 60 Q357 80 378 106.5 Q399 133 413 163 L451 387 Z M458 235 Q560 241 628.5 254 Q697 267 738 287 Q779 307 796 334 Q813 361 813 396 Q813 414 806.5 433.5 Q800 453 786 469 Q772 485 749 495.5 Q726 506 692 506 Q636 506 594 479 Q552 452 522.5 411 Q493 370 477 322.5 Q461 275 458 235 Z " />
<glyph glyph-name="ccedilla" unicode="&#xe7;" horiz-adv-x="494" d="M120 -158 Q133 -164 147 -168 Q161 -172 179 -172 Q189 -172 201 -170 Q213 -168 222.5 -163 Q232 -158 238.5 -148 Q245 -138 245 -121 Q245 -100 228 -91.5 Q211 -83 179 -83 L172 -83 L199 -11 Q121 -4 81.5 55 Q42 114 42 206 Q42 287 64.5 348.5 Q87 410 124 451.5 Q161 493 209.5 514 Q258 535 309 535 Q390 535 429 487.5 Q468 440 460 360 L431 360 Q435 435 398.5 470.5 Q362 506 303 506 Q252 506 210 483.5 Q168 461 138 422 Q108 383 91.5 330 Q75 277 75 215 Q75 176 84 140 Q93 104 111 76.5 Q129 49 157 33 Q185 17 224 17 Q249 17 269.5 20.5 Q290 24 309.5 31.5 Q329 39 349.5 51 Q370 63 394 81 L407 59 Q357 18 313.5 3.5 Q270 -11 223 -12 L205 -61 Q217 -62 229 -64.5 Q241 -67 251 -73 Q261 -79 267.5 -89 Q274 -99 274 -114 Q274 -137 266 -153 Q258 -169 244.5 -179 Q231 -189 213 -193.5 Q195 -198 175 -198 Q153 -198 134 -192.5 Q115 -187 108 -182 L120 -158 Z " />
<glyph glyph-name="egrave" unicode="&#xe8;" horiz-adv-x="498" d="M409 60 Q361 18 315 3 Q269 -12 222 -12 Q138 -12 89.5 37.5 Q41 87 41 194 Q41 269 61 331.5 Q81 394 117 439.5 Q153 485 202.5 510 Q252 535 311 535 Q351 535 379.5 523 Q408 511 425.5 491 Q443 471 451 446 Q459 421 459 395 Q459 354 440 324.5 Q421 295 389.5 274.5 Q358 254 317.5 242 Q277 230 234 223 Q191 216 149 213 Q107 210 73 208 Q73 104 111.5 60.5 Q150 17 228 17 Q274 17 313 31.5 Q352 46 394 81 L409 60 Z M75 236 Q177 242 244.5 254.5 Q312 267 352.5 286.5 Q393 306 409.5 333 Q426 360 426 396 Q426 415 420 435 Q414 455 399.5 470.5 Q385 486 362 496 Q339 506 306 506 Q250 506 208 480.5 Q166 455 137.5 415.5 Q109 376 93.5 328.5 Q78 281 75 236 Z M371 608 L350 589 L235 709 L262 735 L371 608 Z " />
<glyph glyph-name="eacute" unicode="&#xe9;" horiz-adv-x="498" d="M409 60 Q361 18 315 3 Q269 -12 222 -12 Q138 -12 89.5 37.5 Q41 87 41 194 Q41 269 61 331.5 Q81 394 117 439.5 Q153 485 202.5 510 Q252 535 311 535 Q351 535 379.5 523 Q408 511 425.5 491 Q443 471 451 446 Q459 421 459 395 Q459 354 440 324.5 Q421 295 389.5 274.5 Q358 254 317.5 242 Q277 230 234 223 Q191 216 149 213 Q107 210 73 208 Q73 104 111.5 60.5 Q150 17 228 17 Q274 17 313 31.5 Q352 46 394 81 L409 60 Z M75 236 Q177 242 244.5 254.5 Q312 267 352.5 286.5 Q393 306 409.5 333 Q426 360 426 396 Q426 415 420 435 Q414 455 399.5 470.5 Q385 486 362 496 Q339 506 306 506 Q250 506 208 480.5 Q166 455 137.5 415.5 Q109 376 93.5 328.5 Q78 281 75 236 Z M391 734 L410 708 L255 589 L242 608 L391 734 Z " />
<glyph glyph-name="ecircumflex" unicode="&#xea;" horiz-adv-x="498" d="M409 60 Q361 18 315 3 Q269 -12 222 -12 Q138 -12 89.5 37.5 Q41 87 41 194 Q41 269 61 331.5 Q81 394 117 439.5 Q153 485 202.5 510 Q252 535 311 535 Q351 535 379.5 523 Q408 511 425.5 491 Q443 471 451 446 Q459 421 459 395 Q459 354 440 324.5 Q421 295 389.5 274.5 Q358 254 317.5 242 Q277 230 234 223 Q191 216 149 213 Q107 210 73 208 Q73 104 111.5 60.5 Q150 17 228 17 Q274 17 313 31.5 Q352 46 394 81 L409 60 Z M75 236 Q177 242 244.5 254.5 Q312 267 352.5 286.5 Q393 306 409.5 333 Q426 360 426 396 Q426 415 420 435 Q414 455 399.5 470.5 Q385 486 362 496 Q339 506 306 506 Q250 506 208 480.5 Q166 455 137.5 415.5 Q109 376 93.5 328.5 Q78 281 75 236 Z M342 750 L418 600 L394 585 L321 714 L205 586 L186 600 L312 750 L342 750 Z " />
<glyph glyph-name="edieresis" unicode="&#xeb;" horiz-adv-x="498" d="M409 60 Q361 18 315 3 Q269 -12 222 -12 Q138 -12 89.5 37.5 Q41 87 41 194 Q41 269 61 331.5 Q81 394 117 439.5 Q153 485 202.5 510 Q252 535 311 535 Q351 535 379.5 523 Q408 511 425.5 491 Q443 471 451 446 Q459 421 459 395 Q459 354 440 324.5 Q421 295 389.5 274.5 Q358 254 317.5 242 Q277 230 234 223 Q191 216 149 213 Q107 210 73 208 Q73 104 111.5 60.5 Q150 17 228 17 Q274 17 313 31.5 Q352 46 394 81 L409 60 Z M75 236 Q177 242 244.5 254.5 Q312 267 352.5 286.5 Q393 306 409.5 333 Q426 360 426 396 Q426 415 420 435 Q414 455 399.5 470.5 Q385 486 362 496 Q339 506 306 506 Q250 506 208 480.5 Q166 455 137.5 415.5 Q109 376 93.5 328.5 Q78 281 75 236 Z M389 668 Q389 682 399.5 691.5 Q410 701 424 701 Q434 701 440.5 694 Q447 687 447 676 Q447 662 437 652.5 Q427 643 414 643 Q403 643 396 650 Q389 657 389 668 Z M225 668 Q225 682 235 691.5 Q245 701 259 701 Q269 701 275.5 694 Q282 687 282 676 Q282 662 272 652.5 Q262 643 249 643 Q238 643 231.5 650 Q225 657 225 668 Z " />
<glyph glyph-name="igrave" unicode="&#xec;" horiz-adv-x="214" d="M72 0 L42 0 L130 523 L160 523 L72 0 Z M211 608 L190 589 L75 709 L102 735 L211 608 Z " />
<glyph glyph-name="iacute" unicode="&#xed;" horiz-adv-x="214" d="M72 0 L42 0 L130 523 L160 523 L72 0 Z M228 734 L247 708 L92 589 L79 608 L228 734 Z " />
<glyph glyph-name="icircumflex" unicode="&#xee;" horiz-adv-x="214" d="M72 0 L42 0 L130 523 L160 523 L72 0 Z M199 750 L275 600 L251 585 L178 714 L62 586 L43 600 L169 750 L199 750 Z " />
<glyph glyph-name="idieresis" unicode="&#xef;" horiz-adv-x="214" d="M72 0 L42 0 L130 523 L160 523 L72 0 Z M223 668 Q223 682 233.5 691.5 Q244 701 258 701 Q268 701 274.5 694 Q281 687 281 676 Q281 662 271 652.5 Q261 643 248 643 Q237 643 230 650 Q223 657 223 668 Z M59 668 Q59 682 69 691.5 Q79 701 93 701 Q103 701 109.5 694 Q116 687 116 676 Q116 662 106 652.5 Q96 643 83 643 Q72 643 65.5 650 Q59 657 59 668 Z " />
<glyph glyph-name="eth" unicode="&#xf0;" horiz-adv-x="508" d="M238 553 L347 619 Q321 645 289 663.5 Q257 682 214 693 L229 720 Q273 708 309.5 687.5 Q346 667 375 636 L491 706 L503 683 L392 617 Q422 578 438.5 518 Q455 458 455 383 Q455 299 437 226.5 Q419 154 385.5 101 Q352 48 303 18 Q254 -12 192 -12 Q151 -12 121 1 Q91 14 71 37 Q51 60 41 92.5 Q31 125 31 163 Q31 212 45 260 Q59 308 88 346 Q117 384 161 407.5 Q205 431 264 431 Q316 431 355 406 Q394 381 422 339 Q430 415 416 482 Q402 549 364 600 L249 531 L238 553 Z M193 16 Q230 16 266.5 31 Q303 46 333 79.5 Q363 113 385 167.5 Q407 222 417 300 Q406 315 392 332.5 Q378 350 359 365.5 Q340 381 316 391 Q292 401 261 401 Q226 401 191 387.5 Q156 374 127.5 345.5 Q99 317 81.5 272.5 Q64 228 64 167 Q64 129 74 100.5 Q84 72 101.5 53 Q119 34 142.5 25 Q166 16 193 16 Z " />
<glyph glyph-name="ntilde" unicode="&#xf1;" horiz-adv-x="518" d="M146 523 L130 432 Q172 477 220.5 506 Q269 535 321 535 Q369 535 396.5 519 Q424 503 436.5 475 Q449 447 449 409 Q449 371 442 328 L387 0 L356 0 L412 335 Q426 420 405 463 Q384 506 315 506 Q284 506 255 493.5 Q226 481 201.5 463.5 Q177 446 157 426.5 Q137 407 124 393 L58 0 L28 0 L116 523 L146 523 Z M424 671 Q408 639 388.5 628.5 Q369 618 349 618 Q332 618 316.5 623.5 Q301 629 287 635.5 Q273 642 260.5 647.5 Q248 653 237 653 Q226 653 215 646 Q204 639 187 616 L167 627 Q187 659 205.5 670 Q224 681 244 681 Q259 681 272.5 675.5 Q286 670 299 663.5 Q312 657 325.5 651.5 Q339 646 354 646 Q369 646 379.5 653 Q390 660 404 681 L424 671 Z " />
<glyph glyph-name="ograve" unicode="&#xf2;" horiz-adv-x="541" d="M78 260 Q72 224 72 192 Q72 103 112.5 59.5 Q153 16 220 16 Q259 16 295.5 31 Q332 46 362.5 76.5 Q393 107 415 152.5 Q437 198 446 260 Q448 277 449.5 293 Q451 309 451 324 Q451 417 409 461.5 Q367 506 300 506 Q261 506 225 491 Q189 476 159.5 445 Q130 414 108.5 368 Q87 322 78 260 Z M44 260 Q53 323 76 374 Q99 425 133 460.5 Q167 496 210.5 515.5 Q254 535 305 535 Q392 535 439 481 Q486 427 486 329 Q486 296 480 260 Q460 129 389.5 58.5 Q319 -12 216 -12 Q128 -12 83.5 41.5 Q39 95 39 191 Q39 208 40.5 225 Q42 242 44 260 Z M388 608 L367 589 L252 709 L279 735 L388 608 Z " />
<glyph glyph-name="oacute" unicode="&#xf3;" horiz-adv-x="541" d="M78 260 Q72 224 72 192 Q72 103 112.5 59.5 Q153 16 220 16 Q259 16 295.5 31 Q332 46 362.5 76.5 Q393 107 415 152.5 Q437 198 446 260 Q448 277 449.5 293 Q451 309 451 324 Q451 417 409 461.5 Q367 506 300 506 Q261 506 225 491 Q189 476 159.5 445 Q130 414 108.5 368 Q87 322 78 260 Z M44 260 Q53 323 76 374 Q99 425 133 460.5 Q167 496 210.5 515.5 Q254 535 305 535 Q392 535 439 481 Q486 427 486 329 Q486 296 480 260 Q460 129 389.5 58.5 Q319 -12 216 -12 Q128 -12 83.5 41.5 Q39 95 39 191 Q39 208 40.5 225 Q42 242 44 260 Z M393 734 L412 708 L257 589 L244 608 L393 734 Z " />
<glyph glyph-name="ocircumflex" unicode="&#xf4;" horiz-adv-x="541" d="M78 260 Q72 224 72 192 Q72 103 112.5 59.5 Q153 16 220 16 Q259 16 295.5 31 Q332 46 362.5 76.5 Q393 107 415 152.5 Q437 198 446 260 Q448 277 449.5 293 Q451 309 451 324 Q451 417 409 461.5 Q367 506 300 506 Q261 506 225 491 Q189 476 159.5 445 Q130 414 108.5 368 Q87 322 78 260 Z M44 260 Q53 323 76 374 Q99 425 133 460.5 Q167 496 210.5 515.5 Q254 535 305 535 Q392 535 439 481 Q486 427 486 329 Q486 296 480 260 Q460 129 389.5 58.5 Q319 -12 216 -12 Q128 -12 83.5 41.5 Q39 95 39 191 Q39 208 40.5 225 Q42 242 44 260 Z M346 750 L422 600 L398 585 L325 714 L209 586 L190 600 L316 750 L346 750 Z " />
<glyph glyph-name="otilde" unicode="&#xf5;" horiz-adv-x="541" d="M78 260 Q72 224 72 192 Q72 103 112.5 59.5 Q153 16 220 16 Q259 16 295.5 31 Q332 46 362.5 76.5 Q393 107 415 152.5 Q437 198 446 260 Q448 277 449.5 293 Q451 309 451 324 Q451 417 409 461.5 Q367 506 300 506 Q261 506 225 491 Q189 476 159.5 445 Q130 414 108.5 368 Q87 322 78 260 Z M44 260 Q53 323 76 374 Q99 425 133 460.5 Q167 496 210.5 515.5 Q254 535 305 535 Q392 535 439 481 Q486 427 486 329 Q486 296 480 260 Q460 129 389.5 58.5 Q319 -12 216 -12 Q128 -12 83.5 41.5 Q39 95 39 191 Q39 208 40.5 225 Q42 242 44 260 Z M442 671 Q426 639 406.5 628.5 Q387 618 367 618 Q350 618 334.5 623.5 Q319 629 305 635.5 Q291 642 278.5 647.5 Q266 653 255 653 Q244 653 233 646 Q222 639 205 616 L185 627 Q205 659 223.5 670 Q242 681 262 681 Q277 681 290.5 675.5 Q304 670 317 663.5 Q330 657 343.5 651.5 Q357 646 372 646 Q387 646 397.5 653 Q408 660 422 681 L442 671 Z " />
<glyph glyph-name="odieresis" unicode="&#xf6;" horiz-adv-x="541" d="M78 260 Q72 224 72 192 Q72 103 112.5 59.5 Q153 16 220 16 Q259 16 295.5 31 Q332 46 362.5 76.5 Q393 107 415 152.5 Q437 198 446 260 Q448 277 449.5 293 Q451 309 451 324 Q451 417 409 461.5 Q367 506 300 506 Q261 506 225 491 Q189 476 159.5 445 Q130 414 108.5 368 Q87 322 78 260 Z M44 260 Q53 323 76 374 Q99 425 133 460.5 Q167 496 210.5 515.5 Q254 535 305 535 Q392 535 439 481 Q486 427 486 329 Q486 296 480 260 Q460 129 389.5 58.5 Q319 -12 216 -12 Q128 -12 83.5 41.5 Q39 95 39 191 Q39 208 40.5 225 Q42 242 44 260 Z M386 668 Q386 682 396.5 691.5 Q407 701 421 701 Q431 701 437.5 694 Q444 687 444 676 Q444 662 434 652.5 Q424 643 411 643 Q400 643 393 650 Q386 657 386 668 Z M222 668 Q222 682 232 691.5 Q242 701 256 701 Q266 701 272.5 694 Q279 687 279 676 Q279 662 269 652.5 Q259 643 246 643 Q235 643 228.5 650 Q222 657 222 668 Z " />
<glyph glyph-name="oslash" unicode="&#xf8;" horiz-adv-x="541" d="M44 260 Q53 323 76 374 Q99 425 133 460.5 Q167 496 210.5 515.5 Q254 535 305 535 Q323 535 339.5 532.5 Q356 530 370 525 L402 592 L435 592 L398 513 Q441 490 463.5 443 Q486 396 486 329 Q486 296 480 260 Q460 129 389.5 58.5 Q319 -12 216 -12 Q180 -12 152 -3 L117 -76 L87 -76 L126 7 Q82 30 60.5 77 Q39 124 39 191 Q39 208 40.5 225 Q42 242 44 260 Z M78 260 Q72 224 72 192 Q72 133 90 94.5 Q108 56 140 36 L357 496 Q331 506 300 506 Q261 506 225 491 Q189 476 159.5 445 Q130 414 108.5 368 Q87 322 78 260 Z M451 324 Q451 384 433 423 Q415 462 383 483 L165 25 Q190 16 220 16 Q259 16 295.5 31 Q332 46 362.5 76.5 Q393 107 415 152.5 Q437 198 446 260 Q448 277 449.5 293 Q451 309 451 324 Z " />
<glyph glyph-name="ugrave" unicode="&#xf9;" horiz-adv-x="509" d="M351 0 L366 87 Q352 72 332 54.5 Q312 37 287 22.5 Q262 8 233.5 -2 Q205 -12 174 -12 Q125 -12 98 4 Q71 20 59 46.5 Q47 73 47 107.5 Q47 142 53 178 L111 523 L142 523 L84 181 Q71 101 90.5 59 Q110 17 179 17 Q209 17 236 27 Q263 37 287 52.5 Q311 68 332.5 88 Q354 108 372 128 L439 523 L469 523 L381 0 L351 0 Z M373 608 L352 589 L237 709 L264 735 L373 608 Z " />
<glyph glyph-name="uacute" unicode="&#xfa;" horiz-adv-x="509" d="M351 0 L366 87 Q352 72 332 54.5 Q312 37 287 22.5 Q262 8 233.5 -2 Q205 -12 174 -12 Q125 -12 98 4 Q71 20 59 46.5 Q47 73 47 107.5 Q47 142 53 178 L111 523 L142 523 L84 181 Q71 101 90.5 59 Q110 17 179 17 Q209 17 236 27 Q263 37 287 52.5 Q311 68 332.5 88 Q354 108 372 128 L439 523 L469 523 L381 0 L351 0 Z M391 734 L410 708 L255 589 L242 608 L391 734 Z " />
<glyph glyph-name="ucircumflex" unicode="&#xfb;" horiz-adv-x="509" d="M351 0 L366 87 Q352 72 332 54.5 Q312 37 287 22.5 Q262 8 233.5 -2 Q205 -12 174 -12 Q125 -12 98 4 Q71 20 59 46.5 Q47 73 47 107.5 Q47 142 53 178 L111 523 L142 523 L84 181 Q71 101 90.5 59 Q110 17 179 17 Q209 17 236 27 Q263 37 287 52.5 Q311 68 332.5 88 Q354 108 372 128 L439 523 L469 523 L381 0 L351 0 Z M338 750 L414 600 L390 585 L317 714 L201 586 L182 600 L308 750 L338 750 Z " />
<glyph glyph-name="udieresis" unicode="&#xfc;" horiz-adv-x="509" d="M351 0 L366 87 Q352 72 332 54.5 Q312 37 287 22.5 Q262 8 233.5 -2 Q205 -12 174 -12 Q125 -12 98 4 Q71 20 59 46.5 Q47 73 47 107.5 Q47 142 53 178 L111 523 L142 523 L84 181 Q71 101 90.5 59 Q110 17 179 17 Q209 17 236 27 Q263 37 287 52.5 Q311 68 332.5 88 Q354 108 372 128 L439 523 L469 523 L381 0 L351 0 Z M370 668 Q370 682 380.5 691.5 Q391 701 405 701 Q415 701 421.5 694 Q428 687 428 676 Q428 662 418 652.5 Q408 643 395 643 Q384 643 377 650 Q370 657 370 668 Z M206 668 Q206 682 216 691.5 Q226 701 240 701 Q250 701 256.5 694 Q263 687 263 676 Q263 662 253 652.5 Q243 643 230 643 Q219 643 212.5 650 Q206 657 206 668 Z " />
<glyph glyph-name="yacute" unicode="&#xfd;" horiz-adv-x="427" d="M71 -172 Q100 -172 111 -159 Q122 -146 127 -117 L147 0 L53 523 L88 523 L169 46 L414 523 L450 523 L177 0 L156 -126 Q143 -200 78 -200 L8 -200 L12 -172 L71 -172 Z M371 734 L390 708 L235 589 L222 608 L371 734 Z " />
<glyph glyph-name="thorn" unicode="&#xfe;" horiz-adv-x="548" d="M78 121 Q85 104 98.5 85.5 Q112 67 131 52 Q150 37 175.5 27 Q201 17 234 17 Q285 17 326.5 38.5 Q368 60 397.5 100 Q427 140 443 197.5 Q459 255 459 326 Q459 412 424.5 459 Q390 506 323 506 Q261 506 213 472 Q165 438 123 388 L78 121 Z M-5 -200 L148 720 L178 720 L130 431 Q173 479 222.5 507 Q272 535 329 535 Q372 535 403 519.5 Q434 504 453.5 477 Q473 450 482 412.5 Q491 375 491 331 Q491 262 474.5 199.5 Q458 137 425.5 90 Q393 43 343.5 15.5 Q294 -12 228 -12 Q192 -12 165 -2 Q138 8 118.5 22 Q99 36 87.5 51.5 Q76 67 71 78 L25 -200 L-5 -200 Z " />
<glyph glyph-name="ydieresis" unicode="&#xff;" horiz-adv-x="427" d="M71 -172 Q100 -172 111 -159 Q122 -146 127 -117 L147 0 L53 523 L88 523 L169 46 L414 523 L450 523 L177 0 L156 -126 Q143 -200 78 -200 L8 -200 L12 -172 L71 -172 Z M328 668 Q328 682 338.5 691.5 Q349 701 363 701 Q373 701 379.5 694 Q386 687 386 676 Q386 662 376 652.5 Q366 643 353 643 Q342 643 335 650 Q328 657 328 668 Z M164 668 Q164 682 174 691.5 Q184 701 198 701 Q208 701 214.5 694 Q221 687 221 676 Q221 662 211 652.5 Q201 643 188 643 Q177 643 170.5 650 Q164 657 164 668 Z " />
<glyph glyph-name="Amacron" unicode="&#x100;" horiz-adv-x="602" d="M387 720 L527 0 L493 0 L445 245 L137 245 L8 0 L-27 0 L352 720 L387 720 Z M440 275 L363 680 L153 275 L440 275 Z M247 824 L506 824 L501 796 L242 796 L247 824 Z " />
<glyph glyph-name="amacron" unicode="&#x101;" horiz-adv-x="544" d="M400 78 Q389 67 371 52 Q353 37 329 22.5 Q305 8 275 -2 Q245 -12 209 -12 Q165 -12 133 3.5 Q101 19 80.5 46 Q60 73 50 111 Q40 149 40 194 Q40 261 56.5 322.5 Q73 384 106 431.5 Q139 479 187.5 507 Q236 535 301 535 Q333 535 357.5 526 Q382 517 401 502.5 Q420 488 433.5 469.5 Q447 451 458 432 L474 523 L504 523 L416 0 L386 0 L400 78 Z M451 387 Q443 402 430.5 422.5 Q418 443 399 461.5 Q380 480 353.5 493 Q327 506 293 506 Q247 506 207 484.5 Q167 463 137.5 423.5 Q108 384 91 328 Q74 272 74 204 Q74 169 81 135 Q88 101 105 75 Q122 49 149 33 Q176 17 217 17 Q250 17 278.5 27.5 Q307 38 331 54 Q355 70 374 87.5 Q393 105 406 119 L451 387 Z M224 662 L483 662 L478 634 L219 634 L224 662 Z " />
<glyph glyph-name="Abreve" unicode="&#x102;" horiz-adv-x="602" d="M387 720 L527 0 L493 0 L445 245 L137 245 L8 0 L-27 0 L352 720 L387 720 Z M440 275 L363 680 L153 275 L440 275 Z M382 800 Q437 800 463 821.5 Q489 843 503 890 L528 885 Q513 825 476 798.5 Q439 772 377 772 Q317 772 291.5 795.5 Q266 819 264 883 L293 890 Q294 867 298 850 Q302 833 312 822 Q322 811 339 805.5 Q356 800 382 800 Z " />
<glyph glyph-name="abreve" unicode="&#x103;" horiz-adv-x="544" d="M400 78 Q389 67 371 52 Q353 37 329 22.5 Q305 8 275 -2 Q245 -12 209 -12 Q165 -12 133 3.5 Q101 19 80.5 46 Q60 73 50 111 Q40 149 40 194 Q40 261 56.5 322.5 Q73 384 106 431.5 Q139 479 187.5 507 Q236 535 301 535 Q333 535 357.5 526 Q382 517 401 502.5 Q420 488 433.5 469.5 Q447 451 458 432 L474 523 L504 523 L416 0 L386 0 L400 78 Z M451 387 Q443 402 430.5 422.5 Q418 443 399 461.5 Q380 480 353.5 493 Q327 506 293 506 Q247 506 207 484.5 Q167 463 137.5 423.5 Q108 384 91 328 Q74 272 74 204 Q74 169 81 135 Q88 101 105 75 Q122 49 149 33 Q176 17 217 17 Q250 17 278.5 27.5 Q307 38 331 54 Q355 70 374 87.5 Q393 105 406 119 L451 387 Z M336 626 Q391 626 416.5 651 Q442 676 456 725 L481 720 Q466 657 429.5 627.5 Q393 598 331 598 Q271 598 244.5 625.5 Q218 653 219 719 L246 726 Q245 675 265 650.5 Q285 626 336 626 Z " />
<glyph glyph-name="Aogonek" unicode="&#x104;" horiz-adv-x="603" d="M388 720 L528 0 Q480 -35 446 -73 Q412 -111 412 -149 Q412 -185 452 -185 Q469 -185 485.5 -178.5 Q502 -172 519 -163 L527 -186 Q512 -197 489.5 -205 Q467 -213 443 -213 Q413 -213 395.5 -198 Q378 -183 378 -156 Q378 -133 387.5 -111.5 Q397 -90 413 -70 Q429 -50 450 -31.5 Q471 -13 493 4 L446 245 L138 245 L9 0 L-26 0 L353 720 L388 720 Z M441 275 L364 680 L154 275 L441 275 Z " />
<glyph glyph-name="aogonek" unicode="&#x105;" horiz-adv-x="544" d="M267 -156 Q267 -132 277.5 -110 Q288 -88 304.5 -67.5 Q321 -47 342.5 -28 Q364 -9 387 8 L400 78 Q389 67 371 52 Q353 37 329 22.5 Q305 8 275 -2 Q245 -12 209 -12 Q165 -12 133 3.5 Q101 19 80.5 46 Q60 73 50 111 Q40 149 40 194 Q40 261 56.5 322.5 Q73 384 106 431.5 Q139 479 187.5 507 Q236 535 301 535 Q333 535 357.5 526 Q382 517 401 502.5 Q420 488 433.5 469.5 Q447 451 458 432 L474 523 L504 523 L416 0 Q393 -17 372 -35.5 Q351 -54 335 -72.5 Q319 -91 309.5 -110.5 Q300 -130 300 -149 Q300 -185 341 -185 Q358 -185 374.5 -178.5 Q391 -172 407 -163 L416 -186 Q400 -197 377.5 -205 Q355 -213 332 -213 Q301 -213 284 -198 Q267 -183 267 -156 Z M451 387 Q443 402 430.5 422.5 Q418 443 399 461.5 Q380 480 353.5 493 Q327 506 293 506 Q247 506 207 484.5 Q167 463 137.5 423.5 Q108 384 91 328 Q74 272 74 204 Q74 169 81 135 Q88 101 105 75 Q122 49 149 33 Q176 17 217 17 Q250 17 278.5 27.5 Q307 38 331 54 Q355 70 374 87.5 Q393 105 406 119 L451 387 Z " />
<glyph glyph-name="Cacute" unicode="&#x106;" horiz-adv-x="630" d="M546 95 Q496 44 436.5 16 Q377 -12 302 -12 Q239 -12 194 11.5 Q149 35 121 74.5 Q93 114 80 167 Q67 220 67 279 Q67 366 91 447.5 Q115 529 161 592.5 Q207 656 274.5 694.5 Q342 733 430 733 Q478 733 517 719 Q556 705 581.5 679 Q607 653 618 615.5 Q629 578 621 531 L590 531 Q595 562 588.5 593 Q582 624 562 648 Q542 672 507.5 687 Q473 702 422 702 Q348 702 289 669.5 Q230 637 188.5 580 Q147 523 124.5 446.5 Q102 370 102 283 Q102 155 156.5 87 Q211 19 306 19 Q379 19 431 45.5 Q483 72 528 115 L546 95 Z M530 871 L541 841 L366 759 L358 781 L530 871 Z " />
<glyph glyph-name="cacute" unicode="&#x107;" horiz-adv-x="494" d="M407 59 Q357 18 311.5 3 Q266 -12 218 -12 Q175 -12 142 4 Q109 20 87 49 Q65 78 53.5 118 Q42 158 42 206 Q42 287 63.5 348.5 Q85 410 121.5 451.5 Q158 493 206.5 514 Q255 535 308 535 Q389 535 428.5 487.5 Q468 440 460 360 L431 360 Q433 400 424.5 428 Q416 456 398.5 473 Q381 490 357 498 Q333 506 303 506 Q252 506 210 484 Q168 462 138 423 Q108 384 91.5 329.5 Q75 275 75 209 Q75 170 83.5 135.5 Q92 101 110 74.5 Q128 48 156.5 32.5 Q185 17 224 17 Q249 17 269.5 20.5 Q290 24 309.5 31.5 Q329 39 349.5 51 Q370 63 394 81 L407 59 Z M395 734 L414 708 L259 589 L246 608 L395 734 Z " />
<glyph glyph-name="Ccircumflex" unicode="&#x108;" horiz-adv-x="630" d="M546 95 Q496 44 436.5 16 Q377 -12 302 -12 Q239 -12 194 11.5 Q149 35 121 74.5 Q93 114 80 167 Q67 220 67 279 Q67 366 91 447.5 Q115 529 161 592.5 Q207 656 274.5 694.5 Q342 733 430 733 Q478 733 517 719 Q556 705 581.5 679 Q607 653 618 615.5 Q629 578 621 531 L590 531 Q595 562 588.5 593 Q582 624 562 648 Q542 672 507.5 687 Q473 702 422 702 Q348 702 289 669.5 Q230 637 188.5 580 Q147 523 124.5 446.5 Q102 370 102 283 Q102 155 156.5 87 Q211 19 306 19 Q379 19 431 45.5 Q483 72 528 115 L546 95 Z M536 777 L517 761 L445 832 L345 760 L332 777 L438 864 L461 864 L536 777 Z " />
<glyph glyph-name="ccircumflex" unicode="&#x109;" horiz-adv-x="494" d="M407 59 Q357 18 311.5 3 Q266 -12 218 -12 Q175 -12 142 4 Q109 20 87 49 Q65 78 53.5 118 Q42 158 42 206 Q42 287 63.5 348.5 Q85 410 121.5 451.5 Q158 493 206.5 514 Q255 535 308 535 Q389 535 428.5 487.5 Q468 440 460 360 L431 360 Q433 400 424.5 428 Q416 456 398.5 473 Q381 490 357 498 Q333 506 303 506 Q252 506 210 484 Q168 462 138 423 Q108 384 91.5 329.5 Q75 275 75 209 Q75 170 83.5 135.5 Q92 101 110 74.5 Q128 48 156.5 32.5 Q185 17 224 17 Q249 17 269.5 20.5 Q290 24 309.5 31.5 Q329 39 349.5 51 Q370 63 394 81 L407 59 Z M352 750 L428 600 L404 585 L331 714 L215 586 L196 600 L322 750 L352 750 Z " />
<glyph glyph-name="Cdotaccent" unicode="&#x10a;" horiz-adv-x="630" d="M546 95 Q496 44 436.5 16 Q377 -12 302 -12 Q239 -12 194 11.5 Q149 35 121 74.5 Q93 114 80 167 Q67 220 67 279 Q67 366 91 447.5 Q115 529 161 592.5 Q207 656 274.5 694.5 Q342 733 430 733 Q478 733 517 719 Q556 705 581.5 679 Q607 653 618 615.5 Q629 578 621 531 L590 531 Q595 562 588.5 593 Q582 624 562 648 Q542 672 507.5 687 Q473 702 422 702 Q348 702 289 669.5 Q230 637 188.5 580 Q147 523 124.5 446.5 Q102 370 102 283 Q102 155 156.5 87 Q211 19 306 19 Q379 19 431 45.5 Q483 72 528 115 L546 95 Z M414 814 Q414 828 425 837.5 Q436 847 450 847 Q460 847 466 840 Q472 833 472 822 Q472 808 462.5 798.5 Q453 789 440 789 Q429 789 421.5 796 Q414 803 414 814 Z " />
<glyph glyph-name="cdotaccent" unicode="&#x10b;" horiz-adv-x="494" d="M407 59 Q357 18 311.5 3 Q266 -12 218 -12 Q175 -12 142 4 Q109 20 87 49 Q65 78 53.5 118 Q42 158 42 206 Q42 287 63.5 348.5 Q85 410 121.5 451.5 Q158 493 206.5 514 Q255 535 308 535 Q389 535 428.5 487.5 Q468 440 460 360 L431 360 Q433 400 424.5 428 Q416 456 398.5 473 Q381 490 357 498 Q333 506 303 506 Q252 506 210 484 Q168 462 138 423 Q108 384 91.5 329.5 Q75 275 75 209 Q75 170 83.5 135.5 Q92 101 110 74.5 Q128 48 156.5 32.5 Q185 17 224 17 Q249 17 269.5 20.5 Q290 24 309.5 31.5 Q329 39 349.5 51 Q370 63 394 81 L407 59 Z M294 667 Q294 681 304.5 690.5 Q315 700 329 700 Q339 700 345.5 693 Q352 686 352 675 Q352 661 342 651.5 Q332 642 319 642 Q308 642 301 649 Q294 656 294 667 Z " />
<glyph glyph-name="Ccaron" unicode="&#x10c;" horiz-adv-x="630" d="M546 95 Q496 44 436.5 16 Q377 -12 302 -12 Q239 -12 194 11.5 Q149 35 121 74.5 Q93 114 80 167 Q67 220 67 279 Q67 366 91 447.5 Q115 529 161 592.5 Q207 656 274.5 694.5 Q342 733 430 733 Q478 733 517 719 Q556 705 581.5 679 Q607 653 618 615.5 Q629 578 621 531 L590 531 Q595 562 588.5 593 Q582 624 562 648 Q542 672 507.5 687 Q473 702 422 702 Q348 702 289 669.5 Q230 637 188.5 580 Q147 523 124.5 446.5 Q102 370 102 283 Q102 155 156.5 87 Q211 19 306 19 Q379 19 431 45.5 Q483 72 528 115 L546 95 Z M451 768 L428 768 L351 855 L371 872 L445 800 L542 871 L555 855 L451 768 Z " />
<glyph glyph-name="ccaron" unicode="&#x10d;" horiz-adv-x="494" d="M407 59 Q357 18 311.5 3 Q266 -12 218 -12 Q175 -12 142 4 Q109 20 87 49 Q65 78 53.5 118 Q42 158 42 206 Q42 287 63.5 348.5 Q85 410 121.5 451.5 Q158 493 206.5 514 Q255 535 308 535 Q389 535 428.5 487.5 Q468 440 460 360 L431 360 Q433 400 424.5 428 Q416 456 398.5 473 Q381 490 357 498 Q333 506 303 506 Q252 506 210 484 Q168 462 138 423 Q108 384 91.5 329.5 Q75 275 75 209 Q75 170 83.5 135.5 Q92 101 110 74.5 Q128 48 156.5 32.5 Q185 17 224 17 Q249 17 269.5 20.5 Q290 24 309.5 31.5 Q329 39 349.5 51 Q370 63 394 81 L407 59 Z M303 594 L229 744 L252 758 L325 630 L442 759 L461 744 L333 594 L303 594 Z " />
<glyph glyph-name="Dcaron" unicode="&#x10e;" horiz-adv-x="668" d="M191 689 L81 31 L224 31 Q327 31 396.5 61.5 Q466 92 509 146.5 Q552 201 570.5 276 Q589 351 589 440 Q589 499 574.5 545.5 Q560 592 529 624 Q498 656 449.5 672.5 Q401 689 334 689 L191 689 Z M333 720 Q403 720 457.5 704.5 Q512 689 549 655.5 Q586 622 605.5 570 Q625 518 625 445 Q625 214 520 107 Q415 0 208 0 L43 0 L163 720 L333 720 Z M381 768 L358 768 L281 855 L301 872 L375 800 L472 871 L485 855 L381 768 Z " />
<glyph glyph-name="dcaron" unicode="&#x10f;" horiz-adv-x="558" d="M400 78 Q389 67 371 52 Q353 37 329 22.5 Q305 8 275 -2 Q245 -12 209 -12 Q165 -12 133 3.5 Q101 19 80.5 46 Q60 73 50 111 Q40 149 40 194 Q40 261 56.5 322.5 Q73 384 106 431.5 Q139 479 187.5 507 Q236 535 301 535 Q333 535 357.5 526 Q382 517 401 502.5 Q420 488 433.5 469.5 Q447 451 458 432 L506 720 L536 720 L416 0 L386 0 L400 78 Z M451 387 Q443 402 430.5 422.5 Q418 443 399 461.5 Q380 480 353.5 493 Q327 506 293 506 Q247 506 207 484.5 Q167 463 137.5 423.5 Q108 384 91 328 Q74 272 74 204 Q74 169 81 135 Q88 101 105 75 Q122 49 149 33 Q176 17 217 17 Q250 17 278.5 27.5 Q307 38 331 54 Q355 70 374 87.5 Q393 105 406 119 L451 387 Z M628 720 L668 720 L590 544 L561 544 L628 720 Z " />
<glyph glyph-name="Dcroat" unicode="&#x110;" horiz-adv-x="689" d="M50 382 L128 382 L184 720 L343 720 Q415 720 471.5 704.5 Q528 689 567 655 Q606 621 626 568.5 Q646 516 646 442 Q646 326 618 242.5 Q590 159 536.5 105 Q483 51 404 25.5 Q325 0 223 0 L64 0 L123 354 L45 354 L50 382 Z M213 689 L162 382 L310 382 L305 354 L157 354 L103 31 L246 31 Q348 31 417.5 61.5 Q487 92 530 146 Q573 200 592 275 Q611 350 611 439 Q611 558 550.5 623.5 Q490 689 356 689 L213 689 Z " />
<glyph glyph-name="dcroat" unicode="&#x111;" horiz-adv-x="547" d="M313 631 L492 631 L506 720 L536 720 L522 631 L592 631 L587 603 L517 603 L416 0 L386 0 L400 78 Q389 67 371 52 Q353 37 329 22.5 Q305 8 275 -2 Q245 -12 209 -12 Q165 -12 133 2 Q101 16 80 42 Q59 68 49 104.5 Q39 141 39 186 Q39 252 55 310 Q71 368 103.5 411.5 Q136 455 184 480 Q232 505 296 505 Q328 505 352.5 496 Q377 487 396 472.5 Q415 458 428.5 439.5 Q442 421 453 402 L487 603 L308 603 L313 631 Z M446 357 Q438 372 425.5 392.5 Q413 413 394 431.5 Q375 450 348.5 463 Q322 476 288 476 Q243 476 203.5 457.5 Q164 439 134.5 403 Q105 367 88.5 315 Q72 263 72 196 Q72 161 79.5 129 Q87 97 104 72 Q121 47 148.5 32 Q176 17 217 17 Q250 17 278.5 27.5 Q307 38 331 54 Q355 70 374 87.5 Q393 105 406 119 L446 357 Z " />
<glyph glyph-name="Emacron" unicode="&#x112;" horiz-adv-x="579" d="M163 720 L580 720 L575 690 L191 690 L141 389 L492 389 L487 360 L136 360 L81 29 L475 29 L470 0 L43 0 L163 720 Z M261 824 L520 824 L515 796 L256 796 L261 824 Z " />
<glyph glyph-name="emacron" unicode="&#x113;" horiz-adv-x="498" d="M409 60 Q361 18 315 3 Q269 -12 222 -12 Q138 -12 89.5 37.5 Q41 87 41 194 Q41 269 61 331.5 Q81 394 117 439.5 Q153 485 202.5 510 Q252 535 311 535 Q351 535 379.5 523 Q408 511 425.5 491 Q443 471 451 446 Q459 421 459 395 Q459 354 440 324.5 Q421 295 389.5 274.5 Q358 254 317.5 242 Q277 230 234 223 Q191 216 149 213 Q107 210 73 208 Q73 104 111.5 60.5 Q150 17 228 17 Q274 17 313 31.5 Q352 46 394 81 L409 60 Z M75 236 Q177 242 244.5 254.5 Q312 267 352.5 286.5 Q393 306 409.5 333 Q426 360 426 396 Q426 415 420 435 Q414 455 399.5 470.5 Q385 486 362 496 Q339 506 306 506 Q250 506 208 480.5 Q166 455 137.5 415.5 Q109 376 93.5 328.5 Q78 281 75 236 Z M193 662 L452 662 L447 634 L188 634 L193 662 Z " />
<glyph glyph-name="Ebreve" unicode="&#x114;" horiz-adv-x="579" d="M163 720 L580 720 L575 690 L191 690 L141 389 L492 389 L487 360 L136 360 L81 29 L475 29 L470 0 L43 0 L163 720 Z M393 800 Q448 800 474 821.5 Q500 843 514 890 L539 885 Q524 825 487 798.5 Q450 772 388 772 Q328 772 302.5 795.5 Q277 819 275 883 L304 890 Q305 867 309 850 Q313 833 323 822 Q333 811 350 805.5 Q367 800 393 800 Z " />
<glyph glyph-name="ebreve" unicode="&#x115;" horiz-adv-x="498" d="M409 60 Q361 18 315 3 Q269 -12 222 -12 Q138 -12 89.5 37.5 Q41 87 41 194 Q41 269 61 331.5 Q81 394 117 439.5 Q153 485 202.5 510 Q252 535 311 535 Q351 535 379.5 523 Q408 511 425.5 491 Q443 471 451 446 Q459 421 459 395 Q459 354 440 324.5 Q421 295 389.5 274.5 Q358 254 317.5 242 Q277 230 234 223 Q191 216 149 213 Q107 210 73 208 Q73 104 111.5 60.5 Q150 17 228 17 Q274 17 313 31.5 Q352 46 394 81 L409 60 Z M75 236 Q177 242 244.5 254.5 Q312 267 352.5 286.5 Q393 306 409.5 333 Q426 360 426 396 Q426 415 420 435 Q414 455 399.5 470.5 Q385 486 362 496 Q339 506 306 506 Q250 506 208 480.5 Q166 455 137.5 415.5 Q109 376 93.5 328.5 Q78 281 75 236 Z M323 626 Q378 626 403.5 651 Q429 676 443 725 L468 720 Q453 657 416.5 627.5 Q380 598 318 598 Q258 598 231.5 625.5 Q205 653 206 719 L233 726 Q232 675 252 650.5 Q272 626 323 626 Z " />
<glyph glyph-name="Edotaccent" unicode="&#x116;" horiz-adv-x="579" d="M163 720 L580 720 L575 690 L191 690 L141 389 L492 389 L487 360 L136 360 L81 29 L475 29 L470 0 L43 0 L163 720 Z M361 814 Q361 828 372 837.5 Q383 847 397 847 Q407 847 413 840 Q419 833 419 822 Q419 808 409.5 798.5 Q400 789 387 789 Q376 789 368.5 796 Q361 803 361 814 Z " />
<glyph glyph-name="edotaccent" unicode="&#x117;" horiz-adv-x="498" d="M409 60 Q361 18 315 3 Q269 -12 222 -12 Q138 -12 89.5 37.5 Q41 87 41 194 Q41 269 61 331.5 Q81 394 117 439.5 Q153 485 202.5 510 Q252 535 311 535 Q351 535 379.5 523 Q408 511 425.5 491 Q443 471 451 446 Q459 421 459 395 Q459 354 440 324.5 Q421 295 389.5 274.5 Q358 254 317.5 242 Q277 230 234 223 Q191 216 149 213 Q107 210 73 208 Q73 104 111.5 60.5 Q150 17 228 17 Q274 17 313 31.5 Q352 46 394 81 L409 60 Z M75 236 Q177 242 244.5 254.5 Q312 267 352.5 286.5 Q393 306 409.5 333 Q426 360 426 396 Q426 415 420 435 Q414 455 399.5 470.5 Q385 486 362 496 Q339 506 306 506 Q250 506 208 480.5 Q166 455 137.5 415.5 Q109 376 93.5 328.5 Q78 281 75 236 Z M300 667 Q300 681 310.5 690.5 Q321 700 335 700 Q345 700 351.5 693 Q358 686 358 675 Q358 661 348 651.5 Q338 642 325 642 Q314 642 307 649 Q300 656 300 667 Z " />
<glyph glyph-name="Eogonek" unicode="&#x118;" horiz-adv-x="578" d="M163 720 L580 720 L575 690 L191 690 L141 389 L492 389 L487 360 L136 360 L81 29 L475 29 L470 0 L440 0 Q417 -17 396 -35.5 Q375 -54 359 -72.5 Q343 -91 333.5 -110 Q324 -129 324 -148 Q324 -167 335 -176 Q346 -185 365 -185 Q382 -185 398.5 -178.5 Q415 -172 431 -163 L440 -186 Q424 -197 401.5 -205 Q379 -213 356 -213 Q325 -213 308 -198 Q291 -183 291 -156 Q291 -134 300.5 -113 Q310 -92 325 -72.5 Q340 -53 360 -35 Q380 -17 401 0 L43 0 L163 720 Z " />
<glyph glyph-name="eogonek" unicode="&#x119;" horiz-adv-x="498" d="M409 60 Q386 40 363 27 Q340 14 320 2 Q297 -12 275 -30 Q253 -48 235.5 -68 Q218 -88 207.5 -109 Q197 -130 197 -149 Q197 -185 238 -185 Q255 -185 271.5 -178.5 Q288 -172 304 -163 L313 -186 Q297 -197 274.5 -205 Q252 -213 229 -213 Q198 -213 181 -198 Q164 -183 164 -156 Q164 -135 172 -115.5 Q180 -96 193.5 -77.5 Q207 -59 224.5 -42 Q242 -25 261 -9 Q241 -12 222 -12 Q138 -12 89 37.5 Q40 87 40 194 Q40 269 60.5 331.5 Q81 394 117 439.5 Q153 485 202.5 510 Q252 535 311 535 Q351 535 379.5 523 Q408 511 425.5 491 Q443 471 451 446 Q459 421 459 395 Q459 354 440 324.5 Q421 295 389.5 274.5 Q358 254 317 242 Q276 230 233 223 Q190 216 148 213 Q106 210 72 208 Q72 104 111 60.5 Q150 17 228 17 Q274 17 313 31.5 Q352 46 394 81 L409 60 Z M76 236 Q178 242 245 254.5 Q312 267 352.5 286.5 Q393 306 409.5 333 Q426 360 426 396 Q426 415 420 435 Q414 455 399.5 470.5 Q385 486 362 496 Q339 506 306 506 Q250 506 207.5 478.5 Q165 451 136 410.5 Q107 370 92 322.5 Q77 275 76 236 Z " />
<glyph glyph-name="Ecaron" unicode="&#x11a;" horiz-adv-x="579" d="M163 720 L580 720 L575 690 L191 690 L141 389 L492 389 L487 360 L136 360 L81 29 L475 29 L470 0 L43 0 L163 720 Z M396 768 L373 768 L296 855 L316 872 L390 800 L487 871 L500 855 L396 768 Z " />
<glyph glyph-name="ecaron" unicode="&#x11b;" horiz-adv-x="498" d="M409 60 Q361 18 315 3 Q269 -12 222 -12 Q138 -12 89.5 37.5 Q41 87 41 194 Q41 269 61 331.5 Q81 394 117 439.5 Q153 485 202.5 510 Q252 535 311 535 Q351 535 379.5 523 Q408 511 425.5 491 Q443 471 451 446 Q459 421 459 395 Q459 354 440 324.5 Q421 295 389.5 274.5 Q358 254 317.5 242 Q277 230 234 223 Q191 216 149 213 Q107 210 73 208 Q73 104 111.5 60.5 Q150 17 228 17 Q274 17 313 31.5 Q352 46 394 81 L409 60 Z M75 236 Q177 242 244.5 254.5 Q312 267 352.5 286.5 Q393 306 409.5 333 Q426 360 426 396 Q426 415 420 435 Q414 455 399.5 470.5 Q385 486 362 496 Q339 506 306 506 Q250 506 208 480.5 Q166 455 137.5 415.5 Q109 376 93.5 328.5 Q78 281 75 236 Z M299 594 L225 744 L248 758 L321 630 L438 759 L457 744 L329 594 L299 594 Z " />
<glyph glyph-name="Gcircumflex" unicode="&#x11c;" horiz-adv-x="697" d="M427 349 L631 349 L590 103 Q555 66 518 43.5 Q481 21 446.5 8.5 Q412 -4 382 -8 Q352 -12 330 -12 Q260 -12 210.5 10 Q161 32 129 71 Q97 110 82 164 Q67 218 67 281 Q67 379 93.5 462 Q120 545 169.5 605 Q219 665 289 698.5 Q359 732 447 732 Q517 732 561.5 715 Q606 698 629.5 670.5 Q653 643 659 608.5 Q665 574 659 539 L626 539 Q632 572 624.5 601.5 Q617 631 594.5 652.5 Q572 674 533 687 Q494 700 437 700 Q356 700 294 665.5 Q232 631 189.5 573.5 Q147 516 125 441 Q103 366 103 286 Q103 158 161 88.5 Q219 19 330 19 Q399 19 454 42.5 Q509 66 563 115 L597 319 L422 319 L427 349 Z M557 777 L538 761 L466 832 L366 760 L353 777 L459 864 L482 864 L557 777 Z " />
<glyph glyph-name="gcircumflex" unicode="&#x11d;" horiz-adv-x="547" d="M416 -1 Q405 -63 386 -103 Q367 -143 338.5 -167 Q310 -191 271 -200.5 Q232 -210 182 -210 Q136 -210 91.5 -201 Q47 -192 18 -178 L34 -150 Q61 -164 102 -173 Q143 -182 188 -182 Q241 -182 276 -169 Q311 -156 333.5 -131.5 Q356 -107 368.5 -70.5 Q381 -34 389 13 L400 78 Q384 61 363.5 45 Q343 29 318.5 16 Q294 3 265.5 -4.5 Q237 -12 205 -12 Q160 -12 128.5 4.5 Q97 21 77.5 49.5 Q58 78 49.5 115.5 Q41 153 41 195 Q41 256 56 317 Q71 378 103.5 426.5 Q136 475 185.5 505 Q235 535 304 535 Q337 535 362.5 524 Q388 513 407 497.5 Q426 482 438.5 464 Q451 446 458 431 L474 523 L504 523 L416 -1 Z M450 384 Q443 400 430 421.5 Q417 443 398.5 461.5 Q380 480 355 493 Q330 506 299 506 Q244 506 202 482 Q160 458 131.5 416.5 Q103 375 88 319.5 Q73 264 73 201 Q73 161 81.5 127 Q90 93 107 68.5 Q124 44 151 30.5 Q178 17 214 17 Q248 17 277 27.5 Q306 38 330 54 Q354 70 373 87.5 Q392 105 406 119 L450 384 Z M368 750 L444 600 L420 585 L347 714 L231 586 L212 600 L338 750 L368 750 Z " />
<glyph glyph-name="Gbreve" unicode="&#x11e;" horiz-adv-x="697" d="M427 349 L631 349 L590 103 Q555 66 518 43.5 Q481 21 446.5 8.5 Q412 -4 382 -8 Q352 -12 330 -12 Q260 -12 210.5 10 Q161 32 129 71 Q97 110 82 164 Q67 218 67 281 Q67 379 93.5 462 Q120 545 169.5 605 Q219 665 289 698.5 Q359 732 447 732 Q517 732 561.5 715 Q606 698 629.5 670.5 Q653 643 659 608.5 Q665 574 659 539 L626 539 Q632 572 624.5 601.5 Q617 631 594.5 652.5 Q572 674 533 687 Q494 700 437 700 Q356 700 294 665.5 Q232 631 189.5 573.5 Q147 516 125 441 Q103 366 103 286 Q103 158 161 88.5 Q219 19 330 19 Q399 19 454 42.5 Q509 66 563 115 L597 319 L422 319 L427 349 Z M469 800 Q524 800 550 821.5 Q576 843 590 890 L615 885 Q600 825 563 798.5 Q526 772 464 772 Q404 772 378.5 795.5 Q353 819 351 883 L380 890 Q381 867 385 850 Q389 833 399 822 Q409 811 426 805.5 Q443 800 469 800 Z " />
<glyph glyph-name="gbreve" unicode="&#x11f;" horiz-adv-x="547" d="M416 -1 Q405 -63 386 -103 Q367 -143 338.5 -167 Q310 -191 271 -200.5 Q232 -210 182 -210 Q136 -210 91.5 -201 Q47 -192 18 -178 L34 -150 Q61 -164 102 -173 Q143 -182 188 -182 Q241 -182 276 -169 Q311 -156 333.5 -131.5 Q356 -107 368.5 -70.5 Q381 -34 389 13 L400 78 Q384 61 363.5 45 Q343 29 318.5 16 Q294 3 265.5 -4.5 Q237 -12 205 -12 Q160 -12 128.5 4.5 Q97 21 77.5 49.5 Q58 78 49.5 115.5 Q41 153 41 195 Q41 256 56 317 Q71 378 103.5 426.5 Q136 475 185.5 505 Q235 535 304 535 Q337 535 362.5 524 Q388 513 407 497.5 Q426 482 438.5 464 Q451 446 458 431 L474 523 L504 523 L416 -1 Z M450 384 Q443 400 430 421.5 Q417 443 398.5 461.5 Q380 480 355 493 Q330 506 299 506 Q244 506 202 482 Q160 458 131.5 416.5 Q103 375 88 319.5 Q73 264 73 201 Q73 161 81.5 127 Q90 93 107 68.5 Q124 44 151 30.5 Q178 17 214 17 Q248 17 277 27.5 Q306 38 330 54 Q354 70 373 87.5 Q392 105 406 119 L450 384 Z M334 626 Q389 626 414.5 651 Q440 676 454 725 L479 720 Q464 657 427.5 627.5 Q391 598 329 598 Q269 598 242.5 625.5 Q216 653 217 719 L244 726 Q243 675 263 650.5 Q283 626 334 626 Z " />
<glyph glyph-name="Gdotaccent" unicode="&#x120;" horiz-adv-x="697" d="M427 349 L631 349 L590 103 Q555 66 518 43.5 Q481 21 446.5 8.5 Q412 -4 382 -8 Q352 -12 330 -12 Q260 -12 210.5 10 Q161 32 129 71 Q97 110 82 164 Q67 218 67 281 Q67 379 93.5 462 Q120 545 169.5 605 Q219 665 289 698.5 Q359 732 447 732 Q517 732 561.5 715 Q606 698 629.5 670.5 Q653 643 659 608.5 Q665 574 659 539 L626 539 Q632 572 624.5 601.5 Q617 631 594.5 652.5 Q572 674 533 687 Q494 700 437 700 Q356 700 294 665.5 Q232 631 189.5 573.5 Q147 516 125 441 Q103 366 103 286 Q103 158 161 88.5 Q219 19 330 19 Q399 19 454 42.5 Q509 66 563 115 L597 319 L422 319 L427 349 Z M441 814 Q441 828 452 837.5 Q463 847 477 847 Q487 847 493 840 Q499 833 499 822 Q499 808 489.5 798.5 Q480 789 467 789 Q456 789 448.5 796 Q441 803 441 814 Z " />
<glyph glyph-name="gdotaccent" unicode="&#x121;" horiz-adv-x="547" d="M416 -1 Q405 -63 386 -103 Q367 -143 338.5 -167 Q310 -191 271 -200.5 Q232 -210 182 -210 Q136 -210 91.5 -201 Q47 -192 18 -178 L34 -150 Q61 -164 102 -173 Q143 -182 188 -182 Q241 -182 276 -169 Q311 -156 333.5 -131.5 Q356 -107 368.5 -70.5 Q381 -34 389 13 L400 78 Q384 61 363.5 45 Q343 29 318.5 16 Q294 3 265.5 -4.5 Q237 -12 205 -12 Q160 -12 128.5 4.5 Q97 21 77.5 49.5 Q58 78 49.5 115.5 Q41 153 41 195 Q41 256 56 317 Q71 378 103.5 426.5 Q136 475 185.5 505 Q235 535 304 535 Q337 535 362.5 524 Q388 513 407 497.5 Q426 482 438.5 464 Q451 446 458 431 L474 523 L504 523 L416 -1 Z M450 384 Q443 400 430 421.5 Q417 443 398.5 461.5 Q380 480 355 493 Q330 506 299 506 Q244 506 202 482 Q160 458 131.5 416.5 Q103 375 88 319.5 Q73 264 73 201 Q73 161 81.5 127 Q90 93 107 68.5 Q124 44 151 30.5 Q178 17 214 17 Q248 17 277 27.5 Q306 38 330 54 Q354 70 373 87.5 Q392 105 406 119 L450 384 Z M312 667 Q312 681 322.5 690.5 Q333 700 347 700 Q357 700 363.5 693 Q370 686 370 675 Q370 661 360 651.5 Q350 642 337 642 Q326 642 319 649 Q312 656 312 667 Z " />
<glyph glyph-name="Gcommaaccent" unicode="&#x122;" horiz-adv-x="697" d="M427 349 L631 349 L590 103 Q555 66 518 43.5 Q481 21 446.5 8.5 Q412 -4 382 -8 Q352 -12 330 -12 Q260 -12 210.5 10 Q161 32 129 71 Q97 110 82 164 Q67 218 67 281 Q67 379 93.5 462 Q120 545 169.5 605 Q219 665 289 698.5 Q359 732 447 732 Q517 732 561.5 715 Q606 698 629.5 670.5 Q653 643 659 608.5 Q665 574 659 539 L626 539 Q632 572 624.5 601.5 Q617 631 594.5 652.5 Q572 674 533 687 Q494 700 437 700 Q356 700 294 665.5 Q232 631 189.5 573.5 Q147 516 125 441 Q103 366 103 286 Q103 158 161 88.5 Q219 19 330 19 Q399 19 454 42.5 Q509 66 563 115 L597 319 L422 319 L427 349 Z M324 -60 L361 -68 L283 -218 L259 -210 L324 -60 Z " />
<glyph glyph-name="gcommaaccent" unicode="&#x123;" horiz-adv-x="547" d="M416 -1 Q405 -63 386 -103 Q367 -143 338.5 -167 Q310 -191 271 -200.5 Q232 -210 182 -210 Q136 -210 91.5 -201 Q47 -192 18 -178 L34 -150 Q61 -164 102 -173 Q143 -182 188 -182 Q241 -182 276 -169 Q311 -156 333.5 -131.5 Q356 -107 368.5 -70.5 Q381 -34 389 13 L400 78 Q384 61 363.5 45 Q343 29 318.5 16 Q294 3 265.5 -4.5 Q237 -12 205 -12 Q160 -12 128.5 4.5 Q97 21 77.5 49.5 Q58 78 49.5 115.5 Q41 153 41 195 Q41 256 56 317 Q71 378 103.5 426.5 Q136 475 185.5 505 Q235 535 304 535 Q337 535 362.5 524 Q388 513 407 497.5 Q426 482 438.5 464 Q451 446 458 431 L474 523 L504 523 L416 -1 Z M450 384 Q443 400 430 421.5 Q417 443 398.5 461.5 Q380 480 355 493 Q330 506 299 506 Q244 506 202 482 Q160 458 131.5 416.5 Q103 375 88 319.5 Q73 264 73 201 Q73 161 81.5 127 Q90 93 107 68.5 Q124 44 151 30.5 Q178 17 214 17 Q248 17 277 27.5 Q306 38 330 54 Q354 70 373 87.5 Q392 105 406 119 L450 384 Z M342 592 L306 603 L384 753 L409 746 L342 592 Z " />
<glyph glyph-name="Hcircumflex" unicode="&#x124;" horiz-adv-x="672" d="M163 720 L196 720 L143 399 L563 399 L616 720 L649 720 L529 0 L496 0 L558 369 L138 369 L76 0 L43 0 L163 720 Z M513 777 L494 761 L422 832 L322 760 L309 777 L415 864 L438 864 L513 777 Z " />
<glyph glyph-name="hcircumflex" unicode="&#x125;" horiz-adv-x="517" d="M178 720 L130 432 Q149 453 171.5 471.5 Q194 490 218.5 504 Q243 518 270 526.5 Q297 535 325 535 Q368 535 394.5 520.5 Q421 506 434 479.5 Q447 453 448.5 415 Q450 377 442 330 L387 0 L356 0 L411 330 Q416 361 418 392 Q420 423 411 448.5 Q402 474 379.5 490 Q357 506 314 506 Q286 506 260 496 Q234 486 210 470.5 Q186 455 164.5 434.5 Q143 414 124 393 L58 0 L28 0 L148 720 L178 720 Z M264 748 L245 732 L173 803 L73 731 L60 748 L166 835 L189 835 L264 748 Z " />
<glyph glyph-name="Hbar" unicode="&#x126;" horiz-adv-x="681" d="M84 593 L147 593 L168 720 L201 720 L180 593 L600 593 L621 720 L654 720 L633 593 L694 593 L690 565 L629 565 L534 0 L501 0 L563 369 L143 369 L81 0 L48 0 L143 565 L80 565 L84 593 Z M568 399 L596 565 L176 565 L148 399 L568 399 Z " />
<glyph glyph-name="hbar" unicode="&#x127;" horiz-adv-x="517" d="M178 720 L164 631 L343 631 L338 603 L159 603 L124 392 Q143 413 165 431.5 Q187 450 212 464 Q237 478 263.5 486.5 Q290 495 318 495 Q361 495 387.5 480.5 Q414 466 427.5 439.5 Q441 413 442 375 Q443 337 436 290 L387 0 L356 0 L405 290 Q410 321 411.5 352 Q413 383 404 408.5 Q395 434 372.5 450 Q350 466 307 466 Q279 466 253 456 Q227 446 203 430.5 Q179 415 157.5 394.5 Q136 374 117 353 L58 0 L28 0 L129 603 L59 603 L64 631 L134 631 L148 720 L178 720 Z " />
<glyph glyph-name="Itilde" unicode="&#x128;" horiz-adv-x="219" d="M163 720 L196 720 L76 0 L43 0 L163 720 Z M319 840 Q302 808 283 797.5 Q264 787 244 787 Q227 787 211.5 792.5 Q196 798 182 804.5 Q168 811 155.5 816.5 Q143 822 132 822 Q121 822 109.5 815 Q98 808 81 785 L61 796 Q81 828 99.5 839 Q118 850 138 850 Q153 850 166.5 844.5 Q180 839 193 832.5 Q206 826 219.5 820.5 Q233 815 248 815 Q263 815 274 822 Q285 829 298 850 L319 840 Z " />
<glyph glyph-name="itilde" unicode="&#x129;" horiz-adv-x="214" d="M72 0 L42 0 L130 523 L160 523 L72 0 Z M287 671 Q271 639 251.5 628.5 Q232 618 212 618 Q195 618 179.5 623.5 Q164 629 150 635.5 Q136 642 123.5 647.5 Q111 653 100 653 Q89 653 78 646 Q67 639 50 616 L30 627 Q50 659 68.5 670 Q87 681 107 681 Q122 681 135.5 675.5 Q149 670 162 663.5 Q175 657 188.5 651.5 Q202 646 217 646 Q232 646 242.5 653 Q253 660 267 681 L287 671 Z " />
<glyph glyph-name="Imacron" unicode="&#x12a;" horiz-adv-x="219" d="M163 720 L196 720 L76 0 L43 0 L163 720 Z M62 824 L321 824 L316 796 L57 796 L62 824 Z " />
<glyph glyph-name="imacron" unicode="&#x12b;" horiz-adv-x="214" d="M72 0 L42 0 L130 523 L160 523 L72 0 Z M39 662 L298 662 L293 634 L34 634 L39 662 Z " />
<glyph glyph-name="Ibreve" unicode="&#x12c;" horiz-adv-x="219" d="M163 720 L196 720 L76 0 L43 0 L163 720 Z M192 800 Q247 800 273 821.5 Q299 843 313 890 L338 885 Q323 825 286 798.5 Q249 772 187 772 Q127 772 101.5 795.5 Q76 819 74 883 L103 890 Q104 867 108 850 Q112 833 122 822 Q132 811 149 805.5 Q166 800 192 800 Z " />
<glyph glyph-name="ibreve" unicode="&#x12d;" horiz-adv-x="214" d="M72 0 L42 0 L130 523 L160 523 L72 0 Z M159 626 Q214 626 239.5 651 Q265 676 279 725 L304 720 Q289 657 252.5 627.5 Q216 598 154 598 Q94 598 67.5 625.5 Q41 653 42 719 L69 726 Q68 675 88 650.5 Q108 626 159 626 Z " />
<glyph glyph-name="Iogonek" unicode="&#x12e;" horiz-adv-x="218" d="M76 0 Q53 -17 32 -35.5 Q11 -54 -5 -72.5 Q-21 -91 -30.5 -110 Q-40 -129 -40 -148 Q-40 -167 -29 -176 Q-18 -185 1 -185 Q18 -185 34.5 -178.5 Q51 -172 67 -163 L76 -186 Q60 -197 37.5 -205 Q15 -213 -8 -213 Q-39 -213 -56 -198 Q-73 -183 -73 -156 Q-73 -133 -63 -111.5 Q-53 -90 -37 -69.5 Q-21 -49 0 -30.5 Q21 -12 44 5 L163 720 L196 720 L76 0 Z " />
<glyph glyph-name="iogonek" unicode="&#x12f;" horiz-adv-x="203" d="M72 0 Q49 -17 28 -35.5 Q7 -54 -9 -72.5 Q-25 -91 -34.5 -110 Q-44 -129 -44 -148 Q-44 -167 -33 -176 Q-22 -185 -3 -185 Q14 -185 30.5 -178.5 Q47 -172 63 -163 L72 -186 Q57 -197 34 -205 Q11 -213 -12 -213 Q-43 -213 -60 -198 Q-77 -183 -77 -156 Q-77 -132 -66.5 -110 Q-56 -88 -39.5 -67.5 Q-23 -47 -1.5 -28.5 Q20 -10 43 7 L130 523 L160 523 L72 0 Z M140 667 Q140 681 150.5 690.5 Q161 700 174 700 Q185 700 191.5 693 Q198 686 198 675 Q198 661 188 651.5 Q178 642 164 642 Q153 642 146.5 649 Q140 656 140 667 Z " />
<glyph glyph-name="Idotaccent" unicode="&#x130;" horiz-adv-x="219" d="M163 720 L196 720 L76 0 L43 0 L163 720 Z M160 814 Q160 828 171 837.5 Q182 847 196 847 Q206 847 212 840 Q218 833 218 822 Q218 808 208.5 798.5 Q199 789 186 789 Q175 789 167.5 796 Q160 803 160 814 Z " />
<glyph glyph-name="dotlessi" unicode="&#x131;" horiz-adv-x="214" d="M72 0 L42 0 L130 523 L160 523 L72 0 Z " />
<glyph glyph-name="IJ" unicode="&#x132;" horiz-adv-x="588" d="M163 720 L196 720 L76 0 L43 0 L163 720 Z M474 141 Q460 62 423 25 Q386 -12 314 -12 Q287 -12 252 -5 Q217 2 191 17 L207 44 Q260 18 316 18 Q344 18 364.5 24.5 Q385 31 400.5 46.5 Q416 62 426 88 Q436 114 443 153 L537 720 L570 720 L474 141 Z " />
<glyph glyph-name="ij" unicode="&#x133;" horiz-adv-x="401" d="M140 667 Q140 681 150.5 690.5 Q161 700 174 700 Q185 700 191.5 693 Q198 686 198 675 Q198 661 188 651.5 Q178 642 164 642 Q153 642 146.5 649 Q140 656 140 667 Z M72 0 L42 0 L130 523 L160 523 L72 0 Z M244 -91 Q239 -117 232.5 -137.5 Q226 -158 214 -172.5 Q202 -187 183.5 -195 Q165 -203 138 -203 Q125 -203 111 -201 Q97 -199 84 -194 L94 -169 Q102 -172 115 -174 Q128 -176 140 -176 Q154 -176 165.5 -172.5 Q177 -169 186.5 -160 Q196 -151 202.5 -134.5 Q209 -118 214 -92 L317 523 L347 523 L244 -91 Z M328 667 Q328 681 338.5 690.5 Q349 700 362 700 Q373 700 379.5 693 Q386 686 386 675 Q386 661 376 651.5 Q366 642 352 642 Q341 642 334.5 649 Q328 656 328 667 Z " />
<glyph glyph-name="Jcircumflex" unicode="&#x134;" horiz-adv-x="370" d="M256 141 Q242 62 205 25 Q168 -12 96 -12 Q69 -12 34 -5 Q-1 2 -27 17 L-11 44 Q42 18 98 18 Q126 18 146.5 24.5 Q167 31 182.5 46.5 Q198 62 208 88 Q218 114 225 153 L319 720 L352 720 L256 141 Z M443 777 L424 761 L352 832 L252 760 L239 777 L345 864 L368 864 L443 777 Z " />
<glyph glyph-name="jcircumflex" unicode="&#x135;" horiz-adv-x="215" d="M58 -91 Q53 -117 46.5 -137.5 Q40 -158 28 -172.5 Q16 -187 -2.5 -195 Q-21 -203 -48 -203 Q-61 -203 -75 -201 Q-89 -199 -102 -194 L-92 -169 Q-84 -172 -71 -174 Q-58 -176 -46 -176 Q-32 -176 -20.5 -172.5 Q-9 -169 0.5 -160 Q10 -151 16.5 -134.5 Q23 -118 28 -92 L131 523 L161 523 L58 -91 Z M196 750 L272 600 L248 585 L175 714 L59 586 L40 600 L166 750 L196 750 Z " />
<glyph glyph-name="Kcommaaccent" unicode="&#x136;" horiz-adv-x="593" d="M163 720 L196 720 L142 392 L304 392 L554 720 L592 720 L329 376 L511 0 L476 0 L300 362 L137 362 L76 0 L43 0 L163 720 Z M244 -60 L281 -68 L203 -218 L179 -210 L244 -60 Z " />
<glyph glyph-name="kcommaaccent" unicode="&#x137;" horiz-adv-x="463" d="M109 307 L191 307 L409 523 L451 523 L217 292 L389 0 L352 0 L188 278 L105 278 L58 0 L28 0 L148 720 L178 720 L109 307 Z M177 -60 L214 -68 L136 -218 L112 -210 L177 -60 Z " />
<glyph glyph-name="kgreenlandic" unicode="&#x138;" horiz-adv-x="462" d="M104 305 L172 305 L405 523 L447 523 L199 292 L384 0 L343 0 L167 278 L100 278 L53 0 L23 0 L111 523 L141 523 L104 305 Z " />
<glyph glyph-name="Lacute" unicode="&#x139;" horiz-adv-x="498" d="M196 720 L81 31 L424 31 L419 0 L43 0 L163 720 L196 720 Z M307 871 L318 841 L143 759 L135 781 L307 871 Z " />
<glyph glyph-name="lacute" unicode="&#x13a;" horiz-adv-x="186" d="M28 0 L148 720 L178 720 L58 0 L28 0 Z M259 871 L270 841 L95 759 L87 781 L259 871 Z " />
<glyph glyph-name="Lcommaaccent" unicode="&#x13b;" horiz-adv-x="498" d="M196 720 L81 31 L424 31 L419 0 L43 0 L163 720 L196 720 Z M230 -60 L267 -68 L189 -218 L165 -210 L230 -60 Z " />
<glyph glyph-name="lcommaaccent" unicode="&#x13c;" horiz-adv-x="186" d="M28 0 L148 720 L178 720 L58 0 L28 0 Z M12 -60 L49 -68 L-29 -218 L-53 -210 L12 -60 Z " />
<glyph glyph-name="Lcaron" unicode="&#x13d;" horiz-adv-x="498" d="M196 720 L81 31 L424 31 L419 0 L43 0 L163 720 L196 720 Z M337 720 L377 720 L299 544 L270 544 L337 720 Z " />
<glyph glyph-name="lcaron" unicode="&#x13e;" horiz-adv-x="196" d="M28 0 L148 720 L178 720 L58 0 L28 0 Z M276 720 L316 720 L238 544 L209 544 L276 720 Z " />
<glyph glyph-name="Ldot" unicode="&#x13f;" horiz-adv-x="498" d="M196 720 L81 31 L424 31 L419 0 L43 0 L163 720 L196 720 Z M345 367 Q345 385 356 394.5 Q367 404 381 404 Q396 404 407 395 Q418 386 418 367 Q418 352 407 341.5 Q396 331 381 331 Q366 331 355.5 340.5 Q345 350 345 367 Z " />
<glyph glyph-name="ldot" unicode="&#x140;" horiz-adv-x="220" d="M28 0 L148 720 L178 720 L58 0 L28 0 Z M181 357 Q181 375 192 384.5 Q203 394 217 394 Q232 394 243 385 Q254 376 254 357 Q254 342 243 331.5 Q232 321 217 321 Q202 321 191.5 330.5 Q181 340 181 357 Z " />
<glyph glyph-name="Lslash" unicode="&#x141;" horiz-adv-x="498" d="M196 720 L136 356 L382 451 L377 420 L130 325 L81 31 L424 31 L419 0 L43 0 L95 312 L1 276 L6 307 L100 343 L163 720 L196 720 Z " />
<glyph glyph-name="lslash" unicode="&#x142;" horiz-adv-x="206" d="M38 0 L96 349 L4 309 L9 338 L101 378 L158 720 L188 720 L134 392 L224 432 L219 403 L129 363 L68 0 L38 0 Z " />
<glyph glyph-name="Nacute" unicode="&#x143;" horiz-adv-x="676" d="M163 720 L198 720 L511 57 L620 720 L653 720 L533 0 L500 0 L187 667 L76 0 L43 0 L163 720 Z M522 871 L533 841 L358 759 L350 781 L522 871 Z " />
<glyph glyph-name="nacute" unicode="&#x144;" horiz-adv-x="518" d="M146 523 L130 432 Q172 477 220.5 506 Q269 535 321 535 Q369 535 396.5 519 Q424 503 436.5 475 Q449 447 449 409 Q449 371 442 328 L387 0 L356 0 L412 335 Q426 420 405 463 Q384 506 315 506 Q284 506 255 493.5 Q226 481 201.5 463.5 Q177 446 157 426.5 Q137 407 124 393 L58 0 L28 0 L116 523 L146 523 Z M388 734 L407 708 L252 589 L239 608 L388 734 Z " />
<glyph glyph-name="Ncommaaccent" unicode="&#x145;" horiz-adv-x="676" d="M163 720 L198 720 L511 57 L620 720 L653 720 L533 0 L500 0 L187 667 L76 0 L43 0 L163 720 Z M289 -60 L326 -68 L248 -218 L224 -210 L289 -60 Z " />
<glyph glyph-name="ncommaaccent" unicode="&#x146;" horiz-adv-x="518" d="M146 523 L130 432 Q172 477 220.5 506 Q269 535 321 535 Q369 535 396.5 519 Q424 503 436.5 475 Q449 447 449 409 Q449 371 442 328 L387 0 L356 0 L412 335 Q426 420 405 463 Q384 506 315 506 Q284 506 255 493.5 Q226 481 201.5 463.5 Q177 446 157 426.5 Q137 407 124 393 L58 0 L28 0 L116 523 L146 523 Z M201 -60 L238 -68 L160 -218 L136 -210 L201 -60 Z " />
<glyph glyph-name="Ncaron" unicode="&#x147;" horiz-adv-x="676" d="M163 720 L198 720 L511 57 L620 720 L653 720 L533 0 L500 0 L187 667 L76 0 L43 0 L163 720 Z M428 768 L405 768 L328 855 L348 872 L422 800 L519 871 L532 855 L428 768 Z " />
<glyph glyph-name="ncaron" unicode="&#x148;" horiz-adv-x="518" d="M146 523 L130 432 Q172 477 220.5 506 Q269 535 321 535 Q369 535 396.5 519 Q424 503 436.5 475 Q449 447 449 409 Q449 371 442 328 L387 0 L356 0 L412 335 Q426 420 405 463 Q384 506 315 506 Q284 506 255 493.5 Q226 481 201.5 463.5 Q177 446 157 426.5 Q137 407 124 393 L58 0 L28 0 L116 523 L146 523 Z M285 594 L211 744 L234 758 L307 630 L424 759 L443 744 L315 594 L285 594 Z " />
<glyph glyph-name="napostrophe" unicode="&#x149;" horiz-adv-x="518" d="M146 523 L130 432 Q172 477 220.5 506 Q269 535 321 535 Q369 535 396.5 519 Q424 503 436.5 475 Q449 447 449 409 Q449 371 442 328 L387 0 L356 0 L412 335 Q426 420 405 463 Q384 506 315 506 Q284 506 255 493.5 Q226 481 201.5 463.5 Q177 446 157 426.5 Q137 407 124 393 L58 0 L28 0 L116 523 L146 523 Z M38.4368 640.688 Q38.4368 659.29 50.4688 669.986 Q62.5007 680.683 77.3093 680.683 Q96.7456 680.683 103.687 667.196 Q110.629 653.709 110.629 637.897 Q110.629 609.064 92.1179 575.115 Q73.6072 541.165 30.1069 519.773 L25.4792 533.724 Q42.1389 543.026 53.2454 552.327 Q64.3518 561.628 71.7561 572.324 Q79.1604 583.021 82.8625 596.042 Q86.5647 609.064 88.4158 624.876 Q78.2349 614.644 63.4263 614.644 Q50.4688 614.644 44.4528 622.085 Q38.4368 629.526 38.4368 640.688 Z " />
<glyph glyph-name="Eng" unicode="&#x14a;" horiz-adv-x="676" d="M163 720 L198 720 L510 57 L620 720 L653 720 L521 -71 Q517 -95 508 -119 Q499 -143 481.5 -161.5 Q464 -180 438 -191.5 Q412 -203 373 -203 Q362 -203 348 -201.5 Q334 -200 320.5 -197.5 Q307 -195 296 -192 Q285 -189 280 -186 L291 -159 Q299 -162 325.5 -168 Q352 -174 383 -174 Q426 -174 452.5 -149.5 Q479 -125 488 -72 L500 0 L187 662 L76 0 L43 0 L163 720 Z " />
<glyph glyph-name="eng" unicode="&#x14b;" horiz-adv-x="518" d="M146 523 L130 432 Q172 477 220.5 506 Q269 535 321 535 Q369 535 396.5 519 Q424 503 436.5 475 Q449 447 449 409 Q449 371 442 328 L372 -91 Q368 -114 361.5 -134 Q355 -154 343 -169.5 Q331 -185 312 -194 Q293 -203 266 -203 Q252 -203 238.5 -201 Q225 -199 212 -194 L222 -169 Q230 -172 243 -174 Q256 -176 268 -176 Q282 -176 293.5 -172.5 Q305 -169 314 -160 Q323 -151 329.5 -134.5 Q336 -118 341 -92 L412 335 Q426 420 405 463 Q384 506 315 506 Q284 506 255 493.5 Q226 481 201.5 463.5 Q177 446 157 426.5 Q137 407 124 393 L58 0 L28 0 L116 523 L146 523 Z " />
<glyph glyph-name="Omacron" unicode="&#x14c;" horiz-adv-x="731" d="M110 372 Q101 315 101 267 Q101 203 117 156.5 Q133 110 162 79.5 Q191 49 231.5 34.5 Q272 20 322 20 Q381 20 433 40 Q485 60 526.5 103 Q568 146 598.5 212.5 Q629 279 644 372 Q648 395 649.5 417 Q651 439 651 459 Q651 580 591.5 640 Q532 700 433 700 Q373 700 320 679.5 Q267 659 224.5 617.5 Q182 576 152.5 514.5 Q123 453 110 372 Z M75 372 Q89 465 123.5 533 Q158 601 207 645.5 Q256 690 315.5 711 Q375 732 438 732 Q493 732 538.5 715.5 Q584 699 617 666 Q650 633 668 582 Q686 531 686 462 Q686 441 684.5 418.5 Q683 396 679 372 Q663 266 628 193 Q593 120 545 74.5 Q497 29 438.5 8.5 Q380 -12 318 -12 Q264 -12 218 3.5 Q172 19 138.5 52.5 Q105 86 86 139 Q67 192 67 266 Q67 290 68.5 316.5 Q70 343 75 372 Z M326 824 L585 824 L580 796 L321 796 L326 824 Z " />
<glyph glyph-name="omacron" unicode="&#x14d;" horiz-adv-x="541" d="M78 260 Q72 224 72 192 Q72 103 112.5 59.5 Q153 16 220 16 Q259 16 295.5 31 Q332 46 362.5 76.5 Q393 107 415 152.5 Q437 198 446 260 Q448 277 449.5 293 Q451 309 451 324 Q451 417 409 461.5 Q367 506 300 506 Q261 506 225 491 Q189 476 159.5 445 Q130 414 108.5 368 Q87 322 78 260 Z M44 260 Q53 323 76 374 Q99 425 133 460.5 Q167 496 210.5 515.5 Q254 535 305 535 Q392 535 439 481 Q486 427 486 329 Q486 296 480 260 Q460 129 389.5 58.5 Q319 -12 216 -12 Q128 -12 83.5 41.5 Q39 95 39 191 Q39 208 40.5 225 Q42 242 44 260 Z M190 662 L449 662 L444 634 L185 634 L190 662 Z " />
<glyph glyph-name="Obreve" unicode="&#x14e;" horiz-adv-x="731" d="M110 372 Q101 315 101 267 Q101 203 117 156.5 Q133 110 162 79.5 Q191 49 231.5 34.5 Q272 20 322 20 Q381 20 433 40 Q485 60 526.5 103 Q568 146 598.5 212.5 Q629 279 644 372 Q648 395 649.5 417 Q651 439 651 459 Q651 580 591.5 640 Q532 700 433 700 Q373 700 320 679.5 Q267 659 224.5 617.5 Q182 576 152.5 514.5 Q123 453 110 372 Z M75 372 Q89 465 123.5 533 Q158 601 207 645.5 Q256 690 315.5 711 Q375 732 438 732 Q493 732 538.5 715.5 Q584 699 617 666 Q650 633 668 582 Q686 531 686 462 Q686 441 684.5 418.5 Q683 396 679 372 Q663 266 628 193 Q593 120 545 74.5 Q497 29 438.5 8.5 Q380 -12 318 -12 Q264 -12 218 3.5 Q172 19 138.5 52.5 Q105 86 86 139 Q67 192 67 266 Q67 290 68.5 316.5 Q70 343 75 372 Z M458 800 Q513 800 539 821.5 Q565 843 579 890 L604 885 Q589 825 552 798.5 Q515 772 453 772 Q393 772 367.5 795.5 Q342 819 340 883 L369 890 Q370 867 374 850 Q378 833 388 822 Q398 811 415 805.5 Q432 800 458 800 Z " />
<glyph glyph-name="obreve" unicode="&#x14f;" horiz-adv-x="541" d="M78 260 Q72 224 72 192 Q72 103 112.5 59.5 Q153 16 220 16 Q259 16 295.5 31 Q332 46 362.5 76.5 Q393 107 415 152.5 Q437 198 446 260 Q448 277 449.5 293 Q451 309 451 324 Q451 417 409 461.5 Q367 506 300 506 Q261 506 225 491 Q189 476 159.5 445 Q130 414 108.5 368 Q87 322 78 260 Z M44 260 Q53 323 76 374 Q99 425 133 460.5 Q167 496 210.5 515.5 Q254 535 305 535 Q392 535 439 481 Q486 427 486 329 Q486 296 480 260 Q460 129 389.5 58.5 Q319 -12 216 -12 Q128 -12 83.5 41.5 Q39 95 39 191 Q39 208 40.5 225 Q42 242 44 260 Z M314 626 Q369 626 394.5 651 Q420 676 434 725 L459 720 Q444 657 407.5 627.5 Q371 598 309 598 Q249 598 222.5 625.5 Q196 653 197 719 L224 726 Q223 675 243 650.5 Q263 626 314 626 Z " />
<glyph glyph-name="Ohungarumlaut" unicode="&#x150;" horiz-adv-x="731" d="M110 372 Q101 315 101 267 Q101 203 117 156.5 Q133 110 162 79.5 Q191 49 231.5 34.5 Q272 20 322 20 Q381 20 433 40 Q485 60 526.5 103 Q568 146 598.5 212.5 Q629 279 644 372 Q648 395 649.5 417 Q651 439 651 459 Q651 580 591.5 640 Q532 700 433 700 Q373 700 320 679.5 Q267 659 224.5 617.5 Q182 576 152.5 514.5 Q123 453 110 372 Z M75 372 Q89 465 123.5 533 Q158 601 207 645.5 Q256 690 315.5 711 Q375 732 438 732 Q493 732 538.5 715.5 Q584 699 617 666 Q650 633 668 582 Q686 531 686 462 Q686 441 684.5 418.5 Q683 396 679 372 Q663 266 628 193 Q593 120 545 74.5 Q497 29 438.5 8.5 Q380 -12 318 -12 Q264 -12 218 3.5 Q172 19 138.5 52.5 Q105 86 86 139 Q67 192 67 266 Q67 290 68.5 316.5 Q70 343 75 372 Z M528 885 L381 758 L365 775 L507 909 L528 885 Z M626 872 L489 758 L472 776 L603 896 L626 872 Z " />
<glyph glyph-name="ohungarumlaut" unicode="&#x151;" horiz-adv-x="541" d="M78 260 Q72 224 72 192 Q72 103 112.5 59.5 Q153 16 220 16 Q259 16 295.5 31 Q332 46 362.5 76.5 Q393 107 415 152.5 Q437 198 446 260 Q448 277 449.5 293 Q451 309 451 324 Q451 417 409 461.5 Q367 506 300 506 Q261 506 225 491 Q189 476 159.5 445 Q130 414 108.5 368 Q87 322 78 260 Z M44 260 Q53 323 76 374 Q99 425 133 460.5 Q167 496 210.5 515.5 Q254 535 305 535 Q392 535 439 481 Q486 427 486 329 Q486 296 480 260 Q460 129 389.5 58.5 Q319 -12 216 -12 Q128 -12 83.5 41.5 Q39 95 39 191 Q39 208 40.5 225 Q42 242 44 260 Z M396 714 L249 587 L234 604 L374 737 L396 714 Z M493 701 L356 587 L342 604 L472 725 L493 701 Z " />
<glyph glyph-name="OE" unicode="&#x152;" horiz-adv-x="1115" d="M605 162 Q555 69 479.5 28.5 Q404 -12 314 -12 Q261 -12 215.5 5.5 Q170 23 136.5 59 Q103 95 84 150.5 Q65 206 65 283 Q65 396 96 480.5 Q127 565 178.5 621 Q230 677 297.5 704.5 Q365 732 438 732 Q483 732 522 720 Q561 708 591.5 684.5 Q622 661 642.5 626 Q663 591 671 545 L700 720 L1117 720 L1112 689 L728 689 L678 389 L1029 389 L1024 359 L673 359 L618 31 L1012 31 L1007 0 L580 0 L605 162 Z M101 284 Q101 216 116.5 166.5 Q132 117 161 84.5 Q190 52 230 36.5 Q270 21 320 21 Q385 21 445 47.5 Q505 74 550.5 127 Q596 180 623.5 260.5 Q651 341 651 448 Q651 516 634 563.5 Q617 611 587.5 641 Q558 671 518.5 685 Q479 699 433 699 Q363 699 302.5 672.5 Q242 646 197 593.5 Q152 541 126.5 463.5 Q101 386 101 284 Z " />
<glyph glyph-name="oe" unicode="&#x153;" horiz-adv-x="903" d="M40 198 Q40 271 59 332.5 Q78 394 113.5 439 Q149 484 198 509.5 Q247 535 307 535 Q380 535 424.5 488 Q469 441 481 365 Q498 402 522.5 433.5 Q547 465 577 487.5 Q607 510 642 522.5 Q677 535 716 535 Q756 535 784 523 Q812 511 830 491.5 Q848 472 856 447 Q864 422 864 397 Q864 355 845 325 Q826 295 794.5 275 Q763 255 722.5 242.5 Q682 230 639 223 Q596 216 554 213 Q512 210 477 208 Q477 104 516 60.5 Q555 17 633 17 Q679 17 718 31.5 Q757 46 799 81 L814 60 Q766 18 720 3 Q674 -12 627 -12 Q554 -12 507.5 28.5 Q461 69 449 149 Q417 72 355 30 Q293 -12 215 -12 Q129 -12 84.5 45 Q40 102 40 198 Z M72 203 Q72 110 113.5 63.5 Q155 17 220 17 Q280 17 324 44 Q368 71 396.5 113.5 Q425 156 439 209.5 Q453 263 453 317 Q453 365 441.5 400.5 Q430 436 410 459.5 Q390 483 362.5 494.5 Q335 506 302 506 Q256 506 214 486 Q172 466 140.5 427.5 Q109 389 90.5 332.5 Q72 276 72 203 Z M481 236 Q582 242 649.5 254 Q717 266 757.5 285.5 Q798 305 814.5 332 Q831 359 831 396 Q831 415 825 434.5 Q819 454 804.5 470 Q790 486 767 496 Q744 506 711 506 Q655 506 612.5 478.5 Q570 451 541 410.5 Q512 370 497 322.5 Q482 275 481 236 Z " />
<glyph glyph-name="Racute" unicode="&#x154;" horiz-adv-x="596" d="M360 720 Q463 720 510 675.5 Q557 631 557 557 Q557 481 520.5 420.5 Q484 360 397 324 L507 0 L471 0 L362 317 Q342 313 321.5 311.5 Q301 310 277 310 L128 310 L76 0 L43 0 L163 720 L360 720 Z M191 689 L133 340 L289 340 Q409 340 466.5 396.5 Q524 453 524 554 Q524 620 483.5 654.5 Q443 689 355 689 L191 689 Z M458 871 L469 841 L294 759 L286 781 L458 871 Z " />
<glyph glyph-name="racute" unicode="&#x155;" horiz-adv-x="278" d="M128 434 Q152 476 188 505.5 Q224 535 265 535 Q287 535 307 529 L295 499 Q288 501 278 502 Q268 503 257 503 Q236 503 216.5 492 Q197 481 179.5 463.5 Q162 446 147 425 Q132 404 122 385 L58 0 L28 0 L116 523 L146 523 L128 434 Z M290 734 L309 708 L154 589 L141 608 L290 734 Z " />
<glyph glyph-name="Rcommaaccent" unicode="&#x156;" horiz-adv-x="596" d="M360 720 Q463 720 510 675.5 Q557 631 557 557 Q557 481 520.5 420.5 Q484 360 397 324 L507 0 L471 0 L362 317 Q342 313 321.5 311.5 Q301 310 277 310 L128 310 L76 0 L43 0 L163 720 L360 720 Z M191 689 L133 340 L289 340 Q409 340 466.5 396.5 Q524 453 524 554 Q524 620 483.5 654.5 Q443 689 355 689 L191 689 Z M240 -60 L277 -68 L199 -218 L175 -210 L240 -60 Z " />
<glyph glyph-name="rcommaaccent" unicode="&#x157;" horiz-adv-x="278" d="M128 434 Q152 476 188 505.5 Q224 535 265 535 Q287 535 307 529 L295 499 Q288 501 278 502 Q268 503 257 503 Q236 503 216.5 492 Q197 481 179.5 463.5 Q162 446 147 425 Q132 404 122 385 L58 0 L28 0 L116 523 L146 523 L128 434 Z M19 -60 L56 -68 L-22 -218 L-46 -210 L19 -60 Z " />
<glyph glyph-name="Rcaron" unicode="&#x158;" horiz-adv-x="596" d="M360 720 Q463 720 510 675.5 Q557 631 557 557 Q557 481 520.5 420.5 Q484 360 397 324 L507 0 L471 0 L362 317 Q342 313 321.5 311.5 Q301 310 277 310 L128 310 L76 0 L43 0 L163 720 L360 720 Z M191 689 L133 340 L289 340 Q409 340 466.5 396.5 Q524 453 524 554 Q524 620 483.5 654.5 Q443 689 355 689 L191 689 Z M357 768 L334 768 L257 855 L277 872 L351 800 L448 871 L461 855 L357 768 Z " />
<glyph glyph-name="rcaron" unicode="&#x159;" horiz-adv-x="278" d="M128 434 Q152 476 188 505.5 Q224 535 265 535 Q287 535 307 529 L295 499 Q288 501 278 502 Q268 503 257 503 Q236 503 216.5 492 Q197 481 179.5 463.5 Q162 446 147 425 Q132 404 122 385 L58 0 L28 0 L116 523 L146 523 L128 434 Z M196 594 L122 744 L145 758 L218 630 L335 759 L354 744 L226 594 L196 594 Z " />
<glyph glyph-name="Sacute" unicode="&#x15a;" horiz-adv-x="545" d="M33 112 Q72 64 118 42 Q164 20 221 20 Q265 20 304 32 Q343 44 372.5 68 Q402 92 419.5 127.5 Q437 163 437 209 Q437 260 403.5 293.5 Q370 327 288 356 Q239 372 204.5 389 Q170 406 147.5 425.5 Q125 445 114.5 468.5 Q104 492 104 523 Q104 573 122.5 612 Q141 651 173.5 677.5 Q206 704 250 718 Q294 732 345 732 Q412 732 458 707.5 Q504 683 536 628 L508 607 Q494 633 474.5 651 Q455 669 433 680 Q411 691 387 695.5 Q363 700 340 700 Q299 700 263 689 Q227 678 199.5 657 Q172 636 156 604.5 Q140 573 140 532 Q140 501 151.5 479.5 Q163 458 185 441.5 Q207 425 238 412 Q269 399 307 386 Q398 354 435.5 315.5 Q473 277 473 217 Q473 165 453 122.5 Q433 80 398.5 50 Q364 20 316.5 4 Q269 -12 215 -12 Q145 -12 92 17.5 Q39 47 7 89 L33 112 Z M453 871 L464 841 L289 759 L281 781 L453 871 Z " />
<glyph glyph-name="sacute" unicode="&#x15b;" horiz-adv-x="438" d="M15 87 Q45 53 83 34.5 Q121 16 167 16 Q200 16 231 25 Q262 34 285 51.5 Q308 69 322 93.5 Q336 118 336 149 Q336 186 307 212 Q278 238 207 258 Q131 279 99.5 306.5 Q68 334 68 378 Q68 414 82 443.5 Q96 473 121 493 Q146 513 181 524 Q216 535 257 535 Q311 535 348.5 517 Q386 499 413 459 L388 439 Q363 477 326.5 492 Q290 507 252 507 Q184 507 142.5 475 Q101 443 101 385 Q101 364 109.5 348.5 Q118 333 134 321.5 Q150 310 173.5 301.5 Q197 293 228 284 Q303 263 336 233 Q369 203 369 156 Q369 119 353.5 88 Q338 57 310 35 Q282 13 244.5 0.5 Q207 -12 163 -12 Q104 -12 59.5 10.5 Q15 33 -10 64 L15 87 Z M351 734 L370 708 L215 589 L202 608 L351 734 Z " />
<glyph glyph-name="Scircumflex" unicode="&#x15c;" horiz-adv-x="545" d="M33 112 Q72 64 118 42 Q164 20 221 20 Q265 20 304 32 Q343 44 372.5 68 Q402 92 419.5 127.5 Q437 163 437 209 Q437 260 403.5 293.5 Q370 327 288 356 Q239 372 204.5 389 Q170 406 147.5 425.5 Q125 445 114.5 468.5 Q104 492 104 523 Q104 573 122.5 612 Q141 651 173.5 677.5 Q206 704 250 718 Q294 732 345 732 Q412 732 458 707.5 Q504 683 536 628 L508 607 Q494 633 474.5 651 Q455 669 433 680 Q411 691 387 695.5 Q363 700 340 700 Q299 700 263 689 Q227 678 199.5 657 Q172 636 156 604.5 Q140 573 140 532 Q140 501 151.5 479.5 Q163 458 185 441.5 Q207 425 238 412 Q269 399 307 386 Q398 354 435.5 315.5 Q473 277 473 217 Q473 165 453 122.5 Q433 80 398.5 50 Q364 20 316.5 4 Q269 -12 215 -12 Q145 -12 92 17.5 Q39 47 7 89 L33 112 Z M452 777 L433 761 L361 832 L261 760 L248 777 L354 864 L377 864 L452 777 Z " />
<glyph glyph-name="scircumflex" unicode="&#x15d;" horiz-adv-x="438" d="M15 87 Q45 53 83 34.5 Q121 16 167 16 Q200 16 231 25 Q262 34 285 51.5 Q308 69 322 93.5 Q336 118 336 149 Q336 186 307 212 Q278 238 207 258 Q131 279 99.5 306.5 Q68 334 68 378 Q68 414 82 443.5 Q96 473 121 493 Q146 513 181 524 Q216 535 257 535 Q311 535 348.5 517 Q386 499 413 459 L388 439 Q363 477 326.5 492 Q290 507 252 507 Q184 507 142.5 475 Q101 443 101 385 Q101 364 109.5 348.5 Q118 333 134 321.5 Q150 310 173.5 301.5 Q197 293 228 284 Q303 263 336 233 Q369 203 369 156 Q369 119 353.5 88 Q338 57 310 35 Q282 13 244.5 0.5 Q207 -12 163 -12 Q104 -12 59.5 10.5 Q15 33 -10 64 L15 87 Z M299 750 L375 600 L351 585 L278 714 L162 586 L143 600 L269 750 L299 750 Z " />
<glyph glyph-name="Scedilla" unicode="&#x15e;" horiz-adv-x="545" d="M139 -158 Q152 -164 166.5 -168 Q181 -172 199 -172 Q209 -172 220.5 -170 Q232 -168 241.5 -163 Q251 -158 257.5 -148 Q264 -138 264 -121 Q264 -100 247 -91.5 Q230 -83 198 -83 L191 -83 L218 -12 L215 -12 Q145 -12 92 17.5 Q39 47 7 89 L33 112 Q72 64 118 42 Q164 20 221 20 Q265 20 304 32 Q343 44 372.5 68 Q402 92 419.5 127.5 Q437 163 437 209 Q437 260 403.5 293.5 Q370 327 288 356 Q239 372 204.5 389 Q170 406 147.5 425.5 Q125 445 114.5 468.5 Q104 492 104 523 Q104 573 122.5 612 Q141 651 173.5 677.5 Q206 704 250 718 Q294 732 345 732 Q412 732 458 707.5 Q504 683 536 628 L508 607 Q494 633 474.5 651 Q455 669 433 680 Q411 691 387 695.5 Q363 700 340 700 Q299 700 263 689 Q227 678 200 657 Q173 636 157 605 Q141 574 141 533 Q141 502 153 480.5 Q165 459 187 442.5 Q209 426 239.5 413 Q270 400 307 387 Q352 370 383.5 353 Q415 336 435 315.5 Q455 295 464 270.5 Q473 246 473 216 Q473 167 455.5 127 Q438 87 407 58 Q376 29 333.5 11 Q291 -7 242 -11 L225 -61 Q237 -62 249 -64.5 Q261 -67 271 -73 Q281 -79 287.5 -89 Q294 -99 294 -114 Q294 -137 286 -153 Q278 -169 264.5 -179 Q251 -189 233 -193.5 Q215 -198 195 -198 Q173 -198 153.5 -192.5 Q134 -187 128 -182 L139 -158 Z " />
<glyph glyph-name="scedilla" unicode="&#x15f;" horiz-adv-x="438" d="M68 -158 Q81 -164 95 -168 Q109 -172 128 -172 Q138 -172 149.5 -170 Q161 -168 170.5 -163 Q180 -158 186.5 -148 Q193 -138 193 -121 Q193 -100 176 -91.5 Q159 -83 127 -83 L120 -83 L147 -11 Q95 -8 54 13.5 Q13 35 -10 64 L15 87 Q45 53 83 34.5 Q121 16 167 16 Q200 16 231 25 Q262 34 285 51.5 Q308 69 322 93.5 Q336 118 336 149 Q336 187 306.5 212.5 Q277 238 207 258 Q131 280 100 307 Q69 334 69 378 Q69 414 83 443.5 Q97 473 122 493 Q147 513 181.5 524 Q216 535 257 535 Q311 535 348.5 517 Q386 499 413 459 L388 439 Q363 477 326.5 492 Q290 507 252 507 Q184 507 143 475 Q102 443 102 386 Q102 365 110.5 349.5 Q119 334 135 322.5 Q151 311 174.5 302 Q198 293 228 284 Q303 262 336 232.5 Q369 203 369 156 Q369 120 354 89.5 Q339 59 312.5 37 Q286 15 250 2 Q214 -11 171 -12 L154 -61 Q166 -62 178 -64.5 Q190 -67 200 -73 Q210 -79 216.5 -89 Q223 -99 223 -114 Q223 -137 215 -153 Q207 -169 193.5 -179 Q180 -189 162 -193.5 Q144 -198 124 -198 Q101 -198 82 -192.5 Q63 -187 57 -182 L68 -158 Z " />
<glyph glyph-name="Scaron" unicode="&#x160;" horiz-adv-x="545" d="M33 112 Q72 64 118 42 Q164 20 221 20 Q265 20 304 32 Q343 44 372.5 68 Q402 92 419.5 127.5 Q437 163 437 209 Q437 260 403.5 293.5 Q370 327 288 356 Q239 372 204.5 389 Q170 406 147.5 425.5 Q125 445 114.5 468.5 Q104 492 104 523 Q104 573 122.5 612 Q141 651 173.5 677.5 Q206 704 250 718 Q294 732 345 732 Q412 732 458 707.5 Q504 683 536 628 L508 607 Q494 633 474.5 651 Q455 669 433 680 Q411 691 387 695.5 Q363 700 340 700 Q299 700 263 689 Q227 678 199.5 657 Q172 636 156 604.5 Q140 573 140 532 Q140 501 151.5 479.5 Q163 458 185 441.5 Q207 425 238 412 Q269 399 307 386 Q398 354 435.5 315.5 Q473 277 473 217 Q473 165 453 122.5 Q433 80 398.5 50 Q364 20 316.5 4 Q269 -12 215 -12 Q145 -12 92 17.5 Q39 47 7 89 L33 112 Z M366 768 L343 768 L266 855 L286 872 L360 800 L457 871 L470 855 L366 768 Z " />
<glyph glyph-name="scaron" unicode="&#x161;" horiz-adv-x="438" d="M15 87 Q45 53 83 34.5 Q121 16 167 16 Q200 16 231 25 Q262 34 285 51.5 Q308 69 322 93.5 Q336 118 336 149 Q336 186 307 212 Q278 238 207 258 Q131 279 99.5 306.5 Q68 334 68 378 Q68 414 82 443.5 Q96 473 121 493 Q146 513 181 524 Q216 535 257 535 Q311 535 348.5 517 Q386 499 413 459 L388 439 Q363 477 326.5 492 Q290 507 252 507 Q184 507 142.5 475 Q101 443 101 385 Q101 364 109.5 348.5 Q118 333 134 321.5 Q150 310 173.5 301.5 Q197 293 228 284 Q303 263 336 233 Q369 203 369 156 Q369 119 353.5 88 Q338 57 310 35 Q282 13 244.5 0.5 Q207 -12 163 -12 Q104 -12 59.5 10.5 Q15 33 -10 64 L15 87 Z M242 594 L168 744 L191 758 L264 630 L381 759 L400 744 L272 594 L242 594 Z " />
<glyph glyph-name="Scommaaccent" unicode="&#x218;" horiz-adv-x="545" d="M33 112 Q72 64 118 42 Q164 20 221 20 Q265 20 304 32 Q343 44 372.5 68 Q402 92 419.5 127.5 Q437 163 437 209 Q437 260 403.5 293.5 Q370 327 288 356 Q239 372 204.5 389 Q170 406 147.5 425.5 Q125 445 114.5 468.5 Q104 492 104 523 Q104 573 122.5 612 Q141 651 173.5 677.5 Q206 704 250 718 Q294 732 345 732 Q412 732 458 707.5 Q504 683 536 628 L508 607 Q494 633 474.5 651 Q455 669 433 680 Q411 691 387 695.5 Q363 700 340 700 Q299 700 263 689 Q227 678 199.5 657 Q172 636 156 604.5 Q140 573 140 532 Q140 501 151.5 479.5 Q163 458 185 441.5 Q207 425 238 412 Q269 399 307 386 Q398 354 435.5 315.5 Q473 277 473 217 Q473 165 453 122.5 Q433 80 398.5 50 Q364 20 316.5 4 Q269 -12 215 -12 Q145 -12 92 17.5 Q39 47 7 89 L33 112 Z M216 -60 L253 -68 L175 -218 L151 -210 L216 -60 Z " />
<glyph glyph-name="scommaaccent" unicode="&#x219;" horiz-adv-x="438" d="M15 87 Q45 53 83 34.5 Q121 16 167 16 Q200 16 231 25 Q262 34 285 51.5 Q308 69 322 93.5 Q336 118 336 149 Q336 186 307 212 Q278 238 207 258 Q131 279 99.5 306.5 Q68 334 68 378 Q68 414 82 443.5 Q96 473 121 493 Q146 513 181 524 Q216 535 257 535 Q311 535 348.5 517 Q386 499 413 459 L388 439 Q363 477 326.5 492 Q290 507 252 507 Q184 507 142.5 475 Q101 443 101 385 Q101 364 109.5 348.5 Q118 333 134 321.5 Q150 310 173.5 301.5 Q197 293 228 284 Q303 263 336 233 Q369 203 369 156 Q369 119 353.5 88 Q338 57 310 35 Q282 13 244.5 0.5 Q207 -12 163 -12 Q104 -12 59.5 10.5 Q15 33 -10 64 L15 87 Z M166 -60 L203 -68 L125 -218 L101 -210 L166 -60 Z " />
<glyph glyph-name="uni021A" unicode="&#x21a;" horiz-adv-x="530" d="M310 690 L81 690 L86 720 L576 720 L571 690 L343 690 L228 0 L195 0 L310 690 Z M187 -60 L224 -68 L146 -218 L122 -210 L187 -60 Z " />
<glyph glyph-name="uni021B" unicode="&#x21b;" horiz-adv-x="242" d="M152 495 L81 70 Q76 38 87 27.5 Q98 17 116 17 Q130 17 147 20.5 Q164 24 178 30 L182 5 Q168 -2 146 -7 Q124 -12 104 -12 Q90 -12 78.5 -8.5 Q67 -5 59.5 3 Q52 11 49 25 Q46 39 49 59 L122 495 L61 495 L64 515 L127 523 L157 656 L179 656 L157 523 L240 523 L235 495 L152 495 Z M83 -60 L120 -68 L42 -218 L18 -210 L83 -60 Z " />
<glyph glyph-name="Tcaron" unicode="&#x164;" horiz-adv-x="530" d="M310 690 L81 690 L86 720 L576 720 L571 690 L343 690 L228 0 L195 0 L310 690 Z M352 768 L329 768 L252 855 L272 872 L346 800 L443 871 L456 855 L352 768 Z " />
<glyph glyph-name="tcaron" unicode="&#x165;" horiz-adv-x="242" d="M152 495 L81 70 Q76 38 87 27.5 Q98 17 116 17 Q130 17 147 20.5 Q164 24 178 30 L182 5 Q168 -2 146 -7 Q124 -12 104 -12 Q90 -12 78.5 -8.5 Q67 -5 59.5 3 Q52 11 49 25 Q46 39 49 59 L122 495 L61 495 L64 515 L127 523 L157 656 L179 656 L157 523 L240 523 L235 495 L152 495 Z M297 752 L337 752 L259 576 L230 576 L297 752 Z " />
<glyph glyph-name="Tbar" unicode="&#x166;" horiz-adv-x="530" d="M138 403 L262 403 L310 690 L81 690 L86 720 L576 720 L571 690 L343 690 L295 403 L436 403 L432 375 L291 375 L228 0 L195 0 L258 375 L134 375 L138 403 Z " />
<glyph glyph-name="tbar" unicode="&#x167;" horiz-adv-x="242" d="M152 495 L125 336 L222 336 L218 308 L121 308 L81 70 Q76 38 87 27.5 Q98 17 116 17 Q130 17 147 20.5 Q164 24 178 30 L182 5 Q168 -2 146 -7 Q124 -12 104 -12 Q90 -12 78.5 -8.5 Q67 -5 59.5 3 Q52 11 49 25 Q46 39 49 59 L91 308 L41 308 L45 336 L95 336 L122 495 L61 495 L64 515 L127 523 L157 656 L179 656 L157 523 L240 523 L235 495 L152 495 Z " />
<glyph glyph-name="uni0162" unicode="&#x162;" horiz-adv-x="530" d="M310 690 L81 690 L86 720 L576 720 L571 690 L343 690 L228 0 L222 0 L199 -61 Q211 -62 223 -64.5 Q235 -67 245 -73 Q255 -79 261.5 -89 Q268 -99 268 -114 Q268 -137 260 -153 Q252 -169 238.5 -179 Q225 -189 207 -193.5 Q189 -198 169 -198 Q147 -198 128 -192.5 Q109 -187 102 -182 L114 -158 Q127 -164 141 -168 Q155 -172 173 -172 Q183 -172 195 -170 Q207 -168 216.5 -163 Q226 -158 232.5 -148 Q239 -138 239 -121 Q239 -100 222 -91.5 Q205 -83 173 -83 L166 -83 L198 0 L195 0 L310 690 Z " />
<glyph glyph-name="uni0163" unicode="&#x163;" horiz-adv-x="242" d="M5 -158 Q17 -164 31.5 -168 Q46 -172 64 -172 Q74 -172 86 -170 Q98 -168 107.5 -163 Q117 -158 123.5 -148 Q130 -138 130 -121 Q130 -100 113 -91.5 Q96 -83 64 -83 L57 -83 L84 -10 Q64 -6 54 10 Q44 26 49 59 L122 495 L61 495 L64 515 L127 523 L157 656 L179 656 L157 523 L240 523 L235 495 L152 495 L81 70 Q76 38 87 27.5 Q98 17 116 17 Q130 17 147 20.5 Q164 24 178 30 L182 5 Q168 -1 148 -6 Q128 -11 108 -12 L90 -61 Q102 -62 114 -64.5 Q126 -67 136 -73 Q146 -79 152.5 -89 Q159 -99 159 -114 Q159 -137 151 -153 Q143 -169 129.5 -179 Q116 -189 98 -193.5 Q80 -198 60 -198 Q38 -198 19 -192.5 Q0 -187 -7 -182 L5 -158 Z " />
<glyph glyph-name="Utilde" unicode="&#x168;" horiz-adv-x="667" d="M190 720 L116 274 Q94 144 141.5 80.5 Q189 17 295 17 Q352 17 394 32 Q436 47 465.5 78.5 Q495 110 513.5 158.5 Q532 207 543 274 L617 720 L649 720 L572 256 Q560 184 537.5 133 Q515 82 480.5 50 Q446 18 399 3 Q352 -12 292 -12 Q237 -12 192.5 4.5 Q148 21 119.5 54.5 Q91 88 80.5 139.5 Q70 191 82 262 L158 720 L190 720 Z M552 840 Q535 808 516 797.5 Q497 787 477 787 Q460 787 444.5 792.5 Q429 798 415 804.5 Q401 811 388.5 816.5 Q376 822 365 822 Q354 822 342.5 815 Q331 808 314 785 L294 796 Q314 828 332.5 839 Q351 850 371 850 Q386 850 399.5 844.5 Q413 839 426 832.5 Q439 826 452.5 820.5 Q466 815 481 815 Q496 815 507 822 Q518 829 531 850 L552 840 Z " />
<glyph glyph-name="utilde" unicode="&#x169;" horiz-adv-x="509" d="M351 0 L366 87 Q352 72 332 54.5 Q312 37 287 22.5 Q262 8 233.5 -2 Q205 -12 174 -12 Q125 -12 98 4 Q71 20 59 46.5 Q47 73 47 107.5 Q47 142 53 178 L111 523 L142 523 L84 181 Q71 101 90.5 59 Q110 17 179 17 Q209 17 236 27 Q263 37 287 52.5 Q311 68 332.5 88 Q354 108 372 128 L439 523 L469 523 L381 0 L351 0 Z M443 671 Q427 639 407.5 628.5 Q388 618 368 618 Q351 618 335.5 623.5 Q320 629 306 635.5 Q292 642 279.5 647.5 Q267 653 256 653 Q245 653 234 646 Q223 639 206 616 L186 627 Q206 659 224.5 670 Q243 681 263 681 Q278 681 291.5 675.5 Q305 670 318 663.5 Q331 657 344.5 651.5 Q358 646 373 646 Q388 646 398.5 653 Q409 660 423 681 L443 671 Z " />
<glyph glyph-name="Umacron" unicode="&#x16a;" horiz-adv-x="667" d="M190 720 L116 274 Q94 144 141.5 80.5 Q189 17 295 17 Q352 17 394 32 Q436 47 465.5 78.5 Q495 110 513.5 158.5 Q532 207 543 274 L617 720 L649 720 L572 256 Q560 184 537.5 133 Q515 82 480.5 50 Q446 18 399 3 Q352 -12 292 -12 Q237 -12 192.5 4.5 Q148 21 119.5 54.5 Q91 88 80.5 139.5 Q70 191 82 262 L158 720 L190 720 Z M303 824 L562 824 L557 796 L298 796 L303 824 Z " />
<glyph glyph-name="umacron" unicode="&#x16b;" horiz-adv-x="509" d="M351 0 L366 87 Q352 72 332 54.5 Q312 37 287 22.5 Q262 8 233.5 -2 Q205 -12 174 -12 Q125 -12 98 4 Q71 20 59 46.5 Q47 73 47 107.5 Q47 142 53 178 L111 523 L142 523 L84 181 Q71 101 90.5 59 Q110 17 179 17 Q209 17 236 27 Q263 37 287 52.5 Q311 68 332.5 88 Q354 108 372 128 L439 523 L469 523 L381 0 L351 0 Z M177 662 L436 662 L431 634 L172 634 L177 662 Z " />
<glyph glyph-name="Ubreve" unicode="&#x16c;" horiz-adv-x="667" d="M190 720 L116 274 Q94 144 141.5 80.5 Q189 17 295 17 Q352 17 394 32 Q436 47 465.5 78.5 Q495 110 513.5 158.5 Q532 207 543 274 L617 720 L649 720 L572 256 Q560 184 537.5 133 Q515 82 480.5 50 Q446 18 399 3 Q352 -12 292 -12 Q237 -12 192.5 4.5 Q148 21 119.5 54.5 Q91 88 80.5 139.5 Q70 191 82 262 L158 720 L190 720 Z M415 800 Q470 800 496 821.5 Q522 843 536 890 L561 885 Q546 825 509 798.5 Q472 772 410 772 Q350 772 324.5 795.5 Q299 819 297 883 L326 890 Q327 867 331 850 Q335 833 345 822 Q355 811 372 805.5 Q389 800 415 800 Z " />
<glyph glyph-name="ubreve" unicode="&#x16d;" horiz-adv-x="509" d="M351 0 L366 87 Q352 72 332 54.5 Q312 37 287 22.5 Q262 8 233.5 -2 Q205 -12 174 -12 Q125 -12 98 4 Q71 20 59 46.5 Q47 73 47 107.5 Q47 142 53 178 L111 523 L142 523 L84 181 Q71 101 90.5 59 Q110 17 179 17 Q209 17 236 27 Q263 37 287 52.5 Q311 68 332.5 88 Q354 108 372 128 L439 523 L469 523 L381 0 L351 0 Z M304 626 Q359 626 384.5 651 Q410 676 424 725 L449 720 Q434 657 397.5 627.5 Q361 598 299 598 Q239 598 212.5 625.5 Q186 653 187 719 L214 726 Q213 675 233 650.5 Q253 626 304 626 Z " />
<glyph glyph-name="Uring" unicode="&#x16e;" horiz-adv-x="667" d="M190 720 L116 274 Q94 144 141.5 80.5 Q189 17 295 17 Q352 17 394 32 Q436 47 465.5 78.5 Q495 110 513.5 158.5 Q532 207 543 274 L617 720 L649 720 L572 256 Q560 184 537.5 133 Q515 82 480.5 50 Q446 18 399 3 Q352 -12 292 -12 Q237 -12 192.5 4.5 Q148 21 119.5 54.5 Q91 88 80.5 139.5 Q70 191 82 262 L158 720 L190 720 Z M355 813 Q355 791 368 780 Q381 769 402 769 Q433 769 449.5 788 Q466 807 466 836 Q466 879 420 879 Q392 879 373.5 860.5 Q355 842 355 813 Z M325 810 Q325 830 333 848 Q341 866 355 879.5 Q369 893 387 900.5 Q405 908 425 908 Q457 908 477 888.5 Q497 869 497 838 Q497 817 489 799.5 Q481 782 467.5 769 Q454 756 436 749 Q418 742 397 742 Q365 742 345 760 Q325 778 325 810 Z " />
<glyph glyph-name="uring" unicode="&#x16f;" horiz-adv-x="509" d="M351 0 L366 87 Q352 72 332 54.5 Q312 37 287 22.5 Q262 8 233.5 -2 Q205 -12 174 -12 Q125 -12 98 4 Q71 20 59 46.5 Q47 73 47 107.5 Q47 142 53 178 L111 523 L142 523 L84 181 Q71 101 90.5 59 Q110 17 179 17 Q209 17 236 27 Q263 37 287 52.5 Q311 68 332.5 88 Q354 108 372 128 L439 523 L469 523 L381 0 L351 0 Z M247 649 Q247 627 260 616 Q273 605 294 605 Q325 605 342 624 Q359 643 359 672 Q359 715 313 715 Q284 715 265.5 696.5 Q247 678 247 649 Z M218 646 Q218 666 226 684 Q234 702 247.5 715.5 Q261 729 279.5 736.5 Q298 744 318 744 Q350 744 369.5 724.5 Q389 705 389 674 Q389 653 381.5 635.5 Q374 618 360.5 605 Q347 592 329 585 Q311 578 290 578 Q258 578 238 596 Q218 614 218 646 Z " />
<glyph glyph-name="Uhungarumlaut" unicode="&#x170;" horiz-adv-x="667" d="M190 720 L116 274 Q94 144 141.5 80.5 Q189 17 295 17 Q352 17 394 32 Q436 47 465.5 78.5 Q495 110 513.5 158.5 Q532 207 543 274 L617 720 L649 720 L572 256 Q560 184 537.5 133 Q515 82 480.5 50 Q446 18 399 3 Q352 -12 292 -12 Q237 -12 192.5 4.5 Q148 21 119.5 54.5 Q91 88 80.5 139.5 Q70 191 82 262 L158 720 L190 720 Z M475 885 L328 758 L312 775 L454 909 L475 885 Z M573 872 L436 758 L419 776 L550 896 L573 872 Z " />
<glyph glyph-name="uhungarumlaut" unicode="&#x171;" horiz-adv-x="509" d="M351 0 L366 87 Q352 72 332 54.5 Q312 37 287 22.5 Q262 8 233.5 -2 Q205 -12 174 -12 Q125 -12 98 4 Q71 20 59 46.5 Q47 73 47 107.5 Q47 142 53 178 L111 523 L142 523 L84 181 Q71 101 90.5 59 Q110 17 179 17 Q209 17 236 27 Q263 37 287 52.5 Q311 68 332.5 88 Q354 108 372 128 L439 523 L469 523 L381 0 L351 0 Z M368 714 L221 587 L206 604 L346 737 L368 714 Z M465 701 L328 587 L314 604 L444 725 L465 701 Z " />
<glyph glyph-name="Uogonek" unicode="&#x172;" horiz-adv-x="667" d="M190 720 L116 274 Q94 144 141 81.5 Q188 19 291 19 Q349 19 392 36 Q435 53 465 85.5 Q495 118 514 165.5 Q533 213 543 274 L617 720 L649 720 L573 262 Q565 213 552.5 176 Q540 139 521 109 Q502 79 474.5 55 Q447 31 409 8 Q385 -7 362 -26 Q339 -45 320.5 -66 Q302 -87 290.5 -108.5 Q279 -130 279 -149 Q279 -185 320 -185 Q337 -185 353.5 -178.5 Q370 -172 386 -163 L395 -186 Q379 -197 356.5 -205 Q334 -213 311 -213 Q280 -213 263 -198 Q246 -183 246 -156 Q246 -135 254.5 -115 Q263 -95 277 -76.5 Q291 -58 309.5 -40.5 Q328 -23 348 -6 Q315 -12 282 -12 Q228 -12 185.5 4.5 Q143 21 116 54.5 Q89 88 79.5 139.5 Q70 191 82 262 L158 720 L190 720 Z " />
<glyph glyph-name="uogonek" unicode="&#x173;" horiz-adv-x="509" d="M381 0 Q358 -17 337 -35.5 Q316 -54 300 -72.5 Q284 -91 274.5 -110 Q265 -129 265 -148 Q265 -167 276 -176 Q287 -185 306 -185 Q323 -185 339.5 -178.5 Q356 -172 372 -163 L381 -186 Q366 -197 343 -205 Q320 -213 297 -213 Q266 -213 249 -198 Q232 -183 232 -156 Q232 -132 242.5 -110 Q253 -88 269.5 -67.5 Q286 -47 307.5 -28.5 Q329 -10 352 7 L366 87 Q352 72 332 54.5 Q312 37 287 22.5 Q262 8 233.5 -2 Q205 -12 174 -12 Q125 -12 98 4 Q71 20 59 46.5 Q47 73 47 107.5 Q47 142 53 178 L111 523 L142 523 L84 181 Q71 101 90.5 59 Q110 17 179 17 Q209 17 236 27 Q263 37 287 52.5 Q311 68 332.5 88 Q354 108 372 128 L439 523 L469 523 L381 0 L381 0 Z " />
<glyph glyph-name="Wcircumflex" unicode="&#x174;" horiz-adv-x="896" d="M94 720 L127 720 L199 40 L499 720 L539 720 L612 40 L909 720 L942 720 L630 0 L583 0 L512 678 L213 0 L167 0 L94 720 Z M624 777 L605 761 L533 832 L433 760 L420 777 L526 864 L549 864 L624 777 Z " />
<glyph glyph-name="wcircumflex" unicode="&#x175;" horiz-adv-x="668" d="M677 523 L467 0 L435 0 L360 471 L132 0 L100 0 L67 523 L98 523 L127 46 L351 516 L383 516 L457 46 L645 523 L677 523 Z M412 750 L488 600 L464 585 L391 714 L275 586 L256 600 L382 750 L412 750 Z " />
<glyph glyph-name="Wgrave" unicode="&#x1e80;" horiz-adv-x="896" d="M94 720 L127 720 L199 40 L499 720 L539 720 L612 40 L909 720 L942 720 L630 0 L583 0 L512 678 L213 0 L167 0 L94 720 Z M611 778 L596 759 L449 841 L469 868 L611 778 Z " />
<glyph glyph-name="wgrave" unicode="&#x1e81;" horiz-adv-x="668" d="M677 523 L467 0 L435 0 L360 471 L132 0 L100 0 L67 523 L98 523 L127 46 L351 516 L383 516 L457 46 L645 523 L677 523 Z M446 608 L425 589 L310 709 L337 735 L446 608 Z " />
<glyph glyph-name="Wacute" unicode="&#x1e82;" horiz-adv-x="896" d="M94 720 L127 720 L199 40 L499 720 L539 720 L612 40 L909 720 L942 720 L630 0 L583 0 L512 678 L213 0 L167 0 L94 720 Z M611 871 L622 841 L447 759 L439 781 L611 871 Z " />
<glyph glyph-name="wacute" unicode="&#x1e83;" horiz-adv-x="668" d="M677 523 L467 0 L435 0 L360 471 L132 0 L100 0 L67 523 L98 523 L127 46 L351 516 L383 516 L457 46 L645 523 L677 523 Z M452 734 L471 708 L316 589 L303 608 L452 734 Z " />
<glyph glyph-name="Wdieresis" unicode="&#x1e84;" horiz-adv-x="896" d="M94 720 L127 720 L199 40 L499 720 L539 720 L612 40 L909 720 L942 720 L630 0 L583 0 L512 678 L213 0 L167 0 L94 720 Z M585 809 Q585 823 595.5 832.5 Q606 842 620 842 Q630 842 636 835 Q642 828 642 817 Q642 803 632.5 793.5 Q623 784 610 784 Q599 784 592 791 Q585 798 585 809 Z M421 809 Q421 823 431 832.5 Q441 842 455 842 Q465 842 471 835 Q477 828 477 817 Q477 803 467.5 793.5 Q458 784 445 784 Q434 784 427.5 791 Q421 798 421 809 Z " />
<glyph glyph-name="wdieresis" unicode="&#x1e85;" horiz-adv-x="668" d="M677 523 L467 0 L435 0 L360 471 L132 0 L100 0 L67 523 L98 523 L127 46 L351 516 L383 516 L457 46 L645 523 L677 523 Z M452 668 Q452 682 462.5 691.5 Q473 701 487 701 Q497 701 503.5 694 Q510 687 510 676 Q510 662 500 652.5 Q490 643 477 643 Q466 643 459 650 Q452 657 452 668 Z M288 668 Q288 682 298 691.5 Q308 701 322 701 Q332 701 338.5 694 Q345 687 345 676 Q345 662 335 652.5 Q325 643 312 643 Q301 643 294.5 650 Q288 657 288 668 Z " />
<glyph glyph-name="Ygrave" unicode="&#x1ef2;" horiz-adv-x="521" d="M247 318 L94 720 L130 720 L268 353 L528 720 L567 720 L280 318 L227 0 L194 0 L247 318 Z M413 778 L398 759 L251 841 L271 868 L413 778 Z " />
<glyph glyph-name="ygrave" unicode="&#x1ef3;" horiz-adv-x="427" d="M71 -172 Q100 -172 111 -159 Q122 -146 127 -117 L147 0 L53 523 L88 523 L169 46 L414 523 L450 523 L177 0 L156 -126 Q143 -200 78 -200 L8 -200 L12 -172 L71 -172 Z M327 608 L306 589 L191 709 L218 735 L327 608 Z " />
<glyph glyph-name="Ycircumflex" unicode="&#x176;" horiz-adv-x="521" d="M247 318 L94 720 L130 720 L268 353 L528 720 L567 720 L280 318 L227 0 L194 0 L247 318 Z M426 777 L407 761 L335 832 L235 760 L222 777 L328 864 L351 864 L426 777 Z " />
<glyph glyph-name="ycircumflex" unicode="&#x177;" horiz-adv-x="427" d="M71 -172 Q100 -172 111 -159 Q122 -146 127 -117 L147 0 L53 523 L88 523 L169 46 L414 523 L450 523 L177 0 L156 -126 Q143 -200 78 -200 L8 -200 L12 -172 L71 -172 Z M294 750 L370 600 L346 585 L273 714 L157 586 L138 600 L264 750 L294 750 Z " />
<glyph glyph-name="Ydieresis" unicode="&#x178;" horiz-adv-x="521" d="M247 318 L94 720 L130 720 L268 353 L528 720 L567 720 L280 318 L227 0 L194 0 L247 318 Z M391 809 Q391 823 401.5 832.5 Q412 842 426 842 Q436 842 442 835 Q448 828 448 817 Q448 803 438.5 793.5 Q429 784 416 784 Q405 784 398 791 Q391 798 391 809 Z M227 809 Q227 823 237 832.5 Q247 842 261 842 Q271 842 277 835 Q283 828 283 817 Q283 803 273.5 793.5 Q264 784 251 784 Q240 784 233.5 791 Q227 798 227 809 Z " />
<glyph glyph-name="Zacute" unicode="&#x179;" horiz-adv-x="548" d="M-3 25 L526 690 L141 690 L146 720 L579 720 L576 702 L39 29 L463 29 L458 0 L-7 0 L-3 25 Z M473 871 L484 841 L309 759 L301 781 L473 871 Z " />
<glyph glyph-name="zacute" unicode="&#x17a;" horiz-adv-x="400" d="M-12 24 L363 494 L75 494 L80 523 L409 523 L405 500 L29 29 L323 29 L318 0 L-16 0 L-12 24 Z M339 734 L358 708 L203 589 L190 608 L339 734 Z " />
<glyph glyph-name="Zdotaccent" unicode="&#x17b;" horiz-adv-x="548" d="M-3 25 L526 690 L141 690 L146 720 L579 720 L576 702 L39 29 L463 29 L458 0 L-7 0 L-3 25 Z M341 814 Q341 828 352 837.5 Q363 847 377 847 Q387 847 393 840 Q399 833 399 822 Q399 808 389.5 798.5 Q380 789 367 789 Q356 789 348.5 796 Q341 803 341 814 Z " />
<glyph glyph-name="zdotaccent" unicode="&#x17c;" horiz-adv-x="400" d="M-12 24 L363 494 L75 494 L80 523 L409 523 L405 500 L29 29 L323 29 L318 0 L-16 0 L-12 24 Z M232 667 Q232 681 242.5 690.5 Q253 700 267 700 Q277 700 283.5 693 Q290 686 290 675 Q290 661 280 651.5 Q270 642 257 642 Q246 642 239 649 Q232 656 232 667 Z " />
<glyph glyph-name="Zcaron" unicode="&#x17d;" horiz-adv-x="548" d="M-3 25 L526 690 L141 690 L146 720 L579 720 L576 702 L39 29 L463 29 L458 0 L-7 0 L-3 25 Z M373 768 L350 768 L273 855 L293 872 L367 800 L464 871 L477 855 L373 768 Z " />
<glyph glyph-name="zcaron" unicode="&#x17e;" horiz-adv-x="400" d="M-12 24 L363 494 L75 494 L80 523 L409 523 L405 500 L29 29 L323 29 L318 0 L-16 0 L-12 24 Z M243 594 L169 744 L192 758 L265 630 L382 759 L401 744 L273 594 L243 594 Z " />
<glyph glyph-name="longs" unicode="&#x17f;" horiz-adv-x="225" d="M123 494 L67 494 L70 514 L127 522 L143 614 Q147 636 155 657.5 Q163 679 176.5 695.5 Q190 712 209.5 722 Q229 732 256 732 Q267 732 280 730.5 Q293 729 306 725 L299 698 Q290 701 279 703 Q268 705 254 705 Q229 705 205.5 687 Q182 669 173 617 L70 0 L40 0 L123 494 Z " />
<glyph glyph-name="dotlessj" unicode="&#x237;" horiz-adv-x="215" d="M58 -91 Q53 -117 46.5 -137.5 Q40 -158 28 -172.5 Q16 -187 -2.5 -195 Q-21 -203 -48 -203 Q-61 -203 -75 -201 Q-89 -199 -102 -194 L-92 -169 Q-84 -172 -71 -174 Q-58 -176 -46 -176 Q-32 -176 -20.5 -172.5 Q-9 -169 0.5 -160 Q10 -151 16.5 -134.5 Q23 -118 28 -92 L131 523 L161 523 L58 -91 Z " />
<glyph glyph-name="ff" unicode="&#xfb00;" horiz-adv-x="470" d="M367 495 L153 495 L70 0 L40 0 L123 495 L67 495 L70 514 L127 522 L141 602 Q145 624 153 645.5 Q161 667 174.5 683.5 Q188 700 207.5 710 Q227 720 254 720 Q265 720 278 718.5 Q291 717 304 713 L297 686 Q288 689 277 691 Q266 693 252 693 Q227 693 203.5 675 Q180 657 171 605 L158 523 L372 523 L387 614 Q391 636 399 657.5 Q407 679 421 695.5 Q435 712 454.5 722 Q474 732 501 732 Q512 732 525 730.5 Q538 729 551 725 L544 698 Q535 701 524 703 Q513 705 499 705 Q474 705 450.5 687 Q427 669 418 617 L403 523 L492 523 L487 495 L398 495 L315 0 L284 0 L367 495 Z " />
<glyph glyph-name="fi" unicode="&#xfb01;" horiz-adv-x="455" d="M315 0 L284 0 L367 495 L153 495 L70 0 L40 0 L123 495 L67 495 L70 514 L127 522 L143 614 Q147 636 155 657.5 Q163 679 176.5 695.5 Q190 712 209.5 722 Q229 732 256 732 Q267 732 280 730.5 Q293 729 306 725 L299 698 Q290 701 279 703 Q268 705 254 705 Q229 705 205.5 687 Q182 669 173 617 L158 523 L403 523 L315 0 Z M383 667 Q383 681 393 690.5 Q403 700 417 700 Q428 700 434 693 Q440 686 440 676 Q440 662 430.5 652 Q421 642 407 642 Q396 642 389.5 649 Q383 656 383 667 Z " />
<glyph glyph-name="fl" unicode="&#xfb02;" horiz-adv-x="443" d="M284 0 L367 495 L153 495 L70 0 L40 0 L123 495 L67 495 L70 514 L127 522 L143 614 Q147 636 155 657.5 Q163 679 176.5 695.5 Q190 712 209.5 722 Q229 732 256 732 Q267 732 280 730.5 Q293 729 306 725 L299 698 Q290 701 279 703 Q268 705 254 705 Q229 705 205.5 687 Q182 669 173 617 L158 523 L372 523 L404 720 L435 720 L315 0 L284 0 Z " />
<glyph glyph-name="ffi" unicode="&#xfb03;" horiz-adv-x="700" d="M367 495 L153 495 L70 0 L40 0 L123 495 L67 495 L70 514 L127 522 L141 603 Q145 625 153 646.5 Q161 668 175 684.5 Q189 701 208.5 711 Q228 721 255 721 Q266 721 278.5 719.5 Q291 718 304 714 L297 687 Q278 694 252 694 Q227 694 203.5 676 Q180 658 171 606 L158 523 L372 523 L387 614 Q391 636 399 657.5 Q407 679 421 695.5 Q435 712 454.5 722 Q474 732 501 732 Q512 732 525 730.5 Q538 729 551 725 L544 698 Q535 701 524 703 Q513 705 499 705 Q474 705 450.5 687 Q427 669 418 617 L403 523 L647 523 L559 0 L529 0 L612 495 L398 495 L315 0 L284 0 L367 495 Z M628 667 Q628 681 638 690.5 Q648 700 662 700 Q672 700 678.5 693 Q685 686 685 675 Q685 661 675 651.5 Q665 642 652 642 Q641 642 634.5 649 Q628 656 628 667 Z " />
<glyph glyph-name="ffl" unicode="&#xfb04;" horiz-adv-x="687" d="M367 495 L153 495 L70 0 L40 0 L123 495 L67 495 L70 514 L127 522 L141 602 Q145 624 153 645.5 Q161 667 174.5 683.5 Q188 700 207.5 710 Q227 720 254 720 Q265 720 278 718.5 Q291 717 304 713 L297 686 Q288 689 277 691 Q266 693 252 693 Q227 693 203.5 675 Q180 657 171 605 L158 523 L372 523 L387 614 Q391 636 399 657.5 Q407 679 421 695.5 Q435 712 454.5 722 Q474 732 501 732 Q512 732 525 730.5 Q538 729 551 725 L544 698 Q535 701 524 703 Q513 705 499 705 Q474 705 450.5 687 Q427 669 418 617 L403 523 L617 523 L649 720 L679 720 L559 0 L529 0 L612 495 L398 495 L315 0 L284 0 L367 495 Z " />
<glyph glyph-name="ft" unicode="&#xf603;" horiz-adv-x="488" d="M398 495 L327 70 Q322 38 333 27.5 Q344 17 362 17 Q393 17 424 30 L428 5 Q414 -2 392 -7 Q370 -12 350 -12 Q336 -12 324.5 -8.5 Q313 -5 305 3 Q297 11 294 25 Q291 39 294 59 L367 495 L153 495 L70 0 L40 0 L123 495 L67 495 L70 514 L127 522 L143 614 Q147 636 155 657.5 Q163 679 176.5 695.5 Q190 712 209.5 722 Q229 732 256 732 Q267 732 280 730.5 Q293 729 306 725 L299 698 Q290 701 279 703 Q268 705 254 705 Q229 705 205.5 687 Q182 669 173 617 L158 523 L372 523 L402 656 L425 656 L403 523 L486 523 L481 495 L398 495 Z " />
<glyph glyph-name="circumflex" unicode="&#x2c6;" horiz-adv-x="488" d="M255 750 L331 600 L307 585 L234 714 L118 586 L99 600 L225 750 L255 750 Z " />
<glyph glyph-name="caron" unicode="&#x2c7;" horiz-adv-x="488" d="M199 594 L125 744 L148 758 L221 630 L338 759 L357 744 L229 594 L199 594 Z " />
<glyph glyph-name="uni02C9" unicode="&#x2c9;" horiz-adv-x="488" d="M74 662 L333 662 L328 634 L69 634 L74 662 Z " />
<glyph glyph-name="breve" unicode="&#x2d8;" horiz-adv-x="487" d="M219 626 Q274 626 299.5 651 Q325 676 339 725 L364 720 Q349 657 312.5 627.5 Q276 598 214 598 Q154 598 127.5 625.5 Q101 653 102 719 L129 726 Q128 675 148 650.5 Q168 626 219 626 Z " />
<glyph glyph-name="dieresis" unicode="&#xa8;" horiz-adv-x="488" d="M302 668 Q302 682 312.5 691.5 Q323 701 337 701 Q347 701 353.5 694 Q360 687 360 676 Q360 662 350 652.5 Q340 643 327 643 Q316 643 309 650 Q302 657 302 668 Z M138 668 Q138 682 148 691.5 Q158 701 172 701 Q182 701 188.5 694 Q195 687 195 676 Q195 662 185 652.5 Q175 643 162 643 Q151 643 144.5 650 Q138 657 138 668 Z " />
<glyph glyph-name="macron" unicode="&#xaf;" horiz-adv-x="487" d="M95 662 L354 662 L349 634 L90 634 L95 662 Z " />
<glyph glyph-name="degree" unicode="&#xb0;" horiz-adv-x="283" d="M82 655 Q82 620 105 596 Q128 572 161 572 Q196 572 218 596 Q240 620 240 655 Q240 689 218 711.5 Q196 734 161 734 Q127 734 104.5 711.5 Q82 689 82 655 Z M50 655 Q50 677 59 697 Q68 717 83 732 Q98 747 118 756 Q138 765 161 765 Q184 765 204 756 Q224 747 239 732 Q254 717 263 697 Q272 677 272 655 Q272 631 263.5 611 Q255 591 240 576 Q225 561 204.5 552.5 Q184 544 161 544 Q138 544 118 552.5 Q98 561 83 576 Q68 591 59 611.5 Q50 632 50 655 Z " />
<glyph glyph-name="acute" unicode="&#xb4;" horiz-adv-x="488" d="M292 734 L311 708 L156 589 L143 608 L292 734 Z " />
<glyph glyph-name="grave" unicode="&#x60;" horiz-adv-x="488" d="M295 608 L274 589 L159 709 L186 735 L295 608 Z " />
<glyph glyph-name="cedilla" unicode="&#xb8;" horiz-adv-x="488" d="M18 -158 Q30 -164 44.5 -168 Q59 -172 77 -172 Q87 -172 98.5 -170 Q110 -168 119.5 -163 Q129 -158 135.5 -148 Q142 -138 142 -121 Q142 -100 125 -91.5 Q108 -83 76 -83 L70 -83 L105 10 L129 10 L103 -61 Q115 -62 127 -64.5 Q139 -67 149 -73 Q159 -79 165.5 -89 Q172 -99 172 -114 Q172 -137 164 -153 Q156 -169 142.5 -179 Q129 -189 111 -193.5 Q93 -198 73 -198 Q51 -198 32 -192.5 Q13 -187 6 -182 L18 -158 Z " />
<glyph glyph-name="dotaccent" unicode="&#x2d9;" horiz-adv-x="487" d="M197 667 Q197 681 207.5 690.5 Q218 700 232 700 Q242 700 248.5 693 Q255 686 255 675 Q255 661 245 651.5 Q235 642 222 642 Q211 642 204 649 Q197 656 197 667 Z " />
<glyph glyph-name="ring" unicode="&#x2da;" horiz-adv-x="488" d="M168 649 Q168 627 181 616 Q194 605 215 605 Q246 605 263 624 Q280 643 280 672 Q280 715 234 715 Q205 715 186.5 696.5 Q168 678 168 649 Z M139 646 Q139 666 147 684 Q155 702 168.5 715.5 Q182 729 200.5 736.5 Q219 744 239 744 Q271 744 290.5 724.5 Q310 705 310 674 Q310 653 302.5 635.5 Q295 618 281.5 605 Q268 592 250 585 Q232 578 211 578 Q179 578 159 596 Q139 614 139 646 Z " />
<glyph glyph-name="ogonek" unicode="&#x2db;" horiz-adv-x="488" d="M162 10 L160 0 Q137 -17 116 -35.5 Q95 -54 79 -72.5 Q63 -91 53.5 -110.5 Q44 -130 44 -149 Q44 -185 85 -185 Q102 -185 118.5 -178.5 Q135 -172 151 -163 L160 -186 Q144 -197 121.5 -205 Q99 -213 76 -213 Q45 -213 28 -198 Q11 -183 11 -156 Q11 -132 22 -109.5 Q33 -87 50.5 -66 Q68 -45 90 -25.5 Q112 -6 135 11 L162 10 Z " />
<glyph glyph-name="tilde" unicode="&#x2dc;" horiz-adv-x="488" d="M351 671 Q335 639 315.5 628.5 Q296 618 276 618 Q259 618 243.5 623.5 Q228 629 214 635.5 Q200 642 187.5 647.5 Q175 653 164 653 Q153 653 142 646 Q131 639 114 616 L94 627 Q114 659 132.5 670 Q151 681 171 681 Q186 681 199.5 675.5 Q213 670 226 663.5 Q239 657 252.5 651.5 Q266 646 281 646 Q296 646 306.5 653 Q317 660 331 681 L351 671 Z " />
<glyph glyph-name="hungarumlaut" unicode="&#x2dd;" horiz-adv-x="487" d="M237 714 L90 587 L75 604 L215 737 L237 714 Z M334 701 L197 587 L183 604 L313 725 L334 701 Z " />
<glyph glyph-name="perthousand" unicode="&#x2030;" horiz-adv-x="1026" d="M408 123 Q408 157 422 187 Q436 217 459 239.5 Q482 262 512 275 Q542 288 574 288 Q616 288 646 266 Q676 244 687 209 Q710 244 747 266 Q784 288 826 288 Q880 288 912 253 Q944 218 944 165 Q944 131 930.5 101 Q917 71 894 48.5 Q871 26 841 13 Q811 0 778 0 Q736 0 705.5 21.5 Q675 43 664 79 Q641 44 604.5 22 Q568 0 526 0 Q500 0 478.5 9 Q457 18 441 34.5 Q425 51 416.5 73.5 Q408 96 408 123 Z M88 552 Q88 587 101.5 617.5 Q115 648 138 670.5 Q161 693 191 706 Q221 719 254 719 Q306 719 340 686 Q374 653 374 598 Q374 564 359.5 533.5 Q345 503 321.5 480.5 Q298 458 268 444.5 Q238 431 206 431 Q153 431 120.5 464 Q88 497 88 552 Z M117 556 Q117 512 143 485.5 Q169 459 211 459 Q237 459 261 469.5 Q285 480 303 498.5 Q321 517 331.5 541.5 Q342 566 342 594 Q342 637 317 664 Q292 691 250 691 Q223 691 199 680.5 Q175 670 157 651.5 Q139 633 128 608.5 Q117 584 117 556 Z M437 127 Q437 85 463 56.5 Q489 28 531 28 Q557 28 581 38.5 Q605 49 623 67.5 Q641 86 651.5 110 Q662 134 662 161 Q662 202 637 231 Q612 260 570 260 Q544 260 520 249 Q496 238 477.5 220 Q459 202 448 178 Q437 154 437 127 Z M689 126 Q689 84 714.5 56 Q740 28 783 28 Q809 28 832.5 38.5 Q856 49 874 67 Q892 85 903 109.5 Q914 134 914 161 Q914 202 889 231 Q864 260 822 260 Q796 260 772 249 Q748 238 729.5 219.5 Q711 201 700 177 Q689 153 689 126 Z M646 720 L682 720 L135 0 L100 0 L646 720 Z " />
<glyph glyph-name="percent" unicode="&#x25;" horiz-adv-x="775" d="M437 127 Q437 85 463 56.5 Q489 28 531 28 Q557 28 581 38.5 Q605 49 623 67.5 Q641 86 651.5 110 Q662 134 662 161 Q662 202 637 231 Q612 260 570 260 Q544 260 520 249 Q496 238 477.5 220 Q459 202 448 178 Q437 154 437 127 Z M408 123 Q408 157 422 187 Q436 217 459 239.5 Q482 262 512 275 Q542 288 574 288 Q628 288 660.5 253 Q693 218 693 165 Q693 131 679.5 101 Q666 71 642.5 48.5 Q619 26 589 13 Q559 0 526 0 Q500 0 478.5 9 Q457 18 441 34.5 Q425 51 416.5 73.5 Q408 96 408 123 Z M117 556 Q117 512 143 485.5 Q169 459 211 459 Q237 459 261 469.5 Q285 480 303 498.5 Q321 517 331.5 541.5 Q342 566 342 594 Q342 637 317 664 Q292 691 250 691 Q223 691 199 680.5 Q175 670 157 651.5 Q139 633 128 608.5 Q117 584 117 556 Z M88 552 Q88 587 101.5 617.5 Q115 648 138 670.5 Q161 693 191 706 Q221 719 254 719 Q306 719 340 686 Q374 653 374 598 Q374 564 359.5 533.5 Q345 503 321.5 480.5 Q298 458 268 444.5 Q238 431 206 431 Q153 431 120.5 464 Q88 497 88 552 Z M646 720 L682 720 L135 0 L100 0 L646 720 Z " />
<glyph glyph-name="fraction" unicode="&#x2044;" horiz-adv-x="124" d="M359 720 L393 720 L-151 -1 L-187 -1 L359 720 Z " />
<glyph glyph-name="zerosuperior" unicode="&#x2070;" horiz-adv-x="333" d="M73 581 Q87 671 130.5 720.5 Q174 770 239 770 Q293 770 320 734 Q347 698 347 635 Q347 622 346 608.5 Q345 595 343 581 Q329 489 286 441 Q243 393 179 393 Q125 393 97 428.5 Q69 464 69 528 Q69 540 70 553.5 Q71 567 73 581 Z M106 581 Q104 567 102.5 553 Q101 539 101 527 Q101 476 121 448.5 Q141 421 183 421 Q234 421 266.5 463 Q299 505 310 581 Q312 596 313.5 609.5 Q315 623 315 636 Q315 686 295 714 Q275 742 234 742 Q183 742 150.5 699 Q118 656 106 581 Z " />
<glyph glyph-name="onesuperior" unicode="&#xb9;" horiz-adv-x="234" d="M142 400 L196 722 Q170 708 142.5 698.5 Q115 689 86 684 L86 706 Q116 712 151.5 728 Q187 744 213 765 L231 765 L170 400 L142 400 Z " />
<glyph glyph-name="twosuperior" unicode="&#xb2;" horiz-adv-x="278" d="M36 418 L211 586 Q227 602 239 615.5 Q251 629 259 641 Q267 653 270.5 665.5 Q274 678 274 692 Q274 720 255.5 732.5 Q237 745 210 745 Q156 745 95 699 L84 716 Q111 739 145.5 754.5 Q180 770 215 770 Q258 770 281 750 Q304 730 304 696 Q304 664 285.5 635 Q267 606 235 576 L77 425 L266 425 L262 400 L33 400 L36 418 Z " />
<glyph glyph-name="threesuperior" unicode="&#xb3;" horiz-adv-x="297" d="M58 461 Q81 438 103 427.5 Q125 417 160 417 Q207 417 236.5 440.5 Q266 464 266 509 Q266 538 246 556 Q226 574 178 574 Q176 574 171.5 573.5 Q167 573 162 573 L151 573 L154 600 Q208 601 241 625 Q274 649 274 694 Q274 723 255 734.5 Q236 746 209 746 Q182 746 157.5 738.5 Q133 731 112 717 L104 737 Q127 751 154.5 760.5 Q182 770 216 770 Q254 770 278.5 752.5 Q303 735 303 698 Q303 660 278.5 631 Q254 602 214 591 Q260 588 277.5 566 Q295 544 295 515 Q295 486 284 463.5 Q273 441 254.5 425 Q236 409 210.5 401 Q185 393 156 393 Q80 393 40 443 L58 461 Z " />
<glyph glyph-name="foursuperior" unicode="&#x2074;" horiz-adv-x="305" d="M89 511 L243 511 L280 735 L89 511 Z M238 485 L51 485 L55 508 L274 765 L312 765 L270 511 L321 511 L316 485 L265 485 L251 400 L224 400 L238 485 Z " />
<glyph glyph-name="fivesuperior" unicode="&#x2075;" horiz-adv-x="309" d="M141 765 L323 765 L318 740 L162 740 L126 600 Q141 611 165 621 Q189 631 216 631 Q262 631 284 605.5 Q306 580 306 539 Q306 506 294 479 Q282 452 261 433 Q240 414 212 403.5 Q184 393 152 393 Q128 393 99 399.5 Q70 406 45 422 L61 446 Q84 433 106.5 426 Q129 419 151 419 Q205 419 240.5 448 Q276 477 276 533 Q276 563 259 584 Q242 605 207 605 Q176 605 155 593.5 Q134 582 118 569 L112 543 L88 543 L141 765 Z " />
<glyph glyph-name="sixsuperior" unicode="&#x2076;" horiz-adv-x="311" d="M76 512 Q76 571 88.5 618.5 Q101 666 124.5 700 Q148 734 182 752 Q216 770 259 770 Q305 770 338 743 L322 722 Q306 735 291 740 Q276 745 256 745 Q223 745 197.5 732 Q172 719 154 696.5 Q136 674 125 643.5 Q114 613 110 578 Q132 599 163.5 615.5 Q195 632 227 632 Q275 632 295.5 604 Q316 576 316 539 Q316 473 276.5 433 Q237 393 173 393 Q122 393 99 425.5 Q76 458 76 512 Z M179 417 Q200 417 219.5 423.5 Q239 430 254 444.5 Q269 459 278 481 Q287 503 287 534 Q287 572 267 589 Q247 606 219 606 Q201 606 185 600 Q169 594 154.5 585.5 Q140 577 128 567 Q116 557 107 548 Q100 474 118 445.5 Q136 417 179 417 Z " />
<glyph glyph-name="sevensuperior" unicode="&#x2077;" horiz-adv-x="263" d="M97 400 L66 400 L66 403 L278 740 L80 740 L84 765 L317 765 L314 746 L97 400 Z " />
<glyph glyph-name="eightsuperior" unicode="&#x2078;" horiz-adv-x="308" d="M93 478 Q93 450 114 434 Q135 418 173 418 Q220 418 249.5 442 Q279 466 279 508 Q279 541 254.5 556.5 Q230 572 199 581 Q181 574 162 566 Q143 558 127.5 546 Q112 534 102.5 517.5 Q93 501 93 478 Z M141 675 Q141 662 147 652.5 Q153 643 162.5 635.5 Q172 628 183.5 622 Q195 616 206 611 Q219 616 235 623.5 Q251 631 264 641.5 Q277 652 286 665 Q295 678 295 695 Q295 720 276.5 733.5 Q258 747 228 747 Q190 747 165.5 727.5 Q141 708 141 675 Z M62 475 Q62 521 94 549.5 Q126 578 180 597 Q146 610 129 627.5 Q112 645 112 671 Q112 693 121.5 711.5 Q131 730 147 743 Q163 756 185 763 Q207 770 232 770 Q275 770 299.5 751.5 Q324 733 324 700 Q324 665 298 640 Q272 615 230 598 Q271 581 290.5 561 Q310 541 310 511 Q310 459 271 426 Q232 393 169 393 Q116 393 89 415 Q62 437 62 475 Z " />
<glyph glyph-name="ninesuperior" unicode="&#x2079;" horiz-adv-x="309" d="M319 651 Q319 593 307 545.5 Q295 498 271.5 464 Q248 430 214 411.5 Q180 393 137 393 Q115 393 94.5 399.5 Q74 406 57 420 L74 443 Q88 432 104.5 425.5 Q121 419 144 419 Q195 419 234 461.5 Q273 504 290 588 Q266 553 233 538.5 Q200 524 168 524 Q144 524 127.5 532.5 Q111 541 100.5 555 Q90 569 85 587 Q80 605 80 624 Q80 690 119 730 Q158 770 223 770 Q274 770 296.5 737.5 Q319 705 319 651 Z M217 745 Q196 745 176.5 738.5 Q157 732 141.5 717.5 Q126 703 117 680.5 Q108 658 108 626 Q108 589 126.5 569 Q145 549 177 549 Q212 549 241 570.5 Q270 592 290 617 Q299 683 279.5 714 Q260 745 217 745 Z " />
<glyph glyph-name="zeroinferior" unicode="&#x2080;" horiz-adv-x="333" d="M-5 86 Q9 176 52.5 225.5 Q96 275 161 275 Q215 275 242 239 Q269 203 269 140 Q269 127 268 113.5 Q267 100 265 86 Q251 -6 208 -54 Q165 -102 101 -102 Q47 -102 19 -66.5 Q-9 -31 -9 33 Q-9 45 -8 58.5 Q-7 72 -5 86 Z M28 86 Q26 72 24.5 58 Q23 44 23 32 Q23 -19 43 -46.5 Q63 -74 105 -74 Q156 -74 188.5 -32 Q221 10 232 86 Q234 101 235.5 114.5 Q237 128 237 141 Q237 191 217 219 Q197 247 156 247 Q105 247 72.5 204 Q40 161 28 86 Z " />
<glyph glyph-name="oneinferior" unicode="&#x2081;" horiz-adv-x="234" d="M76 -95 L130 227 Q104 213 76.5 203.5 Q49 194 20 189 L20 211 Q50 217 85.5 233 Q121 249 147 270 L165 270 L104 -95 L76 -95 Z " />
<glyph glyph-name="twoinferior" unicode="&#x2082;" horiz-adv-x="278" d="M-39 -77 L136 91 Q152 107 164 120.5 Q176 134 184 146 Q192 158 195.5 170.5 Q199 183 199 197 Q199 225 180.5 237.5 Q162 250 135 250 Q81 250 20 204 L9 221 Q36 244 70.5 259.5 Q105 275 140 275 Q183 275 206 255 Q229 235 229 201 Q229 169 210.5 140 Q192 111 160 81 L2 -70 L191 -70 L187 -95 L-42 -95 L-39 -77 Z " />
<glyph glyph-name="threeinferior" unicode="&#x2083;" horiz-adv-x="297" d="M-15 -34 Q8 -57 30 -67.5 Q52 -78 87 -78 Q134 -78 163.5 -54.5 Q193 -31 193 14 Q193 43 173 61 Q153 79 105 79 Q103 79 98.5 78.5 Q94 78 89 78 L78 78 L81 105 Q135 106 168 130 Q201 154 201 199 Q201 228 182 239.5 Q163 251 136 251 Q109 251 84.5 243.5 Q60 236 39 222 L31 242 Q54 256 81.5 265.5 Q109 275 143 275 Q181 275 205.5 257.5 Q230 240 230 203 Q230 165 205.5 136 Q181 107 141 96 Q187 93 204.5 71 Q222 49 222 20 Q222 -9 211 -31.5 Q200 -54 181.5 -70 Q163 -86 137.5 -94 Q112 -102 83 -102 Q7 -102 -33 -52 L-15 -34 Z " />
<glyph glyph-name="fourinferior" unicode="&#x2084;" horiz-adv-x="305" d="M7 16 L161 16 L198 240 L7 16 Z M156 -10 L-31 -10 L-27 13 L192 270 L230 270 L188 16 L239 16 L234 -10 L183 -10 L169 -95 L142 -95 L156 -10 Z " />
<glyph glyph-name="fiveinferior" unicode="&#x2085;" horiz-adv-x="309" d="M73 270 L255 270 L250 245 L94 245 L58 105 Q73 116 97 126 Q121 136 148 136 Q194 136 216 110.5 Q238 85 238 44 Q238 11 226 -16 Q214 -43 193 -62 Q172 -81 144 -91.5 Q116 -102 84 -102 Q60 -102 31 -95.5 Q2 -89 -23 -73 L-7 -49 Q16 -62 38.5 -69 Q61 -76 83 -76 Q137 -76 172.5 -47 Q208 -18 208 38 Q208 68 191 89 Q174 110 139 110 Q108 110 87 98.5 Q66 87 50 74 L44 48 L20 48 L73 270 Z " />
<glyph glyph-name="sixinferior" unicode="&#x2086;" horiz-adv-x="311" d="M2 17 Q2 76 14.5 123.5 Q27 171 50.5 205 Q74 239 108 257 Q142 275 185 275 Q231 275 264 248 L248 227 Q232 240 217 245 Q202 250 182 250 Q149 250 123.5 237 Q98 224 80 201.5 Q62 179 51 148.5 Q40 118 36 83 Q58 104 89.5 120.5 Q121 137 153 137 Q201 137 221.5 109 Q242 81 242 44 Q242 -22 202.5 -62 Q163 -102 99 -102 Q48 -102 25 -69.5 Q2 -37 2 17 Z M105 -78 Q126 -78 145.5 -71.5 Q165 -65 180 -50.5 Q195 -36 204 -14 Q213 8 213 39 Q213 77 193 94 Q173 111 145 111 Q127 111 111 105 Q95 99 80.5 90.5 Q66 82 54 72 Q42 62 33 53 Q26 -21 44 -49.5 Q62 -78 105 -78 Z " />
<glyph glyph-name="seveninferior" unicode="&#x2087;" horiz-adv-x="262" d="M12 -95 L-19 -95 L-19 -92 L193 245 L-5 245 L-1 270 L232 270 L229 251 L12 -95 Z " />
<glyph glyph-name="eightinferior" unicode="&#x2088;" horiz-adv-x="308" d="M16 -17 Q16 -45 37 -61 Q58 -77 96 -77 Q143 -77 172.5 -53 Q202 -29 202 13 Q202 46 177.5 61.5 Q153 77 122 86 Q104 79 85 71 Q66 63 50.5 51 Q35 39 25.5 22.5 Q16 6 16 -17 Z M64 180 Q64 167 70 157.5 Q76 148 85.5 140.5 Q95 133 106.5 127 Q118 121 129 116 Q142 121 158 128.5 Q174 136 187 146.5 Q200 157 209 170 Q218 183 218 200 Q218 225 199.5 238.5 Q181 252 151 252 Q113 252 88.5 232.5 Q64 213 64 180 Z M-15 -20 Q-15 26 17 54.5 Q49 83 103 102 Q69 115 52 132.5 Q35 150 35 176 Q35 198 44.5 216.5 Q54 235 70 248 Q86 261 108 268 Q130 275 155 275 Q198 275 222.5 256.5 Q247 238 247 205 Q247 170 221 145 Q195 120 153 103 Q194 86 213.5 66 Q233 46 233 16 Q233 -36 194 -69 Q155 -102 92 -102 Q39 -102 12 -80 Q-15 -58 -15 -20 Z " />
<glyph glyph-name="nineinferior" unicode="&#x2089;" horiz-adv-x="309" d="M245 156 Q245 98 233 50.5 Q221 3 197.5 -31 Q174 -65 140 -83.5 Q106 -102 63 -102 Q41 -102 20.5 -95.5 Q0 -89 -17 -75 L0 -52 Q14 -63 30.5 -69.5 Q47 -76 70 -76 Q121 -76 160 -33.5 Q199 9 216 93 Q192 58 159 43.5 Q126 29 94 29 Q70 29 53.5 37.5 Q37 46 26.5 60 Q16 74 11 92 Q6 110 6 129 Q6 195 45 235 Q84 275 149 275 Q200 275 222.5 242.5 Q245 210 245 156 Z M143 250 Q122 250 102.5 243.5 Q83 237 67.5 222.5 Q52 208 43 185.5 Q34 163 34 131 Q34 94 52.5 74 Q71 54 103 54 Q138 54 167 75.5 Q196 97 216 122 Q225 188 205.5 219 Q186 250 143 250 Z " />
<glyph glyph-name="onehalf" unicode="&#xbd;" horiz-adv-x="780" d="M161 351 L215 673 Q189 659 161.5 649.5 Q134 640 105 635 L105 657 Q135 663 170.5 679 Q206 695 232 716 L250 716 L189 351 L161 351 Z M594 720 L628 720 L84 -1 L48 -1 L594 720 Z M382 19 L557 187 Q573 203 585 216.5 Q597 230 605 242 Q613 254 616.5 266.5 Q620 279 620 293 Q620 321 601.5 333.5 Q583 346 556 346 Q502 346 441 300 L430 317 Q457 340 491.5 355.5 Q526 371 561 371 Q604 371 627 351 Q650 331 650 297 Q650 265 631.5 236 Q613 207 581 177 L423 26 L612 26 L608 1 L379 1 L382 19 Z " />
<glyph glyph-name="onequarter" unicode="&#xbc;" horiz-adv-x="780" d="M158 351 L212 673 Q186 659 158.5 649.5 Q131 640 102 635 L102 657 Q132 663 167.5 679 Q203 695 229 716 L247 716 L186 351 L158 351 Z M631 720 L665 720 L121 -1 L85 -1 L631 720 Z M425 112 L579 112 L616 336 L425 112 Z M574 86 L387 86 L391 109 L610 366 L648 366 L606 112 L657 112 L652 86 L601 86 L587 1 L560 1 L574 86 Z " />
<glyph glyph-name="threequarters" unicode="&#xbe;" horiz-adv-x="780" d="M104 412 Q127 389 149 378.5 Q171 368 206 368 Q253 368 282.5 391.5 Q312 415 312 460 Q312 489 292 507 Q272 525 224 525 Q222 525 217.5 524.5 Q213 524 208 524 L197 524 L200 551 Q254 552 287 576 Q320 600 320 645 Q320 674 301 685.5 Q282 697 255 697 Q228 697 203.5 689.5 Q179 682 158 668 L150 688 Q173 702 200.5 711.5 Q228 721 262 721 Q300 721 324.5 703.5 Q349 686 349 649 Q349 611 324.5 582 Q300 553 260 542 Q306 539 323.5 517 Q341 495 341 466 Q341 437 330 414.5 Q319 392 300.5 376 Q282 360 256.5 352 Q231 344 202 344 Q126 344 86 394 L104 412 Z M694 720 L728 720 L184 -1 L148 -1 L694 720 Z M463 112 L617 112 L654 336 L463 112 Z M612 86 L425 86 L429 109 L648 366 L686 366 L644 112 L695 112 L690 86 L639 86 L625 1 L598 1 L612 86 Z " />
<glyph glyph-name="onethird" unicode="&#x2153;" horiz-adv-x="780" d="M156 351 L210 673 Q184 659 156.5 649.5 Q129 640 100 635 L100 657 Q130 663 165.5 679 Q201 695 227 716 L245 716 L184 351 L156 351 Z M619 720 L653 720 L109 -1 L73 -1 L619 720 Z M451 62 Q474 39 496 28.5 Q518 18 553 18 Q600 18 629.5 41.5 Q659 65 659 110 Q659 139 639 157 Q619 175 571 175 Q569 175 564.5 174.5 Q560 174 555 174 L544 174 L547 201 Q601 202 634 226 Q667 250 667 295 Q667 324 648 335.5 Q629 347 602 347 Q575 347 550.5 339.5 Q526 332 505 318 L497 338 Q520 352 547.5 361.5 Q575 371 609 371 Q647 371 671.5 353.5 Q696 336 696 299 Q696 261 671.5 232 Q647 203 607 192 Q653 189 670.5 167 Q688 145 688 116 Q688 87 677 64.5 Q666 42 647.5 26 Q629 10 603.5 2 Q578 -6 549 -6 Q473 -6 433 44 L451 62 Z " />
<glyph glyph-name="twothirds" unicode="&#x2154;" horiz-adv-x="780" d="M56 369 L231 537 Q247 553 259 566.5 Q271 580 279 592 Q287 604 290.5 616.5 Q294 629 294 643 Q294 671 275.5 683.5 Q257 696 230 696 Q176 696 115 650 L104 667 Q131 690 165.5 705.5 Q200 721 235 721 Q278 721 301 701 Q324 681 324 647 Q324 615 305.5 586 Q287 557 255 527 L97 376 L286 376 L282 351 L53 351 L56 369 Z M681 720 L715 720 L171 -1 L135 -1 L681 720 Z M489 62 Q512 39 534 28.5 Q556 18 591 18 Q638 18 667.5 41.5 Q697 65 697 110 Q697 139 677 157 Q657 175 609 175 Q607 175 602.5 174.5 Q598 174 593 174 L582 174 L585 201 Q639 202 672 226 Q705 250 705 295 Q705 324 686 335.5 Q667 347 640 347 Q613 347 588.5 339.5 Q564 332 543 318 L535 338 Q558 352 585.5 361.5 Q613 371 647 371 Q685 371 709.5 353.5 Q734 336 734 299 Q734 261 709.5 232 Q685 203 645 192 Q691 189 708.5 167 Q726 145 726 116 Q726 87 715 64.5 Q704 42 685.5 26 Q667 10 641.5 2 Q616 -6 587 -6 Q511 -6 471 44 L489 62 Z " />
<glyph glyph-name="onefifth" unicode="&#xf500;" horiz-adv-x="780" d="M169 351 L223 673 Q197 659 169.5 649.5 Q142 640 113 635 L113 657 Q143 663 178.5 679 Q214 695 240 716 L258 716 L197 351 L169 351 Z M612 720 L646 720 L102 -1 L66 -1 L612 720 Z M502 366 L684 366 L679 341 L523 341 L487 201 Q502 212 526 222 Q550 232 577 232 Q623 232 645 206.5 Q667 181 667 140 Q667 107 655 80 Q643 53 622 34 Q601 15 573 4.5 Q545 -6 513 -6 Q489 -6 460 0.5 Q431 7 406 23 L422 47 Q445 34 467.5 27 Q490 20 512 20 Q566 20 601.5 49 Q637 78 637 134 Q637 164 620 185 Q603 206 568 206 Q537 206 516 194.5 Q495 183 479 170 L473 144 L449 144 L502 366 Z " />
<glyph glyph-name="twofifths" unicode="&#xf501;" horiz-adv-x="780" d="M42 369 L217 537 Q233 553 245 566.5 Q257 580 265 592 Q273 604 276.5 616.5 Q280 629 280 643 Q280 671 261.5 683.5 Q243 696 216 696 Q162 696 101 650 L90 667 Q117 690 151.5 705.5 Q186 721 221 721 Q264 721 287 701 Q310 681 310 647 Q310 615 291.5 586 Q273 557 241 527 L83 376 L272 376 L268 351 L39 351 L42 369 Z M655 720 L689 720 L145 -1 L109 -1 L655 720 Z M524 366 L706 366 L701 341 L545 341 L509 201 Q524 212 548 222 Q572 232 599 232 Q645 232 667 206.5 Q689 181 689 140 Q689 107 677 80 Q665 53 644 34 Q623 15 595 4.5 Q567 -6 535 -6 Q511 -6 482 0.5 Q453 7 428 23 L444 47 Q467 34 489.5 27 Q512 20 534 20 Q588 20 623.5 49 Q659 78 659 134 Q659 164 642 185 Q625 206 590 206 Q559 206 538 194.5 Q517 183 501 170 L495 144 L471 144 L524 366 Z " />
<glyph glyph-name="threefifths" unicode="&#xf502;" horiz-adv-x="780" d="M69 412 Q92 389 114 378.5 Q136 368 171 368 Q218 368 247.5 391.5 Q277 415 277 460 Q277 489 257 507 Q237 525 189 525 Q187 525 182.5 524.5 Q178 524 173 524 L162 524 L165 551 Q219 552 252 576 Q285 600 285 645 Q285 674 266 685.5 Q247 697 220 697 Q193 697 168.5 689.5 Q144 682 123 668 L115 688 Q138 702 165.5 711.5 Q193 721 227 721 Q265 721 289.5 703.5 Q314 686 314 649 Q314 611 289.5 582 Q265 553 225 542 Q271 539 288.5 517 Q306 495 306 466 Q306 437 295 414.5 Q284 392 265.5 376 Q247 360 221.5 352 Q196 344 167 344 Q91 344 51 394 L69 412 Z M659 720 L693 720 L149 -1 L113 -1 L659 720 Z M527 366 L709 366 L704 341 L548 341 L512 201 Q527 212 551 222 Q575 232 602 232 Q648 232 670 206.5 Q692 181 692 140 Q692 107 680 80 Q668 53 647 34 Q626 15 598 4.5 Q570 -6 538 -6 Q514 -6 485 0.5 Q456 7 431 23 L447 47 Q470 34 492.5 27 Q515 20 537 20 Q591 20 626.5 49 Q662 78 662 134 Q662 164 645 185 Q628 206 593 206 Q562 206 541 194.5 Q520 183 504 170 L498 144 L474 144 L527 366 Z " />
<glyph glyph-name="fourfifths" unicode="&#xf503;" horiz-adv-x="780" d="M90 462 L244 462 L281 686 L90 462 Z M239 436 L52 436 L56 459 L275 716 L313 716 L271 462 L322 462 L317 436 L266 436 L252 351 L225 351 L239 436 Z M686 720 L720 720 L176 -1 L140 -1 L686 720 Z M563 366 L745 366 L740 341 L584 341 L548 201 Q563 212 587 222 Q611 232 638 232 Q684 232 706 206.5 Q728 181 728 140 Q728 107 716 80 Q704 53 683 34 Q662 15 634 4.5 Q606 -6 574 -6 Q550 -6 521 0.5 Q492 7 467 23 L483 47 Q506 34 528.5 27 Q551 20 573 20 Q627 20 662.5 49 Q698 78 698 134 Q698 164 681 185 Q664 206 629 206 Q598 206 577 194.5 Q556 183 540 170 L534 144 L510 144 L563 366 Z " />
<glyph glyph-name="onesixth" unicode="&#xf504;" horiz-adv-x="780" d="M171 351 L225 673 Q199 659 171.5 649.5 Q144 640 115 635 L115 657 Q145 663 180.5 679 Q216 695 242 716 L260 716 L199 351 L171 351 Z M625 720 L659 720 L115 -1 L79 -1 L625 720 Z M432 113 Q432 172 444.5 219.5 Q457 267 480.5 301 Q504 335 538 353 Q572 371 615 371 Q661 371 694 344 L678 323 Q662 336 647 341 Q632 346 612 346 Q579 346 553.5 333 Q528 320 510 297.5 Q492 275 481 244.5 Q470 214 466 179 Q488 200 519.5 216.5 Q551 233 583 233 Q631 233 651.5 205 Q672 177 672 140 Q672 74 632.5 34 Q593 -6 529 -6 Q478 -6 455 26.5 Q432 59 432 113 Z M535 18 Q556 18 575.5 24.5 Q595 31 610 45.5 Q625 60 634 82 Q643 104 643 135 Q643 173 623 190 Q603 207 575 207 Q557 207 541 201 Q525 195 510.5 186.5 Q496 178 484 168 Q472 158 463 149 Q456 75 474 46.5 Q492 18 535 18 Z " />
<glyph glyph-name="fivesixths" unicode="&#xf505;" horiz-adv-x="780" d="M157 716 L339 716 L334 691 L178 691 L142 551 Q157 562 181 572 Q205 582 232 582 Q278 582 300 556.5 Q322 531 322 490 Q322 457 310 430 Q298 403 277 384 Q256 365 228 354.5 Q200 344 168 344 Q144 344 115 350.5 Q86 357 61 373 L77 397 Q100 384 122.5 377 Q145 370 167 370 Q221 370 256.5 399 Q292 428 292 484 Q292 514 275 535 Q258 556 223 556 Q192 556 171 544.5 Q150 533 134 520 L128 494 L104 494 L157 716 Z M671 720 L705 720 L161 -1 L125 -1 L671 720 Z M456 113 Q456 172 468.5 219.5 Q481 267 504.5 301 Q528 335 562 353 Q596 371 639 371 Q685 371 718 344 L702 323 Q686 336 671 341 Q656 346 636 346 Q603 346 577.5 333 Q552 320 534 297.5 Q516 275 505 244.5 Q494 214 490 179 Q512 200 543.5 216.5 Q575 233 607 233 Q655 233 675.5 205 Q696 177 696 140 Q696 74 656.5 34 Q617 -6 553 -6 Q502 -6 479 26.5 Q456 59 456 113 Z M559 18 Q580 18 599.5 24.5 Q619 31 634 45.5 Q649 60 658 82 Q667 104 667 135 Q667 173 647 190 Q627 207 599 207 Q581 207 565 201 Q549 195 534.5 186.5 Q520 178 508 168 Q496 158 487 149 Q480 75 498 46.5 Q516 18 559 18 Z " />
<glyph glyph-name="oneeighth" unicode="&#x215b;" horiz-adv-x="780" d="M171 351 L225 673 Q199 659 171.5 649.5 Q144 640 115 635 L115 657 Q145 663 180.5 679 Q216 695 242 716 L260 716 L199 351 L171 351 Z M627 720 L661 720 L117 -1 L81 -1 L627 720 Z M452 79 Q452 51 473 35 Q494 19 532 19 Q579 19 608.5 43 Q638 67 638 109 Q638 142 613.5 157.5 Q589 173 558 182 Q540 175 521 167 Q502 159 486.5 147 Q471 135 461.5 118.5 Q452 102 452 79 Z M500 276 Q500 263 506 253.5 Q512 244 521.5 236.5 Q531 229 542.5 223 Q554 217 565 212 Q578 217 594 224.5 Q610 232 623 242.5 Q636 253 645 266 Q654 279 654 296 Q654 321 635.5 334.5 Q617 348 587 348 Q549 348 524.5 328.5 Q500 309 500 276 Z M421 76 Q421 122 453 150.5 Q485 179 539 198 Q505 211 488 228.5 Q471 246 471 272 Q471 294 480.5 312.5 Q490 331 506 344 Q522 357 544 364 Q566 371 591 371 Q634 371 658.5 352.5 Q683 334 683 301 Q683 266 657 241 Q631 216 589 199 Q630 182 649.5 162 Q669 142 669 112 Q669 60 630 27 Q591 -6 528 -6 Q475 -6 448 16 Q421 38 421 76 Z " />
<glyph glyph-name="threeeighths" unicode="&#x215c;" horiz-adv-x="780" d="M64 412 Q87 389 109 378.5 Q131 368 166 368 Q213 368 242.5 391.5 Q272 415 272 460 Q272 489 252 507 Q232 525 184 525 Q182 525 177.5 524.5 Q173 524 168 524 L157 524 L160 551 Q214 552 247 576 Q280 600 280 645 Q280 674 261 685.5 Q242 697 215 697 Q188 697 163.5 689.5 Q139 682 118 668 L110 688 Q133 702 160.5 711.5 Q188 721 222 721 Q260 721 284.5 703.5 Q309 686 309 649 Q309 611 284.5 582 Q260 553 220 542 Q266 539 283.5 517 Q301 495 301 466 Q301 437 290 414.5 Q279 392 260.5 376 Q242 360 216.5 352 Q191 344 162 344 Q86 344 46 394 L64 412 Z M666 720 L700 720 L156 -1 L120 -1 L666 720 Z M481 79 Q481 51 502 35 Q523 19 561 19 Q608 19 637.5 43 Q667 67 667 109 Q667 142 642.5 157.5 Q618 173 587 182 Q569 175 550 167 Q531 159 515.5 147 Q500 135 490.5 118.5 Q481 102 481 79 Z M529 276 Q529 263 535 253.5 Q541 244 550.5 236.5 Q560 229 571.5 223 Q583 217 594 212 Q607 217 623 224.5 Q639 232 652 242.5 Q665 253 674 266 Q683 279 683 296 Q683 321 664.5 334.5 Q646 348 616 348 Q578 348 553.5 328.5 Q529 309 529 276 Z M450 76 Q450 122 482 150.5 Q514 179 568 198 Q534 211 517 228.5 Q500 246 500 272 Q500 294 509.5 312.5 Q519 331 535 344 Q551 357 573 364 Q595 371 620 371 Q663 371 687.5 352.5 Q712 334 712 301 Q712 266 686 241 Q660 216 618 199 Q659 182 678.5 162 Q698 142 698 112 Q698 60 659 27 Q620 -6 557 -6 Q504 -6 477 16 Q450 38 450 76 Z " />
<glyph glyph-name="fiveeighths" unicode="&#x215d;" horiz-adv-x="780" d="M142 716 L324 716 L319 691 L163 691 L127 551 Q142 562 166 572 Q190 582 217 582 Q263 582 285 556.5 Q307 531 307 490 Q307 457 295 430 Q283 403 262 384 Q241 365 213 354.5 Q185 344 153 344 Q129 344 100 350.5 Q71 357 46 373 L62 397 Q85 384 107.5 377 Q130 370 152 370 Q206 370 241.5 399 Q277 428 277 484 Q277 514 260 535 Q243 556 208 556 Q177 556 156 544.5 Q135 533 119 520 L113 494 L89 494 L142 716 Z M670 720 L704 720 L160 -1 L124 -1 L670 720 Z M487 79 Q487 51 508 35 Q529 19 567 19 Q614 19 643.5 43 Q673 67 673 109 Q673 142 648.5 157.5 Q624 173 593 182 Q575 175 556 167 Q537 159 521.5 147 Q506 135 496.5 118.5 Q487 102 487 79 Z M535 276 Q535 263 541 253.5 Q547 244 556.5 236.5 Q566 229 577.5 223 Q589 217 600 212 Q613 217 629 224.5 Q645 232 658 242.5 Q671 253 680 266 Q689 279 689 296 Q689 321 670.5 334.5 Q652 348 622 348 Q584 348 559.5 328.5 Q535 309 535 276 Z M456 76 Q456 122 488 150.5 Q520 179 574 198 Q540 211 523 228.5 Q506 246 506 272 Q506 294 515.5 312.5 Q525 331 541 344 Q557 357 579 364 Q601 371 626 371 Q669 371 693.5 352.5 Q718 334 718 301 Q718 266 692 241 Q666 216 624 199 Q665 182 684.5 162 Q704 142 704 112 Q704 60 665 27 Q626 -6 563 -6 Q510 -6 483 16 Q456 38 456 76 Z " />
<glyph glyph-name="seveneighths" unicode="&#x215e;" horiz-adv-x="780" d="M142 351 L111 351 L111 354 L323 691 L125 691 L129 716 L362 716 L359 697 L142 351 Z M648 720 L682 720 L138 -1 L102 -1 L648 720 Z M483 79 Q483 51 504 35 Q525 19 563 19 Q610 19 639.5 43 Q669 67 669 109 Q669 142 644.5 157.5 Q620 173 589 182 Q571 175 552 167 Q533 159 517.5 147 Q502 135 492.5 118.5 Q483 102 483 79 Z M531 276 Q531 263 537 253.5 Q543 244 552.5 236.5 Q562 229 573.5 223 Q585 217 596 212 Q609 217 625 224.5 Q641 232 654 242.5 Q667 253 676 266 Q685 279 685 296 Q685 321 666.5 334.5 Q648 348 618 348 Q580 348 555.5 328.5 Q531 309 531 276 Z M452 76 Q452 122 484 150.5 Q516 179 570 198 Q536 211 519 228.5 Q502 246 502 272 Q502 294 511.5 312.5 Q521 331 537 344 Q553 357 575 364 Q597 371 622 371 Q665 371 689.5 352.5 Q714 334 714 301 Q714 266 688 241 Q662 216 620 199 Q661 182 680.5 162 Q700 142 700 112 Q700 60 661 27 Q622 -6 559 -6 Q506 -6 479 16 Q452 38 452 76 Z " />
<glyph glyph-name="oneseventh" unicode="&#xf506;" horiz-adv-x="780" d="M143 351 L197 673 Q171 659 143.5 649.5 Q116 640 87 635 L87 657 Q117 663 152.5 679 Q188 695 214 716 L232 716 L171 351 L143 351 Z M602 720 L636 720 L92 -1 L56 -1 L602 720 Z M505 1 L474 1 L474 4 L686 341 L488 341 L492 366 L725 366 L722 347 L505 1 Z " />
<glyph glyph-name="twosevenths" unicode="&#xf507;" horiz-adv-x="780" d="M46 369 L221 537 Q237 553 249 566.5 Q261 580 269 592 Q277 604 280.5 616.5 Q284 629 284 643 Q284 671 265.5 683.5 Q247 696 220 696 Q166 696 105 650 L94 667 Q121 690 155.5 705.5 Q190 721 225 721 Q268 721 291 701 Q314 681 314 647 Q314 615 295.5 586 Q277 557 245 527 L87 376 L276 376 L272 351 L43 351 L46 369 Z M666 720 L700 720 L156 -1 L120 -1 L666 720 Z M525 1 L494 1 L494 4 L706 341 L508 341 L512 366 L745 366 L742 347 L525 1 Z " />
<glyph glyph-name="threesevenths" unicode="&#xf508;" horiz-adv-x="780" d="M49 412 Q72 389 94 378.5 Q116 368 151 368 Q198 368 227.5 391.5 Q257 415 257 460 Q257 489 237 507 Q217 525 169 525 Q167 525 162.5 524.5 Q158 524 153 524 L142 524 L145 551 Q199 552 232 576 Q265 600 265 645 Q265 674 246 685.5 Q227 697 200 697 Q173 697 148.5 689.5 Q124 682 103 668 L95 688 Q118 702 145.5 711.5 Q173 721 207 721 Q245 721 269.5 703.5 Q294 686 294 649 Q294 611 269.5 582 Q245 553 205 542 Q251 539 268.5 517 Q286 495 286 466 Q286 437 275 414.5 Q264 392 245.5 376 Q227 360 201.5 352 Q176 344 147 344 Q71 344 31 394 L49 412 Z M648 720 L682 720 L138 -1 L102 -1 L648 720 Z M528 1 L497 1 L497 4 L709 341 L511 341 L515 366 L748 366 L745 347 L528 1 Z " />
<glyph glyph-name="foursevenths" unicode="&#xf509;" horiz-adv-x="780" d="M75 462 L229 462 L266 686 L75 462 Z M224 436 L37 436 L41 459 L260 716 L298 716 L256 462 L307 462 L302 436 L251 436 L237 351 L210 351 L224 436 Z M649 720 L683 720 L139 -1 L103 -1 L649 720 Z M526 1 L495 1 L495 4 L707 341 L509 341 L513 366 L746 366 L743 347 L526 1 Z " />
<glyph glyph-name="fivesevenths" unicode="&#xf50a;" horiz-adv-x="780" d="M135 716 L317 716 L312 691 L156 691 L120 551 Q135 562 159 572 Q183 582 210 582 Q256 582 278 556.5 Q300 531 300 490 Q300 457 288 430 Q276 403 255 384 Q234 365 206 354.5 Q178 344 146 344 Q122 344 93 350.5 Q64 357 39 373 L55 397 Q78 384 100.5 377 Q123 370 145 370 Q199 370 234.5 399 Q270 428 270 484 Q270 514 253 535 Q236 556 201 556 Q170 556 149 544.5 Q128 533 112 520 L106 494 L82 494 L135 716 Z M648 720 L682 720 L138 -1 L102 -1 L648 720 Z M527 1 L496 1 L496 4 L708 341 L510 341 L514 366 L747 366 L744 347 L527 1 Z " />
<glyph glyph-name="sixsevenths" unicode="&#xf50b;" horiz-adv-x="780" d="M51 463 Q51 522 63.5 569.5 Q76 617 99.5 651 Q123 685 157 703 Q191 721 234 721 Q280 721 313 694 L297 673 Q281 686 266 691 Q251 696 231 696 Q198 696 172.5 683 Q147 670 129 647.5 Q111 625 100 594.5 Q89 564 85 529 Q107 550 138.5 566.5 Q170 583 202 583 Q250 583 270.5 555 Q291 527 291 490 Q291 424 251.5 384 Q212 344 148 344 Q97 344 74 376.5 Q51 409 51 463 Z M154 368 Q175 368 194.5 374.5 Q214 381 229 395.5 Q244 410 253 432 Q262 454 262 485 Q262 523 242 540 Q222 557 194 557 Q176 557 160 551 Q144 545 129.5 536.5 Q115 528 103 518 Q91 508 82 499 Q75 425 93 396.5 Q111 368 154 368 Z M638 720 L672 720 L128 -1 L92 -1 L638 720 Z M526 1 L495 1 L495 4 L707 341 L509 341 L513 366 L746 366 L743 347 L526 1 Z " />
<glyph glyph-name="oneninth" unicode="&#xf50c;" horiz-adv-x="780" d="M150 351 L204 673 Q178 659 150.5 649.5 Q123 640 94 635 L94 657 Q124 663 159.5 679 Q195 695 221 716 L239 716 L178 351 L150 351 Z M617 720 L651 720 L107 -1 L71 -1 L617 720 Z M693 252 Q693 194 681 146.5 Q669 99 645.5 65 Q622 31 588 12.5 Q554 -6 511 -6 Q489 -6 468.5 0.5 Q448 7 431 21 L448 44 Q462 33 478.5 26.5 Q495 20 518 20 Q569 20 608 62.5 Q647 105 664 189 Q640 154 607 139.5 Q574 125 542 125 Q518 125 501.5 133.5 Q485 142 474.5 156 Q464 170 459 188 Q454 206 454 225 Q454 291 493 331 Q532 371 597 371 Q648 371 670.5 338.5 Q693 306 693 252 Z M591 346 Q570 346 550.5 339.5 Q531 333 515.5 318.5 Q500 304 491 281.5 Q482 259 482 227 Q482 190 500.5 170 Q519 150 551 150 Q586 150 615 171.5 Q644 193 664 218 Q673 284 653.5 315 Q634 346 591 346 Z " />
<glyph glyph-name="twoninths" unicode="&#xf50d;" horiz-adv-x="780" d="M47 369 L222 537 Q238 553 250 566.5 Q262 580 270 592 Q278 604 281.5 616.5 Q285 629 285 643 Q285 671 266.5 683.5 Q248 696 221 696 Q167 696 106 650 L95 667 Q122 690 156.5 705.5 Q191 721 226 721 Q269 721 292 701 Q315 681 315 647 Q315 615 296.5 586 Q278 557 246 527 L88 376 L277 376 L273 351 L44 351 L47 369 Z M661 720 L695 720 L151 -1 L115 -1 L661 720 Z M724 252 Q724 194 712 146.5 Q700 99 676.5 65 Q653 31 619 12.5 Q585 -6 542 -6 Q520 -6 499.5 0.5 Q479 7 462 21 L479 44 Q493 33 509.5 26.5 Q526 20 549 20 Q600 20 639 62.5 Q678 105 695 189 Q671 154 638 139.5 Q605 125 573 125 Q549 125 532.5 133.5 Q516 142 505.5 156 Q495 170 490 188 Q485 206 485 225 Q485 291 524 331 Q563 371 628 371 Q679 371 701.5 338.5 Q724 306 724 252 Z M622 346 Q601 346 581.5 339.5 Q562 333 546.5 318.5 Q531 304 522 281.5 Q513 259 513 227 Q513 190 531.5 170 Q550 150 582 150 Q617 150 646 171.5 Q675 193 695 218 Q704 284 684.5 315 Q665 346 622 346 Z " />
<glyph glyph-name="fourninths" unicode="&#xf50e;" horiz-adv-x="780" d="M89 462 L243 462 L280 686 L89 462 Z M238 436 L51 436 L55 459 L274 716 L312 716 L270 462 L321 462 L316 436 L265 436 L251 351 L224 351 L238 436 Z M685 720 L719 720 L175 -1 L139 -1 L685 720 Z M727 252 Q727 194 715 146.5 Q703 99 679.5 65 Q656 31 622 12.5 Q588 -6 545 -6 Q523 -6 502.5 0.5 Q482 7 465 21 L482 44 Q496 33 512.5 26.5 Q529 20 552 20 Q603 20 642 62.5 Q681 105 698 189 Q674 154 641 139.5 Q608 125 576 125 Q552 125 535.5 133.5 Q519 142 508.5 156 Q498 170 493 188 Q488 206 488 225 Q488 291 527 331 Q566 371 631 371 Q682 371 704.5 338.5 Q727 306 727 252 Z M625 346 Q604 346 584.5 339.5 Q565 333 549.5 318.5 Q534 304 525 281.5 Q516 259 516 227 Q516 190 534.5 170 Q553 150 585 150 Q620 150 649 171.5 Q678 193 698 218 Q707 284 687.5 315 Q668 346 625 346 Z " />
<glyph glyph-name="fiveninths" unicode="&#xf50f;" horiz-adv-x="780" d="M135 716 L317 716 L312 691 L156 691 L120 551 Q135 562 159 572 Q183 582 210 582 Q256 582 278 556.5 Q300 531 300 490 Q300 457 288 430 Q276 403 255 384 Q234 365 206 354.5 Q178 344 146 344 Q122 344 93 350.5 Q64 357 39 373 L55 397 Q78 384 100.5 377 Q123 370 145 370 Q199 370 234.5 399 Q270 428 270 484 Q270 514 253 535 Q236 556 201 556 Q170 556 149 544.5 Q128 533 112 520 L106 494 L82 494 L135 716 Z M656 720 L690 720 L146 -1 L110 -1 L656 720 Z M704 252 Q704 194 692 146.5 Q680 99 656.5 65 Q633 31 599 12.5 Q565 -6 522 -6 Q500 -6 479.5 0.5 Q459 7 442 21 L459 44 Q473 33 489.5 26.5 Q506 20 529 20 Q580 20 619 62.5 Q658 105 675 189 Q651 154 618 139.5 Q585 125 553 125 Q529 125 512.5 133.5 Q496 142 485.5 156 Q475 170 470 188 Q465 206 465 225 Q465 291 504 331 Q543 371 608 371 Q659 371 681.5 338.5 Q704 306 704 252 Z M602 346 Q581 346 561.5 339.5 Q542 333 526.5 318.5 Q511 304 502 281.5 Q493 259 493 227 Q493 190 511.5 170 Q530 150 562 150 Q597 150 626 171.5 Q655 193 675 218 Q684 284 664.5 315 Q645 346 602 346 Z " />
<glyph glyph-name="sevenninths" unicode="&#xf510;" horiz-adv-x="780" d="M102 351 L71 351 L71 354 L283 691 L85 691 L89 716 L322 716 L319 697 L102 351 Z M608 720 L642 720 L98 -1 L62 -1 L608 720 Z M711 252 Q711 194 699 146.5 Q687 99 663.5 65 Q640 31 606 12.5 Q572 -6 529 -6 Q507 -6 486.5 0.5 Q466 7 449 21 L466 44 Q480 33 496.5 26.5 Q513 20 536 20 Q587 20 626 62.5 Q665 105 682 189 Q658 154 625 139.5 Q592 125 560 125 Q536 125 519.5 133.5 Q503 142 492.5 156 Q482 170 477 188 Q472 206 472 225 Q472 291 511 331 Q550 371 615 371 Q666 371 688.5 338.5 Q711 306 711 252 Z M609 346 Q588 346 568.5 339.5 Q549 333 533.5 318.5 Q518 304 509 281.5 Q500 259 500 227 Q500 190 518.5 170 Q537 150 569 150 Q604 150 633 171.5 Q662 193 682 218 Q691 284 671.5 315 Q652 346 609 346 Z " />
<glyph glyph-name="eightninths" unicode="&#xf511;" horiz-adv-x="780" d="M111 429 Q111 401 132 385 Q153 369 191 369 Q238 369 267.5 393 Q297 417 297 459 Q297 492 272.5 507.5 Q248 523 217 532 Q199 525 180 517 Q161 509 145.5 497 Q130 485 120.5 468.5 Q111 452 111 429 Z M159 626 Q159 613 165 603.5 Q171 594 180.5 586.5 Q190 579 201.5 573 Q213 567 224 562 Q237 567 253 574.5 Q269 582 282 592.5 Q295 603 304 616 Q313 629 313 646 Q313 671 294.5 684.5 Q276 698 246 698 Q208 698 183.5 678.5 Q159 659 159 626 Z M80 426 Q80 472 112 500.5 Q144 529 198 548 Q164 561 147 578.5 Q130 596 130 622 Q130 644 139.5 662.5 Q149 681 165 694 Q181 707 203 714 Q225 721 250 721 Q293 721 317.5 702.5 Q342 684 342 651 Q342 616 316 591 Q290 566 248 549 Q289 532 308.5 512 Q328 492 328 462 Q328 410 289 377 Q250 344 187 344 Q134 344 107 366 Q80 388 80 426 Z M675 720 L709 720 L165 -1 L129 -1 L675 720 Z M716 252 Q716 194 704 146.5 Q692 99 668.5 65 Q645 31 611 12.5 Q577 -6 534 -6 Q512 -6 491.5 0.5 Q471 7 454 21 L471 44 Q485 33 501.5 26.5 Q518 20 541 20 Q592 20 631 62.5 Q670 105 687 189 Q663 154 630 139.5 Q597 125 565 125 Q541 125 524.5 133.5 Q508 142 497.5 156 Q487 170 482 188 Q477 206 477 225 Q477 291 516 331 Q555 371 620 371 Q671 371 693.5 338.5 Q716 306 716 252 Z M614 346 Q593 346 573.5 339.5 Q554 333 538.5 318.5 Q523 304 514 281.5 Q505 259 505 227 Q505 190 523.5 170 Q542 150 574 150 Q609 150 638 171.5 Q667 193 687 218 Q696 284 676.5 315 Q657 346 614 346 Z " />
<glyph glyph-name="minus" unicode="&#x2212;" horiz-adv-x="600" d="M560 285 L40 285 L40 316 L560 316 L560 285 Z " />
<glyph glyph-name="uni2215" unicode="&#x2215;" horiz-adv-x="127" d="M373 720 L407 720 L-137 -1 L-173 -1 L373 720 Z " />
<glyph glyph-name="uni2219" unicode="&#x2219;" horiz-adv-x="253" d="M90 340 Q90 358 101 367.5 Q112 377 126 377 Q141 377 152 368 Q163 359 163 340 Q163 325 152 314.5 Q141 304 126 304 Q111 304 100.5 313.5 Q90 323 90 340 Z " />
<glyph glyph-name="approxequal" unicode="&#x2248;" horiz-adv-x="745" d="M682 402 Q633 366 585 345 Q537 324 483 324 Q449 324 416 334.5 Q383 345 356 360 Q324 377 296.5 387 Q269 397 240 397 Q189 397 148 376.5 Q107 356 62 324 L49 348 Q99 384 146.5 405 Q194 426 248 426 Q282 426 312 414.5 Q342 403 370.5 389.5 Q399 376 427.5 364.5 Q456 353 488 353 Q533 353 574.5 372 Q616 391 667 425 L682 402 Z M677 217 Q628 181 580 160 Q532 139 478 139 Q444 139 411 149.5 Q378 160 351 175 Q319 192 291.5 202 Q264 212 235 212 Q184 212 143 191.5 Q102 171 57 139 L44 163 Q94 199 141.5 220 Q189 241 243 241 Q277 241 307 229.5 Q337 218 365.5 204.5 Q394 191 422.5 179.5 Q451 168 483 168 Q528 168 569.5 187 Q611 206 662 240 L677 217 Z " />
<glyph glyph-name="notequal" unicode="&#x2260;" horiz-adv-x="600" d="M560 182 L260 182 L150 0 L114 0 L223 182 L40 182 L40 213 L242 213 L326 353 L40 353 L40 384 L345 384 L429 523 L465 523 L381 384 L560 384 L560 353 L363 353 L278 213 L560 213 L560 182 Z " />
<glyph glyph-name="lessequal" unicode="&#x2264;" horiz-adv-x="600" d="M560 0 L40 0 L40 31 L560 31 L560 0 Z M41 313 L41 328 L547 551 L559 524 L97 320 L559 117 L547 90 L41 313 Z " />
<glyph glyph-name="greaterequal" unicode="&#x2265;" horiz-adv-x="600" d="M39 31 L559 31 L559 0 L39 0 L39 31 Z M52 90 L40 117 L502 320 L40 524 L52 551 L558 328 L558 313 L52 90 Z " />
<glyph glyph-name="less" unicode="&#x3c;" horiz-adv-x="600" d="M18 285 L18 300 L569 523 L581 496 L74 292 L581 89 L569 62 L18 285 Z " />
<glyph glyph-name="equal" unicode="&#x3d;" horiz-adv-x="600" d="M560 353 L40 353 L40 384 L560 384 L560 353 Z M560 182 L40 182 L40 213 L560 213 L560 182 Z " />
</font>
</svg>
