<?xml version="1.0" encoding="UTF-8"?>
<svg xmlns="http://www.w3.org/2000/svg" xmlns:xlink="http://www.w3.org/1999/xlink" version="1.2" >
<font id="LFTEticaDisplayHv-Italic">
<font-face  font-family="LFT Etica Display" units-per-em="1000" ascent="930" descent="-270" font-style="italic" font-weight="900" font-stretch="normal" cap-height="720" x-height="533" underline-position="-75" underline-thickness="50" />
<missing-glyph  horiz-adv-x="160" d="" />
<glyph glyph-name="space" unicode="&#x20;" horiz-adv-x="160" d="" />
<glyph glyph-name="numbersign" unicode="&#x23;" horiz-adv-x="707" d="M292 284 L377 284 L403 363 L318 363 L292 284 Z M552 363 L525 284 L619 284 L619 140 L479 140 L425 -2 L288 33 L328 140 L247 140 L191 -2 L54 33 L94 140 L22 140 L22 284 L144 284 L171 363 L89 363 L89 507 L219 507 L275 658 L414 629 L370 507 L452 507 L509 658 L647 629 L603 507 L685 507 L685 363 L552 363 Z " />
<glyph glyph-name="ampersand" unicode="&#x26;" horiz-adv-x="743" d="M353 543 Q352 532 358.5 518.5 Q365 505 377 494 Q402 508 411.5 519.5 Q421 531 422 546 Q423 558 415.5 566 Q408 574 391 574 Q372 574 363 565 Q354 556 353 543 Z M287 167 Q304 167 318.5 174 Q333 181 350 195 L281 289 Q263 278 246.5 261 Q230 244 230 218 Q230 198 243.5 182.5 Q257 167 287 167 Z M446 59 Q417 35 391 19.5 Q365 4 339.5 -5 Q314 -14 287 -17 Q260 -20 229 -20 Q178 -20 137.5 -6.5 Q97 7 68 32.5 Q39 58 23.5 94.5 Q8 131 8 176 Q8 258 52.5 316 Q97 374 178 409 Q141 458 141 517 Q141 569 162 609.5 Q183 650 219 677.5 Q255 705 303.5 719 Q352 733 408 733 Q453 733 490.5 723.5 Q528 714 554.5 695 Q581 676 596 646.5 Q611 617 611 577 Q611 545 601.5 519 Q592 493 575 471 Q558 449 535.5 430 Q513 411 486 393 L508 363 L611 447 L718 312 L615 227 L701 115 L511 -27 L446 59 Z " />
<glyph glyph-name="asterisk" unicode="&#x2a;" horiz-adv-x="477" d="M278 411 L179 320 L94 387 L156 478 L52 531 L89 629 L197 603 L222 720 L322 720 L346 603 L466 628 L500 536 L405 483 L463 390 L379 323 L278 411 Z " />
<glyph glyph-name="comma" unicode="&#x2c;" horiz-adv-x="269" d="M-23 73 Q-23 99 -13.5 121 Q-4 143 13 159.5 Q30 176 54 185.5 Q78 195 107 195 Q158 195 182.5 165 Q207 135 207 88 Q207 -1 153 -71.5 Q99 -142 -13 -189 L-49 -111 Q-21 -96 -2.5 -82 Q16 -68 28 -54.5 Q40 -41 46 -28 Q52 -15 57 -3 Q22 -5 -0.5 15.5 Q-23 36 -23 73 Z " />
<glyph glyph-name="hyphen" unicode="&#x2d;" horiz-adv-x="310" d="M28 367 L293 367 L263 184 L-2 184 L28 367 Z " />
<glyph glyph-name="period" unicode="&#x2e;" horiz-adv-x="265" d="M-26 98 Q-26 149 5.5 178 Q37 207 92 207 Q146 207 177.5 178 Q209 149 209 98 Q209 49 178.5 18 Q148 -13 93 -13 Q36 -13 5 18 Q-26 49 -26 98 Z " />
<glyph glyph-name="colon" unicode="&#x3a;" horiz-adv-x="265" d="M-22 98 Q-22 149 9.5 178 Q41 207 96 207 Q150 207 181.5 178 Q213 149 213 98 Q213 49 182.5 18 Q152 -13 97 -13 Q40 -13 9 18 Q-22 49 -22 98 Z M35 417 Q35 468 66.5 497 Q98 526 153 526 Q207 526 238.5 497 Q270 468 270 417 Q270 368 239.5 337 Q209 306 154 306 Q97 306 66 337 Q35 368 35 417 Z " />
<glyph glyph-name="semicolon" unicode="&#x3b;" horiz-adv-x="271" d="M-23 73 Q-23 99 -13.5 121 Q-4 143 13 159.5 Q30 176 54 185.5 Q78 195 107 195 Q158 195 182.5 165 Q207 135 207 88 Q207 -1 153 -71.5 Q99 -142 -13 -189 L-49 -111 Q-21 -96 -2.5 -82 Q16 -68 28 -54.5 Q40 -41 46 -28 Q52 -15 57 -3 Q22 -5 -0.5 15.5 Q-23 36 -23 73 Z M33 417 Q33 468 64.5 497 Q96 526 151 526 Q205 526 236.5 497 Q268 468 268 417 Q268 368 237.5 337 Q207 306 152 306 Q95 306 64 337 Q33 368 33 417 Z " />
<glyph glyph-name="question" unicode="&#x3f;" horiz-adv-x="580" d="M185 276 Q193 326 220 360.5 Q247 395 275.5 421 Q304 447 326.5 467.5 Q349 488 349 510 Q349 522 340.5 528 Q332 534 320 534 Q297 534 285.5 523 Q274 512 269 480 L50 480 Q62 553 93.5 601.5 Q125 650 168.5 679 Q212 708 266 720 Q320 732 377 732 Q422 732 461.5 723 Q501 714 531 694.5 Q561 675 578 644 Q595 613 595 568 Q595 523 581.5 488 Q568 453 547.5 425.5 Q527 398 502.5 376.5 Q478 355 456.5 335.5 Q435 316 419 297.5 Q403 279 400 259 L396 233 L178 233 L185 276 Z M150 73 Q150 127 185 160.5 Q220 194 277 194 Q322 194 346 171 Q370 148 370 108 Q370 57 336 22 Q302 -13 244 -13 Q197 -13 173.5 11 Q150 35 150 73 Z " />
<glyph glyph-name="exclam" unicode="&#x21;" horiz-adv-x="305" d="M71 490 L109 720 L326 720 L288 490 L224 233 L47 233 L71 490 Z M4 73 Q4 127 39 160.5 Q74 194 131 194 Q175 194 199 171 Q223 148 223 108 Q223 57 189 22 Q155 -13 98 -13 Q51 -13 27.5 11 Q4 35 4 73 Z " />
<glyph glyph-name="exclamdown" unicode="&#xa1;" horiz-adv-x="305" d="M219 42 L181 -188 L-36 -188 L2 42 L66 299 L243 299 L219 42 Z M286 459 Q286 405 251 371.5 Q216 338 159 338 Q115 338 91 361 Q67 384 67 424 Q67 475 101 510 Q135 545 192 545 Q239 545 262.5 521 Q286 497 286 459 Z " />
<glyph glyph-name="questiondown" unicode="&#xbf;" horiz-adv-x="580" d="M384 256 Q376 206 349 171.5 Q322 137 293.5 111 Q265 85 242.5 64.5 Q220 44 220 22 Q220 10 228.5 4 Q237 -2 249 -2 Q272 -2 283.5 9 Q295 20 300 52 L519 52 Q507 -21 475.5 -69.5 Q444 -118 400.5 -147 Q357 -176 303 -188 Q249 -200 192 -200 Q147 -200 107.5 -191 Q68 -182 38 -162.5 Q8 -143 -9 -112 Q-26 -81 -26 -36 Q-26 9 -12.5 44 Q1 79 21.5 106.5 Q42 134 66.5 155.5 Q91 177 112.5 196.5 Q134 216 149.5 234 Q165 252 169 273 L173 299 L391 299 L384 256 Z M419 459 Q419 405 384 371.5 Q349 338 292 338 Q247 338 223 361 Q199 384 199 424 Q199 475 233 510 Q267 545 325 545 Q372 545 395.5 521 Q419 497 419 459 Z " />
<glyph glyph-name="at" unicode="&#x40;" horiz-adv-x="970" d="M552 335 Q544 337 534.5 338.5 Q525 340 511 340 Q480 340 456 326 Q432 312 415 289.5 Q398 267 389 238.5 Q380 210 380 180 Q380 151 394 133 Q408 115 432 115 Q460 115 481.5 137.5 Q503 160 514 199 L552 335 Z M642 192 Q637 172 634 160.5 Q631 149 631 143 Q631 135 638 130.5 Q645 126 655 126 Q685 126 708 142.5 Q731 159 746.5 185.5 Q762 212 769.5 244 Q777 276 777 307 Q777 419 708 480 Q639 541 516 541 Q434 541 370 514 Q306 487 262 440 Q218 393 195 328.5 Q172 264 172 189 Q172 118 194.5 64 Q217 10 257.5 -26.5 Q298 -63 355 -81.5 Q412 -100 482 -100 Q552 -100 629.5 -80 Q707 -60 772 -10 L829 -95 Q750 -157 660.5 -183 Q571 -209 487 -209 Q389 -209 308.5 -184 Q228 -159 171 -108.5 Q114 -58 82.5 16.5 Q51 91 51 190 Q51 290 85.5 374.5 Q120 459 181.5 520.5 Q243 582 329 616.5 Q415 651 519 651 Q602 651 672 626.5 Q742 602 792.5 558 Q843 514 871.5 453 Q900 392 900 319 Q900 237 873.5 178.5 Q847 120 806 82.5 Q765 45 716 27 Q667 9 622 9 Q586 9 557.5 25.5 Q529 42 517 72 Q490 39 459.5 25 Q429 11 395 11 Q360 11 334.5 23 Q309 35 292 56 Q275 77 267 105.5 Q259 134 259 168 Q259 232 279.5 283 Q300 334 335.5 369.5 Q371 405 418.5 423.5 Q466 442 521 442 Q571 442 614 428.5 Q657 415 695 395 L642 192 Z " />
<glyph glyph-name="A" unicode="A" horiz-adv-x="737" d="M575 720 L692 0 L420 0 L412 95 L233 95 L194 0 L-65 0 L291 720 L575 720 Z M400 268 L392 474 L306 268 L400 268 Z " />
<glyph glyph-name="B" unicode="B" horiz-adv-x="669" d="M99 720 L428 720 Q476 720 519 711 Q562 702 594.5 682.5 Q627 663 645.5 632 Q664 601 664 557 Q664 490 626.5 441 Q589 392 524 377 L524 375 Q580 363 606.5 323 Q633 283 633 235 Q633 166 609.5 121 Q586 76 538 49 Q490 22 418 11 Q346 0 250 0 L-21 0 L99 720 Z M276 295 L261 201 L332 201 Q355 201 370 216.5 Q385 232 385 257 Q385 276 374.5 285.5 Q364 295 346 295 L276 295 Z M314 519 L301 440 L362 440 Q385 440 399.5 452 Q414 464 414 486 Q414 501 404 510 Q394 519 376 519 L314 519 Z " />
<glyph glyph-name="C" unicode="C" horiz-adv-x="692" d="M634 113 Q549 46 467 15.5 Q385 -15 299 -15 Q230 -15 177 6 Q124 27 89 65 Q54 103 36 157.5 Q18 212 18 279 Q18 376 46.5 459.5 Q75 543 129 604 Q183 665 260.5 700 Q338 735 436 735 Q501 735 553 718.5 Q605 702 640 665.5 Q675 629 689.5 569.5 Q704 510 694 424 L452 424 Q455 467 443 486.5 Q431 506 396 506 Q346 506 314 459.5 Q282 413 282 317 Q282 262 305 238 Q328 214 369 214 Q420 214 467 232.5 Q514 251 562 280 L634 113 Z " />
<glyph glyph-name="D" unicode="D" horiz-adv-x="712" d="M311 503 L263 217 L312 217 Q376 217 407 264.5 Q438 312 438 399 Q438 503 360 503 L311 503 Z M405 720 Q483 720 539 697.5 Q595 675 631 636 Q667 597 684.5 544 Q702 491 702 431 Q702 332 677.5 252 Q653 172 598 116 Q543 60 456 30 Q369 0 245 0 L-21 0 L99 720 L405 720 Z " />
<glyph glyph-name="E" unicode="E" horiz-adv-x="580" d="M99 720 L620 720 L584 503 L311 503 L302 446 L549 446 L520 277 L273 277 L263 217 L537 217 L501 0 L-21 0 L99 720 Z " />
<glyph glyph-name="F" unicode="F" horiz-adv-x="570" d="M99 720 L620 720 L584 503 L311 503 L298 425 L536 425 L504 234 L266 234 L227 0 L-21 0 L99 720 Z " />
<glyph glyph-name="G" unicode="G" horiz-adv-x="699" d="M383 402 L684 402 L633 95 Q555 33 473.5 9 Q392 -15 305 -15 Q226 -15 171 10 Q116 35 82 76 Q48 117 33 171 Q18 225 18 283 Q18 371 43 452.5 Q68 534 119.5 597 Q171 660 250 697.5 Q329 735 436 735 Q511 735 563 716.5 Q615 698 646.5 662 Q678 626 689.5 573.5 Q701 521 696 453 L449 453 Q448 484 435.5 497 Q423 510 395 510 Q342 510 310.5 457 Q279 404 279 300 Q279 255 295 225.5 Q311 196 353 196 Q401 196 434 216 L439 243 L357 243 L383 402 Z " />
<glyph glyph-name="H" unicode="H" horiz-adv-x="708" d="M99 720 L347 720 L303 457 L447 457 L491 720 L739 720 L619 0 L371 0 L411 240 L267 240 L227 0 L-21 0 L99 720 Z " />
<glyph glyph-name="I" unicode="I" horiz-adv-x="316" d="M99 720 L347 720 L227 0 L-21 0 L99 720 Z " />
<glyph glyph-name="J" unicode="J" horiz-adv-x="435" d="M385 234 Q364 107 296.5 47 Q229 -13 127 -13 Q72 -13 30 -8 Q-12 -3 -44 6 L-1 204 Q11 201 30.5 198.5 Q50 196 70 196 Q104 196 119 209.5 Q134 223 141 261 L217 720 L466 720 L385 234 Z " />
<glyph glyph-name="K" unicode="K" horiz-adv-x="706" d="M99 720 L347 720 L304 458 L329 458 L496 720 L772 720 L528 364 L661 0 L379 0 L295 252 L269 252 L227 0 L-21 0 L99 720 Z " />
<glyph glyph-name="L" unicode="L" horiz-adv-x="566" d="M347 720 L262 209 L526 209 L491 0 L-21 0 L99 720 L347 720 Z " />
<glyph glyph-name="M" unicode="M" horiz-adv-x="871" d="M565 0 L611 331 L607 331 L472 0 L299 0 L270 329 L265 329 L200 0 L-33 0 L153 720 L394 720 L430 285 L435 285 L616 720 L850 720 L794 0 L565 0 Z " />
<glyph glyph-name="N" unicode="N" horiz-adv-x="716" d="M99 720 L307 720 L453 396 L506 720 L747 720 L627 0 L418 0 L268 299 L219 0 L-21 0 L99 720 Z " />
<glyph glyph-name="O" unicode="O" horiz-adv-x="781" d="M281 322 Q281 300 285.5 280.5 Q290 261 300.5 246 Q311 231 328.5 222.5 Q346 214 371 214 Q410 214 436.5 231 Q463 248 479 274 Q495 300 502 331.5 Q509 363 509 393 Q509 415 504.5 435 Q500 455 489.5 471 Q479 487 462 496.5 Q445 506 420 506 Q381 506 354.5 488 Q328 470 311.5 443 Q295 416 288 383.5 Q281 351 281 322 Z M18 291 Q18 389 48.5 470.5 Q79 552 135.5 611 Q192 670 272.5 702.5 Q353 735 453 735 Q532 735 592 712 Q652 689 692.5 648 Q733 607 753 550 Q773 493 773 425 Q773 329 742 248 Q711 167 654 108.5 Q597 50 516.5 17.5 Q436 -15 336 -15 Q256 -15 196.5 8 Q137 31 97 71.5 Q57 112 37.5 168 Q18 224 18 291 Z " />
<glyph glyph-name="P" unicode="P" horiz-adv-x="645" d="M311 505 L291 380 L335 380 Q369 380 386.5 402.5 Q404 425 404 456 Q404 477 392.5 491 Q381 505 360 505 L311 505 Z M99 720 L417 720 Q527 720 589.5 662.5 Q652 605 652 502 Q652 431 631 372.5 Q610 314 568 272 Q526 230 464.5 206.5 Q403 183 322 183 L258 183 L227 0 L-21 0 L99 720 Z " />
<glyph glyph-name="Q" unicode="Q" horiz-adv-x="781" d="M18 291 Q18 390 48.5 471.5 Q79 553 136 611.5 Q193 670 274.5 702.5 Q356 735 458 735 Q536 735 594.5 712 Q653 689 693 648 Q733 607 753 550 Q773 493 773 425 Q773 338 750 266.5 Q727 195 684 141 Q641 87 579 51 Q517 15 439 -3 L416 -145 L210 -145 L233 -4 Q179 8 139 34.5 Q99 61 72 99.5 Q45 138 31.5 186.5 Q18 235 18 291 Z M281 322 Q281 300 285.5 280.5 Q290 261 300.5 246 Q311 231 328.5 222.5 Q346 214 371 214 Q410 214 436.5 231 Q463 248 479 274 Q495 300 502 331.5 Q509 363 509 393 Q509 415 504.5 435 Q500 455 489.5 471 Q479 487 462 496.5 Q445 506 420 506 Q381 506 354.5 488 Q328 470 311.5 443 Q295 416 288 383.5 Q281 351 281 322 Z " />
<glyph glyph-name="R" unicode="R" horiz-adv-x="672" d="M414 720 Q476 720 522.5 705 Q569 690 600.5 662.5 Q632 635 648 596 Q664 557 664 510 Q664 431 632.5 370.5 Q601 310 532 267 L622 0 L368 0 L308 208 Q295 206 286 205.5 Q277 205 268 205 L261 205 L227 0 L-21 0 L99 720 L414 720 Z M311 508 L292 387 L343 387 Q373 387 392 408.5 Q411 430 411 459 Q411 479 399 493.5 Q387 508 364 508 L311 508 Z " />
<glyph glyph-name="S" unicode="S" horiz-adv-x="625" d="M111 268 Q134 252 159 238 Q184 224 209 213.5 Q234 203 257.5 197 Q281 191 301 191 Q320 191 327 199 Q334 207 334 215 Q334 221 329.5 225.5 Q325 230 312.5 235.5 Q300 241 279 247 Q258 253 225 262 Q191 271 160 286 Q129 301 105 324.5 Q81 348 67 382 Q53 416 53 463 Q53 528 77.5 579 Q102 630 146.5 665.5 Q191 701 251.5 719.5 Q312 738 384 738 Q453 738 521 714 Q589 690 640 648 L524 482 Q490 504 447.5 519.5 Q405 535 369 535 Q363 535 356 534.5 Q349 534 342.5 531.5 Q336 529 331.5 524.5 Q327 520 327 512 Q327 507 330.5 502.5 Q334 498 345.5 492.5 Q357 487 379.5 479 Q402 471 440 460 Q474 450 503 435.5 Q532 421 553 399.5 Q574 378 586 347.5 Q598 317 598 275 Q598 209 573.5 155 Q549 101 505.5 63 Q462 25 402.5 4.5 Q343 -16 272 -16 Q178 -16 99.5 17.5 Q21 51 -26 110 L111 268 Z " />
<glyph glyph-name="T" unicode="T" horiz-adv-x="644" d="M225 495 L37 495 L74 720 L698 720 L661 495 L473 495 L390 0 L142 0 L225 495 Z " />
<glyph glyph-name="U" unicode="U" horiz-adv-x="687" d="M342 720 L269 281 Q266 261 269 247 Q272 233 280.5 224.5 Q289 216 301 212.5 Q313 209 327 209 Q354 209 374.5 224 Q395 239 402 281 L475 720 L723 720 L650 282 Q636 197 605.5 140 Q575 83 530 48.5 Q485 14 425.5 -0.5 Q366 -15 293 -15 Q138 -15 68 63.5 Q-2 142 23 294 L94 720 L342 720 Z " />
<glyph glyph-name="V" unicode="V" horiz-adv-x="684" d="M55 720 L310 720 L333 265 L511 720 L759 720 L431 0 L142 0 L55 720 Z " />
<glyph glyph-name="W" unicode="W" horiz-adv-x="911" d="M55 720 L310 720 L291 325 L295 325 L411 720 L628 720 L612 323 L617 323 L729 720 L985 720 L711 0 L468 0 L465 389 L461 389 L330 0 L87 0 L55 720 Z " />
<glyph glyph-name="X" unicode="X" horiz-adv-x="722" d="M216 361 L67 720 L336 720 L397 549 L516 720 L796 720 L499 361 L663 0 L376 0 L319 153 L213 0 L-65 0 L216 361 Z " />
<glyph glyph-name="Y" unicode="Y" horiz-adv-x="728" d="M219 237 L55 720 L325 720 L382 466 L526 720 L803 720 L467 238 L427 0 L179 0 L219 237 Z " />
<glyph glyph-name="Z" unicode="Z" horiz-adv-x="652" d="M-14 158 L286 503 L48 503 L84 720 L698 720 L683 630 L334 217 L613 217 L577 0 L-40 0 L-14 158 Z " />
<glyph glyph-name="a" unicode="a" horiz-adv-x="645" d="M339 57 Q312 23 272 5 Q232 -13 184 -13 Q93 -13 50 39 Q7 91 7 191 Q7 287 33.5 354 Q60 421 101.5 463.5 Q143 506 194 525.5 Q245 545 293 545 Q329 545 364 535 Q399 525 424 491 L449 533 L642 533 L553 0 L346 0 L339 57 Z M372 346 Q365 355 354 359.5 Q343 364 332 364 Q311 364 297 350.5 Q283 337 275.5 317 Q268 297 265 273.5 Q262 250 262 230 Q262 168 301 168 Q312 168 323.5 171.5 Q335 175 345 184 L372 346 Z " />
<glyph glyph-name="b" unicode="b" horiz-adv-x="642" d="M250 182 Q261 174 270.5 171 Q280 168 293 168 Q326 168 344 204 Q362 240 362 303 Q362 364 327 364 Q316 364 302.5 359 Q289 354 278 346 L250 182 Z M-18 0 L102 720 L340 720 L305 505 Q328 522 362 533.5 Q396 545 439 545 Q472 545 504 534 Q536 523 560.5 498.5 Q585 474 600.5 433.5 Q616 393 616 334 Q616 255 597.5 191 Q579 127 543.5 81.5 Q508 36 457 11.5 Q406 -13 340 -13 Q285 -13 251 5.5 Q217 24 195 52 L164 0 L-18 0 Z " />
<glyph glyph-name="c" unicode="c" horiz-adv-x="569" d="M500 66 Q478 52 449.5 38 Q421 24 388 12.5 Q355 1 318 -6 Q281 -13 242 -13 Q192 -13 149 2 Q106 17 74 46 Q42 75 23.5 119 Q5 163 5 220 Q5 287 27.5 346 Q50 405 93 449.5 Q136 494 198 519.5 Q260 545 339 545 Q397 545 441.5 531.5 Q486 518 514.5 488.5 Q543 459 553.5 413.5 Q564 368 554 304 L359 304 Q364 336 356.5 350 Q349 364 327 364 Q297 364 278.5 332.5 Q260 301 260 241 Q260 204 275.5 188.5 Q291 173 318 173 Q348 173 389.5 185 Q431 197 476 214 L500 66 Z " />
<glyph glyph-name="d" unicode="d" horiz-adv-x="641" d="M337 57 Q310 23 270 5 Q230 -13 182 -13 Q91 -13 48 39 Q5 91 5 191 Q5 287 31.5 354 Q58 421 99.5 463.5 Q141 506 192 525.5 Q243 545 291 545 Q319 545 348.5 537 Q378 529 398 510 L433 720 L671 720 L551 0 L344 0 L337 57 Z M370 346 Q363 355 352 359.5 Q341 364 330 364 Q309 364 295 350.5 Q281 337 273.5 317 Q266 297 263 273.5 Q260 250 260 230 Q260 168 299 168 Q310 168 321.5 171.5 Q333 175 343 184 L370 346 Z " />
<glyph glyph-name="e" unicode="e" horiz-adv-x="577" d="M490 42 Q436 16 377.5 1.5 Q319 -13 246 -13 Q187 -13 142.5 3.5 Q98 20 68 49.5 Q38 79 22.5 120.5 Q7 162 7 212 Q7 285 31.5 346 Q56 407 100.5 451.5 Q145 496 207.5 520.5 Q270 545 346 545 Q400 545 442 531.5 Q484 518 513 494.5 Q542 471 557 438.5 Q572 406 572 368 Q572 327 557 297.5 Q542 268 506 247.5 Q470 227 409.5 214 Q349 201 257 193 Q257 188 259 182 Q261 176 267 170.5 Q273 165 283 161 Q293 157 309 157 Q340 157 378.5 163 Q417 169 473 183 L490 42 Z M256 312 Q312 314 333 329 Q354 344 354 358 Q354 375 344.5 382 Q335 389 321 389 Q312 389 302 385.5 Q292 382 282.5 373.5 Q273 365 266 350 Q259 335 256 312 Z " />
<glyph glyph-name="f" unicode="f" horiz-adv-x="386" d="M80 374 L12 374 L33 499 L105 525 L107 535 Q124 635 180.5 683.5 Q237 732 339 732 Q377 732 405 728.5 Q433 725 461 717 L424 562 Q402 570 380 570 Q362 570 355 561.5 Q348 553 346 543 L344 533 L411 533 L385 374 L318 374 L255 0 L17 0 L80 374 Z " />
<glyph glyph-name="g" unicode="g" horiz-adv-x="639" d="M562 71 Q549 -8 523 -61.5 Q497 -115 457.5 -148 Q418 -181 365 -195.5 Q312 -210 244 -210 Q213 -210 181.5 -207 Q150 -204 120.5 -198.5 Q91 -193 65.5 -186.5 Q40 -180 22 -174 L80 -21 Q112 -29 153 -35.5 Q194 -42 236 -42 Q278 -42 298.5 -26 Q319 -10 326 28 L333 74 Q301 39 261.5 26 Q222 13 187 13 Q149 13 116 21 Q83 29 58 50 Q33 71 19 106.5 Q5 142 5 198 Q5 276 25.5 340 Q46 404 83.5 449.5 Q121 495 172.5 520 Q224 545 287 545 Q332 545 366 530.5 Q400 516 421 491 L446 533 L639 533 L562 71 Z M369 346 Q353 364 329 364 Q315 364 303 354.5 Q291 345 281.5 328.5 Q272 312 266.5 290.5 Q261 269 261 245 Q261 216 271.5 204.5 Q282 193 303 193 Q326 193 346 209 L369 346 Z " />
<glyph glyph-name="h" unicode="h" horiz-adv-x="605" d="M335 720 L298 496 Q327 519 365.5 532 Q404 545 445 545 Q480 545 509 534.5 Q538 524 557.5 502.5 Q577 481 585 449.5 Q593 418 586 376 L523 0 L284 0 L337 314 Q342 344 336 353.5 Q330 363 315 363 Q295 363 273 347 L215 0 L-23 0 L97 720 L335 720 Z " />
<glyph glyph-name="i" unicode="i" horiz-adv-x="305" d="M82 649 Q82 678 93.5 700 Q105 722 124.5 736.5 Q144 751 170 758.5 Q196 766 226 766 Q277 766 308 745 Q339 724 339 680 Q339 621 297 592.5 Q255 564 192 564 Q144 564 113 585 Q82 606 82 649 Z M218 0 L-20 0 L69 533 L307 533 L218 0 Z " />
<glyph glyph-name="j" unicode="j" horiz-adv-x="307" d="M218 -11 Q201 -111 144.5 -159.5 Q88 -208 -15 -208 Q-85 -208 -130 -193 L-94 -39 Q-74 -43 -57 -43 Q-39 -43 -31 -36 Q-23 -29 -20 -9 L71 533 L309 533 L218 -11 Z M87 649 Q87 678 98.5 700 Q110 722 129.5 736.5 Q149 751 175 758.5 Q201 766 231 766 Q282 766 313 745 Q344 724 344 680 Q344 621 302 592.5 Q260 564 197 564 Q149 564 118 585 Q87 606 87 649 Z " />
<glyph glyph-name="k" unicode="k" horiz-adv-x="619" d="M282 381 L300 381 L387 533 L641 533 L480 290 L574 0 L313 0 L261 192 L250 192 L218 0 L-20 0 L100 720 L338 720 L282 381 Z " />
<glyph glyph-name="l" unicode="l" horiz-adv-x="305" d="M-20 0 L100 720 L338 720 L218 0 L-20 0 Z " />
<glyph glyph-name="m" unicode="m" horiz-adv-x="867" d="M66 533 L305 533 Q382 533 416.5 513 Q451 493 459 455 Q497 495 551 520 Q605 545 669 545 Q717 545 753 533 Q789 521 811.5 494.5 Q834 468 841 425 Q848 382 838 320 L784 0 L550 0 L604 324 Q611 364 581 364 Q574 364 566.5 361.5 Q559 359 552 355 L493 0 L271 0 L324 315 Q328 338 321.5 348 Q315 358 298 358 L270 358 L210 0 L-23 0 L66 533 Z " />
<glyph glyph-name="n" unicode="n" horiz-adv-x="596" d="M259 533 L274 485 Q299 506 341 525.5 Q383 545 430 545 Q467 545 497.5 534.5 Q528 524 548 502.5 Q568 481 575.5 448.5 Q583 416 576 372 L514 0 L277 0 L330 319 Q335 346 330 355 Q325 364 310 364 Q301 364 292.5 360 Q284 356 273 348 L215 0 L-23 0 L66 533 L259 533 Z " />
<glyph glyph-name="o" unicode="o" horiz-adv-x="643" d="M327 364 Q305 364 291.5 349 Q278 334 270 312 Q262 290 259 266 Q256 242 256 224 Q256 169 294 169 Q314 169 327.5 184.5 Q341 200 349 222.5 Q357 245 360 269 Q363 293 363 310 Q363 364 327 364 Z M5 219 Q5 296 30 356.5 Q55 417 101 459 Q147 501 211 523 Q275 545 352 545 Q409 545 457.5 531 Q506 517 541.5 488.5 Q577 460 597 416 Q617 372 617 312 Q617 231 591.5 170 Q566 109 520 68.5 Q474 28 409.5 7.5 Q345 -13 266 -13 Q206 -13 157.5 1 Q109 15 75.5 43.5 Q42 72 23.5 116 Q5 160 5 219 Z " />
<glyph glyph-name="p" unicode="p" horiz-adv-x="638" d="M248 180 Q267 169 286 169 Q323 169 340.5 205 Q358 241 358 301 Q358 361 322 361 Q300 361 276 346 L248 180 Z M-53 -200 L69 533 L261 533 L282 488 Q321 520 357.5 532.5 Q394 545 437 545 Q470 545 501.5 534 Q533 523 557.5 498.5 Q582 474 597 433.5 Q612 393 612 335 Q612 257 594.5 193 Q577 129 543 83.5 Q509 38 458 13 Q407 -12 341 -12 Q296 -12 267.5 0 Q239 12 222 25 L185 -200 L-53 -200 Z " />
<glyph glyph-name="q" unicode="q" horiz-adv-x="640" d="M316 28 Q296 12 266 0 Q236 -12 192 -12 Q98 -12 51.5 40.5 Q5 93 5 194 Q5 288 31.5 355 Q58 422 100 464 Q142 506 193.5 525.5 Q245 545 296 545 Q324 545 359.5 536.5 Q395 528 424 497 L465 533 L640 533 L518 -200 L278 -200 L316 28 Z M370 346 Q363 355 352 359.5 Q341 364 330 364 Q309 364 295 350.5 Q281 337 273.5 317 Q266 297 263 273.5 Q260 250 260 230 Q260 201 268.5 184.5 Q277 168 297 168 Q308 168 320.5 172 Q333 176 343 184 L370 346 Z " />
<glyph glyph-name="r" unicode="r" horiz-adv-x="413" d="M268 471 Q291 503 319 524 Q347 545 379 545 Q399 545 413.5 541 Q428 537 441 530 L393 329 Q375 334 364 335.5 Q353 337 333 337 Q318 337 299.5 330.5 Q281 324 267 312 L215 0 L-23 0 L66 533 L249 533 L268 471 Z " />
<glyph glyph-name="s" unicode="s" horiz-adv-x="519" d="M73 210 Q89 196 108 185 Q127 174 145.5 166 Q164 158 180.5 153.5 Q197 149 208 149 Q229 149 229 162 Q229 173 216.5 177.5 Q204 182 171 195 Q145 205 119 216.5 Q93 228 72 245.5 Q51 263 38 287.5 Q25 312 25 348 Q25 399 47 436.5 Q69 474 106.5 498 Q144 522 192.5 534 Q241 546 294 546 Q363 546 423.5 527 Q484 508 522 475 L427 348 Q395 365 361.5 378.5 Q328 392 306 392 Q300 392 290 390 Q280 388 280 378 Q280 375 282.5 371.5 Q285 368 292 363.5 Q299 359 312.5 353 Q326 347 349 340 Q373 332 397 322 Q421 312 440 296.5 Q459 281 471 258 Q483 235 483 201 Q483 144 461.5 103.5 Q440 63 404.5 37 Q369 11 322 -1 Q275 -13 224 -13 Q139 -13 71 12.5 Q3 38 -43 89 L73 210 Z " />
<glyph glyph-name="t" unicode="t" horiz-adv-x="404" d="M318 374 L288 198 Q286 184 290.5 176.5 Q295 169 312 169 Q323 169 333.5 170.5 Q344 172 352 174 L345 12 Q302 -2 264.5 -7.5 Q227 -13 185 -13 Q139 -13 109 -0.5 Q79 12 62 34 Q45 56 40.5 86 Q36 116 42 151 L80 374 L8 374 L27 491 L112 531 L149 697 L372 697 L344 533 L425 533 L399 374 L318 374 Z " />
<glyph glyph-name="u" unicode="u" horiz-adv-x="602" d="M328 0 L307 55 Q247 -13 150 -13 Q68 -13 29 31.5 Q-10 76 4 161 L66 533 L305 533 L250 205 Q244 169 271 169 Q281 169 292.5 173.5 Q304 178 309 185 L367 533 L605 533 L516 0 L328 0 Z " />
<glyph glyph-name="v" unicode="v" horiz-adv-x="572" d="M255 533 L266 232 L270 232 L383 533 L609 533 L352 0 L97 0 L17 533 L255 533 Z " />
<glyph glyph-name="w" unicode="w" horiz-adv-x="829" d="M873 533 L635 0 L394 0 L404 228 L399 228 L330 0 L84 0 L24 533 L260 533 L257 244 L261 244 L337 533 L561 533 L551 244 L554 244 L637 533 L873 533 Z " />
<glyph glyph-name="x" unicode="x" horiz-adv-x="604" d="M141 262 L29 533 L287 533 L318 420 L396 533 L646 533 L436 262 L558 0 L306 0 L265 117 L187 0 L-65 0 L141 262 Z " />
<glyph glyph-name="y" unicode="y" horiz-adv-x="584" d="M27 -23 L99 -23 Q120 -23 126 -16 Q132 -9 134 2 L137 18 L23 533 L271 533 L279 247 L283 247 L382 533 L627 533 L360 40 L348 -27 Q334 -114 282.5 -157 Q231 -200 139 -200 L-2 -200 L27 -23 Z " />
<glyph glyph-name="z" unicode="z" horiz-adv-x="488" d="M-9 145 L174 357 L30 357 L59 533 L503 533 L488 441 L275 175 L445 175 L416 0 L-33 0 L-9 145 Z " />
<glyph glyph-name="bracketleft" unicode="&#x5b;" horiz-adv-x="392" d="M-33 -125 L108 720 L414 720 L385 546 L298 546 L215 47 L302 47 L273 -125 L-33 -125 Z " />
<glyph glyph-name="bracketright" unicode="&#x5d;" horiz-adv-x="392" d="M-33 -125 L-4 47 L83 47 L166 546 L79 546 L108 720 L414 720 L273 -125 L-33 -125 Z " />
<glyph glyph-name="parenleft" unicode="&#x28;" horiz-adv-x="391" d="M427 666 Q343 566 296 459 Q249 352 249 243 Q249 180 266.5 110 Q284 40 324 -43 L158 -149 Q129 -118 103.5 -77 Q78 -36 59.5 12 Q41 60 30 114 Q19 168 19 225 Q19 370 84.5 499 Q150 628 275 749 L427 666 Z " />
<glyph glyph-name="parenright" unicode="&#x29;" horiz-adv-x="391" d="M-37 -66 Q47 34 94 141 Q141 248 141 357 Q141 420 123.5 490 Q106 560 66 643 L232 749 Q261 718 286.5 677 Q312 636 330.5 588 Q349 540 360 486 Q371 432 371 375 Q371 230 305.5 101 Q240 -28 115 -149 L-37 -66 Z " />
<glyph glyph-name="braceleft" unicode="&#x7b;" horiz-adv-x="458" d="M418 557 Q404 557 395 553.5 Q386 550 380 539.5 Q374 529 370 511 Q366 493 361 463 Q356 434 351.5 412 Q347 390 342 373 Q332 341 310 322 Q288 303 256 290 Q281 282 294 271 Q307 260 312 243 Q317 226 315 201.5 Q313 177 307 141 Q301 107 298.5 86.5 Q296 66 300 55 Q304 44 315.5 40.5 Q327 37 349 37 L378 37 L352 -125 L288 -125 Q220 -125 175.5 -118 Q131 -111 106.5 -91 Q82 -71 76.5 -34.5 Q71 2 81 61 L98 166 Q103 194 94 201.5 Q85 209 65 209 L24 209 L49 366 L80 366 Q97 366 107.5 369.5 Q118 373 125.5 383.5 Q133 394 137.5 412.5 Q142 431 147 460 L160 536 Q169 589 188.5 624.5 Q208 660 240 681 Q272 702 319 711 Q366 720 429 720 L493 720 L466 557 L418 557 Z " />
<glyph glyph-name="braceright" unicode="&#x7d;" horiz-adv-x="450" d="M66 557 L93 720 L157 720 Q220 720 264 711 Q308 702 333 681 Q358 660 365.5 624.5 Q373 589 364 536 L351 460 Q346 431 344.5 412.5 Q343 394 346.5 383.5 Q350 373 359.5 369.5 Q369 366 386 366 L417 366 L392 209 L351 209 Q331 209 319 201.5 Q307 194 302 166 L285 61 Q275 2 257 -34.5 Q239 -71 208 -91 Q177 -111 130.5 -118 Q84 -125 16 -125 L-48 -125 L-22 37 L7 37 Q29 37 42 40.5 Q55 44 63 55 Q71 66 75.5 86.5 Q80 107 86 141 Q92 177 98 201.5 Q104 226 114.5 243 Q125 260 141.5 271 Q158 282 186 290 Q158 303 142.5 322 Q127 341 128 373 Q129 390 132 412 Q135 434 140 463 Q145 493 147 511 Q149 529 146.5 539.5 Q144 550 136.5 553.5 Q129 557 115 557 L66 557 Z " />
<glyph glyph-name="backslash" unicode="&#x5c;" horiz-adv-x="511" d="M479 -92 L292 -92 L65 739 L253 739 L479 -92 Z " />
<glyph glyph-name="slash" unicode="&#x2f;" horiz-adv-x="436" d="M303 739 L491 739 L125 -92 L-62 -92 L303 739 Z " />
<glyph glyph-name="brokenbar" unicode="&#xa6;" horiz-adv-x="500" d="M353 -200 L147 -200 L147 230 L353 230 L353 -200 Z M353 290 L147 290 L147 720 L353 720 L353 290 Z " />
<glyph glyph-name="bar" unicode="&#x7c;" horiz-adv-x="500" d="M353 -200 L147 -200 L147 720 L353 720 L353 -200 Z " />
<glyph glyph-name="asciicircum" unicode="&#x5e;" horiz-adv-x="721" d="M658 452 L531 360 L395 532 L195 359 L94 453 L360 693 L477 693 L658 452 Z " />
<glyph glyph-name="underscore" unicode="&#x5f;" horiz-adv-x="458" d="M-74 -84 L396 -84 L369 -244 L-101 -244 L-74 -84 Z " />
<glyph glyph-name="asciitilde" unicode="&#x7e;" horiz-adv-x="787" d="M699 270 Q652 241 603 224 Q554 207 497 207 Q463 207 432 214.5 Q401 222 368 230 L356 233 Q328 241 304 247 Q280 253 257 253 Q230 253 193 241.5 Q156 230 111 207 L79 335 Q127 364 176 381 Q225 398 282 398 Q314 398 345.5 391 Q377 384 407.5 375 Q438 366 466.5 359 Q495 352 521 352 Q526 352 532 352.5 Q538 353 544 354 Q596 362 669 398 L699 270 Z " />
<glyph glyph-name="zero" unicode="0" horiz-adv-x="614" d="M256 350 Q245 286 245 251 Q245 220 254 205.5 Q263 191 285 191 Q317 191 335.5 228.5 Q354 266 369 355 Q374 387 377.5 412.5 Q381 438 381 458 Q381 488 372 503 Q363 518 341 518 Q306 518 288 478 Q270 438 256 350 Z M24 350 Q38 446 68.5 516 Q99 586 143 631.5 Q187 677 245 698.5 Q303 720 373 720 Q489 720 549 657 Q609 594 609 469 Q609 445 607.5 419.5 Q606 394 601 365 Q586 264 556 192.5 Q526 121 482.5 75 Q439 29 381 8 Q323 -13 253 -13 Q15 -13 15 243 Q15 291 24 350 Z " />
<glyph glyph-name="one" unicode="1" horiz-adv-x="543" d="M34 181 L155 181 L197 429 Q133 410 66 419 L64 576 Q124 593 184.5 628.5 Q245 664 290 709 L474 709 L385 181 L498 181 L468 0 L4 0 L34 181 Z " />
<glyph glyph-name="two" unicode="2" horiz-adv-x="563" d="M2 141 L231 355 Q280 400 300.5 426.5 Q321 453 321 479 Q321 497 309 505 Q297 513 277 513 Q243 513 200 492 Q157 471 116 444 L48 591 Q79 619 115 642.5 Q151 666 189 683 Q227 700 266.5 710 Q306 720 345 720 Q391 720 431 709.5 Q471 699 500 676.5 Q529 654 545.5 620 Q562 586 562 540 Q562 501 554 470.5 Q546 440 528.5 412.5 Q511 385 483 356 Q455 327 415 291 L307 193 L523 193 L491 0 L-22 0 L2 141 Z " />
<glyph glyph-name="three" unicode="3" horiz-adv-x="571" d="M55 235 Q88 215 130 199.5 Q172 184 210 184 Q243 184 268.5 196 Q294 208 294 242 Q294 265 275 273 Q256 281 226 281 Q208 281 188 279 Q168 277 152 274 L172 427 Q202 428 228 432.5 Q254 437 273.5 445.5 Q293 454 304.5 466 Q316 478 316 495 Q316 527 270 527 Q235 527 202 517 Q169 507 137 492 L78 636 Q112 657 144 672.5 Q176 688 208.5 698.5 Q241 709 276 714.5 Q311 720 350 720 Q438 720 490 680 Q542 640 542 569 Q542 499 497.5 448.5 Q453 398 380 372 Q438 365 472 330.5 Q506 296 506 234 Q506 170 481 123.5 Q456 77 414 46.5 Q372 16 316 1.5 Q260 -13 197 -13 Q165 -13 132.5 -7 Q100 -1 70 11.5 Q40 24 14 43 Q-12 62 -31 87 L55 235 Z " />
<glyph glyph-name="four" unicode="4" horiz-adv-x="640" d="M328 307 L360 498 L221 307 L328 307 Z M299 129 L-4 129 L25 304 L338 709 L609 709 L541 307 L617 307 L588 129 L512 129 L490 0 L277 0 L299 129 Z " />
<glyph glyph-name="five" unicode="5" horiz-adv-x="546" d="M129 709 L546 709 L502 523 L254 523 L235 446 Q254 457 282 465 Q310 473 352 473 Q422 473 467.5 429 Q513 385 513 295 Q513 218 486 160.5 Q459 103 415 64.5 Q371 26 313.5 6.5 Q256 -13 195 -13 Q126 -13 64.5 13 Q3 39 -31 86 L55 233 Q77 221 96 212 Q115 203 132.5 196.5 Q150 190 168 187 Q186 184 206 184 Q219 184 234 188.5 Q249 193 262 203.5 Q275 214 283.5 231 Q292 248 292 274 Q292 322 246 322 Q232 322 218.5 317.5 Q205 313 195 305 L186 272 L23 272 L129 709 Z " />
<glyph glyph-name="six" unicode="6" horiz-adv-x="588" d="M20 253 Q20 346 44.5 431 Q69 516 116.5 580 Q164 644 232.5 682 Q301 720 389 720 Q440 720 488.5 708 Q537 696 590 666 L513 517 Q486 530 451 536 Q416 542 387 542 Q341 542 304 509 Q267 476 254 413 Q281 434 319.5 449 Q358 464 400 464 Q432 464 461.5 455 Q491 446 513 426 Q535 406 548 374.5 Q561 343 561 299 Q561 215 534 155.5 Q507 96 463 58.5 Q419 21 363 4 Q307 -13 250 -13 Q189 -13 145.5 7 Q102 27 74 62.5 Q46 98 33 146.5 Q20 195 20 253 Z M277 179 Q310 179 326 201.5 Q342 224 342 259 Q342 279 332 291.5 Q322 304 300 304 Q287 304 269.5 297 Q252 290 241 277 Q238 257 236.5 239.5 Q235 222 238 208.5 Q241 195 250 187 Q259 179 277 179 Z " />
<glyph glyph-name="seven" unicode="7" horiz-adv-x="520" d="M244 0 L4 0 L8 21 L305 516 L51 516 L84 709 L579 709 L556 571 L244 0 Z " />
<glyph glyph-name="eight" unicode="8" horiz-adv-x="589" d="M203 208 Q203 191 215 179.5 Q227 168 256 168 Q277 168 293.5 180.5 Q310 193 310 213 Q310 237 289 252 Q268 267 242 281 Q227 267 215 246 Q203 225 203 208 Z M297 514 Q297 500 310 486 Q323 472 348 455 Q361 469 372 488 Q383 507 383 523 Q383 540 371 547.5 Q359 555 344 555 Q324 555 310.5 543 Q297 531 297 514 Z M-4 157 Q-4 200 10 234 Q24 268 44.5 293.5 Q65 319 88.5 336.5 Q112 354 131 364 Q109 378 88 410.5 Q67 443 67 490 Q67 538 88 580 Q109 622 147.5 653 Q186 684 239.5 702 Q293 720 359 720 Q468 720 525.5 677 Q583 634 583 560 Q583 526 571.5 498 Q560 470 543.5 447.5 Q527 425 508.5 409 Q490 393 476 383 Q505 360 529 325.5 Q553 291 553 237 Q553 176 529.5 129.5 Q506 83 464 51.5 Q422 20 364 3.5 Q306 -13 237 -13 Q125 -13 60.5 30 Q-4 73 -4 157 Z " />
<glyph glyph-name="nine" unicode="9" horiz-adv-x="589" d="M576 471 Q576 379 551 291.5 Q526 204 478.5 136 Q431 68 364 27 Q297 -14 213 -14 Q156 -14 105.5 -2.5 Q55 9 2 36 L77 190 Q90 184 107 178.5 Q124 173 141.5 169 Q159 165 176.5 163 Q194 161 209 161 Q261 161 288 196 Q315 231 332 291 Q305 270 271 258 Q237 246 199 246 Q127 246 80 289 Q33 332 33 416 Q33 496 61 553.5 Q89 611 133 648 Q177 685 232.5 702.5 Q288 720 343 720 Q463 720 519.5 654.5 Q576 589 576 471 Z M317 529 Q285 529 269 510.5 Q253 492 253 459 Q253 415 295 415 Q308 415 325.5 422 Q343 429 354 442 Q357 457 358 472 Q359 487 355.5 500 Q352 513 343 521 Q334 529 317 529 Z " />
<glyph glyph-name="dollar" unicode="&#x24;" horiz-adv-x="554" d="M153 7 Q96 19 50 48 Q4 77 -30 122 L94 254 Q134 223 178 199 Q222 175 257 175 Q273 175 282.5 180 Q292 185 292 197 Q292 203 288 208.5 Q284 214 272.5 220.5 Q261 227 241 235 Q221 243 189 254 Q118 278 79.5 321 Q41 364 41 432 Q41 486 58.5 527.5 Q76 569 106.5 599 Q137 629 178 648 Q219 667 266 676 L280 760 L438 760 L424 673 Q466 662 504 643 Q542 624 570 596 L468 456 Q436 477 399 493.5 Q362 510 325 510 Q278 510 278 483 Q278 477 282 471 Q286 465 298 458.5 Q310 452 331 443 Q352 434 386 422 Q454 397 490.5 359.5 Q527 322 527 255 Q527 154 469 90 Q411 26 312 6 L296 -88 L137 -88 L153 7 Z " />
<glyph glyph-name="Euro" unicode="&#x20ac;" horiz-adv-x="621" d="M26 431 L88 431 Q108 493 140.5 546 Q173 599 217 637.5 Q261 676 316 698 Q371 720 437 720 Q500 720 557 698 Q614 676 659 631 L556 494 Q527 515 492.5 525.5 Q458 536 426 536 Q383 536 354 506 Q325 476 310 431 L507 431 L474 284 L283 284 Q281 237 304 210 Q327 183 370 183 Q403 183 445.5 196.5 Q488 210 527 231 L572 88 Q497 35 432.5 11 Q368 -13 299 -13 Q240 -13 194 8.5 Q148 30 117 69 Q86 108 71 163 Q56 218 60 284 L-9 284 L26 431 Z " />
<glyph glyph-name="cent" unicode="&#xa2;" horiz-adv-x="560" d="M178 88 Q143 97 113.5 115.5 Q84 134 62 162 Q40 190 27.5 226.5 Q15 263 15 308 Q15 365 32.5 415.5 Q50 466 82.5 506 Q115 546 161.5 574 Q208 602 267 615 L284 719 L441 719 L424 617 Q512 600 541 543 Q570 486 552 395 L371 395 Q376 424 366 439.5 Q356 455 333 455 Q313 455 298 445 Q283 435 273 418 Q263 401 258 378.5 Q253 356 253 331 Q253 290 271 271.5 Q289 253 318 253 Q354 253 391 264.5 Q428 276 478 302 L510 168 Q473 142 429.5 121 Q386 100 336 89 L318 -17 L160 -17 L178 88 Z " />
<glyph glyph-name="sterling" unicode="&#xa3;" horiz-adv-x="551" d="M310 260 Q310 238 299.5 217.5 Q289 197 276 186 L508 186 L477 0 L-25 0 L3 165 L79 181 Q98 192 108.5 214.5 Q119 237 119 260 Q119 271 118 283 Q117 295 115 301 L25 301 L48 436 L97 436 Q93 444 90 463 Q87 482 87 505 Q87 550 105 589.5 Q123 629 157.5 658 Q192 687 242.5 703.5 Q293 720 358 720 Q392 720 425.5 713 Q459 706 489 693 Q519 680 545 662 Q571 644 590 622 L482 485 Q454 509 425 521 Q396 533 362 533 Q324 533 310 516.5 Q296 500 296 476 Q296 466 297.5 454.5 Q299 443 301 436 L425 436 L402 301 L306 301 Q308 293 309 281 Q310 269 310 260 Z " />
<glyph glyph-name="yen" unicode="&#xa5;" horiz-adv-x="617" d="M557 217 L394 217 L358 0 L140 0 L176 217 L24 217 L52 384 L153 384 L49 709 L281 709 L332 491 L463 709 L696 709 L475 384 L585 384 L557 217 Z " />
<glyph glyph-name="florin" unicode="&#x192;" horiz-adv-x="515" d="M28 -32 Q48 -32 59 -22 Q70 -12 75 11 L134 279 L51 279 L51 433 L166 433 L177 497 Q186 546 199.5 585.5 Q213 625 237 652.5 Q261 680 299.5 694.5 Q338 709 396 709 L510 709 L510 536 L445 536 Q425 536 415.5 524.5 Q406 513 402 492 L392 433 L476 433 L476 279 L361 279 L302 2 Q293 -39 278 -75.5 Q263 -112 237.5 -140 Q212 -168 173.5 -184 Q135 -200 80 -200 L-10 -200 L-10 -32 L28 -32 Z " />
<glyph glyph-name="section" unicode="&#xa7;" horiz-adv-x="528" d="M85 200 Q98 190 115.5 179.5 Q133 169 151 160.5 Q169 152 187 146.5 Q205 141 219 141 Q236 141 242 146 Q248 151 248 159 Q248 167 238.5 172 Q229 177 203 188 L134 217 Q56 250 56 325 Q56 370 76 399.5 Q96 429 131 453 Q89 489 89 540 Q89 587 110 623 Q131 659 165.5 683.5 Q200 708 244 720.5 Q288 733 334 733 Q402 733 457 715 Q512 697 549 659 L473 542 Q427 565 391.5 573.5 Q356 582 333 582 Q317 582 307.5 577 Q298 572 298 564 Q298 555 313.5 546.5 Q329 538 377 519 Q412 505 435 491.5 Q458 478 472 464 Q486 450 491.5 435 Q497 420 497 403 Q497 355 470 323.5 Q443 292 405 272 Q467 234 467 175 Q467 123 444.5 87.5 Q422 52 387 30 Q352 8 310 -2 Q268 -12 228 -12 Q195 -12 162 -6 Q129 0 98 11.5 Q67 23 41 41 Q15 59 -4 83 L85 200 Z M258 395 Q241 373 241 363 Q241 354 249.5 346 Q258 338 284 328 Q292 337 296.5 345 Q301 353 301 361 Q301 378 258 395 Z " />
<glyph glyph-name="copyright" unicode="&#xa9;" horiz-adv-x="820" d="M582 224 Q545 191 503.5 176 Q462 161 411 161 Q370 161 338 176 Q306 191 283.5 217 Q261 243 249 279.5 Q237 316 237 358 Q237 402 249.5 439 Q262 476 285.5 503 Q309 530 343.5 545 Q378 560 422 560 Q487 560 533 523.5 Q579 487 584 408 L477 408 Q474 434 462 448 Q450 462 421 462 Q390 462 371.5 436.5 Q353 411 353 359 Q353 308 374 284.5 Q395 261 427 261 Q459 261 485.5 273 Q512 285 536 299 L582 224 Z M415 645 Q357 645 306 625 Q255 605 217 567.5 Q179 530 157 477.5 Q135 425 135 360 Q135 294 155.5 241.5 Q176 189 213.5 152 Q251 115 302 95 Q353 75 415 75 Q473 75 524.5 97.5 Q576 120 614 158.5 Q652 197 674.5 249 Q697 301 697 360 Q697 423 677.5 475 Q658 527 621 565 Q584 603 532 624 Q480 645 415 645 Z M415 720 Q498 720 565 694.5 Q632 669 678.5 622.5 Q725 576 750 510.5 Q775 445 775 364 Q775 285 746.5 218 Q718 151 669 102.5 Q620 54 554.5 27 Q489 0 415 0 Q342 0 277 23.5 Q212 47 162.5 92.5 Q113 138 84 205 Q55 272 55 360 Q55 441 83.5 507.5 Q112 574 161 621.5 Q210 669 275.5 694.5 Q341 720 415 720 Z " />
<glyph glyph-name="registered" unicode="&#xae;" horiz-adv-x="424" d="M252 635 Q290 635 309 617.5 Q328 600 328 572 Q328 538 298 522 L338 453 L283 453 L251 513 Q246 512 236 512 L226 512 L226 453 L177 453 L177 635 L252 635 Z M226 594 L226 548 L250 548 Q264 548 270.5 554.5 Q277 561 277 571 Q277 581 271 587.5 Q265 594 251 594 L226 594 Z M251 684 Q222 684 197 674 Q172 664 153.5 645.5 Q135 627 124 601 Q113 575 113 544 Q113 475 150.5 438.5 Q188 402 251 402 Q280 402 305 413 Q330 424 348.5 443 Q367 462 377.5 488 Q388 514 388 543 Q388 576 377.5 602.5 Q367 629 348.5 647 Q330 665 305 674.5 Q280 684 251 684 Z M251 735 Q291 735 326 721.5 Q361 708 387 683 Q413 658 428 622.5 Q443 587 443 543 Q443 503 428 468 Q413 433 387 407 Q361 381 326 366 Q291 351 251 351 Q209 351 174 363.5 Q139 376 113.5 400 Q88 424 73.5 460 Q59 496 59 543 Q59 585 74 620.5 Q89 656 115 681.5 Q141 707 176 721 Q211 735 251 735 Z " />
<glyph glyph-name="trademark" unicode="&#x2122;" horiz-adv-x="675" d="M604 443 L593 582 L556 443 L488 443 L449 582 L438 443 L347 443 L377 720 L477 720 L520 570 L564 720 L664 720 L693 443 L604 443 Z M154 635 L73 635 L73 720 L333 720 L333 635 L251 635 L251 443 L154 443 L154 635 Z " />
<glyph glyph-name="ordfeminine" unicode="&#xaa;" horiz-adv-x="563" d="M320 307 Q299 282 267.5 268.5 Q236 255 199 255 Q128 255 94.5 293.5 Q61 332 61 407 Q61 477 82 527 Q103 577 135.5 608 Q168 639 207.5 653.5 Q247 668 285 668 Q313 668 340 660.5 Q367 653 387 628 L406 659 L557 659 L487 265 L326 265 L320 307 Z M345 520 Q340 527 332 530.5 Q324 534 315 534 Q298 534 287.5 524 Q277 514 271 499 Q265 484 262.5 467 Q260 450 260 435 Q260 389 291 389 Q299 389 308 391.5 Q317 394 325 401 L345 520 Z " />
<glyph glyph-name="ordmasculine" unicode="&#xba;" horiz-adv-x="521" d="M233 434 Q233 405 243 392.5 Q253 380 271 380 Q298 380 315.5 406.5 Q333 433 333 488 Q333 518 323.5 530.5 Q314 543 298 543 Q233 543 233 434 Z M57 423 Q57 487 80 533.5 Q103 580 140 610 Q177 640 224 654 Q271 668 319 668 Q357 668 391.5 658 Q426 648 452 627 Q478 606 493 573.5 Q508 541 508 497 Q508 434 484.5 388 Q461 342 424 312.5 Q387 283 341 269 Q295 255 250 255 Q207 255 171.5 265 Q136 275 110.5 295.5 Q85 316 71 347.5 Q57 379 57 423 Z " />
<glyph glyph-name="guillemotleft" unicode="&#xab;" horiz-adv-x="584" d="M548.001 156.022 L415.009 51.0288 L274.018 227.018 L286.017 297.014 L486.005 472.003 L580.999 364.01 L469.006 261.016 L548.001 156.022 Z M279.001 156.022 L146.009 51.0288 L5.0177 227.018 L17.017 297.014 L217.005 472.003 L311.999 364.01 L200.006 261.016 L279.001 156.022 Z " />
<glyph glyph-name="guillemotright" unicode="&#xbb;" horiz-adv-x="584" d="M285 367 L418 472 L559 296 L547 226 L347 51 L252 159 L364 262 L285 367 Z M16 367 L149 472 L290 296 L278 226 L78 51 L-17 159 L95 262 L16 367 Z " />
<glyph glyph-name="guilsinglleft" unicode="&#x2039;" horiz-adv-x="315" d="M279 156 L146 51 L5 227 L17 297 L217 472 L312 364 L200 261 L279 156 Z " />
<glyph glyph-name="guilsinglright" unicode="&#x203a;" horiz-adv-x="315" d="M16 367 L149 472 L290 296 L278 226 L78 51 L-17 159 L95 262 L16 367 Z " />
<glyph glyph-name="quoteleft" unicode="&#x2018;" horiz-adv-x="238" d="M259 561 Q259 539 250 520 Q241 501 226 486.5 Q211 472 190.5 464 Q170 456 147 456 Q102 456 80 482.5 Q58 509 58 550 Q58 628 111 683 Q164 738 258 755 L271 685 Q230 672 214 657.5 Q198 643 189 623 Q199 625 211.5 623 Q224 621 232 617 Q246 609 252.5 593.5 Q259 578 259 561 Z " />
<glyph glyph-name="quoteright" unicode="&#x2019;" horiz-adv-x="244" d="M72 620 Q72 642 81 661 Q90 680 105 694 Q120 708 140.5 716.5 Q161 725 184 725 Q229 725 251 698.5 Q273 672 273 631 Q273 553 220 498 Q167 443 73 426 L60 496 Q101 509 117 523.5 Q133 538 142 558 Q132 556 119.5 558 Q107 560 99 564 Q85 572 78.5 587.5 Q72 603 72 620 Z " />
<glyph glyph-name="quotesinglbase" unicode="&#x201a;" horiz-adv-x="244" d="M-22 48 Q-22 70 -13 89 Q-4 108 11 122 Q26 136 46.5 144.5 Q67 153 90 153 Q135 153 157 126.5 Q179 100 179 59 Q179 -19 126 -74 Q73 -129 -21 -146 L-34 -76 Q7 -63 23 -48.5 Q39 -34 48 -14 Q38 -16 25.5 -14 Q13 -12 5 -8 Q-9 0 -15.5 15.5 Q-22 31 -22 48 Z " />
<glyph glyph-name="quotedblleft" unicode="&#x201c;" horiz-adv-x="464" d="M259.004 561.038 Q259.004 539.039 250.005 520.04 Q241.005 501.042 226.006 487.042 Q211.007 473.043 190.509 464.544 Q170.01 456.044 147.011 456.044 Q102.014 456.044 80.0153 482.543 Q58.0167 509.041 58.0167 550.039 Q58.0167 628.034 111.013 683.03 Q164.01 738.027 258.004 755.026 L271.004 685.03 Q230.006 672.031 214.007 657.532 Q198.008 643.033 189.009 623.034 Q199.008 625.034 211.507 623.034 Q224.007 621.034 232.006 617.034 Q246.005 609.035 252.505 593.536 Q259.004 578.037 259.004 561.038 Z M485.004 561.038 Q485.004 539.039 476.005 520.04 Q467.005 501.042 452.006 487.042 Q437.007 473.043 416.509 464.544 Q396.01 456.044 373.011 456.044 Q328.014 456.044 306.015 482.543 Q284.017 509.041 284.017 550.039 Q284.017 628.034 337.013 683.03 Q390.01 738.027 484.004 755.026 L497.004 685.03 Q456.006 672.031 440.007 657.532 Q424.008 643.033 415.009 623.034 Q425.008 625.034 437.507 623.034 Q450.007 621.034 458.006 617.034 Q472.005 609.035 478.505 593.536 Q485.004 578.037 485.004 561.038 Z " />
<glyph glyph-name="quotedblright" unicode="&#x201d;" horiz-adv-x="470" d="M298 620 Q298 642 307 661 Q316 680 331 694 Q346 708 366.5 716.5 Q387 725 410 725 Q455 725 477 698.5 Q499 672 499 631 Q499 553 446 498 Q393 443 299 426 L286 496 Q327 509 343 523.5 Q359 538 368 558 Q358 556 345.5 558 Q333 560 325 564 Q311 572 304.5 587.5 Q298 603 298 620 Z M72 620 Q72 642 81 661 Q90 680 105 694 Q120 708 140.5 716.5 Q161 725 184 725 Q229 725 251 698.5 Q273 672 273 631 Q273 553 220 498 Q167 443 73 426 L60 496 Q101 509 117 523.5 Q133 538 142 558 Q132 556 119.5 558 Q107 560 99 564 Q85 572 78.5 587.5 Q72 603 72 620 Z " />
<glyph glyph-name="quotedblbase" unicode="&#x201e;" horiz-adv-x="472" d="M205 48 Q205 70 214 89 Q223 108 238 122 Q253 136 273.5 144.5 Q294 153 317 153 Q362 153 384 126.5 Q406 100 406 59 Q406 -19 353 -74 Q300 -129 206 -146 L193 -76 Q234 -63 250 -48.5 Q266 -34 275 -14 Q265 -16 252.5 -14 Q240 -12 232 -8 Q218 0 211.5 15.5 Q205 31 205 48 Z M-22 48 Q-22 70 -13 89 Q-4 108 11 122 Q26 136 46.5 144.5 Q67 153 90 153 Q135 153 157 126.5 Q179 100 179 59 Q179 -19 126 -74 Q73 -129 -21 -146 L-34 -76 Q7 -63 23 -48.5 Q39 -34 48 -14 Q38 -16 25.5 -14 Q13 -12 5 -8 Q-9 0 -15.5 15.5 Q-22 31 -22 48 Z " />
<glyph glyph-name="dagger" unicode="&#x2020;" horiz-adv-x="488" d="M65 -105 L140 341 L26 341 L58 533 L172 533 L203 720 L414 720 L383 533 L498 533 L466 341 L351 341 L276 -105 L65 -105 Z " />
<glyph glyph-name="daggerdbl" unicode="&#x2021;" horiz-adv-x="489" d="M66 -105 L97 77 L-18 77 L14 269 L129 269 L141 341 L26 341 L58 533 L173 533 L204 720 L416 720 L385 533 L499 533 L467 341 L353 341 L341 269 L455 269 L423 77 L309 77 L278 -105 L66 -105 Z " />
<glyph glyph-name="bullet" unicode="&#x2022;" horiz-adv-x="500" d="M84 312 Q84 347 97.5 377 Q111 407 133.5 429.5 Q156 452 186 464.5 Q216 477 250 477 Q283 477 313 464.5 Q343 452 366 429.5 Q389 407 402.5 377 Q416 347 416 312 Q416 278 402.5 247.5 Q389 217 366.5 194.5 Q344 172 313.5 158.5 Q283 145 249 145 Q213 145 182.5 159 Q152 173 130.5 196 Q109 219 96.5 249.5 Q84 280 84 312 Z " />
<glyph glyph-name="ellipsis" unicode="&#x2026;" horiz-adv-x="895" d="M286 98 Q286 149 317.5 178 Q349 207 404 207 Q458 207 489.5 178 Q521 149 521 98 Q521 49 490.5 18 Q460 -13 405 -13 Q348 -13 317 18 Q286 49 286 98 Z M-26 98 Q-26 149 5.5 178 Q37 207 92 207 Q146 207 177.5 178 Q209 149 209 98 Q209 49 178.5 18 Q148 -13 93 -13 Q36 -13 5 18 Q-26 49 -26 98 Z M604 98 Q604 149 635.5 178 Q667 207 722 207 Q776 207 807.5 178 Q839 149 839 98 Q839 49 808.5 18 Q778 -13 723 -13 Q666 -13 635 18 Q604 49 604 98 Z " />
<glyph glyph-name="paragraph" unicode="&#xb6;" horiz-adv-x="578" d="M478 0 L345 0 L446 603 L395 603 L294 0 L160 0 L211 303 Q126 315 86.5 360 Q47 405 47 475 Q47 529 67 574 Q87 619 123.5 651.5 Q160 684 212 702 Q264 720 328 720 L598 720 L478 0 Z " />
<glyph glyph-name="periodcentered" unicode="&#xb7;" horiz-adv-x="357" d="M61 325 Q61 376 92.5 405 Q124 434 179 434 Q233 434 264.5 405 Q296 376 296 325 Q296 276 265.5 245 Q235 214 180 214 Q123 214 92 245 Q61 276 61 325 Z " />
<glyph glyph-name="uni00AD" unicode="&#xad;" horiz-adv-x="310" d="M20 367 L285 367 L255 184 L-10 184 L20 367 Z " />
<glyph glyph-name="endash" unicode="&#x2013;" horiz-adv-x="500" d="M10 332 L498 332 L472 180 L-16 180 L10 332 Z " />
<glyph glyph-name="emdash" unicode="&#x2014;" horiz-adv-x="1000" d="M13 330 L988 330 L963 179 L-12 179 L13 330 Z " />
<glyph glyph-name="Agrave" unicode="&#xc0;" horiz-adv-x="737" d="M575 720 L692 0 L420 0 L412 95 L233 95 L194 0 L-65 0 L291 720 L575 720 Z M400 268 L392 474 L306 268 L400 268 Z M603 858 L524 750 L328 846 L422 982 L603 858 Z " />
<glyph glyph-name="Aacute" unicode="&#xc1;" horiz-adv-x="737" d="M575 720 L692 0 L420 0 L412 95 L233 95 L194 0 L-65 0 L291 720 L575 720 Z M400 268 L392 474 L306 268 L400 268 Z M551 982 L601 846 L374 750 L330 858 L551 982 Z " />
<glyph glyph-name="Acircumflex" unicode="&#xc2;" horiz-adv-x="737" d="M575 720 L692 0 L420 0 L412 95 L233 95 L194 0 L-65 0 L291 720 L575 720 Z M400 268 L392 474 L306 268 L400 268 Z M522 939 L625 820 L526 747 L442 813 L335 746 L261 821 L404 939 L522 939 Z " />
<glyph glyph-name="Atilde" unicode="&#xc3;" horiz-adv-x="737" d="M575 720 L692 0 L420 0 L412 95 L233 95 L194 0 L-65 0 L291 720 L575 720 Z M400 268 L392 474 L306 268 L400 268 Z M648 904 Q637 875 623.5 849 Q610 823 593 803.5 Q576 784 555.5 773 Q535 762 511 762 Q491 762 471.5 766.5 Q452 771 435.5 776.5 Q419 782 405 786.5 Q391 791 382 791 Q369 791 359.5 784 Q350 777 336 755 L243 801 Q255 828 269.5 853 Q284 878 301 897.5 Q318 917 338 928.5 Q358 940 382 940 Q401 940 419 935.5 Q437 931 452.5 926 Q468 921 481.5 916.5 Q495 912 507 912 Q524 912 532 921 Q540 930 550 947 L648 904 Z " />
<glyph glyph-name="Adieresis" unicode="&#xc4;" horiz-adv-x="737" d="M575 720 L692 0 L420 0 L412 95 L233 95 L194 0 L-65 0 L291 720 L575 720 Z M400 268 L392 474 L306 268 L400 268 Z M471 833 Q471 877 503 908.5 Q535 940 592 940 Q641 940 662 918 Q683 896 683 864 Q683 817 650 788 Q617 759 563 759 Q516 759 493.5 778.5 Q471 798 471 833 Z M216 833 Q216 877 248 908.5 Q280 940 337 940 Q385 940 406 918 Q427 896 427 864 Q427 817 394.5 788 Q362 759 308 759 Q261 759 238.5 778.5 Q216 798 216 833 Z " />
<glyph glyph-name="Aring" unicode="&#xc5;" horiz-adv-x="737" d="M289 731 Q289 769 303 799 Q317 829 341 849.5 Q365 870 396.5 881 Q428 892 463 892 Q517 892 553 864 Q589 836 589 780 Q589 762 585 748 Q581 734 575 720 L692 0 L420 0 L412 95 L233 95 L194 0 L-65 0 L290 717 Q290 719 289.5 723.5 Q289 728 289 731 Z M400 268 L392 474 L306 268 L400 268 Z M400 751 Q400 720 434 720 Q452 720 466.5 732 Q481 744 481 766 Q481 783 471.5 790 Q462 797 447 797 Q424 797 412 784.5 Q400 772 400 751 Z " />
<glyph glyph-name="AE" unicode="&#xc6;" horiz-adv-x="982" d="M407 147 L267 147 L192 0 L-65 0 L359 720 L1022 720 L986 503 L713 503 L704 446 L952 446 L923 277 L675 277 L665 217 L939 217 L903 0 L382 0 L407 147 Z M436 320 L467 508 L450 508 L349 320 L436 320 Z " />
<glyph glyph-name="Ccedilla" unicode="&#xc7;" horiz-adv-x="688" d="M197 -150 Q210 -153 227 -156 Q244 -159 260 -159 Q288 -159 294.5 -152.5 Q301 -146 301 -134 Q301 -121 288.5 -117 Q276 -113 249 -113 L224 -113 L260 -10 Q139 0 77.5 76.5 Q16 153 16 279 Q16 376 44.5 459 Q73 542 127 603 Q181 664 258.5 698.5 Q336 733 434 733 Q499 733 551 716.5 Q603 700 638 663.5 Q673 627 687.5 567.5 Q702 508 692 422 L450 422 Q453 465 440.5 484.5 Q428 504 393 504 Q344 504 312 459 Q280 414 280 317 Q280 263 303 240 Q326 217 367 217 Q418 217 465.5 235.5 Q513 254 560 283 L632 116 Q558 57 487 27 Q416 -3 341 -10 L330 -46 Q370 -49 394 -66.5 Q418 -84 418 -121 Q418 -148 408.5 -171.5 Q399 -195 380.5 -212.5 Q362 -230 334.5 -240.5 Q307 -251 270 -251 Q237 -251 211 -245.5 Q185 -240 168 -233 L197 -150 Z " />
<glyph glyph-name="Egrave" unicode="&#xc8;" horiz-adv-x="580" d="M99 720 L620 720 L584 503 L311 503 L302 446 L549 446 L520 277 L273 277 L263 217 L537 217 L501 0 L-21 0 L99 720 Z M510 859 L431 751 L235 847 L329 983 L510 859 Z " />
<glyph glyph-name="Eacute" unicode="&#xc9;" horiz-adv-x="580" d="M99 720 L620 720 L584 503 L311 503 L302 446 L549 446 L520 277 L273 277 L263 217 L537 217 L501 0 L-21 0 L99 720 Z M474 983 L524 847 L297 751 L253 859 L474 983 Z " />
<glyph glyph-name="Ecircumflex" unicode="&#xca;" horiz-adv-x="580" d="M99 720 L620 720 L584 503 L311 503 L302 446 L549 446 L520 277 L273 277 L263 217 L537 217 L501 0 L-21 0 L99 720 Z M452 940 L555 821 L456 748 L372 814 L265 747 L191 822 L334 940 L452 940 Z " />
<glyph glyph-name="Edieresis" unicode="&#xcb;" horiz-adv-x="580" d="M99 720 L620 720 L584 503 L311 503 L302 446 L549 446 L520 277 L273 277 L263 217 L537 217 L501 0 L-21 0 L99 720 Z M391 834 Q391 878 423 909.5 Q455 941 512 941 Q561 941 582 919 Q603 897 603 865 Q603 818 570 789 Q537 760 483 760 Q436 760 413.5 779.5 Q391 799 391 834 Z M136 834 Q136 878 168 909.5 Q200 941 257 941 Q305 941 326 919 Q347 897 347 865 Q347 818 314.5 789 Q282 760 228 760 Q181 760 158.5 779.5 Q136 799 136 834 Z " />
<glyph glyph-name="Igrave" unicode="&#xcc;" horiz-adv-x="316" d="M99 720 L347 720 L227 0 L-21 0 L99 720 Z M378 858 L299 750 L103 846 L197 982 L378 858 Z " />
<glyph glyph-name="Iacute" unicode="&#xcd;" horiz-adv-x="316" d="M99 720 L347 720 L227 0 L-21 0 L99 720 Z M326 982 L376 846 L149 750 L105 858 L326 982 Z " />
<glyph glyph-name="Icircumflex" unicode="&#xce;" horiz-adv-x="316" d="M99 720 L347 720 L227 0 L-21 0 L99 720 Z M320 939 L423 820 L324 747 L240 813 L133 746 L59 821 L202 939 L320 939 Z " />
<glyph glyph-name="Idieresis" unicode="&#xcf;" horiz-adv-x="316" d="M99 720 L347 720 L227 0 L-21 0 L99 720 Z M270 833 Q270 877 302 908.5 Q334 940 391 940 Q440 940 461 918 Q482 896 482 864 Q482 817 449 788 Q416 759 362 759 Q315 759 292.5 778.5 Q270 798 270 833 Z M15 833 Q15 877 47 908.5 Q79 940 136 940 Q184 940 205 918 Q226 896 226 864 Q226 817 193.5 788 Q161 759 107 759 Q60 759 37.5 778.5 Q15 798 15 833 Z " />
<glyph glyph-name="Eth" unicode="&#xd0;" horiz-adv-x="770" d="M43 432 L109 432 L157 720 L463 720 Q541 720 597 697.5 Q653 675 689 636 Q725 597 742.5 544 Q760 491 760 431 Q760 332 735.5 252 Q711 172 656 116 Q601 60 514 30 Q427 0 303 0 L37 0 L84 278 L18 278 L43 432 Z M368 503 L356 432 L443 432 L418 278 L331 278 L320 217 L369 217 Q434 217 465 264.5 Q496 312 496 399 Q496 503 417 503 L368 503 Z " />
<glyph glyph-name="Ntilde" unicode="&#xd1;" horiz-adv-x="716" d="M99 720 L307 720 L453 396 L506 720 L747 720 L627 0 L418 0 L268 299 L219 0 L-21 0 L99 720 Z M646 904 Q635 875 621.5 849 Q608 823 591 803.5 Q574 784 553.5 773 Q533 762 509 762 Q489 762 469.5 766.5 Q450 771 433.5 776.5 Q417 782 403 786.5 Q389 791 380 791 Q367 791 357.5 784 Q348 777 334 755 L241 801 Q253 828 267.5 853 Q282 878 299 897.5 Q316 917 336 928.5 Q356 940 380 940 Q399 940 417 935.5 Q435 931 450.5 926 Q466 921 479.5 916.5 Q493 912 505 912 Q522 912 530 921 Q538 930 548 947 L646 904 Z " />
<glyph glyph-name="Ograve" unicode="&#xd2;" horiz-adv-x="781" d="M281 322 Q281 300 285.5 280.5 Q290 261 300.5 246 Q311 231 328.5 222.5 Q346 214 371 214 Q410 214 436.5 231 Q463 248 479 274 Q495 300 502 331.5 Q509 363 509 393 Q509 415 504.5 435 Q500 455 489.5 471 Q479 487 462 496.5 Q445 506 420 506 Q381 506 354.5 488 Q328 470 311.5 443 Q295 416 288 383.5 Q281 351 281 322 Z M18 291 Q18 389 48.5 470.5 Q79 552 135.5 611 Q192 670 272.5 702.5 Q353 735 453 735 Q532 735 592 712 Q652 689 692.5 648 Q733 607 753 550 Q773 493 773 425 Q773 329 742 248 Q711 167 654 108.5 Q597 50 516.5 17.5 Q436 -15 336 -15 Q256 -15 196.5 8 Q137 31 97 71.5 Q57 112 37.5 168 Q18 224 18 291 Z M622 858 L543 750 L347 846 L441 982 L622 858 Z " />
<glyph glyph-name="Oacute" unicode="&#xd3;" horiz-adv-x="781" d="M281 322 Q281 300 285.5 280.5 Q290 261 300.5 246 Q311 231 328.5 222.5 Q346 214 371 214 Q410 214 436.5 231 Q463 248 479 274 Q495 300 502 331.5 Q509 363 509 393 Q509 415 504.5 435 Q500 455 489.5 471 Q479 487 462 496.5 Q445 506 420 506 Q381 506 354.5 488 Q328 470 311.5 443 Q295 416 288 383.5 Q281 351 281 322 Z M18 291 Q18 389 48.5 470.5 Q79 552 135.5 611 Q192 670 272.5 702.5 Q353 735 453 735 Q532 735 592 712 Q652 689 692.5 648 Q733 607 753 550 Q773 493 773 425 Q773 329 742 248 Q711 167 654 108.5 Q597 50 516.5 17.5 Q436 -15 336 -15 Q256 -15 196.5 8 Q137 31 97 71.5 Q57 112 37.5 168 Q18 224 18 291 Z M570 982 L620 846 L393 750 L349 858 L570 982 Z " />
<glyph glyph-name="Ocircumflex" unicode="&#xd4;" horiz-adv-x="781" d="M281 322 Q281 300 285.5 280.5 Q290 261 300.5 246 Q311 231 328.5 222.5 Q346 214 371 214 Q410 214 436.5 231 Q463 248 479 274 Q495 300 502 331.5 Q509 363 509 393 Q509 415 504.5 435 Q500 455 489.5 471 Q479 487 462 496.5 Q445 506 420 506 Q381 506 354.5 488 Q328 470 311.5 443 Q295 416 288 383.5 Q281 351 281 322 Z M18 291 Q18 389 48.5 470.5 Q79 552 135.5 611 Q192 670 272.5 702.5 Q353 735 453 735 Q532 735 592 712 Q652 689 692.5 648 Q733 607 753 550 Q773 493 773 425 Q773 329 742 248 Q711 167 654 108.5 Q597 50 516.5 17.5 Q436 -15 336 -15 Q256 -15 196.5 8 Q137 31 97 71.5 Q57 112 37.5 168 Q18 224 18 291 Z M557 939 L660 820 L561 747 L477 813 L370 746 L296 821 L439 939 L557 939 Z " />
<glyph glyph-name="Otilde" unicode="&#xd5;" horiz-adv-x="781" d="M281 322 Q281 300 285.5 280.5 Q290 261 300.5 246 Q311 231 328.5 222.5 Q346 214 371 214 Q410 214 436.5 231 Q463 248 479 274 Q495 300 502 331.5 Q509 363 509 393 Q509 415 504.5 435 Q500 455 489.5 471 Q479 487 462 496.5 Q445 506 420 506 Q381 506 354.5 488 Q328 470 311.5 443 Q295 416 288 383.5 Q281 351 281 322 Z M18 291 Q18 389 48.5 470.5 Q79 552 135.5 611 Q192 670 272.5 702.5 Q353 735 453 735 Q532 735 592 712 Q652 689 692.5 648 Q733 607 753 550 Q773 493 773 425 Q773 329 742 248 Q711 167 654 108.5 Q597 50 516.5 17.5 Q436 -15 336 -15 Q256 -15 196.5 8 Q137 31 97 71.5 Q57 112 37.5 168 Q18 224 18 291 Z M706 904 Q695 875 681.5 849 Q668 823 651 803.5 Q634 784 613.5 773 Q593 762 569 762 Q549 762 529.5 766.5 Q510 771 493.5 776.5 Q477 782 463 786.5 Q449 791 440 791 Q427 791 417.5 784 Q408 777 394 755 L301 801 Q313 828 327.5 853 Q342 878 359 897.5 Q376 917 396 928.5 Q416 940 440 940 Q459 940 477 935.5 Q495 931 510.5 926 Q526 921 539.5 916.5 Q553 912 565 912 Q582 912 590 921 Q598 930 608 947 L706 904 Z " />
<glyph glyph-name="Odieresis" unicode="&#xd6;" horiz-adv-x="781" d="M281 322 Q281 300 285.5 280.5 Q290 261 300.5 246 Q311 231 328.5 222.5 Q346 214 371 214 Q410 214 436.5 231 Q463 248 479 274 Q495 300 502 331.5 Q509 363 509 393 Q509 415 504.5 435 Q500 455 489.5 471 Q479 487 462 496.5 Q445 506 420 506 Q381 506 354.5 488 Q328 470 311.5 443 Q295 416 288 383.5 Q281 351 281 322 Z M18 291 Q18 389 48.5 470.5 Q79 552 135.5 611 Q192 670 272.5 702.5 Q353 735 453 735 Q532 735 592 712 Q652 689 692.5 648 Q733 607 753 550 Q773 493 773 425 Q773 329 742 248 Q711 167 654 108.5 Q597 50 516.5 17.5 Q436 -15 336 -15 Q256 -15 196.5 8 Q137 31 97 71.5 Q57 112 37.5 168 Q18 224 18 291 Z M503 833 Q503 877 535 908.5 Q567 940 624 940 Q673 940 694 918 Q715 896 715 864 Q715 817 682 788 Q649 759 595 759 Q548 759 525.5 778.5 Q503 798 503 833 Z M248 833 Q248 877 280 908.5 Q312 940 369 940 Q417 940 438 918 Q459 896 459 864 Q459 817 426.5 788 Q394 759 340 759 Q293 759 270.5 778.5 Q248 798 248 833 Z " />
<glyph glyph-name="Oslash" unicode="&#xd8;" horiz-adv-x="779" d="M17 292 Q17 383 47.5 463.5 Q78 544 135 604 Q192 664 273.5 698.5 Q355 733 457 733 Q463 733 469 733 Q475 733 480 732 L515 794 L716 794 L654 681 Q713 642 742.5 573.5 Q772 505 772 422 Q772 330 741.5 251 Q711 172 654 113.5 Q597 55 515.5 21.5 Q434 -12 332 -12 Q321 -12 311.5 -11.5 Q302 -11 291 -10 L255 -79 L55 -79 L123 46 Q69 84 43 149 Q17 214 17 292 Z M280 326 Q280 305 284.5 285.5 Q289 266 299.5 251 Q310 236 327.5 226.5 Q345 217 370 217 Q408 217 434 233.5 Q460 250 476.5 275.5 Q493 301 500 331.5 Q507 362 507 390 Q507 411 502.5 431.5 Q498 452 487.5 468 Q477 484 460 494 Q443 504 418 504 Q380 504 354 486.5 Q328 469 311.5 442 Q295 415 287.5 384 Q280 353 280 326 Z " />
<glyph glyph-name="Ugrave" unicode="&#xd9;" horiz-adv-x="687" d="M342 720 L269 281 Q266 261 269 247 Q272 233 280.5 224.5 Q289 216 301 212.5 Q313 209 327 209 Q354 209 374.5 224 Q395 239 402 281 L475 720 L723 720 L650 282 Q636 197 605.5 140 Q575 83 530 48.5 Q485 14 425.5 -0.5 Q366 -15 293 -15 Q138 -15 68 63.5 Q-2 142 23 294 L94 720 L342 720 Z M561 858 L482 750 L286 846 L380 982 L561 858 Z " />
<glyph glyph-name="Uacute" unicode="&#xda;" horiz-adv-x="687" d="M342 720 L269 281 Q266 261 269 247 Q272 233 280.5 224.5 Q289 216 301 212.5 Q313 209 327 209 Q354 209 374.5 224 Q395 239 402 281 L475 720 L723 720 L650 282 Q636 197 605.5 140 Q575 83 530 48.5 Q485 14 425.5 -0.5 Q366 -15 293 -15 Q138 -15 68 63.5 Q-2 142 23 294 L94 720 L342 720 Z M509 982 L559 846 L332 750 L288 858 L509 982 Z " />
<glyph glyph-name="Ucircumflex" unicode="&#xdb;" horiz-adv-x="687" d="M342 720 L269 281 Q266 261 269 247 Q272 233 280.5 224.5 Q289 216 301 212.5 Q313 209 327 209 Q354 209 374.5 224 Q395 239 402 281 L475 720 L723 720 L650 282 Q636 197 605.5 140 Q575 83 530 48.5 Q485 14 425.5 -0.5 Q366 -15 293 -15 Q138 -15 68 63.5 Q-2 142 23 294 L94 720 L342 720 Z M501 939 L604 820 L505 747 L421 813 L314 746 L240 821 L383 939 L501 939 Z " />
<glyph glyph-name="Udieresis" unicode="&#xdc;" horiz-adv-x="687" d="M342 720 L269 281 Q266 261 269 247 Q272 233 280.5 224.5 Q289 216 301 212.5 Q313 209 327 209 Q354 209 374.5 224 Q395 239 402 281 L475 720 L723 720 L650 282 Q636 197 605.5 140 Q575 83 530 48.5 Q485 14 425.5 -0.5 Q366 -15 293 -15 Q138 -15 68 63.5 Q-2 142 23 294 L94 720 L342 720 Z M455 833 Q455 877 487 908.5 Q519 940 576 940 Q625 940 646 918 Q667 896 667 864 Q667 817 634 788 Q601 759 547 759 Q500 759 477.5 778.5 Q455 798 455 833 Z M200 833 Q200 877 232 908.5 Q264 940 321 940 Q369 940 390 918 Q411 896 411 864 Q411 817 378.5 788 Q346 759 292 759 Q245 759 222.5 778.5 Q200 798 200 833 Z " />
<glyph glyph-name="Yacute" unicode="&#xdd;" horiz-adv-x="728" d="M219 237 L55 720 L325 720 L382 466 L526 720 L803 720 L467 238 L427 0 L179 0 L219 237 Z M540 982 L590 846 L363 750 L319 858 L540 982 Z " />
<glyph glyph-name="Thorn" unicode="&#xde;" horiz-adv-x="644" d="M96 720 L344 720 L332 644 L402 644 Q454 644 497 631 Q540 618 571 591 Q602 564 619.5 523.5 Q637 483 637 428 Q637 357 615.5 298 Q594 239 552.5 196.5 Q511 154 449 130.5 Q387 107 306 107 L242 107 L224 0 L-24 0 L96 720 Z M295 422 L275 304 L324 304 Q354 304 370 326 Q386 348 386 380 Q386 422 344 422 L295 422 Z " />
<glyph glyph-name="germandbls" unicode="&#xdf;" horiz-adv-x="693" d="M84 374 L12 374 L31 491 L110 529 Q122 588 153.5 626 Q185 664 228.5 686.5 Q272 709 323.5 717.5 Q375 726 425 726 Q478 726 522.5 715.5 Q567 705 599 684 Q631 663 648.5 631 Q666 599 666 556 Q666 520 655.5 490 Q645 460 627.5 437 Q610 414 587 397.5 Q564 381 539 371 Q597 354 630 315 Q663 276 663 219 Q663 163 642 120 Q621 77 587 47.5 Q553 18 510.5 2.5 Q468 -13 426 -13 Q384 -13 346 0 Q308 13 281 37 L349 195 Q367 186 390 186 Q431 186 431 226 Q431 271 331 268 L361 447 Q398 447 416 464 Q434 481 434 512 Q434 532 424 540 Q414 548 397 548 Q376 548 360.5 534.5 Q345 521 339 486 L258 0 L21 0 L84 374 Z " />
<glyph glyph-name="agrave" unicode="&#xe0;" horiz-adv-x="645" d="M339 57 Q312 23 272 5 Q232 -13 184 -13 Q93 -13 50 39 Q7 91 7 191 Q7 287 33.5 354 Q60 421 101.5 463.5 Q143 506 194 525.5 Q245 545 293 545 Q329 545 364 535 Q399 525 424 491 L449 533 L642 533 L553 0 L346 0 L339 57 Z M372 346 Q365 355 354 359.5 Q343 364 332 364 Q311 364 297 350.5 Q283 337 275.5 317 Q268 297 265 273.5 Q262 250 262 230 Q262 168 301 168 Q312 168 323.5 171.5 Q335 175 345 184 L372 346 Z M511 657 L412 564 L236 702 L356 828 L511 657 Z " />
<glyph glyph-name="aacute" unicode="&#xe1;" horiz-adv-x="645" d="M339 57 Q312 23 272 5 Q232 -13 184 -13 Q93 -13 50 39 Q7 91 7 191 Q7 287 33.5 354 Q60 421 101.5 463.5 Q143 506 194 525.5 Q245 545 293 545 Q329 545 364 535 Q399 525 424 491 L449 533 L642 533 L553 0 L346 0 L339 57 Z M372 346 Q365 355 354 359.5 Q343 364 332 364 Q311 364 297 350.5 Q283 337 275.5 317 Q268 297 265 273.5 Q262 250 262 230 Q262 168 301 168 Q312 168 323.5 171.5 Q335 175 345 184 L372 346 Z M460 829 L537 704 L315 564 L247 657 L460 829 Z " />
<glyph glyph-name="acircumflex" unicode="&#xe2;" horiz-adv-x="645" d="M339 57 Q312 23 272 5 Q232 -13 184 -13 Q93 -13 50 39 Q7 91 7 191 Q7 287 33.5 354 Q60 421 101.5 463.5 Q143 506 194 525.5 Q245 545 293 545 Q329 545 364 535 Q399 525 424 491 L449 533 L642 533 L553 0 L346 0 L339 57 Z M372 346 Q365 355 354 359.5 Q343 364 332 364 Q311 364 297 350.5 Q283 337 275.5 317 Q268 297 265 273.5 Q262 250 262 230 Q262 168 301 168 Q312 168 323.5 171.5 Q335 175 345 184 L372 346 Z M491 780 L589 636 L482 563 L407 634 L307 562 L226 637 L373 780 L491 780 Z " />
<glyph glyph-name="atilde" unicode="&#xe3;" horiz-adv-x="645" d="M339 57 Q312 23 272 5 Q232 -13 184 -13 Q93 -13 50 39 Q7 91 7 191 Q7 287 33.5 354 Q60 421 101.5 463.5 Q143 506 194 525.5 Q245 545 293 545 Q329 545 364 535 Q399 525 424 491 L449 533 L642 533 L553 0 L346 0 L339 57 Z M372 346 Q365 355 354 359.5 Q343 364 332 364 Q311 364 297 350.5 Q283 337 275.5 317 Q268 297 265 273.5 Q262 250 262 230 Q262 168 301 168 Q312 168 323.5 171.5 Q335 175 345 184 L372 346 Z M598 728 Q587 699 573.5 673 Q560 647 543 627.5 Q526 608 505 597 Q484 586 460 586 Q440 586 421 590.5 Q402 595 385.5 600.5 Q369 606 355 610.5 Q341 615 332 615 Q319 615 309.5 608 Q300 601 286 579 L193 625 Q205 652 219.5 677 Q234 702 251 721.5 Q268 741 288 752.5 Q308 764 332 764 Q351 764 368.5 759.5 Q386 755 401.5 750 Q417 745 430.5 740.5 Q444 736 456 736 Q473 736 481 745 Q489 754 500 771 L598 728 Z " />
<glyph glyph-name="adieresis" unicode="&#xe4;" horiz-adv-x="645" d="M339 57 Q312 23 272 5 Q232 -13 184 -13 Q93 -13 50 39 Q7 91 7 191 Q7 287 33.5 354 Q60 421 101.5 463.5 Q143 506 194 525.5 Q245 545 293 545 Q329 545 364 535 Q399 525 424 491 L449 533 L642 533 L553 0 L346 0 L339 57 Z M372 346 Q365 355 354 359.5 Q343 364 332 364 Q311 364 297 350.5 Q283 337 275.5 317 Q268 297 265 273.5 Q262 250 262 230 Q262 168 301 168 Q312 168 323.5 171.5 Q335 175 345 184 L372 346 Z M408 650 Q408 694 440 725.5 Q472 757 529 757 Q578 757 598.5 735 Q619 713 619 681 Q619 634 586.5 605 Q554 576 500 576 Q453 576 430.5 595.5 Q408 615 408 650 Z M153 650 Q153 694 185 725.5 Q217 757 274 757 Q322 757 342.5 735 Q363 713 363 681 Q363 634 330.5 605 Q298 576 245 576 Q198 576 175.5 595.5 Q153 615 153 650 Z " />
<glyph glyph-name="aring" unicode="&#xe5;" horiz-adv-x="645" d="M339 57 Q312 23 272 5 Q232 -13 184 -13 Q93 -13 50 39 Q7 91 7 191 Q7 287 33.5 354 Q60 421 101.5 463.5 Q143 506 194 525.5 Q245 545 293 545 Q329 545 364 535 Q399 525 424 491 L449 533 L642 533 L553 0 L346 0 L339 57 Z M372 346 Q365 355 354 359.5 Q343 364 332 364 Q311 364 297 350.5 Q283 337 275.5 317 Q268 297 265 273.5 Q262 250 262 230 Q262 168 301 168 Q312 168 323.5 171.5 Q335 175 345 184 L372 346 Z M376 672 Q376 648 403 648 Q417 648 428 657.5 Q439 667 439 685 Q439 709 414 709 Q376 709 376 672 Z M289 656 Q289 686 300 710 Q311 734 329.5 750.5 Q348 767 373 775.5 Q398 784 426 784 Q469 784 497 761.5 Q525 739 525 696 Q525 667 514 644 Q503 621 484.5 605 Q466 589 441.5 580.5 Q417 572 391 572 Q343 572 316 593 Q289 614 289 656 Z " />
<glyph glyph-name="ae" unicode="&#xe6;" horiz-adv-x="895" d="M559 -13 Q520 -13 491 -7.5 Q462 -2 439 8 Q416 18 398.5 33 Q381 48 365 68 Q346 44 324 28 Q302 12 279 3 Q256 -6 232 -9.5 Q208 -13 184 -13 Q93 -13 50 39 Q7 91 7 191 Q7 287 33.5 354 Q60 421 101.5 463.5 Q143 506 194 525.5 Q245 545 293 545 Q329 545 364 535 Q399 525 424 491 L449 533 L569 533 Q601 539 625.5 542 Q650 545 681 545 Q723 545 760 533 Q797 521 824.5 498 Q852 475 868.5 442.5 Q885 410 885 368 Q885 327 870 297.5 Q855 268 819 247.5 Q783 227 722.5 214 Q662 201 570 193 Q570 188 572 182 Q574 176 580 170.5 Q586 165 596 161 Q606 157 622 157 Q653 157 691.5 163 Q730 169 786 183 L803 42 Q749 16 690.5 1.5 Q632 -13 559 -13 Z M345 184 Q341 231 349.5 272.5 Q358 314 372 346 Q365 355 354 359.5 Q343 364 332 364 Q311 364 297 350.5 Q283 337 275.5 317 Q268 297 265 273.5 Q262 250 262 230 Q262 168 301 168 Q312 168 323.5 171.5 Q335 175 345 184 Z M571 312 Q627 314 648 329 Q669 344 669 358 Q669 375 659.5 382 Q650 389 636 389 Q627 389 617 385.5 Q607 382 597.5 373.5 Q588 365 581 350 Q574 335 571 312 Z " />
<glyph glyph-name="ccedilla" unicode="&#xe7;" horiz-adv-x="569" d="M139 -140 Q152 -143 169 -146 Q186 -149 202 -149 Q227 -149 235 -143 Q243 -137 243 -124 Q243 -111 230 -107 Q217 -103 190 -103 L166 -103 L198 -10 Q156 -5 121 11 Q86 27 60 54 Q34 81 19.5 120 Q5 159 5 210 Q5 277 29 338 Q53 399 97.5 445 Q142 491 205 518 Q268 545 345 545 Q400 545 444 531.5 Q488 518 515.5 488.5 Q543 459 553.5 413.5 Q564 368 554 304 L359 304 Q364 336 356.5 350 Q349 364 327 364 Q297 364 278.5 332.5 Q260 301 260 241 Q260 204 275.5 188.5 Q291 173 318 173 Q348 173 389.5 185 Q431 197 476 214 L500 66 Q460 41 403 18 Q346 -5 279 -11 L272 -36 Q312 -39 335.5 -56.5 Q359 -74 359 -111 Q359 -138 350 -161.5 Q341 -185 322.5 -202.5 Q304 -220 276 -230.5 Q248 -241 211 -241 Q178 -241 151.5 -235.5 Q125 -230 110 -223 L139 -140 Z " />
<glyph glyph-name="egrave" unicode="&#xe8;" horiz-adv-x="577" d="M490 42 Q436 16 377.5 1.5 Q319 -13 246 -13 Q187 -13 142.5 3.5 Q98 20 68 49.5 Q38 79 22.5 120.5 Q7 162 7 212 Q7 285 31.5 346 Q56 407 100.5 451.5 Q145 496 207.5 520.5 Q270 545 346 545 Q400 545 442 531.5 Q484 518 513 494.5 Q542 471 557 438.5 Q572 406 572 368 Q572 327 557 297.5 Q542 268 506 247.5 Q470 227 409.5 214 Q349 201 257 193 Q257 188 259 182 Q261 176 267 170.5 Q273 165 283 161 Q293 157 309 157 Q340 157 378.5 163 Q417 169 473 183 L490 42 Z M256 312 Q312 314 333 329 Q354 344 354 358 Q354 375 344.5 382 Q335 389 321 389 Q312 389 302 385.5 Q292 382 282.5 373.5 Q273 365 266 350 Q259 335 256 312 Z M453 657 L354 564 L178 702 L298 828 L453 657 Z " />
<glyph glyph-name="eacute" unicode="&#xe9;" horiz-adv-x="577" d="M490 42 Q436 16 377.5 1.5 Q319 -13 246 -13 Q187 -13 142.5 3.5 Q98 20 68 49.5 Q38 79 22.5 120.5 Q7 162 7 212 Q7 285 31.5 346 Q56 407 100.5 451.5 Q145 496 207.5 520.5 Q270 545 346 545 Q400 545 442 531.5 Q484 518 513 494.5 Q542 471 557 438.5 Q572 406 572 368 Q572 327 557 297.5 Q542 268 506 247.5 Q470 227 409.5 214 Q349 201 257 193 Q257 188 259 182 Q261 176 267 170.5 Q273 165 283 161 Q293 157 309 157 Q340 157 378.5 163 Q417 169 473 183 L490 42 Z M256 312 Q312 314 333 329 Q354 344 354 358 Q354 375 344.5 382 Q335 389 321 389 Q312 389 302 385.5 Q292 382 282.5 373.5 Q273 365 266 350 Q259 335 256 312 Z M408 829 L485 704 L263 564 L195 657 L408 829 Z " />
<glyph glyph-name="ecircumflex" unicode="&#xea;" horiz-adv-x="577" d="M490 42 Q436 16 377.5 1.5 Q319 -13 246 -13 Q187 -13 142.5 3.5 Q98 20 68 49.5 Q38 79 22.5 120.5 Q7 162 7 212 Q7 285 31.5 346 Q56 407 100.5 451.5 Q145 496 207.5 520.5 Q270 545 346 545 Q400 545 442 531.5 Q484 518 513 494.5 Q542 471 557 438.5 Q572 406 572 368 Q572 327 557 297.5 Q542 268 506 247.5 Q470 227 409.5 214 Q349 201 257 193 Q257 188 259 182 Q261 176 267 170.5 Q273 165 283 161 Q293 157 309 157 Q340 157 378.5 163 Q417 169 473 183 L490 42 Z M256 312 Q312 314 333 329 Q354 344 354 358 Q354 375 344.5 382 Q335 389 321 389 Q312 389 302 385.5 Q292 382 282.5 373.5 Q273 365 266 350 Q259 335 256 312 Z M425 780 L523 636 L416 563 L341 634 L241 562 L160 637 L307 780 L425 780 Z " />
<glyph glyph-name="edieresis" unicode="&#xeb;" horiz-adv-x="577" d="M490 42 Q436 16 377.5 1.5 Q319 -13 246 -13 Q187 -13 142.5 3.5 Q98 20 68 49.5 Q38 79 22.5 120.5 Q7 162 7 212 Q7 285 31.5 346 Q56 407 100.5 451.5 Q145 496 207.5 520.5 Q270 545 346 545 Q400 545 442 531.5 Q484 518 513 494.5 Q542 471 557 438.5 Q572 406 572 368 Q572 327 557 297.5 Q542 268 506 247.5 Q470 227 409.5 214 Q349 201 257 193 Q257 188 259 182 Q261 176 267 170.5 Q273 165 283 161 Q293 157 309 157 Q340 157 378.5 163 Q417 169 473 183 L490 42 Z M256 312 Q312 314 333 329 Q354 344 354 358 Q354 375 344.5 382 Q335 389 321 389 Q312 389 302 385.5 Q292 382 282.5 373.5 Q273 365 266 350 Q259 335 256 312 Z M372 650 Q372 694 404 725.5 Q436 757 493 757 Q542 757 562.5 735 Q583 713 583 681 Q583 634 550.5 605 Q518 576 464 576 Q417 576 394.5 595.5 Q372 615 372 650 Z M117 650 Q117 694 149 725.5 Q181 757 238 757 Q286 757 306.5 735 Q327 713 327 681 Q327 634 294.5 605 Q262 576 209 576 Q162 576 139.5 595.5 Q117 615 117 650 Z " />
<glyph glyph-name="igrave" unicode="&#xec;" horiz-adv-x="305" d="M218 0 L-20 0 L69 533 L307 533 L218 0 Z M319 657 L220 564 L44 702 L164 828 L319 657 Z " />
<glyph glyph-name="iacute" unicode="&#xed;" horiz-adv-x="305" d="M218 0 L-20 0 L69 533 L307 533 L218 0 Z M256 829 L333 704 L111 564 L43 657 L256 829 Z " />
<glyph glyph-name="icircumflex" unicode="&#xee;" horiz-adv-x="305" d="M218 0 L-20 0 L69 533 L307 533 L218 0 Z M289 780 L387 636 L280 563 L205 634 L105 562 L24 637 L171 780 L289 780 Z " />
<glyph glyph-name="idieresis" unicode="&#xef;" horiz-adv-x="305" d="M218 0 L-20 0 L69 533 L307 533 L218 0 Z M233 650 Q233 694 265 725.5 Q297 757 354 757 Q403 757 423.5 735 Q444 713 444 681 Q444 634 411.5 605 Q379 576 325 576 Q278 576 255.5 595.5 Q233 615 233 650 Z M-22 650 Q-22 694 10 725.5 Q42 757 99 757 Q147 757 167.5 735 Q188 713 188 681 Q188 634 155.5 605 Q123 576 70 576 Q23 576 0.5 595.5 Q-22 615 -22 650 Z " />
<glyph glyph-name="eth" unicode="&#xf0;" horiz-adv-x="585" d="M566 391 Q566 302 545.5 228 Q525 154 482.5 100.5 Q440 47 375.5 17.5 Q311 -12 224 -12 Q180 -12 140 -1.5 Q100 9 68.5 32.5 Q37 56 18.5 94.5 Q0 133 0 190 Q0 253 19.5 303 Q39 353 72 387.5 Q105 422 148 440.5 Q191 459 238 459 Q276 459 307 446.5 Q338 434 358 413 Q355 451 335 475.5 Q315 500 284 516 Q253 532 213.5 540.5 Q174 549 132 555 L212 726 Q269 724 315.5 714 Q362 704 399 687 L492 759 L585 633 L522 584 Q545 546 555.5 494.5 Q566 443 566 391 Z M261 179 Q297 179 311 205 Q325 231 329 275 Q322 288 307.5 295 Q293 302 280 302 Q248 302 232.5 281 Q217 260 217 229 Q217 206 227.5 192.5 Q238 179 261 179 Z " />
<glyph glyph-name="ntilde" unicode="&#xf1;" horiz-adv-x="596" d="M259 533 L274 485 Q299 506 341 525.5 Q383 545 430 545 Q467 545 497.5 534.5 Q528 524 548 502.5 Q568 481 575.5 448.5 Q583 416 576 372 L514 0 L277 0 L330 319 Q335 346 330 355 Q325 364 310 364 Q301 364 292.5 360 Q284 356 273 348 L215 0 L-23 0 L66 533 L259 533 Z M550 728 Q539 699 525.5 673 Q512 647 495 627.5 Q478 608 457 597 Q436 586 412 586 Q392 586 373 590.5 Q354 595 337.5 600.5 Q321 606 307 610.5 Q293 615 284 615 Q271 615 261.5 608 Q252 601 238 579 L145 625 Q157 652 171.5 677 Q186 702 203 721.5 Q220 741 240 752.5 Q260 764 284 764 Q303 764 320.5 759.5 Q338 755 353.5 750 Q369 745 382.5 740.5 Q396 736 408 736 Q425 736 433 745 Q441 754 452 771 L550 728 Z " />
<glyph glyph-name="ograve" unicode="&#xf2;" horiz-adv-x="643" d="M327 364 Q305 364 291.5 349 Q278 334 270 312 Q262 290 259 266 Q256 242 256 224 Q256 169 294 169 Q314 169 327.5 184.5 Q341 200 349 222.5 Q357 245 360 269 Q363 293 363 310 Q363 364 327 364 Z M5 219 Q5 296 30 356.5 Q55 417 101 459 Q147 501 211 523 Q275 545 352 545 Q409 545 457.5 531 Q506 517 541.5 488.5 Q577 460 597 416 Q617 372 617 312 Q617 231 591.5 170 Q566 109 520 68.5 Q474 28 409.5 7.5 Q345 -13 266 -13 Q206 -13 157.5 1 Q109 15 75.5 43.5 Q42 72 23.5 116 Q5 160 5 219 Z M498 657 L399 564 L223 702 L343 828 L498 657 Z " />
<glyph glyph-name="oacute" unicode="&#xf3;" horiz-adv-x="643" d="M327 364 Q305 364 291.5 349 Q278 334 270 312 Q262 290 259 266 Q256 242 256 224 Q256 169 294 169 Q314 169 327.5 184.5 Q341 200 349 222.5 Q357 245 360 269 Q363 293 363 310 Q363 364 327 364 Z M5 219 Q5 296 30 356.5 Q55 417 101 459 Q147 501 211 523 Q275 545 352 545 Q409 545 457.5 531 Q506 517 541.5 488.5 Q577 460 597 416 Q617 372 617 312 Q617 231 591.5 170 Q566 109 520 68.5 Q474 28 409.5 7.5 Q345 -13 266 -13 Q206 -13 157.5 1 Q109 15 75.5 43.5 Q42 72 23.5 116 Q5 160 5 219 Z M447 829 L524 704 L302 564 L234 657 L447 829 Z " />
<glyph glyph-name="ocircumflex" unicode="&#xf4;" horiz-adv-x="643" d="M327 364 Q305 364 291.5 349 Q278 334 270 312 Q262 290 259 266 Q256 242 256 224 Q256 169 294 169 Q314 169 327.5 184.5 Q341 200 349 222.5 Q357 245 360 269 Q363 293 363 310 Q363 364 327 364 Z M5 219 Q5 296 30 356.5 Q55 417 101 459 Q147 501 211 523 Q275 545 352 545 Q409 545 457.5 531 Q506 517 541.5 488.5 Q577 460 597 416 Q617 372 617 312 Q617 231 591.5 170 Q566 109 520 68.5 Q474 28 409.5 7.5 Q345 -13 266 -13 Q206 -13 157.5 1 Q109 15 75.5 43.5 Q42 72 23.5 116 Q5 160 5 219 Z M451 780 L549 636 L442 563 L367 634 L267 562 L186 637 L333 780 L451 780 Z " />
<glyph glyph-name="otilde" unicode="&#xf5;" horiz-adv-x="643" d="M327 364 Q305 364 291.5 349 Q278 334 270 312 Q262 290 259 266 Q256 242 256 224 Q256 169 294 169 Q314 169 327.5 184.5 Q341 200 349 222.5 Q357 245 360 269 Q363 293 363 310 Q363 364 327 364 Z M5 219 Q5 296 30 356.5 Q55 417 101 459 Q147 501 211 523 Q275 545 352 545 Q409 545 457.5 531 Q506 517 541.5 488.5 Q577 460 597 416 Q617 372 617 312 Q617 231 591.5 170 Q566 109 520 68.5 Q474 28 409.5 7.5 Q345 -13 266 -13 Q206 -13 157.5 1 Q109 15 75.5 43.5 Q42 72 23.5 116 Q5 160 5 219 Z M570 728 Q559 699 545.5 673 Q532 647 515 627.5 Q498 608 477 597 Q456 586 432 586 Q412 586 393 590.5 Q374 595 357.5 600.5 Q341 606 327 610.5 Q313 615 304 615 Q291 615 281.5 608 Q272 601 258 579 L165 625 Q177 652 191.5 677 Q206 702 223 721.5 Q240 741 260 752.5 Q280 764 304 764 Q323 764 340.5 759.5 Q358 755 373.5 750 Q389 745 402.5 740.5 Q416 736 428 736 Q445 736 453 745 Q461 754 472 771 L570 728 Z " />
<glyph glyph-name="odieresis" unicode="&#xf6;" horiz-adv-x="643" d="M327 364 Q305 364 291.5 349 Q278 334 270 312 Q262 290 259 266 Q256 242 256 224 Q256 169 294 169 Q314 169 327.5 184.5 Q341 200 349 222.5 Q357 245 360 269 Q363 293 363 310 Q363 364 327 364 Z M5 219 Q5 296 30 356.5 Q55 417 101 459 Q147 501 211 523 Q275 545 352 545 Q409 545 457.5 531 Q506 517 541.5 488.5 Q577 460 597 416 Q617 372 617 312 Q617 231 591.5 170 Q566 109 520 68.5 Q474 28 409.5 7.5 Q345 -13 266 -13 Q206 -13 157.5 1 Q109 15 75.5 43.5 Q42 72 23.5 116 Q5 160 5 219 Z M388 650 Q388 694 420 725.5 Q452 757 509 757 Q558 757 578.5 735 Q599 713 599 681 Q599 634 566.5 605 Q534 576 480 576 Q433 576 410.5 595.5 Q388 615 388 650 Z M133 650 Q133 694 165 725.5 Q197 757 254 757 Q302 757 322.5 735 Q343 713 343 681 Q343 634 310.5 605 Q278 576 225 576 Q178 576 155.5 595.5 Q133 615 133 650 Z " />
<glyph glyph-name="oslash" unicode="&#xf8;" horiz-adv-x="643" d="M5 219 Q5 296 30 356.5 Q55 417 101 459 Q147 501 211 523 Q275 545 352 545 L355 545 L386 606 L565 606 L515 507 Q563 479 590 431 Q617 383 617 312 Q617 231 591.5 170 Q566 109 520 68.5 Q474 28 409.5 7.5 Q345 -13 266 -13 L265 -13 L230 -80 L53 -80 L106 22 Q58 49 31.5 98 Q5 147 5 219 Z M327 364 Q305 364 291.5 349 Q278 334 270 312 Q262 290 259 266 Q256 242 256 224 Q256 169 294 169 Q314 169 327.5 184.5 Q341 200 349 222.5 Q357 245 360 269 Q363 293 363 310 Q363 364 327 364 Z " />
<glyph glyph-name="ugrave" unicode="&#xf9;" horiz-adv-x="602" d="M328 0 L307 55 Q247 -13 150 -13 Q68 -13 29 31.5 Q-10 76 4 161 L66 533 L305 533 L250 205 Q244 169 271 169 Q281 169 292.5 173.5 Q304 178 309 185 L367 533 L605 533 L516 0 L328 0 Z M490 657 L391 564 L215 702 L335 828 L490 657 Z " />
<glyph glyph-name="uacute" unicode="&#xfa;" horiz-adv-x="602" d="M328 0 L307 55 Q247 -13 150 -13 Q68 -13 29 31.5 Q-10 76 4 161 L66 533 L305 533 L250 205 Q244 169 271 169 Q281 169 292.5 173.5 Q304 178 309 185 L367 533 L605 533 L516 0 L328 0 Z M429 829 L506 704 L284 564 L216 657 L429 829 Z " />
<glyph glyph-name="ucircumflex" unicode="&#xfb;" horiz-adv-x="602" d="M328 0 L307 55 Q247 -13 150 -13 Q68 -13 29 31.5 Q-10 76 4 161 L66 533 L305 533 L250 205 Q244 169 271 169 Q281 169 292.5 173.5 Q304 178 309 185 L367 533 L605 533 L516 0 L328 0 Z M435 780 L533 636 L426 563 L351 634 L251 562 L170 637 L317 780 L435 780 Z " />
<glyph glyph-name="udieresis" unicode="&#xfc;" horiz-adv-x="602" d="M328 0 L307 55 Q247 -13 150 -13 Q68 -13 29 31.5 Q-10 76 4 161 L66 533 L305 533 L250 205 Q244 169 271 169 Q281 169 292.5 173.5 Q304 178 309 185 L367 533 L605 533 L516 0 L328 0 Z M377 650 Q377 694 409 725.5 Q441 757 498 757 Q547 757 567.5 735 Q588 713 588 681 Q588 634 555.5 605 Q523 576 469 576 Q422 576 399.5 595.5 Q377 615 377 650 Z M122 650 Q122 694 154 725.5 Q186 757 243 757 Q291 757 311.5 735 Q332 713 332 681 Q332 634 299.5 605 Q267 576 214 576 Q167 576 144.5 595.5 Q122 615 122 650 Z " />
<glyph glyph-name="yacute" unicode="&#xfd;" horiz-adv-x="584" d="M27 -23 L99 -23 Q120 -23 126 -16 Q132 -9 134 2 L137 18 L23 533 L271 533 L279 247 L283 247 L382 533 L627 533 L360 40 L348 -27 Q334 -114 282.5 -157 Q231 -200 139 -200 L-2 -200 L27 -23 Z M428 829 L505 704 L283 564 L215 657 L428 829 Z " />
<glyph glyph-name="thorn" unicode="&#xfe;" horiz-adv-x="629" d="M245 180 Q264 169 283 169 Q320 169 337.5 205 Q355 241 355 301 Q355 361 319 361 Q297 361 273 346 L245 180 Z M-56 -200 L97 720 L329 720 L291 488 Q320 511 362.5 528 Q405 545 453 545 Q483 545 511.5 534.5 Q540 524 561.5 500 Q583 476 596.5 437 Q610 398 610 341 Q610 261 592.5 195.5 Q575 130 540.5 84 Q506 38 455 13 Q404 -12 338 -12 Q293 -12 264.5 0 Q236 12 219 25 L182 -200 L-56 -200 Z " />
<glyph glyph-name="ydieresis" unicode="&#xff;" horiz-adv-x="584" d="M27 -23 L99 -23 Q120 -23 126 -16 Q132 -9 134 2 L137 18 L23 533 L271 533 L279 247 L283 247 L382 533 L627 533 L360 40 L348 -27 Q334 -114 282.5 -157 Q231 -200 139 -200 L-2 -200 L27 -23 Z M366 650 Q366 694 398 725.5 Q430 757 487 757 Q536 757 556.5 735 Q577 713 577 681 Q577 634 544.5 605 Q512 576 458 576 Q411 576 388.5 595.5 Q366 615 366 650 Z M111 650 Q111 694 143 725.5 Q175 757 232 757 Q280 757 300.5 735 Q321 713 321 681 Q321 634 288.5 605 Q256 576 203 576 Q156 576 133.5 595.5 Q111 615 111 650 Z " />
<glyph glyph-name="Amacron" unicode="&#x100;" horiz-adv-x="737" d="M575 720 L692 0 L420 0 L412 95 L233 95 L194 0 L-65 0 L291 720 L575 720 Z M400 268 L392 474 L306 268 L400 268 Z M315 912 L608 912 L584 769 L291 769 L315 912 Z " />
<glyph glyph-name="amacron" unicode="&#x101;" horiz-adv-x="645" d="M339 57 Q312 23 272 5 Q232 -13 184 -13 Q93 -13 50 39 Q7 91 7 191 Q7 287 33.5 354 Q60 421 101.5 463.5 Q143 506 194 525.5 Q245 545 293 545 Q329 545 364 535 Q399 525 424 491 L449 533 L642 533 L553 0 L346 0 L339 57 Z M372 346 Q365 355 354 359.5 Q343 364 332 364 Q311 364 297 350.5 Q283 337 275.5 317 Q268 297 265 273.5 Q262 250 262 230 Q262 168 301 168 Q312 168 323.5 171.5 Q335 175 345 184 L372 346 Z M255 730 L548 730 L524 587 L231 587 L255 730 Z " />
<glyph glyph-name="Abreve" unicode="&#x102;" horiz-adv-x="737" d="M575 720 L692 0 L420 0 L412 95 L233 95 L194 0 L-65 0 L291 720 L575 720 Z M400 268 L392 474 L306 268 L400 268 Z M440 868 Q466 868 477.5 880 Q489 892 497 917 L622 899 Q604 830 556.5 793.5 Q509 757 422 757 Q334 757 297.5 792 Q261 827 264 899 L399 918 Q399 892 407.5 880 Q416 868 440 868 Z " />
<glyph glyph-name="abreve" unicode="&#x103;" horiz-adv-x="645" d="M339 57 Q312 23 272 5 Q232 -13 184 -13 Q93 -13 50 39 Q7 91 7 191 Q7 287 33.5 354 Q60 421 101.5 463.5 Q143 506 194 525.5 Q245 545 293 545 Q329 545 364 535 Q399 525 424 491 L449 533 L642 533 L553 0 L346 0 L339 57 Z M372 346 Q365 355 354 359.5 Q343 364 332 364 Q311 364 297 350.5 Q283 337 275.5 317 Q268 297 265 273.5 Q262 250 262 230 Q262 168 301 168 Q312 168 323.5 171.5 Q335 175 345 184 L372 346 Z M406 693 Q432 693 444 707.5 Q456 722 464 749 L589 731 Q571 663 522 620 Q473 577 387 577 Q299 577 263.5 618 Q228 659 231 731 L366 750 Q365 721 373.5 707 Q382 693 406 693 Z " />
<glyph glyph-name="Aogonek" unicode="&#x104;" horiz-adv-x="737" d="M575 720 L692 0 L635 0 Q602 -32 579.5 -63 Q557 -94 557 -109 Q557 -124 574 -124 Q584 -124 594.5 -122.5 Q605 -121 622 -116 L632 -210 Q607 -221 568.5 -233.5 Q530 -246 489 -246 Q459 -246 439 -239 Q419 -232 406.5 -220.5 Q394 -209 388.5 -194 Q383 -179 383 -163 Q383 -117 414.5 -77.5 Q446 -38 495 0 L420 0 L412 95 L233 95 L194 0 L-65 0 L291 720 L575 720 Z M400 268 L392 474 L306 268 L400 268 Z " />
<glyph glyph-name="aogonek" unicode="&#x105;" horiz-adv-x="645" d="M339 57 Q312 23 272 5 Q232 -13 184 -13 Q93 -13 50 39 Q7 91 7 191 Q7 287 33.5 354 Q60 421 101.5 463.5 Q143 506 194 525.5 Q245 545 293 545 Q329 545 364 535 Q399 525 424 491 L449 533 L642 533 L553 0 Q517 -32 493 -62.5 Q469 -93 469 -109 Q469 -124 486 -124 Q496 -124 506.5 -122.5 Q517 -121 534 -116 L544 -210 Q519 -221 480.5 -233.5 Q442 -246 401 -246 Q371 -246 351 -239 Q331 -232 318.5 -220.5 Q306 -209 300.5 -194 Q295 -179 295 -163 Q295 -116 326.5 -77 Q358 -38 406 0 L346 0 L339 57 Z M372 346 Q365 355 354 359.5 Q343 364 332 364 Q311 364 297 350.5 Q283 337 275.5 317 Q268 297 265 273.5 Q262 250 262 230 Q262 168 301 168 Q312 168 323.5 171.5 Q335 175 345 184 L372 346 Z " />
<glyph glyph-name="Cacute" unicode="&#x106;" horiz-adv-x="692" d="M634 113 Q549 46 467 15.5 Q385 -15 299 -15 Q230 -15 177 6 Q124 27 89 65 Q54 103 36 157.5 Q18 212 18 279 Q18 376 46.5 459.5 Q75 543 129 604 Q183 665 260.5 700 Q338 735 436 735 Q501 735 553 718.5 Q605 702 640 665.5 Q675 629 689.5 569.5 Q704 510 694 424 L452 424 Q455 467 443 486.5 Q431 506 396 506 Q346 506 314 459.5 Q282 413 282 317 Q282 262 305 238 Q328 214 369 214 Q420 214 467 232.5 Q514 251 562 280 L634 113 Z M548 982 L598 846 L371 750 L327 858 L548 982 Z " />
<glyph glyph-name="cacute" unicode="&#x107;" horiz-adv-x="569" d="M500 66 Q478 52 449.5 38 Q421 24 388 12.5 Q355 1 318 -6 Q281 -13 242 -13 Q192 -13 149 2 Q106 17 74 46 Q42 75 23.5 119 Q5 163 5 220 Q5 287 27.5 346 Q50 405 93 449.5 Q136 494 198 519.5 Q260 545 339 545 Q397 545 441.5 531.5 Q486 518 514.5 488.5 Q543 459 553.5 413.5 Q564 368 554 304 L359 304 Q364 336 356.5 350 Q349 364 327 364 Q297 364 278.5 332.5 Q260 301 260 241 Q260 204 275.5 188.5 Q291 173 318 173 Q348 173 389.5 185 Q431 197 476 214 L500 66 Z M430 829 L507 704 L285 564 L217 657 L430 829 Z " />
<glyph glyph-name="Ccircumflex" unicode="&#x108;" horiz-adv-x="692" d="M634 113 Q549 46 467 15.5 Q385 -15 299 -15 Q230 -15 177 6 Q124 27 89 65 Q54 103 36 157.5 Q18 212 18 279 Q18 376 46.5 459.5 Q75 543 129 604 Q183 665 260.5 700 Q338 735 436 735 Q501 735 553 718.5 Q605 702 640 665.5 Q675 629 689.5 569.5 Q704 510 694 424 L452 424 Q455 467 443 486.5 Q431 506 396 506 Q346 506 314 459.5 Q282 413 282 317 Q282 262 305 238 Q328 214 369 214 Q420 214 467 232.5 Q514 251 562 280 L634 113 Z M532 939 L635 820 L536 747 L452 813 L345 746 L271 821 L414 939 L532 939 Z " />
<glyph glyph-name="ccircumflex" unicode="&#x109;" horiz-adv-x="569" d="M500 66 Q478 52 449.5 38 Q421 24 388 12.5 Q355 1 318 -6 Q281 -13 242 -13 Q192 -13 149 2 Q106 17 74 46 Q42 75 23.5 119 Q5 163 5 220 Q5 287 27.5 346 Q50 405 93 449.5 Q136 494 198 519.5 Q260 545 339 545 Q397 545 441.5 531.5 Q486 518 514.5 488.5 Q543 459 553.5 413.5 Q564 368 554 304 L359 304 Q364 336 356.5 350 Q349 364 327 364 Q297 364 278.5 332.5 Q260 301 260 241 Q260 204 275.5 188.5 Q291 173 318 173 Q348 173 389.5 185 Q431 197 476 214 L500 66 Z M424 780 L522 636 L415 563 L340 634 L240 562 L159 637 L306 780 L424 780 Z " />
<glyph glyph-name="Cdotaccent" unicode="&#x10a;" horiz-adv-x="692" d="M634 113 Q549 46 467 15.5 Q385 -15 299 -15 Q230 -15 177 6 Q124 27 89 65 Q54 103 36 157.5 Q18 212 18 279 Q18 376 46.5 459.5 Q75 543 129 604 Q183 665 260.5 700 Q338 735 436 735 Q501 735 553 718.5 Q605 702 640 665.5 Q675 629 689.5 569.5 Q704 510 694 424 L452 424 Q455 467 443 486.5 Q431 506 396 506 Q346 506 314 459.5 Q282 413 282 317 Q282 262 305 238 Q328 214 369 214 Q420 214 467 232.5 Q514 251 562 280 L634 113 Z M333 841 Q333 870 344.5 892 Q356 914 375.5 928.5 Q395 943 421 950.5 Q447 958 477 958 Q528 958 559 937 Q590 916 590 872 Q590 843 579 821 Q568 799 548.5 784.5 Q529 770 502 763 Q475 756 444 756 Q396 756 364.5 777 Q333 798 333 841 Z " />
<glyph glyph-name="cdotaccent" unicode="&#x10b;" horiz-adv-x="569" d="M500 66 Q478 52 449.5 38 Q421 24 388 12.5 Q355 1 318 -6 Q281 -13 242 -13 Q192 -13 149 2 Q106 17 74 46 Q42 75 23.5 119 Q5 163 5 220 Q5 287 27.5 346 Q50 405 93 449.5 Q136 494 198 519.5 Q260 545 339 545 Q397 545 441.5 531.5 Q486 518 514.5 488.5 Q543 459 553.5 413.5 Q564 368 554 304 L359 304 Q364 336 356.5 350 Q349 364 327 364 Q297 364 278.5 332.5 Q260 301 260 241 Q260 204 275.5 188.5 Q291 173 318 173 Q348 173 389.5 185 Q431 197 476 214 L500 66 Z M225 649 Q225 678 236.5 700 Q248 722 267.5 736.5 Q287 751 313 758.5 Q339 766 369 766 Q420 766 451 745 Q482 724 482 680 Q482 621 440 592.5 Q398 564 335 564 Q287 564 256 585 Q225 606 225 649 Z " />
<glyph glyph-name="Ccaron" unicode="&#x10c;" horiz-adv-x="692" d="M634 113 Q549 46 467 15.5 Q385 -15 299 -15 Q230 -15 177 6 Q124 27 89 65 Q54 103 36 157.5 Q18 212 18 279 Q18 376 46.5 459.5 Q75 543 129 604 Q183 665 260.5 700 Q338 735 436 735 Q501 735 553 718.5 Q605 702 640 665.5 Q675 629 689.5 569.5 Q704 510 694 424 L452 424 Q455 467 443 486.5 Q431 506 396 506 Q346 506 314 459.5 Q282 413 282 317 Q282 262 305 238 Q328 214 369 214 Q420 214 467 232.5 Q514 251 562 280 L634 113 Z M391 759 L288 878 L387 951 L472 885 L578 952 L652 877 L509 759 L391 759 Z " />
<glyph glyph-name="ccaron" unicode="&#x10d;" horiz-adv-x="569" d="M500 66 Q478 52 449.5 38 Q421 24 388 12.5 Q355 1 318 -6 Q281 -13 242 -13 Q192 -13 149 2 Q106 17 74 46 Q42 75 23.5 119 Q5 163 5 220 Q5 287 27.5 346 Q50 405 93 449.5 Q136 494 198 519.5 Q260 545 339 545 Q397 545 441.5 531.5 Q486 518 514.5 488.5 Q543 459 553.5 413.5 Q564 368 554 304 L359 304 Q364 336 356.5 350 Q349 364 327 364 Q297 364 278.5 332.5 Q260 301 260 241 Q260 204 275.5 188.5 Q291 173 318 173 Q348 173 389.5 185 Q431 197 476 214 L500 66 Z M276 576 L177 720 L285 793 L361 722 L460 794 L541 719 L394 576 L276 576 Z " />
<glyph glyph-name="Dcaron" unicode="&#x10e;" horiz-adv-x="712" d="M311 503 L263 217 L312 217 Q376 217 407 264.5 Q438 312 438 399 Q438 503 360 503 L311 503 Z M405 720 Q483 720 539 697.5 Q595 675 631 636 Q667 597 684.5 544 Q702 491 702 431 Q702 332 677.5 252 Q653 172 598 116 Q543 60 456 30 Q369 0 245 0 L-21 0 L99 720 L405 720 Z M299 759 L196 878 L295 951 L380 885 L486 952 L560 877 L417 759 L299 759 Z " />
<glyph glyph-name="dcaron" unicode="&#x10f;" horiz-adv-x="784" d="M337 57 Q310 23 270 5 Q230 -13 182 -13 Q91 -13 48 39 Q5 91 5 191 Q5 287 31.5 354 Q58 421 99.5 463.5 Q141 506 192 525.5 Q243 545 291 545 Q319 545 348.5 537 Q378 529 398 510 L433 720 L671 720 L551 0 L344 0 L337 57 Z M370 346 Q363 355 352 359.5 Q341 364 330 364 Q309 364 295 350.5 Q281 337 273.5 317 Q266 297 263 273.5 Q260 250 260 230 Q260 168 299 168 Q310 168 321.5 171.5 Q333 175 343 184 L370 346 Z M719 720 L888 720 L799 498 L658 498 L719 720 Z " />
<glyph glyph-name="Dcroat" unicode="&#x110;" horiz-adv-x="770" d="M43 432 L109 432 L157 720 L463 720 Q541 720 597 697.5 Q653 675 689 636 Q725 597 742.5 544 Q760 491 760 431 Q760 332 735.5 252 Q711 172 656 116 Q601 60 514 30 Q427 0 303 0 L37 0 L84 278 L18 278 L43 432 Z M368 503 L356 432 L443 432 L418 278 L331 278 L320 217 L369 217 Q434 217 465 264.5 Q496 312 496 399 Q496 503 417 503 L368 503 Z " />
<glyph glyph-name="dcroat" unicode="&#x111;" horiz-adv-x="642" d="M298 674 L427 674 L434 720 L672 720 L665 674 L709 674 L688 551 L644 551 L552 0 L345 0 L338 57 Q311 22 274 5 Q237 -12 193 -12 Q99 -12 52 36.5 Q5 85 5 186 Q5 276 31 338.5 Q57 401 98 440.5 Q139 480 189 497.5 Q239 515 287 515 Q315 515 344.5 507 Q374 499 394 480 L406 551 L277 551 L298 674 Z M366 316 Q359 325 348 329.5 Q337 334 326 334 Q313 334 301 324.5 Q289 315 280 299.5 Q271 284 265.5 263.5 Q260 243 260 222 Q260 168 298 168 Q309 168 321.5 171.5 Q334 175 344 184 L366 316 Z " />
<glyph glyph-name="Emacron" unicode="&#x112;" horiz-adv-x="580" d="M99 720 L620 720 L584 503 L311 503 L302 446 L549 446 L520 277 L273 277 L263 217 L537 217 L501 0 L-21 0 L99 720 Z M245 913 L538 913 L514 770 L221 770 L245 913 Z " />
<glyph glyph-name="emacron" unicode="&#x113;" horiz-adv-x="577" d="M490 42 Q436 16 377.5 1.5 Q319 -13 246 -13 Q187 -13 142.5 3.5 Q98 20 68 49.5 Q38 79 22.5 120.5 Q7 162 7 212 Q7 285 31.5 346 Q56 407 100.5 451.5 Q145 496 207.5 520.5 Q270 545 346 545 Q400 545 442 531.5 Q484 518 513 494.5 Q542 471 557 438.5 Q572 406 572 368 Q572 327 557 297.5 Q542 268 506 247.5 Q470 227 409.5 214 Q349 201 257 193 Q257 188 259 182 Q261 176 267 170.5 Q273 165 283 161 Q293 157 309 157 Q340 157 378.5 163 Q417 169 473 183 L490 42 Z M256 312 Q312 314 333 329 Q354 344 354 358 Q354 375 344.5 382 Q335 389 321 389 Q312 389 302 385.5 Q292 382 282.5 373.5 Q273 365 266 350 Q259 335 256 312 Z M218 730 L511 730 L487 587 L194 587 L218 730 Z " />
<glyph glyph-name="Ebreve" unicode="&#x114;" horiz-adv-x="580" d="M99 720 L620 720 L584 503 L311 503 L302 446 L549 446 L520 277 L273 277 L263 217 L537 217 L501 0 L-21 0 L99 720 Z M383 869 Q409 869 420.5 881 Q432 893 440 918 L565 900 Q547 831 499.5 794.5 Q452 758 365 758 Q277 758 240.5 793 Q204 828 207 900 L342 919 Q342 893 350.5 881 Q359 869 383 869 Z " />
<glyph glyph-name="ebreve" unicode="&#x115;" horiz-adv-x="577" d="M490 42 Q436 16 377.5 1.5 Q319 -13 246 -13 Q187 -13 142.5 3.5 Q98 20 68 49.5 Q38 79 22.5 120.5 Q7 162 7 212 Q7 285 31.5 346 Q56 407 100.5 451.5 Q145 496 207.5 520.5 Q270 545 346 545 Q400 545 442 531.5 Q484 518 513 494.5 Q542 471 557 438.5 Q572 406 572 368 Q572 327 557 297.5 Q542 268 506 247.5 Q470 227 409.5 214 Q349 201 257 193 Q257 188 259 182 Q261 176 267 170.5 Q273 165 283 161 Q293 157 309 157 Q340 157 378.5 163 Q417 169 473 183 L490 42 Z M256 312 Q312 314 333 329 Q354 344 354 358 Q354 375 344.5 382 Q335 389 321 389 Q312 389 302 385.5 Q292 382 282.5 373.5 Q273 365 266 350 Q259 335 256 312 Z M351 693 Q377 693 389 707.5 Q401 722 409 749 L534 731 Q516 663 467 620 Q418 577 332 577 Q244 577 208.5 618 Q173 659 176 731 L311 750 Q310 721 318.5 707 Q327 693 351 693 Z " />
<glyph glyph-name="Edotaccent" unicode="&#x116;" horiz-adv-x="580" d="M99 720 L620 720 L584 503 L311 503 L302 446 L549 446 L520 277 L273 277 L263 217 L537 217 L501 0 L-21 0 L99 720 Z M253 842 Q253 871 264.5 893 Q276 915 295.5 929.5 Q315 944 341 951.5 Q367 959 397 959 Q448 959 479 938 Q510 917 510 873 Q510 844 499 822 Q488 800 468.5 785.5 Q449 771 422 764 Q395 757 364 757 Q316 757 284.5 778 Q253 799 253 842 Z " />
<glyph glyph-name="edotaccent" unicode="&#x117;" horiz-adv-x="577" d="M490 42 Q436 16 377.5 1.5 Q319 -13 246 -13 Q187 -13 142.5 3.5 Q98 20 68 49.5 Q38 79 22.5 120.5 Q7 162 7 212 Q7 285 31.5 346 Q56 407 100.5 451.5 Q145 496 207.5 520.5 Q270 545 346 545 Q400 545 442 531.5 Q484 518 513 494.5 Q542 471 557 438.5 Q572 406 572 368 Q572 327 557 297.5 Q542 268 506 247.5 Q470 227 409.5 214 Q349 201 257 193 Q257 188 259 182 Q261 176 267 170.5 Q273 165 283 161 Q293 157 309 157 Q340 157 378.5 163 Q417 169 473 183 L490 42 Z M256 312 Q312 314 333 329 Q354 344 354 358 Q354 375 344.5 382 Q335 389 321 389 Q312 389 302 385.5 Q292 382 282.5 373.5 Q273 365 266 350 Q259 335 256 312 Z M220 649 Q220 678 231.5 700 Q243 722 262.5 736.5 Q282 751 308 758.5 Q334 766 364 766 Q415 766 446 745 Q477 724 477 680 Q477 621 435 592.5 Q393 564 330 564 Q282 564 251 585 Q220 606 220 649 Z " />
<glyph glyph-name="Eogonek" unicode="&#x118;" horiz-adv-x="580" d="M99 720 L620 720 L584 503 L311 503 L302 446 L549 446 L520 277 L273 277 L263 217 L537 217 L501 0 L462 0 Q429 -32 406 -63 Q383 -94 383 -109 Q383 -124 401 -124 Q410 -124 421 -122.5 Q432 -121 449 -116 L458 -210 Q446 -216 429.5 -222 Q413 -228 394.5 -233.5 Q376 -239 355.5 -242.5 Q335 -246 315 -246 Q286 -246 266 -239 Q246 -232 233.5 -220.5 Q221 -209 215.5 -194 Q210 -179 210 -163 Q210 -117 241.5 -77.5 Q273 -38 321 0 L-21 0 L99 720 Z " />
<glyph glyph-name="eogonek" unicode="&#x119;" horiz-adv-x="577" d="M490 42 Q473 34 456 24.5 Q439 15 423 4 Q372 -31 348.5 -60.5 Q325 -90 325 -109 Q325 -124 342 -124 Q352 -124 362.5 -122.5 Q373 -121 390 -116 L400 -210 Q375 -221 336.5 -233.5 Q298 -246 257 -246 Q227 -246 207 -239 Q187 -232 174.5 -220.5 Q162 -209 156.5 -194 Q151 -179 151 -163 Q151 -120 177.5 -84 Q204 -48 246 -13 Q187 -13 142.5 3.5 Q98 20 68 49.5 Q38 79 22.5 120.5 Q7 162 7 212 Q7 285 31.5 346 Q56 407 100.5 451.5 Q145 496 207.5 520.5 Q270 545 346 545 Q400 545 442 531.5 Q484 518 513 494.5 Q542 471 557 438.5 Q572 406 572 368 Q572 327 557 297.5 Q542 268 506 247.5 Q470 227 409.5 214 Q349 201 257 193 Q257 188 259 182 Q261 176 267 170.5 Q273 165 283 161 Q293 157 309 157 Q340 157 378.5 163 Q417 169 473 183 L490 42 Z M256 312 Q312 314 333 329 Q354 344 354 358 Q354 375 344.5 382 Q335 389 321 389 Q312 389 302 385.5 Q292 382 282.5 373.5 Q273 365 266 350 Q259 335 256 312 Z " />
<glyph glyph-name="Ecaron" unicode="&#x11a;" horiz-adv-x="580" d="M99 720 L620 720 L584 503 L311 503 L302 446 L549 446 L520 277 L273 277 L263 217 L537 217 L501 0 L-21 0 L99 720 Z M307 760 L204 879 L303 952 L388 886 L494 953 L568 878 L425 760 L307 760 Z " />
<glyph glyph-name="ecaron" unicode="&#x11b;" horiz-adv-x="577" d="M490 42 Q436 16 377.5 1.5 Q319 -13 246 -13 Q187 -13 142.5 3.5 Q98 20 68 49.5 Q38 79 22.5 120.5 Q7 162 7 212 Q7 285 31.5 346 Q56 407 100.5 451.5 Q145 496 207.5 520.5 Q270 545 346 545 Q400 545 442 531.5 Q484 518 513 494.5 Q542 471 557 438.5 Q572 406 572 368 Q572 327 557 297.5 Q542 268 506 247.5 Q470 227 409.5 214 Q349 201 257 193 Q257 188 259 182 Q261 176 267 170.5 Q273 165 283 161 Q293 157 309 157 Q340 157 378.5 163 Q417 169 473 183 L490 42 Z M256 312 Q312 314 333 329 Q354 344 354 358 Q354 375 344.5 382 Q335 389 321 389 Q312 389 302 385.5 Q292 382 282.5 373.5 Q273 365 266 350 Q259 335 256 312 Z M277 576 L178 720 L286 793 L362 722 L461 794 L542 719 L395 576 L277 576 Z " />
<glyph glyph-name="Gcircumflex" unicode="&#x11c;" horiz-adv-x="699" d="M383 402 L684 402 L633 95 Q555 33 473.5 9 Q392 -15 305 -15 Q226 -15 171 10 Q116 35 82 76 Q48 117 33 171 Q18 225 18 283 Q18 371 43 452.5 Q68 534 119.5 597 Q171 660 250 697.5 Q329 735 436 735 Q511 735 563 716.5 Q615 698 646.5 662 Q678 626 689.5 573.5 Q701 521 696 453 L449 453 Q448 484 435.5 497 Q423 510 395 510 Q342 510 310.5 457 Q279 404 279 300 Q279 255 295 225.5 Q311 196 353 196 Q401 196 434 216 L439 243 L357 243 L383 402 Z M529 939 L632 820 L533 747 L449 813 L342 746 L268 821 L411 939 L529 939 Z " />
<glyph glyph-name="gcircumflex" unicode="&#x11d;" horiz-adv-x="639" d="M562 71 Q549 -8 523 -61.5 Q497 -115 457.5 -148 Q418 -181 365 -195.5 Q312 -210 244 -210 Q213 -210 181.5 -207 Q150 -204 120.5 -198.5 Q91 -193 65.5 -186.5 Q40 -180 22 -174 L80 -21 Q112 -29 153 -35.5 Q194 -42 236 -42 Q278 -42 298.5 -26 Q319 -10 326 28 L333 74 Q301 39 261.5 26 Q222 13 187 13 Q149 13 116 21 Q83 29 58 50 Q33 71 19 106.5 Q5 142 5 198 Q5 276 25.5 340 Q46 404 83.5 449.5 Q121 495 172.5 520 Q224 545 287 545 Q332 545 366 530.5 Q400 516 421 491 L446 533 L639 533 L562 71 Z M369 346 Q353 364 329 364 Q315 364 303 354.5 Q291 345 281.5 328.5 Q272 312 266.5 290.5 Q261 269 261 245 Q261 216 271.5 204.5 Q282 193 303 193 Q326 193 346 209 L369 346 Z M477 780 L575 636 L468 563 L393 634 L293 562 L212 637 L359 780 L477 780 Z " />
<glyph glyph-name="Gbreve" unicode="&#x11e;" horiz-adv-x="699" d="M383 402 L684 402 L633 95 Q555 33 473.5 9 Q392 -15 305 -15 Q226 -15 171 10 Q116 35 82 76 Q48 117 33 171 Q18 225 18 283 Q18 371 43 452.5 Q68 534 119.5 597 Q171 660 250 697.5 Q329 735 436 735 Q511 735 563 716.5 Q615 698 646.5 662 Q678 626 689.5 573.5 Q701 521 696 453 L449 453 Q448 484 435.5 497 Q423 510 395 510 Q342 510 310.5 457 Q279 404 279 300 Q279 255 295 225.5 Q311 196 353 196 Q401 196 434 216 L439 243 L357 243 L383 402 Z M460 868 Q486 868 497.5 880 Q509 892 517 917 L642 899 Q624 830 576.5 793.5 Q529 757 442 757 Q354 757 317.5 792 Q281 827 284 899 L419 918 Q419 892 427.5 880 Q436 868 460 868 Z " />
<glyph glyph-name="gbreve" unicode="&#x11f;" horiz-adv-x="639" d="M562 71 Q549 -8 523 -61.5 Q497 -115 457.5 -148 Q418 -181 365 -195.5 Q312 -210 244 -210 Q213 -210 181.5 -207 Q150 -204 120.5 -198.5 Q91 -193 65.5 -186.5 Q40 -180 22 -174 L80 -21 Q112 -29 153 -35.5 Q194 -42 236 -42 Q278 -42 298.5 -26 Q319 -10 326 28 L333 74 Q301 39 261.5 26 Q222 13 187 13 Q149 13 116 21 Q83 29 58 50 Q33 71 19 106.5 Q5 142 5 198 Q5 276 25.5 340 Q46 404 83.5 449.5 Q121 495 172.5 520 Q224 545 287 545 Q332 545 366 530.5 Q400 516 421 491 L446 533 L639 533 L562 71 Z M369 346 Q353 364 329 364 Q315 364 303 354.5 Q291 345 281.5 328.5 Q272 312 266.5 290.5 Q261 269 261 245 Q261 216 271.5 204.5 Q282 193 303 193 Q326 193 346 209 L369 346 Z M396 693 Q422 693 434 707.5 Q446 722 454 749 L579 731 Q561 663 512 620 Q463 577 377 577 Q289 577 253.5 618 Q218 659 221 731 L356 750 Q355 721 363.5 707 Q372 693 396 693 Z " />
<glyph glyph-name="Gdotaccent" unicode="&#x120;" horiz-adv-x="699" d="M383 402 L684 402 L633 95 Q555 33 473.5 9 Q392 -15 305 -15 Q226 -15 171 10 Q116 35 82 76 Q48 117 33 171 Q18 225 18 283 Q18 371 43 452.5 Q68 534 119.5 597 Q171 660 250 697.5 Q329 735 436 735 Q511 735 563 716.5 Q615 698 646.5 662 Q678 626 689.5 573.5 Q701 521 696 453 L449 453 Q448 484 435.5 497 Q423 510 395 510 Q342 510 310.5 457 Q279 404 279 300 Q279 255 295 225.5 Q311 196 353 196 Q401 196 434 216 L439 243 L357 243 L383 402 Z M337 841 Q337 870 348.5 892 Q360 914 379.5 928.5 Q399 943 425 950.5 Q451 958 481 958 Q532 958 563 937 Q594 916 594 872 Q594 843 583 821 Q572 799 552.5 784.5 Q533 770 506 763 Q479 756 448 756 Q400 756 368.5 777 Q337 798 337 841 Z " />
<glyph glyph-name="gdotaccent" unicode="&#x121;" horiz-adv-x="639" d="M562 71 Q549 -8 523 -61.5 Q497 -115 457.5 -148 Q418 -181 365 -195.5 Q312 -210 244 -210 Q213 -210 181.5 -207 Q150 -204 120.5 -198.5 Q91 -193 65.5 -186.5 Q40 -180 22 -174 L80 -21 Q112 -29 153 -35.5 Q194 -42 236 -42 Q278 -42 298.5 -26 Q319 -10 326 28 L333 74 Q301 39 261.5 26 Q222 13 187 13 Q149 13 116 21 Q83 29 58 50 Q33 71 19 106.5 Q5 142 5 198 Q5 276 25.5 340 Q46 404 83.5 449.5 Q121 495 172.5 520 Q224 545 287 545 Q332 545 366 530.5 Q400 516 421 491 L446 533 L639 533 L562 71 Z M369 346 Q353 364 329 364 Q315 364 303 354.5 Q291 345 281.5 328.5 Q272 312 266.5 290.5 Q261 269 261 245 Q261 216 271.5 204.5 Q282 193 303 193 Q326 193 346 209 L369 346 Z M278 649 Q278 678 289.5 700 Q301 722 320.5 736.5 Q340 751 366 758.5 Q392 766 422 766 Q473 766 504 745 Q535 724 535 680 Q535 621 493 592.5 Q451 564 388 564 Q340 564 309 585 Q278 606 278 649 Z " />
<glyph glyph-name="Gcommaaccent" unicode="&#x122;" horiz-adv-x="699" d="M383 402 L684 402 L633 95 Q555 33 473.5 9 Q392 -15 305 -15 Q226 -15 171 10 Q116 35 82 76 Q48 117 33 171 Q18 225 18 283 Q18 371 43 452.5 Q68 534 119.5 597 Q171 660 250 697.5 Q329 735 436 735 Q511 735 563 716.5 Q615 698 646.5 662 Q678 626 689.5 573.5 Q701 521 696 453 L449 453 Q448 484 435.5 497 Q423 510 395 510 Q342 510 310.5 457 Q279 404 279 300 Q279 255 295 225.5 Q311 196 353 196 Q401 196 434 216 L439 243 L357 243 L383 402 Z M281 -38 L433 -77 L332 -271 L206 -238 L281 -38 Z " />
<glyph glyph-name="gcommaaccent" unicode="&#x123;" horiz-adv-x="639" d="M562 71 Q549 -8 523 -61.5 Q497 -115 457.5 -148 Q418 -181 365 -195.5 Q312 -210 244 -210 Q213 -210 181.5 -207 Q150 -204 120.5 -198.5 Q91 -193 65.5 -186.5 Q40 -180 22 -174 L80 -21 Q112 -29 153 -35.5 Q194 -42 236 -42 Q278 -42 298.5 -26 Q319 -10 326 28 L333 74 Q301 39 261.5 26 Q222 13 187 13 Q149 13 116 21 Q83 29 58 50 Q33 71 19 106.5 Q5 142 5 198 Q5 276 25.5 340 Q46 404 83.5 449.5 Q121 495 172.5 520 Q224 545 287 545 Q332 545 366 530.5 Q400 516 421 491 L446 533 L639 533 L562 71 Z M369 346 Q353 364 329 364 Q315 364 303 354.5 Q291 345 281.5 328.5 Q272 312 266.5 290.5 Q261 269 261 245 Q261 216 271.5 204.5 Q282 193 303 193 Q326 193 346 209 L369 346 Z M426 565 L273 603 L375 797 L501 765 L426 565 Z " />
<glyph glyph-name="Hcircumflex" unicode="&#x124;" horiz-adv-x="708" d="M99 720 L347 720 L303 457 L447 457 L491 720 L739 720 L619 0 L371 0 L411 240 L267 240 L227 0 L-21 0 L99 720 Z M517 939 L620 820 L521 747 L437 813 L330 746 L256 821 L399 939 L517 939 Z " />
<glyph glyph-name="hcircumflex" unicode="&#x125;" horiz-adv-x="605" d="M335 720 L298 496 Q327 519 365.5 532 Q404 545 445 545 Q480 545 509 534.5 Q538 524 557.5 502.5 Q577 481 585 449.5 Q593 418 586 376 L523 0 L284 0 L337 314 Q342 344 336 353.5 Q330 363 315 363 Q295 363 273 347 L215 0 L-23 0 L97 720 L335 720 Z M309 937 L412 818 L313 745 L229 811 L122 744 L48 819 L191 937 L309 937 Z " />
<glyph glyph-name="Hbar" unicode="&#x126;" horiz-adv-x="771" d="M63 644 L119 644 L131 720 L379 720 L367 644 L511 644 L523 720 L771 720 L759 644 L814 644 L790 501 L735 501 L651 0 L403 0 L443 240 L299 240 L259 0 L11 0 L95 501 L39 501 L63 644 Z M479 457 L487 501 L343 501 L335 457 L479 457 Z " />
<glyph glyph-name="hbar" unicode="&#x127;" horiz-adv-x="605" d="M335 720 L328 674 L446 674 L425 551 L307 551 L291 456 Q320 479 359 492 Q398 505 439 505 Q474 505 503 494.5 Q532 484 551 462.5 Q570 441 578 409.5 Q586 378 579 336 L523 0 L284 0 L330 274 Q335 304 328.5 314 Q322 324 307 324 Q296 324 286.5 319.5 Q277 315 266 307 L215 0 L-23 0 L69 551 L15 551 L36 674 L90 674 L97 720 L335 720 Z " />
<glyph glyph-name="Itilde" unicode="&#x128;" horiz-adv-x="316" d="M99 720 L347 720 L227 0 L-21 0 L99 720 Z M441 904 Q430 875 416.5 849 Q403 823 386 803.5 Q369 784 348.5 773 Q328 762 304 762 Q284 762 264.5 766.5 Q245 771 228.5 776.5 Q212 782 198 786.5 Q184 791 175 791 Q162 791 152.5 784 Q143 777 129 755 L36 801 Q48 828 62.5 853 Q77 878 94 897.5 Q111 917 131 928.5 Q151 940 175 940 Q194 940 212 935.5 Q230 931 245.5 926 Q261 921 274.5 916.5 Q288 912 300 912 Q317 912 325 921 Q333 930 343 947 L441 904 Z " />
<glyph glyph-name="itilde" unicode="&#x129;" horiz-adv-x="305" d="M218 0 L-20 0 L69 533 L307 533 L218 0 Z M397 728 Q386 699 372.5 673 Q359 647 342 627.5 Q325 608 304 597 Q283 586 259 586 Q239 586 220 590.5 Q201 595 184.5 600.5 Q168 606 154 610.5 Q140 615 131 615 Q118 615 108.5 608 Q99 601 85 579 L-8 625 Q4 652 18.5 677 Q33 702 50 721.5 Q67 741 87 752.5 Q107 764 131 764 Q150 764 167.5 759.5 Q185 755 200.5 750 Q216 745 229.5 740.5 Q243 736 255 736 Q272 736 280 745 Q288 754 299 771 L397 728 Z " />
<glyph glyph-name="Imacron" unicode="&#x12a;" horiz-adv-x="316" d="M99 720 L347 720 L227 0 L-21 0 L99 720 Z M100 912 L393 912 L369 769 L76 769 L100 912 Z " />
<glyph glyph-name="imacron" unicode="&#x12b;" horiz-adv-x="305" d="M218 0 L-20 0 L69 533 L307 533 L218 0 Z M70 730 L363 730 L339 587 L46 587 L70 730 Z " />
<glyph glyph-name="Ibreve" unicode="&#x12c;" horiz-adv-x="316" d="M99 720 L347 720 L227 0 L-21 0 L99 720 Z M244 868 Q270 868 281.5 880 Q293 892 301 917 L426 899 Q408 830 360.5 793.5 Q313 757 226 757 Q138 757 101.5 792 Q65 827 68 899 L203 918 Q203 892 211.5 880 Q220 868 244 868 Z " />
<glyph glyph-name="ibreve" unicode="&#x12d;" horiz-adv-x="305" d="M218 0 L-20 0 L69 533 L307 533 L218 0 Z M216 693 Q242 693 254 707.5 Q266 722 274 749 L399 731 Q381 663 332 620 Q283 577 197 577 Q109 577 73.5 618 Q38 659 41 731 L176 750 Q175 721 183.5 707 Q192 693 216 693 Z " />
<glyph glyph-name="Iogonek" unicode="&#x12e;" horiz-adv-x="316" d="M99 720 L347 720 L227 0 L187 0 Q154 -32 131 -63 Q108 -94 108 -109 Q108 -124 126 -124 Q136 -124 146.5 -122.5 Q157 -121 174 -116 L183 -210 Q171 -216 155 -222 Q139 -228 120 -233.5 Q101 -239 81 -242.5 Q61 -246 41 -246 Q11 -246 -9 -239 Q-29 -232 -41.5 -220.5 Q-54 -209 -59.5 -194 Q-65 -179 -65 -163 Q-65 -117 -33.5 -77.5 Q-2 -38 46 0 L-21 0 L99 720 Z " />
<glyph glyph-name="iogonek" unicode="&#x12f;" horiz-adv-x="305" d="M218 0 Q167 -29 139 -61 Q111 -93 111 -109 Q111 -124 129 -124 Q139 -124 149.5 -122.5 Q160 -121 177 -116 L186 -210 Q174 -216 158 -222 Q142 -228 123 -233.5 Q104 -239 84 -242.5 Q64 -246 44 -246 Q14 -246 -6 -239 Q-26 -232 -38.5 -220.5 Q-51 -209 -56.5 -194 Q-62 -179 -62 -163 Q-62 -117 -30.5 -77.5 Q1 -38 49 0 L-20 0 L69 533 L307 533 L218 0 Z M82 649 Q82 678 93.5 700 Q105 722 124.5 736.5 Q144 751 170 758.5 Q196 766 226 766 Q277 766 308 745 Q339 724 339 680 Q339 621 297 592.5 Q255 564 192 564 Q144 564 113 585 Q82 606 82 649 Z " />
<glyph glyph-name="Idotaccent" unicode="&#x130;" horiz-adv-x="316" d="M99 720 L347 720 L227 0 L-21 0 L99 720 Z M111 841 Q111 870 122.5 892 Q134 914 153.5 928.5 Q173 943 199 950.5 Q225 958 255 958 Q306 958 337 937 Q368 916 368 872 Q368 843 357 821 Q346 799 326.5 784.5 Q307 770 280 763 Q253 756 222 756 Q174 756 142.5 777 Q111 798 111 841 Z " />
<glyph glyph-name="dotlessi" unicode="&#x131;" horiz-adv-x="305" d="M218 0 L-20 0 L69 533 L307 533 L218 0 Z " />
<glyph glyph-name="IJ" unicode="&#x132;" horiz-adv-x="745" d="M99 720 L347 720 L227 0 L-21 0 L99 720 Z M701 234 Q680 107 612.5 47 Q545 -13 443 -13 Q388 -13 346 -8 Q304 -3 272 6 L315 204 Q327 201 346.5 198.5 Q366 196 386 196 Q420 196 435 209.5 Q450 223 457 261 L533 720 L782 720 L701 234 Z " />
<glyph glyph-name="ij" unicode="&#x133;" horiz-adv-x="592" d="M82 649 Q82 678 93.5 700 Q105 722 124.5 736.5 Q144 751 170 758.5 Q196 766 226 766 Q277 766 308 745 Q339 724 339 680 Q339 621 297 592.5 Q255 564 192 564 Q144 564 113 585 Q82 606 82 649 Z M218 0 L-20 0 L69 533 L307 533 L218 0 Z M503 -11 Q486 -111 429.5 -159.5 Q373 -208 270 -208 Q200 -208 155 -193 L191 -39 Q211 -43 228 -43 Q246 -43 254 -36 Q262 -29 265 -9 L356 533 L594 533 L503 -11 Z M372 649 Q372 678 383.5 700 Q395 722 414.5 736.5 Q434 751 460 758.5 Q486 766 516 766 Q567 766 598 745 Q629 724 629 680 Q629 621 587 592.5 Q545 564 482 564 Q434 564 403 585 Q372 606 372 649 Z " />
<glyph glyph-name="Jcircumflex" unicode="&#x134;" horiz-adv-x="430" d="M385 234 Q364 107 296.5 47 Q229 -13 127 -13 Q72 -13 30 -8 Q-12 -3 -44 6 L-1 204 Q11 201 30.5 198.5 Q50 196 70 196 Q104 196 119 209.5 Q134 223 141 261 L217 720 L466 720 L385 234 Z M443 939 L546 820 L447 747 L363 813 L256 746 L182 821 L325 939 L443 939 Z " />
<glyph glyph-name="jcircumflex" unicode="&#x135;" horiz-adv-x="307" d="M218 -11 Q201 -111 144.5 -159.5 Q88 -208 -15 -208 Q-85 -208 -130 -193 L-94 -39 Q-74 -43 -57 -43 Q-39 -43 -31 -36 Q-23 -29 -20 -9 L71 533 L309 533 L218 -11 Z M291 780 L389 636 L282 563 L207 634 L107 562 L26 637 L173 780 L291 780 Z " />
<glyph glyph-name="Kcommaaccent" unicode="&#x136;" horiz-adv-x="706" d="M99 720 L347 720 L304 458 L329 458 L496 720 L772 720 L528 364 L661 0 L379 0 L295 252 L269 252 L227 0 L-21 0 L99 720 Z M235 -38 L387 -77 L286 -271 L160 -238 L235 -38 Z " />
<glyph glyph-name="kcommaaccent" unicode="&#x137;" horiz-adv-x="619" d="M282 381 L300 381 L387 533 L641 533 L480 290 L574 0 L313 0 L261 192 L250 192 L218 0 L-20 0 L100 720 L338 720 L282 381 Z M188 -38 L340 -77 L239 -271 L113 -238 L188 -38 Z " />
<glyph glyph-name="kgreenlandic" unicode="&#x138;" horiz-adv-x="612" d="M270 371 L288 371 L393 533 L634 533 L455 279 L571 0 L327 0 L249 182 L238 182 L208 0 L-30 0 L59 533 L297 533 L270 371 Z " />
<glyph glyph-name="Lacute" unicode="&#x139;" horiz-adv-x="566" d="M347 720 L262 209 L526 209 L491 0 L-21 0 L99 720 L347 720 Z M334 982 L384 846 L157 750 L113 858 L334 982 Z " />
<glyph glyph-name="lacute" unicode="&#x13a;" horiz-adv-x="305" d="M-20 0 L100 720 L338 720 L218 0 L-20 0 Z M316 982 L366 846 L139 750 L95 858 L316 982 Z " />
<glyph glyph-name="Lcommaaccent" unicode="&#x13b;" horiz-adv-x="566" d="M347 720 L262 209 L526 209 L491 0 L-21 0 L99 720 L347 720 Z M187 -38 L339 -77 L238 -271 L112 -238 L187 -38 Z " />
<glyph glyph-name="lcommaaccent" unicode="&#x13c;" horiz-adv-x="305" d="M-20 0 L100 720 L338 720 L218 0 L-20 0 Z M23 -38 L175 -77 L74 -271 L-52 -238 L23 -38 Z " />
<glyph glyph-name="Lcaron" unicode="&#x13d;" horiz-adv-x="566" d="M347 720 L262 209 L526 209 L491 0 L-21 0 L99 720 L347 720 Z M447 720 L616 720 L527 498 L386 498 L447 720 Z " />
<glyph glyph-name="lcaron" unicode="&#x13e;" horiz-adv-x="448" d="M-20 0 L100 720 L338 720 L218 0 L-20 0 Z M396 720 L565 720 L476 498 L335 498 L396 720 Z " />
<glyph glyph-name="Ldot" unicode="&#x13f;" horiz-adv-x="566" d="M347 720 L262 209 L526 209 L491 0 L-21 0 L99 720 L347 720 Z M321 373 Q321 402 332.5 424 Q344 446 363.5 460.5 Q383 475 409 482.5 Q435 490 465 490 Q516 490 547 469 Q578 448 578 404 Q578 345 536 316.5 Q494 288 431 288 Q383 288 352 309 Q321 330 321 373 Z " />
<glyph glyph-name="ldot" unicode="&#x140;" horiz-adv-x="548" d="M-18 0 L102 720 L340 720 L220 0 L-18 0 Z M306 336 Q306 365 317.5 387 Q329 409 348.5 423.5 Q368 438 394 445.5 Q420 453 450 453 Q501 453 532 432 Q563 411 563 367 Q563 308 521 279.5 Q479 251 416 251 Q368 251 337 272 Q306 293 306 336 Z " />
<glyph glyph-name="Lslash" unicode="&#x141;" horiz-adv-x="581" d="M361 720 L322 483 L484 540 L457 374 L294 318 L276 209 L541 209 L506 0 L-6 0 L34 240 L-17 221 L11 387 L62 406 L114 720 L361 720 Z " />
<glyph glyph-name="lslash" unicode="&#x142;" horiz-adv-x="400" d="M28 379 L95 408 L147 720 L385 720 L346 487 L411 515 L380 329 L315 301 L265 0 L27 0 L64 222 L-3 193 L28 379 Z " />
<glyph glyph-name="Nacute" unicode="&#x143;" horiz-adv-x="716" d="M99 720 L307 720 L453 396 L506 720 L747 720 L627 0 L418 0 L268 299 L219 0 L-21 0 L99 720 Z M537 982 L587 846 L360 750 L316 858 L537 982 Z " />
<glyph glyph-name="nacute" unicode="&#x144;" horiz-adv-x="596" d="M259 533 L274 485 Q299 506 341 525.5 Q383 545 430 545 Q467 545 497.5 534.5 Q528 524 548 502.5 Q568 481 575.5 448.5 Q583 416 576 372 L514 0 L277 0 L330 319 Q335 346 330 355 Q325 364 310 364 Q301 364 292.5 360 Q284 356 273 348 L215 0 L-23 0 L66 533 L259 533 Z M419 829 L496 704 L274 564 L206 657 L419 829 Z " />
<glyph glyph-name="Ncommaaccent" unicode="&#x145;" horiz-adv-x="716" d="M99 720 L307 720 L453 396 L506 720 L747 720 L627 0 L418 0 L268 299 L219 0 L-21 0 L99 720 Z M266 -38 L418 -77 L317 -271 L191 -238 L266 -38 Z " />
<glyph glyph-name="ncommaaccent" unicode="&#x146;" horiz-adv-x="596" d="M259 533 L274 485 Q299 506 341 525.5 Q383 545 430 545 Q467 545 497.5 534.5 Q528 524 548 502.5 Q568 481 575.5 448.5 Q583 416 576 372 L514 0 L277 0 L330 319 Q335 346 330 355 Q325 364 310 364 Q301 364 292.5 360 Q284 356 273 348 L215 0 L-23 0 L66 533 L259 533 Z M176 -38 L328 -77 L227 -271 L101 -238 L176 -38 Z " />
<glyph glyph-name="Ncaron" unicode="&#x147;" horiz-adv-x="716" d="M99 720 L307 720 L453 396 L506 720 L747 720 L627 0 L418 0 L268 299 L219 0 L-21 0 L99 720 Z M361 759 L258 878 L357 951 L442 885 L548 952 L622 877 L479 759 L361 759 Z " />
<glyph glyph-name="ncaron" unicode="&#x148;" horiz-adv-x="596" d="M259 533 L274 485 Q299 506 341 525.5 Q383 545 430 545 Q467 545 497.5 534.5 Q528 524 548 502.5 Q568 481 575.5 448.5 Q583 416 576 372 L514 0 L277 0 L330 319 Q335 346 330 355 Q325 364 310 364 Q301 364 292.5 360 Q284 356 273 348 L215 0 L-23 0 L66 533 L259 533 Z M266 576 L167 720 L275 793 L351 722 L450 794 L531 719 L384 576 L266 576 Z " />
<glyph glyph-name="napostrophe" unicode="&#x149;" horiz-adv-x="669" d="M332 533 L347 485 Q372 506 414 525.5 Q456 545 503 545 Q540 545 570.5 534.5 Q601 524 621 502.5 Q641 481 648.5 448.5 Q656 416 649 372 L587 0 L350 0 L403 319 Q408 346 403 355 Q398 364 383 364 Q374 364 365.5 360 Q357 356 346 348 L288 0 L50 0 L139 533 L332 533 Z M-12 636 Q-12 674 15 699.5 Q42 725 80 725 Q115 725 132.5 703 Q150 681 150 647 Q150 581 106.5 534.5 Q63 488 -12 474 L-23 533 Q11 543 23.5 555.5 Q36 568 44 585 Q36 583 26 585 Q16 587 10 590 Q-2 597 -7 609.5 Q-12 622 -12 636 Z " />
<glyph glyph-name="Eng" unicode="&#x14a;" horiz-adv-x="716" d="M99 720 L311 720 L452 410 L503 720 L747 720 L626 -7 Q609 -107 548 -155.5 Q487 -204 393 -204 Q342 -204 306.5 -198.5 Q271 -193 248 -185 L285 -31 Q294 -34 308 -36.5 Q322 -39 337 -39 Q361 -39 374 -25.5 Q387 -12 392 18 L396 39 L271 286 L223 0 L-21 0 L99 720 Z " />
<glyph glyph-name="eng" unicode="&#x14b;" horiz-adv-x="596" d="M259 533 L274 485 Q299 506 341 525.5 Q383 545 430 545 Q467 545 497.5 534.5 Q528 524 548 502.5 Q568 481 575.5 448.5 Q583 416 576 372 L513 -7 Q496 -107 439.5 -155.5 Q383 -204 281 -204 Q211 -204 165 -189 L201 -35 Q221 -39 237 -39 Q256 -39 264.5 -32 Q273 -25 276 -5 L330 319 Q335 346 330 355 Q325 364 310 364 Q301 364 292.5 360 Q284 356 273 348 L215 0 L-23 0 L66 533 L259 533 Z " />
<glyph glyph-name="Omacron" unicode="&#x14c;" horiz-adv-x="781" d="M281 322 Q281 300 285.5 280.5 Q290 261 300.5 246 Q311 231 328.5 222.5 Q346 214 371 214 Q410 214 436.5 231 Q463 248 479 274 Q495 300 502 331.5 Q509 363 509 393 Q509 415 504.5 435 Q500 455 489.5 471 Q479 487 462 496.5 Q445 506 420 506 Q381 506 354.5 488 Q328 470 311.5 443 Q295 416 288 383.5 Q281 351 281 322 Z M18 291 Q18 389 48.5 470.5 Q79 552 135.5 611 Q192 670 272.5 702.5 Q353 735 453 735 Q532 735 592 712 Q652 689 692.5 648 Q733 607 753 550 Q773 493 773 425 Q773 329 742 248 Q711 167 654 108.5 Q597 50 516.5 17.5 Q436 -15 336 -15 Q256 -15 196.5 8 Q137 31 97 71.5 Q57 112 37.5 168 Q18 224 18 291 Z M344 912 L637 912 L613 769 L320 769 L344 912 Z " />
<glyph glyph-name="omacron" unicode="&#x14d;" horiz-adv-x="643" d="M327 364 Q305 364 291.5 349 Q278 334 270 312 Q262 290 259 266 Q256 242 256 224 Q256 169 294 169 Q314 169 327.5 184.5 Q341 200 349 222.5 Q357 245 360 269 Q363 293 363 310 Q363 364 327 364 Z M5 219 Q5 296 30 356.5 Q55 417 101 459 Q147 501 211 523 Q275 545 352 545 Q409 545 457.5 531 Q506 517 541.5 488.5 Q577 460 597 416 Q617 372 617 312 Q617 231 591.5 170 Q566 109 520 68.5 Q474 28 409.5 7.5 Q345 -13 266 -13 Q206 -13 157.5 1 Q109 15 75.5 43.5 Q42 72 23.5 116 Q5 160 5 219 Z M228 730 L521 730 L497 587 L204 587 L228 730 Z " />
<glyph glyph-name="Obreve" unicode="&#x14e;" horiz-adv-x="781" d="M281 322 Q281 300 285.5 280.5 Q290 261 300.5 246 Q311 231 328.5 222.5 Q346 214 371 214 Q410 214 436.5 231 Q463 248 479 274 Q495 300 502 331.5 Q509 363 509 393 Q509 415 504.5 435 Q500 455 489.5 471 Q479 487 462 496.5 Q445 506 420 506 Q381 506 354.5 488 Q328 470 311.5 443 Q295 416 288 383.5 Q281 351 281 322 Z M18 291 Q18 389 48.5 470.5 Q79 552 135.5 611 Q192 670 272.5 702.5 Q353 735 453 735 Q532 735 592 712 Q652 689 692.5 648 Q733 607 753 550 Q773 493 773 425 Q773 329 742 248 Q711 167 654 108.5 Q597 50 516.5 17.5 Q436 -15 336 -15 Q256 -15 196.5 8 Q137 31 97 71.5 Q57 112 37.5 168 Q18 224 18 291 Z M488 868 Q514 868 525.5 880 Q537 892 545 917 L670 899 Q652 830 604.5 793.5 Q557 757 470 757 Q382 757 345.5 792 Q309 827 312 899 L447 918 Q447 892 455.5 880 Q464 868 488 868 Z " />
<glyph glyph-name="obreve" unicode="&#x14f;" horiz-adv-x="643" d="M327 364 Q305 364 291.5 349 Q278 334 270 312 Q262 290 259 266 Q256 242 256 224 Q256 169 294 169 Q314 169 327.5 184.5 Q341 200 349 222.5 Q357 245 360 269 Q363 293 363 310 Q363 364 327 364 Z M5 219 Q5 296 30 356.5 Q55 417 101 459 Q147 501 211 523 Q275 545 352 545 Q409 545 457.5 531 Q506 517 541.5 488.5 Q577 460 597 416 Q617 372 617 312 Q617 231 591.5 170 Q566 109 520 68.5 Q474 28 409.5 7.5 Q345 -13 266 -13 Q206 -13 157.5 1 Q109 15 75.5 43.5 Q42 72 23.5 116 Q5 160 5 219 Z M375 693 Q401 693 413 707.5 Q425 722 433 749 L558 731 Q540 663 491 620 Q442 577 356 577 Q268 577 232.5 618 Q197 659 200 731 L335 750 Q334 721 342.5 707 Q351 693 375 693 Z " />
<glyph glyph-name="Ohungarumlaut" unicode="&#x150;" horiz-adv-x="781" d="M281 322 Q281 300 285.5 280.5 Q290 261 300.5 246 Q311 231 328.5 222.5 Q346 214 371 214 Q410 214 436.5 231 Q463 248 479 274 Q495 300 502 331.5 Q509 363 509 393 Q509 415 504.5 435 Q500 455 489.5 471 Q479 487 462 496.5 Q445 506 420 506 Q381 506 354.5 488 Q328 470 311.5 443 Q295 416 288 383.5 Q281 351 281 322 Z M18 291 Q18 389 48.5 470.5 Q79 552 135.5 611 Q192 670 272.5 702.5 Q353 735 453 735 Q532 735 592 712 Q652 689 692.5 648 Q733 607 753 550 Q773 493 773 425 Q773 329 742 248 Q711 167 654 108.5 Q597 50 516.5 17.5 Q436 -15 336 -15 Q256 -15 196.5 8 Q137 31 97 71.5 Q57 112 37.5 168 Q18 224 18 291 Z M547 915 L387 747 L308 810 L446 986 L547 915 Z M728 895 L567 746 L490 811 L636 973 L728 895 Z " />
<glyph glyph-name="ohungarumlaut" unicode="&#x151;" horiz-adv-x="643" d="M327 364 Q305 364 291.5 349 Q278 334 270 312 Q262 290 259 266 Q256 242 256 224 Q256 169 294 169 Q314 169 327.5 184.5 Q341 200 349 222.5 Q357 245 360 269 Q363 293 363 310 Q363 364 327 364 Z M5 219 Q5 296 30 356.5 Q55 417 101 459 Q147 501 211 523 Q275 545 352 545 Q409 545 457.5 531 Q506 517 541.5 488.5 Q577 460 597 416 Q617 372 617 312 Q617 231 591.5 170 Q566 109 520 68.5 Q474 28 409.5 7.5 Q345 -13 266 -13 Q206 -13 157.5 1 Q109 15 75.5 43.5 Q42 72 23.5 116 Q5 160 5 219 Z M436 729 L284 567 L203 630 L342 806 L436 729 Z M621 715 L461 564 L384 629 L528 793 L621 715 Z " />
<glyph glyph-name="OE" unicode="&#x152;" horiz-adv-x="1046" d="M472 38 Q456 25 435.5 15.5 Q415 6 392.5 0 Q370 -6 347 -9 Q324 -12 302 -12 Q231 -12 177.5 10 Q124 32 88.5 71.5 Q53 111 35 166 Q17 221 17 286 Q17 380 47.5 461.5 Q78 543 133.5 603.5 Q189 664 267 698.5 Q345 733 439 733 Q481 733 520.5 720.5 Q560 708 582 684 L588 720 L1086 720 L1050 503 L777 503 L768 446 L1015 446 L986 277 L739 277 L729 217 L1003 217 L967 0 L466 0 L472 38 Z M281 326 Q281 305 285.5 285.5 Q290 266 300.5 251 Q311 236 328.5 226.5 Q346 217 371 217 Q406 217 432 232.5 Q458 248 475 273 Q492 298 500.5 330 Q509 362 509 395 Q509 440 489 472 Q469 504 419 504 Q381 504 355 486.5 Q329 469 312.5 442 Q296 415 288.5 384 Q281 353 281 326 Z " />
<glyph glyph-name="oe" unicode="&#x153;" horiz-adv-x="930" d="M5 214 Q5 301 33.5 363.5 Q62 426 109 466.5 Q156 507 215 526 Q274 545 336 545 Q393 545 440 528 Q487 511 515 480 Q530 493 551.5 504.5 Q573 516 598 525 Q623 534 651 539.5 Q679 545 708 545 Q758 545 798.5 531.5 Q839 518 867 494.5 Q895 471 910 438.5 Q925 406 925 368 Q925 327 910 297.5 Q895 268 859 247.5 Q823 227 762.5 214 Q702 201 610 193 Q610 188 612 182 Q614 176 620 170.5 Q626 165 636 161 Q646 157 662 157 Q693 157 731.5 163 Q770 169 826 183 L843 42 Q789 16 730.5 1.5 Q672 -13 599 -13 Q551 -13 509.5 2.5 Q468 18 443 50 Q403 15 356.5 1 Q310 -13 258 -13 Q204 -13 157.5 0.5 Q111 14 77.5 42 Q44 70 24.5 112.5 Q5 155 5 214 Z M257 231 Q257 169 295 169 Q329 169 346 208 Q363 247 363 304 Q363 364 328 364 Q309 364 295.5 353.5 Q282 343 273.5 325 Q265 307 261 282.5 Q257 258 257 231 Z M612 312 Q668 314 689 329 Q710 344 710 358 Q710 375 700.5 382 Q691 389 677 389 Q668 389 658 385.5 Q648 382 638.5 373.5 Q629 365 622 350 Q615 335 612 312 Z " />
<glyph glyph-name="Racute" unicode="&#x154;" horiz-adv-x="672" d="M414 720 Q476 720 522.5 705 Q569 690 600.5 662.5 Q632 635 648 596 Q664 557 664 510 Q664 431 632.5 370.5 Q601 310 532 267 L622 0 L368 0 L308 208 Q295 206 286 205.5 Q277 205 268 205 L261 205 L227 0 L-21 0 L99 720 L414 720 Z M311 508 L292 387 L343 387 Q373 387 392 408.5 Q411 430 411 459 Q411 479 399 493.5 Q387 508 364 508 L311 508 Z M481 982 L531 846 L304 750 L260 858 L481 982 Z " />
<glyph glyph-name="racute" unicode="&#x155;" horiz-adv-x="413" d="M268 471 Q291 503 319 524 Q347 545 379 545 Q399 545 413.5 541 Q428 537 441 530 L393 329 Q375 334 364 335.5 Q353 337 333 337 Q318 337 299.5 330.5 Q281 324 267 312 L215 0 L-23 0 L66 533 L249 533 L268 471 Z M329 829 L406 704 L184 564 L116 657 L329 829 Z " />
<glyph glyph-name="Rcommaaccent" unicode="&#x156;" horiz-adv-x="672" d="M414 720 Q476 720 522.5 705 Q569 690 600.5 662.5 Q632 635 648 596 Q664 557 664 510 Q664 431 632.5 370.5 Q601 310 532 267 L622 0 L368 0 L308 208 Q295 206 286 205.5 Q277 205 268 205 L261 205 L227 0 L-21 0 L99 720 L414 720 Z M311 508 L292 387 L343 387 Q373 387 392 408.5 Q411 430 411 459 Q411 479 399 493.5 Q387 508 364 508 L311 508 Z M243 -38 L395 -77 L294 -271 L168 -238 L243 -38 Z " />
<glyph glyph-name="rcommaaccent" unicode="&#x157;" horiz-adv-x="413" d="M268 471 Q291 503 319 524 Q347 545 379 545 Q399 545 413.5 541 Q428 537 441 530 L393 329 Q375 334 364 335.5 Q353 337 333 337 Q318 337 299.5 330.5 Q281 324 267 312 L215 0 L-23 0 L66 533 L249 533 L268 471 Z M42 -38 L194 -77 L93 -271 L-33 -238 L42 -38 Z " />
<glyph glyph-name="Rcaron" unicode="&#x158;" horiz-adv-x="672" d="M414 720 Q476 720 522.5 705 Q569 690 600.5 662.5 Q632 635 648 596 Q664 557 664 510 Q664 431 632.5 370.5 Q601 310 532 267 L622 0 L368 0 L308 208 Q295 206 286 205.5 Q277 205 268 205 L261 205 L227 0 L-21 0 L99 720 L414 720 Z M311 508 L292 387 L343 387 Q373 387 392 408.5 Q411 430 411 459 Q411 479 399 493.5 Q387 508 364 508 L311 508 Z M313 759 L210 878 L309 951 L394 885 L500 952 L574 877 L431 759 L313 759 Z " />
<glyph glyph-name="rcaron" unicode="&#x159;" horiz-adv-x="413" d="M268 471 Q291 503 319 524 Q347 545 379 545 Q399 545 413.5 541 Q428 537 441 530 L393 329 Q375 334 364 335.5 Q353 337 333 337 Q318 337 299.5 330.5 Q281 324 267 312 L215 0 L-23 0 L66 533 L249 533 L268 471 Z M177 576 L78 720 L186 793 L262 722 L361 794 L442 719 L295 576 L177 576 Z " />
<glyph glyph-name="Sacute" unicode="&#x15a;" horiz-adv-x="625" d="M111 268 Q134 252 159 238 Q184 224 209 213.5 Q234 203 257.5 197 Q281 191 301 191 Q320 191 327 199 Q334 207 334 215 Q334 221 329.5 225.5 Q325 230 312.5 235.5 Q300 241 279 247 Q258 253 225 262 Q191 271 160 286 Q129 301 105 324.5 Q81 348 67 382 Q53 416 53 463 Q53 528 77.5 579 Q102 630 146.5 665.5 Q191 701 251.5 719.5 Q312 738 384 738 Q453 738 521 714 Q589 690 640 648 L524 482 Q490 504 447.5 519.5 Q405 535 369 535 Q363 535 356 534.5 Q349 534 342.5 531.5 Q336 529 331.5 524.5 Q327 520 327 512 Q327 507 330.5 502.5 Q334 498 345.5 492.5 Q357 487 379.5 479 Q402 471 440 460 Q474 450 503 435.5 Q532 421 553 399.5 Q574 378 586 347.5 Q598 317 598 275 Q598 209 573.5 155 Q549 101 505.5 63 Q462 25 402.5 4.5 Q343 -16 272 -16 Q178 -16 99.5 17.5 Q21 51 -26 110 L111 268 Z M516 982 L566 846 L339 750 L295 858 L516 982 Z " />
<glyph glyph-name="sacute" unicode="&#x15b;" horiz-adv-x="519" d="M73 210 Q89 196 108 185 Q127 174 145.5 166 Q164 158 180.5 153.5 Q197 149 208 149 Q229 149 229 162 Q229 173 216.5 177.5 Q204 182 171 195 Q145 205 119 216.5 Q93 228 72 245.5 Q51 263 38 287.5 Q25 312 25 348 Q25 399 47 436.5 Q69 474 106.5 498 Q144 522 192.5 534 Q241 546 294 546 Q363 546 423.5 527 Q484 508 522 475 L427 348 Q395 365 361.5 378.5 Q328 392 306 392 Q300 392 290 390 Q280 388 280 378 Q280 375 282.5 371.5 Q285 368 292 363.5 Q299 359 312.5 353 Q326 347 349 340 Q373 332 397 322 Q421 312 440 296.5 Q459 281 471 258 Q483 235 483 201 Q483 144 461.5 103.5 Q440 63 404.5 37 Q369 11 322 -1 Q275 -13 224 -13 Q139 -13 71 12.5 Q3 38 -43 89 L73 210 Z M392 829 L469 704 L247 564 L179 657 L392 829 Z " />
<glyph glyph-name="Scircumflex" unicode="&#x15c;" horiz-adv-x="625" d="M111 268 Q134 252 159 238 Q184 224 209 213.5 Q234 203 257.5 197 Q281 191 301 191 Q320 191 327 199 Q334 207 334 215 Q334 221 329.5 225.5 Q325 230 312.5 235.5 Q300 241 279 247 Q258 253 225 262 Q191 271 160 286 Q129 301 105 324.5 Q81 348 67 382 Q53 416 53 463 Q53 528 77.5 579 Q102 630 146.5 665.5 Q191 701 251.5 719.5 Q312 738 384 738 Q453 738 521 714 Q589 690 640 648 L524 482 Q490 504 447.5 519.5 Q405 535 369 535 Q363 535 356 534.5 Q349 534 342.5 531.5 Q336 529 331.5 524.5 Q327 520 327 512 Q327 507 330.5 502.5 Q334 498 345.5 492.5 Q357 487 379.5 479 Q402 471 440 460 Q474 450 503 435.5 Q532 421 553 399.5 Q574 378 586 347.5 Q598 317 598 275 Q598 209 573.5 155 Q549 101 505.5 63 Q462 25 402.5 4.5 Q343 -16 272 -16 Q178 -16 99.5 17.5 Q21 51 -26 110 L111 268 Z M478 939 L581 820 L482 747 L398 813 L291 746 L217 821 L360 939 L478 939 Z " />
<glyph glyph-name="scircumflex" unicode="&#x15d;" horiz-adv-x="519" d="M73 210 Q89 196 108 185 Q127 174 145.5 166 Q164 158 180.5 153.5 Q197 149 208 149 Q229 149 229 162 Q229 173 216.5 177.5 Q204 182 171 195 Q145 205 119 216.5 Q93 228 72 245.5 Q51 263 38 287.5 Q25 312 25 348 Q25 399 47 436.5 Q69 474 106.5 498 Q144 522 192.5 534 Q241 546 294 546 Q363 546 423.5 527 Q484 508 522 475 L427 348 Q395 365 361.5 378.5 Q328 392 306 392 Q300 392 290 390 Q280 388 280 378 Q280 375 282.5 371.5 Q285 368 292 363.5 Q299 359 312.5 353 Q326 347 349 340 Q373 332 397 322 Q421 312 440 296.5 Q459 281 471 258 Q483 235 483 201 Q483 144 461.5 103.5 Q440 63 404.5 37 Q369 11 322 -1 Q275 -13 224 -13 Q139 -13 71 12.5 Q3 38 -43 89 L73 210 Z M395 780 L493 636 L386 563 L311 634 L211 562 L130 637 L277 780 L395 780 Z " />
<glyph glyph-name="Scedilla" unicode="&#x15e;" horiz-adv-x="625" d="M111 268 Q134 252 159 238 Q184 224 209 213.5 Q234 203 257.5 197 Q281 191 301 191 Q320 191 327 199 Q334 207 334 215 Q334 221 329.5 225.5 Q325 230 312.5 235.5 Q300 241 279 247 Q258 253 225 262 Q191 271 160 286 Q129 301 105 324.5 Q81 348 67 382 Q53 416 53 463 Q53 528 77.5 579 Q102 630 146.5 665.5 Q191 701 251.5 719.5 Q312 738 384 738 Q453 738 521 714 Q589 690 640 648 L524 482 Q490 504 447.5 519.5 Q405 535 369 535 Q363 535 356 534.5 Q349 534 342.5 531.5 Q336 529 331.5 524.5 Q327 520 327 512 Q327 507 330.5 502.5 Q334 498 345.5 492.5 Q357 487 379.5 479 Q402 471 440 460 Q474 450 503 435.5 Q532 421 553 399.5 Q574 378 586 347.5 Q598 317 598 275 Q598 209 574.5 156 Q551 103 508.5 65 Q466 27 407.5 6 Q349 -15 280 -16 L274 -36 Q314 -39 338 -56.5 Q362 -74 362 -111 Q362 -138 353 -161.5 Q344 -185 325.5 -202.5 Q307 -220 279 -230.5 Q251 -241 214 -241 Q181 -241 154.5 -235.5 Q128 -230 113 -223 L141 -140 Q155 -143 171.5 -146 Q188 -149 205 -149 Q230 -149 238 -143 Q246 -137 246 -124 Q246 -111 233 -107 Q220 -103 193 -103 L169 -103 L200 -10 Q129 1 70.5 31.5 Q12 62 -26 110 L111 268 Z " />
<glyph glyph-name="scedilla" unicode="&#x15f;" horiz-adv-x="519" d="M73 210 Q89 196 108 185 Q127 174 145.5 166 Q164 158 180.5 153.5 Q197 149 208 149 Q229 149 229 162 Q229 173 216.5 177.5 Q204 182 171 195 Q145 205 119 216.5 Q93 228 72 245.5 Q51 263 38 287.5 Q25 312 25 348 Q25 399 47 436.5 Q69 474 106.5 498 Q144 522 192.5 534 Q241 546 294 546 Q363 546 423.5 527 Q484 508 522 475 L427 348 Q395 365 361.5 378.5 Q328 392 306 392 Q300 392 290 390 Q280 388 280 378 Q280 375 282.5 371.5 Q285 368 292 363.5 Q299 359 312.5 353 Q326 347 349 340 Q373 332 397 322 Q421 312 440 296.5 Q459 281 471 258 Q483 235 483 201 Q483 144 461.5 103.5 Q440 63 404.5 37 Q369 11 322 -1 Q275 -13 224 -13 L217 -36 Q257 -39 280.5 -56.5 Q304 -74 304 -111 Q304 -138 295 -161.5 Q286 -185 267.5 -202.5 Q249 -220 221 -230.5 Q193 -241 156 -241 Q124 -241 97 -235.5 Q70 -230 55 -223 L84 -140 Q97 -143 114 -146 Q131 -149 147 -149 Q172 -149 180 -143 Q188 -137 188 -124 Q188 -111 175 -107 Q162 -103 136 -103 L111 -103 L144 -6 Q26 12 -43 89 L73 210 Z " />
<glyph glyph-name="Scaron" unicode="&#x160;" horiz-adv-x="625" d="M111 268 Q134 252 159 238 Q184 224 209 213.5 Q234 203 257.5 197 Q281 191 301 191 Q320 191 327 199 Q334 207 334 215 Q334 221 329.5 225.5 Q325 230 312.5 235.5 Q300 241 279 247 Q258 253 225 262 Q191 271 160 286 Q129 301 105 324.5 Q81 348 67 382 Q53 416 53 463 Q53 528 77.5 579 Q102 630 146.5 665.5 Q191 701 251.5 719.5 Q312 738 384 738 Q453 738 521 714 Q589 690 640 648 L524 482 Q490 504 447.5 519.5 Q405 535 369 535 Q363 535 356 534.5 Q349 534 342.5 531.5 Q336 529 331.5 524.5 Q327 520 327 512 Q327 507 330.5 502.5 Q334 498 345.5 492.5 Q357 487 379.5 479 Q402 471 440 460 Q474 450 503 435.5 Q532 421 553 399.5 Q574 378 586 347.5 Q598 317 598 275 Q598 209 573.5 155 Q549 101 505.5 63 Q462 25 402.5 4.5 Q343 -16 272 -16 Q178 -16 99.5 17.5 Q21 51 -26 110 L111 268 Z M331 759 L228 878 L327 951 L412 885 L518 952 L592 877 L449 759 L331 759 Z " />
<glyph glyph-name="scaron" unicode="&#x161;" horiz-adv-x="519" d="M73 210 Q89 196 108 185 Q127 174 145.5 166 Q164 158 180.5 153.5 Q197 149 208 149 Q229 149 229 162 Q229 173 216.5 177.5 Q204 182 171 195 Q145 205 119 216.5 Q93 228 72 245.5 Q51 263 38 287.5 Q25 312 25 348 Q25 399 47 436.5 Q69 474 106.5 498 Q144 522 192.5 534 Q241 546 294 546 Q363 546 423.5 527 Q484 508 522 475 L427 348 Q395 365 361.5 378.5 Q328 392 306 392 Q300 392 290 390 Q280 388 280 378 Q280 375 282.5 371.5 Q285 368 292 363.5 Q299 359 312.5 353 Q326 347 349 340 Q373 332 397 322 Q421 312 440 296.5 Q459 281 471 258 Q483 235 483 201 Q483 144 461.5 103.5 Q440 63 404.5 37 Q369 11 322 -1 Q275 -13 224 -13 Q139 -13 71 12.5 Q3 38 -43 89 L73 210 Z M238 576 L139 720 L247 793 L323 722 L422 794 L503 719 L356 576 L238 576 Z " />
<glyph glyph-name="Scommaaccent" unicode="&#x218;" horiz-adv-x="625" d="M111 268 Q134 252 159 238 Q184 224 209 213.5 Q234 203 257.5 197 Q281 191 301 191 Q320 191 327 199 Q334 207 334 215 Q334 221 329.5 225.5 Q325 230 312.5 235.5 Q300 241 279 247 Q258 253 225 262 Q191 271 160 286 Q129 301 105 324.5 Q81 348 67 382 Q53 416 53 463 Q53 528 77.5 579 Q102 630 146.5 665.5 Q191 701 251.5 719.5 Q312 738 384 738 Q453 738 521 714 Q589 690 640 648 L524 482 Q490 504 447.5 519.5 Q405 535 369 535 Q363 535 356 534.5 Q349 534 342.5 531.5 Q336 529 331.5 524.5 Q327 520 327 512 Q327 507 330.5 502.5 Q334 498 345.5 492.5 Q357 487 379.5 479 Q402 471 440 460 Q474 450 503 435.5 Q532 421 553 399.5 Q574 378 586 347.5 Q598 317 598 275 Q598 209 573.5 155 Q549 101 505.5 63 Q462 25 402.5 4.5 Q343 -16 272 -16 Q178 -16 99.5 17.5 Q21 51 -26 110 L111 268 Z M216 -38 L368 -77 L267 -271 L141 -238 L216 -38 Z " />
<glyph glyph-name="scommaaccent" unicode="&#x219;" horiz-adv-x="519" d="M73 210 Q89 196 108 185 Q127 174 145.5 166 Q164 158 180.5 153.5 Q197 149 208 149 Q229 149 229 162 Q229 173 216.5 177.5 Q204 182 171 195 Q145 205 119 216.5 Q93 228 72 245.5 Q51 263 38 287.5 Q25 312 25 348 Q25 399 47 436.5 Q69 474 106.5 498 Q144 522 192.5 534 Q241 546 294 546 Q363 546 423.5 527 Q484 508 522 475 L427 348 Q395 365 361.5 378.5 Q328 392 306 392 Q300 392 290 390 Q280 388 280 378 Q280 375 282.5 371.5 Q285 368 292 363.5 Q299 359 312.5 353 Q326 347 349 340 Q373 332 397 322 Q421 312 440 296.5 Q459 281 471 258 Q483 235 483 201 Q483 144 461.5 103.5 Q440 63 404.5 37 Q369 11 322 -1 Q275 -13 224 -13 Q139 -13 71 12.5 Q3 38 -43 89 L73 210 Z M162 -38 L314 -77 L213 -271 L87 -238 L162 -38 Z " />
<glyph glyph-name="uni021A" unicode="&#x21a;" horiz-adv-x="644" d="M225 495 L37 495 L74 720 L698 720 L661 495 L473 495 L390 0 L142 0 L225 495 Z M193 -38 L345 -77 L244 -271 L118 -238 L193 -38 Z " />
<glyph glyph-name="uni021B" unicode="&#x21b;" horiz-adv-x="404" d="M318 374 L288 198 Q286 184 290.5 176.5 Q295 169 312 169 Q323 169 333.5 170.5 Q344 172 352 174 L345 12 Q302 -2 264.5 -7.5 Q227 -13 185 -13 Q139 -13 109 -0.5 Q79 12 62 34 Q45 56 40.5 86 Q36 116 42 151 L80 374 L8 374 L27 491 L112 531 L149 697 L372 697 L344 533 L425 533 L399 374 L318 374 Z M126 -38 L278 -77 L177 -271 L51 -238 L126 -38 Z " />
<glyph glyph-name="Tcaron" unicode="&#x164;" horiz-adv-x="644" d="M225 495 L37 495 L74 720 L698 720 L661 495 L473 495 L390 0 L142 0 L225 495 Z M323 759 L220 878 L319 951 L404 885 L510 952 L584 877 L441 759 L323 759 Z " />
<glyph glyph-name="tcaron" unicode="&#x165;" horiz-adv-x="404" d="M318 374 L288 198 Q286 184 290.5 176.5 Q295 169 312 169 Q323 169 333.5 170.5 Q344 172 352 174 L345 12 Q302 -2 264.5 -7.5 Q227 -13 185 -13 Q139 -13 109 -0.5 Q79 12 62 34 Q45 56 40.5 86 Q36 116 42 151 L80 374 L8 374 L27 491 L112 531 L149 697 L372 697 L344 533 L425 533 L399 374 L318 374 Z M450 813 L619 813 L530 591 L389 591 L450 813 Z " />
<glyph glyph-name="Tbar" unicode="&#x166;" horiz-adv-x="644" d="M114 404 L211 404 L226 495 L38 495 L75 720 L699 720 L662 495 L474 495 L459 404 L554 404 L530 261 L435 261 L391 0 L143 0 L187 261 L90 261 L114 404 Z " />
<glyph glyph-name="tbar" unicode="&#x167;" horiz-adv-x="404" d="M318 374 L312 339 L393 339 L372 216 L291 216 L288 198 Q286 184 290.5 176.5 Q295 169 312 169 Q323 169 333.5 170.5 Q344 172 352 174 L345 12 Q302 -2 264.5 -7.5 Q227 -13 185 -13 Q139 -13 109 -0.5 Q79 12 62 34 Q45 56 40.5 86 Q36 116 42 151 L53 216 L-19 216 L2 339 L74 339 L80 374 L8 374 L27 491 L112 531 L149 697 L372 697 L344 533 L425 533 L399 374 L318 374 Z " />
<glyph glyph-name="uni0162" unicode="&#x162;" horiz-adv-x="644" d="M226 495 L38 495 L75 720 L699 720 L662 495 L474 495 L391 0 L301 0 L290 -36 Q330 -39 353.5 -56.5 Q377 -74 377 -111 Q377 -138 368 -161.5 Q359 -185 340.5 -202.5 Q322 -220 294.5 -230.5 Q267 -241 230 -241 Q197 -241 170.5 -235.5 Q144 -230 128 -223 L157 -140 Q171 -143 187.5 -146 Q204 -149 220 -149 Q248 -149 254.5 -142.5 Q261 -136 261 -124 Q261 -111 248 -107 Q235 -103 209 -103 L184 -103 L220 0 L143 0 L226 495 Z " />
<glyph glyph-name="uni0163" unicode="&#x163;" horiz-adv-x="404" d="M56 -140 Q70 -143 86.5 -146 Q103 -149 120 -149 Q145 -149 153 -143 Q161 -137 161 -124 Q161 -111 148 -107 Q135 -103 108 -103 L84 -103 L117 -4 Q66 13 49.5 54 Q33 95 42 151 L80 374 L8 374 L27 491 L112 531 L149 697 L372 697 L344 533 L425 533 L399 374 L318 374 L288 198 Q286 184 290.5 176.5 Q295 169 312 169 Q323 169 333.5 170.5 Q344 172 352 174 L345 12 Q305 0 269.5 -6 Q234 -12 196 -13 L189 -36 Q229 -39 253 -56.5 Q277 -74 277 -111 Q277 -138 268 -161.5 Q259 -185 240.5 -202.5 Q222 -220 194 -230.5 Q166 -241 129 -241 Q96 -241 69.5 -235.5 Q43 -230 28 -223 L56 -140 Z " />
<glyph glyph-name="Utilde" unicode="&#x168;" horiz-adv-x="687" d="M342 720 L269 281 Q266 261 269 247 Q272 233 280.5 224.5 Q289 216 301 212.5 Q313 209 327 209 Q354 209 374.5 224 Q395 239 402 281 L475 720 L723 720 L650 282 Q636 197 605.5 140 Q575 83 530 48.5 Q485 14 425.5 -0.5 Q366 -15 293 -15 Q138 -15 68 63.5 Q-2 142 23 294 L94 720 L342 720 Z M645 904 Q634 875 620.5 849 Q607 823 590 803.5 Q573 784 552.5 773 Q532 762 508 762 Q488 762 468.5 766.5 Q449 771 432.5 776.5 Q416 782 402 786.5 Q388 791 379 791 Q366 791 356.5 784 Q347 777 333 755 L240 801 Q252 828 266.5 853 Q281 878 298 897.5 Q315 917 335 928.5 Q355 940 379 940 Q398 940 416 935.5 Q434 931 449.5 926 Q465 921 478.5 916.5 Q492 912 504 912 Q521 912 529 921 Q537 930 547 947 L645 904 Z " />
<glyph glyph-name="utilde" unicode="&#x169;" horiz-adv-x="602" d="M328 0 L307 55 Q247 -13 150 -13 Q68 -13 29 31.5 Q-10 76 4 161 L66 533 L305 533 L250 205 Q244 169 271 169 Q281 169 292.5 173.5 Q304 178 309 185 L367 533 L605 533 L516 0 L328 0 Z M558 728 Q547 699 533.5 673 Q520 647 503 627.5 Q486 608 465 597 Q444 586 420 586 Q400 586 381 590.5 Q362 595 345.5 600.5 Q329 606 315 610.5 Q301 615 292 615 Q279 615 269.5 608 Q260 601 246 579 L153 625 Q165 652 179.5 677 Q194 702 211 721.5 Q228 741 248 752.5 Q268 764 292 764 Q311 764 328.5 759.5 Q346 755 361.5 750 Q377 745 390.5 740.5 Q404 736 416 736 Q433 736 441 745 Q449 754 460 771 L558 728 Z " />
<glyph glyph-name="Umacron" unicode="&#x16a;" horiz-adv-x="687" d="M342 720 L269 281 Q266 261 269 247 Q272 233 280.5 224.5 Q289 216 301 212.5 Q313 209 327 209 Q354 209 374.5 224 Q395 239 402 281 L475 720 L723 720 L650 282 Q636 197 605.5 140 Q575 83 530 48.5 Q485 14 425.5 -0.5 Q366 -15 293 -15 Q138 -15 68 63.5 Q-2 142 23 294 L94 720 L342 720 Z M283 912 L576 912 L552 769 L259 769 L283 912 Z " />
<glyph glyph-name="umacron" unicode="&#x16b;" horiz-adv-x="602" d="M328 0 L307 55 Q247 -13 150 -13 Q68 -13 29 31.5 Q-10 76 4 161 L66 533 L305 533 L250 205 Q244 169 271 169 Q281 169 292.5 173.5 Q304 178 309 185 L367 533 L605 533 L516 0 L328 0 Z M222 730 L515 730 L491 587 L198 587 L222 730 Z " />
<glyph glyph-name="Ubreve" unicode="&#x16c;" horiz-adv-x="687" d="M342 720 L269 281 Q266 261 269 247 Q272 233 280.5 224.5 Q289 216 301 212.5 Q313 209 327 209 Q354 209 374.5 224 Q395 239 402 281 L475 720 L723 720 L650 282 Q636 197 605.5 140 Q575 83 530 48.5 Q485 14 425.5 -0.5 Q366 -15 293 -15 Q138 -15 68 63.5 Q-2 142 23 294 L94 720 L342 720 Z M430 868 Q456 868 467.5 880 Q479 892 487 917 L612 899 Q594 830 546.5 793.5 Q499 757 412 757 Q324 757 287.5 792 Q251 827 254 899 L389 918 Q389 892 397.5 880 Q406 868 430 868 Z " />
<glyph glyph-name="ubreve" unicode="&#x16d;" horiz-adv-x="602" d="M328 0 L307 55 Q247 -13 150 -13 Q68 -13 29 31.5 Q-10 76 4 161 L66 533 L305 533 L250 205 Q244 169 271 169 Q281 169 292.5 173.5 Q304 178 309 185 L367 533 L605 533 L516 0 L328 0 Z M357 693 Q383 693 395 707.5 Q407 722 415 749 L540 731 Q522 663 473 620 Q424 577 338 577 Q250 577 214.5 618 Q179 659 182 731 L317 750 Q316 721 324.5 707 Q333 693 357 693 Z " />
<glyph glyph-name="Uring" unicode="&#x16e;" horiz-adv-x="687" d="M342 720 L269 281 Q266 261 269 247 Q272 233 280.5 224.5 Q289 216 301 212.5 Q313 209 327 209 Q354 209 374.5 224 Q395 239 402 281 L475 720 L723 720 L650 282 Q636 197 605.5 140 Q575 83 530 48.5 Q485 14 425.5 -0.5 Q366 -15 293 -15 Q138 -15 68 63.5 Q-2 142 23 294 L94 720 L342 720 Z M392 835 Q392 811 420 811 Q434 811 445 820.5 Q456 830 456 848 Q456 861 448.5 866.5 Q441 872 430 872 Q392 872 392 835 Z M305 819 Q305 849 316 873 Q327 897 345.5 913.5 Q364 930 389 938.5 Q414 947 442 947 Q485 947 513.5 924.5 Q542 902 542 859 Q542 830 530.5 807 Q519 784 500.5 768 Q482 752 457.5 743.5 Q433 735 407 735 Q359 735 332 756 Q305 777 305 819 Z " />
<glyph glyph-name="uring" unicode="&#x16f;" horiz-adv-x="602" d="M328 0 L307 55 Q247 -13 150 -13 Q68 -13 29 31.5 Q-10 76 4 161 L66 533 L305 533 L250 205 Q244 169 271 169 Q281 169 292.5 173.5 Q304 178 309 185 L367 533 L605 533 L516 0 L328 0 Z M326 672 Q326 648 353 648 Q367 648 378 657.5 Q389 667 389 685 Q389 709 364 709 Q326 709 326 672 Z M239 656 Q239 686 250 710 Q261 734 279.5 750.5 Q298 767 323 775.5 Q348 784 376 784 Q419 784 447 761.5 Q475 739 475 696 Q475 667 464 644 Q453 621 434.5 605 Q416 589 391.5 580.5 Q367 572 341 572 Q293 572 266 593 Q239 614 239 656 Z " />
<glyph glyph-name="Uhungarumlaut" unicode="&#x170;" horiz-adv-x="687" d="M342 720 L269 281 Q266 261 269 247 Q272 233 280.5 224.5 Q289 216 301 212.5 Q313 209 327 209 Q354 209 374.5 224 Q395 239 402 281 L475 720 L723 720 L650 282 Q636 197 605.5 140 Q575 83 530 48.5 Q485 14 425.5 -0.5 Q366 -15 293 -15 Q138 -15 68 63.5 Q-2 142 23 294 L94 720 L342 720 Z M486 915 L326 747 L247 810 L385 986 L486 915 Z M667 895 L506 746 L429 811 L575 973 L667 895 Z " />
<glyph glyph-name="uhungarumlaut" unicode="&#x171;" horiz-adv-x="602" d="M328 0 L307 55 Q247 -13 150 -13 Q68 -13 29 31.5 Q-10 76 4 161 L66 533 L305 533 L250 205 Q244 169 271 169 Q281 169 292.5 173.5 Q304 178 309 185 L367 533 L605 533 L516 0 L328 0 Z M414 729 L262 567 L181 630 L320 806 L414 729 Z M599 715 L439 564 L362 629 L506 793 L599 715 Z " />
<glyph glyph-name="Uogonek" unicode="&#x172;" horiz-adv-x="687" d="M342 720 L269 283 Q262 242 278 226.5 Q294 211 322 211 Q349 211 372 226 Q395 241 402 283 L475 720 L723 720 L651 284 Q642 230 625 187 Q608 144 583 109.5 Q558 75 524 48 Q490 21 446 -3 Q424 -15 405 -29.5 Q386 -44 372.5 -59 Q359 -74 351 -87 Q343 -100 343 -109 Q343 -124 361 -124 Q370 -124 381 -122.5 Q392 -121 409 -116 L418 -210 Q406 -216 389.5 -222 Q373 -228 354.5 -233.5 Q336 -239 315.5 -242.5 Q295 -246 275 -246 Q246 -246 226 -239 Q206 -232 193.5 -220.5 Q181 -209 175.5 -194 Q170 -179 170 -163 Q170 -121 196 -84.5 Q222 -48 266 -13 Q122 -8 59.5 64.5 Q-3 137 22 284 L94 720 L342 720 Z " />
<glyph glyph-name="uogonek" unicode="&#x173;" horiz-adv-x="599" d="M516 0 Q468 -32 442 -62 Q416 -92 416 -109 Q416 -124 434 -124 Q444 -124 454.5 -122.5 Q465 -121 482 -116 L491 -210 Q479 -216 463 -222 Q447 -228 428 -233.5 Q409 -239 389 -242.5 Q369 -246 349 -246 Q319 -246 299 -239 Q279 -232 266.5 -220.5 Q254 -209 248.5 -194 Q243 -179 243 -163 Q243 -117 274.5 -77.5 Q306 -38 355 0 L328 0 L307 55 Q247 -13 150 -13 Q68 -13 29 31.5 Q-10 76 4 161 L66 533 L305 533 L250 205 Q244 169 271 169 Q281 169 292.5 173.5 Q304 178 309 185 L367 533 L605 533 L516 0 L516 0 Z " />
<glyph glyph-name="Wcircumflex" unicode="&#x174;" horiz-adv-x="911" d="M55 720 L310 720 L291 325 L295 325 L411 720 L628 720 L612 323 L617 323 L729 720 L985 720 L711 0 L468 0 L465 389 L461 389 L330 0 L87 0 L55 720 Z M607 939 L710 820 L611 747 L527 813 L420 746 L346 821 L489 939 L607 939 Z " />
<glyph glyph-name="wcircumflex" unicode="&#x175;" horiz-adv-x="829" d="M873 533 L635 0 L394 0 L404 228 L399 228 L330 0 L84 0 L24 533 L260 533 L257 244 L261 244 L337 533 L561 533 L551 244 L554 244 L637 533 L873 533 Z M531 780 L629 636 L522 563 L447 634 L347 562 L266 637 L413 780 L531 780 Z " />
<glyph glyph-name="Wgrave" unicode="&#x1e80;" horiz-adv-x="911" d="M55 720 L310 720 L291 325 L295 325 L411 720 L628 720 L612 323 L617 323 L729 720 L985 720 L711 0 L468 0 L465 389 L461 389 L330 0 L87 0 L55 720 Z M672 858 L593 750 L397 846 L491 982 L672 858 Z " />
<glyph glyph-name="wgrave" unicode="&#x1e81;" horiz-adv-x="829" d="M873 533 L635 0 L394 0 L404 228 L399 228 L330 0 L84 0 L24 533 L260 533 L257 244 L261 244 L337 533 L561 533 L551 244 L554 244 L637 533 L873 533 Z M587 657 L488 564 L312 702 L432 828 L587 657 Z " />
<glyph glyph-name="Wacute" unicode="&#x1e82;" horiz-adv-x="911" d="M55 720 L310 720 L291 325 L295 325 L411 720 L628 720 L612 323 L617 323 L729 720 L985 720 L711 0 L468 0 L465 389 L461 389 L330 0 L87 0 L55 720 Z M620 982 L670 846 L443 750 L399 858 L620 982 Z " />
<glyph glyph-name="wacute" unicode="&#x1e83;" horiz-adv-x="829" d="M873 533 L635 0 L394 0 L404 228 L399 228 L330 0 L84 0 L24 533 L260 533 L257 244 L261 244 L337 533 L561 533 L551 244 L554 244 L637 533 L873 533 Z M514 829 L591 704 L369 564 L301 657 L514 829 Z " />
<glyph glyph-name="Wdieresis" unicode="&#x1e84;" horiz-adv-x="911" d="M55 720 L310 720 L291 325 L295 325 L411 720 L628 720 L612 323 L617 323 L729 720 L985 720 L711 0 L468 0 L465 389 L461 389 L330 0 L87 0 L55 720 Z M558 833 Q558 877 590 908.5 Q622 940 679 940 Q728 940 749 918 Q770 896 770 864 Q770 817 737 788 Q704 759 650 759 Q603 759 580.5 778.5 Q558 798 558 833 Z M303 833 Q303 877 335 908.5 Q367 940 424 940 Q472 940 493 918 Q514 896 514 864 Q514 817 481.5 788 Q449 759 395 759 Q348 759 325.5 778.5 Q303 798 303 833 Z " />
<glyph glyph-name="wdieresis" unicode="&#x1e85;" horiz-adv-x="829" d="M873 533 L635 0 L394 0 L404 228 L399 228 L330 0 L84 0 L24 533 L260 533 L257 244 L261 244 L337 533 L561 533 L551 244 L554 244 L637 533 L873 533 Z M489 650 Q489 694 521 725.5 Q553 757 610 757 Q659 757 679.5 735 Q700 713 700 681 Q700 634 667.5 605 Q635 576 581 576 Q534 576 511.5 595.5 Q489 615 489 650 Z M234 650 Q234 694 266 725.5 Q298 757 355 757 Q403 757 423.5 735 Q444 713 444 681 Q444 634 411.5 605 Q379 576 326 576 Q279 576 256.5 595.5 Q234 615 234 650 Z " />
<glyph glyph-name="Ygrave" unicode="&#x1ef2;" horiz-adv-x="728" d="M219 237 L55 720 L325 720 L382 466 L526 720 L803 720 L467 238 L427 0 L179 0 L219 237 Z M576 858 L497 750 L301 846 L395 982 L576 858 Z " />
<glyph glyph-name="ygrave" unicode="&#x1ef3;" horiz-adv-x="584" d="M27 -23 L99 -23 Q120 -23 126 -16 Q132 -9 134 2 L137 18 L23 533 L271 533 L279 247 L283 247 L382 533 L627 533 L360 40 L348 -27 Q334 -114 282.5 -157 Q231 -200 139 -200 L-2 -200 L27 -23 Z M475 657 L376 564 L200 702 L320 828 L475 657 Z " />
<glyph glyph-name="Ycircumflex" unicode="&#x176;" horiz-adv-x="728" d="M219 237 L55 720 L325 720 L382 466 L526 720 L803 720 L467 238 L427 0 L179 0 L219 237 Z M515 939 L618 820 L519 747 L435 813 L328 746 L254 821 L397 939 L515 939 Z " />
<glyph glyph-name="ycircumflex" unicode="&#x177;" horiz-adv-x="584" d="M27 -23 L99 -23 Q120 -23 126 -16 Q132 -9 134 2 L137 18 L23 533 L271 533 L279 247 L283 247 L382 533 L627 533 L360 40 L348 -27 Q334 -114 282.5 -157 Q231 -200 139 -200 L-2 -200 L27 -23 Z M428 780 L526 636 L419 563 L344 634 L244 562 L163 637 L310 780 L428 780 Z " />
<glyph glyph-name="Ydieresis" unicode="&#x178;" horiz-adv-x="728" d="M219 237 L55 720 L325 720 L382 466 L526 720 L803 720 L467 238 L427 0 L179 0 L219 237 Z M469 833 Q469 877 501 908.5 Q533 940 590 940 Q639 940 660 918 Q681 896 681 864 Q681 817 648 788 Q615 759 561 759 Q514 759 491.5 778.5 Q469 798 469 833 Z M214 833 Q214 877 246 908.5 Q278 940 335 940 Q383 940 404 918 Q425 896 425 864 Q425 817 392.5 788 Q360 759 306 759 Q259 759 236.5 778.5 Q214 798 214 833 Z " />
<glyph glyph-name="Zacute" unicode="&#x179;" horiz-adv-x="652" d="M-14 158 L286 503 L48 503 L84 720 L698 720 L683 630 L334 217 L613 217 L577 0 L-40 0 L-14 158 Z M514 982 L564 846 L337 750 L293 858 L514 982 Z " />
<glyph glyph-name="zacute" unicode="&#x17a;" horiz-adv-x="488" d="M-9 145 L174 357 L30 357 L59 533 L503 533 L488 441 L275 175 L445 175 L416 0 L-33 0 L-9 145 Z M364 829 L441 704 L219 564 L151 657 L364 829 Z " />
<glyph glyph-name="Zdotaccent" unicode="&#x17b;" horiz-adv-x="652" d="M-14 158 L286 503 L48 503 L84 720 L698 720 L683 630 L334 217 L613 217 L577 0 L-40 0 L-14 158 Z M279 841 Q279 870 290.5 892 Q302 914 321.5 928.5 Q341 943 367 950.5 Q393 958 423 958 Q474 958 505 937 Q536 916 536 872 Q536 843 525 821 Q514 799 494.5 784.5 Q475 770 448 763 Q421 756 390 756 Q342 756 310.5 777 Q279 798 279 841 Z " />
<glyph glyph-name="zdotaccent" unicode="&#x17c;" horiz-adv-x="488" d="M-9 145 L174 357 L30 357 L59 533 L503 533 L488 441 L275 175 L445 175 L416 0 L-33 0 L-9 145 Z M158 649 Q158 678 169.5 700 Q181 722 200.5 736.5 Q220 751 246 758.5 Q272 766 302 766 Q353 766 384 745 Q415 724 415 680 Q415 621 373 592.5 Q331 564 268 564 Q220 564 189 585 Q158 606 158 649 Z " />
<glyph glyph-name="Zcaron" unicode="&#x17d;" horiz-adv-x="652" d="M-14 158 L286 503 L48 503 L84 720 L698 720 L683 630 L334 217 L613 217 L577 0 L-40 0 L-14 158 Z M334 759 L231 878 L330 951 L415 885 L521 952 L595 877 L452 759 L334 759 Z " />
<glyph glyph-name="zcaron" unicode="&#x17e;" horiz-adv-x="488" d="M-9 145 L174 357 L30 357 L59 533 L503 533 L488 441 L275 175 L445 175 L416 0 L-33 0 L-9 145 Z M222 576 L123 720 L231 793 L307 722 L406 794 L487 719 L340 576 L222 576 Z " />
<glyph glyph-name="longs" unicode="&#x17f;" horiz-adv-x="386" d="M80 374 L12 374 L33 499 L105 525 L107 535 Q124 635 180.5 683.5 Q237 732 339 732 Q377 732 405 728.5 Q433 725 461 717 L424 562 Q402 570 380 570 Q362 570 355 561.5 Q348 553 346 543 L255 0 L17 0 L80 374 Z " />
<glyph glyph-name="dotlessj" unicode="&#x237;" horiz-adv-x="296" d="M210 -11 Q193 -111 136.5 -159.5 Q80 -208 -23 -208 Q-93 -208 -138 -193 L-102 -39 Q-82 -43 -65 -43 Q-47 -43 -39 -36 Q-31 -29 -28 -9 L63 533 L301 533 L210 -11 Z " />
<glyph glyph-name="ff" unicode="&#xfb00;" horiz-adv-x="697" d="M80 374 L12 374 L33 499 L105 525 L107 535 Q123 631 179 681 Q235 731 334 731 Q358 731 385 727 Q412 723 432 718 L397 567 Q390 569 385 569.5 Q380 570 373 570 Q357 570 352.5 561.5 Q348 553 346 543 L344 533 L417 533 Q434 630 492 681.5 Q550 733 651 733 Q689 733 716.5 729.5 Q744 726 772 718 L735 563 Q713 571 692 571 Q674 571 666.5 562.5 Q659 554 657 544 L655 533 L722 533 L696 374 L629 374 L566 0 L328 0 L391 374 L318 374 L255 0 L17 0 L80 374 Z " />
<glyph glyph-name="fi" unicode="&#xfb01;" horiz-adv-x="653" d="M391 374 L318 374 L255 0 L17 0 L80 374 L12 374 L33 499 L105 525 L107 536 Q124 636 178.5 684.5 Q233 733 335 733 Q359 733 378.5 730 Q398 727 424 722 L398 568 Q391 570 387 570.5 Q383 571 376 571 Q360 571 354 562.5 Q348 554 346 544 L344 533 L655 533 L566 0 L328 0 L391 374 Z M451 641 Q451 670 463 692 Q475 714 493.5 728.5 Q512 743 535.5 750.5 Q559 758 583 758 Q602 758 619.5 752.5 Q637 747 651 736 Q665 725 673.5 709 Q682 693 682 671 Q682 642 670 620 Q658 598 638.5 584 Q619 570 595.5 563 Q572 556 549 556 Q530 556 512 561.5 Q494 567 480.5 577.5 Q467 588 459 604 Q451 620 451 641 Z " />
<glyph glyph-name="fl" unicode="&#xfb02;" horiz-adv-x="663" d="M338 0 L401 374 L318 374 L255 0 L17 0 L80 374 L12 374 L33 499 L105 525 L107 536 Q124 636 178.5 684.5 Q233 733 335 733 Q375 733 424 722 L398 568 Q391 570 387 570.5 Q383 571 376 571 Q360 571 354 562.5 Q348 554 346 544 L344 533 L427 533 L458 720 L696 720 L576 0 L338 0 Z " />
<glyph glyph-name="ffi" unicode="&#xfb03;" horiz-adv-x="968" d="M395 374 L318 374 L255 0 L17 0 L80 374 L12 374 L33 499 L105 525 L107 536 Q123 632 179.5 682.5 Q236 733 335 733 Q361 733 385.5 729.5 Q410 726 436 720 L398 568 Q391 570 387 570.5 Q383 571 376 571 Q360 571 354 562.5 Q348 554 346 544 L344 533 L421 533 L422 536 Q439 636 493.5 684.5 Q548 733 650 733 Q674 733 693.5 730 Q713 727 739 722 L713 568 Q706 570 702 570.5 Q698 571 691 571 Q675 571 669 562.5 Q663 554 661 544 L659 533 L970 533 L881 0 L643 0 L706 374 L633 374 L570 0 L332 0 L395 374 Z M766 641 Q766 670 778 692 Q790 714 808.5 728.5 Q827 743 850.5 750.5 Q874 758 898 758 Q917 758 934.5 752.5 Q952 747 966 736 Q980 725 988.5 709 Q997 693 997 671 Q997 642 985 620 Q973 598 953.5 584 Q934 570 910.5 563 Q887 556 864 556 Q845 556 827 561.5 Q809 567 795.5 577.5 Q782 588 774 604 Q766 620 766 641 Z " />
<glyph glyph-name="ffl" unicode="&#xfb04;" horiz-adv-x="976" d="M393 374 L318 374 L255 0 L17 0 L80 374 L12 374 L33 499 L105 525 L107 536 Q123 632 179.5 682.5 Q236 733 335 733 Q361 733 390.5 729.5 Q420 726 445 720 L398 568 Q391 570 387 570.5 Q383 571 376 571 Q360 571 354 562.5 Q348 554 346 544 L344 533 L419 533 L420 536 Q437 636 491.5 684.5 Q546 733 648 733 Q688 733 737 722 L711 568 Q704 570 700 570.5 Q696 571 689 571 Q673 571 667 562.5 Q661 554 659 544 L657 533 L740 533 L771 720 L1009 720 L889 0 L651 0 L714 374 L631 374 L568 0 L330 0 L393 374 Z " />
<glyph glyph-name="circumflex" unicode="&#x2c6;" horiz-adv-x="487" d="M295 780 L393 636 L286 563 L211 634 L111 562 L30 637 L177 780 L295 780 Z " />
<glyph glyph-name="caron" unicode="&#x2c7;" horiz-adv-x="487" d="M142 576 L43 720 L151 793 L227 722 L326 794 L407 719 L260 576 L142 576 Z " />
<glyph glyph-name="uni02C9" unicode="&#x2c9;" horiz-adv-x="488" d="M51 730 L344 730 L320 587 L27 587 L51 730 Z " />
<glyph glyph-name="breve" unicode="&#x2d8;" horiz-adv-x="487" d="M220 693 Q246 693 258 707.5 Q270 722 278 749 L403 731 Q385 663 336 620 Q287 577 201 577 Q113 577 77.5 618 Q42 659 45 731 L180 750 Q179 721 187.5 707 Q196 693 220 693 Z " />
<glyph glyph-name="dieresis" unicode="&#xa8;" horiz-adv-x="488" d="M238 650 Q238 694 270 725.5 Q302 757 359 757 Q408 757 428.5 735 Q449 713 449 681 Q449 634 416.5 605 Q384 576 330 576 Q283 576 260.5 595.5 Q238 615 238 650 Z M-17 650 Q-17 694 15 725.5 Q47 757 104 757 Q152 757 172.5 735 Q193 713 193 681 Q193 634 160.5 605 Q128 576 75 576 Q28 576 5.5 595.5 Q-17 615 -17 650 Z " />
<glyph glyph-name="macron" unicode="&#xaf;" horiz-adv-x="488" d="M80 730 L373 730 L349 587 L56 587 L80 730 Z " />
<glyph glyph-name="degree" unicode="&#xb0;" horiz-adv-x="329" d="M140 677 Q140 652 153 637 Q166 622 191 622 Q211 622 225.5 637.5 Q240 653 240 677 Q240 701 225.5 716 Q211 731 191 731 Q166 731 153 716 Q140 701 140 677 Z M55 675 Q55 704 66 728 Q77 752 95.5 769.5 Q114 787 138.5 797 Q163 807 191 807 Q218 807 242 797 Q266 787 283.5 769.5 Q301 752 311.5 728 Q322 704 322 675 Q322 647 311.5 623 Q301 599 283.5 581.5 Q266 564 242 554 Q218 544 191 544 Q130 544 92.5 579 Q55 614 55 675 Z " />
<glyph glyph-name="acute" unicode="&#xb4;" horiz-adv-x="487" d="M283 829 L360 704 L138 564 L70 657 L283 829 Z " />
<glyph glyph-name="grave" unicode="&#x60;" horiz-adv-x="487" d="M355 657 L256 564 L80 702 L200 828 L355 657 Z " />
<glyph glyph-name="cedilla" unicode="&#xb8;" horiz-adv-x="488" d="M-21 -140 Q-7 -143 9.5 -146 Q26 -149 43 -149 Q69 -149 76 -141.5 Q83 -134 83 -123 Q83 -110 69 -106.5 Q55 -103 31 -103 L7 -103 L44 4 L128 4 L115 -36 Q155 -39 178 -56.5 Q201 -74 201 -110 Q201 -137 191.5 -161 Q182 -185 163.5 -202.5 Q145 -220 117 -230.5 Q89 -241 52 -241 Q19 -241 -7.5 -235.5 Q-34 -230 -49 -223 L-21 -140 Z " />
<glyph glyph-name="dotaccent" unicode="&#x2d9;" horiz-adv-x="488" d="M87 649 Q87 678 98.5 700 Q110 722 129.5 736.5 Q149 751 175 758.5 Q201 766 231 766 Q282 766 313 745 Q344 724 344 680 Q344 621 302 592.5 Q260 564 197 564 Q149 564 118 585 Q87 606 87 649 Z " />
<glyph glyph-name="ring" unicode="&#x2da;" horiz-adv-x="488" d="M186 672 Q186 648 213 648 Q227 648 238 657.5 Q249 667 249 685 Q249 709 224 709 Q186 709 186 672 Z M99 656 Q99 686 110 710 Q121 734 139.5 750.5 Q158 767 183 775.5 Q208 784 236 784 Q279 784 307 761.5 Q335 739 335 696 Q335 667 324 644 Q313 621 294.5 605 Q276 589 251.5 580.5 Q227 572 201 572 Q153 572 126 593 Q99 614 99 656 Z " />
<glyph glyph-name="ogonek" unicode="&#x2db;" horiz-adv-x="488" d="M206 14 L204 2 Q167 -31 142 -62 Q117 -93 117 -109 Q117 -124 134 -124 Q144 -124 154.5 -122.5 Q165 -121 182 -116 L192 -210 Q167 -221 128.5 -233.5 Q90 -246 49 -246 Q19 -246 -1 -239 Q-21 -232 -33.5 -220.5 Q-46 -209 -51.5 -194 Q-57 -179 -57 -163 Q-57 -136 -46 -111.5 Q-35 -87 -15.5 -64.5 Q4 -42 30 -20 Q56 2 86 24 L206 14 Z " />
<glyph glyph-name="tilde" unicode="&#x2dc;" horiz-adv-x="488" d="M426 728 Q415 699 401.5 673 Q388 647 371 627.5 Q354 608 333 597 Q312 586 288 586 Q268 586 249 590.5 Q230 595 213.5 600.5 Q197 606 183 610.5 Q169 615 160 615 Q147 615 137.5 608 Q128 601 114 579 L21 625 Q33 652 47.5 677 Q62 702 79 721.5 Q96 741 116 752.5 Q136 764 160 764 Q179 764 196.5 759.5 Q214 755 229.5 750 Q245 745 258.5 740.5 Q272 736 284 736 Q301 736 309 745 Q317 754 328 771 L426 728 Z " />
<glyph glyph-name="hungarumlaut" unicode="&#x2dd;" horiz-adv-x="488" d="M235 729 L83 567 L2 630 L141 806 L235 729 Z M420 715 L260 564 L183 629 L327 793 L420 715 Z " />
<glyph glyph-name="perthousand" unicode="&#x2030;" horiz-adv-x="1188" d="M507 139 Q507 192 526.5 233.5 Q546 275 577 303.5 Q608 332 647 346.5 Q686 361 725 361 Q773 361 803.5 346.5 Q834 332 853 307 Q878 329 913.5 345 Q949 361 1000 361 Q1030 361 1057.5 351.5 Q1085 342 1105.5 323.5 Q1126 305 1138.5 276.5 Q1151 248 1151 209 Q1151 158 1134 117 Q1117 76 1087.5 47 Q1058 18 1019 2.5 Q980 -13 937 -13 Q895 -13 859.5 1 Q824 15 807 41 Q778 15 740.5 1 Q703 -13 659 -13 Q626 -13 598.5 -3 Q571 7 550.5 26 Q530 45 518.5 73.5 Q507 102 507 139 Z M661 720 L842 720 L291 0 L113 0 L661 720 Z M48 512 Q48 565 67 606 Q86 647 118.5 675.5 Q151 704 193 718.5 Q235 733 281 733 Q316 733 346.5 723 Q377 713 399.5 693.5 Q422 674 435 645 Q448 616 448 579 Q448 528 429 487 Q410 446 378 417.5 Q346 389 304.5 374 Q263 359 218 359 Q182 359 150.5 368.5 Q119 378 96.5 397 Q74 416 61 444.5 Q48 473 48 512 Z M654 159 Q654 139 665 126 Q676 113 699 113 Q727 113 744.5 134 Q762 155 762 181 Q762 201 751.5 215 Q741 229 718 229 Q688 229 671 207.5 Q654 186 654 159 Z M194 531 Q194 511 205 498 Q216 485 239 485 Q268 485 284.5 506 Q301 527 301 554 Q301 574 291 587.5 Q281 601 259 601 Q227 601 210.5 579.5 Q194 558 194 531 Z M896 159 Q896 139 907.5 126 Q919 113 942 113 Q970 113 987.5 134 Q1005 155 1005 181 Q1005 201 994.5 215 Q984 229 961 229 Q931 229 913.5 208 Q896 187 896 159 Z " />
<glyph glyph-name="percent" unicode="&#x25;" horiz-adv-x="1080" d="M203 504 Q203 481 216 466.5 Q229 452 256 452 Q289 452 309 475.5 Q329 499 329 531 Q329 554 316.5 569.5 Q304 585 278 585 Q242 585 222.5 560.5 Q203 536 203 504 Z M42 484 Q42 543 63.5 589.5 Q85 636 121 668 Q157 700 204.5 717 Q252 734 303 734 Q343 734 377 722.5 Q411 711 436 688.5 Q461 666 475 633 Q489 600 489 558 Q489 501 467.5 455 Q446 409 410.5 376.5 Q375 344 328.5 327 Q282 310 232 310 Q191 310 156.5 321 Q122 332 96.5 353.5 Q71 375 56.5 407.5 Q42 440 42 484 Z M755 180 Q755 157 768 142.5 Q781 128 807 128 Q841 128 861.5 151.5 Q882 175 882 206 Q882 229 869 245 Q856 261 830 261 Q794 261 774.5 236.5 Q755 212 755 180 Z M594 160 Q594 219 615.5 265.5 Q637 312 673.5 344 Q710 376 757 393 Q804 410 855 410 Q895 410 929.5 398.5 Q964 387 989 364.5 Q1014 342 1028 309 Q1042 276 1042 234 Q1042 177 1020.5 131 Q999 85 963 52.5 Q927 20 880.5 3 Q834 -14 784 -14 Q743 -14 708.5 -3 Q674 8 648.5 29.5 Q623 51 608.5 83.5 Q594 116 594 160 Z M726 720 L907 720 L356 0 L178 0 L726 720 Z " />
<glyph glyph-name="fraction" unicode="&#x2044;" horiz-adv-x="136" d="M287 720 L449 720 L-103 0 L-269 0 L287 720 Z " />
<glyph glyph-name="zerosuperior" unicode="&#x2070;" horiz-adv-x="424" d="M246 527 Q261 527 270.5 538.5 Q280 550 285.5 565.5 Q291 581 293 598.5 Q295 616 295 628 Q295 666 269 666 Q254 666 244.5 655.5 Q235 645 229.5 629.5 Q224 614 221.5 597 Q219 580 219 567 Q219 527 246 527 Z M57 596 Q69 692 131.5 742.5 Q194 793 290 793 Q371 793 416 748.5 Q461 704 461 630 Q461 611 458 592 Q443 492 383 442.5 Q323 393 230 393 Q147 393 100.5 433 Q54 473 54 555 Q54 575 57 596 Z " />
<glyph glyph-name="onesuperior" unicode="&#xb9;" horiz-adv-x="318" d="M112 400 L146 605 L72 605 L78 716 Q116 725 152 742 Q188 759 214 785 L365 785 L301 400 L112 400 Z " />
<glyph glyph-name="twosuperior" unicode="&#xb2;" horiz-adv-x="388" d="M57 505 L165 570 Q186 583 206 596.5 Q226 610 226 627 Q226 642 206 642 Q198 642 186 638.5 Q174 635 161 630 Q148 625 135 619 Q122 613 112 608 L65 712 Q109 745 166 769 Q223 793 289 793 Q317 793 342 786.5 Q367 780 385.5 767.5 Q404 755 415 735.5 Q426 716 426 690 Q426 644 401.5 612.5 Q377 581 327 549 L286 523 L398 523 L377 400 L39 400 L57 505 Z " />
<glyph glyph-name="threesuperior" unicode="&#xb3;" horiz-adv-x="370" d="M75 537 Q95 526 122.5 517 Q150 508 173 508 Q195 508 206 512.5 Q217 517 217 531 Q217 541 208.5 544 Q200 547 180 547 Q169 547 156 546 Q143 545 133 543 L149 639 Q181 640 203.5 645.5 Q226 651 226 667 Q226 675 219 677 Q212 679 202 679 Q185 679 159 671.5 Q133 664 112 656 L88 748 Q122 766 167 779.5 Q212 793 269 793 Q336 793 367.5 770.5 Q399 748 399 709 Q399 669 374 642.5 Q349 616 304 603 Q341 599 361.5 580 Q382 561 382 529 Q382 494 366.5 468 Q351 442 324 425.5 Q297 409 261 401 Q225 393 184 393 Q136 393 90.5 406 Q45 419 16 445 L75 537 Z " />
<glyph glyph-name="foursuperior" unicode="&#x2074;" horiz-adv-x="427" d="M189 568 L250 568 L267 670 L189 568 Z M231 452 L42 452 L61 568 L229 785 L442 785 L406 568 L447 568 L428 452 L387 452 L378 400 L222 400 L231 452 Z " />
<glyph glyph-name="fivesuperior" unicode="&#x2075;" horiz-adv-x="365" d="M117 785 L403 785 L372 664 L217 664 L206 630 Q217 633 237 635.5 Q257 638 276 638 Q327 638 356 617.5 Q385 597 385 549 Q385 510 369 480.5 Q353 451 326 431.5 Q299 412 263 402.5 Q227 393 187 393 Q130 393 88 413 Q46 433 26 460 L89 546 Q109 534 136.5 525 Q164 516 182 516 Q202 516 214 522 Q226 528 226 543 Q226 553 219.5 556 Q213 559 205 559 Q195 559 189.5 557 Q184 555 180 553 L179 552 L60 552 L117 785 Z " />
<glyph glyph-name="sixsuperior" unicode="&#x2076;" horiz-adv-x="397" d="M58 536 Q58 578 73 623.5 Q88 669 118.5 706.5 Q149 744 195.5 768.5 Q242 793 306 793 Q344 793 379 785.5 Q414 778 439 767 L393 661 Q352 676 316 676 Q287 676 264.5 663 Q242 650 234 618 Q257 630 279 636 Q301 642 325 642 Q374 642 398 616.5 Q422 591 422 552 Q422 507 403.5 476.5 Q385 446 355.5 427.5 Q326 409 290.5 401 Q255 393 221 393 Q177 393 146 403 Q115 413 95.5 431.5 Q76 450 67 476.5 Q58 503 58 536 Z M248 557 Q242 557 235 554.5 Q228 552 223 549 Q218 531 220 517 Q222 503 237 503 Q254 503 259.5 515.5 Q265 528 265 539 Q265 545 262 551 Q259 557 248 557 Z " />
<glyph glyph-name="sevensuperior" unicode="&#x2077;" horiz-adv-x="367" d="M254 400 L52 400 L55 416 L204 632 L66 632 L91 785 L428 785 L411 679 L254 400 Z " />
<glyph glyph-name="eightsuperior" unicode="&#x2078;" horiz-adv-x="390" d="M188 518 Q188 496 216 496 Q232 496 239 503.5 Q246 511 246 522 Q246 533 236 539.5 Q226 546 210 552 Q202 546 195 538.5 Q188 531 188 518 Z M241 678 Q241 662 269 653 Q276 660 280.5 667.5 Q285 675 285 683 Q285 700 266 700 Q254 700 247.5 693 Q241 686 241 678 Z M39 490 Q39 515 46.5 533 Q54 551 65 564.5 Q76 578 90 587 Q104 596 116 602 Q102 609 91 625 Q80 641 80 668 Q80 722 129 757.5 Q178 793 273 793 Q354 793 392 769 Q430 745 430 705 Q430 685 424 670 Q418 655 409 643 Q400 631 389.5 622.5 Q379 614 370 608 Q389 594 401 578 Q413 562 413 533 Q413 498 396.5 471.5 Q380 445 351 427.5 Q322 410 283.5 401.5 Q245 393 201 393 Q127 393 83 417.5 Q39 442 39 490 Z " />
<glyph glyph-name="ninesuperior" unicode="&#x2079;" horiz-adv-x="401" d="M428 646 Q428 605 413.5 560.5 Q399 516 369 478.5 Q339 441 292.5 417 Q246 393 182 393 Q144 393 109 400.5 Q74 408 48 419 L94 525 Q134 510 170 510 Q199 510 222 523 Q245 536 252 568 Q229 556 207.5 550 Q186 544 162 544 Q113 544 89 569.5 Q65 595 65 634 Q65 679 83.5 709.5 Q102 740 131 758.5 Q160 777 196 785 Q232 793 267 793 Q351 793 389.5 753.5 Q428 714 428 646 Z M239 629 Q245 629 252 631.5 Q259 634 264 637 Q269 655 266.5 669 Q264 683 250 683 Q236 683 229.5 669.5 Q223 656 223 647 Q223 641 226 635 Q229 629 239 629 Z " />
<glyph glyph-name="zeroinferior" unicode="&#x2080;" horiz-adv-x="424" d="M168 32 Q183 32 192.5 43.5 Q202 55 207.5 70.5 Q213 86 215 103.5 Q217 121 217 133 Q217 171 191 171 Q176 171 166.5 160.5 Q157 150 151.5 134.5 Q146 119 143.5 102 Q141 85 141 72 Q141 32 168 32 Z M-21 101 Q-9 197 53.5 247.5 Q116 298 212 298 Q293 298 338 253.5 Q383 209 383 135 Q383 116 380 97 Q365 -3 305 -52.5 Q245 -102 152 -102 Q69 -102 22.5 -62 Q-24 -22 -24 60 Q-24 80 -21 101 Z " />
<glyph glyph-name="oneinferior" unicode="&#x2081;" horiz-adv-x="318" d="M31 -95 L65 110 L-9 110 L-3 221 Q35 230 71 247 Q107 264 133 290 L284 290 L220 -95 L31 -95 Z " />
<glyph glyph-name="twoinferior" unicode="&#x2082;" horiz-adv-x="388" d="M-22 10 L86 75 Q107 88 127 101.5 Q147 115 147 132 Q147 147 127 147 Q119 147 107 143.5 Q95 140 82 135 Q69 130 56 124 Q43 118 33 113 L-14 217 Q30 250 87 274 Q144 298 210 298 Q238 298 263 291.5 Q288 285 306.5 272.5 Q325 260 336 240.5 Q347 221 347 195 Q347 149 322.5 117.5 Q298 86 248 54 L207 28 L319 28 L298 -95 L-40 -95 L-22 10 Z " />
<glyph glyph-name="threeinferior" unicode="&#x2083;" horiz-adv-x="371" d="M-3 42 Q17 31 44.5 22 Q72 13 95 13 Q117 13 128 17.5 Q139 22 139 36 Q139 46 130.5 49 Q122 52 102 52 Q91 52 78 51 Q65 50 55 48 L71 144 Q103 145 125.5 150.5 Q148 156 148 172 Q148 180 141 182 Q134 184 124 184 Q107 184 81 176.5 Q55 169 34 161 L10 253 Q44 271 89 284.5 Q134 298 191 298 Q258 298 289.5 275.5 Q321 253 321 214 Q321 174 296 147.5 Q271 121 226 108 Q263 104 283.5 85 Q304 66 304 34 Q304 -1 288.5 -27 Q273 -53 246 -69.5 Q219 -86 183 -94 Q147 -102 106 -102 Q58 -102 12.5 -89 Q-33 -76 -62 -50 L-3 42 Z " />
<glyph glyph-name="fourinferior" unicode="&#x2084;" horiz-adv-x="427" d="M113 73 L174 73 L191 175 L113 73 Z M155 -43 L-34 -43 L-15 73 L153 290 L366 290 L330 73 L371 73 L352 -43 L311 -43 L302 -95 L146 -95 L155 -43 Z " />
<glyph glyph-name="fiveinferior" unicode="&#x2085;" horiz-adv-x="365" d="M44 290 L330 290 L299 169 L144 169 L133 135 Q144 138 164 140.5 Q184 143 203 143 Q254 143 283 122.5 Q312 102 312 54 Q312 15 296 -14.5 Q280 -44 253 -63.5 Q226 -83 190 -92.5 Q154 -102 114 -102 Q57 -102 15 -82 Q-27 -62 -47 -35 L16 51 Q36 39 63.5 30 Q91 21 109 21 Q129 21 141 27 Q153 33 153 48 Q153 58 146.5 61 Q140 64 132 64 Q122 64 116.5 62 Q111 60 107 58 L106 57 L-13 57 L44 290 Z " />
<glyph glyph-name="sixinferior" unicode="&#x2086;" horiz-adv-x="397" d="M-21 41 Q-21 83 -6 128.5 Q9 174 39.5 211.5 Q70 249 116.5 273.5 Q163 298 227 298 Q265 298 300 290.5 Q335 283 360 272 L314 166 Q273 181 237 181 Q208 181 185.5 168 Q163 155 155 123 Q178 135 200 141 Q222 147 246 147 Q295 147 319 121.5 Q343 96 343 57 Q343 12 324.5 -18.5 Q306 -49 276.5 -67.5 Q247 -86 211.5 -94 Q176 -102 142 -102 Q98 -102 67 -92 Q36 -82 16.5 -63.5 Q-3 -45 -12 -18.5 Q-21 8 -21 41 Z M169 62 Q163 62 156 59.5 Q149 57 144 54 Q139 36 141 22 Q143 8 158 8 Q175 8 180.5 20.5 Q186 33 186 44 Q186 50 183 56 Q180 62 169 62 Z " />
<glyph glyph-name="seveninferior" unicode="&#x2087;" horiz-adv-x="367" d="M174 -95 L-28 -95 L-25 -79 L124 137 L-14 137 L11 290 L348 290 L331 184 L174 -95 Z " />
<glyph glyph-name="eightinferior" unicode="&#x2088;" horiz-adv-x="390" d="M110 23 Q110 1 138 1 Q154 1 161 8.5 Q168 16 168 27 Q168 38 158 44.5 Q148 51 132 57 Q124 51 117 43.5 Q110 36 110 23 Z M163 183 Q163 167 191 158 Q198 165 202.5 172.5 Q207 180 207 188 Q207 205 188 205 Q176 205 169.5 198 Q163 191 163 183 Z M-39 -5 Q-39 20 -31.5 38 Q-24 56 -13 69.5 Q-2 83 12 92 Q26 101 38 107 Q24 114 13 130 Q2 146 2 173 Q2 227 51 262.5 Q100 298 195 298 Q276 298 314 274 Q352 250 352 210 Q352 190 346 175 Q340 160 331 148 Q322 136 311.5 127.5 Q301 119 292 113 Q311 99 323 83 Q335 67 335 38 Q335 3 318.5 -23.5 Q302 -50 273 -67.5 Q244 -85 205.5 -93.5 Q167 -102 123 -102 Q49 -102 5 -77.5 Q-39 -53 -39 -5 Z " />
<glyph glyph-name="nineinferior" unicode="&#x2089;" horiz-adv-x="402" d="M352 151 Q352 110 337.5 65.5 Q323 21 293 -16.5 Q263 -54 216.5 -78 Q170 -102 106 -102 Q68 -102 33 -94.5 Q-2 -87 -28 -76 L18 30 Q58 15 94 15 Q123 15 146 28 Q169 41 176 73 Q153 61 131.5 55 Q110 49 86 49 Q37 49 13 74.5 Q-11 100 -11 139 Q-11 184 7.5 214.5 Q26 245 55 263.5 Q84 282 120 290 Q156 298 191 298 Q275 298 313.5 258.5 Q352 219 352 151 Z M163 134 Q169 134 176 136.5 Q183 139 188 142 Q193 160 190.5 174 Q188 188 174 188 Q160 188 153.5 174.5 Q147 161 147 152 Q147 146 150 140 Q153 134 163 134 Z " />
<glyph glyph-name="onehalf" unicode="&#xbd;" horiz-adv-x="956" d="M119 351 L153 556 L79 556 L85 667 Q123 676 159 693 Q195 710 221 736 L372 736 L308 351 L119 351 Z M634 720 L796 720 L244 0 L78 0 L634 720 Z M526 106 L634 171 Q655 184 675 197.5 Q695 211 695 228 Q695 243 675 243 Q667 243 655 239.5 Q643 236 630 231 Q617 226 604 220 Q591 214 581 209 L534 313 Q578 346 635 370 Q692 394 758 394 Q786 394 811 387.5 Q836 381 854.5 368.5 Q873 356 884 336.5 Q895 317 895 291 Q895 245 870.5 213.5 Q846 182 796 150 L755 124 L867 124 L846 1 L508 1 L526 106 Z " />
<glyph glyph-name="onequarter" unicode="&#xbc;" horiz-adv-x="956" d="M129 351 L163 556 L89 556 L95 667 Q133 676 169 693 Q205 710 231 736 L382 736 L318 351 L129 351 Z M661 720 L823 720 L271 0 L105 0 L661 720 Z M612 169 L673 169 L690 271 L612 169 Z M654 53 L465 53 L484 169 L652 386 L865 386 L829 169 L870 169 L851 53 L810 53 L801 1 L645 1 L654 53 Z " />
<glyph glyph-name="threequarters" unicode="&#xbe;" horiz-adv-x="956" d="M110 488 Q130 477 157.5 468 Q185 459 208 459 Q230 459 241 463.5 Q252 468 252 482 Q252 492 243.5 495 Q235 498 215 498 Q204 498 191 497 Q178 496 168 494 L184 590 Q216 591 238.5 596.5 Q261 602 261 618 Q261 626 254 628 Q247 630 237 630 Q220 630 194 622.5 Q168 615 147 607 L123 699 Q157 717 202 730.5 Q247 744 304 744 Q371 744 402.5 721.5 Q434 699 434 660 Q434 620 409 593.5 Q384 567 339 554 Q376 550 396.5 531 Q417 512 417 480 Q417 445 401.5 419 Q386 393 359 376.5 Q332 360 296 352 Q260 344 219 344 Q171 344 125.5 357 Q80 370 51 396 L110 488 Z M680 720 L842 720 L290 0 L124 0 L680 720 Z M614 169 L675 169 L692 271 L614 169 Z M656 53 L467 53 L486 169 L654 386 L867 386 L831 169 L872 169 L853 53 L812 53 L803 1 L647 1 L656 53 Z " />
<glyph glyph-name="onethird" unicode="&#x2153;" horiz-adv-x="956" d="M138 351 L172 556 L98 556 L104 667 Q142 676 178 693 Q214 710 240 736 L391 736 L327 351 L138 351 Z M648 720 L810 720 L258 0 L92 0 L648 720 Z M571 138 Q591 127 618.5 118 Q646 109 669 109 Q691 109 702 113.5 Q713 118 713 132 Q713 142 704.5 145 Q696 148 676 148 Q665 148 652 147 Q639 146 629 144 L645 240 Q677 241 699.5 246.5 Q722 252 722 268 Q722 276 715 278 Q708 280 698 280 Q681 280 655 272.5 Q629 265 608 257 L584 349 Q618 367 663 380.5 Q708 394 765 394 Q832 394 863.5 371.5 Q895 349 895 310 Q895 270 870 243.5 Q845 217 800 204 Q837 200 857.5 181 Q878 162 878 130 Q878 95 862.5 69 Q847 43 820 26.5 Q793 10 757 2 Q721 -6 680 -6 Q632 -6 586.5 7 Q541 20 512 46 L571 138 Z " />
<glyph glyph-name="twothirds" unicode="&#x2154;" horiz-adv-x="956" d="M81 456 L189 521 Q210 534 230 547.5 Q250 561 250 578 Q250 593 230 593 Q222 593 210 589.5 Q198 586 185 581 Q172 576 159 570 Q146 564 136 559 L89 663 Q133 696 190 720 Q247 744 313 744 Q341 744 366 737.5 Q391 731 409.5 718.5 Q428 706 439 686.5 Q450 667 450 641 Q450 595 425.5 563.5 Q401 532 351 500 L310 474 L422 474 L401 351 L63 351 L81 456 Z M715 720 L877 720 L325 0 L159 0 L715 720 Z M609 138 Q629 127 656.5 118 Q684 109 707 109 Q729 109 740 113.5 Q751 118 751 132 Q751 142 742.5 145 Q734 148 714 148 Q703 148 690 147 Q677 146 667 144 L683 240 Q715 241 737.5 246.5 Q760 252 760 268 Q760 276 753 278 Q746 280 736 280 Q719 280 693 272.5 Q667 265 646 257 L622 349 Q656 367 701 380.5 Q746 394 803 394 Q870 394 901.5 371.5 Q933 349 933 310 Q933 270 908 243.5 Q883 217 838 204 Q875 200 895.5 181 Q916 162 916 130 Q916 95 900.5 69 Q885 43 858 26.5 Q831 10 795 2 Q759 -6 718 -6 Q670 -6 624.5 7 Q579 20 550 46 L609 138 Z " />
<glyph glyph-name="onefifth" unicode="&#xf500;" horiz-adv-x="956" d="M137 351 L171 556 L97 556 L103 667 Q141 676 177 693 Q213 710 239 736 L390 736 L326 351 L137 351 Z M646 720 L808 720 L256 0 L90 0 L646 720 Z M603 386 L889 386 L858 265 L703 265 L692 231 Q703 234 723 236.5 Q743 239 762 239 Q813 239 842 218.5 Q871 198 871 150 Q871 111 855 81.5 Q839 52 812 32.5 Q785 13 749 3.5 Q713 -6 673 -6 Q616 -6 574 14 Q532 34 512 61 L575 147 Q595 135 622.5 126 Q650 117 668 117 Q688 117 700 123 Q712 129 712 144 Q712 154 705.5 157 Q699 160 691 160 Q681 160 675.5 158 Q670 156 666 154 L665 153 L546 153 L603 386 Z " />
<glyph glyph-name="twofifths" unicode="&#xf501;" horiz-adv-x="956" d="M57 456 L165 521 Q186 534 206 547.5 Q226 561 226 578 Q226 593 206 593 Q198 593 186 589.5 Q174 586 161 581 Q148 576 135 570 Q122 564 112 559 L65 663 Q109 696 166 720 Q223 744 289 744 Q317 744 342 737.5 Q367 731 385.5 718.5 Q404 706 415 686.5 Q426 667 426 641 Q426 595 401.5 563.5 Q377 532 327 500 L286 474 L398 474 L377 351 L39 351 L57 456 Z M700 720 L862 720 L310 0 L144 0 L700 720 Z M639 386 L925 386 L894 265 L739 265 L728 231 Q739 234 759 236.5 Q779 239 798 239 Q849 239 878 218.5 Q907 198 907 150 Q907 111 891 81.5 Q875 52 848 32.5 Q821 13 785 3.5 Q749 -6 709 -6 Q652 -6 610 14 Q568 34 548 61 L611 147 Q631 135 658.5 126 Q686 117 704 117 Q724 117 736 123 Q748 129 748 144 Q748 154 741.5 157 Q735 160 727 160 Q717 160 711.5 158 Q706 156 702 154 L701 153 L582 153 L639 386 Z " />
<glyph glyph-name="threefifths" unicode="&#xf502;" horiz-adv-x="956" d="M117 488 Q137 477 164.5 468 Q192 459 215 459 Q237 459 248 463.5 Q259 468 259 482 Q259 492 250.5 495 Q242 498 222 498 Q211 498 198 497 Q185 496 175 494 L191 590 Q223 591 245.5 596.5 Q268 602 268 618 Q268 626 261 628 Q254 630 244 630 Q227 630 201 622.5 Q175 615 154 607 L130 699 Q164 717 209 730.5 Q254 744 311 744 Q378 744 409.5 721.5 Q441 699 441 660 Q441 620 416 593.5 Q391 567 346 554 Q383 550 403.5 531 Q424 512 424 480 Q424 445 408.5 419 Q393 393 366 376.5 Q339 360 303 352 Q267 344 226 344 Q178 344 132.5 357 Q87 370 58 396 L117 488 Z M671 720 L833 720 L281 0 L115 0 L671 720 Z M611 386 L897 386 L866 265 L711 265 L700 231 Q711 234 731 236.5 Q751 239 770 239 Q821 239 850 218.5 Q879 198 879 150 Q879 111 863 81.5 Q847 52 820 32.5 Q793 13 757 3.5 Q721 -6 681 -6 Q624 -6 582 14 Q540 34 520 61 L583 147 Q603 135 630.5 126 Q658 117 676 117 Q696 117 708 123 Q720 129 720 144 Q720 154 713.5 157 Q707 160 699 160 Q689 160 683.5 158 Q678 156 674 154 L673 153 L554 153 L611 386 Z " />
<glyph glyph-name="fourfifths" unicode="&#xf503;" horiz-adv-x="956" d="M183 519 L244 519 L261 621 L183 519 Z M225 403 L36 403 L55 519 L223 736 L436 736 L400 519 L441 519 L422 403 L381 403 L372 351 L216 351 L225 403 Z M707 720 L869 720 L317 0 L151 0 L707 720 Z M641 386 L927 386 L896 265 L741 265 L730 231 Q741 234 761 236.5 Q781 239 800 239 Q851 239 880 218.5 Q909 198 909 150 Q909 111 893 81.5 Q877 52 850 32.5 Q823 13 787 3.5 Q751 -6 711 -6 Q654 -6 612 14 Q570 34 550 61 L613 147 Q633 135 660.5 126 Q688 117 706 117 Q726 117 738 123 Q750 129 750 144 Q750 154 743.5 157 Q737 160 729 160 Q719 160 713.5 158 Q708 156 704 154 L703 153 L584 153 L641 386 Z " />
<glyph glyph-name="onesixth" unicode="&#xf504;" horiz-adv-x="956" d="M141 351 L175 556 L101 556 L107 667 Q145 676 181 693 Q217 710 243 736 L394 736 L330 351 L141 351 Z M663 720 L825 720 L273 0 L107 0 L663 720 Z M518 137 Q518 179 533 224.5 Q548 270 578.5 307.5 Q609 345 655.5 369.5 Q702 394 766 394 Q804 394 839 386.5 Q874 379 899 368 L853 262 Q812 277 776 277 Q747 277 724.5 264 Q702 251 694 219 Q717 231 739 237 Q761 243 785 243 Q834 243 858 217.5 Q882 192 882 153 Q882 108 863.5 77.5 Q845 47 815.5 28.5 Q786 10 750.5 2 Q715 -6 681 -6 Q637 -6 606 4 Q575 14 555.5 32.5 Q536 51 527 77.5 Q518 104 518 137 Z M708 158 Q702 158 695 155.5 Q688 153 683 150 Q678 132 680 118 Q682 104 697 104 Q714 104 719.5 116.5 Q725 129 725 140 Q725 146 722 152 Q719 158 708 158 Z " />
<glyph glyph-name="fivesixths" unicode="&#xf505;" horiz-adv-x="956" d="M146 736 L432 736 L401 615 L246 615 L235 581 Q246 584 266 586.5 Q286 589 305 589 Q356 589 385 568.5 Q414 548 414 500 Q414 461 398 431.5 Q382 402 355 382.5 Q328 363 292 353.5 Q256 344 216 344 Q159 344 117 364 Q75 384 55 411 L118 497 Q138 485 165.5 476 Q193 467 211 467 Q231 467 243 473 Q255 479 255 494 Q255 504 248.5 507 Q242 510 234 510 Q224 510 218.5 508 Q213 506 209 504 L208 503 L89 503 L146 736 Z M671 720 L833 720 L281 0 L115 0 L671 720 Z M513 137 Q513 179 528 224.5 Q543 270 573.5 307.5 Q604 345 650.5 369.5 Q697 394 761 394 Q799 394 834 386.5 Q869 379 894 368 L848 262 Q807 277 771 277 Q742 277 719.5 264 Q697 251 689 219 Q712 231 734 237 Q756 243 780 243 Q829 243 853 217.5 Q877 192 877 153 Q877 108 858.5 77.5 Q840 47 810.5 28.5 Q781 10 745.5 2 Q710 -6 676 -6 Q632 -6 601 4 Q570 14 550.5 32.5 Q531 51 522 77.5 Q513 104 513 137 Z M703 158 Q697 158 690 155.5 Q683 153 678 150 Q673 132 675 118 Q677 104 692 104 Q709 104 714.5 116.5 Q720 129 720 140 Q720 146 717 152 Q714 158 703 158 Z " />
<glyph glyph-name="oneeighth" unicode="&#x215b;" horiz-adv-x="956" d="M122 351 L156 556 L82 556 L88 667 Q126 676 162 693 Q198 710 224 736 L375 736 L311 351 L122 351 Z M643 720 L805 720 L253 0 L87 0 L643 720 Z M655 119 Q655 97 683 97 Q699 97 706 104.5 Q713 112 713 123 Q713 134 703 140.5 Q693 147 677 153 Q669 147 662 139.5 Q655 132 655 119 Z M708 279 Q708 263 736 254 Q743 261 747.5 268.5 Q752 276 752 284 Q752 301 733 301 Q721 301 714.5 294 Q708 287 708 279 Z M506 91 Q506 116 513.5 134 Q521 152 532 165.5 Q543 179 557 188 Q571 197 583 203 Q569 210 558 226 Q547 242 547 269 Q547 323 596 358.5 Q645 394 740 394 Q821 394 859 370 Q897 346 897 306 Q897 286 891 271 Q885 256 876 244 Q867 232 856.5 223.5 Q846 215 837 209 Q856 195 868 179 Q880 163 880 134 Q880 99 863.5 72.5 Q847 46 818 28.5 Q789 11 750.5 2.5 Q712 -6 668 -6 Q594 -6 550 18.5 Q506 43 506 91 Z " />
<glyph glyph-name="threeeighths" unicode="&#x215c;" horiz-adv-x="956" d="M100 488 Q120 477 147.5 468 Q175 459 198 459 Q220 459 231 463.5 Q242 468 242 482 Q242 492 233.5 495 Q225 498 205 498 Q194 498 181 497 Q168 496 158 494 L174 590 Q206 591 228.5 596.5 Q251 602 251 618 Q251 626 244 628 Q237 630 227 630 Q210 630 184 622.5 Q158 615 137 607 L113 699 Q147 717 192 730.5 Q237 744 294 744 Q361 744 392.5 721.5 Q424 699 424 660 Q424 620 399 593.5 Q374 567 329 554 Q366 550 386.5 531 Q407 512 407 480 Q407 445 391.5 419 Q376 393 349 376.5 Q322 360 286 352 Q250 344 209 344 Q161 344 115.5 357 Q70 370 41 396 L100 488 Z M659 720 L821 720 L269 0 L103 0 L659 720 Z M659 119 Q659 97 687 97 Q703 97 710 104.5 Q717 112 717 123 Q717 134 707 140.5 Q697 147 681 153 Q673 147 666 139.5 Q659 132 659 119 Z M712 279 Q712 263 740 254 Q747 261 751.5 268.5 Q756 276 756 284 Q756 301 737 301 Q725 301 718.5 294 Q712 287 712 279 Z M510 91 Q510 116 517.5 134 Q525 152 536 165.5 Q547 179 561 188 Q575 197 587 203 Q573 210 562 226 Q551 242 551 269 Q551 323 600 358.5 Q649 394 744 394 Q825 394 863 370 Q901 346 901 306 Q901 286 895 271 Q889 256 880 244 Q871 232 860.5 223.5 Q850 215 841 209 Q860 195 872 179 Q884 163 884 134 Q884 99 867.5 72.5 Q851 46 822 28.5 Q793 11 754.5 2.5 Q716 -6 672 -6 Q598 -6 554 18.5 Q510 43 510 91 Z " />
<glyph glyph-name="fiveeighths" unicode="&#x215d;" horiz-adv-x="956" d="M164 736 L450 736 L419 615 L264 615 L253 581 Q264 584 284 586.5 Q304 589 323 589 Q374 589 403 568.5 Q432 548 432 500 Q432 461 416 431.5 Q400 402 373 382.5 Q346 363 310 353.5 Q274 344 234 344 Q177 344 135 364 Q93 384 73 411 L136 497 Q156 485 183.5 476 Q211 467 229 467 Q249 467 261 473 Q273 479 273 494 Q273 504 266.5 507 Q260 510 252 510 Q242 510 236.5 508 Q231 506 227 504 L226 503 L107 503 L164 736 Z M685 720 L847 720 L295 0 L129 0 L685 720 Z M683 119 Q683 97 711 97 Q727 97 734 104.5 Q741 112 741 123 Q741 134 731 140.5 Q721 147 705 153 Q697 147 690 139.5 Q683 132 683 119 Z M736 279 Q736 263 764 254 Q771 261 775.5 268.5 Q780 276 780 284 Q780 301 761 301 Q749 301 742.5 294 Q736 287 736 279 Z M534 91 Q534 116 541.5 134 Q549 152 560 165.5 Q571 179 585 188 Q599 197 611 203 Q597 210 586 226 Q575 242 575 269 Q575 323 624 358.5 Q673 394 768 394 Q849 394 887 370 Q925 346 925 306 Q925 286 919 271 Q913 256 904 244 Q895 232 884.5 223.5 Q874 215 865 209 Q884 195 896 179 Q908 163 908 134 Q908 99 891.5 72.5 Q875 46 846 28.5 Q817 11 778.5 2.5 Q740 -6 696 -6 Q622 -6 578 18.5 Q534 43 534 91 Z " />
<glyph glyph-name="seveneighths" unicode="&#x215e;" horiz-adv-x="956" d="M293 351 L91 351 L94 367 L243 583 L105 583 L130 736 L467 736 L450 630 L293 351 Z M643 720 L805 720 L253 0 L87 0 L643 720 Z M657 119 Q657 97 685 97 Q701 97 708 104.5 Q715 112 715 123 Q715 134 705 140.5 Q695 147 679 153 Q671 147 664 139.5 Q657 132 657 119 Z M710 279 Q710 263 738 254 Q745 261 749.5 268.5 Q754 276 754 284 Q754 301 735 301 Q723 301 716.5 294 Q710 287 710 279 Z M508 91 Q508 116 515.5 134 Q523 152 534 165.5 Q545 179 559 188 Q573 197 585 203 Q571 210 560 226 Q549 242 549 269 Q549 323 598 358.5 Q647 394 742 394 Q823 394 861 370 Q899 346 899 306 Q899 286 893 271 Q887 256 878 244 Q869 232 858.5 223.5 Q848 215 839 209 Q858 195 870 179 Q882 163 882 134 Q882 99 865.5 72.5 Q849 46 820 28.5 Q791 11 752.5 2.5 Q714 -6 670 -6 Q596 -6 552 18.5 Q508 43 508 91 Z " />
<glyph glyph-name="oneseventh" unicode="&#xf506;" horiz-adv-x="956" d="M107 351 L141 556 L67 556 L73 667 Q111 676 147 693 Q183 710 209 736 L360 736 L296 351 L107 351 Z M626 720 L788 720 L236 0 L70 0 L626 720 Z M749 1 L547 1 L550 17 L699 233 L561 233 L586 386 L923 386 L906 280 L749 1 Z " />
<glyph glyph-name="twosevenths" unicode="&#xf507;" horiz-adv-x="956" d="M50 456 L158 521 Q179 534 199 547.5 Q219 561 219 578 Q219 593 199 593 Q191 593 179 589.5 Q167 586 154 581 Q141 576 128 570 Q115 564 105 559 L58 663 Q102 696 159 720 Q216 744 282 744 Q310 744 335 737.5 Q360 731 378.5 718.5 Q397 706 408 686.5 Q419 667 419 641 Q419 595 394.5 563.5 Q370 532 320 500 L279 474 L391 474 L370 351 L32 351 L50 456 Z M672 720 L834 720 L282 0 L116 0 L672 720 Z M755 1 L553 1 L556 17 L705 233 L567 233 L592 386 L929 386 L912 280 L755 1 Z " />
<glyph glyph-name="threesevenths" unicode="&#xf508;" horiz-adv-x="956" d="M92 488 Q112 477 139.5 468 Q167 459 190 459 Q212 459 223 463.5 Q234 468 234 482 Q234 492 225.5 495 Q217 498 197 498 Q186 498 173 497 Q160 496 150 494 L166 590 Q198 591 220.5 596.5 Q243 602 243 618 Q243 626 236 628 Q229 630 219 630 Q202 630 176 622.5 Q150 615 129 607 L105 699 Q139 717 184 730.5 Q229 744 286 744 Q353 744 384.5 721.5 Q416 699 416 660 Q416 620 391 593.5 Q366 567 321 554 Q358 550 378.5 531 Q399 512 399 480 Q399 445 383.5 419 Q368 393 341 376.5 Q314 360 278 352 Q242 344 201 344 Q153 344 107.5 357 Q62 370 33 396 L92 488 Z M652 720 L814 720 L262 0 L96 0 L652 720 Z M757 1 L555 1 L558 17 L707 233 L569 233 L594 386 L931 386 L914 280 L757 1 Z " />
<glyph glyph-name="foursevenths" unicode="&#xf509;" horiz-adv-x="956" d="M172 519 L233 519 L250 621 L172 519 Z M214 403 L25 403 L44 519 L212 736 L425 736 L389 519 L430 519 L411 403 L370 403 L361 351 L205 351 L214 403 Z M679 720 L841 720 L289 0 L123 0 L679 720 Z M770 1 L568 1 L571 17 L720 233 L582 233 L607 386 L944 386 L927 280 L770 1 Z " />
<glyph glyph-name="fivesevenths" unicode="&#xf50a;" horiz-adv-x="956" d="M131 736 L417 736 L386 615 L231 615 L220 581 Q231 584 251 586.5 Q271 589 290 589 Q341 589 370 568.5 Q399 548 399 500 Q399 461 383 431.5 Q367 402 340 382.5 Q313 363 277 353.5 Q241 344 201 344 Q144 344 102 364 Q60 384 40 411 L103 497 Q123 485 150.5 476 Q178 467 196 467 Q216 467 228 473 Q240 479 240 494 Q240 504 233.5 507 Q227 510 219 510 Q209 510 203.5 508 Q198 506 194 504 L193 503 L74 503 L131 736 Z M651 720 L813 720 L261 0 L95 0 L651 720 Z M757 1 L555 1 L558 17 L707 233 L569 233 L594 386 L931 386 L914 280 L757 1 Z " />
<glyph glyph-name="sixsevenths" unicode="&#xf50b;" horiz-adv-x="956" d="M43 487 Q43 529 58 574.5 Q73 620 103.5 657.5 Q134 695 180.5 719.5 Q227 744 291 744 Q329 744 364 736.5 Q399 729 424 718 L378 612 Q337 627 301 627 Q272 627 249.5 614 Q227 601 219 569 Q242 581 264 587 Q286 593 310 593 Q359 593 383 567.5 Q407 542 407 503 Q407 458 388.5 427.5 Q370 397 340.5 378.5 Q311 360 275.5 352 Q240 344 206 344 Q162 344 131 354 Q100 364 80.5 382.5 Q61 401 52 427.5 Q43 454 43 487 Z M233 508 Q227 508 220 505.5 Q213 503 208 500 Q203 482 205 468 Q207 454 222 454 Q239 454 244.5 466.5 Q250 479 250 490 Q250 496 247 502 Q244 508 233 508 Z M653 720 L815 720 L263 0 L97 0 L653 720 Z M768 1 L566 1 L569 17 L718 233 L580 233 L605 386 L942 386 L925 280 L768 1 Z " />
<glyph glyph-name="oneninth" unicode="&#xf50c;" horiz-adv-x="956" d="M113 351 L147 556 L73 556 L79 667 Q117 676 153 693 Q189 710 215 736 L366 736 L302 351 L113 351 Z M634 720 L796 720 L244 0 L78 0 L634 720 Z M890 247 Q890 206 875.5 161.5 Q861 117 831 79.5 Q801 42 754.5 18 Q708 -6 644 -6 Q606 -6 571 1.5 Q536 9 510 20 L556 126 Q596 111 632 111 Q661 111 684 124 Q707 137 714 169 Q691 157 669.5 151 Q648 145 624 145 Q575 145 551 170.5 Q527 196 527 235 Q527 280 545.5 310.5 Q564 341 593 359.5 Q622 378 658 386 Q694 394 729 394 Q813 394 851.5 354.5 Q890 315 890 247 Z M701 230 Q707 230 714 232.5 Q721 235 726 238 Q731 256 728.5 270 Q726 284 712 284 Q698 284 691.5 270.5 Q685 257 685 248 Q685 242 688 236 Q691 230 701 230 Z " />
<glyph glyph-name="twoninths" unicode="&#xf50d;" horiz-adv-x="956" d="M70 456 L178 521 Q199 534 219 547.5 Q239 561 239 578 Q239 593 219 593 Q211 593 199 589.5 Q187 586 174 581 Q161 576 148 570 Q135 564 125 559 L78 663 Q122 696 179 720 Q236 744 302 744 Q330 744 355 737.5 Q380 731 398.5 718.5 Q417 706 428 686.5 Q439 667 439 641 Q439 595 414.5 563.5 Q390 532 340 500 L299 474 L411 474 L390 351 L52 351 L70 456 Z M692 720 L854 720 L302 0 L136 0 L692 720 Z M927 247 Q927 206 912.5 161.5 Q898 117 868 79.5 Q838 42 791.5 18 Q745 -6 681 -6 Q643 -6 608 1.5 Q573 9 547 20 L593 126 Q633 111 669 111 Q698 111 721 124 Q744 137 751 169 Q728 157 706.5 151 Q685 145 661 145 Q612 145 588 170.5 Q564 196 564 235 Q564 280 582.5 310.5 Q601 341 630 359.5 Q659 378 695 386 Q731 394 766 394 Q850 394 888.5 354.5 Q927 315 927 247 Z M738 230 Q744 230 751 232.5 Q758 235 763 238 Q768 256 765.5 270 Q763 284 749 284 Q735 284 728.5 270.5 Q722 257 722 248 Q722 242 725 236 Q728 230 738 230 Z " />
<glyph glyph-name="fourninths" unicode="&#xf50e;" horiz-adv-x="956" d="M177 519 L238 519 L255 621 L177 519 Z M219 403 L30 403 L49 519 L217 736 L430 736 L394 519 L435 519 L416 403 L375 403 L366 351 L210 351 L219 403 Z M700 720 L862 720 L310 0 L144 0 L700 720 Z M934 247 Q934 206 919.5 161.5 Q905 117 875 79.5 Q845 42 798.5 18 Q752 -6 688 -6 Q650 -6 615 1.5 Q580 9 554 20 L600 126 Q640 111 676 111 Q705 111 728 124 Q751 137 758 169 Q735 157 713.5 151 Q692 145 668 145 Q619 145 595 170.5 Q571 196 571 235 Q571 280 589.5 310.5 Q608 341 637 359.5 Q666 378 702 386 Q738 394 773 394 Q857 394 895.5 354.5 Q934 315 934 247 Z M745 230 Q751 230 758 232.5 Q765 235 770 238 Q775 256 772.5 270 Q770 284 756 284 Q742 284 735.5 270.5 Q729 257 729 248 Q729 242 732 236 Q735 230 745 230 Z " />
<glyph glyph-name="fiveninths" unicode="&#xf50f;" horiz-adv-x="956" d="M149 736 L435 736 L404 615 L249 615 L238 581 Q249 584 269 586.5 Q289 589 308 589 Q359 589 388 568.5 Q417 548 417 500 Q417 461 401 431.5 Q385 402 358 382.5 Q331 363 295 353.5 Q259 344 219 344 Q162 344 120 364 Q78 384 58 411 L121 497 Q141 485 168.5 476 Q196 467 214 467 Q234 467 246 473 Q258 479 258 494 Q258 504 251.5 507 Q245 510 237 510 Q227 510 221.5 508 Q216 506 212 504 L211 503 L92 503 L149 736 Z M666 720 L828 720 L276 0 L110 0 L666 720 Z M901 247 Q901 206 886.5 161.5 Q872 117 842 79.5 Q812 42 765.5 18 Q719 -6 655 -6 Q617 -6 582 1.5 Q547 9 521 20 L567 126 Q607 111 643 111 Q672 111 695 124 Q718 137 725 169 Q702 157 680.5 151 Q659 145 635 145 Q586 145 562 170.5 Q538 196 538 235 Q538 280 556.5 310.5 Q575 341 604 359.5 Q633 378 669 386 Q705 394 740 394 Q824 394 862.5 354.5 Q901 315 901 247 Z M712 230 Q718 230 725 232.5 Q732 235 737 238 Q742 256 739.5 270 Q737 284 723 284 Q709 284 702.5 270.5 Q696 257 696 248 Q696 242 699 236 Q702 230 712 230 Z " />
<glyph glyph-name="sevenninths" unicode="&#xf510;" horiz-adv-x="956" d="M284 351 L82 351 L85 367 L234 583 L96 583 L121 736 L458 736 L441 630 L284 351 Z M646 720 L808 720 L256 0 L90 0 L646 720 Z M904 247 Q904 206 889.5 161.5 Q875 117 845 79.5 Q815 42 768.5 18 Q722 -6 658 -6 Q620 -6 585 1.5 Q550 9 524 20 L570 126 Q610 111 646 111 Q675 111 698 124 Q721 137 728 169 Q705 157 683.5 151 Q662 145 638 145 Q589 145 565 170.5 Q541 196 541 235 Q541 280 559.5 310.5 Q578 341 607 359.5 Q636 378 672 386 Q708 394 743 394 Q827 394 865.5 354.5 Q904 315 904 247 Z M715 230 Q721 230 728 232.5 Q735 235 740 238 Q745 256 742.5 270 Q740 284 726 284 Q712 284 705.5 270.5 Q699 257 699 248 Q699 242 702 236 Q705 230 715 230 Z " />
<glyph glyph-name="eightninths" unicode="&#xf511;" horiz-adv-x="956" d="M211 469 Q211 447 239 447 Q255 447 262 454.5 Q269 462 269 473 Q269 484 259 490.5 Q249 497 233 503 Q225 497 218 489.5 Q211 482 211 469 Z M264 629 Q264 613 292 604 Q299 611 303.5 618.5 Q308 626 308 634 Q308 651 289 651 Q277 651 270.5 644 Q264 637 264 629 Z M62 441 Q62 466 69.5 484 Q77 502 88 515.5 Q99 529 113 538 Q127 547 139 553 Q125 560 114 576 Q103 592 103 619 Q103 673 152 708.5 Q201 744 296 744 Q377 744 415 720 Q453 696 453 656 Q453 636 447 621 Q441 606 432 594 Q423 582 412.5 573.5 Q402 565 393 559 Q412 545 424 529 Q436 513 436 484 Q436 449 419.5 422.5 Q403 396 374 378.5 Q345 361 306.5 352.5 Q268 344 224 344 Q150 344 106 368.5 Q62 393 62 441 Z M682 720 L844 720 L292 0 L126 0 L682 720 Z M910 247 Q910 206 895.5 161.5 Q881 117 851 79.5 Q821 42 774.5 18 Q728 -6 664 -6 Q626 -6 591 1.5 Q556 9 530 20 L576 126 Q616 111 652 111 Q681 111 704 124 Q727 137 734 169 Q711 157 689.5 151 Q668 145 644 145 Q595 145 571 170.5 Q547 196 547 235 Q547 280 565.5 310.5 Q584 341 613 359.5 Q642 378 678 386 Q714 394 749 394 Q833 394 871.5 354.5 Q910 315 910 247 Z M721 230 Q727 230 734 232.5 Q741 235 746 238 Q751 256 748.5 270 Q746 284 732 284 Q718 284 711.5 270.5 Q705 257 705 248 Q705 242 708 236 Q711 230 721 230 Z " />
<glyph glyph-name="minus" unicode="&#x2212;" horiz-adv-x="600" d="M560 231 L40 231 L40 373 L560 373 L560 231 Z " />
<glyph glyph-name="uni2215" unicode="&#x2215;" horiz-adv-x="139" d="M300 720 L462 720 L-90 0 L-256 0 L300 720 Z " />
<glyph glyph-name="uni2219" unicode="&#x2219;" horiz-adv-x="350" d="M54 325 Q54 376 85.5 405 Q117 434 172 434 Q226 434 257.5 405 Q289 376 289 325 Q289 276 258.5 245 Q228 214 173 214 Q116 214 85 245 Q54 276 54 325 Z " />
<glyph glyph-name="approxequal" unicode="&#x2248;" horiz-adv-x="740" d="M665 363 Q618 334 569 317 Q520 300 463 300 Q429 300 398 307.5 Q367 315 334 323 L322 326 Q294 334 270 340 Q246 346 223 346 Q196 346 159 334.5 Q122 323 77 300 L45 428 Q93 457 142 474 Q191 491 248 491 Q280 491 311.5 484 Q343 477 373.5 468 Q404 459 432.5 452 Q461 445 487 445 Q492 445 498 445.5 Q504 446 510 447 Q562 455 635 491 L665 363 Z M668 140 Q621 111 572 94 Q523 77 466 77 Q432 77 401 84.5 Q370 92 337 100 L325 103 Q297 111 273 117 Q249 123 226 123 Q199 123 162 111.5 Q125 100 80 77 L48 205 Q96 234 145 251 Q194 268 251 268 Q283 268 314.5 261 Q346 254 376.5 245 Q407 236 435.5 229 Q464 222 490 222 Q495 222 501 222.5 Q507 223 513 224 Q565 232 638 268 L668 140 Z " />
<glyph glyph-name="notequal" unicode="&#x2260;" horiz-adv-x="600" d="M560 108 L283 108 L217 0 L37 0 L104 108 L39 108 L39 252 L193 252 L227 307 L39 307 L39 451 L317 451 L368 533 L546 533 L495 451 L560 451 L560 307 L406 307 L372 252 L560 252 L560 108 Z " />
<glyph glyph-name="lessequal" unicode="&#x2264;" horiz-adv-x="600" d="M560 0 L40 0 L40 145 L560 145 L560 0 Z M40 365 L40 478 L495 679 L558 528 L307 422 L560 317 L498 165 L40 365 Z " />
<glyph glyph-name="greaterequal" unicode="&#x2265;" horiz-adv-x="600" d="M40 145 L560 145 L560 0 L40 0 L40 145 Z M102 165 L40 317 L293 422 L42 528 L105 679 L560 478 L560 365 L102 165 Z " />
<glyph glyph-name="less" unicode="&#x3c;" horiz-adv-x="600" d="M29 244 L29 357 L534 578 L597 427 L307 301 L599 176 L537 24 L29 244 Z " />
<glyph glyph-name="equal" unicode="&#x3d;" horiz-adv-x="600" d="M560 108 L39 108 L39 252 L560 252 L560 108 Z M560 307 L39 307 L39 451 L560 451 L560 307 Z " />
<glyph glyph-name="greater" unicode="&#x3e;" horiz-adv-x="600" d="M67 24 L5 176 L297 301 L22 421 L85 572 L575 357 L575 244 L67 24 Z " />
<glyph glyph-name="logicalnot" unicode="&#xac;" horiz-adv-x="600" d="M418 114 L418 279 L32 279 L32 420 L569 420 L569 114 L418 114 Z " />
<glyph glyph-name="plus" unicode="&#x2b;" horiz-adv-x="600" d="M375 373 L561 373 L561 231 L375 231 L375 40 L226 40 L226 231 L38 231 L38 373 L226 373 L226 563 L375 563 L375 373 Z " />
<glyph glyph-name="plusminus" unicode="&#xb1;" horiz-adv-x="600" d="M560 0 L40 0 L40 142 L225 142 L225 254 L40 254 L40 390 L225 390 L225 542 L375 542 L375 390 L560 390 L560 254 L375 254 L375 142 L560 142 L560 0 Z " />
<glyph glyph-name="divide" unicode="&#xf7;" horiz-adv-x="600" d="M300 563 Q333 563 356.5 539.5 Q380 516 380 481 Q380 449 357.5 425 Q335 401 300 401 Q265 401 241.5 424 Q218 447 218 481 Q218 515 242.5 539 Q267 563 300 563 Z M40 373 L560 373 L560 231 L40 231 L40 373 Z M299 207 Q316 207 330.5 200 Q345 193 356 182 Q367 171 373.5 156 Q380 141 380 125 Q380 93 357.5 68.5 Q335 44 298 44 Q264 44 240.5 67.5 Q217 91 217 125 Q217 159 241.5 183 Q266 207 299 207 Z " />
<glyph glyph-name="multiply" unicode="&#xd7;" horiz-adv-x="600" d="M404 299 L538 163 L438 63 L304 199 L168 63 L62 169 L198 305 L62 439 L162 539 L298 405 L432 539 L538 433 L404 299 Z " />
<glyph glyph-name="partialdiff" unicode="&#x2202;" horiz-adv-x="629" d="M255 -12 Q208 -12 166 1 Q124 14 91.5 41 Q59 68 40 110.5 Q21 153 21 212 Q21 268 37 315.5 Q53 363 84 397.5 Q115 432 159.5 451.5 Q204 471 260 471 Q298 471 330 458 Q362 445 386 417 Q388 466 367 494.5 Q346 523 286 523 Q271 523 252.5 521 Q234 519 215 516 Q196 513 178 508.5 Q160 504 145 498 L116 651 Q176 680 231.5 690.5 Q287 701 339 701 Q404 701 452 680.5 Q500 660 532 622.5 Q564 585 580 532 Q596 479 596 415 Q596 334 576 257 Q556 180 514.5 120 Q473 60 408.5 24 Q344 -12 255 -12 Z M289 178 Q305 178 317.5 186 Q330 194 338 206.5 Q346 219 350 234 Q354 249 354 262 Q354 284 342.5 298.5 Q331 313 308 313 Q291 313 279 305.5 Q267 298 259.5 286.5 Q252 275 248 260.5 Q244 246 244 233 Q244 210 255 194 Q266 178 289 178 Z " />
<glyph glyph-name="Omega" unicode="&#x2126;" horiz-adv-x="834" d="M457 192 Q506 226 521.5 270 Q537 314 537 357 Q537 383 531.5 409 Q526 435 512.5 456 Q499 477 477.5 490.5 Q456 504 424 504 Q392 504 370.5 490.5 Q349 477 335.5 456 Q322 435 316.5 409 Q311 383 311 357 Q311 307 326.5 263.5 Q342 220 387 192 L387 0 L40 0 L40 217 L152 217 Q131 228 111.5 246 Q92 264 77 288 Q62 312 53 342.5 Q44 373 44 410 Q44 476 69 534.5 Q94 593 142.5 637 Q191 681 261.5 707 Q332 733 424 733 Q515 733 586 709.5 Q657 686 705.5 645.5 Q754 605 779 549.5 Q804 494 804 431 Q804 389 794.5 355 Q785 321 769 294.5 Q753 268 732 248.5 Q711 229 688 217 L804 217 L804 0 L457 0 L457 192 Z " />
<glyph glyph-name="Delta" unicode="&#x2206;" horiz-adv-x="776" d="M490 720 L753 0 L-23 0 L239 720 L490 720 Z M427 172 L364 474 L287 172 L427 172 Z " />
<glyph glyph-name="product" unicode="&#x220f;" horiz-adv-x="736" d="M45 720 L701 720 L701 -140 L447 -140 L447 506 L299 506 L299 -140 L45 -140 L45 720 Z " />
<glyph glyph-name="summation" unicode="&#x2211;" horiz-adv-x="636" d="M360 503 L486 314 L360 98 L615 98 L615 -119 L-25 -119 L-25 -29 L184 314 L-25 630 L-25 720 L605 720 L605 503 L360 503 Z " />
<glyph glyph-name="uni0394" unicode="&#x394;" horiz-adv-x="776" d="M513 720 L776 0 L0 0 L262 720 L513 720 Z M450 172 L387 474 L310 172 L450 172 Z " />
<glyph glyph-name="uni03A9" unicode="&#x3a9;" horiz-adv-x="824" d="M448 192 Q497 226 512.5 270 Q528 314 528 357 Q528 383 522.5 409 Q517 435 503.5 456 Q490 477 468.5 490.5 Q447 504 415 504 Q383 504 361.5 490.5 Q340 477 326.5 456 Q313 435 307.5 409 Q302 383 302 357 Q302 307 317.5 263.5 Q333 220 378 192 L378 0 L31 0 L31 217 L143 217 Q122 228 102.5 246 Q83 264 68 288 Q53 312 44 342.5 Q35 373 35 410 Q35 476 60 534.5 Q85 593 133.5 637 Q182 681 252.5 707 Q323 733 415 733 Q506 733 577 709.5 Q648 686 696.5 645.5 Q745 605 770 549.5 Q795 494 795 431 Q795 389 785.5 355 Q776 321 760 294.5 Q744 268 723 248.5 Q702 229 679 217 L795 217 L795 0 L448 0 L448 192 Z " />
<glyph glyph-name="uni03BC" unicode="&#x3bc;" horiz-adv-x="620" d="M395 0 L395 38 Q383 20 363 6.5 Q343 -7 319 -12 Q301 -15 290 -15.5 Q279 -16 274 -16 L274 -200 L29 -200 L29 533 L274 533 L274 185 Q274 162 280 145.5 Q286 129 313 129 Q323 129 338 132 L338 533 L582 533 L582 0 L395 0 Z " />
<glyph glyph-name="pi" unicode="&#x3c0;" horiz-adv-x="762" d="M40 533 L722 533 L722 370 L661 370 L661 0 L417 0 L417 370 L355 370 L355 0 L111 0 L111 370 L40 370 L40 533 Z " />
<glyph glyph-name="mu" unicode="&#xb5;" horiz-adv-x="632" d="M406 0 L406 38 Q394 20 374 6.5 Q354 -7 330 -12 Q312 -15 301 -15.5 Q290 -16 285 -16 L285 -200 L40 -200 L40 533 L285 533 L285 185 Q285 162 291 145.5 Q297 129 324 129 Q334 129 349 132 L349 533 L593 533 L593 0 L406 0 Z " />
<glyph glyph-name="radical" unicode="&#x221a;" horiz-adv-x="808" d="M43 364 L326 364 L425 100 L661 824 L872 824 L537 -166 L314 -166 L168 197 L43 197 L43 364 Z " />
<glyph glyph-name="infinity" unicode="&#x221e;" horiz-adv-x="820" d="M780 314 Q780 272 766 238 Q752 204 729 180 Q706 156 676 143 Q646 130 613 130 Q573 130 543.5 137 Q514 144 490.5 155.5 Q467 167 448 181.5 Q429 196 411 212 Q365 174 321.5 152 Q278 130 218 130 Q179 130 146.5 141.5 Q114 153 90 174.5 Q66 196 53 228 Q40 260 40 301 Q40 340 53 373 Q66 406 90.5 430 Q115 454 150 467.5 Q185 481 230 481 Q289 481 332 457.5 Q375 434 414 393 Q437 415 459.5 431.5 Q482 448 505 459 Q528 470 554 476 Q580 482 610 482 Q654 482 686 468.5 Q718 455 739 432 Q760 409 770 378.5 Q780 348 780 314 Z M624 306 Q624 352 578 352 Q558 352 539 339 Q520 326 500 307 Q513 291 535 275.5 Q557 260 578 260 Q601 260 612.5 273 Q624 286 624 306 Z M326 304 Q305 325 286.5 338.5 Q268 352 248 352 Q223 352 210.5 338.5 Q198 325 198 304 Q198 258 248 258 Q266 258 286.5 269.5 Q307 281 326 304 Z " />
<glyph glyph-name="integral" unicode="&#x222b;" horiz-adv-x="357" d="M16 -26 Q40 -26 54.5 -14.5 Q69 -3 69 26 L69 593 Q69 693 123.5 741.5 Q178 790 284 790 L382 790 L382 618 L337 618 Q312 618 299.5 606.5 Q287 595 287 556 L287 -7 Q287 -100 231 -150 Q175 -200 56 -200 L-44 -200 L-44 -26 L16 -26 Z " />
<glyph glyph-name="lozenge" unicode="&#x25ca;" horiz-adv-x="652" d="M45 352 L244 700 L400 700 L607 354 L400 0 L244 0 L45 352 Z M240 349 L324 195 L411 349 L324 503 L240 349 Z " />
<glyph glyph-name="commaaccent" unicode="&#xf6c3;" horiz-adv-x="487" d="M42 -38 L194 -77 L93 -271 L-33 -238 L42 -38 Z " />
<glyph glyph-name="apostrophe" unicode="&#x2bc;" horiz-adv-x="487" d="M142 644 Q142 682 169 707.5 Q196 733 234 733 Q269 733 286.5 711 Q304 689 304 655 Q304 589 260.5 542.5 Q217 496 142 482 L131 541 Q165 551 177.5 563.5 Q190 576 198 593 Q190 591 180 593 Q170 595 164 598 Q152 605 147 617.5 Q142 630 142 644 Z " />
<glyph glyph-name="zero.tosf" unicode="&#xf81e;" horiz-adv-x="600" d="M305 410 Q283 410 269 390.5 Q255 371 246.5 344.5 Q238 318 235 290 Q232 262 232 244 Q232 219 240 205 Q248 191 269 191 Q291 191 305.5 210 Q320 229 328 256 Q336 283 339 311 Q342 339 342 357 Q342 386 333 398 Q324 410 305 410 Z M5 223 Q5 294 22.5 363.5 Q40 433 79.5 488.5 Q119 544 182 578 Q245 612 336 612 Q398 612 442.5 595.5 Q487 579 515.5 549 Q544 519 557 475.5 Q570 432 570 378 Q570 303 551 232.5 Q532 162 491.5 107.5 Q451 53 389 20 Q327 -13 240 -13 Q178 -13 134 4 Q90 21 61 51.5 Q32 82 18.5 125.5 Q5 169 5 223 Z " />
<glyph glyph-name="one.tosf" unicode="&#xf81f;" horiz-adv-x="600" d="M72 181 L192 181 L216 322 Q184 312 150.5 309.5 Q117 307 85 312 L84 469 Q144 486 204.5 521.5 Q265 557 309 602 L494 602 L423 181 L535 181 L505 0 L42 0 L72 181 Z " />
<glyph glyph-name="two.tosf" unicode="&#xf820;" horiz-adv-x="600" d="M11 135 L210 275 Q236 293 255 306 Q274 319 286 330 Q298 341 304 352 Q310 363 310 377 Q310 409 270 409 Q234 409 192.5 387.5 Q151 366 108 337 L40 484 Q103 540 182 576 Q261 612 348 612 Q391 612 428.5 604 Q466 596 493.5 578.5 Q521 561 536.5 532 Q552 503 552 461 Q552 425 546 396.5 Q540 368 523 342 Q506 316 474.5 289.5 Q443 263 391 231 L329 193 L533 193 L501 0 L-12 0 L11 135 Z " />
<glyph glyph-name="three.tosf" unicode="&#xf821;" horiz-adv-x="600" d="M54 176 Q87 156 129.5 140.5 Q172 125 210 125 Q241 125 262.5 134 Q284 143 284 167 Q284 186 265.5 192 Q247 198 216 198 Q198 198 177.5 196 Q157 194 140 191 L161 344 Q187 345 212 347.5 Q237 350 257 355.5 Q277 361 289.5 370.5 Q302 380 302 395 Q302 409 289 414 Q276 419 254 419 Q226 419 189.5 409 Q153 399 121 384 L63 528 Q131 570 196 591 Q261 612 340 612 Q428 612 478 578 Q528 544 528 474 Q528 438 515 409 Q502 380 480 357 Q458 334 429 317 Q400 300 369 289 Q427 278 461.5 246.5 Q496 215 496 158 Q496 97 470 53.5 Q444 10 401.5 -17.5 Q359 -45 304.5 -58 Q250 -71 192 -71 Q128 -71 67 -45 Q6 -19 -32 28 L54 176 Z " />
<glyph glyph-name="four.tosf" unicode="&#xf822;" horiz-adv-x="600" d="M281 247 L309 411 L187 247 L281 247 Z M252 69 L-22 69 L7 244 L283 601 L554 601 L494 247 L560 247 L531 69 L465 69 L443 -60 L230 -60 L252 69 Z " />
<glyph glyph-name="five.tosf" unicode="&#xf823;" horiz-adv-x="600" d="M135 601 L551 601 L506 415 L258 415 L240 348 Q260 359 292.5 367 Q325 375 362 375 Q397 375 426.5 366.5 Q456 358 478 339 Q500 320 512 291 Q524 262 524 220 Q524 148 497.5 94 Q471 40 427.5 3 Q384 -34 326.5 -52.5 Q269 -71 208 -71 Q174 -71 141 -64.5 Q108 -58 78.5 -45.5 Q49 -33 24.5 -14.5 Q0 4 -16 27 L69 168 Q113 144 146.5 133.5 Q180 123 221 123 Q234 123 248 126.5 Q262 130 274 138 Q286 146 293.5 160 Q301 174 301 194 Q301 231 259 231 Q242 231 228 225.5 Q214 220 205 212 L197 185 L34 185 L135 601 Z " />
<glyph glyph-name="six.tosf" unicode="&#xf824;" horiz-adv-x="600" d="M18 253 Q18 346 42.5 431 Q67 516 114.5 580 Q162 644 230.5 682 Q299 720 387 720 Q438 720 486.5 708 Q535 696 588 666 L511 517 Q484 530 449 536 Q414 542 385 542 Q339 542 302 509 Q265 476 252 413 Q279 434 317.5 449 Q356 464 398 464 Q430 464 459.5 455 Q489 446 511 426 Q533 406 546 374.5 Q559 343 559 299 Q559 215 532 155.5 Q505 96 461 58.5 Q417 21 361 4 Q305 -13 248 -13 Q187 -13 143.5 7 Q100 27 72 62.5 Q44 98 31 146.5 Q18 195 18 253 Z M275 179 Q308 179 324 201.5 Q340 224 340 259 Q340 279 330 291.5 Q320 304 298 304 Q285 304 267.5 297 Q250 290 239 277 Q236 257 234.5 239.5 Q233 222 236 208.5 Q239 195 248 187 Q257 179 275 179 Z " />
<glyph glyph-name="seven.tosf" unicode="&#xf825;" horiz-adv-x="600" d="M273 -60 L42 -60 L45 -39 L312 408 L52 408 L85 601 L580 601 L556 463 L273 -60 Z " />
<glyph glyph-name="eight.tosf" unicode="&#xf826;" horiz-adv-x="600" d="M201 208 Q201 191 213 179.5 Q225 168 254 168 Q275 168 291.5 180.5 Q308 193 308 213 Q308 237 287 252 Q266 267 240 281 Q225 267 213 246 Q201 225 201 208 Z M295 514 Q295 500 308 486 Q321 472 346 455 Q359 469 370 488 Q381 507 381 523 Q381 540 369 547.5 Q357 555 342 555 Q322 555 308.5 543 Q295 531 295 514 Z M-6 157 Q-6 200 8 234 Q22 268 42.5 293.5 Q63 319 86.5 336.5 Q110 354 129 364 Q107 378 86 410.5 Q65 443 65 490 Q65 538 86 580 Q107 622 145.5 653 Q184 684 237.5 702 Q291 720 357 720 Q466 720 523.5 677 Q581 634 581 560 Q581 526 569.5 498 Q558 470 541.5 447.5 Q525 425 506.5 409 Q488 393 474 383 Q503 360 527 325.5 Q551 291 551 237 Q551 176 527.5 129.5 Q504 83 462 51.5 Q420 20 362 3.5 Q304 -13 235 -13 Q123 -13 58.5 30 Q-6 73 -6 157 Z " />
<glyph glyph-name="nine.tosf" unicode="&#xf827;" horiz-adv-x="600" d="M560 370 Q560 277 536 196 Q512 115 466 56 Q420 -3 354 -37 Q288 -71 203 -71 Q146 -71 95.5 -60 Q45 -49 -9 -22 L67 132 Q80 126 97 120.5 Q114 115 131.5 111 Q149 107 166.5 105 Q184 103 199 103 Q251 103 278.5 125 Q306 147 315 196 Q288 175 254 161 Q220 147 177 147 Q145 147 115.5 156.5 Q86 166 64 186.5 Q42 207 29 239 Q16 271 16 316 Q16 399 43.5 455.5 Q71 512 115.5 547 Q160 582 215 597 Q270 612 325 612 Q448 612 504 547.5 Q560 483 560 370 Z M298 421 Q265 421 249.5 401.5 Q234 382 234 349 Q234 306 277 306 Q290 306 307.5 313 Q325 320 336 333 Q339 349 340 364.5 Q341 380 337 392.5 Q333 405 323.5 413 Q314 421 298 421 Z " />
<glyph glyph-name="ft" unicode="&#xf603;" horiz-adv-x="715" d="M629 374 L599 198 Q597 184 601.5 176.5 Q606 169 623 169 Q634 169 644.5 170.5 Q655 172 663 174 L656 12 Q613 -2 575.5 -7.5 Q538 -13 496 -13 Q450 -13 420 -0.5 Q390 12 373 34 Q356 56 351.5 86 Q347 116 353 151 L391 374 L318 374 L255 0 L17 0 L80 374 L12 374 L33 499 L105 525 L107 536 Q124 636 178.5 684.5 Q233 733 335 733 Q359 733 378.5 730 Q398 727 424 722 L398 568 Q391 570 387 570.5 Q383 571 376 571 Q360 571 354 562.5 Q348 554 346 544 L344 533 L423 533 L460 697 L683 697 L655 533 L736 533 L710 374 L629 374 Z " />
<glyph glyph-name="currency" unicode="&#xa4;" horiz-adv-x="561" d="M339 350 Q339 372 326.5 383.5 Q314 395 292 395 Q281 395 269 391 Q257 387 247 378.5 Q237 370 230.5 357 Q224 344 224 327 Q224 302 237.5 291 Q251 280 273 280 Q301 280 320 300.5 Q339 321 339 350 Z M167 596 L227 515 Q270 532 313 532 Q357 532 392 518 L477 594 L558 492 L471 416 Q479 389 479 360 Q479 335 471 309.5 Q463 284 443 254 L505 181 L390 80 L330 158 Q307 148 286.5 144.5 Q266 141 248 141 Q209 141 170 158 Q148 138 126.5 119 Q105 100 82 80 L5 180 L91 256 Q88 267 86.5 281.5 Q85 296 85 310 Q85 341 94.5 366 Q104 391 118 416 L56 493 L167 596 Z " />
</font>
</svg>
