<?xml version="1.0" encoding="UTF-8"?>
<svg xmlns="http://www.w3.org/2000/svg" xmlns:xlink="http://www.w3.org/1999/xlink" version="1.2" >
<font id="LFTEtica-Italic">
<font-face  font-family="LFT Etica" units-per-em="1000" ascent="930" descent="-270" font-style="italic" font-weight="400" font-stretch="normal" slope="-9" cap-height="720" x-height="525" underline-position="-75" underline-thickness="50" />
<missing-glyph  horiz-adv-x="175" d="" />
<glyph glyph-name="&amp;#x20;" unicode="&#x20;" horiz-adv-x="205" d="" />
<glyph glyph-name="&amp;#xa0;" unicode="&#xa0;" horiz-adv-x="205" d="" />
<glyph glyph-name="numbersign" unicode="&#x23;" horiz-adv-x="696" d="M291 386 L247 250 L398 250 L446 386 L291 386 Z M649 386 L508 386 L461 250 L594 250 L594 190 L442 190 L376 12 L319 25 L379 190 L225 190 L160 12 L104 25 L162 190 L51 190 L51 250 L183 250 L230 386 L106 386 L106 447 L251 447 L319 641 L377 627 L314 447 L467 447 L536 639 L593 627 L530 447 L649 447 L649 386 Z " />
<glyph glyph-name="ampersand" unicode="&#x26;" horiz-adv-x="705" d="M286 563 Q286 513 333 451 Q458 506 458 589 Q458 618 438 637 Q418 656 385 656 Q343 656 314.5 628.5 Q286 601 286 563 Z M262 59 Q346 59 435 146 L294 366 Q139 303 139 179 Q139 127 172 93 Q205 59 262 59 Z M537 -9 L472 87 Q416 33 360 8 Q304 -17 239 -17 Q154 -17 103.5 32.5 Q53 82 53 162 Q53 247 104.5 309.5 Q156 372 256 417 Q205 487 205 549 Q205 623 259.5 674 Q314 725 397 725 Q459 725 497 691.5 Q535 658 535 601 Q535 535 493.5 487.5 Q452 440 373 403 L440 302 L573 403 L613 346 L475 242 L607 47 L537 -9 Z " />
<glyph glyph-name="asterisk" unicode="&#x2a;" horiz-adv-x="441" d="M342 421 L256 515 L169 421 L128 447 L197 550 L97 591 L113 635 L222 608 L233 720 L280 720 L291 609 L403 636 L418 591 L313 550 L380 448 L342 421 Z " />
<glyph glyph-name="comma" unicode="&#x2c;" horiz-adv-x="226" d="M5 32 Q5 62 25.5 80.5 Q46 99 77 99 Q105 99 118.5 81.5 Q132 64 132 36 Q132 -20 94 -66.5 Q56 -113 -12 -135 L-21 -96 Q47 -68 62 -12 Q58 -13 51 -13 Q29 -13 17 -0.5 Q5 12 5 32 Z " />
<glyph glyph-name="hyphen" unicode="&#x2d;" horiz-adv-x="325" d="M20 229 L35 316 L296 316 L281 229 L20 229 Z " />
<glyph glyph-name="period" unicode="&#x2e;" horiz-adv-x="240" d="M22 46 Q22 76 40 92 Q58 108 88 108 Q116 108 134 92 Q152 76 152 48 Q152 20 134 4 Q116 -12 88 -12 Q58 -12 40 4 Q22 20 22 46 Z " />
<glyph glyph-name="colon" unicode="&#x3a;" horiz-adv-x="240" d="M86 442 Q86 472 104 488 Q122 504 152 504 Q180 504 198 488 Q216 472 216 444 Q216 416 198 400 Q180 384 152 384 Q122 384 104 400 Q86 416 86 442 Z M20 46 Q20 76 38 92 Q56 108 86 108 Q114 108 132 92 Q150 76 150 48 Q150 20 132 4 Q114 -12 86 -12 Q56 -12 38 4 Q20 20 20 46 Z " />
<glyph glyph-name="semicolon" unicode="&#x3b;" horiz-adv-x="232" d="M5 32 Q5 62 25.5 80.5 Q46 99 77 99 Q105 99 118.5 81.5 Q132 64 132 36 Q132 -20 94 -66.5 Q56 -113 -12 -135 L-21 -96 Q47 -68 62 -12 Q58 -13 51 -13 Q29 -13 17 -0.5 Q5 12 5 32 Z M79 442 Q79 472 97 488 Q115 504 145 504 Q173 504 191 488 Q209 472 209 444 Q209 416 191 400 Q173 384 145 384 Q115 384 97 400 Q79 416 79 442 Z " />
<glyph glyph-name="question" unicode="&#x3f;" horiz-adv-x="516" d="M199 202 L203 230 Q209 264 224.5 294 Q240 324 259 346 Q278 368 301 388.5 Q324 409 345 428.5 Q366 448 383 467.5 Q400 487 410.5 512 Q421 537 421 565 Q421 653 318 653 Q256 653 217 617.5 Q178 582 167 515 L86 515 Q104 620 170 676 Q236 732 337 732 Q419 732 466 693 Q513 654 513 583 Q513 547 501.5 515 Q490 483 471 458.5 Q452 434 429 412 Q406 390 382 369 Q358 348 337 327 Q316 306 300.5 279.5 Q285 253 280 224 L277 202 L199 202 Z M147 37 Q147 69 168 88.5 Q189 108 222 108 Q247 108 261.5 95 Q276 82 276 58 Q276 27 255 7.5 Q234 -12 202 -12 Q176 -12 161.5 1.5 Q147 15 147 37 Z " />
<glyph glyph-name="exclam" unicode="&#x21;" horiz-adv-x="305" d="M102 202 L138 480 L178 720 L268 720 L228 480 L173 202 L102 202 Z M47 37 Q47 69 68 88.5 Q89 108 122 108 Q146 108 160.5 95 Q175 82 175 58 Q175 27 153.5 7.5 Q132 -12 102 -12 Q76 -12 61.5 1.5 Q47 15 47 37 Z " />
<glyph glyph-name="exclamdown" unicode="&#xa1;" horiz-adv-x="305" d="M182 322 L146 44 L106 -196 L16 -196 L56 44 L111 322 L182 322 Z M237 487 Q237 455 216 435.5 Q195 416 162 416 Q138 416 123.5 429 Q109 442 109 466 Q109 497 130.5 516.5 Q152 536 182 536 Q208 536 222.5 522.5 Q237 509 237 487 Z " />
<glyph glyph-name="questiondown" unicode="&#xbf;" horiz-adv-x="516" d="M322 323 L318 295 Q312 261 297 231 Q282 201 262 179 Q242 157 220 136.5 Q198 116 177 97 Q156 78 138.5 58 Q121 38 110.5 13 Q100 -12 100 -40 Q100 -128 203 -128 Q265 -128 304 -92 Q343 -56 354 10 L435 10 Q417 -95 351.5 -151 Q286 -207 184 -207 Q102 -207 55 -168.5 Q8 -130 8 -58 Q8 -22 19.5 10 Q31 42 50 66 Q69 90 92 112.5 Q115 135 139.5 156 Q164 177 184.5 198 Q205 219 220.5 245.5 Q236 272 241 301 L244 323 L322 323 Z M374 488 Q374 456 353 436.5 Q332 417 299 417 Q274 417 259.5 430.5 Q245 444 245 467 Q245 498 266 517.5 Q287 537 319 537 Q345 537 359.5 523.5 Q374 510 374 488 Z " />
<glyph glyph-name="at" unicode="&#x40;" horiz-adv-x="986" d="M559 206 L591 335 Q564 354 510 354 Q432 354 387 297 Q342 240 342 156 Q342 61 418 61 Q466 61 504.5 102.5 Q543 144 559 206 Z M674 380 L618 155 Q613 133 613 117 Q613 88 624.5 73 Q636 58 666 58 Q707 58 740.5 79 Q774 100 794.5 136 Q815 172 826 215 Q837 258 837 305 Q837 442 752.5 512 Q668 582 522 582 Q408 582 319 532 Q230 482 181 392 Q132 302 132 186 Q132 80 177.5 5 Q223 -70 302 -107 Q381 -144 485 -144 Q570 -144 638.5 -123 Q707 -102 770 -56 L804 -107 Q739 -159 655.5 -185 Q572 -211 483 -211 Q411 -211 347 -195.5 Q283 -180 229.5 -147 Q176 -114 137.5 -67 Q99 -20 77.5 45 Q56 110 56 187 Q56 288 92 374.5 Q128 461 190 521 Q252 581 338.5 615 Q425 649 525 649 Q705 649 808.5 557.5 Q912 466 912 311 Q912 223 881 151.5 Q850 80 793 38 Q736 -4 661 -4 Q607 -4 579.5 18.5 Q552 41 552 81 L552 88 Q489 -2 404 -2 Q336 -2 300.5 41 Q265 84 265 154 Q265 206 282.5 254 Q300 302 332 338.5 Q364 375 414 396.5 Q464 418 525 418 Q567 418 606.5 408 Q646 398 674 380 Z " />
<glyph glyph-name="A" unicode="A" horiz-adv-x="636" d="M338 720 L435 720 L569 0 L473 0 L436 193 L162 193 L63 0 L-33 0 L338 720 Z M203 278 L426 278 L369 612 L203 278 Z " />
<glyph glyph-name="B" unicode="B" horiz-adv-x="621" d="M367 638 L225 638 L187 410 L314 410 Q495 410 495 551 Q495 597 463 617.5 Q431 638 367 638 Z M173 328 L132 81 L298 81 Q383 81 429.5 122.5 Q476 164 476 233 Q476 285 438.5 306.5 Q401 328 332 328 L173 328 Z M27 0 L147 720 L391 720 Q591 720 591 575 Q591 543 581.5 511.5 Q572 480 553 453 Q534 426 503 406 Q472 386 433 380 Q432 379 432 378 Q461 375 484.5 364.5 Q508 354 523 340 Q538 326 548 308 Q558 290 562 271 Q566 252 566 233 Q566 170 543 124 Q520 78 477.5 51.5 Q435 25 381.5 12.5 Q328 0 260 0 L27 0 Z " />
<glyph glyph-name="C" unicode="C" horiz-adv-x="643" d="M532 159 L572 97 Q449 -12 301 -12 Q237 -12 189.5 10 Q142 32 112 71 Q82 110 67.5 162 Q53 214 53 277 Q53 349 68.5 416.5 Q84 484 116 541.5 Q148 599 193 641.5 Q238 684 299 708.5 Q360 733 430 733 Q530 733 586 686 Q642 639 642 548 Q642 526 639 502 L550 502 Q551 510 551 527 Q551 583 518.5 615.5 Q486 648 415 648 Q335 648 274.5 601.5 Q214 555 182.5 473.5 Q151 392 151 289 Q151 182 195.5 126.5 Q240 71 321 71 Q383 71 431.5 94 Q480 117 532 159 Z " />
<glyph glyph-name="D" unicode="D" horiz-adv-x="680" d="M342 636 L224 636 L132 83 L250 83 Q550 83 550 428 Q550 636 342 636 Z M147 720 L352 720 Q498 720 572.5 649 Q647 578 647 439 Q647 217 540.5 108.5 Q434 0 218 0 L27 0 L147 720 Z " />
<glyph glyph-name="E" unicode="E" horiz-adv-x="578" d="M27 0 L147 720 L593 720 L579 636 L224 636 L186 408 L509 408 L495 324 L172 324 L132 83 L494 83 L480 0 L27 0 Z " />
<glyph glyph-name="F" unicode="F" horiz-adv-x="533" d="M27 0 L147 720 L572 720 L558 636 L224 636 L186 404 L481 404 L467 320 L172 320 L118 0 L27 0 Z " />
<glyph glyph-name="G" unicode="G" horiz-adv-x="694" d="M392 296 L405 374 L646 374 L600 101 Q487 -12 321 -12 Q265 -12 219.5 2 Q174 16 143 41 Q112 66 92 103 Q72 140 62.5 182.5 Q53 225 53 276 Q53 354 69.5 423 Q86 492 118.5 548.5 Q151 605 197.5 646.5 Q244 688 306.5 710.5 Q369 733 443 733 Q505 733 550 719 Q595 705 620.5 679.5 Q646 654 657.5 622.5 Q669 591 669 552 Q669 527 667 515 L574 515 Q575 522 575 535 Q575 587 539.5 617.5 Q504 648 426 648 Q361 648 308 619 Q255 590 221 541 Q187 492 168.5 428 Q150 364 150 291 Q150 185 197 127 Q244 69 334 69 Q444 69 528 143 L554 296 L392 296 Z " />
<glyph glyph-name="H" unicode="H" horiz-adv-x="682" d="M27 0 L147 720 L238 720 L187 415 L533 415 L584 720 L675 720 L555 0 L464 0 L519 329 L173 329 L118 0 L27 0 Z " />
<glyph glyph-name="I" unicode="I" horiz-adv-x="245" d="M27 0 L147 720 L238 720 L118 0 L27 0 Z " />
<glyph glyph-name="J" unicode="J" horiz-adv-x="388" d="M383 720 L291 166 Q275 74 230.5 31 Q186 -12 106 -12 Q18 -12 -32 14 L-1 90 Q44 69 96 69 Q146 69 169.5 93 Q193 117 204 183 L293 720 L383 720 Z " />
<glyph glyph-name="K" unicode="K" horiz-adv-x="623" d="M27 0 L147 720 L238 720 L187 410 L312 410 L540 720 L640 720 L384 374 L554 0 L450 0 L298 330 L173 330 L118 0 L27 0 Z " />
<glyph glyph-name="L" unicode="L" horiz-adv-x="515" d="M147 720 L238 720 L132 83 L453 83 L439 0 L27 0 L147 720 Z " />
<glyph glyph-name="M" unicode="M" horiz-adv-x="844" d="M740 0 L655 0 L691 556 L408 0 L335 0 L238 556 L90 0 L4 0 L194 720 L296 720 L394 139 L690 720 L790 720 L740 0 Z " />
<glyph glyph-name="N" unicode="N" horiz-adv-x="686" d="M27 0 L147 720 L229 720 L499 161 L590 720 L679 720 L559 0 L480 0 L208 558 L116 0 L27 0 Z " />
<glyph glyph-name="O" unicode="O" horiz-adv-x="746" d="M159 374 Q150 316 150 274 Q150 172 198.5 120.5 Q247 69 335 69 Q559 69 610 360 Q616 394 616 445 Q616 542 567 595 Q518 648 432 648 Q326 648 253.5 577 Q181 506 159 374 Z M61 367 Q75 457 110.5 527.5 Q146 598 197.5 642.5 Q249 687 312.5 710 Q376 733 447 733 Q571 733 642 659.5 Q713 586 713 451 Q713 419 706 367 Q691 268 655 193.5 Q619 119 567.5 75 Q516 31 455.5 9.5 Q395 -12 325 -12 Q198 -12 125.5 59.5 Q53 131 53 271 Q53 313 61 367 Z " />
<glyph glyph-name="P" unicode="P" horiz-adv-x="586" d="M357 639 L225 639 L177 355 L302 355 Q398 355 445 400.5 Q492 446 492 529 Q492 584 459.5 611.5 Q427 639 357 639 Z M27 0 L147 720 L376 720 Q479 720 531 674 Q583 628 583 543 Q583 485 565 436.5 Q547 388 511.5 352 Q476 316 420 296.5 Q364 277 291 277 L164 277 L118 0 L27 0 Z " />
<glyph glyph-name="Q" unicode="Q" horiz-adv-x="746" d="M61 367 Q75 457 110.5 527.5 Q146 598 197.5 642.5 Q249 687 312.5 710 Q376 733 447 733 Q571 733 642 659.5 Q713 586 713 451 Q713 419 706 367 Q686 238 634 159 Q582 80 500 39 L499 35 L631 -14 L585 -94 L367 -8 Q349 -12 325 -12 Q198 -12 125.5 59.5 Q53 131 53 271 Q53 313 61 367 Z M159 374 Q150 316 150 274 Q150 172 198.5 120.5 Q247 69 335 69 Q559 69 610 360 Q616 394 616 445 Q616 542 567 595 Q518 648 432 648 Q326 648 253.5 577 Q181 506 159 374 Z " />
<glyph glyph-name="R" unicode="R" horiz-adv-x="618" d="M147 720 L375 720 Q481 720 534.5 673 Q588 626 588 544 Q588 380 435 309 L539 0 L439 0 L344 286 Q310 280 271 280 L165 280 L118 0 L27 0 L147 720 Z M359 639 L225 639 L178 358 L305 358 Q401 358 447.5 403 Q494 448 494 531 Q494 639 359 639 Z " />
<glyph glyph-name="S" unicode="S" horiz-adv-x="568" d="M-2 99 L58 159 Q144 66 243 66 Q316 66 363 105 Q410 144 410 212 Q410 254 379 281 Q348 308 271 333 Q177 364 135 405 Q93 446 93 510 Q93 565 113 608 Q133 651 168.5 678 Q204 705 251 719 Q298 733 354 733 Q422 733 477 707 Q532 681 569 630 L510 573 Q480 613 437 634 Q394 655 347 655 Q275 655 232 623.5 Q189 592 189 534 Q189 513 196 496.5 Q203 480 213.5 468.5 Q224 457 246 445.5 Q268 434 287 426 Q306 418 341 405 Q429 373 468.5 332.5 Q508 292 508 223 Q508 119 432 53.5 Q356 -12 236 -12 Q160 -12 98 17.5 Q36 47 -2 99 Z " />
<glyph glyph-name="T" unicode="T" horiz-adv-x="562" d="M186 0 L292 636 L74 636 L88 720 L614 720 L600 636 L383 636 L277 0 L186 0 Z " />
<glyph glyph-name="U" unicode="U" horiz-adv-x="673" d="M142 720 L232 720 L158 276 Q153 241 153 219 Q153 145 191.5 107.5 Q230 70 301 70 Q393 70 441.5 121 Q490 172 507 276 L581 720 L671 720 L596 268 Q573 129 493.5 58.5 Q414 -12 284 -12 Q178 -12 119.5 39.5 Q61 91 61 195 Q61 229 67 268 L142 720 Z " />
<glyph glyph-name="V" unicode="V" horiz-adv-x="590" d="M191 0 L86 720 L179 720 L262 105 L554 720 L645 720 L297 0 L191 0 Z " />
<glyph glyph-name="W" unicode="W" horiz-adv-x="901" d="M150 0 L86 720 L177 720 L228 118 L478 720 L564 720 L614 118 L863 720 L955 720 L650 0 L550 0 L497 582 L253 0 L150 0 Z " />
<glyph glyph-name="X" unicode="X" horiz-adv-x="580" d="M-34 0 L247 368 L92 720 L192 720 L314 438 L528 720 L630 720 L352 361 L511 0 L407 0 L286 285 L70 0 L-34 0 Z " />
<glyph glyph-name="Y" unicode="Y" horiz-adv-x="571" d="M185 0 L235 301 L80 720 L179 720 L298 393 L525 720 L626 720 L326 301 L276 0 L185 0 Z " />
<glyph glyph-name="Z" unicode="Z" horiz-adv-x="576" d="M-15 0 L-5 61 L465 636 L116 636 L130 720 L612 720 L606 679 L117 83 L505 83 L491 0 L-15 0 Z " />
<glyph glyph-name="a" unicode="a" horiz-adv-x="584" d="M379 0 L385 71 Q354 38 308 13 Q262 -12 203 -12 Q117 -12 74.5 42.5 Q32 97 32 193 Q32 294 66 373 Q100 452 160 495 Q220 538 298 538 Q351 538 389.5 514 Q428 490 449 449 L467 525 L542 525 L454 0 L379 0 Z M393 151 L430 368 Q378 457 294 457 Q221 457 173 390.5 Q125 324 125 213 Q125 182 129.5 158 Q134 134 145 112.5 Q156 91 177 79.5 Q198 68 229 68 Q274 68 317.5 93 Q361 118 393 151 Z " />
<glyph glyph-name="b" unicode="b" horiz-adv-x="587" d="M170 371 L132 144 Q146 114 182 90.5 Q218 67 265 67 Q343 67 391.5 133 Q440 199 440 315 Q440 385 412.5 421.5 Q385 458 334 458 Q255 458 170 371 Z M93 0 L22 0 L142 720 L228 720 L184 453 Q264 537 365 537 Q446 537 489 483 Q532 429 532 331 Q532 273 522 222.5 Q512 172 490 129 Q468 86 436.5 54.5 Q405 23 359.5 5.5 Q314 -12 259 -12 Q202 -12 165 13 Q128 38 111 70 L93 0 Z " />
<glyph glyph-name="c" unicode="c" horiz-adv-x="516" d="M414 120 L442 60 Q348 -12 229 -12 Q139 -12 87.5 47.5 Q36 107 36 211 Q36 287 58 349 Q80 411 119 451.5 Q158 492 209.5 514.5 Q261 537 321 537 Q406 537 448.5 496.5 Q491 456 491 380 Q491 355 489 341 L408 341 Q408 344 408.5 350 Q409 356 409 358 Q409 410 385.5 434.5 Q362 459 313 459 Q231 459 179.5 393.5 Q128 328 128 219 Q128 149 159 106.5 Q190 64 251 64 Q293 64 329.5 77 Q366 90 414 120 Z " />
<glyph glyph-name="d" unicode="d" horiz-adv-x="584" d="M383 0 L389 71 Q358 38 312 13 Q266 -12 207 -12 Q121 -12 78.5 42.5 Q36 97 36 193 Q36 347 110 442 Q184 537 302 537 Q396 537 449 459 L492 720 L578 720 L458 0 L383 0 Z M397 151 L434 368 Q383 456 298 456 Q225 456 177 390 Q129 324 129 213 Q129 182 133.5 158 Q138 134 149 112.5 Q160 91 181 79.5 Q202 68 233 68 Q278 68 321.5 93 Q365 118 397 151 Z " />
<glyph glyph-name="e" unicode="e" horiz-adv-x="530" d="M415 117 L443 58 Q349 -12 233 -12 Q138 -12 86.5 41.5 Q35 95 35 199 Q35 297 73 374.5 Q111 452 175.5 494.5 Q240 537 324 537 Q404 537 445.5 496.5 Q487 456 487 392 Q487 330 453 289.5 Q419 249 339 226 Q259 203 122 197 Q122 173 128 151.5 Q134 130 147 109 Q160 88 187.5 75.5 Q215 63 253 63 Q329 63 415 117 Z M126 264 Q197 268 248.5 276.5 Q300 285 329 296.5 Q358 308 375 324 Q392 340 397 355.5 Q402 371 402 392 Q402 426 379 445 Q356 464 313 464 Q239 464 188 406.5 Q137 349 126 264 Z " />
<glyph glyph-name="f" unicode="f" horiz-adv-x="282" d="M42 0 L118 454 L57 454 L66 509 L129 521 L141 590 Q151 655 188 694 Q225 733 288 733 Q322 733 356 724 L340 657 Q319 664 295 664 Q270 664 251 648 Q232 632 227 595 L215 525 L309 525 L297 454 L203 454 L127 0 L42 0 Z " />
<glyph glyph-name="g" unicode="g" horiz-adv-x="581" d="M546 525 L461 18 Q450 -48 429.5 -92 Q409 -136 376 -162 Q343 -188 300.5 -199 Q258 -210 200 -210 Q151 -210 104.5 -201 Q58 -192 26 -177 L56 -104 Q134 -133 209 -133 Q293 -133 329 -97.5 Q365 -62 379 23 L387 72 Q351 35 304.5 13 Q258 -9 205 -9 Q121 -9 78.5 46 Q36 101 36 195 Q36 249 46.5 298.5 Q57 348 79 392 Q101 436 132.5 468 Q164 500 208 518.5 Q252 537 305 537 Q333 537 358.5 528.5 Q384 520 402 506 Q420 492 432 478 Q444 464 454 449 L472 525 L546 525 Z M396 144 L434 372 Q426 390 409.5 408 Q393 426 365 441.5 Q337 457 307 457 Q222 457 175 388.5 Q128 320 128 211 Q128 142 151 105.5 Q174 69 230 69 Q276 69 320 92 Q364 115 396 144 Z " />
<glyph glyph-name="h" unicode="h" horiz-adv-x="556" d="M142 720 L228 720 L184 452 Q271 537 365 537 Q495 537 495 402 Q495 379 490 344 L432 0 L345 0 L399 323 Q405 361 405 377 Q405 414 387.5 435 Q370 456 327 456 Q285 456 243 431.5 Q201 407 171 377 L108 0 L22 0 L142 720 Z " />
<glyph glyph-name="i" unicode="i" horiz-adv-x="241" d="M202 525 L114 0 L28 0 L116 525 L202 525 Z M126 659 Q126 685 146 701.5 Q166 718 192 718 Q214 718 226.5 706 Q239 694 239 674 Q239 648 220.5 632.5 Q202 617 175 617 Q153 617 139.5 628.5 Q126 640 126 659 Z " />
<glyph glyph-name="j" unicode="j" horiz-adv-x="240" d="M126 659 Q126 685 146 701.5 Q166 718 192 718 Q214 718 226.5 706 Q239 694 239 674 Q239 648 220.5 632.5 Q202 617 175 617 Q153 617 139.5 628.5 Q126 640 126 659 Z M201 525 L102 -68 Q91 -136 59 -169.5 Q27 -203 -37 -203 Q-83 -203 -108 -193 L-90 -126 Q-74 -132 -47 -132 Q-19 -132 -4 -117.5 Q11 -103 18 -61 L116 525 L201 525 Z " />
<glyph glyph-name="k" unicode="k" horiz-adv-x="510" d="M228 720 L163 329 L220 329 L410 525 L509 525 L285 293 L445 0 L343 0 L203 255 L151 255 L108 0 L22 0 L142 720 L228 720 Z " />
<glyph glyph-name="l" unicode="l" horiz-adv-x="232" d="M109 0 L23 0 L143 720 L229 720 L109 0 Z " />
<glyph glyph-name="m" unicode="m" horiz-adv-x="815" d="M110 525 L184 525 L177 449 Q261 537 351 537 Q449 537 461 450 Q503 490 546.5 513.5 Q590 537 641 537 Q754 537 754 421 Q754 397 749 364 L688 0 L602 0 L660 349 Q664 369 664 390 Q664 423 650 439.5 Q636 456 602 456 Q542 456 463 381 L399 0 L313 0 L371 346 Q375 368 375 389 Q375 456 315 456 Q251 456 171 379 L108 0 L22 0 L110 525 Z " />
<glyph glyph-name="n" unicode="n" horiz-adv-x="556" d="M110 525 L184 525 L177 448 Q217 488 264.5 512.5 Q312 537 362 537 Q495 537 495 402 Q495 379 490 344 L432 0 L345 0 L399 322 Q403 346 403 371 Q403 415 384.5 436 Q366 457 329 457 Q285 457 241 430.5 Q197 404 171 377 L108 0 L22 0 L110 525 Z " />
<glyph glyph-name="o" unicode="o" horiz-adv-x="574" d="M129 264 Q124 228 124 201 Q124 66 244 66 Q310 66 359.5 115 Q409 164 425 261 Q430 295 430 318 Q430 388 397 423.5 Q364 459 308 459 Q242 459 193.5 409.5 Q145 360 129 264 Z M37 260 Q56 393 134.5 465 Q213 537 324 537 Q418 537 470 482.5 Q522 428 522 328 Q522 291 517 262 Q503 170 461 107.5 Q419 45 361 16.5 Q303 -12 230 -12 Q134 -12 83 41.5 Q32 95 32 195 Q32 222 37 260 Z " />
<glyph glyph-name="p" unicode="p" horiz-adv-x="587" d="M170 372 L132 143 Q146 115 181 91.5 Q216 68 259 68 Q341 68 390 133.5 Q439 199 439 317 Q439 385 413 421.5 Q387 458 338 458 Q294 458 250 433 Q206 408 170 372 Z M75 -200 L-11 -200 L110 525 L184 525 L178 448 Q266 537 367 537 Q447 537 489.5 483.5 Q532 430 532 332 Q532 234 503 157.5 Q474 81 413 34.5 Q352 -12 266 -12 Q236 -12 209 -4.5 Q182 3 164.5 15.5 Q147 28 136 39 Q125 50 118 62 L75 -200 Z " />
<glyph glyph-name="q" unicode="q" horiz-adv-x="581" d="M338 -200 L382 63 Q301 -12 210 -12 Q122 -12 79 42 Q36 96 36 193 Q36 347 110.5 442 Q185 537 305 537 Q399 537 455 452 L477 525 L546 525 L425 -200 L338 -200 Z M396 142 L435 374 Q427 388 417 400 Q407 412 390.5 426 Q374 440 351 448.5 Q328 457 302 457 Q228 457 178.5 391 Q129 325 129 214 Q129 68 224 68 Q277 68 322.5 91 Q368 114 396 142 Z " />
<glyph glyph-name="r" unicode="r" horiz-adv-x="328" d="M181 525 L173 445 Q199 485 234 511 Q269 537 305 537 Q327 537 351 528 L328 442 Q314 448 285 448 Q254 448 222 422 Q190 396 169 363 L108 0 L22 0 L110 525 L181 525 Z " />
<glyph glyph-name="s" unicode="s" horiz-adv-x="480" d="M-9 73 L41 129 Q73 98 112.5 80 Q152 62 191 62 Q248 62 281 87 Q314 112 314 154 Q314 183 291.5 199 Q269 215 209 231 Q135 251 101 281.5 Q67 312 67 361 Q67 441 126.5 489 Q186 537 280 537 Q391 537 455 459 L406 406 Q349 466 271 466 Q219 466 189 443.5 Q159 421 159 382 Q159 353 183 337.5 Q207 322 269 304 Q343 284 376.5 253.5 Q410 223 410 174 Q410 90 347.5 39 Q285 -12 185 -12 Q123 -12 72.5 11.5 Q22 35 -9 73 Z " />
<glyph glyph-name="t" unicode="t" horiz-adv-x="299" d="M283 453 L200 453 L142 106 Q141 101 141 91 Q141 61 173 61 Q195 61 221 70 L220 5 Q176 -12 128 -12 Q52 -12 52 61 Q52 73 55 90 L116 453 L51 453 L60 508 L129 524 L163 670 L236 670 L212 525 L295 525 L283 453 Z " />
<glyph glyph-name="u" unicode="u" horiz-adv-x="546" d="M424 0 L352 0 L358 76 Q272 -12 180 -12 Q42 -12 42 118 Q42 142 47 173 L106 525 L193 525 L137 194 Q131 152 131 138 Q131 102 147.5 85 Q164 68 203 68 Q245 68 288 90.5 Q331 113 363 145 L427 525 L512 525 L424 0 Z " />
<glyph glyph-name="v" unicode="v" horiz-adv-x="487" d="M55 525 L144 525 L209 88 L423 525 L508 525 L243 0 L142 0 L55 525 Z " />
<glyph glyph-name="w" unicode="w" horiz-adv-x="726" d="M651 525 L737 525 L520 0 L428 0 L378 402 L198 0 L105 0 L64 525 L150 525 L173 103 L357 521 L440 521 L491 103 L651 525 Z " />
<glyph glyph-name="x" unicode="x" horiz-adv-x="491" d="M-31 0 L188 266 L61 525 L156 525 L249 325 L409 525 L502 525 L291 266 L421 0 L327 0 L230 208 L62 0 L-31 0 Z " />
<glyph glyph-name="y" unicode="y" horiz-adv-x="484" d="M411 525 L503 525 L231 -7 Q213 -41 205 -56.5 Q197 -72 183 -96.5 Q169 -121 161.5 -131.5 Q154 -142 141 -157 Q128 -172 117.5 -178 Q107 -184 92.5 -191 Q78 -198 62 -200 Q46 -202 27 -202 Q-16 -202 -59 -190 L-39 -127 Q-5 -135 28 -135 Q60 -135 83 -113 Q106 -91 136 -28 L150 0 L57 525 L148 525 L208 105 L411 525 Z " />
<glyph glyph-name="z" unicode="z" horiz-adv-x="439" d="M-11 0 L-2 56 L319 453 L71 453 L83 525 L443 525 L436 483 L104 70 L365 70 L353 0 L-11 0 Z " />
<glyph glyph-name="bracketleft" unicode="&#x5b;" horiz-adv-x="337" d="M202 -125 L14 -125 L155 720 L343 720 L332 649 L227 649 L109 -54 L214 -54 L202 -125 Z " />
<glyph glyph-name="bracketright" unicode="&#x5d;" horiz-adv-x="338" d="M181 -125 L-8 -125 L4 -54 L110 -54 L228 649 L122 649 L133 720 L322 720 L181 -125 Z " />
<glyph glyph-name="parenleft" unicode="&#x28;" horiz-adv-x="345" d="M298 734 L352 701 Q236 572 186.5 458 Q137 344 137 208 Q137 48 222 -92 L164 -129 Q111 -68 82.5 21 Q54 110 54 209 Q54 492 298 734 Z " />
<glyph glyph-name="parenright" unicode="&#x29;" horiz-adv-x="344" d="M47 -129 L-7 -96 Q109 33 158.5 146.5 Q208 260 208 397 Q208 557 123 697 L181 734 Q234 673 262.5 584 Q291 495 291 396 Q291 113 47 -129 Z " />
<glyph glyph-name="braceleft" unicode="&#x7b;" horiz-adv-x="363" d="M397 651 L357 651 Q315 651 294.5 623 Q274 595 264 533 L243 405 Q235 354 213.5 325 Q192 296 143 284 Q178 278 192 258.5 Q206 239 206 206 Q206 183 199 143 L183 50 Q178 22 178 5 Q178 -27 193 -41.5 Q208 -56 246 -56 L279 -56 L267 -125 L230 -125 Q154 -125 122.5 -102 Q91 -79 91 -24 Q91 -4 96 30 L116 147 Q120 177 120 187 Q120 218 105 232.5 Q90 247 55 247 L25 247 L37 319 L65 319 Q90 319 106.5 325.5 Q123 332 134.5 348 Q146 364 152.5 385.5 Q159 407 165 442 L181 539 Q198 638 239 679 Q280 720 370 720 L408 720 L397 651 Z " />
<glyph glyph-name="braceright" unicode="&#x7d;" horiz-adv-x="355" d="M122 651 L82 651 L92 720 L131 720 Q205 720 235.5 693.5 Q266 667 266 607 Q266 577 260 539 L245 442 Q239 406 239 382 Q239 348 253.5 333.5 Q268 319 303 319 L331 319 L320 247 L289 247 Q245 247 224.5 223 Q204 199 196 147 L176 30 Q162 -57 122.5 -91 Q83 -125 -8 -125 L-45 -125 L-33 -56 L0 -56 Q48 -56 67.5 -31.5 Q87 -7 95 50 L111 143 Q115 165 118 178.5 Q121 192 126.5 209 Q132 226 139 237 Q146 248 156 258 Q166 268 180 274.5 Q194 281 213 284 Q179 294 164.5 313 Q150 332 150 362 Q150 378 155 405 L175 533 Q180 568 180 587 Q180 619 167 635 Q154 651 122 651 Z " />
<glyph glyph-name="backslash" unicode="&#x5c;" horiz-adv-x="400" d="M130 739 L367 -92 L294 -92 L55 739 L130 739 Z " />
<glyph glyph-name="slash" unicode="&#x2f;" horiz-adv-x="364" d="M-44 -92 L332 739 L407 739 L29 -92 L-44 -92 Z " />
<glyph glyph-name="brokenbar" unicode="&#xa6;" horiz-adv-x="500" d="M288 208 L288 -200 L212 -200 L212 208 L288 208 Z M288 720 L288 312 L212 312 L212 720 L288 720 Z " />
<glyph glyph-name="bar" unicode="&#x7c;" horiz-adv-x="500" d="M288 720 L288 -200 L212 -200 L212 720 L288 720 Z " />
<glyph glyph-name="asciicircum" unicode="&#x5e;" horiz-adv-x="676" d="M436 693 L622 447 L569 407 L394 631 L143 407 L103 451 L371 693 L436 693 Z " />
<glyph glyph-name="underscore" unicode="&#x5f;" horiz-adv-x="480" d="M-90 -226 L-79 -161 L404 -161 L393 -226 L-90 -226 Z " />
<glyph glyph-name="asciitilde" unicode="&#x7e;" horiz-adv-x="761" d="M681 346 L717 283 Q593 185 492 185 Q459 185 423.5 196 Q388 207 362 220.5 Q336 234 302.5 245 Q269 256 241 256 Q209 256 177.5 245.5 Q146 235 125.5 223 Q105 211 69 187 L36 254 Q162 347 262 347 Q292 347 326 335.5 Q360 324 386.5 310.5 Q413 297 445 285.5 Q477 274 502 274 Q544 274 585.5 291.5 Q627 309 681 346 Z " />
<glyph glyph-name="zero" unicode="0" horiz-adv-x="588" d="M149 353 Q138 289 138 230 Q138 65 251 65 Q326 65 374 134.5 Q422 204 447 355 Q459 429 459 481 Q459 563 430.5 601 Q402 639 345 639 Q270 639 221.5 571 Q173 503 149 353 Z M62 353 Q118 720 359 720 Q452 720 499.5 663 Q547 606 547 486 Q547 432 536 357 Q480 -12 242 -12 Q51 -12 51 223 Q51 277 62 353 Z " />
<glyph glyph-name="one" unicode="1" horiz-adv-x="456" d="M176 74 L262 586 Q179 538 89 523 L87 588 Q141 602 201.5 635 Q262 668 305 709 L367 709 L260 74 L394 74 L382 0 L12 0 L24 74 L176 74 Z " />
<glyph glyph-name="two" unicode="2" horiz-adv-x="500" d="M-14 0 L-4 60 L305 384 Q356 438 375 472 Q394 506 394 545 Q394 587 366.5 613 Q339 639 290 639 Q214 639 115 561 L78 620 Q194 720 317 720 Q389 720 436 679 Q483 638 483 568 Q483 544 482 531 Q481 518 475.5 496.5 Q470 475 458.5 456 Q447 437 425.5 409.5 Q404 382 373 349 L112 78 L409 78 L396 0 L-14 0 Z " />
<glyph glyph-name="three" unicode="3" horiz-adv-x="511" d="M-18 84 L33 139 Q68 103 107 83.5 Q146 64 197 64 Q267 64 314 104 Q361 144 361 218 Q361 326 229 328 Q195 328 177 325 L187 399 Q236 400 280.5 420 Q325 440 353.5 476 Q382 512 382 556 Q382 598 355 620 Q328 642 284 642 Q212 642 128 592 L103 651 Q203 720 309 720 Q381 720 424.5 682 Q468 644 468 578 Q468 510 423 455 Q378 400 308 374 Q376 368 410 328.5 Q444 289 444 226 Q444 170 423 124 Q402 78 366 49 Q330 20 284 4 Q238 -12 188 -12 Q53 -12 -18 84 Z " />
<glyph glyph-name="four" unicode="4" horiz-adv-x="537" d="M111 241 L339 241 L403 621 L111 241 Z M299 0 L326 164 L8 164 L20 235 L388 709 L503 709 L424 241 L503 241 L490 164 L411 164 L384 0 L299 0 Z " />
<glyph glyph-name="five" unicode="5" horiz-adv-x="522" d="M54 260 L163 709 L500 709 L481 626 L221 626 L164 394 Q226 446 310 446 Q386 446 426 402 Q466 358 466 279 Q466 191 428 123.5 Q390 56 327 22 Q264 -12 187 -12 Q136 -12 85 5 Q34 22 -3 56 L41 118 Q111 66 196 66 Q278 66 327 117 Q376 168 376 260 Q376 312 349.5 341.5 Q323 371 269 371 Q233 371 199.5 355.5 Q166 340 146 320 L131 260 L54 260 Z " />
<glyph glyph-name="six" unicode="6" horiz-adv-x="534" d="M48 302 Q59 389 81 459 Q103 529 132.5 577.5 Q162 626 200.5 658 Q239 690 281.5 705 Q324 720 372 720 Q464 720 521 662 L475 603 Q425 645 363 645 Q317 645 278.5 622.5 Q240 600 214 559 Q188 518 170 471 Q152 424 139 366 Q227 442 320 442 Q397 442 436 396 Q475 350 475 270 Q475 248 472 224 Q456 102 390.5 45 Q325 -12 224 -12 Q132 -12 87 47.5 Q42 107 42 217 Q42 257 48 302 Z M388 217 Q391 238 391 256 Q391 312 363.5 339 Q336 366 289 366 Q215 366 128 290 Q123 254 123 213 Q123 133 151.5 96.5 Q180 60 236 60 Q292 60 334 99.5 Q376 139 388 217 Z " />
<glyph glyph-name="seven" unicode="7" horiz-adv-x="442" d="M486 649 L123 0 L33 0 L35 11 L382 626 L72 626 L86 709 L496 709 L486 649 Z " />
<glyph glyph-name="eight" unicode="8" horiz-adv-x="524" d="M101 162 Q101 116 131.5 89.5 Q162 63 218 63 Q287 63 332.5 104.5 Q378 146 378 208 Q378 300 258 344 Q224 328 199 312 Q174 296 150 274 Q126 252 113.5 224 Q101 196 101 162 Z M193 536 Q193 495 219.5 465.5 Q246 436 289 419 Q311 429 332.5 443 Q354 457 374 476 Q394 495 406 519.5 Q418 544 418 570 Q418 608 392 629 Q366 650 321 650 Q265 650 229 618.5 Q193 587 193 536 Z M12 147 Q12 189 28 227.5 Q44 266 71 295 Q98 324 130 346 Q162 368 198 382 Q155 401 130.5 436.5 Q106 472 106 520 Q106 608 170 664 Q234 720 333 720 Q409 720 454.5 683 Q500 646 500 583 Q500 520 458 468 Q416 416 351 386 Q466 328 466 222 Q466 117 393 52.5 Q320 -12 204 -12 Q114 -12 63 30.5 Q12 73 12 147 Z " />
<glyph glyph-name="nine" unicode="9" horiz-adv-x="526" d="M498 491 Q498 384 476 291.5 Q454 199 413 131.5 Q372 64 312 26 Q252 -12 181 -12 Q81 -12 18 42 L62 102 Q116 59 180 59 Q214 59 246 74.5 Q278 90 302.5 116.5 Q327 143 347.5 179 Q368 215 382 256.5 Q396 298 403 342 Q364 305 315 285 Q266 265 215 265 Q141 265 102 314 Q63 363 63 441 Q63 566 135.5 643 Q208 720 318 720 Q408 720 453 659.5 Q498 599 498 491 Z M305 643 Q240 643 193.5 593.5 Q147 544 147 455 Q147 397 172.5 367.5 Q198 338 243 338 Q288 338 335 362 Q382 386 408 420 Q412 450 412 485 Q412 562 385 602.5 Q358 643 305 643 Z " />
<glyph glyph-name="dollar" unicode="&#x24;" horiz-adv-x="510" d="M154 -87 L169 0 Q109 5 63 32.5 Q17 60 -13 100 L40 152 Q114 70 205 70 Q271 70 315 104 Q359 138 359 198 Q359 236 330.5 262 Q302 288 230 312 Q148 338 111 376 Q74 414 74 474 Q74 562 133 617 Q192 672 283 681 L297 765 L371 765 L357 680 Q405 672 443.5 649 Q482 626 506 589 L453 541 Q424 575 386 594 Q348 613 307 613 Q243 613 202 582.5 Q161 552 161 496 Q161 454 192.5 429.5 Q224 405 296 381 Q374 354 410.5 314 Q447 274 447 216 Q447 130 389.5 72.5 Q332 15 243 1 L228 -87 L154 -87 Z " />
<glyph glyph-name="Euro" unicode="&#x20ac;" horiz-adv-x="592" d="M19 388 L35 452 L105 452 Q121 504 150.5 551 Q180 598 220 636 Q260 674 313 697 Q366 720 424 720 Q454 720 481.5 714 Q509 708 536 694.5 Q563 681 586.5 657.5 Q610 634 625 602 L569 559 Q541 601 501 624.5 Q461 648 412 648 Q337 648 279.5 595 Q222 542 190 452 L503 452 L487 388 L172 388 Q170 380 166 356 Q161 326 160 309 L468 309 L452 245 L158 245 Q164 159 205 111 Q246 63 316 63 Q370 63 414.5 82 Q459 101 504 137 L538 88 Q480 37 421 12.5 Q362 -12 293 -12 Q239 -12 196.5 8 Q154 28 127 63 Q100 98 86.5 144 Q73 190 72 245 L-15 245 L0 309 L75 309 Q75 325 80 355 Q82 361 84 371.5 Q86 382 87 388 L19 388 Z " />
<glyph glyph-name="cent" unicode="&#xa2;" horiz-adv-x="512" d="M433 209 L458 151 Q384 94 303 82 L286 -18 L209 -18 L225 79 Q147 87 102.5 145 Q58 203 58 298 Q58 436 131.5 524 Q205 612 317 623 L333 720 L409 720 L393 619 Q451 607 481.5 567.5 Q512 528 512 463 Q512 453 510 429 L432 429 Q432 432 432.5 437 Q433 442 433 445 Q433 545 334 545 Q250 545 200 482.5 Q150 420 150 311 Q150 241 181.5 198.5 Q213 156 274 156 Q318 156 354 168.5 Q390 181 433 209 Z " />
<glyph glyph-name="sterling" unicode="&#xa3;" horiz-adv-x="503" d="M232 249 Q232 199 208 159.5 Q184 120 141 78 L421 78 L408 0 L-8 0 L4 71 L54 76 Q96 116 122.5 156.5 Q149 197 149 241 Q149 274 139 319 L47 319 L58 384 L126 384 Q102 456 102 507 Q102 569 136 618.5 Q170 668 224.5 694 Q279 720 342 720 Q400 720 448 698 Q496 676 523 634 L467 581 Q418 643 337 643 Q271 643 231 608.5 Q191 574 191 514 Q191 468 216 384 L368 384 L357 319 L224 319 Q232 292 232 249 Z " />
<glyph glyph-name="yen" unicode="&#xa5;" horiz-adv-x="561" d="M52 324 L63 389 L226 389 L101 709 L194 709 L300 415 L509 709 L598 709 L363 389 L531 389 L520 324 L324 324 L310 240 L506 240 L495 175 L299 175 L270 0 L189 0 L218 175 L27 175 L38 240 L229 240 L243 324 L52 324 Z " />
<glyph glyph-name="florin" unicode="&#x192;" horiz-adv-x="431" d="M-36 -134 L4 -134 Q34 -134 52 -111 Q70 -88 81 -40 L160 339 L82 339 L82 402 L173 402 L203 551 Q209 579 214.5 599.5 Q220 620 231 642 Q242 664 257 678 Q272 692 295.5 700.5 Q319 709 349 709 L414 709 L414 641 L363 641 Q353 641 345 639 Q337 637 331 634.5 Q325 632 319.5 625.5 Q314 619 310 615 Q306 611 302 600.5 Q298 590 296 584.5 Q294 579 290.5 564.5 Q287 550 285.5 544 Q284 538 281 521 L256 402 L349 402 L349 339 L244 339 L184 52 Q160 -62 149 -95 Q126 -162 86 -185 Q59 -200 18 -200 L-36 -200 L-36 -134 Z " />
<glyph glyph-name="section" unicode="&#xa7;" horiz-adv-x="511" d="M35 68 L83 116 Q146 53 223 53 Q267 53 296 73 Q325 93 325 132 Q325 144 319.5 154 Q314 164 306 171 Q298 178 283 185 Q268 192 257 196 Q246 200 226 206 Q208 212 198 215.5 Q188 219 171 226 Q154 233 144 238.5 Q134 244 122 254 Q110 264 103.5 274 Q97 284 92.5 298.5 Q88 313 88 329 Q88 379 122.5 417 Q157 455 225 470 Q177 486 155 514 Q133 542 133 575 Q133 606 145.5 634 Q158 662 181.5 684 Q205 706 244 719.5 Q283 733 332 733 Q384 733 425 713.5 Q466 694 492 664 L446 618 Q383 670 323 670 Q296 670 274 662.5 Q252 655 236 636.5 Q220 618 220 590 Q220 563 239 546 Q258 529 299 514 Q385 484 418.5 456.5 Q452 429 452 388 Q452 358 440 333.5 Q428 309 408 292.5 Q388 276 366.5 265 Q345 254 321 247 Q367 228 387.5 203 Q408 178 408 145 Q408 77 351.5 32.5 Q295 -12 212 -12 Q160 -12 111.5 9 Q63 30 35 68 Z M271 440 Q229 431 198.5 409 Q168 387 168 351 Q168 331 184 316.5 Q200 302 219.5 294 Q239 286 268 278 Q369 311 369 371 Q369 383 363.5 392.5 Q358 402 351 408 Q344 414 328 420.5 Q312 427 302.5 430.5 Q293 434 271 440 Z " />
<glyph glyph-name="copyright" unicode="&#xa9;" horiz-adv-x="820" d="M532 255 L558 223 Q499 162 414 162 Q334 162 292 216.5 Q250 271 250 361 Q250 447 294.5 502.5 Q339 558 419 558 Q479 558 517.5 524.5 Q556 491 557 429 L508 429 Q500 512 417 512 Q363 512 334 471.5 Q305 431 305 363 Q305 284 335 246 Q365 208 419 208 Q480 208 532 255 Z M415 677 Q327 677 255.5 635.5 Q184 594 143.5 521.5 Q103 449 103 360 Q103 284 127.5 223 Q152 162 195.5 123 Q239 84 295 64 Q351 44 415 44 Q463 44 509.5 59 Q556 74 595.5 103 Q635 132 665 170 Q695 208 712 257.5 Q729 307 729 360 Q729 452 688.5 524.5 Q648 597 576.5 637 Q505 677 415 677 Z M415 720 Q575 720 675 621 Q775 522 775 364 Q775 287 745.5 218.5 Q716 150 667 103 Q618 56 552 28 Q486 0 415 0 Q357 0 303.5 14 Q250 28 205 58 Q160 88 126.5 130 Q93 172 74 231 Q55 290 55 360 Q55 462 103 545 Q151 628 233 674 Q315 720 415 720 Z " />
<glyph glyph-name="registered" unicode="&#xae;" horiz-adv-x="421" d="M183 637 L252 637 Q317 637 317 582 Q317 550 285 534 L326 461 L294 461 L257 528 Q252 527 239 527 L212 527 L212 461 L183 461 L183 637 Z M246 612 L212 612 L212 550 L244 550 Q266 550 276 558 Q286 566 286 583 Q286 612 246 612 Z M247 691 Q187 691 146.5 650.5 Q106 610 106 548 Q106 480 145 442.5 Q184 405 247 405 Q303 405 345.5 446.5 Q388 488 388 548 Q388 612 349 651.5 Q310 691 247 691 Z M247 725 Q326 725 375 676.5 Q424 628 424 548 Q424 474 372 422.5 Q320 371 247 371 Q169 371 120 418 Q71 465 71 548 Q71 624 122 674.5 Q173 725 247 725 Z " />
<glyph glyph-name="trademark" unicode="&#x2122;" horiz-adv-x="620" d="M618 460 L575 460 L556 649 L483 460 L450 460 L380 649 L361 460 L317 460 L345 720 L396 720 L468 525 L540 720 L588 720 L618 460 Z M155 460 L155 677 L70 677 L70 720 L286 720 L286 677 L200 677 L200 460 L155 460 Z " />
<glyph glyph-name="ordfeminine" unicode="&#xaa;" horiz-adv-x="473" d="M324 261 L328 306 Q306 284 273 268 Q240 252 201 252 Q137 252 105 292 Q73 332 73 402 Q73 516 127.5 585.5 Q182 655 270 655 Q344 655 377 600 L388 647 L450 647 L386 261 L324 261 Z M334 374 L361 531 Q325 590 266 590 Q215 590 181.5 543 Q148 496 148 418 Q148 374 167 345 Q186 316 227 316 Q276 316 334 374 Z " />
<glyph glyph-name="ordmasculine" unicode="&#xba;" horiz-adv-x="470" d="M154 422 Q154 372 177 346.5 Q200 321 239 321 Q295 321 332 363.5 Q369 406 369 486 Q369 538 345.5 564 Q322 590 284 590 Q227 590 190.5 547 Q154 504 154 422 Z M79 414 Q79 524 140.5 590 Q202 656 295 656 Q363 656 403 613.5 Q443 571 443 494 Q443 440 425.5 394 Q408 348 379 318 Q350 288 311 271.5 Q272 255 228 255 Q158 255 118.5 296.5 Q79 338 79 414 Z " />
<glyph glyph-name="guillemotleft" unicode="&#xab;" horiz-adv-x="473" d="M350 262 L434 145 L379 100 L254 245 L260 280 L432 423 L473 378 L350 262 Z M139 262 L223 145 L168 100 L43 245 L49 280 L221 423 L262 378 L139 262 Z " />
<glyph glyph-name="guillemotright" unicode="&#xbb;" horiz-adv-x="475" d="M123 261 L39 378 L94 423 L219 278 L213 243 L41 100 L0 145 L123 261 Z M336 261 L252 378 L307 423 L432 278 L426 243 L254 100 L213 145 L336 261 Z " />
<glyph glyph-name="guilsinglleft" unicode="&#x2039;" horiz-adv-x="262" d="M139 262 L223 145 L168 100 L43 245 L49 280 L221 423 L262 378 L139 262 Z " />
<glyph glyph-name="guilsinglright" unicode="&#x203a;" horiz-adv-x="262" d="M123 261 L39 378 L94 423 L219 278 L213 243 L41 100 L0 145 L123 261 Z " />
<glyph glyph-name="quoteleft" unicode="&#x2018;" horiz-adv-x="203" d="M211 597 Q211 570 192.5 553 Q174 536 143 536 Q119 536 106 552 Q93 568 93 593 Q93 642 120.5 682 Q148 722 218 753 L230 719 Q192 699 177.5 681.5 Q163 664 157 639 Q159 639 161.5 639.5 Q164 640 166 640 Q186 640 198.5 628 Q211 616 211 597 Z " />
<glyph glyph-name="quoteright" unicode="&#x2019;" horiz-adv-x="203" d="M103 660 Q103 687 121.5 704 Q140 721 171 721 Q195 721 208 705.5 Q221 690 221 664 Q221 615 193.5 575 Q166 535 96 504 L84 538 Q122 558 136.5 575 Q151 592 157 618 Q155 618 152.5 617.5 Q150 617 148 617 Q128 617 115.5 629 Q103 641 103 660 Z " />
<glyph glyph-name="quotesinglbase" unicode="&#x201a;" horiz-adv-x="203" d="M12 22 Q12 49 30.5 66 Q49 83 80 83 Q104 83 117 67.5 Q130 52 130 26 Q130 -23 102.5 -63 Q75 -103 5 -134 L-7 -100 Q31 -80 45.5 -63 Q60 -46 66 -20 Q64 -20 61.5 -20.5 Q59 -21 57 -21 Q37 -21 24.5 -9 Q12 3 12 22 Z " />
<glyph glyph-name="quotedblleft" unicode="&#x201c;" horiz-adv-x="360" d="M211 597 Q211 570 192.5 553 Q174 536 143 536 Q119 536 106 552 Q93 568 93 593 Q93 642 120.5 682 Q148 722 218 753 L230 719 Q192 699 177.5 681.5 Q163 664 157 639 Q159 639 161.5 639.5 Q164 640 166 640 Q186 640 198.5 628 Q211 616 211 597 Z M368 597 Q368 570 349.5 553 Q331 536 300 536 Q276 536 263 552 Q250 568 250 593 Q250 642 277.5 682 Q305 722 375 753 L387 719 Q349 699 334.5 681.5 Q320 664 314 639 Q316 639 318.5 639.5 Q321 640 323 640 Q343 640 355.5 628 Q368 616 368 597 Z " />
<glyph glyph-name="quotedblright" unicode="&#x201d;" horiz-adv-x="360" d="M103 660 Q103 687 121.5 704 Q140 721 171 721 Q195 721 208 705.5 Q221 690 221 664 Q221 615 193.5 575 Q166 535 96 504 L84 538 Q122 558 136.5 575 Q151 592 157 618 Q155 618 152.5 617.5 Q150 617 148 617 Q128 617 115.5 629 Q103 641 103 660 Z M260 660 Q260 687 278.5 704 Q297 721 328 721 Q352 721 365 705.5 Q378 690 378 664 Q378 615 350.5 575 Q323 535 253 504 L241 538 Q279 558 293.5 575 Q308 592 314 618 Q312 618 309.5 617.5 Q307 617 305 617 Q285 617 272.5 629 Q260 641 260 660 Z " />
<glyph glyph-name="quotedblbase" unicode="&#x201e;" horiz-adv-x="356" d="M12 22 Q12 49 30.5 66 Q49 83 80 83 Q104 83 117 67.5 Q130 52 130 26 Q130 -23 102.5 -63 Q75 -103 5 -134 L-7 -100 Q31 -80 45.5 -63 Q60 -46 66 -20 Q64 -20 61.5 -20.5 Q59 -21 57 -21 Q37 -21 24.5 -9 Q12 3 12 22 Z M165 22 Q165 49 183.5 66 Q202 83 233 83 Q257 83 270 67.5 Q283 52 283 26 Q283 -23 255.5 -63 Q228 -103 158 -134 L146 -100 Q184 -80 198.5 -63 Q213 -46 219 -20 Q217 -20 214.5 -20.5 Q212 -21 210 -21 Q190 -21 177.5 -9 Q165 3 165 22 Z " />
<glyph glyph-name="dagger" unicode="&#x2020;" horiz-adv-x="490" d="M217 -105 L137 -105 L229 441 L66 441 L78 513 L241 513 L275 719 L355 719 L321 513 L484 513 L472 441 L309 441 L217 -105 Z " />
<glyph glyph-name="daggerdbl" unicode="&#x2021;" horiz-adv-x="489" d="M216 -105 L137 -105 L172 99 L9 99 L21 171 L184 171 L229 441 L66 441 L78 513 L241 513 L275 719 L354 719 L320 513 L483 513 L471 441 L308 441 L263 171 L426 171 L414 99 L251 99 L216 -105 Z " />
<glyph glyph-name="bullet" unicode="&#x2022;" horiz-adv-x="500" d="M253 430 Q301 430 336 396.5 Q371 363 371 312 Q371 261 336.5 227 Q302 193 252 193 Q202 193 168 227.5 Q134 262 134 312 Q134 362 169 396 Q204 430 253 430 Z " />
<glyph glyph-name="ellipsis" unicode="&#x2026;" horiz-adv-x="776" d="M22 46 Q22 76 40 92 Q58 108 88 108 Q116 108 134 92 Q152 76 152 48 Q152 20 134 4 Q116 -12 88 -12 Q58 -12 40 4 Q22 20 22 46 Z M558 46 Q558 76 576 92 Q594 108 624 108 Q652 108 670 92 Q688 76 688 48 Q688 20 670 4 Q652 -12 624 -12 Q594 -12 576 4 Q558 20 558 46 Z M290 46 Q290 76 308 92 Q326 108 356 108 Q384 108 402 92 Q420 76 420 48 Q420 20 402 4 Q384 -12 356 -12 Q326 -12 308 4 Q290 20 290 46 Z " />
<glyph glyph-name="paragraph" unicode="&#xb6;" horiz-adv-x="535" d="M528 720 L408 0 L332 0 L443 665 L359 665 L248 0 L173 0 L233 361 Q157 363 118 402.5 Q79 442 79 508 Q79 602 144.5 661 Q210 720 311 720 L528 720 Z " />
<glyph glyph-name="periodcentered" unicode="&#xb7;" horiz-adv-x="280" d="M75 334 Q75 364 93 380 Q111 396 141 396 Q169 396 187 380 Q205 364 205 336 Q205 308 187 292 Q169 276 141 276 Q111 276 93 292 Q75 308 75 334 Z " />
<glyph glyph-name="uni00AD" unicode="&#xad;" horiz-adv-x="325" d="M16 229 L31 316 L292 316 L277 229 L16 229 Z " />
<glyph glyph-name="endash" unicode="&#x2013;" horiz-adv-x="500" d="M-7 234 L4 298 L492 298 L481 234 L-7 234 Z " />
<glyph glyph-name="emdash" unicode="&#x2014;" horiz-adv-x="1000" d="M1 234 L12 298 L987 298 L976 234 L1 234 Z " />
<glyph glyph-name="Agrave" unicode="&#xc0;" horiz-adv-x="636" d="M338 720 L435 720 L569 0 L473 0 L436 193 L162 193 L63 0 L-33 0 L338 720 Z M203 278 L426 278 L369 612 L203 278 Z M354 915 L503 812 L462 754 L303 839 L354 915 Z " />
<glyph glyph-name="Aacute" unicode="&#xc1;" horiz-adv-x="636" d="M338 720 L435 720 L569 0 L473 0 L436 193 L162 193 L63 0 L-33 0 L338 720 Z M203 278 L426 278 L369 612 L203 278 Z M319 812 L502 915 L527 839 L341 754 L319 812 Z " />
<glyph glyph-name="Acircumflex" unicode="&#xc2;" horiz-adv-x="636" d="M338 720 L435 720 L569 0 L473 0 L436 193 L162 193 L63 0 L-33 0 L338 720 Z M203 278 L426 278 L369 612 L203 278 Z M383 909 L444 909 L525 798 L481 761 L401 838 L294 761 L262 798 L383 909 Z " />
<glyph glyph-name="Atilde" unicode="&#xc3;" horiz-adv-x="636" d="M338 720 L435 720 L569 0 L473 0 L436 193 L162 193 L63 0 L-33 0 L338 720 Z M203 278 L426 278 L369 612 L203 278 Z M502 883 L546 866 Q524 819 501 799.5 Q478 780 447 780 Q423 780 383 796 Q343 812 331 812 Q319 812 309.5 805 Q300 798 285 777 L242 796 Q269 842 290.5 861 Q312 880 338 880 Q361 880 398.5 864 Q436 848 455 848 Q470 848 479 855 Q488 862 502 883 Z " />
<glyph glyph-name="Adieresis" unicode="&#xc4;" horiz-adv-x="636" d="M338 720 L435 720 L569 0 L473 0 L436 193 L162 193 L63 0 L-33 0 L338 720 Z M203 278 L426 278 L369 612 L203 278 Z M437 818 Q437 842 455 858 Q473 874 499 874 Q520 874 531.5 863 Q543 852 543 833 Q543 810 525.5 793.5 Q508 777 483 777 Q461 777 449 788.5 Q437 800 437 818 Z M244 818 Q244 842 262 858 Q280 874 305 874 Q326 874 337.5 863 Q349 852 349 833 Q349 810 331.5 793.5 Q314 777 290 777 Q268 777 256 788.5 Q244 800 244 818 Z " />
<glyph glyph-name="Aring" unicode="&#xc5;" horiz-adv-x="636" d="M304 780 Q304 825 336.5 855.5 Q369 886 414 886 Q450 886 472 865.5 Q494 845 494 811 Q494 781 478 757 Q462 733 435 719 L569 0 L473 0 L436 193 L162 193 L63 0 L-33 0 L337 718 Q304 736 304 780 Z M203 278 L426 278 L369 612 L203 278 Z M359 788 Q359 773 368 765 Q377 757 393 757 Q413 757 426 770.5 Q439 784 439 805 Q439 835 406 835 Q385 835 372 822 Q359 809 359 788 Z " />
<glyph glyph-name="AE" unicode="&#xc6;" horiz-adv-x="963" d="M411 0 L446 207 L213 207 L69 0 L-35 0 L459 720 L977 720 L963 636 L608 636 L570 408 L894 408 L880 324 L556 324 L516 83 L879 83 L865 0 L411 0 Z M261 287 L459 287 L518 641 L502 641 L261 287 Z " />
<glyph glyph-name="Ccedilla" unicode="&#xc7;" horiz-adv-x="643" d="M186 -199 L206 -151 Q235 -163 264 -163 Q312 -163 312 -126 Q312 -111 298.5 -105.5 Q285 -100 256 -100 L234 -100 L268 -11 Q224 -7 188.5 9.5 Q153 26 128 52 Q103 78 86 113 Q69 148 61 189 Q53 230 53 277 Q53 349 68.5 416.5 Q84 484 116 541.5 Q148 599 193 641.5 Q238 684 299 708.5 Q360 733 430 733 Q530 733 586 686 Q642 639 642 548 Q642 526 639 502 L550 502 Q551 510 551 527 Q551 583 518.5 615.5 Q486 648 415 648 Q335 648 274.5 601.5 Q214 555 182.5 473.5 Q151 392 151 289 Q151 182 195.5 126.5 Q240 71 321 71 Q383 71 431.5 94.5 Q480 118 532 159 L572 97 Q457 -4 321 -11 L307 -55 Q382 -59 382 -117 Q382 -165 350 -190 Q318 -215 262 -215 Q218 -215 186 -199 Z " />
<glyph glyph-name="Egrave" unicode="&#xc8;" horiz-adv-x="578" d="M27 0 L147 720 L593 720 L579 636 L224 636 L186 408 L509 408 L495 324 L172 324 L132 83 L494 83 L480 0 L27 0 Z M306 915 L455 812 L414 754 L255 839 L306 915 Z " />
<glyph glyph-name="Eacute" unicode="&#xc9;" horiz-adv-x="578" d="M27 0 L147 720 L593 720 L579 636 L224 636 L186 408 L509 408 L495 324 L172 324 L132 83 L494 83 L480 0 L27 0 Z M299 812 L482 915 L507 839 L321 754 L299 812 Z " />
<glyph glyph-name="Ecircumflex" unicode="&#xca;" horiz-adv-x="578" d="M27 0 L147 720 L593 720 L579 636 L224 636 L186 408 L509 408 L495 324 L172 324 L132 83 L494 83 L480 0 L27 0 Z M350 909 L411 909 L492 798 L448 761 L368 838 L261 761 L229 798 L350 909 Z " />
<glyph glyph-name="Edieresis" unicode="&#xcb;" horiz-adv-x="578" d="M27 0 L147 720 L593 720 L579 636 L224 636 L186 408 L509 408 L495 324 L172 324 L132 83 L494 83 L480 0 L27 0 Z M399 818 Q399 842 417 858 Q435 874 461 874 Q482 874 493.5 863 Q505 852 505 833 Q505 810 487.5 793.5 Q470 777 445 777 Q423 777 411 788.5 Q399 800 399 818 Z M206 818 Q206 842 224 858 Q242 874 267 874 Q288 874 299.5 863 Q311 852 311 833 Q311 810 293.5 793.5 Q276 777 252 777 Q230 777 218 788.5 Q206 800 206 818 Z " />
<glyph glyph-name="Igrave" unicode="&#xcc;" horiz-adv-x="245" d="M27 0 L147 720 L238 720 L118 0 L27 0 Z M137 915 L286 812 L245 754 L86 839 L137 915 Z " />
<glyph glyph-name="Iacute" unicode="&#xcd;" horiz-adv-x="245" d="M27 0 L147 720 L238 720 L118 0 L27 0 Z M102 812 L285 915 L310 839 L124 754 L102 812 Z " />
<glyph glyph-name="Icircumflex" unicode="&#xce;" horiz-adv-x="245" d="M27 0 L147 720 L238 720 L118 0 L27 0 Z M198 909 L259 909 L340 798 L296 761 L216 838 L109 761 L77 798 L198 909 Z " />
<glyph glyph-name="Idieresis" unicode="&#xcf;" horiz-adv-x="245" d="M27 0 L147 720 L238 720 L118 0 L27 0 Z M257 818 Q257 842 275 858 Q293 874 319 874 Q340 874 351.5 863 Q363 852 363 833 Q363 810 345.5 793.5 Q328 777 303 777 Q281 777 269 788.5 Q257 800 257 818 Z M64 818 Q64 842 82 858 Q100 874 125 874 Q146 874 157.5 863 Q169 852 169 833 Q169 810 151.5 793.5 Q134 777 110 777 Q88 777 76 788.5 Q64 800 64 818 Z " />
<glyph glyph-name="Eth" unicode="&#xd0;" horiz-adv-x="703" d="M33 328 L46 406 L118 406 L170 720 L375 720 Q521 720 595.5 649 Q670 578 670 439 Q670 217 563.5 108.5 Q457 0 241 0 L50 0 L105 328 L33 328 Z M364 636 L246 636 L208 406 L391 406 L378 328 L195 328 L154 83 L272 83 Q573 83 573 428 Q573 636 364 636 Z " />
<glyph glyph-name="Ntilde" unicode="&#xd1;" horiz-adv-x="686" d="M27 0 L147 720 L229 720 L499 161 L590 720 L679 720 L559 0 L480 0 L208 558 L116 0 L27 0 Z M541 883 L585 866 Q563 819 540 799.5 Q517 780 486 780 Q462 780 422 796 Q382 812 370 812 Q358 812 348.5 805 Q339 798 324 777 L281 796 Q308 842 329.5 861 Q351 880 377 880 Q400 880 437.5 864 Q475 848 494 848 Q509 848 518 855 Q527 862 541 883 Z " />
<glyph glyph-name="Ograve" unicode="&#xd2;" horiz-adv-x="746" d="M159 374 Q150 316 150 274 Q150 172 198.5 120.5 Q247 69 335 69 Q559 69 610 360 Q616 394 616 445 Q616 542 567 595 Q518 648 432 648 Q326 648 253.5 577 Q181 506 159 374 Z M61 367 Q75 457 110.5 527.5 Q146 598 197.5 642.5 Q249 687 312.5 710 Q376 733 447 733 Q571 733 642 659.5 Q713 586 713 451 Q713 419 706 367 Q691 268 655 193.5 Q619 119 567.5 75 Q516 31 455.5 9.5 Q395 -12 325 -12 Q198 -12 125.5 59.5 Q53 131 53 271 Q53 313 61 367 Z M399 915 L548 812 L507 754 L348 839 L399 915 Z " />
<glyph glyph-name="Oacute" unicode="&#xd3;" horiz-adv-x="746" d="M159 374 Q150 316 150 274 Q150 172 198.5 120.5 Q247 69 335 69 Q559 69 610 360 Q616 394 616 445 Q616 542 567 595 Q518 648 432 648 Q326 648 253.5 577 Q181 506 159 374 Z M61 367 Q75 457 110.5 527.5 Q146 598 197.5 642.5 Q249 687 312.5 710 Q376 733 447 733 Q571 733 642 659.5 Q713 586 713 451 Q713 419 706 367 Q691 268 655 193.5 Q619 119 567.5 75 Q516 31 455.5 9.5 Q395 -12 325 -12 Q198 -12 125.5 59.5 Q53 131 53 271 Q53 313 61 367 Z M364 812 L547 915 L572 839 L386 754 L364 812 Z " />
<glyph glyph-name="Ocircumflex" unicode="&#xd4;" horiz-adv-x="746" d="M159 374 Q150 316 150 274 Q150 172 198.5 120.5 Q247 69 335 69 Q559 69 610 360 Q616 394 616 445 Q616 542 567 595 Q518 648 432 648 Q326 648 253.5 577 Q181 506 159 374 Z M61 367 Q75 457 110.5 527.5 Q146 598 197.5 642.5 Q249 687 312.5 710 Q376 733 447 733 Q571 733 642 659.5 Q713 586 713 451 Q713 419 706 367 Q691 268 655 193.5 Q619 119 567.5 75 Q516 31 455.5 9.5 Q395 -12 325 -12 Q198 -12 125.5 59.5 Q53 131 53 271 Q53 313 61 367 Z M429 909 L490 909 L571 798 L527 761 L447 838 L340 761 L308 798 L429 909 Z " />
<glyph glyph-name="Otilde" unicode="&#xd5;" horiz-adv-x="746" d="M159 374 Q150 316 150 274 Q150 172 198.5 120.5 Q247 69 335 69 Q559 69 610 360 Q616 394 616 445 Q616 542 567 595 Q518 648 432 648 Q326 648 253.5 577 Q181 506 159 374 Z M61 367 Q75 457 110.5 527.5 Q146 598 197.5 642.5 Q249 687 312.5 710 Q376 733 447 733 Q571 733 642 659.5 Q713 586 713 451 Q713 419 706 367 Q691 268 655 193.5 Q619 119 567.5 75 Q516 31 455.5 9.5 Q395 -12 325 -12 Q198 -12 125.5 59.5 Q53 131 53 271 Q53 313 61 367 Z M549 883 L593 866 Q571 819 548 799.5 Q525 780 494 780 Q470 780 430 796 Q390 812 378 812 Q366 812 356.5 805 Q347 798 332 777 L289 796 Q316 842 337.5 861 Q359 880 385 880 Q408 880 445.5 864 Q483 848 502 848 Q517 848 526 855 Q535 862 549 883 Z " />
<glyph glyph-name="Odieresis" unicode="&#xd6;" horiz-adv-x="746" d="M159 374 Q150 316 150 274 Q150 172 198.5 120.5 Q247 69 335 69 Q559 69 610 360 Q616 394 616 445 Q616 542 567 595 Q518 648 432 648 Q326 648 253.5 577 Q181 506 159 374 Z M61 367 Q75 457 110.5 527.5 Q146 598 197.5 642.5 Q249 687 312.5 710 Q376 733 447 733 Q571 733 642 659.5 Q713 586 713 451 Q713 419 706 367 Q691 268 655 193.5 Q619 119 567.5 75 Q516 31 455.5 9.5 Q395 -12 325 -12 Q198 -12 125.5 59.5 Q53 131 53 271 Q53 313 61 367 Z M482 818 Q482 842 500 858 Q518 874 544 874 Q565 874 576.5 863 Q588 852 588 833 Q588 810 570.5 793.5 Q553 777 528 777 Q506 777 494 788.5 Q482 800 482 818 Z M289 818 Q289 842 307 858 Q325 874 350 874 Q371 874 382.5 863 Q394 852 394 833 Q394 810 376.5 793.5 Q359 777 335 777 Q313 777 301 788.5 Q289 800 289 818 Z " />
<glyph glyph-name="Oslash" unicode="&#xd8;" horiz-adv-x="746" d="M61 367 Q75 457 110.5 527.5 Q146 598 197.5 642.5 Q249 687 312.5 710 Q376 733 447 733 Q484 733 515 726 L543 787 L616 787 L578 705 Q642 674 677.5 609 Q713 544 713 451 Q713 419 706 367 Q691 268 655 193.5 Q619 119 567.5 75 Q516 31 455.5 9.5 Q395 -12 325 -12 Q286 -12 249 -4 L214 -80 L142 -80 L186 16 Q122 47 87.5 111 Q53 175 53 271 Q53 313 61 367 Z M616 445 Q616 569 538 619 L285 74 Q311 69 335 69 Q559 69 610 360 Q616 393 616 445 Z M159 374 Q150 316 150 274 Q150 148 224 98 L476 643 Q452 648 432 648 Q326 648 253.5 577 Q181 506 159 374 Z " />
<glyph glyph-name="Ugrave" unicode="&#xd9;" horiz-adv-x="673" d="M142 720 L232 720 L158 276 Q153 241 153 219 Q153 145 191.5 107.5 Q230 70 301 70 Q393 70 441.5 121 Q490 172 507 276 L581 720 L671 720 L596 268 Q573 129 493.5 58.5 Q414 -12 284 -12 Q178 -12 119.5 39.5 Q61 91 61 195 Q61 229 67 268 L142 720 Z M349 915 L498 812 L457 754 L298 839 L349 915 Z " />
<glyph glyph-name="Uacute" unicode="&#xda;" horiz-adv-x="673" d="M142 720 L232 720 L158 276 Q153 241 153 219 Q153 145 191.5 107.5 Q230 70 301 70 Q393 70 441.5 121 Q490 172 507 276 L581 720 L671 720 L596 268 Q573 129 493.5 58.5 Q414 -12 284 -12 Q178 -12 119.5 39.5 Q61 91 61 195 Q61 229 67 268 L142 720 Z M329 812 L512 915 L537 839 L351 754 L329 812 Z " />
<glyph glyph-name="Ucircumflex" unicode="&#xdb;" horiz-adv-x="673" d="M142 720 L232 720 L158 276 Q153 241 153 219 Q153 145 191.5 107.5 Q230 70 301 70 Q393 70 441.5 121 Q490 172 507 276 L581 720 L671 720 L596 268 Q573 129 493.5 58.5 Q414 -12 284 -12 Q178 -12 119.5 39.5 Q61 91 61 195 Q61 229 67 268 L142 720 Z M380 909 L441 909 L522 798 L478 761 L398 838 L291 761 L259 798 L380 909 Z " />
<glyph glyph-name="Udieresis" unicode="&#xdc;" horiz-adv-x="673" d="M142 720 L232 720 L158 276 Q153 241 153 219 Q153 145 191.5 107.5 Q230 70 301 70 Q393 70 441.5 121 Q490 172 507 276 L581 720 L671 720 L596 268 Q573 129 493.5 58.5 Q414 -12 284 -12 Q178 -12 119.5 39.5 Q61 91 61 195 Q61 229 67 268 L142 720 Z M432 818 Q432 842 450 858 Q468 874 494 874 Q515 874 526.5 863 Q538 852 538 833 Q538 810 520.5 793.5 Q503 777 478 777 Q456 777 444 788.5 Q432 800 432 818 Z M239 818 Q239 842 257 858 Q275 874 300 874 Q321 874 332.5 863 Q344 852 344 833 Q344 810 326.5 793.5 Q309 777 285 777 Q263 777 251 788.5 Q239 800 239 818 Z " />
<glyph glyph-name="Yacute" unicode="&#xdd;" horiz-adv-x="571" d="M185 0 L235 301 L80 720 L179 720 L298 393 L525 720 L626 720 L326 301 L276 0 L185 0 Z M278 812 L461 915 L486 839 L300 754 L278 812 Z " />
<glyph glyph-name="Thorn" unicode="&#xde;" horiz-adv-x="586" d="M19 0 L139 720 L230 720 L211 604 L349 604 Q391 604 426.5 595 Q462 586 491 566 Q520 546 537 511 Q554 476 554 429 Q554 299 478 230.5 Q402 162 265 162 L137 162 L110 0 L19 0 Z M331 523 L198 523 L150 237 L275 237 Q369 237 417 283 Q465 329 465 413 Q465 523 331 523 Z " />
<glyph glyph-name="germandbls" unicode="&#xdf;" horiz-adv-x="553" d="M35 0 L111 454 L48 454 L57 509 L122 522 L126 542 Q136 606 170 650 Q204 694 249 713.5 Q294 733 348 733 Q428 733 472 693.5 Q516 654 516 583 Q516 501 468.5 446.5 Q421 392 342 377 Q412 365 453 322.5 Q494 280 494 210 Q494 111 432.5 49.5 Q371 -12 274 -12 Q244 -12 210 -2.5 Q176 7 159 24 L190 81 Q230 58 276 58 Q332 58 370.5 97 Q409 136 409 210 Q409 271 370.5 299.5 Q332 328 255 338 L266 408 Q342 415 386.5 456 Q431 497 431 574 Q431 663 340 663 Q284 663 251.5 627.5 Q219 592 207 522 L120 0 L35 0 Z " />
<glyph glyph-name="agrave" unicode="&#xe0;" horiz-adv-x="583" d="M379 0 L385 71 Q354 38 308 13 Q262 -12 203 -12 Q117 -12 74.5 42.5 Q32 97 32 193 Q32 294 66 373 Q100 452 160 495 Q220 538 298 538 Q351 538 389.5 514 Q428 490 449 449 L467 525 L542 525 L454 0 L379 0 Z M393 151 L430 368 Q378 457 294 457 Q221 457 173 390.5 Q125 324 125 213 Q125 182 129.5 158 Q134 134 145 112.5 Q156 91 177 79.5 Q198 68 229 68 Q274 68 317.5 93 Q361 118 393 151 Z M316 770 L433 633 L383 583 L252 706 L316 770 Z " />
<glyph glyph-name="aacute" unicode="&#xe1;" horiz-adv-x="583" d="M379 0 L385 71 Q354 38 308 13 Q262 -12 203 -12 Q117 -12 74.5 42.5 Q32 97 32 193 Q32 294 66 373 Q100 452 160 495 Q220 538 298 538 Q351 538 389.5 514 Q428 490 449 449 L467 525 L542 525 L454 0 L379 0 Z M393 151 L430 368 Q378 457 294 457 Q221 457 173 390.5 Q125 324 125 213 Q125 182 129.5 158 Q134 134 145 112.5 Q156 91 177 79.5 Q198 68 229 68 Q274 68 317.5 93 Q361 118 393 151 Z M239 633 L403 770 L444 706 L273 583 L239 633 Z " />
<glyph glyph-name="acircumflex" unicode="&#xe2;" horiz-adv-x="583" d="M379 0 L385 71 Q354 38 308 13 Q262 -12 203 -12 Q117 -12 74.5 42.5 Q32 97 32 193 Q32 294 66 373 Q100 452 160 495 Q220 538 298 538 Q351 538 389.5 514 Q428 490 449 449 L467 525 L542 525 L454 0 L379 0 Z M393 151 L430 368 Q378 457 294 457 Q221 457 173 390.5 Q125 324 125 213 Q125 182 129.5 158 Q134 134 145 112.5 Q156 91 177 79.5 Q198 68 229 68 Q274 68 317.5 93 Q361 118 393 151 Z M339 756 L399 756 L478 609 L429 577 L357 682 L250 578 L208 610 L339 756 Z " />
<glyph glyph-name="atilde" unicode="&#xe3;" horiz-adv-x="583" d="M379 0 L385 71 Q354 38 308 13 Q262 -12 203 -12 Q117 -12 74.5 42.5 Q32 97 32 193 Q32 294 66 373 Q100 452 160 495 Q220 538 298 538 Q351 538 389.5 514 Q428 490 449 449 L467 525 L542 525 L454 0 L379 0 Z M393 151 L430 368 Q378 457 294 457 Q221 457 173 390.5 Q125 324 125 213 Q125 182 129.5 158 Q134 134 145 112.5 Q156 91 177 79.5 Q198 68 229 68 Q274 68 317.5 93 Q361 118 393 151 Z M463 707 L507 690 Q485 643 462 623.5 Q439 604 408 604 Q384 604 344 620 Q304 636 292 636 Q280 636 270.5 629 Q261 622 246 601 L203 620 Q230 666 251.5 685 Q273 704 299 704 Q322 704 359.5 688 Q397 672 416 672 Q431 672 440 679 Q449 686 463 707 Z " />
<glyph glyph-name="adieresis" unicode="&#xe4;" horiz-adv-x="583" d="M379 0 L385 71 Q354 38 308 13 Q262 -12 203 -12 Q117 -12 74.5 42.5 Q32 97 32 193 Q32 294 66 373 Q100 452 160 495 Q220 538 298 538 Q351 538 389.5 514 Q428 490 449 449 L467 525 L542 525 L454 0 L379 0 Z M393 151 L430 368 Q378 457 294 457 Q221 457 173 390.5 Q125 324 125 213 Q125 182 129.5 158 Q134 134 145 112.5 Q156 91 177 79.5 Q198 68 229 68 Q274 68 317.5 93 Q361 118 393 151 Z M401 660 Q401 684 419 700 Q437 716 463 716 Q484 716 495.5 705 Q507 694 507 675 Q507 652 489.5 635.5 Q472 619 447 619 Q425 619 413 630.5 Q401 642 401 660 Z M208 660 Q208 684 226 700 Q244 716 269 716 Q290 716 301.5 705 Q313 694 313 675 Q313 652 295.5 635.5 Q278 619 254 619 Q232 619 220 630.5 Q208 642 208 660 Z " />
<glyph glyph-name="aring" unicode="&#xe5;" horiz-adv-x="583" d="M379 0 L385 71 Q354 38 308 13 Q262 -12 203 -12 Q117 -12 74.5 42.5 Q32 97 32 193 Q32 294 66 373 Q100 452 160 495 Q220 538 298 538 Q351 538 389.5 514 Q428 490 449 449 L467 525 L542 525 L454 0 L379 0 Z M393 151 L430 368 Q378 457 294 457 Q221 457 173 390.5 Q125 324 125 213 Q125 182 129.5 158 Q134 134 145 112.5 Q156 91 177 79.5 Q198 68 229 68 Q274 68 317.5 93 Q361 118 393 151 Z M309 657 Q309 642 318 634 Q327 626 343 626 Q364 626 376.5 639 Q389 652 389 674 Q389 704 356 704 Q334 704 321.5 691 Q309 678 309 657 Z M254 649 Q254 694 286.5 724.5 Q319 755 364 755 Q400 755 421.5 734.5 Q443 714 443 680 Q443 634 411.5 605 Q380 576 334 576 Q298 576 276 595.5 Q254 615 254 649 Z " />
<glyph glyph-name="ae" unicode="&#xe6;" horiz-adv-x="904" d="M429 99 Q329 -12 203 -12 Q117 -12 74.5 42.5 Q32 97 32 193 Q32 294 66 373 Q100 452 160 495 Q220 538 298 538 Q351 538 389.5 514 Q428 490 449 449 L467 525 L542 525 L525 450 Q594 537 708 537 Q782 537 824.5 495.5 Q867 454 867 392 Q867 330 832 290.5 Q797 251 715.5 227.5 Q634 204 496 197 Q496 173 502 151.5 Q508 130 521 109 Q534 88 561.5 75.5 Q589 63 627 63 Q667 63 705.5 76 Q744 89 791 118 L815 58 Q721 -12 607 -12 Q539 -12 498 15.5 Q457 43 429 99 Z M393 151 L430 368 Q378 457 294 457 Q221 457 173 390.5 Q125 324 125 213 Q125 182 129.5 158 Q134 134 145 112.5 Q156 91 177 79.5 Q198 68 229 68 Q274 68 317.5 93 Q361 118 393 151 Z M500 262 Q568 265 618 273.5 Q668 282 698.5 293.5 Q729 305 747.5 321.5 Q766 338 773 354 Q780 370 780 391 Q780 425 755 444.5 Q730 464 687 464 Q613 464 562 405 Q511 346 500 262 Z " />
<glyph glyph-name="ccedilla" unicode="&#xe7;" horiz-adv-x="516" d="M104 -196 L124 -148 Q153 -160 182 -160 Q230 -160 230 -123 Q230 -108 216.5 -102.5 Q203 -97 175 -97 L153 -97 L187 -8 Q115 4 75.5 59 Q36 114 36 205 Q36 281 59 344 Q82 407 121 449 Q160 491 213 514 Q266 537 325 537 Q407 537 449 496.5 Q491 456 491 380 Q491 355 489 341 L408 341 L408 356 Q408 459 313 459 Q231 459 179.5 393.5 Q128 328 128 219 Q128 149 159 106.5 Q190 64 251 64 Q293 64 329.5 77 Q366 90 414 120 L440 61 Q350 -9 240 -12 L225 -52 Q301 -56 301 -114 Q301 -162 269.5 -187 Q238 -212 181 -212 Q136 -212 104 -196 Z " />
<glyph glyph-name="egrave" unicode="&#xe8;" horiz-adv-x="530" d="M415 117 L443 58 Q349 -12 233 -12 Q138 -12 86.5 41.5 Q35 95 35 199 Q35 297 73 374.5 Q111 452 175.5 494.5 Q240 537 324 537 Q404 537 445.5 496.5 Q487 456 487 392 Q487 330 453 289.5 Q419 249 339 226 Q259 203 122 197 Q122 173 128 151.5 Q134 130 147 109 Q160 88 187.5 75.5 Q215 63 253 63 Q329 63 415 117 Z M126 264 Q197 268 248.5 276.5 Q300 285 329 296.5 Q358 308 375 324 Q392 340 397 355.5 Q402 371 402 392 Q402 426 379 445 Q356 464 313 464 Q239 464 188 406.5 Q137 349 126 264 Z M299 770 L416 633 L366 583 L235 706 L299 770 Z " />
<glyph glyph-name="eacute" unicode="&#xe9;" horiz-adv-x="530" d="M415 117 L443 58 Q349 -12 233 -12 Q138 -12 86.5 41.5 Q35 95 35 199 Q35 297 73 374.5 Q111 452 175.5 494.5 Q240 537 324 537 Q404 537 445.5 496.5 Q487 456 487 392 Q487 330 453 289.5 Q419 249 339 226 Q259 203 122 197 Q122 173 128 151.5 Q134 130 147 109 Q160 88 187.5 75.5 Q215 63 253 63 Q329 63 415 117 Z M126 264 Q197 268 248.5 276.5 Q300 285 329 296.5 Q358 308 375 324 Q392 340 397 355.5 Q402 371 402 392 Q402 426 379 445 Q356 464 313 464 Q239 464 188 406.5 Q137 349 126 264 Z M247 633 L411 770 L452 706 L281 583 L247 633 Z " />
<glyph glyph-name="ecircumflex" unicode="&#xea;" horiz-adv-x="530" d="M415 117 L443 58 Q349 -12 233 -12 Q138 -12 86.5 41.5 Q35 95 35 199 Q35 297 73 374.5 Q111 452 175.5 494.5 Q240 537 324 537 Q404 537 445.5 496.5 Q487 456 487 392 Q487 330 453 289.5 Q419 249 339 226 Q259 203 122 197 Q122 173 128 151.5 Q134 130 147 109 Q160 88 187.5 75.5 Q215 63 253 63 Q329 63 415 117 Z M126 264 Q197 268 248.5 276.5 Q300 285 329 296.5 Q358 308 375 324 Q392 340 397 355.5 Q402 371 402 392 Q402 426 379 445 Q356 464 313 464 Q239 464 188 406.5 Q137 349 126 264 Z M316 756 L376 756 L455 609 L406 577 L334 682 L227 578 L185 610 L316 756 Z " />
<glyph glyph-name="edieresis" unicode="&#xeb;" horiz-adv-x="530" d="M415 117 L443 58 Q349 -12 233 -12 Q138 -12 86.5 41.5 Q35 95 35 199 Q35 297 73 374.5 Q111 452 175.5 494.5 Q240 537 324 537 Q404 537 445.5 496.5 Q487 456 487 392 Q487 330 453 289.5 Q419 249 339 226 Q259 203 122 197 Q122 173 128 151.5 Q134 130 147 109 Q160 88 187.5 75.5 Q215 63 253 63 Q329 63 415 117 Z M126 264 Q197 268 248.5 276.5 Q300 285 329 296.5 Q358 308 375 324 Q392 340 397 355.5 Q402 371 402 392 Q402 426 379 445 Q356 464 313 464 Q239 464 188 406.5 Q137 349 126 264 Z M394 660 Q394 684 412 700 Q430 716 456 716 Q477 716 488.5 705 Q500 694 500 675 Q500 652 482.5 635.5 Q465 619 440 619 Q418 619 406 630.5 Q394 642 394 660 Z M201 660 Q201 684 219 700 Q237 716 262 716 Q283 716 294.5 705 Q306 694 306 675 Q306 652 288.5 635.5 Q271 619 247 619 Q225 619 213 630.5 Q201 642 201 660 Z " />
<glyph glyph-name="igrave" unicode="&#xec;" horiz-adv-x="240" d="M148 770 L265 633 L215 583 L84 706 L148 770 Z M201 523 L113 0 L28 0 L116 523 L201 523 Z " />
<glyph glyph-name="iacute" unicode="&#xed;" horiz-adv-x="240" d="M107 633 L271 770 L312 706 L141 583 L107 633 Z M201 523 L113 0 L28 0 L116 523 L201 523 Z " />
<glyph glyph-name="icircumflex" unicode="&#xee;" horiz-adv-x="240" d="M201 523 L113 0 L28 0 L116 523 L201 523 Z M161 756 L221 756 L300 609 L251 577 L179 682 L72 578 L30 610 L161 756 Z " />
<glyph glyph-name="idieresis" unicode="&#xef;" horiz-adv-x="240" d="M228 660 Q228 684 246 700 Q264 716 290 716 Q311 716 322.5 705 Q334 694 334 675 Q334 652 316.5 635.5 Q299 619 274 619 Q252 619 240 630.5 Q228 642 228 660 Z M35 660 Q35 684 53 700 Q71 716 96 716 Q117 716 128.5 705 Q140 694 140 675 Q140 652 122.5 635.5 Q105 619 81 619 Q59 619 47 630.5 Q35 642 35 660 Z M201 523 L113 0 L28 0 L116 523 L201 523 Z " />
<glyph glyph-name="eth" unicode="&#xf0;" horiz-adv-x="539" d="M280 503 L252 557 L324 602 Q274 640 196 656 L229 722 Q334 704 395 647 L482 701 L511 647 L436 600 Q489 523 489 384 Q489 268 456 179 Q423 90 357.5 39 Q292 -12 203 -12 Q120 -12 73 36 Q26 84 26 169 Q26 241 54 302.5 Q82 364 136.5 401.5 Q191 439 261 439 Q355 439 408 366 Q409 376 409 395 Q409 497 367 557 L280 503 Z M217 63 Q283 63 330.5 120.5 Q378 178 396 291 Q384 305 373.5 315.5 Q363 326 346.5 338 Q330 350 309.5 357 Q289 364 266 364 Q201 364 156.5 317 Q112 270 112 182 Q112 124 140.5 93.5 Q169 63 217 63 Z " />
<glyph glyph-name="ntilde" unicode="&#xf1;" horiz-adv-x="556" d="M110 525 L184 525 L177 448 Q217 488 264.5 512.5 Q312 537 362 537 Q495 537 495 402 Q495 379 490 344 L432 0 L345 0 L399 322 Q403 346 403 371 Q403 415 384.5 436 Q366 457 329 457 Q285 457 241 430.5 Q197 404 171 377 L108 0 L22 0 L110 525 Z M443 707 L487 690 Q465 643 442 623.5 Q419 604 388 604 Q364 604 324 620 Q284 636 272 636 Q260 636 250.5 629 Q241 622 226 601 L183 620 Q210 666 231.5 685 Q253 704 279 704 Q302 704 339.5 688 Q377 672 396 672 Q411 672 420 679 Q429 686 443 707 Z " />
<glyph glyph-name="ograve" unicode="&#xf2;" horiz-adv-x="574" d="M129 264 Q124 228 124 201 Q124 66 244 66 Q310 66 359.5 115 Q409 164 425 261 Q430 295 430 318 Q430 388 397 423.5 Q364 459 308 459 Q242 459 193.5 409.5 Q145 360 129 264 Z M37 260 Q56 393 134.5 465 Q213 537 324 537 Q418 537 470 482.5 Q522 428 522 328 Q522 291 517 262 Q503 170 461 107.5 Q419 45 361 16.5 Q303 -12 230 -12 Q134 -12 83 41.5 Q32 95 32 195 Q32 222 37 260 Z M321 770 L438 633 L388 583 L257 706 L321 770 Z " />
<glyph glyph-name="oacute" unicode="&#xf3;" horiz-adv-x="574" d="M129 264 Q124 228 124 201 Q124 66 244 66 Q310 66 359.5 115 Q409 164 425 261 Q430 295 430 318 Q430 388 397 423.5 Q364 459 308 459 Q242 459 193.5 409.5 Q145 360 129 264 Z M37 260 Q56 393 134.5 465 Q213 537 324 537 Q418 537 470 482.5 Q522 428 522 328 Q522 291 517 262 Q503 170 461 107.5 Q419 45 361 16.5 Q303 -12 230 -12 Q134 -12 83 41.5 Q32 95 32 195 Q32 222 37 260 Z M255 633 L419 770 L460 706 L289 583 L255 633 Z " />
<glyph glyph-name="ocircumflex" unicode="&#xf4;" horiz-adv-x="574" d="M129 264 Q124 228 124 201 Q124 66 244 66 Q310 66 359.5 115 Q409 164 425 261 Q430 295 430 318 Q430 388 397 423.5 Q364 459 308 459 Q242 459 193.5 409.5 Q145 360 129 264 Z M37 260 Q56 393 134.5 465 Q213 537 324 537 Q418 537 470 482.5 Q522 428 522 328 Q522 291 517 262 Q503 170 461 107.5 Q419 45 361 16.5 Q303 -12 230 -12 Q134 -12 83 41.5 Q32 95 32 195 Q32 222 37 260 Z M335 756 L395 756 L474 609 L425 577 L353 682 L246 578 L204 610 L335 756 Z " />
<glyph glyph-name="otilde" unicode="&#xf5;" horiz-adv-x="574" d="M129 264 Q124 228 124 201 Q124 66 244 66 Q310 66 359.5 115 Q409 164 425 261 Q430 295 430 318 Q430 388 397 423.5 Q364 459 308 459 Q242 459 193.5 409.5 Q145 360 129 264 Z M37 260 Q56 393 134.5 465 Q213 537 324 537 Q418 537 470 482.5 Q522 428 522 328 Q522 291 517 262 Q503 170 461 107.5 Q419 45 361 16.5 Q303 -12 230 -12 Q134 -12 83 41.5 Q32 95 32 195 Q32 222 37 260 Z M456 707 L500 690 Q478 643 455 623.5 Q432 604 401 604 Q377 604 337 620 Q297 636 285 636 Q273 636 263.5 629 Q254 622 239 601 L196 620 Q223 666 244.5 685 Q266 704 292 704 Q315 704 352.5 688 Q390 672 409 672 Q424 672 433 679 Q442 686 456 707 Z " />
<glyph glyph-name="odieresis" unicode="&#xf6;" horiz-adv-x="574" d="M129 264 Q124 228 124 201 Q124 66 244 66 Q310 66 359.5 115 Q409 164 425 261 Q430 295 430 318 Q430 388 397 423.5 Q364 459 308 459 Q242 459 193.5 409.5 Q145 360 129 264 Z M37 260 Q56 393 134.5 465 Q213 537 324 537 Q418 537 470 482.5 Q522 428 522 328 Q522 291 517 262 Q503 170 461 107.5 Q419 45 361 16.5 Q303 -12 230 -12 Q134 -12 83 41.5 Q32 95 32 195 Q32 222 37 260 Z M403 660 Q403 684 421 700 Q439 716 465 716 Q486 716 497.5 705 Q509 694 509 675 Q509 652 491.5 635.5 Q474 619 449 619 Q427 619 415 630.5 Q403 642 403 660 Z M210 660 Q210 684 228 700 Q246 716 271 716 Q292 716 303.5 705 Q315 694 315 675 Q315 652 297.5 635.5 Q280 619 256 619 Q234 619 222 630.5 Q210 642 210 660 Z " />
<glyph glyph-name="oslash" unicode="&#xf8;" horiz-adv-x="574" d="M37 260 Q56 393 134.5 465 Q213 537 324 537 Q339 537 367 533 L395 593 L468 593 L430 512 Q522 462 522 328 Q522 291 517 262 Q503 170 461 107.5 Q419 45 361 16.5 Q303 -12 230 -12 Q202 -12 184 -8 L152 -76 L80 -76 L121 12 Q32 61 32 195 Q32 222 37 260 Z M430 318 Q430 392 391 430 L220 67 Q227 66 244 66 Q310 66 359.5 115 Q409 164 425 261 Q430 294 430 318 Z M129 264 Q124 228 124 201 Q124 127 160 94 L331 457 Q315 459 308 459 Q242 459 193.5 409.5 Q145 360 129 264 Z " />
<glyph glyph-name="ugrave" unicode="&#xf9;" horiz-adv-x="546" d="M424 0 L352 0 L358 76 Q272 -12 180 -12 Q42 -12 42 118 Q42 142 47 173 L106 525 L193 525 L137 194 Q131 152 131 138 Q131 102 147.5 85 Q164 68 203 68 Q245 68 288 90.5 Q331 113 363 145 L427 525 L512 525 L424 0 Z M297 770 L414 633 L364 583 L233 706 L297 770 Z " />
<glyph glyph-name="uacute" unicode="&#xfa;" horiz-adv-x="546" d="M424 0 L352 0 L358 76 Q272 -12 180 -12 Q42 -12 42 118 Q42 142 47 173 L106 525 L193 525 L137 194 Q131 152 131 138 Q131 102 147.5 85 Q164 68 203 68 Q245 68 288 90.5 Q331 113 363 145 L427 525 L512 525 L424 0 Z M232 633 L396 770 L437 706 L266 583 L232 633 Z " />
<glyph glyph-name="ucircumflex" unicode="&#xfb;" horiz-adv-x="546" d="M424 0 L352 0 L358 76 Q272 -12 180 -12 Q42 -12 42 118 Q42 142 47 173 L106 525 L193 525 L137 194 Q131 152 131 138 Q131 102 147.5 85 Q164 68 203 68 Q245 68 288 90.5 Q331 113 363 145 L427 525 L512 525 L424 0 Z M319 756 L379 756 L458 609 L409 577 L337 682 L230 578 L188 610 L319 756 Z " />
<glyph glyph-name="udieresis" unicode="&#xfc;" horiz-adv-x="546" d="M424 0 L352 0 L358 76 Q272 -12 180 -12 Q42 -12 42 118 Q42 142 47 173 L106 525 L193 525 L137 194 Q131 152 131 138 Q131 102 147.5 85 Q164 68 203 68 Q245 68 288 90.5 Q331 113 363 145 L427 525 L512 525 L424 0 Z M383 660 Q383 684 401 700 Q419 716 445 716 Q466 716 477.5 705 Q489 694 489 675 Q489 652 471.5 635.5 Q454 619 429 619 Q407 619 395 630.5 Q383 642 383 660 Z M190 660 Q190 684 208 700 Q226 716 251 716 Q272 716 283.5 705 Q295 694 295 675 Q295 652 277.5 635.5 Q260 619 236 619 Q214 619 202 630.5 Q190 642 190 660 Z " />
<glyph glyph-name="yacute" unicode="&#xfd;" horiz-adv-x="484" d="M411 525 L503 525 L231 -7 Q213 -41 205 -56.5 Q197 -72 183 -96.5 Q169 -121 161.5 -131.5 Q154 -142 141 -157 Q128 -172 117.5 -178 Q107 -184 92.5 -191 Q78 -198 62 -200 Q46 -202 27 -202 Q-16 -202 -59 -190 L-39 -127 Q-5 -135 28 -135 Q60 -135 83 -113 Q106 -91 136 -28 L150 0 L57 525 L148 525 L208 105 L411 525 Z M205 633 L369 770 L410 706 L239 583 L205 633 Z " />
<glyph glyph-name="thorn" unicode="&#xfe;" horiz-adv-x="570" d="M164 375 L124 139 Q141 109 175.5 86 Q210 63 256 63 Q341 63 386.5 132 Q432 201 432 320 Q432 462 326 462 Q247 462 164 375 Z M68 -200 L-18 -200 L135 720 L220 720 L175 448 Q261 538 363 538 Q442 538 483.5 484 Q525 430 525 333 Q525 235 495.5 158 Q466 81 405 34.5 Q344 -12 259 -12 Q229 -12 202.5 -4.5 Q176 3 158 15.5 Q140 28 129 39 Q118 50 111 62 L68 -200 Z " />
<glyph glyph-name="ydieresis" unicode="&#xff;" horiz-adv-x="484" d="M411 525 L503 525 L231 -7 Q213 -41 205 -56.5 Q197 -72 183 -96.5 Q169 -121 161.5 -131.5 Q154 -142 141 -157 Q128 -172 117.5 -178 Q107 -184 92.5 -191 Q78 -198 62 -200 Q46 -202 27 -202 Q-16 -202 -59 -190 L-39 -127 Q-5 -135 28 -135 Q60 -135 83 -113 Q106 -91 136 -28 L150 0 L57 525 L148 525 L208 105 L411 525 Z M348 660 Q348 684 366 700 Q384 716 410 716 Q431 716 442.5 705 Q454 694 454 675 Q454 652 436.5 635.5 Q419 619 394 619 Q372 619 360 630.5 Q348 642 348 660 Z M155 660 Q155 684 173 700 Q191 716 216 716 Q237 716 248.5 705 Q260 694 260 675 Q260 652 242.5 635.5 Q225 619 201 619 Q179 619 167 630.5 Q155 642 155 660 Z " />
<glyph glyph-name="Amacron" unicode="&#x100;" horiz-adv-x="636" d="M338 720 L435 720 L569 0 L473 0 L436 193 L162 193 L63 0 L-33 0 L338 720 Z M203 278 L426 278 L369 612 L203 278 Z M262 785 L273 852 L542 852 L531 785 L262 785 Z " />
<glyph glyph-name="amacron" unicode="&#x101;" horiz-adv-x="583" d="M379 0 L385 71 Q354 38 308 13 Q262 -12 203 -12 Q117 -12 74.5 42.5 Q32 97 32 193 Q32 294 66 373 Q100 452 160 495 Q220 538 298 538 Q351 538 389.5 514 Q428 490 449 449 L467 525 L542 525 L454 0 L379 0 Z M393 151 L430 368 Q378 457 294 457 Q221 457 173 390.5 Q125 324 125 213 Q125 182 129.5 158 Q134 134 145 112.5 Q156 91 177 79.5 Q198 68 229 68 Q274 68 317.5 93 Q361 118 393 151 Z M207 683 L476 683 L465 616 L196 616 L207 683 Z " />
<glyph glyph-name="Abreve" unicode="&#x102;" horiz-adv-x="636" d="M338 720 L435 720 L569 0 L473 0 L436 193 L162 193 L63 0 L-33 0 L338 720 Z M203 278 L426 278 L369 612 L203 278 Z M396 829 Q440 829 460 846.5 Q480 864 491 898 L550 888 Q532 828 493 798.5 Q454 769 387 769 Q319 769 289.5 796.5 Q260 824 260 887 L327 898 Q328 862 341.5 845.5 Q355 829 396 829 Z " />
<glyph glyph-name="abreve" unicode="&#x103;" horiz-adv-x="583" d="M379 0 L385 71 Q354 38 308 13 Q262 -12 203 -12 Q117 -12 74.5 42.5 Q32 97 32 193 Q32 294 66 373 Q100 452 160 495 Q220 538 298 538 Q351 538 389.5 514 Q428 490 449 449 L467 525 L542 525 L454 0 L379 0 Z M393 151 L430 368 Q378 457 294 457 Q221 457 173 390.5 Q125 324 125 213 Q125 182 129.5 158 Q134 134 145 112.5 Q156 91 177 79.5 Q198 68 229 68 Q274 68 317.5 93 Q361 118 393 151 Z M338 654 Q381 654 401 673.5 Q421 693 435 733 L494 723 Q476 657 436 625.5 Q396 594 329 594 Q263 594 234 623 Q205 652 205 715 L205 722 L272 733 Q273 712 275 700 Q277 688 283.5 676 Q290 664 303 659 Q316 654 338 654 Z " />
<glyph glyph-name="Aogonek" unicode="&#x104;" horiz-adv-x="636" d="M338 720 L435 720 L569 0 Q515 -40 489 -72 Q463 -104 463 -132 Q463 -158 494 -158 Q516 -158 548 -146 L558 -197 Q508 -226 453 -226 Q415 -226 395.5 -208.5 Q376 -191 376 -161 Q376 -82 473 0 L436 194 L162 194 L63 0 L-33 0 L338 720 Z M203 278 L426 278 L369 612 L203 278 Z " />
<glyph glyph-name="aogonek" unicode="&#x105;" horiz-adv-x="583" d="M379 0 L385 71 Q354 38 308 13 Q262 -12 203 -12 Q117 -12 74.5 42.5 Q32 97 32 193 Q32 294 66 373 Q100 452 160 495 Q220 538 298 538 Q351 538 389.5 514 Q428 490 449 449 L467 525 L542 525 L454 0 Q406 -42 382 -73 Q358 -104 358 -132 Q358 -158 389 -158 Q409 -158 443 -146 L452 -197 Q432 -209 404 -217.5 Q376 -226 348 -226 Q310 -226 290.5 -208.5 Q271 -191 271 -161 Q271 -84 379 0 Z M393 151 L430 368 Q378 457 294 457 Q221 457 173 390.5 Q125 324 125 213 Q125 182 129.5 158 Q134 134 145 112.5 Q156 91 177 79.5 Q198 68 229 68 Q274 68 317.5 93 Q361 118 393 151 Z " />
<glyph glyph-name="Cacute" unicode="&#x106;" horiz-adv-x="643" d="M532 159 L572 97 Q449 -12 301 -12 Q237 -12 189.5 10 Q142 32 112 71 Q82 110 67.5 162 Q53 214 53 277 Q53 349 68.5 416.5 Q84 484 116 541.5 Q148 599 193 641.5 Q238 684 299 708.5 Q360 733 430 733 Q530 733 586 686 Q642 639 642 548 Q642 526 639 502 L550 502 Q551 510 551 527 Q551 583 518.5 615.5 Q486 648 415 648 Q335 648 274.5 601.5 Q214 555 182.5 473.5 Q151 392 151 289 Q151 182 195.5 126.5 Q240 71 321 71 Q383 71 431.5 94 Q480 117 532 159 Z M336 812 L519 915 L544 839 L358 754 L336 812 Z " />
<glyph glyph-name="cacute" unicode="&#x107;" horiz-adv-x="516" d="M414 120 L442 60 Q348 -12 229 -12 Q139 -12 87.5 47.5 Q36 107 36 211 Q36 287 58 349 Q80 411 119 451.5 Q158 492 209.5 514.5 Q261 537 321 537 Q406 537 448.5 496.5 Q491 456 491 380 Q491 355 489 341 L408 341 Q408 344 408.5 350 Q409 356 409 358 Q409 410 385.5 434.5 Q362 459 313 459 Q231 459 179.5 393.5 Q128 328 128 219 Q128 149 159 106.5 Q190 64 251 64 Q293 64 329.5 77 Q366 90 414 120 Z M250 633 L414 770 L455 706 L284 583 L250 633 Z " />
<glyph glyph-name="Ccircumflex" unicode="&#x108;" horiz-adv-x="643" d="M532 159 L572 97 Q449 -12 301 -12 Q237 -12 189.5 10 Q142 32 112 71 Q82 110 67.5 162 Q53 214 53 277 Q53 349 68.5 416.5 Q84 484 116 541.5 Q148 599 193 641.5 Q238 684 299 708.5 Q360 733 430 733 Q530 733 586 686 Q642 639 642 548 Q642 526 639 502 L550 502 Q551 510 551 527 Q551 583 518.5 615.5 Q486 648 415 648 Q335 648 274.5 601.5 Q214 555 182.5 473.5 Q151 392 151 289 Q151 182 195.5 126.5 Q240 71 321 71 Q383 71 431.5 94 Q480 117 532 159 Z M414 909 L475 909 L556 798 L512 761 L432 838 L325 761 L293 798 L414 909 Z " />
<glyph glyph-name="ccircumflex" unicode="&#x109;" horiz-adv-x="516" d="M414 120 L442 60 Q348 -12 229 -12 Q139 -12 87.5 47.5 Q36 107 36 211 Q36 287 58 349 Q80 411 119 451.5 Q158 492 209.5 514.5 Q261 537 321 537 Q406 537 448.5 496.5 Q491 456 491 380 Q491 355 489 341 L408 341 Q408 344 408.5 350 Q409 356 409 358 Q409 410 385.5 434.5 Q362 459 313 459 Q231 459 179.5 393.5 Q128 328 128 219 Q128 149 159 106.5 Q190 64 251 64 Q293 64 329.5 77 Q366 90 414 120 Z M320 756 L380 756 L459 609 L410 577 L338 682 L231 578 L189 610 L320 756 Z " />
<glyph glyph-name="Cdotaccent" unicode="&#x10a;" horiz-adv-x="643" d="M532 159 L572 97 Q449 -12 301 -12 Q237 -12 189.5 10 Q142 32 112 71 Q82 110 67.5 162 Q53 214 53 277 Q53 349 68.5 416.5 Q84 484 116 541.5 Q148 599 193 641.5 Q238 684 299 708.5 Q360 733 430 733 Q530 733 586 686 Q642 639 642 548 Q642 526 639 502 L550 502 Q551 510 551 527 Q551 583 518.5 615.5 Q486 648 415 648 Q335 648 274.5 601.5 Q214 555 182.5 473.5 Q151 392 151 289 Q151 182 195.5 126.5 Q240 71 321 71 Q383 71 431.5 94 Q480 117 532 159 Z M393 813 Q393 839 412.5 855 Q432 871 460 871 Q482 871 494.5 859.5 Q507 848 507 828 Q507 802 488.5 786 Q470 770 443 770 Q421 770 407 781.5 Q393 793 393 813 Z " />
<glyph glyph-name="cdotaccent" unicode="&#x10b;" horiz-adv-x="516" d="M414 120 L442 60 Q348 -12 229 -12 Q139 -12 87.5 47.5 Q36 107 36 211 Q36 287 58 349 Q80 411 119 451.5 Q158 492 209.5 514.5 Q261 537 321 537 Q406 537 448.5 496.5 Q491 456 491 380 Q491 355 489 341 L408 341 Q408 344 408.5 350 Q409 356 409 358 Q409 410 385.5 434.5 Q362 459 313 459 Q231 459 179.5 393.5 Q128 328 128 219 Q128 149 159 106.5 Q190 64 251 64 Q293 64 329.5 77 Q366 90 414 120 Z M291 659 Q291 685 311 701.5 Q331 718 357 718 Q379 718 391.5 706 Q404 694 404 674 Q404 648 385.5 632.5 Q367 617 340 617 Q318 617 304.5 628.5 Q291 640 291 659 Z " />
<glyph glyph-name="Ccaron" unicode="&#x10c;" horiz-adv-x="643" d="M532 159 L572 97 Q449 -12 301 -12 Q237 -12 189.5 10 Q142 32 112 71 Q82 110 67.5 162 Q53 214 53 277 Q53 349 68.5 416.5 Q84 484 116 541.5 Q148 599 193 641.5 Q238 684 299 708.5 Q360 733 430 733 Q530 733 586 686 Q642 639 642 548 Q642 526 639 502 L550 502 Q551 510 551 527 Q551 583 518.5 615.5 Q486 648 415 648 Q335 648 274.5 601.5 Q214 555 182.5 473.5 Q151 392 151 289 Q151 182 195.5 126.5 Q240 71 321 71 Q383 71 431.5 94 Q480 117 532 159 Z M471 765 L411 765 L326 876 L372 913 L453 836 L559 913 L589 876 L471 765 Z " />
<glyph glyph-name="ccaron" unicode="&#x10d;" horiz-adv-x="516" d="M414 120 L442 60 Q348 -12 229 -12 Q139 -12 87.5 47.5 Q36 107 36 211 Q36 287 58 349 Q80 411 119 451.5 Q158 492 209.5 514.5 Q261 537 321 537 Q406 537 448.5 496.5 Q491 456 491 380 Q491 355 489 341 L408 341 Q408 344 408.5 350 Q409 356 409 358 Q409 410 385.5 434.5 Q362 459 313 459 Q231 459 179.5 393.5 Q128 328 128 219 Q128 149 159 106.5 Q190 64 251 64 Q293 64 329.5 77 Q366 90 414 120 Z M348 582 L289 582 L207 728 L259 760 L332 656 L439 762 L477 729 L348 582 Z " />
<glyph glyph-name="Dcaron" unicode="&#x10e;" horiz-adv-x="680" d="M342 636 L224 636 L132 83 L250 83 Q550 83 550 428 Q550 636 342 636 Z M147 720 L352 720 Q498 720 572.5 649 Q647 578 647 439 Q647 217 540.5 108.5 Q434 0 218 0 L27 0 L147 720 Z M398 765 L338 765 L253 876 L299 913 L380 836 L486 913 L516 876 L398 765 Z " />
<glyph glyph-name="dcaron" unicode="&#x10f;" horiz-adv-x="641" d="M383 0 L389 71 Q358 38 312 13 Q266 -12 207 -12 Q121 -12 78.5 42.5 Q36 97 36 193 Q36 347 110 442 Q184 537 302 537 Q396 537 449 459 L492 720 L578 720 L458 0 L383 0 Z M397 151 L434 368 Q383 456 298 456 Q225 456 177 390 Q129 324 129 213 Q129 182 133.5 158 Q138 134 149 112.5 Q160 91 181 79.5 Q202 68 233 68 Q278 68 321.5 93 Q365 118 397 151 Z M619 532 L680 720 L771 720 L690 532 L619 532 Z " />
<glyph glyph-name="Dcroat" unicode="&#x110;" horiz-adv-x="703" d="M33 328 L46 406 L118 406 L170 720 L375 720 Q521 720 595.5 649 Q670 578 670 439 Q670 217 563.5 108.5 Q457 0 241 0 L50 0 L105 328 L33 328 Z M364 636 L246 636 L208 406 L391 406 L378 328 L195 328 L154 83 L272 83 Q573 83 573 428 Q573 636 364 636 Z " />
<glyph glyph-name="dcroat" unicode="&#x111;" horiz-adv-x="582" d="M316 644 L481 644 L493 720 L579 720 L567 644 L630 644 L618 576 L555 576 L459 0 L381 0 L390 71 Q378 59 360.5 44.5 Q343 30 320 17.5 Q297 5 269 -3.5 Q241 -12 208 -12 Q120 -12 78 41 Q36 94 36 187 Q36 261 55 320.5 Q74 380 108.5 421.5 Q143 463 190 485.5 Q237 508 294 508 Q322 508 345 501 Q368 494 386.5 483 Q405 472 419 457 Q433 442 444 426 L469 576 L304 576 L316 644 Z M431 344 Q424 356 413 370 Q402 384 386.5 397 Q371 410 350 418.5 Q329 427 303 427 Q265 427 233 413 Q201 399 177.5 371 Q154 343 141 302 Q128 261 128 207 Q128 179 134 153.5 Q140 128 154.5 109 Q169 90 191.5 79 Q214 68 247 68 Q272 68 294.5 75.5 Q317 83 336 94.5 Q355 106 370.5 119 Q386 132 397 143 L431 344 Z " />
<glyph glyph-name="Emacron" unicode="&#x112;" horiz-adv-x="578" d="M27 0 L147 720 L593 720 L579 636 L224 636 L186 408 L509 408 L495 324 L172 324 L132 83 L494 83 L480 0 L27 0 Z M237 785 L248 852 L517 852 L506 785 L237 785 Z " />
<glyph glyph-name="emacron" unicode="&#x113;" horiz-adv-x="530" d="M415 117 L443 58 Q349 -12 233 -12 Q138 -12 86.5 41.5 Q35 95 35 199 Q35 297 73 374.5 Q111 452 175.5 494.5 Q240 537 324 537 Q404 537 445.5 496.5 Q487 456 487 392 Q487 330 453 289.5 Q419 249 339 226 Q259 203 122 197 Q122 173 128 151.5 Q134 130 147 109 Q160 88 187.5 75.5 Q215 63 253 63 Q329 63 415 117 Z M126 264 Q197 268 248.5 276.5 Q300 285 329 296.5 Q358 308 375 324 Q392 340 397 355.5 Q402 371 402 392 Q402 426 379 445 Q356 464 313 464 Q239 464 188 406.5 Q137 349 126 264 Z M219 683 L488 683 L477 616 L208 616 L219 683 Z " />
<glyph glyph-name="Ebreve" unicode="&#x114;" horiz-adv-x="578" d="M27 0 L147 720 L593 720 L579 636 L224 636 L186 408 L509 408 L495 324 L172 324 L132 83 L494 83 L480 0 L27 0 Z M378 829 Q422 829 442 846.5 Q462 864 473 898 L532 888 Q514 828 475 798.5 Q436 769 369 769 Q301 769 271.5 796.5 Q242 824 242 887 L309 898 Q310 862 323.5 845.5 Q337 829 378 829 Z " />
<glyph glyph-name="ebreve" unicode="&#x115;" horiz-adv-x="530" d="M415 117 L443 58 Q349 -12 233 -12 Q138 -12 86.5 41.5 Q35 95 35 199 Q35 297 73 374.5 Q111 452 175.5 494.5 Q240 537 324 537 Q404 537 445.5 496.5 Q487 456 487 392 Q487 330 453 289.5 Q419 249 339 226 Q259 203 122 197 Q122 173 128 151.5 Q134 130 147 109 Q160 88 187.5 75.5 Q215 63 253 63 Q329 63 415 117 Z M126 264 Q197 268 248.5 276.5 Q300 285 329 296.5 Q358 308 375 324 Q392 340 397 355.5 Q402 371 402 392 Q402 426 379 445 Q356 464 313 464 Q239 464 188 406.5 Q137 349 126 264 Z M344 654 Q387 654 407 673.5 Q427 693 441 733 L500 723 Q482 657 442 625.5 Q402 594 335 594 Q269 594 240 623 Q211 652 211 715 L211 722 L278 733 Q279 712 281 700 Q283 688 289.5 676 Q296 664 309 659 Q322 654 344 654 Z " />
<glyph glyph-name="Edotaccent" unicode="&#x116;" horiz-adv-x="578" d="M27 0 L147 720 L593 720 L579 636 L224 636 L186 408 L509 408 L495 324 L172 324 L132 83 L494 83 L480 0 L27 0 Z M332 813 Q332 839 351.5 855 Q371 871 399 871 Q421 871 433.5 859.5 Q446 848 446 828 Q446 802 427.5 786 Q409 770 382 770 Q360 770 346 781.5 Q332 793 332 813 Z " />
<glyph glyph-name="edotaccent" unicode="&#x117;" horiz-adv-x="530" d="M415 117 L443 58 Q349 -12 233 -12 Q138 -12 86.5 41.5 Q35 95 35 199 Q35 297 73 374.5 Q111 452 175.5 494.5 Q240 537 324 537 Q404 537 445.5 496.5 Q487 456 487 392 Q487 330 453 289.5 Q419 249 339 226 Q259 203 122 197 Q122 173 128 151.5 Q134 130 147 109 Q160 88 187.5 75.5 Q215 63 253 63 Q329 63 415 117 Z M126 264 Q197 268 248.5 276.5 Q300 285 329 296.5 Q358 308 375 324 Q392 340 397 355.5 Q402 371 402 392 Q402 426 379 445 Q356 464 313 464 Q239 464 188 406.5 Q137 349 126 264 Z M295 659 Q295 685 315 701.5 Q335 718 361 718 Q383 718 395.5 706 Q408 694 408 674 Q408 648 389.5 632.5 Q371 617 344 617 Q322 617 308.5 628.5 Q295 640 295 659 Z " />
<glyph glyph-name="Eogonek" unicode="&#x118;" horiz-adv-x="572" d="M21 0 L141 720 L587 720 L573 636 L218 636 L180 408 L504 408 L490 324 L166 324 L126 83 L489 83 L475 0 L446 0 Q398 -42 374 -73 Q350 -104 350 -132 Q350 -158 381 -158 Q401 -158 435 -146 L444 -197 Q424 -209 396 -217.5 Q368 -226 340 -226 Q302 -226 282.5 -208.5 Q263 -191 263 -161 Q263 -83 372 0 L21 0 Z " />
<glyph glyph-name="eogonek" unicode="&#x119;" horiz-adv-x="530" d="M417 118 L443 58 Q429 48 413.5 38 Q398 28 389 23.5 Q380 19 358.5 7.5 Q337 -4 332 -6 Q282 -32 255 -67 Q228 -102 228 -132 Q228 -158 259 -158 Q279 -158 313 -146 L322 -197 Q302 -209 274 -217.5 Q246 -226 218 -226 Q180 -226 160.5 -208.5 Q141 -191 141 -161 Q141 -89 233 -12 Q138 -12 86.5 41.5 Q35 95 35 199 Q35 297 71.5 374.5 Q108 452 174 494.5 Q240 537 324 537 Q404 537 448.5 496 Q493 455 493 392 Q493 330 458 290.5 Q423 251 341.5 227.5 Q260 204 122 197 Q122 173 128 151.5 Q134 130 147 109 Q160 88 187.5 75.5 Q215 63 253 63 Q293 63 332 76 Q371 89 417 118 Z M126 262 Q195 266 245.5 275 Q296 284 326.5 295 Q357 306 375.5 322 Q394 338 400 354 Q406 370 406 391 Q406 425 381 444.5 Q356 464 313 464 Q239 464 188 405.5 Q137 347 126 262 Z " />
<glyph glyph-name="Ecaron" unicode="&#x11a;" horiz-adv-x="578" d="M27 0 L147 720 L593 720 L579 636 L224 636 L186 408 L509 408 L495 324 L172 324 L132 83 L494 83 L480 0 L27 0 Z M410 765 L350 765 L265 876 L311 913 L392 836 L498 913 L528 876 L410 765 Z " />
<glyph glyph-name="ecaron" unicode="&#x11b;" horiz-adv-x="530" d="M415 117 L443 58 Q349 -12 233 -12 Q138 -12 86.5 41.5 Q35 95 35 199 Q35 297 73 374.5 Q111 452 175.5 494.5 Q240 537 324 537 Q404 537 445.5 496.5 Q487 456 487 392 Q487 330 453 289.5 Q419 249 339 226 Q259 203 122 197 Q122 173 128 151.5 Q134 130 147 109 Q160 88 187.5 75.5 Q215 63 253 63 Q329 63 415 117 Z M126 264 Q197 268 248.5 276.5 Q300 285 329 296.5 Q358 308 375 324 Q392 340 397 355.5 Q402 371 402 392 Q402 426 379 445 Q356 464 313 464 Q239 464 188 406.5 Q137 349 126 264 Z M347 582 L288 582 L206 728 L258 760 L331 656 L438 762 L476 729 L347 582 Z " />
<glyph glyph-name="Gcircumflex" unicode="&#x11c;" horiz-adv-x="694" d="M392 296 L405 374 L646 374 L600 101 Q487 -12 321 -12 Q265 -12 219.5 2 Q174 16 143 41 Q112 66 92 103 Q72 140 62.5 182.5 Q53 225 53 276 Q53 354 69.5 423 Q86 492 118.5 548.5 Q151 605 197.5 646.5 Q244 688 306.5 710.5 Q369 733 443 733 Q505 733 550 719 Q595 705 620.5 679.5 Q646 654 657.5 622.5 Q669 591 669 552 Q669 527 667 515 L574 515 Q575 522 575 535 Q575 587 539.5 617.5 Q504 648 426 648 Q361 648 308 619 Q255 590 221 541 Q187 492 168.5 428 Q150 364 150 291 Q150 185 197 127 Q244 69 334 69 Q444 69 528 143 L554 296 L392 296 Z M423 909 L484 909 L565 798 L521 761 L441 838 L334 761 L302 798 L423 909 Z " />
<glyph glyph-name="gcircumflex" unicode="&#x11d;" horiz-adv-x="581" d="M546 525 L461 18 Q450 -48 429.5 -92 Q409 -136 376 -162 Q343 -188 300.5 -199 Q258 -210 200 -210 Q151 -210 104.5 -201 Q58 -192 26 -177 L56 -104 Q134 -133 209 -133 Q293 -133 329 -97.5 Q365 -62 379 23 L387 72 Q351 35 304.5 13 Q258 -9 205 -9 Q121 -9 78.5 46 Q36 101 36 195 Q36 249 46.5 298.5 Q57 348 79 392 Q101 436 132.5 468 Q164 500 208 518.5 Q252 537 305 537 Q333 537 358.5 528.5 Q384 520 402 506 Q420 492 432 478 Q444 464 454 449 L472 525 L546 525 Z M396 144 L434 372 Q426 390 409.5 408 Q393 426 365 441.5 Q337 457 307 457 Q222 457 175 388.5 Q128 320 128 211 Q128 142 151 105.5 Q174 69 230 69 Q276 69 320 92 Q364 115 396 144 Z M343 756 L403 756 L482 609 L433 577 L361 682 L254 578 L212 610 L343 756 Z " />
<glyph glyph-name="Gbreve" unicode="&#x11e;" horiz-adv-x="694" d="M392 296 L405 374 L646 374 L600 101 Q487 -12 321 -12 Q265 -12 219.5 2 Q174 16 143 41 Q112 66 92 103 Q72 140 62.5 182.5 Q53 225 53 276 Q53 354 69.5 423 Q86 492 118.5 548.5 Q151 605 197.5 646.5 Q244 688 306.5 710.5 Q369 733 443 733 Q505 733 550 719 Q595 705 620.5 679.5 Q646 654 657.5 622.5 Q669 591 669 552 Q669 527 667 515 L574 515 Q575 522 575 535 Q575 587 539.5 617.5 Q504 648 426 648 Q361 648 308 619 Q255 590 221 541 Q187 492 168.5 428 Q150 364 150 291 Q150 185 197 127 Q244 69 334 69 Q444 69 528 143 L554 296 L392 296 Z M448 829 Q492 829 512 846.5 Q532 864 543 898 L602 888 Q584 828 545 798.5 Q506 769 439 769 Q371 769 341.5 796.5 Q312 824 312 887 L379 898 Q380 862 393.5 845.5 Q407 829 448 829 Z " />
<glyph glyph-name="gbreve" unicode="&#x11f;" horiz-adv-x="581" d="M546 525 L461 18 Q450 -48 429.5 -92 Q409 -136 376 -162 Q343 -188 300.5 -199 Q258 -210 200 -210 Q151 -210 104.5 -201 Q58 -192 26 -177 L56 -104 Q134 -133 209 -133 Q293 -133 329 -97.5 Q365 -62 379 23 L387 72 Q351 35 304.5 13 Q258 -9 205 -9 Q121 -9 78.5 46 Q36 101 36 195 Q36 249 46.5 298.5 Q57 348 79 392 Q101 436 132.5 468 Q164 500 208 518.5 Q252 537 305 537 Q333 537 358.5 528.5 Q384 520 402 506 Q420 492 432 478 Q444 464 454 449 L472 525 L546 525 Z M396 144 L434 372 Q426 390 409.5 408 Q393 426 365 441.5 Q337 457 307 457 Q222 457 175 388.5 Q128 320 128 211 Q128 142 151 105.5 Q174 69 230 69 Q276 69 320 92 Q364 115 396 144 Z M387 654 Q430 654 450 673.5 Q470 693 484 733 L543 723 Q525 657 485 625.5 Q445 594 378 594 Q312 594 283 623 Q254 652 254 715 L254 722 L321 733 Q322 712 324 700 Q326 688 332.5 676 Q339 664 352 659 Q365 654 387 654 Z " />
<glyph glyph-name="Gdotaccent" unicode="&#x120;" horiz-adv-x="694" d="M392 296 L405 374 L646 374 L600 101 Q487 -12 321 -12 Q265 -12 219.5 2 Q174 16 143 41 Q112 66 92 103 Q72 140 62.5 182.5 Q53 225 53 276 Q53 354 69.5 423 Q86 492 118.5 548.5 Q151 605 197.5 646.5 Q244 688 306.5 710.5 Q369 733 443 733 Q505 733 550 719 Q595 705 620.5 679.5 Q646 654 657.5 622.5 Q669 591 669 552 Q669 527 667 515 L574 515 Q575 522 575 535 Q575 587 539.5 617.5 Q504 648 426 648 Q361 648 308 619 Q255 590 221 541 Q187 492 168.5 428 Q150 364 150 291 Q150 185 197 127 Q244 69 334 69 Q444 69 528 143 L554 296 L392 296 Z M412 813 Q412 839 431.5 855 Q451 871 479 871 Q501 871 513.5 859.5 Q526 848 526 828 Q526 802 507.5 786 Q489 770 462 770 Q440 770 426 781.5 Q412 793 412 813 Z " />
<glyph glyph-name="gdotaccent" unicode="&#x121;" horiz-adv-x="581" d="M546 525 L461 18 Q450 -48 429.5 -92 Q409 -136 376 -162 Q343 -188 300.5 -199 Q258 -210 200 -210 Q151 -210 104.5 -201 Q58 -192 26 -177 L56 -104 Q134 -133 209 -133 Q293 -133 329 -97.5 Q365 -62 379 23 L387 72 Q351 35 304.5 13 Q258 -9 205 -9 Q121 -9 78.5 46 Q36 101 36 195 Q36 249 46.5 298.5 Q57 348 79 392 Q101 436 132.5 468 Q164 500 208 518.5 Q252 537 305 537 Q333 537 358.5 528.5 Q384 520 402 506 Q420 492 432 478 Q444 464 454 449 L472 525 L546 525 Z M396 144 L434 372 Q426 390 409.5 408 Q393 426 365 441.5 Q337 457 307 457 Q222 457 175 388.5 Q128 320 128 211 Q128 142 151 105.5 Q174 69 230 69 Q276 69 320 92 Q364 115 396 144 Z M309 659 Q309 685 329 701.5 Q349 718 375 718 Q397 718 409.5 706 Q422 694 422 674 Q422 648 403.5 632.5 Q385 617 358 617 Q336 617 322.5 628.5 Q309 640 309 659 Z " />
<glyph glyph-name="Gcommaaccent" unicode="&#x122;" horiz-adv-x="694" d="M392 296 L405 374 L646 374 L600 101 Q487 -12 321 -12 Q265 -12 219.5 2 Q174 16 143 41 Q112 66 92 103 Q72 140 62.5 182.5 Q53 225 53 276 Q53 354 69.5 423 Q86 492 118.5 548.5 Q151 605 197.5 646.5 Q244 688 306.5 710.5 Q369 733 443 733 Q505 733 550 719 Q595 705 620.5 679.5 Q646 654 657.5 622.5 Q669 591 669 552 Q669 527 667 515 L574 515 Q575 522 575 535 Q575 587 539.5 617.5 Q504 648 426 648 Q361 648 308 619 Q255 590 221 541 Q187 492 168.5 428 Q150 364 150 291 Q150 185 197 127 Q244 69 334 69 Q444 69 528 143 L554 296 L392 296 Z M217 -223 L284 -60 L360 -81 L277 -243 L217 -223 Z " />
<glyph glyph-name="gcommaaccent" unicode="&#x123;" horiz-adv-x="581" d="M546 525 L461 18 Q450 -48 429.5 -92 Q409 -136 376 -162 Q343 -188 300.5 -199 Q258 -210 200 -210 Q151 -210 104.5 -201 Q58 -192 26 -177 L56 -104 Q134 -133 209 -133 Q293 -133 329 -97.5 Q365 -62 379 23 L387 72 Q351 35 304.5 13 Q258 -9 205 -9 Q121 -9 78.5 46 Q36 101 36 195 Q36 249 46.5 298.5 Q57 348 79 392 Q101 436 132.5 468 Q164 500 208 518.5 Q252 537 305 537 Q333 537 358.5 528.5 Q384 520 402 506 Q420 492 432 478 Q444 464 454 449 L472 525 L546 525 Z M396 144 L434 372 Q426 390 409.5 408 Q393 426 365 441.5 Q337 457 307 457 Q222 457 175 388.5 Q128 320 128 211 Q128 142 151 105.5 Q174 69 230 69 Q276 69 320 92 Q364 115 396 144 Z M466 752 L397 585 L320 608 L405 771 L466 752 Z " />
<glyph glyph-name="Hcircumflex" unicode="&#x124;" horiz-adv-x="682" d="M27 0 L147 720 L238 720 L187 415 L533 415 L584 720 L675 720 L555 0 L464 0 L519 329 L173 329 L118 0 L27 0 Z M411 909 L472 909 L553 798 L509 761 L429 838 L322 761 L290 798 L411 909 Z " />
<glyph glyph-name="hcircumflex" unicode="&#x125;" horiz-adv-x="556" d="M142 720 L228 720 L184 452 Q271 537 365 537 Q495 537 495 402 Q495 379 490 344 L432 0 L345 0 L399 323 Q405 361 405 377 Q405 414 387.5 435 Q370 456 327 456 Q285 456 243 431.5 Q201 407 171 377 L108 0 L22 0 L142 720 Z M191 889 L252 889 L333 778 L289 741 L209 818 L102 741 L70 778 L191 889 Z " />
<glyph glyph-name="Hbar" unicode="&#x126;" horiz-adv-x="717" d="M69 534 L82 607 L146 607 L164 720 L254 720 L236 607 L583 607 L601 720 L691 720 L673 607 L733 607 L720 534 L660 534 L571 0 L481 0 L536 329 L189 329 L134 0 L44 0 L133 534 L69 534 Z M203 415 L550 415 L570 534 L223 534 L203 415 Z " />
<glyph glyph-name="hbar" unicode="&#x127;" horiz-adv-x="556" d="M142 720 L228 720 L216 644 L379 644 L367 576 L204 576 L177 412 Q264 497 358 497 Q488 497 488 362 Q488 339 483 304 L432 0 L345 0 L392 283 Q398 321 398 339 Q398 375 380.5 395.5 Q363 416 321 416 Q279 416 237.5 392 Q196 368 164 337 L108 0 L22 0 L118 576 L53 576 L65 644 L130 644 L142 720 Z " />
<glyph glyph-name="Itilde" unicode="&#x128;" horiz-adv-x="245" d="M27 0 L147 720 L238 720 L118 0 L27 0 Z M319 883 L363 866 Q341 819 318 799.5 Q295 780 264 780 Q240 780 200 796 Q160 812 148 812 Q136 812 126.5 805 Q117 798 102 777 L59 796 Q86 842 107.5 861 Q129 880 155 880 Q178 880 215.5 864 Q253 848 272 848 Q287 848 296 855 Q305 862 319 883 Z " />
<glyph glyph-name="itilde" unicode="&#x129;" horiz-adv-x="240" d="M287 707 L331 690 Q309 643 286 623.5 Q263 604 232 604 Q208 604 168 620 Q128 636 116 636 Q104 636 94.5 629 Q85 622 70 601 L27 620 Q54 666 75.5 685 Q97 704 123 704 Q146 704 183.5 688 Q221 672 240 672 Q255 672 264 679 Q273 686 287 707 Z M201 523 L113 0 L28 0 L116 523 L201 523 Z " />
<glyph glyph-name="Imacron" unicode="&#x12a;" horiz-adv-x="245" d="M27 0 L147 720 L238 720 L118 0 L27 0 Z M66 785 L77 852 L346 852 L335 785 L66 785 Z " />
<glyph glyph-name="imacron" unicode="&#x12b;" horiz-adv-x="240" d="M50 683 L319 683 L308 616 L39 616 L50 683 Z M201 523 L113 0 L28 0 L116 523 L201 523 Z " />
<glyph glyph-name="Ibreve" unicode="&#x12c;" horiz-adv-x="245" d="M27 0 L147 720 L238 720 L118 0 L27 0 Z M204 829 Q248 829 268 846.5 Q288 864 299 898 L358 888 Q340 828 301 798.5 Q262 769 195 769 Q127 769 97.5 796.5 Q68 824 68 887 L135 898 Q136 862 149.5 845.5 Q163 829 204 829 Z " />
<glyph glyph-name="ibreve" unicode="&#x12d;" horiz-adv-x="240" d="M171 654 Q214 654 234 673.5 Q254 693 268 733 L327 723 Q309 657 269 625.5 Q229 594 162 594 Q96 594 67 623 Q38 652 38 715 L38 722 L105 733 Q106 712 108 700 Q110 688 116.5 676 Q123 664 136 659 Q149 654 171 654 Z M201 523 L113 0 L28 0 L116 523 L201 523 Z " />
<glyph glyph-name="Iogonek" unicode="&#x12e;" horiz-adv-x="245" d="M27 0 L147 720 L238 720 L118 0 Q70 -42 46 -73 Q22 -104 22 -132 Q22 -146 29 -152 Q36 -158 53 -158 Q73 -158 106 -146 L116 -197 Q66 -226 11 -226 Q-27 -226 -46 -208.5 Q-65 -191 -65 -162 Q-65 -84 44 0 L27 0 Z " />
<glyph glyph-name="iogonek" unicode="&#x12f;" horiz-adv-x="242" d="M202 525 L114 0 Q66 -42 42 -73 Q18 -104 18 -132 Q18 -146 25 -152 Q32 -158 49 -158 Q69 -158 102 -146 L112 -197 Q92 -209 64 -217.5 Q36 -226 8 -226 Q-30 -226 -49.5 -208.5 Q-69 -191 -69 -162 Q-69 -84 40 0 L28 0 L116 525 L202 525 Z M126 659 Q126 685 146 701.5 Q166 718 192 718 Q214 718 226.5 706 Q239 694 239 674 Q239 648 220.5 632.5 Q202 617 175 617 Q153 617 139.5 628.5 Q126 640 126 659 Z " />
<glyph glyph-name="Idotaccent" unicode="&#x130;" horiz-adv-x="245" d="M27 0 L147 720 L238 720 L118 0 L27 0 Z M153 813 Q153 839 172.5 855 Q192 871 220 871 Q242 871 254.5 859.5 Q267 848 267 828 Q267 802 248.5 786 Q230 770 203 770 Q181 770 167 781.5 Q153 793 153 813 Z " />
<glyph glyph-name="dotlessi" unicode="&#x131;" horiz-adv-x="241" d="M201 523 L113 0 L28 0 L116 523 L201 523 Z " />
<glyph glyph-name="IJ" unicode="&#x132;" horiz-adv-x="632" d="M27 0 L147 720 L238 720 L118 0 L27 0 Z M627 720 L535 166 Q519 74 474.5 31 Q430 -12 350 -12 Q262 -12 212 14 L243 90 Q288 69 340 69 Q390 69 413.5 93 Q437 117 448 183 L537 720 L627 720 Z " />
<glyph glyph-name="ij" unicode="&#x133;" horiz-adv-x="452" d="M202 525 L114 0 L28 0 L116 525 L202 525 Z M126 659 Q126 685 146 701.5 Q166 718 192 718 Q214 718 226.5 706 Q239 694 239 674 Q239 648 220.5 632.5 Q202 617 175 617 Q153 617 139.5 628.5 Q126 640 126 659 Z M338 659 Q338 685 358 701.5 Q378 718 404 718 Q426 718 438.5 706 Q451 694 451 674 Q451 648 432.5 632.5 Q414 617 387 617 Q365 617 351.5 628.5 Q338 640 338 659 Z M413 525 L314 -68 Q303 -136 271 -169.5 Q239 -203 175 -203 Q129 -203 104 -193 L122 -126 Q138 -132 165 -132 Q193 -132 208 -117.5 Q223 -103 230 -61 L328 525 L413 525 Z " />
<glyph glyph-name="Jcircumflex" unicode="&#x134;" horiz-adv-x="388" d="M383 720 L291 166 Q275 74 230.5 31 Q186 -12 106 -12 Q18 -12 -32 14 L-1 90 Q44 69 96 69 Q146 69 169.5 93 Q193 117 204 183 L293 720 L383 720 Z M334 909 L395 909 L476 798 L432 761 L352 838 L245 761 L213 798 L334 909 Z " />
<glyph glyph-name="jcircumflex" unicode="&#x135;" horiz-adv-x="240" d="M201 525 L102 -68 Q91 -136 59 -169.5 Q27 -203 -37 -203 Q-83 -203 -108 -193 L-90 -126 Q-74 -132 -47 -132 Q-19 -132 -4 -117.5 Q11 -103 18 -61 L116 525 L201 525 Z M164 756 L224 756 L303 609 L254 577 L182 682 L75 578 L33 610 L164 756 Z " />
<glyph glyph-name="Kcommaaccent" unicode="&#x136;" horiz-adv-x="623" d="M27 0 L147 720 L238 720 L187 410 L312 410 L540 720 L640 720 L384 374 L554 0 L450 0 L298 330 L173 330 L118 0 L27 0 Z M152 -223 L219 -60 L295 -81 L212 -243 L152 -223 Z " />
<glyph glyph-name="kcommaaccent" unicode="&#x137;" horiz-adv-x="510" d="M228 720 L163 329 L220 329 L410 525 L509 525 L285 293 L445 0 L343 0 L203 255 L151 255 L108 0 L22 0 L142 720 L228 720 Z M23 -223 L90 -60 L166 -81 L83 -243 L23 -223 Z " />
<glyph glyph-name="kgreenlandic" unicode="&#x138;" horiz-adv-x="503" d="M184 525 L150 323 L204 323 L403 525 L497 525 L268 289 L435 0 L340 0 L190 253 L138 253 L96 0 L10 0 L98 525 L184 525 Z " />
<glyph glyph-name="Lacute" unicode="&#x139;" horiz-adv-x="515" d="M147 720 L238 720 L132 83 L453 83 L439 0 L27 0 L147 720 Z M131 812 L314 915 L339 839 L153 754 L131 812 Z " />
<glyph glyph-name="lacute" unicode="&#x13a;" horiz-adv-x="232" d="M109 0 L23 0 L143 720 L229 720 L109 0 Z M92 812 L275 915 L300 839 L114 754 L92 812 Z " />
<glyph glyph-name="Lcommaaccent" unicode="&#x13b;" horiz-adv-x="515" d="M147 720 L238 720 L132 83 L453 83 L439 0 L27 0 L147 720 Z M123 -223 L190 -60 L266 -81 L183 -243 L123 -223 Z " />
<glyph glyph-name="lcommaaccent" unicode="&#x13c;" horiz-adv-x="232" d="M109 0 L23 0 L143 720 L229 720 L109 0 Z M-54 -223 L13 -60 L89 -81 L6 -243 L-54 -223 Z " />
<glyph glyph-name="Lcaron" unicode="&#x13d;" horiz-adv-x="515" d="M147 720 L238 720 L132 83 L453 83 L439 0 L27 0 L147 720 Z M372 532 L433 720 L524 720 L443 532 L372 532 Z " />
<glyph glyph-name="lcaron" unicode="&#x13e;" horiz-adv-x="285" d="M109 0 L23 0 L143 720 L229 720 L109 0 Z M259 532 L320 720 L411 720 L330 532 L259 532 Z " />
<glyph glyph-name="Ldot" unicode="&#x13f;" horiz-adv-x="516" d="M334 365 Q334 395 354 412 Q374 429 403 429 Q427 429 441 416.5 Q455 404 455 382 Q455 354 434.5 336.5 Q414 319 384 319 Q362 319 348 331 Q334 343 334 365 Z M147 720 L238 720 L132 83 L453 83 L439 0 L27 0 L147 720 Z " />
<glyph glyph-name="ldot" unicode="&#x140;" horiz-adv-x="337" d="M228 347 Q228 377 248.5 393.5 Q269 410 298 410 Q322 410 335.5 398.5 Q349 387 349 365 Q349 335 329 317.5 Q309 300 279 300 Q257 300 242.5 312.5 Q228 325 228 347 Z M109 0 L23 0 L143 720 L229 720 L109 0 Z " />
<glyph glyph-name="Lslash" unicode="&#x141;" horiz-adv-x="515" d="M147 720 L238 720 L185 400 L397 478 L385 408 L173 330 L132 82 L453 82 L439 0 L27 0 L77 300 L-14 264 L-2 334 L89 369 L147 720 Z " />
<glyph glyph-name="lslash" unicode="&#x142;" horiz-adv-x="251" d="M10 286 L22 356 L96 387 L151 720 L237 720 L187 418 L271 454 L259 385 L175 348 L117 0 L31 0 L84 317 L10 286 Z " />
<glyph glyph-name="Nacute" unicode="&#x143;" horiz-adv-x="686" d="M27 0 L147 720 L229 720 L499 161 L590 720 L679 720 L559 0 L480 0 L208 558 L116 0 L27 0 Z M350 812 L533 915 L558 839 L372 754 L350 812 Z " />
<glyph glyph-name="nacute" unicode="&#x144;" horiz-adv-x="556" d="M110 525 L184 525 L177 448 Q217 488 264.5 512.5 Q312 537 362 537 Q495 537 495 402 Q495 379 490 344 L432 0 L345 0 L399 322 Q403 346 403 371 Q403 415 384.5 436 Q366 457 329 457 Q285 457 241 430.5 Q197 404 171 377 L108 0 L22 0 L110 525 Z M268 633 L432 770 L473 706 L302 583 L268 633 Z " />
<glyph glyph-name="Ncommaaccent" unicode="&#x145;" horiz-adv-x="686" d="M27 0 L147 720 L229 720 L499 161 L590 720 L679 720 L559 0 L480 0 L208 558 L116 0 L27 0 Z M187 -223 L254 -60 L330 -81 L247 -243 L187 -223 Z " />
<glyph glyph-name="ncommaaccent" unicode="&#x146;" horiz-adv-x="556" d="M110 525 L184 525 L177 448 Q217 488 264.5 512.5 Q312 537 362 537 Q495 537 495 402 Q495 379 490 344 L432 0 L345 0 L399 322 Q403 346 403 371 Q403 415 384.5 436 Q366 457 329 457 Q285 457 241 430.5 Q197 404 171 377 L108 0 L22 0 L110 525 Z M129 -223 L196 -60 L272 -81 L189 -243 L129 -223 Z " />
<glyph glyph-name="Ncaron" unicode="&#x147;" horiz-adv-x="686" d="M27 0 L147 720 L229 720 L499 161 L590 720 L679 720 L559 0 L480 0 L208 558 L116 0 L27 0 Z M451 765 L391 765 L306 876 L352 913 L433 836 L539 913 L569 876 L451 765 Z " />
<glyph glyph-name="ncaron" unicode="&#x148;" horiz-adv-x="556" d="M110 525 L184 525 L177 448 Q217 488 264.5 512.5 Q312 537 362 537 Q495 537 495 402 Q495 379 490 344 L432 0 L345 0 L399 322 Q403 346 403 371 Q403 415 384.5 436 Q366 457 329 457 Q285 457 241 430.5 Q197 404 171 377 L108 0 L22 0 L110 525 Z M356 582 L297 582 L215 728 L267 760 L340 656 L447 762 L485 729 L356 582 Z " />
<glyph glyph-name="napostrophe" unicode="&#x149;" horiz-adv-x="574" d="M19 640 Q19 664 35.5 678.5 Q52 693 78 693 Q99 693 110 679 Q121 665 121 643 Q121 600 96.5 565 Q72 530 12 504 L2 533 Q35 551 47.5 565.5 Q60 580 65 603 L58 603 Q40 603 29.5 613 Q19 623 19 640 Z M128 525 L202 525 L195 448 Q235 488 282.5 512.5 Q330 537 380 537 Q513 537 513 402 Q513 379 508 344 L450 0 L363 0 L417 322 Q421 346 421 371 Q421 415 402.5 436 Q384 457 347 457 Q303 457 259 430.5 Q215 404 189 377 L126 0 L40 0 L128 525 Z " />
<glyph glyph-name="Eng" unicode="&#x14a;" horiz-adv-x="686" d="M27 0 L147 720 L229 720 L499 171 L590 720 L679 720 L550 -51 Q538 -121 497 -162 Q456 -203 380 -203 Q351 -203 319 -197.5 Q287 -192 273 -186 L292 -120 Q302 -124 326 -128.5 Q350 -133 373 -133 Q449 -133 464 -45 L474 10 L208 550 L116 0 L27 0 Z " />
<glyph glyph-name="eng" unicode="&#x14b;" horiz-adv-x="553" d="M110 525 L184 525 L177 448 Q217 488 263.5 512.5 Q310 537 358 537 Q492 537 492 402 Q492 374 486 341 L418 -65 Q406 -132 374 -167.5 Q342 -203 278 -203 Q233 -203 208 -193 L225 -129 Q251 -135 268 -135 Q296 -135 311 -120.5 Q326 -106 332 -65 L398 327 Q403 359 403 377 Q403 421 383.5 442 Q364 463 320 463 Q252 463 172 380 L108 0 L22 0 L110 525 Z " />
<glyph glyph-name="Omacron" unicode="&#x14c;" horiz-adv-x="746" d="M159 374 Q150 316 150 274 Q150 172 198.5 120.5 Q247 69 335 69 Q559 69 610 360 Q616 394 616 445 Q616 542 567 595 Q518 648 432 648 Q326 648 253.5 577 Q181 506 159 374 Z M61 367 Q75 457 110.5 527.5 Q146 598 197.5 642.5 Q249 687 312.5 710 Q376 733 447 733 Q571 733 642 659.5 Q713 586 713 451 Q713 419 706 367 Q691 268 655 193.5 Q619 119 567.5 75 Q516 31 455.5 9.5 Q395 -12 325 -12 Q198 -12 125.5 59.5 Q53 131 53 271 Q53 313 61 367 Z M316 785 L327 852 L596 852 L585 785 L316 785 Z " />
<glyph glyph-name="omacron" unicode="&#x14d;" horiz-adv-x="574" d="M129 264 Q124 228 124 201 Q124 66 244 66 Q310 66 359.5 115 Q409 164 425 261 Q430 295 430 318 Q430 388 397 423.5 Q364 459 308 459 Q242 459 193.5 409.5 Q145 360 129 264 Z M37 260 Q56 393 134.5 465 Q213 537 324 537 Q418 537 470 482.5 Q522 428 522 328 Q522 291 517 262 Q503 170 461 107.5 Q419 45 361 16.5 Q303 -12 230 -12 Q134 -12 83 41.5 Q32 95 32 195 Q32 222 37 260 Z M219 683 L488 683 L477 616 L208 616 L219 683 Z " />
<glyph glyph-name="Obreve" unicode="&#x14e;" horiz-adv-x="746" d="M159 374 Q150 316 150 274 Q150 172 198.5 120.5 Q247 69 335 69 Q559 69 610 360 Q616 394 616 445 Q616 542 567 595 Q518 648 432 648 Q326 648 253.5 577 Q181 506 159 374 Z M61 367 Q75 457 110.5 527.5 Q146 598 197.5 642.5 Q249 687 312.5 710 Q376 733 447 733 Q571 733 642 659.5 Q713 586 713 451 Q713 419 706 367 Q691 268 655 193.5 Q619 119 567.5 75 Q516 31 455.5 9.5 Q395 -12 325 -12 Q198 -12 125.5 59.5 Q53 131 53 271 Q53 313 61 367 Z M452 829 Q496 829 516 846.5 Q536 864 547 898 L606 888 Q588 828 549 798.5 Q510 769 443 769 Q375 769 345.5 796.5 Q316 824 316 887 L383 898 Q384 862 397.5 845.5 Q411 829 452 829 Z " />
<glyph glyph-name="obreve" unicode="&#x14f;" horiz-adv-x="574" d="M129 264 Q124 228 124 201 Q124 66 244 66 Q310 66 359.5 115 Q409 164 425 261 Q430 295 430 318 Q430 388 397 423.5 Q364 459 308 459 Q242 459 193.5 409.5 Q145 360 129 264 Z M37 260 Q56 393 134.5 465 Q213 537 324 537 Q418 537 470 482.5 Q522 428 522 328 Q522 291 517 262 Q503 170 461 107.5 Q419 45 361 16.5 Q303 -12 230 -12 Q134 -12 83 41.5 Q32 95 32 195 Q32 222 37 260 Z M344 654 Q387 654 407 673.5 Q427 693 441 733 L500 723 Q482 657 442 625.5 Q402 594 335 594 Q269 594 240 623 Q211 652 211 715 L211 722 L278 733 Q279 712 281 700 Q283 688 289.5 676 Q296 664 309 659 Q322 654 344 654 Z " />
<glyph glyph-name="Ohungarumlaut" unicode="&#x150;" horiz-adv-x="746" d="M159 374 Q150 316 150 274 Q150 172 198.5 120.5 Q247 69 335 69 Q559 69 610 360 Q616 394 616 445 Q616 542 567 595 Q518 648 432 648 Q326 648 253.5 577 Q181 506 159 374 Z M61 367 Q75 457 110.5 527.5 Q146 598 197.5 642.5 Q249 687 312.5 710 Q376 733 447 733 Q571 733 642 659.5 Q713 586 713 451 Q713 419 706 367 Q691 268 655 193.5 Q619 119 567.5 75 Q516 31 455.5 9.5 Q395 -12 325 -12 Q198 -12 125.5 59.5 Q53 131 53 271 Q53 313 61 367 Z M448 943 L501 892 L350 754 L307 795 L448 943 Z M585 929 L636 875 L492 753 L451 798 L585 929 Z " />
<glyph glyph-name="ohungarumlaut" unicode="&#x151;" horiz-adv-x="574" d="M129 264 Q124 228 124 201 Q124 66 244 66 Q310 66 359.5 115 Q409 164 425 261 Q430 295 430 318 Q430 388 397 423.5 Q364 459 308 459 Q242 459 193.5 409.5 Q145 360 129 264 Z M37 260 Q56 393 134.5 465 Q213 537 324 537 Q418 537 470 482.5 Q522 428 522 328 Q522 291 517 262 Q503 170 461 107.5 Q419 45 361 16.5 Q303 -12 230 -12 Q134 -12 83 41.5 Q32 95 32 195 Q32 222 37 260 Z M334 773 L402 732 L271 582 L217 618 L334 773 Z M475 759 L538 715 L411 581 L359 617 L475 759 Z " />
<glyph glyph-name="OE" unicode="&#x152;" horiz-adv-x="1096" d="M551 0 L575 143 Q533 67 461.5 27.5 Q390 -12 305 -12 Q190 -12 122 62.5 Q54 137 54 281 Q54 389 84.5 476.5 Q115 564 167.5 619 Q220 674 288.5 703 Q357 732 435 732 Q517 732 574.5 693 Q632 654 648 582 L671 720 L1110 720 L1097 638 L741 638 L702 408 L1026 408 L1013 330 L689 330 L648 82 L1011 82 L997 0 L551 0 Z M151 295 Q151 187 199 130 Q247 73 334 73 Q380 73 421.5 86.5 Q463 100 498.5 128 Q534 156 560 197.5 Q586 239 600.5 299.5 Q615 360 615 433 Q615 540 565 593.5 Q515 647 430 647 Q306 647 228.5 552 Q151 457 151 295 Z " />
<glyph glyph-name="oe" unicode="&#x153;" horiz-adv-x="920" d="M35 201 Q35 355 118 446 Q201 537 333 537 Q393 537 438 506 Q483 475 500 420 Q534 474 591.5 505.5 Q649 537 714 537 Q794 537 838.5 496.5 Q883 456 883 392 Q883 330 846.5 290 Q810 250 728 226 Q646 202 512 197 Q512 173 518 151.5 Q524 130 537 109 Q550 88 577.5 75.5 Q605 63 643 63 Q683 63 721.5 76 Q760 89 807 118 L831 58 Q737 -12 623 -12 Q559 -12 512.5 18.5 Q466 49 447 104 Q415 50 355 19 Q295 -12 228 -12 Q136 -12 85.5 43.5 Q35 99 35 201 Z M127 214 Q127 140 159 103 Q191 66 246 66 Q284 66 316 80 Q348 94 369.5 117 Q391 140 405.5 172 Q420 204 427 238 Q434 272 434 309 Q434 383 401 421 Q368 459 313 459 Q233 459 180 394.5 Q127 330 127 214 Z M703 464 Q633 464 582.5 411 Q532 358 516 262 Q582 264 631.5 272.5 Q681 281 711.5 292.5 Q742 304 762 320.5 Q782 337 789 354 Q796 371 796 391 Q796 425 771.5 444.5 Q747 464 703 464 Z " />
<glyph glyph-name="Racute" unicode="&#x154;" horiz-adv-x="618" d="M147 720 L375 720 Q481 720 534.5 673 Q588 626 588 544 Q588 380 435 309 L539 0 L439 0 L344 286 Q310 280 271 280 L165 280 L118 0 L27 0 L147 720 Z M359 639 L225 639 L178 358 L305 358 Q401 358 447.5 403 Q494 448 494 531 Q494 639 359 639 Z M281 812 L464 915 L489 839 L303 754 L281 812 Z " />
<glyph glyph-name="racute" unicode="&#x155;" horiz-adv-x="328" d="M181 525 L173 445 Q199 485 234 511 Q269 537 305 537 Q327 537 351 528 L328 442 Q314 448 285 448 Q254 448 222 422 Q190 396 169 363 L108 0 L22 0 L110 525 L181 525 Z M151 633 L315 770 L356 706 L185 583 L151 633 Z " />
<glyph glyph-name="Rcommaaccent" unicode="&#x156;" horiz-adv-x="618" d="M147 720 L375 720 Q481 720 534.5 673 Q588 626 588 544 Q588 380 435 309 L539 0 L439 0 L344 286 Q310 280 271 280 L165 280 L118 0 L27 0 L147 720 Z M359 639 L225 639 L178 358 L305 358 Q401 358 447.5 403 Q494 448 494 531 Q494 639 359 639 Z M171 -223 L238 -60 L314 -81 L231 -243 L171 -223 Z " />
<glyph glyph-name="rcommaaccent" unicode="&#x157;" horiz-adv-x="328" d="M181 525 L173 445 Q199 485 234 511 Q269 537 305 537 Q327 537 351 528 L328 442 Q314 448 285 448 Q254 448 222 422 Q190 396 169 363 L108 0 L22 0 L110 525 L181 525 Z M-50 -223 L17 -60 L93 -81 L10 -243 L-50 -223 Z " />
<glyph glyph-name="Rcaron" unicode="&#x158;" horiz-adv-x="618" d="M147 720 L375 720 Q481 720 534.5 673 Q588 626 588 544 Q588 380 435 309 L539 0 L439 0 L344 286 Q310 280 271 280 L165 280 L118 0 L27 0 L147 720 Z M359 639 L225 639 L178 358 L305 358 Q401 358 447.5 403 Q494 448 494 531 Q494 639 359 639 Z M385 765 L325 765 L240 876 L286 913 L367 836 L473 913 L503 876 L385 765 Z " />
<glyph glyph-name="rcaron" unicode="&#x159;" horiz-adv-x="328" d="M181 525 L173 445 Q199 485 234 511 Q269 537 305 537 Q327 537 351 528 L328 442 Q314 448 285 448 Q254 448 222 422 Q190 396 169 363 L108 0 L22 0 L110 525 L181 525 Z M270 582 L211 582 L129 728 L181 760 L254 656 L361 762 L399 729 L270 582 Z " />
<glyph glyph-name="Sacute" unicode="&#x15a;" horiz-adv-x="568" d="M-2 99 L58 159 Q144 66 243 66 Q316 66 363 105 Q410 144 410 212 Q410 254 379 281 Q348 308 271 333 Q177 364 135 405 Q93 446 93 510 Q93 565 113 608 Q133 651 168.5 678 Q204 705 251 719 Q298 733 354 733 Q422 733 477 707 Q532 681 569 630 L510 573 Q480 613 437 634 Q394 655 347 655 Q275 655 232 623.5 Q189 592 189 534 Q189 513 196 496.5 Q203 480 213.5 468.5 Q224 457 246 445.5 Q268 434 287 426 Q306 418 341 405 Q429 373 468.5 332.5 Q508 292 508 223 Q508 119 432 53.5 Q356 -12 236 -12 Q160 -12 98 17.5 Q36 47 -2 99 Z M284 812 L467 915 L492 839 L306 754 L284 812 Z " />
<glyph glyph-name="sacute" unicode="&#x15b;" horiz-adv-x="480" d="M-9 73 L41 129 Q73 98 112.5 80 Q152 62 191 62 Q248 62 281 87 Q314 112 314 154 Q314 183 291.5 199 Q269 215 209 231 Q135 251 101 281.5 Q67 312 67 361 Q67 441 126.5 489 Q186 537 280 537 Q391 537 455 459 L406 406 Q349 466 271 466 Q219 466 189 443.5 Q159 421 159 382 Q159 353 183 337.5 Q207 322 269 304 Q343 284 376.5 253.5 Q410 223 410 174 Q410 90 347.5 39 Q285 -12 185 -12 Q123 -12 72.5 11.5 Q22 35 -9 73 Z M202 633 L366 770 L407 706 L236 583 L202 633 Z " />
<glyph glyph-name="Scircumflex" unicode="&#x15c;" horiz-adv-x="568" d="M-2 99 L58 159 Q144 66 243 66 Q316 66 363 105 Q410 144 410 212 Q410 254 379 281 Q348 308 271 333 Q177 364 135 405 Q93 446 93 510 Q93 565 113 608 Q133 651 168.5 678 Q204 705 251 719 Q298 733 354 733 Q422 733 477 707 Q532 681 569 630 L510 573 Q480 613 437 634 Q394 655 347 655 Q275 655 232 623.5 Q189 592 189 534 Q189 513 196 496.5 Q203 480 213.5 468.5 Q224 457 246 445.5 Q268 434 287 426 Q306 418 341 405 Q429 373 468.5 332.5 Q508 292 508 223 Q508 119 432 53.5 Q356 -12 236 -12 Q160 -12 98 17.5 Q36 47 -2 99 Z M364 909 L425 909 L506 798 L462 761 L382 838 L275 761 L243 798 L364 909 Z " />
<glyph glyph-name="scircumflex" unicode="&#x15d;" horiz-adv-x="480" d="M-9 73 L41 129 Q73 98 112.5 80 Q152 62 191 62 Q248 62 281 87 Q314 112 314 154 Q314 183 291.5 199 Q269 215 209 231 Q135 251 101 281.5 Q67 312 67 361 Q67 441 126.5 489 Q186 537 280 537 Q391 537 455 459 L406 406 Q349 466 271 466 Q219 466 189 443.5 Q159 421 159 382 Q159 353 183 337.5 Q207 322 269 304 Q343 284 376.5 253.5 Q410 223 410 174 Q410 90 347.5 39 Q285 -12 185 -12 Q123 -12 72.5 11.5 Q22 35 -9 73 Z M296 756 L356 756 L435 609 L386 577 L314 682 L207 578 L165 610 L296 756 Z " />
<glyph glyph-name="Scedilla" unicode="&#x15e;" horiz-adv-x="568" d="M123 -196 L142 -148 Q173 -160 201 -160 Q249 -160 249 -123 Q249 -108 235.5 -102.5 Q222 -97 193 -97 L172 -97 L204 -11 Q138 -6 85 23 Q32 52 -2 99 L58 159 Q144 66 243 66 Q316 66 363 105 Q410 144 410 212 Q410 254 379.5 280 Q349 306 271 331 Q175 363 134 401.5 Q93 440 93 503 Q93 558 113.5 602 Q134 646 170.5 674.5 Q207 703 255 718 Q303 733 358 733 Q496 733 569 630 L510 573 Q480 613 437 634 Q394 655 347 655 Q279 655 234 621.5 Q189 588 189 528 Q189 516 191.5 506 Q194 496 200 486.5 Q206 477 212 470 Q218 463 230 455.5 Q242 448 252 443 Q262 438 279.5 430.5 Q297 423 309.5 418.5 Q322 414 345 405 Q432 374 470 334.5 Q508 295 508 233 Q508 129 438 63.5 Q368 -2 258 -11 L243 -52 Q319 -56 319 -114 Q319 -162 287.5 -187 Q256 -212 200 -212 Q178 -212 155.5 -207 Q133 -202 123 -196 Z " />
<glyph glyph-name="scedilla" unicode="&#x15f;" horiz-adv-x="480" d="M59 -196 L79 -148 Q110 -160 138 -160 Q185 -160 185 -123 Q185 -108 171.5 -102.5 Q158 -97 130 -97 L109 -97 L142 -8 Q95 -2 56.5 20 Q18 42 -7 73 L43 129 Q75 98 114.5 80 Q154 62 193 62 Q250 62 283 86.5 Q316 111 316 153 Q316 182 291 199.5 Q266 217 205 233 Q132 253 100 282 Q68 311 68 359 Q68 440 127 488.5 Q186 537 282 537 Q393 537 457 459 L408 406 Q351 466 273 466 Q221 466 192 444 Q163 422 163 384 Q163 355 188 338.5 Q213 322 273 304 Q347 282 379.5 252.5 Q412 223 412 174 Q412 91 352 40.5 Q292 -10 195 -12 L180 -52 Q256 -56 256 -114 Q256 -162 224.5 -187 Q193 -212 136 -212 Q91 -212 59 -196 Z " />
<glyph glyph-name="Scaron" unicode="&#x160;" horiz-adv-x="568" d="M-2 99 L58 159 Q144 66 243 66 Q316 66 363 105 Q410 144 410 212 Q410 254 379 281 Q348 308 271 333 Q177 364 135 405 Q93 446 93 510 Q93 565 113 608 Q133 651 168.5 678 Q204 705 251 719 Q298 733 354 733 Q422 733 477 707 Q532 681 569 630 L510 573 Q480 613 437 634 Q394 655 347 655 Q275 655 232 623.5 Q189 592 189 534 Q189 513 196 496.5 Q203 480 213.5 468.5 Q224 457 246 445.5 Q268 434 287 426 Q306 418 341 405 Q429 373 468.5 332.5 Q508 292 508 223 Q508 119 432 53.5 Q356 -12 236 -12 Q160 -12 98 17.5 Q36 47 -2 99 Z M395 777 L335 777 L250 888 L296 925 L377 848 L483 925 L513 888 L395 777 Z " />
<glyph glyph-name="scaron" unicode="&#x161;" horiz-adv-x="480" d="M-9 73 L41 129 Q73 98 112.5 80 Q152 62 191 62 Q248 62 281 87 Q314 112 314 154 Q314 183 291.5 199 Q269 215 209 231 Q135 251 101 281.5 Q67 312 67 361 Q67 441 126.5 489 Q186 537 280 537 Q391 537 455 459 L406 406 Q349 466 271 466 Q219 466 189 443.5 Q159 421 159 382 Q159 353 183 337.5 Q207 322 269 304 Q343 284 376.5 253.5 Q410 223 410 174 Q410 90 347.5 39 Q285 -12 185 -12 Q123 -12 72.5 11.5 Q22 35 -9 73 Z M321 582 L262 582 L180 728 L232 760 L305 656 L412 762 L450 729 L321 582 Z " />
<glyph glyph-name="Scommaaccent" unicode="&#x218;" horiz-adv-x="568" d="M-2 99 L58 159 Q144 66 243 66 Q316 66 363 105 Q410 144 410 212 Q410 254 379 281 Q348 308 271 333 Q177 364 135 405 Q93 446 93 510 Q93 565 113 608 Q133 651 168.5 678 Q204 705 251 719 Q298 733 354 733 Q422 733 477 707 Q532 681 569 630 L510 573 Q480 613 437 634 Q394 655 347 655 Q275 655 232 623.5 Q189 592 189 534 Q189 513 196 496.5 Q203 480 213.5 468.5 Q224 457 246 445.5 Q268 434 287 426 Q306 418 341 405 Q429 373 468.5 332.5 Q508 292 508 223 Q508 119 432 53.5 Q356 -12 236 -12 Q160 -12 98 17.5 Q36 47 -2 99 Z M139 -223 L206 -60 L282 -81 L199 -243 L139 -223 Z " />
<glyph glyph-name="scommaaccent" unicode="&#x219;" horiz-adv-x="480" d="M-9 73 L41 129 Q73 98 112.5 80 Q152 62 191 62 Q248 62 281 87 Q314 112 314 154 Q314 183 291.5 199 Q269 215 209 231 Q135 251 101 281.5 Q67 312 67 361 Q67 441 126.5 489 Q186 537 280 537 Q391 537 455 459 L406 406 Q349 466 271 466 Q219 466 189 443.5 Q159 421 159 382 Q159 353 183 337.5 Q207 322 269 304 Q343 284 376.5 253.5 Q410 223 410 174 Q410 90 347.5 39 Q285 -12 185 -12 Q123 -12 72.5 11.5 Q22 35 -9 73 Z M71 -223 L138 -60 L214 -81 L131 -243 L71 -223 Z " />
<glyph glyph-name="uni021A" unicode="&#x21a;" horiz-adv-x="562" d="M186 0 L292 636 L74 636 L88 720 L614 720 L600 636 L383 636 L277 0 L186 0 Z M110 -223 L177 -60 L253 -81 L170 -243 L110 -223 Z " />
<glyph glyph-name="uni021B" unicode="&#x21b;" horiz-adv-x="299" d="M283 453 L200 453 L142 106 Q141 101 141 91 Q141 61 173 61 Q195 61 221 70 L220 5 Q176 -12 128 -12 Q52 -12 52 61 Q52 73 55 90 L116 453 L51 453 L60 508 L129 524 L163 670 L236 670 L212 525 L295 525 L283 453 Z M18 -223 L85 -60 L161 -81 L78 -243 L18 -223 Z " />
<glyph glyph-name="Tcaron" unicode="&#x164;" horiz-adv-x="562" d="M186 0 L292 636 L74 636 L88 720 L614 720 L600 636 L383 636 L277 0 L186 0 Z M383 765 L323 765 L238 876 L284 913 L365 836 L471 913 L501 876 L383 765 Z " />
<glyph glyph-name="tcaron" unicode="&#x165;" horiz-adv-x="299" d="M283 453 L200 453 L142 106 Q141 101 141 91 Q141 61 173 61 Q195 61 221 70 L220 5 Q176 -12 128 -12 Q52 -12 52 61 Q52 73 55 90 L116 453 L51 453 L60 508 L129 524 L163 670 L236 670 L212 525 L295 525 L283 453 Z M288 580 L349 768 L440 768 L359 580 L288 580 Z " />
<glyph glyph-name="Tbar" unicode="&#x166;" horiz-adv-x="562" d="M123 326 L135 403 L253 403 L292 636 L74 636 L88 720 L614 720 L600 636 L383 636 L344 403 L470 403 L458 326 L332 326 L277 0 L186 0 L241 326 L123 326 Z " />
<glyph glyph-name="tbar" unicode="&#x167;" horiz-adv-x="299" d="M286 453 L203 453 L183 335 L266 335 L255 267 L172 267 L145 106 Q144 101 144 91 Q144 61 176 61 Q198 61 224 70 L223 5 Q179 -12 131 -12 Q55 -12 55 61 Q55 73 58 90 L88 267 L23 267 L34 335 L99 335 L119 453 L54 453 L63 508 L132 524 L166 670 L239 670 L215 525 L298 525 L286 453 Z " />
<glyph glyph-name="uni0162" unicode="&#x162;" horiz-adv-x="562" d="M186 0 L292 636 L74 636 L88 720 L614 720 L600 636 L383 636 L277 0 L251 0 L233 -52 Q308 -56 308 -114 Q308 -162 276 -187 Q244 -212 189 -212 Q144 -212 112 -196 L132 -148 Q161 -160 190 -160 Q238 -160 238 -123 Q238 -108 224.5 -102.5 Q211 -97 183 -97 L161 -97 L198 0 L186 0 Z " />
<glyph glyph-name="uni0163" unicode="&#x163;" horiz-adv-x="299" d="M3 -196 L23 -148 Q52 -160 81 -160 Q129 -160 129 -123 Q129 -108 115.5 -102.5 Q102 -97 73 -97 L52 -97 L86 -3 Q55 14 55 60 Q55 74 58 90 L119 453 L54 453 L63 508 L132 524 L166 670 L239 670 L215 525 L298 525 L286 453 L203 453 L145 106 Q144 101 144 91 Q144 61 176 61 Q198 61 224 70 L223 5 Q183 -11 138 -12 L123 -52 Q199 -56 199 -114 Q199 -162 167.5 -187 Q136 -212 80 -212 Q58 -212 35.5 -207 Q13 -202 3 -196 Z " />
<glyph glyph-name="Utilde" unicode="&#x168;" horiz-adv-x="673" d="M142 720 L232 720 L158 276 Q153 241 153 219 Q153 145 191.5 107.5 Q230 70 301 70 Q393 70 441.5 121 Q490 172 507 276 L581 720 L671 720 L596 268 Q573 129 493.5 58.5 Q414 -12 284 -12 Q178 -12 119.5 39.5 Q61 91 61 195 Q61 229 67 268 L142 720 Z M538 883 L582 866 Q560 819 537 799.5 Q514 780 483 780 Q459 780 419 796 Q379 812 367 812 Q355 812 345.5 805 Q336 798 321 777 L278 796 Q305 842 326.5 861 Q348 880 374 880 Q397 880 434.5 864 Q472 848 491 848 Q506 848 515 855 Q524 862 538 883 Z " />
<glyph glyph-name="utilde" unicode="&#x169;" horiz-adv-x="546" d="M424 0 L352 0 L358 76 Q272 -12 180 -12 Q42 -12 42 118 Q42 142 47 173 L106 525 L193 525 L137 194 Q131 152 131 138 Q131 102 147.5 85 Q164 68 203 68 Q245 68 288 90.5 Q331 113 363 145 L427 525 L512 525 L424 0 Z M446 707 L490 690 Q468 643 445 623.5 Q422 604 391 604 Q367 604 327 620 Q287 636 275 636 Q263 636 253.5 629 Q244 622 229 601 L186 620 Q213 666 234.5 685 Q256 704 282 704 Q305 704 342.5 688 Q380 672 399 672 Q414 672 423 679 Q432 686 446 707 Z " />
<glyph glyph-name="Umacron" unicode="&#x16a;" horiz-adv-x="673" d="M142 720 L232 720 L158 276 Q153 241 153 219 Q153 145 191.5 107.5 Q230 70 301 70 Q393 70 441.5 121 Q490 172 507 276 L581 720 L671 720 L596 268 Q573 129 493.5 58.5 Q414 -12 284 -12 Q178 -12 119.5 39.5 Q61 91 61 195 Q61 229 67 268 L142 720 Z M284 785 L295 852 L564 852 L553 785 L284 785 Z " />
<glyph glyph-name="umacron" unicode="&#x16b;" horiz-adv-x="546" d="M424 0 L352 0 L358 76 Q272 -12 180 -12 Q42 -12 42 118 Q42 142 47 173 L106 525 L193 525 L137 194 Q131 152 131 138 Q131 102 147.5 85 Q164 68 203 68 Q245 68 288 90.5 Q331 113 363 145 L427 525 L512 525 L424 0 Z M209 683 L478 683 L467 616 L198 616 L209 683 Z " />
<glyph glyph-name="Ubreve" unicode="&#x16c;" horiz-adv-x="673" d="M142 720 L232 720 L158 276 Q153 241 153 219 Q153 145 191.5 107.5 Q230 70 301 70 Q393 70 441.5 121 Q490 172 507 276 L581 720 L671 720 L596 268 Q573 129 493.5 58.5 Q414 -12 284 -12 Q178 -12 119.5 39.5 Q61 91 61 195 Q61 229 67 268 L142 720 Z M424 829 Q468 829 488 846.5 Q508 864 519 898 L578 888 Q560 828 521 798.5 Q482 769 415 769 Q347 769 317.5 796.5 Q288 824 288 887 L355 898 Q356 862 369.5 845.5 Q383 829 424 829 Z " />
<glyph glyph-name="ubreve" unicode="&#x16d;" horiz-adv-x="546" d="M424 0 L352 0 L358 76 Q272 -12 180 -12 Q42 -12 42 118 Q42 142 47 173 L106 525 L193 525 L137 194 Q131 152 131 138 Q131 102 147.5 85 Q164 68 203 68 Q245 68 288 90.5 Q331 113 363 145 L427 525 L512 525 L424 0 Z M341 654 Q384 654 404 673.5 Q424 693 438 733 L497 723 Q479 657 439 625.5 Q399 594 332 594 Q266 594 237 623 Q208 652 208 715 L208 722 L275 733 Q276 712 278 700 Q280 688 286.5 676 Q293 664 306 659 Q319 654 341 654 Z " />
<glyph glyph-name="Uring" unicode="&#x16e;" horiz-adv-x="673" d="M142 720 L232 720 L158 276 Q153 241 153 219 Q153 145 191.5 107.5 Q230 70 301 70 Q393 70 441.5 121 Q490 172 507 276 L581 720 L671 720 L596 268 Q573 129 493.5 58.5 Q414 -12 284 -12 Q178 -12 119.5 39.5 Q61 91 61 195 Q61 229 67 268 L142 720 Z M385 806 Q385 791 394 783 Q403 775 419 775 Q440 775 452.5 788 Q465 801 465 823 Q465 853 432 853 Q410 853 397.5 840 Q385 827 385 806 Z M330 798 Q330 843 362.5 873.5 Q395 904 440 904 Q476 904 497.5 883.5 Q519 863 519 829 Q519 783 487.5 754 Q456 725 410 725 Q374 725 352 744.5 Q330 764 330 798 Z " />
<glyph glyph-name="uring" unicode="&#x16f;" horiz-adv-x="546" d="M424 0 L352 0 L358 76 Q272 -12 180 -12 Q42 -12 42 118 Q42 142 47 173 L106 525 L193 525 L137 194 Q131 152 131 138 Q131 102 147.5 85 Q164 68 203 68 Q245 68 288 90.5 Q331 113 363 145 L427 525 L512 525 L424 0 Z M304 657 Q304 642 313 634 Q322 626 338 626 Q359 626 371.5 639 Q384 652 384 674 Q384 704 351 704 Q329 704 316.5 691 Q304 678 304 657 Z M249 649 Q249 694 281.5 724.5 Q314 755 359 755 Q395 755 416.5 734.5 Q438 714 438 680 Q438 634 406.5 605 Q375 576 329 576 Q293 576 271 595.5 Q249 615 249 649 Z " />
<glyph glyph-name="Uhungarumlaut" unicode="&#x170;" horiz-adv-x="673" d="M142 720 L232 720 L158 276 Q153 241 153 219 Q153 145 191.5 107.5 Q230 70 301 70 Q393 70 441.5 121 Q490 172 507 276 L581 720 L671 720 L596 268 Q573 129 493.5 58.5 Q414 -12 284 -12 Q178 -12 119.5 39.5 Q61 91 61 195 Q61 229 67 268 L142 720 Z M406 943 L459 892 L308 754 L265 795 L406 943 Z M543 929 L594 875 L450 753 L409 798 L543 929 Z " />
<glyph glyph-name="uhungarumlaut" unicode="&#x171;" horiz-adv-x="546" d="M424 0 L352 0 L358 76 Q272 -12 180 -12 Q42 -12 42 118 Q42 142 47 173 L106 525 L193 525 L137 194 Q131 152 131 138 Q131 102 147.5 85 Q164 68 203 68 Q245 68 288 90.5 Q331 113 363 145 L427 525 L512 525 L424 0 Z M318 773 L386 732 L255 582 L201 618 L318 773 Z M459 759 L522 715 L395 581 L343 617 L459 759 Z " />
<glyph glyph-name="Uogonek" unicode="&#x172;" horiz-adv-x="673" d="M142 720 L232 720 L158 276 Q153 241 153 219 Q153 145 191.5 107.5 Q230 70 301 70 Q393 70 441.5 121 Q490 172 507 276 L581 720 L671 720 L596 268 Q580 171 536 110 Q492 49 418 5 Q370 -23 339.5 -62.5 Q309 -102 309 -132 Q309 -158 340 -158 Q360 -158 394 -146 L404 -197 Q354 -226 299 -226 Q261 -226 241.5 -208.5 Q222 -191 222 -161 Q222 -90 318 -11 Q307 -12 284 -12 Q178 -12 119.5 39.5 Q61 91 61 195 Q61 229 67 268 L142 720 Z " />
<glyph glyph-name="uogonek" unicode="&#x173;" horiz-adv-x="546" d="M512 525 L424 0 Q376 -42 352 -73 Q328 -104 328 -132 Q328 -158 359 -158 Q379 -158 413 -146 L422 -197 Q402 -209 374 -217.5 Q346 -226 318 -226 Q280 -226 260.5 -208.5 Q241 -191 241 -162 Q241 -82 352 1 L358 76 Q272 -12 175 -12 Q41 -12 41 114 Q41 142 47 173 L106 525 L193 525 L137 194 Q133 172 133 148 Q133 108 151.5 88 Q170 68 213 68 Q286 68 363 145 L427 525 L512 525 Z " />
<glyph glyph-name="Wcircumflex" unicode="&#x174;" horiz-adv-x="901" d="M165 0 L101 720 L192 720 L243 118 L493 720 L579 720 L629 118 L878 720 L970 720 L665 0 L565 0 L512 582 L268 0 L165 0 Z M537 909 L598 909 L679 798 L635 761 L555 838 L448 761 L416 798 L537 909 Z " />
<glyph glyph-name="wcircumflex" unicode="&#x175;" horiz-adv-x="726" d="M651 525 L737 525 L520 0 L428 0 L378 402 L198 0 L105 0 L64 525 L150 525 L173 103 L357 521 L440 521 L491 103 L651 525 Z M410 756 L470 756 L549 609 L500 577 L428 682 L321 578 L279 610 L410 756 Z " />
<glyph glyph-name="Wgrave" unicode="&#x1e80;" horiz-adv-x="901" d="M165 0 L101 720 L192 720 L243 118 L493 720 L579 720 L629 118 L878 720 L970 720 L665 0 L565 0 L512 582 L268 0 L165 0 Z M491 915 L640 812 L599 754 L440 839 L491 915 Z " />
<glyph glyph-name="wgrave" unicode="&#x1e81;" horiz-adv-x="726" d="M651 525 L737 525 L520 0 L428 0 L378 402 L198 0 L105 0 L64 525 L150 525 L173 103 L357 521 L440 521 L491 103 L651 525 Z M389 770 L506 633 L456 583 L325 706 L389 770 Z " />
<glyph glyph-name="Wacute" unicode="&#x1e82;" horiz-adv-x="901" d="M165 0 L101 720 L192 720 L243 118 L493 720 L579 720 L629 118 L878 720 L970 720 L665 0 L565 0 L512 582 L268 0 L165 0 Z M446 812 L629 915 L654 839 L468 754 L446 812 Z " />
<glyph glyph-name="wacute" unicode="&#x1e83;" horiz-adv-x="726" d="M651 525 L737 525 L520 0 L428 0 L378 402 L198 0 L105 0 L64 525 L150 525 L173 103 L357 521 L440 521 L491 103 L651 525 Z M332 633 L496 770 L537 706 L366 583 L332 633 Z " />
<glyph glyph-name="Wdieresis" unicode="&#x1e84;" horiz-adv-x="901" d="M165 0 L101 720 L192 720 L243 118 L493 720 L579 720 L629 118 L878 720 L970 720 L665 0 L565 0 L512 582 L268 0 L165 0 Z M596 818 Q596 842 614 858 Q632 874 658 874 Q679 874 690.5 863 Q702 852 702 833 Q702 810 684.5 793.5 Q667 777 642 777 Q620 777 608 788.5 Q596 800 596 818 Z M403 818 Q403 842 421 858 Q439 874 464 874 Q485 874 496.5 863 Q508 852 508 833 Q508 810 490.5 793.5 Q473 777 449 777 Q427 777 415 788.5 Q403 800 403 818 Z " />
<glyph glyph-name="wdieresis" unicode="&#x1e85;" horiz-adv-x="726" d="M651 525 L737 525 L520 0 L428 0 L378 402 L198 0 L105 0 L64 525 L150 525 L173 103 L357 521 L440 521 L491 103 L651 525 Z M471 660 Q471 684 489 700 Q507 716 533 716 Q554 716 565.5 705 Q577 694 577 675 Q577 652 559.5 635.5 Q542 619 517 619 Q495 619 483 630.5 Q471 642 471 660 Z M278 660 Q278 684 296 700 Q314 716 339 716 Q360 716 371.5 705 Q383 694 383 675 Q383 652 365.5 635.5 Q348 619 324 619 Q302 619 290 630.5 Q278 642 278 660 Z " />
<glyph glyph-name="Ygrave" unicode="&#x1ef2;" horiz-adv-x="571" d="M185 0 L235 301 L80 720 L179 720 L298 393 L525 720 L626 720 L326 301 L276 0 L185 0 Z M323 915 L472 812 L431 754 L272 839 L323 915 Z " />
<glyph glyph-name="ygrave" unicode="&#x1ef3;" horiz-adv-x="484" d="M411 525 L503 525 L231 -7 Q213 -41 205 -56.5 Q197 -72 183 -96.5 Q169 -121 161.5 -131.5 Q154 -142 141 -157 Q128 -172 117.5 -178 Q107 -184 92.5 -191 Q78 -198 62 -200 Q46 -202 27 -202 Q-16 -202 -59 -190 L-39 -127 Q-5 -135 28 -135 Q60 -135 83 -113 Q106 -91 136 -28 L150 0 L57 525 L148 525 L208 105 L411 525 Z M283 770 L400 633 L350 583 L219 706 L283 770 Z " />
<glyph glyph-name="Ycircumflex" unicode="&#x176;" horiz-adv-x="571" d="M185 0 L235 301 L80 720 L179 720 L298 393 L525 720 L626 720 L326 301 L276 0 L185 0 Z M364 909 L425 909 L506 798 L462 761 L382 838 L275 761 L243 798 L364 909 Z " />
<glyph glyph-name="ycircumflex" unicode="&#x177;" horiz-adv-x="484" d="M411 525 L503 525 L231 -7 Q213 -41 205 -56.5 Q197 -72 183 -96.5 Q169 -121 161.5 -131.5 Q154 -142 141 -157 Q128 -172 117.5 -178 Q107 -184 92.5 -191 Q78 -198 62 -200 Q46 -202 27 -202 Q-16 -202 -59 -190 L-39 -127 Q-5 -135 28 -135 Q60 -135 83 -113 Q106 -91 136 -28 L150 0 L57 525 L148 525 L208 105 L411 525 Z M287 756 L347 756 L426 609 L377 577 L305 682 L198 578 L156 610 L287 756 Z " />
<glyph glyph-name="Ydieresis" unicode="&#x178;" horiz-adv-x="571" d="M185 0 L235 301 L80 720 L179 720 L298 393 L525 720 L626 720 L326 301 L276 0 L185 0 Z M413 818 Q413 842 431 858 Q449 874 475 874 Q496 874 507.5 863 Q519 852 519 833 Q519 810 501.5 793.5 Q484 777 459 777 Q437 777 425 788.5 Q413 800 413 818 Z M220 818 Q220 842 238 858 Q256 874 281 874 Q302 874 313.5 863 Q325 852 325 833 Q325 810 307.5 793.5 Q290 777 266 777 Q244 777 232 788.5 Q220 800 220 818 Z " />
<glyph glyph-name="Zacute" unicode="&#x179;" horiz-adv-x="576" d="M-15 0 L-5 61 L465 636 L116 636 L130 720 L612 720 L606 679 L117 83 L505 83 L491 0 L-15 0 Z M296 812 L479 915 L504 839 L318 754 L296 812 Z " />
<glyph glyph-name="zacute" unicode="&#x17a;" horiz-adv-x="439" d="M-11 0 L-2 56 L319 453 L71 453 L83 525 L443 525 L436 483 L104 70 L365 70 L353 0 L-11 0 Z M218 633 L382 770 L423 706 L252 583 L218 633 Z " />
<glyph glyph-name="Zdotaccent" unicode="&#x17b;" horiz-adv-x="576" d="M-15 0 L-5 61 L465 636 L116 636 L130 720 L612 720 L606 679 L117 83 L505 83 L491 0 L-15 0 Z M327 813 Q327 839 346.5 855 Q366 871 394 871 Q416 871 428.5 859.5 Q441 848 441 828 Q441 802 422.5 786 Q404 770 377 770 Q355 770 341 781.5 Q327 793 327 813 Z " />
<glyph glyph-name="zdotaccent" unicode="&#x17c;" horiz-adv-x="439" d="M-11 0 L-2 56 L319 453 L71 453 L83 525 L443 525 L436 483 L104 70 L365 70 L353 0 L-11 0 Z M233 659 Q233 685 253 701.5 Q273 718 299 718 Q321 718 333.5 706 Q346 694 346 674 Q346 648 327.5 632.5 Q309 617 282 617 Q260 617 246.5 628.5 Q233 640 233 659 Z " />
<glyph glyph-name="Zcaron" unicode="&#x17d;" horiz-adv-x="576" d="M-15 0 L-5 61 L465 636 L116 636 L130 720 L612 720 L606 679 L117 83 L505 83 L491 0 L-15 0 Z M401 765 L341 765 L256 876 L302 913 L383 836 L489 913 L519 876 L401 765 Z " />
<glyph glyph-name="zcaron" unicode="&#x17e;" horiz-adv-x="439" d="M-11 0 L-2 56 L319 453 L71 453 L83 525 L443 525 L436 483 L104 70 L365 70 L353 0 L-11 0 Z M287 582 L228 582 L146 728 L198 760 L271 656 L378 762 L416 729 L287 582 Z " />
<glyph glyph-name="longs" unicode="&#x17f;" horiz-adv-x="268" d="M35 0 L111 454 L50 454 L59 509 L122 521 L134 590 Q144 655 181 694 Q218 733 281 733 Q315 733 349 724 L333 657 Q312 664 288 664 Q233 664 221 595 L121 0 L35 0 Z " />
<glyph glyph-name="dotlessj" unicode="&#x237;" horiz-adv-x="241" d="M201 525 L102 -68 Q91 -136 59 -169.5 Q27 -203 -37 -203 Q-83 -203 -108 -193 L-90 -126 Q-74 -132 -47 -132 Q-19 -132 -4 -117.5 Q11 -103 18 -61 L116 525 L201 525 Z " />
<glyph glyph-name="ff" unicode="&#xfb00;" horiz-adv-x="565" d="M324 0 L400 454 L203 454 L127 0 L42 0 L118 454 L57 454 L66 509 L129 521 L139 578 Q149 643 185.5 681.5 Q222 720 285 720 Q322 720 355 710 L338 645 Q317 652 293 652 Q268 652 249 636 Q230 620 225 583 L215 525 L412 525 L423 590 Q433 655 470.5 694 Q508 733 570 733 Q605 733 638 724 L623 657 Q602 664 578 664 Q553 664 534.5 648 Q516 632 510 595 L498 525 L592 525 L580 454 L486 454 L410 0 L324 0 Z " />
<glyph glyph-name="fi" unicode="&#xfb01;" horiz-adv-x="538" d="M42 0 L118 454 L57 454 L66 509 L129 521 L141 590 Q151 655 188 694 Q225 733 288 733 Q322 733 356 724 L340 657 Q319 664 295 664 Q270 664 251 648 Q232 632 227 595 L215 525 L498 525 L410 0 L324 0 L400 454 L203 454 L127 0 L42 0 Z M423 658 Q423 686 442.5 703 Q462 720 488 720 Q510 720 523 708 Q536 696 536 675 Q536 647 518 630 Q500 613 471 613 Q449 613 436 625.5 Q423 638 423 658 Z " />
<glyph glyph-name="fl" unicode="&#xfb02;" horiz-adv-x="533" d="M42 0 L118 454 L57 454 L66 509 L129 521 L141 590 Q151 655 188 694 Q225 733 288 733 Q322 733 356 724 L340 657 Q319 664 295 664 Q270 664 251 648 Q232 632 227 595 L215 525 L412 525 L444 720 L530 720 L410 0 L324 0 L400 454 L203 454 L127 0 L42 0 Z " />
<glyph glyph-name="ffi" unicode="&#xfb03;" horiz-adv-x="819" d="M324 0 L400 454 L203 454 L127 0 L42 0 L118 454 L57 454 L66 509 L129 521 L139 579 Q150 645 186.5 683 Q223 721 286 721 Q316 721 355 711 L338 646 Q317 653 293 653 Q268 653 249 636.5 Q230 620 225 583 L215 525 L412 525 L423 590 Q433 655 470.5 694 Q508 733 570 733 Q605 733 638 724 L623 657 Q602 664 578 664 Q553 664 534.5 648 Q516 632 510 595 L498 525 L779 525 L691 0 L605 0 L681 454 L486 454 L410 0 L324 0 Z M704 658 Q704 686 723 703 Q742 720 769 720 Q791 720 804 708 Q817 696 817 675 Q817 647 798.5 630 Q780 613 752 613 Q730 613 717 625.5 Q704 638 704 658 Z " />
<glyph glyph-name="ffl" unicode="&#xfb04;" horiz-adv-x="817" d="M325 0 L401 454 L203 454 L127 0 L42 0 L118 454 L57 454 L66 509 L129 521 L139 578 Q149 643 185.5 681.5 Q222 720 285 720 Q322 720 355 710 L338 645 Q317 652 293 652 Q268 652 249 636 Q230 620 225 583 L215 525 L413 525 L424 590 Q434 655 471 694 Q508 733 571 733 Q606 733 639 724 L624 657 Q603 664 579 664 Q554 664 535 648 Q516 632 511 595 L499 525 L696 525 L728 720 L814 720 L694 0 L608 0 L684 454 L487 454 L411 0 L325 0 Z " />
<glyph glyph-name="ft" unicode="&#xf603;" horiz-adv-x="584" d="M568 453 L485 453 L427 106 Q426 101 426 91 Q426 61 458 61 Q479 61 506 70 L505 5 Q460 -12 413 -12 Q337 -12 337 61 Q337 80 339 90 L400 454 L203 454 L127 0 L42 0 L118 454 L57 454 L66 509 L129 521 L141 590 Q151 655 188 694 Q225 733 288 733 Q322 733 356 724 L340 657 Q319 664 295 664 Q270 664 251 648 Q232 632 227 595 L215 525 L413 525 L448 670 L521 670 L497 525 L580 525 L568 453 Z " />
<glyph glyph-name="circumflex" unicode="&#x2c6;" horiz-adv-x="487" d="M222 756 L282 756 L361 609 L312 577 L240 682 L133 578 L91 610 L222 756 Z " />
<glyph glyph-name="caron" unicode="&#x2c7;" horiz-adv-x="487" d="M241 582 L182 582 L100 728 L152 760 L225 656 L332 762 L370 729 L241 582 Z " />
<glyph glyph-name="uni02C9" unicode="&#x2c9;" horiz-adv-x="488" d="M191 683 L460 683 L449 616 L180 616 L191 683 Z " />
<glyph glyph-name="breve" unicode="&#x2d8;" horiz-adv-x="487" d="M262 654 Q305 654 325 673.5 Q345 693 359 733 L418 723 Q400 657 360 625.5 Q320 594 253 594 Q187 594 158 623 Q129 652 129 715 L129 722 L196 733 Q197 712 199 700 Q201 688 207.5 676 Q214 664 227 659 Q240 654 262 654 Z " />
<glyph glyph-name="dieresis" unicode="&#xa8;" horiz-adv-x="488" d="M271 660 Q271 684 289 700 Q307 716 333 716 Q354 716 365.5 705 Q377 694 377 675 Q377 652 359.5 635.5 Q342 619 317 619 Q295 619 283 630.5 Q271 642 271 660 Z M78 660 Q78 684 96 700 Q114 716 139 716 Q160 716 171.5 705 Q183 694 183 675 Q183 652 165.5 635.5 Q148 619 124 619 Q102 619 90 630.5 Q78 642 78 660 Z " />
<glyph glyph-name="macron" unicode="&#xaf;" horiz-adv-x="487" d="M133 683 L402 683 L391 616 L122 616 L133 683 Z " />
<glyph glyph-name="degree" unicode="&#xb0;" horiz-adv-x="314" d="M115 661 Q115 627 136.5 604.5 Q158 582 191 582 Q223 582 244.5 604.5 Q266 627 266 661 Q266 694 245 715 Q224 736 191 736 Q157 736 136 715 Q115 694 115 661 Z M73 660 Q73 708 107.5 742 Q142 776 191 776 Q239 776 273 742 Q307 708 307 660 Q307 611 273.5 577.5 Q240 544 191 544 Q141 544 107 577 Q73 610 73 660 Z " />
<glyph glyph-name="acute" unicode="&#xb4;" horiz-adv-x="487" d="M160 633 L324 770 L365 706 L194 583 L160 633 Z " />
<glyph glyph-name="grave" unicode="&#x60;" horiz-adv-x="487" d="M216 770 L333 633 L283 583 L152 706 L216 770 Z " />
<glyph glyph-name="cedilla" unicode="&#xb8;" horiz-adv-x="487" d="M72 -196 L92 -148 Q121 -160 150 -160 Q198 -160 198 -123 Q198 -108 184.5 -102.5 Q171 -97 143 -97 L121 -97 L161 8 L214 8 L193 -52 Q268 -56 268 -114 Q268 -162 236 -187 Q204 -212 149 -212 Q104 -212 72 -196 Z " />
<glyph glyph-name="dotaccent" unicode="&#x2d9;" horiz-adv-x="487" d="M188 659 Q188 685 208 701.5 Q228 718 254 718 Q276 718 288.5 706 Q301 694 301 674 Q301 648 282.5 632.5 Q264 617 237 617 Q215 617 201.5 628.5 Q188 640 188 659 Z " />
<glyph glyph-name="ring" unicode="&#x2da;" horiz-adv-x="487" d="M195 657 Q195 642 204 634 Q213 626 229 626 Q250 626 262.5 639 Q275 652 275 674 Q275 704 242 704 Q220 704 207.5 691 Q195 678 195 657 Z M140 649 Q140 694 172.5 724.5 Q205 755 250 755 Q286 755 307.5 734.5 Q329 714 329 680 Q329 634 297.5 605 Q266 576 220 576 Q184 576 162 595.5 Q140 615 140 649 Z " />
<glyph glyph-name="ogonek" unicode="&#x2db;" horiz-adv-x="487" d="M199 14 L256 10 L254 0 Q206 -42 182 -73 Q158 -104 158 -132 Q158 -158 189 -158 Q209 -158 243 -146 L252 -197 Q232 -209 204 -217.5 Q176 -226 148 -226 Q110 -226 90.5 -208.5 Q71 -191 71 -161 Q71 -115 104.5 -72.5 Q138 -30 199 14 Z " />
<glyph glyph-name="tilde" unicode="&#x2dc;" horiz-adv-x="488" d="M344 707 L388 690 Q366 643 343 623.5 Q320 604 289 604 Q265 604 225 620 Q185 636 173 636 Q161 636 151.5 629 Q142 622 127 601 L84 620 Q111 666 132.5 685 Q154 704 180 704 Q203 704 240.5 688 Q278 672 297 672 Q312 672 321 679 Q330 686 344 707 Z " />
<glyph glyph-name="hungarumlaut" unicode="&#x2dd;" horiz-adv-x="487" d="M164 773 L232 732 L101 582 L47 618 L164 773 Z M305 759 L368 715 L241 581 L189 617 L305 759 Z " />
<glyph glyph-name="perthousand" unicode="&#x2030;" horiz-adv-x="1106" d="M461 129 Q461 208 517 263.5 Q573 319 652 319 Q692 319 723 300 Q754 281 768 247 Q824 319 914 319 Q972 319 1008.5 280 Q1045 241 1045 181 Q1045 131 1018.5 87.5 Q992 44 950 19.5 Q908 -5 863 -5 Q815 -5 782.5 13.5 Q750 32 736 65 Q708 31 671.5 13 Q635 -5 596 -5 Q534 -5 497.5 32 Q461 69 461 129 Z M80 525 Q80 604 136 659.5 Q192 715 272 715 Q334 715 371.5 677 Q409 639 409 578 Q409 501 351.5 446 Q294 391 217 391 Q154 391 117 428 Q80 465 80 525 Z M126 0 L674 720 L750 720 L202 0 L126 0 Z M149 536 Q149 499 170.5 476.5 Q192 454 228 454 Q274 454 305.5 488 Q337 522 337 570 Q337 608 316.5 630.5 Q296 653 261 653 Q214 653 181.5 619 Q149 585 149 536 Z M531 141 Q531 105 552.5 81.5 Q574 58 609 58 Q655 58 687 91.5 Q719 125 719 173 Q719 209 698 233 Q677 257 642 257 Q596 257 563.5 223 Q531 189 531 141 Z M897 257 Q852 257 818.5 223 Q785 189 785 140 Q785 104 805.5 81 Q826 58 864 58 Q910 58 941.5 91.5 Q973 125 973 173 Q973 209 952 233 Q931 257 897 257 Z " />
<glyph glyph-name="percent" unicode="&#x25;" horiz-adv-x="851" d="M531 141 Q531 105 552.5 81.5 Q574 58 609 58 Q655 58 687 91.5 Q719 125 719 173 Q719 209 698 233 Q677 257 642 257 Q596 257 563.5 223 Q531 189 531 141 Z M461 130 Q461 208 517 263.5 Q573 319 652 319 Q714 319 752 280.5 Q790 242 790 182 Q790 104 733 49.5 Q676 -5 598 -5 Q536 -5 498.5 32.5 Q461 70 461 130 Z M149 536 Q149 499 170.5 476.5 Q192 454 228 454 Q274 454 305.5 488 Q337 522 337 570 Q337 608 316.5 630.5 Q296 653 261 653 Q214 653 181.5 619 Q149 585 149 536 Z M80 525 Q80 604 136 659.5 Q192 715 272 715 Q334 715 371.5 677 Q409 639 409 578 Q409 501 351.5 446 Q294 391 217 391 Q154 391 117 428 Q80 465 80 525 Z M126 0 L674 720 L750 720 L202 0 L126 0 Z " />
<glyph glyph-name="fraction" unicode="&#x2044;" horiz-adv-x="127" d="M-237 -1 L310 720 L382 720 L-165 -1 L-237 -1 Z " />
<glyph glyph-name="onehalf" unicode="&#xbd;" horiz-adv-x="827" d="M51 -1 L598 720 L670 720 L123 -1 L51 -1 Z M191 350 L121 350 L167 626 Q113 611 77 611 L70 611 L71 659 Q105 666 140.5 683 Q176 700 200 721 L253 721 L191 350 Z M446 0 L454 49 L607 187 Q610 189 619.5 197.5 Q629 206 631 208.5 Q633 211 640.5 217.5 Q648 224 649.5 227 Q651 230 656 235.5 Q661 241 662 244.5 Q663 248 665.5 254 Q668 260 668.5 265 Q669 270 669 276 Q669 314 620 314 Q574 314 510 271 L490 316 Q568 377 646 377 Q692 377 719 354.5 Q746 332 746 293 Q746 259 727.5 229.5 Q709 200 670 166 L548 60 L712 60 L702 0 L446 0 Z " />
<glyph glyph-name="onequarter" unicode="&#xbc;" horiz-adv-x="827" d="M108 -1 L655 720 L727 720 L180 -1 L108 -1 Z M240 350 L170 350 L216 626 Q162 611 126 611 L119 611 L120 659 Q154 666 189.5 683 Q225 700 249 721 L302 721 L240 350 Z M678 307 L535 129 L649 129 L678 307 Z M627 0 L639 72 L457 72 L466 127 L665 371 L758 371 L718 129 L758 129 L748 72 L708 72 L696 0 L627 0 Z " />
<glyph glyph-name="threequarters" unicode="&#xbe;" horiz-adv-x="827" d="M153 -1 L700 720 L772 720 L225 -1 L153 -1 Z M698 307 L555 129 L669 129 L698 307 Z M647 0 L659 72 L477 72 L486 127 L685 371 L778 371 L738 129 L778 129 L768 72 L728 72 L716 0 L647 0 Z M64 393 L102 439 Q124 421 145.5 412 Q167 403 197 403 Q237 403 258.5 420.5 Q280 438 280 468 Q280 490 262.5 500 Q245 510 207 510 Q181 510 173 508 L184 569 Q287 571 287 635 Q287 667 236 667 Q192 667 145 642 L131 690 Q194 727 262 727 Q310 727 336 707.5 Q362 688 362 651 Q362 613 337.5 584.5 Q313 556 273 545 Q315 541 334 521 Q353 501 353 469 Q353 410 308.5 376.5 Q264 343 195 343 Q108 343 64 393 Z " />
<glyph glyph-name="minus" unicode="&#x2212;" horiz-adv-x="600" d="M560 329 L560 264 L40 264 L40 329 L560 329 Z " />
<glyph glyph-name="uni2215" unicode="&#x2215;" horiz-adv-x="130" d="M-268 -1 L279 720 L351 720 L-196 -1 L-268 -1 Z " />
<glyph glyph-name="uni2219" unicode="&#x2219;" horiz-adv-x="279" d="M83 337 Q83 363 99.5 379 Q116 395 142 395 Q169 395 185.5 379.5 Q202 364 202 338 Q202 314 185 298 Q168 282 142 282 Q114 282 98.5 297.5 Q83 313 83 337 Z " />
<glyph glyph-name="approxequal" unicode="&#x2248;" horiz-adv-x="744" d="M658 262 L694 199 Q570 101 469 101 Q436 101 400.5 112 Q365 123 339 136.5 Q313 150 279.5 161 Q246 172 218 172 Q186 172 154.5 161.5 Q123 151 102.5 139 Q82 127 46 103 L13 170 Q139 263 239 263 Q269 263 303 251.5 Q337 240 363.5 226.5 Q390 213 422 201.5 Q454 190 479 190 Q521 190 562.5 207.5 Q604 225 658 262 Z M661 469 L697 406 Q573 308 472 308 Q439 308 403.5 319 Q368 330 342 343.5 Q316 357 282.5 368 Q249 379 221 379 Q189 379 157.5 368.5 Q126 358 105.5 346 Q85 334 49 310 L16 377 Q142 470 242 470 Q272 470 306 458.5 Q340 447 366.5 433.5 Q393 420 425 408.5 Q457 397 482 397 Q524 397 565.5 414.5 Q607 432 661 469 Z " />
<glyph glyph-name="notequal" unicode="&#x2260;" horiz-adv-x="600" d="M560 235 L560 174 L273 174 L168 0 L93 0 L199 174 L40 174 L40 235 L236 235 L298 338 L40 338 L40 399 L335 399 L411 523 L485 523 L410 399 L560 399 L560 338 L373 338 L310 235 L560 235 Z " />
<glyph glyph-name="lessequal" unicode="&#x2264;" horiz-adv-x="600" d="M534 113 L41 329 L41 374 L533 590 L559 526 L153 352 L559 178 L534 113 Z M560 65 L560 0 L40 0 L40 65 L560 65 Z " />
<glyph glyph-name="greaterequal" unicode="&#x2265;" horiz-adv-x="600" d="M558 329 L65 113 L40 178 L446 352 L40 526 L66 590 L558 374 L558 329 Z M559 65 L559 0 L39 0 L39 65 L559 65 Z " />
<glyph glyph-name="less" unicode="&#x3c;" horiz-adv-x="600" d="M560 50 L21 272 L21 317 L560 540 L585 475 L136 295 L586 116 L560 50 Z " />
<glyph glyph-name="equal" unicode="&#x3d;" horiz-adv-x="600" d="M560 399 L560 338 L40 338 L40 399 L560 399 Z M560 235 L560 174 L40 174 L40 235 L560 235 Z " />
<glyph glyph-name="greater" unicode="&#x3e;" horiz-adv-x="600" d="M579 276 L40 54 L15 119 L463 299 L15 479 L41 543 L579 321 L579 276 Z " />
<glyph glyph-name="logicalnot" unicode="&#xac;" horiz-adv-x="600" d="M568 125 L505 125 L505 326 L32 326 L32 388 L568 388 L568 125 Z " />
<glyph glyph-name="plus" unicode="&#x2b;" horiz-adv-x="600" d="M333 558 L333 329 L561 329 L561 264 L333 264 L333 35 L265 35 L265 264 L38 264 L38 329 L265 329 L265 558 L333 558 Z " />
<glyph glyph-name="plusminus" unicode="&#xb1;" horiz-adv-x="600" d="M333 558 L333 329 L561 329 L561 264 L333 264 L333 65 L560 65 L560 0 L40 0 L40 65 L265 65 L265 264 L38 264 L38 329 L265 329 L265 558 L333 558 Z " />
<glyph glyph-name="divide" unicode="&#xf7;" horiz-adv-x="600" d="M347 469 Q347 449 333 435 Q319 421 299 421 Q281 421 266.5 435.5 Q252 450 252 469 Q252 489 265.5 504 Q279 519 299 519 Q319 519 333 504.5 Q347 490 347 469 Z M299 77 Q281 77 266 92 Q251 107 251 126 Q251 146 265 161 Q279 176 299 176 Q319 176 333 161 Q347 146 347 126 Q347 106 333 91.5 Q319 77 299 77 Z M560 329 L560 264 L40 264 L40 329 L560 329 Z " />
<glyph glyph-name="multiply" unicode="&#xd7;" horiz-adv-x="600" d="M508 451 L345 291 L508 128 L463 82 L300 243 L138 82 L91 131 L255 292 L91 453 L136 501 L299 340 L461 501 L508 451 Z " />
<glyph glyph-name="partialdiff" unicode="&#x2202;" horiz-adv-x="597" d="M240 -12 Q154 -12 105 39.5 Q56 91 56 180 Q56 234 71 281 Q86 328 113 363.5 Q140 399 182.5 420 Q225 441 277 441 Q313 441 344.5 427.5 Q376 414 401 384 Q426 354 432 314 Q439 389 439 430 Q439 532 407.5 581 Q376 630 304 630 Q232 630 165 592 L138 646 Q177 672 224 686.5 Q271 701 312 701 Q519 701 519 435 Q519 391 515.5 349.5 Q512 308 503 263 Q494 218 480 179 Q466 140 444 104 Q422 68 393.5 43 Q365 18 325.5 3 Q286 -12 240 -12 Z M252 60 Q288 60 318 75 Q348 90 366 114 Q384 138 394 167 Q404 196 404 226 Q404 293 372 332.5 Q340 372 287 372 Q251 372 222 356 Q193 340 176 313 Q159 286 150.5 254 Q142 222 142 188 Q142 124 172 92 Q202 60 252 60 Z " />
<glyph glyph-name="Omega" unicode="&#x2126;" horiz-adv-x="793" d="M458 0 L458 97 Q492 115 521.5 140.5 Q551 166 576.5 200.5 Q602 235 617 282 Q632 329 632 383 Q632 514 571 580.5 Q510 647 402 647 Q294 647 231 577 Q168 507 168 376 Q168 326 182 281 Q196 236 220 201.5 Q244 167 269.5 141.5 Q295 116 323 98 L323 0 L63 0 L63 79 L236 79 L236 94 Q205 112 176.5 139 Q148 166 123.5 202 Q99 238 84.5 287 Q70 336 70 390 Q70 474 95 539.5 Q120 605 164.5 647 Q209 689 269.5 711 Q330 733 402 733 Q474 733 533.5 712.5 Q593 692 637.5 652 Q682 612 706 548 Q730 484 730 402 Q730 342 714 289 Q698 236 670.5 198 Q643 160 611 133 Q579 106 544 92 L544 79 L718 79 L718 0 L458 0 Z " />
<glyph glyph-name="Delta" unicode="&#x2206;" horiz-adv-x="675" d="M391 720 L649 0 L26 0 L282 720 L391 720 Z M527 76 L336 625 L143 76 L527 76 Z " />
<glyph glyph-name="product" unicode="&#x220f;" horiz-adv-x="699" d="M79 -140 L79 720 L620 720 L620 -140 L527 -140 L527 642 L172 642 L172 -140 L79 -140 Z " />
<glyph glyph-name="summation" unicode="&#x2211;" horiz-adv-x="582" d="M519 637 L163 637 L378 318 L155 -37 L554 -37 L554 -119 L26 -119 L26 -79 L271 316 L26 680 L26 720 L519 720 L519 637 Z " />
<glyph glyph-name="uni0394" unicode="&#x394;" horiz-adv-x="675" d="M391 720 L649 0 L26 0 L282 720 L391 720 Z M527 76 L336 625 L143 76 L527 76 Z " />
<glyph glyph-name="uni03A9" unicode="&#x3a9;" horiz-adv-x="793" d="M458 0 L458 97 Q492 115 521.5 140.5 Q551 166 576.5 200.5 Q602 235 617 282 Q632 329 632 383 Q632 514 571 580.5 Q510 647 402 647 Q294 647 231 577 Q168 507 168 376 Q168 326 182 281 Q196 236 220 201.5 Q244 167 269.5 141.5 Q295 116 323 98 L323 0 L63 0 L63 79 L236 79 L236 94 Q205 112 176.5 139 Q148 166 123.5 202 Q99 238 84.5 287 Q70 336 70 390 Q70 474 95 539.5 Q120 605 164.5 647 Q209 689 269.5 711 Q330 733 402 733 Q474 733 533.5 712.5 Q593 692 637.5 652 Q682 612 706 548 Q730 484 730 402 Q730 342 714 289 Q698 236 670.5 198 Q643 160 611 133 Q579 106 544 92 L544 79 L718 79 L718 0 L458 0 Z " />
<glyph glyph-name="uni03BC" unicode="&#x3bc;" horiz-adv-x="575" d="M491 0 L411 0 L411 74 Q369 -9 276 -9 Q236 -9 210 4.5 Q184 18 163 46 L163 -200 L76 -200 L76 525 L163 525 L163 197 Q163 59 278 59 Q331 59 362.5 91 Q394 123 403 166 L403 525 L491 525 L491 0 Z " />
<glyph glyph-name="pi" unicode="&#x3c0;" horiz-adv-x="671" d="M36 451 L36 525 L635 525 L635 451 L549 451 L549 0 L461 0 L461 451 L215 451 L215 0 L128 0 L128 451 L36 451 Z " />
<glyph glyph-name="mu" unicode="&#xb5;" horiz-adv-x="575" d="M491 0 L411 0 L411 74 Q369 -9 276 -9 Q236 -9 210 4.5 Q184 18 163 46 L163 -200 L76 -200 L76 525 L163 525 L163 197 Q163 59 278 59 Q331 59 362.5 91 Q394 123 403 166 L403 525 L491 525 L491 0 Z " />
<glyph glyph-name="radical" unicode="&#x221a;" horiz-adv-x="731" d="M36 246 L36 312 L233 312 L359 -59 L656 824 L737 824 L401 -166 L316 -166 L171 246 L36 246 Z " />
<glyph glyph-name="infinity" unicode="&#x221e;" horiz-adv-x="769" d="M715 313 Q715 241 675 195.5 Q635 150 576 150 Q558 150 540 154 Q522 158 509 163 Q496 168 479 179 Q462 190 453.5 196 Q445 202 428.5 217 Q412 232 408 236.5 Q404 241 388 258 Q344 207 300 178.5 Q256 150 207 150 Q137 150 96 190 Q55 230 55 302 Q55 372 97.5 416.5 Q140 461 211 461 Q265 461 305.5 432.5 Q346 404 389 347 Q415 376 431.5 392 Q448 408 472 427 Q496 446 521 454 Q546 462 574 462 Q642 462 678.5 419.5 Q715 377 715 313 Z M650 307 Q650 349 628 375.5 Q606 402 563 402 Q539 402 516.5 390 Q494 378 475 359.5 Q456 341 426 304 Q504 210 568 210 Q608 210 629 238.5 Q650 267 650 307 Z M352 303 Q314 355 282 378 Q250 401 214 401 Q168 401 144 372.5 Q120 344 120 303 Q120 261 145 234.5 Q170 208 214 208 Q246 208 282 233.5 Q318 259 352 303 Z " />
<glyph glyph-name="integral" unicode="&#x222b;" horiz-adv-x="358" d="M6 -132 L62 -132 Q101 -132 120 -108.5 Q139 -85 139 -28 L139 628 Q139 702 173.5 746 Q208 790 279 790 L347 790 L347 722 L292 723 Q251 723 234.5 694.5 Q218 666 218 606 L218 -29 Q218 -69 211 -99 Q204 -129 188 -152.5 Q172 -176 142 -188 Q112 -200 68 -200 L6 -200 L6 -132 Z " />
<glyph glyph-name="lozenge" unicode="&#x25ca;" horiz-adv-x="615" d="M270 0 L78 352 L270 700 L338 700 L537 354 L338 0 L270 0 Z M304 623 L159 352 L304 78 L456 352 L304 623 Z " />
<glyph glyph-name="commaaccent" unicode="&#xf6c3;" horiz-adv-x="487" d="M99 -223 L166 -60 L242 -81 L159 -243 L99 -223 Z " />
<glyph glyph-name="apostrophe" unicode="&#x2bc;" horiz-adv-x="488" d="M242 678 Q242 702 259.5 717.5 Q277 733 304 733 Q327 733 338.5 718.5 Q350 704 350 681 Q350 586 237 536 L225 566 Q259 584 272.5 600 Q286 616 292 639 Q290 639 287 638.5 Q284 638 283 638 Q265 638 253.5 649 Q242 660 242 678 Z " />
<glyph glyph-name="currency" unicode="&#xa4;" horiz-adv-x="564" d="M420 356 Q420 406 389 438.5 Q358 471 310 471 Q248 471 200 425.5 Q152 380 152 316 Q152 266 183.5 233 Q215 200 264 200 Q326 200 373 247 Q420 294 420 356 Z M78 545 L124 587 L200 492 Q257 531 320 531 Q386 531 425 493 L533 586 L566 545 L458 450 Q481 413 481 361 Q481 286 420 220 L497 127 L449 86 L373 180 Q317 141 255 141 Q192 141 148 180 Q66 107 40 86 L8 127 L116 221 Q93 257 93 309 Q93 385 154 450 L78 545 Z " />
<glyph glyph-name="zero.tosf" unicode="&#xf81e;" horiz-adv-x="600" d="M152 304 Q144 250 144 214 Q144 137 172 100.5 Q200 64 261 64 Q337 64 382.5 122 Q428 180 449 308 Q457 359 457 392 Q457 466 428.5 499.5 Q400 533 339 533 Q264 533 218 477.5 Q172 422 152 304 Z M62 305 Q85 453 161.5 532.5 Q238 612 353 612 Q451 612 498.5 558 Q546 504 546 393 Q546 354 540 309 Q496 -12 251 -12 Q54 -12 54 210 Q54 251 62 305 Z " />
<glyph glyph-name="one.tosf" unicode="&#xf81f;" horiz-adv-x="600" d="M242 74 L310 478 Q227 430 136 415 L135 480 Q189 494 249.5 527 Q310 560 353 601 L415 601 L326 74 L460 74 L448 0 L79 0 L91 74 L242 74 Z " />
<glyph glyph-name="two.tosf" unicode="&#xf820;" horiz-adv-x="600" d="M40 0 L49 54 L321 294 Q379 344 402.5 377.5 Q426 411 426 452 Q426 491 399 512.5 Q372 534 329 534 Q254 534 146 456 L112 510 Q165 556 226.5 584 Q288 612 351 612 Q425 612 472.5 576 Q520 540 520 472 Q520 414 495 372 Q470 330 398 266 L182 78 L462 78 L449 0 L40 0 Z " />
<glyph glyph-name="three.tosf" unicode="&#xf821;" horiz-adv-x="600" d="M16 25 L70 81 Q104 44 142 24.5 Q180 5 231 5 Q301 5 346.5 43 Q392 81 392 146 Q392 192 359.5 217.5 Q327 243 259 243 Q225 243 207 240 L217 315 Q255 317 287.5 325.5 Q320 334 348 350 Q376 366 392 393 Q408 420 408 453 Q408 493 381 513.5 Q354 534 310 534 Q238 534 154 484 L129 543 Q229 612 335 612 Q408 612 452 576 Q496 540 496 474 Q496 406 454 358.5 Q412 311 339 290 Q409 284 443 247 Q477 210 477 152 Q477 98 456 55 Q435 12 399.5 -15 Q364 -42 318.5 -56.5 Q273 -71 222 -71 Q87 -71 16 25 Z " />
<glyph glyph-name="four.tosf" unicode="&#xf822;" horiz-adv-x="600" d="M109 181 L337 181 L393 513 L109 181 Z M297 -60 L324 104 L6 104 L18 175 L377 601 L493 601 L422 181 L500 181 L487 104 L409 104 L382 -60 L297 -60 Z " />
<glyph glyph-name="five.tosf" unicode="&#xf823;" horiz-adv-x="600" d="M82 183 L184 601 L521 601 L502 518 L242 518 L193 323 Q257 375 334 375 Q414 375 455 330.5 Q496 286 496 207 Q496 142 474.5 88.5 Q453 35 415.5 0 Q378 -35 327.5 -54 Q277 -73 219 -73 Q168 -73 117 -56 Q66 -39 29 -5 L74 57 Q145 5 224 5 Q306 5 356 54.5 Q406 104 406 189 Q406 239 379 269 Q352 299 298 299 Q262 299 229 284 Q196 269 175 249 L159 183 L82 183 Z " />
<glyph glyph-name="six.tosf" unicode="&#xf824;" horiz-adv-x="600" d="M91 302 Q102 389 124 459 Q146 529 175.5 577.5 Q205 626 243.5 658 Q282 690 324.5 705 Q367 720 415 720 Q507 720 564 662 L518 603 Q468 645 406 645 Q360 645 321.5 622.5 Q283 600 257 559 Q231 518 213 471 Q195 424 182 366 Q270 442 363 442 Q440 442 479 396 Q518 350 518 270 Q518 248 515 224 Q499 102 433.5 45 Q368 -12 267 -12 Q175 -12 130 47.5 Q85 107 85 217 Q85 257 91 302 Z M431 217 Q434 238 434 256 Q434 312 406.5 339 Q379 366 332 366 Q258 366 171 290 Q166 254 166 213 Q166 133 194.5 96.5 Q223 60 279 60 Q335 60 377 99.5 Q419 139 431 217 Z " />
<glyph glyph-name="seven.tosf" unicode="&#xf825;" horiz-adv-x="600" d="M547 541 L199 -60 L107 -60 L109 -49 L439 518 L113 518 L127 601 L557 601 L547 541 Z " />
<glyph glyph-name="eight.tosf" unicode="&#xf826;" horiz-adv-x="600" d="M155 162 Q155 116 185.5 89.5 Q216 63 272 63 Q341 63 386.5 104.5 Q432 146 432 208 Q432 300 312 344 Q278 328 253 312 Q228 296 204 274 Q180 252 167.5 224 Q155 196 155 162 Z M247 536 Q247 495 273.5 465.5 Q300 436 343 419 Q365 429 386.5 443 Q408 457 428 476 Q448 495 460 519.5 Q472 544 472 570 Q472 608 446 629 Q420 650 375 650 Q319 650 283 618.5 Q247 587 247 536 Z M66 147 Q66 189 82 227.5 Q98 266 125 295 Q152 324 184 346 Q216 368 252 382 Q209 401 184.5 436.5 Q160 472 160 520 Q160 608 224 664 Q288 720 387 720 Q463 720 508.5 683 Q554 646 554 583 Q554 520 512 468 Q470 416 405 386 Q520 328 520 222 Q520 117 447 52.5 Q374 -12 258 -12 Q168 -12 117 30.5 Q66 73 66 147 Z " />
<glyph glyph-name="nine.tosf" unicode="&#xf827;" horiz-adv-x="600" d="M522 383 Q522 156 445 42.5 Q368 -71 220 -71 Q112 -71 50 -17 L95 42 Q147 0 225 0 Q309 0 355.5 54 Q402 108 430 238 Q390 204 339.5 184 Q289 164 240 164 Q164 164 125 210.5 Q86 257 86 334 Q86 458 159 535 Q232 612 342 612 Q431 612 476.5 551.5 Q522 491 522 383 Z M329 535 Q263 535 217 485.5 Q171 436 171 349 Q171 292 198.5 265 Q226 238 272 238 Q316 238 359 260 Q402 282 432 312 Q438 351 438 383 Q438 456 409.5 495.5 Q381 535 329 535 Z " />
<glyph glyph-name="apple" unicode="&#xf8ff;" horiz-adv-x="2406" d="M1677 -97 L1660 -105 Q1669 -125 1669 -142 Q1669 -190 1602.5 -222 Q1536 -254 1427 -254 Q1307 -254 1237 -197 Q1153 -240 1078 -240 Q980 -240 930 -197 Q900 -241 832.5 -261.5 Q765 -282 680 -282 Q642 -282 601 -271.5 Q560 -261 523 -241.5 Q486 -222 462.5 -189 Q439 -156 439 -116 L439 -110 Q396 -88 384 -54 Q330 -76 266 -76 Q198 -76 160 -33 Q122 10 122 77 Q122 102 128 129 Q140 185 187.5 236.5 Q235 288 300 318 Q276 352 276 400 Q276 418 281 440 Q298 516 344 559.5 Q390 603 437 603 Q445 603 449 602 Q477 630 530.5 644 Q584 658 636 658 Q723 658 791 632 Q828 684 889 713.5 Q950 743 1018 743 Q1025 743 1037 741 Q1073 790 1150 817 Q1227 844 1326 844 Q1407 844 1472.5 807.5 Q1538 771 1573 710 Q1645 733 1741 733 Q1771 733 1809 727.5 Q1847 722 1890.5 710 Q1934 698 1969 674 Q2004 650 2015 618 Q2041 633 2069 633 Q2120 633 2153.5 604 Q2187 575 2187 532 Q2187 520 2184 508 Q2178 481 2164 459 Q2198 439 2218 402.5 Q2238 366 2238 320 Q2238 297 2232 270 Q2220 222 2198 190 Q2234 165 2251 127 Q2268 89 2268 46 Q2268 20 2262 -6 Q2256 -34 2240 -56 Q2224 -78 2204 -92 Q2184 -106 2158 -114.5 Q2132 -123 2107 -126.5 Q2082 -130 2056 -130 Q2024 -130 1990 -122 Q1975 -141 1940.5 -154.5 Q1906 -168 1863 -168 Q1815 -168 1772.5 -145 Q1730 -122 1715 -80 L1687 -92 Q1697 -150 1750.5 -182.5 Q1804 -215 1874 -215 Q1915 -215 1951 -206 Q1987 -197 2033 -175 L2034 -177 Q1955 -219 1875 -219 Q1826 -219 1786.5 -207.5 Q1747 -196 1716.5 -168 Q1686 -140 1677 -97 Z M692 505 Q718 505 742 498 Q745 534 759 572 Q713 585 665 585 Q589 585 516 556 Q525 540 525 517 Q525 463 498 430.5 Q471 398 437 398 Q419 398 407.5 411 Q396 424 396 444 Q396 449 398 461 Q404 489 436 515 Q426 530 426 548 Q426 553 428 565 Q433 586 447 600 Q444 601 437 601 Q391 601 350 559 Q309 517 292 440 Q286 419 286 395 Q286 352 305 320 Q369 347 420 347 Q440 347 456 336.5 Q472 326 472 310 Q472 309 471.5 307 Q471 305 471 304 Q465 269 397 269 Q335 269 302 313 Q246 283 205 233.5 Q164 184 152 132 Q144 94 144 65 Q144 2 176 -36 Q208 -74 266 -74 Q329 -74 383 -52 Q374 -31 374 -8 Q374 12 380 31 Q386 59 406.5 76 Q427 93 447 93 Q474 93 474 56 Q474 46 473 42 Q469 16 447.5 -9 Q426 -34 389 -52 Q393 -67 406.5 -81.5 Q420 -96 440 -105 Q440 -95 443 -86 Q453 -38 491.5 -4.5 Q530 29 580 35 Q580 34 581 34 Q535 28 501.5 -5 Q468 -38 458 -86 Q456 -96 454 -112 Q476 -121 505 -121 Q528 -121 544 -116 L544 -117 Q520 -125 499 -125 Q477 -125 454 -117 Q454 -167 489 -205 Q524 -243 575 -261.5 Q626 -280 680 -280 Q765 -280 833 -260 Q901 -240 929 -196 Q900 -170 900 -137 Q900 -127 903 -116 Q905 -98 919 -82 Q909 -72 893 -64 Q772 -159 693 -159 Q659 -159 634 -144 Q609 -129 609 -100 Q609 -96 611 -84 Q615 -69 629 -58.5 Q643 -48 663.5 -43 Q684 -38 705 -35.5 Q726 -33 748 -33 Q818 -33 870 -52 Q877 -46 899.5 -29 Q922 -12 931 -5.5 Q940 1 961 15.5 Q982 30 994 36.5 Q1006 43 1025.5 53.5 Q1045 64 1060.5 68.5 Q1076 73 1095 77.5 Q1114 82 1132 82 Q1120 112 1116 141 Q1087 118 1054 118 Q1035 118 1026 133 Q1017 148 1017 169 Q1017 175 1019 189 L1054 347 L974 347 Q952 233 931 134 Q919 74 875 40 Q831 6 785 6 Q721 6 683 50 L685 52 Q703 36 717.5 29 Q732 22 753 22 Q773 22 789.5 30 Q806 38 816.5 50 Q827 62 835.5 78 Q844 94 849 107.5 Q854 121 857 136 Q872 194 907 347 L862 347 Q862 352 863 355 L909 355 L926 423 Q938 481 978 515.5 Q1018 550 1066 550 Q1081 550 1095.5 548 Q1110 546 1129 540 Q1148 534 1162 520 Q1176 506 1182 486 Q1200 495 1228 503.5 Q1256 512 1281 512 Q1307 512 1319 504 Q1331 496 1331 474 Q1331 462 1328 446 Q1324 429 1307 357 Q1363 365 1398.5 397.5 Q1434 430 1450 477 Q1426 483 1407.5 502 Q1389 521 1389 548 Q1389 594 1432 635 Q1410 663 1380 678.5 Q1350 694 1321 694 Q1281 694 1258 674 Q1235 654 1235 625 Q1235 591 1262 575 L1259 573 Q1245 581 1233.5 596.5 Q1222 612 1222 625 Q1222 657 1248.5 677.5 Q1275 698 1321 698 Q1351 698 1381.5 682 Q1412 666 1434 638 Q1484 684 1571 710 Q1539 768 1474.5 803.5 Q1410 839 1326 839 Q1234 839 1160 813 Q1086 787 1050 738 Q1072 731 1087 717 Q1102 703 1102 683 Q1102 676 1099 667 Q1091 636 1052 636 Q1036 636 1025.5 649 Q1015 662 1015 682 Q1015 686 1017 698 Q1024 722 1035 740 Q1030 741 1018 741 Q951 741 894.5 710.5 Q838 680 800 628 Q876 595 889 529 Q890 526 890 517 Q890 501 885 494 L883 496 Q887 504 887 518 Q887 526 886 529 Q874 591 798 625 Q780 601 768 572 Q860 542 860 490 Q860 481 859 477 Q852 449 760 411 Q673 375 648 324 Q638 302 638 280 Q638 240 666 227 Q671 285 708.5 320.5 Q746 356 781 356 Q806 356 820.5 343 Q835 330 835 311 Q835 295 827 282 Q799 236 729 223 L729 215 Q729 185 738.5 166.5 Q748 148 764 148 Q790 148 810 173 Q810 174 808 176 Q806 178 805.5 179 Q805 180 803.5 182 Q802 184 802 185 Q802 186 801 188 Q800 190 800 191 Q800 192 799.5 194 Q799 196 799.5 197 Q800 198 800 200 Q802 212 819 212 Q827 212 829 205 Q830 197 826 189 Q818 177 817 175 Q825 165 828 161.5 Q831 158 835.5 148 Q840 138 840 128 Q840 121 839 118 Q833 94 806.5 78.5 Q780 63 741 63 Q685 63 529 136 Q498 118 459 118 Q431 118 408.5 135 Q386 152 386 180 Q386 192 393.5 200.5 Q401 209 407 209 Q413 209 421.5 204 Q430 199 447 188.5 Q464 178 478 170 Q480 176 484.5 185 Q489 194 490 196 L578 420 Q596 464 628 484.5 Q660 505 692 505 Z M1421 148 Q1477 148 1499 240 Q1503 256 1503 272 Q1503 292 1493 317 L1495 318 Q1508 292 1508 265 Q1508 251 1505 236 Q1493 184 1466 159 Q1439 134 1389 134 Q1361 134 1343.5 160 Q1326 186 1326 225 Q1326 244 1330 260 Q1341 306 1374 331 Q1407 356 1438 356 Q1468 356 1479 341 Q1501 355 1528 355 L1555 355 L1570 423 Q1582 481 1622 515.5 Q1662 550 1710 550 Q1750 550 1782 536 L1792 530 Q1808 541 1834 548 Q1830 558 1832 574 Q1836 600 1866 625 L1869 624 Q1851 603 1845 574 Q1843 566 1845 550 Q1863 552 1871 552 Q1899 552 1920.5 538 Q1942 524 1955 500 Q1978 508 1992.5 524.5 Q2007 541 2012 561 Q2015 575 2015 586 Q2015 598 2012 609 Q2001 601 1990.5 589.5 Q1980 578 1976 572 L1971 565 Q1971 576 1981.5 590 Q1992 604 2010 615 Q2000 647 1966 670.5 Q1932 694 1890 706.5 Q1848 719 1810 725 Q1772 731 1741 731 Q1651 731 1576 707 Q1598 665 1598 619 Q1598 601 1593 577 Q1581 535 1543.5 505 Q1506 475 1465 475 Q1457 475 1454 476 Q1438 427 1401 392.5 Q1364 358 1306 349 Q1300 326 1290.5 286 Q1281 246 1274.5 221 Q1268 196 1266 184 Q1262 160 1262 151 Q1262 105 1301 105 Q1315 105 1322.5 107.5 Q1330 110 1351 121 L1354 118 Q1304 84 1245 84 Q1219 84 1203.5 99 Q1188 114 1188 143 Q1188 159 1192 173 Q1196 195 1204 223.5 Q1212 252 1223 290 Q1234 328 1239 347 L1121 347 L1085 187 Q1084 183 1084 176 Q1084 149 1100 149 Q1108 149 1114 154 Q1114 158 1113.5 167 Q1113 176 1113 181 Q1113 213 1122.5 229.5 Q1132 246 1147 246 Q1163 246 1163 227 Q1163 222 1161 212 Q1159 204 1156.5 197.5 Q1154 191 1152 186.5 Q1150 182 1146.5 176.5 Q1143 171 1141 168.5 Q1139 166 1134 160 Q1129 154 1127 152 Q1129 121 1142 82 Q1193 80 1193 59 Q1193 43 1180 42 Q1189 44 1189 58 Q1189 78 1143 80 Q1156 44 1176 42 Q1146 44 1133 80 Q1102 78 1070 63 Q1038 48 1016 30.5 Q994 13 957.5 -16.5 Q921 -46 895 -63 Q913 -72 921 -80 Q943 -54 983.5 -41 Q1024 -28 1068 -28 Q1116 -28 1173 -50 Q1173 -47 1174.5 -41.5 Q1176 -36 1177 -31 Q1178 -26 1179 -22 Q1188 21 1235 51.5 Q1282 82 1314 82 Q1320 82 1322 77.5 Q1324 73 1325 65.5 Q1326 58 1330 53 Q1357 22 1399 22 Q1475 22 1505 136 L1553 347 L1528 347 Q1504 347 1485 334 Q1491 324 1491 314 Q1491 306 1485.5 301 Q1480 296 1473 296 Q1466 296 1461.5 301 Q1457 306 1457 312 Q1457 328 1473 338 Q1465 346 1452 346 Q1414 346 1391 249 Q1387 231 1387 212 Q1387 184 1397 166 Q1407 148 1421 148 Z M2149 211 L2152 212 Q2164 208 2184 198 Q2201 230 2212 276 Q2218 304 2218 330 Q2218 414 2162 455 Q2150 435 2131 422.5 Q2112 410 2101 408 Q2090 406 2082 406 Q2066 406 2051 415.5 Q2036 425 2036 440 Q2036 456 2051 469 Q2066 482 2086 482 Q2124 482 2154 465 Q2166 487 2173 515 Q2176 527 2176 538 Q2176 578 2145.5 605 Q2115 632 2069 632 Q2043 632 2017 613 Q2021 603 2021 587 Q2021 573 2018 560 Q2013 540 1997.5 523 Q1982 506 1957 497 Q1968 473 1968 451 Q1968 438 1965 426 Q1957 398 1936.5 379.5 Q1916 361 1891 354 Q1866 347 1835 347 L1763 347 Q1755 317 1742.5 262 Q1730 207 1725 187 Q1725 185 1724.5 182.5 Q1724 180 1724 178 Q1724 166 1728.5 157.5 Q1733 149 1742 149 Q1751 149 1764 162 Q1758 178 1758 196 Q1758 212 1762 225 Q1766 245 1776 257.5 Q1786 270 1795 270 Q1808 270 1808 252 Q1808 247 1805 232 Q1793 187 1774 161 Q1785 118 1821 100 Q1827 132 1844 145.5 Q1861 159 1884 159 Q1896 159 1905.5 151.5 Q1915 144 1915 132 Q1915 127 1914 124 Q1912 108 1897.5 98.5 Q1883 89 1863 89 Q1849 89 1836 92 Q1836 64 1852 45 Q1868 26 1896 18 Q1906 41 1931 55.5 Q1956 70 1986 70 Q2003 70 2014 65 L2013 63 Q2001 68 1986 68 Q1958 68 1935.5 53.5 Q1913 39 1903 16 Q1917 13 1932 13 Q1984 13 2023.5 38.5 Q2063 64 2085 111 Q2063 105 2034 105 Q1988 105 1964 130 Q1940 155 1940 189 Q1940 196 1942 208 Q1952 247 1980 268.5 Q2008 290 2043 290 Q2077 290 2098 265 Q2119 240 2119 196 Q2119 181 2116 163 Q2110 136 2101 120 Q2151 139 2182 195 Q2169 203 2149 211 Z M1745 68 L1747 66 Q1715 33 1699.5 4.5 Q1684 -24 1684 -63 Q1684 -76 1685 -82 L1713 -73 Q1708 -55 1708 -40 Q1708 17 1759 56 L1762 53 Q1713 17 1713 -41 Q1713 -54 1717 -70 Q1804 -41 1871 -41 L1892 -41 Q1890 -34 1890 -20 Q1890 -8 1891 -1 Q1893 11 1895 15 Q1861 23 1840.5 44.5 Q1820 66 1821 97 Q1785 111 1767 152 Q1737 118 1694 118 Q1675 118 1666.5 132 Q1658 146 1658 168 Q1658 175 1660 189 Q1680 283 1694 347 L1620 347 L1574 135 Q1566 94 1541 64 Q1516 34 1487 20 Q1458 6 1429 6 Q1359 6 1327 50 Q1323 55 1321.5 61 Q1320 67 1320.5 70.5 Q1321 74 1319.5 77 Q1318 80 1314 80 Q1300 80 1279.5 70 Q1259 60 1239 44 Q1219 28 1204.5 1 Q1190 -26 1189 -57 Q1213 -67 1255.5 -89 Q1298 -111 1316 -119 Q1364 -89 1422 -68.5 Q1480 -48 1521 -48 Q1563 -48 1598.5 -60 Q1634 -72 1653 -96 Q1665 -89 1676 -85 Q1675 -79 1675 -68 Q1675 4 1745 68 Z M1998 -101 Q1998 -110 1990 -121 Q2024 -129 2056 -129 Q2084 -129 2112 -122.5 Q2140 -116 2167.5 -102 Q2195 -88 2215.5 -62 Q2236 -36 2245 0 Q2252 33 2252 60 Q2252 142 2195 186 Q2159 134 2099 115 Q2075 65 2031.5 38 Q1988 11 1932 11 Q1920 11 1902 13 Q1900 9 1898 -1 Q1897 -8 1897 -21 Q1897 -35 1899 -42 Q1946 -46 1972 -61.5 Q1998 -77 1998 -101 Z M755 495 Q761 493 766.5 486.5 Q772 480 772 474 Q772 471 771 469 Q766 457 753 459 Q748 459 744.5 467 Q741 475 742 483 L742 493 Q728 497 720 497 Q696 497 676 473.5 Q656 450 644 416 L574 196 Q564 164 535 141 Q679 69 737 69 L739 69 Q783 69 806.5 90.5 Q830 112 830 138 Q830 142 828 150 Q827 157 814 170 Q788 134 732 134 Q703 134 683.5 160 Q664 186 666 225 Q648 231 638 248.5 Q628 266 628 288 Q628 308 636 325 Q650 353 684 376 Q718 399 758 413 Q787 423 814.5 442 Q842 461 846 478 Q848 490 848 494 Q848 544 767 569 Q751 533 747 498 L755 495 Z M948 -159 Q944 -175 934 -191 L944 -201 Q986 -237 1078 -237 Q1148 -237 1222 -186 Q1173 -136 1173 -63 L1173 -52 Q1115 -30 1068 -30 Q1024 -30 987.5 -46 Q951 -62 933 -91 Q950 -111 950 -139 Q950 -151 948 -159 Z M1918 492 Q1891 492 1867 507 Q1843 522 1835 544 Q1815 540 1799 525 Q1814 515 1814 499 Q1814 491 1808 485.5 Q1802 480 1792 480 Q1781 480 1775 485 Q1769 490 1769 498 Q1769 507 1775 513 Q1777 515 1779 517.5 Q1781 520 1783.5 522 Q1786 524 1788 526 Q1759 541 1733 541 L1725 541 Q1698 541 1674.5 514.5 Q1651 488 1642 446 L1622 355 L1639 355 Q1684 355 1725 379.5 Q1766 404 1770 431 Q1769 439 1771 446 Q1773 453 1779 453 Q1783 453 1786.5 448 Q1790 443 1788 438 Q1784 418 1780 410 Q1766 364 1764 355 L1831 355 Q1870 355 1904 371.5 Q1938 388 1949 427 Q1952 439 1952 453 Q1952 476 1945 494 Q1929 492 1918 492 Z M1134 531 Q1104 541 1083 541 Q1055 541 1029.5 514.5 Q1004 488 995 446 L976 355 L995 355 Q1040 355 1082 378.5 Q1124 402 1141 446 L1143 446 L1122 355 L1241 355 Q1257 411 1263 434 Q1266 444 1266 453 Q1266 473 1253 484 Q1240 495 1221 495 Q1205 495 1187 483 L1183 482 Q1185 476 1185 471 Q1185 451 1171 451 Q1165 451 1161.5 456 Q1158 461 1161 468 Q1165 478 1179 484 Q1170 515 1134 531 Z M1656 -142 Q1656 -126 1649 -109 Q1539 -160 1463 -160 Q1409 -160 1342 -132 Q1288 -168 1242 -194 Q1310 -252 1427 -252 Q1533 -252 1594.5 -220.5 Q1656 -189 1656 -142 Z M1589 577 Q1594 601 1594 619 Q1594 664 1573 706 Q1487 678 1442 628 Q1466 591 1466 549 Q1466 514 1455 478 Q1458 477 1464 477 Q1504 477 1541.5 506.5 Q1579 536 1589 577 Z M2100 160 Q2105 180 2105 204 Q2105 244 2086.5 266 Q2068 288 2043 288 Q2008 288 1986 260 Q1964 232 1963 193 L1963 184 Q1963 129 2002 112 Q2017 107 2034 107 Q2064 107 2087 114 Q2096 134 2100 160 Z M1871 -42 Q1804 -42 1719 -79 Q1733 -120 1775 -143.5 Q1817 -167 1863 -167 Q1903 -167 1933.5 -152.5 Q1964 -138 1975 -118 Q1905 -97 1893 -42 L1871 -42 Z M1521 -50 Q1487 -50 1446 -68 Q1412 -84 1344 -130 Q1413 -159 1463 -159 Q1491 -159 1520.5 -151 Q1550 -143 1567 -135.5 Q1584 -128 1618 -112 L1643 -100 Q1628 -76 1595.5 -63 Q1563 -50 1521 -50 Z M693 -157 Q701 -157 710 -155.5 Q719 -154 729.5 -150 Q740 -146 747 -142.5 Q754 -139 766.5 -130.5 Q779 -122 785.5 -118 Q792 -114 806 -103 Q820 -92 825 -88 Q830 -84 847 -70 Q864 -56 868 -53 Q816 -35 748 -35 Q704 -35 667 -47.5 Q630 -60 622 -86 Q620 -92 620 -102 Q620 -128 641.5 -142.5 Q663 -157 693 -157 Z M640 655 Q588 655 538 641 Q488 627 462 600 Q500 590 515 559 Q587 586 665 586 Q718 586 760 574 Q770 602 789 629 Q726 655 640 655 Z M521 517 Q521 537 513 555 L506 552 Q467 534 444 515 Q454 497 477 497 L480 497 L481 495 L475 495 Q453 495 439 511 Q413 487 408 461 Q406 447 406 441 Q406 423 414 411.5 Q422 400 437 400 Q467 400 494 434 Q521 468 521 517 Z M420 345 Q366 345 307 317 Q337 270 397 270 Q459 270 467 304 L467 309 Q467 324 453.5 334.5 Q440 345 420 345 Z M389 29 Q384 3 384 -15.5 Q384 -34 388 -48 Q422 -31 442.5 -6.5 Q463 18 468 42 Q469 46 469 57 Q469 91 447 91 Q431 91 413 74 Q395 57 389 29 Z M1229 -180 Q1241 -173 1269.5 -151.5 Q1298 -130 1314 -121 L1260 -94 Q1208 -66 1189 -59 Q1189 -61 1188.5 -65.5 Q1188 -70 1188 -73 Q1188 -134 1229 -180 Z M795 346 Q764 346 741 278 Q732 247 730 231 Q801 247 822 289 Q828 299 828 310 Q828 325 819 335.5 Q810 346 795 346 Z M1462 549 Q1462 591 1439 625 Q1407 588 1407 548 Q1407 522 1419.5 503 Q1432 484 1451 479 Q1462 515 1462 549 Z M2082 408 Q2094 408 2114 421 Q2134 434 2151 462 Q2124 480 2086 480 Q2068 480 2054.5 468 Q2041 456 2041 440 Q2041 425 2054.5 416.5 Q2068 408 2082 408 Z M1095 668 Q1098 676 1098 683 Q1098 701 1083 715.5 Q1068 730 1048 736 Q1033 714 1028 694 Q1026 687 1026 676 Q1026 659 1034 649.5 Q1042 640 1052 640 Q1087 640 1095 668 Z M1863 91 Q1897 91 1906 124 Q1906 125 1906.5 127 Q1907 129 1907 130 Q1907 140 1901 148 Q1895 156 1884 156 Q1842 156 1836 94 Q1848 91 1863 91 Z M392 177 Q392 161 403 145 Q414 129 430 129 Q453 129 473 163 L419 192 Q409 198 403 198 Q401 198 398.5 196 Q396 194 394 189.5 Q392 185 392 177 Z M1918 494 Q1932 494 1944 497 Q1934 521 1916 535 Q1898 549 1871 549 Q1862 549 1846 547 Q1852 525 1872 509.5 Q1892 494 1918 494 Z M443 565 Q439 551 439 539 Q439 529 442 520 Q466 538 504 554 L512 557 Q496 590 461 598 Q448 585 443 565 Z M1980 -101 Q1980 -77 1959 -62.5 Q1938 -48 1900 -43 Q1912 -93 1976 -116 Q1980 -109 1980 -101 Z M1771 170 Q1776 177 1779 184 Q1783 190 1786.5 197.5 Q1790 205 1792 210.5 Q1794 216 1796 222 Q1798 228 1798 230 L1799 232 Q1803 244 1803 256 Q1803 269 1795 269 Q1783 269 1771 225 Q1768 211 1768 198 Q1768 184 1771 170 Z M921 -121 Q917 -139 917 -145 Q917 -170 933 -189 Q946 -166 946 -139 Q946 -115 931 -94 Q924 -105 921 -121 Z M1126 164 Q1138 177 1145 187.5 Q1152 198 1154 212 Q1157 230 1157 231 Q1157 244 1147 244 Q1138 244 1131.5 228 Q1125 212 1125 181 Q1125 169 1126 164 Z M1782 498 Q1782 492 1785 487 Q1788 482 1792 482 Q1800 482 1805 487 Q1810 492 1810 499 Q1810 516 1795 522 Q1782 509 1782 498 Z M752 491 Q749 491 746 492 L746 483 Q745 475 747.5 467.5 Q750 460 754 460 Q762 460 766 469 Q770 479 753 490 Q753 490 752 491 Z M1480 332 Q1475 330 1471 324 Q1467 318 1467 311 Q1467 300 1475 300 Q1486 300 1486 314 Q1486 324 1480 332 Z M823 191 Q825 197 825 200 Q827 211 819 211 Q815 211 811.5 205.5 Q808 200 808 195 Q808 187 814 179 L823 191 Z M1180 471 L1180 480 Q1170 476 1165 467 Q1164 465 1164 462 Q1164 453 1171 453 Q1177 453 1178.5 457 Q1180 461 1180 471 Z " />
<glyph glyph-name="arrowright" unicode="&#x2192;" horiz-adv-x="500" d="M-3 228 L9 296 L382 296 L295 402 L346 444 L491 263 L491 261 L285 80 L249 121 L370 228 L-3 228 Z " />
<glyph glyph-name="arrowleft" unicode="&#x2190;" horiz-adv-x="500" d="M488 296 L476 228 L103 228 L190 122 L139 80 L-6 261 L-6 263 L200 444 L236 403 L115 296 L488 296 Z " />
<glyph glyph-name="arrowdown" unicode="&#x2193;" horiz-adv-x="500" d="M265 512 L330 512 L266 126 L389 232 L424 192 L214 12 L68 193 L116 233 L201 126 L265 512 Z " />
<glyph glyph-name="circle" unicode="&#x25cb;" horiz-adv-x="610" d="M407 146 Q360 119 305 119 Q250 119 202.5 146.5 Q155 174 127.5 221 Q100 268 100 324 Q100 380 127.5 427 Q155 474 202.5 501.5 Q250 529 305 529 Q360 529 407.5 501.5 Q455 474 482.5 427 Q510 380 510 324 Q510 268 482.5 221 Q455 174 407 146 Z " />
<glyph glyph-name="triangle" unicode="&#x25b3;" horiz-adv-x="425" d="M335 320 L150 203 L150 434 L335 320 Z " />
<glyph glyph-name="quotedbl" unicode="&#x22;" horiz-adv-x="373" d="M173 720 L173 441 L90 441 L90 720 L173 720 Z M325 720 L325 441 L242 441 L242 720 L325 720 Z " />
<glyph glyph-name="quotesingle" unicode="&#x27;" horiz-adv-x="221" d="M173 720 L173 441 L90 441 L90 720 L173 720 Z " />
<glyph glyph-name="zerosuperior" unicode="&#x2070;" horiz-adv-x="358" d="M84 585 Q98 684 143.5 730.5 Q189 777 253 777 Q307 777 338 746 Q369 715 369 646 Q369 633 367.5 619 Q366 605 364 589 Q356 536 340.5 498.5 Q325 461 303 437.5 Q281 414 253 403.5 Q225 393 193 393 Q139 393 109.5 424 Q80 455 80 526 Q80 540 81 554 Q82 568 84 585 Z M157 589 Q151 551 151 525 Q151 482 165 467.5 Q179 453 202 453 Q216 453 229 459 Q242 465 254 480 Q266 495 275.5 521.5 Q285 548 291 590 Q293 605 294.5 618 Q296 631 296 642 Q296 685 280.5 700 Q265 715 243 715 Q229 715 216.5 709.5 Q204 704 192.5 690 Q181 676 172 651.5 Q163 627 157 589 Z " />
<glyph glyph-name="onesuperior" unicode="&#xb9;" horiz-adv-x="255" d="M139 400 L185 676 Q159 668 135.5 664 Q112 660 88 661 L89 709 Q121 716 156.5 732 Q192 748 218 771 L271 771 L209 400 L139 400 Z " />
<glyph glyph-name="twosuperior" unicode="&#xb2;" horiz-adv-x="307" d="M45 449 L198 587 Q213 600 224.5 610.5 Q236 621 244 631 Q252 641 256 651.5 Q260 662 260 676 Q260 714 211 714 Q186 714 157 701.5 Q128 689 101 671 L81 716 Q112 740 152.5 758.5 Q193 777 237 777 Q284 777 310.5 755 Q337 733 337 693 Q337 658 318 628.5 Q299 599 261 566 L139 460 L303 460 L293 400 L37 400 L45 449 Z " />
<glyph glyph-name="threesuperior" unicode="&#xb3;" horiz-adv-x="318" d="M73 489 Q93 473 114.5 463 Q136 453 168 453 Q210 453 230.5 471 Q251 489 251 518 Q251 540 234 550 Q217 560 178 560 Q171 560 159 559.5 Q147 559 144 558 L155 619 Q203 620 230.5 635.5 Q258 651 258 685 Q258 703 244 710 Q230 717 207 717 Q184 717 160.5 710 Q137 703 116 692 L102 740 Q128 755 160.5 766 Q193 777 233 777 Q281 777 307 758 Q333 739 333 701 Q333 663 308.5 634.5 Q284 606 244 595 Q288 591 306 570 Q324 549 324 519 Q324 489 312 465.5 Q300 442 278.5 426 Q257 410 228 401.5 Q199 393 166 393 Q125 393 91.5 405 Q58 417 35 443 L73 489 Z " />
<glyph glyph-name="foursuperior" unicode="&#x2074;" horiz-adv-x="337" d="M133 529 L247 529 L276 707 L133 529 Z M237 472 L55 472 L64 527 L263 771 L356 771 L316 529 L356 529 L346 472 L306 472 L294 400 L225 400 L237 472 Z " />
<glyph glyph-name="fivesuperior" unicode="&#x2075;" horiz-adv-x="323" d="M143 771 L351 771 L337 711 L188 711 L163 612 Q177 620 197.5 628 Q218 636 247 636 Q292 636 314 611.5 Q336 587 336 546 Q336 510 323 482 Q310 454 287.5 434 Q265 414 235 403.5 Q205 393 170 393 Q135 393 102.5 403.5 Q70 414 47 434 L78 479 Q100 466 124 458.5 Q148 451 171 451 Q215 451 239.5 471.5 Q264 492 264 534 Q264 579 215 579 Q195 579 178.5 571.5 Q162 564 149 556 L142 528 L85 528 L143 771 Z " />
<glyph glyph-name="sixsuperior" unicode="&#x2076;" horiz-adv-x="333" d="M74 522 Q74 574 87 620.5 Q100 667 125.5 701.5 Q151 736 188.5 756 Q226 776 274 776 Q300 776 325 769.5 Q350 763 372 747 L342 700 Q311 721 274 721 Q222 721 191 683.5 Q160 646 149 592 Q193 636 255 636 Q303 636 324.5 608 Q346 580 346 542 Q346 506 333.5 478 Q321 450 299.5 431 Q278 412 249.5 402.5 Q221 393 188 393 Q127 393 100.5 427.5 Q74 462 74 522 Z M231 579 Q205 579 182.5 568 Q160 557 143 540 Q140 499 152 474 Q164 449 198 449 Q232 449 256 468 Q280 487 280 530 Q280 554 267 566.5 Q254 579 231 579 Z " />
<glyph glyph-name="sevensuperior" unicode="&#x2077;" horiz-adv-x="291" d="M144 400 L72 400 L73 407 L263 711 L80 711 L90 771 L351 771 L344 727 L144 400 Z " />
<glyph glyph-name="eightsuperior" unicode="&#x2078;" horiz-adv-x="330" d="M124 490 Q124 470 139.5 459 Q155 448 186 448 Q222 448 245 465 Q268 482 268 510 Q268 531 252 543.5 Q236 556 200 572 Q168 555 146 537 Q124 519 124 490 Z M174 680 Q174 661 190 650 Q206 639 231 627 Q252 638 271.5 655.5 Q291 673 291 694 Q291 729 242 729 Q174 729 174 680 Z M57 480 Q57 503 65.5 521.5 Q74 540 88 554 Q102 568 120 578.5 Q138 589 158 597 Q135 608 120 626 Q105 644 105 670 Q105 718 145 747.5 Q185 777 250 777 Q301 777 328 758 Q355 739 355 704 Q355 669 332 643.5 Q309 618 274 603 Q308 588 323.5 568.5 Q339 549 339 520 Q339 460 294 426.5 Q249 393 179 393 Q121 393 89 416 Q57 439 57 480 Z " />
<glyph glyph-name="ninesuperior" unicode="&#x2079;" horiz-adv-x="333" d="M354 650 Q354 596 341.5 549.5 Q329 503 304 468 Q279 433 241.5 413 Q204 393 154 393 Q128 393 103 399.5 Q78 406 59 420 L87 470 Q103 460 121 454.5 Q139 449 163 449 Q208 449 241 482.5 Q274 516 284 571 Q261 549 232 540 Q203 531 173 531 Q149 531 131.5 539 Q114 547 103 560 Q92 573 86.5 590.5 Q81 608 81 627 Q81 663 94 691 Q107 719 128.5 738 Q150 757 179 766.5 Q208 776 241 776 Q301 776 327.5 742 Q354 708 354 650 Z M198 584 Q223 584 246.5 597.5 Q270 611 287 626 Q291 671 278.5 696 Q266 721 231 721 Q196 721 172 700 Q148 679 148 635 Q148 584 198 584 Z " />
<glyph glyph-name="zeroinferior" unicode="&#x2080;" horiz-adv-x="358" d="M7 90 Q21 189 66.5 235.5 Q112 282 176 282 Q230 282 261 251 Q292 220 292 151 Q292 138 290.5 124 Q289 110 287 94 Q279 41 263.5 3.5 Q248 -34 226 -57.5 Q204 -81 176 -91.5 Q148 -102 116 -102 Q62 -102 32.5 -71 Q3 -40 3 31 Q3 45 4 59 Q5 73 7 90 Z M80 94 Q74 56 74 30 Q74 -13 88 -27.5 Q102 -42 125 -42 Q139 -42 152 -36 Q165 -30 177 -15 Q189 0 198.5 26.5 Q208 53 214 95 Q216 110 217.5 123 Q219 136 219 147 Q219 190 203.5 205 Q188 220 166 220 Q152 220 139.5 214.5 Q127 209 115.5 195 Q104 181 95 156.5 Q86 132 80 94 Z " />
<glyph glyph-name="oneinferior" unicode="&#x2081;" horiz-adv-x="255" d="M72 -95 L118 181 Q92 173 68.5 169 Q45 165 21 166 L22 214 Q54 221 89.5 237 Q125 253 151 276 L204 276 L142 -95 L72 -95 Z " />
<glyph glyph-name="twoinferior" unicode="&#x2082;" horiz-adv-x="307" d="M-30 -46 L123 92 Q138 105 149.5 115.5 Q161 126 169 136 Q177 146 181 156.5 Q185 167 185 181 Q185 219 136 219 Q111 219 82 206.5 Q53 194 26 176 L6 221 Q37 245 77.5 263.5 Q118 282 162 282 Q209 282 235.5 260 Q262 238 262 198 Q262 163 243 133.5 Q224 104 186 71 L64 -35 L228 -35 L218 -95 L-38 -95 L-30 -46 Z " />
<glyph glyph-name="threeinferior" unicode="&#x2083;" horiz-adv-x="318" d="M0 -6 Q20 -22 41.5 -32 Q63 -42 95 -42 Q137 -42 157.5 -24 Q178 -6 178 23 Q178 45 161 55 Q144 65 105 65 Q98 65 86 64.5 Q74 64 71 63 L82 124 Q130 125 157.5 140.5 Q185 156 185 190 Q185 208 171 215 Q157 222 134 222 Q111 222 87.5 215 Q64 208 43 197 L29 245 Q55 260 87.5 271 Q120 282 160 282 Q208 282 234 263 Q260 244 260 206 Q260 168 235.5 139.5 Q211 111 171 100 Q215 96 233 75 Q251 54 251 24 Q251 -6 239 -29.5 Q227 -53 205.5 -69 Q184 -85 155 -93.5 Q126 -102 93 -102 Q52 -102 18.5 -90 Q-15 -78 -38 -52 L0 -6 Z " />
<glyph glyph-name="fourinferior" unicode="&#x2084;" horiz-adv-x="337" d="M51 34 L165 34 L194 212 L51 34 Z M155 -23 L-27 -23 L-18 32 L181 276 L274 276 L234 34 L274 34 L264 -23 L224 -23 L212 -95 L143 -95 L155 -23 Z " />
<glyph glyph-name="fiveinferior" unicode="&#x2085;" horiz-adv-x="324" d="M63 276 L271 276 L257 216 L108 216 L83 117 Q97 125 117.5 133 Q138 141 167 141 Q212 141 234 116.5 Q256 92 256 51 Q256 15 243 -13 Q230 -41 207.5 -61 Q185 -81 155 -91.5 Q125 -102 90 -102 Q55 -102 22.5 -91.5 Q-10 -81 -33 -61 L-2 -16 Q20 -29 44 -36.5 Q68 -44 91 -44 Q135 -44 159.5 -23.5 Q184 -3 184 39 Q184 84 135 84 Q115 84 98.5 76.5 Q82 69 69 61 L62 33 L5 33 L63 276 Z " />
<glyph glyph-name="sixinferior" unicode="&#x2086;" horiz-adv-x="333" d="M0 27 Q0 79 13 125.5 Q26 172 51.5 206.5 Q77 241 114.5 261 Q152 281 200 281 Q226 281 251 274.5 Q276 268 298 252 L268 205 Q237 226 200 226 Q148 226 117 188.5 Q86 151 75 97 Q119 141 181 141 Q229 141 250.5 113 Q272 85 272 47 Q272 11 259.5 -17 Q247 -45 225.5 -64 Q204 -83 175.5 -92.5 Q147 -102 114 -102 Q53 -102 26.5 -67.5 Q0 -33 0 27 Z M157 84 Q131 84 108.5 73 Q86 62 69 45 Q66 4 78 -21 Q90 -46 124 -46 Q158 -46 182 -27 Q206 -8 206 35 Q206 59 193 71.5 Q180 84 157 84 Z " />
<glyph glyph-name="seveninferior" unicode="&#x2087;" horiz-adv-x="291" d="M68 -95 L-4 -95 L-3 -88 L187 216 L4 216 L14 276 L275 276 L268 232 L68 -95 Z " />
<glyph glyph-name="eightinferior" unicode="&#x2088;" horiz-adv-x="331" d="M50 -5 Q50 -25 65.5 -36 Q81 -47 112 -47 Q148 -47 171 -30 Q194 -13 194 15 Q194 36 178 48.5 Q162 61 126 77 Q94 60 72 42 Q50 24 50 -5 Z M100 185 Q100 166 116 155 Q132 144 157 132 Q178 143 197.5 160.5 Q217 178 217 199 Q217 234 168 234 Q100 234 100 185 Z M-17 -15 Q-17 8 -8.5 26.5 Q0 45 14 59 Q28 73 46 83.5 Q64 94 84 102 Q61 113 46 131 Q31 149 31 175 Q31 223 71 252.5 Q111 282 176 282 Q227 282 254 263 Q281 244 281 209 Q281 174 258 148.5 Q235 123 200 108 Q234 93 249.5 73.5 Q265 54 265 25 Q265 -35 220 -68.5 Q175 -102 105 -102 Q47 -102 15 -79 Q-17 -56 -17 -15 Z " />
<glyph glyph-name="nineinferior" unicode="&#x2089;" horiz-adv-x="333" d="M278 155 Q278 101 265.5 54.5 Q253 8 228 -27 Q203 -62 165.5 -82 Q128 -102 78 -102 Q52 -102 27 -95.5 Q2 -89 -17 -75 L11 -25 Q27 -35 45 -40.5 Q63 -46 87 -46 Q132 -46 165 -12.5 Q198 21 208 76 Q185 54 156 45 Q127 36 97 36 Q73 36 55.5 44 Q38 52 27 65 Q16 78 10.5 95.5 Q5 113 5 132 Q5 168 18 196 Q31 224 52.5 243 Q74 262 103 271.5 Q132 281 165 281 Q225 281 251.5 247 Q278 213 278 155 Z M122 89 Q147 89 170.5 102.5 Q194 116 211 131 Q215 176 202.5 201 Q190 226 155 226 Q120 226 96 205 Q72 184 72 140 Q72 89 122 89 Z " />
<glyph glyph-name="onethird" unicode="&#x2153;" horiz-adv-x="827" d="M72 -1 L619 720 L691 720 L144 -1 L72 -1 Z M132 351 L178 627 Q152 619 128.5 615 Q105 611 81 612 L82 660 Q114 667 149.5 683 Q185 699 211 722 L264 722 L202 351 L132 351 Z M506 90 Q526 74 547.5 64 Q569 54 601 54 Q643 54 663.5 72 Q684 90 684 119 Q684 141 667 151 Q650 161 611 161 Q604 161 592 160.5 Q580 160 577 159 L588 220 Q636 221 663.5 236.5 Q691 252 691 286 Q691 304 677 311 Q663 318 640 318 Q617 318 593.5 311 Q570 304 549 293 L535 341 Q561 356 593.5 367 Q626 378 666 378 Q714 378 740 359 Q766 340 766 302 Q766 264 741.5 235.5 Q717 207 677 196 Q721 192 739 171 Q757 150 757 120 Q757 90 745 66.5 Q733 43 711.5 27 Q690 11 661 2.5 Q632 -6 599 -6 Q558 -6 524.5 6 Q491 18 468 44 L506 90 Z " />
<glyph glyph-name="twothirds" unicode="&#x2154;" horiz-adv-x="827" d="M166 -1 L713 720 L785 720 L238 -1 L166 -1 Z M112 400 L265 538 Q280 551 291.5 561.5 Q303 572 311 582 Q319 592 323 602.5 Q327 613 327 627 Q327 665 278 665 Q253 665 224 652.5 Q195 640 168 622 L148 667 Q179 691 219.5 709.5 Q260 728 304 728 Q351 728 377.5 706 Q404 684 404 644 Q404 609 385 579.5 Q366 550 328 517 L206 411 L370 411 L360 351 L104 351 L112 400 Z M543 90 Q563 74 584.5 64 Q606 54 638 54 Q680 54 700.5 72 Q721 90 721 119 Q721 141 704 151 Q687 161 648 161 Q641 161 629 160.5 Q617 160 614 159 L625 220 Q673 221 700.5 236.5 Q728 252 728 286 Q728 304 714 311 Q700 318 677 318 Q654 318 630.5 311 Q607 304 586 293 L572 341 Q598 356 630.5 367 Q663 378 703 378 Q751 378 777 359 Q803 340 803 302 Q803 264 778.5 235.5 Q754 207 714 196 Q758 192 776 171 Q794 150 794 120 Q794 90 782 66.5 Q770 43 748.5 27 Q727 11 698 2.5 Q669 -6 636 -6 Q595 -6 561.5 6 Q528 18 505 44 L543 90 Z " />
<glyph glyph-name="oneeighth" unicode="&#x215b;" horiz-adv-x="827" d="M78 -1 L625 720 L697 720 L150 -1 L78 -1 Z M137 351 L183 627 Q157 619 133.5 615 Q110 611 86 612 L87 660 Q119 667 154.5 683 Q190 699 216 722 L269 722 L207 351 L137 351 Z M534 91 Q534 71 549.5 60 Q565 49 596 49 Q632 49 655 66 Q678 83 678 111 Q678 132 662 144.5 Q646 157 610 173 Q578 156 556 138 Q534 120 534 91 Z M584 281 Q584 262 600 251 Q616 240 641 228 Q662 239 681.5 256.5 Q701 274 701 295 Q701 330 652 330 Q584 330 584 281 Z M467 81 Q467 104 475.5 122.5 Q484 141 498 155 Q512 169 530 179.5 Q548 190 568 198 Q545 209 530 227 Q515 245 515 271 Q515 319 555 348.5 Q595 378 660 378 Q711 378 738 359 Q765 340 765 305 Q765 270 742 244.5 Q719 219 684 204 Q718 189 733.5 169.5 Q749 150 749 121 Q749 61 704 27.5 Q659 -6 589 -6 Q531 -6 499 17 Q467 40 467 81 Z " />
<glyph glyph-name="threeeighths" unicode="&#x215c;" horiz-adv-x="827" d="M111 -1 L658 720 L730 720 L183 -1 L111 -1 Z M545 91 Q545 71 560.5 60 Q576 49 607 49 Q643 49 666 66 Q689 83 689 111 Q689 132 673 144.5 Q657 157 621 173 Q589 156 567 138 Q545 120 545 91 Z M595 281 Q595 262 611 251 Q627 240 652 228 Q673 239 692.5 256.5 Q712 274 712 295 Q712 330 663 330 Q595 330 595 281 Z M478 81 Q478 104 486.5 122.5 Q495 141 509 155 Q523 169 541 179.5 Q559 190 579 198 Q556 209 541 227 Q526 245 526 271 Q526 319 566 348.5 Q606 378 671 378 Q722 378 749 359 Q776 340 776 305 Q776 270 753 244.5 Q730 219 695 204 Q729 189 744.5 169.5 Q760 150 760 121 Q760 61 715 27.5 Q670 -6 600 -6 Q542 -6 510 17 Q478 40 478 81 Z M73 440 Q93 424 114.5 414 Q136 404 168 404 Q210 404 230.5 422 Q251 440 251 469 Q251 491 234 501 Q217 511 178 511 Q171 511 159 510.5 Q147 510 144 509 L155 570 Q203 571 230.5 586.5 Q258 602 258 636 Q258 654 244 661 Q230 668 207 668 Q184 668 160.5 661 Q137 654 116 643 L102 691 Q128 706 160.5 717 Q193 728 233 728 Q281 728 307 709 Q333 690 333 652 Q333 614 308.5 585.5 Q284 557 244 546 Q288 542 306 521 Q324 500 324 470 Q324 440 312 416.5 Q300 393 278.5 377 Q257 361 228 352.5 Q199 344 166 344 Q125 344 91.5 356 Q58 368 35 394 L73 440 Z " />
<glyph glyph-name="fiveeighths" unicode="&#x215d;" horiz-adv-x="827" d="M119 -1 L666 720 L738 720 L191 -1 L119 -1 Z M153 722 L361 722 L347 662 L198 662 L173 563 Q187 571 207.5 579 Q228 587 257 587 Q302 587 324 562.5 Q346 538 346 497 Q346 461 333 433 Q320 405 297.5 385 Q275 365 245 354.5 Q215 344 180 344 Q145 344 112.5 354.5 Q80 365 57 385 L88 430 Q110 417 134 409.5 Q158 402 181 402 Q225 402 249.5 422.5 Q274 443 274 485 Q274 530 225 530 Q205 530 188.5 522.5 Q172 515 159 507 L152 479 L95 479 L153 722 Z M547 91 Q547 71 562.5 60 Q578 49 609 49 Q645 49 668 66 Q691 83 691 111 Q691 132 675 144.5 Q659 157 623 173 Q591 156 569 138 Q547 120 547 91 Z M597 281 Q597 262 613 251 Q629 240 654 228 Q675 239 694.5 256.5 Q714 274 714 295 Q714 330 665 330 Q597 330 597 281 Z M480 81 Q480 104 488.5 122.5 Q497 141 511 155 Q525 169 543 179.5 Q561 190 581 198 Q558 209 543 227 Q528 245 528 271 Q528 319 568 348.5 Q608 378 673 378 Q724 378 751 359 Q778 340 778 305 Q778 270 755 244.5 Q732 219 697 204 Q731 189 746.5 169.5 Q762 150 762 121 Q762 61 717 27.5 Q672 -6 602 -6 Q544 -6 512 17 Q480 40 480 81 Z " />
<glyph glyph-name="seveneighths" unicode="&#x215e;" horiz-adv-x="827" d="M84 -1 L631 720 L703 720 L156 -1 L84 -1 Z M540 91 Q540 71 555.5 60 Q571 49 602 49 Q638 49 661 66 Q684 83 684 111 Q684 132 668 144.5 Q652 157 616 173 Q584 156 562 138 Q540 120 540 91 Z M590 281 Q590 262 606 251 Q622 240 647 228 Q668 239 687.5 256.5 Q707 274 707 295 Q707 330 658 330 Q590 330 590 281 Z M473 81 Q473 104 481.5 122.5 Q490 141 504 155 Q518 169 536 179.5 Q554 190 574 198 Q551 209 536 227 Q521 245 521 271 Q521 319 561 348.5 Q601 378 666 378 Q717 378 744 359 Q771 340 771 305 Q771 270 748 244.5 Q725 219 690 204 Q724 189 739.5 169.5 Q755 150 755 121 Q755 61 710 27.5 Q665 -6 595 -6 Q537 -6 505 17 Q473 40 473 81 Z M189 351 L117 351 L118 358 L308 662 L125 662 L135 722 L396 722 L389 678 L189 351 Z " />
</font>
</svg>
