<?xml version="1.0" encoding="UTF-8"?>
<svg xmlns="http://www.w3.org/2000/svg" xmlns:xlink="http://www.w3.org/1999/xlink" version="1.2" >
<font id="LFTEticaBk">
<font-face  font-family="LFT Etica" units-per-em="1000" ascent="930" descent="-270" font-style="normal" font-weight="350" font-stretch="normal" cap-height="720" x-height="525" underline-position="-75" underline-thickness="50" />
<missing-glyph  horiz-adv-x="176" d="" />
<glyph glyph-name="space" unicode="&#x20;" horiz-adv-x="203" d="" />
<glyph glyph-name="numbersign" unicode="&#x23;" horiz-adv-x="695" d="M243 247 L400 247 L450 388 L289 388 L243 247 Z M504 388 L455 247 L592 247 L592 195 L438 195 L371 13 L322 25 L384 195 L223 195 L157 13 L109 25 L169 195 L53 195 L53 247 L187 247 L236 388 L108 388 L108 441 L254 441 L323 639 L373 627 L309 441 L468 441 L538 638 L588 627 L523 441 L646 441 L646 388 L504 388 Z " />
<glyph glyph-name="ampersand" unicode="&#x26;" horiz-adv-x="716" d="M239 577 Q239 550 256 517.5 Q273 485 311 445 Q369 471 396.5 504.5 Q424 538 424 578 Q424 614 398 639 Q372 664 330 664 Q288 664 263.5 639.5 Q239 615 239 577 Z M309 47 Q360 47 401.5 71.5 Q443 96 481 141 L289 373 Q223 344 187.5 301 Q152 258 152 198 Q152 167 163 139.5 Q174 112 194.5 91.5 Q215 71 244 59 Q273 47 309 47 Z M520 89 Q473 35 422 9 Q371 -17 302 -17 Q253 -17 212 -1.5 Q171 14 141.5 42 Q112 70 95.5 109 Q79 148 79 195 Q79 270 122.5 324.5 Q166 379 249 417 Q216 452 193 489.5 Q170 527 170 574 Q170 606 181.5 633.5 Q193 661 214 681 Q235 701 265 712.5 Q295 724 331 724 Q365 724 394 714 Q423 704 444.5 685 Q466 666 478 639.5 Q490 613 490 580 Q490 519 453 476.5 Q416 434 353 403 L441 296 L566 397 L607 349 L481 245 L657 36 L605 -9 L520 89 Z " />
<glyph glyph-name="asterisk" unicode="&#x2a;" horiz-adv-x="428" d="M213 525 L127 428 L93 451 L164 556 L60 596 L73 633 L185 606 L194 720 L233 720 L242 607 L355 634 L368 596 L261 556 L329 451 L298 428 L213 525 Z " />
<glyph glyph-name="comma" unicode="&#x2c;" horiz-adv-x="241" d="M61 39 Q61 63 77 77 Q93 91 119 91 Q153 91 168 68.5 Q183 46 183 18 Q183 -30 157.5 -69.5 Q132 -109 75 -132 L59 -100 Q97 -80 113.5 -57 Q130 -34 132 -5 Q121 -11 107 -11 Q85 -11 73 3.5 Q61 18 61 39 Z " />
<glyph glyph-name="hyphen" unicode="&#x2d;" horiz-adv-x="335" d="M34 310 L301 310 L301 240 L34 240 L34 310 Z " />
<glyph glyph-name="period" unicode="&#x2e;" horiz-adv-x="243" d="M65 41 Q65 67 81 81.5 Q97 96 122 96 Q147 96 163 82 Q179 68 179 42 Q179 17 163 2.5 Q147 -12 122 -12 Q96 -12 80.5 2.5 Q65 17 65 41 Z " />
<glyph glyph-name="colon" unicode="&#x3a;" horiz-adv-x="243" d="M65 41 Q65 67 81 81.5 Q97 96 122 96 Q147 96 163 82 Q179 68 179 42 Q179 17 163 2.5 Q147 -12 122 -12 Q96 -12 80.5 2.5 Q65 17 65 41 Z M65 443 Q65 469 81 483.5 Q97 498 122 498 Q147 498 163 484 Q179 470 179 444 Q179 419 163 404.5 Q147 390 122 390 Q96 390 80.5 404.5 Q65 419 65 443 Z " />
<glyph glyph-name="semicolon" unicode="&#x3b;" horiz-adv-x="241" d="M61 39 Q61 63 77 77 Q93 91 119 91 Q153 91 168 68.5 Q183 46 183 18 Q183 -30 157.5 -69.5 Q132 -109 75 -132 L59 -100 Q97 -80 113.5 -57 Q130 -34 132 -5 Q121 -11 107 -11 Q85 -11 73 3.5 Q61 18 61 39 Z M66 443 Q66 469 82 483.5 Q98 498 123 498 Q148 498 164 484 Q180 470 180 444 Q180 419 164 404.5 Q148 390 123 390 Q97 390 81.5 404.5 Q66 419 66 443 Z " />
<glyph glyph-name="question" unicode="&#x3f;" horiz-adv-x="523" d="M222 224 Q222 265 234.5 296.5 Q247 328 266.5 353.5 Q286 379 308 401 Q330 423 349.5 445.5 Q369 468 381.5 492.5 Q394 517 394 548 Q394 605 361.5 636 Q329 667 264 667 Q197 667 160 628.5 Q123 590 123 519 L53 519 Q53 622 109 677.5 Q165 733 269 733 Q313 733 350 721.5 Q387 710 413.5 687.5 Q440 665 455 632.5 Q470 600 470 558 Q470 519 456.5 488.5 Q443 458 423 432.5 Q403 407 380 383.5 Q357 360 337 335.5 Q317 311 303.5 283.5 Q290 256 290 221 L290 198 L222 198 L222 224 Z M200 39 Q200 65 215.5 79 Q231 93 256 93 Q279 93 295 79.5 Q311 66 311 41 Q311 16 295 2 Q279 -12 256 -12 Q231 -12 215.5 2 Q200 16 200 39 Z " />
<glyph glyph-name="exclam" unicode="&#x21;" horiz-adv-x="312" d="M118 479 L118 720 L196 720 L196 479 L186 198 L127 198 L118 479 Z M101 39 Q101 65 116.5 79 Q132 93 157 93 Q180 93 196 79.5 Q212 66 212 41 Q212 16 196 2 Q180 -12 157 -12 Q132 -12 116.5 2 Q101 16 101 39 Z " />
<glyph glyph-name="exclamdown" unicode="&#xa1;" horiz-adv-x="312" d="M127 327 L186 327 L196 46 L196 -195 L118 -195 L118 46 L127 327 Z M101 486 Q101 509 116.5 523 Q132 537 157 537 Q180 537 196 523 Q212 509 212 484 Q212 459 196 445.5 Q180 432 157 432 Q132 432 116.5 446 Q101 460 101 486 Z " />
<glyph glyph-name="questiondown" unicode="&#xbf;" horiz-adv-x="523" d="M304 301 Q304 260 291.5 228.5 Q279 197 259.5 171.5 Q240 146 218 124 Q196 102 176.5 79.5 Q157 57 144.5 32.5 Q132 8 132 -23 Q132 -80 164.5 -111 Q197 -142 262 -142 Q329 -142 366 -103.5 Q403 -65 403 6 L473 6 Q473 -97 417 -152.5 Q361 -208 257 -208 Q213 -208 176 -196.5 Q139 -185 112.5 -162.5 Q86 -140 71 -107.5 Q56 -75 56 -33 Q56 6 69.5 36.5 Q83 67 103 92.5 Q123 118 146 141.5 Q169 165 189 189.5 Q209 214 222.5 241.5 Q236 269 236 304 L236 327 L304 327 L304 301 Z M326 486 Q326 460 310.5 446 Q295 432 270 432 Q247 432 231 445.5 Q215 459 215 484 Q215 509 231 523 Q247 537 270 537 Q295 537 310.5 523 Q326 509 326 486 Z " />
<glyph glyph-name="at" unicode="&#x40;" horiz-adv-x="984" d="M607 341 Q578 362 521 362 Q479 362 445.5 345 Q412 328 388.5 299 Q365 270 352.5 232.5 Q340 195 340 153 Q340 107 359.5 77 Q379 47 425 47 Q452 47 475 59 Q498 71 516 90.5 Q534 110 547.5 135.5 Q561 161 568 188 L607 341 Z M619 145 Q613 122 613 104 Q613 75 626.5 60 Q640 45 673 45 Q717 45 751.5 67.5 Q786 90 810 127 Q834 164 846.5 210.5 Q859 257 859 305 Q859 377 835 431 Q811 485 767.5 521 Q724 557 664 575.5 Q604 594 531 594 Q443 594 368.5 563.5 Q294 533 240 478.5 Q186 424 156 349 Q126 274 126 185 Q126 102 154 38.5 Q182 -25 231.5 -69 Q281 -113 348.5 -135.5 Q416 -158 494 -158 Q581 -158 649.5 -135.5 Q718 -113 781 -67 L809 -109 Q743 -161 661.5 -186.5 Q580 -212 493 -212 Q403 -212 325 -186 Q247 -160 189 -109.5 Q131 -59 97.5 15 Q64 89 64 186 Q64 289 100 374.5 Q136 460 199 521 Q262 582 348 615.5 Q434 649 534 649 Q623 649 694.5 625 Q766 601 816 556.5 Q866 512 893 449.5 Q920 387 920 311 Q920 245 902 187.5 Q884 130 851 87 Q818 44 771 19 Q724 -6 667 -6 Q611 -6 585 19.5 Q559 45 563 88 Q538 50 502 23.5 Q466 -3 414 -3 Q344 -3 310.5 40 Q277 83 277 152 Q277 203 294 250.5 Q311 298 343.5 334.5 Q376 371 422.5 392.5 Q469 414 528 414 Q573 414 610.5 404 Q648 394 675 377 L619 145 Z " />
<glyph glyph-name="A" unicode="A" horiz-adv-x="643" d="M361 720 L624 0 L542 0 L466 206 L176 206 L102 0 L19 0 L280 720 L361 720 Z M444 276 L321 633 L198 276 L444 276 Z " />
<glyph glyph-name="B" unicode="B" horiz-adv-x="623" d="M160 653 L160 404 L299 404 Q334 404 366 409.5 Q398 415 422 430 Q446 445 460.5 470.5 Q475 496 475 535 Q475 601 432.5 627 Q390 653 314 653 L160 653 Z M160 67 L341 67 Q426 67 468 105.5 Q510 144 510 210 Q510 246 497 270.5 Q484 295 460.5 310 Q437 325 404 331 Q371 337 331 337 L160 337 L160 67 Z M83 720 L328 720 Q448 720 501 673.5 Q554 627 554 543 Q554 517 546.5 490 Q539 463 523.5 440.5 Q508 418 483 401.5 Q458 385 422 380 L422 378 Q469 373 501 356 Q533 339 552.5 314.5 Q572 290 580.5 261.5 Q589 233 589 206 Q589 148 568.5 108.5 Q548 69 512 45 Q476 21 427 10.5 Q378 0 320 0 L83 0 L83 720 Z " />
<glyph glyph-name="C" unicode="C" horiz-adv-x="652" d="M615 97 Q567 46 504 17 Q441 -12 362 -12 Q282 -12 224 17.5 Q166 47 128.5 97.5 Q91 148 73.5 216 Q56 284 56 362 Q56 438 75 506 Q94 574 133 624 Q172 674 230 703.5 Q288 733 366 733 Q420 733 464.5 718.5 Q509 704 542 675.5 Q575 647 593.5 605.5 Q612 564 614 510 L538 510 Q536 540 526 567.5 Q516 595 495 616 Q474 637 442 649.5 Q410 662 365 662 Q311 662 268.5 640.5 Q226 619 197.5 580 Q169 541 154 486.5 Q139 432 139 365 Q139 289 155 231.5 Q171 174 201 135.5 Q231 97 273 77.5 Q315 58 366 58 Q436 58 484 84.5 Q532 111 570 148 L615 97 Z " />
<glyph glyph-name="D" unicode="D" horiz-adv-x="694" d="M160 650 L160 70 L289 70 Q431 70 494 143.5 Q557 217 557 359 Q557 499 494 574.5 Q431 650 289 650 L160 650 Z M284 720 Q456 720 547 632 Q638 544 638 359 Q638 263 614.5 195 Q591 127 545 83.5 Q499 40 431 20 Q363 0 273 0 L83 0 L83 720 L284 720 Z " />
<glyph glyph-name="E" unicode="E" horiz-adv-x="593" d="M83 720 L533 720 L533 651 L160 651 L160 403 L500 403 L500 334 L160 334 L160 68 L541 68 L541 0 L83 0 L83 720 Z " />
<glyph glyph-name="F" unicode="F" horiz-adv-x="544" d="M83 720 L511 720 L511 651 L160 651 L160 399 L470 399 L470 331 L160 331 L160 0 L83 0 L83 720 Z " />
<glyph glyph-name="G" unicode="G" horiz-adv-x="712" d="M411 368 L646 368 L646 101 Q616 65 581.5 43 Q547 21 512 9 Q477 -3 443.5 -7.5 Q410 -12 382 -12 Q294 -12 232 16.5 Q170 45 131 95.5 Q92 146 74 215 Q56 284 56 364 Q56 446 77 513.5 Q98 581 139.5 630 Q181 679 241.5 706 Q302 733 381 733 Q454 733 503.5 715 Q553 697 584 667 Q615 637 628.5 598.5 Q642 560 643 519 L564 519 Q563 548 552.5 574 Q542 600 519.5 619.5 Q497 639 462 650.5 Q427 662 378 662 Q318 662 273 639 Q228 616 198 575.5 Q168 535 153 481 Q138 427 138 365 Q138 217 200.5 136.5 Q263 56 383 56 Q443 56 491.5 76.5 Q540 97 578 136 L578 302 L411 302 L411 368 Z " />
<glyph glyph-name="H" unicode="H" horiz-adv-x="697" d="M83 720 L160 720 L160 411 L536 411 L536 720 L613 720 L613 0 L536 0 L536 340 L160 340 L160 0 L83 0 L83 720 Z " />
<glyph glyph-name="I" unicode="I" horiz-adv-x="244" d="M83 720 L160 720 L160 0 L83 0 L83 720 Z " />
<glyph glyph-name="J" unicode="J" horiz-adv-x="391" d="M313 159 Q313 71 275 29.5 Q237 -12 157 -12 Q124 -12 85 -5.5 Q46 1 17 15 L35 78 Q61 67 87 61 Q113 55 144 55 Q169 55 186.5 60.5 Q204 66 215 80 Q226 94 231 117 Q236 140 236 175 L236 720 L313 720 L313 159 Z " />
<glyph glyph-name="K" unicode="K" horiz-adv-x="631" d="M83 720 L160 720 L160 405 L300 405 L486 720 L572 720 L367 375 L608 0 L520 0 L300 339 L160 339 L160 0 L83 0 L83 720 Z " />
<glyph glyph-name="L" unicode="L" horiz-adv-x="524" d="M160 720 L160 69 L496 69 L496 0 L83 0 L83 720 L160 720 Z " />
<glyph glyph-name="M" unicode="M" horiz-adv-x="864" d="M732 0 L671 591 L463 0 L399 0 L193 591 L133 0 L59 0 L131 720 L222 720 L432 112 L644 720 L732 720 L805 0 L732 0 Z " />
<glyph glyph-name="N" unicode="N" horiz-adv-x="701" d="M83 720 L155 720 L541 139 L541 720 L618 720 L618 0 L548 0 L159 582 L159 0 L83 0 L83 720 Z " />
<glyph glyph-name="O" unicode="O" horiz-adv-x="761" d="M139 368 Q139 289 156.5 230.5 Q174 172 206 133.5 Q238 95 283 76 Q328 57 383 57 Q437 57 481.5 76 Q526 95 557.5 133 Q589 171 606 229.5 Q623 288 623 368 Q623 440 605.5 494.5 Q588 549 556.5 586.5 Q525 624 481 643 Q437 662 383 662 Q327 662 282 642.5 Q237 623 205 585.5 Q173 548 156 493.5 Q139 439 139 368 Z M57 368 Q57 458 81.5 526.5 Q106 595 150 640.5 Q194 686 254 709.5 Q314 733 386 733 Q455 733 513.5 709.5 Q572 686 614 640.5 Q656 595 680 526.5 Q704 458 704 368 Q704 269 679.5 197 Q655 125 612 78.5 Q569 32 509.5 10 Q450 -12 381 -12 Q311 -12 251.5 10.5 Q192 33 149 79.5 Q106 126 81.5 198 Q57 270 57 368 Z " />
<glyph glyph-name="P" unicode="P" horiz-adv-x="595" d="M160 652 L160 352 L296 352 Q387 352 430.5 391 Q474 430 474 504 Q474 578 434 615 Q394 652 305 652 L160 652 Z M83 720 L310 720 Q433 720 492 663 Q551 606 551 506 Q551 456 536 415.5 Q521 375 489.5 346 Q458 317 410.5 301.5 Q363 286 298 286 L160 286 L160 0 L83 0 L83 720 Z " />
<glyph glyph-name="Q" unicode="Q" horiz-adv-x="761" d="M428 -9 Q405 -12 381 -12 Q311 -12 251.5 10.5 Q192 33 149 79.5 Q106 126 81.5 198 Q57 270 57 368 Q57 458 81.5 526.5 Q106 595 150 640.5 Q194 686 254 709.5 Q314 733 386 733 Q455 733 513.5 709.5 Q572 686 614 640.5 Q656 595 680 526.5 Q704 458 704 368 Q704 232 659 148.5 Q614 65 536 27 L536 24 L690 -28 L666 -94 L428 -9 Z M139 368 Q139 289 156.5 230.5 Q174 172 206 133.5 Q238 95 283 76 Q328 57 383 57 Q437 57 481.5 76 Q526 95 557.5 133 Q589 171 606 229.5 Q623 288 623 368 Q623 440 605.5 494.5 Q588 549 556.5 586.5 Q525 624 481 643 Q437 662 383 662 Q327 662 282 642.5 Q237 623 205 585.5 Q173 548 156 493.5 Q139 439 139 368 Z " />
<glyph glyph-name="R" unicode="R" horiz-adv-x="628" d="M309 720 Q436 720 495 664 Q554 608 554 513 Q554 445 525 394 Q496 343 433 313 L595 0 L511 0 L358 295 Q326 288 281 288 L160 288 L160 0 L83 0 L83 720 L309 720 Z M160 652 L160 353 L293 353 Q384 353 430 392.5 Q476 432 476 507 Q476 579 435.5 615.5 Q395 652 307 652 L160 652 Z " />
<glyph glyph-name="S" unicode="S" horiz-adv-x="576" d="M78 146 Q127 102 178.5 78 Q230 54 287 54 Q321 54 350 62.5 Q379 71 400 88 Q421 105 433 130 Q445 155 445 187 Q445 215 437.5 236.5 Q430 258 411 275.5 Q392 293 359.5 307.5 Q327 322 278 337 Q219 355 177.5 374 Q136 393 109.5 416.5 Q83 440 71 470 Q59 500 59 540 Q59 586 76.5 622 Q94 658 125 683 Q156 708 198 720.5 Q240 733 289 733 Q429 733 519 630 L474 583 Q435 628 386.5 647.5 Q338 667 290 667 Q258 667 230.5 659.5 Q203 652 183 637 Q163 622 151.5 599 Q140 576 140 546 Q140 515 151.5 494 Q163 473 186.5 457.5 Q210 442 244.5 429 Q279 416 325 400 Q380 381 418 361.5 Q456 342 480 318 Q504 294 514.5 264 Q525 234 525 194 Q525 146 507.5 108 Q490 70 458.5 43.5 Q427 17 383 2.5 Q339 -12 285 -12 Q208 -12 143.5 18 Q79 48 34 96 L78 146 Z " />
<glyph glyph-name="T" unicode="T" horiz-adv-x="567" d="M245 651 L18 651 L18 720 L549 720 L549 651 L323 651 L323 0 L245 0 L245 651 Z " />
<glyph glyph-name="U" unicode="U" horiz-adv-x="689" d="M155 720 L155 276 Q155 164 206 110.5 Q257 57 348 57 Q450 57 492 113 Q534 169 534 276 L534 720 L610 720 L610 267 Q610 -12 345 -12 Q285 -12 236 4.5 Q187 21 151.5 55.5 Q116 90 97 142.5 Q78 195 78 267 L78 720 L155 720 Z " />
<glyph glyph-name="V" unicode="V" horiz-adv-x="596" d="M18 720 L99 720 L297 86 L499 720 L578 720 L343 0 L251 0 L18 720 Z " />
<glyph glyph-name="W" unicode="W" horiz-adv-x="923" d="M18 720 L96 720 L261 98 L424 720 L500 720 L664 97 L825 720 L904 720 L713 0 L624 0 L462 607 L300 0 L210 0 L18 720 Z " />
<glyph glyph-name="X" unicode="X" horiz-adv-x="580" d="M244 368 L25 720 L110 720 L292 426 L470 720 L557 720 L335 362 L560 0 L471 0 L288 298 L107 0 L18 0 L244 368 Z " />
<glyph glyph-name="Y" unicode="Y" horiz-adv-x="576" d="M247 305 L17 720 L103 720 L287 382 L472 720 L558 720 L325 305 L325 0 L247 0 L247 305 Z " />
<glyph glyph-name="Z" unicode="Z" horiz-adv-x="583" d="M38 51 L433 651 L66 651 L66 720 L547 720 L547 686 L139 69 L546 69 L546 0 L38 0 L38 51 Z " />
<glyph glyph-name="a" unicode="a" horiz-adv-x="517" d="M374 240 Q359 242 341 243.5 Q323 245 294 245 Q201 245 160.5 217 Q120 189 120 135 Q120 94 145.5 70 Q171 46 221 46 Q254 46 282 62 Q310 78 330.5 103 Q351 128 362.5 158 Q374 188 374 216 L374 240 Z M448 0 L387 0 L380 97 Q325 -12 203 -12 Q132 -12 89.5 26.5 Q47 65 47 139 Q47 167 57.5 196 Q68 225 95 249 Q122 273 169 288 Q216 303 290 303 Q313 303 332.5 301.5 Q352 300 374 297 L374 350 Q374 412 343 443 Q312 474 254 474 Q209 474 174 458 Q139 442 104 413 L68 459 Q106 495 155 516 Q204 537 258 537 Q301 537 336 526.5 Q371 516 396 494 Q421 472 434.5 437 Q448 402 448 354 L448 0 Z " />
<glyph glyph-name="b" unicode="b" horiz-adv-x="583" d="M147 141 Q156 127 171 111.5 Q186 96 206 83.5 Q226 71 250 63 Q274 55 302 55 Q373 55 413.5 106.5 Q454 158 454 261 Q454 364 416.5 417 Q379 470 308 470 Q280 470 256.5 461.5 Q233 453 213.5 439.5 Q194 426 177.5 409 Q161 392 147 375 L147 141 Z M74 0 L74 720 L147 720 L147 449 Q180 490 223 513.5 Q266 537 322 537 Q426 537 479 463 Q532 389 532 263 Q532 201 518.5 150.5 Q505 100 477.5 64 Q450 28 408 8 Q366 -12 309 -12 Q275 -12 247.5 -3.5 Q220 5 199 18 Q178 31 163.5 45.5 Q149 60 141 72 L136 0 L74 0 Z " />
<glyph glyph-name="c" unicode="c" horiz-adv-x="522" d="M481 61 Q437 23 388.5 5.5 Q340 -12 284 -12 Q230 -12 186.5 7 Q143 26 112.5 62 Q82 98 65.5 149 Q49 200 49 264 Q49 330 67 380.5 Q85 431 117 466 Q149 501 192.5 519 Q236 537 286 537 Q378 537 428.5 487 Q479 437 484 346 L413 346 Q405 412 372.5 441.5 Q340 471 284 471 Q212 471 169.5 417 Q127 363 127 267 Q127 223 137 183.5 Q147 144 167.5 115 Q188 86 219 69 Q250 52 292 52 Q316 52 335.5 55.5 Q355 59 373 66.5 Q391 74 409.5 85 Q428 96 449 111 L481 61 Z " />
<glyph glyph-name="d" unicode="d" horiz-adv-x="583" d="M439 73 Q429 61 413.5 46 Q398 31 376.5 18.5 Q355 6 327 -3 Q299 -12 265 -12 Q210 -12 169.5 7.5 Q129 27 103 63 Q77 99 64 149.5 Q51 200 51 261 Q51 324 65.5 375 Q80 426 107.5 462 Q135 498 175.5 517.5 Q216 537 267 537 Q327 537 366.5 512.5 Q406 488 435 453 L435 720 L508 720 L508 0 L443 0 L439 73 Z M435 374 Q426 386 411 402.5 Q396 419 376 434 Q356 449 331 459 Q306 469 276 469 Q210 469 169 416.5 Q128 364 128 262 Q128 223 135.5 186 Q143 149 161 120 Q179 91 209 73 Q239 55 283 55 Q311 55 334.5 64 Q358 73 376.5 86 Q395 99 409.5 114 Q424 129 435 142 L435 374 Z " />
<glyph glyph-name="e" unicode="e" horiz-adv-x="537" d="M482 58 Q438 20 390 4 Q342 -12 288 -12 Q234 -12 189.5 4.5 Q145 21 114 55 Q83 89 66 140 Q49 191 49 260 Q49 323 66 374 Q83 425 114 461.5 Q145 498 189 517.5 Q233 537 287 537 Q388 537 439.5 474.5 Q491 412 491 283 L491 242 L128 242 Q128 200 138 165 Q148 130 168 105 Q188 80 219.5 66 Q251 52 294 52 Q339 52 374 66.5 Q409 81 448 110 L482 58 Z M416 304 Q416 340 409 371 Q402 402 387 425.5 Q372 449 347 462 Q322 475 285 475 Q238 475 208 456 Q178 437 160.5 410 Q143 383 136 353.5 Q129 324 128 304 L416 304 Z " />
<glyph glyph-name="f" unicode="f" horiz-adv-x="271" d="M92 464 L32 464 L32 510 L92 521 L92 596 Q92 624 98.5 649 Q105 674 119 693 Q133 712 155.5 722.5 Q178 733 210 733 Q244 733 277 724 L273 668 Q263 671 251.5 673 Q240 675 226 675 Q202 675 183.5 659 Q165 643 165 600 L165 525 L263 525 L263 464 L165 464 L165 0 L92 0 L92 464 Z " />
<glyph glyph-name="g" unicode="g" horiz-adv-x="587" d="M508 13 Q508 -52 494.5 -94.5 Q481 -137 453.5 -163 Q426 -189 385 -199.5 Q344 -210 289 -210 Q235 -210 186.5 -200.5 Q138 -191 105 -177 L122 -115 Q154 -126 195 -136 Q236 -146 283 -146 Q330 -146 360 -136 Q390 -126 407 -105.5 Q424 -85 430.5 -53.5 Q437 -22 437 21 L437 72 Q409 38 366 14.5 Q323 -9 264 -9 Q208 -9 167.5 11.5 Q127 32 101 68 Q75 104 63 153 Q51 202 51 260 Q51 318 64 368.5 Q77 419 103.5 456.5 Q130 494 171.5 515.5 Q213 537 270 537 Q301 537 327.5 528.5 Q354 520 375.5 506.5 Q397 493 413 477.5 Q429 462 440 448 L440 525 L508 525 L508 13 Z M435 375 Q426 388 411.5 404.5 Q397 421 377 435 Q357 449 333 459 Q309 469 282 469 Q205 469 166.5 413.5 Q128 358 128 264 Q128 218 137 179.5 Q146 141 164.5 113.5 Q183 86 211.5 71 Q240 56 280 56 Q309 56 332.5 64.5 Q356 73 375.5 85.5 Q395 98 409.5 112 Q424 126 435 138 L435 375 Z " />
<glyph glyph-name="h" unicode="h" horiz-adv-x="550" d="M147 720 L147 448 Q179 485 222.5 511 Q266 537 321 537 Q405 537 442.5 484.5 Q480 432 480 341 L480 0 L406 0 L406 325 Q406 352 403 378 Q400 404 389 424 Q378 444 357.5 456.5 Q337 469 302 469 Q276 469 253 460.5 Q230 452 210.5 439 Q191 426 175 410.5 Q159 395 147 381 L147 0 L74 0 L74 720 L147 720 Z " />
<glyph glyph-name="i" unicode="i" horiz-adv-x="233" d="M67 667 Q67 688 81.5 700.5 Q96 713 117 713 Q139 713 153 700.5 Q167 688 167 667 Q167 647 153 635 Q139 623 117 623 Q96 623 81.5 635 Q67 647 67 667 Z M153 0 L80 0 L80 525 L153 525 L153 0 Z " />
<glyph glyph-name="j" unicode="j" horiz-adv-x="233" d="M153 -73 Q153 -134 129.5 -168.5 Q106 -203 41 -203 Q23 -203 5.5 -201 Q-12 -199 -29 -193 L-21 -137 Q-3 -143 25 -143 Q51 -143 65.5 -129 Q80 -115 80 -69 L80 525 L153 525 L153 -73 Z M67 667 Q67 689 81.5 701.5 Q96 714 118 714 Q139 714 153 701.5 Q167 689 167 667 Q167 647 153 634.5 Q139 622 118 622 Q96 622 81.5 634.5 Q67 647 67 667 Z " />
<glyph glyph-name="k" unicode="k" horiz-adv-x="509" d="M147 323 L209 323 L380 525 L466 525 L269 293 L491 0 L403 0 L204 260 L147 260 L147 0 L74 0 L74 720 L147 720 L147 323 Z " />
<glyph glyph-name="l" unicode="l" horiz-adv-x="222" d="M75 0 L75 720 L148 720 L148 0 L75 0 Z " />
<glyph glyph-name="m" unicode="m" horiz-adv-x="811" d="M143 525 L143 445 Q171 482 211 509.5 Q251 537 307 537 Q365 537 394 511 Q423 485 435 446 Q466 483 507 510 Q548 537 604 537 Q646 537 673 523 Q700 509 715.5 485 Q731 461 737 429.5 Q743 398 743 363 L743 0 L670 0 L670 352 Q670 406 652 437 Q634 468 584 468 Q560 468 538.5 458.5 Q517 449 499.5 435.5 Q482 422 468.5 408 Q455 394 447 384 L447 0 L372 0 L372 350 Q372 404 355 436 Q338 468 288 468 Q264 468 242 458.5 Q220 449 202 435.5 Q184 422 170 407.5 Q156 393 147 382 L147 0 L74 0 L74 525 L143 525 Z " />
<glyph glyph-name="n" unicode="n" horiz-adv-x="550" d="M143 525 L143 446 Q175 485 219 511 Q263 537 318 537 Q364 537 395 522.5 Q426 508 445 481.5 Q464 455 472 419 Q480 383 480 340 L480 0 L406 0 L406 325 Q406 399 381 434 Q356 469 302 469 Q275 469 250.5 459 Q226 449 206 435.5 Q186 422 171 406.5 Q156 391 147 381 L147 0 L74 0 L74 525 L143 525 Z " />
<glyph glyph-name="o" unicode="o" horiz-adv-x="577" d="M127 262 Q127 208 139 169 Q151 130 172.5 104.5 Q194 79 223 66.5 Q252 54 287 54 Q321 54 351 66.5 Q381 79 403 104.5 Q425 130 437.5 169 Q450 208 450 262 Q450 316 437.5 355 Q425 394 403 420 Q381 446 351 458.5 Q321 471 287 471 Q218 471 172.5 419 Q127 367 127 262 Z M49 260 Q49 325 66.5 376.5 Q84 428 115.5 463.5 Q147 499 191.5 518 Q236 537 291 537 Q345 537 388.5 519 Q432 501 462.5 465.5 Q493 430 510 379 Q527 328 527 262 Q527 197 509.5 146 Q492 95 460 60 Q428 25 383 6.5 Q338 -12 283 -12 Q173 -12 111 59.5 Q49 131 49 260 Z " />
<glyph glyph-name="p" unicode="p" horiz-adv-x="584" d="M147 137 Q156 124 171 109.5 Q186 95 206 83 Q226 71 250 63 Q274 55 301 55 Q373 55 413.5 106.5 Q454 158 454 261 Q454 363 417 416.5 Q380 470 310 470 Q283 470 259.5 462 Q236 454 215.5 440.5 Q195 427 178 410 Q161 393 147 376 L147 137 Z M74 -200 L74 525 L144 525 L144 444 Q179 489 223 513 Q267 537 323 537 Q427 537 479.5 463 Q532 389 532 263 Q532 201 518.5 150.5 Q505 100 478 64 Q451 28 410 8 Q369 -12 314 -12 Q280 -12 252.5 -4 Q225 4 204 16 Q183 28 168.5 41 Q154 54 147 64 L147 -200 L74 -200 Z " />
<glyph glyph-name="q" unicode="q" horiz-adv-x="584" d="M434 65 Q425 55 410.5 42 Q396 29 375.5 17 Q355 5 328 -3.5 Q301 -12 267 -12 Q211 -12 170.5 7.5 Q130 27 103.5 63 Q77 99 64 149.5 Q51 200 51 261 Q51 324 65.5 375 Q80 426 108 462 Q136 498 176.5 517.5 Q217 537 270 537 Q329 537 369.5 512 Q410 487 440 450 L440 525 L508 525 L508 -200 L434 -200 L434 65 Z M435 377 Q426 389 411.5 405 Q397 421 377.5 435.5 Q358 450 333 459.5 Q308 469 278 469 Q212 469 170 416.5 Q128 364 128 262 Q128 223 136 186 Q144 149 161.5 120 Q179 91 208 73 Q237 55 279 55 Q309 55 333.5 63.5 Q358 72 377.5 84 Q397 96 411 110 Q425 124 435 136 L435 377 Z " />
<glyph glyph-name="r" unicode="r" horiz-adv-x="320" d="M140 442 Q157 482 188.5 509.5 Q220 537 260 537 Q272 537 284.5 534.5 Q297 532 308 528 L299 456 Q289 460 278.5 461 Q268 462 255 462 Q237 462 220.5 453 Q204 444 190 430.5 Q176 417 165 400.5 Q154 384 147 369 L147 0 L74 0 L74 525 L140 525 L140 442 Z " />
<glyph glyph-name="s" unicode="s" horiz-adv-x="478" d="M67 118 Q104 88 147 69 Q190 50 232 50 Q287 50 320.5 73.5 Q354 97 354 138 Q354 157 348 172 Q342 187 327 198.5 Q312 210 287 219.5 Q262 229 224 238 Q179 249 147 262.5 Q115 276 94.5 294 Q74 312 65 335 Q56 358 56 388 Q56 422 69 450 Q82 478 106 497 Q130 516 164 526.5 Q198 537 240 537 Q352 537 428 459 L391 415 Q356 447 317.5 461.5 Q279 476 242 476 Q191 476 161.5 455 Q132 434 132 395 Q132 375 139.5 360.5 Q147 346 163.5 335.5 Q180 325 204.5 316.5 Q229 308 264 299 Q352 276 392.5 241.5 Q433 207 433 146 Q433 110 419 80.5 Q405 51 379 30.5 Q353 10 317 -1 Q281 -12 237 -12 Q172 -12 118.5 12 Q65 36 30 71 L67 118 Z " />
<glyph glyph-name="t" unicode="t" horiz-adv-x="295" d="M165 464 L165 97 Q165 69 175.5 59 Q186 49 208 49 Q222 49 235.5 52.5 Q249 56 262 61 L274 7 Q256 -1 232.5 -6.5 Q209 -12 187 -12 Q93 -12 93 83 L93 464 L28 464 L28 510 L93 524 L104 667 L165 667 L165 525 L257 525 L257 464 L165 464 Z " />
<glyph glyph-name="u" unicode="u" horiz-adv-x="547" d="M405 0 L405 78 Q392 62 375 46 Q358 30 336 17 Q314 4 288 -4 Q262 -12 231 -12 Q183 -12 151.5 2.5 Q120 17 102 42.5 Q84 68 77 101.5 Q70 135 70 174 L70 525 L144 525 L144 191 Q144 125 166.5 90 Q189 55 249 55 Q274 55 296 62.5 Q318 70 337 82.5 Q356 95 371.5 110.5 Q387 126 400 142 L400 525 L473 525 L473 0 L405 0 Z " />
<glyph glyph-name="v" unicode="v" horiz-adv-x="481" d="M92 525 L240 76 L394 525 L466 525 L282 0 L196 0 L15 525 L92 525 Z " />
<glyph glyph-name="w" unicode="w" horiz-adv-x="726" d="M699 525 L569 0 L490 0 L360 420 L235 0 L156 0 L27 525 L100 525 L199 88 L325 520 L397 520 L529 88 L626 525 L699 525 Z " />
<glyph glyph-name="x" unicode="x" horiz-adv-x="484" d="M197 266 L23 525 L104 525 L242 317 L377 525 L457 525 L285 266 L465 0 L385 0 L241 217 L98 0 L18 0 L197 266 Z " />
<glyph glyph-name="y" unicode="y" horiz-adv-x="478" d="M459 525 L270 -20 Q253 -68 239.5 -102 Q226 -136 209 -158.5 Q192 -181 168.5 -191.5 Q145 -202 109 -202 Q83 -202 62 -199 Q41 -196 21 -190 L30 -135 Q41 -137 59 -140 Q77 -143 100 -143 Q116 -143 128 -138.5 Q140 -134 150.5 -122.5 Q161 -111 170.5 -90.5 Q180 -70 191 -38 L203 0 L17 525 L96 525 L240 90 L384 525 L459 525 Z " />
<glyph glyph-name="z" unicode="z" horiz-adv-x="437" d="M37 49 L309 463 L44 463 L44 525 L404 525 L404 487 L126 60 L402 60 L402 0 L37 0 L37 49 Z " />
<glyph glyph-name="bracketleft" unicode="&#x5b;" horiz-adv-x="343" d="M91 -125 L91 720 L273 720 L273 660 L163 660 L163 -65 L273 -65 L273 -125 L91 -125 Z " />
<glyph glyph-name="bracketright" unicode="&#x5d;" horiz-adv-x="343" d="M70 -125 L70 -65 L180 -65 L180 660 L70 660 L70 720 L251 720 L251 -125 L70 -125 Z " />
<glyph glyph-name="parenleft" unicode="&#x28;" horiz-adv-x="348" d="M283 704 Q211 608 175.5 510.5 Q140 413 140 297 Q140 238 148 188.5 Q156 139 173 92.5 Q190 46 218 1 Q246 -44 285 -93 L242 -128 Q158 -49 113 59.5 Q68 168 68 296 Q68 426 111.5 534 Q155 642 233 733 L283 704 Z " />
<glyph glyph-name="parenright" unicode="&#x29;" horiz-adv-x="348" d="M115 733 Q193 642 236.5 534 Q280 426 280 296 Q280 168 235 59.5 Q190 -49 106 -128 L63 -93 Q102 -44 130 1 Q158 46 175 92.5 Q192 139 200 188.5 Q208 238 208 297 Q208 413 172.5 510.5 Q137 608 65 704 L115 733 Z " />
<glyph glyph-name="braceleft" unicode="&#x7b;" horiz-adv-x="363" d="M297 662 Q249 662 234 631.5 Q219 601 219 541 L219 408 Q219 384 216 364 Q213 344 204.5 328.5 Q196 313 179.5 301.5 Q163 290 136 283 Q165 278 181.5 266 Q198 254 206.5 235.5 Q215 217 217 193.5 Q219 170 219 143 L219 48 Q219 -10 235 -38.5 Q251 -67 305 -67 L339 -67 L339 -125 L303 -125 Q258 -125 228 -117 Q198 -109 180 -90.5 Q162 -72 154 -43 Q146 -14 146 28 L146 146 Q146 197 129.5 224.5 Q113 252 64 252 L35 252 L35 313 L62 313 Q88 313 104.5 320.5 Q121 328 130 343.5 Q139 359 142.5 383 Q146 407 146 440 L146 543 Q146 589 153 622.5 Q160 656 177.5 677.5 Q195 699 225 709.5 Q255 720 301 720 L339 720 L339 662 L297 662 Z " />
<glyph glyph-name="braceright" unicode="&#x7d;" horiz-adv-x="363" d="M24 662 L24 720 L62 720 Q108 720 138 709.5 Q168 699 185.5 677.5 Q203 656 210 622.5 Q217 589 217 543 L217 440 Q217 407 220.5 383 Q224 359 233 343.5 Q242 328 258.5 320.5 Q275 313 301 313 L328 313 L328 252 L299 252 Q274 252 258 245 Q242 238 233 224.5 Q224 211 220.5 191 Q217 171 217 146 L217 28 Q217 -14 209 -43 Q201 -72 183 -90.5 Q165 -109 135 -117 Q105 -125 60 -125 L24 -125 L24 -67 L58 -67 Q112 -67 128 -38.5 Q144 -10 144 48 L144 143 Q144 170 146 193.5 Q148 217 156.5 235.5 Q165 254 181.5 266 Q198 278 227 283 Q200 290 183.5 301.5 Q167 313 158.5 328.5 Q150 344 147 364 Q144 384 144 408 L144 541 Q144 601 129 631.5 Q114 662 66 662 L24 662 Z " />
<glyph glyph-name="backslash" unicode="&#x5c;" horiz-adv-x="367" d="M339 -92 L275 -92 L28 739 L95 739 L339 -92 Z " />
<glyph glyph-name="slash" unicode="&#x2f;" horiz-adv-x="364" d="M267 739 L334 739 L87 -92 L23 -92 L267 739 Z " />
<glyph glyph-name="brokenbar" unicode="&#xa6;" horiz-adv-x="500" d="M282 -200 L218 -200 L218 206 L282 206 L282 -200 Z M282 314 L218 314 L218 720 L282 720 L282 314 Z " />
<glyph glyph-name="bar" unicode="&#x7c;" horiz-adv-x="500" d="M282 -200 L218 -200 L218 720 L282 720 L282 -200 Z " />
<glyph glyph-name="asciicircum" unicode="&#x5e;" horiz-adv-x="689" d="M609 446 L567 410 L345 640 L121 410 L79 449 L313 693 L374 693 L609 446 Z " />
<glyph glyph-name="underscore" unicode="&#x5f;" horiz-adv-x="494" d="M-2 -173 L495 -173 L495 -228 L-2 -228 L-2 -173 Z " />
<glyph glyph-name="asciitilde" unicode="&#x7e;" horiz-adv-x="780" d="M729 295 Q678 251 629.5 228.5 Q581 206 530 206 Q492 206 456.5 217 Q421 228 387 241.5 Q353 255 320.5 266 Q288 277 255 277 Q207 277 170 257 Q133 237 94 208 L56 261 Q106 301 155.5 324 Q205 347 261 347 Q297 347 332.5 335.5 Q368 324 401.5 310.5 Q435 297 466.5 286 Q498 275 526 275 Q569 275 607 293 Q645 311 690 345 L729 295 Z " />
<glyph glyph-name="zero" unicode="0" horiz-adv-x="601" d="M138 353 Q138 197 179 125 Q220 53 301 53 Q380 53 421 125 Q462 197 462 355 Q462 512 421.5 582.5 Q381 653 301 653 Q221 653 179.5 582.5 Q138 512 138 353 Z M65 353 Q65 545 126.5 632.5 Q188 720 301 720 Q358 720 401.5 699 Q445 678 475 633.5 Q505 589 520.5 520.5 Q536 452 536 357 Q536 166 474 77 Q412 -12 299 -12 Q186 -12 125.5 76.5 Q65 165 65 353 Z " />
<glyph glyph-name="one" unicode="1" horiz-adv-x="456" d="M222 603 Q184 578 142 560 Q100 542 52 534 L41 590 Q66 596 94 607.5 Q122 619 148.5 634.5 Q175 650 199 669 Q223 688 242 709 L294 709 L294 61 L433 61 L433 0 L64 0 L64 61 L222 61 L222 603 Z " />
<glyph glyph-name="two" unicode="2" horiz-adv-x="506" d="M37 51 L303 386 Q337 429 352 462.5 Q367 496 367 534 Q367 587 332 619 Q297 651 239 651 Q193 651 150 629.5 Q107 608 67 571 L26 620 Q70 665 126.5 692.5 Q183 720 249 720 Q287 720 322 708 Q357 696 383.5 673.5 Q410 651 425.5 618.5 Q441 586 441 544 Q441 516 437 493 Q433 470 424 448 Q415 426 401 404 Q387 382 366 356 L133 66 L447 66 L447 0 L37 0 L37 51 Z " />
<glyph glyph-name="three" unicode="3" horiz-adv-x="518" d="M58 132 Q99 94 141 73.5 Q183 53 241 53 Q272 53 300 62.5 Q328 72 348 89.5 Q368 107 380 132 Q392 157 392 189 Q392 220 383 246.5 Q374 273 354.5 292 Q335 311 304 322 Q273 333 228 333 Q218 333 199.5 332 Q181 331 177 331 L174 395 Q211 396 243.5 407 Q276 418 300.5 437.5 Q325 457 339 483.5 Q353 510 353 542 Q353 570 343 591 Q333 612 316.5 626 Q300 640 277.5 647 Q255 654 231 654 Q187 654 149.5 641 Q112 628 77 603 L45 653 Q85 683 132.5 701.5 Q180 720 239 720 Q279 720 313.5 708.5 Q348 697 373 675.5 Q398 654 412 622 Q426 590 426 550 Q426 521 416.5 493.5 Q407 466 389.5 443 Q372 420 348 402 Q324 384 294 374 Q383 366 423.5 316.5 Q464 267 464 191 Q464 141 446.5 103.5 Q429 66 399 40 Q369 14 329 1 Q289 -12 244 -12 Q178 -12 122 10.5 Q66 33 18 84 L58 132 Z " />
<glyph glyph-name="four" unicode="4" horiz-adv-x="540" d="M360 234 L360 635 L111 234 L360 234 Z M360 169 L33 169 L33 227 L334 709 L431 709 L431 234 L515 234 L515 169 L431 169 L431 0 L360 0 L360 169 Z " />
<glyph glyph-name="five" unicode="5" horiz-adv-x="533" d="M98 709 L437 709 L433 639 L159 639 L141 388 Q162 410 197.5 426 Q233 442 283 442 Q379 442 427.5 385 Q476 328 476 228 Q476 169 458.5 124.5 Q441 80 410 49.5 Q379 19 336.5 3.5 Q294 -12 244 -12 Q198 -12 144 3 Q90 18 42 53 L73 107 Q114 81 155.5 67.5 Q197 54 239 54 Q311 54 356.5 95.5 Q402 137 402 224 Q402 293 369 336 Q336 379 266 379 Q220 379 187.5 361 Q155 343 136 322 L132 268 L66 268 L98 709 Z " />
<glyph glyph-name="six" unicode="6" horiz-adv-x="541" d="M55 300 Q55 511 124 615.5 Q193 720 312 720 Q351 720 392 706.5 Q433 693 468 662 L436 613 Q404 637 375 647 Q346 657 314 657 Q261 657 226.5 631.5 Q192 606 170.5 564.5 Q149 523 138.5 469.5 Q128 416 125 360 Q159 394 203 417 Q247 440 301 440 Q349 440 384.5 423 Q420 406 443.5 376 Q467 346 478.5 306 Q490 266 490 221 Q490 105 432.5 46.5 Q375 -12 278 -12 Q165 -12 110 69 Q55 150 55 300 Z M281 51 Q309 51 334 60.5 Q359 70 378 90.5 Q397 111 408 142 Q419 173 419 216 Q419 258 408.5 288 Q398 318 380 337.5 Q362 357 337.5 366 Q313 375 286 375 Q260 375 235.5 366.5 Q211 358 190.5 345.5 Q170 333 153.5 319 Q137 305 126 294 Q126 228 137.5 182 Q149 136 169.5 107 Q190 78 218 64.5 Q246 51 281 51 Z " />
<glyph glyph-name="seven" unicode="7" horiz-adv-x="445" d="M165 0 L89 0 L89 10 L347 639 L17 639 L17 709 L430 709 L430 658 L165 0 Z " />
<glyph glyph-name="eight" unicode="8" horiz-adv-x="530" d="M115 178 Q115 121 154 86 Q193 51 262 51 Q329 51 369.5 89 Q410 127 410 188 Q410 222 396.5 248.5 Q383 275 361.5 294.5 Q340 314 312 327.5 Q284 341 255 351 Q227 339 202 323.5 Q177 308 157.5 287 Q138 266 126.5 239 Q115 212 115 178 Z M144 552 Q144 525 154.5 503.5 Q165 482 182.5 465 Q200 448 223 435.5 Q246 423 271 414 Q290 422 310.5 436 Q331 450 348 468 Q365 486 376 508.5 Q387 531 387 556 Q387 607 354 633.5 Q321 660 266 660 Q211 660 177.5 631.5 Q144 603 144 552 Z M41 176 Q41 213 53.5 245 Q66 277 87 303 Q108 329 136.5 348.5 Q165 368 197 381 Q137 404 104 446.5 Q71 489 71 549 Q71 588 85.5 619.5 Q100 651 126 673.5 Q152 696 188 708 Q224 720 267 720 Q309 720 344 709 Q379 698 404.5 677.5 Q430 657 444 627 Q458 597 458 560 Q458 531 448.5 505.5 Q439 480 422 457.5 Q405 435 382 416.5 Q359 398 332 385 Q408 352 446.5 306 Q485 260 485 191 Q485 144 469 106 Q453 68 423 42 Q393 16 351.5 2 Q310 -12 259 -12 Q156 -12 98.5 38 Q41 88 41 176 Z " />
<glyph glyph-name="nine" unicode="9" horiz-adv-x="533" d="M473 415 Q473 306 455.5 225.5 Q438 145 406.5 92.5 Q375 40 330 14 Q285 -12 230 -12 Q183 -12 141 1.5 Q99 15 64 42 L96 93 Q124 73 154.5 61 Q185 49 224 49 Q272 49 304.5 74 Q337 99 357.5 140.5 Q378 182 388.5 235.5 Q399 289 404 347 Q368 312 324.5 290 Q281 268 227 268 Q179 268 143.5 285.5 Q108 303 84.5 333 Q61 363 49.5 403 Q38 443 38 488 Q38 541 53 584 Q68 627 96 657 Q124 687 163.5 703.5 Q203 720 251 720 Q306 720 348 698.5 Q390 677 417.5 637 Q445 597 459 541 Q473 485 473 415 Z M249 654 Q221 654 196 644 Q171 634 152 614 Q133 594 121.5 563.5 Q110 533 110 492 Q110 450 120.5 419.5 Q131 389 148.5 369.5 Q166 350 190 341 Q214 332 241 332 Q268 332 292 340.5 Q316 349 336.5 361.5 Q357 374 373.5 389 Q390 404 402 417 Q401 536 359.5 595 Q318 654 249 654 Z " />
<glyph glyph-name="dollar" unicode="&#x24;" horiz-adv-x="519" d="M225 0 Q159 5 108 32.5 Q57 60 21 98 L63 142 Q105 104 150 81 Q195 58 245 58 Q276 58 303 66 Q330 74 350.5 89 Q371 104 382.5 126.5 Q394 149 394 178 Q394 202 386.5 222 Q379 242 361 258.5 Q343 275 312.5 290 Q282 305 236 319 Q185 334 148.5 351.5 Q112 369 89 391.5 Q66 414 55.5 443 Q45 472 45 510 Q45 547 58.5 577.5 Q72 608 96 629.5 Q120 651 153 664.5 Q186 678 225 681 L225 766 L286 766 L286 681 Q340 675 385 651.5 Q430 628 462 589 L420 549 Q385 585 342.5 604.5 Q300 624 257 624 Q227 624 202 617 Q177 610 158 596.5 Q139 583 128.5 563 Q118 543 118 516 Q118 487 128 466.5 Q138 446 158.5 430.5 Q179 415 209.5 403 Q240 391 281 378 Q381 346 424 300.5 Q467 255 467 183 Q467 145 453.5 113.5 Q440 82 416 58.5 Q392 35 358.5 20 Q325 5 286 0 L286 -87 L225 -87 L225 0 Z " />
<glyph glyph-name="Euro" unicode="&#x20ac;" horiz-adv-x="604" d="M3 445 L75 445 Q82 497 104 547 Q126 597 161 635 Q196 673 244.5 696.5 Q293 720 354 720 Q383 720 414 714 Q445 708 474 693.5 Q503 679 530 655.5 Q557 632 579 598 L534 563 Q500 611 453.5 635.5 Q407 660 353 660 Q310 660 275.5 644 Q241 628 215.5 599 Q190 570 172.5 530.5 Q155 491 147 445 L481 445 L477 390 L141 390 Q140 381 140 373.5 Q140 366 140 357 Q140 343 140.5 332 Q141 321 142 309 L470 309 L466 254 L150 254 Q160 207 178.5 169.5 Q197 132 223 105.5 Q249 79 282.5 64.5 Q316 50 355 50 Q417 50 460 72.5 Q503 95 539 129 L577 86 Q529 37 474 12.5 Q419 -12 347 -12 Q288 -12 242.5 9.5 Q197 31 163.5 67.5 Q130 104 108.5 152 Q87 200 77 254 L-12 254 L-8 309 L70 309 Q68 321 68 331.5 Q68 342 68 356 Q68 365 68 372.5 Q68 380 69 390 L-2 390 L3 445 Z " />
<glyph glyph-name="cent" unicode="&#xa2;" horiz-adv-x="526" d="M490 151 Q419 90 334 81 L334 -18 L270 -18 L270 79 Q221 83 181.5 104 Q142 125 114.5 160.5 Q87 196 72.5 245 Q58 294 58 354 Q58 416 74 464 Q90 512 118.5 546 Q147 580 186 599.5 Q225 619 271 623 L271 720 L334 720 L334 620 Q406 609 447.5 560.5 Q489 512 494 434 L424 434 Q416 500 383 529.5 Q350 559 296 559 Q221 559 178.5 506 Q136 453 136 356 Q136 312 146.5 273 Q157 234 177.5 205 Q198 176 229 159 Q260 142 301 142 Q348 142 383 156.5 Q418 171 458 200 L490 151 Z " />
<glyph glyph-name="sterling" unicode="&#xa3;" horiz-adv-x="511" d="M238 221 Q238 172 216.5 134 Q195 96 170 66 L463 66 L463 0 L44 0 L44 60 L93 64 Q120 95 144 134.5 Q168 174 168 221 Q168 233 165 247 Q162 261 158 275 Q154 289 149.5 301.5 Q145 314 141 323 L46 323 L46 379 L121 379 Q98 424 83.5 461.5 Q69 499 69 540 Q69 582 85.5 615 Q102 648 129.5 671.5 Q157 695 194.5 707.5 Q232 720 274 720 Q334 720 384 699.5 Q434 679 469 635 L427 592 Q399 622 362.5 638.5 Q326 655 281 655 Q218 655 181 625 Q144 595 144 538 Q144 505 158.5 468 Q173 431 197 379 L355 379 L355 323 L215 323 Q223 302 230.5 272.5 Q238 243 238 221 Z " />
<glyph glyph-name="yen" unicode="&#xa5;" horiz-adv-x="571" d="M54 390 L222 390 L37 709 L117 709 L285 409 L455 709 L533 709 L346 390 L517 390 L517 335 L319 335 L319 253 L517 253 L517 197 L319 197 L319 0 L249 0 L249 197 L54 197 L54 253 L249 253 L249 335 L54 335 L54 390 Z " />
<glyph glyph-name="florin" unicode="&#x192;" horiz-adv-x="423" d="M3 -144 Q37 -144 54.5 -120.5 Q72 -97 83 -45 L164 345 L86 345 L86 399 L175 399 L207 557 Q213 588 222 615.5 Q231 643 246 664 Q261 685 285 697 Q309 709 346 709 L406 709 L406 652 L357 652 Q335 652 321.5 644 Q308 636 299 621 Q290 606 284.5 583.5 Q279 561 273 533 L244 399 L338 399 L338 345 L234 345 L167 16 Q156 -37 146 -77.5 Q136 -118 120 -145 Q104 -172 79.5 -186 Q55 -200 14 -200 L-37 -200 L-37 -144 L3 -144 Z " />
<glyph glyph-name="section" unicode="&#xa7;" horiz-adv-x="524" d="M117 108 Q146 83 183.5 63.5 Q221 44 267 44 Q286 44 304.5 48 Q323 52 337.5 61.5 Q352 71 361 86 Q370 101 370 122 Q370 151 349 167 Q328 183 296.5 194.5 Q265 206 228.5 216 Q192 226 160.5 241.5 Q129 257 108 283 Q87 309 87 352 Q87 392 114.5 427.5 Q142 463 206 474 Q141 492 115.5 525.5 Q90 559 90 597 Q90 624 100.5 649 Q111 674 132.5 692.5 Q154 711 186 722 Q218 733 261 733 Q313 733 357 713.5 Q401 694 429 661 L394 623 Q365 646 334.5 662.5 Q304 679 264 679 Q215 679 187.5 660.5 Q160 642 160 604 Q160 584 169 570 Q178 556 193.5 545 Q209 534 230.5 526 Q252 518 277 510 Q318 497 349.5 484 Q381 471 402 454.5 Q423 438 434 416.5 Q445 395 445 364 Q445 337 435 316.5 Q425 296 409.5 281 Q394 266 373.5 257 Q353 248 332 244 Q390 222 415.5 194.5 Q441 167 441 125 Q441 95 428.5 70 Q416 45 393 27 Q370 9 338.5 -1.5 Q307 -12 269 -12 Q218 -12 166.5 8 Q115 28 80 67 L117 108 Z M263 445 Q215 445 184 421.5 Q153 398 153 358 Q153 320 187.5 296 Q222 272 276 272 Q318 272 347 295.5 Q376 319 376 358 Q376 379 366 395 Q356 411 340 422.5 Q324 434 303.5 439.5 Q283 445 263 445 Z " />
<glyph glyph-name="copyright" unicode="&#xa9;" horiz-adv-x="810" d="M546 227 Q519 198 484.5 181.5 Q450 165 404 165 Q362 165 331.5 180.5 Q301 196 280.5 222.5 Q260 249 250.5 285 Q241 321 241 362 Q241 403 251.5 439 Q262 475 283 501.5 Q304 528 335.5 543.5 Q367 559 409 559 Q467 559 505 527 Q543 495 544 432 L500 432 Q496 469 476 493 Q456 517 407 517 Q350 517 320 475 Q290 433 290 364 Q290 283 322 245.5 Q354 208 409 208 Q447 208 473 222 Q499 236 521 256 L546 227 Z M405 680 Q336 680 278 655.5 Q220 631 178 588 Q136 545 112.5 486.5 Q89 428 89 360 Q89 280 114.5 220.5 Q140 161 183.5 121 Q227 81 284.5 61 Q342 41 405 41 Q466 41 523 65 Q580 89 624.5 131.5 Q669 174 696 232.5 Q723 291 723 360 Q723 431 699 490 Q675 549 632.5 591 Q590 633 531.5 656.5 Q473 680 405 680 Z M405 720 Q484 720 550.5 694 Q617 668 664.5 621 Q712 574 738.5 508.5 Q765 443 765 364 Q765 285 735.5 218.5 Q706 152 656.5 103.5 Q607 55 541.5 27.5 Q476 0 405 0 Q333 0 267.5 22.5 Q202 45 152.5 90 Q103 135 74 202.5 Q45 270 45 360 Q45 438 73 504 Q101 570 149.5 618 Q198 666 264 693 Q330 720 405 720 Z " />
<glyph glyph-name="registered" unicode="&#xae;" horiz-adv-x="421" d="M215 637 Q249 637 264 622 Q279 607 279 584 Q279 550 247 536 L289 462 L258 462 L220 529 L175 529 L175 462 L147 462 L147 637 L215 637 Z M175 614 L175 551 L207 551 Q229 551 239.5 558.5 Q250 566 250 584 Q250 614 209 614 L175 614 Z M210 692 Q180 692 154 681 Q128 670 109.5 651 Q91 632 80 605.5 Q69 579 69 548 Q69 477 109 441 Q149 405 210 405 Q238 405 263.5 416 Q289 427 308.5 446 Q328 465 340 491.5 Q352 518 352 548 Q352 613 313 652.5 Q274 692 210 692 Z M210 725 Q249 725 282 712 Q315 699 338 676 Q361 653 374 620 Q387 587 387 548 Q387 510 372.5 478 Q358 446 333.5 422.5 Q309 399 277 385.5 Q245 372 210 372 Q172 372 140 383.5 Q108 395 84.5 417.5 Q61 440 48 473 Q35 506 35 548 Q35 586 48.5 618.5 Q62 651 85.5 674.5 Q109 698 141 711.5 Q173 725 210 725 Z " />
<glyph glyph-name="trademark" unicode="&#x2122;" horiz-adv-x="615" d="M532 461 L511 656 L436 461 L404 461 L332 656 L313 461 L272 461 L300 720 L348 720 L422 521 L497 720 L542 720 L572 461 L532 461 Z M114 681 L29 681 L29 720 L241 720 L241 681 L156 681 L156 461 L114 461 L114 681 Z " />
<glyph glyph-name="ordfeminine" unicode="&#xaa;" horiz-adv-x="470" d="M318 437 Q305 439 289.5 440.5 Q274 442 251 442 Q125 442 125 367 Q125 337 145.5 321.5 Q166 306 201 306 Q225 306 246.5 315 Q268 324 284 339.5 Q300 355 309 375.5 Q318 396 318 418 L318 437 Z M379 264 L321 264 L321 330 Q304 298 269.5 276.5 Q235 255 190 255 Q133 255 98 283 Q63 311 63 363 Q63 385 71 407 Q79 429 100 447 Q121 465 157 476.5 Q193 488 250 488 Q269 488 284 486.5 Q299 485 318 483 L318 516 Q318 560 294.5 581 Q271 602 227 602 Q191 602 160.5 590 Q130 578 104 558 L79 600 Q108 623 147 639 Q186 655 231 655 Q263 655 290.5 647.5 Q318 640 337.5 623.5 Q357 607 368 581.5 Q379 556 379 520 L379 264 Z " />
<glyph glyph-name="ordmasculine" unicode="&#xba;" horiz-adv-x="477" d="M123 454 Q123 378 156 344 Q189 310 239 310 Q288 310 321.5 344 Q355 378 355 454 Q355 530 321.5 565.5 Q288 601 239 601 Q189 601 156 566 Q123 531 123 454 Z M60 455 Q60 551 109 603 Q158 655 239 655 Q320 655 369 603 Q418 551 418 455 Q418 407 404.5 370 Q391 333 367.5 307.5 Q344 282 311 268.5 Q278 255 239 255 Q156 255 108 306.5 Q60 358 60 455 Z " />
<glyph glyph-name="guillemotleft" unicode="&#xab;" horiz-adv-x="469" d="M438.002 382 L399.004 419 L245.014 274 L245.014 247 L398.004 104 L438.002 140 L324.009 261 L438.002 382 Z M237.002 382 L198.004 419 L44.0137 274 L44.0137 247 L197.004 104 L237.002 140 L123.009 261 L237.002 382 Z " />
<glyph glyph-name="guillemotright" unicode="&#xbb;" horiz-adv-x="471" d="M234 382 L273 419 L427 274 L427 247 L274 104 L234 140 L348 261 L234 382 Z M31 382 L70 419 L224 274 L224 247 L71 104 L31 140 L145 261 L31 382 Z " />
<glyph glyph-name="guilsinglleft" unicode="&#x2039;" horiz-adv-x="268" d="M123 261 L237 140 L197 104 L44 247 L44 274 L198 419 L237 382 L123 261 Z " />
<glyph glyph-name="guilsinglright" unicode="&#x203a;" horiz-adv-x="268" d="M31 382 L70 419 L224 274 L224 247 L71 104 L31 140 L145 261 L31 382 Z " />
<glyph glyph-name="quoteleft" unicode="&#x2018;" horiz-adv-x="206" d="M162 594 Q162 571 147.5 557 Q133 543 107 543 Q75 543 61.5 564.5 Q48 586 48 613 Q48 654 67 689.5 Q86 725 139 751 L156 723 Q122 703 108.5 682.5 Q95 662 94 634 Q106 640 118 640 Q138 640 150 627 Q162 614 162 594 Z " />
<glyph glyph-name="quoteright" unicode="&#x2019;" horiz-adv-x="207" d="M43 670 Q43 693 57.5 707 Q72 721 98 721 Q130 721 143.5 699.5 Q157 678 157 651 Q157 610 138 574.5 Q119 539 66 513 L49 541 Q83 561 96.5 581.5 Q110 602 111 630 Q99 624 87 624 Q67 624 55 637 Q43 650 43 670 Z " />
<glyph glyph-name="quotesinglbase" unicode="&#x201a;" horiz-adv-x="207" d="M49 27 Q49 50 63.5 64 Q78 78 104 78 Q136 78 149.5 56.5 Q163 35 163 8 Q163 -33 144 -68.5 Q125 -104 72 -130 L55 -102 Q89 -82 102.5 -61.5 Q116 -41 117 -13 Q105 -19 93 -19 Q73 -19 61 -6 Q49 7 49 27 Z " />
<glyph glyph-name="quotedblleft" unicode="&#x201c;" horiz-adv-x="357" d="M162.003 594.041 Q162.003 571.042 147.504 557.043 Q133.004 543.044 107.006 543.044 Q75.0079 543.044 61.5088 564.543 Q48.0096 586.041 48.0096 613.04 Q48.0096 654.037 67.0084 689.535 Q86.0073 725.033 139.004 751.031 L156.003 723.033 Q122.005 703.034 108.506 682.535 Q95.0067 662.037 94.0068 634.038 Q106.006 640.038 118.005 640.038 Q138.004 640.038 150.003 627.039 Q162.003 614.04 162.003 594.041 Z M313.003 594.041 Q313.003 571.042 298.504 557.043 Q284.004 543.044 258.006 543.044 Q226.008 543.044 212.509 564.543 Q199.01 586.041 199.01 613.04 Q199.01 654.037 218.008 689.535 Q237.007 725.033 290.004 751.031 L307.003 723.033 Q273.005 703.034 259.506 682.535 Q246.007 662.037 245.007 634.038 Q257.006 640.038 269.005 640.038 Q289.004 640.038 301.003 627.039 Q313.003 614.04 313.003 594.041 Z " />
<glyph glyph-name="quotedblright" unicode="&#x201d;" horiz-adv-x="358" d="M194 670 Q194 693 208.5 707 Q223 721 249 721 Q281 721 294.5 699.5 Q308 678 308 651 Q308 610 289 574.5 Q270 539 217 513 L200 541 Q234 561 247.5 581.5 Q261 602 262 630 Q250 624 238 624 Q218 624 206 637 Q194 650 194 670 Z M43 670 Q43 693 57.5 707 Q72 721 98 721 Q130 721 143.5 699.5 Q157 678 157 651 Q157 610 138 574.5 Q119 539 66 513 L49 541 Q83 561 96.5 581.5 Q110 602 111 630 Q99 624 87 624 Q67 624 55 637 Q43 650 43 670 Z " />
<glyph glyph-name="quotedblbase" unicode="&#x201e;" horiz-adv-x="357" d="M199 27 Q199 50 213.5 64 Q228 78 254 78 Q286 78 299.5 56.5 Q313 35 313 8 Q313 -33 294 -68.5 Q275 -104 222 -130 L205 -102 Q239 -82 252.5 -61.5 Q266 -41 267 -13 Q255 -19 243 -19 Q223 -19 211 -6 Q199 7 199 27 Z M49 27 Q49 50 63.5 64 Q78 78 104 78 Q136 78 149.5 56.5 Q163 35 163 8 Q163 -33 144 -68.5 Q125 -104 72 -130 L55 -102 Q89 -82 102.5 -61.5 Q116 -41 117 -13 Q105 -19 93 -19 Q73 -19 61 -6 Q49 7 49 27 Z " />
<glyph glyph-name="dagger" unicode="&#x2020;" horiz-adv-x="502" d="M217 -105 L217 449 L45 449 L45 512 L217 512 L217 719 L286 719 L286 512 L458 512 L458 449 L286 449 L286 -105 L217 -105 Z " />
<glyph glyph-name="daggerdbl" unicode="&#x2021;" horiz-adv-x="501" d="M217 -105 L217 101 L45 101 L45 163 L217 163 L217 449 L45 449 L45 512 L217 512 L217 719 L284 719 L284 512 L456 512 L456 449 L284 449 L284 163 L456 163 L456 101 L284 101 L284 -105 L217 -105 Z " />
<glyph glyph-name="bullet" unicode="&#x2022;" horiz-adv-x="500" d="M139 312 Q139 337 148 358 Q157 379 172.5 394 Q188 409 208.5 417.5 Q229 426 253 426 Q275 426 296 417.5 Q317 409 332.5 394 Q348 379 357.5 358 Q367 337 367 312 Q367 286 358 265 Q349 244 333 229 Q317 214 296.5 205.5 Q276 197 252 197 Q228 197 207.5 205.5 Q187 214 171.5 229.5 Q156 245 147.5 266 Q139 287 139 312 Z " />
<glyph glyph-name="ellipsis" unicode="&#x2026;" horiz-adv-x="801" d="M612 41 Q612 67 628 81.5 Q644 96 669 96 Q694 96 710 82 Q726 68 726 42 Q726 17 710 2.5 Q694 -12 669 -12 Q643 -12 627.5 2.5 Q612 17 612 41 Z M348 41 Q348 67 364 81.5 Q380 96 405 96 Q430 96 446 82 Q462 68 462 42 Q462 17 446 2.5 Q430 -12 405 -12 Q379 -12 363.5 2.5 Q348 17 348 41 Z M85 41 Q85 67 101 81.5 Q117 96 142 96 Q167 96 183 82 Q199 68 199 42 Q199 17 183 2.5 Q167 -12 142 -12 Q116 -12 100.5 2.5 Q85 17 85 41 Z " />
<glyph glyph-name="paragraph" unicode="&#xb6;" horiz-adv-x="541" d="M458 0 L392 0 L392 668 L296 668 L296 0 L230 0 L230 366 Q141 370 92.5 417 Q44 464 44 542 Q44 582 58.5 614.5 Q73 647 99.5 670.5 Q126 694 163 707 Q200 720 246 720 L458 720 L458 0 Z " />
<glyph glyph-name="periodcentered" unicode="&#xb7;" horiz-adv-x="274" d="M80 337 Q80 363 96 377.5 Q112 392 137 392 Q162 392 178 378 Q194 364 194 338 Q194 313 178 298.5 Q162 284 137 284 Q111 284 95.5 298.5 Q80 313 80 337 Z " />
<glyph glyph-name="uni00AD" unicode="&#xad;" horiz-adv-x="335" d="M34 310 L301 310 L301 240 L34 240 L34 310 Z " />
<glyph glyph-name="endash" unicode="&#x2013;" horiz-adv-x="500" d="M0 293 L500 293 L500 237 L0 237 L0 293 Z " />
<glyph glyph-name="emdash" unicode="&#x2014;" horiz-adv-x="1000" d="M0 293 L1000 293 L1000 237 L0 237 L0 293 Z " />
<glyph glyph-name="Agrave" unicode="&#xc0;" horiz-adv-x="643" d="M361 720 L624 0 L542 0 L466 206 L176 206 L102 0 L19 0 L280 720 L361 720 Z M444 276 L321 633 L198 276 L444 276 Z M421 802 L394 755 L221 839 L252 901 L421 802 Z " />
<glyph glyph-name="Aacute" unicode="&#xc1;" horiz-adv-x="643" d="M361 720 L624 0 L542 0 L466 206 L176 206 L102 0 L19 0 L280 720 L361 720 Z M444 276 L321 633 L198 276 L444 276 Z M388 902 L420 839 L246 755 L221 802 L388 902 Z " />
<glyph glyph-name="Acircumflex" unicode="&#xc2;" horiz-adv-x="643" d="M361 720 L624 0 L542 0 L466 206 L176 206 L102 0 L19 0 L280 720 L361 720 Z M444 276 L321 633 L198 276 L444 276 Z M350 889 L445 790 L414 759 L323 831 L233 759 L199 790 L297 889 L350 889 Z " />
<glyph glyph-name="Atilde" unicode="&#xc3;" horiz-adv-x="643" d="M361 720 L624 0 L542 0 L466 206 L176 206 L102 0 L19 0 L280 720 L361 720 Z M444 276 L321 633 L198 276 L444 276 Z M469 857 Q456 815 436.5 798.5 Q417 782 390 782 Q372 782 354.5 787 Q337 792 320.5 798.5 Q304 805 290 810 Q276 815 265 815 Q252 815 244 808 Q236 801 223 779 L182 796 Q199 838 218 854.5 Q237 871 262 871 Q279 871 295 866 Q311 861 326 854.5 Q341 848 356 843 Q371 838 386 838 Q401 838 409.5 845 Q418 852 429 873 L469 857 Z " />
<glyph glyph-name="Adieresis" unicode="&#xc4;" horiz-adv-x="643" d="M361 720 L624 0 L542 0 L466 206 L176 206 L102 0 L19 0 L280 720 L361 720 Z M444 276 L321 633 L198 276 L444 276 Z M369 822 Q369 841 382 854 Q395 867 417 867 Q440 867 452 854 Q464 841 464 822 Q464 804 451 791 Q438 778 417 778 Q395 778 382 790.5 Q369 803 369 822 Z M180 822 Q180 841 193.5 854 Q207 867 228 867 Q251 867 263.5 854 Q276 841 276 822 Q276 804 262.5 791 Q249 778 229 778 Q206 778 193 790.5 Q180 803 180 822 Z " />
<glyph glyph-name="Aring" unicode="&#xc5;" horiz-adv-x="643" d="M228 794 Q228 834 254.5 859.5 Q281 885 321 885 Q362 885 388.5 861 Q415 837 415 798 Q415 768 400.5 747 Q386 726 362 716 L624 0 L542 0 L466 206 L176 206 L102 0 L19 0 L278 716 Q255 725 241.5 745 Q228 765 228 794 Z M444 276 L321 629 L198 276 L444 276 Z M276 795 Q276 773 288.5 761.5 Q301 750 321 750 Q343 750 355 763 Q367 776 367 798 Q367 841 321 841 Q300 841 288 828.5 Q276 816 276 795 Z " />
<glyph glyph-name="AE" unicode="&#xc6;" horiz-adv-x="983" d="M473 217 L225 217 L106 0 L17 0 L411 720 L923 720 L923 651 L551 651 L551 403 L890 403 L890 334 L551 334 L551 68 L931 68 L931 0 L473 0 L473 217 Z M473 284 L473 653 L456 653 L257 284 L473 284 Z " />
<glyph glyph-name="Ccedilla" unicode="&#xc7;" horiz-adv-x="652" d="M288 -152 Q302 -157 318 -161 Q334 -165 352 -165 Q370 -165 384.5 -158.5 Q399 -152 399 -130 Q399 -109 381.5 -102.5 Q364 -96 332 -96 L316 -96 L334 -11 Q261 -6 208.5 25 Q156 56 122 106 Q88 156 72 222 Q56 288 56 362 Q56 438 75 506 Q94 574 133 624 Q172 674 230 703.5 Q288 733 366 733 Q420 733 464.5 718.5 Q509 704 542 675.5 Q575 647 593.5 605.5 Q612 564 614 510 L538 510 Q536 540 526 567.5 Q516 595 495 616 Q474 637 442 649.5 Q410 662 365 662 Q311 662 268.5 640.5 Q226 619 197.5 580 Q169 541 154 486.5 Q139 432 139 365 Q139 289 155 231.5 Q171 174 201 135.5 Q231 97 273 77.5 Q315 58 366 58 Q436 58 484 84.5 Q532 111 570 148 L615 97 Q569 49 511 21 Q453 -7 381 -11 L372 -57 Q387 -57 402 -60.5 Q417 -64 429 -72 Q441 -80 448.5 -93.5 Q456 -107 456 -128 Q456 -171 429 -190.5 Q402 -210 357 -210 Q331 -210 308.5 -204 Q286 -198 277 -193 L288 -152 Z " />
<glyph glyph-name="Egrave" unicode="&#xc8;" horiz-adv-x="593" d="M83 720 L533 720 L533 651 L160 651 L160 403 L500 403 L500 334 L160 334 L160 68 L541 68 L541 0 L83 0 L83 720 Z M393 802 L366 755 L193 839 L224 901 L393 802 Z " />
<glyph glyph-name="Eacute" unicode="&#xc9;" horiz-adv-x="593" d="M83 720 L533 720 L533 651 L160 651 L160 403 L500 403 L500 334 L160 334 L160 68 L541 68 L541 0 L83 0 L83 720 Z M389 902 L421 839 L247 755 L222 802 L389 902 Z " />
<glyph glyph-name="Ecircumflex" unicode="&#xca;" horiz-adv-x="593" d="M83 720 L533 720 L533 651 L160 651 L160 403 L500 403 L500 334 L160 334 L160 68 L541 68 L541 0 L83 0 L83 720 Z M345 889 L440 790 L409 759 L318 831 L228 759 L194 790 L292 889 L345 889 Z " />
<glyph glyph-name="Edieresis" unicode="&#xcb;" horiz-adv-x="593" d="M83 720 L533 720 L533 651 L160 651 L160 403 L500 403 L500 334 L160 334 L160 68 L541 68 L541 0 L83 0 L83 720 Z M357 822 Q357 841 370 854 Q383 867 405 867 Q428 867 440 854 Q452 841 452 822 Q452 804 439 791 Q426 778 405 778 Q383 778 370 790.5 Q357 803 357 822 Z M168 822 Q168 841 181.5 854 Q195 867 216 867 Q239 867 251.5 854 Q264 841 264 822 Q264 804 250.5 791 Q237 778 217 778 Q194 778 181 790.5 Q168 803 168 822 Z " />
<glyph glyph-name="Igrave" unicode="&#xcc;" horiz-adv-x="244" d="M83 720 L160 720 L160 0 L83 0 L83 720 Z M221 802 L194 755 L21 839 L52 901 L221 802 Z " />
<glyph glyph-name="Iacute" unicode="&#xcd;" horiz-adv-x="244" d="M83 720 L160 720 L160 0 L83 0 L83 720 Z M188 902 L220 839 L46 755 L21 802 L188 902 Z " />
<glyph glyph-name="Icircumflex" unicode="&#xce;" horiz-adv-x="244" d="M83 720 L160 720 L160 0 L83 0 L83 720 Z M151 889 L246 790 L215 759 L124 831 L34 759 L0 790 L98 889 L151 889 Z " />
<glyph glyph-name="Idieresis" unicode="&#xcf;" horiz-adv-x="244" d="M83 720 L160 720 L160 0 L83 0 L83 720 Z M174 822 Q174 841 187 854 Q200 867 222 867 Q245 867 257 854 Q269 841 269 822 Q269 804 256 791 Q243 778 222 778 Q200 778 187 790.5 Q174 803 174 822 Z M-15 822 Q-15 841 -1.5 854 Q12 867 33 867 Q56 867 68.5 854 Q81 841 81 822 Q81 804 67.5 791 Q54 778 34 778 Q11 778 -2 790.5 Q-15 803 -15 822 Z " />
<glyph glyph-name="Eth" unicode="&#xd0;" horiz-adv-x="706" d="M15 399 L95 399 L95 720 L296 720 Q468 720 558.5 632 Q649 544 649 359 Q649 263 625.5 195 Q602 127 556.5 83.5 Q511 40 442.5 20 Q374 0 284 0 L95 0 L95 334 L15 334 L15 399 Z M172 650 L172 399 L366 399 L366 334 L172 334 L172 70 L300 70 Q442 70 505 143.5 Q568 217 568 359 Q568 429 553 483.5 Q538 538 505.5 575 Q473 612 422 631 Q371 650 300 650 L172 650 Z " />
<glyph glyph-name="Ntilde" unicode="&#xd1;" horiz-adv-x="701" d="M83 720 L155 720 L541 139 L541 720 L618 720 L618 0 L548 0 L159 582 L159 0 L83 0 L83 720 Z M506 857 Q493 815 473.5 798.5 Q454 782 427 782 Q409 782 391.5 787 Q374 792 357.5 798.5 Q341 805 327 810 Q313 815 302 815 Q289 815 281 808 Q273 801 260 779 L219 796 Q236 838 255 854.5 Q274 871 299 871 Q316 871 332 866 Q348 861 363 854.5 Q378 848 393 843 Q408 838 423 838 Q438 838 446.5 845 Q455 852 466 873 L506 857 Z " />
<glyph glyph-name="Ograve" unicode="&#xd2;" horiz-adv-x="761" d="M139 368 Q139 289 156.5 230.5 Q174 172 206 133.5 Q238 95 283 76 Q328 57 383 57 Q437 57 481.5 76 Q526 95 557.5 133 Q589 171 606 229.5 Q623 288 623 368 Q623 440 605.5 494.5 Q588 549 556.5 586.5 Q525 624 481 643 Q437 662 383 662 Q327 662 282 642.5 Q237 623 205 585.5 Q173 548 156 493.5 Q139 439 139 368 Z M57 368 Q57 458 81.5 526.5 Q106 595 150 640.5 Q194 686 254 709.5 Q314 733 386 733 Q455 733 513.5 709.5 Q572 686 614 640.5 Q656 595 680 526.5 Q704 458 704 368 Q704 269 679.5 197 Q655 125 612 78.5 Q569 32 509.5 10 Q450 -12 381 -12 Q311 -12 251.5 10.5 Q192 33 149 79.5 Q106 126 81.5 198 Q57 270 57 368 Z M480 802 L453 755 L280 839 L311 901 L480 802 Z " />
<glyph glyph-name="Oacute" unicode="&#xd3;" horiz-adv-x="761" d="M139 368 Q139 289 156.5 230.5 Q174 172 206 133.5 Q238 95 283 76 Q328 57 383 57 Q437 57 481.5 76 Q526 95 557.5 133 Q589 171 606 229.5 Q623 288 623 368 Q623 440 605.5 494.5 Q588 549 556.5 586.5 Q525 624 481 643 Q437 662 383 662 Q327 662 282 642.5 Q237 623 205 585.5 Q173 548 156 493.5 Q139 439 139 368 Z M57 368 Q57 458 81.5 526.5 Q106 595 150 640.5 Q194 686 254 709.5 Q314 733 386 733 Q455 733 513.5 709.5 Q572 686 614 640.5 Q656 595 680 526.5 Q704 458 704 368 Q704 269 679.5 197 Q655 125 612 78.5 Q569 32 509.5 10 Q450 -12 381 -12 Q311 -12 251.5 10.5 Q192 33 149 79.5 Q106 126 81.5 198 Q57 270 57 368 Z M447 902 L479 839 L305 755 L280 802 L447 902 Z " />
<glyph glyph-name="Ocircumflex" unicode="&#xd4;" horiz-adv-x="761" d="M139 368 Q139 289 156.5 230.5 Q174 172 206 133.5 Q238 95 283 76 Q328 57 383 57 Q437 57 481.5 76 Q526 95 557.5 133 Q589 171 606 229.5 Q623 288 623 368 Q623 440 605.5 494.5 Q588 549 556.5 586.5 Q525 624 481 643 Q437 662 383 662 Q327 662 282 642.5 Q237 623 205 585.5 Q173 548 156 493.5 Q139 439 139 368 Z M57 368 Q57 458 81.5 526.5 Q106 595 150 640.5 Q194 686 254 709.5 Q314 733 386 733 Q455 733 513.5 709.5 Q572 686 614 640.5 Q656 595 680 526.5 Q704 458 704 368 Q704 269 679.5 197 Q655 125 612 78.5 Q569 32 509.5 10 Q450 -12 381 -12 Q311 -12 251.5 10.5 Q192 33 149 79.5 Q106 126 81.5 198 Q57 270 57 368 Z M410 889 L505 790 L474 759 L383 831 L293 759 L259 790 L357 889 L410 889 Z " />
<glyph glyph-name="Otilde" unicode="&#xd5;" horiz-adv-x="761" d="M139 368 Q139 289 156.5 230.5 Q174 172 206 133.5 Q238 95 283 76 Q328 57 383 57 Q437 57 481.5 76 Q526 95 557.5 133 Q589 171 606 229.5 Q623 288 623 368 Q623 440 605.5 494.5 Q588 549 556.5 586.5 Q525 624 481 643 Q437 662 383 662 Q327 662 282 642.5 Q237 623 205 585.5 Q173 548 156 493.5 Q139 439 139 368 Z M57 368 Q57 458 81.5 526.5 Q106 595 150 640.5 Q194 686 254 709.5 Q314 733 386 733 Q455 733 513.5 709.5 Q572 686 614 640.5 Q656 595 680 526.5 Q704 458 704 368 Q704 269 679.5 197 Q655 125 612 78.5 Q569 32 509.5 10 Q450 -12 381 -12 Q311 -12 251.5 10.5 Q192 33 149 79.5 Q106 126 81.5 198 Q57 270 57 368 Z M529 857 Q516 815 496.5 798.5 Q477 782 450 782 Q432 782 414.5 787 Q397 792 380.5 798.5 Q364 805 350 810 Q336 815 325 815 Q312 815 304 808 Q296 801 283 779 L242 796 Q259 838 278 854.5 Q297 871 322 871 Q339 871 355 866 Q371 861 386 854.5 Q401 848 416 843 Q431 838 446 838 Q461 838 469.5 845 Q478 852 489 873 L529 857 Z " />
<glyph glyph-name="Odieresis" unicode="&#xd6;" horiz-adv-x="761" d="M139 368 Q139 289 156.5 230.5 Q174 172 206 133.5 Q238 95 283 76 Q328 57 383 57 Q437 57 481.5 76 Q526 95 557.5 133 Q589 171 606 229.5 Q623 288 623 368 Q623 440 605.5 494.5 Q588 549 556.5 586.5 Q525 624 481 643 Q437 662 383 662 Q327 662 282 642.5 Q237 623 205 585.5 Q173 548 156 493.5 Q139 439 139 368 Z M57 368 Q57 458 81.5 526.5 Q106 595 150 640.5 Q194 686 254 709.5 Q314 733 386 733 Q455 733 513.5 709.5 Q572 686 614 640.5 Q656 595 680 526.5 Q704 458 704 368 Q704 269 679.5 197 Q655 125 612 78.5 Q569 32 509.5 10 Q450 -12 381 -12 Q311 -12 251.5 10.5 Q192 33 149 79.5 Q106 126 81.5 198 Q57 270 57 368 Z M433 822 Q433 841 446 854 Q459 867 481 867 Q504 867 516 854 Q528 841 528 822 Q528 804 515 791 Q502 778 481 778 Q459 778 446 790.5 Q433 803 433 822 Z M244 822 Q244 841 257.5 854 Q271 867 292 867 Q315 867 327.5 854 Q340 841 340 822 Q340 804 326.5 791 Q313 778 293 778 Q270 778 257 790.5 Q244 803 244 822 Z " />
<glyph glyph-name="Oslash" unicode="&#xd8;" horiz-adv-x="761" d="M57 368 Q57 458 81.5 526.5 Q106 595 150 640.5 Q194 686 254 709.5 Q314 733 386 733 Q422 733 454 727 L472 782 L537 782 L516 709 Q602 674 653 588.5 Q704 503 704 368 Q704 269 679.5 197 Q655 125 612 78.5 Q569 32 509.5 10 Q450 -12 381 -12 Q361 -12 342.5 -10 Q324 -8 306 -5 L286 -73 L221 -73 L246 13 Q159 48 108 135 Q57 222 57 368 Z M623 368 Q623 471 588.5 538 Q554 605 494 636 L326 62 Q340 59 354 58 Q368 57 383 57 Q437 57 481.5 76 Q526 95 557.5 133 Q589 171 606 229.5 Q623 288 623 368 Z M139 368 Q139 256 173 186 Q207 116 267 84 L434 657 Q422 659 409 660.5 Q396 662 383 662 Q327 662 282 642.5 Q237 623 205 585.5 Q173 548 156 493.5 Q139 439 139 368 Z " />
<glyph glyph-name="Ugrave" unicode="&#xd9;" horiz-adv-x="689" d="M155 720 L155 276 Q155 164 206 110.5 Q257 57 348 57 Q450 57 492 113 Q534 169 534 276 L534 720 L610 720 L610 267 Q610 -12 345 -12 Q285 -12 236 4.5 Q187 21 151.5 55.5 Q116 90 97 142.5 Q78 195 78 267 L78 720 L155 720 Z M443 802 L416 755 L243 839 L274 901 L443 802 Z " />
<glyph glyph-name="Uacute" unicode="&#xda;" horiz-adv-x="689" d="M155 720 L155 276 Q155 164 206 110.5 Q257 57 348 57 Q450 57 492 113 Q534 169 534 276 L534 720 L610 720 L610 267 Q610 -12 345 -12 Q285 -12 236 4.5 Q187 21 151.5 55.5 Q116 90 97 142.5 Q78 195 78 267 L78 720 L155 720 Z M426 902 L458 839 L284 755 L259 802 L426 902 Z " />
<glyph glyph-name="Ucircumflex" unicode="&#xdb;" horiz-adv-x="689" d="M155 720 L155 276 Q155 164 206 110.5 Q257 57 348 57 Q450 57 492 113 Q534 169 534 276 L534 720 L610 720 L610 267 Q610 -12 345 -12 Q285 -12 236 4.5 Q187 21 151.5 55.5 Q116 90 97 142.5 Q78 195 78 267 L78 720 L155 720 Z M383 889 L478 790 L447 759 L356 831 L266 759 L232 790 L330 889 L383 889 Z " />
<glyph glyph-name="Udieresis" unicode="&#xdc;" horiz-adv-x="689" d="M155 720 L155 276 Q155 164 206 110.5 Q257 57 348 57 Q450 57 492 113 Q534 169 534 276 L534 720 L610 720 L610 267 Q610 -12 345 -12 Q285 -12 236 4.5 Q187 21 151.5 55.5 Q116 90 97 142.5 Q78 195 78 267 L78 720 L155 720 Z M396 822 Q396 841 409 854 Q422 867 444 867 Q467 867 479 854 Q491 841 491 822 Q491 804 478 791 Q465 778 444 778 Q422 778 409 790.5 Q396 803 396 822 Z M207 822 Q207 841 220.5 854 Q234 867 255 867 Q278 867 290.5 854 Q303 841 303 822 Q303 804 289.5 791 Q276 778 256 778 Q233 778 220 790.5 Q207 803 207 822 Z " />
<glyph glyph-name="Yacute" unicode="&#xdd;" horiz-adv-x="576" d="M247 305 L17 720 L103 720 L287 382 L472 720 L558 720 L325 305 L325 0 L247 0 L247 305 Z M377 902 L409 839 L235 755 L210 802 L377 902 Z " />
<glyph glyph-name="Thorn" unicode="&#xde;" horiz-adv-x="595" d="M75 720 L152 720 L152 601 L301 601 Q349 601 392.5 590 Q436 579 469 554.5 Q502 530 521.5 489 Q541 448 541 388 Q541 332 523 290.5 Q505 249 472.5 221.5 Q440 194 393.5 180.5 Q347 167 290 167 L152 167 L152 0 L75 0 L75 720 Z M152 532 L152 230 L285 230 Q377 230 421.5 269.5 Q466 309 466 384 Q466 459 426 495.5 Q386 532 297 532 L152 532 Z " />
<glyph glyph-name="germandbls" unicode="&#xdf;" horiz-adv-x="552" d="M88 464 L27 464 L27 510 L88 522 L88 539 Q88 588 103 623.5 Q118 659 144 682 Q170 705 205 716 Q240 727 280 727 Q374 727 421 682 Q468 637 468 553 Q468 484 428 437 Q388 390 318 378 Q409 366 458.5 317.5 Q508 269 508 183 Q508 91 457.5 39.5 Q407 -12 321 -12 Q292 -12 259.5 -4 Q227 4 207 20 L228 70 Q241 63 263 55.5 Q285 48 316 48 Q340 48 361.5 56 Q383 64 399 81 Q415 98 424 124 Q433 150 433 187 Q433 227 420 254.5 Q407 282 383 300 Q359 318 324 328.5 Q289 339 246 345 L246 405 Q277 408 304 418 Q331 428 351 445.5 Q371 463 383 488.5 Q395 514 395 549 Q395 665 276 665 Q215 665 188 629.5 Q161 594 161 525 L161 0 L88 0 L88 464 Z " />
<glyph glyph-name="agrave" unicode="&#xe0;" horiz-adv-x="517" d="M374 240 Q359 242 341 243.5 Q323 245 294 245 Q201 245 160.5 217 Q120 189 120 135 Q120 94 145.5 70 Q171 46 221 46 Q254 46 282 62 Q310 78 330.5 103 Q351 128 362.5 158 Q374 188 374 216 L374 240 Z M448 0 L387 0 L380 97 Q325 -12 203 -12 Q132 -12 89.5 26.5 Q47 65 47 139 Q47 167 57.5 196 Q68 225 95 249 Q122 273 169 288 Q216 303 290 303 Q313 303 332.5 301.5 Q352 300 374 297 L374 350 Q374 412 343 443 Q312 474 254 474 Q209 474 174 458 Q139 442 104 413 L68 459 Q106 495 155 516 Q204 537 258 537 Q301 537 336 526.5 Q371 516 396 494 Q421 472 434.5 437 Q448 402 448 354 L448 0 Z M336 625 L301 584 L150 707 L195 758 L336 625 Z " />
<glyph glyph-name="aacute" unicode="&#xe1;" horiz-adv-x="517" d="M374 240 Q359 242 341 243.5 Q323 245 294 245 Q201 245 160.5 217 Q120 189 120 135 Q120 94 145.5 70 Q171 46 221 46 Q254 46 282 62 Q310 78 330.5 103 Q351 128 362.5 158 Q374 188 374 216 L374 240 Z M448 0 L387 0 L380 97 Q325 -12 203 -12 Q132 -12 89.5 26.5 Q47 65 47 139 Q47 167 57.5 196 Q68 225 95 249 Q122 273 169 288 Q216 303 290 303 Q313 303 332.5 301.5 Q352 300 374 297 L374 350 Q374 412 343 443 Q312 474 254 474 Q209 474 174 458 Q139 442 104 413 L68 459 Q106 495 155 516 Q204 537 258 537 Q301 537 336 526.5 Q371 516 396 494 Q421 472 434.5 437 Q448 402 448 354 L448 0 Z M306 758 L350 706 L199 584 L165 625 L306 758 Z " />
<glyph glyph-name="acircumflex" unicode="&#xe2;" horiz-adv-x="517" d="M374 240 Q359 242 341 243.5 Q323 245 294 245 Q201 245 160.5 217 Q120 189 120 135 Q120 94 145.5 70 Q171 46 221 46 Q254 46 282 62 Q310 78 330.5 103 Q351 128 362.5 158 Q374 188 374 216 L374 240 Z M448 0 L387 0 L380 97 Q325 -12 203 -12 Q132 -12 89.5 26.5 Q47 65 47 139 Q47 167 57.5 196 Q68 225 95 249 Q122 273 169 288 Q216 303 290 303 Q313 303 332.5 301.5 Q352 300 374 297 L374 350 Q374 412 343 443 Q312 474 254 474 Q209 474 174 458 Q139 442 104 413 L68 459 Q106 495 155 516 Q204 537 258 537 Q301 537 336 526.5 Q371 516 396 494 Q421 472 434.5 437 Q448 402 448 354 L448 0 Z M276 755 L383 607 L345 580 L251 693 L156 581 L117 607 L224 755 L276 755 Z " />
<glyph glyph-name="atilde" unicode="&#xe3;" horiz-adv-x="517" d="M374 240 Q359 242 341 243.5 Q323 245 294 245 Q201 245 160.5 217 Q120 189 120 135 Q120 94 145.5 70 Q171 46 221 46 Q254 46 282 62 Q310 78 330.5 103 Q351 128 362.5 158 Q374 188 374 216 L374 240 Z M448 0 L387 0 L380 97 Q325 -12 203 -12 Q132 -12 89.5 26.5 Q47 65 47 139 Q47 167 57.5 196 Q68 225 95 249 Q122 273 169 288 Q216 303 290 303 Q313 303 332.5 301.5 Q352 300 374 297 L374 350 Q374 412 343 443 Q312 474 254 474 Q209 474 174 458 Q139 442 104 413 L68 459 Q106 495 155 516 Q204 537 258 537 Q301 537 336 526.5 Q371 516 396 494 Q421 472 434.5 437 Q448 402 448 354 L448 0 Z M395 683 Q382 641 362.5 624.5 Q343 608 316 608 Q298 608 280.5 613 Q263 618 246.5 624.5 Q230 631 216 636 Q202 641 191 641 Q178 641 170 634 Q162 627 149 605 L108 622 Q125 664 144 680.5 Q163 697 188 697 Q205 697 221 692 Q237 687 252 680.5 Q267 674 282 669 Q297 664 312 664 Q327 664 335.5 671 Q344 678 355 699 L395 683 Z " />
<glyph glyph-name="adieresis" unicode="&#xe4;" horiz-adv-x="517" d="M374 240 Q359 242 341 243.5 Q323 245 294 245 Q201 245 160.5 217 Q120 189 120 135 Q120 94 145.5 70 Q171 46 221 46 Q254 46 282 62 Q310 78 330.5 103 Q351 128 362.5 158 Q374 188 374 216 L374 240 Z M448 0 L387 0 L380 97 Q325 -12 203 -12 Q132 -12 89.5 26.5 Q47 65 47 139 Q47 167 57.5 196 Q68 225 95 249 Q122 273 169 288 Q216 303 290 303 Q313 303 332.5 301.5 Q352 300 374 297 L374 350 Q374 412 343 443 Q312 474 254 474 Q209 474 174 458 Q139 442 104 413 L68 459 Q106 495 155 516 Q204 537 258 537 Q301 537 336 526.5 Q371 516 396 494 Q421 472 434.5 437 Q448 402 448 354 L448 0 Z M301 653 Q301 672 314 685 Q327 698 349 698 Q372 698 384 685 Q396 672 396 653 Q396 634 383 621.5 Q370 609 349 609 Q327 609 314 621.5 Q301 634 301 653 Z M112 653 Q112 672 125.5 685 Q139 698 160 698 Q183 698 195.5 685 Q208 672 208 653 Q208 634 194.5 621.5 Q181 609 161 609 Q138 609 125 621.5 Q112 634 112 653 Z " />
<glyph glyph-name="aring" unicode="&#xe5;" horiz-adv-x="517" d="M374 240 Q359 242 341 243.5 Q323 245 294 245 Q201 245 160.5 217 Q120 189 120 135 Q120 94 145.5 70 Q171 46 221 46 Q254 46 282 62 Q310 78 330.5 103 Q351 128 362.5 158 Q374 188 374 216 L374 240 Z M448 0 L387 0 L380 97 Q325 -12 203 -12 Q132 -12 89.5 26.5 Q47 65 47 139 Q47 167 57.5 196 Q68 225 95 249 Q122 273 169 288 Q216 303 290 303 Q313 303 332.5 301.5 Q352 300 374 297 L374 350 Q374 412 343 443 Q312 474 254 474 Q209 474 174 458 Q139 442 104 413 L68 459 Q106 495 155 516 Q204 537 258 537 Q301 537 336 526.5 Q371 516 396 494 Q421 472 434.5 437 Q448 402 448 354 L448 0 Z M210 663 Q210 642 222 630.5 Q234 619 254 619 Q275 619 287 632 Q299 645 299 666 Q299 686 287 697 Q275 708 254 708 Q234 708 222 695.5 Q210 683 210 663 Z M161 662 Q161 702 187.5 727 Q214 752 254 752 Q294 752 320.5 728.5 Q347 705 347 666 Q347 624 320.5 600 Q294 576 254 576 Q213 576 187 598.5 Q161 621 161 662 Z " />
<glyph glyph-name="ae" unicode="&#xe6;" horiz-adv-x="865" d="M810 58 Q765 20 717 4 Q669 -12 615 -12 Q544 -12 491.5 17.5 Q439 47 412 106 Q395 73 372.5 50.5 Q350 28 324 14 Q298 0 270 -6 Q242 -12 215 -12 Q137 -12 91.5 27 Q46 66 46 142 Q46 169 56 198 Q66 227 92.5 251 Q119 275 165 290.5 Q211 306 283 306 Q307 306 328.5 304.5 Q350 303 374 300 L374 351 Q374 416 341.5 446.5 Q309 477 251 477 Q206 477 168 460.5 Q130 444 98 419 L67 464 Q105 495 154.5 516 Q204 537 256 537 Q316 537 360 515 Q404 493 427 437 Q491 537 614 537 Q715 537 767 474.5 Q819 412 819 283 Q819 275 819 262.5 Q819 250 818 242 L455 242 Q455 200 465 165 Q475 130 495 105 Q515 80 546.5 66 Q578 52 621 52 Q666 52 702.5 65.5 Q739 79 779 109 L810 58 Z M374 245 Q344 251 309 251 Q255 251 218.5 243 Q182 235 160.5 220.5 Q139 206 129.5 185 Q120 164 120 138 Q120 96 148.5 71 Q177 46 222 46 Q254 46 282 57.5 Q310 69 330.5 90 Q351 111 362.5 140.5 Q374 170 374 206 L374 245 Z M746 304 Q746 340 739 371 Q732 402 717 425.5 Q702 449 676.5 462 Q651 475 614 475 Q567 475 536.5 456 Q506 437 488 410 Q470 383 463 353.5 Q456 324 455 304 L746 304 Z " />
<glyph glyph-name="ccedilla" unicode="&#xe7;" horiz-adv-x="520" d="M204 -150 Q218 -155 234 -159 Q250 -163 268 -163 Q286 -163 300.5 -156.5 Q315 -150 315 -128 Q315 -107 297.5 -100.5 Q280 -94 248 -94 L232 -94 L250 -9 Q203 -4 166 17.5 Q129 39 103 74 Q77 109 63 157 Q49 205 49 264 Q49 330 67 380.5 Q85 431 117 466 Q149 501 192.5 519 Q236 537 286 537 Q378 537 428.5 487 Q479 437 484 346 L416 346 Q408 411 374.5 441 Q341 471 287 471 Q212 471 169.5 417 Q127 363 127 267 Q127 223 137 183.5 Q147 144 167.5 115 Q188 86 219 69 Q250 52 292 52 Q316 52 335.5 55.5 Q355 59 373.5 66 Q392 73 410.5 84 Q429 95 450 110 L481 61 Q439 24 393.5 7 Q348 -10 296 -12 L288 -55 Q303 -55 318 -58.5 Q333 -62 345 -70 Q357 -78 364.5 -91.5 Q372 -105 372 -126 Q372 -169 345 -188.5 Q318 -208 273 -208 Q247 -208 224.5 -202 Q202 -196 193 -191 L204 -150 Z " />
<glyph glyph-name="egrave" unicode="&#xe8;" horiz-adv-x="537" d="M482 58 Q438 20 390 4 Q342 -12 288 -12 Q234 -12 189.5 4.5 Q145 21 114 55 Q83 89 66 140 Q49 191 49 260 Q49 323 66 374 Q83 425 114 461.5 Q145 498 189 517.5 Q233 537 287 537 Q388 537 439.5 474.5 Q491 412 491 283 L491 242 L128 242 Q128 200 138 165 Q148 130 168 105 Q188 80 219.5 66 Q251 52 294 52 Q339 52 374 66.5 Q409 81 448 110 L482 58 Z M416 304 Q416 340 409 371 Q402 402 387 425.5 Q372 449 347 462 Q322 475 285 475 Q238 475 208 456 Q178 437 160.5 410 Q143 383 136 353.5 Q129 324 128 304 L416 304 Z M358 625 L323 584 L172 707 L217 758 L358 625 Z " />
<glyph glyph-name="eacute" unicode="&#xe9;" horiz-adv-x="537" d="M482 58 Q438 20 390 4 Q342 -12 288 -12 Q234 -12 189.5 4.5 Q145 21 114 55 Q83 89 66 140 Q49 191 49 260 Q49 323 66 374 Q83 425 114 461.5 Q145 498 189 517.5 Q233 537 287 537 Q388 537 439.5 474.5 Q491 412 491 283 L491 242 L128 242 Q128 200 138 165 Q148 130 168 105 Q188 80 219.5 66 Q251 52 294 52 Q339 52 374 66.5 Q409 81 448 110 L482 58 Z M416 304 Q416 340 409 371 Q402 402 387 425.5 Q372 449 347 462 Q322 475 285 475 Q238 475 208 456 Q178 437 160.5 410 Q143 383 136 353.5 Q129 324 128 304 L416 304 Z M332 758 L376 706 L225 584 L191 625 L332 758 Z " />
<glyph glyph-name="ecircumflex" unicode="&#xea;" horiz-adv-x="537" d="M482 58 Q438 20 390 4 Q342 -12 288 -12 Q234 -12 189.5 4.5 Q145 21 114 55 Q83 89 66 140 Q49 191 49 260 Q49 323 66 374 Q83 425 114 461.5 Q145 498 189 517.5 Q233 537 287 537 Q388 537 439.5 474.5 Q491 412 491 283 L491 242 L128 242 Q128 200 138 165 Q148 130 168 105 Q188 80 219.5 66 Q251 52 294 52 Q339 52 374 66.5 Q409 81 448 110 L482 58 Z M416 304 Q416 340 409 371 Q402 402 387 425.5 Q372 449 347 462 Q322 475 285 475 Q238 475 208 456 Q178 437 160.5 410 Q143 383 136 353.5 Q129 324 128 304 L416 304 Z M307 755 L414 607 L376 580 L282 693 L187 581 L148 607 L255 755 L307 755 Z " />
<glyph glyph-name="edieresis" unicode="&#xeb;" horiz-adv-x="537" d="M482 58 Q438 20 390 4 Q342 -12 288 -12 Q234 -12 189.5 4.5 Q145 21 114 55 Q83 89 66 140 Q49 191 49 260 Q49 323 66 374 Q83 425 114 461.5 Q145 498 189 517.5 Q233 537 287 537 Q388 537 439.5 474.5 Q491 412 491 283 L491 242 L128 242 Q128 200 138 165 Q148 130 168 105 Q188 80 219.5 66 Q251 52 294 52 Q339 52 374 66.5 Q409 81 448 110 L482 58 Z M416 304 Q416 340 409 371 Q402 402 387 425.5 Q372 449 347 462 Q322 475 285 475 Q238 475 208 456 Q178 437 160.5 410 Q143 383 136 353.5 Q129 324 128 304 L416 304 Z M325 653 Q325 672 338 685 Q351 698 373 698 Q396 698 408 685 Q420 672 420 653 Q420 634 407 621.5 Q394 609 373 609 Q351 609 338 621.5 Q325 634 325 653 Z M136 653 Q136 672 149.5 685 Q163 698 184 698 Q207 698 219.5 685 Q232 672 232 653 Q232 634 218.5 621.5 Q205 609 185 609 Q162 609 149 621.5 Q136 634 136 653 Z " />
<glyph glyph-name="igrave" unicode="&#xec;" horiz-adv-x="233" d="M205 625 L170 584 L19 707 L64 758 L205 625 Z M153 0 L80 0 L80 525 L153 525 L153 0 Z " />
<glyph glyph-name="iacute" unicode="&#xed;" horiz-adv-x="233" d="M171 758 L215 706 L64 584 L30 625 L171 758 Z M153 0 L80 0 L80 525 L153 525 L153 0 Z " />
<glyph glyph-name="icircumflex" unicode="&#xee;" horiz-adv-x="233" d="M153 0 L80 0 L80 525 L153 525 L153 0 Z M144 755 L251 607 L213 580 L119 693 L24 581 L-15 607 L92 755 L144 755 Z " />
<glyph glyph-name="idieresis" unicode="&#xef;" horiz-adv-x="233" d="M169 653 Q169 672 182 685 Q195 698 217 698 Q240 698 252 685 Q264 672 264 653 Q264 634 251 621.5 Q238 609 217 609 Q195 609 182 621.5 Q169 634 169 653 Z M-20 653 Q-20 672 -6.5 685 Q7 698 28 698 Q51 698 63.5 685 Q76 672 76 653 Q76 634 62.5 621.5 Q49 609 29 609 Q6 609 -7 621.5 Q-20 634 -20 653 Z M153 0 L80 0 L80 525 L153 525 L153 0 Z " />
<glyph glyph-name="eth" unicode="&#xf0;" horiz-adv-x="530" d="M209 557 L283 607 Q227 648 143 666 L161 722 Q266 702 339 645 L426 703 L459 656 L382 605 Q430 551 456 473.5 Q482 396 482 293 Q482 223 468 166.5 Q454 110 425.5 70.5 Q397 31 355 9.5 Q313 -12 258 -12 Q160 -12 103.5 47 Q47 106 47 211 Q47 258 59.5 299 Q72 340 97 371 Q122 402 159 419.5 Q196 437 244 437 Q298 437 339 416.5 Q380 396 411 361 Q404 424 384 476 Q364 528 328 568 L241 511 L209 557 Z M258 52 Q327 52 369.5 110 Q412 168 411 293 Q399 305 383.5 319.5 Q368 334 349 346 Q330 358 307.5 366 Q285 374 258 374 Q231 374 206 364.5 Q181 355 162 335.5 Q143 316 132 285 Q121 254 121 212 Q121 171 132 141 Q143 111 161.5 91 Q180 71 205 61.5 Q230 52 258 52 Z " />
<glyph glyph-name="ntilde" unicode="&#xf1;" horiz-adv-x="550" d="M143 525 L143 446 Q175 485 219 511 Q263 537 318 537 Q364 537 395 522.5 Q426 508 445 481.5 Q464 455 472 419 Q480 383 480 340 L480 0 L406 0 L406 325 Q406 399 381 434 Q356 469 302 469 Q275 469 250.5 459 Q226 449 206 435.5 Q186 422 171 406.5 Q156 391 147 381 L147 0 L74 0 L74 525 L143 525 Z M420 683 Q407 641 387.5 624.5 Q368 608 341 608 Q323 608 305.5 613 Q288 618 271.5 624.5 Q255 631 241 636 Q227 641 216 641 Q203 641 195 634 Q187 627 174 605 L133 622 Q150 664 169 680.5 Q188 697 213 697 Q230 697 246 692 Q262 687 277 680.5 Q292 674 307 669 Q322 664 337 664 Q352 664 360.5 671 Q369 678 380 699 L420 683 Z " />
<glyph glyph-name="ograve" unicode="&#xf2;" horiz-adv-x="577" d="M127 262 Q127 208 139 169 Q151 130 172.5 104.5 Q194 79 223 66.5 Q252 54 287 54 Q321 54 351 66.5 Q381 79 403 104.5 Q425 130 437.5 169 Q450 208 450 262 Q450 316 437.5 355 Q425 394 403 420 Q381 446 351 458.5 Q321 471 287 471 Q218 471 172.5 419 Q127 367 127 262 Z M49 260 Q49 325 66.5 376.5 Q84 428 115.5 463.5 Q147 499 191.5 518 Q236 537 291 537 Q345 537 388.5 519 Q432 501 462.5 465.5 Q493 430 510 379 Q527 328 527 262 Q527 197 509.5 146 Q492 95 460 60 Q428 25 383 6.5 Q338 -12 283 -12 Q173 -12 111 59.5 Q49 131 49 260 Z M378 625 L343 584 L192 707 L237 758 L378 625 Z " />
<glyph glyph-name="oacute" unicode="&#xf3;" horiz-adv-x="577" d="M127 262 Q127 208 139 169 Q151 130 172.5 104.5 Q194 79 223 66.5 Q252 54 287 54 Q321 54 351 66.5 Q381 79 403 104.5 Q425 130 437.5 169 Q450 208 450 262 Q450 316 437.5 355 Q425 394 403 420 Q381 446 351 458.5 Q321 471 287 471 Q218 471 172.5 419 Q127 367 127 262 Z M49 260 Q49 325 66.5 376.5 Q84 428 115.5 463.5 Q147 499 191.5 518 Q236 537 291 537 Q345 537 388.5 519 Q432 501 462.5 465.5 Q493 430 510 379 Q527 328 527 262 Q527 197 509.5 146 Q492 95 460 60 Q428 25 383 6.5 Q338 -12 283 -12 Q173 -12 111 59.5 Q49 131 49 260 Z M338 758 L382 706 L231 584 L197 625 L338 758 Z " />
<glyph glyph-name="ocircumflex" unicode="&#xf4;" horiz-adv-x="577" d="M127 262 Q127 208 139 169 Q151 130 172.5 104.5 Q194 79 223 66.5 Q252 54 287 54 Q321 54 351 66.5 Q381 79 403 104.5 Q425 130 437.5 169 Q450 208 450 262 Q450 316 437.5 355 Q425 394 403 420 Q381 446 351 458.5 Q321 471 287 471 Q218 471 172.5 419 Q127 367 127 262 Z M49 260 Q49 325 66.5 376.5 Q84 428 115.5 463.5 Q147 499 191.5 518 Q236 537 291 537 Q345 537 388.5 519 Q432 501 462.5 465.5 Q493 430 510 379 Q527 328 527 262 Q527 197 509.5 146 Q492 95 460 60 Q428 25 383 6.5 Q338 -12 283 -12 Q173 -12 111 59.5 Q49 131 49 260 Z M317 755 L424 607 L386 580 L292 693 L197 581 L158 607 L265 755 L317 755 Z " />
<glyph glyph-name="otilde" unicode="&#xf5;" horiz-adv-x="577" d="M127 262 Q127 208 139 169 Q151 130 172.5 104.5 Q194 79 223 66.5 Q252 54 287 54 Q321 54 351 66.5 Q381 79 403 104.5 Q425 130 437.5 169 Q450 208 450 262 Q450 316 437.5 355 Q425 394 403 420 Q381 446 351 458.5 Q321 471 287 471 Q218 471 172.5 419 Q127 367 127 262 Z M49 260 Q49 325 66.5 376.5 Q84 428 115.5 463.5 Q147 499 191.5 518 Q236 537 291 537 Q345 537 388.5 519 Q432 501 462.5 465.5 Q493 430 510 379 Q527 328 527 262 Q527 197 509.5 146 Q492 95 460 60 Q428 25 383 6.5 Q338 -12 283 -12 Q173 -12 111 59.5 Q49 131 49 260 Z M435 683 Q422 641 402.5 624.5 Q383 608 356 608 Q338 608 320.5 613 Q303 618 286.5 624.5 Q270 631 256 636 Q242 641 231 641 Q218 641 210 634 Q202 627 189 605 L148 622 Q165 664 184 680.5 Q203 697 228 697 Q245 697 261 692 Q277 687 292 680.5 Q307 674 322 669 Q337 664 352 664 Q367 664 375.5 671 Q384 678 395 699 L435 683 Z " />
<glyph glyph-name="odieresis" unicode="&#xf6;" horiz-adv-x="577" d="M127 262 Q127 208 139 169 Q151 130 172.5 104.5 Q194 79 223 66.5 Q252 54 287 54 Q321 54 351 66.5 Q381 79 403 104.5 Q425 130 437.5 169 Q450 208 450 262 Q450 316 437.5 355 Q425 394 403 420 Q381 446 351 458.5 Q321 471 287 471 Q218 471 172.5 419 Q127 367 127 262 Z M49 260 Q49 325 66.5 376.5 Q84 428 115.5 463.5 Q147 499 191.5 518 Q236 537 291 537 Q345 537 388.5 519 Q432 501 462.5 465.5 Q493 430 510 379 Q527 328 527 262 Q527 197 509.5 146 Q492 95 460 60 Q428 25 383 6.5 Q338 -12 283 -12 Q173 -12 111 59.5 Q49 131 49 260 Z M336 653 Q336 672 349 685 Q362 698 384 698 Q407 698 419 685 Q431 672 431 653 Q431 634 418 621.5 Q405 609 384 609 Q362 609 349 621.5 Q336 634 336 653 Z M147 653 Q147 672 160.5 685 Q174 698 195 698 Q218 698 230.5 685 Q243 672 243 653 Q243 634 229.5 621.5 Q216 609 196 609 Q173 609 160 621.5 Q147 634 147 653 Z " />
<glyph glyph-name="oslash" unicode="&#xf8;" horiz-adv-x="577" d="M49 260 Q49 325 66.5 376.5 Q84 428 115.5 463.5 Q147 499 191.5 518 Q236 537 291 537 Q302 537 313 536 Q324 535 335 533 L354 593 L420 593 L396 515 Q458 486 492.5 422.5 Q527 359 527 262 Q527 197 509.5 146 Q492 95 460 60 Q428 25 383 6.5 Q338 -12 283 -12 Q270 -12 258 -11 Q246 -10 235 -8 L214 -74 L149 -74 L175 11 Q114 40 81.5 103 Q49 166 49 260 Z M450 262 Q450 331 429.5 376.5 Q409 422 374 445 L255 57 Q263 55 271 54.5 Q279 54 287 54 Q321 54 351 66.5 Q381 79 403 104.5 Q425 130 437.5 169 Q450 208 450 262 Z M127 262 Q127 193 146 149 Q165 105 197 81 L315 468 Q301 471 287 471 Q218 471 172.5 419 Q127 367 127 262 Z " />
<glyph glyph-name="ugrave" unicode="&#xf9;" horiz-adv-x="547" d="M405 0 L405 78 Q392 62 375 46 Q358 30 336 17 Q314 4 288 -4 Q262 -12 231 -12 Q183 -12 151.5 2.5 Q120 17 102 42.5 Q84 68 77 101.5 Q70 135 70 174 L70 525 L144 525 L144 191 Q144 125 166.5 90 Q189 55 249 55 Q274 55 296 62.5 Q318 70 337 82.5 Q356 95 371.5 110.5 Q387 126 400 142 L400 525 L473 525 L473 0 L405 0 Z M361 625 L326 584 L175 707 L220 758 L361 625 Z " />
<glyph glyph-name="uacute" unicode="&#xfa;" horiz-adv-x="547" d="M405 0 L405 78 Q392 62 375 46 Q358 30 336 17 Q314 4 288 -4 Q262 -12 231 -12 Q183 -12 151.5 2.5 Q120 17 102 42.5 Q84 68 77 101.5 Q70 135 70 174 L70 525 L144 525 L144 191 Q144 125 166.5 90 Q189 55 249 55 Q274 55 296 62.5 Q318 70 337 82.5 Q356 95 371.5 110.5 Q387 126 400 142 L400 525 L473 525 L473 0 L405 0 Z M332 758 L376 706 L225 584 L191 625 L332 758 Z " />
<glyph glyph-name="ucircumflex" unicode="&#xfb;" horiz-adv-x="547" d="M405 0 L405 78 Q392 62 375 46 Q358 30 336 17 Q314 4 288 -4 Q262 -12 231 -12 Q183 -12 151.5 2.5 Q120 17 102 42.5 Q84 68 77 101.5 Q70 135 70 174 L70 525 L144 525 L144 191 Q144 125 166.5 90 Q189 55 249 55 Q274 55 296 62.5 Q318 70 337 82.5 Q356 95 371.5 110.5 Q387 126 400 142 L400 525 L473 525 L473 0 L405 0 Z M297 755 L404 607 L366 580 L272 693 L177 581 L138 607 L245 755 L297 755 Z " />
<glyph glyph-name="udieresis" unicode="&#xfc;" horiz-adv-x="547" d="M405 0 L405 78 Q392 62 375 46 Q358 30 336 17 Q314 4 288 -4 Q262 -12 231 -12 Q183 -12 151.5 2.5 Q120 17 102 42.5 Q84 68 77 101.5 Q70 135 70 174 L70 525 L144 525 L144 191 Q144 125 166.5 90 Q189 55 249 55 Q274 55 296 62.5 Q318 70 337 82.5 Q356 95 371.5 110.5 Q387 126 400 142 L400 525 L473 525 L473 0 L405 0 Z M320 653 Q320 672 333 685 Q346 698 368 698 Q391 698 403 685 Q415 672 415 653 Q415 634 402 621.5 Q389 609 368 609 Q346 609 333 621.5 Q320 634 320 653 Z M131 653 Q131 672 144.5 685 Q158 698 179 698 Q202 698 214.5 685 Q227 672 227 653 Q227 634 213.5 621.5 Q200 609 180 609 Q157 609 144 621.5 Q131 634 131 653 Z " />
<glyph glyph-name="yacute" unicode="&#xfd;" horiz-adv-x="478" d="M459 525 L270 -20 Q253 -68 239.5 -102 Q226 -136 209 -158.5 Q192 -181 168.5 -191.5 Q145 -202 109 -202 Q83 -202 62 -199 Q41 -196 21 -190 L30 -135 Q41 -137 59 -140 Q77 -143 100 -143 Q116 -143 128 -138.5 Q140 -134 150.5 -122.5 Q161 -111 170.5 -90.5 Q180 -70 191 -38 L203 0 L17 525 L96 525 L240 90 L384 525 L459 525 Z M309 758 L353 706 L202 584 L168 625 L309 758 Z " />
<glyph glyph-name="thorn" unicode="&#xfe;" horiz-adv-x="578" d="M143 134 Q152 121 167 106.5 Q182 92 201.5 79.5 Q221 67 245.5 59 Q270 51 298 51 Q371 51 410.5 104.5 Q450 158 450 261 Q450 364 413 418.5 Q376 473 303 473 Q276 473 253 465 Q230 457 210.5 444 Q191 431 174 414 Q157 397 143 378 L143 134 Z M70 -200 L70 720 L142 720 L142 444 Q176 486 220.5 511.5 Q265 537 322 537 Q425 537 476 463 Q527 389 527 263 Q527 201 514 150.5 Q501 100 474 64 Q447 28 406 8 Q365 -12 310 -12 Q276 -12 248.5 -3.5 Q221 5 200 17 Q179 29 165 42.5 Q151 56 143 66 L143 -200 L70 -200 Z " />
<glyph glyph-name="ydieresis" unicode="&#xff;" horiz-adv-x="478" d="M459 525 L270 -20 Q253 -68 239.5 -102 Q226 -136 209 -158.5 Q192 -181 168.5 -191.5 Q145 -202 109 -202 Q83 -202 62 -199 Q41 -196 21 -190 L30 -135 Q41 -137 59 -140 Q77 -143 100 -143 Q116 -143 128 -138.5 Q140 -134 150.5 -122.5 Q161 -111 170.5 -90.5 Q180 -70 191 -38 L203 0 L17 525 L96 525 L240 90 L384 525 L459 525 Z M289 653 Q289 672 302 685 Q315 698 337 698 Q360 698 372 685 Q384 672 384 653 Q384 634 371 621.5 Q358 609 337 609 Q315 609 302 621.5 Q289 634 289 653 Z M100 653 Q100 672 113.5 685 Q127 698 148 698 Q171 698 183.5 685 Q196 672 196 653 Q196 634 182.5 621.5 Q169 609 149 609 Q126 609 113 621.5 Q100 634 100 653 Z " />
<glyph glyph-name="Amacron" unicode="&#x100;" horiz-adv-x="643" d="M361 720 L624 0 L542 0 L466 206 L176 206 L102 0 L19 0 L280 720 L361 720 Z M444 276 L321 633 L198 276 L444 276 Z M185 847 L459 847 L459 790 L185 790 L185 847 Z " />
<glyph glyph-name="amacron" unicode="&#x101;" horiz-adv-x="517" d="M374 240 Q359 242 341 243.5 Q323 245 294 245 Q201 245 160.5 217 Q120 189 120 135 Q120 94 145.5 70 Q171 46 221 46 Q254 46 282 62 Q310 78 330.5 103 Q351 128 362.5 158 Q374 188 374 216 L374 240 Z M448 0 L387 0 L380 97 Q325 -12 203 -12 Q132 -12 89.5 26.5 Q47 65 47 139 Q47 167 57.5 196 Q68 225 95 249 Q122 273 169 288 Q216 303 290 303 Q313 303 332.5 301.5 Q352 300 374 297 L374 350 Q374 412 343 443 Q312 474 254 474 Q209 474 174 458 Q139 442 104 413 L68 459 Q106 495 155 516 Q204 537 258 537 Q301 537 336 526.5 Q371 516 396 494 Q421 472 434.5 437 Q448 402 448 354 L448 0 Z M119 679 L393 679 L393 621 L119 621 L119 679 Z " />
<glyph glyph-name="Abreve" unicode="&#x102;" horiz-adv-x="643" d="M361 720 L624 0 L542 0 L466 206 L176 206 L102 0 L19 0 L280 720 L361 720 Z M444 276 L321 633 L198 276 L444 276 Z M321 821 Q370 821 389 840.5 Q408 860 414 897 L466 888 Q453 770 322 770 Q256 770 222 797 Q188 824 177 887 L232 897 Q239 859 257.5 840 Q276 821 321 821 Z " />
<glyph glyph-name="abreve" unicode="&#x103;" horiz-adv-x="517" d="M374 240 Q359 242 341 243.5 Q323 245 294 245 Q201 245 160.5 217 Q120 189 120 135 Q120 94 145.5 70 Q171 46 221 46 Q254 46 282 62 Q310 78 330.5 103 Q351 128 362.5 158 Q374 188 374 216 L374 240 Z M448 0 L387 0 L380 97 Q325 -12 203 -12 Q132 -12 89.5 26.5 Q47 65 47 139 Q47 167 57.5 196 Q68 225 95 249 Q122 273 169 288 Q216 303 290 303 Q313 303 332.5 301.5 Q352 300 374 297 L374 350 Q374 412 343 443 Q312 474 254 474 Q209 474 174 458 Q139 442 104 413 L68 459 Q106 495 155 516 Q204 537 258 537 Q301 537 336 526.5 Q371 516 396 494 Q421 472 434.5 437 Q448 402 448 354 L448 0 Z M254 646 Q305 646 323 669 Q341 692 346 731 L399 722 Q393 657 358.5 626 Q324 595 255 595 Q187 595 153.5 625 Q120 655 110 721 L164 731 Q172 689 190 667.5 Q208 646 254 646 Z " />
<glyph glyph-name="Aogonek" unicode="&#x104;" horiz-adv-x="643" d="M361 720 L624 0 Q581 -35 557.5 -66.5 Q534 -98 534 -129 Q534 -149 543.5 -157 Q553 -165 573 -165 Q589 -165 602 -160 Q615 -155 629 -148 L647 -193 Q631 -204 606 -213.5 Q581 -223 552 -223 Q508 -223 486.5 -202 Q465 -181 465 -147 Q465 -105 490 -67.5 Q515 -30 549 0 L532 26 L466 206 L176 206 L102 0 L19 0 L280 720 L361 720 Z M444 276 L321 629 L198 276 L444 276 Z " />
<glyph glyph-name="aogonek" unicode="&#x105;" horiz-adv-x="517" d="M448 0 Q410 -35 387 -66.5 Q364 -98 364 -129 Q364 -166 403 -166 Q419 -166 432 -162 Q445 -158 459 -151 L478 -193 Q461 -204 436 -213.5 Q411 -223 382 -223 Q339 -223 317 -202 Q295 -181 295 -147 Q295 -102 322.5 -64 Q350 -26 386 5 L380 97 Q325 -12 203 -12 Q132 -12 89.5 26.5 Q47 65 47 139 Q47 167 57.5 196 Q68 225 95 249 Q122 273 169 288 Q216 303 290 303 Q313 303 332.5 301.5 Q352 300 374 297 L374 350 Q374 412 343 443 Q312 474 254 474 Q209 474 174 458 Q139 442 104 413 L68 459 Q106 495 155 516 Q204 537 258 537 Q301 537 336 526.5 Q371 516 396 494 Q421 472 434.5 437 Q448 402 448 354 L448 0 Z M374 240 Q359 242 341 243.5 Q323 245 294 245 Q201 245 160.5 217 Q120 189 120 135 Q120 94 145.5 70 Q171 46 221 46 Q254 46 282 62 Q310 78 330.5 103 Q351 128 362.5 158 Q374 188 374 216 L374 240 Z " />
<glyph glyph-name="Cacute" unicode="&#x106;" horiz-adv-x="652" d="M615 97 Q567 46 504 17 Q441 -12 362 -12 Q282 -12 224 17.5 Q166 47 128.5 97.5 Q91 148 73.5 216 Q56 284 56 362 Q56 438 75 506 Q94 574 133 624 Q172 674 230 703.5 Q288 733 366 733 Q420 733 464.5 718.5 Q509 704 542 675.5 Q575 647 593.5 605.5 Q612 564 614 510 L538 510 Q536 540 526 567.5 Q516 595 495 616 Q474 637 442 649.5 Q410 662 365 662 Q311 662 268.5 640.5 Q226 619 197.5 580 Q169 541 154 486.5 Q139 432 139 365 Q139 289 155 231.5 Q171 174 201 135.5 Q231 97 273 77.5 Q315 58 366 58 Q436 58 484 84.5 Q532 111 570 148 L615 97 Z M432 902 L464 839 L290 755 L265 802 L432 902 Z " />
<glyph glyph-name="cacute" unicode="&#x107;" horiz-adv-x="520" d="M481 61 Q437 23 388.5 5.5 Q340 -12 284 -12 Q230 -12 186.5 7 Q143 26 112.5 62 Q82 98 65.5 149 Q49 200 49 264 Q49 330 67 380.5 Q85 431 117 466 Q149 501 192.5 519 Q236 537 286 537 Q378 537 428.5 487 Q479 437 484 346 L413 346 Q405 412 372.5 441.5 Q340 471 284 471 Q212 471 169.5 417 Q127 363 127 267 Q127 223 137 183.5 Q147 144 167.5 115 Q188 86 219 69 Q250 52 292 52 Q316 52 335.5 55.5 Q355 59 373 66.5 Q391 74 409.5 85 Q428 96 449 111 L481 61 Z M335 758 L379 706 L228 584 L194 625 L335 758 Z " />
<glyph glyph-name="Ccircumflex" unicode="&#x108;" horiz-adv-x="652" d="M615 97 Q567 46 504 17 Q441 -12 362 -12 Q282 -12 224 17.5 Q166 47 128.5 97.5 Q91 148 73.5 216 Q56 284 56 362 Q56 438 75 506 Q94 574 133 624 Q172 674 230 703.5 Q288 733 366 733 Q420 733 464.5 718.5 Q509 704 542 675.5 Q575 647 593.5 605.5 Q612 564 614 510 L538 510 Q536 540 526 567.5 Q516 595 495 616 Q474 637 442 649.5 Q410 662 365 662 Q311 662 268.5 640.5 Q226 619 197.5 580 Q169 541 154 486.5 Q139 432 139 365 Q139 289 155 231.5 Q171 174 201 135.5 Q231 97 273 77.5 Q315 58 366 58 Q436 58 484 84.5 Q532 111 570 148 L615 97 Z M384 889 L479 790 L448 759 L357 831 L267 759 L233 790 L331 889 L384 889 Z " />
<glyph glyph-name="ccircumflex" unicode="&#x109;" horiz-adv-x="520" d="M481 61 Q437 23 388.5 5.5 Q340 -12 284 -12 Q230 -12 186.5 7 Q143 26 112.5 62 Q82 98 65.5 149 Q49 200 49 264 Q49 330 67 380.5 Q85 431 117 466 Q149 501 192.5 519 Q236 537 286 537 Q378 537 428.5 487 Q479 437 484 346 L413 346 Q405 412 372.5 441.5 Q340 471 284 471 Q212 471 169.5 417 Q127 363 127 267 Q127 223 137 183.5 Q147 144 167.5 115 Q188 86 219 69 Q250 52 292 52 Q316 52 335.5 55.5 Q355 59 373 66.5 Q391 74 409.5 85 Q428 96 449 111 L481 61 Z M304 755 L411 607 L373 580 L279 693 L184 581 L145 607 L252 755 L304 755 Z " />
<glyph glyph-name="Cdotaccent" unicode="&#x10a;" horiz-adv-x="652" d="M615 97 Q567 46 504 17 Q441 -12 362 -12 Q282 -12 224 17.5 Q166 47 128.5 97.5 Q91 148 73.5 216 Q56 284 56 362 Q56 438 75 506 Q94 574 133 624 Q172 674 230 703.5 Q288 733 366 733 Q420 733 464.5 718.5 Q509 704 542 675.5 Q575 647 593.5 605.5 Q612 564 614 510 L538 510 Q536 540 526 567.5 Q516 595 495 616 Q474 637 442 649.5 Q410 662 365 662 Q311 662 268.5 640.5 Q226 619 197.5 580 Q169 541 154 486.5 Q139 432 139 365 Q139 289 155 231.5 Q171 174 201 135.5 Q231 97 273 77.5 Q315 58 366 58 Q436 58 484 84.5 Q532 111 570 148 L615 97 Z M311 821 Q311 842 325.5 854 Q340 866 361 866 Q383 866 397 854 Q411 842 411 821 Q411 801 397 788.5 Q383 776 361 776 Q340 776 325.5 788.5 Q311 801 311 821 Z " />
<glyph glyph-name="cdotaccent" unicode="&#x10b;" horiz-adv-x="520" d="M481 61 Q437 23 388.5 5.5 Q340 -12 284 -12 Q230 -12 186.5 7 Q143 26 112.5 62 Q82 98 65.5 149 Q49 200 49 264 Q49 330 67 380.5 Q85 431 117 466 Q149 501 192.5 519 Q236 537 286 537 Q378 537 428.5 487 Q479 437 484 346 L413 346 Q405 412 372.5 441.5 Q340 471 284 471 Q212 471 169.5 417 Q127 363 127 267 Q127 223 137 183.5 Q147 144 167.5 115 Q188 86 219 69 Q250 52 292 52 Q316 52 335.5 55.5 Q355 59 373 66.5 Q391 74 409.5 85 Q428 96 449 111 L481 61 Z M238 667 Q238 688 252.5 700.5 Q267 713 288 713 Q310 713 324 700.5 Q338 688 338 667 Q338 647 324 635 Q310 623 288 623 Q267 623 252.5 635 Q238 647 238 667 Z " />
<glyph glyph-name="Ccaron" unicode="&#x10c;" horiz-adv-x="652" d="M615 97 Q567 46 504 17 Q441 -12 362 -12 Q282 -12 224 17.5 Q166 47 128.5 97.5 Q91 148 73.5 216 Q56 284 56 362 Q56 438 75 506 Q94 574 133 624 Q172 674 230 703.5 Q288 733 366 733 Q420 733 464.5 718.5 Q509 704 542 675.5 Q575 647 593.5 605.5 Q612 564 614 510 L538 510 Q536 540 526 567.5 Q516 595 495 616 Q474 637 442 649.5 Q410 662 365 662 Q311 662 268.5 640.5 Q226 619 197.5 580 Q169 541 154 486.5 Q139 432 139 365 Q139 289 155 231.5 Q171 174 201 135.5 Q231 97 273 77.5 Q315 58 366 58 Q436 58 484 84.5 Q532 111 570 148 L615 97 Z M337 766 L240 865 L274 897 L364 824 L455 896 L485 865 L391 766 L337 766 Z " />
<glyph glyph-name="ccaron" unicode="&#x10d;" horiz-adv-x="520" d="M481 61 Q437 23 388.5 5.5 Q340 -12 284 -12 Q230 -12 186.5 7 Q143 26 112.5 62 Q82 98 65.5 149 Q49 200 49 264 Q49 330 67 380.5 Q85 431 117 466 Q149 501 192.5 519 Q236 537 286 537 Q378 537 428.5 487 Q479 437 484 346 L413 346 Q405 412 372.5 441.5 Q340 471 284 471 Q212 471 169.5 417 Q127 363 127 267 Q127 223 137 183.5 Q147 144 167.5 115 Q188 86 219 69 Q250 52 292 52 Q316 52 335.5 55.5 Q355 59 373 66.5 Q391 74 409.5 85 Q428 96 449 111 L481 61 Z M255 586 L148 734 L188 760 L282 648 L376 762 L414 734 L307 586 L255 586 Z " />
<glyph glyph-name="Dcaron" unicode="&#x10e;" horiz-adv-x="694" d="M160 650 L160 70 L289 70 Q431 70 494 143.5 Q557 217 557 359 Q557 499 494 574.5 Q431 650 289 650 L160 650 Z M284 720 Q456 720 547 632 Q638 544 638 359 Q638 263 614.5 195 Q591 127 545 83.5 Q499 40 431 20 Q363 0 273 0 L83 0 L83 720 L284 720 Z M275 766 L178 865 L212 897 L302 824 L393 896 L423 865 L329 766 L275 766 Z " />
<glyph glyph-name="dcaron" unicode="&#x10f;" horiz-adv-x="627" d="M439 73 Q429 61 413.5 46 Q398 31 376.5 18.5 Q355 6 327 -3 Q299 -12 265 -12 Q210 -12 169.5 7.5 Q129 27 103 63 Q77 99 64 149.5 Q51 200 51 261 Q51 324 65.5 375 Q80 426 107.5 462 Q135 498 175.5 517.5 Q216 537 267 537 Q327 537 366.5 512.5 Q406 488 435 453 L435 720 L508 720 L508 0 L443 0 L439 73 Z M435 374 Q426 386 411 402.5 Q396 419 376 434 Q356 449 331 459 Q306 469 276 469 Q210 469 169 416.5 Q128 364 128 262 Q128 223 135.5 186 Q143 149 161 120 Q179 91 209 73 Q239 55 283 55 Q311 55 334.5 64 Q358 73 376.5 86 Q395 99 409.5 114 Q424 129 435 142 L435 374 Z M584 720 L659 720 L608 535 L550 535 L584 720 Z " />
<glyph glyph-name="Dcroat" unicode="&#x110;" horiz-adv-x="706" d="M15 399 L95 399 L95 720 L296 720 Q468 720 558.5 632 Q649 544 649 359 Q649 263 625.5 195 Q602 127 556.5 83.5 Q511 40 442.5 20 Q374 0 284 0 L95 0 L95 334 L15 334 L15 399 Z M172 650 L172 399 L366 399 L366 334 L172 334 L172 70 L300 70 Q442 70 505 143.5 Q568 217 568 359 Q568 429 553 483.5 Q538 538 505.5 575 Q473 612 422 631 Q371 650 300 650 L172 650 Z " />
<glyph glyph-name="dcroat" unicode="&#x111;" horiz-adv-x="583" d="M263 641 L436 641 L436 720 L509 720 L509 641 L575 641 L575 585 L509 585 L509 0 L442 0 L440 71 Q430 59 414.5 44.5 Q399 30 377.5 17.5 Q356 5 328 -3.5 Q300 -12 266 -12 Q157 -12 104 57 Q51 126 51 248 Q51 308 65.5 355.5 Q80 403 107.5 437 Q135 471 174.5 489 Q214 507 265 507 Q295 507 320.5 499.5 Q346 492 367.5 480 Q389 468 406 452.5 Q423 437 436 422 L436 585 L263 585 L263 641 Z M435 347 Q426 360 411 376 Q396 392 376 406 Q356 420 331 429.5 Q306 439 277 439 Q211 439 170 391.5 Q129 344 129 248 Q129 210 136.5 175 Q144 140 162 113.5 Q180 87 209 71 Q238 55 281 55 Q311 55 335 63.5 Q359 72 378 84.5 Q397 97 411 111 Q425 125 435 137 L435 347 Z " />
<glyph glyph-name="Emacron" unicode="&#x112;" horiz-adv-x="593" d="M83 720 L533 720 L533 651 L160 651 L160 403 L500 403 L500 334 L160 334 L160 68 L541 68 L541 0 L83 0 L83 720 Z M172 847 L446 847 L446 790 L172 790 L172 847 Z " />
<glyph glyph-name="emacron" unicode="&#x113;" horiz-adv-x="537" d="M482 58 Q438 20 390 4 Q342 -12 288 -12 Q234 -12 189.5 4.5 Q145 21 114 55 Q83 89 66 140 Q49 191 49 260 Q49 323 66 374 Q83 425 114 461.5 Q145 498 189 517.5 Q233 537 287 537 Q388 537 439.5 474.5 Q491 412 491 283 L491 242 L128 242 Q128 200 138 165 Q148 130 168 105 Q188 80 219.5 66 Q251 52 294 52 Q339 52 374 66.5 Q409 81 448 110 L482 58 Z M416 304 Q416 340 409 371 Q402 402 387 425.5 Q372 449 347 462 Q322 475 285 475 Q238 475 208 456 Q178 437 160.5 410 Q143 383 136 353.5 Q129 324 128 304 L416 304 Z M149 679 L423 679 L423 621 L149 621 L149 679 Z " />
<glyph glyph-name="Ebreve" unicode="&#x114;" horiz-adv-x="593" d="M83 720 L533 720 L533 651 L160 651 L160 403 L500 403 L500 334 L160 334 L160 68 L541 68 L541 0 L83 0 L83 720 Z M310 821 Q359 821 378 840.5 Q397 860 403 897 L455 888 Q442 770 311 770 Q245 770 211 797 Q177 824 166 887 L221 897 Q228 859 246.5 840 Q265 821 310 821 Z " />
<glyph glyph-name="ebreve" unicode="&#x115;" horiz-adv-x="537" d="M482 58 Q438 20 390 4 Q342 -12 288 -12 Q234 -12 189.5 4.5 Q145 21 114 55 Q83 89 66 140 Q49 191 49 260 Q49 323 66 374 Q83 425 114 461.5 Q145 498 189 517.5 Q233 537 287 537 Q388 537 439.5 474.5 Q491 412 491 283 L491 242 L128 242 Q128 200 138 165 Q148 130 168 105 Q188 80 219.5 66 Q251 52 294 52 Q339 52 374 66.5 Q409 81 448 110 L482 58 Z M416 304 Q416 340 409 371 Q402 402 387 425.5 Q372 449 347 462 Q322 475 285 475 Q238 475 208 456 Q178 437 160.5 410 Q143 383 136 353.5 Q129 324 128 304 L416 304 Z M285 646 Q336 646 354 669 Q372 692 377 731 L430 722 Q424 657 389.5 626 Q355 595 286 595 Q218 595 184.5 625 Q151 655 141 721 L195 731 Q203 689 221 667.5 Q239 646 285 646 Z " />
<glyph glyph-name="Edotaccent" unicode="&#x116;" horiz-adv-x="593" d="M83 720 L533 720 L533 651 L160 651 L160 403 L500 403 L500 334 L160 334 L160 68 L541 68 L541 0 L83 0 L83 720 Z M267 821 Q267 842 281.5 854 Q296 866 317 866 Q339 866 353 854 Q367 842 367 821 Q367 801 353 788.5 Q339 776 317 776 Q296 776 281.5 788.5 Q267 801 267 821 Z " />
<glyph glyph-name="edotaccent" unicode="&#x117;" horiz-adv-x="537" d="M482 58 Q438 20 390 4 Q342 -12 288 -12 Q234 -12 189.5 4.5 Q145 21 114 55 Q83 89 66 140 Q49 191 49 260 Q49 323 66 374 Q83 425 114 461.5 Q145 498 189 517.5 Q233 537 287 537 Q388 537 439.5 474.5 Q491 412 491 283 L491 242 L128 242 Q128 200 138 165 Q148 130 168 105 Q188 80 219.5 66 Q251 52 294 52 Q339 52 374 66.5 Q409 81 448 110 L482 58 Z M416 304 Q416 340 409 371 Q402 402 387 425.5 Q372 449 347 462 Q322 475 285 475 Q238 475 208 456 Q178 437 160.5 410 Q143 383 136 353.5 Q129 324 128 304 L416 304 Z M235 667 Q235 688 249.5 700.5 Q264 713 285 713 Q307 713 321 700.5 Q335 688 335 667 Q335 647 321 635 Q307 623 285 623 Q264 623 249.5 635 Q235 647 235 667 Z " />
<glyph glyph-name="Eogonek" unicode="&#x118;" horiz-adv-x="593" d="M76 720 L526 720 L526 651 L154 651 L154 403 L493 403 L493 334 L154 334 L154 68 L534 68 L534 0 L506 0 Q468 -35 445.5 -66.5 Q423 -98 423 -129 Q423 -166 462 -166 Q478 -166 491 -162 Q504 -158 518 -151 L536 -193 Q520 -204 495 -213.5 Q470 -223 441 -223 Q397 -223 375.5 -202 Q354 -181 354 -147 Q354 -105 379 -67.5 Q404 -30 439 0 L76 0 L76 720 Z " />
<glyph glyph-name="eogonek" unicode="&#x119;" horiz-adv-x="537" d="M482 58 Q463 41 444 29 Q425 17 406 4 Q361 -25 336.5 -61.5 Q312 -98 312 -129 Q312 -166 351 -166 Q367 -166 380 -162 Q393 -158 407 -151 L426 -193 Q409 -204 384 -213.5 Q359 -223 330 -223 Q287 -223 265 -202 Q243 -181 243 -147 Q243 -108 264.5 -73.5 Q286 -39 316 -10 Q309 -12 302.5 -12 Q296 -12 288 -12 Q234 -12 189.5 4.5 Q145 21 114 55 Q83 89 66 140 Q49 191 49 260 Q49 323 66 374 Q83 425 114 461.5 Q145 498 189 517.5 Q233 537 287 537 Q388 537 439.5 474.5 Q491 412 491 283 L491 242 L128 242 Q128 200 138 165 Q148 130 168 105 Q188 80 219.5 66 Q251 52 294 52 Q339 52 375.5 65.5 Q412 79 452 109 L482 58 Z M419 304 Q419 340 412 371 Q405 402 389.5 425.5 Q374 449 349 462 Q324 475 287 475 Q240 475 209.5 456 Q179 437 161 410 Q143 383 136 353.5 Q129 324 128 304 L419 304 Z " />
<glyph glyph-name="Ecaron" unicode="&#x11a;" horiz-adv-x="593" d="M83 720 L533 720 L533 651 L160 651 L160 403 L500 403 L500 334 L160 334 L160 68 L541 68 L541 0 L83 0 L83 720 Z M285 766 L188 865 L222 897 L312 824 L403 896 L433 865 L339 766 L285 766 Z " />
<glyph glyph-name="ecaron" unicode="&#x11b;" horiz-adv-x="537" d="M482 58 Q438 20 390 4 Q342 -12 288 -12 Q234 -12 189.5 4.5 Q145 21 114 55 Q83 89 66 140 Q49 191 49 260 Q49 323 66 374 Q83 425 114 461.5 Q145 498 189 517.5 Q233 537 287 537 Q388 537 439.5 474.5 Q491 412 491 283 L491 242 L128 242 Q128 200 138 165 Q148 130 168 105 Q188 80 219.5 66 Q251 52 294 52 Q339 52 374 66.5 Q409 81 448 110 L482 58 Z M416 304 Q416 340 409 371 Q402 402 387 425.5 Q372 449 347 462 Q322 475 285 475 Q238 475 208 456 Q178 437 160.5 410 Q143 383 136 353.5 Q129 324 128 304 L416 304 Z M259 586 L152 734 L192 760 L286 648 L380 762 L418 734 L311 586 L259 586 Z " />
<glyph glyph-name="Gcircumflex" unicode="&#x11c;" horiz-adv-x="712" d="M411 368 L646 368 L646 101 Q616 65 581.5 43 Q547 21 512 9 Q477 -3 443.5 -7.5 Q410 -12 382 -12 Q294 -12 232 16.5 Q170 45 131 95.5 Q92 146 74 215 Q56 284 56 364 Q56 446 77 513.5 Q98 581 139.5 630 Q181 679 241.5 706 Q302 733 381 733 Q454 733 503.5 715 Q553 697 584 667 Q615 637 628.5 598.5 Q642 560 643 519 L564 519 Q563 548 552.5 574 Q542 600 519.5 619.5 Q497 639 462 650.5 Q427 662 378 662 Q318 662 273 639 Q228 616 198 575.5 Q168 535 153 481 Q138 427 138 365 Q138 217 200.5 136.5 Q263 56 383 56 Q443 56 491.5 76.5 Q540 97 578 136 L578 302 L411 302 L411 368 Z M405 889 L500 790 L469 759 L378 831 L288 759 L254 790 L352 889 L405 889 Z " />
<glyph glyph-name="gcircumflex" unicode="&#x11d;" horiz-adv-x="586" d="M508 13 Q508 -52 494.5 -94.5 Q481 -137 453.5 -163 Q426 -189 385 -199.5 Q344 -210 289 -210 Q235 -210 186.5 -200.5 Q138 -191 105 -177 L122 -115 Q154 -126 195 -136 Q236 -146 283 -146 Q330 -146 360 -136 Q390 -126 407 -105.5 Q424 -85 430.5 -53.5 Q437 -22 437 21 L437 72 Q409 38 366 14.5 Q323 -9 264 -9 Q208 -9 167.5 11.5 Q127 32 101 68 Q75 104 63 153 Q51 202 51 260 Q51 318 64 368.5 Q77 419 103.5 456.5 Q130 494 171.5 515.5 Q213 537 270 537 Q301 537 327.5 528.5 Q354 520 375.5 506.5 Q397 493 413 477.5 Q429 462 440 448 L440 525 L508 525 L508 13 Z M435 375 Q426 388 411.5 404.5 Q397 421 377 435 Q357 449 333 459 Q309 469 282 469 Q205 469 166.5 413.5 Q128 358 128 264 Q128 218 137 179.5 Q146 141 164.5 113.5 Q183 86 211.5 71 Q240 56 280 56 Q309 56 332.5 64.5 Q356 73 375.5 85.5 Q395 98 409.5 112 Q424 126 435 138 L435 375 Z M313 755 L420 607 L382 580 L288 693 L193 581 L154 607 L261 755 L313 755 Z " />
<glyph glyph-name="Gbreve" unicode="&#x11e;" horiz-adv-x="712" d="M411 368 L646 368 L646 101 Q616 65 581.5 43 Q547 21 512 9 Q477 -3 443.5 -7.5 Q410 -12 382 -12 Q294 -12 232 16.5 Q170 45 131 95.5 Q92 146 74 215 Q56 284 56 364 Q56 446 77 513.5 Q98 581 139.5 630 Q181 679 241.5 706 Q302 733 381 733 Q454 733 503.5 715 Q553 697 584 667 Q615 637 628.5 598.5 Q642 560 643 519 L564 519 Q563 548 552.5 574 Q542 600 519.5 619.5 Q497 639 462 650.5 Q427 662 378 662 Q318 662 273 639 Q228 616 198 575.5 Q168 535 153 481 Q138 427 138 365 Q138 217 200.5 136.5 Q263 56 383 56 Q443 56 491.5 76.5 Q540 97 578 136 L578 302 L411 302 L411 368 Z M377 821 Q426 821 445 840.5 Q464 860 470 897 L522 888 Q509 770 378 770 Q312 770 278 797 Q244 824 233 887 L288 897 Q295 859 313.5 840 Q332 821 377 821 Z " />
<glyph glyph-name="gbreve" unicode="&#x11f;" horiz-adv-x="586" d="M508 13 Q508 -52 494.5 -94.5 Q481 -137 453.5 -163 Q426 -189 385 -199.5 Q344 -210 289 -210 Q235 -210 186.5 -200.5 Q138 -191 105 -177 L122 -115 Q154 -126 195 -136 Q236 -146 283 -146 Q330 -146 360 -136 Q390 -126 407 -105.5 Q424 -85 430.5 -53.5 Q437 -22 437 21 L437 72 Q409 38 366 14.5 Q323 -9 264 -9 Q208 -9 167.5 11.5 Q127 32 101 68 Q75 104 63 153 Q51 202 51 260 Q51 318 64 368.5 Q77 419 103.5 456.5 Q130 494 171.5 515.5 Q213 537 270 537 Q301 537 327.5 528.5 Q354 520 375.5 506.5 Q397 493 413 477.5 Q429 462 440 448 L440 525 L508 525 L508 13 Z M435 375 Q426 388 411.5 404.5 Q397 421 377 435 Q357 449 333 459 Q309 469 282 469 Q205 469 166.5 413.5 Q128 358 128 264 Q128 218 137 179.5 Q146 141 164.5 113.5 Q183 86 211.5 71 Q240 56 280 56 Q309 56 332.5 64.5 Q356 73 375.5 85.5 Q395 98 409.5 112 Q424 126 435 138 L435 375 Z M284 646 Q335 646 353 669 Q371 692 376 731 L429 722 Q423 657 388.5 626 Q354 595 285 595 Q217 595 183.5 625 Q150 655 140 721 L194 731 Q202 689 220 667.5 Q238 646 284 646 Z " />
<glyph glyph-name="Gdotaccent" unicode="&#x120;" horiz-adv-x="712" d="M411 368 L646 368 L646 101 Q616 65 581.5 43 Q547 21 512 9 Q477 -3 443.5 -7.5 Q410 -12 382 -12 Q294 -12 232 16.5 Q170 45 131 95.5 Q92 146 74 215 Q56 284 56 364 Q56 446 77 513.5 Q98 581 139.5 630 Q181 679 241.5 706 Q302 733 381 733 Q454 733 503.5 715 Q553 697 584 667 Q615 637 628.5 598.5 Q642 560 643 519 L564 519 Q563 548 552.5 574 Q542 600 519.5 619.5 Q497 639 462 650.5 Q427 662 378 662 Q318 662 273 639 Q228 616 198 575.5 Q168 535 153 481 Q138 427 138 365 Q138 217 200.5 136.5 Q263 56 383 56 Q443 56 491.5 76.5 Q540 97 578 136 L578 302 L411 302 L411 368 Z M333 821 Q333 842 347.5 854 Q362 866 383 866 Q405 866 419 854 Q433 842 433 821 Q433 801 419 788.5 Q405 776 383 776 Q362 776 347.5 788.5 Q333 801 333 821 Z " />
<glyph glyph-name="gdotaccent" unicode="&#x121;" horiz-adv-x="586" d="M508 13 Q508 -52 494.5 -94.5 Q481 -137 453.5 -163 Q426 -189 385 -199.5 Q344 -210 289 -210 Q235 -210 186.5 -200.5 Q138 -191 105 -177 L122 -115 Q154 -126 195 -136 Q236 -146 283 -146 Q330 -146 360 -136 Q390 -126 407 -105.5 Q424 -85 430.5 -53.5 Q437 -22 437 21 L437 72 Q409 38 366 14.5 Q323 -9 264 -9 Q208 -9 167.5 11.5 Q127 32 101 68 Q75 104 63 153 Q51 202 51 260 Q51 318 64 368.5 Q77 419 103.5 456.5 Q130 494 171.5 515.5 Q213 537 270 537 Q301 537 327.5 528.5 Q354 520 375.5 506.5 Q397 493 413 477.5 Q429 462 440 448 L440 525 L508 525 L508 13 Z M435 375 Q426 388 411.5 404.5 Q397 421 377 435 Q357 449 333 459 Q309 469 282 469 Q205 469 166.5 413.5 Q128 358 128 264 Q128 218 137 179.5 Q146 141 164.5 113.5 Q183 86 211.5 71 Q240 56 280 56 Q309 56 332.5 64.5 Q356 73 375.5 85.5 Q395 98 409.5 112 Q424 126 435 138 L435 375 Z M235 667 Q235 688 249.5 700.5 Q264 713 285 713 Q307 713 321 700.5 Q335 688 335 667 Q335 647 321 635 Q307 623 285 623 Q264 623 249.5 635 Q235 647 235 667 Z " />
<glyph glyph-name="Gcommaaccent" unicode="&#x122;" horiz-adv-x="697" d="M411 368 L646 368 L646 101 Q616 65 581.5 43 Q547 21 512 9 Q477 -3 443.5 -7.5 Q410 -12 382 -12 Q294 -12 232 16.5 Q170 45 131 95.5 Q92 146 74 215 Q56 284 56 364 Q56 446 77 513.5 Q98 581 139.5 630 Q181 679 241.5 706 Q302 733 381 733 Q454 733 503.5 715 Q553 697 584 667 Q615 637 628.5 598.5 Q642 560 643 519 L564 519 Q563 548 552.5 574 Q542 600 519.5 619.5 Q497 639 462 650.5 Q427 662 378 662 Q318 662 273 639 Q228 616 198 575.5 Q168 535 153 481 Q138 427 138 365 Q138 217 200.5 136.5 Q263 56 383 56 Q443 56 491.5 76.5 Q540 97 578 136 L578 302 L411 302 L411 368 Z M351 -60 L420 -76 L363 -235 L310 -220 L351 -60 Z " />
<glyph glyph-name="gcommaaccent" unicode="&#x123;" horiz-adv-x="586" d="M508 13 Q508 -52 494.5 -94.5 Q481 -137 453.5 -163 Q426 -189 385 -199.5 Q344 -210 289 -210 Q235 -210 186.5 -200.5 Q138 -191 105 -177 L122 -115 Q154 -126 195 -136 Q236 -146 283 -146 Q330 -146 360 -136 Q390 -126 407 -105.5 Q424 -85 430.5 -53.5 Q437 -22 437 21 L437 72 Q409 38 366 14.5 Q323 -9 264 -9 Q208 -9 167.5 11.5 Q127 32 101 68 Q75 104 63 153 Q51 202 51 260 Q51 318 64 368.5 Q77 419 103.5 456.5 Q130 494 171.5 515.5 Q213 537 270 537 Q301 537 327.5 528.5 Q354 520 375.5 506.5 Q397 493 413 477.5 Q429 462 440 448 L440 525 L508 525 L508 13 Z M435 375 Q426 388 411.5 404.5 Q397 421 377 435 Q357 449 333 459 Q309 469 282 469 Q205 469 166.5 413.5 Q128 358 128 264 Q128 218 137 179.5 Q146 141 164.5 113.5 Q183 86 211.5 71 Q240 56 280 56 Q309 56 332.5 64.5 Q356 73 375.5 85.5 Q395 98 409.5 112 Q424 126 435 138 L435 375 Z M306 587 L236 606 L294 765 L348 751 L306 587 Z " />
<glyph glyph-name="Hcircumflex" unicode="&#x124;" horiz-adv-x="697" d="M83 720 L160 720 L160 411 L536 411 L536 720 L613 720 L613 0 L536 0 L536 340 L160 340 L160 0 L83 0 L83 720 Z M384 889 L479 790 L448 759 L357 831 L267 759 L233 790 L331 889 L384 889 Z " />
<glyph glyph-name="hcircumflex" unicode="&#x125;" horiz-adv-x="550" d="M147 720 L147 448 Q179 485 222.5 511 Q266 537 321 537 Q405 537 442.5 484.5 Q480 432 480 341 L480 0 L406 0 L406 325 Q406 352 403 378 Q400 404 389 424 Q378 444 357.5 456.5 Q337 469 302 469 Q276 469 253 460.5 Q230 452 210.5 439 Q191 426 175 410.5 Q159 395 147 381 L147 0 L74 0 L74 720 L147 720 Z M133 867 L228 768 L197 737 L106 809 L16 737 L-18 768 L80 867 L133 867 Z " />
<glyph glyph-name="Hbar" unicode="&#x126;" horiz-adv-x="720" d="M31 603 L95 603 L95 720 L172 720 L172 603 L548 603 L548 720 L625 720 L625 603 L687 603 L687 545 L625 545 L625 0 L548 0 L548 340 L172 340 L172 0 L95 0 L95 545 L31 545 L31 603 Z M548 411 L548 545 L172 545 L172 411 L548 411 Z " />
<glyph glyph-name="hbar" unicode="&#x127;" horiz-adv-x="550" d="M147 720 L147 640 L318 640 L318 586 L147 586 L147 406 Q179 444 222.5 470.5 Q266 497 321 497 Q405 497 442.5 444 Q480 391 480 300 L480 0 L406 0 L406 285 Q406 312 403 338.5 Q400 365 389 386 Q378 407 357 419.5 Q336 432 300 432 Q275 432 252.5 423.5 Q230 415 210.5 402 Q191 389 175 373 Q159 357 147 342 L147 0 L74 0 L74 586 L6 586 L6 640 L74 640 L74 720 L147 720 Z " />
<glyph glyph-name="Itilde" unicode="&#x128;" horiz-adv-x="244" d="M83 720 L160 720 L160 0 L83 0 L83 720 Z M270 857 Q257 815 237.5 798.5 Q218 782 191 782 Q173 782 155.5 787 Q138 792 121.5 798.5 Q105 805 91 810 Q77 815 66 815 Q53 815 45 808 Q37 801 24 779 L-17 796 Q0 838 19 854.5 Q38 871 63 871 Q80 871 96 866 Q112 861 127 854.5 Q142 848 157 843 Q172 838 187 838 Q202 838 210.5 845 Q219 852 230 873 L270 857 Z " />
<glyph glyph-name="itilde" unicode="&#x129;" horiz-adv-x="233" d="M263 683 Q250 641 230.5 624.5 Q211 608 184 608 Q166 608 148.5 613 Q131 618 114.5 624.5 Q98 631 84 636 Q70 641 59 641 Q46 641 38 634 Q30 627 17 605 L-24 622 Q-7 664 12 680.5 Q31 697 56 697 Q73 697 89 692 Q105 687 120 680.5 Q135 674 150 669 Q165 664 180 664 Q195 664 203.5 671 Q212 678 223 699 L263 683 Z M153 0 L80 0 L80 525 L153 525 L153 0 Z " />
<glyph glyph-name="Imacron" unicode="&#x12a;" horiz-adv-x="244" d="M83 720 L160 720 L160 0 L83 0 L83 720 Z M-15 847 L259 847 L259 790 L-15 790 L-15 847 Z " />
<glyph glyph-name="imacron" unicode="&#x12b;" horiz-adv-x="233" d="M-20 679 L254 679 L254 621 L-20 621 L-20 679 Z M153 0 L80 0 L80 525 L153 525 L153 0 Z " />
<glyph glyph-name="Ibreve" unicode="&#x12c;" horiz-adv-x="244" d="M83 720 L160 720 L160 0 L83 0 L83 720 Z M121 821 Q170 821 189 840.5 Q208 860 214 897 L266 888 Q253 770 122 770 Q56 770 22 797 Q-12 824 -23 887 L32 897 Q39 859 57.5 840 Q76 821 121 821 Z " />
<glyph glyph-name="ibreve" unicode="&#x12d;" horiz-adv-x="233" d="M116 646 Q167 646 185 669 Q203 692 208 731 L261 722 Q255 657 220.5 626 Q186 595 117 595 Q49 595 15.5 625 Q-18 655 -28 721 L26 731 Q34 689 52 667.5 Q70 646 116 646 Z M153 0 L80 0 L80 525 L153 525 L153 0 Z " />
<glyph glyph-name="Iogonek" unicode="&#x12e;" horiz-adv-x="244" d="M83 720 L160 720 L160 0 Q122 -35 99.5 -66.5 Q77 -98 77 -129 Q77 -166 116 -166 Q132 -166 145 -162 Q158 -158 172 -151 L191 -193 Q174 -204 149 -213.5 Q124 -223 95 -223 Q52 -223 30 -202 Q8 -181 8 -147 Q8 -105 33 -67.5 Q58 -30 92 0 L83 0 L83 720 Z " />
<glyph glyph-name="iogonek" unicode="&#x12f;" horiz-adv-x="233" d="M153 0 Q115 -35 92 -66.5 Q69 -98 69 -129 Q69 -166 108 -166 Q124 -166 137 -162 Q150 -158 164 -151 L183 -193 Q166 -204 141 -213.5 Q116 -223 87 -223 Q44 -223 22 -202 Q0 -181 0 -147 Q0 -105 24.5 -68 Q49 -31 80 0 L80 525 L153 525 L153 0 Z M67 667 Q67 688 81.5 700.5 Q96 713 117 713 Q139 713 153 700.5 Q167 688 167 667 Q167 647 153 635 Q139 623 117 623 Q96 623 81.5 635 Q67 647 67 667 Z " />
<glyph glyph-name="Idotaccent" unicode="&#x130;" horiz-adv-x="244" d="M83 720 L160 720 L160 0 L83 0 L83 720 Z M72 821 Q72 842 86.5 854 Q101 866 122 866 Q144 866 158 854 Q172 842 172 821 Q172 801 158 788.5 Q144 776 122 776 Q101 776 86.5 788.5 Q72 801 72 821 Z " />
<glyph glyph-name="dotlessi" unicode="&#x131;" horiz-adv-x="233" d="M153 0 L80 0 L80 525 L153 525 L153 0 Z " />
<glyph glyph-name="IJ" unicode="&#x132;" horiz-adv-x="649" d="M83 720 L160 720 L160 0 L83 0 L83 720 Z M571 159 Q571 71 533 29.5 Q495 -12 415 -12 Q382 -12 343 -5.5 Q304 1 275 15 L293 78 Q319 67 345 61 Q371 55 402 55 Q427 55 444.5 60.5 Q462 66 473 80 Q484 94 489 117 Q494 140 494 175 L494 720 L571 720 L571 159 Z " />
<glyph glyph-name="ij" unicode="&#x133;" horiz-adv-x="468" d="M70 667 Q70 688 84.5 700.5 Q99 713 120 713 Q142 713 156 700.5 Q170 688 170 667 Q170 647 156 635 Q142 623 120 623 Q99 623 84.5 635 Q70 647 70 667 Z M156 0 L83 0 L83 525 L156 525 L156 0 Z M396 -73 Q396 -134 372.5 -168.5 Q349 -203 284 -203 Q266 -203 248.5 -201 Q231 -199 214 -193 L222 -137 Q240 -143 268 -143 Q294 -143 308.5 -129 Q323 -115 323 -69 L323 525 L396 525 L396 -73 Z M310 667 Q310 689 324.5 701.5 Q339 714 361 714 Q382 714 396 701.5 Q410 689 410 667 Q410 647 396 634.5 Q382 622 361 622 Q339 622 324.5 634.5 Q310 647 310 667 Z " />
<glyph glyph-name="Jcircumflex" unicode="&#x134;" horiz-adv-x="391" d="M313 159 Q313 71 275 29.5 Q237 -12 157 -12 Q124 -12 85 -5.5 Q46 1 17 15 L35 78 Q61 67 87 61 Q113 55 144 55 Q169 55 186.5 60.5 Q204 66 215 80 Q226 94 231 117 Q236 140 236 175 L236 720 L313 720 L313 159 Z M300 889 L395 790 L364 759 L273 831 L183 759 L149 790 L247 889 L300 889 Z " />
<glyph glyph-name="jcircumflex" unicode="&#x135;" horiz-adv-x="233" d="M153 -73 Q153 -134 129.5 -168.5 Q106 -203 41 -203 Q23 -203 5.5 -201 Q-12 -199 -29 -193 L-21 -137 Q-3 -143 25 -143 Q51 -143 65.5 -129 Q80 -115 80 -69 L80 525 L153 525 L153 -73 Z M144 755 L251 607 L213 580 L119 693 L24 581 L-15 607 L92 755 L144 755 Z " />
<glyph glyph-name="Kcommaaccent" unicode="&#x136;" horiz-adv-x="631" d="M83 720 L160 720 L160 405 L300 405 L486 720 L572 720 L367 375 L608 0 L520 0 L300 339 L160 339 L160 0 L83 0 L83 720 Z M290 -60 L359 -76 L302 -235 L249 -220 L290 -60 Z " />
<glyph glyph-name="kcommaaccent" unicode="&#x137;" horiz-adv-x="509" d="M147 323 L209 323 L380 525 L466 525 L269 293 L491 0 L403 0 L204 260 L147 260 L147 0 L74 0 L74 720 L147 720 L147 323 Z M230 -60 L299 -76 L242 -235 L189 -220 L230 -60 Z " />
<glyph glyph-name="kgreenlandic" unicode="&#x138;" horiz-adv-x="504" d="M138 318 L197 318 L374 525 L458 525 L258 290 L484 0 L401 0 L195 259 L138 259 L138 0 L65 0 L65 525 L138 525 L138 318 Z " />
<glyph glyph-name="Lacute" unicode="&#x139;" horiz-adv-x="524" d="M160 720 L160 69 L496 69 L496 0 L83 0 L83 720 L160 720 Z M202 902 L234 839 L60 755 L35 802 L202 902 Z " />
<glyph glyph-name="lacute" unicode="&#x13a;" horiz-adv-x="218" d="M75 0 L75 720 L148 720 L148 0 L75 0 Z M177 902 L209 839 L35 755 L10 802 L177 902 Z " />
<glyph glyph-name="Lcommaaccent" unicode="&#x13b;" horiz-adv-x="525" d="M160 720 L160 69 L496 69 L496 0 L83 0 L83 720 L160 720 Z M248 -60 L317 -76 L260 -235 L207 -220 L248 -60 Z " />
<glyph glyph-name="lcommaaccent" unicode="&#x13c;" horiz-adv-x="218" d="M75 0 L75 720 L148 720 L148 0 L75 0 Z M71 -60 L140 -76 L83 -235 L30 -220 L71 -60 Z " />
<glyph glyph-name="Lcaron" unicode="&#x13d;" horiz-adv-x="525" d="M160 720 L160 69 L496 69 L496 0 L83 0 L83 720 L160 720 Z M304 720 L379 720 L328 535 L270 535 L304 720 Z " />
<glyph glyph-name="lcaron" unicode="&#x13e;" horiz-adv-x="276" d="M75 0 L75 720 L148 720 L148 0 L75 0 Z M234 720 L309 720 L258 535 L200 535 L234 720 Z " />
<glyph glyph-name="Ldot" unicode="&#x13f;" horiz-adv-x="525" d="M160 720 L160 69 L496 69 L496 0 L83 0 L83 720 L160 720 Z M331 372 Q331 397 347 409.5 Q363 422 385 422 Q409 422 425 409.5 Q441 397 441 372 Q441 349 425 335.5 Q409 322 385 322 Q362 322 346.5 335 Q331 348 331 372 Z " />
<glyph glyph-name="ldot" unicode="&#x140;" horiz-adv-x="322" d="M75 0 L75 720 L148 720 L148 0 L75 0 Z M213 355 Q213 381 229.5 393.5 Q246 406 268 406 Q292 406 308 393.5 Q324 381 324 355 Q324 332 308 319 Q292 306 268 306 Q245 306 229 319 Q213 332 213 355 Z " />
<glyph glyph-name="Lslash" unicode="&#x141;" horiz-adv-x="524" d="M160 720 L160 388 L375 471 L375 411 L160 328 L160 69 L496 69 L496 0 L83 0 L83 303 L-3 268 L-3 328 L83 362 L83 720 L160 720 Z " />
<glyph glyph-name="lslash" unicode="&#x142;" horiz-adv-x="241" d="M11 352 L86 385 L86 720 L159 720 L159 411 L240 448 L240 390 L159 352 L159 0 L86 0 L86 326 L11 293 L11 352 Z " />
<glyph glyph-name="Nacute" unicode="&#x143;" horiz-adv-x="701" d="M83 720 L155 720 L541 139 L541 720 L618 720 L618 0 L548 0 L159 582 L159 0 L83 0 L83 720 Z M439 902 L471 839 L297 755 L272 802 L439 902 Z " />
<glyph glyph-name="nacute" unicode="&#x144;" horiz-adv-x="550" d="M143 525 L143 446 Q175 485 219 511 Q263 537 318 537 Q364 537 395 522.5 Q426 508 445 481.5 Q464 455 472 419 Q480 383 480 340 L480 0 L406 0 L406 325 Q406 399 381 434 Q356 469 302 469 Q275 469 250.5 459 Q226 449 206 435.5 Q186 422 171 406.5 Q156 391 147 381 L147 0 L74 0 L74 525 L143 525 Z M341 758 L385 706 L234 584 L200 625 L341 758 Z " />
<glyph glyph-name="Ncommaaccent" unicode="&#x145;" horiz-adv-x="701" d="M83 720 L155 720 L541 139 L541 720 L618 720 L618 0 L548 0 L159 582 L159 0 L83 0 L83 720 Z M329 -60 L398 -76 L341 -235 L288 -220 L329 -60 Z " />
<glyph glyph-name="ncommaaccent" unicode="&#x146;" horiz-adv-x="550" d="M143 525 L143 446 Q175 485 219 511 Q263 537 318 537 Q364 537 395 522.5 Q426 508 445 481.5 Q464 455 472 419 Q480 383 480 340 L480 0 L406 0 L406 325 Q406 399 381 434 Q356 469 302 469 Q275 469 250.5 459 Q226 449 206 435.5 Q186 422 171 406.5 Q156 391 147 381 L147 0 L74 0 L74 525 L143 525 Z M245 -60 L314 -76 L257 -235 L204 -220 L245 -60 Z " />
<glyph glyph-name="Ncaron" unicode="&#x147;" horiz-adv-x="701" d="M83 720 L155 720 L541 139 L541 720 L618 720 L618 0 L548 0 L159 582 L159 0 L83 0 L83 720 Z M324 766 L227 865 L261 897 L351 824 L442 896 L472 865 L378 766 L324 766 Z " />
<glyph glyph-name="ncaron" unicode="&#x148;" horiz-adv-x="550" d="M143 525 L143 446 Q175 485 219 511 Q263 537 318 537 Q364 537 395 522.5 Q426 508 445 481.5 Q464 455 472 419 Q480 383 480 340 L480 0 L406 0 L406 325 Q406 399 381 434 Q356 469 302 469 Q275 469 250.5 459 Q226 449 206 435.5 Q186 422 171 406.5 Q156 391 147 381 L147 0 L74 0 L74 525 L143 525 Z M252 586 L145 734 L185 760 L279 648 L373 762 L411 734 L304 586 L252 586 Z " />
<glyph glyph-name="napostrophe" unicode="&#x149;" horiz-adv-x="558" d="M151 525 L151 446 Q183 485 227 511 Q271 537 326 537 Q372 537 403 522.5 Q434 508 453 481.5 Q472 455 480 419 Q488 383 488 340 L488 0 L414 0 L414 325 Q414 399 389 434 Q364 469 310 469 Q283 469 258.5 459 Q234 449 214 435.5 Q194 422 179 406.5 Q164 391 155 381 L155 0 L82 0 L82 525 L151 525 Z M-21.9892 645.756 Q-21.9892 666.173 -9.1716 678.601 Q3.646 691.028 26.6293 691.028 Q54.9164 691.028 66.85 671.943 Q78.7836 652.857 78.7836 628.89 Q78.7836 592.494 61.9882 560.981 Q45.1927 529.468 -1.65784 506.388 L-16.6854 531.243 Q13.3697 548.997 25.3033 567.195 Q37.2369 585.393 38.1209 610.248 Q27.5132 604.922 16.9056 604.922 Q-0.773865 604.922 -11.3815 616.462 Q-21.9892 628.002 -21.9892 645.756 Z " />
<glyph glyph-name="Eng" unicode="&#x14a;" horiz-adv-x="701" d="M83 720 L155 720 L541 139 L541 720 L618 720 L618 -56 Q618 -86 611 -113 Q604 -140 587.5 -160 Q571 -180 543 -191.5 Q515 -203 474 -203 Q459 -203 442.5 -201.5 Q426 -200 410.5 -197.5 Q395 -195 382 -192 Q369 -189 362 -186 L372 -128 Q381 -131 407 -136.5 Q433 -142 461 -142 Q501 -142 521.5 -121 Q542 -100 542 -52 L542 8 L159 582 L159 0 L83 0 L83 720 Z " />
<glyph glyph-name="eng" unicode="&#x14b;" horiz-adv-x="549" d="M139 525 L143 446 Q175 485 218.5 511 Q262 537 315 537 Q362 537 393.5 522 Q425 507 444 481 Q463 455 471 418.5 Q479 382 479 339 L479 -72 Q479 -102 474 -126 Q469 -150 456 -167.5 Q443 -185 421.5 -194 Q400 -203 367 -203 Q349 -203 331.5 -201 Q314 -199 297 -193 L305 -138 Q314 -141 326 -143 Q338 -145 350 -145 Q377 -145 391 -130.5 Q405 -116 405 -71 L405 328 Q405 402 380 437.5 Q355 473 297 473 Q270 473 247 463 Q224 453 205 439 Q186 425 171.5 409.5 Q157 394 147 382 L147 0 L74 0 L74 525 L139 525 Z " />
<glyph glyph-name="Omacron" unicode="&#x14c;" horiz-adv-x="761" d="M139 368 Q139 289 156.5 230.5 Q174 172 206 133.5 Q238 95 283 76 Q328 57 383 57 Q437 57 481.5 76 Q526 95 557.5 133 Q589 171 606 229.5 Q623 288 623 368 Q623 440 605.5 494.5 Q588 549 556.5 586.5 Q525 624 481 643 Q437 662 383 662 Q327 662 282 642.5 Q237 623 205 585.5 Q173 548 156 493.5 Q139 439 139 368 Z M57 368 Q57 458 81.5 526.5 Q106 595 150 640.5 Q194 686 254 709.5 Q314 733 386 733 Q455 733 513.5 709.5 Q572 686 614 640.5 Q656 595 680 526.5 Q704 458 704 368 Q704 269 679.5 197 Q655 125 612 78.5 Q569 32 509.5 10 Q450 -12 381 -12 Q311 -12 251.5 10.5 Q192 33 149 79.5 Q106 126 81.5 198 Q57 270 57 368 Z M244 847 L518 847 L518 790 L244 790 L244 847 Z " />
<glyph glyph-name="omacron" unicode="&#x14d;" horiz-adv-x="577" d="M127 262 Q127 208 139 169 Q151 130 172.5 104.5 Q194 79 223 66.5 Q252 54 287 54 Q321 54 351 66.5 Q381 79 403 104.5 Q425 130 437.5 169 Q450 208 450 262 Q450 316 437.5 355 Q425 394 403 420 Q381 446 351 458.5 Q321 471 287 471 Q218 471 172.5 419 Q127 367 127 262 Z M49 260 Q49 325 66.5 376.5 Q84 428 115.5 463.5 Q147 499 191.5 518 Q236 537 291 537 Q345 537 388.5 519 Q432 501 462.5 465.5 Q493 430 510 379 Q527 328 527 262 Q527 197 509.5 146 Q492 95 460 60 Q428 25 383 6.5 Q338 -12 283 -12 Q173 -12 111 59.5 Q49 131 49 260 Z M148 679 L422 679 L422 621 L148 621 L148 679 Z " />
<glyph glyph-name="Obreve" unicode="&#x14e;" horiz-adv-x="761" d="M139 368 Q139 289 156.5 230.5 Q174 172 206 133.5 Q238 95 283 76 Q328 57 383 57 Q437 57 481.5 76 Q526 95 557.5 133 Q589 171 606 229.5 Q623 288 623 368 Q623 440 605.5 494.5 Q588 549 556.5 586.5 Q525 624 481 643 Q437 662 383 662 Q327 662 282 642.5 Q237 623 205 585.5 Q173 548 156 493.5 Q139 439 139 368 Z M57 368 Q57 458 81.5 526.5 Q106 595 150 640.5 Q194 686 254 709.5 Q314 733 386 733 Q455 733 513.5 709.5 Q572 686 614 640.5 Q656 595 680 526.5 Q704 458 704 368 Q704 269 679.5 197 Q655 125 612 78.5 Q569 32 509.5 10 Q450 -12 381 -12 Q311 -12 251.5 10.5 Q192 33 149 79.5 Q106 126 81.5 198 Q57 270 57 368 Z M380 821 Q429 821 448 840.5 Q467 860 473 897 L525 888 Q512 770 381 770 Q315 770 281 797 Q247 824 236 887 L291 897 Q298 859 316.5 840 Q335 821 380 821 Z " />
<glyph glyph-name="obreve" unicode="&#x14f;" horiz-adv-x="577" d="M127 262 Q127 208 139 169 Q151 130 172.5 104.5 Q194 79 223 66.5 Q252 54 287 54 Q321 54 351 66.5 Q381 79 403 104.5 Q425 130 437.5 169 Q450 208 450 262 Q450 316 437.5 355 Q425 394 403 420 Q381 446 351 458.5 Q321 471 287 471 Q218 471 172.5 419 Q127 367 127 262 Z M49 260 Q49 325 66.5 376.5 Q84 428 115.5 463.5 Q147 499 191.5 518 Q236 537 291 537 Q345 537 388.5 519 Q432 501 462.5 465.5 Q493 430 510 379 Q527 328 527 262 Q527 197 509.5 146 Q492 95 460 60 Q428 25 383 6.5 Q338 -12 283 -12 Q173 -12 111 59.5 Q49 131 49 260 Z M286 646 Q337 646 355 669 Q373 692 378 731 L431 722 Q425 657 390.5 626 Q356 595 287 595 Q219 595 185.5 625 Q152 655 142 721 L196 731 Q204 689 222 667.5 Q240 646 286 646 Z " />
<glyph glyph-name="Ohungarumlaut" unicode="&#x150;" horiz-adv-x="761" d="M139 368 Q139 289 156.5 230.5 Q174 172 206 133.5 Q238 95 283 76 Q328 57 383 57 Q437 57 481.5 76 Q526 95 557.5 133 Q589 171 606 229.5 Q623 288 623 368 Q623 440 605.5 494.5 Q588 549 556.5 586.5 Q525 624 481 643 Q437 662 383 662 Q327 662 282 642.5 Q237 623 205 585.5 Q173 548 156 493.5 Q139 439 139 368 Z M57 368 Q57 458 81.5 526.5 Q106 595 150 640.5 Q194 686 254 709.5 Q314 733 386 733 Q455 733 513.5 709.5 Q572 686 614 640.5 Q656 595 680 526.5 Q704 458 704 368 Q704 269 679.5 197 Q655 125 612 78.5 Q569 32 509.5 10 Q450 -12 381 -12 Q311 -12 251.5 10.5 Q192 33 149 79.5 Q106 126 81.5 198 Q57 270 57 368 Z M437 890 L306 755 L265 787 L385 931 L437 890 Z M565 874 L439 754 L400 790 L516 918 L565 874 Z " />
<glyph glyph-name="ohungarumlaut" unicode="&#x151;" horiz-adv-x="577" d="M127 262 Q127 208 139 169 Q151 130 172.5 104.5 Q194 79 223 66.5 Q252 54 287 54 Q321 54 351 66.5 Q381 79 403 104.5 Q425 130 437.5 169 Q450 208 450 262 Q450 316 437.5 355 Q425 394 403 420 Q381 446 351 458.5 Q321 471 287 471 Q218 471 172.5 419 Q127 367 127 262 Z M49 260 Q49 325 66.5 376.5 Q84 428 115.5 463.5 Q147 499 191.5 518 Q236 537 291 537 Q345 537 388.5 519 Q432 501 462.5 465.5 Q493 430 510 379 Q527 328 527 262 Q527 197 509.5 146 Q492 95 460 60 Q428 25 383 6.5 Q338 -12 283 -12 Q173 -12 111 59.5 Q49 131 49 260 Z M345 724 L227 583 L182 613 L288 760 L345 724 Z M473 709 L359 583 L315 613 L418 747 L473 709 Z " />
<glyph glyph-name="OE" unicode="&#x152;" horiz-adv-x="1129" d="M624 154 Q608 112 582 81 Q556 50 522 29 Q488 8 448.5 -2 Q409 -12 366 -12 Q300 -12 243 10.5 Q186 33 144.5 80 Q103 127 79.5 199 Q56 271 56 369 Q56 460 80.5 528.5 Q105 597 147.5 642 Q190 687 248 709.5 Q306 732 373 732 Q415 732 453.5 721.5 Q492 711 525 691 Q558 671 583.5 641 Q609 611 624 572 L624 720 L1069 720 L1069 651 L696 651 L696 403 L1035 403 L1035 338 L696 338 L696 69 L1077 69 L1077 0 L624 0 L624 154 Z M138 369 Q138 290 155 232 Q172 174 203.5 135.5 Q235 97 279 78.5 Q323 60 377 60 Q427 60 471 76 Q515 92 548 128.5 Q581 165 600.5 224 Q620 283 620 368 Q620 446 601 501.5 Q582 557 549 592 Q516 627 472.5 643.5 Q429 660 380 660 Q325 660 280.5 641 Q236 622 204.5 585 Q173 548 155.5 493.5 Q138 439 138 369 Z " />
<glyph glyph-name="oe" unicode="&#x153;" horiz-adv-x="929" d="M875 58 Q830 20 783 4 Q736 -12 682 -12 Q608 -12 559 19.5 Q510 51 484 111 Q457 51 405.5 19.5 Q354 -12 282 -12 Q172 -12 110.5 59.5 Q49 131 49 260 Q49 325 66.5 376.5 Q84 428 115.5 463.5 Q147 499 191.5 518 Q236 537 290 537 Q363 537 412.5 503 Q462 469 487 409 Q511 466 559.5 501.5 Q608 537 681 537 Q781 537 832 474.5 Q883 412 883 283 L883 243 L519 243 Q520 201 530 166 Q540 131 560.5 105.5 Q581 80 612.5 66 Q644 52 687 52 Q731 52 767.5 65.5 Q804 79 844 109 L875 58 Z M127 262 Q127 208 139 169 Q151 130 172.5 104.5 Q194 79 223 67 Q252 55 287 55 Q321 55 351 67 Q381 79 403 104.5 Q425 130 437.5 169 Q450 208 450 262 Q450 316 437.5 355 Q425 394 403 420 Q381 446 351 458.5 Q321 471 287 471 Q218 471 172.5 419 Q127 367 127 262 Z M812 304 Q812 340 805 371 Q798 402 782.5 425.5 Q767 449 741.5 462 Q716 475 679 475 Q632 475 601 456 Q570 437 552 410 Q534 383 527 353.5 Q520 324 519 304 L812 304 Z " />
<glyph glyph-name="Racute" unicode="&#x154;" horiz-adv-x="628" d="M309 720 Q436 720 495 664 Q554 608 554 513 Q554 445 525 394 Q496 343 433 313 L595 0 L511 0 L358 295 Q326 288 281 288 L160 288 L160 0 L83 0 L83 720 L309 720 Z M160 652 L160 353 L293 353 Q384 353 430 392.5 Q476 432 476 507 Q476 579 435.5 615.5 Q395 652 307 652 L160 652 Z M369 902 L401 839 L227 755 L202 802 L369 902 Z " />
<glyph glyph-name="racute" unicode="&#x155;" horiz-adv-x="322" d="M140 442 Q157 482 188.5 509.5 Q220 537 260 537 Q272 537 284.5 534.5 Q297 532 308 528 L299 456 Q289 460 278.5 461 Q268 462 255 462 Q237 462 220.5 453 Q204 444 190 430.5 Q176 417 165 400.5 Q154 384 147 369 L147 0 L74 0 L74 525 L140 525 L140 442 Z M260 758 L304 706 L153 584 L119 625 L260 758 Z " />
<glyph glyph-name="Rcommaaccent" unicode="&#x156;" horiz-adv-x="624" d="M306 720 Q433 720 492 664 Q551 608 551 513 Q551 445 522 394 Q493 343 430 313 L592 0 L508 0 L355 295 Q323 288 278 288 L157 288 L157 0 L80 0 L80 720 L306 720 Z M157 652 L157 353 L290 353 Q381 353 427 392.5 Q473 432 473 507 Q473 579 432.5 615.5 Q392 652 304 652 L157 652 Z M288 -60 L357 -76 L300 -235 L247 -220 L288 -60 Z " />
<glyph glyph-name="rcommaaccent" unicode="&#x157;" horiz-adv-x="322" d="M140 442 Q157 482 188.5 509.5 Q220 537 260 537 Q272 537 284.5 534.5 Q297 532 308 528 L299 456 Q289 460 278.5 461 Q268 462 255 462 Q237 462 220.5 453 Q204 444 190 430.5 Q176 417 165 400.5 Q154 384 147 369 L147 0 L74 0 L74 525 L140 525 L140 442 Z M72 -60 L141 -76 L84 -235 L31 -220 L72 -60 Z " />
<glyph glyph-name="Rcaron" unicode="&#x158;" horiz-adv-x="628" d="M309 720 Q436 720 495 664 Q554 608 554 513 Q554 445 525 394 Q496 343 433 313 L595 0 L511 0 L358 295 Q326 288 281 288 L160 288 L160 0 L83 0 L83 720 L309 720 Z M160 652 L160 353 L293 353 Q384 353 430 392.5 Q476 432 476 507 Q476 579 435.5 615.5 Q395 652 307 652 L160 652 Z M256 766 L159 865 L193 897 L283 824 L374 896 L404 865 L310 766 L256 766 Z " />
<glyph glyph-name="rcaron" unicode="&#x159;" horiz-adv-x="322" d="M140 442 Q157 482 188.5 509.5 Q220 537 260 537 Q272 537 284.5 534.5 Q297 532 308 528 L299 456 Q289 460 278.5 461 Q268 462 255 462 Q237 462 220.5 453 Q204 444 190 430.5 Q176 417 165 400.5 Q154 384 147 369 L147 0 L74 0 L74 525 L140 525 L140 442 Z M166 586 L59 734 L99 760 L193 648 L287 762 L325 734 L218 586 L166 586 Z " />
<glyph glyph-name="Sacute" unicode="&#x15a;" horiz-adv-x="576" d="M78 146 Q127 102 178.5 78 Q230 54 287 54 Q321 54 350 62.5 Q379 71 400 88 Q421 105 433 130 Q445 155 445 187 Q445 215 437.5 236.5 Q430 258 411 275.5 Q392 293 359.5 307.5 Q327 322 278 337 Q219 355 177.5 374 Q136 393 109.5 416.5 Q83 440 71 470 Q59 500 59 540 Q59 586 76.5 622 Q94 658 125 683 Q156 708 198 720.5 Q240 733 289 733 Q429 733 519 630 L474 583 Q435 628 386.5 647.5 Q338 667 290 667 Q258 667 230.5 659.5 Q203 652 183 637 Q163 622 151.5 599 Q140 576 140 546 Q140 515 151.5 494 Q163 473 186.5 457.5 Q210 442 244.5 429 Q279 416 325 400 Q380 381 418 361.5 Q456 342 480 318 Q504 294 514.5 264 Q525 234 525 194 Q525 146 507.5 108 Q490 70 458.5 43.5 Q427 17 383 2.5 Q339 -12 285 -12 Q208 -12 143.5 18 Q79 48 34 96 L78 146 Z M371 902 L403 839 L229 755 L204 802 L371 902 Z " />
<glyph glyph-name="sacute" unicode="&#x15b;" horiz-adv-x="478" d="M67 118 Q104 88 147 69 Q190 50 232 50 Q287 50 320.5 73.5 Q354 97 354 138 Q354 157 348 172 Q342 187 327 198.5 Q312 210 287 219.5 Q262 229 224 238 Q179 249 147 262.5 Q115 276 94.5 294 Q74 312 65 335 Q56 358 56 388 Q56 422 69 450 Q82 478 106 497 Q130 516 164 526.5 Q198 537 240 537 Q352 537 428 459 L391 415 Q356 447 317.5 461.5 Q279 476 242 476 Q191 476 161.5 455 Q132 434 132 395 Q132 375 139.5 360.5 Q147 346 163.5 335.5 Q180 325 204.5 316.5 Q229 308 264 299 Q352 276 392.5 241.5 Q433 207 433 146 Q433 110 419 80.5 Q405 51 379 30.5 Q353 10 317 -1 Q281 -12 237 -12 Q172 -12 118.5 12 Q65 36 30 71 L67 118 Z M301 758 L345 706 L194 584 L160 625 L301 758 Z " />
<glyph glyph-name="Scircumflex" unicode="&#x15c;" horiz-adv-x="576" d="M78 146 Q127 102 178.5 78 Q230 54 287 54 Q321 54 350 62.5 Q379 71 400 88 Q421 105 433 130 Q445 155 445 187 Q445 215 437.5 236.5 Q430 258 411 275.5 Q392 293 359.5 307.5 Q327 322 278 337 Q219 355 177.5 374 Q136 393 109.5 416.5 Q83 440 71 470 Q59 500 59 540 Q59 586 76.5 622 Q94 658 125 683 Q156 708 198 720.5 Q240 733 289 733 Q429 733 519 630 L474 583 Q435 628 386.5 647.5 Q338 667 290 667 Q258 667 230.5 659.5 Q203 652 183 637 Q163 622 151.5 599 Q140 576 140 546 Q140 515 151.5 494 Q163 473 186.5 457.5 Q210 442 244.5 429 Q279 416 325 400 Q380 381 418 361.5 Q456 342 480 318 Q504 294 514.5 264 Q525 234 525 194 Q525 146 507.5 108 Q490 70 458.5 43.5 Q427 17 383 2.5 Q339 -12 285 -12 Q208 -12 143.5 18 Q79 48 34 96 L78 146 Z M319 889 L414 790 L383 759 L292 831 L202 759 L168 790 L266 889 L319 889 Z " />
<glyph glyph-name="scircumflex" unicode="&#x15d;" horiz-adv-x="478" d="M67 118 Q104 88 147 69 Q190 50 232 50 Q287 50 320.5 73.5 Q354 97 354 138 Q354 157 348 172 Q342 187 327 198.5 Q312 210 287 219.5 Q262 229 224 238 Q179 249 147 262.5 Q115 276 94.5 294 Q74 312 65 335 Q56 358 56 388 Q56 422 69 450 Q82 478 106 497 Q130 516 164 526.5 Q198 537 240 537 Q352 537 428 459 L391 415 Q356 447 317.5 461.5 Q279 476 242 476 Q191 476 161.5 455 Q132 434 132 395 Q132 375 139.5 360.5 Q147 346 163.5 335.5 Q180 325 204.5 316.5 Q229 308 264 299 Q352 276 392.5 241.5 Q433 207 433 146 Q433 110 419 80.5 Q405 51 379 30.5 Q353 10 317 -1 Q281 -12 237 -12 Q172 -12 118.5 12 Q65 36 30 71 L67 118 Z M271 755 L378 607 L340 580 L246 693 L151 581 L112 607 L219 755 L271 755 Z " />
<glyph glyph-name="Scedilla" unicode="&#x15e;" horiz-adv-x="576" d="M223 -150 Q237 -155 252.5 -159 Q268 -163 287 -163 Q305 -163 319 -156.5 Q333 -150 333 -128 Q333 -107 315.5 -100.5 Q298 -94 266 -94 L251 -94 L269 -11 Q197 -8 137 21 Q77 50 34 96 L78 146 Q127 102 178.5 78 Q230 54 287 54 Q321 54 350 62.5 Q379 71 400 88 Q421 105 433 130 Q445 155 445 187 Q445 215 437.5 236.5 Q430 258 411 275.5 Q392 293 359.5 307.5 Q327 322 278 337 Q219 355 177.5 374 Q136 393 109.5 416.5 Q83 440 71 470 Q59 500 59 540 Q59 586 76.5 622 Q94 658 125 683 Q156 708 198 720.5 Q240 733 289 733 Q429 733 519 630 L474 583 Q435 628 386.5 647.5 Q338 667 290 667 Q258 667 230.5 659.5 Q203 652 183 637 Q163 622 151.5 599 Q140 576 140 546 Q140 515 151.5 494 Q163 473 186.5 457.5 Q210 442 244.5 429 Q279 416 325 400 Q380 381 418 361.5 Q456 342 480 318 Q504 294 514.5 264 Q525 234 525 194 Q525 150 510 113.5 Q495 77 467.5 51 Q440 25 401.5 9 Q363 -7 315 -11 L306 -55 Q321 -55 336 -58.5 Q351 -62 363.5 -70 Q376 -78 383.5 -91.5 Q391 -105 391 -126 Q391 -169 363.5 -188.5 Q336 -208 292 -208 Q266 -208 243.5 -202 Q221 -196 211 -191 L223 -150 Z " />
<glyph glyph-name="scedilla" unicode="&#x15f;" horiz-adv-x="478" d="M156 -150 Q170 -155 186 -159 Q202 -163 220 -163 Q238 -163 252 -156.5 Q266 -150 266 -128 Q266 -107 249 -100.5 Q232 -94 200 -94 L184 -94 L202 -9 Q148 -4 104 18.5 Q60 41 30 71 L67 118 Q104 88 147 69 Q190 50 232 50 Q287 50 320.5 73.5 Q354 97 354 138 Q354 157 347.5 172 Q341 187 325.5 199 Q310 211 284.5 220.5 Q259 230 221 239 Q176 250 144 263.5 Q112 277 92.5 294.5 Q73 312 64 335 Q55 358 55 388 Q55 457 105.5 497 Q156 537 240 537 Q352 537 428 459 L391 415 Q356 447 317.5 461.5 Q279 476 242 476 Q191 476 162 455 Q133 434 133 396 Q133 376 141 361.5 Q149 347 165.5 336 Q182 325 206.5 316.5 Q231 308 265 299 Q353 275 393 241 Q433 207 433 146 Q433 74 382.5 32.5 Q332 -9 248 -12 L239 -55 Q254 -55 269 -58.5 Q284 -62 296.5 -70 Q309 -78 316.5 -91.5 Q324 -105 324 -126 Q324 -169 296.5 -188.5 Q269 -208 225 -208 Q199 -208 176.5 -202 Q154 -196 145 -191 L156 -150 Z " />
<glyph glyph-name="Scaron" unicode="&#x160;" horiz-adv-x="576" d="M78 146 Q127 102 178.5 78 Q230 54 287 54 Q321 54 350 62.5 Q379 71 400 88 Q421 105 433 130 Q445 155 445 187 Q445 215 437.5 236.5 Q430 258 411 275.5 Q392 293 359.5 307.5 Q327 322 278 337 Q219 355 177.5 374 Q136 393 109.5 416.5 Q83 440 71 470 Q59 500 59 540 Q59 586 76.5 622 Q94 658 125 683 Q156 708 198 720.5 Q240 733 289 733 Q429 733 519 630 L474 583 Q435 628 386.5 647.5 Q338 667 290 667 Q258 667 230.5 659.5 Q203 652 183 637 Q163 622 151.5 599 Q140 576 140 546 Q140 515 151.5 494 Q163 473 186.5 457.5 Q210 442 244.5 429 Q279 416 325 400 Q380 381 418 361.5 Q456 342 480 318 Q504 294 514.5 264 Q525 234 525 194 Q525 146 507.5 108 Q490 70 458.5 43.5 Q427 17 383 2.5 Q339 -12 285 -12 Q208 -12 143.5 18 Q79 48 34 96 L78 146 Z M267 766 L170 865 L204 897 L294 824 L385 896 L415 865 L321 766 L267 766 Z " />
<glyph glyph-name="scaron" unicode="&#x161;" horiz-adv-x="478" d="M67 118 Q104 88 147 69 Q190 50 232 50 Q287 50 320.5 73.5 Q354 97 354 138 Q354 157 348 172 Q342 187 327 198.5 Q312 210 287 219.5 Q262 229 224 238 Q179 249 147 262.5 Q115 276 94.5 294 Q74 312 65 335 Q56 358 56 388 Q56 422 69 450 Q82 478 106 497 Q130 516 164 526.5 Q198 537 240 537 Q352 537 428 459 L391 415 Q356 447 317.5 461.5 Q279 476 242 476 Q191 476 161.5 455 Q132 434 132 395 Q132 375 139.5 360.5 Q147 346 163.5 335.5 Q180 325 204.5 316.5 Q229 308 264 299 Q352 276 392.5 241.5 Q433 207 433 146 Q433 110 419 80.5 Q405 51 379 30.5 Q353 10 317 -1 Q281 -12 237 -12 Q172 -12 118.5 12 Q65 36 30 71 L67 118 Z M215 586 L108 734 L148 760 L242 648 L336 762 L374 734 L267 586 L215 586 Z " />
<glyph glyph-name="Scommaaccent" unicode="&#x218;" horiz-adv-x="576" d="M78 146 Q127 102 178.5 78 Q230 54 287 54 Q321 54 350 62.5 Q379 71 400 88 Q421 105 433 130 Q445 155 445 187 Q445 215 437.5 236.5 Q430 258 411 275.5 Q392 293 359.5 307.5 Q327 322 278 337 Q219 355 177.5 374 Q136 393 109.5 416.5 Q83 440 71 470 Q59 500 59 540 Q59 586 76.5 622 Q94 658 125 683 Q156 708 198 720.5 Q240 733 289 733 Q429 733 519 630 L474 583 Q435 628 386.5 647.5 Q338 667 290 667 Q258 667 230.5 659.5 Q203 652 183 637 Q163 622 151.5 599 Q140 576 140 546 Q140 515 151.5 494 Q163 473 186.5 457.5 Q210 442 244.5 429 Q279 416 325 400 Q380 381 418 361.5 Q456 342 480 318 Q504 294 514.5 264 Q525 234 525 194 Q525 146 507.5 108 Q490 70 458.5 43.5 Q427 17 383 2.5 Q339 -12 285 -12 Q208 -12 143.5 18 Q79 48 34 96 L78 146 Z M261 -60 L330 -76 L273 -235 L220 -220 L261 -60 Z " />
<glyph glyph-name="scommaaccent" unicode="&#x219;" horiz-adv-x="478" d="M67 118 Q104 88 147 69 Q190 50 232 50 Q287 50 320.5 73.5 Q354 97 354 138 Q354 157 348 172 Q342 187 327 198.5 Q312 210 287 219.5 Q262 229 224 238 Q179 249 147 262.5 Q115 276 94.5 294 Q74 312 65 335 Q56 358 56 388 Q56 422 69 450 Q82 478 106 497 Q130 516 164 526.5 Q198 537 240 537 Q352 537 428 459 L391 415 Q356 447 317.5 461.5 Q279 476 242 476 Q191 476 161.5 455 Q132 434 132 395 Q132 375 139.5 360.5 Q147 346 163.5 335.5 Q180 325 204.5 316.5 Q229 308 264 299 Q352 276 392.5 241.5 Q433 207 433 146 Q433 110 419 80.5 Q405 51 379 30.5 Q353 10 317 -1 Q281 -12 237 -12 Q172 -12 118.5 12 Q65 36 30 71 L67 118 Z M207 -60 L276 -76 L219 -235 L166 -220 L207 -60 Z " />
<glyph glyph-name="uni021A" unicode="&#x21a;" horiz-adv-x="567" d="M245 651 L18 651 L18 720 L549 720 L549 651 L323 651 L323 0 L245 0 L245 651 Z M247 -60 L316 -76 L259 -235 L206 -220 L247 -60 Z " />
<glyph glyph-name="uni021B" unicode="&#x21b;" horiz-adv-x="295" d="M165 464 L165 97 Q165 69 175.5 59 Q186 49 208 49 Q222 49 235.5 52.5 Q249 56 262 61 L274 7 Q256 -1 232.5 -6.5 Q209 -12 187 -12 Q93 -12 93 83 L93 464 L28 464 L28 510 L93 524 L104 667 L165 667 L165 525 L257 525 L257 464 L165 464 Z M140 -60 L209 -76 L152 -235 L99 -220 L140 -60 Z " />
<glyph glyph-name="Tcaron" unicode="&#x164;" horiz-adv-x="567" d="M245 651 L18 651 L18 720 L549 720 L549 651 L323 651 L323 0 L245 0 L245 651 Z M257 766 L160 865 L194 897 L284 824 L375 896 L405 865 L311 766 L257 766 Z " />
<glyph glyph-name="tcaron" unicode="&#x165;" horiz-adv-x="295" d="M165 464 L165 97 Q165 69 175.5 59 Q186 49 208 49 Q222 49 235.5 52.5 Q249 56 262 61 L274 7 Q256 -1 232.5 -6.5 Q209 -12 187 -12 Q93 -12 93 83 L93 464 L28 464 L28 510 L93 524 L104 667 L165 667 L165 525 L257 525 L257 464 L165 464 Z M242 764 L317 764 L266 579 L208 579 L242 764 Z " />
<glyph glyph-name="Tbar" unicode="&#x166;" horiz-adv-x="568" d="M119 403 L245 403 L245 651 L18 651 L18 720 L549 720 L549 651 L323 651 L323 403 L453 403 L453 341 L323 341 L323 0 L245 0 L245 341 L119 341 L119 403 Z " />
<glyph glyph-name="tbar" unicode="&#x167;" horiz-adv-x="295" d="M165 464 L165 334 L250 334 L250 276 L165 276 L165 97 Q165 69 175.5 59 Q186 49 208 49 Q222 49 235.5 52.5 Q249 56 262 61 L274 7 Q256 -1 232.5 -6.5 Q209 -12 187 -12 Q93 -12 93 83 L93 276 L28 276 L28 334 L93 334 L93 464 L28 464 L28 510 L93 524 L104 667 L165 667 L165 525 L250 525 L250 464 L165 464 Z " />
<glyph glyph-name="uni0162" unicode="&#x162;" horiz-adv-x="567" d="M245 651 L18 651 L18 720 L549 720 L549 651 L323 651 L323 0 L303 0 L292 -55 Q307 -55 322 -58.5 Q337 -62 349.5 -70 Q362 -78 369.5 -91.5 Q377 -105 377 -126 Q377 -169 349.5 -188.5 Q322 -208 278 -208 Q252 -208 229.5 -202 Q207 -196 198 -191 L209 -150 Q223 -155 239 -159 Q255 -163 273 -163 Q291 -163 305 -156.5 Q319 -150 319 -128 Q319 -107 302 -100.5 Q285 -94 253 -94 L237 -94 L257 0 L245 0 L245 651 Z " />
<glyph glyph-name="uni0163" unicode="&#x163;" horiz-adv-x="295" d="M96 -150 Q110 -155 126 -159 Q142 -163 160 -163 Q180 -163 193 -156 Q206 -149 206 -128 Q206 -107 189 -100.5 Q172 -94 140 -94 L124 -94 L143 -5 Q93 13 93 83 L93 464 L28 464 L28 510 L93 524 L104 667 L165 667 L165 525 L250 525 L250 464 L165 464 L165 97 Q165 69 175.5 59 Q186 49 208 49 Q222 49 235 52.5 Q248 56 262 61 L274 7 Q256 -1 232 -6.5 Q208 -12 188 -12 L179 -55 Q194 -55 209 -58.5 Q224 -62 236.5 -70 Q249 -78 256.5 -91.5 Q264 -105 264 -126 Q264 -169 237 -188.5 Q210 -208 165 -208 Q139 -208 116.5 -202 Q94 -196 85 -191 L96 -150 Z " />
<glyph glyph-name="Utilde" unicode="&#x168;" horiz-adv-x="689" d="M155 720 L155 276 Q155 164 206 110.5 Q257 57 348 57 Q450 57 492 113 Q534 169 534 276 L534 720 L610 720 L610 267 Q610 -12 345 -12 Q285 -12 236 4.5 Q187 21 151.5 55.5 Q116 90 97 142.5 Q78 195 78 267 L78 720 L155 720 Z M492 857 Q479 815 459.5 798.5 Q440 782 413 782 Q395 782 377.5 787 Q360 792 343.5 798.5 Q327 805 313 810 Q299 815 288 815 Q275 815 267 808 Q259 801 246 779 L205 796 Q222 838 241 854.5 Q260 871 285 871 Q302 871 318 866 Q334 861 349 854.5 Q364 848 379 843 Q394 838 409 838 Q424 838 432.5 845 Q441 852 452 873 L492 857 Z " />
<glyph glyph-name="utilde" unicode="&#x169;" horiz-adv-x="547" d="M405 0 L405 78 Q392 62 375 46 Q358 30 336 17 Q314 4 288 -4 Q262 -12 231 -12 Q183 -12 151.5 2.5 Q120 17 102 42.5 Q84 68 77 101.5 Q70 135 70 174 L70 525 L144 525 L144 191 Q144 125 166.5 90 Q189 55 249 55 Q274 55 296 62.5 Q318 70 337 82.5 Q356 95 371.5 110.5 Q387 126 400 142 L400 525 L473 525 L473 0 L405 0 Z M417 683 Q404 641 384.5 624.5 Q365 608 338 608 Q320 608 302.5 613 Q285 618 268.5 624.5 Q252 631 238 636 Q224 641 213 641 Q200 641 192 634 Q184 627 171 605 L130 622 Q147 664 166 680.5 Q185 697 210 697 Q227 697 243 692 Q259 687 274 680.5 Q289 674 304 669 Q319 664 334 664 Q349 664 357.5 671 Q366 678 377 699 L417 683 Z " />
<glyph glyph-name="Umacron" unicode="&#x16a;" horiz-adv-x="689" d="M155 720 L155 276 Q155 164 206 110.5 Q257 57 348 57 Q450 57 492 113 Q534 169 534 276 L534 720 L610 720 L610 267 Q610 -12 345 -12 Q285 -12 236 4.5 Q187 21 151.5 55.5 Q116 90 97 142.5 Q78 195 78 267 L78 720 L155 720 Z M207 847 L481 847 L481 790 L207 790 L207 847 Z " />
<glyph glyph-name="umacron" unicode="&#x16b;" horiz-adv-x="547" d="M405 0 L405 78 Q392 62 375 46 Q358 30 336 17 Q314 4 288 -4 Q262 -12 231 -12 Q183 -12 151.5 2.5 Q120 17 102 42.5 Q84 68 77 101.5 Q70 135 70 174 L70 525 L144 525 L144 191 Q144 125 166.5 90 Q189 55 249 55 Q274 55 296 62.5 Q318 70 337 82.5 Q356 95 371.5 110.5 Q387 126 400 142 L400 525 L473 525 L473 0 L405 0 Z M134 679 L408 679 L408 621 L134 621 L134 679 Z " />
<glyph glyph-name="Ubreve" unicode="&#x16c;" horiz-adv-x="689" d="M155 720 L155 276 Q155 164 206 110.5 Q257 57 348 57 Q450 57 492 113 Q534 169 534 276 L534 720 L610 720 L610 267 Q610 -12 345 -12 Q285 -12 236 4.5 Q187 21 151.5 55.5 Q116 90 97 142.5 Q78 195 78 267 L78 720 L155 720 Z M351 821 Q400 821 419 840.5 Q438 860 444 897 L496 888 Q483 770 352 770 Q286 770 252 797 Q218 824 207 887 L262 897 Q269 859 287.5 840 Q306 821 351 821 Z " />
<glyph glyph-name="ubreve" unicode="&#x16d;" horiz-adv-x="547" d="M405 0 L405 78 Q392 62 375 46 Q358 30 336 17 Q314 4 288 -4 Q262 -12 231 -12 Q183 -12 151.5 2.5 Q120 17 102 42.5 Q84 68 77 101.5 Q70 135 70 174 L70 525 L144 525 L144 191 Q144 125 166.5 90 Q189 55 249 55 Q274 55 296 62.5 Q318 70 337 82.5 Q356 95 371.5 110.5 Q387 126 400 142 L400 525 L473 525 L473 0 L405 0 Z M275 646 Q326 646 344 669 Q362 692 367 731 L420 722 Q414 657 379.5 626 Q345 595 276 595 Q208 595 174.5 625 Q141 655 131 721 L185 731 Q193 689 211 667.5 Q229 646 275 646 Z " />
<glyph glyph-name="Uring" unicode="&#x16e;" horiz-adv-x="689" d="M155 720 L155 276 Q155 164 206 110.5 Q257 57 348 57 Q450 57 492 113 Q534 169 534 276 L534 720 L610 720 L610 267 Q610 -12 345 -12 Q285 -12 236 4.5 Q187 21 151.5 55.5 Q116 90 97 142.5 Q78 195 78 267 L78 720 L155 720 Z M300 826 Q300 803 313.5 790 Q327 777 349 777 Q372 777 385.5 791.5 Q399 806 399 829 Q399 852 385.5 864.5 Q372 877 349 877 Q326 877 313 863 Q300 849 300 826 Z M259 826 Q259 864 285 889 Q311 914 349 914 Q387 914 413 890.5 Q439 867 439 829 Q439 789 413.5 765.5 Q388 742 349 742 Q310 742 284.5 764.5 Q259 787 259 826 Z " />
<glyph glyph-name="uring" unicode="&#x16f;" horiz-adv-x="547" d="M405 0 L405 78 Q392 62 375 46 Q358 30 336 17 Q314 4 288 -4 Q262 -12 231 -12 Q183 -12 151.5 2.5 Q120 17 102 42.5 Q84 68 77 101.5 Q70 135 70 174 L70 525 L144 525 L144 191 Q144 125 166.5 90 Q189 55 249 55 Q274 55 296 62.5 Q318 70 337 82.5 Q356 95 371.5 110.5 Q387 126 400 142 L400 525 L473 525 L473 0 L405 0 Z M231 663 Q231 642 243 630.5 Q255 619 275 619 Q296 619 308 632 Q320 645 320 666 Q320 686 308 697 Q296 708 275 708 Q255 708 243 695.5 Q231 683 231 663 Z M182 662 Q182 702 208.5 727 Q235 752 275 752 Q315 752 341.5 728.5 Q368 705 368 666 Q368 624 341.5 600 Q315 576 275 576 Q234 576 208 598.5 Q182 621 182 662 Z " />
<glyph glyph-name="Uhungarumlaut" unicode="&#x170;" horiz-adv-x="689" d="M155 720 L155 276 Q155 164 206 110.5 Q257 57 348 57 Q450 57 492 113 Q534 169 534 276 L534 720 L610 720 L610 267 Q610 -12 345 -12 Q285 -12 236 4.5 Q187 21 151.5 55.5 Q116 90 97 142.5 Q78 195 78 267 L78 720 L155 720 Z M400 890 L269 755 L228 787 L348 931 L400 890 Z M528 874 L402 754 L363 790 L479 918 L528 874 Z " />
<glyph glyph-name="uhungarumlaut" unicode="&#x171;" horiz-adv-x="547" d="M405 0 L405 78 Q392 62 375 46 Q358 30 336 17 Q314 4 288 -4 Q262 -12 231 -12 Q183 -12 151.5 2.5 Q120 17 102 42.5 Q84 68 77 101.5 Q70 135 70 174 L70 525 L144 525 L144 191 Q144 125 166.5 90 Q189 55 249 55 Q274 55 296 62.5 Q318 70 337 82.5 Q356 95 371.5 110.5 Q387 126 400 142 L400 525 L473 525 L473 0 L405 0 Z M327 724 L209 583 L164 613 L270 760 L327 724 Z M455 709 L341 583 L297 613 L400 747 L455 709 Z " />
<glyph glyph-name="Uogonek" unicode="&#x172;" horiz-adv-x="689" d="M155 720 L155 276 Q155 164 206 110.5 Q257 57 348 57 Q450 57 492 113 Q534 169 534 276 L534 720 L610 720 L610 267 Q610 217 601 178 Q592 139 575 107.5 Q558 76 533.5 51.5 Q509 27 478 7 Q434 -21 408 -59.5 Q382 -98 382 -129 Q382 -166 421 -166 Q437 -166 450 -162 Q463 -158 477 -151 L496 -193 Q479 -204 454 -213.5 Q429 -223 400 -223 Q357 -223 335 -202 Q313 -181 313 -147 Q313 -108 334.5 -73.5 Q356 -39 387 -10 Q377 -11 366.5 -11.5 Q356 -12 345 -12 Q285 -12 236 4.5 Q187 21 151.5 55.5 Q116 90 97 142.5 Q78 195 78 267 L78 720 L155 720 Z " />
<glyph glyph-name="uogonek" unicode="&#x173;" horiz-adv-x="547" d="M473 0 Q435 -35 412.5 -66.5 Q390 -98 390 -129 Q390 -166 429 -166 Q445 -166 458 -162 Q471 -158 485 -151 L503 -193 Q487 -204 461.5 -213.5 Q436 -223 408 -223 Q364 -223 342.5 -202 Q321 -181 321 -147 Q321 -103 347 -65.5 Q373 -28 409 2 L405 78 Q392 62 375 46 Q358 30 336 17 Q314 4 288 -4 Q262 -12 231 -12 Q183 -12 151.5 2.5 Q120 17 102 42.5 Q84 68 77 101.5 Q70 135 70 174 L70 525 L144 525 L144 191 Q144 125 166.5 90 Q189 55 249 55 Q274 55 296 62.5 Q318 70 337 82.5 Q356 95 371.5 110.5 Q387 126 400 142 L400 525 L473 525 L473 0 Z " />
<glyph glyph-name="Wcircumflex" unicode="&#x174;" horiz-adv-x="923" d="M18 720 L96 720 L261 98 L424 720 L500 720 L664 97 L825 720 L904 720 L713 0 L624 0 L462 607 L300 0 L210 0 L18 720 Z M489 889 L584 790 L553 759 L462 831 L372 759 L338 790 L436 889 L489 889 Z " />
<glyph glyph-name="wcircumflex" unicode="&#x175;" horiz-adv-x="726" d="M699 525 L569 0 L490 0 L360 420 L235 0 L156 0 L27 525 L100 525 L199 88 L325 520 L397 520 L529 88 L626 525 L699 525 Z M388 755 L495 607 L457 580 L363 693 L268 581 L229 607 L336 755 L388 755 Z " />
<glyph glyph-name="Wgrave" unicode="&#x1e80;" horiz-adv-x="923" d="M18 720 L96 720 L261 98 L424 720 L500 720 L664 97 L825 720 L904 720 L713 0 L624 0 L462 607 L300 0 L210 0 L18 720 Z M558 802 L531 755 L358 839 L389 901 L558 802 Z " />
<glyph glyph-name="wgrave" unicode="&#x1e81;" horiz-adv-x="726" d="M699 525 L569 0 L490 0 L360 420 L235 0 L156 0 L27 525 L100 525 L199 88 L325 520 L397 520 L529 88 L626 525 L699 525 Z M452 625 L417 584 L266 707 L311 758 L452 625 Z " />
<glyph glyph-name="Wacute" unicode="&#x1e82;" horiz-adv-x="923" d="M18 720 L96 720 L261 98 L424 720 L500 720 L664 97 L825 720 L904 720 L713 0 L624 0 L462 607 L300 0 L210 0 L18 720 Z M525 902 L557 839 L383 755 L358 802 L525 902 Z " />
<glyph glyph-name="wacute" unicode="&#x1e83;" horiz-adv-x="726" d="M699 525 L569 0 L490 0 L360 420 L235 0 L156 0 L27 525 L100 525 L199 88 L325 520 L397 520 L529 88 L626 525 L699 525 Z M401 758 L445 706 L294 584 L260 625 L401 758 Z " />
<glyph glyph-name="Wdieresis" unicode="&#x1e84;" horiz-adv-x="923" d="M18 720 L96 720 L261 98 L424 720 L500 720 L664 97 L825 720 L904 720 L713 0 L624 0 L462 607 L300 0 L210 0 L18 720 Z M511 822 Q511 841 524 854 Q537 867 559 867 Q582 867 594 854 Q606 841 606 822 Q606 804 593 791 Q580 778 559 778 Q537 778 524 790.5 Q511 803 511 822 Z M322 822 Q322 841 335.5 854 Q349 867 370 867 Q393 867 405.5 854 Q418 841 418 822 Q418 804 404.5 791 Q391 778 371 778 Q348 778 335 790.5 Q322 803 322 822 Z " />
<glyph glyph-name="wdieresis" unicode="&#x1e85;" horiz-adv-x="726" d="M699 525 L569 0 L490 0 L360 420 L235 0 L156 0 L27 525 L100 525 L199 88 L325 520 L397 520 L529 88 L626 525 L699 525 Z M407 653 Q407 672 420 685 Q433 698 455 698 Q478 698 490 685 Q502 672 502 653 Q502 634 489 621.5 Q476 609 455 609 Q433 609 420 621.5 Q407 634 407 653 Z M218 653 Q218 672 231.5 685 Q245 698 266 698 Q289 698 301.5 685 Q314 672 314 653 Q314 634 300.5 621.5 Q287 609 267 609 Q244 609 231 621.5 Q218 634 218 653 Z " />
<glyph glyph-name="Ygrave" unicode="&#x1ef2;" horiz-adv-x="576" d="M247 305 L17 720 L103 720 L287 382 L472 720 L558 720 L325 305 L325 0 L247 0 L247 305 Z M385 802 L358 755 L185 839 L216 901 L385 802 Z " />
<glyph glyph-name="ygrave" unicode="&#x1ef3;" horiz-adv-x="478" d="M459 525 L270 -20 Q253 -68 239.5 -102 Q226 -136 209 -158.5 Q192 -181 168.5 -191.5 Q145 -202 109 -202 Q83 -202 62 -199 Q41 -196 21 -190 L30 -135 Q41 -137 59 -140 Q77 -143 100 -143 Q116 -143 128 -138.5 Q140 -134 150.5 -122.5 Q161 -111 170.5 -90.5 Q180 -70 191 -38 L203 0 L17 525 L96 525 L240 90 L384 525 L459 525 Z M331 625 L296 584 L145 707 L190 758 L331 625 Z " />
<glyph glyph-name="Ycircumflex" unicode="&#x176;" horiz-adv-x="576" d="M247 305 L17 720 L103 720 L287 382 L472 720 L558 720 L325 305 L325 0 L247 0 L247 305 Z M315 889 L410 790 L379 759 L288 831 L198 759 L164 790 L262 889 L315 889 Z " />
<glyph glyph-name="ycircumflex" unicode="&#x177;" horiz-adv-x="478" d="M459 525 L270 -20 Q253 -68 239.5 -102 Q226 -136 209 -158.5 Q192 -181 168.5 -191.5 Q145 -202 109 -202 Q83 -202 62 -199 Q41 -196 21 -190 L30 -135 Q41 -137 59 -140 Q77 -143 100 -143 Q116 -143 128 -138.5 Q140 -134 150.5 -122.5 Q161 -111 170.5 -90.5 Q180 -70 191 -38 L203 0 L17 525 L96 525 L240 90 L384 525 L459 525 Z M270 755 L377 607 L339 580 L245 693 L150 581 L111 607 L218 755 L270 755 Z " />
<glyph glyph-name="Ydieresis" unicode="&#x178;" horiz-adv-x="576" d="M247 305 L17 720 L103 720 L287 382 L472 720 L558 720 L325 305 L325 0 L247 0 L247 305 Z M338 822 Q338 841 351 854 Q364 867 386 867 Q409 867 421 854 Q433 841 433 822 Q433 804 420 791 Q407 778 386 778 Q364 778 351 790.5 Q338 803 338 822 Z M149 822 Q149 841 162.5 854 Q176 867 197 867 Q220 867 232.5 854 Q245 841 245 822 Q245 804 231.5 791 Q218 778 198 778 Q175 778 162 790.5 Q149 803 149 822 Z " />
<glyph glyph-name="Zacute" unicode="&#x179;" horiz-adv-x="583" d="M38 51 L433 651 L66 651 L66 720 L547 720 L547 686 L139 69 L546 69 L546 0 L38 0 L38 51 Z M384 902 L416 839 L242 755 L217 802 L384 902 Z " />
<glyph glyph-name="zacute" unicode="&#x17a;" horiz-adv-x="437" d="M37 49 L309 463 L44 463 L44 525 L404 525 L404 487 L126 60 L402 60 L402 0 L37 0 L37 49 Z M287 758 L331 706 L180 584 L146 625 L287 758 Z " />
<glyph glyph-name="Zdotaccent" unicode="&#x17b;" horiz-adv-x="583" d="M38 51 L433 651 L66 651 L66 720 L547 720 L547 686 L139 69 L546 69 L546 0 L38 0 L38 51 Z M251 821 Q251 842 265.5 854 Q280 866 301 866 Q323 866 337 854 Q351 842 351 821 Q351 801 337 788.5 Q323 776 301 776 Q280 776 265.5 788.5 Q251 801 251 821 Z " />
<glyph glyph-name="zdotaccent" unicode="&#x17c;" horiz-adv-x="437" d="M37 49 L309 463 L44 463 L44 525 L404 525 L404 487 L126 60 L402 60 L402 0 L37 0 L37 49 Z M176 667 Q176 688 190.5 700.5 Q205 713 226 713 Q248 713 262 700.5 Q276 688 276 667 Q276 647 262 635 Q248 623 226 623 Q205 623 190.5 635 Q176 647 176 667 Z " />
<glyph glyph-name="Zcaron" unicode="&#x17d;" horiz-adv-x="583" d="M38 51 L433 651 L66 651 L66 720 L547 720 L547 686 L139 69 L546 69 L546 0 L38 0 L38 51 Z M272 766 L175 865 L209 897 L299 824 L390 896 L420 865 L326 766 L272 766 Z " />
<glyph glyph-name="zcaron" unicode="&#x17e;" horiz-adv-x="437" d="M37 49 L309 463 L44 463 L44 525 L404 525 L404 487 L126 60 L402 60 L402 0 L37 0 L37 49 Z M198 586 L91 734 L131 760 L225 648 L319 762 L357 734 L250 586 L198 586 Z " />
<glyph glyph-name="longs" unicode="&#x17f;" horiz-adv-x="263" d="M88 464 L28 464 L28 510 L88 521 L88 596 Q88 624 94.5 649 Q101 674 115 693 Q129 712 152 722.5 Q175 733 207 733 Q240 733 273 724 L269 668 Q259 671 247.5 673 Q236 675 222 675 Q198 675 180 659 Q162 643 162 600 L162 0 L88 0 L88 464 Z " />
<glyph glyph-name="dotlessj" unicode="&#x237;" horiz-adv-x="233" d="M153 -73 Q153 -134 129.5 -168.5 Q106 -203 41 -203 Q23 -203 5.5 -201 Q-12 -199 -29 -193 L-21 -137 Q-3 -143 25 -143 Q51 -143 65.5 -129 Q80 -115 80 -69 L80 525 L153 525 L153 -73 Z " />
<glyph glyph-name="ff" unicode="&#xfb00;" horiz-adv-x="543" d="M365 464 L165 464 L165 0 L92 0 L92 464 L32 464 L32 510 L92 521 L92 584 Q92 612 98.5 637 Q105 662 119.5 680.5 Q134 699 156.5 709.5 Q179 720 211 720 Q245 720 278 711 L273 656 Q263 659 251.5 661 Q240 663 226 663 Q202 663 183.5 647 Q165 631 165 588 L165 525 L365 525 L365 597 Q365 625 371.5 650 Q378 675 392 693.5 Q406 712 428.5 722.5 Q451 733 483 733 Q517 733 550 724 L545 668 Q536 671 524 673 Q512 675 498 675 Q474 675 456 659.5 Q438 644 438 601 L438 525 L535 525 L535 464 L438 464 L438 0 L365 0 L365 464 Z " />
<glyph glyph-name="fi" unicode="&#xfb01;" horiz-adv-x="518" d="M92 464 L32 464 L32 510 L92 521 L92 596 Q92 624 98.5 649 Q105 674 119 693 Q133 712 155.5 722.5 Q178 733 210 733 Q242 733 275 724 L272 668 Q254 674 226 674 Q202 674 183.5 658.5 Q165 643 165 600 L165 525 L438 525 L438 0 L365 0 L365 464 L165 464 L165 0 L92 0 L92 464 Z M352 667 Q352 690 366.5 702.5 Q381 715 402 715 Q424 715 437.5 702.5 Q451 690 451 667 Q451 646 437.5 633 Q424 620 402 620 Q381 620 366.5 633 Q352 646 352 667 Z " />
<glyph glyph-name="fl" unicode="&#xfb02;" horiz-adv-x="512" d="M92 464 L32 464 L32 510 L92 521 L92 596 Q92 624 98.5 649 Q105 674 119 693 Q133 712 155.5 722.5 Q178 733 210 733 Q242 733 275 724 L272 668 Q254 674 226 674 Q202 674 183.5 658.5 Q165 643 165 600 L165 525 L365 525 L365 720 L438 720 L438 0 L365 0 L365 464 L165 464 L165 0 L92 0 L92 464 Z " />
<glyph glyph-name="ft" unicode="&#xf603;" horiz-adv-x="568" d="M437 464 L437 97 Q437 69 447.5 59 Q458 49 480 49 Q495 49 508 52.5 Q521 56 534 61 L546 7 Q528 -1 504.5 -6.5 Q481 -12 459 -12 Q365 -12 365 83 L365 464 L165 464 L165 0 L92 0 L92 464 L32 464 L32 510 L92 521 L92 596 Q92 624 98.5 649 Q105 674 119 693 Q133 712 155.5 722.5 Q178 733 210 733 Q242 733 275 724 L272 668 Q254 674 226 674 Q202 674 183.5 658.5 Q165 643 165 600 L165 525 L365 525 L376 667 L437 667 L437 525 L529 525 L529 464 L437 464 Z " />
<glyph glyph-name="ffi" unicode="&#xfb03;" horiz-adv-x="790" d="M365 464 L165 464 L165 0 L92 0 L92 464 L32 464 L32 510 L92 521 L92 585 Q92 613 98.5 638 Q105 663 119 681.5 Q133 700 155.5 710.5 Q178 721 210 721 Q227 721 244 718.5 Q261 716 278 711 L273 656 Q263 659 251.5 661 Q240 663 226 663 Q202 663 183.5 647.5 Q165 632 165 589 L165 525 L365 525 L365 596 Q365 624 371.5 649 Q378 674 392 693 Q406 712 428.5 722.5 Q451 733 483 733 Q515 733 547 724 L545 668 Q525 674 498 674 Q474 674 456 658.5 Q438 643 438 600 L438 525 L710 525 L710 0 L636 0 L636 464 L438 464 L438 0 L365 0 L365 464 Z M623 667 Q623 690 638 702.5 Q653 715 674 715 Q696 715 709.5 702.5 Q723 690 723 667 Q723 646 709.5 633 Q696 620 674 620 Q653 620 638 633 Q623 646 623 667 Z " />
<glyph glyph-name="ffl" unicode="&#xfb04;" horiz-adv-x="785" d="M365 464 L165 464 L165 0 L92 0 L92 464 L32 464 L32 510 L92 521 L92 584 Q92 612 98.5 637 Q105 662 119 680.5 Q133 699 155.5 709.5 Q178 720 210 720 Q245 720 278 711 L273 656 Q263 659 251.5 661 Q240 663 226 663 Q202 663 183.5 647 Q165 631 165 588 L165 525 L365 525 L365 596 Q365 624 371.5 649 Q378 674 392 693 Q406 712 428.5 722.5 Q451 733 483 733 Q515 733 547 724 L545 668 Q525 674 498 674 Q474 674 456 658.5 Q438 643 438 600 L438 525 L638 525 L638 720 L711 720 L711 0 L638 0 L638 464 L438 464 L438 0 L365 0 L365 464 Z " />
<glyph glyph-name="perthousand" unicode="&#x2030;" horiz-adv-x="1110" d="M486 152 Q486 186 498 215 Q510 244 531.5 265.5 Q553 287 582 299 Q611 311 646 311 Q688 311 722 291.5 Q756 272 776 237 Q797 271 831 291 Q865 311 910 311 Q944 311 972.5 299 Q1001 287 1022 266 Q1043 245 1055 216 Q1067 187 1067 154 Q1067 121 1055 92 Q1043 63 1022 41.5 Q1001 20 973 8 Q945 -4 913 -4 Q866 -4 830.5 15.5 Q795 35 775 67 Q752 32 718.5 14 Q685 -4 644 -4 Q609 -4 580 7.5 Q551 19 530 40 Q509 61 497.5 89.5 Q486 118 486 152 Z M42 558 Q42 591 54 620 Q66 649 87 670.5 Q108 692 137.5 704 Q167 716 202 716 Q236 716 265.5 704.5 Q295 693 316.5 672.5 Q338 652 350 623 Q362 594 362 559 Q362 526 349.5 497.5 Q337 469 315.5 447.5 Q294 426 265 414 Q236 402 202 402 Q167 402 137.5 413 Q108 424 87 444.5 Q66 465 54 494 Q42 523 42 558 Z M612 720 L679 720 L240 0 L174 0 L612 720 Z M102 559 Q102 512 130 483.5 Q158 455 202 455 Q246 455 273.5 484.5 Q301 514 301 559 Q301 604 273.5 633.5 Q246 663 202 663 Q157 663 129.5 633.5 Q102 604 102 559 Z M546 154 Q546 108 573.5 79 Q601 50 646 50 Q691 50 718.5 79.5 Q746 109 746 154 Q746 197 718.5 227.5 Q691 258 646 258 Q601 258 573.5 228 Q546 198 546 154 Z M807 154 Q807 109 834 79.5 Q861 50 906 50 Q950 50 977.5 79.5 Q1005 109 1005 154 Q1005 197 977.5 227.5 Q950 258 906 258 Q863 258 835 228 Q807 198 807 154 Z " />
<glyph glyph-name="percent" unicode="&#x25;" horiz-adv-x="849" d="M546 154 Q546 109 574 79.5 Q602 50 646 50 Q690 50 717.5 79.5 Q745 109 745 154 Q745 197 717.5 227.5 Q690 258 646 258 Q601 258 573.5 228 Q546 198 546 154 Z M486 152 Q486 186 498 215 Q510 244 531.5 265.5 Q553 287 582 299 Q611 311 646 311 Q681 311 710.5 299 Q740 287 761.5 266 Q783 245 795 216 Q807 187 807 154 Q807 121 794.5 92 Q782 63 760.5 41.5 Q739 20 709.5 8 Q680 -4 646 -4 Q611 -4 581.5 7.5 Q552 19 531 40 Q510 61 498 89.5 Q486 118 486 152 Z M102 559 Q102 512 130 483.5 Q158 455 202 455 Q246 455 273.5 484.5 Q301 514 301 559 Q301 604 273.5 633.5 Q246 663 202 663 Q157 663 129.5 633.5 Q102 604 102 559 Z M42 558 Q42 591 54 620 Q66 649 87 670.5 Q108 692 137.5 704 Q167 716 202 716 Q236 716 265.5 704.5 Q295 693 316.5 672.5 Q338 652 350 623 Q362 594 362 559 Q362 526 349.5 497.5 Q337 469 315.5 447.5 Q294 426 265 414 Q236 402 202 402 Q167 402 137.5 413 Q108 424 87 444.5 Q66 465 54 494 Q42 523 42 558 Z M612 720 L679 720 L240 0 L174 0 L612 720 Z " />
<glyph glyph-name="fraction" unicode="&#x2044;" horiz-adv-x="129" d="M247 720 L311 720 L-126 -1 L-190 -1 L247 720 Z " />
<glyph glyph-name="zerosuperior" unicode="&#x2070;" horiz-adv-x="360" d="M43 584 Q43 679 79.5 727 Q116 775 182 775 Q248 775 283.5 729.5 Q319 684 319 587 Q319 487 282.5 440 Q246 393 181 393 Q116 393 79.5 439.5 Q43 486 43 584 Z M106 586 Q106 510 126.5 478 Q147 446 182 446 Q215 446 236.5 478 Q258 510 258 587 Q258 659 236 690 Q214 721 181 721 Q148 721 127 690 Q106 659 106 586 Z " />
<glyph glyph-name="onesuperior" unicode="&#xb9;" horiz-adv-x="251" d="M125 400 L125 687 Q100 678 76.5 672.5 Q53 667 27 666 L20 709 Q52 715 85.5 731 Q119 747 142 770 L186 770 L186 400 L125 400 Z " />
<glyph glyph-name="twosuperior" unicode="&#xb2;" horiz-adv-x="307" d="M19 443 L157 586 Q180 610 192.5 627 Q205 644 205 670 Q205 721 146 721 Q120 721 91.5 708.5 Q63 696 37 677 L11 716 Q38 740 75.5 757.5 Q113 775 155 775 Q208 775 239 749.5 Q270 724 270 679 Q270 649 256.5 622 Q243 595 216 568 L100 452 L274 452 L274 400 L19 400 L19 443 Z " />
<glyph glyph-name="threesuperior" unicode="&#xb3;" horiz-adv-x="320" d="M41 482 Q65 464 88.5 454 Q112 444 146 444 Q226 444 226 504 Q226 533 205.5 548 Q185 563 136 563 Q130 563 118.5 562.5 Q107 562 105 562 L105 614 Q150 615 176.5 630.5 Q203 646 203 678 Q203 706 185.5 715 Q168 724 140 724 Q115 724 92.5 717 Q70 710 50 698 L29 739 Q52 754 83 764.5 Q114 775 153 775 Q204 775 235 753 Q266 731 266 685 Q266 653 246 628.5 Q226 604 191 594 Q245 590 266.5 563.5 Q288 537 288 502 Q288 448 249.5 420.5 Q211 393 152 393 Q110 393 74.5 405 Q39 417 12 443 L41 482 Z " />
<glyph glyph-name="foursuperior" unicode="&#x2074;" horiz-adv-x="337" d="M85 525 L213 525 L213 714 L85 525 Z M213 475 L24 475 L24 523 L191 770 L273 770 L273 525 L316 525 L316 475 L273 475 L273 400 L213 400 L213 475 Z " />
<glyph glyph-name="fivesuperior" unicode="&#x2075;" horiz-adv-x="328" d="M67 770 L273 770 L270 718 L115 718 L106 610 Q119 619 139.5 627.5 Q160 636 189 636 Q244 636 271 604.5 Q298 573 298 522 Q298 461 258 427 Q218 393 155 393 Q123 393 88.5 402.5 Q54 412 27 431 L48 471 Q74 458 99.5 450.5 Q125 443 150 443 Q189 443 213 462 Q237 481 237 521 Q237 550 220.5 568.5 Q204 587 171 587 Q148 587 131 578.5 Q114 570 102 561 L99 531 L49 531 L67 770 Z " />
<glyph glyph-name="sixsuperior" unicode="&#x2076;" horiz-adv-x="336" d="M39 564 Q39 664 79.5 719.5 Q120 775 199 775 Q224 775 250.5 768 Q277 761 300 746 L278 705 Q258 716 241 721 Q224 726 205 726 Q175 726 155 715.5 Q135 705 123 686.5 Q111 668 105 643 Q99 618 97 590 Q115 607 141.5 621 Q168 635 200 635 Q228 635 249 626 Q270 617 283.5 601 Q297 585 303.5 564.5 Q310 544 310 522 Q310 459 272.5 426 Q235 393 176 393 Q102 393 70.5 440 Q39 487 39 564 Z M189 586 Q161 586 137 571.5 Q113 557 99 543 Q101 493 120.5 467 Q140 441 178 441 Q210 441 231.5 458.5 Q253 476 253 518 Q253 553 235.5 569.5 Q218 586 189 586 Z " />
<glyph glyph-name="sevensuperior" unicode="&#x2077;" horiz-adv-x="290" d="M121 400 L59 400 L59 406 L206 718 L13 718 L13 770 L273 770 L273 732 L121 400 Z " />
<glyph glyph-name="eightsuperior" unicode="&#x2078;" horiz-adv-x="333" d="M87 495 Q87 469 107 454 Q127 439 165 439 Q200 439 222 455.5 Q244 472 244 500 Q244 531 221 545 Q198 559 158 573 Q130 559 108.5 542.5 Q87 526 87 495 Z M105 685 Q105 660 125.5 647 Q146 634 174 623 Q194 633 213.5 649 Q233 665 233 687 Q233 710 216 722 Q199 734 170 734 Q139 734 122 721.5 Q105 709 105 685 Z M30 493 Q30 534 55 558 Q80 582 118 597 Q84 609 65 629.5 Q46 650 46 682 Q46 725 79.5 750 Q113 775 170 775 Q227 775 257.5 753 Q288 731 288 690 Q288 660 269 637.5 Q250 615 218 601 Q264 583 284.5 561 Q305 539 305 502 Q305 451 267 422 Q229 393 166 393 Q101 393 65.5 419.5 Q30 446 30 493 Z " />
<glyph glyph-name="ninesuperior" unicode="&#x2079;" horiz-adv-x="336" d="M300 607 Q300 503 260 448 Q220 393 143 393 Q116 393 89 400 Q62 407 42 420 L61 463 Q78 454 97.5 448 Q117 442 143 442 Q169 442 187 452 Q205 462 216.5 479.5 Q228 497 234 521 Q240 545 243 574 Q223 550 197 539.5 Q171 529 139 529 Q111 529 90 539 Q69 549 55.5 565 Q42 581 35.5 602 Q29 623 29 645 Q29 708 67 741.5 Q105 775 164 775 Q237 775 268.5 729.5 Q300 684 300 607 Z M153 575 Q181 575 204.5 591 Q228 607 242 624 Q239 727 163 727 Q131 727 108.5 709 Q86 691 86 649 Q86 575 153 575 Z " />
<glyph glyph-name="zeroinferior" unicode="&#x2080;" horiz-adv-x="360" d="M43 89 Q43 184 79.5 232 Q116 280 182 280 Q248 280 283.5 234.5 Q319 189 319 92 Q319 -8 282.5 -55 Q246 -102 181 -102 Q116 -102 79.5 -55.5 Q43 -9 43 89 Z M106 91 Q106 15 126.5 -17 Q147 -49 182 -49 Q215 -49 236.5 -17 Q258 15 258 92 Q258 164 236 195 Q214 226 181 226 Q148 226 127 195 Q106 164 106 91 Z " />
<glyph glyph-name="oneinferior" unicode="&#x2081;" horiz-adv-x="256" d="M125 -95 L125 192 Q100 183 76.5 177.5 Q53 172 27 171 L20 214 Q52 220 85.5 236 Q119 252 142 275 L186 275 L186 -95 L125 -95 Z " />
<glyph glyph-name="twoinferior" unicode="&#x2082;" horiz-adv-x="307" d="M19 -52 L157 91 Q180 115 192.5 132 Q205 149 205 175 Q205 226 146 226 Q120 226 91.5 213.5 Q63 201 37 182 L11 221 Q38 245 75.5 262.5 Q113 280 155 280 Q208 280 239 254.5 Q270 229 270 184 Q270 154 256.5 127 Q243 100 216 73 L100 -43 L274 -43 L274 -95 L19 -95 L19 -52 Z " />
<glyph glyph-name="threeinferior" unicode="&#x2083;" horiz-adv-x="320" d="M41 -13 Q65 -31 88.5 -41 Q112 -51 146 -51 Q226 -51 226 9 Q226 38 205.5 53 Q185 68 136 68 Q130 68 118.5 67.5 Q107 67 105 67 L105 119 Q150 120 176.5 135.5 Q203 151 203 183 Q203 211 185.5 220 Q168 229 140 229 Q115 229 92.5 222 Q70 215 50 203 L29 244 Q52 259 83 269.5 Q114 280 153 280 Q204 280 235 258 Q266 236 266 190 Q266 158 246 133.5 Q226 109 191 99 Q245 95 266.5 68.5 Q288 42 288 7 Q288 -47 249.5 -74.5 Q211 -102 152 -102 Q110 -102 74.5 -90 Q39 -78 12 -52 L41 -13 Z " />
<glyph glyph-name="fourinferior" unicode="&#x2084;" horiz-adv-x="337" d="M85 30 L213 30 L213 219 L85 30 Z M213 -20 L24 -20 L24 28 L191 275 L273 275 L273 30 L316 30 L316 -20 L273 -20 L273 -95 L213 -95 L213 -20 Z " />
<glyph glyph-name="fiveinferior" unicode="&#x2085;" horiz-adv-x="328" d="M67 275 L273 275 L270 223 L115 223 L106 115 Q119 124 139.5 132.5 Q160 141 189 141 Q244 141 271 109.5 Q298 78 298 27 Q298 -34 258 -68 Q218 -102 155 -102 Q123 -102 88.5 -92.5 Q54 -83 27 -64 L48 -24 Q74 -37 99.5 -44.5 Q125 -52 150 -52 Q189 -52 213 -33 Q237 -14 237 26 Q237 55 220.5 73.5 Q204 92 171 92 Q148 92 131 83.5 Q114 75 102 66 L99 36 L49 36 L67 275 Z " />
<glyph glyph-name="sixinferior" unicode="&#x2086;" horiz-adv-x="336" d="M39 69 Q39 169 79.5 224.5 Q120 280 199 280 Q224 280 250.5 273 Q277 266 300 251 L278 210 Q258 221 241 226 Q224 231 205 231 Q175 231 155 220.5 Q135 210 123 191.5 Q111 173 105 148 Q99 123 97 95 Q115 112 141.5 126 Q168 140 200 140 Q228 140 249 131 Q270 122 283.5 106 Q297 90 303.5 69.5 Q310 49 310 27 Q310 -36 272.5 -69 Q235 -102 176 -102 Q102 -102 70.5 -55 Q39 -8 39 69 Z M189 91 Q161 91 137 76.5 Q113 62 99 48 Q101 -2 120.5 -28 Q140 -54 178 -54 Q210 -54 231.5 -36.5 Q253 -19 253 23 Q253 58 235.5 74.5 Q218 91 189 91 Z " />
<glyph glyph-name="seveninferior" unicode="&#x2087;" horiz-adv-x="290" d="M121 -95 L59 -95 L59 -89 L206 223 L13 223 L13 275 L273 275 L273 237 L121 -95 Z " />
<glyph glyph-name="eightinferior" unicode="&#x2088;" horiz-adv-x="333" d="M87 0 Q87 -26 107 -41 Q127 -56 165 -56 Q200 -56 222 -39.5 Q244 -23 244 5 Q244 36 221 50 Q198 64 158 78 Q130 64 108.5 47.5 Q87 31 87 0 Z M105 190 Q105 165 125.5 152 Q146 139 174 128 Q194 138 213.5 154 Q233 170 233 192 Q233 215 216 227 Q199 239 170 239 Q139 239 122 226.5 Q105 214 105 190 Z M30 -2 Q30 39 55 63 Q80 87 118 102 Q84 114 65 134.5 Q46 155 46 187 Q46 230 79.5 255 Q113 280 170 280 Q227 280 257.5 258 Q288 236 288 195 Q288 165 269 142.5 Q250 120 218 106 Q264 88 284.5 66 Q305 44 305 7 Q305 -44 267 -73 Q229 -102 166 -102 Q101 -102 65.5 -75.5 Q30 -49 30 -2 Z " />
<glyph glyph-name="nineinferior" unicode="&#x2089;" horiz-adv-x="336" d="M300 112 Q300 8 260 -47 Q220 -102 143 -102 Q116 -102 89 -95 Q62 -88 42 -75 L61 -32 Q78 -41 97.5 -47 Q117 -53 143 -53 Q169 -53 187 -43 Q205 -33 216.5 -15.5 Q228 2 234 26 Q240 50 243 79 Q223 55 197 44.5 Q171 34 139 34 Q111 34 90 44 Q69 54 55.5 70 Q42 86 35.5 107 Q29 128 29 150 Q29 213 67 246.5 Q105 280 164 280 Q237 280 268.5 234.5 Q300 189 300 112 Z M153 80 Q181 80 204.5 96 Q228 112 242 129 Q239 232 163 232 Q131 232 108.5 214 Q86 196 86 154 Q86 80 153 80 Z " />
<glyph glyph-name="onehalf" unicode="&#xbd;" horiz-adv-x="836" d="M536 720 L600 720 L163 -1 L99 -1 L536 720 Z M148 351 L148 638 Q123 629 99.5 623.5 Q76 618 50 617 L43 660 Q75 666 108.5 682 Q142 698 165 721 L209 721 L209 351 L148 351 Z M464 44 L602 187 Q625 211 637.5 228 Q650 245 650 271 Q650 322 591 322 Q565 322 536.5 309.5 Q508 297 482 278 L456 317 Q483 341 520.5 358.5 Q558 376 600 376 Q653 376 684 350.5 Q715 325 715 280 Q715 250 701.5 223 Q688 196 661 169 L545 53 L719 53 L719 1 L464 1 L464 44 Z " />
<glyph glyph-name="onequarter" unicode="&#xbc;" horiz-adv-x="836" d="M576 720 L640 720 L203 -1 L139 -1 L576 720 Z M153 351 L153 638 Q128 629 104.5 623.5 Q81 618 55 617 L48 660 Q80 666 113.5 682 Q147 698 170 721 L214 721 L214 351 L153 351 Z M526 126 L654 126 L654 315 L526 126 Z M654 76 L465 76 L465 124 L632 371 L714 371 L714 126 L757 126 L757 76 L714 76 L714 1 L654 1 L654 76 Z " />
<glyph glyph-name="threequarters" unicode="&#xbe;" horiz-adv-x="836" d="M632 720 L696 720 L259 -1 L195 -1 L632 720 Z M555 126 L683 126 L683 315 L555 126 Z M683 76 L494 76 L494 124 L661 371 L743 371 L743 126 L786 126 L786 76 L743 76 L743 1 L683 1 L683 76 Z M104 433 Q128 415 151.5 405 Q175 395 209 395 Q289 395 289 455 Q289 484 268.5 499 Q248 514 199 514 Q193 514 181.5 513.5 Q170 513 168 513 L168 565 Q213 566 239.5 581.5 Q266 597 266 629 Q266 657 248.5 666 Q231 675 203 675 Q178 675 155.5 668 Q133 661 113 649 L92 690 Q115 705 146 715.5 Q177 726 216 726 Q267 726 298 704 Q329 682 329 636 Q329 604 309 579.5 Q289 555 254 545 Q308 541 329.5 514.5 Q351 488 351 453 Q351 399 312.5 371.5 Q274 344 215 344 Q173 344 137.5 356 Q102 368 75 394 L104 433 Z " />
<glyph glyph-name="onethird" unicode="&#x2153;" horiz-adv-x="836" d="M541 720 L605 720 L168 -1 L104 -1 L541 720 Z M130 351 L130 638 Q105 629 81.5 623.5 Q58 618 32 617 L25 660 Q57 666 90.5 682 Q124 698 147 721 L191 721 L191 351 L130 351 Z M508 83 Q532 65 555.5 55 Q579 45 613 45 Q693 45 693 105 Q693 134 672.5 149 Q652 164 603 164 Q597 164 585.5 163.5 Q574 163 572 163 L572 215 Q617 216 643.5 231.5 Q670 247 670 279 Q670 307 652.5 316 Q635 325 607 325 Q582 325 559.5 318 Q537 311 517 299 L496 340 Q519 355 550 365.5 Q581 376 620 376 Q671 376 702 354 Q733 332 733 286 Q733 254 713 229.5 Q693 205 658 195 Q712 191 733.5 164.5 Q755 138 755 103 Q755 49 716.5 21.5 Q678 -6 619 -6 Q577 -6 541.5 6 Q506 18 479 44 L508 83 Z " />
<glyph glyph-name="twothirds" unicode="&#x2154;" horiz-adv-x="836" d="M617 720 L681 720 L244 -1 L180 -1 L617 720 Z M49 394 L187 537 Q210 561 222.5 578 Q235 595 235 621 Q235 672 176 672 Q150 672 121.5 659.5 Q93 647 67 628 L41 667 Q68 691 105.5 708.5 Q143 726 185 726 Q238 726 269 700.5 Q300 675 300 630 Q300 600 286.5 573 Q273 546 246 519 L130 403 L304 403 L304 351 L49 351 L49 394 Z M564 83 Q588 65 611.5 55 Q635 45 669 45 Q749 45 749 105 Q749 134 728.5 149 Q708 164 659 164 Q653 164 641.5 163.5 Q630 163 628 163 L628 215 Q673 216 699.5 231.5 Q726 247 726 279 Q726 307 708.5 316 Q691 325 663 325 Q638 325 615.5 318 Q593 311 573 299 L552 340 Q575 355 606 365.5 Q637 376 676 376 Q727 376 758 354 Q789 332 789 286 Q789 254 769 229.5 Q749 205 714 195 Q768 191 789.5 164.5 Q811 138 811 103 Q811 49 772.5 21.5 Q734 -6 675 -6 Q633 -6 597.5 6 Q562 18 535 44 L564 83 Z " />
<glyph glyph-name="onefifth" unicode="&#xf500;" horiz-adv-x="836" d="M551 720 L615 720 L178 -1 L114 -1 L551 720 Z M155 351 L155 638 Q130 629 106.5 623.5 Q83 618 57 617 L50 660 Q82 666 115.5 682 Q149 698 172 721 L216 721 L216 351 L155 351 Z M516 371 L722 371 L719 319 L564 319 L555 211 Q568 220 588.5 228.5 Q609 237 638 237 Q693 237 720 205.5 Q747 174 747 123 Q747 62 707 28 Q667 -6 604 -6 Q572 -6 537.5 3.5 Q503 13 476 32 L497 72 Q523 59 548.5 51.5 Q574 44 599 44 Q638 44 662 63 Q686 82 686 122 Q686 151 669.5 169.5 Q653 188 620 188 Q597 188 580 179.5 Q563 171 551 162 L548 132 L498 132 L516 371 Z " />
<glyph glyph-name="twofifths" unicode="&#xf501;" horiz-adv-x="836" d="M605 720 L669 720 L232 -1 L168 -1 L605 720 Z M47 394 L185 537 Q208 561 220.5 578 Q233 595 233 621 Q233 672 174 672 Q148 672 119.5 659.5 Q91 647 65 628 L39 667 Q66 691 103.5 708.5 Q141 726 183 726 Q236 726 267 700.5 Q298 675 298 630 Q298 600 284.5 573 Q271 546 244 519 L128 403 L302 403 L302 351 L47 351 L47 394 Z M552 371 L758 371 L755 319 L600 319 L591 211 Q604 220 624.5 228.5 Q645 237 674 237 Q729 237 756 205.5 Q783 174 783 123 Q783 62 743 28 Q703 -6 640 -6 Q608 -6 573.5 3.5 Q539 13 512 32 L533 72 Q559 59 584.5 51.5 Q610 44 635 44 Q674 44 698 63 Q722 82 722 122 Q722 151 705.5 169.5 Q689 188 656 188 Q633 188 616 179.5 Q599 171 587 162 L584 132 L534 132 L552 371 Z " />
<glyph glyph-name="threefifths" unicode="&#xf502;" horiz-adv-x="836" d="M615 720 L679 720 L242 -1 L178 -1 L615 720 Z M563 371 L769 371 L766 319 L611 319 L602 211 Q615 220 635.5 228.5 Q656 237 685 237 Q740 237 767 205.5 Q794 174 794 123 Q794 62 754 28 Q714 -6 651 -6 Q619 -6 584.5 3.5 Q550 13 523 32 L544 72 Q570 59 595.5 51.5 Q621 44 646 44 Q685 44 709 63 Q733 82 733 122 Q733 151 716.5 169.5 Q700 188 667 188 Q644 188 627 179.5 Q610 171 598 162 L595 132 L545 132 L563 371 Z M93 433 Q117 415 140.5 405 Q164 395 198 395 Q278 395 278 455 Q278 484 257.5 499 Q237 514 188 514 Q182 514 170.5 513.5 Q159 513 157 513 L157 565 Q202 566 228.5 581.5 Q255 597 255 629 Q255 657 237.5 666 Q220 675 192 675 Q167 675 144.5 668 Q122 661 102 649 L81 690 Q104 705 135 715.5 Q166 726 205 726 Q256 726 287 704 Q318 682 318 636 Q318 604 298 579.5 Q278 555 243 545 Q297 541 318.5 514.5 Q340 488 340 453 Q340 399 301.5 371.5 Q263 344 204 344 Q162 344 126.5 356 Q91 368 64 394 L93 433 Z " />
<glyph glyph-name="fourfifths" unicode="&#xf503;" horiz-adv-x="836" d="M603 720 L667 720 L230 -1 L166 -1 L603 720 Z M556 371 L762 371 L759 319 L604 319 L595 211 Q608 220 628.5 228.5 Q649 237 678 237 Q733 237 760 205.5 Q787 174 787 123 Q787 62 747 28 Q707 -6 644 -6 Q612 -6 577.5 3.5 Q543 13 516 32 L537 72 Q563 59 588.5 51.5 Q614 44 639 44 Q678 44 702 63 Q726 82 726 122 Q726 151 709.5 169.5 Q693 188 660 188 Q637 188 620 179.5 Q603 171 591 162 L588 132 L538 132 L556 371 Z M87 476 L215 476 L215 665 L87 476 Z M215 426 L26 426 L26 474 L193 721 L275 721 L275 476 L318 476 L318 426 L275 426 L275 351 L215 351 L215 426 Z " />
<glyph glyph-name="onesixth" unicode="&#xf504;" horiz-adv-x="836" d="M560 720 L624 720 L187 -1 L123 -1 L560 720 Z M154 351 L154 638 Q129 629 105.5 623.5 Q82 618 56 617 L49 660 Q81 666 114.5 682 Q148 698 171 721 L215 721 L215 351 L154 351 Z M478 165 Q478 265 518.5 320.5 Q559 376 638 376 Q663 376 689.5 369 Q716 362 739 347 L717 306 Q697 317 680 322 Q663 327 644 327 Q614 327 594 316.5 Q574 306 562 287.5 Q550 269 544 244 Q538 219 536 191 Q554 208 580.5 222 Q607 236 639 236 Q667 236 688 227 Q709 218 722.5 202 Q736 186 742.5 165.5 Q749 145 749 123 Q749 60 711.5 27 Q674 -6 615 -6 Q541 -6 509.5 41 Q478 88 478 165 Z M628 187 Q600 187 576 172.5 Q552 158 538 144 Q540 94 559.5 68 Q579 42 617 42 Q649 42 670.5 59.5 Q692 77 692 119 Q692 154 674.5 170.5 Q657 187 628 187 Z " />
<glyph glyph-name="fivesixths" unicode="&#xf505;" horiz-adv-x="836" d="M600 720 L664 720 L227 -1 L163 -1 L600 720 Z M499 165 Q499 265 539.5 320.5 Q580 376 659 376 Q684 376 710.5 369 Q737 362 760 347 L738 306 Q718 317 701 322 Q684 327 665 327 Q635 327 615 316.5 Q595 306 583 287.5 Q571 269 565 244 Q559 219 557 191 Q575 208 601.5 222 Q628 236 660 236 Q688 236 709 227 Q730 218 743.5 202 Q757 186 763.5 165.5 Q770 145 770 123 Q770 60 732.5 27 Q695 -6 636 -6 Q562 -6 530.5 41 Q499 88 499 165 Z M649 187 Q621 187 597 172.5 Q573 158 559 144 Q561 94 580.5 68 Q600 42 638 42 Q670 42 691.5 59.5 Q713 77 713 119 Q713 154 695.5 170.5 Q678 187 649 187 Z M92 721 L298 721 L295 669 L140 669 L131 561 Q144 570 164.5 578.5 Q185 587 214 587 Q269 587 296 555.5 Q323 524 323 473 Q323 412 283 378 Q243 344 180 344 Q148 344 113.5 353.5 Q79 363 52 382 L73 422 Q99 409 124.5 401.5 Q150 394 175 394 Q214 394 238 413 Q262 432 262 472 Q262 501 245.5 519.5 Q229 538 196 538 Q173 538 156 529.5 Q139 521 127 512 L124 482 L74 482 L92 721 Z " />
<glyph glyph-name="oneeighth" unicode="&#x215b;" horiz-adv-x="836" d="M561 720 L625 720 L188 -1 L124 -1 L561 720 Z M153 351 L153 638 Q128 629 104.5 623.5 Q81 618 55 617 L48 660 Q80 666 113.5 682 Q147 698 170 721 L214 721 L214 351 L153 351 Z M535 96 Q535 70 555 55 Q575 40 613 40 Q648 40 670 56.5 Q692 73 692 101 Q692 132 669 146 Q646 160 606 174 Q578 160 556.5 143.5 Q535 127 535 96 Z M553 286 Q553 261 573.5 248 Q594 235 622 224 Q642 234 661.5 250 Q681 266 681 288 Q681 311 664 323 Q647 335 618 335 Q587 335 570 322.5 Q553 310 553 286 Z M478 94 Q478 135 503 159 Q528 183 566 198 Q532 210 513 230.5 Q494 251 494 283 Q494 326 527.5 351 Q561 376 618 376 Q675 376 705.5 354 Q736 332 736 291 Q736 261 717 238.5 Q698 216 666 202 Q712 184 732.5 162 Q753 140 753 103 Q753 52 715 23 Q677 -6 614 -6 Q549 -6 513.5 20.5 Q478 47 478 94 Z " />
<glyph glyph-name="threeeighths" unicode="&#x215c;" horiz-adv-x="836" d="M599 720 L663 720 L226 -1 L162 -1 L599 720 Z M562 96 Q562 70 582 55 Q602 40 640 40 Q675 40 697 56.5 Q719 73 719 101 Q719 132 696 146 Q673 160 633 174 Q605 160 583.5 143.5 Q562 127 562 96 Z M580 286 Q580 261 600.5 248 Q621 235 649 224 Q669 234 688.5 250 Q708 266 708 288 Q708 311 691 323 Q674 335 645 335 Q614 335 597 322.5 Q580 310 580 286 Z M505 94 Q505 135 530 159 Q555 183 593 198 Q559 210 540 230.5 Q521 251 521 283 Q521 326 554.5 351 Q588 376 645 376 Q702 376 732.5 354 Q763 332 763 291 Q763 261 744 238.5 Q725 216 693 202 Q739 184 759.5 162 Q780 140 780 103 Q780 52 742 23 Q704 -6 641 -6 Q576 -6 540.5 20.5 Q505 47 505 94 Z M66 433 Q90 415 113.5 405 Q137 395 171 395 Q251 395 251 455 Q251 484 230.5 499 Q210 514 161 514 Q155 514 143.5 513.5 Q132 513 130 513 L130 565 Q175 566 201.5 581.5 Q228 597 228 629 Q228 657 210.5 666 Q193 675 165 675 Q140 675 117.5 668 Q95 661 75 649 L54 690 Q77 705 108 715.5 Q139 726 178 726 Q229 726 260 704 Q291 682 291 636 Q291 604 271 579.5 Q251 555 216 545 Q270 541 291.5 514.5 Q313 488 313 453 Q313 399 274.5 371.5 Q236 344 177 344 Q135 344 99.5 356 Q64 368 37 394 L66 433 Z " />
<glyph glyph-name="fiveeighths" unicode="&#x215d;" horiz-adv-x="836" d="M606 720 L670 720 L233 -1 L169 -1 L606 720 Z M87 721 L293 721 L290 669 L135 669 L126 561 Q139 570 159.5 578.5 Q180 587 209 587 Q264 587 291 555.5 Q318 524 318 473 Q318 412 278 378 Q238 344 175 344 Q143 344 108.5 353.5 Q74 363 47 382 L68 422 Q94 409 119.5 401.5 Q145 394 170 394 Q209 394 233 413 Q257 432 257 472 Q257 501 240.5 519.5 Q224 538 191 538 Q168 538 151 529.5 Q134 521 122 512 L119 482 L69 482 L87 721 Z M573 96 Q573 70 593 55 Q613 40 651 40 Q686 40 708 56.5 Q730 73 730 101 Q730 132 707 146 Q684 160 644 174 Q616 160 594.5 143.5 Q573 127 573 96 Z M591 286 Q591 261 611.5 248 Q632 235 660 224 Q680 234 699.5 250 Q719 266 719 288 Q719 311 702 323 Q685 335 656 335 Q625 335 608 322.5 Q591 310 591 286 Z M516 94 Q516 135 541 159 Q566 183 604 198 Q570 210 551 230.5 Q532 251 532 283 Q532 326 565.5 351 Q599 376 656 376 Q713 376 743.5 354 Q774 332 774 291 Q774 261 755 238.5 Q736 216 704 202 Q750 184 770.5 162 Q791 140 791 103 Q791 52 753 23 Q715 -6 652 -6 Q587 -6 551.5 20.5 Q516 47 516 94 Z " />
<glyph glyph-name="seveneighths" unicode="&#x215e;" horiz-adv-x="836" d="M569 720 L633 720 L196 -1 L132 -1 L569 720 Z M555 96 Q555 70 575 55 Q595 40 633 40 Q668 40 690 56.5 Q712 73 712 101 Q712 132 689 146 Q666 160 626 174 Q598 160 576.5 143.5 Q555 127 555 96 Z M573 286 Q573 261 593.5 248 Q614 235 642 224 Q662 234 681.5 250 Q701 266 701 288 Q701 311 684 323 Q667 335 638 335 Q607 335 590 322.5 Q573 310 573 286 Z M498 94 Q498 135 523 159 Q548 183 586 198 Q552 210 533 230.5 Q514 251 514 283 Q514 326 547.5 351 Q581 376 638 376 Q695 376 725.5 354 Q756 332 756 291 Q756 261 737 238.5 Q718 216 686 202 Q732 184 752.5 162 Q773 140 773 103 Q773 52 735 23 Q697 -6 634 -6 Q569 -6 533.5 20.5 Q498 47 498 94 Z M159 351 L97 351 L97 357 L244 669 L51 669 L51 721 L311 721 L311 683 L159 351 Z " />
<glyph glyph-name="oneseventh" unicode="&#xf506;" horiz-adv-x="836" d="M537 720 L601 720 L164 -1 L100 -1 L537 720 Z M127 351 L127 638 Q102 629 78.5 623.5 Q55 618 29 617 L22 660 Q54 666 87.5 682 Q121 698 144 721 L188 721 L188 351 L127 351 Z M607 1 L545 1 L545 7 L692 319 L499 319 L499 371 L759 371 L759 333 L607 1 Z " />
<glyph glyph-name="twosevenths" unicode="&#xf507;" horiz-adv-x="836" d="M612 720 L676 720 L239 -1 L175 -1 L612 720 Z M49 394 L187 537 Q210 561 222.5 578 Q235 595 235 621 Q235 672 176 672 Q150 672 121.5 659.5 Q93 647 67 628 L41 667 Q68 691 105.5 708.5 Q143 726 185 726 Q238 726 269 700.5 Q300 675 300 630 Q300 600 286.5 573 Q273 546 246 519 L130 403 L304 403 L304 351 L49 351 L49 394 Z M641 1 L579 1 L579 7 L726 319 L533 319 L533 371 L793 371 L793 333 L641 1 Z " />
<glyph glyph-name="threesevenths" unicode="&#xf508;" horiz-adv-x="836" d="M579 720 L643 720 L206 -1 L142 -1 L579 720 Z M627 1 L565 1 L565 7 L712 319 L519 319 L519 371 L779 371 L779 333 L627 1 Z M50 433 Q74 415 97.5 405 Q121 395 155 395 Q235 395 235 455 Q235 484 214.5 499 Q194 514 145 514 Q139 514 127.5 513.5 Q116 513 114 513 L114 565 Q159 566 185.5 581.5 Q212 597 212 629 Q212 657 194.5 666 Q177 675 149 675 Q124 675 101.5 668 Q79 661 59 649 L38 690 Q61 705 92 715.5 Q123 726 162 726 Q213 726 244 704 Q275 682 275 636 Q275 604 255 579.5 Q235 555 200 545 Q254 541 275.5 514.5 Q297 488 297 453 Q297 399 258.5 371.5 Q220 344 161 344 Q119 344 83.5 356 Q48 368 21 394 L50 433 Z " />
<glyph glyph-name="foursevenths" unicode="&#xf509;" horiz-adv-x="836" d="M583 720 L647 720 L210 -1 L146 -1 L583 720 Z M85 476 L213 476 L213 665 L85 476 Z M213 426 L24 426 L24 474 L191 721 L273 721 L273 476 L316 476 L316 426 L273 426 L273 351 L213 351 L213 426 Z M628 1 L566 1 L566 7 L713 319 L520 319 L520 371 L780 371 L780 333 L628 1 Z " />
<glyph glyph-name="fivesevenths" unicode="&#xf50a;" horiz-adv-x="836" d="M579 720 L643 720 L206 -1 L142 -1 L579 720 Z M75 721 L281 721 L278 669 L123 669 L114 561 Q127 570 147.5 578.5 Q168 587 197 587 Q252 587 279 555.5 Q306 524 306 473 Q306 412 266 378 Q226 344 163 344 Q131 344 96.5 353.5 Q62 363 35 382 L56 422 Q82 409 107.5 401.5 Q133 394 158 394 Q197 394 221 413 Q245 432 245 472 Q245 501 228.5 519.5 Q212 538 179 538 Q156 538 139 529.5 Q122 521 110 512 L107 482 L57 482 L75 721 Z M627 1 L565 1 L565 7 L712 319 L519 319 L519 371 L779 371 L779 333 L627 1 Z " />
<glyph glyph-name="sixsevenths" unicode="&#xf50b;" horiz-adv-x="836" d="M583 720 L647 720 L210 -1 L146 -1 L583 720 Z M38 515 Q38 615 78.5 670.5 Q119 726 198 726 Q223 726 249.5 719 Q276 712 299 697 L277 656 Q257 667 240 672 Q223 677 204 677 Q174 677 154 666.5 Q134 656 122 637.5 Q110 619 104 594 Q98 569 96 541 Q114 558 140.5 572 Q167 586 199 586 Q227 586 248 577 Q269 568 282.5 552 Q296 536 302.5 515.5 Q309 495 309 473 Q309 410 271.5 377 Q234 344 175 344 Q101 344 69.5 391 Q38 438 38 515 Z M188 537 Q160 537 136 522.5 Q112 508 98 494 Q100 444 119.5 418 Q139 392 177 392 Q209 392 230.5 409.5 Q252 427 252 469 Q252 504 234.5 520.5 Q217 537 188 537 Z M640 1 L578 1 L578 7 L725 319 L532 319 L532 371 L792 371 L792 333 L640 1 Z " />
<glyph glyph-name="oneninth" unicode="&#xf50c;" horiz-adv-x="836" d="M568 720 L632 720 L195 -1 L131 -1 L568 720 Z M151 351 L151 638 Q126 629 102.5 623.5 Q79 618 53 617 L46 660 Q78 666 111.5 682 Q145 698 168 721 L212 721 L212 351 L151 351 Z M775 208 Q775 104 735 49 Q695 -6 618 -6 Q591 -6 564 1 Q537 8 517 21 L536 64 Q553 55 572.5 49 Q592 43 618 43 Q644 43 662 53 Q680 63 691.5 80.5 Q703 98 709 122 Q715 146 718 175 Q698 151 672 140.5 Q646 130 614 130 Q586 130 565 140 Q544 150 530.5 166 Q517 182 510.5 203 Q504 224 504 246 Q504 309 542 342.5 Q580 376 639 376 Q712 376 743.5 330.5 Q775 285 775 208 Z M628 176 Q656 176 679.5 192 Q703 208 717 225 Q714 328 638 328 Q606 328 583.5 310 Q561 292 561 250 Q561 176 628 176 Z " />
<glyph glyph-name="twoninths" unicode="&#xf50d;" horiz-adv-x="836" d="M631 720 L695 720 L258 -1 L194 -1 L631 720 Z M54 394 L192 537 Q215 561 227.5 578 Q240 595 240 621 Q240 672 181 672 Q155 672 126.5 659.5 Q98 647 72 628 L46 667 Q73 691 110.5 708.5 Q148 726 190 726 Q243 726 274 700.5 Q305 675 305 630 Q305 600 291.5 573 Q278 546 251 519 L135 403 L309 403 L309 351 L54 351 L54 394 Z M801 208 Q801 104 761 49 Q721 -6 644 -6 Q617 -6 590 1 Q563 8 543 21 L562 64 Q579 55 598.5 49 Q618 43 644 43 Q670 43 688 53 Q706 63 717.5 80.5 Q729 98 735 122 Q741 146 744 175 Q724 151 698 140.5 Q672 130 640 130 Q612 130 591 140 Q570 150 556.5 166 Q543 182 536.5 203 Q530 224 530 246 Q530 309 568 342.5 Q606 376 665 376 Q738 376 769.5 330.5 Q801 285 801 208 Z M654 176 Q682 176 705.5 192 Q729 208 743 225 Q740 328 664 328 Q632 328 609.5 310 Q587 292 587 250 Q587 176 654 176 Z " />
<glyph glyph-name="fourninths" unicode="&#xf50e;" horiz-adv-x="836" d="M623 720 L687 720 L250 -1 L186 -1 L623 720 Z M106 476 L234 476 L234 665 L106 476 Z M234 426 L45 426 L45 474 L212 721 L294 721 L294 476 L337 476 L337 426 L294 426 L294 351 L234 351 L234 426 Z M796 208 Q796 104 756 49 Q716 -6 639 -6 Q612 -6 585 1 Q558 8 538 21 L557 64 Q574 55 593.5 49 Q613 43 639 43 Q665 43 683 53 Q701 63 712.5 80.5 Q724 98 730 122 Q736 146 739 175 Q719 151 693 140.5 Q667 130 635 130 Q607 130 586 140 Q565 150 551.5 166 Q538 182 531.5 203 Q525 224 525 246 Q525 309 563 342.5 Q601 376 660 376 Q733 376 764.5 330.5 Q796 285 796 208 Z M649 176 Q677 176 700.5 192 Q724 208 738 225 Q735 328 659 328 Q627 328 604.5 310 Q582 292 582 250 Q582 176 649 176 Z " />
<glyph glyph-name="fiveninths" unicode="&#xf50f;" horiz-adv-x="836" d="M588 720 L652 720 L215 -1 L151 -1 L588 720 Z M76 721 L282 721 L279 669 L124 669 L115 561 Q128 570 148.5 578.5 Q169 587 198 587 Q253 587 280 555.5 Q307 524 307 473 Q307 412 267 378 Q227 344 164 344 Q132 344 97.5 353.5 Q63 363 36 382 L57 422 Q83 409 108.5 401.5 Q134 394 159 394 Q198 394 222 413 Q246 432 246 472 Q246 501 229.5 519.5 Q213 538 180 538 Q157 538 140 529.5 Q123 521 111 512 L108 482 L58 482 L76 721 Z M767 208 Q767 104 727 49 Q687 -6 610 -6 Q583 -6 556 1 Q529 8 509 21 L528 64 Q545 55 564.5 49 Q584 43 610 43 Q636 43 654 53 Q672 63 683.5 80.5 Q695 98 701 122 Q707 146 710 175 Q690 151 664 140.5 Q638 130 606 130 Q578 130 557 140 Q536 150 522.5 166 Q509 182 502.5 203 Q496 224 496 246 Q496 309 534 342.5 Q572 376 631 376 Q704 376 735.5 330.5 Q767 285 767 208 Z M620 176 Q648 176 671.5 192 Q695 208 709 225 Q706 328 630 328 Q598 328 575.5 310 Q553 292 553 250 Q553 176 620 176 Z " />
<glyph glyph-name="sevenninths" unicode="&#xf510;" horiz-adv-x="836" d="M537 720 L601 720 L164 -1 L100 -1 L537 720 Z M763 208 Q763 104 723 49 Q683 -6 606 -6 Q579 -6 552 1 Q525 8 505 21 L524 64 Q541 55 560.5 49 Q580 43 606 43 Q632 43 650 53 Q668 63 679.5 80.5 Q691 98 697 122 Q703 146 706 175 Q686 151 660 140.5 Q634 130 602 130 Q574 130 553 140 Q532 150 518.5 166 Q505 182 498.5 203 Q492 224 492 246 Q492 309 530 342.5 Q568 376 627 376 Q700 376 731.5 330.5 Q763 285 763 208 Z M616 176 Q644 176 667.5 192 Q691 208 705 225 Q702 328 626 328 Q594 328 571.5 310 Q549 292 549 250 Q549 176 616 176 Z M125 351 L63 351 L63 357 L210 669 L17 669 L17 721 L277 721 L277 683 L125 351 Z " />
<glyph glyph-name="eightninths" unicode="&#xf511;" horiz-adv-x="836" d="M603 720 L667 720 L230 -1 L166 -1 L603 720 Z M775 208 Q775 104 735 49 Q695 -6 618 -6 Q591 -6 564 1 Q537 8 517 21 L536 64 Q553 55 572.5 49 Q592 43 618 43 Q644 43 662 53 Q680 63 691.5 80.5 Q703 98 709 122 Q715 146 718 175 Q698 151 672 140.5 Q646 130 614 130 Q586 130 565 140 Q544 150 530.5 166 Q517 182 510.5 203 Q504 224 504 246 Q504 309 542 342.5 Q580 376 639 376 Q712 376 743.5 330.5 Q775 285 775 208 Z M628 176 Q656 176 679.5 192 Q703 208 717 225 Q714 328 638 328 Q606 328 583.5 310 Q561 292 561 250 Q561 176 628 176 Z M114 446 Q114 420 134 405 Q154 390 192 390 Q227 390 249 406.5 Q271 423 271 451 Q271 482 248 496 Q225 510 185 524 Q157 510 135.5 493.5 Q114 477 114 446 Z M132 636 Q132 611 152.5 598 Q173 585 201 574 Q221 584 240.5 600 Q260 616 260 638 Q260 661 243 673 Q226 685 197 685 Q166 685 149 672.5 Q132 660 132 636 Z M57 444 Q57 485 82 509 Q107 533 145 548 Q111 560 92 580.5 Q73 601 73 633 Q73 676 106.5 701 Q140 726 197 726 Q254 726 284.5 704 Q315 682 315 641 Q315 611 296 588.5 Q277 566 245 552 Q291 534 311.5 512 Q332 490 332 453 Q332 402 294 373 Q256 344 193 344 Q128 344 92.5 370.5 Q57 397 57 444 Z " />
<glyph glyph-name="minus" unicode="&#x2212;" horiz-adv-x="600" d="M560 269 L40 269 L40 326 L560 326 L560 269 Z " />
<glyph glyph-name="uni2215" unicode="&#x2215;" horiz-adv-x="129" d="M247 720 L311 720 L-126 -1 L-190 -1 L247 720 Z " />
<glyph glyph-name="uni2219" unicode="&#x2219;" horiz-adv-x="272" d="M85 338 Q85 363 100 376.5 Q115 390 138 390 Q161 390 176 377 Q191 364 191 338 Q191 317 176 302.5 Q161 288 138 288 Q113 288 99 301.5 Q85 315 85 338 Z " />
<glyph glyph-name="approxequal" unicode="&#x2248;" horiz-adv-x="744" d="M711 398 Q660 354 611.5 331.5 Q563 309 512 309 Q474 309 438.5 320 Q403 331 369 344.5 Q335 358 302.5 369 Q270 380 237 380 Q189 380 152 360 Q115 340 76 311 L38 364 Q88 404 137.5 427 Q187 450 243 450 Q279 450 314.5 438.5 Q350 427 383.5 413.5 Q417 400 448.5 389 Q480 378 508 378 Q551 378 589 396 Q627 414 672 448 L711 398 Z M708 200 Q657 156 608.5 133.5 Q560 111 509 111 Q471 111 435.5 122 Q400 133 366 146.5 Q332 160 299.5 171 Q267 182 234 182 Q186 182 149 162 Q112 142 73 113 L35 166 Q85 206 134.5 229 Q184 252 240 252 Q276 252 311.5 240.5 Q347 229 380.5 215.5 Q414 202 445.5 191 Q477 180 505 180 Q548 180 586 198 Q624 216 669 250 L708 200 Z " />
<glyph glyph-name="notequal" unicode="&#x2260;" horiz-adv-x="600" d="M560 179 L272 179 L163 0 L99 0 L208 179 L40 179 L40 232 L239 232 L303 338 L40 338 L40 391 L335 391 L416 523 L480 523 L400 391 L560 391 L560 338 L368 338 L303 232 L560 232 L560 179 Z " />
<glyph glyph-name="lessequal" unicode="&#x2264;" horiz-adv-x="600" d="M560 0 L40 0 L40 56 L560 56 L560 0 Z M41 325 L41 362 L537 580 L559 526 L138 344 L559 163 L537 107 L41 325 Z " />
<glyph glyph-name="greaterequal" unicode="&#x2265;" horiz-adv-x="600" d="M39 56 L559 56 L559 0 L39 0 L39 56 Z M62 107 L40 163 L461 344 L40 526 L62 580 L558 362 L558 325 L62 107 Z " />
<glyph glyph-name="less" unicode="&#x3c;" horiz-adv-x="600" d="M20 275 L20 313 L562 536 L584 480 L120 294 L585 109 L562 53 L20 275 Z " />
<glyph glyph-name="equal" unicode="&#x3d;" horiz-adv-x="600" d="M560 338 L40 338 L40 391 L560 391 L560 338 Z M560 179 L40 179 L40 232 L560 232 L560 179 Z " />
<glyph glyph-name="greater" unicode="&#x3e;" horiz-adv-x="600" d="M37 58 L16 113 L479 299 L16 485 L38 540 L579 318 L579 280 L37 58 Z " />
<glyph glyph-name="logicalnot" unicode="&#xac;" horiz-adv-x="600" d="M513 126 L513 331 L32 331 L32 385 L568 385 L568 126 L513 126 Z " />
<glyph glyph-name="plus" unicode="&#x2b;" horiz-adv-x="600" d="M329 326 L561 326 L561 269 L329 269 L329 36 L270 36 L270 269 L38 269 L38 326 L270 326 L270 559 L329 559 L329 326 Z " />
<glyph glyph-name="plusminus" unicode="&#xb1;" horiz-adv-x="600" d="M329 326 L561 326 L561 269 L329 269 L329 56 L560 56 L560 0 L40 0 L40 56 L270 56 L270 269 L38 269 L38 326 L270 326 L270 559 L329 559 L329 326 Z " />
<glyph glyph-name="divide" unicode="&#xf7;" horiz-adv-x="600" d="M299 174 Q318 174 331 160.5 Q344 147 344 127 Q344 109 331 95.5 Q318 82 299 82 Q282 82 268.5 96 Q255 110 255 127 Q255 146 268 160 Q281 174 299 174 Z M40 326 L560 326 L560 269 L40 269 L40 326 Z M299 519 Q318 519 331 505 Q344 491 344 472 Q344 454 331 440.5 Q318 427 299 427 Q282 427 268 441 Q254 455 254 472 Q254 491 267.5 505 Q281 519 299 519 Z " />
<glyph glyph-name="multiply" unicode="&#xd7;" horiz-adv-x="600" d="M340 291 L505 126 L465 85 L300 249 L135 85 L94 128 L260 292 L94 456 L134 498 L299 334 L464 498 L505 454 L340 291 Z " />
<glyph glyph-name="partialdiff" unicode="&#x2202;" horiz-adv-x="594" d="M239 -12 Q153 -12 106 39 Q59 90 59 177 Q59 230 73 277.5 Q87 325 115 361 Q143 397 184 418 Q225 439 278 439 Q304 439 330.5 430.5 Q357 422 379 405.5 Q401 389 416.5 363.5 Q432 338 437 304 Q440 339 442.5 370.5 Q445 402 445 430 Q445 532 413 586 Q381 640 304 640 Q234 640 167 599 L143 646 Q181 674 226.5 687.5 Q272 701 310 701 Q408 701 460 637.5 Q512 574 512 436 Q512 389 507.5 337.5 Q503 286 491 236.5 Q479 187 459 141.5 Q439 96 409 62 Q379 28 337 8 Q295 -12 239 -12 Z M248 51 Q288 51 318.5 67.5 Q349 84 369.5 109.5 Q390 135 400 166 Q410 197 410 227 Q410 298 376 338.5 Q342 379 285 379 Q244 379 215 361.5 Q186 344 167.5 316 Q149 288 140 253 Q131 218 131 184 Q131 115 164.5 83 Q198 51 248 51 Z " />
<glyph glyph-name="Omega" unicode="&#x2126;" horiz-adv-x="790" d="M459 87 Q492 103 525 129.5 Q558 156 584.5 193 Q611 230 627 278 Q643 326 643 385 Q643 456 625.5 508 Q608 560 576.5 593.5 Q545 627 500 643.5 Q455 660 401 660 Q346 660 301 642.5 Q256 625 223.5 589.5 Q191 554 173.5 501 Q156 448 156 378 Q156 324 171 278.5 Q186 233 209.5 196.5 Q233 160 261.5 133 Q290 106 318 88 L318 0 L66 0 L66 67 L245 67 L245 81 Q215 98 184.5 126.5 Q154 155 129.5 194 Q105 233 89.5 281.5 Q74 330 74 388 Q74 475 99 540 Q124 605 168 647.5 Q212 690 271.5 711.5 Q331 733 401 733 Q470 733 529.5 713.5 Q589 694 632 653 Q675 612 699.5 549 Q724 486 724 400 Q724 335 707 282 Q690 229 662.5 188.5 Q635 148 600.5 120.5 Q566 93 532 79 L532 67 L711 67 L711 0 L459 0 L459 87 Z " />
<glyph glyph-name="Delta" unicode="&#x2206;" horiz-adv-x="665" d="M377 720 L637 0 L28 0 L287 720 L377 720 Z M535 64 L331 639 L127 64 L535 64 Z " />
<glyph glyph-name="product" unicode="&#x220f;" horiz-adv-x="696" d="M83 720 L613 720 L613 -140 L536 -140 L536 655 L160 655 L160 -140 L83 -140 L83 720 Z " />
<glyph glyph-name="summation" unicode="&#x2211;" horiz-adv-x="577" d="M145 651 L368 318 L139 -50 L548 -50 L548 -119 L31 -119 L31 -85 L277 317 L31 686 L31 720 L511 720 L511 651 L145 651 Z " />
<glyph glyph-name="uni0394" unicode="&#x394;" horiz-adv-x="665" d="M377 720 L637 0 L28 0 L287 720 L377 720 Z M535 64 L331 639 L127 64 L535 64 Z " />
<glyph glyph-name="uni03A9" unicode="&#x3a9;" horiz-adv-x="790" d="M459 87 Q492 103 525 129.5 Q558 156 584.5 193 Q611 230 627 278 Q643 326 643 385 Q643 456 625.5 508 Q608 560 576.5 593.5 Q545 627 500 643.5 Q455 660 401 660 Q346 660 301 642.5 Q256 625 223.5 589.5 Q191 554 173.5 501 Q156 448 156 378 Q156 324 171 278.5 Q186 233 209.5 196.5 Q233 160 261.5 133 Q290 106 318 88 L318 0 L66 0 L66 67 L245 67 L245 81 Q215 98 184.5 126.5 Q154 155 129.5 194 Q105 233 89.5 281.5 Q74 330 74 388 Q74 475 99 540 Q124 605 168 647.5 Q212 690 271.5 711.5 Q331 733 401 733 Q470 733 529.5 713.5 Q589 694 632 653 Q675 612 699.5 549 Q724 486 724 400 Q724 335 707 282 Q690 229 662.5 188.5 Q635 148 600.5 120.5 Q566 93 532 79 L532 67 L711 67 L711 0 L459 0 L459 87 Z " />
<glyph glyph-name="uni03BC" unicode="&#x3bc;" horiz-adv-x="571" d="M415 0 L415 78 Q395 36 360.5 13 Q326 -10 275 -10 Q229 -10 201 5.5 Q173 21 152 51 L152 -200 L80 -200 L80 525 L152 525 L152 200 Q152 127 181.5 87 Q211 47 277 47 Q308 47 332 59.5 Q356 72 372.5 91 Q389 110 398 132.5 Q407 155 409 175 L409 525 L482 525 L482 0 L415 0 Z " />
<glyph glyph-name="pi" unicode="&#x3c0;" horiz-adv-x="662" d="M36 525 L626 525 L626 462 L538 462 L538 0 L465 0 L465 462 L202 462 L202 0 L129 0 L129 462 L36 462 L36 525 Z " />
<glyph glyph-name="mu" unicode="&#xb5;" horiz-adv-x="571" d="M415 0 L415 78 Q395 36 360.5 13 Q326 -10 275 -10 Q229 -10 201 5.5 Q173 21 152 51 L152 -200 L80 -200 L80 525 L152 525 L152 200 Q152 127 181.5 87 Q211 47 277 47 Q308 47 332 59.5 Q356 72 372.5 91 Q389 110 398 132.5 Q407 155 409 175 L409 525 L482 525 L482 0 L415 0 Z " />
<glyph glyph-name="radical" unicode="&#x221a;" horiz-adv-x="724" d="M36 307 L224 307 L353 -74 L656 824 L724 824 L388 -166 L316 -166 L171 251 L36 251 L36 307 Z " />
<glyph glyph-name="infinity" unicode="&#x221e;" horiz-adv-x="764" d="M709 313 Q709 276 698.5 246.5 Q688 217 669.5 196 Q651 175 626 163.5 Q601 152 573 152 Q540 152 513 163 Q486 174 463.5 190.5 Q441 207 421.5 227 Q402 247 386 264 Q347 216 302.5 184 Q258 152 206 152 Q138 152 97 191 Q56 230 56 302 Q56 336 66.5 365 Q77 394 97 415 Q117 436 145.5 447.5 Q174 459 209 459 Q238 459 262.5 450 Q287 441 308.5 425 Q330 409 349 387.5 Q368 366 387 341 Q408 365 428 386.5 Q448 408 470 424.5 Q492 441 516.5 450.5 Q541 460 571 460 Q605 460 631 448 Q657 436 674.5 416 Q692 396 700.5 369.5 Q709 343 709 313 Z M652 307 Q652 349 631 378.5 Q610 408 562 408 Q542 408 525 401.5 Q508 395 491.5 382 Q475 369 457.5 349.5 Q440 330 419 304 Q434 285 451.5 267 Q469 249 488 235 Q507 221 527 212.5 Q547 204 567 204 Q589 204 605 213 Q621 222 631.5 236.5 Q642 251 647 269.5 Q652 288 652 307 Z M354 303 Q316 357 282.5 382 Q249 407 211 407 Q185 407 166.5 398 Q148 389 136 374.5 Q124 360 118.5 341.5 Q113 323 113 303 Q113 259 138 230.5 Q163 202 211 202 Q245 202 282 228.5 Q319 255 354 303 Z " />
<glyph glyph-name="integral" unicode="&#x222b;" horiz-adv-x="358" d="M64 -143 Q103 -143 123.5 -119.5 Q144 -96 144 -34 L144 632 Q144 666 151.5 695 Q159 724 175 745 Q191 766 216.5 778 Q242 790 278 790 L344 790 L344 733 L289 733 Q244 733 227.5 701.5 Q211 670 211 612 L211 -32 Q211 -69 205 -100 Q199 -131 183.5 -153 Q168 -175 140 -187.5 Q112 -200 69 -200 L11 -200 L11 -143 L64 -143 Z " />
<glyph glyph-name="lozenge" unicode="&#x25ca;" horiz-adv-x="612" d="M81 352 L272 700 L332 700 L531 354 L332 0 L272 0 L81 352 Z M151 352 L302 66 L460 352 L302 634 L151 352 Z " />
<glyph glyph-name="zero.tosf" unicode="&#xf81e;" horiz-adv-x="600" d="M140 306 Q140 174 180 113.5 Q220 53 300 53 Q379 53 419 113.5 Q459 174 459 309 Q459 436 419.5 490.5 Q380 545 301 545 Q223 545 181.5 487.5 Q140 430 140 306 Z M66 305 Q66 452 127.5 532 Q189 612 302 612 Q417 612 475 539 Q533 466 533 309 Q533 146 473.5 67 Q414 -12 299 -12 Q184 -12 125 66.5 Q66 145 66 305 Z " />
<glyph glyph-name="one.tosf" unicode="&#xf81f;" horiz-adv-x="600" d="M294 495 Q256 470 213.5 452 Q171 434 123 426 L113 482 Q138 488 166 499.5 Q194 511 220.5 526.5 Q247 542 271 561 Q295 580 314 601 L366 601 L366 61 L505 61 L505 0 L136 0 L136 61 L294 61 L294 495 Z " />
<glyph glyph-name="two.tosf" unicode="&#xf820;" horiz-adv-x="600" d="M93 48 L337 295 Q376 334 397.5 367.5 Q419 401 419 442 Q419 493 383.5 519.5 Q348 546 296 546 Q250 546 206.5 524 Q163 502 123 467 L84 513 Q126 557 182 584.5 Q238 612 304 612 Q343 612 378 602 Q413 592 439.5 571.5 Q466 551 481.5 520.5 Q497 490 497 449 Q497 422 491.5 399.5 Q486 377 475 356 Q464 335 446.5 314 Q429 293 405 269 L201 66 L503 66 L503 0 L93 0 L93 48 Z " />
<glyph glyph-name="three.tosf" unicode="&#xf821;" horiz-adv-x="600" d="M101 73 Q140 36 183 15 Q226 -6 284 -6 Q349 -6 391 28 Q433 62 433 125 Q433 152 424.5 174.5 Q416 197 396.5 213.5 Q377 230 346 239.5 Q315 249 271 249 Q266 249 258 249 Q250 249 242 248.5 Q234 248 227.5 247.5 Q221 247 220 247 L217 310 Q253 311 285.5 319.5 Q318 328 342.5 344 Q367 360 381.5 383.5 Q396 407 396 439 Q396 467 386 487 Q376 507 359.5 520 Q343 533 320.5 539.5 Q298 546 274 546 Q230 546 192.5 532.5 Q155 519 119 495 L88 545 Q128 575 175.5 593.5 Q223 612 283 612 Q323 612 357 601.5 Q391 591 416 570 Q441 549 455.5 518.5 Q470 488 470 448 Q470 388 434.5 347.5 Q399 307 339 290 Q425 282 466 235.5 Q507 189 507 123 Q507 75 489.5 38.5 Q472 2 442 -22.5 Q412 -47 372 -59 Q332 -71 287 -71 Q221 -71 164.5 -48 Q108 -25 61 25 L101 73 Z " />
<glyph glyph-name="four.tosf" unicode="&#xf822;" horiz-adv-x="600" d="M382 174 L382 527 L136 174 L382 174 Z M382 109 L55 109 L55 167 L355 601 L453 601 L453 174 L537 174 L537 109 L453 109 L453 -60 L382 -60 L382 109 Z " />
<glyph glyph-name="five.tosf" unicode="&#xf823;" horiz-adv-x="600" d="M137 601 L476 601 L472 531 L199 531 L183 317 Q204 339 239 355 Q274 371 322 371 Q419 371 469.5 314.5 Q520 258 520 158 Q520 102 502.5 59.5 Q485 17 453.5 -12.5 Q422 -42 379 -57 Q336 -72 286 -72 Q240 -72 186.5 -57 Q133 -42 85 -7 L115 46 Q155 21 197 8 Q239 -5 278 -5 Q353 -5 398.5 36.5 Q444 78 444 159 Q444 222 410 264.5 Q376 307 306 307 Q263 307 230 289.5 Q197 272 178 251 L173 194 L107 194 L137 601 Z " />
<glyph glyph-name="six.tosf" unicode="&#xf824;" horiz-adv-x="600" d="M84 300 Q84 511 153 615.5 Q222 720 341 720 Q380 720 421 706.5 Q462 693 497 662 L465 613 Q433 637 404 647 Q375 657 343 657 Q290 657 255.5 631.5 Q221 606 199.5 564.5 Q178 523 167.5 469.5 Q157 416 154 360 Q188 394 232 417 Q276 440 330 440 Q378 440 413.5 423 Q449 406 472.5 376 Q496 346 507.5 306 Q519 266 519 221 Q519 105 461.5 46.5 Q404 -12 307 -12 Q194 -12 139 69 Q84 150 84 300 Z M310 51 Q338 51 363 60.5 Q388 70 407 90.5 Q426 111 437 142 Q448 173 448 216 Q448 258 437.5 288 Q427 318 409 337.5 Q391 357 366.5 366 Q342 375 315 375 Q289 375 264.5 366.5 Q240 358 219.5 345.5 Q199 333 182.5 319 Q166 305 155 294 Q155 228 166.5 182 Q178 136 198.5 107 Q219 78 247 64.5 Q275 51 310 51 Z " />
<glyph glyph-name="seven.tosf" unicode="&#xf825;" horiz-adv-x="600" d="M246 -60 L169 -60 L169 -50 L420 531 L76 531 L76 601 L507 601 L507 550 L246 -60 Z " />
<glyph glyph-name="eight.tosf" unicode="&#xf826;" horiz-adv-x="600" d="M153 178 Q153 121 192 86 Q231 51 300 51 Q367 51 407.5 89 Q448 127 448 188 Q448 222 434.5 248.5 Q421 275 399.5 294.5 Q378 314 350 327.5 Q322 341 293 351 Q265 339 240 323.5 Q215 308 195.5 287 Q176 266 164.5 239 Q153 212 153 178 Z M182 552 Q182 525 192.5 503.5 Q203 482 220.5 465 Q238 448 261 435.5 Q284 423 309 414 Q328 422 348.5 436 Q369 450 386 468 Q403 486 414 508.5 Q425 531 425 556 Q425 607 392 633.5 Q359 660 304 660 Q249 660 215.5 631.5 Q182 603 182 552 Z M79 176 Q79 213 91.5 245 Q104 277 125 303 Q146 329 174.5 348.5 Q203 368 235 381 Q175 404 142 446.5 Q109 489 109 549 Q109 588 123.5 619.5 Q138 651 164 673.5 Q190 696 226 708 Q262 720 305 720 Q347 720 382 709 Q417 698 442.5 677.5 Q468 657 482 627 Q496 597 496 560 Q496 531 486.5 505.5 Q477 480 460 457.5 Q443 435 420 416.5 Q397 398 370 385 Q446 352 484.5 306 Q523 260 523 191 Q523 144 507 106 Q491 68 461 42 Q431 16 389.5 2 Q348 -12 297 -12 Q194 -12 136.5 38 Q79 88 79 176 Z " />
<glyph glyph-name="nine.tosf" unicode="&#xf827;" horiz-adv-x="600" d="M516 307 Q516 198 498.5 125 Q481 52 449.5 8.5 Q418 -35 374 -53 Q330 -71 276 -71 Q177 -71 107 -17 L140 34 Q166 15 198.5 2.5 Q231 -10 277 -10 Q321 -10 351 7.5 Q381 25 400.5 57.5 Q420 90 430.5 135.5 Q441 181 446 238 Q410 203 367 183.5 Q324 164 270 164 Q222 164 186.5 181 Q151 198 127.5 227.5 Q104 257 92.5 296 Q81 335 81 380 Q81 433 96 476 Q111 519 139 549 Q167 579 206.5 595.5 Q246 612 294 612 Q349 612 391 590.5 Q433 569 460.5 529 Q488 489 502 433 Q516 377 516 307 Z M292 546 Q264 546 239 536 Q214 526 195 506 Q176 486 164.5 455.5 Q153 425 153 384 Q153 342 163.5 312 Q174 282 192 263.5 Q210 245 234 236 Q258 227 285 227 Q312 227 335.5 235 Q359 243 379.5 255 Q400 267 416.5 281.5 Q433 296 445 309 Q444 428 402.5 487 Q361 546 292 546 Z " />
<glyph glyph-name="currency" unicode="&#xa4;" horiz-adv-x="589" d="M436 336 Q436 366 425 392 Q414 418 394.5 437 Q375 456 349.5 467 Q324 478 294 478 Q264 478 238 467 Q212 456 192.5 437 Q173 418 162 392 Q151 366 151 336 Q151 306 162 279.5 Q173 253 192 233.5 Q211 214 237.5 203 Q264 192 294 192 Q324 192 349.5 203.5 Q375 215 394.5 234.5 Q414 254 425 280 Q436 306 436 336 Z M79 586 L175 490 Q199 509 229.5 520 Q260 531 294 531 Q327 531 357.5 520.5 Q388 510 412 491 L508 586 L543 550 L447 453 Q467 429 478.5 399 Q490 369 490 336 Q490 303 479 272.5 Q468 242 448 217 L544 122 L508 86 L412 182 Q387 162 357.5 151.5 Q328 141 294 141 Q259 141 229 152 Q199 163 175 182 Q151 157 128 133 Q105 109 79 86 L44 122 L140 218 Q120 241 109 272 Q98 303 98 336 Q98 368 109 398.5 Q120 429 140 453 L45 550 L79 586 Z " />
<glyph glyph-name="arrowright" unicode="&#x2192;" horiz-adv-x="500" d="M0 291 L400 291 L288 403 L326 438 L500 262 L325 87 L287 122 L400 234 L0 234 L0 291 Z " />
<glyph glyph-name="arrowleft" unicode="&#x2190;" horiz-adv-x="500" d="M500 234 L100 234 L213 122 L175 87 L0 262 L174 438 L212 403 L100 291 L500 291 L500 234 Z " />
<glyph glyph-name="arrowdown" unicode="&#x2193;" horiz-adv-x="500" d="M279 512 L279 109 L390 221 L426 187 L251 12 L74 186 L109 220 L222 109 L222 512 L279 512 Z " />
<glyph glyph-name="circle" unicode="&#x25cb;" horiz-adv-x="610" d="M305 119 Q263 119 225.5 135 Q188 151 160 179 Q132 207 116 244.5 Q100 282 100 324 Q100 366 116 403.5 Q132 441 160 469 Q188 497 225.5 513 Q263 529 305 529 Q347 529 384.5 513 Q422 497 450 469 Q478 441 494 403.5 Q510 366 510 324 Q510 282 494 244.5 Q478 207 450 179 Q422 151 384.5 135 Q347 119 305 119 Z " />
<glyph glyph-name="triangle" unicode="&#x25b3;" horiz-adv-x="425" d="M150 203 L150 434 L335 320 L150 203 Z " />
<glyph glyph-name="circumflex" unicode="&#x2c6;" horiz-adv-x="500" d="M277 755 L384 607 L346 580 L252 693 L157 581 L118 607 L225 755 L277 755 Z " />
<glyph glyph-name="caron" unicode="&#x2c7;" horiz-adv-x="500" d="M224 586 L117 734 L157 760 L251 648 L345 762 L383 734 L276 586 L224 586 Z " />
<glyph glyph-name="uni02C9" unicode="&#x2c9;" horiz-adv-x="500" d="M113 679 L387 679 L387 621 L113 621 L113 679 Z " />
<glyph glyph-name="breve" unicode="&#x2d8;" horiz-adv-x="500" d="M249 646 Q300 646 318 669 Q336 692 341 731 L394 722 Q388 657 353.5 626 Q319 595 250 595 Q182 595 148.5 625 Q115 655 105 721 L159 731 Q167 689 185 667.5 Q203 646 249 646 Z " />
<glyph glyph-name="dieresis" unicode="&#xa8;" horiz-adv-x="500" d="M301 653 Q301 672 314 685 Q327 698 349 698 Q372 698 384 685 Q396 672 396 653 Q396 634 383 621.5 Q370 609 349 609 Q327 609 314 621.5 Q301 634 301 653 Z M112 653 Q112 672 125.5 685 Q139 698 160 698 Q183 698 195.5 685 Q208 672 208 653 Q208 634 194.5 621.5 Q181 609 161 609 Q138 609 125 621.5 Q112 634 112 653 Z " />
<glyph glyph-name="macron" unicode="&#xaf;" horiz-adv-x="500" d="M113 679 L387 679 L387 621 L113 621 L113 679 Z " />
<glyph glyph-name="degree" unicode="&#xb0;" horiz-adv-x="311" d="M82 660 Q82 626 103 604 Q124 582 156 582 Q188 582 208.5 604.5 Q229 627 229 660 Q229 692 209 712.5 Q189 733 156 733 Q124 733 103 712.5 Q82 692 82 660 Z M40 659 Q40 683 49 703.5 Q58 724 74 739.5 Q90 755 111 764 Q132 773 156 773 Q180 773 200.5 764 Q221 755 237 739.5 Q253 724 262 703.5 Q271 683 271 659 Q271 635 262 614 Q253 593 237.5 577.5 Q222 562 201 553 Q180 544 156 544 Q132 544 110.5 552.5 Q89 561 73.5 576.5 Q58 592 49 613 Q40 634 40 659 Z " />
</font>
</svg>
