<?xml version="1.0" encoding="UTF-8"?>
<svg xmlns="http://www.w3.org/2000/svg" xmlns:xlink="http://www.w3.org/1999/xlink" version="1.2" >
<font id="NRKEticaSlabSemiCndWebBk">
<font-face  font-family="NRK Etica Slab SemiCnd Web" units-per-em="1000" ascent="1010" descent="-270" font-style="normal" font-weight="400" font-stretch="normal" cap-height="720" x-height="525" underline-position="-75" underline-thickness="50" />
<missing-glyph  horiz-adv-x="178" d="" />
<glyph glyph-name="space" unicode="&#x20;" horiz-adv-x="220" d="" />
<glyph glyph-name="Acircumflex" unicode="&#xc2;" horiz-adv-x="680" d="M657 44 L657 0 L428 0 L428 44 L502 65 L457 220 L215 220 L172 65 L245 44 L245 0 L25 0 L25 44 L97 65 L276 655 L213 675 L213 720 L385 720 L583 65 L657 44 Z M439 284 L402 418 Q385 478 368.5 532.5 Q352 587 336 646 L271 419 L234 284 L439 284 Z M447 784 L418 758 L334 825 L250 757 L220 784 L308 876 L360 876 L447 784 Z " />
<glyph glyph-name="Adieresis" unicode="&#xc4;" horiz-adv-x="680" d="M657 44 L657 0 L428 0 L428 44 L502 65 L457 220 L215 220 L172 65 L245 44 L245 0 L25 0 L25 44 L97 65 L276 655 L213 675 L213 720 L385 720 L583 65 L657 44 Z M439 284 L402 418 Q385 478 368.5 532.5 Q352 587 336 646 L271 419 L234 284 L439 284 Z M246 886 Q268 886 280.5 873 Q293 860 293 840 Q293 821 280 808.5 Q267 796 246 796 Q224 796 210.5 808.5 Q197 821 197 840 Q197 860 210.5 873 Q224 886 246 886 Z M422 886 Q444 886 456.5 873 Q469 860 469 840 Q469 821 456 808.5 Q443 796 422 796 Q400 796 386.5 808.5 Q373 821 373 840 Q373 860 386.5 873 Q400 886 422 886 Z " />
<glyph glyph-name="Agrave" unicode="&#xc0;" horiz-adv-x="680" d="M657 44 L657 0 L428 0 L428 44 L502 65 L457 220 L215 220 L172 65 L245 44 L245 0 L25 0 L25 44 L97 65 L276 655 L213 675 L213 720 L385 720 L583 65 L657 44 Z M439 284 L402 418 Q385 478 368.5 532.5 Q352 587 336 646 L271 419 L234 284 L439 284 Z M430 795 L409 758 L243 842 L275 896 L430 795 Z " />
<glyph glyph-name="Amacron" unicode="&#x100;" horiz-adv-x="680" d="M657 44 L657 0 L428 0 L428 44 L502 65 L457 220 L215 220 L172 65 L245 44 L245 0 L25 0 L25 44 L97 65 L276 655 L213 675 L213 720 L385 720 L583 65 L657 44 Z M439 284 L402 418 Q385 478 368.5 532.5 Q352 587 336 646 L271 419 L234 284 L439 284 Z M459 793 L205 793 L205 848 L459 848 L459 793 Z " />
<glyph glyph-name="Aogonek" unicode="&#x104;" horiz-adv-x="680" d="M665 -191 Q648 -202 625 -212 Q602 -222 576 -222 Q535 -222 514 -200.5 Q493 -179 493 -144 Q493 -104 518 -65 Q543 -26 584 0 L428 0 L428 44 L502 65 L457 220 L215 220 L172 65 L245 44 L245 0 L25 0 L25 44 L97 65 L276 655 L213 675 L213 720 L385 720 L583 65 L657 44 L657 0 Q607 -26 580.5 -63 Q554 -100 554 -132 Q554 -170 593 -170 Q607 -170 619.5 -165.5 Q632 -161 646 -153 L665 -191 Z M439 284 L402 418 Q385 478 368.5 532.5 Q352 587 336 646 L271 419 L234 284 L439 284 Z " />
<glyph glyph-name="Aring" unicode="&#xc5;" horiz-adv-x="680" d="M657 44 L657 0 L428 0 L428 44 L502 65 L458 220 L215 220 L172 65 L245 44 L245 0 L25 0 L25 44 L97 65 L290 698 Q271 707 260 725.5 Q249 744 249 771 Q249 813 275 838 Q301 863 339 863 Q377 863 403 839.5 Q429 816 429 773 Q429 720 389 698 L583 65 L657 44 Z M339 822 Q319 822 307 808.5 Q295 795 295 771 Q295 746 307 734 Q319 722 339 722 Q359 722 371 735.5 Q383 749 383 773 Q383 798 371 810 Q359 822 339 822 Z M440 284 L405 406 Q387 468 369.5 526 Q352 584 335 646 L267 406 L233 284 L440 284 Z " />
<glyph glyph-name="Atilde" unicode="&#xc3;" horiz-adv-x="680" d="M657 44 L657 0 L428 0 L428 44 L502 65 L457 220 L215 220 L172 65 L245 44 L245 0 L25 0 L25 44 L97 65 L276 655 L213 675 L213 720 L385 720 L583 65 L657 44 Z M439 284 L402 418 Q385 478 368.5 532.5 Q352 587 336 646 L271 419 L234 284 L439 284 Z M466 855 Q456 818 437.5 800 Q419 782 394 782 Q377 782 360.5 787.5 Q344 793 329 799 Q314 805 301 810.5 Q288 816 278 816 Q265 816 257.5 809 Q250 802 239 780 L200 796 Q212 834 231.5 852 Q251 870 275 870 Q291 870 306 864.5 Q321 859 335 853 Q349 847 362.5 841.5 Q376 836 389 836 Q402 836 411 842.5 Q420 849 428 870 L466 855 Z " />
<glyph glyph-name="AE" unicode="&#xc6;" horiz-adv-x="920" d="M857 167 L857 0 L374 0 L374 44 L448 65 L448 240 L249 240 L163 65 L233 44 L233 0 L12 0 L12 44 L84 65 L384 654 L314 674 L314 720 L848 720 L848 554 L797 554 L780 654 L526 654 L526 402 L735 402 L735 336 L526 336 L526 65 L788 66 L806 167 L857 167 Z M448 637 L444 637 L280 304 L448 304 L448 637 Z " />
<glyph glyph-name="B" unicode="B" horiz-adv-x="644" d="M346 720 Q457 720 507.5 673.5 Q558 627 558 541 Q558 514 551 487.5 Q544 461 529 438.5 Q514 416 490 400 Q466 384 432 379 L432 377 Q476 373 506 356.5 Q536 340 554.5 316 Q573 292 581 263 Q589 234 589 206 Q589 150 571.5 111 Q554 72 521.5 47 Q489 22 443 11 Q397 0 340 0 L60 0 L60 44 L134 65 L134 654 L60 674 L60 720 L346 720 Z M211 657 L211 404 L319 404 Q351 404 380.5 409.5 Q410 415 432 430 Q454 445 467 470.5 Q480 496 480 536 Q480 603 440.5 630 Q401 657 331 657 L211 657 Z M211 340 L211 63 L355 63 Q433 63 471 102 Q509 141 509 210 Q509 246 497.5 271 Q486 296 464.5 311.5 Q443 327 413 333.5 Q383 340 347 340 L211 340 Z " />
<glyph glyph-name="C" unicode="C" horiz-adv-x="663" d="M373 733 Q480 733 590 676 L590 513 L537 513 L515 633 Q476 650 442 657.5 Q408 665 374 665 Q273 665 212.5 589 Q152 513 152 365 Q152 213 210 135.5 Q268 58 366 58 Q431 58 477 82 Q523 106 561 144 L603 92 Q557 44 497 16 Q437 -12 362 -12 Q287 -12 232 15.5 Q177 43 141 92.5 Q105 142 88 210.5 Q71 279 71 362 Q71 456 94 526 Q117 596 157.5 642 Q198 688 253 710.5 Q308 733 373 733 Z " />
<glyph glyph-name="Cacute" unicode="&#x106;" horiz-adv-x="663" d="M373 733 Q480 733 590 676 L590 513 L537 513 L515 633 Q476 650 442 657.5 Q408 665 374 665 Q273 665 212.5 589 Q152 513 152 365 Q152 213 210 135.5 Q268 58 366 58 Q431 58 477 82 Q523 106 561 144 L603 92 Q557 44 497 16 Q437 -12 362 -12 Q287 -12 232 15.5 Q177 43 141 92.5 Q105 142 88 210.5 Q71 279 71 362 Q71 456 94 526 Q117 596 157.5 642 Q198 688 253 710.5 Q308 733 373 733 Z M478 842 L312 758 L291 795 L446 896 L478 842 Z " />
<glyph glyph-name="Ccaron" unicode="&#x10c;" horiz-adv-x="663" d="M373 733 Q480 733 590 676 L590 513 L537 513 L515 633 Q476 650 442 657.5 Q408 665 374 665 Q273 665 212.5 589 Q152 513 152 365 Q152 213 210 135.5 Q268 58 366 58 Q431 58 477 82 Q523 106 561 144 L603 92 Q557 44 497 16 Q437 -12 362 -12 Q287 -12 232 15.5 Q177 43 141 92.5 Q105 142 88 210.5 Q71 279 71 362 Q71 456 94 526 Q117 596 157.5 642 Q198 688 253 710.5 Q308 733 373 733 Z M359 766 L271 858 L301 885 L385 817 L469 884 L498 858 L411 766 L359 766 Z " />
<glyph glyph-name="Ccedilla" unicode="&#xc7;" horiz-adv-x="663" d="M603 92 Q560 47 505 19.5 Q450 -8 381 -11 L372 -57 Q386 -58 399.5 -61.5 Q413 -65 424 -73.5 Q435 -82 442 -94.5 Q449 -107 449 -126 Q449 -169 423 -188.5 Q397 -208 359 -208 Q335 -208 313.5 -202 Q292 -196 281 -191 L292 -152 Q306 -157 321.5 -161 Q337 -165 354 -165 Q371 -165 385 -158 Q399 -151 399 -128 Q399 -106 382.5 -99 Q366 -92 334 -92 L323 -92 L340 -11 Q270 -7 219.5 21.5 Q169 50 136 99 Q103 148 87 215 Q71 282 71 362 Q71 456 94 526 Q117 596 157.5 642 Q198 688 253 710.5 Q308 733 373 733 Q480 733 590 676 L590 513 L537 513 L515 633 Q476 650 442 657.5 Q408 665 374 665 Q273 665 212.5 589 Q152 513 152 365 Q152 213 210 135.5 Q268 58 366 58 Q431 58 477 82 Q523 106 561 144 L603 92 Z " />
<glyph glyph-name="Ccircumflex" unicode="&#x108;" horiz-adv-x="663" d="M373 733 Q480 733 590 676 L590 513 L537 513 L515 633 Q476 650 442 657.5 Q408 665 374 665 Q273 665 212.5 589 Q152 513 152 365 Q152 213 210 135.5 Q268 58 366 58 Q431 58 477 82 Q523 106 561 144 L603 92 Q557 44 497 16 Q437 -12 362 -12 Q287 -12 232 15.5 Q177 43 141 92.5 Q105 142 88 210.5 Q71 279 71 362 Q71 456 94 526 Q117 596 157.5 642 Q198 688 253 710.5 Q308 733 373 733 Z M498 784 L469 758 L385 825 L301 757 L271 784 L359 876 L411 876 L498 784 Z " />
<glyph glyph-name="Cdotaccent" unicode="&#x10a;" horiz-adv-x="663" d="M373 733 Q480 733 590 676 L590 513 L537 513 L515 633 Q476 650 442 657.5 Q408 665 374 665 Q273 665 212.5 589 Q152 513 152 365 Q152 213 210 135.5 Q268 58 366 58 Q431 58 477 82 Q523 106 561 144 L603 92 Q557 44 497 16 Q437 -12 362 -12 Q287 -12 232 15.5 Q177 43 141 92.5 Q105 142 88 210.5 Q71 279 71 362 Q71 456 94 526 Q117 596 157.5 642 Q198 688 253 710.5 Q308 733 373 733 Z M384 872 Q406 872 421 859 Q436 846 436 824 Q436 802 421.5 789.5 Q407 777 384 777 Q362 777 346.5 789.5 Q331 802 331 824 Q331 846 346.5 859 Q362 872 384 872 Z " />
<glyph glyph-name="D" unicode="D" horiz-adv-x="703" d="M305 720 Q465 720 548 632.5 Q631 545 631 359 Q631 260 608 191.5 Q585 123 541 80.5 Q497 38 434 19 Q371 0 291 0 L60 0 L60 44 L134 65 L134 654 L60 674 L60 720 L305 720 Z M212 67 L307 67 Q434 67 492.5 140 Q551 213 551 359 Q551 429 537.5 484 Q524 539 495 576.5 Q466 614 420 633.5 Q374 653 310 653 L212 653 L212 67 Z " />
<glyph glyph-name="Eth" unicode="&#xd0;" horiz-adv-x="706" d="M308 720 Q468 720 551 632.5 Q634 545 634 359 Q634 260 611 191.5 Q588 123 544 80.5 Q500 38 437 19 Q374 0 294 0 L63 0 L63 44 L137 65 L137 334 L69 334 L69 395 L137 395 L137 654 L63 674 L63 720 L308 720 Z M310 67 Q437 67 495.5 140 Q554 213 554 359 Q554 429 540.5 484 Q527 539 498 576.5 Q469 614 423 633.5 Q377 653 313 653 L215 653 L215 395 L374 395 L374 334 L215 334 L215 67 L310 67 Z " />
<glyph glyph-name="Dcaron" unicode="&#x10e;" horiz-adv-x="703" d="M305 720 Q465 720 548 632.5 Q631 545 631 359 Q631 260 608 191.5 Q585 123 541 80.5 Q497 38 434 19 Q371 0 291 0 L60 0 L60 44 L134 65 L134 654 L60 674 L60 720 L305 720 Z M212 67 L307 67 Q434 67 492.5 140 Q551 213 551 359 Q551 429 537.5 484 Q524 539 495 576.5 Q466 614 420 633.5 Q374 653 310 653 L212 653 L212 67 Z M327 766 L239 858 L269 885 L353 817 L437 884 L466 858 L379 766 L327 766 Z " />
<glyph glyph-name="Dcroat" unicode="&#x110;" horiz-adv-x="706" d="M308 720 Q468 720 551 632.5 Q634 545 634 359 Q634 260 611 191.5 Q588 123 544 80.5 Q500 38 437 19 Q374 0 294 0 L63 0 L63 44 L137 65 L137 334 L69 334 L69 395 L137 395 L137 654 L63 674 L63 720 L308 720 Z M310 67 Q437 67 495.5 140 Q554 213 554 359 Q554 429 540.5 484 Q527 539 498 576.5 Q469 614 423 633.5 Q377 653 313 653 L215 653 L215 395 L374 395 L374 334 L215 334 L215 67 L310 67 Z " />
<glyph glyph-name="E" unicode="E" horiz-adv-x="613" d="M542 554 L491 554 L473 654 L212 654 L212 402 L428 402 L428 337 L212 337 L212 65 L481 66 L499 167 L550 167 L550 0 L60 0 L60 44 L134 65 L134 654 L60 674 L60 720 L542 720 L542 554 Z " />
<glyph glyph-name="Eacute" unicode="&#xc9;" horiz-adv-x="613" d="M542 554 L491 554 L473 654 L212 654 L212 402 L428 402 L428 337 L212 337 L212 65 L481 66 L499 167 L550 167 L550 0 L60 0 L60 44 L134 65 L134 654 L60 674 L60 720 L542 720 L542 554 Z M413 842 L247 758 L226 795 L381 896 L413 842 Z " />
<glyph glyph-name="Ebreve" unicode="&#x114;" horiz-adv-x="613" d="M542 554 L491 554 L473 654 L212 654 L212 402 L428 402 L428 337 L212 337 L212 65 L481 66 L499 167 L550 167 L550 0 L60 0 L60 44 L134 65 L134 654 L60 674 L60 720 L542 720 L542 554 Z M427 870 Q420 816 394.5 789.5 Q369 763 318 763 Q268 763 242 789.5 Q216 816 210 870 L256 879 Q261 845 275 829 Q289 813 318 813 Q347 813 361.5 829 Q376 845 381 879 L427 870 Z " />
<glyph glyph-name="Ecaron" unicode="&#x11a;" horiz-adv-x="613" d="M542 554 L491 554 L473 654 L212 654 L212 402 L428 402 L428 337 L212 337 L212 65 L481 66 L499 167 L550 167 L550 0 L60 0 L60 44 L134 65 L134 654 L60 674 L60 720 L542 720 L542 554 Z M294 766 L206 858 L236 885 L320 817 L404 884 L433 858 L346 766 L294 766 Z " />
<glyph glyph-name="Ecircumflex" unicode="&#xca;" horiz-adv-x="613" d="M542 554 L491 554 L473 654 L212 654 L212 402 L428 402 L428 337 L212 337 L212 65 L481 66 L499 167 L550 167 L550 0 L60 0 L60 44 L134 65 L134 654 L60 674 L60 720 L542 720 L542 554 Z M433 784 L404 758 L320 825 L236 757 L206 784 L294 876 L346 876 L433 784 Z " />
<glyph glyph-name="Edieresis" unicode="&#xcb;" horiz-adv-x="613" d="M542 554 L491 554 L473 654 L212 654 L212 402 L428 402 L428 337 L212 337 L212 65 L481 66 L499 167 L550 167 L550 0 L60 0 L60 44 L134 65 L134 654 L60 674 L60 720 L542 720 L542 554 Z M232 886 Q254 886 266.5 873 Q279 860 279 840 Q279 821 266 808.5 Q253 796 232 796 Q210 796 196.5 808.5 Q183 821 183 840 Q183 860 196.5 873 Q210 886 232 886 Z M408 886 Q430 886 442.5 873 Q455 860 455 840 Q455 821 442 808.5 Q429 796 408 796 Q386 796 372.5 808.5 Q359 821 359 840 Q359 860 372.5 873 Q386 886 408 886 Z " />
<glyph glyph-name="Edotaccent" unicode="&#x116;" horiz-adv-x="613" d="M542 554 L491 554 L473 654 L212 654 L212 402 L428 402 L428 337 L212 337 L212 65 L481 66 L499 167 L550 167 L550 0 L60 0 L60 44 L134 65 L134 654 L60 674 L60 720 L542 720 L542 554 Z M319 872 Q341 872 356 859 Q371 846 371 824 Q371 802 356.5 789.5 Q342 777 319 777 Q297 777 281.5 789.5 Q266 802 266 824 Q266 846 281.5 859 Q297 872 319 872 Z " />
<glyph glyph-name="Egrave" unicode="&#xc8;" horiz-adv-x="613" d="M542 554 L491 554 L473 654 L212 654 L212 402 L428 402 L428 337 L212 337 L212 65 L481 66 L499 167 L550 167 L550 0 L60 0 L60 44 L134 65 L134 654 L60 674 L60 720 L542 720 L542 554 Z M416 795 L395 758 L229 842 L261 896 L416 795 Z " />
<glyph glyph-name="Emacron" unicode="&#x112;" horiz-adv-x="613" d="M542 554 L491 554 L473 654 L212 654 L212 402 L428 402 L428 337 L212 337 L212 65 L481 66 L499 167 L550 167 L550 0 L60 0 L60 44 L134 65 L134 654 L60 674 L60 720 L542 720 L542 554 Z M444 793 L190 793 L190 848 L444 848 L444 793 Z " />
<glyph glyph-name="Eogonek" unicode="&#x118;" horiz-adv-x="613" d="M557 -191 Q540 -202 517 -212 Q494 -222 468 -222 Q427 -222 406 -200.5 Q385 -179 385 -144 Q385 -104 410 -65 Q435 -26 476 0 L60 0 L60 44 L134 65 L134 654 L60 674 L60 720 L542 720 L542 554 L491 554 L473 654 L212 654 L212 402 L428 402 L428 337 L212 337 L212 65 L481 66 L499 167 L550 167 L550 0 L549 0 Q499 -26 472.5 -63 Q446 -100 446 -132 Q446 -170 485 -170 Q499 -170 511.5 -165.5 Q524 -161 538 -153 L557 -191 Z " />
<glyph glyph-name="F" unicode="F" horiz-adv-x="585" d="M530 549 L479 549 L462 654 L212 654 L212 397 L420 397 L420 333 L212 333 L212 66 L310 45 L311 0 L60 0 L60 44 L134 65 L134 654 L60 674 L60 720 L530 720 L530 549 Z " />
<glyph glyph-name="G" unicode="G" horiz-adv-x="701" d="M382 733 Q492 733 600 678 L600 515 L546 515 L521 637 Q450 666 385 666 Q334 666 291.5 648.5 Q249 631 218 594 Q187 557 170 500.5 Q153 444 153 365 Q153 284 169 226 Q185 168 213.5 130 Q242 92 282.5 74 Q323 56 372 56 Q410 56 450.5 64 Q491 72 533 89 L533 274 L425 291 L425 336 L657 336 L657 291 L603 274 L603 47 Q490 -12 368 -12 Q302 -12 247 10 Q192 32 153 78.5 Q114 125 92.5 195.5 Q71 266 71 364 Q71 458 94.5 527.5 Q118 597 159.5 642.5 Q201 688 258 710.5 Q315 733 382 733 Z " />
<glyph glyph-name="Gbreve" unicode="&#x11e;" horiz-adv-x="701" d="M382 733 Q492 733 600 678 L600 515 L546 515 L521 637 Q450 666 385 666 Q334 666 291.5 648.5 Q249 631 218 594 Q187 557 170 500.5 Q153 444 153 365 Q153 284 169 226 Q185 168 213.5 130 Q242 92 282.5 74 Q323 56 372 56 Q410 56 450.5 64 Q491 72 533 89 L533 274 L425 291 L425 336 L657 336 L657 291 L603 274 L603 47 Q490 -12 368 -12 Q302 -12 247 10 Q192 32 153 78.5 Q114 125 92.5 195.5 Q71 266 71 364 Q71 458 94.5 527.5 Q118 597 159.5 642.5 Q201 688 258 710.5 Q315 733 382 733 Z M495 870 Q488 816 462.5 789.5 Q437 763 386 763 Q336 763 310 789.5 Q284 816 278 870 L324 879 Q329 845 343 829 Q357 813 386 813 Q415 813 429.5 829 Q444 845 449 879 L495 870 Z " />
<glyph glyph-name="Gcircumflex" unicode="&#x11c;" horiz-adv-x="701" d="M382 733 Q492 733 600 678 L600 515 L546 515 L521 637 Q450 666 385 666 Q334 666 291.5 648.5 Q249 631 218 594 Q187 557 170 500.5 Q153 444 153 365 Q153 284 169 226 Q185 168 213.5 130 Q242 92 282.5 74 Q323 56 372 56 Q410 56 450.5 64 Q491 72 533 89 L533 274 L425 291 L425 336 L657 336 L657 291 L603 274 L603 47 Q490 -12 368 -12 Q302 -12 247 10 Q192 32 153 78.5 Q114 125 92.5 195.5 Q71 266 71 364 Q71 458 94.5 527.5 Q118 597 159.5 642.5 Q201 688 258 710.5 Q315 733 382 733 Z M501 784 L472 758 L388 825 L304 757 L274 784 L362 876 L414 876 L501 784 Z " />
<glyph glyph-name="Gcommaaccent" unicode="&#x122;" horiz-adv-x="701" d="M382 733 Q492 733 600 678 L600 515 L546 515 L521 637 Q450 666 385 666 Q334 666 291.5 648.5 Q249 631 218 594 Q187 557 170 500.5 Q153 444 153 365 Q153 284 169 226 Q185 168 213.5 130 Q242 92 282.5 74 Q323 56 372 56 Q410 56 450.5 64 Q491 72 533 89 L533 274 L425 291 L425 336 L657 336 L657 291 L603 274 L603 47 Q490 -12 368 -12 Q302 -12 247 10 Q192 32 153 78.5 Q114 125 92.5 195.5 Q71 266 71 364 Q71 458 94.5 527.5 Q118 597 159.5 642.5 Q201 688 258 710.5 Q315 733 382 733 Z M419 -72 L361 -230 L315 -218 L355 -58 L419 -72 Z " />
<glyph glyph-name="Gdotaccent" unicode="&#x120;" horiz-adv-x="701" d="M382 733 Q492 733 600 678 L600 515 L546 515 L521 637 Q450 666 385 666 Q334 666 291.5 648.5 Q249 631 218 594 Q187 557 170 500.5 Q153 444 153 365 Q153 284 169 226 Q185 168 213.5 130 Q242 92 282.5 74 Q323 56 372 56 Q410 56 450.5 64 Q491 72 533 89 L533 274 L425 291 L425 336 L657 336 L657 291 L603 274 L603 47 Q490 -12 368 -12 Q302 -12 247 10 Q192 32 153 78.5 Q114 125 92.5 195.5 Q71 266 71 364 Q71 458 94.5 527.5 Q118 597 159.5 642.5 Q201 688 258 710.5 Q315 733 382 733 Z M387 872 Q409 872 424 859 Q439 846 439 824 Q439 802 424.5 789.5 Q410 777 387 777 Q365 777 349.5 789.5 Q334 802 334 824 Q334 846 349.5 859 Q365 872 387 872 Z " />
<glyph glyph-name="H" unicode="H" horiz-adv-x="735" d="M675 674 L600 654 L600 65 L675 44 L675 0 L449 0 L449 44 L523 65 L523 343 L212 343 L212 65 L286 44 L286 0 L60 0 L60 44 L134 65 L134 654 L60 674 L60 720 L286 720 L286 674 L212 654 L212 409 L523 409 L523 654 L449 674 L449 720 L675 720 L675 674 Z " />
<glyph glyph-name="Hbar" unicode="&#x126;" horiz-adv-x="746" d="M605 512 L605 65 L680 44 L680 0 L454 0 L454 44 L528 65 L528 343 L217 343 L217 65 L291 44 L291 0 L65 0 L65 44 L139 65 L139 512 L66 512 L66 573 L139 573 L139 654 L65 674 L65 720 L291 720 L291 674 L217 654 L217 573 L528 573 L528 654 L454 674 L454 720 L680 720 L680 674 L605 654 L605 573 L681 573 L681 512 L605 512 Z M528 512 L217 512 L217 409 L528 409 L528 512 Z " />
<glyph glyph-name="Hcircumflex" unicode="&#x124;" horiz-adv-x="735" d="M675 674 L600 654 L600 65 L675 44 L675 0 L449 0 L449 44 L523 65 L523 343 L212 343 L212 65 L286 44 L286 0 L60 0 L60 44 L134 65 L134 654 L60 674 L60 720 L286 720 L286 674 L212 654 L212 409 L523 409 L523 654 L449 674 L449 720 L675 720 L675 674 Z M479 784 L450 758 L366 825 L282 757 L252 784 L340 876 L392 876 L479 784 Z " />
<glyph glyph-name="I" unicode="I" horiz-adv-x="346" d="M286 676 L212 655 L212 65 L286 44 L286 0 L60 0 L60 44 L134 65 L134 655 L60 676 L60 720 L286 720 L286 676 Z " />
<glyph glyph-name="IJ" unicode="&#x132;" horiz-adv-x="831" d="M286 676 L212 655 L212 65 L286 44 L286 0 L60 0 L60 44 L134 65 L134 655 L60 676 L60 720 L286 720 L286 676 Z M776 674 L702 654 L702 151 Q702 63 656.5 26 Q611 -11 534 -11 Q502 -11 467.5 -6 Q433 -1 397 8 L397 170 L447 170 L465 60 Q485 58 501 56.5 Q517 55 531 55 Q585 55 604.5 80 Q624 105 624 164 L624 654 L530 674 L530 720 L776 720 L776 674 Z " />
<glyph glyph-name="Iacute" unicode="&#xcd;" horiz-adv-x="346" d="M267 842 L101 758 L80 795 L235 896 L267 842 Z M286 676 L212 655 L212 65 L286 44 L286 0 L60 0 L60 44 L134 65 L134 655 L60 676 L60 720 L286 720 L286 676 Z " />
<glyph glyph-name="Ibreve" unicode="&#x12c;" horiz-adv-x="346" d="M286 676 L212 655 L212 65 L286 44 L286 0 L60 0 L60 44 L134 65 L134 655 L60 676 L60 720 L286 720 L286 676 Z M281 870 Q274 816 248.5 789.5 Q223 763 172 763 Q122 763 96 789.5 Q70 816 64 870 L110 879 Q115 845 129 829 Q143 813 172 813 Q201 813 215.5 829 Q230 845 235 879 L281 870 Z " />
<glyph glyph-name="Icircumflex" unicode="&#xce;" horiz-adv-x="346" d="M286 676 L212 655 L212 65 L286 44 L286 0 L60 0 L60 44 L134 65 L134 655 L60 676 L60 720 L286 720 L286 676 Z M287 784 L258 758 L174 825 L90 757 L60 784 L148 876 L200 876 L287 784 Z " />
<glyph glyph-name="Idieresis" unicode="&#xcf;" horiz-adv-x="346" d="M286 676 L212 655 L212 65 L286 44 L286 0 L60 0 L60 44 L134 65 L134 655 L60 676 L60 720 L286 720 L286 676 Z M86 886 Q108 886 120.5 873 Q133 860 133 840 Q133 821 120 808.5 Q107 796 86 796 Q64 796 50.5 808.5 Q37 821 37 840 Q37 860 50.5 873 Q64 886 86 886 Z M262 886 Q284 886 296.5 873 Q309 860 309 840 Q309 821 296 808.5 Q283 796 262 796 Q240 796 226.5 808.5 Q213 821 213 840 Q213 860 226.5 873 Q240 886 262 886 Z " />
<glyph glyph-name="Idotaccent" unicode="&#x130;" horiz-adv-x="346" d="M286 676 L212 655 L212 65 L286 44 L286 0 L60 0 L60 44 L134 65 L134 655 L60 676 L60 720 L286 720 L286 676 Z M173 872 Q195 872 210 859 Q225 846 225 824 Q225 802 210.5 789.5 Q196 777 173 777 Q151 777 135.5 789.5 Q120 802 120 824 Q120 846 135.5 859 Q151 872 173 872 Z " />
<glyph glyph-name="Igrave" unicode="&#xcc;" horiz-adv-x="346" d="M286 676 L212 655 L212 65 L286 44 L286 0 L60 0 L60 44 L134 65 L134 655 L60 676 L60 720 L286 720 L286 676 Z M270 795 L249 758 L83 842 L115 896 L270 795 Z " />
<glyph glyph-name="Imacron" unicode="&#x12a;" horiz-adv-x="346" d="M286 676 L212 655 L212 65 L286 44 L286 0 L60 0 L60 44 L134 65 L134 655 L60 676 L60 720 L286 720 L286 676 Z M299 793 L45 793 L45 848 L299 848 L299 793 Z " />
<glyph glyph-name="Iogonek" unicode="&#x12e;" horiz-adv-x="346" d="M293 -191 Q276 -202 253 -212 Q230 -222 204 -222 Q163 -222 142 -200.5 Q121 -179 121 -144 Q121 -104 146 -65 Q171 -26 212 0 L60 0 L60 44 L134 65 L134 655 L60 676 L60 720 L286 720 L286 676 L212 655 L212 65 L286 44 L286 0 L285 0 Q235 -26 208.5 -63 Q182 -100 182 -132 Q182 -170 221 -170 Q235 -170 247.5 -165.5 Q260 -161 274 -153 L293 -191 Z " />
<glyph glyph-name="Itilde" unicode="&#x128;" horiz-adv-x="346" d="M286 676 L212 655 L212 65 L286 44 L286 0 L60 0 L60 44 L134 65 L134 655 L60 676 L60 720 L286 720 L286 676 Z M306 855 Q296 818 277.5 800 Q259 782 234 782 Q217 782 200.5 787.5 Q184 793 169 799 Q154 805 141 810.5 Q128 816 118 816 Q105 816 97.5 809 Q90 802 79 780 L40 796 Q52 834 71.5 852 Q91 870 115 870 Q131 870 146 864.5 Q161 859 175 853 Q189 847 202.5 841.5 Q216 836 229 836 Q242 836 251 842.5 Q260 849 268 870 L306 855 Z " />
<glyph glyph-name="J" unicode="J" horiz-adv-x="489" d="M434 674 L360 654 L360 151 Q360 63 314.5 26 Q269 -11 192 -11 Q160 -11 125.5 -6 Q91 -1 55 8 L55 170 L105 170 L123 60 Q143 58 159 56.5 Q175 55 189 55 Q243 55 262.5 80 Q282 105 282 164 L282 654 L188 674 L188 720 L434 720 L434 674 Z " />
<glyph glyph-name="Jcircumflex" unicode="&#x134;" horiz-adv-x="489" d="M434 674 L360 654 L360 151 Q360 63 314.5 26 Q269 -11 192 -11 Q160 -11 125.5 -6 Q91 -1 55 8 L55 170 L105 170 L123 60 Q143 58 159 56.5 Q175 55 189 55 Q243 55 262.5 80 Q282 105 282 164 L282 654 L188 674 L188 720 L434 720 L434 674 Z M424 784 L395 758 L311 825 L227 757 L197 784 L285 876 L337 876 L424 784 Z " />
<glyph glyph-name="K" unicode="K" horiz-adv-x="650" d="M595 674 L529 654 L382 373 L552 65 L618 44 L618 0 L503 0 L317 337 L212 337 L212 65 L286 44 L286 0 L60 0 L60 44 L134 65 L134 654 L60 674 L60 720 L285 720 L285 676 L212 654 L212 403 L319 403 L451 654 L389 676 L389 720 L595 720 L595 674 Z " />
<glyph glyph-name="Kcommaaccent" unicode="&#x136;" horiz-adv-x="650" d="M595 674 L529 654 L382 373 L552 65 L618 44 L618 0 L503 0 L317 337 L212 337 L212 65 L286 44 L286 0 L60 0 L60 44 L134 65 L134 654 L60 674 L60 720 L285 720 L285 676 L212 654 L212 403 L319 403 L451 654 L389 676 L389 720 L595 720 L595 674 Z M388 -72 L330 -230 L284 -218 L324 -58 L388 -72 Z " />
<glyph glyph-name="L" unicode="L" horiz-adv-x="560" d="M306 675 L212 654 L212 66 L446 66 L463 177 L514 177 L514 0 L60 0 L60 45 L134 66 L134 654 L60 675 L60 720 L306 720 L306 675 Z " />
<glyph glyph-name="Lacute" unicode="&#x139;" horiz-adv-x="560" d="M306 675 L212 654 L212 66 L446 66 L463 177 L514 177 L514 0 L60 0 L60 45 L134 66 L134 654 L60 675 L60 720 L306 720 L306 675 Z M268 842 L102 758 L81 795 L236 896 L268 842 Z " />
<glyph glyph-name="Lcaron" unicode="&#x13d;" horiz-adv-x="575" d="M306 675 L212 654 L212 66 L446 66 L463 177 L514 177 L514 0 L60 0 L60 45 L134 66 L134 654 L60 675 L60 720 L306 720 L306 675 Z M386 535 L336 535 L369 721 L437 721 L386 535 Z " />
<glyph glyph-name="Lcommaaccent" unicode="&#x13b;" horiz-adv-x="560" d="M306 675 L212 654 L212 66 L446 66 L463 177 L514 177 L514 0 L60 0 L60 45 L134 66 L134 654 L60 675 L60 720 L306 720 L306 675 Z M360 -72 L302 -230 L256 -218 L296 -58 L360 -72 Z " />
<glyph glyph-name="Ldot" unicode="&#x13f;" horiz-adv-x="580" d="M306 675 L212 654 L212 66 L446 66 L463 177 L514 177 L514 0 L60 0 L60 45 L134 66 L134 654 L60 675 L60 720 L306 720 L306 675 Z M370 436 Q394 436 409 422.5 Q424 409 424 384 Q424 359 409 344.5 Q394 330 370 330 Q346 330 331 344.5 Q316 359 316 383 Q316 409 331.5 422.5 Q347 436 370 436 Z " />
<glyph glyph-name="Lslash" unicode="&#x141;" horiz-adv-x="565" d="M514 177 L514 0 L60 0 L60 45 L134 66 L134 290 L66 263 L66 330 L134 357 L134 654 L60 675 L60 720 L306 720 L306 675 L212 654 L212 386 L410 463 L410 397 L212 318 L212 66 L446 66 L463 177 L514 177 Z " />
<glyph glyph-name="M" unicode="M" horiz-adv-x="950" d="M840 674 L764 653 L820 66 L895 44 L895 0 L671 0 L671 44 L746 66 L701 625 L700 625 Q689 588 677.5 544.5 Q666 501 655 466 L510 0 L437 0 L291 464 Q280 500 268.5 542 Q257 584 247 625 L246 625 L205 66 L280 44 L280 0 L55 0 L55 44 L130 66 L182 653 L107 674 L107 720 L285 720 L427 250 Q438 214 449 175.5 Q460 137 471 100 L477 100 Q488 138 499 176 Q510 214 521 251 L664 720 L840 720 L840 674 Z " />
<glyph glyph-name="N" unicode="N" horiz-adv-x="765" d="M710 676 L632 655 L632 0 L560 0 L248 517 Q238 534 227.5 555.5 Q217 577 209 596 L207 596 L207 65 L281 44 L281 0 L60 0 L60 44 L138 65 L138 654 L60 675 L60 720 L209 720 L518 214 Q530 193 540.5 172.5 Q551 152 562 130 L563 130 L563 655 L488 676 L488 720 L710 720 L710 676 Z " />
<glyph glyph-name="Nacute" unicode="&#x143;" horiz-adv-x="765" d="M710 676 L632 655 L632 0 L560 0 L248 517 Q238 534 227.5 555.5 Q217 577 209 596 L207 596 L207 65 L281 44 L281 0 L60 0 L60 44 L138 65 L138 654 L60 675 L60 720 L209 720 L518 214 Q530 193 540.5 172.5 Q551 152 562 130 L563 130 L563 655 L488 676 L488 720 L710 720 L710 676 Z M474 842 L308 758 L287 795 L442 896 L474 842 Z " />
<glyph glyph-name="Ncaron" unicode="&#x147;" horiz-adv-x="765" d="M710 676 L632 655 L632 0 L560 0 L248 517 Q238 534 227.5 555.5 Q217 577 209 596 L207 596 L207 65 L281 44 L281 0 L60 0 L60 44 L138 65 L138 654 L60 675 L60 720 L209 720 L518 214 Q530 193 540.5 172.5 Q551 152 562 130 L563 130 L563 655 L488 676 L488 720 L710 720 L710 676 Z M355 766 L267 858 L297 885 L381 817 L465 884 L494 858 L407 766 L355 766 Z " />
<glyph glyph-name="Ncommaaccent" unicode="&#x145;" horiz-adv-x="765" d="M710 676 L632 655 L632 0 L560 0 L248 517 Q238 534 227.5 555.5 Q217 577 209 596 L207 596 L207 65 L281 44 L281 0 L60 0 L60 44 L138 65 L138 654 L60 675 L60 720 L209 720 L518 214 Q530 193 540.5 172.5 Q551 152 562 130 L563 130 L563 655 L488 676 L488 720 L710 720 L710 676 Z M427 -72 L369 -230 L323 -218 L363 -58 L427 -72 Z " />
<glyph glyph-name="Eng" unicode="&#x14a;" horiz-adv-x="765" d="M710 720 L710 676 L632 655 L632 -63 Q632 -92 625.5 -117.5 Q619 -143 604 -162 Q589 -181 563.5 -192 Q538 -203 500 -203 Q487 -203 471.5 -201.5 Q456 -200 441.5 -197.5 Q427 -195 414.5 -191.5 Q402 -188 395 -185 L408 -127 Q419 -131 441.5 -136 Q464 -141 489 -141 Q524 -141 542.5 -122.5 Q561 -104 561 -58 L561 3 L269 485 Q252 512 236.5 539.5 Q221 567 207 596 L207 65 L281 44 L281 0 L60 0 L60 44 L138 65 L138 654 L60 675 L60 720 L208 720 L504 234 Q534 185 563 132 L563 655 L488 676 L488 720 L710 720 Z " />
<glyph glyph-name="Ntilde" unicode="&#xd1;" horiz-adv-x="765" d="M710 676 L632 655 L632 0 L560 0 L248 517 Q238 534 227.5 555.5 Q217 577 209 596 L207 596 L207 65 L281 44 L281 0 L60 0 L60 44 L138 65 L138 654 L60 675 L60 720 L209 720 L518 214 Q530 193 540.5 172.5 Q551 152 562 130 L563 130 L563 655 L488 676 L488 720 L710 720 L710 676 Z M513 855 Q503 818 484.5 800 Q466 782 441 782 Q424 782 407.5 787.5 Q391 793 376 799 Q361 805 348 810.5 Q335 816 325 816 Q312 816 304.5 809 Q297 802 286 780 L247 796 Q259 834 278.5 852 Q298 870 322 870 Q338 870 353 864.5 Q368 859 382 853 Q396 847 409.5 841.5 Q423 836 436 836 Q449 836 458 842.5 Q467 849 475 870 L513 855 Z " />
<glyph glyph-name="O" unicode="O" horiz-adv-x="734" d="M371 733 Q435 733 488.5 711 Q542 689 580.5 644 Q619 599 640.5 530.5 Q662 462 662 368 Q662 266 640 194 Q618 122 579 76.5 Q540 31 485.5 9.5 Q431 -12 366 -12 Q300 -12 245.5 9.5 Q191 31 152.5 77 Q114 123 92.5 195 Q71 267 71 368 Q71 462 93 530.5 Q115 599 154.5 644 Q194 689 249 711 Q304 733 371 733 Z M368 664 Q269 664 211 591 Q153 518 153 368 Q153 286 168 227 Q183 168 211.5 130 Q240 92 280 74 Q320 56 370 56 Q418 56 457 74 Q496 92 523 129.5 Q550 167 565 226 Q580 285 580 368 Q580 519 522.5 591.5 Q465 664 368 664 Z " />
<glyph glyph-name="Oacute" unicode="&#xd3;" horiz-adv-x="734" d="M371 733 Q435 733 488.5 711 Q542 689 580.5 644 Q619 599 640.5 530.5 Q662 462 662 368 Q662 266 640 194 Q618 122 579 76.5 Q540 31 485.5 9.5 Q431 -12 366 -12 Q300 -12 245.5 9.5 Q191 31 152.5 77 Q114 123 92.5 195 Q71 267 71 368 Q71 462 93 530.5 Q115 599 154.5 644 Q194 689 249 711 Q304 733 371 733 Z M368 664 Q269 664 211 591 Q153 518 153 368 Q153 286 168 227 Q183 168 211.5 130 Q240 92 280 74 Q320 56 370 56 Q418 56 457 74 Q496 92 523 129.5 Q550 167 565 226 Q580 285 580 368 Q580 519 522.5 591.5 Q465 664 368 664 Z M468 842 L302 758 L281 795 L436 896 L468 842 Z " />
<glyph glyph-name="Obreve" unicode="&#x14e;" horiz-adv-x="734" d="M371 733 Q435 733 488.5 711 Q542 689 580.5 644 Q619 599 640.5 530.5 Q662 462 662 368 Q662 266 640 194 Q618 122 579 76.5 Q540 31 485.5 9.5 Q431 -12 366 -12 Q300 -12 245.5 9.5 Q191 31 152.5 77 Q114 123 92.5 195 Q71 267 71 368 Q71 462 93 530.5 Q115 599 154.5 644 Q194 689 249 711 Q304 733 371 733 Z M368 664 Q269 664 211 591 Q153 518 153 368 Q153 286 168 227 Q183 168 211.5 130 Q240 92 280 74 Q320 56 370 56 Q418 56 457 74 Q496 92 523 129.5 Q550 167 565 226 Q580 285 580 368 Q580 519 522.5 591.5 Q465 664 368 664 Z M482 870 Q475 816 449.5 789.5 Q424 763 373 763 Q323 763 297 789.5 Q271 816 265 870 L311 879 Q316 845 330 829 Q344 813 373 813 Q402 813 416.5 829 Q431 845 436 879 L482 870 Z " />
<glyph glyph-name="Ocircumflex" unicode="&#xd4;" horiz-adv-x="734" d="M371 733 Q435 733 488.5 711 Q542 689 580.5 644 Q619 599 640.5 530.5 Q662 462 662 368 Q662 266 640 194 Q618 122 579 76.5 Q540 31 485.5 9.5 Q431 -12 366 -12 Q300 -12 245.5 9.5 Q191 31 152.5 77 Q114 123 92.5 195 Q71 267 71 368 Q71 462 93 530.5 Q115 599 154.5 644 Q194 689 249 711 Q304 733 371 733 Z M368 664 Q269 664 211 591 Q153 518 153 368 Q153 286 168 227 Q183 168 211.5 130 Q240 92 280 74 Q320 56 370 56 Q418 56 457 74 Q496 92 523 129.5 Q550 167 565 226 Q580 285 580 368 Q580 519 522.5 591.5 Q465 664 368 664 Z M488 784 L459 758 L375 825 L291 757 L261 784 L349 876 L401 876 L488 784 Z " />
<glyph glyph-name="Odieresis" unicode="&#xd6;" horiz-adv-x="734" d="M371 733 Q435 733 488.5 711 Q542 689 580.5 644 Q619 599 640.5 530.5 Q662 462 662 368 Q662 266 640 194 Q618 122 579 76.5 Q540 31 485.5 9.5 Q431 -12 366 -12 Q300 -12 245.5 9.5 Q191 31 152.5 77 Q114 123 92.5 195 Q71 267 71 368 Q71 462 93 530.5 Q115 599 154.5 644 Q194 689 249 711 Q304 733 371 733 Z M368 664 Q269 664 211 591 Q153 518 153 368 Q153 286 168 227 Q183 168 211.5 130 Q240 92 280 74 Q320 56 370 56 Q418 56 457 74 Q496 92 523 129.5 Q550 167 565 226 Q580 285 580 368 Q580 519 522.5 591.5 Q465 664 368 664 Z M287 886 Q309 886 321.5 873 Q334 860 334 840 Q334 821 321 808.5 Q308 796 287 796 Q265 796 251.5 808.5 Q238 821 238 840 Q238 860 251.5 873 Q265 886 287 886 Z M463 886 Q485 886 497.5 873 Q510 860 510 840 Q510 821 497 808.5 Q484 796 463 796 Q441 796 427.5 808.5 Q414 821 414 840 Q414 860 427.5 873 Q441 886 463 886 Z " />
<glyph glyph-name="Ograve" unicode="&#xd2;" horiz-adv-x="734" d="M371 733 Q435 733 488.5 711 Q542 689 580.5 644 Q619 599 640.5 530.5 Q662 462 662 368 Q662 266 640 194 Q618 122 579 76.5 Q540 31 485.5 9.5 Q431 -12 366 -12 Q300 -12 245.5 9.5 Q191 31 152.5 77 Q114 123 92.5 195 Q71 267 71 368 Q71 462 93 530.5 Q115 599 154.5 644 Q194 689 249 711 Q304 733 371 733 Z M368 664 Q269 664 211 591 Q153 518 153 368 Q153 286 168 227 Q183 168 211.5 130 Q240 92 280 74 Q320 56 370 56 Q418 56 457 74 Q496 92 523 129.5 Q550 167 565 226 Q580 285 580 368 Q580 519 522.5 591.5 Q465 664 368 664 Z M471 795 L450 758 L284 842 L316 896 L471 795 Z " />
<glyph glyph-name="Ohungarumlaut" unicode="&#x150;" horiz-adv-x="734" d="M371 733 Q435 733 488.5 711 Q542 689 580.5 644 Q619 599 640.5 530.5 Q662 462 662 368 Q662 266 640 194 Q618 122 579 76.5 Q540 31 485.5 9.5 Q431 -12 366 -12 Q300 -12 245.5 9.5 Q191 31 152.5 77 Q114 123 92.5 195 Q71 267 71 368 Q71 462 93 530.5 Q115 599 154.5 644 Q194 689 249 711 Q304 733 371 733 Z M368 664 Q269 664 211 591 Q153 518 153 368 Q153 286 168 227 Q183 168 211.5 130 Q240 92 280 74 Q320 56 370 56 Q418 56 457 74 Q496 92 523 129.5 Q550 167 565 226 Q580 285 580 368 Q580 519 522.5 591.5 Q465 664 368 664 Z M430 889 L303 756 L268 782 L382 926 L430 889 Z M552 877 L430 756 L396 784 L506 915 L552 877 Z " />
<glyph glyph-name="Omacron" unicode="&#x14c;" horiz-adv-x="734" d="M371 733 Q435 733 488.5 711 Q542 689 580.5 644 Q619 599 640.5 530.5 Q662 462 662 368 Q662 266 640 194 Q618 122 579 76.5 Q540 31 485.5 9.5 Q431 -12 366 -12 Q300 -12 245.5 9.5 Q191 31 152.5 77 Q114 123 92.5 195 Q71 267 71 368 Q71 462 93 530.5 Q115 599 154.5 644 Q194 689 249 711 Q304 733 371 733 Z M368 664 Q269 664 211 591 Q153 518 153 368 Q153 286 168 227 Q183 168 211.5 130 Q240 92 280 74 Q320 56 370 56 Q418 56 457 74 Q496 92 523 129.5 Q550 167 565 226 Q580 285 580 368 Q580 519 522.5 591.5 Q465 664 368 664 Z M500 793 L246 793 L246 848 L500 848 L500 793 Z " />
<glyph glyph-name="Oslash" unicode="&#xd8;" horiz-adv-x="734" d="M579 646 Q618 601 640 532 Q662 463 662 368 Q662 266 640 194 Q618 122 579 76.5 Q540 31 485.5 9.5 Q431 -12 366 -12 Q318 -12 276.5 -1 Q235 10 200 34 L153 -43 L88 -43 L158 71 Q116 117 93.5 190 Q71 263 71 368 Q71 462 93 530.5 Q115 599 154.5 644 Q194 689 249 711 Q304 733 371 733 Q468 733 538 684 L583 757 L648 757 L579 646 Z M153 368 Q153 293 166 237 Q179 181 203 143 L497 619 Q446 664 368 664 Q269 664 211 591 Q153 518 153 368 Z M370 56 Q418 56 457 74 Q496 92 523 129.5 Q550 167 565 226 Q580 285 580 368 Q580 499 535 573 L241 99 Q293 56 370 56 Z " />
<glyph glyph-name="Otilde" unicode="&#xd5;" horiz-adv-x="734" d="M371 733 Q435 733 488.5 711 Q542 689 580.5 644 Q619 599 640.5 530.5 Q662 462 662 368 Q662 266 640 194 Q618 122 579 76.5 Q540 31 485.5 9.5 Q431 -12 366 -12 Q300 -12 245.5 9.5 Q191 31 152.5 77 Q114 123 92.5 195 Q71 267 71 368 Q71 462 93 530.5 Q115 599 154.5 644 Q194 689 249 711 Q304 733 371 733 Z M368 664 Q269 664 211 591 Q153 518 153 368 Q153 286 168 227 Q183 168 211.5 130 Q240 92 280 74 Q320 56 370 56 Q418 56 457 74 Q496 92 523 129.5 Q550 167 565 226 Q580 285 580 368 Q580 519 522.5 591.5 Q465 664 368 664 Z M507 855 Q497 818 478.5 800 Q460 782 435 782 Q418 782 401.5 787.5 Q385 793 370 799 Q355 805 342 810.5 Q329 816 319 816 Q306 816 298.5 809 Q291 802 280 780 L241 796 Q253 834 272.5 852 Q292 870 316 870 Q332 870 347 864.5 Q362 859 376 853 Q390 847 403.5 841.5 Q417 836 430 836 Q443 836 452 842.5 Q461 849 469 870 L507 855 Z " />
<glyph glyph-name="OE" unicode="&#x152;" horiz-adv-x="1061" d="M360 732 Q436 732 496.5 696 Q557 660 586 588 L586 720 L990 720 L990 554 L939 554 L921 654 L660 654 L660 402 L876 402 L876 337 L660 337 L660 65 L929 66 L947 167 L998 167 L998 0 L585 0 L585 138 Q555 61 492 24.5 Q429 -12 352 -12 Q291 -12 239.5 10 Q188 32 150.5 78 Q113 124 92 196 Q71 268 71 368 Q71 462 93 530.5 Q115 599 154 644 Q193 689 245.5 710.5 Q298 732 360 732 Z M373 660 Q272 660 212.5 587.5 Q153 515 153 368 Q153 287 168.5 229 Q184 171 212 133.5 Q240 96 280 78 Q320 60 369 60 Q415 60 456 78.5 Q497 97 527 135 Q557 173 574.5 231 Q592 289 592 367 Q592 439 574.5 494 Q557 549 527 586 Q497 623 457.5 641.5 Q418 660 373 660 Z " />
<glyph glyph-name="P" unicode="P" horiz-adv-x="610" d="M334 720 Q447 720 503 665.5 Q559 611 559 506 Q559 400 501 343 Q443 286 323 286 L212 286 L212 66 L312 44 L312 0 L60 0 L60 44 L134 66 L134 654 L60 674 L60 720 L334 720 Z M212 654 L212 350 L321 350 Q481 350 481 504 Q481 581 444.5 617.5 Q408 654 330 654 L212 654 Z " />
<glyph glyph-name="Thorn" unicode="&#xde;" horiz-adv-x="516" d="M208 676 L110 654 L110 590 L244 590 Q291 590 331.5 579 Q372 568 401.5 543 Q431 518 448 478 Q465 438 465 380 Q465 325 448.5 285 Q432 245 401.5 218.5 Q371 192 328 179.5 Q285 167 233 167 L111 167 L111 66 L208 44 L208 0 L-41 0 L-41 44 L33 66 L33 654 L-41 676 L-41 720 L208 720 L208 676 Z M110 524 L110 228 L226 228 Q389 228 389 379 Q389 454 352.5 489 Q316 524 238 524 L110 524 Z " />
<glyph glyph-name="Q" unicode="Q" horiz-adv-x="737" d="M662 368 Q662 224 619.5 139.5 Q577 55 505 18 L641 -28 L617 -92 L399 -11 Q391 -12 382.5 -12 Q374 -12 366 -12 Q300 -12 245.5 9.5 Q191 31 152.5 77 Q114 123 92.5 195 Q71 267 71 368 Q71 462 93 530.5 Q115 599 154.5 644 Q194 689 249 711 Q304 733 371 733 Q435 733 488.5 711 Q542 689 580.5 644 Q619 599 640.5 530.5 Q662 462 662 368 Z M153 368 Q153 286 168 227 Q183 168 211.5 130 Q240 92 280 74 Q320 56 370 56 Q418 56 457 74 Q496 92 523 129.5 Q550 167 565 226 Q580 285 580 368 Q580 519 522.5 591.5 Q465 664 368 664 Q269 664 211 591 Q153 518 153 368 Z " />
<glyph glyph-name="R" unicode="R" horiz-adv-x="655" d="M330 720 Q448 720 503 664.5 Q558 609 558 509 Q558 360 439 309 L538 65 L615 44 L615 0 L484 0 L365 293 Q352 291 337 290 Q322 289 309 289 L212 289 L212 65 L286 44 L286 0 L60 0 L60 44 L134 65 L134 654 L60 674 L60 720 L330 720 Z M212 654 L212 352 L320 352 Q480 352 480 507 Q480 582 443.5 618 Q407 654 328 654 L212 654 Z " />
<glyph glyph-name="Racute" unicode="&#x154;" horiz-adv-x="655" d="M330 720 Q448 720 503 664.5 Q558 609 558 509 Q558 360 439 309 L538 65 L615 44 L615 0 L484 0 L365 293 Q352 291 337 290 Q322 289 309 289 L212 289 L212 65 L286 44 L286 0 L60 0 L60 44 L134 65 L134 654 L60 674 L60 720 L330 720 Z M212 654 L212 352 L320 352 Q480 352 480 507 Q480 582 443.5 618 Q407 654 328 654 L212 654 Z M423 842 L257 758 L236 795 L391 896 L423 842 Z " />
<glyph glyph-name="Rcaron" unicode="&#x158;" horiz-adv-x="655" d="M330 720 Q448 720 503 664.5 Q558 609 558 509 Q558 360 439 309 L538 65 L615 44 L615 0 L484 0 L365 293 Q352 291 337 290 Q322 289 309 289 L212 289 L212 65 L286 44 L286 0 L60 0 L60 44 L134 65 L134 654 L60 674 L60 720 L330 720 Z M212 654 L212 352 L320 352 Q480 352 480 507 Q480 582 443.5 618 Q407 654 328 654 L212 654 Z M304 766 L216 858 L246 885 L330 817 L414 884 L443 858 L356 766 L304 766 Z " />
<glyph glyph-name="Rcommaaccent" unicode="&#x156;" horiz-adv-x="655" d="M330 720 Q448 720 503 664.5 Q558 609 558 509 Q558 360 439 309 L538 65 L615 44 L615 0 L484 0 L365 293 Q352 291 337 290 Q322 289 309 289 L212 289 L212 65 L286 44 L286 0 L60 0 L60 44 L134 65 L134 654 L60 674 L60 720 L330 720 Z M212 654 L212 352 L320 352 Q480 352 480 507 Q480 582 443.5 618 Q407 654 328 654 L212 654 Z M376 -72 L318 -230 L272 -218 L312 -58 L376 -72 Z " />
<glyph glyph-name="S" unicode="S" horiz-adv-x="554" d="M294 733 Q348 733 397.5 721.5 Q447 710 485 694 L485 536 L434 536 L411 646 Q385 657 354.5 662.5 Q324 668 293 668 Q227 668 187 638 Q147 608 147 547 Q147 515 160.5 493 Q174 471 196.5 455 Q219 439 248 427 Q277 415 308 403 Q342 390 376 374.5 Q410 359 437 336.5 Q464 314 480.5 282 Q497 250 497 202 Q497 150 480 110 Q463 70 432 43 Q401 16 358.5 2 Q316 -12 264 -12 Q207 -12 154.5 -2 Q102 8 57 28 L57 184 L109 184 L132 76 Q158 65 191 58.5 Q224 52 264 52 Q330 52 373 85 Q416 118 416 189 Q416 223 404 246.5 Q392 270 371.5 287 Q351 304 324.5 315.5 Q298 327 269 338 Q233 351 197 364.5 Q161 378 132 399 Q103 420 85 452 Q67 484 67 533 Q67 581 84.5 618.5 Q102 656 133 681.5 Q164 707 205 720 Q246 733 294 733 Z " />
<glyph glyph-name="Sacute" unicode="&#x15a;" horiz-adv-x="554" d="M294 733 Q348 733 397.5 721.5 Q447 710 485 694 L485 536 L434 536 L411 646 Q385 657 354.5 662.5 Q324 668 293 668 Q227 668 187 638 Q147 608 147 547 Q147 515 160.5 493 Q174 471 196.5 455 Q219 439 248 427 Q277 415 308 403 Q342 390 376 374.5 Q410 359 437 336.5 Q464 314 480.5 282 Q497 250 497 202 Q497 150 480 110 Q463 70 432 43 Q401 16 358.5 2 Q316 -12 264 -12 Q207 -12 154.5 -2 Q102 8 57 28 L57 184 L109 184 L132 76 Q158 65 191 58.5 Q224 52 264 52 Q330 52 373 85 Q416 118 416 189 Q416 223 404 246.5 Q392 270 371.5 287 Q351 304 324.5 315.5 Q298 327 269 338 Q233 351 197 364.5 Q161 378 132 399 Q103 420 85 452 Q67 484 67 533 Q67 581 84.5 618.5 Q102 656 133 681.5 Q164 707 205 720 Q246 733 294 733 Z M386 842 L220 758 L199 795 L354 896 L386 842 Z " />
<glyph glyph-name="Scaron" unicode="&#x160;" horiz-adv-x="554" d="M294 733 Q348 733 397.5 721.5 Q447 710 485 694 L485 536 L434 536 L411 646 Q385 657 354.5 662.5 Q324 668 293 668 Q227 668 187 638 Q147 608 147 547 Q147 515 160.5 493 Q174 471 196.5 455 Q219 439 248 427 Q277 415 308 403 Q342 390 376 374.5 Q410 359 437 336.5 Q464 314 480.5 282 Q497 250 497 202 Q497 150 480 110 Q463 70 432 43 Q401 16 358.5 2 Q316 -12 264 -12 Q207 -12 154.5 -2 Q102 8 57 28 L57 184 L109 184 L132 76 Q158 65 191 58.5 Q224 52 264 52 Q330 52 373 85 Q416 118 416 189 Q416 223 404 246.5 Q392 270 371.5 287 Q351 304 324.5 315.5 Q298 327 269 338 Q233 351 197 364.5 Q161 378 132 399 Q103 420 85 452 Q67 484 67 533 Q67 581 84.5 618.5 Q102 656 133 681.5 Q164 707 205 720 Q246 733 294 733 Z M267 766 L179 858 L209 885 L293 817 L377 884 L406 858 L319 766 L267 766 Z " />
<glyph glyph-name="Scedilla" unicode="&#x15e;" horiz-adv-x="554" d="M497 202 Q497 107 443 53 Q389 -1 300 -10 L291 -56 Q305 -57 318.5 -60.5 Q332 -64 343 -72.5 Q354 -81 361 -93.5 Q368 -106 368 -125 Q368 -168 342 -187.5 Q316 -207 278 -207 Q254 -207 232.5 -201 Q211 -195 200 -190 L211 -151 Q225 -156 240.5 -160 Q256 -164 273 -164 Q290 -164 304 -157 Q318 -150 318 -127 Q318 -105 301.5 -98 Q285 -91 253 -91 L242 -91 L259 -12 Q203 -11 152.5 -1.5 Q102 8 57 28 L57 184 L109 184 L132 76 Q158 65 191 58.5 Q224 52 264 52 Q330 52 373 85 Q416 118 416 189 Q416 223 404 246.5 Q392 270 371.5 287 Q351 304 324.5 315.5 Q298 327 269 338 Q233 351 197 364.5 Q161 378 132 399 Q103 420 85 452 Q67 484 67 533 Q67 581 84.5 618.5 Q102 656 133 681.5 Q164 707 205 720 Q246 733 294 733 Q348 733 397.5 721.5 Q447 710 485 694 L485 536 L434 536 L411 646 Q385 657 354.5 662.5 Q324 668 293 668 Q227 668 187 638 Q147 608 147 547 Q147 515 160.5 493 Q174 471 196.5 455 Q219 439 248 427 Q277 415 308 403 Q342 390 376 374.5 Q410 359 437 336.5 Q464 314 480.5 282 Q497 250 497 202 Z " />
<glyph glyph-name="Scircumflex" unicode="&#x15c;" horiz-adv-x="554" d="M294 733 Q348 733 397.5 721.5 Q447 710 485 694 L485 536 L434 536 L411 646 Q385 657 354.5 662.5 Q324 668 293 668 Q227 668 187 638 Q147 608 147 547 Q147 515 160.5 493 Q174 471 196.5 455 Q219 439 248 427 Q277 415 308 403 Q342 390 376 374.5 Q410 359 437 336.5 Q464 314 480.5 282 Q497 250 497 202 Q497 150 480 110 Q463 70 432 43 Q401 16 358.5 2 Q316 -12 264 -12 Q207 -12 154.5 -2 Q102 8 57 28 L57 184 L109 184 L132 76 Q158 65 191 58.5 Q224 52 264 52 Q330 52 373 85 Q416 118 416 189 Q416 223 404 246.5 Q392 270 371.5 287 Q351 304 324.5 315.5 Q298 327 269 338 Q233 351 197 364.5 Q161 378 132 399 Q103 420 85 452 Q67 484 67 533 Q67 581 84.5 618.5 Q102 656 133 681.5 Q164 707 205 720 Q246 733 294 733 Z M406 784 L377 758 L293 825 L209 757 L179 784 L267 876 L319 876 L406 784 Z " />
<glyph glyph-name="Scommaaccent" unicode="&#x218;" horiz-adv-x="554" d="M294 733 Q348 733 397.5 721.5 Q447 710 485 694 L485 536 L434 536 L411 646 Q385 657 354.5 662.5 Q324 668 293 668 Q227 668 187 638 Q147 608 147 547 Q147 515 160.5 493 Q174 471 196.5 455 Q219 439 248 427 Q277 415 308 403 Q342 390 376 374.5 Q410 359 437 336.5 Q464 314 480.5 282 Q497 250 497 202 Q497 150 480 110 Q463 70 432 43 Q401 16 358.5 2 Q316 -12 264 -12 Q207 -12 154.5 -2 Q102 8 57 28 L57 184 L109 184 L132 76 Q158 65 191 58.5 Q224 52 264 52 Q330 52 373 85 Q416 118 416 189 Q416 223 404 246.5 Q392 270 371.5 287 Q351 304 324.5 315.5 Q298 327 269 338 Q233 351 197 364.5 Q161 378 132 399 Q103 420 85 452 Q67 484 67 533 Q67 581 84.5 618.5 Q102 656 133 681.5 Q164 707 205 720 Q246 733 294 733 Z M318 -72 L260 -230 L214 -218 L254 -58 L318 -72 Z " />
<glyph glyph-name="T" unicode="T" horiz-adv-x="643" d="M594 537 L543 537 L523 655 L361 655 L361 65 L436 44 L436 0 L209 0 L209 44 L283 65 L283 655 L122 655 L101 537 L50 537 L50 720 L594 720 L594 537 Z " />
<glyph glyph-name="Tbar" unicode="&#x166;" horiz-adv-x="649" d="M597 720 L597 537 L546 537 L526 655 L364 655 L364 408 L484 408 L484 343 L364 343 L364 65 L439 44 L439 0 L212 0 L212 44 L286 65 L286 343 L166 343 L166 408 L286 408 L286 655 L125 655 L104 537 L53 537 L53 720 L597 720 Z " />
<glyph glyph-name="Tcaron" unicode="&#x164;" horiz-adv-x="643" d="M594 537 L543 537 L523 655 L361 655 L361 65 L436 44 L436 0 L209 0 L209 44 L283 65 L283 655 L122 655 L101 537 L50 537 L50 720 L594 720 L594 537 Z M295 766 L207 858 L237 885 L321 817 L405 884 L434 858 L347 766 L295 766 Z " />
<glyph glyph-name="U" unicode="U" horiz-adv-x="724" d="M674 676 L600 655 L600 256 Q600 118 540.5 53 Q481 -12 363 -12 Q309 -12 265 3.5 Q221 19 190 51.5 Q159 84 142 134.5 Q125 185 125 256 L125 655 L50 676 L50 720 L278 720 L278 676 L202 655 L202 265 Q202 155 245.5 106 Q289 57 368 57 Q456 57 493 108 Q530 159 530 265 L530 655 L454 676 L454 720 L674 720 L674 676 Z " />
<glyph glyph-name="Uacute" unicode="&#xda;" horiz-adv-x="724" d="M674 676 L600 655 L600 256 Q600 118 540.5 53 Q481 -12 363 -12 Q309 -12 265 3.5 Q221 19 190 51.5 Q159 84 142 134.5 Q125 185 125 256 L125 655 L50 676 L50 720 L278 720 L278 676 L202 655 L202 265 Q202 155 245.5 106 Q289 57 368 57 Q456 57 493 108 Q530 159 530 265 L530 655 L454 676 L454 720 L674 720 L674 676 Z M458 842 L292 758 L271 795 L426 896 L458 842 Z " />
<glyph glyph-name="Ubreve" unicode="&#x16c;" horiz-adv-x="724" d="M674 676 L600 655 L600 256 Q600 118 540.5 53 Q481 -12 363 -12 Q309 -12 265 3.5 Q221 19 190 51.5 Q159 84 142 134.5 Q125 185 125 256 L125 655 L50 676 L50 720 L278 720 L278 676 L202 655 L202 265 Q202 155 245.5 106 Q289 57 368 57 Q456 57 493 108 Q530 159 530 265 L530 655 L454 676 L454 720 L674 720 L674 676 Z M472 870 Q465 816 439.5 789.5 Q414 763 363 763 Q313 763 287 789.5 Q261 816 255 870 L301 879 Q306 845 320 829 Q334 813 363 813 Q392 813 406.5 829 Q421 845 426 879 L472 870 Z " />
<glyph glyph-name="Ucircumflex" unicode="&#xdb;" horiz-adv-x="724" d="M674 676 L600 655 L600 256 Q600 118 540.5 53 Q481 -12 363 -12 Q309 -12 265 3.5 Q221 19 190 51.5 Q159 84 142 134.5 Q125 185 125 256 L125 655 L50 676 L50 720 L278 720 L278 676 L202 655 L202 265 Q202 155 245.5 106 Q289 57 368 57 Q456 57 493 108 Q530 159 530 265 L530 655 L454 676 L454 720 L674 720 L674 676 Z M478 784 L449 758 L365 825 L281 757 L251 784 L339 876 L391 876 L478 784 Z " />
<glyph glyph-name="Udieresis" unicode="&#xdc;" horiz-adv-x="724" d="M674 676 L600 655 L600 256 Q600 118 540.5 53 Q481 -12 363 -12 Q309 -12 265 3.5 Q221 19 190 51.5 Q159 84 142 134.5 Q125 185 125 256 L125 655 L50 676 L50 720 L278 720 L278 676 L202 655 L202 265 Q202 155 245.5 106 Q289 57 368 57 Q456 57 493 108 Q530 159 530 265 L530 655 L454 676 L454 720 L674 720 L674 676 Z M277 886 Q299 886 311.5 873 Q324 860 324 840 Q324 821 311 808.5 Q298 796 277 796 Q255 796 241.5 808.5 Q228 821 228 840 Q228 860 241.5 873 Q255 886 277 886 Z M453 886 Q475 886 487.5 873 Q500 860 500 840 Q500 821 487 808.5 Q474 796 453 796 Q431 796 417.5 808.5 Q404 821 404 840 Q404 860 417.5 873 Q431 886 453 886 Z " />
<glyph glyph-name="Ugrave" unicode="&#xd9;" horiz-adv-x="724" d="M674 676 L600 655 L600 256 Q600 118 540.5 53 Q481 -12 363 -12 Q309 -12 265 3.5 Q221 19 190 51.5 Q159 84 142 134.5 Q125 185 125 256 L125 655 L50 676 L50 720 L278 720 L278 676 L202 655 L202 265 Q202 155 245.5 106 Q289 57 368 57 Q456 57 493 108 Q530 159 530 265 L530 655 L454 676 L454 720 L674 720 L674 676 Z M461 795 L440 758 L274 842 L306 896 L461 795 Z " />
<glyph glyph-name="Uhungarumlaut" unicode="&#x170;" horiz-adv-x="724" d="M674 676 L600 655 L600 256 Q600 118 540.5 53 Q481 -12 363 -12 Q309 -12 265 3.5 Q221 19 190 51.5 Q159 84 142 134.5 Q125 185 125 256 L125 655 L50 676 L50 720 L278 720 L278 676 L202 655 L202 265 Q202 155 245.5 106 Q289 57 368 57 Q456 57 493 108 Q530 159 530 265 L530 655 L454 676 L454 720 L674 720 L674 676 Z M420 889 L293 756 L258 782 L372 926 L420 889 Z M542 877 L420 756 L386 784 L496 915 L542 877 Z " />
<glyph glyph-name="Umacron" unicode="&#x16a;" horiz-adv-x="724" d="M674 676 L600 655 L600 256 Q600 118 540.5 53 Q481 -12 363 -12 Q309 -12 265 3.5 Q221 19 190 51.5 Q159 84 142 134.5 Q125 185 125 256 L125 655 L50 676 L50 720 L278 720 L278 676 L202 655 L202 265 Q202 155 245.5 106 Q289 57 368 57 Q456 57 493 108 Q530 159 530 265 L530 655 L454 676 L454 720 L674 720 L674 676 Z M490 793 L236 793 L236 848 L490 848 L490 793 Z " />
<glyph glyph-name="Uogonek" unicode="&#x172;" horiz-adv-x="724" d="M674 676 L600 655 L600 256 Q600 170 576.5 113 Q553 56 508 25 Q442 -20 410 -60 Q378 -100 378 -132 Q378 -170 417 -170 Q431 -170 443.5 -165.5 Q456 -161 470 -153 L489 -191 Q472 -202 449 -212 Q426 -222 400 -222 Q359 -222 338 -200.5 Q317 -179 317 -144 Q317 -108 337.5 -72.5 Q358 -37 392 -11 Q385 -12 378 -12 Q371 -12 363 -12 Q309 -12 265 3.5 Q221 19 190 51.5 Q159 84 142 134.5 Q125 185 125 256 L125 655 L50 676 L50 720 L278 720 L278 676 L202 655 L202 265 Q202 155 245.5 106 Q289 57 368 57 Q456 57 493 108 Q530 159 530 265 L530 655 L454 676 L454 720 L674 720 L674 676 Z " />
<glyph glyph-name="Uring" unicode="&#x16e;" horiz-adv-x="724" d="M674 676 L600 655 L600 256 Q600 118 540.5 53 Q481 -12 363 -12 Q309 -12 265 3.5 Q221 19 190 51.5 Q159 84 142 134.5 Q125 185 125 256 L125 655 L50 676 L50 720 L278 720 L278 676 L202 655 L202 265 Q202 155 245.5 106 Q289 57 368 57 Q456 57 493 108 Q530 159 530 265 L530 655 L454 676 L454 720 L674 720 L674 676 Z M364 953 Q402 953 427.5 930.5 Q453 908 453 866 Q453 823 427.5 800 Q402 777 364 777 Q325 777 300 799 Q275 821 275 863 Q275 905 300.5 929 Q326 953 364 953 Z M364 914 Q344 914 332.5 900.5 Q321 887 321 863 Q321 839 332.5 827 Q344 815 364 815 Q384 815 395.5 828.5 Q407 842 407 865 Q407 914 364 914 Z " />
<glyph glyph-name="Utilde" unicode="&#x168;" horiz-adv-x="724" d="M674 676 L600 655 L600 256 Q600 118 540.5 53 Q481 -12 363 -12 Q309 -12 265 3.5 Q221 19 190 51.5 Q159 84 142 134.5 Q125 185 125 256 L125 655 L50 676 L50 720 L278 720 L278 676 L202 655 L202 265 Q202 155 245.5 106 Q289 57 368 57 Q456 57 493 108 Q530 159 530 265 L530 655 L454 676 L454 720 L674 720 L674 676 Z M497 855 Q487 818 468.5 800 Q450 782 425 782 Q408 782 391.5 787.5 Q375 793 360 799 Q345 805 332 810.5 Q319 816 309 816 Q296 816 288.5 809 Q281 802 270 780 L231 796 Q243 834 262.5 852 Q282 870 306 870 Q322 870 337 864.5 Q352 859 366 853 Q380 847 393.5 841.5 Q407 836 420 836 Q433 836 442 842.5 Q451 849 459 870 L497 855 Z " />
<glyph glyph-name="V" unicode="V" horiz-adv-x="655" d="M627 720 L627 674 L563 654 L375 0 L284 0 L92 654 L28 674 L28 720 L239 720 L239 674 L174 654 L334 80 L491 654 L426 674 L426 720 L627 720 Z " />
<glyph glyph-name="W" unicode="W" horiz-adv-x="971" d="M940 720 L940 674 L877 654 L724 0 L632 0 L522 450 Q513 489 504 529 Q495 569 487 610 Q478 569 469 528.5 Q460 488 451 450 L342 0 L249 0 L93 654 L31 674 L31 720 L238 720 L238 674 L173 654 L274 223 Q281 191 288 155.5 Q295 120 301 87 Q308 120 315 155.5 Q322 191 330 224 L448 720 L526 720 L644 223 Q652 191 658.5 155.5 Q665 120 672 86 Q679 120 685.5 156 Q692 192 699 224 L798 654 L733 674 L733 720 L940 720 Z " />
<glyph glyph-name="Wacute" unicode="&#x1e82;" horiz-adv-x="971" d="M940 720 L940 674 L877 654 L724 0 L632 0 L522 450 Q513 489 504 529 Q495 569 487 610 Q478 569 469 528.5 Q460 488 451 450 L342 0 L249 0 L93 654 L31 674 L31 720 L238 720 L238 674 L173 654 L274 223 Q281 191 288 155.5 Q295 120 301 87 Q308 120 315 155.5 Q322 191 330 224 L448 720 L526 720 L644 223 Q652 191 658.5 155.5 Q665 120 672 86 Q679 120 685.5 156 Q692 192 699 224 L798 654 L733 674 L733 720 L940 720 Z M580 842 L414 758 L393 795 L548 896 L580 842 Z " />
<glyph glyph-name="Wcircumflex" unicode="&#x174;" horiz-adv-x="971" d="M940 720 L940 674 L877 654 L724 0 L632 0 L522 450 Q513 489 504 529 Q495 569 487 610 Q478 569 469 528.5 Q460 488 451 450 L342 0 L249 0 L93 654 L31 674 L31 720 L238 720 L238 674 L173 654 L274 223 Q281 191 288 155.5 Q295 120 301 87 Q308 120 315 155.5 Q322 191 330 224 L448 720 L526 720 L644 223 Q652 191 658.5 155.5 Q665 120 672 86 Q679 120 685.5 156 Q692 192 699 224 L798 654 L733 674 L733 720 L940 720 Z M600 784 L571 758 L487 825 L403 757 L373 784 L461 876 L513 876 L600 784 Z " />
<glyph glyph-name="Wdieresis" unicode="&#x1e84;" horiz-adv-x="971" d="M940 720 L940 674 L877 654 L724 0 L632 0 L522 450 Q513 489 504 529 Q495 569 487 610 Q478 569 469 528.5 Q460 488 451 450 L342 0 L249 0 L93 654 L31 674 L31 720 L238 720 L238 674 L173 654 L274 223 Q281 191 288 155.5 Q295 120 301 87 Q308 120 315 155.5 Q322 191 330 224 L448 720 L526 720 L644 223 Q652 191 658.5 155.5 Q665 120 672 86 Q679 120 685.5 156 Q692 192 699 224 L798 654 L733 674 L733 720 L940 720 Z M399 886 Q421 886 433.5 873 Q446 860 446 840 Q446 821 433 808.5 Q420 796 399 796 Q377 796 363.5 808.5 Q350 821 350 840 Q350 860 363.5 873 Q377 886 399 886 Z M575 886 Q597 886 609.5 873 Q622 860 622 840 Q622 821 609 808.5 Q596 796 575 796 Q553 796 539.5 808.5 Q526 821 526 840 Q526 860 539.5 873 Q553 886 575 886 Z " />
<glyph glyph-name="Wgrave" unicode="&#x1e80;" horiz-adv-x="971" d="M940 720 L940 674 L877 654 L724 0 L632 0 L522 450 Q513 489 504 529 Q495 569 487 610 Q478 569 469 528.5 Q460 488 451 450 L342 0 L249 0 L93 654 L31 674 L31 720 L238 720 L238 674 L173 654 L274 223 Q281 191 288 155.5 Q295 120 301 87 Q308 120 315 155.5 Q322 191 330 224 L448 720 L526 720 L644 223 Q652 191 658.5 155.5 Q665 120 672 86 Q679 120 685.5 156 Q692 192 699 224 L798 654 L733 674 L733 720 L940 720 Z M583 795 L562 758 L396 842 L428 896 L583 795 Z " />
<glyph glyph-name="X" unicode="X" horiz-adv-x="625" d="M593 46 L593 0 L377 0 L377 46 L441 66 L306 304 L261 224 L173 66 L237 46 L237 0 L32 0 L32 46 L94 66 L265 368 L101 654 L38 674 L38 720 L254 720 L254 674 L189 654 L283 487 L320 423 L446 654 L382 674 L382 720 L587 720 L587 674 L524 654 L359 364 L530 66 L593 46 Z " />
<glyph glyph-name="Y" unicode="Y" horiz-adv-x="620" d="M597 674 L534 654 L348 301 L348 65 L424 44 L424 0 L194 0 L194 44 L270 65 L270 301 L84 654 L22 674 L22 720 L237 720 L237 674 L172 654 L312 378 L314 378 L456 654 L391 674 L391 720 L597 720 L597 674 Z " />
<glyph glyph-name="Yacute" unicode="&#xdd;" horiz-adv-x="620" d="M597 674 L534 654 L348 301 L348 65 L424 44 L424 0 L194 0 L194 44 L270 65 L270 301 L84 654 L22 674 L22 720 L237 720 L237 674 L172 654 L312 378 L314 378 L456 654 L391 674 L391 720 L597 720 L597 674 Z M406 842 L240 758 L219 795 L374 896 L406 842 Z " />
<glyph glyph-name="Ycircumflex" unicode="&#x176;" horiz-adv-x="620" d="M597 674 L534 654 L348 301 L348 65 L424 44 L424 0 L194 0 L194 44 L270 65 L270 301 L84 654 L22 674 L22 720 L237 720 L237 674 L172 654 L312 378 L314 378 L456 654 L391 674 L391 720 L597 720 L597 674 Z M426 784 L397 758 L313 825 L229 757 L199 784 L287 876 L339 876 L426 784 Z " />
<glyph glyph-name="Ydieresis" unicode="&#x178;" horiz-adv-x="620" d="M597 674 L534 654 L348 301 L348 65 L424 44 L424 0 L194 0 L194 44 L270 65 L270 301 L84 654 L22 674 L22 720 L237 720 L237 674 L172 654 L312 378 L314 378 L456 654 L391 674 L391 720 L597 720 L597 674 Z M225 886 Q247 886 259.5 873 Q272 860 272 840 Q272 821 259 808.5 Q246 796 225 796 Q203 796 189.5 808.5 Q176 821 176 840 Q176 860 189.5 873 Q203 886 225 886 Z M401 886 Q423 886 435.5 873 Q448 860 448 840 Q448 821 435 808.5 Q422 796 401 796 Q379 796 365.5 808.5 Q352 821 352 840 Q352 860 365.5 873 Q379 886 401 886 Z " />
<glyph glyph-name="Ygrave" unicode="&#x1ef2;" horiz-adv-x="620" d="M597 674 L534 654 L348 301 L348 65 L424 44 L424 0 L194 0 L194 44 L270 65 L270 301 L84 654 L22 674 L22 720 L237 720 L237 674 L172 654 L312 378 L314 378 L456 654 L391 674 L391 720 L597 720 L597 674 Z M409 795 L388 758 L222 842 L254 896 L409 795 Z " />
<glyph glyph-name="Z" unicode="Z" horiz-adv-x="596" d="M522 683 L158 65 L460 66 L478 167 L528 167 L528 0 L61 0 L61 51 L414 655 L143 655 L126 553 L75 553 L75 720 L522 720 L522 683 Z " />
<glyph glyph-name="Zacute" unicode="&#x179;" horiz-adv-x="596" d="M522 683 L158 65 L460 66 L478 167 L528 167 L528 0 L61 0 L61 51 L414 655 L143 655 L126 553 L75 553 L75 720 L522 720 L522 683 Z M396 842 L230 758 L209 795 L364 896 L396 842 Z " />
<glyph glyph-name="Zcaron" unicode="&#x17d;" horiz-adv-x="596" d="M522 683 L158 65 L460 66 L478 167 L528 167 L528 0 L61 0 L61 51 L414 655 L143 655 L126 553 L75 553 L75 720 L522 720 L522 683 Z M277 766 L189 858 L219 885 L303 817 L387 884 L416 858 L329 766 L277 766 Z " />
<glyph glyph-name="Zdotaccent" unicode="&#x17b;" horiz-adv-x="596" d="M522 683 L158 65 L460 66 L478 167 L528 167 L528 0 L61 0 L61 51 L414 655 L143 655 L126 553 L75 553 L75 720 L522 720 L522 683 Z M301 872 Q323 872 338 859 Q353 846 353 824 Q353 802 338.5 789.5 Q324 777 301 777 Q279 777 263.5 789.5 Q248 802 248 824 Q248 846 263.5 859 Q279 872 301 872 Z " />
<glyph glyph-name="uni0162" unicode="&#x162;" horiz-adv-x="643" d="M594 720 L594 537 L543 537 L523 655 L361 655 L361 65 L436 44 L436 0 L348 0 L337 -56 Q351 -57 364.5 -60.5 Q378 -64 389 -72.5 Q400 -81 407 -93.5 Q414 -106 414 -125 Q414 -168 388 -187.5 Q362 -207 324 -207 Q300 -207 278.5 -201 Q257 -195 246 -190 L257 -151 Q271 -156 286.5 -160 Q302 -164 319 -164 Q336 -164 350 -157 Q364 -150 364 -127 Q364 -105 347.5 -98 Q331 -91 299 -91 L288 -91 L307 0 L209 0 L209 44 L283 65 L283 655 L122 655 L101 537 L50 537 L50 720 L594 720 Z " />
<glyph glyph-name="uni021A" unicode="&#x21a;" horiz-adv-x="643" d="M594 537 L543 537 L523 655 L361 655 L361 65 L436 44 L436 0 L209 0 L209 44 L283 65 L283 655 L122 655 L101 537 L50 537 L50 720 L594 720 L594 537 Z M364 -73 L306 -231 L260 -219 L300 -59 L364 -73 Z " />
<glyph glyph-name="a" unicode="a" horiz-adv-x="521" d="M246 537 Q327 537 374.5 496 Q422 455 422 361 L422 91 Q422 73 429 63 Q436 53 457 53 L480 53 L480 1 Q473 0 463 -1 Q453 -2 442 -2 Q357 -2 357 91 Q331 37 291 12.5 Q251 -12 198 -12 Q129 -12 89 26 Q49 64 49 138 Q49 166 58.5 195 Q68 224 92.5 248 Q117 272 160.5 287 Q204 302 272 302 Q293 302 311 300.5 Q329 299 349 297 L349 357 Q349 475 240 475 Q201 475 168 459.5 Q135 444 103 418 L72 466 Q107 498 151.5 517.5 Q196 537 246 537 Z M281 250 Q195 250 158 220.5 Q121 191 121 140 Q121 93 144 69.5 Q167 46 209 46 Q241 46 267 60 Q293 74 311 97 Q329 120 339 149.5 Q349 179 349 210 L349 244 Q335 246 319.5 248 Q304 250 281 250 Z " />
<glyph glyph-name="aacute" unicode="&#xe1;" horiz-adv-x="521" d="M246 537 Q327 537 374.5 496 Q422 455 422 361 L422 91 Q422 73 429 63 Q436 53 457 53 L480 53 L480 1 Q473 0 463 -1 Q453 -2 442 -2 Q357 -2 357 91 Q331 37 291 12.5 Q251 -12 198 -12 Q129 -12 89 26 Q49 64 49 138 Q49 166 58.5 195 Q68 224 92.5 248 Q117 272 160.5 287 Q204 302 272 302 Q293 302 311 300.5 Q329 299 349 297 L349 357 Q349 475 240 475 Q201 475 168 459.5 Q135 444 103 418 L72 466 Q107 498 151.5 517.5 Q196 537 246 537 Z M281 250 Q195 250 158 220.5 Q121 191 121 140 Q121 93 144 69.5 Q167 46 209 46 Q241 46 267 60 Q293 74 311 97 Q329 120 339 149.5 Q349 179 349 210 L349 244 Q335 246 319.5 248 Q304 250 281 250 Z M360 717 L215 591 L184 624 L317 762 L360 717 Z " />
<glyph glyph-name="abreve" unicode="&#x103;" horiz-adv-x="521" d="M246 537 Q327 537 374.5 496 Q422 455 422 361 L422 91 Q422 73 429 63 Q436 53 457 53 L480 53 L480 1 Q473 0 463 -1 Q453 -2 442 -2 Q357 -2 357 91 Q331 37 291 12.5 Q251 -12 198 -12 Q129 -12 89 26 Q49 64 49 138 Q49 166 58.5 195 Q68 224 92.5 248 Q117 272 160.5 287 Q204 302 272 302 Q293 302 311 300.5 Q329 299 349 297 L349 357 Q349 475 240 475 Q201 475 168 459.5 Q135 444 103 418 L72 466 Q107 498 151.5 517.5 Q196 537 246 537 Z M281 250 Q195 250 158 220.5 Q121 191 121 140 Q121 93 144 69.5 Q167 46 209 46 Q241 46 267 60 Q293 74 311 97 Q329 120 339 149.5 Q349 179 349 210 L349 244 Q335 246 319.5 248 Q304 250 281 250 Z M378 752 Q373 672 343 634.5 Q313 597 253 597 Q193 597 164 633.5 Q135 670 127 751 L173 759 Q180 699 197 673.5 Q214 648 253 648 Q295 648 311 675.5 Q327 703 332 759 L378 752 Z " />
<glyph glyph-name="acircumflex" unicode="&#xe2;" horiz-adv-x="521" d="M246 537 Q327 537 374.5 496 Q422 455 422 361 L422 91 Q422 73 429 63 Q436 53 457 53 L480 53 L480 1 Q473 0 463 -1 Q453 -2 442 -2 Q357 -2 357 91 Q331 37 291 12.5 Q251 -12 198 -12 Q129 -12 89 26 Q49 64 49 138 Q49 166 58.5 195 Q68 224 92.5 248 Q117 272 160.5 287 Q204 302 272 302 Q293 302 311 300.5 Q329 299 349 297 L349 357 Q349 475 240 475 Q201 475 168 459.5 Q135 444 103 418 L72 466 Q107 498 151.5 517.5 Q196 537 246 537 Z M281 250 Q195 250 158 220.5 Q121 191 121 140 Q121 93 144 69.5 Q167 46 209 46 Q241 46 267 60 Q293 74 311 97 Q329 120 339 149.5 Q349 179 349 210 L349 244 Q335 246 319.5 248 Q304 250 281 250 Z M252 698 L162 582 L127 605 L227 756 L277 756 L377 605 L343 582 L252 698 Z " />
<glyph glyph-name="adieresis" unicode="&#xe4;" horiz-adv-x="521" d="M246 537 Q327 537 374.5 496 Q422 455 422 361 L422 91 Q422 73 429 63 Q436 53 457 53 L480 53 L480 1 Q473 0 463 -1 Q453 -2 442 -2 Q357 -2 357 91 Q331 37 291 12.5 Q251 -12 198 -12 Q129 -12 89 26 Q49 64 49 138 Q49 166 58.5 195 Q68 224 92.5 248 Q117 272 160.5 287 Q204 302 272 302 Q293 302 311 300.5 Q329 299 349 297 L349 357 Q349 475 240 475 Q201 475 168 459.5 Q135 444 103 418 L72 466 Q107 498 151.5 517.5 Q196 537 246 537 Z M281 250 Q195 250 158 220.5 Q121 191 121 140 Q121 93 144 69.5 Q167 46 209 46 Q241 46 267 60 Q293 74 311 97 Q329 120 339 149.5 Q349 179 349 210 L349 244 Q335 246 319.5 248 Q304 250 281 250 Z M163 719 Q185 719 197.5 706 Q210 693 210 673 Q210 654 197 641.5 Q184 629 163 629 Q141 629 127.5 641.5 Q114 654 114 673 Q114 693 127.5 706 Q141 719 163 719 Z M339 719 Q361 719 373.5 706 Q386 693 386 673 Q386 654 373 641.5 Q360 629 339 629 Q317 629 303.5 641.5 Q290 654 290 673 Q290 693 303.5 706 Q317 719 339 719 Z " />
<glyph glyph-name="agrave" unicode="&#xe0;" horiz-adv-x="521" d="M246 537 Q327 537 374.5 496 Q422 455 422 361 L422 91 Q422 73 429 63 Q436 53 457 53 L480 53 L480 1 Q473 0 463 -1 Q453 -2 442 -2 Q357 -2 357 91 Q331 37 291 12.5 Q251 -12 198 -12 Q129 -12 89 26 Q49 64 49 138 Q49 166 58.5 195 Q68 224 92.5 248 Q117 272 160.5 287 Q204 302 272 302 Q293 302 311 300.5 Q329 299 349 297 L349 357 Q349 475 240 475 Q201 475 168 459.5 Q135 444 103 418 L72 466 Q107 498 151.5 517.5 Q196 537 246 537 Z M281 250 Q195 250 158 220.5 Q121 191 121 140 Q121 93 144 69.5 Q167 46 209 46 Q241 46 267 60 Q293 74 311 97 Q329 120 339 149.5 Q349 179 349 210 L349 244 Q335 246 319.5 248 Q304 250 281 250 Z M334 624 L303 591 L158 717 L201 762 L334 624 Z " />
<glyph glyph-name="amacron" unicode="&#x101;" horiz-adv-x="521" d="M246 537 Q327 537 374.5 496 Q422 455 422 361 L422 91 Q422 73 429 63 Q436 53 457 53 L480 53 L480 1 Q473 0 463 -1 Q453 -2 442 -2 Q357 -2 357 91 Q331 37 291 12.5 Q251 -12 198 -12 Q129 -12 89 26 Q49 64 49 138 Q49 166 58.5 195 Q68 224 92.5 248 Q117 272 160.5 287 Q204 302 272 302 Q293 302 311 300.5 Q329 299 349 297 L349 357 Q349 475 240 475 Q201 475 168 459.5 Q135 444 103 418 L72 466 Q107 498 151.5 517.5 Q196 537 246 537 Z M281 250 Q195 250 158 220.5 Q121 191 121 140 Q121 93 144 69.5 Q167 46 209 46 Q241 46 267 60 Q293 74 311 97 Q329 120 339 149.5 Q349 179 349 210 L349 244 Q335 246 319.5 248 Q304 250 281 250 Z M385 623 L131 623 L131 678 L385 678 L385 623 Z " />
<glyph glyph-name="aogonek" unicode="&#x105;" horiz-adv-x="521" d="M488 -191 Q471 -202 448 -212 Q425 -222 399 -222 Q358 -222 337 -200.5 Q316 -179 316 -144 Q316 -103 342 -63 Q368 -23 410 2 Q357 19 357 91 Q331 37 291 12.5 Q251 -12 198 -12 Q129 -12 89 26 Q49 64 49 138 Q49 166 58.5 195 Q68 224 92.5 248 Q117 272 160.5 287 Q204 302 272 302 Q293 302 311 300.5 Q329 299 349 297 L349 357 Q349 475 240 475 Q201 475 168 459.5 Q135 444 103 418 L72 466 Q107 498 151.5 517.5 Q196 537 246 537 Q327 537 374.5 496 Q422 455 422 361 L422 91 Q422 73 429 63 Q436 53 457 53 L480 53 L480 0 Q430 -26 403.5 -63 Q377 -100 377 -132 Q377 -170 416 -170 Q430 -170 442.5 -165.5 Q455 -161 469 -153 L488 -191 Z M349 244 Q335 246 319.5 248 Q304 250 281 250 Q195 250 158 220.5 Q121 191 121 140 Q121 93 144 69.5 Q167 46 209 46 Q241 46 267 60 Q293 74 311 97 Q329 120 339 149.5 Q349 179 349 210 L349 244 Z " />
<glyph glyph-name="aring" unicode="&#xe5;" horiz-adv-x="521" d="M246 537 Q327 537 374.5 496 Q422 455 422 361 L422 91 Q422 73 429 63 Q436 53 457 53 L480 53 L480 1 Q473 0 463 -1 Q453 -2 442 -2 Q357 -2 357 91 Q331 37 291 12.5 Q251 -12 198 -12 Q129 -12 89 26 Q49 64 49 138 Q49 166 58.5 195 Q68 224 92.5 248 Q117 272 160.5 287 Q204 302 272 302 Q293 302 311 300.5 Q329 299 349 297 L349 357 Q349 475 240 475 Q201 475 168 459.5 Q135 444 103 418 L72 466 Q107 498 151.5 517.5 Q196 537 246 537 Z M281 250 Q195 250 158 220.5 Q121 191 121 140 Q121 93 144 69.5 Q167 46 209 46 Q241 46 267 60 Q293 74 311 97 Q329 120 339 149.5 Q349 179 349 210 L349 244 Q335 246 319.5 248 Q304 250 281 250 Z M254 765 Q292 765 317.5 742.5 Q343 720 343 678 Q343 635 317.5 612 Q292 589 254 589 Q215 589 190 611 Q165 633 165 675 Q165 717 190.5 741 Q216 765 254 765 Z M254 726 Q234 726 222.5 712.5 Q211 699 211 675 Q211 651 222.5 639 Q234 627 254 627 Q274 627 285.5 640.5 Q297 654 297 677 Q297 726 254 726 Z " />
<glyph glyph-name="atilde" unicode="&#xe3;" horiz-adv-x="521" d="M246 537 Q327 537 374.5 496 Q422 455 422 361 L422 91 Q422 73 429 63 Q436 53 457 53 L480 53 L480 1 Q473 0 463 -1 Q453 -2 442 -2 Q357 -2 357 91 Q331 37 291 12.5 Q251 -12 198 -12 Q129 -12 89 26 Q49 64 49 138 Q49 166 58.5 195 Q68 224 92.5 248 Q117 272 160.5 287 Q204 302 272 302 Q293 302 311 300.5 Q329 299 349 297 L349 357 Q349 475 240 475 Q201 475 168 459.5 Q135 444 103 418 L72 466 Q107 498 151.5 517.5 Q196 537 246 537 Z M281 250 Q195 250 158 220.5 Q121 191 121 140 Q121 93 144 69.5 Q167 46 209 46 Q241 46 267 60 Q293 74 311 97 Q329 120 339 149.5 Q349 179 349 210 L349 244 Q335 246 319.5 248 Q304 250 281 250 Z M386 682 Q376 645 357.5 627 Q339 609 314 609 Q297 609 280.5 614.5 Q264 620 249 626 Q234 632 221 637.5 Q208 643 198 643 Q185 643 177.5 636 Q170 629 159 607 L120 623 Q132 661 151.5 679 Q171 697 195 697 Q211 697 226 691.5 Q241 686 255 680 Q269 674 282.5 668.5 Q296 663 309 663 Q322 663 331 669.5 Q340 676 348 697 L386 682 Z " />
<glyph glyph-name="ae" unicode="&#xe6;" horiz-adv-x="811" d="M567 537 Q661 537 707.5 477.5 Q754 418 754 291 Q754 280 754 268 Q754 256 753 245 L425 245 Q426 151 461 101 Q496 51 574 51 Q614 51 647 63 Q680 75 717 102 L744 52 Q702 18 659 3 Q616 -12 565 -12 Q500 -12 453.5 14.5 Q407 41 381 100 Q352 40 303 14 Q254 -12 203 -12 Q133 -12 91 26.5 Q49 65 49 140 Q49 168 58.5 197 Q68 226 92.5 250 Q117 274 159 289 Q201 304 267 304 Q289 304 308.5 302.5 Q328 301 349 299 L349 357 Q349 418 321.5 447 Q294 476 243 476 Q201 476 164.5 461 Q128 446 98 420 L69 468 Q106 498 151.5 517.5 Q197 537 245 537 Q299 537 339.5 515.5 Q380 494 400 447 Q427 491 469 514 Q511 537 567 537 Z M564 477 Q523 477 496 459.5 Q469 442 453 416 Q437 390 430.5 359.5 Q424 329 424 302 L681 302 Q681 342 675 374.5 Q669 407 655.5 429.5 Q642 452 619.5 464.5 Q597 477 564 477 Z M290 254 Q243 254 210.5 246 Q178 238 158.5 223 Q139 208 130.5 186.5 Q122 165 122 138 Q122 94 147.5 69 Q173 44 214 44 Q242 44 267 55.5 Q292 67 310.5 88 Q329 109 340 137 Q351 165 351 198 Q351 211 350.5 223.5 Q350 236 350 248 Q321 254 290 254 Z " />
<glyph glyph-name="b" unicode="b" horiz-adv-x="590" d="M185 456 Q215 493 254 515 Q293 537 344 537 Q438 537 486.5 468 Q535 399 535 263 Q535 129 486 58.5 Q437 -12 332 -12 Q302 -12 277.5 -4 Q253 4 233.5 15.5 Q214 27 200 41 Q186 55 178 67 L163 0 L112 0 L112 655 L42 676 L42 720 L185 720 L185 456 Z M326 472 Q280 472 245.5 446 Q211 420 185 386 L185 131 Q193 118 206 104 Q219 90 236 79 Q253 68 274 60.5 Q295 53 319 53 Q383 53 420 102 Q457 151 457 261 Q457 371 423.5 421.5 Q390 472 326 472 Z " />
<glyph glyph-name="c" unicode="c" horiz-adv-x="495" d="M270 537 Q318 537 356.5 526 Q395 515 435 492 L435 346 L382 346 L359 456 Q339 466 319 469.5 Q299 473 270 473 Q204 473 164 422.5 Q124 372 124 266 Q124 159 164.5 106 Q205 53 274 53 Q305 53 340.5 63 Q376 73 415 92 L438 36 Q395 12 349.5 0 Q304 -12 262 -12 Q214 -12 174 5 Q134 22 106 56.5 Q78 91 62.5 142.5 Q47 194 47 264 Q47 334 63.5 385.5 Q80 437 109.5 470.5 Q139 504 180 520.5 Q221 537 270 537 Z " />
<glyph glyph-name="cacute" unicode="&#x107;" horiz-adv-x="495" d="M270 537 Q318 537 356.5 526 Q395 515 435 492 L435 346 L382 346 L359 456 Q339 466 319 469.5 Q299 473 270 473 Q204 473 164 422.5 Q124 372 124 266 Q124 159 164.5 106 Q205 53 274 53 Q305 53 340.5 63 Q376 73 415 92 L438 36 Q395 12 349.5 0 Q304 -12 262 -12 Q214 -12 174 5 Q134 22 106 56.5 Q78 91 62.5 142.5 Q47 194 47 264 Q47 334 63.5 385.5 Q80 437 109.5 470.5 Q139 504 180 520.5 Q221 537 270 537 Z M390 717 L245 591 L214 624 L347 762 L390 717 Z " />
<glyph glyph-name="ccaron" unicode="&#x10d;" horiz-adv-x="495" d="M270 537 Q318 537 356.5 526 Q395 515 435 492 L435 346 L382 346 L359 456 Q339 466 319 469.5 Q299 473 270 473 Q204 473 164 422.5 Q124 372 124 266 Q124 159 164.5 106 Q205 53 274 53 Q305 53 340.5 63 Q376 73 415 92 L438 36 Q395 12 349.5 0 Q304 -12 262 -12 Q214 -12 174 5 Q134 22 106 56.5 Q78 91 62.5 142.5 Q47 194 47 264 Q47 334 63.5 385.5 Q80 437 109.5 470.5 Q139 504 180 520.5 Q221 537 270 537 Z M406 741 L306 590 L256 590 L156 741 L191 764 L281 648 L372 764 L406 741 Z " />
<glyph glyph-name="ccedilla" unicode="&#xe7;" horiz-adv-x="495" d="M276 -56 Q290 -57 303.5 -60.5 Q317 -64 328 -72.5 Q339 -81 346 -93.5 Q353 -106 353 -125 Q353 -168 327 -187.5 Q301 -207 263 -207 Q239 -207 217.5 -201 Q196 -195 185 -190 L196 -151 Q210 -156 225.5 -160 Q241 -164 258 -164 Q275 -164 289 -157 Q303 -150 303 -127 Q303 -105 286.5 -98 Q270 -91 238 -91 L227 -91 L244 -11 Q155 -5 101 63 Q47 131 47 264 Q47 334 63.5 385.5 Q80 437 109.5 470.5 Q139 504 180 520.5 Q221 537 270 537 Q318 537 356.5 526 Q395 515 435 492 L435 346 L382 346 L359 456 Q339 466 319 469.5 Q299 473 270 473 Q204 473 164 422.5 Q124 372 124 266 Q124 159 164.5 106 Q205 53 274 53 Q305 53 340.5 63 Q376 73 415 92 L438 36 Q401 15 361.5 3.5 Q322 -8 285 -11 L276 -56 Z " />
<glyph glyph-name="ccircumflex" unicode="&#x109;" horiz-adv-x="495" d="M270 537 Q318 537 356.5 526 Q395 515 435 492 L435 346 L382 346 L359 456 Q339 466 319 469.5 Q299 473 270 473 Q204 473 164 422.5 Q124 372 124 266 Q124 159 164.5 106 Q205 53 274 53 Q305 53 340.5 63 Q376 73 415 92 L438 36 Q395 12 349.5 0 Q304 -12 262 -12 Q214 -12 174 5 Q134 22 106 56.5 Q78 91 62.5 142.5 Q47 194 47 264 Q47 334 63.5 385.5 Q80 437 109.5 470.5 Q139 504 180 520.5 Q221 537 270 537 Z M282 698 L192 582 L157 605 L257 756 L307 756 L407 605 L373 582 L282 698 Z " />
<glyph glyph-name="cdotaccent" unicode="&#x10b;" horiz-adv-x="495" d="M270 537 Q318 537 356.5 526 Q395 515 435 492 L435 346 L382 346 L359 456 Q339 466 319 469.5 Q299 473 270 473 Q204 473 164 422.5 Q124 372 124 266 Q124 159 164.5 106 Q205 53 274 53 Q305 53 340.5 63 Q376 73 415 92 L438 36 Q395 12 349.5 0 Q304 -12 262 -12 Q214 -12 174 5 Q134 22 106 56.5 Q78 91 62.5 142.5 Q47 194 47 264 Q47 334 63.5 385.5 Q80 437 109.5 470.5 Q139 504 180 520.5 Q221 537 270 537 Z M284 716 Q306 716 321 703 Q336 690 336 668 Q336 646 321.5 633.5 Q307 621 284 621 Q262 621 246.5 633.5 Q231 646 231 668 Q231 690 246.5 703 Q262 716 284 716 Z " />
<glyph glyph-name="d" unicode="d" horiz-adv-x="588" d="M478 63 L548 41 L548 0 L412 0 L409 68 Q400 56 385.5 42 Q371 28 351.5 16 Q332 4 306.5 -4 Q281 -12 250 -12 Q150 -12 102.5 59.5 Q55 131 55 262 Q55 396 107 466.5 Q159 537 253 537 Q306 537 342.5 513.5 Q379 490 405 458 L405 655 L337 676 L337 720 L478 720 L478 63 Z M268 472 Q207 472 170 421.5 Q133 371 133 262 Q133 218 140 179.5 Q147 141 163.5 113 Q180 85 206.5 69 Q233 53 272 53 Q296 53 317 61 Q338 69 354.5 80.5 Q371 92 383.5 105 Q396 118 405 129 L405 386 Q397 398 383.5 413 Q370 428 352.5 441 Q335 454 313.5 463 Q292 472 268 472 Z " />
<glyph glyph-name="eth" unicode="&#xf0;" horiz-adv-x="495" d="M351 608 Q403 550 424.5 471 Q446 392 446 295 Q446 223 433 166.5 Q420 110 394.5 70 Q369 30 330 9 Q291 -12 239 -12 Q148 -12 95 44 Q42 100 42 212 Q42 262 54 303.5 Q66 345 89 374.5 Q112 404 146 420.5 Q180 437 224 437 Q272 437 310.5 417.5 Q349 398 376 365 Q369 431 349 480 Q329 529 297 566 L217 506 L181 552 L252 606 Q202 643 129 666 L149 722 Q198 710 237 691.5 Q276 673 307 649 L391 711 L428 664 L351 608 Z M238 52 Q300 52 338 111.5 Q376 171 375 298 Q364 311 350.5 325 Q337 339 320 351 Q303 363 283 370.5 Q263 378 239 378 Q214 378 191.5 369 Q169 360 152 340 Q135 320 125 288.5 Q115 257 115 213 Q115 169 124.5 138.5 Q134 108 151 89 Q168 70 190 61 Q212 52 238 52 Z " />
<glyph glyph-name="dcaron" unicode="&#x10f;" horiz-adv-x="646" d="M478 63 L548 41 L548 0 L412 0 L409 68 Q400 56 385.5 42 Q371 28 351.5 16 Q332 4 306.5 -4 Q281 -12 250 -12 Q150 -12 102.5 59.5 Q55 131 55 262 Q55 396 107 466.5 Q159 537 253 537 Q306 537 342.5 513.5 Q379 490 405 458 L405 655 L337 676 L337 720 L478 720 L478 63 Z M268 472 Q207 472 170 421.5 Q133 371 133 262 Q133 218 140 179.5 Q147 141 163.5 113 Q180 85 206.5 69 Q233 53 272 53 Q296 53 317 61 Q338 69 354.5 80.5 Q371 92 383.5 105 Q396 118 405 129 L405 386 Q397 398 383.5 413 Q370 428 352.5 441 Q335 454 313.5 463 Q292 472 268 472 Z M570 534 L520 534 L553 720 L621 720 L570 534 Z " />
<glyph glyph-name="dcroat" unicode="&#x111;" horiz-adv-x="608" d="M478 647 L556 647 L556 589 L478 589 L478 63 L548 41 L548 0 L412 0 L409 65 Q400 53 385.5 39.5 Q371 26 351.5 14.5 Q332 3 306.5 -4.5 Q281 -12 250 -12 Q151 -12 103 52.5 Q55 117 55 245 Q55 370 106 436 Q157 502 251 502 Q304 502 343 478 Q382 454 405 426 L405 589 L277 589 L277 647 L405 647 L405 720 L478 720 L478 647 Z M262 439 Q205 439 169.5 392 Q134 345 134 245 Q134 203 141 167.5 Q148 132 163.5 106.5 Q179 81 204 67 Q229 53 265 53 Q292 53 314 60.5 Q336 68 353.5 79 Q371 90 383.5 103.5 Q396 117 405 128 L405 354 Q397 366 383 381 Q369 396 350.5 408.5 Q332 421 309.5 430 Q287 439 262 439 Z " />
<glyph glyph-name="e" unicode="e" horiz-adv-x="500" d="M263 537 Q357 537 403.5 477 Q450 417 450 291 Q450 280 450 268 Q450 256 449 245 L125 245 Q127 151 162.5 101 Q198 51 274 51 Q313 51 345.5 63 Q378 75 414 102 L440 52 Q400 18 357 3 Q314 -12 264 -12 Q214 -12 174 3.5 Q134 19 106 52 Q78 85 62.5 137 Q47 189 47 262 Q47 329 62.5 380.5 Q78 432 106 466.5 Q134 501 174 519 Q214 537 263 537 Z M264 477 Q223 477 196.5 459.5 Q170 442 154.5 416 Q139 390 132.5 359 Q126 328 126 301 L378 301 Q378 341 372 374 Q366 407 353 429.5 Q340 452 318.5 464.5 Q297 477 264 477 Z " />
<glyph glyph-name="eacute" unicode="&#xe9;" horiz-adv-x="500" d="M263 537 Q357 537 403.5 477 Q450 417 450 291 Q450 280 450 268 Q450 256 449 245 L125 245 Q127 151 162.5 101 Q198 51 274 51 Q313 51 345.5 63 Q378 75 414 102 L440 52 Q400 18 357 3 Q314 -12 264 -12 Q214 -12 174 3.5 Q134 19 106 52 Q78 85 62.5 137 Q47 189 47 262 Q47 329 62.5 380.5 Q78 432 106 466.5 Q134 501 174 519 Q214 537 263 537 Z M264 477 Q223 477 196.5 459.5 Q170 442 154.5 416 Q139 390 132.5 359 Q126 328 126 301 L378 301 Q378 341 372 374 Q366 407 353 429.5 Q340 452 318.5 464.5 Q297 477 264 477 Z M379 717 L234 591 L203 624 L336 762 L379 717 Z " />
<glyph glyph-name="ebreve" unicode="&#x115;" horiz-adv-x="500" d="M263 537 Q357 537 403.5 477 Q450 417 450 291 Q450 280 450 268 Q450 256 449 245 L125 245 Q127 151 162.5 101 Q198 51 274 51 Q313 51 345.5 63 Q378 75 414 102 L440 52 Q400 18 357 3 Q314 -12 264 -12 Q214 -12 174 3.5 Q134 19 106 52 Q78 85 62.5 137 Q47 189 47 262 Q47 329 62.5 380.5 Q78 432 106 466.5 Q134 501 174 519 Q214 537 263 537 Z M264 477 Q223 477 196.5 459.5 Q170 442 154.5 416 Q139 390 132.5 359 Q126 328 126 301 L378 301 Q378 341 372 374 Q366 407 353 429.5 Q340 452 318.5 464.5 Q297 477 264 477 Z M397 751 Q392 671 362 633.5 Q332 596 272 596 Q212 596 183 632.5 Q154 669 146 750 L192 758 Q199 698 216 672.5 Q233 647 272 647 Q314 647 330 674.5 Q346 702 351 758 L397 751 Z " />
<glyph glyph-name="ecaron" unicode="&#x11b;" horiz-adv-x="500" d="M263 537 Q357 537 403.5 477 Q450 417 450 291 Q450 280 450 268 Q450 256 449 245 L125 245 Q127 151 162.5 101 Q198 51 274 51 Q313 51 345.5 63 Q378 75 414 102 L440 52 Q400 18 357 3 Q314 -12 264 -12 Q214 -12 174 3.5 Q134 19 106 52 Q78 85 62.5 137 Q47 189 47 262 Q47 329 62.5 380.5 Q78 432 106 466.5 Q134 501 174 519 Q214 537 263 537 Z M264 477 Q223 477 196.5 459.5 Q170 442 154.5 416 Q139 390 132.5 359 Q126 328 126 301 L378 301 Q378 341 372 374 Q366 407 353 429.5 Q340 452 318.5 464.5 Q297 477 264 477 Z M395 741 L295 590 L245 590 L145 741 L180 764 L270 648 L361 764 L395 741 Z " />
<glyph glyph-name="ecircumflex" unicode="&#xea;" horiz-adv-x="500" d="M263 537 Q357 537 403.5 477 Q450 417 450 291 Q450 280 450 268 Q450 256 449 245 L125 245 Q127 151 162.5 101 Q198 51 274 51 Q313 51 345.5 63 Q378 75 414 102 L440 52 Q400 18 357 3 Q314 -12 264 -12 Q214 -12 174 3.5 Q134 19 106 52 Q78 85 62.5 137 Q47 189 47 262 Q47 329 62.5 380.5 Q78 432 106 466.5 Q134 501 174 519 Q214 537 263 537 Z M264 477 Q223 477 196.5 459.5 Q170 442 154.5 416 Q139 390 132.5 359 Q126 328 126 301 L378 301 Q378 341 372 374 Q366 407 353 429.5 Q340 452 318.5 464.5 Q297 477 264 477 Z M271 698 L181 582 L146 605 L246 756 L296 756 L396 605 L362 582 L271 698 Z " />
<glyph glyph-name="edieresis" unicode="&#xeb;" horiz-adv-x="500" d="M263 537 Q357 537 403.5 477 Q450 417 450 291 Q450 280 450 268 Q450 256 449 245 L125 245 Q127 151 162.5 101 Q198 51 274 51 Q313 51 345.5 63 Q378 75 414 102 L440 52 Q400 18 357 3 Q314 -12 264 -12 Q214 -12 174 3.5 Q134 19 106 52 Q78 85 62.5 137 Q47 189 47 262 Q47 329 62.5 380.5 Q78 432 106 466.5 Q134 501 174 519 Q214 537 263 537 Z M264 477 Q223 477 196.5 459.5 Q170 442 154.5 416 Q139 390 132.5 359 Q126 328 126 301 L378 301 Q378 341 372 374 Q366 407 353 429.5 Q340 452 318.5 464.5 Q297 477 264 477 Z M182 719 Q204 719 216.5 706 Q229 693 229 673 Q229 654 216 641.5 Q203 629 182 629 Q160 629 146.5 641.5 Q133 654 133 673 Q133 693 146.5 706 Q160 719 182 719 Z M358 719 Q380 719 392.5 706 Q405 693 405 673 Q405 654 392 641.5 Q379 629 358 629 Q336 629 322.5 641.5 Q309 654 309 673 Q309 693 322.5 706 Q336 719 358 719 Z " />
<glyph glyph-name="edotaccent" unicode="&#x117;" horiz-adv-x="500" d="M263 537 Q357 537 403.5 477 Q450 417 450 291 Q450 280 450 268 Q450 256 449 245 L125 245 Q127 151 162.5 101 Q198 51 274 51 Q313 51 345.5 63 Q378 75 414 102 L440 52 Q400 18 357 3 Q314 -12 264 -12 Q214 -12 174 3.5 Q134 19 106 52 Q78 85 62.5 137 Q47 189 47 262 Q47 329 62.5 380.5 Q78 432 106 466.5 Q134 501 174 519 Q214 537 263 537 Z M264 477 Q223 477 196.5 459.5 Q170 442 154.5 416 Q139 390 132.5 359 Q126 328 126 301 L378 301 Q378 341 372 374 Q366 407 353 429.5 Q340 452 318.5 464.5 Q297 477 264 477 Z M273 716 Q295 716 310 703 Q325 690 325 668 Q325 646 310.5 633.5 Q296 621 273 621 Q251 621 235.5 633.5 Q220 646 220 668 Q220 690 235.5 703 Q251 716 273 716 Z " />
<glyph glyph-name="egrave" unicode="&#xe8;" horiz-adv-x="500" d="M263 537 Q357 537 403.5 477 Q450 417 450 291 Q450 280 450 268 Q450 256 449 245 L125 245 Q127 151 162.5 101 Q198 51 274 51 Q313 51 345.5 63 Q378 75 414 102 L440 52 Q400 18 357 3 Q314 -12 264 -12 Q214 -12 174 3.5 Q134 19 106 52 Q78 85 62.5 137 Q47 189 47 262 Q47 329 62.5 380.5 Q78 432 106 466.5 Q134 501 174 519 Q214 537 263 537 Z M264 477 Q223 477 196.5 459.5 Q170 442 154.5 416 Q139 390 132.5 359 Q126 328 126 301 L378 301 Q378 341 372 374 Q366 407 353 429.5 Q340 452 318.5 464.5 Q297 477 264 477 Z M353 624 L322 591 L177 717 L220 762 L353 624 Z " />
<glyph glyph-name="emacron" unicode="&#x113;" horiz-adv-x="500" d="M263 537 Q357 537 403.5 477 Q450 417 450 291 Q450 280 450 268 Q450 256 449 245 L125 245 Q127 151 162.5 101 Q198 51 274 51 Q313 51 345.5 63 Q378 75 414 102 L440 52 Q400 18 357 3 Q314 -12 264 -12 Q214 -12 174 3.5 Q134 19 106 52 Q78 85 62.5 137 Q47 189 47 262 Q47 329 62.5 380.5 Q78 432 106 466.5 Q134 501 174 519 Q214 537 263 537 Z M264 477 Q223 477 196.5 459.5 Q170 442 154.5 416 Q139 390 132.5 359 Q126 328 126 301 L378 301 Q378 341 372 374 Q366 407 353 429.5 Q340 452 318.5 464.5 Q297 477 264 477 Z M404 623 L150 623 L150 678 L404 678 L404 623 Z " />
<glyph glyph-name="eogonek" unicode="&#x119;" horiz-adv-x="500" d="M450 291 Q450 280 450 268 Q450 256 449 245 L125 245 Q127 151 162.5 101 Q198 51 274 51 Q313 51 345.5 63 Q378 75 414 102 L440 52 L422 38 Q359 -14 330.5 -58 Q302 -102 302 -132 Q302 -170 341 -170 Q355 -170 367.5 -165.5 Q380 -161 394 -153 L413 -191 Q396 -202 373 -212 Q350 -222 324 -222 Q283 -222 262 -200.5 Q241 -179 241 -144 Q241 -108 260.5 -71 Q280 -34 314 -8 Q302 -10 289.5 -11 Q277 -12 264 -12 Q214 -12 174 3.5 Q134 19 106 52 Q78 85 62.5 137 Q47 189 47 262 Q47 329 62.5 380.5 Q78 432 106 466.5 Q134 501 174 519 Q214 537 263 537 Q357 537 403.5 477 Q450 417 450 291 Z M378 301 Q378 341 372 374 Q366 407 353 429.5 Q340 452 318.5 464.5 Q297 477 264 477 Q223 477 196.5 459.5 Q170 442 154.5 416 Q139 390 132.5 359 Q126 328 126 301 L378 301 Z " />
<glyph glyph-name="f" unicode="f" horiz-adv-x="359" d="M256 732 Q274 732 293 730 Q312 728 332 723 L326 668 Q314 671 299.5 673 Q285 675 269 675 Q239 675 218.5 660 Q198 645 198 603 L198 525 L315 525 L315 467 L198 467 L198 63 L300 41 L300 0 L55 0 L55 41 L125 63 L125 467 L54 467 L54 511 L125 523 L125 598 Q125 658 154.5 695 Q184 732 256 732 Z " />
<glyph glyph-name="g" unicode="g" horiz-adv-x="532" d="M491 467 L398 474 Q440 430 440 359 Q440 276 387 230.5 Q334 185 244 185 Q225 185 207.5 186.5 Q190 188 174 193 Q165 182 158.5 169 Q152 156 152 141 Q152 121 168.5 107 Q185 93 220 93 L338 93 Q410 93 449 64 Q488 35 488 -28 Q488 -64 474.5 -96.5 Q461 -129 432.5 -154.5 Q404 -180 360 -195 Q316 -210 256 -210 Q145 -210 94 -173 Q43 -136 43 -74 Q43 -31 64 -1.5 Q85 28 120 51 Q103 65 92.5 82.5 Q82 100 82 126 Q82 155 95.5 176.5 Q109 198 125 215 Q54 260 54 357 Q54 442 107 489.5 Q160 537 247 537 Q297 537 336 522 L491 538 L491 467 Z M248 481 Q195 481 161.5 451 Q128 421 128 361 Q128 300 161.5 271 Q195 242 248 242 Q300 242 334 271 Q368 300 368 361 Q368 424 334 452.5 Q300 481 248 481 Z M177 27 Q112 -8 112 -67 Q112 -103 144 -127.5 Q176 -152 254 -152 Q286 -152 315 -146 Q344 -140 366.5 -126 Q389 -112 402.5 -90 Q416 -68 416 -35 Q416 3 394.5 15 Q373 27 327 27 L177 27 Z " />
<glyph glyph-name="gbreve" unicode="&#x11f;" horiz-adv-x="532" d="M491 467 L398 474 Q440 430 440 359 Q440 276 387 230.5 Q334 185 244 185 Q225 185 207.5 186.5 Q190 188 174 193 Q165 182 158.5 169 Q152 156 152 141 Q152 121 168.5 107 Q185 93 220 93 L338 93 Q410 93 449 64 Q488 35 488 -28 Q488 -64 474.5 -96.5 Q461 -129 432.5 -154.5 Q404 -180 360 -195 Q316 -210 256 -210 Q145 -210 94 -173 Q43 -136 43 -74 Q43 -31 64 -1.5 Q85 28 120 51 Q103 65 92.5 82.5 Q82 100 82 126 Q82 155 95.5 176.5 Q109 198 125 215 Q54 260 54 357 Q54 442 107 489.5 Q160 537 247 537 Q297 537 336 522 L491 538 L491 467 Z M248 481 Q195 481 161.5 451 Q128 421 128 361 Q128 300 161.5 271 Q195 242 248 242 Q300 242 334 271 Q368 300 368 361 Q368 424 334 452.5 Q300 481 248 481 Z M177 27 Q112 -8 112 -67 Q112 -103 144 -127.5 Q176 -152 254 -152 Q286 -152 315 -146 Q344 -140 366.5 -126 Q389 -112 402.5 -90 Q416 -68 416 -35 Q416 3 394.5 15 Q373 27 327 27 L177 27 Z M380 751 Q375 671 345 633.5 Q315 596 255 596 Q195 596 166 632.5 Q137 669 129 750 L175 758 Q182 698 199 672.5 Q216 647 255 647 Q297 647 313 674.5 Q329 702 334 758 L380 751 Z " />
<glyph glyph-name="gcircumflex" unicode="&#x11d;" horiz-adv-x="532" d="M491 467 L398 474 Q440 430 440 359 Q440 276 387 230.5 Q334 185 244 185 Q225 185 207.5 186.5 Q190 188 174 193 Q165 182 158.5 169 Q152 156 152 141 Q152 121 168.5 107 Q185 93 220 93 L338 93 Q410 93 449 64 Q488 35 488 -28 Q488 -64 474.5 -96.5 Q461 -129 432.5 -154.5 Q404 -180 360 -195 Q316 -210 256 -210 Q145 -210 94 -173 Q43 -136 43 -74 Q43 -31 64 -1.5 Q85 28 120 51 Q103 65 92.5 82.5 Q82 100 82 126 Q82 155 95.5 176.5 Q109 198 125 215 Q54 260 54 357 Q54 442 107 489.5 Q160 537 247 537 Q297 537 336 522 L491 538 L491 467 Z M248 481 Q195 481 161.5 451 Q128 421 128 361 Q128 300 161.5 271 Q195 242 248 242 Q300 242 334 271 Q368 300 368 361 Q368 424 334 452.5 Q300 481 248 481 Z M177 27 Q112 -8 112 -67 Q112 -103 144 -127.5 Q176 -152 254 -152 Q286 -152 315 -146 Q344 -140 366.5 -126 Q389 -112 402.5 -90 Q416 -68 416 -35 Q416 3 394.5 15 Q373 27 327 27 L177 27 Z M254 698 L164 582 L129 605 L229 756 L279 756 L379 605 L345 582 L254 698 Z " />
<glyph glyph-name="gcommaaccent" unicode="&#x123;" horiz-adv-x="532" d="M491 467 L398 474 Q440 430 440 359 Q440 276 387 230.5 Q334 185 244 185 Q225 185 207.5 186.5 Q190 188 174 193 Q165 182 158.5 169 Q152 156 152 141 Q152 121 168.5 107 Q185 93 220 93 L338 93 Q410 93 449 64 Q488 35 488 -28 Q488 -64 474.5 -96.5 Q461 -129 432.5 -154.5 Q404 -180 360 -195 Q316 -210 256 -210 Q145 -210 94 -173 Q43 -136 43 -74 Q43 -31 64 -1.5 Q85 28 120 51 Q103 65 92.5 82.5 Q82 100 82 126 Q82 155 95.5 176.5 Q109 198 125 215 Q54 260 54 357 Q54 442 107 489.5 Q160 537 247 537 Q297 537 336 522 L491 538 L491 467 Z M248 481 Q195 481 161.5 451 Q128 421 128 361 Q128 300 161.5 271 Q195 242 248 242 Q300 242 334 271 Q368 300 368 361 Q368 424 334 452.5 Q300 481 248 481 Z M177 27 Q112 -8 112 -67 Q112 -103 144 -127.5 Q176 -152 254 -152 Q286 -152 315 -146 Q344 -140 366.5 -126 Q389 -112 402.5 -90 Q416 -68 416 -35 Q416 3 394.5 15 Q373 27 327 27 L177 27 Z M214.014 607.996 L272.01 765.986 L318.007 753.987 L278.01 593.996 L214.014 607.996 Z " />
<glyph glyph-name="gdotaccent" unicode="&#x121;" horiz-adv-x="532" d="M491 467 L398 474 Q440 430 440 359 Q440 276 387 230.5 Q334 185 244 185 Q225 185 207.5 186.5 Q190 188 174 193 Q165 182 158.5 169 Q152 156 152 141 Q152 121 168.5 107 Q185 93 220 93 L338 93 Q410 93 449 64 Q488 35 488 -28 Q488 -64 474.5 -96.5 Q461 -129 432.5 -154.5 Q404 -180 360 -195 Q316 -210 256 -210 Q145 -210 94 -173 Q43 -136 43 -74 Q43 -31 64 -1.5 Q85 28 120 51 Q103 65 92.5 82.5 Q82 100 82 126 Q82 155 95.5 176.5 Q109 198 125 215 Q54 260 54 357 Q54 442 107 489.5 Q160 537 247 537 Q297 537 336 522 L491 538 L491 467 Z M248 481 Q195 481 161.5 451 Q128 421 128 361 Q128 300 161.5 271 Q195 242 248 242 Q300 242 334 271 Q368 300 368 361 Q368 424 334 452.5 Q300 481 248 481 Z M177 27 Q112 -8 112 -67 Q112 -103 144 -127.5 Q176 -152 254 -152 Q286 -152 315 -146 Q344 -140 366.5 -126 Q389 -112 402.5 -90 Q416 -68 416 -35 Q416 3 394.5 15 Q373 27 327 27 L177 27 Z M256 716 Q278 716 293 703 Q308 690 308 668 Q308 646 293.5 633.5 Q279 621 256 621 Q234 621 218.5 633.5 Q203 646 203 668 Q203 690 218.5 703 Q234 716 256 716 Z " />
<glyph glyph-name="h" unicode="h" horiz-adv-x="616" d="M195 456 L197 456 Q226 491 266 514 Q306 537 354 537 Q397 537 426.5 523 Q456 509 473.5 484 Q491 459 498.5 424 Q506 389 506 348 L506 62 L575 41 L575 0 L432 0 L432 336 Q432 405 410 438.5 Q388 472 334 472 Q310 472 289 463 Q268 454 250.5 441 Q233 428 219.5 413.5 Q206 399 197 389 L197 63 L267 41 L267 0 L54 0 L54 41 L124 63 L124 655 L54 676 L54 720 L195 720 L195 456 Z " />
<glyph glyph-name="hbar" unicode="&#x127;" horiz-adv-x="623" d="M582 0 L438 0 L438 302 Q438 374 415.5 406 Q393 438 342 438 Q319 438 298 429.5 Q277 421 259.5 408.5 Q242 396 228 381.5 Q214 367 205 356 L205 63 L275 42 L275 0 L62 0 L62 42 L132 63 L132 589 L54 589 L54 647 L132 647 L132 720 L203 720 L203 647 L331 647 L331 589 L203 589 L203 421 Q234 457 273.5 479.5 Q313 502 361 502 Q404 502 433 488.5 Q462 475 479.5 450.5 Q497 426 504.5 390.5 Q512 355 512 312 L512 63 L582 42 L582 0 Z " />
<glyph glyph-name="hcircumflex" unicode="&#x125;" horiz-adv-x="616" d="M195 456 L197 456 Q226 491 266 514 Q306 537 354 537 Q397 537 426.5 523 Q456 509 473.5 484 Q491 459 498.5 424 Q506 389 506 348 L506 62 L575 41 L575 0 L432 0 L432 336 Q432 405 410 438.5 Q388 472 334 472 Q310 472 289 463 Q268 454 250.5 441 Q233 428 219.5 413.5 Q206 399 197 389 L197 63 L267 41 L267 0 L54 0 L54 41 L124 63 L124 655 L54 676 L54 720 L195 720 L195 456 Z M264 784 L235 758 L151 825 L67 757 L37 784 L125 876 L177 876 L264 784 Z " />
<glyph glyph-name="i" unicode="i" horiz-adv-x="314" d="M155 716 Q177 716 192 703 Q207 690 207 668 Q207 646 192.5 633.5 Q178 621 155 621 Q133 621 117.5 633.5 Q102 646 102 668 Q102 690 117.5 703 Q133 716 155 716 Z M197 64 L267 43 L267 0 L54 0 L54 43 L124 64 L124 460 L55 481 L55 525 L197 525 L197 64 Z " />
<glyph glyph-name="dotlessi" unicode="&#x131;" horiz-adv-x="314" d="M197 64 L267 43 L267 0 L54 0 L54 43 L124 64 L124 460 L55 481 L55 525 L197 525 L197 64 Z " />
<glyph glyph-name="iacute" unicode="&#xed;" horiz-adv-x="314" d="M197 64 L267 43 L267 0 L54 0 L54 43 L124 64 L124 460 L55 481 L55 525 L197 525 L197 64 Z M261 717 L116 591 L85 624 L218 762 L261 717 Z " />
<glyph glyph-name="ibreve" unicode="&#x12d;" horiz-adv-x="314" d="M197 64 L267 43 L267 0 L54 0 L54 43 L124 64 L124 460 L55 481 L55 525 L197 525 L197 64 Z M280 751 Q275 671 245 633.5 Q215 596 155 596 Q95 596 66 632.5 Q37 669 29 750 L75 758 Q82 698 99 672.5 Q116 647 155 647 Q197 647 213 674.5 Q229 702 234 758 L280 751 Z " />
<glyph glyph-name="icircumflex" unicode="&#xee;" horiz-adv-x="314" d="M197 64 L267 43 L267 0 L54 0 L54 43 L124 64 L124 460 L55 481 L55 525 L197 525 L197 64 Z M154 698 L64 582 L29 605 L129 756 L179 756 L279 605 L245 582 L154 698 Z " />
<glyph glyph-name="idieresis" unicode="&#xef;" horiz-adv-x="314" d="M197 64 L267 43 L267 0 L54 0 L54 43 L124 64 L124 460 L55 481 L55 525 L197 525 L197 64 Z M65 719 Q87 719 99.5 706 Q112 693 112 673 Q112 654 99 641.5 Q86 629 65 629 Q43 629 29.5 641.5 Q16 654 16 673 Q16 693 29.5 706 Q43 719 65 719 Z M241 719 Q263 719 275.5 706 Q288 693 288 673 Q288 654 275 641.5 Q262 629 241 629 Q219 629 205.5 641.5 Q192 654 192 673 Q192 693 205.5 706 Q219 719 241 719 Z " />
<glyph glyph-name="igrave" unicode="&#xec;" horiz-adv-x="314" d="M197 64 L267 43 L267 0 L54 0 L54 43 L124 64 L124 460 L55 481 L55 525 L197 525 L197 64 Z M236 624 L205 591 L60 717 L103 762 L236 624 Z " />
<glyph glyph-name="ij" unicode="&#x133;" horiz-adv-x="603" d="M155 716 Q177 716 192 703 Q207 690 207 668 Q207 646 192.5 633.5 Q178 621 155 621 Q133 621 117.5 633.5 Q102 646 102 668 Q102 690 117.5 703 Q133 716 155 716 Z M197 64 L267 43 L267 0 L54 0 L54 43 L124 64 L124 460 L55 481 L55 525 L197 525 L197 64 Z M462 716 Q484 716 499 703 Q514 690 514 668 Q514 646 499.5 633.5 Q485 621 462 621 Q440 621 424.5 633.5 Q409 646 409 668 Q409 690 424.5 703 Q440 716 462 716 Z M504 -79 Q504 -139 480.5 -171.5 Q457 -204 393 -204 Q374 -204 355.5 -201.5 Q337 -199 320 -193 L327 -137 Q348 -144 375 -144 Q404 -144 417 -131.5 Q430 -119 430 -78 L430 460 L361 481 L361 525 L504 525 L504 -79 Z " />
<glyph glyph-name="imacron" unicode="&#x12b;" horiz-adv-x="314" d="M197 64 L267 43 L267 0 L54 0 L54 43 L124 64 L124 460 L55 481 L55 525 L197 525 L197 64 Z M287 623 L33 623 L33 678 L287 678 L287 623 Z " />
<glyph glyph-name="iogonek" unicode="&#x12f;" horiz-adv-x="314" d="M155 621 Q133 621 117.5 633.5 Q102 646 102 668 Q102 690 117.5 703 Q133 716 155 716 Q177 716 192 703 Q207 690 207 668 Q207 646 192.5 633.5 Q178 621 155 621 Z M274 -191 Q257 -202 234 -212 Q211 -222 185 -222 Q144 -222 123 -200.5 Q102 -179 102 -144 Q102 -104 127 -65 Q152 -26 193 0 L54 0 L54 43 L124 64 L124 460 L55 481 L55 525 L197 525 L197 64 L267 43 L267 0 L266 0 Q216 -26 189.5 -63 Q163 -100 163 -132 Q163 -170 202 -170 Q216 -170 228.5 -165.5 Q241 -161 255 -153 L274 -191 Z " />
<glyph glyph-name="itilde" unicode="&#x129;" horiz-adv-x="314" d="M197 64 L267 43 L267 0 L54 0 L54 43 L124 64 L124 460 L55 481 L55 525 L197 525 L197 64 Z M288 682 Q278 645 259.5 627 Q241 609 216 609 Q199 609 182.5 614.5 Q166 620 151 626 Q136 632 123 637.5 Q110 643 100 643 Q87 643 79.5 636 Q72 629 61 607 L22 623 Q34 661 53.5 679 Q73 697 97 697 Q113 697 128 691.5 Q143 686 157 680 Q171 674 184.5 668.5 Q198 663 211 663 Q224 663 233 669.5 Q242 676 250 697 L288 682 Z " />
<glyph glyph-name="j" unicode="j" horiz-adv-x="293" d="M152 716 Q174 716 189 703 Q204 690 204 668 Q204 646 189.5 633.5 Q175 621 152 621 Q130 621 114.5 633.5 Q99 646 99 668 Q99 690 114.5 703 Q130 716 152 716 Z M194 -79 Q194 -139 170.5 -171.5 Q147 -204 83 -204 Q64 -204 45.5 -201.5 Q27 -199 10 -193 L17 -137 Q38 -144 65 -144 Q94 -144 107 -131.5 Q120 -119 120 -78 L120 460 L51 481 L51 525 L194 525 L194 -79 Z " />
<glyph glyph-name="dotlessj" unicode="&#x237;" horiz-adv-x="293" d="M194 -79 Q194 -139 170.5 -171.5 Q147 -204 83 -204 Q64 -204 45.5 -201.5 Q27 -199 10 -193 L17 -137 Q38 -144 65 -144 Q94 -144 107 -131.5 Q120 -119 120 -78 L120 460 L51 481 L51 525 L194 525 L194 -79 Z " />
<glyph glyph-name="jcircumflex" unicode="&#x135;" horiz-adv-x="293" d="M194 -79 Q194 -139 170.5 -171.5 Q147 -204 83 -204 Q64 -204 45.5 -201.5 Q27 -199 10 -193 L17 -137 Q38 -144 65 -144 Q94 -144 107 -131.5 Q120 -119 120 -78 L120 460 L51 481 L51 525 L194 525 L194 -79 Z M151 698 L61 582 L26 605 L126 756 L176 756 L276 605 L242 582 L151 698 Z " />
<glyph glyph-name="k" unicode="k" horiz-adv-x="553" d="M198 63 L267 41 L267 0 L54 0 L54 41 L125 63 L125 655 L55 676 L55 720 L198 720 L198 63 Z M512 483 L455 462 L292 280 L467 63 L523 41 L523 0 L419 0 L209 267 L209 273 L376 463 L319 484 L319 525 L512 525 L512 483 Z " />
<glyph glyph-name="kcommaaccent" unicode="&#x137;" horiz-adv-x="553" d="M198 63 L267 41 L267 0 L54 0 L54 41 L125 63 L125 655 L55 676 L55 720 L198 720 L198 63 Z M512 483 L455 462 L292 280 L467 63 L523 41 L523 0 L419 0 L209 267 L209 273 L376 463 L319 484 L319 525 L512 525 L512 483 Z M350 -72 L292 -230 L246 -218 L286 -58 L350 -72 Z " />
<glyph glyph-name="kgreenlandic" unicode="&#x138;" horiz-adv-x="543" d="M198 63 L267 41 L267 0 L54 0 L54 41 L125 63 L125 460 L55 481 L55 525 L198 525 L198 63 Z M492 481 L423 460 L290 280 L443 63 L513 42 L513 0 L398 0 L208 273 L346 461 L290 482 L290 525 L492 525 L492 481 Z " />
<glyph glyph-name="l" unicode="l" horiz-adv-x="314" d="M198 63 L267 41 L267 0 L54 0 L54 41 L125 63 L125 655 L55 676 L55 720 L198 720 L198 63 Z " />
<glyph glyph-name="lacute" unicode="&#x13a;" horiz-adv-x="314" d="M198 63 L267 41 L267 0 L54 0 L54 41 L125 63 L125 655 L55 676 L55 720 L198 720 L198 63 Z M254 842 L88 758 L67 795 L222 896 L254 842 Z " />
<glyph glyph-name="lcaron" unicode="&#x13e;" horiz-adv-x="353" d="M198 63 L267 41 L267 0 L54 0 L54 41 L125 63 L125 655 L55 676 L55 720 L198 720 L198 63 Z M277 534 L227 534 L260 720 L328 720 L277 534 Z " />
<glyph glyph-name="lcommaaccent" unicode="&#x13c;" horiz-adv-x="314" d="M198 63 L267 41 L267 0 L54 0 L54 41 L125 63 L125 655 L55 676 L55 720 L198 720 L198 63 Z M215 -72 L157 -230 L111 -218 L151 -58 L215 -72 Z " />
<glyph glyph-name="ldot" unicode="&#x140;" horiz-adv-x="446" d="M198 63 L267 41 L267 0 L54 0 L54 41 L125 63 L125 655 L55 676 L55 720 L198 720 L198 63 Z M320 419 Q344 419 359 405.5 Q374 392 374 367 Q374 342 359 327.5 Q344 313 320 313 Q296 313 281 327.5 Q266 342 266 366 Q266 392 281.5 405.5 Q297 419 320 419 Z " />
<glyph glyph-name="lslash" unicode="&#x142;" horiz-adv-x="325" d="M203 355 L203 63 L272 41 L272 0 L59 0 L59 41 L130 63 L130 319 L59 288 L59 351 L130 383 L130 655 L60 676 L60 720 L203 720 L203 418 L273 451 L273 388 L203 355 Z " />
<glyph glyph-name="m" unicode="m" horiz-adv-x="863" d="M620 537 Q659 537 684.5 524 Q710 511 725 488 Q740 465 746.5 434 Q753 403 753 366 L753 63 L822 41 L822 0 L679 0 L679 357 Q679 411 662 441 Q645 471 598 471 Q577 471 558 462 Q539 453 523 440.5 Q507 428 495 414 Q483 400 476 391 L476 63 L545 41 L545 0 L402 0 L402 356 Q402 409 385 440 Q368 471 321 471 Q299 471 280 462 Q261 453 245.5 440.5 Q230 428 217.5 414 Q205 400 197 390 L197 63 L266 42 L266 0 L54 0 L54 42 L124 63 L124 460 L54 481 L54 525 L189 525 L191 452 L193 452 Q204 467 219 482 Q234 497 253 509 Q272 521 294.5 529 Q317 537 343 537 Q397 537 424 513 Q451 489 464 451 Q494 487 531.5 512 Q569 537 620 537 Z " />
<glyph glyph-name="n" unicode="n" horiz-adv-x="616" d="M354 537 Q397 537 426.5 523 Q456 509 473.5 484 Q491 459 498.5 424 Q506 389 506 348 L506 62 L575 41 L575 0 L432 0 L432 336 Q432 405 409.5 438.5 Q387 472 334 472 Q310 472 288.5 463 Q267 454 249.5 441 Q232 428 218.5 413.5 Q205 399 197 389 L197 63 L267 41 L267 0 L54 0 L54 41 L124 63 L124 460 L54 481 L54 525 L189 525 L191 453 L193 453 Q222 489 263.5 513 Q305 537 354 537 Z " />
<glyph glyph-name="nacute" unicode="&#x144;" horiz-adv-x="616" d="M354 537 Q397 537 426.5 523 Q456 509 473.5 484 Q491 459 498.5 424 Q506 389 506 348 L506 62 L575 41 L575 0 L432 0 L432 336 Q432 405 409.5 438.5 Q387 472 334 472 Q310 472 288.5 463 Q267 454 249.5 441 Q232 428 218.5 413.5 Q205 399 197 389 L197 63 L267 41 L267 0 L54 0 L54 41 L124 63 L124 460 L54 481 L54 525 L189 525 L191 453 L193 453 Q222 489 263.5 513 Q305 537 354 537 Z M421 717 L276 591 L245 624 L378 762 L421 717 Z " />
<glyph glyph-name="napostrophe" unicode="&#x149;" horiz-adv-x="679" d="M-4 696 Q12 696 22.5 689.5 Q33 683 39.5 673 Q46 663 49 650.5 Q52 638 52 625 Q52 589 37 557 Q22 525 -25 500 L-40 527 Q-13 544 -1 562.5 Q11 581 13 612 Q2 602 -10.5 600.5 Q-23 599 -33.5 604 Q-44 609 -50.5 619.5 Q-57 630 -57 645 Q-57 667 -42.5 681.5 Q-28 696 -4 696 Z M417 537 Q460 537 489.5 523 Q519 509 536.5 484 Q554 459 561.5 424 Q569 389 569 348 L569 62 L638 41 L638 0 L495 0 L495 336 Q495 405 472.5 438.5 Q450 472 397 472 Q373 472 351.5 463 Q330 454 312.5 441 Q295 428 281.5 413.5 Q268 399 260 389 L260 63 L330 41 L330 0 L117 0 L117 41 L187 63 L187 460 L117 481 L117 525 L252 525 L254 453 L256 453 Q285 489 326.5 513 Q368 537 417 537 Z " />
<glyph glyph-name="ncaron" unicode="&#x148;" horiz-adv-x="616" d="M354 537 Q397 537 426.5 523 Q456 509 473.5 484 Q491 459 498.5 424 Q506 389 506 348 L506 62 L575 41 L575 0 L432 0 L432 336 Q432 405 409.5 438.5 Q387 472 334 472 Q310 472 288.5 463 Q267 454 249.5 441 Q232 428 218.5 413.5 Q205 399 197 389 L197 63 L267 41 L267 0 L54 0 L54 41 L124 63 L124 460 L54 481 L54 525 L189 525 L191 453 L193 453 Q222 489 263.5 513 Q305 537 354 537 Z M437 741 L337 590 L287 590 L187 741 L222 764 L312 648 L403 764 L437 741 Z " />
<glyph glyph-name="ncommaaccent" unicode="&#x146;" horiz-adv-x="616" d="M354 537 Q397 537 426.5 523 Q456 509 473.5 484 Q491 459 498.5 424 Q506 389 506 348 L506 62 L575 41 L575 0 L432 0 L432 336 Q432 405 409.5 438.5 Q387 472 334 472 Q310 472 288.5 463 Q267 454 249.5 441 Q232 428 218.5 413.5 Q205 399 197 389 L197 63 L267 41 L267 0 L54 0 L54 41 L124 63 L124 460 L54 481 L54 525 L189 525 L191 453 L193 453 Q222 489 263.5 513 Q305 537 354 537 Z M361 -72 L303 -230 L257 -218 L297 -58 L361 -72 Z " />
<glyph glyph-name="eng" unicode="&#x14b;" horiz-adv-x="605" d="M354 537 Q397 537 426.5 523 Q456 509 473.5 484 Q491 459 498.5 424 Q506 389 506 348 L506 -78 Q506 -138 484.5 -170.5 Q463 -203 402 -203 Q384 -203 367 -201 Q350 -199 334 -193 L341 -137 Q359 -143 384 -143 Q407 -143 419.5 -130.5 Q432 -118 432 -77 L432 336 Q432 405 409.5 438.5 Q387 472 334 472 Q310 472 288.5 463 Q267 454 249.5 441 Q232 428 218.5 413.5 Q205 399 197 389 L197 63 L267 41 L267 0 L54 0 L54 41 L124 63 L124 460 L54 481 L54 525 L189 525 L191 453 L193 453 Q222 489 263.5 513 Q305 537 354 537 Z " />
<glyph glyph-name="ntilde" unicode="&#xf1;" horiz-adv-x="616" d="M354 537 Q397 537 426.5 523 Q456 509 473.5 484 Q491 459 498.5 424 Q506 389 506 348 L506 62 L575 41 L575 0 L432 0 L432 336 Q432 405 409.5 438.5 Q387 472 334 472 Q310 472 288.5 463 Q267 454 249.5 441 Q232 428 218.5 413.5 Q205 399 197 389 L197 63 L267 41 L267 0 L54 0 L54 41 L124 63 L124 460 L54 481 L54 525 L189 525 L191 453 L193 453 Q222 489 263.5 513 Q305 537 354 537 Z M447 682 Q437 645 418.5 627 Q400 609 375 609 Q358 609 341.5 614.5 Q325 620 310 626 Q295 632 282 637.5 Q269 643 259 643 Q246 643 238.5 636 Q231 629 220 607 L181 623 Q193 661 212.5 679 Q232 697 256 697 Q272 697 287 691.5 Q302 686 316 680 Q330 674 343.5 668.5 Q357 663 370 663 Q383 663 392 669.5 Q401 676 409 697 L447 682 Z " />
<glyph glyph-name="o" unicode="o" horiz-adv-x="539" d="M268 537 Q370 537 430.5 468 Q491 399 491 262 Q491 127 429.5 57.5 Q368 -12 265 -12 Q162 -12 104.5 57 Q47 126 47 261 Q47 397 107 467 Q167 537 268 537 Z M269 473 Q206 473 165.5 422.5 Q125 372 125 262 Q125 151 165.5 101.5 Q206 52 269 52 Q300 52 326.5 64 Q353 76 372.5 101.5 Q392 127 403 166.5 Q414 206 414 262 Q414 318 403 358 Q392 398 372.5 423.5 Q353 449 326.5 461 Q300 473 269 473 Z " />
<glyph glyph-name="oacute" unicode="&#xf3;" horiz-adv-x="539" d="M268 537 Q370 537 430.5 468 Q491 399 491 262 Q491 127 429.5 57.5 Q368 -12 265 -12 Q162 -12 104.5 57 Q47 126 47 261 Q47 397 107 467 Q167 537 268 537 Z M269 473 Q206 473 165.5 422.5 Q125 372 125 262 Q125 151 165.5 101.5 Q206 52 269 52 Q300 52 326.5 64 Q353 76 372.5 101.5 Q392 127 403 166.5 Q414 206 414 262 Q414 318 403 358 Q392 398 372.5 423.5 Q353 449 326.5 461 Q300 473 269 473 Z M385 717 L240 591 L209 624 L342 762 L385 717 Z " />
<glyph glyph-name="obreve" unicode="&#x14f;" horiz-adv-x="539" d="M268 537 Q370 537 430.5 468 Q491 399 491 262 Q491 127 429.5 57.5 Q368 -12 265 -12 Q162 -12 104.5 57 Q47 126 47 261 Q47 397 107 467 Q167 537 268 537 Z M269 473 Q206 473 165.5 422.5 Q125 372 125 262 Q125 151 165.5 101.5 Q206 52 269 52 Q300 52 326.5 64 Q353 76 372.5 101.5 Q392 127 403 166.5 Q414 206 414 262 Q414 318 403 358 Q392 398 372.5 423.5 Q353 449 326.5 461 Q300 473 269 473 Z M403 751 Q398 671 368 633.5 Q338 596 278 596 Q218 596 189 632.5 Q160 669 152 750 L198 758 Q205 698 222 672.5 Q239 647 278 647 Q320 647 336 674.5 Q352 702 357 758 L403 751 Z " />
<glyph glyph-name="ocircumflex" unicode="&#xf4;" horiz-adv-x="539" d="M268 537 Q370 537 430.5 468 Q491 399 491 262 Q491 127 429.5 57.5 Q368 -12 265 -12 Q162 -12 104.5 57 Q47 126 47 261 Q47 397 107 467 Q167 537 268 537 Z M269 473 Q206 473 165.5 422.5 Q125 372 125 262 Q125 151 165.5 101.5 Q206 52 269 52 Q300 52 326.5 64 Q353 76 372.5 101.5 Q392 127 403 166.5 Q414 206 414 262 Q414 318 403 358 Q392 398 372.5 423.5 Q353 449 326.5 461 Q300 473 269 473 Z M277 698 L187 582 L152 605 L252 756 L302 756 L402 605 L368 582 L277 698 Z " />
<glyph glyph-name="odieresis" unicode="&#xf6;" horiz-adv-x="539" d="M268 537 Q370 537 430.5 468 Q491 399 491 262 Q491 127 429.5 57.5 Q368 -12 265 -12 Q162 -12 104.5 57 Q47 126 47 261 Q47 397 107 467 Q167 537 268 537 Z M269 473 Q206 473 165.5 422.5 Q125 372 125 262 Q125 151 165.5 101.5 Q206 52 269 52 Q300 52 326.5 64 Q353 76 372.5 101.5 Q392 127 403 166.5 Q414 206 414 262 Q414 318 403 358 Q392 398 372.5 423.5 Q353 449 326.5 461 Q300 473 269 473 Z M188 719 Q210 719 222.5 706 Q235 693 235 673 Q235 654 222 641.5 Q209 629 188 629 Q166 629 152.5 641.5 Q139 654 139 673 Q139 693 152.5 706 Q166 719 188 719 Z M364 719 Q386 719 398.5 706 Q411 693 411 673 Q411 654 398 641.5 Q385 629 364 629 Q342 629 328.5 641.5 Q315 654 315 673 Q315 693 328.5 706 Q342 719 364 719 Z " />
<glyph glyph-name="ograve" unicode="&#xf2;" horiz-adv-x="539" d="M268 537 Q370 537 430.5 468 Q491 399 491 262 Q491 127 429.5 57.5 Q368 -12 265 -12 Q162 -12 104.5 57 Q47 126 47 261 Q47 397 107 467 Q167 537 268 537 Z M269 473 Q206 473 165.5 422.5 Q125 372 125 262 Q125 151 165.5 101.5 Q206 52 269 52 Q300 52 326.5 64 Q353 76 372.5 101.5 Q392 127 403 166.5 Q414 206 414 262 Q414 318 403 358 Q392 398 372.5 423.5 Q353 449 326.5 461 Q300 473 269 473 Z M359 624 L328 591 L183 717 L226 762 L359 624 Z " />
<glyph glyph-name="ohungarumlaut" unicode="&#x151;" horiz-adv-x="539" d="M268 537 Q370 537 430.5 468 Q491 399 491 262 Q491 127 429.5 57.5 Q368 -12 265 -12 Q162 -12 104.5 57 Q47 126 47 261 Q47 397 107 467 Q167 537 268 537 Z M269 473 Q206 473 165.5 422.5 Q125 372 125 262 Q125 151 165.5 101.5 Q206 52 269 52 Q300 52 326.5 64 Q353 76 372.5 101.5 Q392 127 403 166.5 Q414 206 414 262 Q414 318 403 358 Q392 398 372.5 423.5 Q353 449 326.5 461 Q300 473 269 473 Z M334 719 L212 583 L177 608 L286 752 L334 719 Z M454 708 L337 582 L302 608 L407 742 L454 708 Z " />
<glyph glyph-name="omacron" unicode="&#x14d;" horiz-adv-x="539" d="M268 537 Q370 537 430.5 468 Q491 399 491 262 Q491 127 429.5 57.5 Q368 -12 265 -12 Q162 -12 104.5 57 Q47 126 47 261 Q47 397 107 467 Q167 537 268 537 Z M269 473 Q206 473 165.5 422.5 Q125 372 125 262 Q125 151 165.5 101.5 Q206 52 269 52 Q300 52 326.5 64 Q353 76 372.5 101.5 Q392 127 403 166.5 Q414 206 414 262 Q414 318 403 358 Q392 398 372.5 423.5 Q353 449 326.5 461 Q300 473 269 473 Z M410 623 L156 623 L156 678 L410 678 L410 623 Z " />
<glyph glyph-name="oslash" unicode="&#xf8;" horiz-adv-x="539" d="M415 485 Q451 451 471 395.5 Q491 340 491 262 Q491 127 429.5 57.5 Q368 -12 265 -12 Q207 -12 165 9 L139 -39 L85 -39 L125 36 Q87 70 67 126.5 Q47 183 47 261 Q47 397 107 467 Q167 537 268 537 Q328 537 375 513 L397 554 L451 554 L415 485 Z M122 262 Q122 208 132 169.5 Q142 131 161 105 L343 452 Q311 473 269 473 Q204 473 163 422.5 Q122 372 122 262 Z M269 52 Q300 52 327.5 64 Q355 76 374.5 101.5 Q394 127 405.5 166.5 Q417 206 417 262 Q417 315 407 353 Q397 391 379 417 L197 71 Q228 52 269 52 Z " />
<glyph glyph-name="otilde" unicode="&#xf5;" horiz-adv-x="539" d="M268 537 Q370 537 430.5 468 Q491 399 491 262 Q491 127 429.5 57.5 Q368 -12 265 -12 Q162 -12 104.5 57 Q47 126 47 261 Q47 397 107 467 Q167 537 268 537 Z M269 473 Q206 473 165.5 422.5 Q125 372 125 262 Q125 151 165.5 101.5 Q206 52 269 52 Q300 52 326.5 64 Q353 76 372.5 101.5 Q392 127 403 166.5 Q414 206 414 262 Q414 318 403 358 Q392 398 372.5 423.5 Q353 449 326.5 461 Q300 473 269 473 Z M411 682 Q401 645 382.5 627 Q364 609 339 609 Q322 609 305.5 614.5 Q289 620 274 626 Q259 632 246 637.5 Q233 643 223 643 Q210 643 202.5 636 Q195 629 184 607 L145 623 Q157 661 176.5 679 Q196 697 220 697 Q236 697 251 691.5 Q266 686 280 680 Q294 674 307.5 668.5 Q321 663 334 663 Q347 663 356 669.5 Q365 676 373 697 L411 682 Z " />
<glyph glyph-name="oe" unicode="&#x153;" horiz-adv-x="871" d="M628 537 Q722 537 768 476.5 Q814 416 814 291 L814 245 L485 245 Q486 149 522 100 Q558 51 635 51 Q674 51 707.5 63 Q741 75 778 102 L804 52 Q762 17 720 2.5 Q678 -12 628 -12 Q486 -12 446 112 Q423 52 377 20 Q331 -12 262 -12 Q160 -12 103.5 56.5 Q47 125 47 260 Q47 396 106 466.5 Q165 537 264 537 Q402 537 448 406 Q469 467 514 502 Q559 537 628 537 Z M625 477 Q584 477 557 459.5 Q530 442 514 416 Q498 390 491.5 359 Q485 328 485 301 L742 301 Q742 341 736 374 Q730 407 716.5 429.5 Q703 452 680.5 464.5 Q658 477 625 477 Z M266 473 Q204 473 164 422 Q124 371 124 262 Q124 206 134.5 166.5 Q145 127 164 101.5 Q183 76 209 64 Q235 52 266 52 Q297 52 323.5 64 Q350 76 369.5 101.5 Q389 127 400 166.5 Q411 206 411 261 Q411 317 400 357.5 Q389 398 369.5 423.5 Q350 449 323.5 461 Q297 473 266 473 Z " />
<glyph glyph-name="p" unicode="p" horiz-adv-x="591" d="M346 537 Q440 537 488 468 Q536 399 536 263 Q536 129 487 58.5 Q438 -12 338 -12 Q308 -12 283.5 -4.5 Q259 3 240 14.5 Q221 26 207.5 38.5 Q194 51 187 61 L187 -137 L271 -159 L271 -200 L45 -200 L45 -159 L115 -137 L115 460 L46 481 L46 525 L179 525 L182 451 L184 451 Q216 492 256 514.5 Q296 537 346 537 Z M328 472 Q282 472 247.5 446 Q213 420 187 386 L187 129 Q196 117 209 103.5 Q222 90 239 78.5 Q256 67 276.5 60 Q297 53 321 53 Q385 53 422 102 Q459 151 459 261 Q459 371 425.5 421.5 Q392 472 328 472 Z " />
<glyph glyph-name="thorn" unicode="&#xfe;" horiz-adv-x="594" d="M196 452 Q227 491 267.5 514 Q308 537 359 537 Q453 537 499.5 468 Q546 399 546 263 Q546 129 497.5 58.5 Q449 -12 348 -12 Q318 -12 293.5 -4.5 Q269 3 250 14.5 Q231 26 217.5 38.5 Q204 51 197 61 L197 -136 L280 -157 L280 -200 L54 -200 L54 -157 L124 -136 L124 655 L54 676 L54 720 L196 720 L196 452 Z M336 474 Q290 474 256.5 449.5 Q223 425 197 387 L197 128 Q206 116 218.5 102 Q231 88 248 77 Q265 66 286 58.5 Q307 51 331 51 Q396 51 432.5 100.5 Q469 150 469 261 Q469 371 435 422.5 Q401 474 336 474 Z " />
<glyph glyph-name="q" unicode="q" horiz-adv-x="583" d="M254 537 Q307 537 345 514 Q383 491 411 456 L426 525 L478 525 L478 -137 L547 -158 L547 -200 L317 -200 L317 -158 L404 -137 L404 59 Q395 49 381.5 36.5 Q368 24 349.5 13.5 Q331 3 306.5 -4.5 Q282 -12 252 -12 Q151 -12 103 59.5 Q55 131 55 261 Q55 396 107 466.5 Q159 537 254 537 Z M268 472 Q207 472 170 421 Q133 370 133 262 Q133 218 140 179.5 Q147 141 163.5 113 Q180 85 206.5 69 Q233 53 272 53 Q296 53 317 60.5 Q338 68 354.5 79.5 Q371 91 383.5 104.5 Q396 118 405 129 L405 386 Q397 398 384 413 Q371 428 353.5 441 Q336 454 314.5 463 Q293 472 268 472 Z " />
<glyph glyph-name="r" unicode="r" horiz-adv-x="400" d="M331 537 Q357 537 378 530 L368 460 Q357 462 347 463.5 Q337 465 326 465 Q284 465 253 443 Q222 421 197 370 L197 63 L280 41 L280 0 L54 0 L54 41 L124 63 L124 460 L55 481 L55 525 L184 525 L188 440 L190 440 Q213 492 251.5 514.5 Q290 537 331 537 Z " />
<glyph glyph-name="racute" unicode="&#x155;" horiz-adv-x="400" d="M331 537 Q357 537 378 530 L368 460 Q357 462 347 463.5 Q337 465 326 465 Q284 465 253 443 Q222 421 197 370 L197 63 L280 41 L280 0 L54 0 L54 41 L124 63 L124 460 L55 481 L55 525 L184 525 L188 440 L190 440 Q213 492 251.5 514.5 Q290 537 331 537 Z M331 717 L186 591 L155 624 L288 762 L331 717 Z " />
<glyph glyph-name="rcaron" unicode="&#x159;" horiz-adv-x="400" d="M331 537 Q357 537 378 530 L368 460 Q357 462 347 463.5 Q337 465 326 465 Q284 465 253 443 Q222 421 197 370 L197 63 L280 41 L280 0 L54 0 L54 41 L124 63 L124 460 L55 481 L55 525 L184 525 L188 440 L190 440 Q213 492 251.5 514.5 Q290 537 331 537 Z M347 741 L247 590 L197 590 L97 741 L132 764 L222 648 L313 764 L347 741 Z " />
<glyph glyph-name="rcommaaccent" unicode="&#x157;" horiz-adv-x="400" d="M331 537 Q357 537 378 530 L368 460 Q357 462 347 463.5 Q337 465 326 465 Q284 465 253 443 Q222 421 197 370 L197 63 L280 41 L280 0 L54 0 L54 41 L124 63 L124 460 L55 481 L55 525 L184 525 L188 440 L190 440 Q213 492 251.5 514.5 Q290 537 331 537 Z M239 -72 L181 -230 L135 -218 L175 -58 L239 -72 Z " />
<glyph glyph-name="s" unicode="s" horiz-adv-x="445" d="M225 537 Q269 537 306.5 527 Q344 517 381 496 L381 372 L331 372 L315 461 Q292 472 271.5 476 Q251 480 229 480 Q182 480 157 458 Q132 436 132 397 Q132 375 141.5 360 Q151 345 167.5 334 Q184 323 204.5 315 Q225 307 248 299 Q275 290 302 279 Q329 268 350.5 251.5 Q372 235 385.5 210 Q399 185 399 148 Q399 110 385.5 80.5 Q372 51 347.5 30.5 Q323 10 289.5 -1 Q256 -12 216 -12 Q170 -12 125.5 -1.5 Q81 9 52 23 L52 155 L104 155 L120 66 Q163 46 216 46 Q269 46 297.5 70 Q326 94 326 140 Q326 163 316.5 179 Q307 195 291.5 206 Q276 217 255 225 Q234 233 212 240 Q185 249 157.5 258.5 Q130 268 108 284 Q86 300 72.5 325 Q59 350 59 388 Q59 421 71 448.5 Q83 476 105 495.5 Q127 515 157.5 526 Q188 537 225 537 Z " />
<glyph glyph-name="sacute" unicode="&#x15b;" horiz-adv-x="453" d="M225 537 Q269 537 306.5 527 Q344 517 381 496 L381 372 L331 372 L315 461 Q292 472 271.5 476 Q251 480 229 480 Q182 480 157 458 Q132 436 132 397 Q132 375 141.5 360 Q151 345 167.5 334 Q184 323 204.5 315 Q225 307 248 299 Q275 290 302 279 Q329 268 350.5 251.5 Q372 235 385.5 210 Q399 185 399 148 Q399 110 385.5 80.5 Q372 51 347.5 30.5 Q323 10 289.5 -1 Q256 -12 216 -12 Q170 -12 125.5 -1.5 Q81 9 52 23 L52 155 L104 155 L120 66 Q163 46 216 46 Q269 46 297.5 70 Q326 94 326 140 Q326 163 316.5 179 Q307 195 291.5 206 Q276 217 255 225 Q234 233 212 240 Q185 249 157.5 258.5 Q130 268 108 284 Q86 300 72.5 325 Q59 350 59 388 Q59 421 71 448.5 Q83 476 105 495.5 Q127 515 157.5 526 Q188 537 225 537 Z M339 717 L194 591 L163 624 L296 762 L339 717 Z " />
<glyph glyph-name="scaron" unicode="&#x161;" horiz-adv-x="453" d="M225 537 Q269 537 306.5 527 Q344 517 381 496 L381 372 L331 372 L315 461 Q292 472 271.5 476 Q251 480 229 480 Q182 480 157 458 Q132 436 132 397 Q132 375 141.5 360 Q151 345 167.5 334 Q184 323 204.5 315 Q225 307 248 299 Q275 290 302 279 Q329 268 350.5 251.5 Q372 235 385.5 210 Q399 185 399 148 Q399 110 385.5 80.5 Q372 51 347.5 30.5 Q323 10 289.5 -1 Q256 -12 216 -12 Q170 -12 125.5 -1.5 Q81 9 52 23 L52 155 L104 155 L120 66 Q163 46 216 46 Q269 46 297.5 70 Q326 94 326 140 Q326 163 316.5 179 Q307 195 291.5 206 Q276 217 255 225 Q234 233 212 240 Q185 249 157.5 258.5 Q130 268 108 284 Q86 300 72.5 325 Q59 350 59 388 Q59 421 71 448.5 Q83 476 105 495.5 Q127 515 157.5 526 Q188 537 225 537 Z M355 741 L255 590 L205 590 L105 741 L140 764 L230 648 L321 764 L355 741 Z " />
<glyph glyph-name="scedilla" unicode="&#x15f;" horiz-adv-x="453" d="M399 148 Q399 78 354 36 Q309 -6 237 -11 L228 -55 Q242 -56 255.5 -59.5 Q269 -63 280 -71.5 Q291 -80 298 -92.5 Q305 -105 305 -124 Q305 -167 279 -186.5 Q253 -206 215 -206 Q191 -206 169.5 -200 Q148 -194 137 -189 L148 -150 Q162 -155 177.5 -159 Q193 -163 210 -163 Q227 -163 241 -156 Q255 -149 255 -126 Q255 -104 238.5 -97 Q222 -90 190 -90 L179 -90 L196 -11 Q154 -9 116 0.5 Q78 10 52 23 L52 155 L104 155 L120 66 Q163 46 216 46 Q269 46 297.5 70 Q326 94 326 140 Q326 163 316.5 179 Q307 195 291.5 206 Q276 217 255 225 Q234 233 212 240 Q185 249 157.5 258.5 Q130 268 108 284 Q86 300 72.5 325 Q59 350 59 388 Q59 421 71 448.5 Q83 476 105 495.5 Q127 515 157.5 526 Q188 537 225 537 Q269 537 306.5 527 Q344 517 381 496 L381 372 L331 372 L315 461 Q292 472 271.5 476 Q251 480 229 480 Q182 480 157 458 Q132 436 132 397 Q132 375 141.5 360 Q151 345 167.5 334 Q184 323 204.5 315 Q225 307 248 299 Q275 290 302 279 Q329 268 350.5 251.5 Q372 235 385.5 210 Q399 185 399 148 Z " />
<glyph glyph-name="scircumflex" unicode="&#x15d;" horiz-adv-x="453" d="M225 537 Q269 537 306.5 527 Q344 517 381 496 L381 372 L331 372 L315 461 Q292 472 271.5 476 Q251 480 229 480 Q182 480 157 458 Q132 436 132 397 Q132 375 141.5 360 Q151 345 167.5 334 Q184 323 204.5 315 Q225 307 248 299 Q275 290 302 279 Q329 268 350.5 251.5 Q372 235 385.5 210 Q399 185 399 148 Q399 110 385.5 80.5 Q372 51 347.5 30.5 Q323 10 289.5 -1 Q256 -12 216 -12 Q170 -12 125.5 -1.5 Q81 9 52 23 L52 155 L104 155 L120 66 Q163 46 216 46 Q269 46 297.5 70 Q326 94 326 140 Q326 163 316.5 179 Q307 195 291.5 206 Q276 217 255 225 Q234 233 212 240 Q185 249 157.5 258.5 Q130 268 108 284 Q86 300 72.5 325 Q59 350 59 388 Q59 421 71 448.5 Q83 476 105 495.5 Q127 515 157.5 526 Q188 537 225 537 Z M231 698 L141 582 L106 605 L206 756 L256 756 L356 605 L322 582 L231 698 Z " />
<glyph glyph-name="scommaaccent" unicode="&#x219;" horiz-adv-x="453" d="M225 537 Q269 537 306.5 527 Q344 517 381 496 L381 372 L331 372 L315 461 Q292 472 271.5 476 Q251 480 229 480 Q182 480 157 458 Q132 436 132 397 Q132 375 141.5 360 Q151 345 167.5 334 Q184 323 204.5 315 Q225 307 248 299 Q275 290 302 279 Q329 268 350.5 251.5 Q372 235 385.5 210 Q399 185 399 148 Q399 110 385.5 80.5 Q372 51 347.5 30.5 Q323 10 289.5 -1 Q256 -12 216 -12 Q170 -12 125.5 -1.5 Q81 9 52 23 L52 155 L104 155 L120 66 Q163 46 216 46 Q269 46 297.5 70 Q326 94 326 140 Q326 163 316.5 179 Q307 195 291.5 206 Q276 217 255 225 Q234 233 212 240 Q185 249 157.5 258.5 Q130 268 108 284 Q86 300 72.5 325 Q59 350 59 388 Q59 421 71 448.5 Q83 476 105 495.5 Q127 515 157.5 526 Q188 537 225 537 Z M269 -72 L211 -230 L165 -218 L205 -58 L269 -72 Z " />
<glyph glyph-name="germandbls" unicode="&#xdf;" horiz-adv-x="582" d="M309 732 Q400 732 445.5 686 Q491 640 491 560 Q491 528 481 498 Q471 468 453 443.5 Q435 419 408.5 402 Q382 385 349 379 Q437 369 482.5 315 Q528 261 528 185 Q528 147 518 111.5 Q508 76 487.5 49 Q467 22 435 5.5 Q403 -11 358 -11 Q330 -11 302 -5 Q274 1 247 15 L247 140 L292 140 L308 53 Q319 49 329 48 Q339 47 347 47 Q372 47 392 57.5 Q412 68 425.5 87 Q439 106 446 130.5 Q453 155 453 184 Q453 261 406.5 297.5 Q360 334 278 345 L278 407 Q307 410 332.5 421.5 Q358 433 376.5 452 Q395 471 405.5 497.5 Q416 524 416 558 Q416 612 388.5 642 Q361 672 305 672 Q248 672 222.5 638.5 Q197 605 197 539 L197 0 L54 0 L54 41 L124 63 L124 465 L67 465 L67 512 L124 523 L124 550 Q124 597 137.5 631 Q151 665 175.5 687.5 Q200 710 234 721 Q268 732 309 732 Z " />
<glyph glyph-name="longs" unicode="&#x17f;" horiz-adv-x="323" d="M238 732 Q254 732 271.5 730 Q289 728 306 723 L300 668 Q290 671 278.5 673 Q267 675 254 675 Q230 675 214 660 Q198 645 198 603 L198 63 L294 41 L294 0 L54 0 L54 41 L124 63 L124 466 L54 466 L54 512 L124 523 L124 599 Q124 628 130 652.5 Q136 677 149.5 694.5 Q163 712 185 722 Q207 732 238 732 Z " />
<glyph glyph-name="t" unicode="t" horiz-adv-x="369" d="M198 525 L317 525 L317 467 L198 467 L198 96 Q198 69 209 58.5 Q220 48 248 48 Q266 48 282.5 52 Q299 56 315 61 L327 8 Q307 0 281 -6 Q255 -12 232 -12 Q178 -12 151 10.5 Q124 33 124 82 L124 467 L49 467 L49 505 L124 524 L145 652 L198 652 L198 525 Z " />
<glyph glyph-name="tbar" unicode="&#x167;" horiz-adv-x="394" d="M342 8 Q322 0 296 -6 Q270 -12 247 -12 Q193 -12 166 10.5 Q139 33 139 82 L139 277 L59 277 L59 335 L139 335 L139 467 L64 467 L64 505 L139 524 L160 652 L213 652 L213 525 L332 525 L332 467 L213 467 L213 335 L325 335 L325 277 L213 277 L213 96 Q213 69 224 58.5 Q235 48 263 48 Q281 48 297.5 52 Q314 56 330 61 L342 8 Z " />
<glyph glyph-name="tcaron" unicode="&#x165;" horiz-adv-x="345" d="M198 525 L317 525 L317 467 L198 467 L198 96 Q198 69 209 58.5 Q220 48 248 48 Q266 48 282.5 52 Q299 56 315 61 L327 8 Q307 0 281 -6 Q255 -12 232 -12 Q178 -12 151 10.5 Q124 33 124 82 L124 467 L49 467 L49 505 L124 524 L145 652 L198 652 L198 525 Z M269 579 L219 579 L252 765 L320 765 L269 579 Z " />
<glyph glyph-name="u" unicode="u" horiz-adv-x="603" d="M487 63 L556 41 L556 0 L422 0 L418 71 Q406 56 390 41 Q374 26 354 14.5 Q334 3 310 -4.5 Q286 -12 258 -12 Q213 -12 184 2 Q155 16 138 40.5 Q121 65 114.5 97.5 Q108 130 108 168 L108 460 L41 481 L41 525 L182 525 L182 182 Q182 119 202 86 Q222 53 277 53 Q299 53 319 60.5 Q339 68 356 80 Q373 92 387.5 106.5 Q402 121 413 135 L414 460 L346 481 L346 525 L487 525 L487 63 Z " />
<glyph glyph-name="uacute" unicode="&#xfa;" horiz-adv-x="603" d="M487 63 L556 41 L556 0 L422 0 L418 71 Q406 56 390 41 Q374 26 354 14.5 Q334 3 310 -4.5 Q286 -12 258 -12 Q213 -12 184 2 Q155 16 138 40.5 Q121 65 114.5 97.5 Q108 130 108 168 L108 460 L41 481 L41 525 L182 525 L182 182 Q182 119 202 86 Q222 53 277 53 Q299 53 319 60.5 Q339 68 356 80 Q373 92 387.5 106.5 Q402 121 413 135 L414 460 L346 481 L346 525 L487 525 L487 63 Z M397 717 L252 591 L221 624 L354 762 L397 717 Z " />
<glyph glyph-name="ubreve" unicode="&#x16d;" horiz-adv-x="603" d="M487 63 L556 41 L556 0 L422 0 L418 71 Q406 56 390 41 Q374 26 354 14.5 Q334 3 310 -4.5 Q286 -12 258 -12 Q213 -12 184 2 Q155 16 138 40.5 Q121 65 114.5 97.5 Q108 130 108 168 L108 460 L41 481 L41 525 L182 525 L182 182 Q182 119 202 86 Q222 53 277 53 Q299 53 319 60.5 Q339 68 356 80 Q373 92 387.5 106.5 Q402 121 413 135 L414 460 L346 481 L346 525 L487 525 L487 63 Z M415 751 Q410 671 380 633.5 Q350 596 290 596 Q230 596 201 632.5 Q172 669 164 750 L210 758 Q217 698 234 672.5 Q251 647 290 647 Q332 647 348 674.5 Q364 702 369 758 L415 751 Z " />
<glyph glyph-name="ucircumflex" unicode="&#xfb;" horiz-adv-x="603" d="M487 63 L556 41 L556 0 L422 0 L418 71 Q406 56 390 41 Q374 26 354 14.5 Q334 3 310 -4.5 Q286 -12 258 -12 Q213 -12 184 2 Q155 16 138 40.5 Q121 65 114.5 97.5 Q108 130 108 168 L108 460 L41 481 L41 525 L182 525 L182 182 Q182 119 202 86 Q222 53 277 53 Q299 53 319 60.5 Q339 68 356 80 Q373 92 387.5 106.5 Q402 121 413 135 L414 460 L346 481 L346 525 L487 525 L487 63 Z M289 698 L199 582 L164 605 L264 756 L314 756 L414 605 L380 582 L289 698 Z " />
<glyph glyph-name="udieresis" unicode="&#xfc;" horiz-adv-x="603" d="M487 63 L556 41 L556 0 L422 0 L418 71 Q406 56 390 41 Q374 26 354 14.5 Q334 3 310 -4.5 Q286 -12 258 -12 Q213 -12 184 2 Q155 16 138 40.5 Q121 65 114.5 97.5 Q108 130 108 168 L108 460 L41 481 L41 525 L182 525 L182 182 Q182 119 202 86 Q222 53 277 53 Q299 53 319 60.5 Q339 68 356 80 Q373 92 387.5 106.5 Q402 121 413 135 L414 460 L346 481 L346 525 L487 525 L487 63 Z M200 719 Q222 719 234.5 706 Q247 693 247 673 Q247 654 234 641.5 Q221 629 200 629 Q178 629 164.5 641.5 Q151 654 151 673 Q151 693 164.5 706 Q178 719 200 719 Z M376 719 Q398 719 410.5 706 Q423 693 423 673 Q423 654 410 641.5 Q397 629 376 629 Q354 629 340.5 641.5 Q327 654 327 673 Q327 693 340.5 706 Q354 719 376 719 Z " />
<glyph glyph-name="ugrave" unicode="&#xf9;" horiz-adv-x="603" d="M487 63 L556 41 L556 0 L422 0 L418 71 Q406 56 390 41 Q374 26 354 14.5 Q334 3 310 -4.5 Q286 -12 258 -12 Q213 -12 184 2 Q155 16 138 40.5 Q121 65 114.5 97.5 Q108 130 108 168 L108 460 L41 481 L41 525 L182 525 L182 182 Q182 119 202 86 Q222 53 277 53 Q299 53 319 60.5 Q339 68 356 80 Q373 92 387.5 106.5 Q402 121 413 135 L414 460 L346 481 L346 525 L487 525 L487 63 Z M371 624 L340 591 L195 717 L238 762 L371 624 Z " />
<glyph glyph-name="uhungarumlaut" unicode="&#x171;" horiz-adv-x="603" d="M487 63 L556 41 L556 0 L422 0 L418 71 Q406 56 390 41 Q374 26 354 14.5 Q334 3 310 -4.5 Q286 -12 258 -12 Q213 -12 184 2 Q155 16 138 40.5 Q121 65 114.5 97.5 Q108 130 108 168 L108 460 L41 481 L41 525 L182 525 L182 182 Q182 119 202 86 Q222 53 277 53 Q299 53 319 60.5 Q339 68 356 80 Q373 92 387.5 106.5 Q402 121 413 135 L414 460 L346 481 L346 525 L487 525 L487 63 Z M346 719 L224 583 L189 608 L298 752 L346 719 Z M466 708 L349 582 L314 608 L419 742 L466 708 Z " />
<glyph glyph-name="umacron" unicode="&#x16b;" horiz-adv-x="603" d="M487 63 L556 41 L556 0 L422 0 L418 71 Q406 56 390 41 Q374 26 354 14.5 Q334 3 310 -4.5 Q286 -12 258 -12 Q213 -12 184 2 Q155 16 138 40.5 Q121 65 114.5 97.5 Q108 130 108 168 L108 460 L41 481 L41 525 L182 525 L182 182 Q182 119 202 86 Q222 53 277 53 Q299 53 319 60.5 Q339 68 356 80 Q373 92 387.5 106.5 Q402 121 413 135 L414 460 L346 481 L346 525 L487 525 L487 63 Z M422 623 L168 623 L168 678 L422 678 L422 623 Z " />
<glyph glyph-name="uni0163" unicode="&#x163;" horiz-adv-x="369" d="M222 -56 Q236 -57 249.5 -60.5 Q263 -64 274 -72.5 Q285 -81 292 -93.5 Q299 -106 299 -125 Q299 -168 273 -187.5 Q247 -207 209 -207 Q185 -207 163.5 -201 Q142 -195 131 -190 L142 -151 Q156 -156 171.5 -160 Q187 -164 204 -164 Q221 -164 235 -157 Q249 -150 249 -127 Q249 -105 232.5 -98 Q216 -91 184 -91 L173 -91 L191 -8 Q124 7 124 82 L124 467 L49 467 L49 505 L124 524 L145 652 L198 652 L198 525 L317 525 L317 467 L198 467 L198 96 Q198 69 209 58.5 Q220 48 248 48 Q266 48 282.5 52 Q299 56 315 61 L327 8 Q307 0 281 -6 Q255 -12 232 -12 L231 -12 L222 -56 Z " />
<glyph glyph-name="uni021B" unicode="&#x21b;" horiz-adv-x="369" d="M198 525 L317 525 L317 467 L198 467 L198 96 Q198 69 209 58.5 Q220 48 248 48 Q266 48 282.5 52 Q299 56 315 61 L327 8 Q307 0 281 -6 Q255 -12 232 -12 Q178 -12 151 10.5 Q124 33 124 82 L124 467 L49 467 L49 505 L124 524 L145 652 L198 652 L198 525 Z M263 -72 L205 -230 L159 -218 L199 -58 L263 -72 Z " />
<glyph glyph-name="uogonek" unicode="&#x173;" horiz-adv-x="603" d="M564 -191 Q547 -202 524 -212 Q501 -222 475 -222 Q434 -222 413 -200.5 Q392 -179 392 -144 Q392 -104 417 -65 Q442 -26 483 0 L422 0 L418 71 Q406 56 390 41 Q374 26 354 14.5 Q334 3 310 -4.5 Q286 -12 258 -12 Q213 -12 184 2 Q155 16 138 40.5 Q121 65 114.5 97.5 Q108 130 108 168 L108 460 L41 481 L41 525 L182 525 L182 182 Q182 119 202 86 Q222 53 277 53 Q299 53 319 60.5 Q339 68 356 80 Q373 92 387.5 106.5 Q402 121 413 135 L414 460 L346 481 L346 525 L487 525 L487 63 L556 41 L556 0 Q506 -26 479.5 -63 Q453 -100 453 -132 Q453 -170 492 -170 Q506 -170 518.5 -165.5 Q531 -161 545 -153 L564 -191 Z " />
<glyph glyph-name="uring" unicode="&#x16f;" horiz-adv-x="603" d="M487 63 L556 41 L556 0 L422 0 L418 71 Q406 56 390 41 Q374 26 354 14.5 Q334 3 310 -4.5 Q286 -12 258 -12 Q213 -12 184 2 Q155 16 138 40.5 Q121 65 114.5 97.5 Q108 130 108 168 L108 460 L41 481 L41 525 L182 525 L182 182 Q182 119 202 86 Q222 53 277 53 Q299 53 319 60.5 Q339 68 356 80 Q373 92 387.5 106.5 Q402 121 413 135 L414 460 L346 481 L346 525 L487 525 L487 63 Z M291 765 Q329 765 354.5 742.5 Q380 720 380 678 Q380 635 354.5 612 Q329 589 291 589 Q252 589 227 611 Q202 633 202 675 Q202 717 227.5 741 Q253 765 291 765 Z M291 726 Q271 726 259.5 712.5 Q248 699 248 675 Q248 651 259.5 639 Q271 627 291 627 Q311 627 322.5 640.5 Q334 654 334 677 Q334 726 291 726 Z " />
<glyph glyph-name="utilde" unicode="&#x169;" horiz-adv-x="603" d="M487 63 L556 41 L556 0 L422 0 L418 71 Q406 56 390 41 Q374 26 354 14.5 Q334 3 310 -4.5 Q286 -12 258 -12 Q213 -12 184 2 Q155 16 138 40.5 Q121 65 114.5 97.5 Q108 130 108 168 L108 460 L41 481 L41 525 L182 525 L182 182 Q182 119 202 86 Q222 53 277 53 Q299 53 319 60.5 Q339 68 356 80 Q373 92 387.5 106.5 Q402 121 413 135 L414 460 L346 481 L346 525 L487 525 L487 63 Z M423 682 Q413 645 394.5 627 Q376 609 351 609 Q334 609 317.5 614.5 Q301 620 286 626 Q271 632 258 637.5 Q245 643 235 643 Q222 643 214.5 636 Q207 629 196 607 L157 623 Q169 661 188.5 679 Q208 697 232 697 Q248 697 263 691.5 Q278 686 292 680 Q306 674 319.5 668.5 Q333 663 346 663 Q359 663 368 669.5 Q377 676 385 697 L423 682 Z " />
<glyph glyph-name="v" unicode="v" horiz-adv-x="512" d="M500 483 L450 462 L298 0 L212 0 L62 462 L12 483 L12 525 L202 525 L202 483 L140 462 L258 78 L260 78 L381 462 L320 483 L320 525 L500 525 L500 483 Z " />
<glyph glyph-name="w" unicode="w" horiz-adv-x="754" d="M739 525 L739 483 L689 462 L578 0 L492 0 L375 433 L264 0 L181 0 L65 462 L15 483 L15 525 L202 525 L202 483 L141 462 L227 81 L341 520 L418 520 L537 82 L622 462 L560 483 L560 525 L739 525 Z " />
<glyph glyph-name="wacute" unicode="&#x1e83;" horiz-adv-x="754" d="M739 525 L739 483 L689 462 L578 0 L492 0 L375 433 L264 0 L181 0 L65 462 L15 483 L15 525 L202 525 L202 483 L141 462 L227 81 L341 520 L418 520 L537 82 L622 462 L560 483 L560 525 L739 525 Z M489 717 L344 591 L313 624 L446 762 L489 717 Z " />
<glyph glyph-name="wcircumflex" unicode="&#x175;" horiz-adv-x="754" d="M739 525 L739 483 L689 462 L578 0 L492 0 L375 433 L264 0 L181 0 L65 462 L15 483 L15 525 L202 525 L202 483 L141 462 L227 81 L341 520 L418 520 L537 82 L622 462 L560 483 L560 525 L739 525 Z M381 698 L291 582 L256 605 L356 756 L406 756 L506 605 L472 582 L381 698 Z " />
<glyph glyph-name="wdieresis" unicode="&#x1e85;" horiz-adv-x="754" d="M739 525 L739 483 L689 462 L578 0 L492 0 L375 433 L264 0 L181 0 L65 462 L15 483 L15 525 L202 525 L202 483 L141 462 L227 81 L341 520 L418 520 L537 82 L622 462 L560 483 L560 525 L739 525 Z M292 719 Q314 719 326.5 706 Q339 693 339 673 Q339 654 326 641.5 Q313 629 292 629 Q270 629 256.5 641.5 Q243 654 243 673 Q243 693 256.5 706 Q270 719 292 719 Z M468 719 Q490 719 502.5 706 Q515 693 515 673 Q515 654 502 641.5 Q489 629 468 629 Q446 629 432.5 641.5 Q419 654 419 673 Q419 693 432.5 706 Q446 719 468 719 Z " />
<glyph glyph-name="wgrave" unicode="&#x1e81;" horiz-adv-x="754" d="M739 525 L739 483 L689 462 L578 0 L492 0 L375 433 L264 0 L181 0 L65 462 L15 483 L15 525 L202 525 L202 483 L141 462 L227 81 L341 520 L418 520 L537 82 L622 462 L560 483 L560 525 L739 525 Z M463 624 L432 591 L287 717 L330 762 L463 624 Z " />
<glyph glyph-name="x" unicode="x" horiz-adv-x="511" d="M478 42 L478 0 L382 0 L249 223 L148 62 L211 41 L211 0 L29 0 L29 41 L77 61 L208 271 L94 461 L44 481 L44 525 L140 525 L263 315 L352 462 L290 483 L290 525 L469 525 L469 483 L422 462 L303 266 L428 63 L478 42 Z " />
<glyph glyph-name="y" unicode="y" horiz-adv-x="505" d="M493 483 L445 462 L281 -30 Q266 -74 253 -106.5 Q240 -139 223.5 -160.5 Q207 -182 185 -192.5 Q163 -203 131 -203 Q105 -203 85 -200 Q65 -197 45 -191 L56 -132 Q66 -135 82.5 -138 Q99 -141 119 -141 Q133 -141 144 -136.5 Q155 -132 164.5 -121 Q174 -110 183 -91.5 Q192 -73 202 -44 L215 -6 L65 462 L17 483 L17 525 L207 525 L207 483 L145 462 L256 79 L373 462 L311 483 L311 525 L493 525 L493 483 Z " />
<glyph glyph-name="yacute" unicode="&#xfd;" horiz-adv-x="505" d="M493 483 L445 462 L281 -30 Q266 -74 253 -106.5 Q240 -139 223.5 -160.5 Q207 -182 185 -192.5 Q163 -203 131 -203 Q105 -203 85 -200 Q65 -197 45 -191 L56 -132 Q66 -135 82.5 -138 Q99 -141 119 -141 Q133 -141 144 -136.5 Q155 -132 164.5 -121 Q174 -110 183 -91.5 Q192 -73 202 -44 L215 -6 L65 462 L17 483 L17 525 L207 525 L207 483 L145 462 L256 79 L373 462 L311 483 L311 525 L493 525 L493 483 Z M360 717 L215 591 L184 624 L317 762 L360 717 Z " />
<glyph glyph-name="ycircumflex" unicode="&#x177;" horiz-adv-x="505" d="M493 483 L445 462 L281 -30 Q266 -74 253 -106.5 Q240 -139 223.5 -160.5 Q207 -182 185 -192.5 Q163 -203 131 -203 Q105 -203 85 -200 Q65 -197 45 -191 L56 -132 Q66 -135 82.5 -138 Q99 -141 119 -141 Q133 -141 144 -136.5 Q155 -132 164.5 -121 Q174 -110 183 -91.5 Q192 -73 202 -44 L215 -6 L65 462 L17 483 L17 525 L207 525 L207 483 L145 462 L256 79 L373 462 L311 483 L311 525 L493 525 L493 483 Z M252 698 L162 582 L127 605 L227 756 L277 756 L377 605 L343 582 L252 698 Z " />
<glyph glyph-name="ydieresis" unicode="&#xff;" horiz-adv-x="505" d="M493 483 L445 462 L281 -30 Q266 -74 253 -106.5 Q240 -139 223.5 -160.5 Q207 -182 185 -192.5 Q163 -203 131 -203 Q105 -203 85 -200 Q65 -197 45 -191 L56 -132 Q66 -135 82.5 -138 Q99 -141 119 -141 Q133 -141 144 -136.5 Q155 -132 164.5 -121 Q174 -110 183 -91.5 Q192 -73 202 -44 L215 -6 L65 462 L17 483 L17 525 L207 525 L207 483 L145 462 L256 79 L373 462 L311 483 L311 525 L493 525 L493 483 Z M163 719 Q185 719 197.5 706 Q210 693 210 673 Q210 654 197 641.5 Q184 629 163 629 Q141 629 127.5 641.5 Q114 654 114 673 Q114 693 127.5 706 Q141 719 163 719 Z M339 719 Q361 719 373.5 706 Q386 693 386 673 Q386 654 373 641.5 Q360 629 339 629 Q317 629 303.5 641.5 Q290 654 290 673 Q290 693 303.5 706 Q317 719 339 719 Z " />
<glyph glyph-name="ygrave" unicode="&#x1ef3;" horiz-adv-x="505" d="M493 483 L445 462 L281 -30 Q266 -74 253 -106.5 Q240 -139 223.5 -160.5 Q207 -182 185 -192.5 Q163 -203 131 -203 Q105 -203 85 -200 Q65 -197 45 -191 L56 -132 Q66 -135 82.5 -138 Q99 -141 119 -141 Q133 -141 144 -136.5 Q155 -132 164.5 -121 Q174 -110 183 -91.5 Q192 -73 202 -44 L215 -6 L65 462 L17 483 L17 525 L207 525 L207 483 L145 462 L256 79 L373 462 L311 483 L311 525 L493 525 L493 483 Z M334 624 L303 591 L158 717 L201 762 L334 624 Z " />
<glyph glyph-name="z" unicode="z" horiz-adv-x="427" d="M387 485 L130 58 L321 58 L336 152 L386 152 L386 0 L42 0 L42 48 L295 467 L115 467 L97 375 L47 375 L48 525 L387 525 L387 485 Z " />
<glyph glyph-name="zacute" unicode="&#x17a;" horiz-adv-x="427" d="M387 485 L130 58 L321 58 L336 152 L386 152 L386 0 L42 0 L42 48 L295 467 L115 467 L97 375 L47 375 L48 525 L387 525 L387 485 Z M324 717 L179 591 L148 624 L281 762 L324 717 Z " />
<glyph glyph-name="zcaron" unicode="&#x17e;" horiz-adv-x="427" d="M387 485 L130 58 L321 58 L336 152 L386 152 L386 0 L42 0 L42 48 L295 467 L115 467 L97 375 L47 375 L48 525 L387 525 L387 485 Z M340 741 L240 590 L190 590 L90 741 L125 764 L215 648 L306 764 L340 741 Z " />
<glyph glyph-name="zdotaccent" unicode="&#x17c;" horiz-adv-x="427" d="M387 485 L130 58 L321 58 L336 152 L386 152 L386 0 L42 0 L42 48 L295 467 L115 467 L97 375 L47 375 L48 525 L387 525 L387 485 Z M217 716 Q239 716 254 703 Q269 690 269 668 Q269 646 254.5 633.5 Q240 621 217 621 Q195 621 179.5 633.5 Q164 646 164 668 Q164 690 179.5 703 Q195 716 217 716 Z " />
<glyph glyph-name="ordfeminine" unicode="&#xaa;" horiz-adv-x="448" d="M225 655 Q283 655 320 624.5 Q357 594 357 526 L357 264 L304 264 L303 328 Q286 294 254 274.5 Q222 255 181 255 Q130 255 97.5 282.5 Q65 310 65 364 Q65 385 72 406.5 Q79 428 98 446 Q117 464 150 475 Q183 486 235 486 Q252 486 267 484.5 Q282 483 299 481 L299 518 Q299 563 278 584 Q257 605 219 605 Q184 605 156.5 593 Q129 581 104 562 L81 603 Q110 626 145.5 640.5 Q181 655 225 655 Z M243 442 Q180 442 152.5 423.5 Q125 405 125 367 Q125 335 143.5 318.5 Q162 302 194 302 Q215 302 234.5 311 Q254 320 268 335 Q282 350 290.5 370 Q299 390 299 413 L299 437 Q288 439 275.5 440.5 Q263 442 243 442 Z " />
<glyph glyph-name="ordmasculine" unicode="&#xba;" horiz-adv-x="455" d="M227 655 Q305 655 349 605 Q393 555 393 455 Q393 405 381 368 Q369 331 347 305.5 Q325 280 294.5 267.5 Q264 255 227 255 Q149 255 105.5 304.5 Q62 354 62 455 Q62 555 107 605 Q152 655 227 655 Z M228 605 Q181 605 151.5 570 Q122 535 122 455 Q122 374 151.5 339.5 Q181 305 228 305 Q273 305 303.5 339.5 Q334 374 334 455 Q334 535 303.5 570 Q273 605 228 605 Z " />
<glyph glyph-name="Delta" unicode="&#x2206;" horiz-adv-x="621" d="M594 0 L27 0 L265 720 L354 720 L594 0 Z M124 62 L493 62 L309 636 L124 62 Z " />
<glyph glyph-name="uni0394" unicode="&#x394;" horiz-adv-x="621" d="M27 0 L265 720 L354 720 L594 0 L27 0 Z M493 62 L309 636 L124 62 L493 62 Z " />
<glyph glyph-name="Omega" unicode="&#x2126;" horiz-adv-x="749" d="M378 732 Q444 732 499 713 Q554 694 593.5 654 Q633 614 655 551 Q677 488 677 400 Q677 335 662 282.5 Q647 230 622.5 190.5 Q598 151 567 124 Q536 97 504 82 L504 67 L668 67 L668 0 L433 0 L433 90 Q464 105 493.5 130.5 Q523 156 546 192.5 Q569 229 582.5 277 Q596 325 596 384 Q596 457 580.5 509 Q565 561 536.5 594.5 Q508 628 468 644 Q428 660 378 660 Q278 660 218.5 591.5 Q159 523 159 379 Q159 324 171.5 278 Q184 232 204.5 196 Q225 160 251.5 134 Q278 108 306 92 L306 0 L70 0 L70 67 L234 67 L234 83 Q204 100 176 128 Q148 156 126.5 194.5 Q105 233 91.5 282 Q78 331 78 390 Q78 479 100.5 543.5 Q123 608 162.5 650 Q202 692 257 712 Q312 732 378 732 Z " />
<glyph glyph-name="uni03A9" unicode="&#x3a9;" horiz-adv-x="749" d="M378 732 Q444 732 499 713 Q554 694 593.5 654 Q633 614 655 551 Q677 488 677 400 Q677 335 662 282.5 Q647 230 622.5 190.5 Q598 151 567 124 Q536 97 504 82 L504 67 L668 67 L668 0 L433 0 L433 90 Q464 105 493.5 130.5 Q523 156 546 192.5 Q569 229 582.5 277 Q596 325 596 384 Q596 457 580.5 509 Q565 561 536.5 594.5 Q508 628 468 644 Q428 660 378 660 Q278 660 218.5 591.5 Q159 523 159 379 Q159 324 171.5 278 Q184 232 204.5 196 Q225 160 251.5 134 Q278 108 306 92 L306 0 L70 0 L70 67 L234 67 L234 83 Q204 100 176 128 Q148 156 126.5 194.5 Q105 233 91.5 282 Q78 331 78 390 Q78 479 100.5 543.5 Q123 608 162.5 650 Q202 692 257 712 Q312 732 378 732 Z " />
<glyph glyph-name="uni03BC" unicode="&#x3bc;" horiz-adv-x="650" d="M486 91 Q486 73 495.5 63 Q505 53 521 53 L545 53 L545 0 Q535 -1 525.5 -1.5 Q516 -2 505 -2 Q469 -2 447.5 15.5 Q426 33 421 72 Q403 33 371.5 11 Q340 -11 293 -11 Q251 -11 226 4 Q201 19 183 45 L183 -200 L111 -200 L111 460 L44 481 L44 525 L183 525 L183 191 Q183 125 209 85.5 Q235 46 295 46 Q322 46 343.5 57.5 Q365 69 380 87 Q395 105 403 126.5 Q411 148 412 168 L413 460 L345 481 L345 525 L486 525 L486 91 Z " />
<glyph glyph-name="mu" unicode="&#xb5;" horiz-adv-x="650" d="M486 91 Q486 73 495.5 63 Q505 53 521 53 L545 53 L545 0 Q535 -1 525.5 -1.5 Q516 -2 505 -2 Q469 -2 447.5 15.5 Q426 33 421 72 Q403 33 371.5 11 Q340 -11 293 -11 Q251 -11 226 4 Q201 19 183 45 L183 -200 L111 -200 L111 460 L44 481 L44 525 L183 525 L183 191 Q183 125 209 85.5 Q235 46 295 46 Q322 46 343.5 57.5 Q365 69 380 87 Q395 105 403 126.5 Q411 148 412 168 L413 460 L345 481 L345 525 L486 525 L486 91 Z " />
<glyph glyph-name="pi" unicode="&#x3c0;" horiz-adv-x="605" d="M541 465 L470 465 L470 63 L540 41 L540 0 L397 0 L397 465 L234 465 Q234 320 217 203 Q200 86 160 0 L78 0 L78 27 Q131 112 147.5 221.5 Q164 331 164 465 Q129 465 102.5 452.5 Q76 440 63 420 L33 444 Q47 478 77.5 501.5 Q108 525 157 525 L551 525 L541 465 Z " />
<glyph glyph-name="zero" unicode="0" horiz-adv-x="581" d="M292 732 Q345 732 386 711 Q427 690 455 645 Q483 600 497.5 530 Q512 460 512 363 Q512 262 497.5 191 Q483 120 455 75 Q427 30 385.5 9 Q344 -12 291 -12 Q237 -12 196 8.5 Q155 29 126.5 74 Q98 119 83.5 190 Q69 261 69 361 Q69 459 83.5 529 Q98 599 126.5 644 Q155 689 196.5 710.5 Q238 732 292 732 Z M291 667 Q254 667 226.5 650 Q199 633 180.5 596 Q162 559 152.5 501 Q143 443 143 361 Q143 277 152.5 218.5 Q162 160 180.5 123 Q199 86 226.5 69.5 Q254 53 291 53 Q327 53 354.5 69.5 Q382 86 400.5 123 Q419 160 428.5 218.5 Q438 277 438 361 Q438 443 429 501 Q420 559 401.5 596 Q383 633 355.5 650 Q328 667 291 667 Z " />
<glyph glyph-name="one" unicode="1" horiz-adv-x="466" d="M292 66 L423 45 L423 0 L79 0 L79 45 L219 66 L219 615 Q183 589 144.5 571.5 Q106 554 61 545 L49 601 Q100 616 150.5 647 Q201 678 238 720 L292 720 L292 66 Z " />
<glyph glyph-name="two" unicode="2" horiz-adv-x="496" d="M234 730 Q322 730 369 684.5 Q416 639 416 558 Q416 531 411.5 507 Q407 483 397.5 459.5 Q388 436 373.5 412.5 Q359 389 340 362 L126 62 L364 62 L382 165 L432 165 L432 0 L36 0 L36 51 L283 397 Q313 440 328 476.5 Q343 513 343 551 Q343 600 317.5 633.5 Q292 667 234 667 Q179 667 149.5 638 Q120 609 110 546 L45 559 Q51 595 64.5 626.5 Q78 658 100.5 681 Q123 704 156 717 Q189 730 234 730 Z " />
<glyph glyph-name="three" unicode="3" horiz-adv-x="499" d="M227 730 Q315 730 362.5 685 Q410 640 410 559 Q410 528 400 499.5 Q390 471 372.5 447.5 Q355 424 331 407 Q307 390 278 381 Q363 371 403.5 322.5 Q444 274 444 194 Q444 144 427.5 106 Q411 68 382 41.5 Q353 15 314 1.5 Q275 -12 231 -12 Q171 -12 120 8 Q69 28 21 77 L60 128 Q98 92 137 73.5 Q176 55 227 55 Q257 55 283 65 Q309 75 328 93.5 Q347 112 358 137.5 Q369 163 369 194 Q369 257 332.5 297 Q296 337 214 337 Q203 337 189 336.5 Q175 336 164 335 L161 399 Q198 400 230 411.5 Q262 423 285.5 443.5 Q309 464 322.5 492 Q336 520 336 553 Q336 576 330 597 Q324 618 311 633.5 Q298 649 277.5 658 Q257 667 228 667 Q173 667 142.5 637.5 Q112 608 101 546 L39 559 Q45 595 58 626.5 Q71 658 94 681 Q117 704 149.5 717 Q182 730 227 730 Z " />
<glyph glyph-name="four" unicode="4" horiz-adv-x="537" d="M398 240 L481 240 L481 180 L398 180 L398 66 L481 45 L481 0 L223 0 L223 45 L328 66 L328 180 L28 180 L28 234 L302 720 L398 720 L398 240 Z M326 649 L100 240 L328 240 L328 649 L326 649 Z " />
<glyph glyph-name="five" unicode="5" horiz-adv-x="514" d="M412 639 L156 639 L139 391 Q159 411 193 426 Q227 441 270 441 Q360 441 406 385.5 Q452 330 452 228 Q452 166 435.5 121 Q419 76 390 46.5 Q361 17 322 2.5 Q283 -12 237 -12 Q192 -12 142 3 Q92 18 47 50 L78 105 Q119 80 155.5 67 Q192 54 231 54 Q262 54 289.5 63.5 Q317 73 336.5 93 Q356 113 367.5 145.5 Q379 178 379 223 Q379 294 349.5 336.5 Q320 379 257 379 Q215 379 185 363.5 Q155 348 135 326 L131 279 L69 279 L97 709 L416 709 L412 639 Z " />
<glyph glyph-name="six" unicode="6" horiz-adv-x="564" d="M310 732 Q348 732 386 719 Q424 706 457 678 L424 625 Q396 648 369 657.5 Q342 667 312 667 Q264 667 232 642.5 Q200 618 180.5 577 Q161 536 152 482.5 Q143 429 140 372 Q169 402 210 423.5 Q251 445 299 445 Q344 445 377.5 429 Q411 413 433 383.5 Q455 354 466 313.5 Q477 273 477 224 Q477 103 422 45.5 Q367 -12 276 -12 Q168 -12 118.5 70 Q69 152 69 308 Q69 520 132 626 Q195 732 310 732 Z M284 383 Q261 383 239.5 375.5 Q218 368 199.5 356.5 Q181 345 166 332 Q151 319 141 309 Q141 238 150.5 189 Q160 140 178 110 Q196 80 221.5 67 Q247 54 279 54 Q305 54 328 63 Q351 72 368.5 91.5 Q386 111 396 142.5 Q406 174 406 220 Q406 264 396.5 295 Q387 326 370.5 345.5 Q354 365 332 374 Q310 383 284 383 Z " />
<glyph glyph-name="seven" unicode="7" horiz-adv-x="487" d="M445 669 L197 0 L121 0 L121 9 L366 654 L109 654 L92 534 L40 534 L40 720 L445 720 L445 669 Z " />
<glyph glyph-name="eight" unicode="8" horiz-adv-x="495" d="M267 732 Q308 732 341.5 720.5 Q375 709 399 688 Q423 667 436.5 637 Q450 607 450 570 Q450 510 416 465 Q382 420 331 392 Q403 356 438.5 309 Q474 262 474 192 Q474 146 459 108.5 Q444 71 416 44 Q388 17 348 2.5 Q308 -12 259 -12 Q160 -12 107.5 39 Q55 90 55 175 Q55 250 94 301.5 Q133 353 199 385 Q142 412 111 454.5 Q80 497 80 558 Q80 598 93.5 630 Q107 662 132 684.5 Q157 707 191 719.5 Q225 732 267 732 Z M267 672 Q215 672 184 642.5 Q153 613 153 558 Q153 508 187.5 475.5 Q222 443 272 421 Q290 431 309 445.5 Q328 460 343 478.5 Q358 497 368 519.5 Q378 542 378 568 Q378 619 348 645.5 Q318 672 267 672 Z M252 354 Q226 341 203 324.5 Q180 308 163 286.5 Q146 265 136 238 Q126 211 126 177 Q126 120 162 85 Q198 50 261 50 Q323 50 360 87.5 Q397 125 397 189 Q397 222 385 247.5 Q373 273 353 293 Q333 313 306.5 328 Q280 343 252 354 Z " />
<glyph glyph-name="nine" unicode="9" horiz-adv-x="564" d="M254 -12 Q216 -12 178 1 Q140 14 107 42 L140 95 Q168 72 195 62.5 Q222 53 252 53 Q300 53 331.5 77.5 Q363 102 382.5 143 Q402 184 411.5 237.5 Q421 291 424 348 Q395 318 354 296.5 Q313 275 265 275 Q220 275 186.5 291 Q153 307 131 336.5 Q109 366 98 406.5 Q87 447 87 496 Q87 617 142 674.5 Q197 732 288 732 Q396 732 445.5 650 Q495 568 495 412 Q495 200 432 94 Q369 -12 254 -12 Z M280 337 Q303 337 324.5 344.5 Q346 352 364.5 363.5 Q383 375 398 387.5 Q413 400 423 411 Q423 482 413.5 531 Q404 580 386 610 Q368 640 342.5 653 Q317 666 285 666 Q259 666 235.5 657 Q212 648 195 628.5 Q178 609 168 577.5 Q158 546 158 500 Q158 456 167.5 425 Q177 394 193.5 374.5 Q210 355 232 346 Q254 337 280 337 Z " />
<glyph glyph-name="fraction" unicode="&#x2044;" horiz-adv-x="137" d="M-105 -1 L-168 -1 L235 720 L297 720 L-105 -1 Z " />
<glyph glyph-name="onehalf" unicode="&#xbd;" horiz-adv-x="781" d="M191 403 L272 385 L272 351 L47 351 L47 385 L130 403 L130 642 Q107 632 86.5 625.5 Q66 619 40 617 L33 660 Q64 667 94.5 682.5 Q125 698 146 720 L190 720 L191 403 Z M183 -1 L120 -1 L523 720 L585 720 L183 -1 Z M531 375 Q585 375 613 350.5 Q641 326 641 284 Q641 255 628.5 227 Q616 199 593 173 L486 48 L605 48 L616 106 L651 106 L651 0 L411 0 L411 41 L534 186 Q556 210 569 231 Q582 252 582 277 Q582 297 569.5 311 Q557 325 526 325 Q500 325 483.5 311.5 Q467 298 461 269 L411 281 Q419 321 446.5 348 Q474 375 531 375 Z " />
<glyph glyph-name="uni2153" unicode="&#x2153;" horiz-adv-x="777" d="M163 403 L244 385 L244 351 L19 351 L19 385 L102 403 L102 642 Q79 632 58.5 625.5 Q38 619 12 617 L5 660 Q36 667 66.5 682.5 Q97 698 118 720 L162 720 L163 403 Z M178 -1 L115 -1 L518 720 L580 720 L178 -1 Z M532 375 Q586 375 614 351 Q642 327 642 284 Q642 252 623.5 229 Q605 206 570 196 Q622 191 642 164 Q662 137 662 102 Q662 50 626.5 23 Q591 -4 534 -4 Q457 -4 407 42 L433 80 Q456 63 478 54 Q500 45 530 45 Q563 45 582.5 58.5 Q602 72 602 104 Q602 135 582.5 151.5 Q563 168 518 168 L490 167 L490 211 Q534 212 559 228.5 Q584 245 584 277 Q584 296 571.5 310.5 Q559 325 529 325 Q504 325 487.5 312 Q471 299 466 271 L417 282 Q424 322 451 348.5 Q478 375 532 375 Z " />
<glyph glyph-name="uni2154" unicode="&#x2154;" horiz-adv-x="796" d="M127 725 Q181 725 209 700.5 Q237 676 237 634 Q237 605 224.5 577 Q212 549 189 523 L82 398 L201 398 L212 456 L247 456 L247 350 L7 350 L7 391 L130 536 Q152 560 165 581 Q178 602 178 627 Q178 647 165.5 661 Q153 675 122 675 Q96 675 79.5 661.5 Q63 648 57 619 L7 631 Q15 671 42.5 698 Q70 725 127 725 Z M185 -1 L122 -1 L525 720 L587 720 L185 -1 Z M551 375 Q605 375 633 351 Q661 327 661 284 Q661 252 642.5 229 Q624 206 589 196 Q641 191 661 164 Q681 137 681 102 Q681 50 645.5 23 Q610 -4 553 -4 Q476 -4 426 42 L452 80 Q475 63 497 54 Q519 45 549 45 Q582 45 601.5 58.5 Q621 72 621 104 Q621 135 601.5 151.5 Q582 168 537 168 L509 167 L509 211 Q553 212 578 228.5 Q603 245 603 277 Q603 296 590.5 310.5 Q578 325 548 325 Q523 325 506.5 312 Q490 299 485 271 L436 282 Q443 322 470 348.5 Q497 375 551 375 Z " />
<glyph glyph-name="onequarter" unicode="&#xbc;" horiz-adv-x="772" d="M163 403 L244 385 L244 351 L19 351 L19 385 L102 403 L102 642 Q79 632 58.5 625.5 Q38 619 12 617 L5 660 Q36 667 66.5 682.5 Q97 698 118 720 L162 720 L163 403 Z M177 -1 L114 -1 L517 720 L579 720 L177 -1 Z M580 130 L636 130 L636 84 L580 84 L580 0 L523 0 L523 84 L346 84 L346 128 L500 370 L580 370 L580 130 Z M523 317 L405 130 L524 130 L524 317 L523 317 Z " />
<glyph glyph-name="threequarters" unicode="&#xbe;" horiz-adv-x="786" d="M132 725 Q186 725 214 701 Q242 677 242 634 Q242 602 223.5 579 Q205 556 170 546 Q222 541 242 514 Q262 487 262 452 Q262 400 226.5 373 Q191 346 134 346 Q57 346 7 392 L33 430 Q56 413 78 404 Q100 395 130 395 Q163 395 182.5 408.5 Q202 422 202 454 Q202 485 182.5 501.5 Q163 518 118 518 L90 517 L90 561 Q134 562 159 578.5 Q184 595 184 627 Q184 646 171.5 660.5 Q159 675 129 675 Q104 675 87.5 662 Q71 649 66 621 L17 632 Q24 672 51 698.5 Q78 725 132 725 Z M175 -1 L112 -1 L515 720 L577 720 L175 -1 Z M594 130 L650 130 L650 84 L594 84 L594 0 L537 0 L537 84 L360 84 L360 128 L514 370 L594 370 L594 130 Z M537 317 L419 130 L538 130 L538 317 L537 317 Z " />
<glyph glyph-name="uni2155" unicode="&#x2155;" horiz-adv-x="786" d="M163 403 L244 385 L244 351 L19 351 L19 385 L102 403 L102 642 Q79 632 58.5 625.5 Q38 619 12 617 L5 660 Q36 667 66.5 682.5 Q97 698 118 720 L162 720 L163 403 Z M173 -1 L110 -1 L513 720 L575 720 L173 -1 Z M638 320 L492 320 L483 210 Q495 219 514 226.5 Q533 234 559 234 Q610 234 636.5 203.5 Q663 173 663 121 Q663 58 625 25 Q587 -8 530 -8 Q499 -8 467.5 1 Q436 10 410 28 L430 67 Q453 55 477 48 Q501 41 524 41 Q558 41 581 60 Q604 79 604 121 Q604 153 589 172 Q574 191 543 191 Q520 191 504.5 183 Q489 175 478 166 L476 139 L430 139 L447 370 L640 370 L638 320 Z " />
<glyph glyph-name="uni2156" unicode="&#x2156;" horiz-adv-x="798" d="M127 725 Q181 725 209 700.5 Q237 676 237 634 Q237 605 224.5 577 Q212 549 189 523 L82 398 L201 398 L212 456 L247 456 L247 350 L7 350 L7 391 L130 536 Q152 560 165 581 Q178 602 178 627 Q178 647 165.5 661 Q153 675 122 675 Q96 675 79.5 661.5 Q63 648 57 619 L7 631 Q15 671 42.5 698 Q70 725 127 725 Z M182 -1 L119 -1 L522 720 L584 720 L182 -1 Z M650 320 L504 320 L495 210 Q507 219 526 226.5 Q545 234 571 234 Q622 234 648.5 203.5 Q675 173 675 121 Q675 58 637 25 Q599 -8 542 -8 Q511 -8 479.5 1 Q448 10 422 28 L442 67 Q465 55 489 48 Q513 41 536 41 Q570 41 593 60 Q616 79 616 121 Q616 153 601 172 Q586 191 555 191 Q532 191 516.5 183 Q501 175 490 166 L488 139 L442 139 L459 370 L652 370 L650 320 Z " />
<glyph glyph-name="uni2157" unicode="&#x2157;" horiz-adv-x="795" d="M132 725 Q186 725 214 701 Q242 677 242 634 Q242 602 223.5 579 Q205 556 170 546 Q222 541 242 514 Q262 487 262 452 Q262 400 226.5 373 Q191 346 134 346 Q57 346 7 392 L33 430 Q56 413 78 404 Q100 395 130 395 Q163 395 182.5 408.5 Q202 422 202 454 Q202 485 182.5 501.5 Q163 518 118 518 L90 517 L90 561 Q134 562 159 578.5 Q184 595 184 627 Q184 646 171.5 660.5 Q159 675 129 675 Q104 675 87.5 662 Q71 649 66 621 L17 632 Q24 672 51 698.5 Q78 725 132 725 Z M172 -1 L109 -1 L512 720 L574 720 L172 -1 Z M647 320 L501 320 L492 210 Q504 219 523 226.5 Q542 234 568 234 Q619 234 645.5 203.5 Q672 173 672 121 Q672 58 634 25 Q596 -8 539 -8 Q508 -8 476.5 1 Q445 10 419 28 L439 67 Q462 55 486 48 Q510 41 533 41 Q567 41 590 60 Q613 79 613 121 Q613 153 598 172 Q583 191 552 191 Q529 191 513.5 183 Q498 175 487 166 L485 139 L439 139 L456 370 L649 370 L647 320 Z " />
<glyph glyph-name="uni2158" unicode="&#x2158;" horiz-adv-x="827" d="M241 480 L297 480 L297 434 L241 434 L241 350 L184 350 L184 434 L7 434 L7 478 L161 720 L241 720 L241 480 Z M201 -1 L138 -1 L541 720 L603 720 L201 -1 Z M184 667 L66 480 L185 480 L185 667 L184 667 Z M679 320 L533 320 L524 210 Q536 219 555 226.5 Q574 234 600 234 Q651 234 677.5 203.5 Q704 173 704 121 Q704 58 666 25 Q628 -8 571 -8 Q540 -8 508.5 1 Q477 10 451 28 L471 67 Q494 55 518 48 Q542 41 565 41 Q599 41 622 60 Q645 79 645 121 Q645 153 630 172 Q615 191 584 191 Q561 191 545.5 183 Q530 175 519 166 L517 139 L471 139 L488 370 L681 370 L679 320 Z " />
<glyph glyph-name="uni2159" unicode="&#x2159;" horiz-adv-x="768" d="M163 403 L244 385 L244 351 L19 351 L19 385 L102 403 L102 642 Q79 632 58.5 625.5 Q38 619 12 617 L5 660 Q36 667 66.5 682.5 Q97 698 118 720 L162 720 L163 403 Z M162 -1 L99 -1 L502 720 L564 720 L162 -1 Z M529 375 Q553 375 577.5 368 Q602 361 622 348 L602 307 Q569 327 535 327 Q509 327 491 317.5 Q473 308 462 290.5 Q451 273 445.5 249 Q440 225 438 196 Q455 210 479 222.5 Q503 235 531 235 Q585 235 609.5 204 Q634 173 634 125 Q634 60 599 28 Q564 -4 509 -4 Q440 -4 410.5 41.5 Q381 87 381 163 Q381 268 418 321.5 Q455 375 529 375 Z M519 191 Q495 191 473 178 Q451 165 439 153 Q441 91 458.5 66 Q476 41 510 41 Q539 41 558.5 59 Q578 77 578 120 Q578 160 561.5 175.5 Q545 191 519 191 Z " />
<glyph glyph-name="uni215A" unicode="&#x215a;" horiz-adv-x="782" d="M237 670 L91 670 L82 560 Q94 569 113 576.5 Q132 584 158 584 Q209 584 235.5 553.5 Q262 523 262 471 Q262 408 224 375 Q186 342 129 342 Q98 342 66.5 351 Q35 360 9 378 L29 417 Q52 405 76 398 Q100 391 123 391 Q157 391 180 410 Q203 429 203 471 Q203 503 188 522 Q173 541 142 541 Q119 541 103.5 533 Q88 525 77 516 L75 489 L29 489 L46 720 L239 720 L237 670 Z M172 -1 L109 -1 L512 720 L574 720 L172 -1 Z M543 375 Q567 375 591.5 368 Q616 361 636 348 L616 307 Q583 327 549 327 Q523 327 505 317.5 Q487 308 476 290.5 Q465 273 459.5 249 Q454 225 452 196 Q469 210 493 222.5 Q517 235 545 235 Q599 235 623.5 204 Q648 173 648 125 Q648 60 613 28 Q578 -4 523 -4 Q454 -4 424.5 41.5 Q395 87 395 163 Q395 268 432 321.5 Q469 375 543 375 Z M533 191 Q509 191 487 178 Q465 165 453 153 Q455 91 472.5 66 Q490 41 524 41 Q553 41 572.5 59 Q592 77 592 120 Q592 160 575.5 175.5 Q559 191 533 191 Z " />
<glyph glyph-name="uni2150" unicode="&#x2150;" horiz-adv-x="752" d="M163 404 L244 386 L244 352 L19 352 L19 386 L102 404 L102 643 Q79 633 58.5 626.5 Q38 620 12 618 L5 661 Q36 668 66.5 683.5 Q97 699 118 721 L162 721 L163 404 Z M161 -1 L98 -1 L501 720 L563 720 L161 -1 Z M662 334 L522 0 L461 0 L461 6 L598 322 L466 322 L455 251 L418 251 L418 370 L662 370 L662 334 Z " />
<glyph glyph-name="uniF507" unicode="&#xf507;" horiz-adv-x="782" d="M127 725 Q181 725 209 700.5 Q237 676 237 634 Q237 605 224.5 577 Q212 549 189 523 L82 398 L201 398 L212 456 L247 456 L247 350 L7 350 L7 391 L130 536 Q152 560 165 581 Q178 602 178 627 Q178 647 165.5 661 Q153 675 122 675 Q96 675 79.5 661.5 Q63 648 57 619 L7 631 Q15 671 42.5 698 Q70 725 127 725 Z M183 -1 L120 -1 L523 720 L585 720 L183 -1 Z M692 334 L552 0 L491 0 L491 6 L628 322 L496 322 L485 251 L448 251 L448 370 L692 370 L692 334 Z " />
<glyph glyph-name="uniF508" unicode="&#xf508;" horiz-adv-x="764" d="M132 725 Q186 725 214 701 Q242 677 242 634 Q242 602 223.5 579 Q205 556 170 546 Q222 541 242 514 Q262 487 262 452 Q262 400 226.5 373 Q191 346 134 346 Q57 346 7 392 L33 430 Q56 413 78 404 Q100 395 130 395 Q163 395 182.5 408.5 Q202 422 202 454 Q202 485 182.5 501.5 Q163 518 118 518 L90 517 L90 561 Q134 562 159 578.5 Q184 595 184 627 Q184 646 171.5 660.5 Q159 675 129 675 Q104 675 87.5 662 Q71 649 66 621 L17 632 Q24 672 51 698.5 Q78 725 132 725 Z M159 -1 L96 -1 L499 720 L561 720 L159 -1 Z M674 334 L534 0 L473 0 L473 6 L610 322 L478 322 L467 251 L430 251 L430 370 L674 370 L674 334 Z " />
<glyph glyph-name="uniF509" unicode="&#xf509;" horiz-adv-x="798" d="M241 480 L297 480 L297 434 L241 434 L241 350 L184 350 L184 434 L7 434 L7 478 L161 720 L241 720 L241 480 Z M187 -1 L124 -1 L527 720 L589 720 L187 -1 Z M184 667 L66 480 L185 480 L185 667 L184 667 Z M708 334 L568 0 L507 0 L507 6 L644 322 L512 322 L501 251 L464 251 L464 370 L708 370 L708 334 Z " />
<glyph glyph-name="uniF50A" unicode="&#xf50a;" horiz-adv-x="783" d="M237 670 L91 670 L82 560 Q94 569 113 576.5 Q132 584 158 584 Q209 584 235.5 553.5 Q262 523 262 471 Q262 408 224 375 Q186 342 129 342 Q98 342 66.5 351 Q35 360 9 378 L29 417 Q52 405 76 398 Q100 391 123 391 Q157 391 180 410 Q203 429 203 471 Q203 503 188 522 Q173 541 142 541 Q119 541 103.5 533 Q88 525 77 516 L75 489 L29 489 L46 720 L239 720 L237 670 Z M165 -1 L102 -1 L505 720 L567 720 L165 -1 Z M693 334 L553 0 L492 0 L492 6 L629 322 L497 322 L486 251 L449 251 L449 370 L693 370 L693 334 Z " />
<glyph glyph-name="uniF50B" unicode="&#xf50b;" horiz-adv-x="783" d="M155 725 Q179 725 203.5 718 Q228 711 248 698 L228 657 Q195 677 161 677 Q135 677 117 667.5 Q99 658 88 640.5 Q77 623 71.5 599 Q66 575 64 546 Q81 560 105 572.5 Q129 585 157 585 Q211 585 235.5 554 Q260 523 260 475 Q260 410 225 378 Q190 346 135 346 Q66 346 36.5 391.5 Q7 437 7 513 Q7 618 44 671.5 Q81 725 155 725 Z M169 -1 L106 -1 L509 720 L571 720 L169 -1 Z M145 541 Q121 541 99 528 Q77 515 65 503 Q67 441 84.5 416 Q102 391 136 391 Q165 391 184.5 409 Q204 427 204 470 Q204 510 187.5 525.5 Q171 541 145 541 Z M693 334 L553 0 L492 0 L492 6 L629 322 L497 322 L486 251 L449 251 L449 370 L693 370 L693 334 Z " />
<glyph glyph-name="oneeighth" unicode="&#x215b;" horiz-adv-x="803" d="M163 403 L244 385 L244 351 L19 351 L19 385 L102 403 L102 642 Q79 632 58.5 625.5 Q38 619 12 617 L5 660 Q36 667 66.5 682.5 Q97 698 118 720 L162 720 L163 403 Z M183 -1 L120 -1 L523 720 L585 720 L183 -1 Z M542 375 Q597 375 626 353 Q655 331 655 292 Q655 262 636.5 239 Q618 216 589 201 Q631 183 651 162 Q671 141 671 104 Q671 54 635 25 Q599 -4 538 -4 Q477 -4 444 22.5 Q411 49 411 95 Q411 134 433.5 157.5 Q456 181 494 198 Q460 212 443 232.5 Q426 253 426 285 Q426 327 457 351 Q488 375 542 375 Z M542 335 Q515 335 498.5 322.5 Q482 310 482 286 Q482 273 487 264 Q492 255 501 247.5 Q510 240 521.5 234.5 Q533 229 545 223 Q564 233 582.5 249 Q601 265 601 288 Q601 312 585 323.5 Q569 335 542 335 Z M531 173 Q507 161 486.5 144.5 Q466 128 466 96 Q466 70 485 55 Q504 40 538 40 Q571 40 590.5 56.5 Q610 73 610 103 Q610 119 603.5 130 Q597 141 585.5 149 Q574 157 560 162.5 Q546 168 531 173 Z " />
<glyph glyph-name="threeeighths" unicode="&#x215c;" horiz-adv-x="835" d="M132 725 Q186 725 214 701 Q242 677 242 634 Q242 602 223.5 579 Q205 556 170 546 Q222 541 242 514 Q262 487 262 452 Q262 400 226.5 373 Q191 346 134 346 Q57 346 7 392 L33 430 Q56 413 78 404 Q100 395 130 395 Q163 395 182.5 408.5 Q202 422 202 454 Q202 485 182.5 501.5 Q163 518 118 518 L90 517 L90 561 Q134 562 159 578.5 Q184 595 184 627 Q184 646 171.5 660.5 Q159 675 129 675 Q104 675 87.5 662 Q71 649 66 621 L17 632 Q24 672 51 698.5 Q78 725 132 725 Z M182 -1 L119 -1 L522 720 L584 720 L182 -1 Z M574 375 Q629 375 658 353 Q687 331 687 292 Q687 262 668.5 239 Q650 216 621 201 Q663 183 683 162 Q703 141 703 104 Q703 54 667 25 Q631 -4 570 -4 Q509 -4 476 22.5 Q443 49 443 95 Q443 134 465.5 157.5 Q488 181 526 198 Q492 212 475 232.5 Q458 253 458 285 Q458 327 489 351 Q520 375 574 375 Z M574 335 Q547 335 530.5 322.5 Q514 310 514 286 Q514 273 519 264 Q524 255 533 247.5 Q542 240 553.5 234.5 Q565 229 577 223 Q596 233 614.5 249 Q633 265 633 288 Q633 312 617 323.5 Q601 335 574 335 Z M563 173 Q539 161 518.5 144.5 Q498 128 498 96 Q498 70 517 55 Q536 40 570 40 Q603 40 622.5 56.5 Q642 73 642 103 Q642 119 635.5 130 Q629 141 617.5 149 Q606 157 592 162.5 Q578 168 563 173 Z " />
<glyph glyph-name="fiveeighths" unicode="&#x215d;" horiz-adv-x="802" d="M237 670 L91 670 L82 560 Q94 569 113 576.5 Q132 584 158 584 Q209 584 235.5 553.5 Q262 523 262 471 Q262 408 224 375 Q186 342 129 342 Q98 342 66.5 351 Q35 360 9 378 L29 417 Q52 405 76 398 Q100 391 123 391 Q157 391 180 410 Q203 429 203 471 Q203 503 188 522 Q173 541 142 541 Q119 541 103.5 533 Q88 525 77 516 L75 489 L29 489 L46 720 L239 720 L237 670 Z M166 -1 L103 -1 L506 720 L568 720 L166 -1 Z M541 375 Q596 375 625 353 Q654 331 654 292 Q654 262 635.5 239 Q617 216 588 201 Q630 183 650 162 Q670 141 670 104 Q670 54 634 25 Q598 -4 537 -4 Q476 -4 443 22.5 Q410 49 410 95 Q410 134 432.5 157.5 Q455 181 493 198 Q459 212 442 232.5 Q425 253 425 285 Q425 327 456 351 Q487 375 541 375 Z M541 335 Q514 335 497.5 322.5 Q481 310 481 286 Q481 273 486 264 Q491 255 500 247.5 Q509 240 520.5 234.5 Q532 229 544 223 Q563 233 581.5 249 Q600 265 600 288 Q600 312 584 323.5 Q568 335 541 335 Z M530 173 Q506 161 485.5 144.5 Q465 128 465 96 Q465 70 484 55 Q503 40 537 40 Q570 40 589.5 56.5 Q609 73 609 103 Q609 119 602.5 130 Q596 141 584.5 149 Q573 157 559 162.5 Q545 168 530 173 Z " />
<glyph glyph-name="seveneighths" unicode="&#x215e;" horiz-adv-x="756" d="M251 684 L111 350 L50 350 L50 356 L187 672 L55 672 L44 601 L7 601 L7 720 L251 720 L251 684 Z M100 -1 L37 -1 L440 720 L502 720 L100 -1 Z M495 375 Q550 375 579 353 Q608 331 608 292 Q608 262 589.5 239 Q571 216 542 201 Q584 183 604 162 Q624 141 624 104 Q624 54 588 25 Q552 -4 491 -4 Q430 -4 397 22.5 Q364 49 364 95 Q364 134 386.5 157.5 Q409 181 447 198 Q413 212 396 232.5 Q379 253 379 285 Q379 327 410 351 Q441 375 495 375 Z M495 335 Q468 335 451.5 322.5 Q435 310 435 286 Q435 273 440 264 Q445 255 454 247.5 Q463 240 474.5 234.5 Q486 229 498 223 Q517 233 535.5 249 Q554 265 554 288 Q554 312 538 323.5 Q522 335 495 335 Z M484 173 Q460 161 439.5 144.5 Q419 128 419 96 Q419 70 438 55 Q457 40 491 40 Q524 40 543.5 56.5 Q563 73 563 103 Q563 119 556.5 130 Q550 141 538.5 149 Q527 157 513 162.5 Q499 168 484 173 Z " />
<glyph glyph-name="uni2151" unicode="&#x2151;" horiz-adv-x="780" d="M163 403 L244 385 L244 351 L19 351 L19 385 L102 403 L102 642 Q79 632 58.5 625.5 Q38 619 12 617 L5 660 Q36 667 66.5 682.5 Q97 698 118 720 L162 720 L163 403 Z M166 -1 L103 -1 L506 720 L568 720 L166 -1 Z M500 -5 Q476 -5 451.5 2 Q427 9 407 22 L427 63 Q460 43 494 43 Q520 43 538 52.5 Q556 62 567 79.5 Q578 97 583.5 121 Q589 145 591 174 Q574 160 550 147.5 Q526 135 498 135 Q444 135 419.5 166 Q395 197 395 245 Q395 310 430 342 Q465 374 520 374 Q589 374 618.5 328.5 Q648 283 648 207 Q648 102 611 48.5 Q574 -5 500 -5 Z M510 179 Q534 179 556 192 Q578 205 590 217 Q588 279 570.5 304 Q553 329 519 329 Q490 329 470.5 311 Q451 293 451 250 Q451 210 467.5 194.5 Q484 179 510 179 Z " />
<glyph glyph-name="uniF50D" unicode="&#xf50d;" horiz-adv-x="797" d="M127 725 Q181 725 209 700.5 Q237 676 237 634 Q237 605 224.5 577 Q212 549 189 523 L82 398 L201 398 L212 456 L247 456 L247 350 L7 350 L7 391 L130 536 Q152 560 165 581 Q178 602 178 627 Q178 647 165.5 661 Q153 675 122 675 Q96 675 79.5 661.5 Q63 648 57 619 L7 631 Q15 671 42.5 698 Q70 725 127 725 Z M176 -1 L113 -1 L516 720 L578 720 L176 -1 Z M515 -5 Q491 -5 466.5 2 Q442 9 422 22 L442 63 Q475 43 509 43 Q535 43 553 52.5 Q571 62 582 79.5 Q593 97 598.5 121 Q604 145 606 174 Q589 160 565 147.5 Q541 135 513 135 Q459 135 434.5 166 Q410 197 410 245 Q410 310 445 342 Q480 374 535 374 Q604 374 633.5 328.5 Q663 283 663 207 Q663 102 626 48.5 Q589 -5 515 -5 Z M525 179 Q549 179 571 192 Q593 205 605 217 Q603 279 585.5 304 Q568 329 534 329 Q505 329 485.5 311 Q466 293 466 250 Q466 210 482.5 194.5 Q499 179 525 179 Z " />
<glyph glyph-name="uniF50E" unicode="&#xf50e;" horiz-adv-x="835" d="M241 480 L297 480 L297 434 L241 434 L241 350 L184 350 L184 434 L7 434 L7 478 L161 720 L241 720 L241 480 Z M199 -1 L136 -1 L539 720 L601 720 L199 -1 Z M184 667 L66 480 L185 480 L185 667 L184 667 Z M553 -5 Q529 -5 504.5 2 Q480 9 460 22 L480 63 Q513 43 547 43 Q573 43 591 52.5 Q609 62 620 79.5 Q631 97 636.5 121 Q642 145 644 174 Q627 160 603 147.5 Q579 135 551 135 Q497 135 472.5 166 Q448 197 448 245 Q448 310 483 342 Q518 374 573 374 Q642 374 671.5 328.5 Q701 283 701 207 Q701 102 664 48.5 Q627 -5 553 -5 Z M563 179 Q587 179 609 192 Q631 205 643 217 Q641 279 623.5 304 Q606 329 572 329 Q543 329 523.5 311 Q504 293 504 250 Q504 210 520.5 194.5 Q537 179 563 179 Z " />
<glyph glyph-name="uniF50F" unicode="&#xf50f;" horiz-adv-x="805" d="M237 670 L91 670 L82 560 Q94 569 113 576.5 Q132 584 158 584 Q209 584 235.5 553.5 Q262 523 262 471 Q262 408 224 375 Q186 342 129 342 Q98 342 66.5 351 Q35 360 9 378 L29 417 Q52 405 76 398 Q100 391 123 391 Q157 391 180 410 Q203 429 203 471 Q203 503 188 522 Q173 541 142 541 Q119 541 103.5 533 Q88 525 77 516 L75 489 L29 489 L46 720 L239 720 L237 670 Z M167 -1 L104 -1 L507 720 L569 720 L167 -1 Z M523 -5 Q499 -5 474.5 2 Q450 9 430 22 L450 63 Q483 43 517 43 Q543 43 561 52.5 Q579 62 590 79.5 Q601 97 606.5 121 Q612 145 614 174 Q597 160 573 147.5 Q549 135 521 135 Q467 135 442.5 166 Q418 197 418 245 Q418 310 453 342 Q488 374 543 374 Q612 374 641.5 328.5 Q671 283 671 207 Q671 102 634 48.5 Q597 -5 523 -5 Z M533 179 Q557 179 579 192 Q601 205 613 217 Q611 279 593.5 304 Q576 329 542 329 Q513 329 493.5 311 Q474 293 474 250 Q474 210 490.5 194.5 Q507 179 533 179 Z " />
<glyph glyph-name="uniF510" unicode="&#xf510;" horiz-adv-x="762" d="M251 684 L111 350 L50 350 L50 356 L187 672 L55 672 L44 601 L7 601 L7 720 L251 720 L251 684 Z M106 -1 L43 -1 L446 720 L508 720 L106 -1 Z M480 -5 Q456 -5 431.5 2 Q407 9 387 22 L407 63 Q440 43 474 43 Q500 43 518 52.5 Q536 62 547 79.5 Q558 97 563.5 121 Q569 145 571 174 Q554 160 530 147.5 Q506 135 478 135 Q424 135 399.5 166 Q375 197 375 245 Q375 310 410 342 Q445 374 500 374 Q569 374 598.5 328.5 Q628 283 628 207 Q628 102 591 48.5 Q554 -5 480 -5 Z M490 179 Q514 179 536 192 Q558 205 570 217 Q568 279 550.5 304 Q533 329 499 329 Q470 329 450.5 311 Q431 293 431 250 Q431 210 447.5 194.5 Q464 179 490 179 Z " />
<glyph glyph-name="uniF511" unicode="&#xf511;" horiz-adv-x="801" d="M138 725 Q193 725 222 703 Q251 681 251 642 Q251 612 232.5 589 Q214 566 185 551 Q227 533 247 512 Q267 491 267 454 Q267 404 231 375 Q195 346 134 346 Q73 346 40 372.5 Q7 399 7 445 Q7 484 29.5 507.5 Q52 531 90 548 Q56 562 39 582.5 Q22 603 22 635 Q22 677 53 701 Q84 725 138 725 Z M171 -1 L108 -1 L511 720 L573 720 L171 -1 Z M138 685 Q111 685 94.5 672.5 Q78 660 78 636 Q78 623 83 614 Q88 605 97 597.5 Q106 590 117.5 584.5 Q129 579 141 573 Q160 583 178.5 599 Q197 615 197 638 Q197 662 181 673.5 Q165 685 138 685 Z M127 523 Q103 511 82.5 494.5 Q62 478 62 446 Q62 420 81 405 Q100 390 134 390 Q167 390 186.5 406.5 Q206 423 206 453 Q206 469 199.5 480 Q193 491 181.5 499 Q170 507 156 512.5 Q142 518 127 523 Z M519 -5 Q495 -5 470.5 2 Q446 9 426 22 L446 63 Q479 43 513 43 Q539 43 557 52.5 Q575 62 586 79.5 Q597 97 602.5 121 Q608 145 610 174 Q593 160 569 147.5 Q545 135 517 135 Q463 135 438.5 166 Q414 197 414 245 Q414 310 449 342 Q484 374 539 374 Q608 374 637.5 328.5 Q667 283 667 207 Q667 102 630 48.5 Q593 -5 519 -5 Z M529 179 Q553 179 575 192 Q597 205 609 217 Q607 279 589.5 304 Q572 329 538 329 Q509 329 489.5 311 Q470 293 470 250 Q470 210 486.5 194.5 Q503 179 529 179 Z " />
<glyph glyph-name="zeroinferior" unicode="&#x2080;" horiz-adv-x="363" d="M184 279 Q249 279 282 234 Q315 189 315 92 Q315 -9 281 -54.5 Q247 -100 184 -100 Q120 -100 86 -55 Q52 -10 52 91 Q52 188 86 233.5 Q120 279 184 279 Z M184 228 Q151 228 132 195.5 Q113 163 113 91 Q113 17 132 -16 Q151 -49 184 -49 Q218 -49 236.5 -15.5 Q255 18 255 91 Q255 163 236 195.5 Q217 228 184 228 Z " />
<glyph glyph-name="oneinferior" unicode="&#x2081;" horiz-adv-x="301" d="M189 -43 L270 -61 L270 -95 L45 -95 L45 -61 L128 -43 L128 196 Q105 186 84.5 179.5 Q64 173 38 171 L31 214 Q62 221 92.5 236.5 Q123 252 144 274 L188 274 L189 -43 Z " />
<glyph glyph-name="twoinferior" unicode="&#x2082;" horiz-adv-x="318" d="M153 279 Q207 279 235 254.5 Q263 230 263 188 Q263 159 250.5 131 Q238 103 215 77 L108 -48 L227 -48 L238 10 L273 10 L273 -96 L33 -96 L33 -55 L156 90 Q178 114 191 135 Q204 156 204 181 Q204 201 191.5 215 Q179 229 148 229 Q122 229 105.5 215.5 Q89 202 83 173 L33 185 Q41 225 68.5 252 Q96 279 153 279 Z " />
<glyph glyph-name="threeinferior" unicode="&#x2083;" horiz-adv-x="322" d="M150 279 Q204 279 232 255 Q260 231 260 188 Q260 156 241.5 133 Q223 110 188 100 Q240 95 260 68 Q280 41 280 6 Q280 -46 244.5 -73 Q209 -100 152 -100 Q75 -100 25 -54 L51 -16 Q74 -33 96 -42 Q118 -51 148 -51 Q181 -51 200.5 -37.5 Q220 -24 220 8 Q220 39 200.5 55.5 Q181 72 136 72 L108 71 L108 115 Q152 116 177 132.5 Q202 149 202 181 Q202 200 189.5 214.5 Q177 229 147 229 Q122 229 105.5 216 Q89 203 84 175 L35 186 Q42 226 69 252.5 Q96 279 150 279 Z " />
<glyph glyph-name="fourinferior" unicode="&#x2084;" horiz-adv-x="343" d="M266 34 L322 34 L322 -12 L266 -12 L266 -96 L209 -96 L209 -12 L32 -12 L32 32 L186 274 L266 274 L266 34 Z M209 221 L91 34 L210 34 L210 221 L209 221 Z " />
<glyph glyph-name="fiveinferior" unicode="&#x2085;" horiz-adv-x="332" d="M268 224 L122 224 L113 114 Q125 123 144 130.5 Q163 138 189 138 Q240 138 266.5 107.5 Q293 77 293 25 Q293 -38 255 -71 Q217 -104 160 -104 Q129 -104 97.5 -95 Q66 -86 40 -68 L60 -29 Q83 -41 107 -48 Q131 -55 154 -55 Q188 -55 211 -36 Q234 -17 234 25 Q234 57 219 76 Q204 95 173 95 Q150 95 134.5 87 Q119 79 108 70 L106 43 L60 43 L77 274 L270 274 L268 224 Z " />
<glyph glyph-name="sixinferior" unicode="&#x2086;" horiz-adv-x="341" d="M198 279 Q222 279 246.5 272 Q271 265 291 252 L271 211 Q238 231 204 231 Q178 231 160 221.5 Q142 212 131 194.5 Q120 177 114.5 153 Q109 129 107 100 Q124 114 148 126.5 Q172 139 200 139 Q254 139 278.5 108 Q303 77 303 29 Q303 -36 268 -68 Q233 -100 178 -100 Q109 -100 79.5 -54.5 Q50 -9 50 67 Q50 172 87 225.5 Q124 279 198 279 Z M188 95 Q164 95 142 82 Q120 69 108 57 Q110 -5 127.5 -30 Q145 -55 179 -55 Q208 -55 227.5 -37 Q247 -19 247 24 Q247 64 230.5 79.5 Q214 95 188 95 Z " />
<glyph glyph-name="seveninferior" unicode="&#x2087;" horiz-adv-x="297" d="M268 238 L128 -96 L67 -96 L67 -90 L204 226 L72 226 L61 155 L24 155 L24 274 L268 274 L268 238 Z " />
<glyph glyph-name="eightinferior" unicode="&#x2088;" horiz-adv-x="339" d="M173 279 Q228 279 257 257 Q286 235 286 196 Q286 166 267.5 143 Q249 120 220 105 Q262 87 282 66 Q302 45 302 8 Q302 -42 266 -71 Q230 -100 169 -100 Q108 -100 75 -73.5 Q42 -47 42 -1 Q42 38 64.5 61.5 Q87 85 125 102 Q91 116 74 136.5 Q57 157 57 189 Q57 231 88 255 Q119 279 173 279 Z M173 239 Q146 239 129.5 226.5 Q113 214 113 190 Q113 177 118 168 Q123 159 132 151.5 Q141 144 152.5 138.5 Q164 133 176 127 Q195 137 213.5 153 Q232 169 232 192 Q232 216 216 227.5 Q200 239 173 239 Z M162 77 Q138 65 117.5 48.5 Q97 32 97 0 Q97 -26 116 -41 Q135 -56 169 -56 Q202 -56 221.5 -39.5 Q241 -23 241 7 Q241 23 234.5 34 Q228 45 216.5 53 Q205 61 191 66.5 Q177 72 162 77 Z " />
<glyph glyph-name="nineinferior" unicode="&#x2089;" horiz-adv-x="341" d="M137 -101 Q113 -101 88.5 -94 Q64 -87 44 -74 L64 -33 Q97 -53 131 -53 Q157 -53 175 -43.5 Q193 -34 204 -16.5 Q215 1 220.5 25 Q226 49 228 78 Q211 64 187 51.5 Q163 39 135 39 Q81 39 56.5 70 Q32 101 32 149 Q32 214 67 246 Q102 278 157 278 Q226 278 255.5 232.5 Q285 187 285 111 Q285 6 248 -47.5 Q211 -101 137 -101 Z M147 83 Q171 83 193 96 Q215 109 227 121 Q225 183 207.5 208 Q190 233 156 233 Q127 233 107.5 215 Q88 197 88 154 Q88 114 104.5 98.5 Q121 83 147 83 Z " />
<glyph glyph-name="zerosuperior" unicode="&#x2070;" horiz-adv-x="363" d="M184 775 Q249 775 282 730 Q315 685 315 588 Q315 487 281 441.5 Q247 396 184 396 Q120 396 86 441 Q52 486 52 587 Q52 684 86 729.5 Q120 775 184 775 Z M184 724 Q151 724 132 691.5 Q113 659 113 587 Q113 513 132 480 Q151 447 184 447 Q218 447 236.5 480.5 Q255 514 255 587 Q255 659 236 691.5 Q217 724 184 724 Z " />
<glyph glyph-name="onesuperior" unicode="&#xb9;" horiz-adv-x="301" d="M191 453 L272 435 L272 401 L47 401 L47 435 L130 453 L130 692 Q107 682 86.5 675.5 Q66 669 40 667 L33 710 Q64 717 94.5 732.5 Q125 748 146 770 L190 770 L191 453 Z " />
<glyph glyph-name="twosuperior" unicode="&#xb2;" horiz-adv-x="318" d="M153 775 Q207 775 235 750.5 Q263 726 263 684 Q263 655 250.5 627 Q238 599 215 573 L108 448 L227 448 L238 506 L273 506 L273 400 L33 400 L33 441 L156 586 Q178 610 191 631 Q204 652 204 677 Q204 697 191.5 711 Q179 725 148 725 Q122 725 105.5 711.5 Q89 698 83 669 L33 681 Q41 721 68.5 748 Q96 775 153 775 Z " />
<glyph glyph-name="threesuperior" unicode="&#xb3;" horiz-adv-x="322" d="M150 775 Q204 775 232 751 Q260 727 260 684 Q260 652 241.5 629 Q223 606 188 596 Q240 591 260 564 Q280 537 280 502 Q280 450 244.5 423 Q209 396 152 396 Q75 396 25 442 L51 480 Q74 463 96 454 Q118 445 148 445 Q181 445 200.5 458.5 Q220 472 220 504 Q220 535 200.5 551.5 Q181 568 136 568 L108 567 L108 611 Q152 612 177 628.5 Q202 645 202 677 Q202 696 189.5 710.5 Q177 725 147 725 Q122 725 105.5 712 Q89 699 84 671 L35 682 Q42 722 69 748.5 Q96 775 150 775 Z " />
<glyph glyph-name="foursuperior" unicode="&#x2074;" horiz-adv-x="343" d="M266 530 L322 530 L322 484 L266 484 L266 400 L209 400 L209 484 L32 484 L32 528 L186 770 L266 770 L266 530 Z M209 717 L91 530 L210 530 L210 717 L209 717 Z " />
<glyph glyph-name="fivesuperior" unicode="&#x2075;" horiz-adv-x="332" d="M266 720 L120 720 L111 610 Q123 619 142 626.5 Q161 634 187 634 Q238 634 264.5 603.5 Q291 573 291 521 Q291 458 253 425 Q215 392 158 392 Q127 392 95.5 401 Q64 410 38 428 L58 467 Q81 455 105 448 Q129 441 152 441 Q186 441 209 460 Q232 479 232 521 Q232 553 217 572 Q202 591 171 591 Q148 591 132.5 583 Q117 575 106 566 L104 539 L58 539 L75 770 L268 770 L266 720 Z " />
<glyph glyph-name="sixsuperior" unicode="&#x2076;" horiz-adv-x="341" d="M198 775 Q222 775 246.5 768 Q271 761 291 748 L271 707 Q238 727 204 727 Q178 727 160 717.5 Q142 708 131 690.5 Q120 673 114.5 649 Q109 625 107 596 Q124 610 148 622.5 Q172 635 200 635 Q254 635 278.5 604 Q303 573 303 525 Q303 460 268 428 Q233 396 178 396 Q109 396 79.5 441.5 Q50 487 50 563 Q50 668 87 721.5 Q124 775 198 775 Z M188 591 Q164 591 142 578 Q120 565 108 553 Q110 491 127.5 466 Q145 441 179 441 Q208 441 227.5 459 Q247 477 247 520 Q247 560 230.5 575.5 Q214 591 188 591 Z " />
<glyph glyph-name="sevensuperior" unicode="&#x2077;" horiz-adv-x="297" d="M268 734 L128 400 L67 400 L67 406 L204 722 L72 722 L61 651 L24 651 L24 770 L268 770 L268 734 Z " />
<glyph glyph-name="eightsuperior" unicode="&#x2078;" horiz-adv-x="339" d="M173 775 Q228 775 257 753 Q286 731 286 692 Q286 662 267.5 639 Q249 616 220 601 Q262 583 282 562 Q302 541 302 504 Q302 454 266 425 Q230 396 169 396 Q108 396 75 422.5 Q42 449 42 495 Q42 534 64.5 557.5 Q87 581 125 598 Q91 612 74 632.5 Q57 653 57 685 Q57 727 88 751 Q119 775 173 775 Z M173 735 Q146 735 129.5 722.5 Q113 710 113 686 Q113 673 118 664 Q123 655 132 647.5 Q141 640 152.5 634.5 Q164 629 176 623 Q195 633 213.5 649 Q232 665 232 688 Q232 712 216 723.5 Q200 735 173 735 Z M162 573 Q138 561 117.5 544.5 Q97 528 97 496 Q97 470 116 455 Q135 440 169 440 Q202 440 221.5 456.5 Q241 473 241 503 Q241 519 234.5 530 Q228 541 216.5 549 Q205 557 191 562.5 Q177 568 162 573 Z " />
<glyph glyph-name="ninesuperior" unicode="&#x2079;" horiz-adv-x="341" d="M137 395 Q113 395 88.5 402 Q64 409 44 422 L64 463 Q97 443 131 443 Q157 443 175 452.5 Q193 462 204 479.5 Q215 497 220.5 521 Q226 545 228 574 Q211 560 187 547.5 Q163 535 135 535 Q81 535 56.5 566 Q32 597 32 645 Q32 710 67 742 Q102 774 157 774 Q226 774 255.5 728.5 Q285 683 285 607 Q285 502 248 448.5 Q211 395 137 395 Z M147 579 Q171 579 193 592 Q215 605 227 617 Q225 679 207.5 704 Q190 729 156 729 Q127 729 107.5 711 Q88 693 88 650 Q88 610 104.5 594.5 Q121 579 147 579 Z " />
<glyph glyph-name="asterisk" unicode="&#x2a;" horiz-adv-x="414" d="M233 608 L344 634 L357 599 L252 559 L318 456 L289 434 L207 529 L124 434 L94 457 L162 559 L58 598 L70 634 L179 608 L189 720 L225 720 L233 608 Z " />
<glyph glyph-name="backslash" unicode="&#x5c;" horiz-adv-x="355" d="M100 739 L323 -92 L258 -92 L33 739 L100 739 Z " />
<glyph glyph-name="bullet" unicode="&#x2022;" horiz-adv-x="487" d="M246 424 Q292 424 324.5 393.5 Q357 363 357 312 Q357 262 325 230.5 Q293 199 245 199 Q221 199 200.5 207.5 Q180 216 165.5 231.5 Q151 247 142.5 267.5 Q134 288 134 312 Q134 336 142.5 356.5 Q151 377 166 392 Q181 407 201.5 415.5 Q222 424 246 424 Z " />
<glyph glyph-name="colon" unicode="&#x3a;" horiz-adv-x="234" d="M117 504 Q141 504 156 490.5 Q171 477 171 452 Q171 427 156 412.5 Q141 398 117 398 Q93 398 78 412.5 Q63 427 63 451 Q63 477 78.5 490.5 Q94 504 117 504 Z M117 104 Q141 104 156 90.5 Q171 77 171 52 Q171 27 156 12.5 Q141 -2 117 -2 Q93 -2 78 12.5 Q63 27 63 51 Q63 77 78.5 90.5 Q94 104 117 104 Z " />
<glyph glyph-name="comma" unicode="&#x2c;" horiz-adv-x="234" d="M115 94 Q132 94 144 87.5 Q156 81 164 71 Q172 61 175.5 48 Q179 35 179 22 Q179 -26 156.5 -65.5 Q134 -105 76 -132 L59 -102 Q97 -80 113.5 -57 Q130 -34 132 1 Q120 -7 107 -8 Q94 -9 82.5 -3.5 Q71 2 63.5 13.5 Q56 25 56 41 Q56 64 72.5 79 Q89 94 115 94 Z " />
<glyph glyph-name="ellipsis" unicode="&#x2026;" horiz-adv-x="716" d="M599 104 Q623 104 638 90.5 Q653 77 653 52 Q653 27 638 12.5 Q623 -2 599 -2 Q575 -2 560 12.5 Q545 27 545 51 Q545 77 560.5 90.5 Q576 104 599 104 Z M357 104 Q381 104 396 90.5 Q411 77 411 52 Q411 27 396 12.5 Q381 -2 357 -2 Q333 -2 318 12.5 Q303 27 303 51 Q303 77 318.5 90.5 Q334 104 357 104 Z M117 104 Q141 104 156 90.5 Q171 77 171 52 Q171 27 156 12.5 Q141 -2 117 -2 Q93 -2 78 12.5 Q63 27 63 51 Q63 77 78.5 90.5 Q94 104 117 104 Z " />
<glyph glyph-name="exclam" unicode="&#x21;" horiz-adv-x="307" d="M194 479 L184 198 L124 198 L115 479 L115 720 L194 720 L194 479 Z M154 100 Q176 100 190.5 86.5 Q205 73 205 49 Q205 26 190.5 12 Q176 -2 154 -2 Q131 -2 116 12 Q101 26 101 49 Q101 73 116 86.5 Q131 100 154 100 Z " />
<glyph glyph-name="exclamdown" unicode="&#xa1;" horiz-adv-x="307" d="M155 424 Q132 424 117 437.5 Q102 451 102 475 Q102 498 117 512 Q132 526 155 526 Q177 526 191.5 512 Q206 498 206 475 Q206 451 191.5 437.5 Q177 424 155 424 Z M116 -196 L116 45 L125 326 L185 326 L195 45 L195 -196 L116 -196 Z " />
<glyph glyph-name="numbersign" unicode="&#x23;" horiz-adv-x="564" d="M500 628 L440 442 L537 442 L537 389 L422 389 L377 247 L487 247 L487 195 L361 195 L299 13 L251 25 L307 195 L161 195 L101 13 L52 25 L108 195 L27 195 L27 247 L125 247 L170 389 L78 389 L78 442 L187 442 L251 636 L300 625 L241 442 L386 442 L450 638 L500 628 Z M222 389 L179 247 L322 247 L368 389 L222 389 Z " />
<glyph glyph-name="period" unicode="&#x2e;" horiz-adv-x="234" d="M117 104 Q141 104 156 90.5 Q171 77 171 52 Q171 27 156 12.5 Q141 -2 117 -2 Q93 -2 78 12.5 Q63 27 63 51 Q63 77 78.5 90.5 Q94 104 117 104 Z " />
<glyph glyph-name="periodcentered" unicode="&#xb7;" horiz-adv-x="234" d="M117 399 Q141 399 156 385.5 Q171 372 171 347 Q171 322 156 307.5 Q141 293 117 293 Q93 293 78 307.5 Q63 322 63 346 Q63 372 78.5 385.5 Q94 399 117 399 Z " />
<glyph glyph-name="question" unicode="&#x3f;" horiz-adv-x="499" d="M258 732 Q298 732 332.5 721 Q367 710 392 688 Q417 666 431 633.5 Q445 601 445 558 Q445 519 433 488.5 Q421 458 402.5 432.5 Q384 407 362.5 384 Q341 361 322.5 336.5 Q304 312 292 284.5 Q280 257 280 223 L280 198 L210 198 L210 224 Q210 265 221.5 296 Q233 327 250.5 352.5 Q268 378 288.5 400.5 Q309 423 326.5 445 Q344 467 355.5 491.5 Q367 516 367 547 Q367 605 337.5 635.5 Q308 666 250 666 Q192 666 158.5 628 Q125 590 125 518 L55 518 Q55 624 106.5 678 Q158 732 258 732 Z M244 89 Q267 89 281.5 75.5 Q296 62 296 39 Q296 16 281.5 2 Q267 -12 244 -12 Q221 -12 206.5 1.5 Q192 15 192 38 Q192 62 206.5 75.5 Q221 89 244 89 Z " />
<glyph glyph-name="questiondown" unicode="&#xbf;" horiz-adv-x="499" d="M260 436 Q237 436 222.5 449.5 Q208 463 208 486 Q208 509 222.5 523 Q237 537 260 537 Q283 537 297.5 523.5 Q312 510 312 487 Q312 463 297.5 449.5 Q283 436 260 436 Z M246 -207 Q206 -207 171.5 -196 Q137 -185 112 -163 Q87 -141 73 -108.5 Q59 -76 59 -33 Q59 6 71 36.5 Q83 67 101.5 92.5 Q120 118 141.5 141 Q163 164 181.5 188.5 Q200 213 212 240 Q224 267 224 302 L224 327 L294 327 L294 301 Q294 260 282.5 229 Q271 198 253.5 172.5 Q236 147 215.5 124.5 Q195 102 177.5 80 Q160 58 148.5 33.5 Q137 9 137 -22 Q137 -80 166.5 -110.5 Q196 -141 254 -141 Q312 -141 345.5 -103 Q379 -65 379 7 L449 7 Q449 -99 397.5 -153 Q346 -207 246 -207 Z " />
<glyph glyph-name="quotedbl" unicode="&#x22;" horiz-adv-x="351" d="M146 455 L88 455 L88 732 L146 732 L146 455 Z M263 455 L205 455 L205 732 L263 732 L263 455 Z " />
<glyph glyph-name="quotesingle" unicode="&#x27;" horiz-adv-x="234" d="M146 455 L88 455 L88 732 L146 732 L146 455 Z " />
<glyph glyph-name="semicolon" unicode="&#x3b;" horiz-adv-x="234" d="M121 504 Q145 504 160 490.5 Q175 477 175 452 Q175 427 160 412.5 Q145 398 121 398 Q97 398 82 412.5 Q67 427 67 451 Q67 477 82.5 490.5 Q98 504 121 504 Z M115 94 Q132 94 144 87.5 Q156 81 164 71 Q172 61 175.5 48 Q179 35 179 22 Q179 -26 156.5 -65.5 Q134 -105 76 -132 L59 -102 Q97 -80 113.5 -57 Q130 -34 132 1 Q120 -7 107 -8 Q94 -9 82.5 -3.5 Q71 2 63.5 13.5 Q56 25 56 41 Q56 64 72.5 79 Q89 94 115 94 Z " />
<glyph glyph-name="slash" unicode="&#x2f;" horiz-adv-x="349" d="M93 -92 L28 -92 L251 739 L318 739 L93 -92 Z " />
<glyph glyph-name="underscore" unicode="&#x5f;" horiz-adv-x="454" d="M447 -231 L7 -231 L7 -177 L447 -177 L447 -231 Z " />
<glyph glyph-name="braceleft" unicode="&#x7b;" horiz-adv-x="352" d="M323 663 L286 663 Q240 663 226 633.5 Q212 604 212 548 L212 409 Q212 385 209.5 365.5 Q207 346 198.5 330 Q190 314 175 302.5 Q160 291 135 284 Q161 279 176.5 267.5 Q192 256 200 239 Q208 222 210 200.5 Q212 179 212 155 L212 47 Q212 -10 227.5 -39 Q243 -68 293 -68 L323 -68 L323 -125 L289 -125 Q247 -125 218 -116.5 Q189 -108 172 -90 Q155 -72 147.5 -43 Q140 -14 140 28 L140 150 Q140 201 125.5 227.5 Q111 254 66 254 L39 254 L39 314 L64 314 Q88 314 102.5 321 Q117 328 125.5 343 Q134 358 137 381 Q140 404 140 436 L140 551 Q140 594 146.5 626 Q153 658 169.5 679 Q186 700 214.5 710 Q243 720 286 720 L323 720 L323 663 Z " />
<glyph glyph-name="braceright" unicode="&#x7d;" horiz-adv-x="352" d="M66 720 Q109 720 137.5 710 Q166 700 182.5 679 Q199 658 205.5 626 Q212 594 212 551 L212 436 Q212 404 215 381 Q218 358 226.5 343 Q235 328 249.5 321 Q264 314 288 314 L313 314 L313 254 L286 254 Q241 254 226.5 227.5 Q212 201 212 150 L212 28 Q212 -14 204.5 -43 Q197 -72 180 -90 Q163 -108 134 -116.5 Q105 -125 63 -125 L29 -125 L29 -68 L59 -68 Q109 -68 124.5 -39 Q140 -10 140 47 L140 155 Q140 179 142 200.5 Q144 222 152 239 Q160 256 175.5 267.5 Q191 279 217 284 Q192 291 177 302.5 Q162 314 153.5 330 Q145 346 142.5 365.5 Q140 385 140 409 L140 548 Q140 604 126 633.5 Q112 663 66 663 L29 663 L29 720 L66 720 Z " />
<glyph glyph-name="bracketleft" unicode="&#x5b;" horiz-adv-x="336" d="M262 661 L163 661 L163 -66 L262 -66 L262 -125 L91 -125 L91 720 L262 720 L262 661 Z " />
<glyph glyph-name="bracketright" unicode="&#x5d;" horiz-adv-x="336" d="M245 720 L245 -125 L74 -125 L74 -66 L173 -66 L173 661 L74 661 L74 720 L245 720 Z " />
<glyph glyph-name="parenleft" unicode="&#x28;" horiz-adv-x="295" d="M248 705 Q183 608 152 510.5 Q121 413 121 297 Q121 238 128.5 187.5 Q136 137 151.5 89.5 Q167 42 191 -3.5 Q215 -49 249 -97 L205 -128 Q129 -47 88.5 60.5 Q48 168 48 296 Q48 425 87.5 533 Q127 641 199 732 L248 705 Z " />
<glyph glyph-name="parenright" unicode="&#x29;" horiz-adv-x="295" d="M96 732 Q168 641 207.5 533 Q247 425 247 296 Q247 168 206.5 60.5 Q166 -47 90 -128 L46 -97 Q80 -49 104 -3.5 Q128 42 143.5 89.5 Q159 137 166.5 187.5 Q174 238 174 297 Q174 413 143 510.5 Q112 608 47 705 L96 732 Z " />
<glyph glyph-name="emdash" unicode="&#x2014;" horiz-adv-x="894" d="M887 237 L7 237 L7 292 L887 292 L887 237 Z " />
<glyph glyph-name="endash" unicode="&#x2013;" horiz-adv-x="454" d="M447 237 L7 237 L7 292 L447 292 L447 237 Z " />
<glyph glyph-name="hyphen" unicode="&#x2d;" horiz-adv-x="234" d="M217 246 L17 246 L17 309 L217 309 L217 246 Z " />
<glyph glyph-name="uni00AD" unicode="&#xad;" horiz-adv-x="317" d="M217 246 L17 246 L17 309 L217 309 L217 246 Z " />
<glyph glyph-name="guillemotleft" unicode="&#xab;" horiz-adv-x="449" d="M227 386 L117 261 L227 135 L188 103 L45 251 L45 270 L188 420 L227 386 Z M411 386 L301 261 L411 135 L372 103 L229 251 L229 270 L372 420 L411 386 Z " />
<glyph glyph-name="guillemotright" unicode="&#xbb;" horiz-adv-x="450" d="M220 270 L220 251 L77 103 L38 135 L148 261 L38 386 L77 420 L220 270 Z M405 270 L405 251 L262 103 L223 135 L333 261 L223 386 L262 420 L405 270 Z " />
<glyph glyph-name="guilsinglleft" unicode="&#x2039;" horiz-adv-x="265" d="M227 386 L117 261 L227 135 L188 103 L45 251 L45 270 L188 420 L227 386 Z " />
<glyph glyph-name="guilsinglright" unicode="&#x203a;" horiz-adv-x="265" d="M220 270 L220 251 L77 103 L38 135 L148 261 L38 386 L77 420 L220 270 Z " />
<glyph glyph-name="quotedblbase" unicode="&#x201e;" horiz-adv-x="383" d="M263 79 Q296 79 309.5 56.5 Q323 34 323 8 Q323 -30 305 -66 Q287 -102 237 -128 L220 -100 Q249 -83 264 -61.5 Q279 -40 281 -8 Q269 -18 256 -19.5 Q243 -21 232.5 -15.5 Q222 -10 215.5 0.5 Q209 11 209 26 Q209 49 224 64 Q239 79 263 79 Z M114 79 Q147 79 160.5 56.5 Q174 34 174 8 Q174 -30 156 -66 Q138 -102 88 -128 L71 -100 Q100 -83 115 -61.5 Q130 -40 132 -8 Q120 -18 107 -19.5 Q94 -21 83.5 -15.5 Q73 -10 66.5 0.5 Q60 11 60 26 Q60 49 75 64 Q90 79 114 79 Z " />
<glyph glyph-name="quotedblleft" unicode="&#x201c;" horiz-adv-x="382" d="M120 542 Q87 542 73.5 564.5 Q60 587 60 613 Q60 651 78 687 Q96 723 146 749 L163 721 Q134 704 119 682.5 Q104 661 102 629 Q114 639 126.5 640.5 Q139 642 149.5 636.5 Q160 631 167 620.5 Q174 610 174 595 Q174 572 159 557 Q144 542 120 542 Z M268 542 Q235 542 221.5 564.5 Q208 587 208 613 Q208 651 226 687 Q244 723 294 749 L311 721 Q282 704 267 682.5 Q252 661 250 629 Q262 639 274.5 640.5 Q287 642 297.5 636.5 Q308 631 315 620.5 Q322 610 322 595 Q322 572 307 557 Q292 542 268 542 Z " />
<glyph glyph-name="quotedblright" unicode="&#x201d;" horiz-adv-x="382" d="M262 721 Q295 721 308.5 698.5 Q322 676 322 650 Q322 612 304 576 Q286 540 236 514 L219 542 Q248 559 263 580.5 Q278 602 280 634 Q268 624 255 622.5 Q242 621 231.5 626.5 Q221 632 214.5 642.5 Q208 653 208 668 Q208 691 223 706 Q238 721 262 721 Z M114 721 Q147 721 160.5 698.5 Q174 676 174 650 Q174 612 156 576 Q138 540 88 514 L71 542 Q100 559 115 580.5 Q130 602 132 634 Q120 624 107 622.5 Q94 621 83.5 626.5 Q73 632 66.5 642.5 Q60 653 60 668 Q60 691 75 706 Q90 721 114 721 Z " />
<glyph glyph-name="quoteleft" unicode="&#x2018;" horiz-adv-x="234" d="M120 542 Q87 542 73.5 564.5 Q60 587 60 613 Q60 651 78 687 Q96 723 146 749 L163 721 Q134 704 119 682.5 Q104 661 102 629 Q114 639 126.5 640.5 Q139 642 149.5 636.5 Q160 631 167 620.5 Q174 610 174 595 Q174 572 159 557 Q144 542 120 542 Z " />
<glyph glyph-name="quoteright" unicode="&#x2019;" horiz-adv-x="234" d="M114 721 Q147 721 160.5 698.5 Q174 676 174 650 Q174 612 156 576 Q138 540 88 514 L71 542 Q100 559 115 580.5 Q130 602 132 634 Q120 624 107 622.5 Q94 621 83.5 626.5 Q73 632 66.5 642.5 Q60 653 60 668 Q60 691 75 706 Q90 721 114 721 Z " />
<glyph glyph-name="quotesinglbase" unicode="&#x201a;" horiz-adv-x="234" d="M114 79 Q147 79 160.5 56.5 Q174 34 174 8 Q174 -30 156 -66 Q138 -102 88 -128 L71 -100 Q100 -83 115 -61.5 Q130 -40 132 -8 Q120 -18 107 -19.5 Q94 -21 83.5 -15.5 Q73 -10 66.5 0.5 Q60 11 60 26 Q60 49 75 64 Q90 79 114 79 Z " />
<glyph glyph-name="Abreve" unicode="&#x102;" horiz-adv-x="680" d="M657 44 L657 0 L428 0 L428 44 L502 65 L457 220 L215 220 L172 65 L245 44 L245 0 L25 0 L25 44 L97 65 L276 655 L213 675 L213 720 L385 720 L583 65 L657 44 Z M439 284 L402 418 Q385 478 368.5 532.5 Q352 587 336 646 L271 419 L234 284 L439 284 Z M441 870 Q434 816 408.5 789.5 Q383 763 332 763 Q282 763 256 789.5 Q230 816 224 870 L270 879 Q275 845 289 829 Q303 813 332 813 Q361 813 375.5 829 Q390 845 395 879 L441 870 Z " />
<glyph glyph-name="uni00A0" unicode="&#xa0;" horiz-adv-x="199" d="" />
<glyph glyph-name="Aacute" unicode="&#xc1;" horiz-adv-x="680" d="M657 44 L657 0 L428 0 L428 44 L502 65 L457 220 L215 220 L172 65 L245 44 L245 0 L25 0 L25 44 L97 65 L276 655 L213 675 L213 720 L385 720 L583 65 L657 44 Z M439 284 L402 418 Q385 478 368.5 532.5 Q352 587 336 646 L271 419 L234 284 L439 284 Z M427 842 L261 758 L240 795 L395 896 L427 842 Z " />
<glyph glyph-name="A" unicode="A" horiz-adv-x="680" d="M657 44 L657 0 L428 0 L428 44 L502 65 L457 220 L215 220 L172 65 L245 44 L245 0 L25 0 L25 44 L97 65 L276 655 L213 675 L213 720 L385 720 L583 65 L657 44 Z M439 284 L402 418 Q385 478 368.5 532.5 Q352 587 336 646 L271 419 L234 284 L439 284 Z " />
<glyph glyph-name="florin" unicode="&#x192;" horiz-adv-x="423" d="M393 662 L347 662 Q309 662 295.5 637 Q282 612 272 561 L244 411 L328 411 L328 357 L234 357 L169 3 Q161 -41 151.5 -73.5 Q142 -106 127 -127.5 Q112 -149 88.5 -160 Q65 -171 28 -171 L-21 -171 L-21 -114 L17 -114 Q51 -114 66.5 -92 Q82 -70 92 -21 L163 357 L91 357 L91 411 L174 411 L205 578 Q211 608 219 634 Q227 660 241.5 679 Q256 698 278.5 709 Q301 720 336 720 L393 720 L393 662 Z " />
<glyph glyph-name="Euro" unicode="&#x20ac;" horiz-adv-x="607" d="M379 732 Q467 732 549 694 L549 554 L500 554 L478 656 Q453 664 429 667.5 Q405 671 379 671 Q302 671 248.5 614.5 Q195 558 178 439 L473 439 L469 389 L174 389 Q173 381 173 373.5 Q173 366 173 358 Q173 345 173.5 333 Q174 321 175 309 L462 309 L457 259 L182 259 Q199 159 248 105 Q297 51 367 51 Q423 51 461.5 72.5 Q500 94 532 129 L570 85 Q527 35 476 11.5 Q425 -12 358 -12 Q302 -12 259.5 8.5 Q217 29 186.5 65.5 Q156 102 137 151.5 Q118 201 109 259 L28 259 L32 309 L103 309 Q102 321 101.5 333.5 Q101 346 101 358 Q101 366 101 373.5 Q101 381 102 389 L39 389 L44 439 L107 439 Q115 512 139 567 Q163 622 199 659 Q235 696 280.5 714 Q326 732 379 732 Z " />
<glyph glyph-name="cent" unicode="&#xa2;" horiz-adv-x="495" d="M430 127 Q398 109 364 98 Q330 87 297 82 L297 -15 L238 -15 L238 79 Q148 85 93.5 153 Q39 221 39 355 Q39 421 53.5 470 Q68 519 94.5 553 Q121 587 157.5 605 Q194 623 238 627 L238 720 L297 720 L297 626 Q332 623 363.5 612.5 Q395 602 427 583 L427 437 L374 437 L351 547 Q331 557 311 560.5 Q291 564 262 564 Q196 564 156 513.5 Q116 463 116 357 Q116 250 156.5 197 Q197 144 266 144 Q297 144 332.5 154 Q368 164 407 183 L430 127 Z " />
<glyph glyph-name="currency" unicode="&#xa4;" horiz-adv-x="578" d="M521 538 L433 450 Q451 427 461.5 399.5 Q472 372 472 342 Q472 311 461.5 283 Q451 255 433 233 L522 146 L486 110 L398 197 Q375 180 347.5 170 Q320 160 290 160 Q258 160 230.5 170 Q203 180 180 197 L92 110 L57 146 L145 233 Q127 255 117 283 Q107 311 107 342 Q107 372 117.5 399.5 Q128 427 145 450 L58 538 L92 574 L180 486 Q203 503 230.5 513 Q258 523 290 523 Q320 523 347.5 513 Q375 503 398 486 L485 574 L521 538 Z M289 470 Q262 470 238.5 460.5 Q215 451 197.5 433.5 Q180 416 170 392.5 Q160 369 160 342 Q160 314 170 290.5 Q180 267 197 249.5 Q214 232 238 222 Q262 212 289 212 Q316 212 339.5 222 Q363 232 380.5 250 Q398 268 408 291.5 Q418 315 418 342 Q418 369 408 392.5 Q398 416 380.5 433.5 Q363 451 339.5 460.5 Q316 470 289 470 Z " />
<glyph glyph-name="dollar" unicode="&#x24;" horiz-adv-x="553" d="M488 192 Q488 148 474 113 Q460 78 435 53 Q410 28 375.5 12.5 Q341 -3 301 -9 L301 -91 L233 -91 L233 -12 Q189 -10 145.5 1.5 Q102 13 59 35 L59 184 L111 184 L134 79 Q159 68 190.5 61 Q222 54 256 54 Q286 54 314 61 Q342 68 363.5 83.5 Q385 99 398 123.5 Q411 148 411 184 Q411 214 403.5 235.5 Q396 257 378.5 274.5 Q361 292 332.5 306.5 Q304 321 261 338 Q214 357 177.5 375 Q141 393 115.5 415.5 Q90 438 76.5 467.5 Q63 497 63 539 Q63 583 77 616.5 Q91 650 115.5 673.5 Q140 697 172.5 710.5 Q205 724 241 729 L241 817 L308 817 L308 731 Q356 729 399.5 717.5 Q443 706 478 688 L478 538 L427 538 L404 645 Q379 656 348.5 662 Q318 668 284 668 Q255 668 229 661 Q203 654 182.5 639.5 Q162 625 150 602 Q138 579 138 548 Q138 517 149 496 Q160 475 181.5 459 Q203 443 234 429.5 Q265 416 305 399 Q351 380 385.5 361.5 Q420 343 442.5 320 Q465 297 476.5 266 Q488 235 488 192 Z " />
<glyph glyph-name="sterling" unicode="&#xa3;" horiz-adv-x="519" d="M259 731 Q307 731 341 718 Q375 705 397.5 682 Q420 659 433 627.5 Q446 596 452 560 L388 547 Q374 612 344.5 640 Q315 668 257 668 Q227 668 205.5 658.5 Q184 649 170 632.5 Q156 616 149.5 594.5 Q143 573 143 548 Q143 516 158 473 Q173 430 199 379 L355 379 L355 323 L219 323 Q227 302 233.5 273.5 Q240 245 240 224 Q240 174 219 135 Q198 96 172 64 L398 64 L416 165 L466 165 L466 0 L45 0 L45 46 L98 68 Q111 84 124 101.5 Q137 119 147 138 Q157 157 163.5 178 Q170 199 170 222 Q170 234 167.5 247.5 Q165 261 161.5 274.5 Q158 288 153.5 300.5 Q149 313 146 323 L46 323 L46 379 L124 379 Q99 424 84.5 469 Q70 514 70 554 Q70 635 119.5 683 Q169 731 259 731 Z " />
<glyph glyph-name="yen" unicode="&#xa5;" horiz-adv-x="588" d="M493 652 L352 388 L501 388 L501 337 L325 337 L325 262 L501 262 L501 211 L325 211 L325 65 L401 45 L401 0 L179 0 L179 45 L255 65 L255 211 L80 211 L80 262 L255 262 L255 337 L80 337 L80 388 L229 388 L96 652 L32 672 L32 720 L240 720 L240 672 L177 651 L293 394 L414 652 L351 672 L351 720 L555 720 L555 672 L493 652 Z " />
<glyph glyph-name="approxequal" unicode="&#x2248;" horiz-adv-x="697" d="M654 376 Q614 344 573.5 326 Q533 308 487 308 Q453 308 420.5 317.5 Q388 327 357 338.5 Q326 350 296.5 359.5 Q267 369 238 369 Q198 369 165 352 Q132 335 97 308 L68 355 Q108 387 149 405 Q190 423 241 423 Q275 423 308 413.5 Q341 404 372 393 Q403 382 431 372.5 Q459 363 484 363 Q521 363 552.5 377.5 Q584 392 625 421 L654 376 Z M651 196 Q611 164 570.5 146 Q530 128 484 128 Q450 128 417.5 137.5 Q385 147 354 158.5 Q323 170 293.5 179.5 Q264 189 235 189 Q195 189 162 172 Q129 155 94 128 L65 175 Q105 207 146 225 Q187 243 238 243 Q272 243 305 233.5 Q338 224 369 213 Q400 202 428 192.5 Q456 183 481 183 Q518 183 549.5 197.5 Q581 212 622 241 L651 196 Z " />
<glyph glyph-name="asciitilde" unicode="&#x7e;" horiz-adv-x="729" d="M661 301 Q621 269 580.5 251 Q540 233 494 233 Q460 233 427.5 242.5 Q395 252 364 263.5 Q333 275 303.5 284.5 Q274 294 245 294 Q205 294 172 277 Q139 260 104 233 L75 280 Q115 312 156 330 Q197 348 248 348 Q282 348 315 338.5 Q348 329 379 318 Q410 307 438 297.5 Q466 288 491 288 Q528 288 559.5 302.5 Q591 317 632 346 L661 301 Z " />
<glyph glyph-name="divide" unicode="&#xf7;" horiz-adv-x="580" d="M289 503 Q307 503 319.5 490.5 Q332 478 332 459 Q332 442 319.5 429.5 Q307 417 289 417 Q272 417 259.5 429.5 Q247 442 247 459 Q247 477 259.5 490 Q272 503 289 503 Z M528 272 L53 272 L53 326 L528 326 L528 272 Z M289 185 Q307 185 319.5 172 Q332 159 332 142 Q332 124 319.5 111.5 Q307 99 289 99 Q272 99 259.5 112 Q247 125 247 142 Q247 159 259.5 172 Q272 185 289 185 Z " />
<glyph glyph-name="equal" unicode="&#x3d;" horiz-adv-x="580" d="M528 332 L53 332 L53 385 L528 385 L528 332 Z M528 183 L53 183 L53 235 L528 235 L528 183 Z " />
<glyph glyph-name="greater" unicode="&#x3e;" horiz-adv-x="580" d="M540 313 L540 275 L61 70 L39 125 L444 294 L39 465 L61 518 L540 313 Z " />
<glyph glyph-name="greaterequal" unicode="&#x2265;" horiz-adv-x="580" d="M525 377 L525 339 L72 141 L50 195 L432 358 L50 522 L72 575 L525 377 Z M525 108 L525 53 L51 53 L51 108 L525 108 Z " />
<glyph glyph-name="infinity" unicode="&#x221e;" horiz-adv-x="723" d="M536 449 Q569 449 593 438 Q617 427 633 408.5 Q649 390 657 365 Q665 340 665 313 Q665 278 655 250.5 Q645 223 628 203.5 Q611 184 587.5 173.5 Q564 163 537 163 Q507 163 482.5 173 Q458 183 437 198.5 Q416 214 398 232.5 Q380 251 365 267 Q329 224 288 193.5 Q247 163 197 163 Q135 163 97 200 Q59 237 59 303 Q59 334 69 360.5 Q79 387 97 406.5 Q115 426 141 437 Q167 448 200 448 Q227 448 249.5 439.5 Q272 431 292 416.5 Q312 402 330 382 Q348 362 365 339 Q384 361 403 381 Q422 401 442.5 416 Q463 431 486 440 Q509 449 536 449 Z M528 400 Q492 400 464 376.5 Q436 353 397 304 Q410 287 426.5 270.5 Q443 254 460.5 241 Q478 228 496.5 220 Q515 212 533 212 Q553 212 567.5 220 Q582 228 592 241.5 Q602 255 606.5 272 Q611 289 611 307 Q611 346 591.5 373 Q572 400 528 400 Z M202 399 Q179 399 162 391 Q145 383 134.5 369.5 Q124 356 119 339 Q114 322 114 303 Q114 264 136 237.5 Q158 211 202 211 Q234 211 267.5 235 Q301 259 333 303 Q298 353 267.5 376 Q237 399 202 399 Z " />
<glyph glyph-name="integral" unicode="&#x222b;" horiz-adv-x="345" d="M326 734 L276 734 Q235 734 219.5 705.5 Q204 677 204 624 L204 -43 Q204 -78 198.5 -107 Q193 -136 178 -156.5 Q163 -177 137 -188.5 Q111 -200 70 -200 L16 -200 L16 -144 L63 -144 Q100 -144 118.5 -122.5 Q137 -101 137 -44 L137 643 Q137 674 144 701 Q151 728 166.5 748 Q182 768 206 779 Q230 790 264 790 L326 790 L326 734 Z " />
<glyph glyph-name="less" unicode="&#x3c;" horiz-adv-x="580" d="M541 465 L136 294 L541 125 L519 70 L40 275 L40 313 L519 518 L541 465 Z " />
<glyph glyph-name="lessequal" unicode="&#x2264;" horiz-adv-x="580" d="M528 522 L146 358 L528 195 L506 141 L53 339 L53 377 L506 575 L528 522 Z M527 53 L53 53 L53 108 L527 108 L527 53 Z " />
<glyph glyph-name="logicalnot" unicode="&#xac;" horiz-adv-x="580" d="M535 136 L480 136 L480 323 L46 323 L46 376 L535 376 L535 136 Z " />
<glyph glyph-name="minus" unicode="&#x2212;" horiz-adv-x="580" d="M528 272 L53 272 L53 326 L528 326 L528 272 Z " />
<glyph glyph-name="multiply" unicode="&#xd7;" horiz-adv-x="580" d="M475 440 L330 295 L479 148 L439 106 L294 252 L145 103 L104 145 L250 290 L101 438 L141 479 L286 334 L435 482 L475 440 Z " />
<glyph glyph-name="notequal" unicode="&#x2260;" horiz-adv-x="580" d="M353 332 L294 235 L536 235 L536 183 L262 183 L166 24 L105 24 L202 183 L61 183 L61 235 L233 235 L292 332 L61 332 L61 385 L324 385 L398 506 L458 506 L385 385 L536 385 L536 332 L353 332 Z " />
<glyph glyph-name="partialdiff" unicode="&#x2202;" horiz-adv-x="565" d="M294 701 Q388 701 435.5 637.5 Q483 574 483 440 Q483 386 478 331.5 Q473 277 461.5 227 Q450 177 430.5 133 Q411 89 382.5 57 Q354 25 315.5 6.5 Q277 -12 227 -12 Q149 -12 105 38.5 Q61 89 61 177 Q61 231 74.5 278.5 Q88 326 114 362 Q140 398 178 418.5 Q216 439 265 439 Q289 439 313 431.5 Q337 424 357 409.5 Q377 395 390.5 373 Q404 351 409 321 Q412 351 414 379 Q416 407 416 430 Q416 536 385.5 588 Q355 640 286 640 Q224 640 161 601 L140 651 Q176 676 217.5 688.5 Q259 701 294 701 Z M274 380 Q238 380 211.5 363 Q185 346 167.5 318 Q150 290 141.5 255 Q133 220 133 183 Q133 119 162.5 86 Q192 53 237 53 Q274 53 302.5 72 Q331 91 350 120 Q369 149 379 183 Q389 217 389 247 Q387 308 355.5 344 Q324 380 274 380 Z " />
<glyph glyph-name="percent" unicode="&#x25;" horiz-adv-x="807" d="M196 732 Q228 732 255.5 721.5 Q283 711 303 690.5 Q323 670 334 640.5 Q345 611 345 574 Q345 538 333.5 508.5 Q322 479 302 458.5 Q282 438 255 426.5 Q228 415 196 415 Q130 415 88 455.5 Q46 496 46 573 Q46 610 57 639.5 Q68 669 88 689.5 Q108 710 135.5 721 Q163 732 196 732 Z M234 -1 L171 -1 L574 720 L636 720 L234 -1 Z M196 678 Q155 678 130.5 649.5 Q106 621 106 573 Q106 523 130.5 496 Q155 469 196 469 Q236 469 261 497 Q286 525 286 573 Q286 622 261 650 Q236 678 196 678 Z M610 307 Q642 307 669.5 296 Q697 285 717 264.5 Q737 244 748 214.5 Q759 185 759 149 Q759 113 748 84 Q737 55 717 34 Q697 13 669.5 2 Q642 -9 610 -9 Q544 -9 502 32 Q460 73 460 148 Q460 184 471 213.5 Q482 243 502 264 Q522 285 549.5 296 Q577 307 610 307 Z M610 254 Q570 254 545.5 225 Q521 196 521 149 Q521 101 545.5 72.5 Q570 44 610 44 Q650 44 675 72.5 Q700 101 700 149 Q700 195 675 224.5 Q650 254 610 254 Z " />
<glyph glyph-name="perthousand" unicode="&#x2030;" horiz-adv-x="1044" d="M196 731 Q261 731 303 690 Q345 649 345 573 Q345 537 333.5 508.5 Q322 480 302 459.5 Q282 439 255 427.5 Q228 416 196 415 Q130 413 88 454.5 Q46 496 46 572 Q46 609 57 638.5 Q68 668 88 688.5 Q108 709 135.5 720 Q163 731 196 731 Z M233 -1 L170 -1 L573 720 L635 720 L233 -1 Z M196 678 Q155 678 130.5 649.5 Q106 621 106 573 Q106 522 130.5 495 Q155 468 196 468 Q236 468 261 496.5 Q286 525 286 573 Q286 621 261 649.5 Q236 678 196 678 Z M850 307 Q916 307 957 264.5 Q998 222 998 149 Q998 113 987 84 Q976 55 956.5 34 Q937 13 910 2 Q883 -9 851 -9 Q812 -9 779 9 Q746 27 729 57 Q708 24 676.5 7.5 Q645 -9 606 -9 Q541 -9 500.5 32 Q460 73 460 148 Q460 184 471 213.5 Q482 243 502 264 Q522 285 549.5 296 Q577 307 609 307 Q689 307 729 239 Q748 270 779.5 288.5 Q811 307 850 307 Z M610 254 Q569 254 544.5 225 Q520 196 520 149 Q520 101 544.5 72.5 Q569 44 610 44 Q650 44 674.5 72.5 Q699 101 699 149 Q699 196 674.5 225 Q650 254 610 254 Z M849 254 Q808 254 783.5 225 Q759 196 759 149 Q759 98 782.5 71 Q806 44 849 44 Q889 44 914 72.5 Q939 101 939 149 Q939 196 914.5 225 Q890 254 849 254 Z " />
<glyph glyph-name="plus" unicode="&#x2b;" horiz-adv-x="580" d="M319 326 L528 326 L528 272 L319 272 L319 61 L261 61 L261 272 L51 272 L51 326 L261 326 L261 538 L319 538 L319 326 Z " />
<glyph glyph-name="plusminus" unicode="&#xb1;" horiz-adv-x="580" d="M319 362 L528 362 L528 307 L319 307 L319 115 L527 115 L527 60 L53 60 L53 115 L261 115 L261 307 L51 307 L51 362 L261 362 L261 572 L319 572 L319 362 Z " />
<glyph glyph-name="product" unicode="&#x220f;" horiz-adv-x="735" d="M675 674 L600 654 L600 -52 L674 -73 L674 -117 L449 -117 L449 -73 L523 -52 L523 655 L211 655 L211 -52 L285 -73 L285 -117 L60 -117 L60 -73 L134 -52 L134 654 L60 674 L60 720 L675 720 L675 674 Z " />
<glyph glyph-name="radical" unicode="&#x221a;" horiz-adv-x="687" d="M371 -166 L301 -166 L166 251 L41 251 L41 308 L219 308 L336 -72 L613 824 L681 824 L371 -166 Z " />
<glyph glyph-name="summation" unicode="&#x2211;" horiz-adv-x="585" d="M487 554 L436 554 L419 655 L152 655 L354 308 L148 -54 L453 -54 L471 47 L522 47 L522 -119 L44 -119 L44 -86 L266 307 L44 687 L44 720 L487 720 L487 554 Z " />
<glyph glyph-name="uni2215" unicode="&#x2215;" horiz-adv-x="137" d="M-105 -1 L-168 -1 L235 720 L297 720 L-105 -1 Z " />
<glyph glyph-name="uni2219" unicode="&#x2219;" horiz-adv-x="288" d="M139 403 Q163 403 178 389.5 Q193 376 193 351 Q193 326 178 311.5 Q163 297 139 297 Q115 297 100 311.5 Q85 326 85 350 Q85 376 100.5 389.5 Q116 403 139 403 Z " />
<glyph glyph-name="arroewup" unicode="&#x2191;" horiz-adv-x="510" d="M431 341 L396 306 L284 420 L284 9 L229 9 L229 420 L114 307 L80 341 L257 514 L431 341 Z " />
<glyph glyph-name="uni21B6" unicode="&#x21b6;" horiz-adv-x="760" d="M458 502 Q510 502 551.5 485.5 Q593 469 621.5 439.5 Q650 410 665.5 368.5 Q681 327 681 276 L628 276 Q625 357 582 405.5 Q539 454 457 454 Q372 454 326 403 Q280 352 280 264 L280 132 L395 247 L430 212 L254 38 L78 211 L114 247 L227 133 L227 262 Q227 377 289 439.5 Q351 502 458 502 Z " />
<glyph glyph-name="uni21B7" unicode="&#x21b7;" horiz-adv-x="760" d="M301 502 Q408 502 470 439.5 Q532 377 532 262 L532 133 L645 247 L681 211 L505 38 L329 212 L364 247 L479 132 L479 264 Q479 352 433 403 Q387 454 302 454 Q220 454 177 405.5 Q134 357 131 276 L78 276 Q78 327 93.5 368.5 Q109 410 137.5 439.5 Q166 469 207.5 485.5 Q249 502 301 502 Z " />
<glyph glyph-name="uni21CA" unicode="&#x21ca;" horiz-adv-x="760" d="M476 133 L543 201 L577 166 L398 -12 L215 166 L249 199 L316 133 L316 601 L360 601 L360 91 L396 56 L432 92 L432 601 L476 601 L476 133 Z " />
<glyph glyph-name="uni21C7" unicode="&#x21c7;" horiz-adv-x="765" d="M221 189 L289 122 L254 88 L76 267 L254 450 L287 416 L221 349 L689 349 L689 305 L179 305 L144 269 L180 233 L689 233 L689 189 L221 189 Z " />
<glyph glyph-name="uni21C9" unicode="&#x21c9;" horiz-adv-x="765" d="M81 232 L590 232 L626 268 L591 304 L81 304 L81 348 L549 348 L483 415 L516 449 L694 266 L516 87 L481 121 L549 188 L81 188 L81 232 Z " />
<glyph glyph-name="uni21C8" unicode="&#x21c8;" horiz-adv-x="760" d="M432 0 L432 509 L396 545 L360 510 L360 0 L316 0 L316 468 L249 402 L215 435 L398 613 L577 435 L543 400 L476 468 L476 0 L432 0 Z " />
<glyph glyph-name="arrowLeftRight" unicode="&#x2194;" horiz-adv-x="1016" d="M182 434 L218 400 L104 287 L909 287 L794 400 L831 435 L1004 260 L832 84 L796 119 L909 233 L104 233 L216 119 L181 84 L9 262 L182 434 Z " />
<glyph glyph-name="arrowNE" unicode="&#x2197;" horiz-adv-x="510" d="M439 437 L439 192 L388 192 L388 352 L104 67 L68 104 L351 388 L192 388 L192 437 L439 437 Z " />
<glyph glyph-name="arrowNW" unicode="&#x2196;" horiz-adv-x="510" d="M318 388 L159 388 L442 104 L406 67 L122 352 L122 192 L71 192 L71 437 L318 437 L318 388 Z " />
<glyph glyph-name="arrowSE" unicode="&#x2198;" horiz-adv-x="510" d="M192 99 L351 99 L68 383 L104 420 L388 135 L388 295 L439 295 L439 50 L192 50 L192 99 Z " />
<glyph glyph-name="arrowSW" unicode="&#x2199;" horiz-adv-x="510" d="M71 50 L71 295 L122 295 L122 135 L406 420 L442 383 L159 99 L318 99 L318 50 L71 50 Z " />
<glyph glyph-name="arrowupdn" unicode="&#x2195;" horiz-adv-x="760" d="M555 545 L521 509 L408 623 L408 -182 L521 -67 L556 -104 L381 -277 L205 -105 L240 -69 L354 -182 L354 623 L240 511 L205 546 L383 718 L555 545 Z " />
<glyph glyph-name="arrowdown" unicode="&#x2193;" horiz-adv-x="510" d="M80 181 L114 215 L229 102 L229 513 L284 513 L284 102 L396 216 L431 181 L257 8 L80 181 Z " />
<glyph glyph-name="arrowleft" unicode="&#x2190;" horiz-adv-x="523" d="M183 441 L217 407 L104 292 L515 292 L515 237 L104 237 L218 125 L183 90 L10 264 L183 441 Z " />
<glyph glyph-name="arrowright" unicode="&#x2192;" horiz-adv-x="523" d="M340 90 L305 125 L419 237 L8 237 L8 292 L419 292 L306 407 L340 441 L513 264 L340 90 Z " />
<glyph glyph-name="arrowdown.750" unicode="&#x2965;" horiz-adv-x="760" d="M203 54 L237 87 L352 -25 L352 629 L407 629 L407 -25 L519 89 L554 54 L380 -119 L203 54 Z " />
<glyph glyph-name="arrowleft.750" unicode="&#x27f5;" horiz-adv-x="764" d="M182 440 L217 405 L103 293 L757 293 L757 238 L103 238 L215 123 L182 89 L9 266 L182 440 Z " />
<glyph glyph-name="arrowright.750" unicode="&#x27f6;" horiz-adv-x="764" d="M580 90 L547 124 L659 239 L5 239 L5 294 L659 294 L545 406 L580 441 L753 267 L580 90 Z " />
<glyph glyph-name="arrowup.750" unicode="&#x2963;" horiz-adv-x="760" d="M556 468 L521 433 L409 547 L409 -107 L354 -107 L354 547 L239 435 L205 468 L382 641 L556 468 Z " />
<glyph glyph-name="blackcircle" unicode="&#x25cf;" horiz-adv-x="578" d="M290 514 Q329 514 363.5 499 Q398 484 423.5 458.5 Q449 433 464 398 Q479 363 479 324 Q479 285 464 250 Q449 215 423.5 189.5 Q398 164 363.5 149 Q329 134 290 134 Q251 134 216 149 Q181 164 155.5 189.5 Q130 215 115 250 Q100 285 100 324 Q100 363 115 398 Q130 433 155.5 458.5 Q181 484 216 499 Q251 514 290 514 Z " />
<glyph glyph-name="lozenge" unicode="&#x25ca;" horiz-adv-x="573" d="M496 354 L311 26 L255 26 L78 352 L255 674 L311 674 L496 354 Z M146 352 L283 93 L426 352 L283 606 L146 352 Z " />
<glyph glyph-name="whiteuppointingtriangle" unicode="&#x25b3;" horiz-adv-x="411" d="M321 320 L146 209 L146 428 L321 320 Z " />
<glyph glyph-name="ampersand" unicode="&#x26;" horiz-adv-x="676" d="M294 732 Q361 732 403 692 Q445 652 445 585 Q445 524 410.5 480 Q376 436 316 404 L466 201 Q477 235 481.5 268.5 Q486 302 486 336 L486 386 L618 386 L618 343 L548 324 Q547 279 537.5 233 Q528 187 510 145 L570 63 L641 43 L641 0 L531 0 L468 85 Q435 37 383 10.5 Q331 -16 275 -16 Q228 -16 188.5 -2 Q149 12 119.5 39 Q90 66 73.5 105.5 Q57 145 57 196 Q57 268 97 323 Q137 378 215 416 Q182 456 161 494.5 Q140 533 140 578 Q140 611 150.5 639 Q161 667 180.5 688 Q200 709 229 720.5 Q258 732 294 732 Z M292 674 Q254 674 232 646.5 Q210 619 210 581 Q210 553 225.5 520 Q241 487 276 447 Q378 499 378 583 Q378 622 355 648 Q332 674 292 674 Z M253 369 Q195 343 162.5 300.5 Q130 258 130 199 Q130 165 141.5 137 Q153 109 172 89 Q191 69 216.5 58 Q242 47 271 47 Q324 47 361.5 74 Q399 101 425 136 L253 369 Z " />
<glyph glyph-name="asciicircum" unicode="&#x5e;" horiz-adv-x="653" d="M572 453 L530 417 L326 628 L121 417 L79 455 L297 682 L355 682 L572 453 Z " />
<glyph glyph-name="at" unicode="&#x40;" horiz-adv-x="947" d="M515 648 Q598 648 665 624 Q732 600 779.5 555.5 Q827 511 853 449 Q879 387 879 312 Q879 241 860.5 182.5 Q842 124 810 82 Q778 40 734 16.5 Q690 -7 638 -7 Q589 -7 563.5 17 Q538 41 541 84 Q518 42 484.5 19 Q451 -4 402 -4 Q340 -4 308.5 37 Q277 78 277 151 Q277 204 293.5 251.5 Q310 299 340 335 Q370 371 412 392 Q454 413 505 413 Q550 413 583.5 403 Q617 393 643 377 L590 139 Q579 86 592 62 Q605 38 647 38 Q686 38 719 59.5 Q752 81 776.5 117.5 Q801 154 814.5 202.5 Q828 251 828 304 Q828 376 804.5 431.5 Q781 487 739 524.5 Q697 562 639 581.5 Q581 601 512 601 Q430 601 359 570 Q288 539 235 483.5 Q182 428 151.5 352 Q121 276 121 187 Q121 104 148 38.5 Q175 -27 222.5 -73 Q270 -119 335 -143 Q400 -167 476 -167 Q557 -167 623.5 -142.5 Q690 -118 750 -71 L776 -108 Q711 -162 635 -187.5 Q559 -213 478 -213 Q390 -213 315 -186 Q240 -159 185 -107.5 Q130 -56 99 18 Q68 92 68 186 Q68 288 102.5 373 Q137 458 197.5 519 Q258 580 339.5 614 Q421 648 515 648 Z M504 368 Q465 368 433 350 Q401 332 378 301.5 Q355 271 342.5 232 Q330 193 330 151 Q330 100 351 69.5 Q372 39 413 39 Q437 39 458 50 Q479 61 495.5 79.5 Q512 98 523.5 121.5 Q535 145 541 171 L583 348 Q570 357 550 362.5 Q530 368 504 368 Z " />
<glyph glyph-name="bar" unicode="&#x7c;" horiz-adv-x="481" d="M272 -200 L208 -200 L208 720 L272 720 L272 -200 Z " />
</font>
</svg>
