<?xml version="1.0" encoding="UTF-8"?>
<svg xmlns="http://www.w3.org/2000/svg" xmlns:xlink="http://www.w3.org/1999/xlink" version="1.2" >
<font id="LFTEticaSb">
<font-face  font-family="LFT Etica" units-per-em="1000" ascent="930" descent="-270" font-style="normal" font-weight="600" font-stretch="normal" cap-height="720" x-height="528" underline-position="-75" underline-thickness="50" />
<missing-glyph  horiz-adv-x="205" d="" />
<glyph glyph-name="space" unicode="&#x20;" horiz-adv-x="205" d="" />
<glyph glyph-name="ampersand" unicode="&#x26;" horiz-adv-x="743" d="M278 571 Q278 529 337 467 Q418 514 418 571 Q418 600 400 617.5 Q382 635 349 635 Q316 635 297 617 Q278 599 278 571 Z M314 92 Q392 92 451 163 L287 347 Q193 301 193 209 Q193 159 226 125.5 Q259 92 314 92 Z M603 -10 L520 81 Q469 30 417 7.5 Q365 -15 295 -15 Q194 -15 131 43.5 Q68 102 68 197 Q68 340 222 418 Q155 490 155 566 Q155 634 207.5 681 Q260 728 345 728 Q424 728 475.5 687 Q527 646 527 575 Q527 472 400 401 L478 315 L585 413 L663 334 L551 233 L696 68 L603 -10 Z " />
<glyph glyph-name="asterisk" unicode="&#x2a;" horiz-adv-x="461" d="M317 394 L228 487 L138 394 L88 430 L156 532 L52 574 L75 631 L185 606 L199 721 L257 721 L272 607 L388 632 L409 574 L300 532 L365 430 L317 394 Z " />
<glyph glyph-name="comma" unicode="&#x2c;" horiz-adv-x="254" d="M46 56 Q46 86 67.5 106.5 Q89 127 120 127 Q160 127 181 99.5 Q202 72 202 31 Q202 -32 166.5 -81 Q131 -130 63 -154 L43 -107 Q125 -68 128 0 Q113 -5 102 -5 Q76 -5 61 12 Q46 29 46 56 Z " />
<glyph glyph-name="hyphen" unicode="&#x2d;" horiz-adv-x="332" d="M32 225 L32 330 L300 330 L300 225 L32 225 Z " />
<glyph glyph-name="period" unicode="&#x2e;" horiz-adv-x="257" d="M52 57 Q52 91 72 111 Q92 131 128 131 Q163 131 184 111.5 Q205 92 205 60 Q205 27 184 7 Q163 -13 128 -13 Q92 -13 72 6.5 Q52 26 52 57 Z " />
<glyph glyph-name="colon" unicode="&#x3a;" horiz-adv-x="257" d="M52 57 Q52 91 72 111 Q92 131 128 131 Q163 131 184 111.5 Q205 92 205 60 Q205 27 184 7 Q163 -13 128 -13 Q92 -13 72 6.5 Q52 26 52 57 Z M52 434 Q52 468 72 488 Q92 508 128 508 Q163 508 184 488.5 Q205 469 205 437 Q205 404 184 384 Q163 364 128 364 Q92 364 72 383.5 Q52 403 52 434 Z " />
<glyph glyph-name="semicolon" unicode="&#x3b;" horiz-adv-x="257" d="M51 434 Q51 468 71 488 Q91 508 127 508 Q162 508 183 488.5 Q204 469 204 437 Q204 404 183 384 Q162 364 127 364 Q91 364 71 383.5 Q51 403 51 434 Z M49 56 Q49 86 70.5 106.5 Q92 127 123 127 Q163 127 184 99.5 Q205 72 205 31 Q205 -32 169.5 -81 Q134 -130 66 -154 L46 -107 Q128 -68 131 0 Q116 -5 105 -5 Q79 -5 64 12 Q49 29 49 56 Z " />
<glyph glyph-name="question" unicode="&#x3f;" horiz-adv-x="551" d="M216 213 L216 246 Q216 285 232 319.5 Q248 354 271 379 Q294 404 316.5 427 Q339 450 355 477 Q371 504 371 532 Q371 575 345.5 597 Q320 619 276 619 Q228 619 198 589.5 Q168 560 168 505 L45 505 Q45 618 110 675 Q175 732 284 732 Q378 732 441.5 683.5 Q505 635 505 545 Q505 503 487.5 466 Q470 429 445 402 Q420 375 395 349.5 Q370 324 352.5 294 Q335 264 335 233 L335 213 L216 213 Z M198 57 Q198 91 218 111 Q238 131 274 131 Q309 131 330 111.5 Q351 92 351 60 Q351 27 330 7 Q309 -13 274 -13 Q238 -13 218 6.5 Q198 26 198 57 Z " />
<glyph glyph-name="exclam" unicode="&#x21;" horiz-adv-x="323" d="M108 213 L96 483 L96 720 L231 720 L231 483 L218 213 L108 213 Z M85 57 Q85 91 105 111 Q125 131 161 131 Q196 131 217 111.5 Q238 92 238 60 Q238 27 217 7 Q196 -13 161 -13 Q125 -13 105 6.5 Q85 26 85 57 Z " />
<glyph glyph-name="exclamdown" unicode="&#xa1;" horiz-adv-x="323" d="M96 43 L108 313 L218 313 L231 43 L231 -194 L96 -194 L96 43 Z M85 469 Q85 500 105 519.5 Q125 539 161 539 Q196 539 217 519 Q238 499 238 466 Q238 434 217 414.5 Q196 395 161 395 Q125 395 105 415 Q85 435 85 469 Z " />
<glyph glyph-name="questiondown" unicode="&#xbf;" horiz-adv-x="551" d="M338 314 L338 281 Q338 242 322 207.5 Q306 173 283 148 Q260 123 237.5 100 Q215 77 199 50 Q183 23 183 -5 Q183 -48 208.5 -70 Q234 -92 278 -92 Q326 -92 356 -62.5 Q386 -33 386 22 L509 22 Q509 -91 444 -148 Q379 -205 270 -205 Q176 -205 112.5 -156.5 Q49 -108 49 -18 Q49 24 66.5 61 Q84 98 109 125 Q134 152 159 177.5 Q184 203 201.5 233 Q219 263 219 294 L219 314 L338 314 Z M356 470 Q356 436 335.5 416 Q315 396 279 396 Q245 396 223.5 415.5 Q202 435 202 467 Q202 499 223.5 519.5 Q245 540 279 540 Q315 540 335.5 520.5 Q356 501 356 470 Z " />
<glyph glyph-name="at" unicode="&#x40;" horiz-adv-x="993" d="M561 184 L601 342 Q577 357 534 357 Q459 357 415 301 Q371 245 371 166 Q371 75 444 75 Q485 75 516.5 105.5 Q548 136 561 184 Z M696 390 L638 161 Q633 139 633 123 Q633 75 682 75 Q730 75 767.5 111.5 Q805 148 822.5 199.5 Q840 251 840 305 Q840 435 758 504.5 Q676 574 539 574 Q374 574 268.5 465 Q163 356 163 189 Q163 39 257.5 -47.5 Q352 -134 504 -134 Q664 -134 790 -41 L829 -101 Q763 -152 674.5 -179 Q586 -206 497 -206 Q313 -206 195 -100 Q77 6 77 190 Q77 390 211 519 Q345 648 542 648 Q713 648 819 555 Q925 462 925 310 Q925 176 848.5 89 Q772 2 669 2 Q567 2 562 80 Q512 3 419 3 Q351 3 318 47 Q285 91 285 162 Q285 273 357 351.5 Q429 430 543 430 Q626 430 696 390 Z " />
<glyph glyph-name="A" unicode="A" horiz-adv-x="694" d="M277 720 L416 720 L675 0 L527 0 L474 163 L220 163 L167 0 L18 0 L277 720 Z M257 279 L436 279 L346 562 L257 279 Z " />
<glyph glyph-name="B" unicode="B" horiz-adv-x="656" d="M337 606 L213 606 L213 424 L323 424 Q381 424 414 447.5 Q447 471 447 519 Q447 606 337 606 Z M213 318 L213 117 L358 117 Q416 117 447 144 Q478 171 478 220 Q478 318 354 318 L213 318 Z M75 0 L75 720 L341 720 Q467 720 528 676.5 Q589 633 589 543 Q589 486 557 441 Q525 396 464 382 L464 380 Q542 369 580.5 320.5 Q619 272 619 214 Q619 153 596.5 110 Q574 67 531.5 43.5 Q489 20 437.5 10 Q386 0 320 0 L75 0 Z " />
<glyph glyph-name="C" unicode="C" horiz-adv-x="684" d="M579 195 L653 104 Q532 -13 370 -13 Q214 -13 133 89.5 Q52 192 52 360 Q52 525 136.5 628.5 Q221 732 376 732 Q493 732 568.5 667 Q644 602 650 479 L511 479 Q507 534 475.5 570.5 Q444 607 377 607 Q294 607 247 542.5 Q200 478 200 361 Q200 239 248.5 175.5 Q297 112 384 112 Q483 112 579 195 Z " />
<glyph glyph-name="D" unicode="D" horiz-adv-x="727" d="M314 598 L213 598 L213 121 L314 121 Q423 121 474.5 180 Q526 239 526 358 Q526 598 314 598 Z M75 720 L312 720 Q487 720 578.5 628 Q670 536 670 368 Q670 176 577 88 Q484 0 291 0 L75 0 L75 720 Z " />
<glyph glyph-name="E" unicode="E" horiz-adv-x="610" d="M75 0 L75 720 L554 720 L554 598 L213 598 L213 425 L523 425 L523 303 L213 303 L213 121 L560 121 L560 0 L75 0 Z " />
<glyph glyph-name="F" unicode="F" horiz-adv-x="573" d="M75 0 L75 720 L536 720 L536 598 L213 598 L213 414 L498 414 L498 295 L213 295 L213 0 L75 0 Z " />
<glyph glyph-name="G" unicode="G" horiz-adv-x="734" d="M410 269 L410 384 L670 384 L670 98 Q569 -13 392 -13 Q300 -13 232 16.5 Q164 46 126 98.5 Q88 151 70 216 Q52 281 52 360 Q52 530 136.5 631 Q221 732 384 732 Q525 732 592 667.5 Q659 603 666 497 L523 497 Q520 547 486.5 577 Q453 607 384 607 Q294 607 245.5 540.5 Q197 474 197 362 Q197 110 400 110 Q489 110 538 151 L538 269 L410 269 Z " />
<glyph glyph-name="H" unicode="H" horiz-adv-x="723" d="M75 0 L75 720 L213 720 L213 427 L510 427 L510 720 L648 720 L648 0 L510 0 L510 302 L213 302 L213 0 L75 0 Z " />
<glyph glyph-name="I" unicode="I" horiz-adv-x="292" d="M77 0 L77 720 L215 720 L215 0 L77 0 Z " />
<glyph glyph-name="J" unicode="J" horiz-adv-x="431" d="M359 720 L359 185 Q359 -13 182 -13 Q91 -13 27 14 L44 122 Q89 106 137 106 Q184 106 202 127.5 Q220 149 220 206 L220 720 L359 720 Z " />
<glyph glyph-name="K" unicode="K" horiz-adv-x="679" d="M75 0 L75 720 L213 720 L213 423 L314 423 L479 720 L633 720 L433 369 L660 0 L500 0 L312 309 L213 309 L213 0 L75 0 Z " />
<glyph glyph-name="L" unicode="L" horiz-adv-x="563" d="M75 720 L213 720 L213 122 L526 122 L526 0 L75 0 L75 720 Z " />
<glyph glyph-name="M" unicode="M" horiz-adv-x="885" d="M834 0 L704 0 L657 486 L499 0 L388 0 L230 487 L183 0 L51 0 L121 720 L269 720 L443 191 L621 720 L763 720 L834 0 Z " />
<glyph glyph-name="N" unicode="N" horiz-adv-x="729" d="M75 0 L75 720 L197 720 L517 233 L517 720 L654 720 L654 0 L533 0 L211 481 L211 0 L75 0 Z " />
<glyph glyph-name="O" unicode="O" horiz-adv-x="790" d="M197 364 Q197 244 249 178.5 Q301 113 395 113 Q490 113 541.5 178 Q593 243 593 364 Q593 476 540.5 541 Q488 606 396 606 Q302 606 249.5 540.5 Q197 475 197 364 Z M52 364 Q52 536 145.5 634 Q239 732 395 732 Q552 732 645 634 Q738 536 738 364 Q738 183 645.5 85 Q553 -13 395 -13 Q237 -13 144.5 85.5 Q52 184 52 364 Z " />
<glyph glyph-name="P" unicode="P" horiz-adv-x="634" d="M325 601 L213 601 L213 364 L319 364 Q385 364 419 395 Q453 426 453 483 Q453 601 325 601 Z M75 0 L75 720 L336 720 Q459 720 524.5 659.5 Q590 599 590 489 Q590 376 523.5 313.5 Q457 251 326 251 L213 251 L213 0 L75 0 Z " />
<glyph glyph-name="Q" unicode="Q" horiz-adv-x="790" d="M690 -102 L435 -11 Q409 -13 395 -13 Q237 -13 144.5 85.5 Q52 184 52 364 Q52 536 145.5 634 Q239 732 395 732 Q552 732 645 634 Q738 536 738 364 Q738 258 699.5 180 Q661 102 593 60 L593 55 L736 10 L690 -102 Z M197 364 Q197 244 249 178.5 Q301 113 395 113 Q490 113 541.5 178 Q593 243 593 364 Q593 476 540.5 541 Q488 606 396 606 Q302 606 249.5 540.5 Q197 475 197 364 Z " />
<glyph glyph-name="R" unicode="R" horiz-adv-x="667" d="M75 720 L334 720 Q463 720 530.5 660 Q598 600 598 495 Q598 357 483 297 L637 0 L487 0 L354 265 Q319 260 290 260 L213 260 L213 0 L75 0 L75 720 Z M328 601 L213 601 L213 371 L322 371 Q457 371 457 489 Q457 601 328 601 Z " />
<glyph glyph-name="S" unicode="S" horiz-adv-x="615" d="M31 107 L100 192 Q208 102 313 102 Q361 102 391.5 127.5 Q422 153 422 196 Q422 238 391 263.5 Q360 289 271 314 Q157 346 108.5 392.5 Q60 439 60 523 Q60 625 129.5 678.5 Q199 732 310 732 Q455 732 556 631 L489 549 Q409 620 313 620 Q263 620 232.5 598.5 Q202 577 202 537 Q202 494 236 472.5 Q270 451 369 418 Q476 383 521 337.5 Q566 292 566 210 Q566 106 496 46.5 Q426 -13 308 -13 Q145 -13 31 107 Z " />
<glyph glyph-name="T" unicode="T" horiz-adv-x="617" d="M240 0 L240 598 L24 598 L24 720 L593 720 L593 598 L378 598 L378 0 L240 0 Z " />
<glyph glyph-name="U" unicode="U" horiz-adv-x="715" d="M72 720 L210 720 L210 278 Q210 194 249 152 Q288 110 358 110 Q434 110 469.5 151.5 Q505 193 505 278 L505 720 L643 720 L643 272 Q643 132 569.5 60 Q496 -12 357 -12 Q220 -12 146 58 Q72 128 72 272 L72 720 Z " />
<glyph glyph-name="V" unicode="V" horiz-adv-x="650" d="M243 0 L16 720 L161 720 L325 161 L492 720 L634 720 L404 0 L243 0 Z " />
<glyph glyph-name="W" unicode="W" horiz-adv-x="943" d="M200 0 L17 720 L158 720 L286 179 L409 720 L535 720 L660 179 L784 720 L926 720 L743 0 L596 0 L472 507 L350 0 L200 0 Z " />
<glyph glyph-name="X" unicode="X" horiz-adv-x="651" d="M18 0 L241 367 L26 720 L179 720 L326 471 L476 720 L633 720 L406 357 L628 0 L470 0 L323 244 L179 0 L18 0 Z " />
<glyph glyph-name="Y" unicode="Y" horiz-adv-x="643" d="M248 0 L248 287 L12 720 L163 720 L319 424 L476 720 L631 720 L387 287 L387 0 L248 0 Z " />
<glyph glyph-name="Z" unicode="Z" horiz-adv-x="629" d="M38 0 L38 88 L385 598 L58 598 L58 720 L591 720 L591 665 L213 121 L590 121 L590 0 L38 0 Z " />
<glyph glyph-name="a" unicode="a" horiz-adv-x="558" d="M360 203 L360 217 Q335 222 297 222 Q176 222 176 144 Q176 85 248 85 Q297 85 328.5 122 Q360 159 360 203 Z M493 346 L493 0 L387 0 L373 71 Q316 -13 207 -13 Q133 -13 88.5 27 Q44 67 44 142 Q44 213 101.5 261 Q159 309 285 309 Q327 309 360 305 L360 344 Q360 434 270 434 Q226 434 192 422 Q158 410 114 384 L69 464 Q165 540 284 540 Q493 540 493 346 Z " />
<glyph glyph-name="b" unicode="b" horiz-adv-x="627" d="M202 360 L202 159 Q245 98 317 98 Q435 98 435 262 Q435 430 321 430 Q255 430 202 360 Z M174 0 L69 0 L69 720 L202 720 L202 467 Q265 540 361 540 Q459 540 517.5 469 Q576 398 576 266 Q576 133 519 60.5 Q462 -12 344 -12 Q244 -12 185 65 L174 0 Z " />
<glyph glyph-name="c" unicode="c" horiz-adv-x="558" d="M468 146 L517 62 Q426 -13 299 -13 Q185 -13 116.5 60.5 Q48 134 48 263 Q48 389 119.5 464.5 Q191 540 308 540 Q409 540 464.5 486 Q520 432 523 329 L412 329 Q407 380 380 406 Q353 432 310 432 Q253 432 220.5 390 Q188 348 188 268 Q188 190 221 144 Q254 98 318 98 Q382 98 468 146 Z " />
<glyph glyph-name="d" unicode="d" horiz-adv-x="624" d="M439 0 L432 68 Q373 -13 268 -13 Q160 -13 105.5 59.5 Q51 132 51 262 Q51 393 112.5 466.5 Q174 540 273 540 Q360 540 425 470 L425 720 L557 720 L557 0 L439 0 Z M424 158 L424 367 Q374 427 308 427 Q253 427 222 386 Q191 345 191 264 Q191 99 311 99 Q374 99 424 158 Z " />
<glyph glyph-name="e" unicode="e" horiz-adv-x="575" d="M474 142 L517 55 Q425 -13 303 -13 Q183 -13 115.5 57.5 Q48 128 48 260 Q48 388 117.5 464 Q187 540 304 540 Q415 540 473 475.5 Q531 411 531 284 Q531 237 529 219 L188 219 Q198 97 319 97 Q388 97 474 142 Z M189 315 L404 315 Q404 440 305 440 Q247 440 219 399.5 Q191 359 189 315 Z " />
<glyph glyph-name="f" unicode="f" horiz-adv-x="333" d="M95 0 L95 428 L29 428 L29 507 L95 522 L95 577 Q95 650 131.5 691 Q168 732 243 732 Q292 732 331 721 L324 634 Q300 641 278 641 Q228 641 228 582 L228 528 L319 528 L319 428 L228 428 L228 0 L95 0 Z " />
<glyph glyph-name="g" unicode="g" horiz-adv-x="629" d="M557 528 L557 29 Q557 -103 498.5 -156.5 Q440 -210 309 -210 Q205 -210 118 -177 L139 -80 Q235 -106 299 -106 Q371 -106 400 -75 Q429 -44 429 30 L429 79 Q368 3 267 3 Q163 3 107 69.5 Q51 136 51 261 Q51 389 109 464.5 Q167 540 276 540 Q369 540 438 460 L447 528 L557 528 Z M424 170 L424 365 Q407 388 375 407.5 Q343 427 307 427 Q191 427 191 269 Q191 113 309 113 Q372 113 424 170 Z " />
<glyph glyph-name="h" unicode="h" horiz-adv-x="594" d="M69 720 L202 720 L202 464 Q271 540 365 540 Q444 540 486.5 491 Q529 442 529 353 L529 0 L396 0 L396 320 Q396 372 378.5 399.5 Q361 427 312 427 Q254 427 202 368 L202 0 L69 0 L69 720 Z " />
<glyph glyph-name="i" unicode="i" horiz-adv-x="282" d="M64 663 Q64 695 86.5 713 Q109 731 144 731 Q179 731 201 713 Q223 695 223 663 Q223 632 201 614.5 Q179 597 144 597 Q110 597 87 614.5 Q64 632 64 663 Z M207 528 L207 0 L75 0 L75 528 L207 528 Z " />
<glyph glyph-name="j" unicode="j" horiz-adv-x="282" d="M207 528 L207 -50 Q207 -126 173 -165 Q139 -204 63 -204 Q16 -204 -28 -190 L-18 -97 Q8 -103 29 -103 Q54 -103 64.5 -90.5 Q75 -78 75 -43 L75 528 L207 528 Z M62 663 Q62 695 84.5 713 Q107 731 142 731 Q177 731 199 713 Q221 695 221 663 Q221 632 199 614.5 Q177 597 142 597 Q108 597 85 614.5 Q62 632 62 663 Z " />
<glyph glyph-name="k" unicode="k" horiz-adv-x="571" d="M202 720 L202 346 L267 346 L383 528 L529 528 L372 294 L553 0 L398 0 L258 236 L202 236 L202 0 L69 0 L69 720 L202 720 Z " />
<glyph glyph-name="l" unicode="l" horiz-adv-x="277" d="M205 0 L72 0 L72 720 L205 720 L205 0 Z " />
<glyph glyph-name="m" unicode="m" horiz-adv-x="859" d="M69 528 L180 528 L191 459 Q260 540 351 540 Q446 540 479 461 Q554 540 647 540 Q794 540 794 366 L794 0 L661 0 L661 340 Q661 383 646.5 404.5 Q632 426 596 426 Q549 426 498 372 L498 0 L366 0 L366 336 Q366 381 353 403.5 Q340 426 304 426 Q252 426 202 370 L202 0 L69 0 L69 528 Z " />
<glyph glyph-name="n" unicode="n" horiz-adv-x="594" d="M69 528 L180 528 L191 458 Q262 540 362 540 Q444 540 486.5 491 Q529 442 529 354 L529 0 L396 0 L396 314 Q396 373 375.5 400 Q355 427 313 427 Q252 427 202 368 L202 0 L69 0 L69 528 Z " />
<glyph glyph-name="o" unicode="o" horiz-adv-x="621" d="M188 264 Q188 179 221 139 Q254 99 310 99 Q367 99 400 139 Q433 179 433 264 Q433 348 399.5 389 Q366 430 310 430 Q254 430 221 388 Q188 346 188 264 Z M48 261 Q48 394 121.5 467 Q195 540 312 540 Q428 540 500.5 468 Q573 396 573 264 Q573 133 498.5 60 Q424 -13 305 -13 Q185 -13 116.5 58.5 Q48 130 48 261 Z " />
<glyph glyph-name="p" unicode="p" horiz-adv-x="627" d="M202 362 L202 156 Q219 135 250.5 117 Q282 99 320 99 Q435 99 435 262 Q435 429 323 429 Q256 429 202 362 Z M202 -200 L69 -200 L69 528 L179 528 L193 459 Q265 540 365 540 Q463 540 519.5 469.5 Q576 399 576 266 Q576 135 519.5 61.5 Q463 -12 355 -12 Q262 -12 202 53 L202 -200 Z " />
<glyph glyph-name="q" unicode="q" horiz-adv-x="625" d="M423 -200 L423 53 Q363 -12 273 -12 Q162 -12 106.5 60 Q51 132 51 262 Q51 393 113.5 466.5 Q176 540 278 540 Q367 540 438 464 L455 528 L557 528 L557 -200 L423 -200 Z M424 157 L424 367 Q374 427 308 427 Q253 427 222 386 Q191 345 191 264 Q191 99 311 99 Q375 99 424 157 Z " />
<glyph glyph-name="r" unicode="r" horiz-adv-x="375" d="M175 528 L187 452 Q207 491 238 515.5 Q269 540 304 540 Q328 540 356 529 L346 408 Q322 415 296 415 Q268 415 242.5 395 Q217 375 202 350 L202 0 L69 0 L69 528 L175 528 Z " />
<glyph glyph-name="s" unicode="s" horiz-adv-x="524" d="M33 79 L92 159 Q181 91 259 91 Q294 91 313.5 105.5 Q333 120 333 145 Q333 172 312.5 187 Q292 202 228 218 Q141 240 103.5 276.5 Q66 313 66 377 Q66 453 120.5 496.5 Q175 540 266 540 Q388 540 476 460 L417 383 Q339 439 272 439 Q199 439 199 392 Q199 365 222.5 352 Q246 339 314 319 Q402 294 439.5 260 Q477 226 477 162 Q477 79 420 33 Q363 -13 266 -13 Q129 -13 33 79 Z " />
<glyph glyph-name="t" unicode="t" horiz-adv-x="359" d="M324 428 L229 428 L229 132 Q229 89 263 89 Q298 89 325 98 L338 7 Q280 -13 214 -13 Q97 -13 97 105 L97 428 L28 428 L28 505 L99 527 L113 679 L229 679 L229 528 L324 528 L324 428 Z " />
<glyph glyph-name="u" unicode="u" horiz-adv-x="589" d="M520 0 L411 0 L400 69 Q328 -13 233 -13 Q65 -13 65 170 L65 528 L198 528 L198 202 Q198 150 216 124.5 Q234 99 277 99 Q338 99 387 156 L387 528 L520 528 L520 0 Z " />
<glyph glyph-name="v" unicode="v" horiz-adv-x="541" d="M18 528 L157 528 L273 129 L389 528 L523 528 L349 0 L194 0 L18 528 Z " />
<glyph glyph-name="w" unicode="w" horiz-adv-x="790" d="M634 528 L766 528 L627 0 L483 0 L393 345 L306 0 L162 0 L24 528 L156 528 L240 151 L331 528 L456 528 L557 151 L634 528 Z " />
<glyph glyph-name="x" unicode="x" horiz-adv-x="550" d="M17 0 L195 265 L22 528 L166 528 L275 351 L385 528 L526 528 L355 265 L532 0 L389 0 L275 179 L160 0 L17 0 Z " />
<glyph glyph-name="y" unicode="y" horiz-adv-x="536" d="M384 528 L517 528 L339 21 Q324 -22 317.5 -40 Q311 -58 298 -89 Q285 -120 275.5 -132 Q266 -144 250 -162 Q234 -180 217 -186 Q200 -192 176.5 -197.5 Q153 -203 123 -203 Q79 -203 34 -191 L44 -97 Q81 -104 111 -104 Q143 -104 162.5 -89.5 Q182 -75 197 -30 L202 -15 L18 528 L157 528 L266 138 L384 528 Z " />
<glyph glyph-name="z" unicode="z" horiz-adv-x="480" d="M43 0 L43 83 L272 427 L48 427 L48 528 L442 528 L442 469 L200 100 L441 100 L441 0 L43 0 Z " />
<glyph glyph-name="bracketleft" unicode="&#x5b;" horiz-adv-x="358" d="M304 -125 L77 -125 L77 720 L304 720 L304 621 L202 621 L202 -27 L304 -27 L304 -125 Z " />
<glyph glyph-name="bracketright" unicode="&#x5d;" horiz-adv-x="358" d="M281 -125 L54 -125 L54 -27 L156 -27 L156 621 L54 621 L54 720 L281 720 L281 -125 Z " />
<glyph glyph-name="parenleft" unicode="&#x28;" horiz-adv-x="370" d="M227 738 L318 691 Q248 592 217 503.5 Q186 415 186 302 Q186 195 217.5 109 Q249 23 324 -79 L246 -132 Q160 -54 109 59.5 Q58 173 58 300 Q58 545 227 738 Z " />
<glyph glyph-name="parenright" unicode="&#x29;" horiz-adv-x="370" d="M52 691 L143 738 Q312 545 312 300 Q312 173 261 59.5 Q210 -54 124 -132 L46 -79 Q121 23 152.5 109 Q184 195 184 302 Q184 415 153 503.5 Q122 592 52 691 Z " />
<glyph glyph-name="braceleft" unicode="&#x7b;" horiz-adv-x="406" d="M372 627 L335 627 Q297 627 283.5 602 Q270 577 270 518 L270 399 Q270 353 252 325 Q234 297 189 285 Q241 275 255.5 243 Q270 211 270 143 L270 53 Q270 5 283 -13.5 Q296 -32 338 -32 L372 -32 L372 -125 L326 -125 Q221 -125 182.5 -91 Q144 -57 144 33 L144 150 Q144 197 129 217.5 Q114 238 76 238 L37 238 L37 331 L71 331 Q116 331 130 355.5 Q144 380 144 447 L144 530 Q144 635 185 677.5 Q226 720 331 720 L372 720 L372 627 Z " />
<glyph glyph-name="braceright" unicode="&#x7d;" horiz-adv-x="406" d="M71 627 L34 627 L34 720 L75 720 Q180 720 221 677.5 Q262 635 262 530 L262 447 Q262 380 276 355.5 Q290 331 335 331 L369 331 L369 238 L330 238 Q292 238 277 217.5 Q262 197 262 150 L262 33 Q262 -57 223.5 -91 Q185 -125 80 -125 L34 -125 L34 -32 L68 -32 Q110 -32 123 -13.5 Q136 5 136 53 L136 143 Q136 211 150.5 243 Q165 275 217 285 Q172 297 154 325 Q136 353 136 399 L136 518 Q136 577 122.5 602 Q109 627 71 627 Z " />
<glyph glyph-name="backslash" unicode="&#x5c;" horiz-adv-x="405" d="M145 739 L385 -92 L278 -92 L36 739 L145 739 Z " />
<glyph glyph-name="slash" unicode="&#x2f;" horiz-adv-x="508" d="M141 -26 L12 44 L381 762 L511 703 L141 -26 Z " />
<glyph glyph-name="brokenbar" unicode="&#xa6;" horiz-adv-x="504" d="M308 214 L308 -200 L195 -200 L195 214 L308 214 Z M308 720 L308 305 L195 305 L195 720 L308 720 Z " />
<glyph glyph-name="bar" unicode="&#x7c;" horiz-adv-x="504" d="M308 720 L308 -200 L195 -200 L195 720 L308 720 Z " />
<glyph glyph-name="asciicircum" unicode="&#x5e;" horiz-adv-x="710" d="M394 693 L622 452 L559 399 L355 605 L150 398 L86 457 L313 693 L394 693 Z " />
<glyph glyph-name="underscore" unicode="&#x5f;" horiz-adv-x="489" d="M-1 -218 L-1 -126 L490 -126 L490 -218 L-1 -218 Z " />
<glyph glyph-name="asciitilde" unicode="&#x7e;" horiz-adv-x="784" d="M677 385 L732 289 Q633 212 526 212 Q479 212 392 242.5 Q305 273 268 273 Q206 273 110 214 L57 309 Q168 386 263 386 Q308 386 394.5 356 Q481 326 519 326 Q587 326 677 385 Z " />
<glyph glyph-name="zero" unicode="0" horiz-adv-x="616" d="M183 352 Q183 99 308 99 Q433 99 433 354 Q433 609 308 609 Q183 609 183 352 Z M310 720 Q433 720 498.5 627.5 Q564 535 564 359 Q564 174 497.5 80.5 Q431 -13 305 -13 Q181 -13 116.5 79 Q52 171 52 352 Q52 533 118.5 626.5 Q185 720 310 720 Z " />
<glyph glyph-name="one" unicode="1" horiz-adv-x="488" d="M211 100 L211 548 Q137 508 54 498 L37 586 Q92 600 148 633.5 Q204 667 241 710 L341 710 L341 100 L471 100 L471 0 L64 0 L64 100 L211 100 Z " />
<glyph glyph-name="two" unicode="2" horiz-adv-x="536" d="M38 0 L38 80 L283 376 Q318 419 333 449.5 Q348 480 348 514 Q348 556 319.5 582 Q291 608 247 608 Q182 608 79 532 L22 613 Q138 720 269 720 Q357 720 417.5 670 Q478 620 478 531 Q478 474 459.5 430.5 Q441 387 396 332 L211 106 L488 106 L488 0 L38 0 Z " />
<glyph glyph-name="three" unicode="3" horiz-adv-x="545" d="M18 84 L77 162 Q160 94 248 94 Q303 94 336.5 121.5 Q370 149 370 201 Q370 311 239 312 Q196 312 176 308 L176 413 Q245 415 291 446.5 Q337 478 337 530 Q337 572 311 592.5 Q285 613 242 613 Q171 613 95 567 L46 648 Q149 720 264 720 Q353 720 408 674 Q463 628 463 548 Q463 488 428.5 443 Q394 398 331 379 L331 376 Q411 368 452.5 321.5 Q494 275 494 200 Q494 101 426 44 Q358 -13 256 -13 Q114 -13 18 84 Z " />
<glyph glyph-name="four" unicode="4" horiz-adv-x="585" d="M156 260 L353 260 L353 592 L156 260 Z M353 0 L353 153 L32 153 L32 249 L311 710 L478 710 L478 260 L558 260 L558 153 L478 153 L478 0 L353 0 Z " />
<glyph glyph-name="five" unicode="5" horiz-adv-x="546" d="M56 260 L91 710 L460 710 L453 598 L192 598 L174 409 Q224 453 304 453 Q395 453 446 396 Q497 339 497 232 Q497 114 427.5 50.5 Q358 -13 250 -13 Q121 -13 29 63 L72 147 Q166 96 236 96 Q296 96 334 130 Q372 164 372 230 Q372 354 266 354 Q207 354 167 312 L162 260 L56 260 Z " />
<glyph glyph-name="six" unicode="6" horiz-adv-x="567" d="M49 310 Q49 508 119 614 Q189 720 319 720 Q407 720 494 668 L455 581 Q392 617 332 617 Q291 617 260 597.5 Q229 578 210.5 543 Q192 508 182 466 Q172 424 170 373 Q246 447 333 447 Q421 447 472.5 389 Q524 331 524 233 Q524 110 460.5 48.5 Q397 -13 293 -13 Q49 -13 49 310 Z M292 89 Q341 89 371 122 Q401 155 401 222 Q401 343 298 343 Q262 343 228.5 324.5 Q195 306 173 283 Q176 181 205 135 Q234 89 292 89 Z " />
<glyph glyph-name="seven" unicode="7" horiz-adv-x="480" d="M466 654 L210 0 L80 0 L80 13 L312 599 L20 599 L20 710 L466 710 L466 654 Z " />
<glyph glyph-name="eight" unicode="8" horiz-adv-x="560" d="M159 189 Q159 142 189 115.5 Q219 89 274 89 Q326 89 357.5 118.5 Q389 148 389 195 Q389 221 377.5 242.5 Q366 264 344 280.5 Q322 297 304 306.5 Q286 316 260 327 Q159 275 159 189 Z M193 539 Q193 475 292 431 Q325 449 349.5 479.5 Q374 510 374 544 Q374 625 282 625 Q240 625 216.5 601.5 Q193 578 193 539 Z M37 179 Q37 307 175 376 Q126 397 95.5 438.5 Q65 480 65 537 Q65 619 124.5 669.5 Q184 720 284 720 Q378 720 436 673 Q494 626 494 550 Q494 496 462.5 453.5 Q431 411 383 384 Q521 317 521 196 Q521 98 453 42.5 Q385 -13 271 -13 Q160 -13 98.5 37.5 Q37 88 37 179 Z " />
<glyph glyph-name="nine" unicode="9" horiz-adv-x="562" d="M511 408 Q511 203 442 95 Q373 -13 250 -13 Q138 -13 60 43 L102 129 Q171 89 237 89 Q370 89 388 323 Q318 258 228 258 Q138 258 86.5 319.5 Q35 381 35 478 Q35 592 100 656 Q165 720 266 720 Q387 720 449 638 Q511 556 511 408 Z M266 615 Q218 615 187 582.5 Q156 550 156 486 Q156 423 185 392.5 Q214 362 262 362 Q334 362 386 422 Q386 513 355 564 Q324 615 266 615 Z " />
<glyph glyph-name="dollar" unicode="&#x24;" horiz-adv-x="540" d="M216 -88 L216 3 Q156 12 103 39.5 Q50 67 16 102 L78 181 Q170 103 263 103 Q311 103 340 123.5 Q369 144 369 183 Q369 226 341 250.5 Q313 275 228 296 Q133 320 87 367 Q41 414 41 494 Q41 569 90 618 Q139 667 217 679 L217 763 L323 763 L323 678 Q427 659 491 590 L433 519 Q361 583 274 583 Q226 583 197 564 Q168 545 168 507 Q168 467 200.5 443 Q233 419 317 394 Q414 365 457.5 320 Q501 275 501 195 Q501 118 452.5 67.5 Q404 17 323 3 L323 -88 L216 -88 Z " />
<glyph glyph-name="Euro" unicode="&#x20ac;" horiz-adv-x="620" d="M2 386 L8 463 L77 463 Q102 575 177.5 647.5 Q253 720 365 720 Q509 720 596 611 L532 544 Q501 578 457 598.5 Q413 619 368 619 Q305 619 263 577 Q221 535 203 463 L492 463 L486 386 L192 386 Q191 373 191 353 Q191 343 193 317 L480 317 L473 240 L206 240 Q222 172 265.5 134.5 Q309 97 370 97 Q462 97 540 165 L598 90 Q488 -13 351 -13 Q243 -13 170.5 57.5 Q98 128 78 240 L-10 240 L-3 317 L68 317 Q66 343 66 352 Q66 373 67 386 L2 386 Z " />
<glyph glyph-name="cent" unicode="&#xa2;" horiz-adv-x="549" d="M481 235 L519 153 Q450 97 367 83 L367 -18 L258 -18 L258 81 Q163 96 107.5 166.5 Q52 237 52 352 Q52 463 108 534.5 Q164 606 259 621 L259 719 L367 719 L367 619 Q441 605 482.5 553 Q524 501 527 416 L416 416 Q407 517 314 517 Q256 517 224 476.5 Q192 436 192 356 Q192 278 227 231 Q262 184 326 184 Q399 184 481 235 Z " />
<glyph glyph-name="sterling" unicode="&#xa3;" horiz-adv-x="534" d="M280 228 Q280 166 227 105 L494 105 L494 0 L42 0 L42 95 L96 102 Q155 165 155 228 Q155 264 133 316 L43 316 L43 402 L101 402 Q63 476 63 532 Q63 614 126 667 Q189 720 284 720 Q417 720 497 631 L443 557 Q374 616 302 616 Q254 616 225.5 590.5 Q197 565 197 522 Q197 479 234 402 L389 402 L389 316 L260 316 Q280 265 280 228 Z " />
<glyph glyph-name="yen" unicode="&#xa5;" horiz-adv-x="596" d="M575 710 L391 381 L538 381 L538 296 L357 296 L357 230 L538 230 L538 145 L357 145 L357 0 L234 0 L234 145 L54 145 L54 230 L234 230 L234 296 L54 296 L54 381 L200 381 L21 710 L160 710 L298 434 L441 710 L575 710 Z " />
<glyph glyph-name="florin" unicode="&#x192;" horiz-adv-x="459" d="M-31 -105 L8 -105 Q36 -105 50.5 -91 Q65 -77 74 -36 L150 322 L70 322 L70 411 L169 411 L193 535 Q212 628 244.5 669 Q277 710 360 710 L439 710 L439 612 L383 612 Q350 612 337 593 Q324 574 314 524 L292 411 L383 411 L383 322 L275 322 L209 12 Q198 -40 191 -67.5 Q184 -95 170.5 -125.5 Q157 -156 140.5 -169 Q124 -182 97.5 -191 Q71 -200 33 -200 L-31 -200 L-31 -105 Z " />
<glyph glyph-name="section" unicode="&#xa7;" horiz-adv-x="528" d="M65 72 L114 140 Q193 82 270 82 Q340 82 340 129 Q340 152 312.5 168 Q285 184 246 195.5 Q207 207 168 222 Q129 237 101.5 267 Q74 297 74 341 Q74 386 101.5 418.5 Q129 451 178 465 Q82 501 82 583 Q82 650 131.5 691 Q181 732 264 732 Q395 732 468 662 L419 596 Q349 644 282 644 Q249 644 226 630.5 Q203 617 203 591 Q203 565 222.5 550 Q242 535 295 517 Q395 482 431 451.5 Q467 421 467 369 Q467 284 368 254 Q464 211 464 133 Q464 66 412 26.5 Q360 -13 279 -13 Q219 -13 161 9.5 Q103 32 65 72 Z M250 427 Q189 409 189 367 Q189 320 292 291 Q351 317 351 355 Q351 401 250 427 Z " />
<glyph glyph-name="copyright" unicode="&#xa9;" horiz-adv-x="814" d="M525 273 L559 226 Q496 164 410 164 Q325 164 281.5 217 Q238 270 238 361 Q238 450 283.5 505 Q329 560 412 560 Q476 560 516 525.5 Q556 491 557 422 L488 422 Q485 459 467.5 478 Q450 497 410 497 Q363 497 337 460.5 Q311 424 311 361 Q311 228 413 228 Q469 228 525 273 Z M407 663 Q278 663 193.5 577.5 Q109 492 109 360 Q109 217 193.5 137 Q278 57 407 57 Q528 57 618 145 Q708 233 708 360 Q708 495 624 579 Q540 663 407 663 Z M407 720 Q569 720 668 621.5 Q767 523 767 364 Q767 208 661 104 Q555 0 407 0 Q254 0 150.5 95 Q47 190 47 360 Q47 516 151 618 Q255 720 407 720 Z " />
<glyph glyph-name="registered" unicode="&#xae;" horiz-adv-x="426" d="M147 637 L216 637 Q249 637 266 621 Q283 605 283 579 Q283 545 253 530 L294 459 L253 459 L219 521 Q214 520 202 520 L182 520 L182 459 L147 459 L147 637 Z M209 607 L182 607 L182 550 L207 550 Q245 550 245 577 Q245 607 209 607 Z M213 691 Q152 691 111 650.5 Q70 610 70 547 Q70 478 109 440 Q148 402 213 402 Q271 402 312.5 444 Q354 486 354 546 Q354 612 315 651.5 Q276 691 213 691 Z M214 728 Q294 728 345 678 Q396 628 396 546 Q396 469 342 416.5 Q288 364 213 364 Q131 364 80.5 412 Q30 460 30 546 Q30 626 83 677 Q136 728 214 728 Z " />
<glyph glyph-name="trademark" unicode="&#x2122;" horiz-adv-x="640" d="M600 455 L544 455 L527 630 L465 455 L421 455 L361 630 L343 455 L286 455 L315 720 L382 720 L445 539 L507 720 L570 720 L600 455 Z M116 455 L116 665 L31 665 L31 720 L260 720 L260 665 L175 665 L175 455 L116 455 Z " />
<glyph glyph-name="ordfeminine" unicode="&#xaa;" horiz-adv-x="487" d="M311 408 L311 429 Q283 433 258 433 Q155 433 155 373 Q155 350 172.5 336.5 Q190 323 219 323 Q257 323 284 348.5 Q311 374 311 408 Z M407 517 L407 264 L325 264 L317 324 Q300 293 265.5 273.5 Q231 254 192 254 Q134 254 97.5 283.5 Q61 313 61 367 Q61 421 103.5 455 Q146 489 240 489 Q271 489 311 484 L311 516 Q311 585 231 585 Q166 585 107 549 L81 611 Q155 659 238 659 Q407 659 407 517 Z " />
<glyph glyph-name="ordmasculine" unicode="&#xba;" horiz-adv-x="501" d="M156 455 Q156 331 251 331 Q294 331 320 361.5 Q346 392 346 455 Q346 519 320 550.5 Q294 582 251 582 Q207 582 181.5 551 Q156 520 156 455 Z M55 457 Q55 553 110 606 Q165 659 251 659 Q336 659 391 606 Q446 553 446 457 Q446 362 390.5 308.5 Q335 255 251 255 Q161 255 108 307.5 Q55 360 55 457 Z " />
<glyph glyph-name="guillemotleft" unicode="&#xab;" horiz-adv-x="487" d="M459 374 L362 260 L459 148 L404 98 L245 240 L245 281 L404 426 L459 374 Z M249 374 L152 260 L249 148 L194 98 L35 240 L35 281 L194 426 L249 374 Z " />
<glyph glyph-name="guillemotright" unicode="&#xbb;" horiz-adv-x="489" d="M125 260 L28 374 L83 426 L242 281 L242 240 L83 98 L28 148 L125 260 Z M337 260 L240 374 L295 426 L454 281 L454 240 L295 98 L240 148 L337 260 Z " />
<glyph glyph-name="guilsinglleft" unicode="&#x2039;" horiz-adv-x="277" d="M249 374 L152 260 L249 148 L194 98 L35 240 L35 281 L194 426 L249 374 Z " />
<glyph glyph-name="guilsinglright" unicode="&#x203a;" horiz-adv-x="277" d="M125 260 L28 374 L83 426 L242 281 L242 240 L83 98 L28 148 L125 260 Z " />
<glyph glyph-name="quoteleft" unicode="&#x2018;" horiz-adv-x="210" d="M178 574 Q178 547 158.5 529.5 Q139 512 109 512 Q71 512 52 535.5 Q33 559 33 596 Q33 711 155 750 L174 705 Q110 678 108 624 Q116 628 127 628 Q150 628 164 612.5 Q178 597 178 574 Z " />
<glyph glyph-name="quoteright" unicode="&#x2019;" horiz-adv-x="210" d="M32 661 Q32 688 51.5 705.5 Q71 723 101 723 Q139 723 158 699.5 Q177 676 177 639 Q177 524 55 485 L36 530 Q100 557 102 611 Q94 607 83 607 Q60 607 46 622.5 Q32 638 32 661 Z " />
<glyph glyph-name="quotesinglbase" unicode="&#x201a;" horiz-adv-x="210" d="M36 42 Q36 69 55.5 86.5 Q75 104 105 104 Q143 104 162 80.5 Q181 57 181 20 Q181 -95 59 -134 L40 -89 Q104 -62 106 -8 Q98 -12 87 -12 Q64 -12 50 3.5 Q36 19 36 42 Z " />
<glyph glyph-name="quotedblleft" unicode="&#x201c;" horiz-adv-x="386" d="M178 574 Q178 547 158.5 529.5 Q139 512 109 512 Q71 512 52 535.5 Q33 559 33 596 Q33 711 155 750 L174 705 Q110 678 108 624 Q116 628 127 628 Q150 628 164 612.5 Q178 597 178 574 Z M354 574 Q354 547 334.5 529.5 Q315 512 285 512 Q247 512 228 535.5 Q209 559 209 596 Q209 711 331 750 L350 705 Q286 678 284 624 Q292 628 303 628 Q326 628 340 612.5 Q354 597 354 574 Z " />
<glyph glyph-name="quotedblright" unicode="&#x201d;" horiz-adv-x="386" d="M32 661 Q32 688 51.5 705.5 Q71 723 101 723 Q139 723 158 699.5 Q177 676 177 639 Q177 524 55 485 L36 530 Q100 557 102 611 Q94 607 83 607 Q60 607 46 622.5 Q32 638 32 661 Z M208 661 Q208 688 227.5 705.5 Q247 723 277 723 Q315 723 334 699.5 Q353 676 353 639 Q353 524 231 485 L212 530 Q276 557 278 611 Q270 607 259 607 Q236 607 222 622.5 Q208 638 208 661 Z " />
<glyph glyph-name="quotedblbase" unicode="&#x201e;" horiz-adv-x="385" d="M36 42 Q36 69 55.5 86.5 Q75 104 105 104 Q143 104 162 80.5 Q181 57 181 20 Q181 -95 59 -134 L40 -89 Q104 -62 106 -8 Q98 -12 87 -12 Q64 -12 50 3.5 Q36 19 36 42 Z M211 42 Q211 69 230.5 86.5 Q250 104 280 104 Q318 104 337 80.5 Q356 57 356 20 Q356 -95 234 -134 L215 -89 Q279 -62 281 -8 Q273 -12 262 -12 Q239 -12 225 3.5 Q211 19 211 42 Z " />
<glyph glyph-name="dagger" unicode="&#x2020;" horiz-adv-x="506" d="M312 -105 L193 -105 L193 413 L40 413 L40 519 L193 519 L193 720 L312 720 L312 519 L466 519 L466 413 L312 413 L312 -105 Z " />
<glyph glyph-name="daggerdbl" unicode="&#x2021;" horiz-adv-x="506" d="M313 -105 L193 -105 L193 92 L40 92 L40 199 L193 199 L193 413 L40 413 L40 519 L193 519 L193 720 L313 720 L313 519 L465 519 L465 413 L313 413 L313 199 L465 199 L465 92 L313 92 L313 -105 Z " />
<glyph glyph-name="bullet" unicode="&#x2022;" horiz-adv-x="504" d="M122 312 Q122 368 160.5 406 Q199 444 254 444 Q307 444 346.5 405.5 Q386 367 386 312 Q386 257 347 218 Q308 179 253 179 Q197 179 159.5 218 Q122 257 122 312 Z " />
<glyph glyph-name="ellipsis" unicode="&#x2026;" horiz-adv-x="874" d="M79 57 Q79 91 99 111 Q119 131 155 131 Q190 131 211 111.5 Q232 92 232 60 Q232 27 211 7 Q190 -13 155 -13 Q119 -13 99 6.5 Q79 26 79 57 Z M642 57 Q642 91 662 111 Q682 131 718 131 Q753 131 774 111.5 Q795 92 795 60 Q795 27 774 7 Q753 -13 718 -13 Q682 -13 662 6.5 Q642 26 642 57 Z M359 57 Q359 91 379 111 Q399 131 435 131 Q470 131 491 111.5 Q512 92 512 60 Q512 27 491 7 Q470 -13 435 -13 Q399 -13 379 6.5 Q359 26 359 57 Z " />
<glyph glyph-name="paragraph" unicode="&#xb6;" horiz-adv-x="559" d="M484 720 L484 0 L395 0 L395 650 L316 650 L316 0 L227 0 L227 351 Q140 359 90.5 406.5 Q41 454 41 533 Q41 616 99.5 668 Q158 720 254 720 L484 720 Z " />
<glyph glyph-name="periodcentered" unicode="&#xb7;" horiz-adv-x="303" d="M80 334 Q80 368 100 388 Q120 408 156 408 Q191 408 212 388.5 Q233 369 233 337 Q233 304 212 284 Q191 264 156 264 Q120 264 100 283.5 Q80 303 80 334 Z " />
<glyph glyph-name="uni00AD" unicode="&#xad;" horiz-adv-x="332" d="M32 225 L32 330 L300 330 L300 225 L32 225 Z " />
<glyph glyph-name="endash" unicode="&#x2013;" horiz-adv-x="504" d="M2 226 L2 311 L502 311 L502 226 L2 226 Z " />
<glyph glyph-name="emdash" unicode="&#x2014;" horiz-adv-x="1004" d="M2 225 L2 311 L1002 311 L1002 225 L2 225 Z " />
<glyph glyph-name="Agrave" unicode="&#xc0;" horiz-adv-x="694" d="M277 720 L416 720 L675 0 L527 0 L474 163 L220 163 L167 0 L18 0 L277 720 Z M257 279 L436 279 L346 562 L257 279 Z M285 934 L463 827 L418 750 L231 837 L285 934 Z " />
<glyph glyph-name="Aacute" unicode="&#xc1;" horiz-adv-x="694" d="M277 720 L416 720 L675 0 L527 0 L474 163 L220 163 L167 0 L18 0 L277 720 Z M257 279 L436 279 L346 562 L257 279 Z M223 827 L401 934 L455 837 L268 750 L223 827 Z " />
<glyph glyph-name="Acircumflex" unicode="&#xc2;" horiz-adv-x="694" d="M277 720 L416 720 L675 0 L527 0 L474 163 L220 163 L167 0 L18 0 L277 720 Z M257 279 L436 279 L346 562 L257 279 Z M304 923 L383 923 L492 810 L434 761 L346 827 L259 761 L199 811 L304 923 Z " />
<glyph glyph-name="Atilde" unicode="&#xc3;" horiz-adv-x="694" d="M277 720 L416 720 L675 0 L527 0 L474 163 L220 163 L167 0 L18 0 L277 720 Z M257 279 L436 279 L346 562 L257 279 Z M444 900 L506 877 Q485 777 412 777 Q387 777 342 793.5 Q297 810 286 810 Q273 810 264 802 Q255 794 245 773 L182 797 Q214 897 275 897 Q301 897 344.5 880 Q388 863 404 863 Q418 863 426 870 Q434 877 444 900 Z " />
<glyph glyph-name="Adieresis" unicode="&#xc4;" horiz-adv-x="694" d="M277 720 L416 720 L675 0 L527 0 L474 163 L220 163 L167 0 L18 0 L277 720 Z M257 279 L436 279 L346 562 L257 279 Z M173 833 Q173 860 191.5 877.5 Q210 895 242 895 Q276 895 294 877.5 Q312 860 312 833 Q312 806 292.5 789 Q273 772 242 772 Q209 772 191 788.5 Q173 805 173 833 Z M377 833 Q377 860 395.5 877.5 Q414 895 446 895 Q480 895 498 877.5 Q516 860 516 833 Q516 806 496.5 789 Q477 772 446 772 Q413 772 395 788.5 Q377 805 377 833 Z " />
<glyph glyph-name="Aring" unicode="&#xc5;" horiz-adv-x="694" d="M237 797 Q237 844 268.5 873 Q300 902 348 902 Q394 902 425 874.5 Q456 847 456 801 Q456 749 416 719 L675 0 L527 0 L474 163 L220 163 L167 0 L18 0 L276 717 Q237 744 237 797 Z M257 279 L436 279 L346 562 L257 279 Z M302 799 Q302 757 348 757 Q391 757 391 801 Q391 844 348 844 Q302 844 302 799 Z " />
<glyph glyph-name="AE" unicode="&#xc6;" horiz-adv-x="1017" d="M482 0 L482 183 L267 183 L174 0 L18 0 L384 720 L961 720 L961 598 L620 598 L620 425 L930 425 L930 303 L620 303 L620 121 L967 121 L967 0 L482 0 Z M310 296 L482 296 L482 603 L465 603 L310 296 Z " />
<glyph glyph-name="Ccedilla" unicode="&#xc7;" horiz-adv-x="684" d="M281 -210 L296 -153 Q324 -163 353 -163 Q394 -163 394 -133 Q394 -102 335 -102 L317 -102 L337 -12 Q197 -1 124.5 100 Q52 201 52 360 Q52 525 136.5 628.5 Q221 732 376 732 Q493 732 568.5 667 Q644 602 650 479 L511 479 Q507 534 475.5 570.5 Q444 607 377 607 Q294 607 247 542.5 Q200 478 200 361 Q200 239 248.5 175.5 Q297 112 384 112 Q490 112 585 195 L648 102 Q538 -2 401 -12 L392 -57 Q410 -59 422.5 -62.5 Q435 -66 449.5 -74 Q464 -82 471.5 -97 Q479 -112 479 -134 Q479 -179 448.5 -202.5 Q418 -226 368 -226 Q316 -226 281 -210 Z " />
<glyph glyph-name="Egrave" unicode="&#xc8;" horiz-adv-x="610" d="M75 0 L75 720 L554 720 L554 598 L213 598 L213 425 L523 425 L523 303 L213 303 L213 121 L560 121 L560 0 L75 0 Z M236 935 L414 828 L369 751 L182 838 L236 935 Z " />
<glyph glyph-name="Eacute" unicode="&#xc9;" horiz-adv-x="610" d="M75 0 L75 720 L554 720 L554 598 L213 598 L213 425 L523 425 L523 303 L213 303 L213 121 L560 121 L560 0 L75 0 Z M199 828 L377 935 L431 838 L244 751 L199 828 Z " />
<glyph glyph-name="Ecircumflex" unicode="&#xca;" horiz-adv-x="610" d="M75 0 L75 720 L554 720 L554 598 L213 598 L213 425 L523 425 L523 303 L213 303 L213 121 L560 121 L560 0 L75 0 Z M276 924 L355 924 L464 811 L406 762 L318 828 L231 762 L171 812 L276 924 Z " />
<glyph glyph-name="Edieresis" unicode="&#xcb;" horiz-adv-x="610" d="M75 0 L75 720 L554 720 L554 598 L213 598 L213 425 L523 425 L523 303 L213 303 L213 121 L560 121 L560 0 L75 0 Z M144 834 Q144 861 162.5 878.5 Q181 896 213 896 Q247 896 265 878.5 Q283 861 283 834 Q283 807 263.5 790 Q244 773 213 773 Q180 773 162 789.5 Q144 806 144 834 Z M348 834 Q348 861 366.5 878.5 Q385 896 417 896 Q451 896 469 878.5 Q487 861 487 834 Q487 807 467.5 790 Q448 773 417 773 Q384 773 366 789.5 Q348 806 348 834 Z " />
<glyph glyph-name="Igrave" unicode="&#xcc;" horiz-adv-x="292" d="M77 0 L77 720 L215 720 L215 0 L77 0 Z M80 934 L258 827 L213 750 L26 837 L80 934 Z " />
<glyph glyph-name="Iacute" unicode="&#xcd;" horiz-adv-x="292" d="M77 0 L77 720 L215 720 L215 0 L77 0 Z M18 827 L196 934 L250 837 L63 750 L18 827 Z " />
<glyph glyph-name="Icircumflex" unicode="&#xce;" horiz-adv-x="292" d="M77 0 L77 720 L215 720 L215 0 L77 0 Z M101 923 L180 923 L289 810 L231 761 L143 827 L56 761 L-4 811 L101 923 Z " />
<glyph glyph-name="Idieresis" unicode="&#xcf;" horiz-adv-x="292" d="M77 0 L77 720 L215 720 L215 0 L77 0 Z M-29 833 Q-29 860 -10.5 877.5 Q8 895 40 895 Q74 895 92 877.5 Q110 860 110 833 Q110 806 90.5 789 Q71 772 40 772 Q7 772 -11 788.5 Q-29 805 -29 833 Z M175 833 Q175 860 193.5 877.5 Q212 895 244 895 Q278 895 296 877.5 Q314 860 314 833 Q314 806 294.5 789 Q275 772 244 772 Q211 772 193 788.5 Q175 805 175 833 Z " />
<glyph glyph-name="Eth" unicode="&#xd0;" horiz-adv-x="735" d="M7 306 L7 417 L81 417 L81 720 L316 720 Q493 720 585 626 Q677 532 677 358 Q677 173 583 86.5 Q489 0 296 0 L81 0 L81 306 L7 306 Z M321 594 L220 594 L220 417 L382 417 L382 306 L220 306 L220 126 L321 126 Q430 126 480.5 182.5 Q531 239 531 358 Q531 476 480 535 Q429 594 321 594 Z " />
<glyph glyph-name="Ntilde" unicode="&#xd1;" horiz-adv-x="729" d="M75 0 L75 720 L197 720 L517 233 L517 720 L654 720 L654 0 L533 0 L211 481 L211 0 L75 0 Z M470 900 L532 877 Q511 777 438 777 Q413 777 368 793.5 Q323 810 312 810 Q299 810 290 802 Q281 794 271 773 L208 797 Q240 897 301 897 Q327 897 370.5 880 Q414 863 430 863 Q444 863 452 870 Q460 877 470 900 Z " />
<glyph glyph-name="Ograve" unicode="&#xd2;" horiz-adv-x="790" d="M197 364 Q197 244 249 178.5 Q301 113 395 113 Q490 113 541.5 178 Q593 243 593 364 Q593 476 540.5 541 Q488 606 396 606 Q302 606 249.5 540.5 Q197 475 197 364 Z M52 364 Q52 536 145.5 634 Q239 732 395 732 Q552 732 645 634 Q738 536 738 364 Q738 183 645.5 85 Q553 -13 395 -13 Q237 -13 144.5 85.5 Q52 184 52 364 Z M330 934 L508 827 L463 750 L276 837 L330 934 Z " />
<glyph glyph-name="Oacute" unicode="&#xd3;" horiz-adv-x="790" d="M197 364 Q197 244 249 178.5 Q301 113 395 113 Q490 113 541.5 178 Q593 243 593 364 Q593 476 540.5 541 Q488 606 396 606 Q302 606 249.5 540.5 Q197 475 197 364 Z M52 364 Q52 536 145.5 634 Q239 732 395 732 Q552 732 645 634 Q738 536 738 364 Q738 183 645.5 85 Q553 -13 395 -13 Q237 -13 144.5 85.5 Q52 184 52 364 Z M268 827 L446 934 L500 837 L313 750 L268 827 Z " />
<glyph glyph-name="Ocircumflex" unicode="&#xd4;" horiz-adv-x="790" d="M197 364 Q197 244 249 178.5 Q301 113 395 113 Q490 113 541.5 178 Q593 243 593 364 Q593 476 540.5 541 Q488 606 396 606 Q302 606 249.5 540.5 Q197 475 197 364 Z M52 364 Q52 536 145.5 634 Q239 732 395 732 Q552 732 645 634 Q738 536 738 364 Q738 183 645.5 85 Q553 -13 395 -13 Q237 -13 144.5 85.5 Q52 184 52 364 Z M352 923 L431 923 L540 810 L482 761 L394 827 L307 761 L247 811 L352 923 Z " />
<glyph glyph-name="Otilde" unicode="&#xd5;" horiz-adv-x="790" d="M197 364 Q197 244 249 178.5 Q301 113 395 113 Q490 113 541.5 178 Q593 243 593 364 Q593 476 540.5 541 Q488 606 396 606 Q302 606 249.5 540.5 Q197 475 197 364 Z M52 364 Q52 536 145.5 634 Q239 732 395 732 Q552 732 645 634 Q738 536 738 364 Q738 183 645.5 85 Q553 -13 395 -13 Q237 -13 144.5 85.5 Q52 184 52 364 Z M499 900 L561 877 Q540 777 467 777 Q442 777 397 793.5 Q352 810 341 810 Q328 810 319 802 Q310 794 300 773 L237 797 Q269 897 330 897 Q356 897 399.5 880 Q443 863 459 863 Q473 863 481 870 Q489 877 499 900 Z " />
<glyph glyph-name="Odieresis" unicode="&#xd6;" horiz-adv-x="790" d="M197 364 Q197 244 249 178.5 Q301 113 395 113 Q490 113 541.5 178 Q593 243 593 364 Q593 476 540.5 541 Q488 606 396 606 Q302 606 249.5 540.5 Q197 475 197 364 Z M52 364 Q52 536 145.5 634 Q239 732 395 732 Q552 732 645 634 Q738 536 738 364 Q738 183 645.5 85 Q553 -13 395 -13 Q237 -13 144.5 85.5 Q52 184 52 364 Z M221 833 Q221 860 239.5 877.5 Q258 895 290 895 Q324 895 342 877.5 Q360 860 360 833 Q360 806 340.5 789 Q321 772 290 772 Q257 772 239 788.5 Q221 805 221 833 Z M425 833 Q425 860 443.5 877.5 Q462 895 494 895 Q528 895 546 877.5 Q564 860 564 833 Q564 806 544.5 789 Q525 772 494 772 Q461 772 443 788.5 Q425 805 425 833 Z " />
<glyph glyph-name="Oslash" unicode="&#xd8;" horiz-adv-x="778" d="M52 364 Q52 536 145.5 634 Q239 732 395 732 Q418 732 441 729 L459 787 L577 787 L551 701 Q640 661 689 574 Q738 487 738 364 Q738 183 645.5 85 Q553 -13 395 -13 Q374 -13 334 -9 L313 -80 L196 -80 L227 23 Q144 65 98 152 Q52 239 52 364 Z M593 364 Q593 507 511 570 L372 114 Q379 113 395 113 Q490 113 541.5 178 Q593 243 593 364 Z M197 364 Q197 221 268 158 L404 606 L396 606 Q302 606 249.5 540.5 Q197 475 197 364 Z " />
<glyph glyph-name="Ugrave" unicode="&#xd9;" horiz-adv-x="715" d="M72 720 L210 720 L210 278 Q210 194 249 152 Q288 110 358 110 Q434 110 469.5 151.5 Q505 193 505 278 L505 720 L643 720 L643 272 Q643 132 569.5 60 Q496 -12 357 -12 Q220 -12 146 58 Q72 128 72 272 L72 720 Z M291 934 L469 827 L424 750 L237 837 L291 934 Z " />
<glyph glyph-name="Uacute" unicode="&#xda;" horiz-adv-x="715" d="M72 720 L210 720 L210 278 Q210 194 249 152 Q288 110 358 110 Q434 110 469.5 151.5 Q505 193 505 278 L505 720 L643 720 L643 272 Q643 132 569.5 60 Q496 -12 357 -12 Q220 -12 146 58 Q72 128 72 272 L72 720 Z M255 827 L433 934 L487 837 L300 750 L255 827 Z " />
<glyph glyph-name="Ucircumflex" unicode="&#xdb;" horiz-adv-x="715" d="M72 720 L210 720 L210 278 Q210 194 249 152 Q288 110 358 110 Q434 110 469.5 151.5 Q505 193 505 278 L505 720 L643 720 L643 272 Q643 132 569.5 60 Q496 -12 357 -12 Q220 -12 146 58 Q72 128 72 272 L72 720 Z M324 923 L403 923 L512 810 L454 761 L366 827 L279 761 L219 811 L324 923 Z " />
<glyph glyph-name="Udieresis" unicode="&#xdc;" horiz-adv-x="715" d="M72 720 L210 720 L210 278 Q210 194 249 152 Q288 110 358 110 Q434 110 469.5 151.5 Q505 193 505 278 L505 720 L643 720 L643 272 Q643 132 569.5 60 Q496 -12 357 -12 Q220 -12 146 58 Q72 128 72 272 L72 720 Z M195 833 Q195 860 213.5 877.5 Q232 895 264 895 Q298 895 316 877.5 Q334 860 334 833 Q334 806 314.5 789 Q295 772 264 772 Q231 772 213 788.5 Q195 805 195 833 Z M399 833 Q399 860 417.5 877.5 Q436 895 468 895 Q502 895 520 877.5 Q538 860 538 833 Q538 806 518.5 789 Q499 772 468 772 Q435 772 417 788.5 Q399 805 399 833 Z " />
<glyph glyph-name="Yacute" unicode="&#xdd;" horiz-adv-x="643" d="M248 0 L248 287 L12 720 L163 720 L319 424 L476 720 L631 720 L387 287 L387 0 L248 0 Z M227 827 L405 934 L459 837 L272 750 L227 827 Z " />
<glyph glyph-name="Thorn" unicode="&#xde;" horiz-adv-x="622" d="M62 0 L62 720 L201 720 L201 616 L323 616 Q441 616 508.5 560.5 Q576 505 576 389 Q576 268 506 207.5 Q436 147 313 147 L201 147 L201 0 L62 0 Z M312 496 L201 496 L201 260 L306 260 Q441 260 441 379 Q441 496 312 496 Z " />
<glyph glyph-name="germandbls" unicode="&#xdf;" horiz-adv-x="626" d="M95 0 L95 430 L26 430 L26 508 L95 521 L95 540 Q95 642 161 687.5 Q227 733 326 733 Q428 733 483 686.5 Q538 640 538 548 Q538 483 503 437.5 Q468 392 408 378 Q584 347 584 186 Q584 93 528.5 40.5 Q473 -12 386 -12 Q308 -12 257 28 L284 116 Q316 96 362 96 Q402 96 427.5 122 Q453 148 453 198 Q453 257 412 286.5 Q371 316 292 323 L292 423 Q411 433 411 537 Q411 636 318 636 Q271 636 249 609 Q227 582 227 525 L227 0 L95 0 Z " />
<glyph glyph-name="agrave" unicode="&#xe0;" horiz-adv-x="558" d="M360 203 L360 217 Q335 222 297 222 Q176 222 176 144 Q176 85 248 85 Q297 85 328.5 122 Q360 159 360 203 Z M493 346 L493 0 L387 0 L373 71 Q316 -13 207 -13 Q133 -13 88.5 27 Q44 67 44 142 Q44 213 101.5 261 Q159 309 285 309 Q327 309 360 305 L360 344 Q360 434 270 434 Q226 434 192 422 Q158 410 114 384 L69 464 Q165 540 284 540 Q493 540 493 346 Z M217 788 L373 645 L314 579 L148 705 L217 788 Z " />
<glyph glyph-name="aacute" unicode="&#xe1;" horiz-adv-x="558" d="M360 203 L360 217 Q335 222 297 222 Q176 222 176 144 Q176 85 248 85 Q297 85 328.5 122 Q360 159 360 203 Z M493 346 L493 0 L387 0 L373 71 Q316 -13 207 -13 Q133 -13 88.5 27 Q44 67 44 142 Q44 213 101.5 261 Q159 309 285 309 Q327 309 360 305 L360 344 Q360 434 270 434 Q226 434 192 422 Q158 410 114 384 L69 464 Q165 540 284 540 Q493 540 493 346 Z M170 645 L326 788 L395 705 L229 579 L170 645 Z " />
<glyph glyph-name="acircumflex" unicode="&#xe2;" horiz-adv-x="558" d="M360 203 L360 217 Q335 222 297 222 Q176 222 176 144 Q176 85 248 85 Q297 85 328.5 122 Q360 159 360 203 Z M493 346 L493 0 L387 0 L373 71 Q316 -13 207 -13 Q133 -13 88.5 27 Q44 67 44 142 Q44 213 101.5 261 Q159 309 285 309 Q327 309 360 305 L360 344 Q360 434 270 434 Q226 434 192 422 Q158 410 114 384 L69 464 Q165 540 284 540 Q493 540 493 346 Z M234 761 L313 761 L424 617 L366 576 L275 665 L184 576 L123 616 L234 761 Z " />
<glyph glyph-name="atilde" unicode="&#xe3;" horiz-adv-x="558" d="M360 203 L360 217 Q335 222 297 222 Q176 222 176 144 Q176 85 248 85 Q297 85 328.5 122 Q360 159 360 203 Z M493 346 L493 0 L387 0 L373 71 Q316 -13 207 -13 Q133 -13 88.5 27 Q44 67 44 142 Q44 213 101.5 261 Q159 309 285 309 Q327 309 360 305 L360 344 Q360 434 270 434 Q226 434 192 422 Q158 410 114 384 L69 464 Q165 540 284 540 Q493 540 493 346 Z M371 717 L433 694 Q412 594 339 594 Q314 594 269 610.5 Q224 627 213 627 Q200 627 191 619 Q182 611 172 590 L109 614 Q141 714 202 714 Q228 714 271.5 697 Q315 680 331 680 Q345 680 353 687 Q361 694 371 717 Z " />
<glyph glyph-name="adieresis" unicode="&#xe4;" horiz-adv-x="558" d="M360 203 L360 217 Q335 222 297 222 Q176 222 176 144 Q176 85 248 85 Q297 85 328.5 122 Q360 159 360 203 Z M493 346 L493 0 L387 0 L373 71 Q316 -13 207 -13 Q133 -13 88.5 27 Q44 67 44 142 Q44 213 101.5 261 Q159 309 285 309 Q327 309 360 305 L360 344 Q360 434 270 434 Q226 434 192 422 Q158 410 114 384 L69 464 Q165 540 284 540 Q493 540 493 346 Z M103 656 Q103 683 121.5 700.5 Q140 718 172 718 Q206 718 224 700.5 Q242 683 242 656 Q242 629 222.5 612 Q203 595 172 595 Q139 595 121 611.5 Q103 628 103 656 Z M307 656 Q307 683 325.5 700.5 Q344 718 376 718 Q410 718 428 700.5 Q446 683 446 656 Q446 629 426.5 612 Q407 595 376 595 Q343 595 325 611.5 Q307 628 307 656 Z " />
<glyph glyph-name="aring" unicode="&#xe5;" horiz-adv-x="558" d="M360 203 L360 217 Q335 222 297 222 Q176 222 176 144 Q176 85 248 85 Q297 85 328.5 122 Q360 159 360 203 Z M493 346 L493 0 L387 0 L373 71 Q316 -13 207 -13 Q133 -13 88.5 27 Q44 67 44 142 Q44 213 101.5 261 Q159 309 285 309 Q327 309 360 305 L360 344 Q360 434 270 434 Q226 434 192 422 Q158 410 114 384 L69 464 Q165 540 284 540 Q493 540 493 346 Z M228 668 Q228 629 270 629 Q310 629 310 670 Q310 709 270 709 Q228 709 228 668 Z M168 666 Q168 710 197 736.5 Q226 763 270 763 Q313 763 341.5 737.5 Q370 712 370 670 Q370 627 341.5 601 Q313 575 270 575 Q224 575 196 599 Q168 623 168 666 Z " />
<glyph glyph-name="ae" unicode="&#xe6;" horiz-adv-x="887" d="M786 142 L829 55 Q737 -13 615 -13 Q487 -13 421 64 Q349 -13 232 -13 Q144 -13 94 27 Q44 67 44 145 Q44 217 98 264 Q152 311 270 311 Q315 311 360 304 L360 344 Q360 438 264 438 Q182 438 105 391 L69 474 Q112 504 169 522 Q226 540 280 540 Q339 540 377.5 522.5 Q416 505 442 461 Q502 540 626 540 Q730 540 786.5 476 Q843 412 843 286 Q843 240 841 222 L500 222 Q510 97 631 97 Q700 97 786 142 Z M501 309 L716 309 Q716 440 617 440 Q558 440 529.5 397.5 Q501 355 501 309 Z M252 86 Q291 86 324.5 103 Q358 120 377 143 Q364 174 362 217 Q338 223 306 223 Q177 223 177 150 Q177 86 252 86 Z " />
<glyph glyph-name="ccedilla" unicode="&#xe7;" horiz-adv-x="558" d="M203 -205 L218 -148 Q246 -158 275 -158 Q316 -158 316 -128 Q316 -97 257 -97 L239 -97 L258 -10 Q161 2 104.5 74 Q48 146 48 263 Q48 389 119.5 464.5 Q191 540 308 540 Q409 540 464.5 486 Q520 432 523 329 L412 329 Q407 380 380 406 Q353 432 310 432 Q253 432 220.5 390 Q188 348 188 268 Q188 190 221 144 Q254 98 318 98 Q382 98 468 146 L517 62 Q437 -5 322 -12 L314 -52 Q332 -54 344.5 -57.5 Q357 -61 371.5 -69 Q386 -77 393.5 -92 Q401 -107 401 -129 Q401 -174 370.5 -197.5 Q340 -221 290 -221 Q238 -221 203 -205 Z " />
<glyph glyph-name="egrave" unicode="&#xe8;" horiz-adv-x="575" d="M474 142 L517 55 Q425 -13 303 -13 Q183 -13 115.5 57.5 Q48 128 48 260 Q48 388 117.5 464 Q187 540 304 540 Q415 540 473 475.5 Q531 411 531 284 Q531 237 529 219 L188 219 Q198 97 319 97 Q388 97 474 142 Z M189 315 L404 315 Q404 440 305 440 Q247 440 219 399.5 Q191 359 189 315 Z M235 788 L391 645 L332 579 L166 705 L235 788 Z " />
<glyph glyph-name="eacute" unicode="&#xe9;" horiz-adv-x="575" d="M474 142 L517 55 Q425 -13 303 -13 Q183 -13 115.5 57.5 Q48 128 48 260 Q48 388 117.5 464 Q187 540 304 540 Q415 540 473 475.5 Q531 411 531 284 Q531 237 529 219 L188 219 Q198 97 319 97 Q388 97 474 142 Z M189 315 L404 315 Q404 440 305 440 Q247 440 219 399.5 Q191 359 189 315 Z M178 645 L334 788 L403 705 L237 579 L178 645 Z " />
<glyph glyph-name="ecircumflex" unicode="&#xea;" horiz-adv-x="575" d="M474 142 L517 55 Q425 -13 303 -13 Q183 -13 115.5 57.5 Q48 128 48 260 Q48 388 117.5 464 Q187 540 304 540 Q415 540 473 475.5 Q531 411 531 284 Q531 237 529 219 L188 219 Q198 97 319 97 Q388 97 474 142 Z M189 315 L404 315 Q404 440 305 440 Q247 440 219 399.5 Q191 359 189 315 Z M254 761 L333 761 L444 617 L386 576 L295 665 L204 576 L143 616 L254 761 Z " />
<glyph glyph-name="edieresis" unicode="&#xeb;" horiz-adv-x="575" d="M474 142 L517 55 Q425 -13 303 -13 Q183 -13 115.5 57.5 Q48 128 48 260 Q48 388 117.5 464 Q187 540 304 540 Q415 540 473 475.5 Q531 411 531 284 Q531 237 529 219 L188 219 Q198 97 319 97 Q388 97 474 142 Z M189 315 L404 315 Q404 440 305 440 Q247 440 219 399.5 Q191 359 189 315 Z M118 656 Q118 683 136.5 700.5 Q155 718 187 718 Q221 718 239 700.5 Q257 683 257 656 Q257 629 237.5 612 Q218 595 187 595 Q154 595 136 611.5 Q118 628 118 656 Z M322 656 Q322 683 340.5 700.5 Q359 718 391 718 Q425 718 443 700.5 Q461 683 461 656 Q461 629 441.5 612 Q422 595 391 595 Q358 595 340 611.5 Q322 628 322 656 Z " />
<glyph glyph-name="igrave" unicode="&#xec;" horiz-adv-x="262" d="M87 788 L243 645 L184 579 L18 705 L87 788 Z M207 528 L207 0 L75 0 L75 528 L207 528 Z " />
<glyph glyph-name="iacute" unicode="&#xed;" horiz-adv-x="262" d="M15 645 L171 788 L240 705 L74 579 L15 645 Z M207 528 L207 0 L75 0 L75 528 L207 528 Z " />
<glyph glyph-name="icircumflex" unicode="&#xee;" horiz-adv-x="282" d="M207 528 L207 0 L75 0 L75 528 L207 528 Z M92 761 L171 761 L282 617 L224 576 L133 665 L42 576 L-19 616 L92 761 Z " />
<glyph glyph-name="idieresis" unicode="&#xef;" horiz-adv-x="262" d="M-36 656 Q-36 683 -17.5 700.5 Q1 718 33 718 Q67 718 85 700.5 Q103 683 103 656 Q103 629 83.5 612 Q64 595 33 595 Q0 595 -18 611.5 Q-36 628 -36 656 Z M168 656 Q168 683 186.5 700.5 Q205 718 237 718 Q271 718 289 700.5 Q307 683 307 656 Q307 629 287.5 612 Q268 595 237 595 Q204 595 186 611.5 Q168 628 168 656 Z M207 528 L207 0 L75 0 L75 528 L207 528 Z " />
<glyph glyph-name="eth" unicode="&#xf0;" horiz-adv-x="570" d="M261 482 L205 557 L259 595 Q208 622 137 637 L167 723 Q274 710 353 662 L437 721 L493 647 L427 600 Q523 490 523 300 Q523 153 459.5 70 Q396 -13 274 -13 Q173 -13 110 46.5 Q47 106 47 215 Q47 317 100.5 380.5 Q154 444 245 444 Q333 444 401 374 Q391 473 336 535 L261 482 Z M280 90 Q401 90 399 280 Q347 340 278 340 Q231 340 201.5 307 Q172 274 172 213 Q172 151 201.5 120.5 Q231 90 280 90 Z " />
<glyph glyph-name="ntilde" unicode="&#xf1;" horiz-adv-x="594" d="M69 528 L180 528 L191 458 Q262 540 362 540 Q444 540 486.5 491 Q529 442 529 354 L529 0 L396 0 L396 314 Q396 373 375.5 400 Q355 427 313 427 Q252 427 202 368 L202 0 L69 0 L69 528 Z M403 717 L465 694 Q444 594 371 594 Q346 594 301 610.5 Q256 627 245 627 Q232 627 223 619 Q214 611 204 590 L141 614 Q173 714 234 714 Q260 714 303.5 697 Q347 680 363 680 Q377 680 385 687 Q393 694 403 717 Z " />
<glyph glyph-name="ograve" unicode="&#xf2;" horiz-adv-x="621" d="M188 264 Q188 179 221 139 Q254 99 310 99 Q367 99 400 139 Q433 179 433 264 Q433 348 399.5 389 Q366 430 310 430 Q254 430 221 388 Q188 346 188 264 Z M48 261 Q48 394 121.5 467 Q195 540 312 540 Q428 540 500.5 468 Q573 396 573 264 Q573 133 498.5 60 Q424 -13 305 -13 Q185 -13 116.5 58.5 Q48 130 48 261 Z M258 788 L414 645 L355 579 L189 705 L258 788 Z " />
<glyph glyph-name="oacute" unicode="&#xf3;" horiz-adv-x="621" d="M188 264 Q188 179 221 139 Q254 99 310 99 Q367 99 400 139 Q433 179 433 264 Q433 348 399.5 389 Q366 430 310 430 Q254 430 221 388 Q188 346 188 264 Z M48 261 Q48 394 121.5 467 Q195 540 312 540 Q428 540 500.5 468 Q573 396 573 264 Q573 133 498.5 60 Q424 -13 305 -13 Q185 -13 116.5 58.5 Q48 130 48 261 Z M190 645 L346 788 L415 705 L249 579 L190 645 Z " />
<glyph glyph-name="ocircumflex" unicode="&#xf4;" horiz-adv-x="621" d="M188 264 Q188 179 221 139 Q254 99 310 99 Q367 99 400 139 Q433 179 433 264 Q433 348 399.5 389 Q366 430 310 430 Q254 430 221 388 Q188 346 188 264 Z M48 261 Q48 394 121.5 467 Q195 540 312 540 Q428 540 500.5 468 Q573 396 573 264 Q573 133 498.5 60 Q424 -13 305 -13 Q185 -13 116.5 58.5 Q48 130 48 261 Z M272 761 L351 761 L462 617 L404 576 L313 665 L222 576 L161 616 L272 761 Z " />
<glyph glyph-name="otilde" unicode="&#xf5;" horiz-adv-x="621" d="M188 264 Q188 179 221 139 Q254 99 310 99 Q367 99 400 139 Q433 179 433 264 Q433 348 399.5 389 Q366 430 310 430 Q254 430 221 388 Q188 346 188 264 Z M48 261 Q48 394 121.5 467 Q195 540 312 540 Q428 540 500.5 468 Q573 396 573 264 Q573 133 498.5 60 Q424 -13 305 -13 Q185 -13 116.5 58.5 Q48 130 48 261 Z M410 717 L472 694 Q451 594 378 594 Q353 594 308 610.5 Q263 627 252 627 Q239 627 230 619 Q221 611 211 590 L148 614 Q180 714 241 714 Q267 714 310.5 697 Q354 680 370 680 Q384 680 392 687 Q400 694 410 717 Z " />
<glyph glyph-name="odieresis" unicode="&#xf6;" horiz-adv-x="621" d="M188 264 Q188 179 221 139 Q254 99 310 99 Q367 99 400 139 Q433 179 433 264 Q433 348 399.5 389 Q366 430 310 430 Q254 430 221 388 Q188 346 188 264 Z M48 261 Q48 394 121.5 467 Q195 540 312 540 Q428 540 500.5 468 Q573 396 573 264 Q573 133 498.5 60 Q424 -13 305 -13 Q185 -13 116.5 58.5 Q48 130 48 261 Z M136 656 Q136 683 154.5 700.5 Q173 718 205 718 Q239 718 257 700.5 Q275 683 275 656 Q275 629 255.5 612 Q236 595 205 595 Q172 595 154 611.5 Q136 628 136 656 Z M340 656 Q340 683 358.5 700.5 Q377 718 409 718 Q443 718 461 700.5 Q479 683 479 656 Q479 629 459.5 612 Q440 595 409 595 Q376 595 358 611.5 Q340 628 340 656 Z " />
<glyph glyph-name="oslash" unicode="&#xf8;" horiz-adv-x="601" d="M48 261 Q48 394 121.5 467 Q195 540 312 540 Q324 540 348 538 L365 593 L464 593 L439 512 Q502 481 537.5 417.5 Q573 354 573 264 Q573 133 498.5 60 Q424 -13 305 -13 Q284 -13 275 -12 L255 -76 L157 -76 L184 10 Q48 72 48 261 Z M188 264 Q188 179 223 136 L314 430 L310 430 Q254 430 221 388 Q188 346 188 264 Z M433 264 Q433 346 400 388 L309 99 L310 99 Q367 99 400 139 Q433 179 433 264 Z " />
<glyph glyph-name="ugrave" unicode="&#xf9;" horiz-adv-x="589" d="M520 0 L411 0 L400 69 Q328 -13 233 -13 Q65 -13 65 170 L65 528 L198 528 L198 202 Q198 150 216 124.5 Q234 99 277 99 Q338 99 387 156 L387 528 L520 528 L520 0 Z M241 788 L397 645 L338 579 L172 705 L241 788 Z " />
<glyph glyph-name="uacute" unicode="&#xfa;" horiz-adv-x="589" d="M520 0 L411 0 L400 69 Q328 -13 233 -13 Q65 -13 65 170 L65 528 L198 528 L198 202 Q198 150 216 124.5 Q234 99 277 99 Q338 99 387 156 L387 528 L520 528 L520 0 Z M194 645 L350 788 L419 705 L253 579 L194 645 Z " />
<glyph glyph-name="ucircumflex" unicode="&#xfb;" horiz-adv-x="589" d="M520 0 L411 0 L400 69 Q328 -13 233 -13 Q65 -13 65 170 L65 528 L198 528 L198 202 Q198 150 216 124.5 Q234 99 277 99 Q338 99 387 156 L387 528 L520 528 L520 0 Z M258 761 L337 761 L448 617 L390 576 L299 665 L208 576 L147 616 L258 761 Z " />
<glyph glyph-name="udieresis" unicode="&#xfc;" horiz-adv-x="589" d="M520 0 L411 0 L400 69 Q328 -13 233 -13 Q65 -13 65 170 L65 528 L198 528 L198 202 Q198 150 216 124.5 Q234 99 277 99 Q338 99 387 156 L387 528 L520 528 L520 0 Z M121 656 Q121 683 139.5 700.5 Q158 718 190 718 Q224 718 242 700.5 Q260 683 260 656 Q260 629 240.5 612 Q221 595 190 595 Q157 595 139 611.5 Q121 628 121 656 Z M325 656 Q325 683 343.5 700.5 Q362 718 394 718 Q428 718 446 700.5 Q464 683 464 656 Q464 629 444.5 612 Q425 595 394 595 Q361 595 343 611.5 Q325 628 325 656 Z " />
<glyph glyph-name="yacute" unicode="&#xfd;" horiz-adv-x="536" d="M384 528 L517 528 L339 21 Q324 -22 317.5 -40 Q311 -58 298 -89 Q285 -120 275.5 -132 Q266 -144 250 -162 Q234 -180 217 -186 Q200 -192 176.5 -197.5 Q153 -203 123 -203 Q79 -203 34 -191 L44 -97 Q81 -104 111 -104 Q143 -104 162.5 -89.5 Q182 -75 197 -30 L202 -15 L18 528 L157 528 L266 138 L384 528 Z M171 645 L327 788 L396 705 L230 579 L171 645 Z " />
<glyph glyph-name="thorn" unicode="&#xfe;" horiz-adv-x="605" d="M202 361 L202 159 Q246 99 314 99 Q435 99 435 261 Q435 430 320 430 Q262 430 202 361 Z M202 -200 L69 -200 L69 720 L199 720 L199 458 Q269 540 371 540 Q465 540 519.5 469 Q574 398 574 266 Q574 134 518.5 61 Q463 -12 355 -12 Q262 -12 202 53 L202 -200 Z " />
<glyph glyph-name="ydieresis" unicode="&#xff;" horiz-adv-x="536" d="M384 528 L517 528 L339 21 Q324 -22 317.5 -40 Q311 -58 298 -89 Q285 -120 275.5 -132 Q266 -144 250 -162 Q234 -180 217 -186 Q200 -192 176.5 -197.5 Q153 -203 123 -203 Q79 -203 34 -191 L44 -97 Q81 -104 111 -104 Q143 -104 162.5 -89.5 Q182 -75 197 -30 L202 -15 L18 528 L157 528 L266 138 L384 528 Z M98 656 Q98 683 116.5 700.5 Q135 718 167 718 Q201 718 219 700.5 Q237 683 237 656 Q237 629 217.5 612 Q198 595 167 595 Q134 595 116 611.5 Q98 628 98 656 Z M302 656 Q302 683 320.5 700.5 Q339 718 371 718 Q405 718 423 700.5 Q441 683 441 656 Q441 629 421.5 612 Q402 595 371 595 Q338 595 320 611.5 Q302 628 302 656 Z " />
<glyph glyph-name="Amacron" unicode="&#x100;" horiz-adv-x="694" d="M277 720 L416 720 L675 0 L527 0 L474 163 L220 163 L167 0 L18 0 L277 720 Z M257 279 L436 279 L346 562 L257 279 Z M203 784 L203 873 L486 873 L486 784 L203 784 Z " />
<glyph glyph-name="amacron" unicode="&#x101;" horiz-adv-x="558" d="M360 203 L360 217 Q335 222 297 222 Q176 222 176 144 Q176 85 248 85 Q297 85 328.5 122 Q360 159 360 203 Z M493 346 L493 0 L387 0 L373 71 Q316 -13 207 -13 Q133 -13 88.5 27 Q44 67 44 142 Q44 213 101.5 261 Q159 309 285 309 Q327 309 360 305 L360 344 Q360 434 270 434 Q226 434 192 422 Q158 410 114 384 L69 464 Q165 540 284 540 Q493 540 493 346 Z M129 608 L129 697 L412 697 L412 608 L129 608 Z " />
<glyph glyph-name="Abreve" unicode="&#x102;" horiz-adv-x="694" d="M277 720 L416 720 L675 0 L527 0 L474 163 L220 163 L167 0 L18 0 L277 720 Z M257 279 L436 279 L346 562 L257 279 Z M344 843 Q383 843 400 859.5 Q417 876 421 906 L501 893 Q494 829 456 797.5 Q418 766 344 766 Q269 766 232 796 Q195 826 185 893 L268 907 Q274 875 290.5 859 Q307 843 344 843 Z " />
<glyph glyph-name="abreve" unicode="&#x103;" horiz-adv-x="558" d="M360 203 L360 217 Q335 222 297 222 Q176 222 176 144 Q176 85 248 85 Q297 85 328.5 122 Q360 159 360 203 Z M493 346 L493 0 L387 0 L373 71 Q316 -13 207 -13 Q133 -13 88.5 27 Q44 67 44 142 Q44 213 101.5 261 Q159 309 285 309 Q327 309 360 305 L360 344 Q360 434 270 434 Q226 434 192 422 Q158 410 114 384 L69 464 Q165 540 284 540 Q493 540 493 346 Z M280 668 Q347 668 357 738 L437 725 Q425 591 280 591 Q206 591 168.5 623 Q131 655 121 725 L202 739 Q211 702 227.5 685 Q244 668 280 668 Z " />
<glyph glyph-name="Aogonek" unicode="&#x104;" horiz-adv-x="694" d="M277 720 L416 720 L675 0 Q579 -65 579 -117 Q579 -149 608 -149 Q635 -149 663 -137 L682 -201 Q631 -231 572 -231 Q475 -231 475 -152 Q475 -76 562 0 L527 0 L474 163 L220 163 L167 0 L18 0 L277 720 Z M257 279 L436 279 L346 562 L257 279 Z " />
<glyph glyph-name="aogonek" unicode="&#x105;" horiz-adv-x="558" d="M493 346 L493 0 Q412 -73 412 -117 Q412 -149 441 -149 Q468 -149 496 -137 L515 -201 Q464 -231 405 -231 Q308 -231 308 -152 Q308 -81 387 0 L373 71 Q316 -13 207 -13 Q133 -13 88.5 27 Q44 67 44 142 Q44 213 101.5 261 Q159 309 285 309 Q327 309 360 305 L360 344 Q360 434 270 434 Q226 434 192 422 Q158 410 114 384 L69 464 Q165 540 284 540 Q493 540 493 346 Z M360 203 L360 217 Q335 222 297 222 Q176 222 176 144 Q176 85 248 85 Q297 85 328.5 122 Q360 159 360 203 Z " />
<glyph glyph-name="Cacute" unicode="&#x106;" horiz-adv-x="684" d="M579 195 L653 104 Q532 -13 370 -13 Q214 -13 133 89.5 Q52 192 52 360 Q52 525 136.5 628.5 Q221 732 376 732 Q493 732 568.5 667 Q644 602 650 479 L511 479 Q507 534 475.5 570.5 Q444 607 377 607 Q294 607 247 542.5 Q200 478 200 361 Q200 239 248.5 175.5 Q297 112 384 112 Q483 112 579 195 Z M249 827 L427 934 L481 837 L294 750 L249 827 Z " />
<glyph glyph-name="cacute" unicode="&#x107;" horiz-adv-x="558" d="M468 146 L517 62 Q426 -13 299 -13 Q185 -13 116.5 60.5 Q48 134 48 263 Q48 389 119.5 464.5 Q191 540 308 540 Q409 540 464.5 486 Q520 432 523 329 L412 329 Q407 380 380 406 Q353 432 310 432 Q253 432 220.5 390 Q188 348 188 268 Q188 190 221 144 Q254 98 318 98 Q382 98 468 146 Z M190 645 L346 788 L415 705 L249 579 L190 645 Z " />
<glyph glyph-name="Ccircumflex" unicode="&#x108;" horiz-adv-x="684" d="M579 195 L653 104 Q532 -13 370 -13 Q214 -13 133 89.5 Q52 192 52 360 Q52 525 136.5 628.5 Q221 732 376 732 Q493 732 568.5 667 Q644 602 650 479 L511 479 Q507 534 475.5 570.5 Q444 607 377 607 Q294 607 247 542.5 Q200 478 200 361 Q200 239 248.5 175.5 Q297 112 384 112 Q483 112 579 195 Z M333 923 L412 923 L521 810 L463 761 L375 827 L288 761 L228 811 L333 923 Z " />
<glyph glyph-name="ccircumflex" unicode="&#x109;" horiz-adv-x="558" d="M468 146 L517 62 Q426 -13 299 -13 Q185 -13 116.5 60.5 Q48 134 48 263 Q48 389 119.5 464.5 Q191 540 308 540 Q409 540 464.5 486 Q520 432 523 329 L412 329 Q407 380 380 406 Q353 432 310 432 Q253 432 220.5 390 Q188 348 188 268 Q188 190 221 144 Q254 98 318 98 Q382 98 468 146 Z M262 761 L341 761 L452 617 L394 576 L303 665 L212 576 L151 616 L262 761 Z " />
<glyph glyph-name="Cdotaccent" unicode="&#x10a;" horiz-adv-x="684" d="M579 195 L653 104 Q532 -13 370 -13 Q214 -13 133 89.5 Q52 192 52 360 Q52 525 136.5 628.5 Q221 732 376 732 Q493 732 568.5 667 Q644 602 650 479 L511 479 Q507 534 475.5 570.5 Q444 607 377 607 Q294 607 247 542.5 Q200 478 200 361 Q200 239 248.5 175.5 Q297 112 384 112 Q483 112 579 195 Z M287 837 Q287 869 309.5 887 Q332 905 367 905 Q402 905 424 887 Q446 869 446 837 Q446 806 424 788.5 Q402 771 367 771 Q333 771 310 788.5 Q287 806 287 837 Z " />
<glyph glyph-name="cdotaccent" unicode="&#x10b;" horiz-adv-x="558" d="M468 146 L517 62 Q426 -13 299 -13 Q185 -13 116.5 60.5 Q48 134 48 263 Q48 389 119.5 464.5 Q191 540 308 540 Q409 540 464.5 486 Q520 432 523 329 L412 329 Q407 380 380 406 Q353 432 310 432 Q253 432 220.5 390 Q188 348 188 268 Q188 190 221 144 Q254 98 318 98 Q382 98 468 146 Z M224 663 Q224 695 246.5 713 Q269 731 304 731 Q339 731 361 713 Q383 695 383 663 Q383 632 361 614.5 Q339 597 304 597 Q270 597 247 614.5 Q224 632 224 663 Z " />
<glyph glyph-name="Ccaron" unicode="&#x10c;" horiz-adv-x="684" d="M579 195 L653 104 Q532 -13 370 -13 Q214 -13 133 89.5 Q52 192 52 360 Q52 525 136.5 628.5 Q221 732 376 732 Q493 732 568.5 667 Q644 602 650 479 L511 479 Q507 534 475.5 570.5 Q444 607 377 607 Q294 607 247 542.5 Q200 478 200 361 Q200 239 248.5 175.5 Q297 112 384 112 Q483 112 579 195 Z M409 761 L330 761 L225 873 L285 923 L372 857 L460 923 L518 874 L409 761 Z " />
<glyph glyph-name="ccaron" unicode="&#x10d;" horiz-adv-x="558" d="M468 146 L517 62 Q426 -13 299 -13 Q185 -13 116.5 60.5 Q48 134 48 263 Q48 389 119.5 464.5 Q191 540 308 540 Q409 540 464.5 486 Q520 432 523 329 L412 329 Q407 380 380 406 Q353 432 310 432 Q253 432 220.5 390 Q188 348 188 268 Q188 190 221 144 Q254 98 318 98 Q382 98 468 146 Z M341 581 L262 581 L154 723 L213 767 L303 677 L394 766 L452 725 L341 581 Z " />
<glyph glyph-name="Dcaron" unicode="&#x10e;" horiz-adv-x="727" d="M314 598 L213 598 L213 121 L314 121 Q423 121 474.5 180 Q526 239 526 358 Q526 598 314 598 Z M75 720 L312 720 Q487 720 578.5 628 Q670 536 670 368 Q670 176 577 88 Q484 0 291 0 L75 0 L75 720 Z M341 761 L262 761 L157 873 L217 923 L304 857 L392 923 L450 874 L341 761 Z " />
<glyph glyph-name="dcaron" unicode="&#x10f;" horiz-adv-x="677" d="M439 0 L432 68 Q373 -13 268 -13 Q160 -13 105.5 59.5 Q51 132 51 262 Q51 393 112.5 466.5 Q174 540 273 540 Q360 540 425 470 L425 720 L557 720 L557 0 L439 0 Z M424 158 L424 367 Q374 427 308 427 Q253 427 222 386 Q191 345 191 264 Q191 99 311 99 Q374 99 424 158 Z M596 522 L627 720 L748 720 L694 522 L596 522 Z " />
<glyph glyph-name="Dcroat" unicode="&#x110;" horiz-adv-x="735" d="M7 306 L7 417 L81 417 L81 720 L316 720 Q493 720 585 626 Q677 532 677 358 Q677 173 583 86.5 Q489 0 296 0 L81 0 L81 306 L7 306 Z M321 594 L220 594 L220 417 L382 417 L382 306 L220 306 L220 126 L321 126 Q430 126 480.5 182.5 Q531 239 531 358 Q531 476 480 535 Q429 594 321 594 Z " />
<glyph glyph-name="dcroat" unicode="&#x111;" horiz-adv-x="600" d="M263 558 L263 651 L425 651 L425 720 L557 720 L557 651 L613 651 L613 558 L557 558 L557 0 L439 0 L432 68 Q371 -13 268 -13 Q162 -13 106.5 55.5 Q51 124 51 249 Q51 374 111 441.5 Q171 509 265 509 Q360 509 425 439 L425 558 L263 558 Z M424 157 L424 334 Q372 396 302 396 Q191 396 191 251 Q191 184 219 141.5 Q247 99 311 99 Q375 99 424 157 Z " />
<glyph glyph-name="Emacron" unicode="&#x112;" horiz-adv-x="610" d="M75 0 L75 720 L554 720 L554 598 L213 598 L213 425 L523 425 L523 303 L213 303 L213 121 L560 121 L560 0 L75 0 Z M177 785 L177 874 L460 874 L460 785 L177 785 Z " />
<glyph glyph-name="emacron" unicode="&#x113;" horiz-adv-x="575" d="M474 142 L517 55 Q425 -13 303 -13 Q183 -13 115.5 57.5 Q48 128 48 260 Q48 388 117.5 464 Q187 540 304 540 Q415 540 473 475.5 Q531 411 531 284 Q531 237 529 219 L188 219 Q198 97 319 97 Q388 97 474 142 Z M189 315 L404 315 Q404 440 305 440 Q247 440 219 399.5 Q191 359 189 315 Z M158 608 L158 697 L441 697 L441 608 L158 608 Z " />
<glyph glyph-name="Ebreve" unicode="&#x114;" horiz-adv-x="610" d="M75 0 L75 720 L554 720 L554 598 L213 598 L213 425 L523 425 L523 303 L213 303 L213 121 L560 121 L560 0 L75 0 Z M317 844 Q356 844 373 860.5 Q390 877 394 907 L474 894 Q467 830 429 798.5 Q391 767 317 767 Q242 767 205 797 Q168 827 158 894 L241 908 Q247 876 263.5 860 Q280 844 317 844 Z " />
<glyph glyph-name="ebreve" unicode="&#x115;" horiz-adv-x="575" d="M474 142 L517 55 Q425 -13 303 -13 Q183 -13 115.5 57.5 Q48 128 48 260 Q48 388 117.5 464 Q187 540 304 540 Q415 540 473 475.5 Q531 411 531 284 Q531 237 529 219 L188 219 Q198 97 319 97 Q388 97 474 142 Z M189 315 L404 315 Q404 440 305 440 Q247 440 219 399.5 Q191 359 189 315 Z M306 668 Q373 668 383 738 L463 725 Q451 591 306 591 Q232 591 194.5 623 Q157 655 147 725 L228 739 Q237 702 253.5 685 Q270 668 306 668 Z " />
<glyph glyph-name="Edotaccent" unicode="&#x116;" horiz-adv-x="610" d="M75 0 L75 720 L554 720 L554 598 L213 598 L213 425 L523 425 L523 303 L213 303 L213 121 L560 121 L560 0 L75 0 Z M244 838 Q244 870 266.5 888 Q289 906 324 906 Q359 906 381 888 Q403 870 403 838 Q403 807 381 789.5 Q359 772 324 772 Q290 772 267 789.5 Q244 807 244 838 Z " />
<glyph glyph-name="edotaccent" unicode="&#x117;" horiz-adv-x="575" d="M474 142 L517 55 Q425 -13 303 -13 Q183 -13 115.5 57.5 Q48 128 48 260 Q48 388 117.5 464 Q187 540 304 540 Q415 540 473 475.5 Q531 411 531 284 Q531 237 529 219 L188 219 Q198 97 319 97 Q388 97 474 142 Z M189 315 L404 315 Q404 440 305 440 Q247 440 219 399.5 Q191 359 189 315 Z M230 663 Q230 695 252.5 713 Q275 731 310 731 Q345 731 367 713 Q389 695 389 663 Q389 632 367 614.5 Q345 597 310 597 Q276 597 253 614.5 Q230 632 230 663 Z " />
<glyph glyph-name="Eogonek" unicode="&#x118;" horiz-adv-x="610" d="M75 0 L75 720 L554 720 L554 598 L213 598 L213 423 L523 423 L523 308 L213 308 L213 121 L560 121 L560 0 L531 0 Q452 -75 452 -117 Q452 -149 481 -149 Q508 -149 536 -137 L555 -201 Q504 -231 445 -231 Q348 -231 348 -152 Q348 -76 435 0 L75 0 Z " />
<glyph glyph-name="eogonek" unicode="&#x119;" horiz-adv-x="553" d="M474 142 L517 55 Q502 44 471.5 26 Q441 8 427 -3 Q392 -28 368.5 -60.5 Q345 -93 345 -117 Q345 -149 374 -149 Q401 -149 429 -137 L448 -201 Q397 -231 338 -231 Q241 -231 241 -152 Q241 -83 314 -13 L303 -13 Q183 -13 115.5 57.5 Q48 128 48 260 Q48 388 117.5 464 Q187 540 304 540 Q415 540 473 476.5 Q531 413 531 286 Q531 237 529 219 L188 219 Q198 97 319 97 Q388 97 474 142 Z M189 315 L404 315 Q402 440 305 440 Q247 440 219 399.5 Q191 359 189 315 Z " />
<glyph glyph-name="Ecaron" unicode="&#x11a;" horiz-adv-x="610" d="M75 0 L75 720 L554 720 L554 598 L213 598 L213 425 L523 425 L523 303 L213 303 L213 121 L560 121 L560 0 L75 0 Z M362 762 L283 762 L178 874 L238 924 L325 858 L413 924 L471 875 L362 762 Z " />
<glyph glyph-name="ecaron" unicode="&#x11b;" horiz-adv-x="575" d="M474 142 L517 55 Q425 -13 303 -13 Q183 -13 115.5 57.5 Q48 128 48 260 Q48 388 117.5 464 Q187 540 304 540 Q415 540 473 475.5 Q531 411 531 284 Q531 237 529 219 L188 219 Q198 97 319 97 Q388 97 474 142 Z M189 315 L404 315 Q404 440 305 440 Q247 440 219 399.5 Q191 359 189 315 Z M345 581 L266 581 L158 723 L217 767 L307 677 L398 766 L456 725 L345 581 Z " />
<glyph glyph-name="Gcircumflex" unicode="&#x11c;" horiz-adv-x="734" d="M410 269 L410 384 L670 384 L670 98 Q569 -13 392 -13 Q300 -13 232 16.5 Q164 46 126 98.5 Q88 151 70 216 Q52 281 52 360 Q52 530 136.5 631 Q221 732 384 732 Q525 732 592 667.5 Q659 603 666 497 L523 497 Q520 547 486.5 577 Q453 607 384 607 Q294 607 245.5 540.5 Q197 474 197 362 Q197 110 400 110 Q489 110 538 151 L538 269 L410 269 Z M344 923 L423 923 L532 810 L474 761 L386 827 L299 761 L239 811 L344 923 Z " />
<glyph glyph-name="gcircumflex" unicode="&#x11d;" horiz-adv-x="629" d="M557 528 L557 29 Q557 -103 498.5 -156.5 Q440 -210 309 -210 Q205 -210 118 -177 L139 -80 Q235 -106 299 -106 Q371 -106 400 -75 Q429 -44 429 30 L429 79 Q368 3 267 3 Q163 3 107 69.5 Q51 136 51 261 Q51 389 109 464.5 Q167 540 276 540 Q369 540 438 460 L447 528 L557 528 Z M424 170 L424 365 Q407 388 375 407.5 Q343 427 307 427 Q191 427 191 269 Q191 113 309 113 Q372 113 424 170 Z M270 761 L349 761 L460 617 L402 576 L311 665 L220 576 L159 616 L270 761 Z " />
<glyph glyph-name="Gbreve" unicode="&#x11e;" horiz-adv-x="734" d="M410 269 L410 384 L670 384 L670 98 Q569 -13 392 -13 Q300 -13 232 16.5 Q164 46 126 98.5 Q88 151 70 216 Q52 281 52 360 Q52 530 136.5 631 Q221 732 384 732 Q525 732 592 667.5 Q659 603 666 497 L523 497 Q520 547 486.5 577 Q453 607 384 607 Q294 607 245.5 540.5 Q197 474 197 362 Q197 110 400 110 Q489 110 538 151 L538 269 L410 269 Z M381 843 Q420 843 437 859.5 Q454 876 458 906 L538 893 Q531 829 493 797.5 Q455 766 381 766 Q306 766 269 796 Q232 826 222 893 L305 907 Q311 875 327.5 859 Q344 843 381 843 Z " />
<glyph glyph-name="gbreve" unicode="&#x11f;" horiz-adv-x="629" d="M557 528 L557 29 Q557 -103 498.5 -156.5 Q440 -210 309 -210 Q205 -210 118 -177 L139 -80 Q235 -106 299 -106 Q371 -106 400 -75 Q429 -44 429 30 L429 79 Q368 3 267 3 Q163 3 107 69.5 Q51 136 51 261 Q51 389 109 464.5 Q167 540 276 540 Q369 540 438 460 L447 528 L557 528 Z M424 170 L424 365 Q407 388 375 407.5 Q343 427 307 427 Q191 427 191 269 Q191 113 309 113 Q372 113 424 170 Z M300 668 Q367 668 377 738 L457 725 Q445 591 300 591 Q226 591 188.5 623 Q151 655 141 725 L222 739 Q231 702 247.5 685 Q264 668 300 668 Z " />
<glyph glyph-name="Gdotaccent" unicode="&#x120;" horiz-adv-x="734" d="M410 269 L410 384 L670 384 L670 98 Q569 -13 392 -13 Q300 -13 232 16.5 Q164 46 126 98.5 Q88 151 70 216 Q52 281 52 360 Q52 530 136.5 631 Q221 732 384 732 Q525 732 592 667.5 Q659 603 666 497 L523 497 Q520 547 486.5 577 Q453 607 384 607 Q294 607 245.5 540.5 Q197 474 197 362 Q197 110 400 110 Q489 110 538 151 L538 269 L410 269 Z M309 837 Q309 869 331.5 887 Q354 905 389 905 Q424 905 446 887 Q468 869 468 837 Q468 806 446 788.5 Q424 771 389 771 Q355 771 332 788.5 Q309 806 309 837 Z " />
<glyph glyph-name="gdotaccent" unicode="&#x121;" horiz-adv-x="629" d="M557 528 L557 29 Q557 -103 498.5 -156.5 Q440 -210 309 -210 Q205 -210 118 -177 L139 -80 Q235 -106 299 -106 Q371 -106 400 -75 Q429 -44 429 30 L429 79 Q368 3 267 3 Q163 3 107 69.5 Q51 136 51 261 Q51 389 109 464.5 Q167 540 276 540 Q369 540 438 460 L447 528 L557 528 Z M424 170 L424 365 Q407 388 375 407.5 Q343 427 307 427 Q191 427 191 269 Q191 113 309 113 Q372 113 424 170 Z M220 663 Q220 695 242.5 713 Q265 731 300 731 Q335 731 357 713 Q379 695 379 663 Q379 632 357 614.5 Q335 597 300 597 Q266 597 243 614.5 Q220 632 220 663 Z " />
<glyph glyph-name="Gcommaaccent" unicode="&#x122;" horiz-adv-x="734" d="M410 269 L410 384 L670 384 L670 98 Q569 -13 392 -13 Q300 -13 232 16.5 Q164 46 126 98.5 Q88 151 70 216 Q52 281 52 360 Q52 530 136.5 631 Q221 732 384 732 Q525 732 592 667.5 Q659 603 666 497 L523 497 Q520 547 486.5 577 Q453 607 384 607 Q294 607 245.5 540.5 Q197 474 197 362 Q197 110 400 110 Q489 110 538 151 L538 269 L410 269 Z M294 -233 L334 -57 L444 -84 L382 -257 L294 -233 Z " />
<glyph glyph-name="gcommaaccent" unicode="&#x123;" horiz-adv-x="629" d="M557 528 L557 29 Q557 -103 498.5 -156.5 Q440 -210 309 -210 Q205 -210 118 -177 L139 -80 Q235 -106 299 -106 Q371 -106 400 -75 Q429 -44 429 30 L429 79 Q368 3 267 3 Q163 3 107 69.5 Q51 136 51 261 Q51 389 109 464.5 Q167 540 276 540 Q369 540 438 460 L447 528 L557 528 Z M424 170 L424 365 Q407 388 375 407.5 Q343 427 307 427 Q191 427 191 269 Q191 113 309 113 Q372 113 424 170 Z M387 757 L347 581 L237 608 L299 781 L387 757 Z " />
<glyph glyph-name="Hcircumflex" unicode="&#x124;" horiz-adv-x="723" d="M75 0 L75 720 L213 720 L213 427 L510 427 L510 720 L648 720 L648 0 L510 0 L510 302 L213 302 L213 0 L75 0 Z M327 923 L406 923 L515 810 L457 761 L369 827 L282 761 L222 811 L327 923 Z " />
<glyph glyph-name="hcircumflex" unicode="&#x125;" horiz-adv-x="594" d="M69 720 L202 720 L202 464 Q271 540 365 540 Q444 540 486.5 491 Q529 442 529 353 L529 0 L396 0 L396 320 Q396 372 378.5 399.5 Q361 427 312 427 Q254 427 202 368 L202 0 L69 0 L69 720 Z M93 912 L172 912 L281 799 L223 750 L135 816 L48 750 L-12 800 L93 912 Z " />
<glyph glyph-name="Hbar" unicode="&#x126;" horiz-adv-x="723" d="M16 514 L16 617 L75 617 L75 720 L213 720 L213 617 L510 617 L510 720 L648 720 L648 617 L711 617 L711 514 L648 514 L648 0 L510 0 L510 302 L213 302 L213 0 L75 0 L75 514 L16 514 Z M213 427 L510 427 L510 514 L213 514 L213 427 Z " />
<glyph glyph-name="hbar" unicode="&#x127;" horiz-adv-x="594" d="M13 558 L13 651 L69 651 L69 720 L202 720 L202 651 L363 651 L363 558 L202 558 L202 424 Q271 500 365 500 Q444 500 486.5 451 Q529 402 529 313 L529 0 L396 0 L396 280 Q396 332 378.5 359.5 Q361 387 312 387 Q254 387 202 328 L202 0 L69 0 L69 558 L13 558 Z " />
<glyph glyph-name="Itilde" unicode="&#x128;" horiz-adv-x="292" d="M77 0 L77 720 L215 720 L215 0 L77 0 Z M243 900 L305 877 Q284 777 211 777 Q186 777 141 793.5 Q96 810 85 810 Q72 810 63 802 Q54 794 44 773 L-19 797 Q13 897 74 897 Q100 897 143.5 880 Q187 863 203 863 Q217 863 225 870 Q233 877 243 900 Z " />
<glyph glyph-name="itilde" unicode="&#x129;" horiz-adv-x="262" d="M230 717 L292 694 Q271 594 198 594 Q173 594 128 610.5 Q83 627 72 627 Q59 627 50 619 Q41 611 31 590 L-32 614 Q0 714 61 714 Q87 714 130.5 697 Q174 680 190 680 Q204 680 212 687 Q220 694 230 717 Z M207 528 L207 0 L75 0 L75 528 L207 528 Z " />
<glyph glyph-name="Imacron" unicode="&#x12a;" horiz-adv-x="292" d="M77 0 L77 720 L215 720 L215 0 L77 0 Z M-2 784 L-2 873 L281 873 L281 784 L-2 784 Z " />
<glyph glyph-name="imacron" unicode="&#x12b;" horiz-adv-x="262" d="M-13 608 L-13 697 L270 697 L270 608 L-13 608 Z M207 528 L207 0 L75 0 L75 528 L207 528 Z " />
<glyph glyph-name="Ibreve" unicode="&#x12c;" horiz-adv-x="292" d="M77 0 L77 720 L215 720 L215 0 L77 0 Z M151 843 Q190 843 207 859.5 Q224 876 228 906 L308 893 Q301 829 263 797.5 Q225 766 151 766 Q76 766 39 796 Q2 826 -8 893 L75 907 Q81 875 97.5 859 Q114 843 151 843 Z " />
<glyph glyph-name="ibreve" unicode="&#x12d;" horiz-adv-x="262" d="M134 668 Q201 668 211 738 L291 725 Q279 591 134 591 Q60 591 22.5 623 Q-15 655 -25 725 L56 739 Q65 702 81.5 685 Q98 668 134 668 Z M207 528 L207 0 L75 0 L75 528 L207 528 Z " />
<glyph glyph-name="Iogonek" unicode="&#x12e;" horiz-adv-x="292" d="M77 0 L77 720 L215 720 L215 0 Q119 -65 119 -117 Q119 -149 148 -149 Q175 -149 203 -137 L222 -201 Q171 -231 112 -231 Q15 -231 15 -152 Q15 -71 109 0 L77 0 Z " />
<glyph glyph-name="iogonek" unicode="&#x12f;" horiz-adv-x="282" d="M207 528 L207 0 Q117 -74 117 -117 Q117 -149 146 -149 Q173 -149 201 -137 L220 -201 Q169 -231 110 -231 Q13 -231 13 -152 Q13 -77 102 0 L75 0 L75 528 L207 528 Z M64 663 Q64 695 86.5 713 Q109 731 144 731 Q179 731 201 713 Q223 695 223 663 Q223 632 201 614.5 Q179 597 144 597 Q110 597 87 614.5 Q64 632 64 663 Z " />
<glyph glyph-name="Idotaccent" unicode="&#x130;" horiz-adv-x="292" d="M77 0 L77 720 L215 720 L215 0 L77 0 Z M72 837 Q72 869 94.5 887 Q117 905 152 905 Q187 905 209 887 Q231 869 231 837 Q231 806 209 788.5 Q187 771 152 771 Q118 771 95 788.5 Q72 806 72 837 Z " />
<glyph glyph-name="dotlessi" unicode="&#x131;" horiz-adv-x="282" d="M207 528 L207 0 L75 0 L75 528 L207 528 Z " />
<glyph glyph-name="IJ" unicode="&#x132;" horiz-adv-x="710" d="M76 0 L76 720 L214 720 L214 0 L76 0 Z M638 720 L638 185 Q638 -13 461 -13 Q370 -13 306 14 L323 122 Q368 106 416 106 Q463 106 481 127.5 Q499 149 499 206 L499 720 L638 720 Z " />
<glyph glyph-name="ij" unicode="&#x133;" horiz-adv-x="546" d="M64 663 Q64 695 86.5 713 Q109 731 144 731 Q179 731 201 713 Q223 695 223 663 Q223 632 201 614.5 Q179 597 144 597 Q110 597 87 614.5 Q64 632 64 663 Z M207 528 L207 0 L75 0 L75 528 L207 528 Z M471 528 L471 -50 Q471 -126 437 -165 Q403 -204 327 -204 Q280 -204 236 -190 L246 -97 Q272 -103 293 -103 Q318 -103 328.5 -90.5 Q339 -78 339 -43 L339 528 L471 528 Z M326 663 Q326 695 348.5 713 Q371 731 406 731 Q441 731 463 713 Q485 695 485 663 Q485 632 463 614.5 Q441 597 406 597 Q372 597 349 614.5 Q326 632 326 663 Z " />
<glyph glyph-name="Jcircumflex" unicode="&#x134;" horiz-adv-x="431" d="M359 720 L359 185 Q359 -13 182 -13 Q91 -13 27 14 L44 122 Q89 106 137 106 Q184 106 202 127.5 Q220 149 220 206 L220 720 L359 720 Z M242 923 L321 923 L430 810 L372 761 L284 827 L197 761 L137 811 L242 923 Z " />
<glyph glyph-name="jcircumflex" unicode="&#x135;" horiz-adv-x="264" d="M198 528 L198 -50 Q198 -126 164 -165 Q130 -204 54 -204 Q5 -204 -33 -192 L-25 -98 Q-3 -103 18 -103 Q44 -103 55 -90.5 Q66 -78 66 -43 L66 528 L198 528 Z M90 761 L169 761 L280 617 L222 576 L131 665 L40 576 L-21 616 L90 761 Z " />
<glyph glyph-name="Kcommaaccent" unicode="&#x136;" horiz-adv-x="679" d="M75 0 L75 720 L213 720 L213 423 L314 423 L479 720 L633 720 L433 369 L660 0 L500 0 L312 309 L213 309 L213 0 L75 0 Z M249 -233 L289 -57 L399 -84 L337 -257 L249 -233 Z " />
<glyph glyph-name="kcommaaccent" unicode="&#x137;" horiz-adv-x="571" d="M202 720 L202 346 L267 346 L383 528 L529 528 L372 294 L553 0 L398 0 L258 236 L202 236 L202 0 L69 0 L69 720 L202 720 Z M197 -233 L237 -57 L347 -84 L285 -257 L197 -233 Z " />
<glyph glyph-name="kgreenlandic" unicode="&#x138;" horiz-adv-x="551" d="M202 528 L202 336 L250 336 L389 528 L529 528 L358 286 L555 0 L406 0 L242 233 L202 233 L202 0 L69 0 L69 528 L202 528 Z " />
<glyph glyph-name="Lacute" unicode="&#x139;" horiz-adv-x="563" d="M75 720 L213 720 L213 122 L526 122 L526 0 L75 0 L75 720 Z M25 827 L203 934 L257 837 L70 750 L25 827 Z " />
<glyph glyph-name="lacute" unicode="&#x13a;" horiz-adv-x="277" d="M205 0 L72 0 L72 720 L205 720 L205 0 Z M18 827 L196 934 L250 837 L63 750 L18 827 Z " />
<glyph glyph-name="Lcommaaccent" unicode="&#x13b;" horiz-adv-x="563" d="M75 720 L213 720 L213 122 L526 122 L526 0 L75 0 L75 720 Z M195 -233 L235 -57 L345 -84 L283 -257 L195 -233 Z " />
<glyph glyph-name="lcommaaccent" unicode="&#x13c;" horiz-adv-x="277" d="M205 0 L72 0 L72 720 L205 720 L205 0 Z M35 -233 L75 -57 L185 -84 L123 -257 L35 -233 Z " />
<glyph glyph-name="Lcaron" unicode="&#x13d;" horiz-adv-x="563" d="M75 720 L213 720 L213 122 L526 122 L526 0 L75 0 L75 720 Z M295 522 L326 720 L447 720 L393 522 L295 522 Z " />
<glyph glyph-name="lcaron" unicode="&#x13e;" horiz-adv-x="322" d="M205 0 L72 0 L72 720 L205 720 L205 0 Z M241 522 L272 720 L393 720 L339 522 L241 522 Z " />
<glyph glyph-name="Ldot" unicode="&#x13f;" horiz-adv-x="563" d="M75 720 L213 720 L213 122 L526 122 L526 0 L75 0 L75 720 Z M343 375 Q343 407 365.5 425 Q388 443 423 443 Q458 443 480 425 Q502 407 502 375 Q502 344 480 326.5 Q458 309 423 309 Q389 309 366 326.5 Q343 344 343 375 Z " />
<glyph glyph-name="ldot" unicode="&#x140;" horiz-adv-x="396" d="M205 0 L72 0 L72 720 L205 720 L205 0 Z M256 369 Q256 401 278.5 419 Q301 437 336 437 Q371 437 393 419 Q415 401 415 369 Q415 338 393 320.5 Q371 303 336 303 Q302 303 279 320.5 Q256 338 256 369 Z " />
<glyph glyph-name="Lslash" unicode="&#x141;" horiz-adv-x="563" d="M75 720 L213 720 L213 444 L246 456 L394 514 L394 399 L248 342 L213 330 L213 122 L526 122 L526 0 L75 0 L75 282 L55 275 L-9 250 L-9 366 L56 391 L75 397 L75 720 Z " />
<glyph glyph-name="lslash" unicode="&#x142;" horiz-adv-x="303" d="M220 0 L87 0 L87 281 L11 246 L11 368 L81 399 L87 401 L87 720 L220 720 L220 448 L295 481 L295 360 L227 329 L220 326 L220 0 Z " />
<glyph glyph-name="Nacute" unicode="&#x143;" horiz-adv-x="729" d="M75 0 L75 720 L197 720 L517 233 L517 720 L654 720 L654 0 L533 0 L211 481 L211 0 L75 0 Z M268 827 L446 934 L500 837 L313 750 L268 827 Z " />
<glyph glyph-name="nacute" unicode="&#x144;" horiz-adv-x="594" d="M69 528 L180 528 L191 458 Q262 540 362 540 Q444 540 486.5 491 Q529 442 529 354 L529 0 L396 0 L396 314 Q396 373 375.5 400 Q355 427 313 427 Q252 427 202 368 L202 0 L69 0 L69 528 Z M205 645 L361 788 L430 705 L264 579 L205 645 Z " />
<glyph glyph-name="Ncommaaccent" unicode="&#x145;" horiz-adv-x="729" d="M75 0 L75 720 L197 720 L517 233 L517 720 L654 720 L654 0 L533 0 L211 481 L211 0 L75 0 Z M278 -233 L318 -57 L428 -84 L366 -257 L278 -233 Z " />
<glyph glyph-name="ncommaaccent" unicode="&#x146;" horiz-adv-x="594" d="M69 528 L180 528 L191 458 Q262 540 362 540 Q444 540 486.5 491 Q529 442 529 354 L529 0 L396 0 L396 314 Q396 373 375.5 400 Q355 427 313 427 Q252 427 202 368 L202 0 L69 0 L69 528 Z M202 -233 L242 -57 L352 -84 L290 -257 L202 -233 Z " />
<glyph glyph-name="Ncaron" unicode="&#x147;" horiz-adv-x="729" d="M75 0 L75 720 L197 720 L517 233 L517 720 L654 720 L654 0 L533 0 L211 481 L211 0 L75 0 Z M409 761 L330 761 L225 873 L285 923 L372 857 L460 923 L518 874 L409 761 Z " />
<glyph glyph-name="ncaron" unicode="&#x148;" horiz-adv-x="594" d="M69 528 L180 528 L191 458 Q262 540 362 540 Q444 540 486.5 491 Q529 442 529 354 L529 0 L396 0 L396 314 Q396 373 375.5 400 Q355 427 313 427 Q252 427 202 368 L202 0 L69 0 L69 528 Z M330 581 L251 581 L143 723 L202 767 L292 677 L383 766 L441 725 L330 581 Z " />
<glyph glyph-name="napostrophe" unicode="&#x149;" horiz-adv-x="608" d="M3 652 Q3 674 19 688.5 Q35 703 60 703 Q91 703 106.5 683.5 Q122 664 122 634 Q122 538 22 506 L6 544 Q59 566 61 611 Q54 607 45 607 Q26 607 14.5 620 Q3 633 3 652 Z M108 528 L219 528 L230 458 Q301 540 401 540 Q483 540 525.5 491 Q568 442 568 354 L568 0 L435 0 L435 314 Q435 373 414.5 400 Q394 427 352 427 Q291 427 241 368 L241 0 L108 0 L108 528 Z " />
<glyph glyph-name="Eng" unicode="&#x14a;" horiz-adv-x="711" d="M66 0 L66 720 L187 720 L509 224 L509 720 L645 720 L645 -40 Q645 -117 604.5 -160.5 Q564 -204 480 -204 Q402 -204 356 -185 L365 -98 Q401 -110 442 -110 Q511 -110 511 -29 L511 19 L202 484 L202 0 L66 0 Z " />
<glyph glyph-name="eng" unicode="&#x14b;" horiz-adv-x="569" d="M69 528 L180 528 L191 458 Q262 540 362 540 Q444 540 487 491 Q530 442 530 354 L530 -51 Q530 -126 496 -165 Q462 -204 386 -204 Q334 -204 296 -192 L305 -97 Q324 -103 351 -103 Q376 -103 386 -90.5 Q396 -78 396 -42 L396 314 Q396 373 375.5 400 Q355 427 313 427 Q252 427 202 368 L202 0 L69 0 L69 528 Z " />
<glyph glyph-name="Omacron" unicode="&#x14c;" horiz-adv-x="790" d="M197 364 Q197 244 249 178.5 Q301 113 395 113 Q490 113 541.5 178 Q593 243 593 364 Q593 476 540.5 541 Q488 606 396 606 Q302 606 249.5 540.5 Q197 475 197 364 Z M52 364 Q52 536 145.5 634 Q239 732 395 732 Q552 732 645 634 Q738 536 738 364 Q738 183 645.5 85 Q553 -13 395 -13 Q237 -13 144.5 85.5 Q52 184 52 364 Z M248 784 L248 873 L531 873 L531 784 L248 784 Z " />
<glyph glyph-name="omacron" unicode="&#x14d;" horiz-adv-x="621" d="M188 264 Q188 179 221 139 Q254 99 310 99 Q367 99 400 139 Q433 179 433 264 Q433 348 399.5 389 Q366 430 310 430 Q254 430 221 388 Q188 346 188 264 Z M48 261 Q48 394 121.5 467 Q195 540 312 540 Q428 540 500.5 468 Q573 396 573 264 Q573 133 498.5 60 Q424 -13 305 -13 Q185 -13 116.5 58.5 Q48 130 48 261 Z M166 608 L166 697 L449 697 L449 608 L166 608 Z " />
<glyph glyph-name="Obreve" unicode="&#x14e;" horiz-adv-x="790" d="M197 364 Q197 244 249 178.5 Q301 113 395 113 Q490 113 541.5 178 Q593 243 593 364 Q593 476 540.5 541 Q488 606 396 606 Q302 606 249.5 540.5 Q197 475 197 364 Z M52 364 Q52 536 145.5 634 Q239 732 395 732 Q552 732 645 634 Q738 536 738 364 Q738 183 645.5 85 Q553 -13 395 -13 Q237 -13 144.5 85.5 Q52 184 52 364 Z M389 843 Q428 843 445 859.5 Q462 876 466 906 L546 893 Q539 829 501 797.5 Q463 766 389 766 Q314 766 277 796 Q240 826 230 893 L313 907 Q319 875 335.5 859 Q352 843 389 843 Z " />
<glyph glyph-name="obreve" unicode="&#x14f;" horiz-adv-x="621" d="M188 264 Q188 179 221 139 Q254 99 310 99 Q367 99 400 139 Q433 179 433 264 Q433 348 399.5 389 Q366 430 310 430 Q254 430 221 388 Q188 346 188 264 Z M48 261 Q48 394 121.5 467 Q195 540 312 540 Q428 540 500.5 468 Q573 396 573 264 Q573 133 498.5 60 Q424 -13 305 -13 Q185 -13 116.5 58.5 Q48 130 48 261 Z M310 668 Q377 668 387 738 L467 725 Q455 591 310 591 Q236 591 198.5 623 Q161 655 151 725 L232 739 Q241 702 257.5 685 Q274 668 310 668 Z " />
<glyph glyph-name="Ohungarumlaut" unicode="&#x150;" horiz-adv-x="790" d="M197 364 Q197 244 249 178.5 Q301 113 395 113 Q490 113 541.5 178 Q593 243 593 364 Q593 476 540.5 541 Q488 606 396 606 Q302 606 249.5 540.5 Q197 475 197 364 Z M52 364 Q52 536 145.5 634 Q239 732 395 732 Q552 732 645 634 Q738 536 738 364 Q738 183 645.5 85 Q553 -13 395 -13 Q237 -13 144.5 85.5 Q52 184 52 364 Z M358 960 L439 897 L307 751 L242 802 L358 960 Z M526 945 L602 877 L470 750 L409 806 L526 945 Z " />
<glyph glyph-name="ohungarumlaut" unicode="&#x151;" horiz-adv-x="621" d="M188 264 Q188 179 221 139 Q254 99 310 99 Q367 99 400 139 Q433 179 433 264 Q433 348 399.5 389 Q366 430 310 430 Q254 430 221 388 Q188 346 188 264 Z M48 261 Q48 394 121.5 467 Q195 540 312 540 Q428 540 500.5 468 Q573 396 573 264 Q573 133 498.5 60 Q424 -13 305 -13 Q185 -13 116.5 58.5 Q48 130 48 261 Z M270 780 L352 731 L240 581 L172 622 L270 780 Z M425 767 L506 717 L394 581 L328 622 L425 767 Z " />
<glyph glyph-name="OE" unicode="&#x152;" horiz-adv-x="1124" d="M601 0 L601 113 Q571 53 508.5 20.5 Q446 -12 366 -12 Q224 -12 138 84.5 Q52 181 52 365 Q52 542 141.5 637.5 Q231 733 377 733 Q452 733 512 700.5 Q572 668 601 611 L601 720 L1069 720 L1069 598 L727 598 L727 425 L1038 425 L1038 303 L727 303 L727 122 L1074 122 L1074 0 L601 0 Z M197 365 Q197 245 249 179.5 Q301 114 395 114 Q485 114 538 176.5 Q591 239 591 364 Q591 484 538.5 545 Q486 606 395 606 Q302 606 249.5 541 Q197 476 197 365 Z " />
<glyph glyph-name="oe" unicode="&#x153;" horiz-adv-x="952" d="M48 261 Q48 393 120 466.5 Q192 540 303 540 Q439 540 496 421 Q518 472 567.5 506 Q617 540 686 540 Q793 540 850.5 476 Q908 412 908 286 Q908 234 905 220 L565 220 Q579 97 697 97 Q771 97 852 143 L897 53 Q806 -13 687 -13 Q544 -13 492 98 Q430 -13 292 -13 Q181 -13 114.5 59 Q48 131 48 261 Z M188 264 Q188 179 221 138 Q254 97 310 97 Q366 97 399.5 138 Q433 179 433 264 Q433 349 399.5 390.5 Q366 432 310 432 Q255 432 221.5 389.5 Q188 347 188 264 Z M566 309 L781 309 Q779 440 681 440 Q641 440 613.5 416 Q586 392 576.5 364.5 Q567 337 566 309 Z " />
<glyph glyph-name="Racute" unicode="&#x154;" horiz-adv-x="667" d="M75 720 L334 720 Q463 720 530.5 660 Q598 600 598 495 Q598 357 483 297 L637 0 L487 0 L354 265 Q319 260 290 260 L213 260 L213 0 L75 0 L75 720 Z M328 601 L213 601 L213 371 L322 371 Q457 371 457 489 Q457 601 328 601 Z M185 827 L363 934 L417 837 L230 750 L185 827 Z " />
<glyph glyph-name="racute" unicode="&#x155;" horiz-adv-x="375" d="M175 528 L187 452 Q207 491 238 515.5 Q269 540 304 540 Q328 540 356 529 L346 408 Q322 415 296 415 Q268 415 242.5 395 Q217 375 202 350 L202 0 L69 0 L69 528 L175 528 Z M116 645 L272 788 L341 705 L175 579 L116 645 Z " />
<glyph glyph-name="Rcommaaccent" unicode="&#x156;" horiz-adv-x="667" d="M75 720 L334 720 Q463 720 530.5 660 Q598 600 598 495 Q598 357 483 297 L637 0 L487 0 L354 265 Q319 260 290 260 L213 260 L213 0 L75 0 L75 720 Z M328 601 L213 601 L213 371 L322 371 Q457 371 457 489 Q457 601 328 601 Z M244 -233 L284 -57 L394 -84 L332 -257 L244 -233 Z " />
<glyph glyph-name="rcommaaccent" unicode="&#x157;" horiz-adv-x="375" d="M175 528 L187 452 Q207 491 238 515.5 Q269 540 304 540 Q328 540 356 529 L346 408 Q322 415 296 415 Q268 415 242.5 395 Q217 375 202 350 L202 0 L69 0 L69 528 L175 528 Z M32 -233 L72 -57 L182 -84 L120 -257 L32 -233 Z " />
<glyph glyph-name="Rcaron" unicode="&#x158;" horiz-adv-x="667" d="M75 720 L334 720 Q463 720 530.5 660 Q598 600 598 495 Q598 357 483 297 L637 0 L487 0 L354 265 Q319 260 290 260 L213 260 L213 0 L75 0 L75 720 Z M328 601 L213 601 L213 371 L322 371 Q457 371 457 489 Q457 601 328 601 Z M333 761 L254 761 L149 873 L209 923 L296 857 L384 923 L442 874 L333 761 Z " />
<glyph glyph-name="rcaron" unicode="&#x159;" horiz-adv-x="375" d="M175 528 L187 452 Q207 491 238 515.5 Q269 540 304 540 Q328 540 356 529 L346 408 Q322 415 296 415 Q268 415 242.5 395 Q217 375 202 350 L202 0 L69 0 L69 528 L175 528 Z M247 581 L168 581 L60 723 L119 767 L209 677 L300 766 L358 725 L247 581 Z " />
<glyph glyph-name="Sacute" unicode="&#x15a;" horiz-adv-x="615" d="M31 107 L100 192 Q208 102 313 102 Q361 102 391.5 127.5 Q422 153 422 196 Q422 238 391 263.5 Q360 289 271 314 Q157 346 108.5 392.5 Q60 439 60 523 Q60 625 129.5 678.5 Q199 732 310 732 Q455 732 556 631 L489 549 Q409 620 313 620 Q263 620 232.5 598.5 Q202 577 202 537 Q202 494 236 472.5 Q270 451 369 418 Q476 383 521 337.5 Q566 292 566 210 Q566 106 496 46.5 Q426 -13 308 -13 Q145 -13 31 107 Z M197 827 L375 934 L429 837 L242 750 L197 827 Z " />
<glyph glyph-name="sacute" unicode="&#x15b;" horiz-adv-x="524" d="M33 79 L92 159 Q181 91 259 91 Q294 91 313.5 105.5 Q333 120 333 145 Q333 172 312.5 187 Q292 202 228 218 Q141 240 103.5 276.5 Q66 313 66 377 Q66 453 120.5 496.5 Q175 540 266 540 Q388 540 476 460 L417 383 Q339 439 272 439 Q199 439 199 392 Q199 365 222.5 352 Q246 339 314 319 Q402 294 439.5 260 Q477 226 477 162 Q477 79 420 33 Q363 -13 266 -13 Q129 -13 33 79 Z M163 645 L319 788 L388 705 L222 579 L163 645 Z " />
<glyph glyph-name="Scircumflex" unicode="&#x15c;" horiz-adv-x="615" d="M31 107 L100 192 Q208 102 313 102 Q361 102 391.5 127.5 Q422 153 422 196 Q422 238 391 263.5 Q360 289 271 314 Q157 346 108.5 392.5 Q60 439 60 523 Q60 625 129.5 678.5 Q199 732 310 732 Q455 732 556 631 L489 549 Q409 620 313 620 Q263 620 232.5 598.5 Q202 577 202 537 Q202 494 236 472.5 Q270 451 369 418 Q476 383 521 337.5 Q566 292 566 210 Q566 106 496 46.5 Q426 -13 308 -13 Q145 -13 31 107 Z M274 923 L353 923 L462 810 L404 761 L316 827 L229 761 L169 811 L274 923 Z " />
<glyph glyph-name="scircumflex" unicode="&#x15d;" horiz-adv-x="524" d="M33 79 L92 159 Q181 91 259 91 Q294 91 313.5 105.5 Q333 120 333 145 Q333 172 312.5 187 Q292 202 228 218 Q141 240 103.5 276.5 Q66 313 66 377 Q66 453 120.5 496.5 Q175 540 266 540 Q388 540 476 460 L417 383 Q339 439 272 439 Q199 439 199 392 Q199 365 222.5 352 Q246 339 314 319 Q402 294 439.5 260 Q477 226 477 162 Q477 79 420 33 Q363 -13 266 -13 Q129 -13 33 79 Z M227 761 L306 761 L417 617 L359 576 L268 665 L177 576 L116 616 L227 761 Z " />
<glyph glyph-name="Scedilla" unicode="&#x15e;" horiz-adv-x="615" d="M217 -205 L232 -148 Q260 -158 289 -158 Q330 -158 330 -128 Q330 -97 271 -97 L253 -97 L272 -11 Q131 1 31 107 L100 192 Q208 102 313 102 Q361 102 391.5 127.5 Q422 153 422 196 Q422 238 391 263.5 Q360 289 271 314 Q157 346 108.5 392.5 Q60 439 60 523 Q60 625 129.5 678.5 Q199 732 310 732 Q455 732 556 631 L489 549 Q409 620 313 620 Q263 620 232.5 598.5 Q202 577 202 537 Q202 494 236 472.5 Q270 451 369 418 Q476 383 521 337.5 Q566 292 566 210 Q566 113 504.5 54.5 Q443 -4 336 -12 L328 -52 Q346 -54 358.5 -57.5 Q371 -61 385.5 -69 Q400 -77 407.5 -92 Q415 -107 415 -129 Q415 -174 384.5 -197.5 Q354 -221 304 -221 Q252 -221 217 -205 Z " />
<glyph glyph-name="scedilla" unicode="&#x15f;" horiz-adv-x="524" d="M158 -205 L173 -148 Q201 -158 230 -158 Q271 -158 271 -128 Q271 -97 212 -97 L194 -97 L213 -9 Q107 7 33 79 L89 155 Q127 126 173.5 108 Q220 90 258 90 Q293 90 313 105 Q333 120 333 145 Q333 172 312 187 Q291 202 228 218 Q139 241 99 276.5 Q59 312 59 375 Q59 451 115 495.5 Q171 540 266 540 Q386 540 476 458 L420 385 Q345 439 274 439 Q201 439 201 392 Q201 365 224 351.5 Q247 338 314 319 Q402 294 439.5 260 Q477 226 477 162 Q477 82 423 36 Q369 -10 277 -13 L269 -52 Q287 -54 299.5 -57.5 Q312 -61 326.5 -69 Q341 -77 348.5 -92 Q356 -107 356 -129 Q356 -174 325.5 -197.5 Q295 -221 245 -221 Q193 -221 158 -205 Z " />
<glyph glyph-name="Scaron" unicode="&#x160;" horiz-adv-x="615" d="M31 107 L100 192 Q208 102 313 102 Q361 102 391.5 127.5 Q422 153 422 196 Q422 238 391 263.5 Q360 289 271 314 Q157 346 108.5 392.5 Q60 439 60 523 Q60 625 129.5 678.5 Q199 732 310 732 Q455 732 556 631 L489 549 Q409 620 313 620 Q263 620 232.5 598.5 Q202 577 202 537 Q202 494 236 472.5 Q270 451 369 418 Q476 383 521 337.5 Q566 292 566 210 Q566 106 496 46.5 Q426 -13 308 -13 Q145 -13 31 107 Z M346 761 L267 761 L162 873 L222 923 L309 857 L397 923 L455 874 L346 761 Z " />
<glyph glyph-name="scaron" unicode="&#x161;" horiz-adv-x="524" d="M33 79 L92 159 Q181 91 259 91 Q294 91 313.5 105.5 Q333 120 333 145 Q333 172 312.5 187 Q292 202 228 218 Q141 240 103.5 276.5 Q66 313 66 377 Q66 453 120.5 496.5 Q175 540 266 540 Q388 540 476 460 L417 383 Q339 439 272 439 Q199 439 199 392 Q199 365 222.5 352 Q246 339 314 319 Q402 294 439.5 260 Q477 226 477 162 Q477 79 420 33 Q363 -13 266 -13 Q129 -13 33 79 Z M305 581 L226 581 L118 723 L177 767 L267 677 L358 766 L416 725 L305 581 Z " />
<glyph glyph-name="Scommaaccent" unicode="&#x218;" horiz-adv-x="615" d="M31 107 L100 192 Q208 102 313 102 Q361 102 391.5 127.5 Q422 153 422 196 Q422 238 391 263.5 Q360 289 271 314 Q157 346 108.5 392.5 Q60 439 60 523 Q60 625 129.5 678.5 Q199 732 310 732 Q455 732 556 631 L489 549 Q409 620 313 620 Q263 620 232.5 598.5 Q202 577 202 537 Q202 494 236 472.5 Q270 451 369 418 Q476 383 521 337.5 Q566 292 566 210 Q566 106 496 46.5 Q426 -13 308 -13 Q145 -13 31 107 Z M217 -233 L257 -57 L367 -84 L305 -257 L217 -233 Z " />
<glyph glyph-name="scommaaccent" unicode="&#x219;" horiz-adv-x="524" d="M33 79 L92 159 Q181 91 259 91 Q294 91 313.5 105.5 Q333 120 333 145 Q333 172 312.5 187 Q292 202 228 218 Q141 240 103.5 276.5 Q66 313 66 377 Q66 453 120.5 496.5 Q175 540 266 540 Q388 540 476 460 L417 383 Q339 439 272 439 Q199 439 199 392 Q199 365 222.5 352 Q246 339 314 319 Q402 294 439.5 260 Q477 226 477 162 Q477 79 420 33 Q363 -13 266 -13 Q129 -13 33 79 Z M166 -233 L206 -57 L316 -84 L254 -257 L166 -233 Z " />
<glyph glyph-name="uni021A" unicode="&#x21a;" horiz-adv-x="617" d="M240 0 L240 598 L24 598 L24 720 L593 720 L593 598 L378 598 L378 0 L240 0 Z M208 -233 L248 -57 L358 -84 L296 -257 L208 -233 Z " />
<glyph glyph-name="uni021B" unicode="&#x21b;" horiz-adv-x="359" d="M324 428 L229 428 L229 132 Q229 89 263 89 Q298 89 325 98 L338 7 Q280 -13 214 -13 Q97 -13 97 105 L97 428 L28 428 L28 505 L99 527 L113 679 L229 679 L229 528 L324 528 L324 428 Z M112 -233 L152 -57 L262 -84 L200 -257 L112 -233 Z " />
<glyph glyph-name="Tcaron" unicode="&#x164;" horiz-adv-x="617" d="M240 0 L240 598 L24 598 L24 720 L593 720 L593 598 L378 598 L378 0 L240 0 Z M341 761 L262 761 L157 873 L217 923 L304 857 L392 923 L450 874 L341 761 Z " />
<glyph glyph-name="tcaron" unicode="&#x165;" horiz-adv-x="359" d="M324 428 L229 428 L229 132 Q229 89 263 89 Q298 89 325 98 L338 7 Q280 -13 214 -13 Q97 -13 97 105 L97 428 L28 428 L28 505 L99 527 L113 679 L229 679 L229 528 L324 528 L324 428 Z M276 583 L307 781 L428 781 L374 583 L276 583 Z " />
<glyph glyph-name="Tbar" unicode="&#x166;" horiz-adv-x="617" d="M117 296 L117 404 L240 404 L240 598 L24 598 L24 720 L593 720 L593 598 L378 598 L378 404 L497 404 L497 296 L378 296 L378 0 L240 0 L240 296 L117 296 Z " />
<glyph glyph-name="tbar" unicode="&#x167;" horiz-adv-x="359" d="M313 428 L229 428 L229 339 L313 339 L313 249 L229 249 L229 132 Q229 89 263 89 Q298 89 325 98 L338 7 Q280 -13 214 -13 Q97 -13 97 105 L97 249 L28 249 L28 339 L97 339 L97 428 L28 428 L28 505 L99 527 L113 679 L229 679 L229 528 L313 528 L313 428 Z " />
<glyph glyph-name="uni0162" unicode="&#x162;" horiz-adv-x="617" d="M240 0 L240 598 L24 598 L24 720 L593 720 L593 598 L378 598 L378 0 L336 0 L326 -52 Q344 -54 356.5 -57.5 Q369 -61 383.5 -69 Q398 -77 405.5 -92 Q413 -107 413 -129 Q413 -174 382.5 -197.5 Q352 -221 302 -221 Q250 -221 215 -205 L230 -148 Q258 -158 287 -158 Q328 -158 328 -128 Q328 -97 269 -97 L251 -97 L272 0 L240 0 Z " />
<glyph glyph-name="uni0163" unicode="&#x163;" horiz-adv-x="359" d="M106 -205 L121 -148 Q149 -158 178 -158 Q219 -158 219 -128 Q219 -97 160 -97 L142 -97 L162 -5 Q97 17 97 105 L97 428 L28 428 L28 505 L99 527 L113 679 L229 679 L229 528 L313 528 L313 428 L229 428 L229 132 Q229 89 263 89 Q298 89 325 98 L338 7 Q290 -9 225 -13 L217 -52 Q235 -54 247.5 -57.5 Q260 -61 274.5 -69 Q289 -77 296.5 -92 Q304 -107 304 -129 Q304 -174 273.5 -197.5 Q243 -221 193 -221 Q141 -221 106 -205 Z " />
<glyph glyph-name="Utilde" unicode="&#x168;" horiz-adv-x="715" d="M72 720 L210 720 L210 278 Q210 194 249 152 Q288 110 358 110 Q434 110 469.5 151.5 Q505 193 505 278 L505 720 L643 720 L643 272 Q643 132 569.5 60 Q496 -12 357 -12 Q220 -12 146 58 Q72 128 72 272 L72 720 Z M460 900 L522 877 Q501 777 428 777 Q403 777 358 793.5 Q313 810 302 810 Q289 810 280 802 Q271 794 261 773 L198 797 Q230 897 291 897 Q317 897 360.5 880 Q404 863 420 863 Q434 863 442 870 Q450 877 460 900 Z " />
<glyph glyph-name="utilde" unicode="&#x169;" horiz-adv-x="589" d="M520 0 L411 0 L400 69 Q328 -13 233 -13 Q65 -13 65 170 L65 528 L198 528 L198 202 Q198 150 216 124.5 Q234 99 277 99 Q338 99 387 156 L387 528 L520 528 L520 0 Z M383 717 L445 694 Q424 594 351 594 Q326 594 281 610.5 Q236 627 225 627 Q212 627 203 619 Q194 611 184 590 L121 614 Q153 714 214 714 Q240 714 283.5 697 Q327 680 343 680 Q357 680 365 687 Q373 694 383 717 Z " />
<glyph glyph-name="Umacron" unicode="&#x16a;" horiz-adv-x="715" d="M72 720 L210 720 L210 278 Q210 194 249 152 Q288 110 358 110 Q434 110 469.5 151.5 Q505 193 505 278 L505 720 L643 720 L643 272 Q643 132 569.5 60 Q496 -12 357 -12 Q220 -12 146 58 Q72 128 72 272 L72 720 Z M219 784 L219 873 L502 873 L502 784 L219 784 Z " />
<glyph glyph-name="umacron" unicode="&#x16b;" horiz-adv-x="589" d="M520 0 L411 0 L400 69 Q328 -13 233 -13 Q65 -13 65 170 L65 528 L198 528 L198 202 Q198 150 216 124.5 Q234 99 277 99 Q338 99 387 156 L387 528 L520 528 L520 0 Z M152 608 L152 697 L435 697 L435 608 L152 608 Z " />
<glyph glyph-name="Ubreve" unicode="&#x16c;" horiz-adv-x="715" d="M72 720 L210 720 L210 278 Q210 194 249 152 Q288 110 358 110 Q434 110 469.5 151.5 Q505 193 505 278 L505 720 L643 720 L643 272 Q643 132 569.5 60 Q496 -12 357 -12 Q220 -12 146 58 Q72 128 72 272 L72 720 Z M362 843 Q401 843 418 859.5 Q435 876 439 906 L519 893 Q512 829 474 797.5 Q436 766 362 766 Q287 766 250 796 Q213 826 203 893 L286 907 Q292 875 308.5 859 Q325 843 362 843 Z " />
<glyph glyph-name="ubreve" unicode="&#x16d;" horiz-adv-x="589" d="M520 0 L411 0 L400 69 Q328 -13 233 -13 Q65 -13 65 170 L65 528 L198 528 L198 202 Q198 150 216 124.5 Q234 99 277 99 Q338 99 387 156 L387 528 L520 528 L520 0 Z M298 668 Q365 668 375 738 L455 725 Q443 591 298 591 Q224 591 186.5 623 Q149 655 139 725 L220 739 Q229 702 245.5 685 Q262 668 298 668 Z " />
<glyph glyph-name="Uring" unicode="&#x16e;" horiz-adv-x="715" d="M72 720 L210 720 L210 278 Q210 194 249 152 Q288 110 358 110 Q434 110 469.5 151.5 Q505 193 505 278 L505 720 L643 720 L643 272 Q643 132 569.5 60 Q496 -12 357 -12 Q220 -12 146 58 Q72 128 72 272 L72 720 Z M322 835 Q322 796 364 796 Q404 796 404 837 Q404 876 364 876 Q322 876 322 835 Z M262 833 Q262 877 291 903.5 Q320 930 364 930 Q407 930 435.5 904.5 Q464 879 464 837 Q464 794 435.5 768 Q407 742 364 742 Q318 742 290 766 Q262 790 262 833 Z " />
<glyph glyph-name="uring" unicode="&#x16f;" horiz-adv-x="589" d="M520 0 L411 0 L400 69 Q328 -13 233 -13 Q65 -13 65 170 L65 528 L198 528 L198 202 Q198 150 216 124.5 Q234 99 277 99 Q338 99 387 156 L387 528 L520 528 L520 0 Z M258 668 Q258 629 300 629 Q340 629 340 670 Q340 709 300 709 Q258 709 258 668 Z M198 666 Q198 710 227 736.5 Q256 763 300 763 Q343 763 371.5 737.5 Q400 712 400 670 Q400 627 371.5 601 Q343 575 300 575 Q254 575 226 599 Q198 623 198 666 Z " />
<glyph glyph-name="Uhungarumlaut" unicode="&#x170;" horiz-adv-x="715" d="M72 720 L210 720 L210 278 Q210 194 249 152 Q288 110 358 110 Q434 110 469.5 151.5 Q505 193 505 278 L505 720 L643 720 L643 272 Q643 132 569.5 60 Q496 -12 357 -12 Q220 -12 146 58 Q72 128 72 272 L72 720 Z M328 960 L409 897 L277 751 L212 802 L328 960 Z M496 945 L572 877 L440 750 L379 806 L496 945 Z " />
<glyph glyph-name="uhungarumlaut" unicode="&#x171;" horiz-adv-x="589" d="M520 0 L411 0 L400 69 Q328 -13 233 -13 Q65 -13 65 170 L65 528 L198 528 L198 202 Q198 150 216 124.5 Q234 99 277 99 Q338 99 387 156 L387 528 L520 528 L520 0 Z M251 780 L333 731 L221 581 L153 622 L251 780 Z M406 767 L487 717 L375 581 L309 622 L406 767 Z " />
<glyph glyph-name="Uogonek" unicode="&#x172;" horiz-adv-x="715" d="M72 720 L210 720 L210 278 Q210 194 249 152 Q288 110 358 110 Q434 110 469.5 151.5 Q505 193 505 278 L505 720 L643 720 L643 272 Q643 174 606.5 115.5 Q570 57 497 10 Q453 -19 428 -54.5 Q403 -90 403 -117 Q403 -149 432 -149 Q459 -149 487 -137 L506 -201 Q455 -231 396 -231 Q299 -231 299 -152 Q299 -81 373 -12 L357 -12 Q220 -12 146 58 Q72 128 72 272 L72 720 Z " />
<glyph glyph-name="uogonek" unicode="&#x173;" horiz-adv-x="589" d="M520 0 Q434 -70 434 -117 Q434 -149 463 -149 Q490 -149 518 -137 L537 -201 Q486 -231 427 -231 Q330 -231 330 -152 Q330 -79 411 0 L400 69 Q328 -13 233 -13 Q65 -13 65 170 L65 528 L198 528 L198 202 Q198 150 216 124.5 Q234 99 277 99 Q338 99 387 156 L387 528 L520 528 L520 0 Z " />
<glyph glyph-name="Wcircumflex" unicode="&#x174;" horiz-adv-x="943" d="M200 0 L17 720 L158 720 L286 179 L409 720 L535 720 L660 179 L784 720 L926 720 L743 0 L596 0 L472 507 L350 0 L200 0 Z M425 923 L504 923 L613 810 L555 761 L467 827 L380 761 L320 811 L425 923 Z " />
<glyph glyph-name="wcircumflex" unicode="&#x175;" horiz-adv-x="790" d="M634 528 L766 528 L627 0 L483 0 L393 345 L306 0 L162 0 L24 528 L156 528 L240 151 L331 528 L456 528 L557 151 L634 528 Z M354 761 L433 761 L544 617 L486 576 L395 665 L304 576 L243 616 L354 761 Z " />
<glyph glyph-name="Wgrave" unicode="&#x1e80;" horiz-adv-x="943" d="M200 0 L17 720 L158 720 L286 179 L409 720 L535 720 L660 179 L784 720 L926 720 L743 0 L596 0 L472 507 L350 0 L200 0 Z M403 934 L581 827 L536 750 L349 837 L403 934 Z " />
<glyph glyph-name="wgrave" unicode="&#x1e81;" horiz-adv-x="790" d="M634 528 L766 528 L627 0 L483 0 L393 345 L306 0 L162 0 L24 528 L156 528 L240 151 L331 528 L456 528 L557 151 L634 528 Z M342 788 L498 645 L439 579 L273 705 L342 788 Z " />
<glyph glyph-name="Wacute" unicode="&#x1e82;" horiz-adv-x="943" d="M200 0 L17 720 L158 720 L286 179 L409 720 L535 720 L660 179 L784 720 L926 720 L743 0 L596 0 L472 507 L350 0 L200 0 Z M341 827 L519 934 L573 837 L386 750 L341 827 Z " />
<glyph glyph-name="wacute" unicode="&#x1e83;" horiz-adv-x="790" d="M634 528 L766 528 L627 0 L483 0 L393 345 L306 0 L162 0 L24 528 L156 528 L240 151 L331 528 L456 528 L557 151 L634 528 Z M271 645 L427 788 L496 705 L330 579 L271 645 Z " />
<glyph glyph-name="Wdieresis" unicode="&#x1e84;" horiz-adv-x="943" d="M200 0 L17 720 L158 720 L286 179 L409 720 L535 720 L660 179 L784 720 L926 720 L743 0 L596 0 L472 507 L350 0 L200 0 Z M303 833 Q303 860 321.5 877.5 Q340 895 372 895 Q406 895 424 877.5 Q442 860 442 833 Q442 806 422.5 789 Q403 772 372 772 Q339 772 321 788.5 Q303 805 303 833 Z M507 833 Q507 860 525.5 877.5 Q544 895 576 895 Q610 895 628 877.5 Q646 860 646 833 Q646 806 626.5 789 Q607 772 576 772 Q543 772 525 788.5 Q507 805 507 833 Z " />
<glyph glyph-name="wdieresis" unicode="&#x1e85;" horiz-adv-x="790" d="M634 528 L766 528 L627 0 L483 0 L393 345 L306 0 L162 0 L24 528 L156 528 L240 151 L331 528 L456 528 L557 151 L634 528 Z M223 656 Q223 683 241.5 700.5 Q260 718 292 718 Q326 718 344 700.5 Q362 683 362 656 Q362 629 342.5 612 Q323 595 292 595 Q259 595 241 611.5 Q223 628 223 656 Z M427 656 Q427 683 445.5 700.5 Q464 718 496 718 Q530 718 548 700.5 Q566 683 566 656 Q566 629 546.5 612 Q527 595 496 595 Q463 595 445 611.5 Q427 628 427 656 Z " />
<glyph glyph-name="Ygrave" unicode="&#x1ef2;" horiz-adv-x="643" d="M248 0 L248 287 L12 720 L163 720 L319 424 L476 720 L631 720 L387 287 L387 0 L248 0 Z M253 934 L431 827 L386 750 L199 837 L253 934 Z " />
<glyph glyph-name="ygrave" unicode="&#x1ef3;" horiz-adv-x="536" d="M384 528 L517 528 L339 21 Q324 -22 317.5 -40 Q311 -58 298 -89 Q285 -120 275.5 -132 Q266 -144 250 -162 Q234 -180 217 -186 Q200 -192 176.5 -197.5 Q153 -203 123 -203 Q79 -203 34 -191 L44 -97 Q81 -104 111 -104 Q143 -104 162.5 -89.5 Q182 -75 197 -30 L202 -15 L18 528 L157 528 L266 138 L384 528 Z M198 788 L354 645 L295 579 L129 705 L198 788 Z " />
<glyph glyph-name="Ycircumflex" unicode="&#x176;" horiz-adv-x="643" d="M248 0 L248 287 L12 720 L163 720 L319 424 L476 720 L631 720 L387 287 L387 0 L248 0 Z M281 923 L360 923 L469 810 L411 761 L323 827 L236 761 L176 811 L281 923 Z " />
<glyph glyph-name="ycircumflex" unicode="&#x177;" horiz-adv-x="536" d="M384 528 L517 528 L339 21 Q324 -22 317.5 -40 Q311 -58 298 -89 Q285 -120 275.5 -132 Q266 -144 250 -162 Q234 -180 217 -186 Q200 -192 176.5 -197.5 Q153 -203 123 -203 Q79 -203 34 -191 L44 -97 Q81 -104 111 -104 Q143 -104 162.5 -89.5 Q182 -75 197 -30 L202 -15 L18 528 L157 528 L266 138 L384 528 Z M230 761 L309 761 L420 617 L362 576 L271 665 L180 576 L119 616 L230 761 Z " />
<glyph glyph-name="Ydieresis" unicode="&#x178;" horiz-adv-x="643" d="M248 0 L248 287 L12 720 L163 720 L319 424 L476 720 L631 720 L387 287 L387 0 L248 0 Z M151 833 Q151 860 169.5 877.5 Q188 895 220 895 Q254 895 272 877.5 Q290 860 290 833 Q290 806 270.5 789 Q251 772 220 772 Q187 772 169 788.5 Q151 805 151 833 Z M355 833 Q355 860 373.5 877.5 Q392 895 424 895 Q458 895 476 877.5 Q494 860 494 833 Q494 806 474.5 789 Q455 772 424 772 Q391 772 373 788.5 Q355 805 355 833 Z " />
<glyph glyph-name="Zacute" unicode="&#x179;" horiz-adv-x="629" d="M38 0 L38 88 L385 598 L58 598 L58 720 L591 720 L591 665 L213 121 L590 121 L590 0 L38 0 Z M225 827 L403 934 L457 837 L270 750 L225 827 Z " />
<glyph glyph-name="zacute" unicode="&#x17a;" horiz-adv-x="480" d="M43 0 L43 83 L272 427 L48 427 L48 528 L442 528 L442 469 L200 100 L441 100 L441 0 L43 0 Z M145 645 L301 788 L370 705 L204 579 L145 645 Z " />
<glyph glyph-name="Zdotaccent" unicode="&#x17b;" horiz-adv-x="629" d="M38 0 L38 88 L385 598 L58 598 L58 720 L591 720 L591 665 L213 121 L590 121 L590 0 L38 0 Z M242 837 Q242 869 264.5 887 Q287 905 322 905 Q357 905 379 887 Q401 869 401 837 Q401 806 379 788.5 Q357 771 322 771 Q288 771 265 788.5 Q242 806 242 837 Z " />
<glyph glyph-name="zdotaccent" unicode="&#x17c;" horiz-adv-x="480" d="M43 0 L43 83 L272 427 L48 427 L48 528 L442 528 L442 469 L200 100 L441 100 L441 0 L43 0 Z M170 663 Q170 695 192.5 713 Q215 731 250 731 Q285 731 307 713 Q329 695 329 663 Q329 632 307 614.5 Q285 597 250 597 Q216 597 193 614.5 Q170 632 170 663 Z " />
<glyph glyph-name="Zcaron" unicode="&#x17d;" horiz-adv-x="629" d="M38 0 L38 88 L385 598 L58 598 L58 720 L591 720 L591 665 L213 121 L590 121 L590 0 L38 0 Z M367 761 L288 761 L183 873 L243 923 L330 857 L418 923 L476 874 L367 761 Z " />
<glyph glyph-name="zcaron" unicode="&#x17e;" horiz-adv-x="480" d="M43 0 L43 83 L272 427 L48 427 L48 528 L442 528 L442 469 L200 100 L441 100 L441 0 L43 0 Z M291 581 L212 581 L104 723 L163 767 L253 677 L344 766 L402 725 L291 581 Z " />
<glyph glyph-name="longs" unicode="&#x17f;" horiz-adv-x="313" d="M85 0 L85 431 L19 431 L19 507 L85 522 L85 577 Q85 650 121.5 691 Q158 732 233 732 Q282 732 321 721 L314 634 Q290 641 268 641 Q218 641 218 582 L218 0 L85 0 Z " />
<glyph glyph-name="dotlessj" unicode="&#x237;" horiz-adv-x="264" d="M198 528 L198 -50 Q198 -126 164 -165 Q130 -204 54 -204 Q5 -204 -33 -192 L-25 -98 Q-3 -103 18 -103 Q44 -103 55 -90.5 Q66 -78 66 -43 L66 528 L198 528 Z " />
<glyph glyph-name="ff" unicode="&#xfb00;" horiz-adv-x="636" d="M398 0 L398 428 L228 428 L228 0 L95 0 L95 428 L29 428 L29 507 L95 522 L95 565 Q95 638 131.5 679 Q168 720 243 720 Q287 720 333 709 L324 622 Q300 629 278 629 Q228 629 228 570 L228 528 L398 528 L398 577 Q398 650 434.5 691 Q471 732 546 732 Q596 732 634 721 L627 634 Q602 641 581 641 Q531 641 531 582 L531 528 L622 528 L622 428 L531 428 L531 0 L398 0 Z " />
<glyph glyph-name="fi" unicode="&#xfb01;" horiz-adv-x="605" d="M95 0 L95 428 L29 428 L29 507 L95 522 L95 577 Q95 650 131.5 691 Q168 732 243 732 Q292 732 331 721 L324 634 Q300 641 278 641 Q228 641 228 582 L228 528 L530 528 L530 0 L397 0 L397 428 L228 428 L228 0 L95 0 Z M386 663 Q386 695 408.5 713 Q431 731 466 731 Q501 731 523 713 Q545 695 545 663 Q545 632 523 614.5 Q501 597 466 597 Q432 597 409 614.5 Q386 632 386 663 Z " />
<glyph glyph-name="fl" unicode="&#xfb02;" horiz-adv-x="603" d="M95 0 L95 428 L29 428 L29 507 L95 522 L95 577 Q95 650 131.5 691 Q168 732 243 732 Q292 732 331 721 L324 634 Q300 641 278 641 Q228 641 228 582 L228 528 L398 528 L398 720 L531 720 L531 0 L398 0 L398 428 L228 428 L228 0 L95 0 Z " />
<glyph glyph-name="ft" unicode="&#xf603;" horiz-adv-x="657" d="M623 428 L527 428 L527 132 Q527 89 561 89 Q596 89 623 98 L636 7 Q578 -13 512 -13 Q395 -13 395 105 L395 428 L228 428 L228 0 L95 0 L95 428 L29 428 L29 507 L95 522 L95 577 Q95 650 131.5 691 Q168 732 243 732 Q292 732 331 721 L324 634 Q300 641 278 641 Q228 641 228 582 L228 528 L397 528 L411 679 L527 679 L527 528 L623 528 L623 428 Z " />
<glyph glyph-name="ffi" unicode="&#xfb03;" horiz-adv-x="907" d="M397 0 L397 428 L228 428 L228 0 L95 0 L95 428 L29 428 L29 507 L95 522 L95 565 Q95 638 131.5 679 Q168 720 243 720 Q287 720 333 709 L324 622 Q300 629 278 629 Q228 629 228 570 L228 528 L397 528 L397 577 Q397 650 433.5 691 Q470 732 545 732 Q594 732 633 721 L626 634 Q601 641 580 641 Q530 641 530 582 L530 528 L832 528 L832 0 L699 0 L699 428 L530 428 L530 0 L397 0 Z M688 663 Q688 695 710.5 713 Q733 731 768 731 Q803 731 825 713 Q847 695 847 663 Q847 632 825 614.5 Q803 597 768 597 Q734 597 711 614.5 Q688 632 688 663 Z " />
<glyph glyph-name="ffl" unicode="&#xfb04;" horiz-adv-x="903" d="M395 0 L395 428 L228 428 L228 0 L95 0 L95 428 L29 428 L29 507 L95 522 L95 565 Q95 638 131.5 679 Q168 720 243 720 Q287 720 333 709 L324 622 Q300 629 278 629 Q228 629 228 570 L228 528 L395 528 L395 577 Q395 650 431.5 691 Q468 732 543 732 Q592 732 631 721 L624 634 Q600 641 578 641 Q528 641 528 582 L528 528 L698 528 L698 720 L831 720 L831 0 L698 0 L698 428 L528 428 L528 0 L395 0 Z " />
<glyph glyph-name="perthousand" unicode="&#x2030;" horiz-adv-x="1212" d="M718 343 Q808 343 857 282 Q914 343 1000 343 Q1076 343 1124 295.5 Q1172 248 1172 167 Q1172 92 1121.5 41.5 Q1071 -9 998 -9 Q902 -9 855 53 Q801 -9 716 -9 Q639 -9 591 39 Q543 87 543 164 Q543 241 592.5 292 Q642 343 718 343 Z M223 712 Q304 712 355 662.5 Q406 613 406 536 Q406 460 354 409.5 Q302 359 223 359 Q139 359 89.5 407 Q40 455 40 533 Q40 611 90.5 661.5 Q141 712 223 712 Z M204 0 L643 720 L753 720 L312 0 L204 0 Z M164 599 Q142 575 142 536 Q142 497 164 473.5 Q186 450 223 450 Q260 450 281.5 474 Q303 498 303 536 Q303 574 281.5 598.5 Q260 623 223 623 Q186 623 164 599 Z M645 167 Q645 128 667.5 104.5 Q690 81 727 81 Q763 81 784.5 105 Q806 129 806 167 Q806 205 784.5 229.5 Q763 254 727 254 Q689 254 667 229.5 Q645 205 645 167 Z M909 167 Q909 128 931 104.5 Q953 81 990 81 Q1026 81 1047.5 105 Q1069 129 1069 167 Q1069 205 1047.5 229.5 Q1026 254 990 254 Q953 254 931 229.5 Q909 205 909 167 Z " />
<glyph glyph-name="percent" unicode="&#x25;" horiz-adv-x="949" d="M645 167 Q645 128 667.5 104.5 Q690 81 727 81 Q763 81 784.5 105 Q806 129 806 167 Q806 205 784.5 229.5 Q763 254 727 254 Q689 254 667 229.5 Q645 205 645 167 Z M543 164 Q543 242 594 292.5 Q645 343 727 343 Q808 343 858.5 293 Q909 243 909 167 Q909 91 857.5 41 Q806 -9 727 -9 Q642 -9 592.5 39 Q543 87 543 164 Z M164 599 Q142 575 142 536 Q142 497 164 473.5 Q186 450 223 450 Q260 450 281.5 474 Q303 498 303 536 Q303 574 281.5 598.5 Q260 623 223 623 Q186 623 164 599 Z M223 712 Q304 712 355 662.5 Q406 613 406 536 Q406 460 354 409.5 Q302 359 223 359 Q139 359 89.5 407 Q40 455 40 533 Q40 611 90.5 661.5 Q141 712 223 712 Z M204 0 L643 720 L753 720 L312 0 L204 0 Z " />
<glyph glyph-name="fraction" unicode="&#x2044;" horiz-adv-x="137" d="M-208 0 L233 720 L336 720 L-103 0 L-208 0 Z " />
<glyph glyph-name="zerosuperior" unicode="&#x2070;" horiz-adv-x="390" d="M26 587 Q26 676 71 728.5 Q116 781 196 781 Q275 781 319.5 729 Q364 677 364 589 Q364 498 318.5 445.5 Q273 393 192 393 Q114 393 70 443.5 Q26 494 26 587 Z M194 479 Q256 479 256 586 Q256 695 196 695 Q133 695 133 587 Q133 479 194 479 Z " />
<glyph glyph-name="onesuperior" unicode="&#xb9;" horiz-adv-x="293" d="M234 400 L127 400 L127 650 Q102 645 72 645 Q49 645 36 647 L28 711 Q107 729 151 774 L234 774 L234 400 Z " />
<glyph glyph-name="twosuperior" unicode="&#xb2;" horiz-adv-x="342" d="M29 400 L29 462 L154 584 Q174 603 181 611 Q188 619 196 632.5 Q204 646 204 659 Q204 695 153 695 Q110 695 55 656 L16 714 Q90 781 184 781 Q241 781 276.5 752.5 Q312 724 312 675 Q312 617 250 562 L159 481 L313 481 L313 400 L29 400 Z " />
<glyph glyph-name="threesuperior" unicode="&#xb3;" horiz-adv-x="346" d="M9 444 L45 504 Q102 469 150 469 Q215 469 215 513 Q215 554 143 554 Q125 554 104 551 L104 626 Q196 628 196 673 Q196 707 143 707 Q104 707 54 683 L29 741 Q94 781 173 781 Q234 781 267 757 Q300 733 300 687 Q300 655 279.5 631 Q259 607 224 597 Q319 588 319 506 Q319 451 276.5 422 Q234 393 164 393 Q68 393 9 444 Z " />
<glyph glyph-name="foursuperior" unicode="&#x2074;" horiz-adv-x="385" d="M221 702 L115 543 L221 543 L221 702 Z M221 400 L221 464 L29 464 L29 542 L188 774 L319 774 L319 543 L359 543 L359 464 L319 464 L319 400 L221 400 Z " />
<glyph glyph-name="fivesuperior" unicode="&#x2075;" horiz-adv-x="348" d="M40 533 L58 774 L291 774 L286 694 L135 694 L128 618 Q162 639 206 639 Q263 639 291 609 Q319 579 319 526 Q319 463 276 428 Q233 393 164 393 Q76 393 16 440 L48 498 Q101 469 151 469 Q221 469 221 524 Q221 570 170 570 Q143 570 121 554 L119 533 L40 533 Z " />
<glyph glyph-name="sixsuperior" unicode="&#x2076;" horiz-adv-x="369" d="M36 567 Q36 664 80.5 722.5 Q125 781 213 781 Q275 781 325 755 L300 691 Q263 710 224 710 Q177 710 157 681.5 Q137 653 135 601 Q175 636 229 636 Q284 636 313 605 Q342 574 342 525 Q342 460 299 426.5 Q256 393 191 393 Q36 393 36 567 Z M198 566 Q168 566 138 540 Q140 462 193 462 Q245 462 245 516 Q245 566 198 566 Z " />
<glyph glyph-name="sevensuperior" unicode="&#x2077;" horiz-adv-x="330" d="M312 716 L174 400 L68 400 L68 409 L198 690 L22 690 L22 774 L312 774 L312 716 Z " />
<glyph glyph-name="eightsuperior" unicode="&#x2078;" horiz-adv-x="364" d="M114 504 Q114 481 132 469 Q150 457 179 457 Q238 457 238 504 Q238 526 218 539 Q198 552 163 562 Q148 554 139 547.5 Q130 541 122 529.5 Q114 518 114 504 Z M138 683 Q138 653 194 632 Q234 657 234 686 Q234 721 185 721 Q138 721 138 683 Z M26 497 Q26 562 106 597 Q42 623 42 681 Q42 726 80 753.5 Q118 781 181 781 Q248 781 285 757 Q322 733 322 690 Q322 634 260 604 Q337 570 337 506 Q337 452 293.5 422.5 Q250 393 179 393 Q108 393 67 420.5 Q26 448 26 497 Z " />
<glyph glyph-name="ninesuperior" unicode="&#x2079;" horiz-adv-x="366" d="M334 607 Q334 510 289 451.5 Q244 393 156 393 Q95 393 45 419 L68 486 Q108 466 146 466 Q192 466 212 493.5 Q232 521 236 575 Q196 536 140 536 Q86 536 56.5 568 Q27 600 27 649 Q27 714 70 747.5 Q113 781 178 781 Q334 781 334 607 Z M174 607 Q209 607 234 632 Q234 713 178 713 Q152 713 138 698.5 Q124 684 124 658 Q124 607 174 607 Z " />
<glyph glyph-name="zeroinferior" unicode="&#x2080;" horiz-adv-x="390" d="M26 91 Q26 180 71 232.5 Q116 285 196 285 Q275 285 319.5 233 Q364 181 364 93 Q364 2 318.5 -50.5 Q273 -103 192 -103 Q114 -103 70 -52.5 Q26 -2 26 91 Z M194 -17 Q256 -17 256 90 Q256 199 196 199 Q133 199 133 91 Q133 -17 194 -17 Z " />
<glyph glyph-name="oneinferior" unicode="&#x2081;" horiz-adv-x="293" d="M234 -96 L127 -96 L127 154 Q102 149 72 149 Q49 149 36 151 L28 215 Q107 233 151 278 L234 278 L234 -96 Z " />
<glyph glyph-name="twoinferior" unicode="&#x2082;" horiz-adv-x="342" d="M29 -96 L29 -34 L154 88 Q174 107 181 115 Q188 123 196 136.5 Q204 150 204 163 Q204 199 153 199 Q110 199 55 160 L16 218 Q90 285 184 285 Q241 285 276.5 256.5 Q312 228 312 179 Q312 121 250 66 L159 -15 L313 -15 L313 -96 L29 -96 Z " />
<glyph glyph-name="threeinferior" unicode="&#x2083;" horiz-adv-x="346" d="M9 -52 L45 8 Q102 -27 150 -27 Q215 -27 215 17 Q215 58 143 58 Q125 58 104 55 L104 130 Q196 132 196 177 Q196 211 143 211 Q104 211 54 187 L29 245 Q94 285 173 285 Q234 285 267 261 Q300 237 300 191 Q300 159 279.5 135 Q259 111 224 101 Q319 92 319 10 Q319 -45 276.5 -74 Q234 -103 164 -103 Q68 -103 9 -52 Z " />
<glyph glyph-name="fourinferior" unicode="&#x2084;" horiz-adv-x="385" d="M221 206 L115 47 L221 47 L221 206 Z M221 -96 L221 -32 L29 -32 L29 46 L188 278 L319 278 L319 47 L359 47 L359 -32 L319 -32 L319 -96 L221 -96 Z " />
<glyph glyph-name="fiveinferior" unicode="&#x2085;" horiz-adv-x="348" d="M40 37 L58 278 L291 278 L286 198 L135 198 L128 122 Q162 143 206 143 Q263 143 291 113 Q319 83 319 30 Q319 -33 276 -68 Q233 -103 164 -103 Q76 -103 16 -56 L48 2 Q101 -27 151 -27 Q221 -27 221 28 Q221 74 170 74 Q143 74 121 58 L119 37 L40 37 Z " />
<glyph glyph-name="sixinferior" unicode="&#x2086;" horiz-adv-x="369" d="M36 71 Q36 168 80.5 226.5 Q125 285 213 285 Q275 285 325 259 L300 195 Q263 214 224 214 Q177 214 157 185.5 Q137 157 135 105 Q175 140 229 140 Q284 140 313 109 Q342 78 342 29 Q342 -36 299 -69.5 Q256 -103 191 -103 Q36 -103 36 71 Z M198 70 Q168 70 138 44 Q140 -34 193 -34 Q245 -34 245 20 Q245 70 198 70 Z " />
<glyph glyph-name="seveninferior" unicode="&#x2087;" horiz-adv-x="330" d="M312 220 L174 -96 L68 -96 L68 -87 L198 194 L22 194 L22 278 L312 278 L312 220 Z " />
<glyph glyph-name="eightinferior" unicode="&#x2088;" horiz-adv-x="364" d="M114 8 Q114 -15 132 -27 Q150 -39 179 -39 Q238 -39 238 8 Q238 30 218 43 Q198 56 163 66 Q148 58 139 51.5 Q130 45 122 33.5 Q114 22 114 8 Z M138 187 Q138 157 194 136 Q234 161 234 190 Q234 225 185 225 Q138 225 138 187 Z M26 1 Q26 66 106 101 Q42 127 42 185 Q42 230 80 257.5 Q118 285 181 285 Q248 285 285 261 Q322 237 322 194 Q322 138 260 108 Q337 74 337 10 Q337 -44 293.5 -73.5 Q250 -103 179 -103 Q108 -103 67 -75.5 Q26 -48 26 1 Z " />
<glyph glyph-name="nineinferior" unicode="&#x2089;" horiz-adv-x="366" d="M334 111 Q334 14 289 -44.5 Q244 -103 156 -103 Q95 -103 45 -77 L68 -10 Q108 -30 146 -30 Q192 -30 212 -2.5 Q232 25 236 79 Q196 40 140 40 Q86 40 56.5 72 Q27 104 27 153 Q27 218 70 251.5 Q113 285 178 285 Q334 285 334 111 Z M174 111 Q209 111 234 136 Q234 217 178 217 Q152 217 138 202.5 Q124 188 124 162 Q124 111 174 111 Z " />
<glyph glyph-name="onehalf" unicode="&#xbd;" horiz-adv-x="889" d="M115 0 L556 720 L659 720 L220 0 L115 0 Z M251 350 L144 350 L144 600 Q119 595 89 595 Q66 595 53 597 L45 661 Q124 679 168 724 L251 724 L251 350 Z M506 0 L506 62 L631 184 Q651 203 658 211 Q665 219 673 232.5 Q681 246 681 259 Q681 295 630 295 Q587 295 532 256 L493 314 Q567 381 661 381 Q718 381 753.5 352.5 Q789 324 789 275 Q789 217 727 162 L636 81 L790 81 L790 0 L506 0 Z " />
<glyph glyph-name="onequarter" unicode="&#xbc;" horiz-adv-x="889" d="M149 0 L590 720 L693 720 L254 0 L149 0 Z M256 350 L149 350 L149 600 Q124 595 94 595 Q71 595 58 597 L50 661 Q129 679 173 724 L256 724 L256 350 Z M679 302 L573 143 L679 143 L679 302 Z M679 0 L679 64 L487 64 L487 142 L646 374 L777 374 L777 143 L817 143 L817 64 L777 64 L777 0 L679 0 Z " />
<glyph glyph-name="threequarters" unicode="&#xbe;" horiz-adv-x="889" d="M197 0 L638 720 L741 720 L302 0 L197 0 Z M698 302 L592 143 L698 143 L698 302 Z M698 0 L698 64 L506 64 L506 142 L665 374 L796 374 L796 143 L836 143 L836 64 L796 64 L796 0 L698 0 Z M68 394 L104 454 Q161 419 209 419 Q274 419 274 463 Q274 504 202 504 Q184 504 163 501 L163 576 Q255 578 255 623 Q255 657 202 657 Q163 657 113 633 L88 691 Q153 731 232 731 Q293 731 326 707 Q359 683 359 637 Q359 605 338.5 581 Q318 557 283 547 Q378 538 378 456 Q378 401 335.5 372 Q293 343 223 343 Q127 343 68 394 Z " />
<glyph glyph-name="onethird" unicode="&#x2153;" horiz-adv-x="889" d="M119 0 L560 720 L663 720 L224 0 L119 0 Z M241 350 L134 350 L134 600 Q109 595 79 595 Q56 595 43 597 L35 661 Q114 679 158 724 L241 724 L241 350 Z M508 44 L544 104 Q601 69 649 69 Q714 69 714 113 Q714 154 642 154 Q624 154 603 151 L603 226 Q695 228 695 273 Q695 307 642 307 Q603 307 553 283 L528 341 Q593 381 672 381 Q733 381 766 357 Q799 333 799 287 Q799 255 778.5 231 Q758 207 723 197 Q818 188 818 106 Q818 51 775.5 22 Q733 -7 663 -7 Q567 -7 508 44 Z " />
<glyph glyph-name="twothirds" unicode="&#x2154;" horiz-adv-x="889" d="M188 0 L629 720 L732 720 L293 0 L188 0 Z M48 350 L48 412 L173 534 Q193 553 200 561 Q207 569 215 582.5 Q223 596 223 609 Q223 645 172 645 Q129 645 74 606 L35 664 Q109 731 203 731 Q260 731 295.5 702.5 Q331 674 331 625 Q331 567 269 512 L178 431 L332 431 L332 350 L48 350 Z M559 44 L595 104 Q652 69 700 69 Q765 69 765 113 Q765 154 693 154 Q675 154 654 151 L654 226 Q746 228 746 273 Q746 307 693 307 Q654 307 604 283 L579 341 Q644 381 723 381 Q784 381 817 357 Q850 333 850 287 Q850 255 829.5 231 Q809 207 774 197 Q869 188 869 106 Q869 51 826.5 22 Q784 -7 714 -7 Q618 -7 559 44 Z " />
<glyph glyph-name="oneeighth" unicode="&#x215b;" horiz-adv-x="889" d="M135 0 L576 720 L679 720 L240 0 L135 0 Z M255 350 L148 350 L148 600 Q123 595 93 595 Q70 595 57 597 L49 661 Q128 679 172 724 L255 724 L255 350 Z M592 104 Q592 81 610 69 Q628 57 657 57 Q716 57 716 104 Q716 126 696 139 Q676 152 641 162 Q626 154 617 147.5 Q608 141 600 129.5 Q592 118 592 104 Z M616 283 Q616 253 672 232 Q712 257 712 286 Q712 321 663 321 Q616 321 616 283 Z M504 97 Q504 162 584 197 Q520 223 520 281 Q520 326 558 353.5 Q596 381 659 381 Q726 381 763 357 Q800 333 800 290 Q800 234 738 204 Q815 170 815 106 Q815 52 771.5 22.5 Q728 -7 657 -7 Q586 -7 545 20.5 Q504 48 504 97 Z " />
<glyph glyph-name="threeeighths" unicode="&#x215c;" horiz-adv-x="889" d="M165 0 L606 720 L709 720 L270 0 L165 0 Z M610 104 Q610 81 628 69 Q646 57 675 57 Q734 57 734 104 Q734 126 714 139 Q694 152 659 162 Q644 154 635 147.5 Q626 141 618 129.5 Q610 118 610 104 Z M634 283 Q634 253 690 232 Q730 257 730 286 Q730 321 681 321 Q634 321 634 283 Z M522 97 Q522 162 602 197 Q538 223 538 281 Q538 326 576 353.5 Q614 381 677 381 Q744 381 781 357 Q818 333 818 290 Q818 234 756 204 Q833 170 833 106 Q833 52 789.5 22.5 Q746 -7 675 -7 Q604 -7 563 20.5 Q522 48 522 97 Z M42 394 L78 454 Q135 419 183 419 Q248 419 248 463 Q248 504 176 504 Q158 504 137 501 L137 576 Q229 578 229 623 Q229 657 176 657 Q137 657 87 633 L62 691 Q127 731 206 731 Q267 731 300 707 Q333 683 333 637 Q333 605 312.5 581 Q292 557 257 547 Q352 538 352 456 Q352 401 309.5 372 Q267 343 197 343 Q101 343 42 394 Z " />
<glyph glyph-name="fiveeighths" unicode="&#x215d;" horiz-adv-x="889" d="M168 0 L609 720 L712 720 L273 0 L168 0 Z M73 483 L91 724 L324 724 L319 644 L168 644 L161 568 Q195 589 239 589 Q296 589 324 559 Q352 529 352 476 Q352 413 309 378 Q266 343 197 343 Q109 343 49 390 L81 448 Q134 419 184 419 Q254 419 254 474 Q254 520 203 520 Q176 520 154 504 L152 483 L73 483 Z M620 104 Q620 81 638 69 Q656 57 685 57 Q744 57 744 104 Q744 126 724 139 Q704 152 669 162 Q654 154 645 147.5 Q636 141 628 129.5 Q620 118 620 104 Z M644 283 Q644 253 700 232 Q740 257 740 286 Q740 321 691 321 Q644 321 644 283 Z M532 97 Q532 162 612 197 Q548 223 548 281 Q548 326 586 353.5 Q624 381 687 381 Q754 381 791 357 Q828 333 828 290 Q828 234 766 204 Q843 170 843 106 Q843 52 799.5 22.5 Q756 -7 685 -7 Q614 -7 573 20.5 Q532 48 532 97 Z " />
<glyph glyph-name="seveneighths" unicode="&#x215e;" horiz-adv-x="889" d="M134 0 L575 720 L678 720 L239 0 L134 0 Z M604 104 Q604 81 622 69 Q640 57 669 57 Q728 57 728 104 Q728 126 708 139 Q688 152 653 162 Q638 154 629 147.5 Q620 141 612 129.5 Q604 118 604 104 Z M628 283 Q628 253 684 232 Q724 257 724 286 Q724 321 675 321 Q628 321 628 283 Z M516 97 Q516 162 596 197 Q532 223 532 281 Q532 326 570 353.5 Q608 381 671 381 Q738 381 775 357 Q812 333 812 290 Q812 234 750 204 Q827 170 827 106 Q827 52 783.5 22.5 Q740 -7 669 -7 Q598 -7 557 20.5 Q516 48 516 97 Z M346 666 L208 350 L102 350 L102 359 L232 640 L56 640 L56 724 L346 724 L346 666 Z " />
<glyph glyph-name="minus" unicode="&#x2212;" horiz-adv-x="604" d="M562 336 L562 252 L42 252 L42 336 L562 336 Z " />
<glyph glyph-name="uni2215" unicode="&#x2215;" horiz-adv-x="137" d="M-208 0 L233 720 L336 720 L-103 0 L-208 0 Z " />
<glyph glyph-name="uni2219" unicode="&#x2219;" horiz-adv-x="303" d="M80 334 Q80 368 100 388 Q120 408 156 408 Q191 408 212 388.5 Q233 369 233 337 Q233 304 212 284 Q191 264 156 264 Q120 264 100 283.5 Q80 303 80 334 Z " />
<glyph glyph-name="approxequal" unicode="&#x2248;" horiz-adv-x="747" d="M651 266 L706 170 Q607 93 500 93 Q453 93 366 123.5 Q279 154 242 154 Q180 154 84 95 L31 190 Q142 267 237 267 Q282 267 368.5 237 Q455 207 493 207 Q561 207 651 266 Z M653 471 L708 375 Q609 298 502 298 Q455 298 368 328.5 Q281 359 244 359 Q182 359 86 300 L33 395 Q144 472 239 472 Q284 472 370.5 442 Q457 412 495 412 Q563 412 653 471 Z " />
<glyph glyph-name="notequal" unicode="&#x2260;" horiz-adv-x="604" d="M562 243 L562 158 L280 158 L184 0 L79 0 L175 158 L41 158 L41 243 L227 243 L287 340 L41 340 L41 424 L338 424 L399 523 L502 523 L441 424 L562 424 L562 340 L390 340 L331 243 L562 243 Z " />
<glyph glyph-name="lessequal" unicode="&#x2264;" horiz-adv-x="604" d="M526 126 L42 338 L42 400 L524 612 L560 528 L198 370 L562 213 L526 126 Z M562 85 L562 1 L42 1 L42 85 L562 85 Z " />
<glyph glyph-name="greaterequal" unicode="&#x2265;" horiz-adv-x="604" d="M562 338 L78 126 L42 213 L406 370 L44 528 L80 612 L562 400 L562 338 Z M562 85 L562 1 L42 1 L42 85 L562 85 Z " />
<glyph glyph-name="less" unicode="&#x3c;" horiz-adv-x="604" d="M556 44 L25 265 L25 327 L554 549 L590 463 L186 296 L592 131 L556 44 Z " />
<glyph glyph-name="equal" unicode="&#x3d;" horiz-adv-x="604" d="M562 424 L562 340 L42 340 L42 424 L562 424 Z M562 243 L562 159 L42 159 L42 243 L562 243 Z " />
<glyph glyph-name="greater" unicode="&#x3e;" horiz-adv-x="604" d="M580 267 L50 46 L14 132 L418 298 L15 465 L51 551 L580 329 L580 267 Z " />
<glyph glyph-name="plus" unicode="&#x2b;" horiz-adv-x="604" d="M345 556 L345 336 L563 336 L563 252 L345 252 L345 33 L258 33 L258 252 L40 252 L40 336 L258 336 L258 556 L345 556 Z " />
<glyph glyph-name="plusminus" unicode="&#xb1;" horiz-adv-x="604" d="M562 84 L562 0 L42 0 L42 84 L258 84 L258 254 L41 254 L41 336 L258 336 L258 510 L345 510 L345 336 L562 336 L562 254 L345 254 L345 84 L562 84 Z " />
<glyph glyph-name="divide" unicode="&#xf7;" horiz-adv-x="604" d="M302 526 Q325 526 341.5 509 Q358 492 358 468 Q358 445 342 428.5 Q326 412 302 412 Q278 412 261 428.5 Q244 445 244 468 Q244 491 261 508.5 Q278 526 302 526 Z M301 180 Q325 180 341.5 163 Q358 146 358 122 Q358 99 341.5 82 Q325 65 300 65 Q278 65 260.5 82.5 Q243 100 243 122 Q243 145 260.5 162.5 Q278 180 301 180 Z M562 336 L562 252 L42 252 L42 336 L562 336 Z " />
<glyph glyph-name="multiply" unicode="&#xd7;" horiz-adv-x="604" d="M519 444 L364 290 L519 135 L458 74 L303 230 L149 74 L85 138 L240 293 L85 447 L146 508 L300 353 L455 508 L519 444 Z " />
<glyph glyph-name="partialdiff" unicode="&#x2202;" horiz-adv-x="610" d="M246 -13 Q157 -13 102.5 40.5 Q48 94 48 189 Q48 301 108.5 375.5 Q169 450 274 450 Q324 450 365.5 422.5 Q407 395 419 348 Q425 410 425 432 Q425 601 300 601 Q230 601 167 569 L133 649 Q219 701 322 701 Q430 701 486.5 632 Q543 563 543 429 Q543 366 534.5 306.5 Q526 247 504 188 Q482 129 449.5 85.5 Q417 42 364.5 14.5 Q312 -13 246 -13 Z M264 87 Q323 87 357.5 132 Q392 177 392 233 Q392 291 366 322 Q340 353 294 353 Q234 353 203.5 306.5 Q173 260 173 198 Q173 144 197.5 115.5 Q222 87 264 87 Z " />
<glyph glyph-name="Omega" unicode="&#x2126;" horiz-adv-x="829" d="M468 0 L468 133 Q615 210 615 387 Q615 490 563 548 Q511 606 418 606 Q325 606 272 546 Q219 486 219 386 Q219 216 351 133 L351 0 L67 0 L67 119 L222 119 L222 127 Q160 162 116.5 232 Q73 302 73 396 Q73 553 167.5 643 Q262 733 418 733 Q575 733 668.5 648.5 Q762 564 762 410 Q762 305 712.5 230.5 Q663 156 595 126 L595 119 L753 119 L753 0 L468 0 Z " />
<glyph glyph-name="Delta" unicode="&#x2206;" horiz-adv-x="708" d="M269 720 L437 720 L687 0 L20 0 L269 720 Z M194 112 L505 112 L353 582 L194 112 Z " />
<glyph glyph-name="product" unicode="&#x220f;" horiz-adv-x="737" d="M82 -140 L82 720 L655 720 L655 -140 L517 -140 L517 603 L220 603 L220 -140 L82 -140 Z " />
<glyph glyph-name="summation" unicode="&#x2211;" horiz-adv-x="601" d="M545 601 L223 601 L410 317 L221 0 L573 0 L573 -119 L13 -119 L13 -67 L246 317 L13 668 L13 720 L545 720 L545 601 Z " />
<glyph glyph-name="uni0394" unicode="&#x394;" horiz-adv-x="708" d="M269 720 L437 720 L687 0 L20 0 L269 720 Z M194 112 L505 112 L353 582 L194 112 Z " />
<glyph glyph-name="uni03A9" unicode="&#x3a9;" horiz-adv-x="829" d="M468 0 L468 133 Q615 210 615 387 Q615 490 563 548 Q511 606 418 606 Q325 606 272 546 Q219 486 219 386 Q219 216 351 133 L351 0 L67 0 L67 119 L222 119 L222 127 Q160 162 116.5 232 Q73 302 73 396 Q73 553 167.5 643 Q262 733 418 733 Q575 733 668.5 648.5 Q762 564 762 410 Q762 305 712.5 230.5 Q663 156 595 126 L595 119 L753 119 L753 0 L468 0 Z " />
<glyph glyph-name="uni03BC" unicode="&#x3bc;" horiz-adv-x="592" d="M518 0 L401 0 L401 64 Q362 -7 283 -7 Q230 -7 196 30 L196 -200 L64 -200 L64 528 L196 528 L196 198 Q196 92 285 92 Q349 92 386 156 L386 528 L518 528 L518 0 Z " />
<glyph glyph-name="pi" unicode="&#x3c0;" horiz-adv-x="726" d="M674 528 L674 427 L595 427 L595 0 L464 0 L464 427 L270 427 L270 0 L138 0 L138 427 L52 427 L52 528 L674 528 Z " />
<glyph glyph-name="mu" unicode="&#xb5;" horiz-adv-x="592" d="M518 0 L401 0 L401 64 Q362 -7 283 -7 Q230 -7 196 30 L196 -200 L64 -200 L64 528 L196 528 L196 198 Q196 92 285 92 Q349 92 386 156 L386 528 L518 528 L518 0 Z " />
<glyph glyph-name="radical" unicode="&#x221a;" horiz-adv-x="757" d="M40 232 L40 327 L262 327 L379 -14 L660 824 L778 824 L442 -166 L318 -166 L172 232 L40 232 Z " />
<glyph glyph-name="infinity" unicode="&#x221e;" horiz-adv-x="788" d="M735 314 Q735 238 692.5 191.5 Q650 145 588 145 Q555 145 527 153 Q499 161 472.5 180.5 Q446 200 434.5 210.5 Q423 221 397 247 Q350 197 306.5 171 Q263 145 212 145 Q140 145 96.5 186.5 Q53 228 53 301 Q53 374 98 420 Q143 466 218 466 Q273 466 314.5 439 Q356 412 398 359 Q450 414 491 440.5 Q532 467 586 467 Q658 467 696.5 423 Q735 379 735 314 Z M644 306 Q644 389 569 389 Q539 389 513 369.5 Q487 350 448 305 Q520 222 573 222 Q608 222 626 246.5 Q644 271 644 306 Z M346 304 Q283 388 226 388 Q186 388 165 364 Q144 340 144 304 Q144 266 165 243.5 Q186 221 226 221 Q253 221 285.5 243.5 Q318 266 346 304 Z " />
<glyph glyph-name="integral" unicode="&#x222b;" horiz-adv-x="361" d="M-6 -102 L56 -102 Q91 -102 108.5 -81.5 Q126 -61 126 -11 L126 616 Q126 790 284 790 L359 790 L359 693 L304 693 L302 693 Q250 693 250 618 L250 -20 Q250 -200 67 -200 L-6 -200 L-6 -102 Z " />
<glyph glyph-name="lozenge" unicode="&#x25ca;" horiz-adv-x="629" d="M264 0 L71 352 L264 700 L357 700 L559 354 L357 0 L264 0 Z M312 589 L184 351 L312 111 L445 351 L312 589 Z " />
<glyph glyph-name="zero.tosf" unicode="&#xf81e;" horiz-adv-x="604" d="M180 305 Q180 200 209 150 Q238 100 301 100 Q364 100 394 150 Q424 200 424 307 Q424 409 394 454.5 Q364 500 303 500 Q180 500 180 305 Z M51 303 Q51 450 116.5 531 Q182 612 302 612 Q552 612 552 307 Q552 152 489 69.5 Q426 -13 301 -13 Q176 -13 113.5 68 Q51 149 51 303 Z " />
<glyph glyph-name="one.tosf" unicode="&#xf81f;" horiz-adv-x="604" d="M274 100 L274 439 Q200 399 117 389 L100 477 Q154 491 210 524.5 Q266 558 303 601 L403 601 L403 100 L534 100 L534 0 L127 0 L127 100 L274 100 Z " />
<glyph glyph-name="two.tosf" unicode="&#xf820;" horiz-adv-x="604" d="M84 0 L84 77 L303 295 Q349 340 367 366.5 Q385 393 385 427 Q385 461 361 480.5 Q337 500 298 500 Q230 500 130 425 L69 504 Q183 612 316 612 Q404 612 464 567.5 Q524 523 524 438 Q524 385 503 347 Q482 309 428 256 L277 106 L534 106 L534 0 L84 0 Z " />
<glyph glyph-name="three.tosf" unicode="&#xf821;" horiz-adv-x="604" d="M50 27 L108 105 Q193 35 280 35 Q333 35 367 62 Q401 89 401 137 Q401 182 370 204 Q339 226 269 227 Q229 227 209 223 L205 329 Q278 331 323.5 354.5 Q369 378 369 427 Q369 505 272 505 Q197 505 125 459 L76 540 Q179 612 297 612 Q387 612 440.5 570 Q494 528 494 448 Q494 393 458.5 354 Q423 315 361 294 L361 291 Q441 281 483.5 238.5 Q526 196 526 126 Q526 31 457 -20 Q388 -71 287 -71 Q144 -71 50 27 Z " />
<glyph glyph-name="four.tosf" unicode="&#xf822;" horiz-adv-x="604" d="M167 197 L356 197 L356 488 L167 197 Z M356 -62 L356 91 L45 91 L45 192 L314 601 L481 601 L481 197 L561 197 L561 91 L481 91 L481 -62 L356 -62 Z " />
<glyph glyph-name="five.tosf" unicode="&#xf823;" horiz-adv-x="604" d="M96 183 L127 601 L496 601 L488 489 L228 489 L215 332 Q268 376 345 376 Q434 376 485.5 321.5 Q537 267 537 168 Q537 54 467.5 -8.5 Q398 -71 291 -71 Q162 -71 70 5 L113 91 Q207 40 277 40 Q337 40 375 72.5 Q413 105 413 169 Q413 220 387 249.5 Q361 279 313 279 Q248 279 208 237 L203 183 L96 183 Z " />
<glyph glyph-name="six.tosf" unicode="&#xf824;" horiz-adv-x="604" d="M66 310 Q66 508 136 614 Q206 720 336 720 Q424 720 511 668 L472 581 Q409 617 349 617 Q308 617 277 597.5 Q246 578 227.5 543 Q209 508 199 466 Q189 424 187 373 Q263 447 350 447 Q438 447 489.5 389 Q541 331 541 233 Q541 110 477.5 48.5 Q414 -13 310 -13 Q66 -13 66 310 Z M309 89 Q358 89 388 122 Q418 155 418 222 Q418 343 315 343 Q279 343 245.5 324.5 Q212 306 190 283 Q193 181 222 135 Q251 89 309 89 Z " />
<glyph glyph-name="seven.tosf" unicode="&#xf825;" horiz-adv-x="604" d="M525 545 L285 -60 L147 -60 L147 -47 L370 490 L62 490 L62 601 L525 601 L525 545 Z " />
<glyph glyph-name="eight.tosf" unicode="&#xf826;" horiz-adv-x="604" d="M187 189 Q187 142 217 115.5 Q247 89 302 89 Q354 89 385.5 118.5 Q417 148 417 195 Q417 221 405.5 242.5 Q394 264 372 280.5 Q350 297 332 306.5 Q314 316 288 327 Q187 275 187 189 Z M221 539 Q221 475 320 431 Q353 449 377.5 479.5 Q402 510 402 544 Q402 625 310 625 Q268 625 244.5 601.5 Q221 578 221 539 Z M65 179 Q65 307 203 376 Q154 397 123.5 438.5 Q93 480 93 537 Q93 619 152.5 669.5 Q212 720 312 720 Q406 720 464 673 Q522 626 522 550 Q522 496 490.5 453.5 Q459 411 411 384 Q549 317 549 196 Q549 98 481 42.5 Q413 -13 299 -13 Q188 -13 126.5 37.5 Q65 88 65 179 Z " />
<glyph glyph-name="nine.tosf" unicode="&#xf827;" horiz-adv-x="604" d="M541 300 Q541 100 474.5 14 Q408 -72 280 -72 Q168 -72 90 -16 L128 69 Q195 29 266 29 Q342 29 374 78.5 Q406 128 418 227 Q344 158 258 158 Q167 158 116 216 Q65 274 65 370 Q65 484 130 548 Q195 612 296 612 Q417 612 479 530 Q541 448 541 300 Z M296 507 Q248 507 217 474.5 Q186 442 186 378 Q186 262 292 262 Q364 262 416 322 Q414 410 384 458.5 Q354 507 296 507 Z " />
<glyph glyph-name="currency" unicode="&#xa4;" horiz-adv-x="581" d="M403 337 Q403 386 370.5 417.5 Q338 449 290 449 Q243 449 209.5 417 Q176 385 176 337 Q176 287 208.5 255 Q241 223 290 223 Q338 223 370.5 256 Q403 289 403 337 Z M38 530 L94 590 L182 499 Q232 532 290 532 Q349 532 395 500 L484 588 L542 530 L452 440 Q487 394 487 337 Q487 279 453 230 L543 142 L484 84 L395 173 Q346 141 290 141 Q233 141 183 173 Q170 161 140.5 130.5 Q111 100 94 84 L38 142 L126 231 Q93 279 93 337 Q93 392 126 440 L38 530 Z " />
<glyph glyph-name="circumflex" unicode="&#x2c6;" horiz-adv-x="504" d="M213 761 L292 761 L403 617 L345 576 L254 665 L163 576 L102 616 L213 761 Z " />
<glyph glyph-name="caron" unicode="&#x2c7;" horiz-adv-x="504" d="M292 581 L213 581 L105 723 L164 767 L254 677 L345 766 L403 725 L292 581 Z " />
<glyph glyph-name="uni02C9" unicode="&#x2c9;" horiz-adv-x="504" d="M111 608 L111 697 L394 697 L394 608 L111 608 Z " />
<glyph glyph-name="breve" unicode="&#x2d8;" horiz-adv-x="504" d="M252 668 Q319 668 329 738 L409 725 Q397 591 252 591 Q178 591 140.5 623 Q103 655 93 725 L174 739 Q183 702 199.5 685 Q216 668 252 668 Z " />
<glyph glyph-name="dieresis" unicode="&#xa8;" horiz-adv-x="504" d="M83 656 Q83 683 101.5 700.5 Q120 718 152 718 Q186 718 204 700.5 Q222 683 222 656 Q222 629 202.5 612 Q183 595 152 595 Q119 595 101 611.5 Q83 628 83 656 Z M287 656 Q287 683 305.5 700.5 Q324 718 356 718 Q390 718 408 700.5 Q426 683 426 656 Q426 629 406.5 612 Q387 595 356 595 Q323 595 305 611.5 Q287 628 287 656 Z " />
<glyph glyph-name="macron" unicode="&#xaf;" horiz-adv-x="504" d="M111 608 L111 697 L394 697 L394 608 L111 608 Z " />
<glyph glyph-name="degree" unicode="&#xb0;" horiz-adv-x="327" d="M165 597 Q192 597 209.5 616.5 Q227 636 227 665 Q227 694 210 712.5 Q193 731 165 731 Q136 731 119 713 Q102 695 102 665 Q102 635 119 616 Q136 597 165 597 Z M42 664 Q42 715 78 750 Q114 785 165 785 Q215 785 250 750 Q285 715 285 664 Q285 613 250 578.5 Q215 544 165 544 Q112 544 77 578 Q42 612 42 664 Z " />
<glyph glyph-name="acute" unicode="&#xb4;" horiz-adv-x="504" d="M134 645 L290 788 L359 705 L193 579 L134 645 Z " />
<glyph glyph-name="grave" unicode="&#x60;" horiz-adv-x="504" d="M216 788 L372 645 L313 579 L147 705 L216 788 Z " />
<glyph glyph-name="cedilla" unicode="&#xb8;" horiz-adv-x="504" d="M158 -205 L173 -148 Q201 -158 230 -158 Q271 -158 271 -128 Q271 -97 212 -97 L194 -97 L217 8 L281 8 L269 -52 Q287 -54 299.5 -57.5 Q312 -61 326.5 -69 Q341 -77 348.5 -92 Q356 -107 356 -129 Q356 -174 325.5 -197.5 Q295 -221 245 -221 Q193 -221 158 -205 Z " />
<glyph glyph-name="dotaccent" unicode="&#x2d9;" horiz-adv-x="504" d="M172 663 Q172 695 194.5 713 Q217 731 252 731 Q287 731 309 713 Q331 695 331 663 Q331 632 309 614.5 Q287 597 252 597 Q218 597 195 614.5 Q172 632 172 663 Z " />
<glyph glyph-name="ring" unicode="&#x2da;" horiz-adv-x="504" d="M211 668 Q211 629 253 629 Q293 629 293 670 Q293 709 253 709 Q211 709 211 668 Z M151 666 Q151 710 180 736.5 Q209 763 253 763 Q296 763 324.5 737.5 Q353 712 353 670 Q353 627 324.5 601 Q296 575 253 575 Q207 575 179 599 Q151 623 151 666 Z " />
<glyph glyph-name="ogonek" unicode="&#x2db;" horiz-adv-x="504" d="M252 15 L329 9 L329 0 Q250 -75 250 -117 Q250 -149 279 -149 Q306 -149 334 -137 L353 -201 Q302 -231 243 -231 Q146 -231 146 -152 Q146 -69 252 15 Z " />
<glyph glyph-name="tilde" unicode="&#x2dc;" horiz-adv-x="504" d="M354 717 L416 694 Q395 594 322 594 Q297 594 252 610.5 Q207 627 196 627 Q183 627 174 619 Q165 611 155 590 L92 614 Q124 714 185 714 Q211 714 254.5 697 Q298 680 314 680 Q328 680 336 687 Q344 694 354 717 Z " />
<glyph glyph-name="hungarumlaut" unicode="&#x2dd;" horiz-adv-x="504" d="M165 780 L247 731 L135 581 L67 622 L165 780 Z M320 767 L401 717 L289 581 L223 622 L320 767 Z " />
<glyph glyph-name="apostrophe" unicode="&#x2bc;" horiz-adv-x="504" d="M171 678 Q171 702 186.5 717 Q202 732 226 732 Q257 732 272.5 711 Q288 690 288 659 Q288 613 267 583 Q246 553 195 535 L177 568 Q229 591 231 637 Q226 634 215 634 Q196 634 183.5 646.5 Q171 659 171 678 Z " />
<glyph glyph-name="uni00A0" unicode="&#xa0;" horiz-adv-x="205" d="" />
<glyph glyph-name="numbersign" unicode="&#x23;" horiz-adv-x="703" d="M301 380 L262 260 L394 260 L436 380 L301 380 Z M661 380 L522 380 L482 260 L603 260 L603 176 L454 176 L392 8 L312 26 L366 176 L233 176 L171 8 L92 26 L145 176 L45 176 L45 260 L174 260 L215 380 L103 380 L103 464 L244 464 L308 646 L389 628 L332 464 L465 464 L530 643 L610 628 L552 464 L661 464 L661 380 Z " />
<glyph glyph-name="quotesingle" unicode="&#x27;" horiz-adv-x="222" d="M162 720 L162 441 L60 441 L60 720 L162 720 Z " />
<glyph glyph-name="quotedbl" unicode="&#x22;" horiz-adv-x="383" d="M162 720 L162 441 L60 441 L60 720 L162 720 Z M323 720 L323 441 L221 441 L221 720 L323 720 Z " />
<glyph glyph-name="arrowright" unicode="&#x2192;" horiz-adv-x="504" d="M2 212 L2 311 L331 311 L239 403 L305 463 L502 262 L502 261 L303 60 L238 120 L331 212 L2 212 Z " />
<glyph glyph-name="arrowleft" unicode="&#x2190;" horiz-adv-x="504" d="M502 311 L502 212 L173 212 L266 120 L201 60 L2 261 L2 262 L199 463 L265 403 L173 311 L502 311 Z " />
<glyph glyph-name="arrowup" unicode="&#x2191;" horiz-adv-x="504" d="M301 11 L203 11 L203 346 L110 255 L50 313 L253 511 L453 312 L393 254 L301 347 L301 11 Z " />
<glyph glyph-name="arrowdown" unicode="&#x2193;" horiz-adv-x="504" d="M203 511 L301 511 L301 175 L393 268 L453 210 L253 11 L50 209 L110 267 L203 176 L203 511 Z " />
<glyph glyph-name="arrownorthwest" unicode="&#x2196;" horiz-adv-x="504" d="M450 123 L383 54 L148 291 L148 169 L58 169 L58 437 L340 437 L340 356 L215 356 L450 123 Z " />
<glyph glyph-name="arrownortheast" unicode="&#x2197;" horiz-adv-x="504" d="M121 54 L54 123 L289 356 L164 356 L164 437 L446 437 L446 169 L356 169 L356 291 L121 54 Z " />
<glyph glyph-name="arrowsoutheast" unicode="&#x2198;" horiz-adv-x="504" d="M56 363 L123 432 L358 195 L358 317 L448 317 L448 49 L166 49 L166 130 L291 130 L56 363 Z " />
<glyph glyph-name="arrowsouthwest" unicode="&#x2199;" horiz-adv-x="504" d="M381 432 L448 363 L213 130 L338 130 L338 49 L56 49 L56 317 L146 317 L146 195 L381 432 Z " />
<glyph glyph-name="arrowboth" unicode="&#x2194;" horiz-adv-x="1004" d="M175 212 L267 120 L201 60 L2 262 L199 463 L265 403 L173 311 L828 311 L736 403 L805 466 L999 262 L800 60 L734 120 L827 212 L175 212 Z " />
<glyph glyph-name="arrowupdn" unicode="&#x2195;" horiz-adv-x="754" d="M428 -106 L520 -13 L580 -80 L378 -278 L177 -82 L237 -15 L329 -107 L329 548 L237 455 L174 524 L379 719 L580 520 L520 453 L428 546 L428 -106 Z " />
<glyph glyph-name="uni21B6" unicode="&#x21b6;" horiz-adv-x="754" d="M216 306 Q216 406 278 465 Q340 524 453 524 Q563 524 623.5 465 Q684 406 684 300 L587 300 Q584 445 453 445 Q314 445 314 300 L314 187 L406 280 L466 222 L265 23 L63 220 L123 280 L216 188 L216 306 Z " />
<glyph glyph-name="uni21B7" unicode="&#x21b7;" horiz-adv-x="754" d="M537 310 L537 188 L630 280 L690 220 L488 23 L287 222 L347 280 L439 187 L439 300 Q439 445 300 445 Q169 445 166 300 L69 300 Q69 406 131 465 Q193 524 311 524 Q425 524 481 468 Q537 412 537 310 Z " />
<glyph glyph-name="arrowdblleft" unicode="&#x21d0;" horiz-adv-x="754" d="M320 412 L267 359 L677 359 L677 290 L200 290 L174 264 L199 239 L677 239 L677 170 L266 170 L317 118 L250 56 L49 261 L253 471 L320 412 Z " />
<glyph glyph-name="arrowdblup" unicode="&#x21d1;" horiz-adv-x="754" d="M545 357 L492 410 L492 0 L423 0 L423 478 L397 503 L371 477 L371 0 L303 0 L303 410 L252 360 L189 427 L396 628 L605 424 L545 357 Z " />
<glyph glyph-name="arrowdblright" unicode="&#x21d2;" horiz-adv-x="754" d="M487 359 L434 412 L501 471 L705 261 L504 56 L437 118 L488 170 L77 170 L77 239 L555 239 L580 264 L554 290 L77 290 L77 359 L487 359 Z " />
<glyph glyph-name="arrowdbldown" unicode="&#x21d3;" horiz-adv-x="754" d="M492 205 L545 258 L605 191 L396 -13 L189 188 L252 255 L303 205 L303 615 L371 615 L371 138 L397 112 L423 137 L423 615 L492 615 L492 205 Z " />
<glyph glyph-name="uni25C0" unicode="&#x25c0;" horiz-adv-x="614" d="M550 22 L64 258 L550 490 L550 22 Z " />
<glyph glyph-name="uni25B6" unicode="&#x25b6;" horiz-adv-x="614" d="M550 258 L64 22 L64 490 L550 258 Z " />
<glyph glyph-name="uni25C1" unicode="&#x25c1;" horiz-adv-x="614" d="M489 117 L490 397 L205 260 L489 117 Z M550 490 L550 25 L64 259 L64 261 L550 490 Z " />
<glyph glyph-name="uni25B7" unicode="&#x25b7;" horiz-adv-x="614" d="M124 397 L125 117 L409 260 L124 397 Z M64 25 L64 490 L550 261 L550 259 L64 25 Z " />
<glyph glyph-name="filledbox" unicode="&#x25a0;" horiz-adv-x="614" d="M481 151 L132 151 L132 500 L481 500 L481 151 Z " />
<glyph glyph-name="H22073" unicode="&#x25a1;" horiz-adv-x="614" d="M436 196 L436 455 L177 455 L177 196 L436 196 Z M481 151 L132 151 L132 500 L481 500 L481 151 Z " />
<glyph glyph-name="H18533" unicode="&#x25cf;" horiz-adv-x="614" d="M452 179 Q392 119 307 119 Q222 119 162 179 Q102 239 102 324 Q102 409 162 469 Q222 529 307 529 Q392 529 452 469 Q512 409 512 324 Q512 239 452 179 Z " />
<glyph glyph-name="circle" unicode="&#x25cb;" horiz-adv-x="614" d="M452 179 Q392 119 307 119 Q222 119 162 179 Q102 239 102 324 Q102 409 162 469 Q222 529 307 529 Q392 529 452 469 Q512 409 512 324 Q512 239 452 179 Z M307 167 Q370 167 414 214.5 Q458 262 458 327 Q458 391 414.5 435.5 Q371 480 307 480 Q243 480 200 434.5 Q157 389 157 324 Q157 259 200 213 Q243 167 307 167 Z " />
<glyph glyph-name="uni25C2" unicode="&#x25c2;" horiz-adv-x="429" d="M277 203 L92 320 L277 434 L277 203 Z " />
<glyph glyph-name="uni25B8" unicode="&#x25b8;" horiz-adv-x="429" d="M337 320 L152 203 L152 434 L337 320 Z " />
<glyph glyph-name="uni25C6" unicode="&#x25c6;" horiz-adv-x="614" d="M516 325 L306 116 L97 326 L307 535 L516 325 Z " />
<glyph glyph-name="logicalnot" unicode="&#xac;" horiz-adv-x="2298" d="M265 720 L265 154 L564 154 L564 0 L87 0 L87 720 L265 720 Z M1189 670 L832 -30 L674 49 L1031 750 L1189 670 Z M1598 670 L1239 -30 L1079 49 L1438 750 L1598 670 Z M1885 562 L1885 406 L1976 406 Q2011 406 2032 425.5 Q2053 445 2053 487 Q2053 527 2032 544.5 Q2011 562 1977 562 L1885 562 Z M1885 248 L1885 0 L1707 0 L1707 720 L1987 720 Q2108 720 2172 661.5 Q2236 603 2236 490 Q2236 438 2219.5 393.5 Q2203 349 2171.5 317 Q2140 285 2093.5 266.5 Q2047 248 1987 248 L1885 248 Z " />
</font>
</svg>
