<?xml version="1.0" encoding="UTF-8"?>
<svg xmlns="http://www.w3.org/2000/svg" xmlns:xlink="http://www.w3.org/1999/xlink" version="1.2" >
<font id="LFTEticaLt-Italic">
<font-face  font-family="LFT Etica" units-per-em="1000" ascent="930" descent="-270" font-style="italic" font-weight="300" font-stretch="normal" cap-height="720" x-height="524" underline-position="-75" underline-thickness="50" />
<missing-glyph  horiz-adv-x="178" d="" />
<glyph glyph-name="space" unicode="&#x20;" horiz-adv-x="200" d="" />
<glyph glyph-name="numbersign" unicode="&#x23;" horiz-adv-x="694" d="M238 244 L402 244 L455 391 L286 391 L238 244 Z M499 391 L449 244 L589 244 L589 200 L434 200 L366 15 L326 25 L389 200 L221 200 L154 15 L114 25 L176 200 L56 200 L56 244 L191 244 L242 391 L110 391 L110 435 L258 435 L328 637 L369 627 L303 435 L470 435 L541 636 L583 627 L515 435 L642 435 L642 391 L499 391 Z " />
<glyph glyph-name="ampersand" unicode="&#x26;" horiz-adv-x="699" d="M272 564 Q272 538 284.5 506 Q297 474 326 438 Q470 499 470 592 Q470 626 447 649.5 Q424 673 385 673 Q361 673 340.5 664.5 Q320 656 304.5 641.5 Q289 627 280.5 607 Q272 587 272 564 Z M260 33 Q314 33 361 60 Q408 87 456 136 L298 380 Q213 345 166 295 Q119 245 119 171 Q119 143 128.5 118 Q138 93 156 74 Q174 55 200 44 Q226 33 260 33 Z M480 92 Q425 36 369.5 9 Q314 -18 247 -18 Q205 -18 170 -5 Q135 8 110.5 32 Q86 56 72.5 89 Q59 122 59 162 Q59 247 113.5 309.5 Q168 372 273 417 Q249 448 232.5 482 Q216 516 216 555 Q216 591 229.5 621.5 Q243 652 267 674.5 Q291 697 324 709.5 Q357 722 395 722 Q452 722 488.5 689.5 Q525 657 525 603 Q525 536 479 488 Q433 440 352 403 L425 289 L569 391 L594 353 L448 249 L594 25 L546 -9 L480 92 Z " />
<glyph glyph-name="asterisk" unicode="&#x2a;" horiz-adv-x="414" d="M238 536 L153 436 L128 455 L200 562 L92 601 L102 631 L216 603 L224 720 L254 720 L261 604 L376 632 L386 601 L276 562 L346 454 L322 436 L238 536 Z " />
<glyph glyph-name="comma" unicode="&#x2c;" horiz-adv-x="246" d="M25 28 Q25 52 43.5 67.5 Q62 83 88 83 Q114 83 125 65.5 Q136 48 136 28 Q136 9 131 -11.5 Q126 -32 112.5 -52.5 Q99 -73 75 -92.5 Q51 -112 14 -128 L5 -104 Q48 -81 68.5 -57.5 Q89 -34 96 2 Q81 -10 62 -10 Q43 -10 34 2 Q25 14 25 28 Z " />
<glyph glyph-name="hyphen" unicode="&#x2d;" horiz-adv-x="333" d="M36 303 L299 303 L290 252 L28 252 L36 303 Z " />
<glyph glyph-name="period" unicode="&#x2e;" horiz-adv-x="247" d="M37 35 Q37 58 51 70.5 Q65 83 85 83 Q106 83 120 71 Q134 59 134 36 Q134 13 120 0.5 Q106 -12 85 -12 Q64 -12 50.5 0.5 Q37 13 37 35 Z " />
<glyph glyph-name="colon" unicode="&#x3a;" horiz-adv-x="247" d="M109 444 Q109 467 123 479.5 Q137 492 157 492 Q178 492 192 480 Q206 468 206 445 Q206 422 192 409.5 Q178 397 157 397 Q136 397 122.5 409.5 Q109 422 109 444 Z M42 35 Q42 58 56 70.5 Q70 83 90 83 Q111 83 125 71 Q139 59 139 36 Q139 13 125 0.5 Q111 -12 90 -12 Q69 -12 55.5 0.5 Q42 13 42 35 Z " />
<glyph glyph-name="semicolon" unicode="&#x3b;" horiz-adv-x="250" d="M25 28 Q25 52 43.5 67.5 Q62 83 88 83 Q114 83 125 65.5 Q136 48 136 28 Q136 9 131 -11.5 Q126 -32 112.5 -52.5 Q99 -73 75 -92.5 Q51 -112 14 -128 L5 -104 Q48 -81 68.5 -57.5 Q89 -34 96 2 Q81 -10 62 -10 Q43 -10 34 2 Q25 14 25 28 Z M112 444 Q112 467 126 479.5 Q140 492 160 492 Q181 492 195 480 Q209 468 209 445 Q209 422 195 409.5 Q181 397 160 397 Q139 397 125.5 409.5 Q112 422 112 444 Z " />
<glyph glyph-name="question" unicode="&#x3f;" horiz-adv-x="509" d="M208 218 Q216 263 236.5 296.5 Q257 330 282.5 357 Q308 384 336 407.5 Q364 431 387 455.5 Q410 480 425 508.5 Q440 537 440 575 Q440 623 410.5 651.5 Q381 680 321 680 Q252 680 206 638 Q160 596 148 522 L92 522 Q109 620 170.5 676 Q232 732 335 732 Q372 732 402.5 722 Q433 712 455 693.5 Q477 675 489.5 647.5 Q502 620 502 586 Q502 542 486 508 Q470 474 445.5 446.5 Q421 419 391.5 394.5 Q362 370 335.5 343.5 Q309 317 288.5 287 Q268 257 261 218 L257 194 L205 194 L208 218 Z M157 24 Q157 49 172.5 63 Q188 77 211 77 Q227 77 237.5 67 Q248 57 248 40 Q248 17 232.5 2.5 Q217 -12 196 -12 Q178 -12 167.5 -2.5 Q157 7 157 24 Z " />
<glyph glyph-name="exclam" unicode="&#x21;" horiz-adv-x="307" d="M153 478 L194 720 L256 720 L215 478 L160 194 L114 194 L153 478 Z M63 25 Q63 49 79 63 Q95 77 117 77 Q133 77 143.5 67 Q154 57 154 40 Q154 16 138.5 2 Q123 -12 102 -12 Q85 -12 74 -2 Q63 8 63 25 Z " />
<glyph glyph-name="exclamdown" unicode="&#xa1;" horiz-adv-x="307" d="M151 60 L110 -182 L48 -182 L89 60 L144 344 L190 344 L151 60 Z M241 513 Q241 489 225 475 Q209 461 187 461 Q171 461 160.5 471 Q150 481 150 498 Q150 522 165.5 536 Q181 550 202 550 Q219 550 230 540 Q241 530 241 513 Z " />
<glyph glyph-name="questiondown" unicode="&#xbf;" horiz-adv-x="509" d="M301 306 Q293 261 272.5 227.5 Q252 194 226.5 167 Q201 140 173 116.5 Q145 93 122 68.5 Q99 44 84 15.5 Q69 -13 69 -51 Q69 -99 98.5 -127.5 Q128 -156 188 -156 Q257 -156 303 -114 Q349 -72 361 2 L417 2 Q400 -96 338.5 -152 Q277 -208 174 -208 Q137 -208 106.5 -198 Q76 -188 54 -169.5 Q32 -151 19.5 -124 Q7 -97 7 -62 Q7 -18 23 16 Q39 50 63.5 77.5 Q88 105 117.5 129.5 Q147 154 173.5 180.5 Q200 207 220.5 237 Q241 267 248 306 L252 330 L304 330 L301 306 Z M352 500 Q352 475 336.5 461 Q321 447 298 447 Q282 447 271.5 457 Q261 467 261 484 Q261 507 276.5 521.5 Q292 536 313 536 Q331 536 341.5 526.5 Q352 517 352 500 Z " />
<glyph glyph-name="at" unicode="&#x40;" horiz-adv-x="982" d="M614 348 Q600 358 576.5 364 Q553 370 523 370 Q480 370 444 351.5 Q408 333 382.5 302.5 Q357 272 342.5 232 Q328 192 328 149 Q328 98 351.5 64.5 Q375 31 423 31 Q451 31 474.5 43 Q498 55 516.5 74.5 Q535 94 548 119 Q561 144 568 169 L614 348 Z M609 134 Q596 79 610.5 54.5 Q625 30 670 30 Q715 30 752.5 54 Q790 78 817 117 Q844 156 858.5 205 Q873 254 873 304 Q873 377 847.5 434 Q822 491 776.5 529 Q731 567 668.5 587 Q606 607 531 607 Q442 607 365 575 Q288 543 231.5 486.5 Q175 430 142.5 352.5 Q110 275 110 184 Q110 100 140 33.5 Q170 -33 222.5 -79 Q275 -125 344.5 -149.5 Q414 -174 494 -174 Q582 -174 651 -149 Q720 -124 783 -79 L805 -111 Q739 -163 660.5 -188.5 Q582 -214 495 -214 Q405 -214 326 -187 Q247 -160 188.5 -109 Q130 -58 96.5 16 Q63 90 63 184 Q63 288 99.5 373.5 Q136 459 200 520 Q264 581 349.5 614.5 Q435 648 534 648 Q621 648 691.5 624 Q762 600 812.5 556 Q863 512 890.5 449.5 Q918 387 918 311 Q918 246 900 188.5 Q882 131 848.5 87 Q815 43 768 17.5 Q721 -8 663 -8 Q611 -8 586 18 Q561 44 566 89 Q541 46 505 20.5 Q469 -5 416 -5 Q346 -5 313.5 37.5 Q281 80 281 149 Q281 200 298.5 247 Q316 294 347.5 330 Q379 366 423.5 388 Q468 410 522 410 Q570 410 605 400 Q640 390 666 374 L609 134 Z " />
<glyph glyph-name="A" unicode="A" horiz-adv-x="625" d="M413 720 L554 0 L491 0 L448 220 L151 220 L35 0 L-30 0 L352 720 L413 720 Z M439 274 L370 648 L176 274 L439 274 Z " />
<glyph glyph-name="B" unicode="B" horiz-adv-x="620" d="M207 669 L162 398 L307 398 Q348 398 386.5 405 Q425 412 455 430 Q485 448 503.5 480 Q522 512 522 562 Q522 621 481 645 Q440 669 367 669 L207 669 Z M103 51 L292 51 Q344 51 383 64.5 Q422 78 448.5 102 Q475 126 488 159 Q501 192 501 231 Q501 263 488.5 285 Q476 307 453.5 320.5 Q431 334 400 340 Q369 346 331 346 L153 346 L103 51 Z M157 720 L392 720 Q494 720 539.5 681 Q585 642 585 574 Q585 544 575 512 Q565 480 545 452.5 Q525 425 494.5 405 Q464 385 422 380 Q420 379 420 378 Q460 375 487.5 360 Q515 345 532 324 Q549 303 556 278 Q563 253 563 229 Q563 167 540.5 123.5 Q518 80 478 52.5 Q438 25 384.5 12.5 Q331 0 269 0 L37 0 L157 720 Z " />
<glyph glyph-name="C" unicode="C" horiz-adv-x="641" d="M569 97 Q516 47 450.5 17.5 Q385 -12 307 -12 Q242 -12 195.5 11 Q149 34 119.5 74 Q90 114 76 167 Q62 220 62 280 Q62 371 87 453.5 Q112 536 159.5 598 Q207 660 276.5 696.5 Q346 733 436 733 Q486 733 527 718 Q568 703 595 675 Q622 647 634 607 Q646 567 639 518 L580 518 Q583 548 576.5 577 Q570 606 552 628.5 Q534 651 503 664.5 Q472 678 425 678 Q357 678 302 648 Q247 618 208 565.5 Q169 513 148 442 Q127 371 127 289 Q127 169 175 106 Q223 43 320 43 Q391 43 443 69.5 Q495 96 541 137 L569 97 Z " />
<glyph glyph-name="D" unicode="D" horiz-adv-x="682" d="M204 665 L105 55 L230 55 Q377 55 457 132.5 Q537 210 560 359 Q564 384 566 406.5 Q568 429 568 450 Q568 558 512.5 611.5 Q457 665 334 665 L204 665 Z M338 720 Q480 720 556 655.5 Q632 591 632 453 Q632 431 630 408 Q628 385 624 359 Q609 263 575.5 194.5 Q542 126 490 83 Q438 40 368 20 Q298 0 212 0 L36 0 L152 720 L338 720 Z " />
<glyph glyph-name="E" unicode="E" horiz-adv-x="586" d="M157 720 L593 720 L584 667 L208 667 L163 398 L506 398 L497 344 L153 344 L104 52 L489 52 L481 0 L37 0 L157 720 Z " />
<glyph glyph-name="F" unicode="F" horiz-adv-x="533" d="M157 720 L570 720 L561 668 L208 668 L162 394 L475 394 L466 342 L153 342 L96 0 L37 0 L157 720 Z " />
<glyph glyph-name="G" unicode="G" horiz-adv-x="703" d="M426 361 L645 361 L602 102 Q566 66 528 43.5 Q490 21 453.5 8.5 Q417 -4 384 -8 Q351 -12 324 -12 Q253 -12 203 10 Q153 32 121 71.5 Q89 111 74 164.5 Q59 218 59 281 Q59 378 86 460.5 Q113 543 163.5 603.5 Q214 664 286.5 698.5 Q359 733 451 733 Q523 733 567.5 712.5 Q612 692 635.5 661 Q659 630 665 593 Q671 556 667 523 L608 523 Q610 556 603 584.5 Q596 613 576.5 634 Q557 655 523 666.5 Q489 678 437 678 Q363 678 304.5 646 Q246 614 206 560.5 Q166 507 145 437 Q124 367 124 291 Q124 173 175.5 107.5 Q227 42 336 42 Q399 42 451.5 63 Q504 84 553 128 L583 309 L417 309 L426 361 Z " />
<glyph glyph-name="H" unicode="H" horiz-adv-x="685" d="M157 720 L216 720 L164 406 L556 406 L608 720 L669 720 L548 0 L488 0 L547 352 L155 352 L96 0 L37 0 L157 720 Z " />
<glyph glyph-name="I" unicode="I" horiz-adv-x="233" d="M157 720 L216 720 L96 0 L37 0 L157 720 Z " />
<glyph glyph-name="J" unicode="J" horiz-adv-x="381" d="M274 145 Q260 61 217 24.5 Q174 -12 98 -12 Q67 -12 32.5 -5 Q-2 2 -29 16 L-5 65 Q20 53 45.5 46.5 Q71 40 105 40 Q129 40 147 46 Q165 52 179 66.5 Q193 81 202 105.5 Q211 130 217 167 L310 720 L370 720 L274 145 Z " />
<glyph glyph-name="K" unicode="K" horiz-adv-x="614" d="M157 720 L216 720 L163 400 L311 400 L554 720 L621 720 L359 377 L539 0 L470 0 L302 349 L154 349 L96 0 L37 0 L157 720 Z " />
<glyph glyph-name="L" unicode="L" horiz-adv-x="512" d="M216 720 L105 54 L443 54 L434 0 L37 0 L157 720 L216 720 Z " />
<glyph glyph-name="M" unicode="M" horiz-adv-x="851" d="M681 0 L723 628 L400 0 L348 0 L238 628 L70 0 L12 0 L205 720 L279 720 L389 83 L714 720 L786 720 L739 0 L681 0 Z " />
<glyph glyph-name="N" unicode="N" horiz-adv-x="689" d="M157 720 L214 720 L511 105 L613 720 L673 720 L552 0 L497 0 L199 616 L96 0 L37 0 L157 720 Z " />
<glyph glyph-name="O" unicode="O" horiz-adv-x="747" d="M135 370 Q130 344 128.5 320.5 Q127 297 127 275 Q127 156 183 100 Q239 44 334 44 Q388 44 436 63 Q484 82 522.5 122 Q561 162 588.5 223.5 Q616 285 630 370 Q634 393 635.5 413.5 Q637 434 637 453 Q637 564 583 620.5 Q529 677 435 677 Q379 677 329.5 657 Q280 637 241 598 Q202 559 174.5 502 Q147 445 135 370 Z M70 370 Q84 463 119 531.5 Q154 600 204.5 645 Q255 690 317 711.5 Q379 733 447 733 Q503 733 550 715.5 Q597 698 630.5 663 Q664 628 682.5 575.5 Q701 523 701 453 Q701 433 700 413 Q699 393 695 370 Q679 265 643 192 Q607 119 557.5 73.5 Q508 28 448 8 Q388 -12 322 -12 Q265 -12 217 4.5 Q169 21 134.5 55.5 Q100 90 81 143 Q62 196 62 270 Q62 293 63.5 318 Q65 343 70 370 Z " />
<glyph glyph-name="P" unicode="P" horiz-adv-x="581" d="M207 666 L154 348 L296 348 Q408 348 461.5 399.5 Q515 451 515 542 Q515 604 477.5 635 Q440 666 359 666 L207 666 Z M157 720 L371 720 Q477 720 526.5 674.5 Q576 629 576 549 Q576 494 558.5 447.5 Q541 401 505.5 367.5 Q470 334 415.5 315 Q361 296 288 296 L145 296 L96 0 L37 0 L157 720 Z " />
<glyph glyph-name="Q" unicode="Q" horiz-adv-x="747" d="M70 370 Q84 463 119 531.5 Q154 600 204.5 645 Q255 690 317 711.5 Q379 733 447 733 Q503 733 550 715.5 Q597 698 630.5 663 Q664 628 682.5 575.5 Q701 523 701 453 Q701 433 700 413 Q699 393 695 370 Q683 294 661 235 Q639 176 608.5 132.5 Q578 89 540.5 59.5 Q503 30 461 13 L614 -43 L589 -94 L370 -9 Q346 -12 322 -12 Q265 -12 217 4.5 Q169 21 134.5 55.5 Q100 90 81 143 Q62 196 62 270 Q62 293 63.5 318 Q65 343 70 370 Z M135 370 Q130 344 128.5 320.5 Q127 297 127 275 Q127 156 183 100 Q239 44 334 44 Q388 44 436 63 Q484 82 522.5 122 Q561 162 588.5 223.5 Q616 285 630 370 Q634 393 635.5 413.5 Q637 434 637 453 Q637 564 583 620.5 Q529 677 435 677 Q379 677 329.5 657 Q280 637 241 598 Q202 559 174.5 502 Q147 445 135 370 Z " />
<glyph glyph-name="R" unicode="R" horiz-adv-x="613" d="M370 720 Q424 720 463 708 Q502 696 527.5 673.5 Q553 651 565.5 619.5 Q578 588 578 550 Q578 472 541 413.5 Q504 355 418 317 L528 0 L463 0 L358 304 Q341 300 321 298.5 Q301 297 278 297 L145 297 L96 0 L37 0 L157 720 L370 720 Z M207 666 L154 348 L299 348 Q411 348 463.5 399.5 Q516 451 516 543 Q516 603 479 634.5 Q442 666 360 666 L207 666 Z " />
<glyph glyph-name="S" unicode="S" horiz-adv-x="561" d="M44 132 Q84 87 131.5 64 Q179 41 239 41 Q277 41 312 52 Q347 63 373.5 84.5 Q400 106 416 137.5 Q432 169 432 210 Q432 256 400 287.5 Q368 319 286 346 Q237 362 201.5 377.5 Q166 393 143 413 Q120 433 109 459 Q98 485 98 521 Q98 569 117.5 608 Q137 647 171 675 Q205 703 252 718 Q299 733 355 733 Q423 733 474 708 Q525 683 560 629 L515 593 Q483 641 438 661 Q393 681 346 681 Q307 681 273 671 Q239 661 214 642 Q189 623 175 595 Q161 567 161 531 Q161 502 171 483 Q181 464 201 449.5 Q221 435 252.5 422.5 Q284 410 327 394 Q372 377 403.5 360 Q435 343 455.5 322.5 Q476 302 485 277.5 Q494 253 494 222 Q494 168 474 124.5 Q454 81 418 50.5 Q382 20 332.5 4 Q283 -12 225 -12 Q151 -12 94 17.5 Q37 47 2 92 L44 132 Z " />
<glyph glyph-name="T" unicode="T" horiz-adv-x="551" d="M306 667 L79 667 L88 720 L602 720 L593 667 L366 667 L255 0 L195 0 L306 667 Z " />
<glyph glyph-name="U" unicode="U" horiz-adv-x="679" d="M211 720 L137 275 Q117 156 157.5 99 Q198 42 300 42 Q354 42 393.5 57.5 Q433 73 461 102.5 Q489 132 506.5 175.5 Q524 219 533 275 L607 720 L667 720 L591 265 Q568 123 492.5 55.5 Q417 -12 292 -12 Q233 -12 187 4.5 Q141 21 112.5 55 Q84 89 74 141 Q64 193 76 265 L152 720 L211 720 Z " />
<glyph glyph-name="V" unicode="V" horiz-adv-x="578" d="M91 720 L153 720 L249 66 L567 720 L628 720 L275 0 L203 0 L91 720 Z " />
<glyph glyph-name="W" unicode="W" horiz-adv-x="909" d="M91 720 L150 720 L216 76 L495 720 L557 720 L621 75 L899 720 L959 720 L648 0 L576 0 L511 634 L234 0 L162 0 L91 720 Z " />
<glyph glyph-name="X" unicode="X" horiz-adv-x="557" d="M256 368 L97 720 L162 720 L300 414 L535 720 L603 720 L325 364 L486 0 L418 0 L280 313 L39 0 L-30 0 L256 368 Z " />
<glyph glyph-name="Y" unicode="Y" horiz-adv-x="553" d="M247 310 L90 720 L157 720 L288 371 L536 720 L603 720 L307 310 L255 0 L195 0 L247 310 Z " />
<glyph glyph-name="Z" unicode="Z" horiz-adv-x="568" d="M-3 41 L504 667 L131 667 L140 720 L601 720 L596 693 L77 53 L488 53 L479 0 L-11 0 L-3 41 Z " />
<glyph glyph-name="a" unicode="a" horiz-adv-x="561" d="M397 71 Q386 59 368 45 Q350 31 326 18 Q302 5 272.5 -3.5 Q243 -12 208 -12 Q163 -12 130.5 3 Q98 18 76.5 45.5 Q55 73 45 111 Q35 149 35 196 Q35 267 53 329 Q71 391 105.5 437 Q140 483 189.5 509.5 Q239 536 301 536 Q332 536 355.5 528.5 Q379 521 398 508.5 Q417 496 431 479.5 Q445 463 456 445 L470 524 L525 524 L438 0 L385 0 L397 71 Z M445 380 Q438 393 425.5 411 Q413 429 395 445 Q377 461 353 472 Q329 483 299 483 Q256 483 219 464 Q182 445 154.5 409.5 Q127 374 111.5 323.5 Q96 273 96 210 Q96 178 101.5 147.5 Q107 117 121 93 Q135 69 159.5 54.5 Q184 40 222 40 Q252 40 279.5 49.5 Q307 59 330.5 73.5 Q354 88 372.5 104 Q391 120 403 132 L445 380 Z " />
<glyph glyph-name="b" unicode="b" horiz-adv-x="568" d="M101 134 Q108 119 120.5 102 Q133 85 151 71 Q169 57 192.5 48 Q216 39 246 39 Q292 39 330 58 Q368 77 395 113.5 Q422 150 437 202 Q452 254 452 320 Q452 399 420.5 441 Q389 483 326 483 Q298 483 273 474.5 Q248 466 225.5 451.5 Q203 437 182.5 418.5 Q162 400 143 380 L101 134 Z M23 0 L143 720 L200 720 L153 444 Q195 487 242 511.5 Q289 536 346 536 Q432 536 472.5 479 Q513 422 513 328 Q513 259 496.5 197 Q480 135 446.5 88.5 Q413 42 362 15 Q311 -12 242 -12 Q207 -12 181 -3 Q155 6 136 19.5 Q117 33 105 47.5 Q93 62 87 74 L72 0 L23 0 Z " />
<glyph glyph-name="c" unicode="c" horiz-adv-x="508" d="M426 60 Q376 21 328.5 4.5 Q281 -12 228 -12 Q183 -12 147.5 3.5 Q112 19 87.5 48 Q63 77 50 117 Q37 157 37 207 Q37 286 59.5 347 Q82 408 120 450 Q158 492 207.5 514 Q257 536 312 536 Q402 536 444 487 Q486 438 477 351 L424 351 Q427 420 395 452 Q363 484 308 484 Q261 484 222.5 464.5 Q184 445 156.5 410 Q129 375 113.5 326.5 Q98 278 98 220 Q98 184 106.5 151 Q115 118 132.5 93.5 Q150 69 176.5 54.5 Q203 40 239 40 Q263 40 283 43.5 Q303 47 322.5 54 Q342 61 361.5 72.5 Q381 84 405 100 L426 60 Z " />
<glyph glyph-name="d" unicode="d" horiz-adv-x="561" d="M396 70 Q385 58 367 44 Q349 30 325.5 17.5 Q302 5 272.5 -3.5 Q243 -12 208 -12 Q163 -12 130.5 3 Q98 18 76.5 45.5 Q55 73 45 111 Q35 149 35 196 Q35 267 53 329 Q71 391 105.5 437 Q140 483 189.5 509.5 Q239 536 301 536 Q332 536 355.5 528.5 Q379 521 398 508.5 Q417 496 431 479.5 Q445 463 456 445 L503 720 L558 720 L438 0 L385 0 L396 70 Z M445 380 Q438 393 425.5 411 Q413 429 395 445 Q377 461 353 472 Q329 483 299 483 Q256 483 219 464 Q182 445 154.5 409.5 Q127 374 111.5 323.5 Q96 273 96 210 Q96 178 101.5 147.5 Q107 117 121 93 Q135 69 159.5 54.5 Q184 40 222 40 Q252 40 279.5 49.5 Q307 59 330.5 73.5 Q354 88 372.5 104 Q391 120 403 132 L445 380 Z " />
<glyph glyph-name="e" unicode="e" horiz-adv-x="506" d="M429 60 Q379 21 326.5 4.5 Q274 -12 223 -12 Q131 -12 84 40 Q37 92 37 186 Q37 265 59.5 330 Q82 395 120.5 440.5 Q159 486 211.5 511 Q264 536 324 536 Q397 536 436.5 502 Q476 468 476 409 Q476 368 460 334 Q444 300 402 275 Q360 250 286.5 235.5 Q213 221 99 218 Q98 210 98 203 Q98 196 98 188 Q98 158 104.5 131 Q111 104 127 84 Q143 64 169.5 52 Q196 40 237 40 Q282 40 323 53.5 Q364 67 406 99 L429 60 Z M105 268 Q199 270 259.5 280 Q320 290 355 307.5 Q390 325 403.5 349 Q417 373 417 403 Q417 441 393 463.5 Q369 486 318 486 Q266 486 227.5 462 Q189 438 163 404 Q137 370 122.5 332.5 Q108 295 105 268 Z " />
<glyph glyph-name="f" unicode="f" horiz-adv-x="248" d="M118 475 L60 475 L66 512 L126 522 L140 603 Q144 629 154 652.5 Q164 676 179.5 693.5 Q195 711 217.5 721.5 Q240 732 270 732 Q283 732 298.5 730.5 Q314 729 328 724 L317 679 Q308 682 297 684 Q286 686 272 686 Q248 686 226.5 669 Q205 652 197 606 L183 524 L281 524 L272 475 L174 475 L95 0 L39 0 L118 475 Z " />
<glyph glyph-name="g" unicode="g" horiz-adv-x="561" d="M435 -15 Q426 -70 407.5 -107 Q389 -144 360.5 -167 Q332 -190 292.5 -200 Q253 -210 202 -210 Q148 -210 100.5 -199 Q53 -188 23 -175 L42 -128 Q71 -141 111.5 -151.5 Q152 -162 198 -162 Q247 -162 280 -151 Q313 -140 334.5 -118 Q356 -96 368 -62 Q380 -28 387 18 L395 69 Q362 35 314.5 12.5 Q267 -10 207 -10 Q161 -10 128.5 6 Q96 22 75 50 Q54 78 44.5 115.5 Q35 153 35 197 Q35 261 51.5 322 Q68 383 101.5 430.5 Q135 478 185.5 507 Q236 536 304 536 Q336 536 361 526.5 Q386 517 405 503 Q424 489 436.5 472.5 Q449 456 457 442 L471 524 L525 524 L435 -15 Z M444 378 Q438 393 426 411 Q414 429 396 445 Q378 461 354.5 472 Q331 483 303 483 Q253 483 214.5 461.5 Q176 440 149.5 403 Q123 366 109.5 316.5 Q96 267 96 210 Q96 173 102.5 141.5 Q109 110 123.5 87.5 Q138 65 161.5 52.5 Q185 40 220 40 Q251 40 278 49.5 Q305 59 328.5 73 Q352 87 370.5 103 Q389 119 403 131 L444 378 Z " />
<glyph glyph-name="h" unicode="h" horiz-adv-x="531" d="M200 720 L153 443 Q193 482 240.5 509 Q288 536 343 536 Q385 536 412.5 522 Q440 508 454 482.5 Q468 457 470 420 Q472 383 465 337 L409 0 L353 0 L407 327 Q412 355 413 383 Q414 411 406 433.5 Q398 456 378.5 469.5 Q359 483 322 483 Q294 483 268.5 474 Q243 465 220.5 451 Q198 437 178.5 419.5 Q159 402 143 385 L79 0 L23 0 L143 720 L200 720 Z " />
<glyph glyph-name="i" unicode="i" horiz-adv-x="213" d="M126 663 Q126 683 141 695.5 Q156 708 176 708 Q192 708 201.5 698.5 Q211 689 211 675 Q211 655 197 642.5 Q183 630 163 630 Q146 630 136 639.5 Q126 649 126 663 Z M84 0 L29 0 L117 524 L172 524 L84 0 Z " />
<glyph glyph-name="j" unicode="j" horiz-adv-x="214" d="M72 -79 Q67 -108 59 -131 Q51 -154 37 -170 Q23 -186 2 -194.5 Q-19 -203 -50 -203 Q-67 -203 -83 -201 Q-99 -199 -113 -193 L-99 -148 Q-90 -151 -78 -153 Q-66 -155 -53 -155 Q-27 -155 -10 -140 Q7 -125 15 -78 L117 524 L173 524 L72 -79 Z M127 663 Q127 683 142 696.5 Q157 710 177 710 Q193 710 202.5 700 Q212 690 212 675 Q212 655 198 641.5 Q184 628 164 628 Q147 628 137 637.5 Q127 647 127 663 Z " />
<glyph glyph-name="k" unicode="k" horiz-adv-x="480" d="M132 317 L195 317 L411 524 L480 524 L240 292 L417 0 L347 0 L184 266 L124 266 L79 0 L23 0 L143 720 L200 720 L132 317 Z " />
<glyph glyph-name="l" unicode="l" horiz-adv-x="202" d="M23 0 L143 720 L200 720 L79 0 L23 0 Z " />
<glyph glyph-name="m" unicode="m" horiz-adv-x="791" d="M164 524 L150 441 Q185 479 229 507.5 Q273 536 329 536 Q359 536 379.5 528.5 Q400 521 412.5 508.5 Q425 496 431.5 478.5 Q438 461 441 441 Q478 479 522.5 507.5 Q567 536 623 536 Q665 536 689.5 521.5 Q714 507 724.5 483 Q735 459 735 427.5 Q735 396 729 362 L669 0 L612 0 L673 356 Q677 385 676.5 408 Q676 431 667.5 447.5 Q659 464 642.5 473 Q626 482 599 482 Q574 482 550 471 Q526 460 505 445 Q484 430 467 414 Q450 398 440 388 L375 0 L318 0 L377 354 Q382 383 381.5 406.5 Q381 430 373.5 447 Q366 464 349.5 473 Q333 482 306 482 Q280 482 255.5 471.5 Q231 461 210 446 Q189 431 172.5 414.5 Q156 398 144 386 L79 0 L23 0 L111 524 L164 524 Z " />
<glyph glyph-name="n" unicode="n" horiz-adv-x="531" d="M164 524 L150 443 Q191 484 238.5 510 Q286 536 340 536 Q386 536 414.5 521 Q443 506 456.5 479 Q470 452 471 415.5 Q472 379 465 336 L409 0 L353 0 L407 329 Q421 407 401 445 Q381 483 319 483 Q290 483 263.5 472 Q237 461 214.5 446 Q192 431 173.5 414 Q155 397 143 385 L79 0 L23 0 L111 524 L164 524 Z " />
<glyph glyph-name="o" unicode="o" horiz-adv-x="558" d="M99 261 Q96 244 95 228 Q94 212 94 198 Q94 117 130.5 79 Q167 41 230 41 Q265 41 298 53.5 Q331 66 358 93 Q385 120 405 161.5 Q425 203 434 261 Q437 278 438 293.5 Q439 309 439 323 Q439 405 400 444 Q361 483 301 483 Q266 483 233.5 469.5 Q201 456 174 428 Q147 400 127.5 358.5 Q108 317 99 261 Z M37 260 Q47 326 71.5 377.5 Q96 429 132 464.5 Q168 500 213.5 518 Q259 536 310 536 Q400 536 450 482 Q500 428 500 327 Q500 311 499 294.5 Q498 278 495 261 Q484 190 459 138.5 Q434 87 398.5 53.5 Q363 20 318 4 Q273 -12 221 -12 Q130 -12 81 42 Q32 96 32 193 Q32 209 33 225.5 Q34 242 37 260 Z " />
<glyph glyph-name="p" unicode="p" horiz-adv-x="568" d="M101 131 Q109 117 122 101.5 Q135 86 153 72.5 Q171 59 194 50 Q217 41 247 41 Q293 41 330.5 60 Q368 79 395 114.5 Q422 150 437 201.5 Q452 253 452 319 Q452 398 420.5 440.5 Q389 483 326 483 Q298 483 273 474.5 Q248 466 225.5 451.5 Q203 437 182.5 418.5 Q162 400 143 380 L101 131 Z M-10 -200 L111 524 L165 524 L151 440 Q194 485 242 510.5 Q290 536 347 536 Q433 536 473 479 Q513 422 513 329 Q513 259 496 197 Q479 135 445.5 88.5 Q412 42 362 15 Q312 -12 245 -12 Q210 -12 184 -3 Q158 6 139 19 Q120 32 108 46 Q96 60 91 70 L46 -200 L-10 -200 Z " />
<glyph glyph-name="q" unicode="q" horiz-adv-x="563" d="M393 64 Q382 54 365 41 Q348 28 325 16 Q302 4 272.5 -4 Q243 -12 209 -12 Q164 -12 131 3 Q98 18 76.5 45.5 Q55 73 45 111 Q35 149 35 196 Q35 267 53 329 Q71 391 105.5 437 Q140 483 190 509.5 Q240 536 303 536 Q333 536 357 528.5 Q381 521 399.5 508.5 Q418 496 432.5 479.5 Q447 463 459 444 L473 524 L525 524 L404 -200 L348 -200 L393 64 Z M445 381 Q438 394 426 412 Q414 430 396 445.5 Q378 461 354 472 Q330 483 299 483 Q256 483 219 464 Q182 445 154.5 409.5 Q127 374 111.5 323.5 Q96 273 96 210 Q96 178 101.5 147.5 Q107 117 121 93.5 Q135 70 159.5 55.5 Q184 41 222 41 Q252 41 279 50.5 Q306 60 329.5 73.5 Q353 87 372 102.5 Q391 118 403 130 L445 381 Z " />
<glyph glyph-name="r" unicode="r" horiz-adv-x="298" d="M147 439 Q170 480 206 508 Q242 536 283 536 Q294 536 306 534.5 Q318 533 327 529 L310 472 Q302 475 291.5 476 Q281 477 270 477 Q250 477 231 467.5 Q212 458 195.5 443 Q179 428 165.5 410 Q152 392 142 375 L79 0 L23 0 L111 524 L161 524 L147 439 Z " />
<glyph glyph-name="s" unicode="s" horiz-adv-x="456" d="M26 107 Q58 76 96 57 Q134 38 177 38 Q243 38 285 67.5 Q327 97 327 148 Q327 167 321.5 181.5 Q316 196 302 207.5 Q288 219 265 228.5 Q242 238 206 246 Q129 264 96.5 294.5 Q64 325 64 380 Q64 414 78.5 443 Q93 472 119 492.5 Q145 513 182.5 524.5 Q220 536 267 536 Q377 536 433 459 L396 424 Q368 457 333 472 Q298 487 260 487 Q199 487 161 460.5 Q123 434 123 389 Q123 348 152.5 328.5 Q182 309 245 293 Q319 275 354 243 Q389 211 389 159 Q389 118 372.5 86 Q356 54 327 32 Q298 10 258 -1 Q218 -12 172 -12 Q110 -12 62.5 11.5 Q15 35 -12 68 L26 107 Z " />
<glyph glyph-name="t" unicode="t" horiz-adv-x="279" d="M173 475 L109 88 Q104 59 112.5 47.5 Q121 36 146 36 Q163 36 179.5 40.5 Q196 45 210 51 L216 9 Q199 1 174.5 -5.5 Q150 -12 130 -12 Q84 -12 64 8.5 Q44 29 52 76 L118 475 L55 475 L61 512 L127 524 L160 663 L205 663 L182 524 L281 524 L272 475 L173 475 Z " />
<glyph glyph-name="u" unicode="u" horiz-adv-x="526" d="M350 0 L363 80 Q348 65 328.5 48.5 Q309 32 285 18.5 Q261 5 233 -3.5 Q205 -12 174 -12 Q126 -12 97.5 3 Q69 18 55.5 44 Q42 70 41.5 104 Q41 138 47 176 L106 524 L163 524 L106 187 Q95 116 112 78.5 Q129 41 193 41 Q220 41 244.5 49.5 Q269 58 291.5 72 Q314 86 333.5 103.5 Q353 121 370 138 L435 524 L491 524 L403 0 L350 0 Z " />
<glyph glyph-name="v" unicode="v" horiz-adv-x="456" d="M101 524 L178 62 L416 524 L474 524 L201 0 L135 0 L43 524 L101 524 Z " />
<glyph glyph-name="w" unicode="w" horiz-adv-x="697" d="M700 524 L486 0 L425 0 L360 440 L152 0 L92 0 L54 524 L111 524 L137 72 L345 518 L401 518 L466 72 L644 524 L700 524 Z " />
<glyph glyph-name="x" unicode="x" horiz-adv-x="457" d="M188 271 L58 524 L123 524 L228 311 L407 524 L469 524 L256 267 L390 0 L327 0 L216 225 L31 0 L-34 0 L188 271 Z " />
<glyph glyph-name="y" unicode="y" horiz-adv-x="453" d="M461 524 L180 -34 Q159 -76 141 -107.5 Q123 -139 104.5 -160 Q86 -181 63 -191.5 Q40 -202 9 -202 Q-17 -202 -35.5 -199.5 Q-54 -197 -74 -191 L-57 -143 Q-49 -146 -30.5 -149 Q-12 -152 9 -152 Q24 -152 37 -147.5 Q50 -143 62 -131.5 Q74 -120 87 -100 Q100 -80 115 -48 L138 1 L41 524 L102 524 L180 77 L400 524 L461 524 Z " />
<glyph glyph-name="z" unicode="z" horiz-adv-x="416" d="M-9 41 L343 474 L70 474 L78 524 L426 524 L420 491 L61 50 L343 50 L335 0 L-17 0 L-9 41 Z " />
<glyph glyph-name="bracketleft" unicode="&#x5b;" horiz-adv-x="336" d="M23 -125 L165 720 L332 720 L324 672 L213 672 L87 -77 L198 -77 L190 -125 L23 -125 Z " />
<glyph glyph-name="bracketright" unicode="&#x5d;" horiz-adv-x="335" d="M3 -125 L10 -77 L121 -77 L247 672 L136 672 L144 720 L311 720 L169 -125 L3 -125 Z " />
<glyph glyph-name="parenleft" unicode="&#x28;" horiz-adv-x="339" d="M339 698 Q280 635 237.5 576 Q195 517 168 457 Q141 397 128 334.5 Q115 272 115 202 Q115 118 136.5 44 Q158 -30 203 -101 L167 -127 Q113 -64 86 21 Q59 106 59 203 Q59 282 76.5 353.5 Q94 425 126 490 Q158 555 203.5 615 Q249 675 305 731 L339 698 Z " />
<glyph glyph-name="parenright" unicode="&#x29;" horiz-adv-x="339" d="M19 -94 Q78 -31 120.5 28 Q163 87 190 147 Q217 207 230 269.5 Q243 332 243 402 Q243 486 221.5 560 Q200 634 155 705 L191 731 Q245 668 272 583 Q299 498 299 401 Q299 322 281.5 250.5 Q264 179 232 113.5 Q200 48 154.5 -11.5 Q109 -71 53 -127 L19 -94 Z " />
<glyph glyph-name="braceleft" unicode="&#x7b;" horiz-adv-x="348" d="M347 674 Q297 674 275.5 641.5 Q254 609 244 549 L221 411 Q217 387 211 366.5 Q205 346 194 329.5 Q183 313 164.5 301 Q146 289 117 282 Q145 278 159 265.5 Q173 253 178.5 234.5 Q184 216 182 192.5 Q180 169 176 144 L160 46 Q155 15 154.5 -8.5 Q154 -32 161.5 -47.5 Q169 -63 185 -71 Q201 -79 229 -79 L263 -79 L255 -125 L222 -125 Q180 -125 153 -116.5 Q126 -108 111.5 -90 Q97 -72 94.5 -43.5 Q92 -15 99 26 L119 144 Q123 171 123 192 Q123 213 116 227.5 Q109 242 94 249.5 Q79 257 53 257 L27 257 L35 307 L60 307 Q113 307 135 338.5 Q157 370 168 438 L187 547 Q194 591 205.5 623.5 Q217 656 237 677.5 Q257 699 286.5 709.5 Q316 720 360 720 L397 720 L390 674 L347 674 Z " />
<glyph glyph-name="braceright" unicode="&#x7d;" horiz-adv-x="339" d="M83 674 L91 720 L128 720 Q171 720 197 709.5 Q223 699 235.5 677.5 Q248 656 248.5 623.5 Q249 591 242 547 L224 438 Q212 370 223 338.5 Q234 307 287 307 L311 307 L302 257 L277 257 Q251 257 233.5 249.5 Q216 242 204.5 227.5 Q193 213 186 192 Q179 171 174 144 L155 26 Q148 -15 136 -43.5 Q124 -72 104 -90 Q84 -108 54.5 -116.5 Q25 -125 -16 -125 L-50 -125 L-43 -79 L-8 -79 Q47 -79 69 -47.5 Q91 -16 101 46 L117 144 Q121 169 127 192.5 Q133 216 144.5 234.5 Q156 253 174 265.5 Q192 278 221 282 Q195 289 181 301 Q167 313 161.5 329.5 Q156 346 157 366.5 Q158 387 163 411 L185 549 Q195 609 185 641.5 Q175 674 125 674 L83 674 Z " />
<glyph glyph-name="backslash" unicode="&#x5c;" horiz-adv-x="392" d="M357 -92 L306 -92 L61 739 L115 739 L357 -92 Z " />
<glyph glyph-name="slash" unicode="&#x2f;" horiz-adv-x="348" d="M340 739 L394 739 L10 -92 L-41 -92 L340 739 Z " />
<glyph glyph-name="brokenbar" unicode="&#xa6;" horiz-adv-x="500" d="M275 -200 L224 -200 L224 204 L275 204 L275 -200 Z M275 316 L224 316 L224 720 L275 720 L275 316 Z " />
<glyph glyph-name="bar" unicode="&#x7c;" horiz-adv-x="500" d="M275 -200 L224 -200 L224 720 L275 720 L275 -200 Z " />
<glyph glyph-name="asciicircum" unicode="&#x5e;" horiz-adv-x="675" d="M622 444 L581 413 L397 649 L130 413 L100 446 L375 693 L430 693 L622 444 Z " />
<glyph glyph-name="underscore" unicode="&#x5f;" horiz-adv-x="490" d="M-82 -186 L409 -186 L402 -231 L-90 -231 L-82 -186 Z " />
<glyph glyph-name="asciitilde" unicode="&#x7e;" horiz-adv-x="770" d="M712 307 Q661 271 614.5 250 Q568 229 518 229 Q480 229 446 240 Q412 251 380.5 264 Q349 277 318 288 Q287 299 254 299 Q209 299 169.5 280 Q130 261 86 230 L64 269 Q114 305 162.5 326 Q211 347 266 347 Q305 347 339.5 336 Q374 325 405.5 312 Q437 299 466.5 288 Q496 277 523 277 Q564 277 601 293.5 Q638 310 688 344 L712 307 Z " />
<glyph glyph-name="zero" unicode="0" horiz-adv-x="590" d="M132 354 Q126 316 123.5 284 Q121 252 121 223 Q121 128 152.5 83.5 Q184 39 247 39 Q329 39 384.5 114 Q440 189 466 355 Q478 430 478 486 Q478 581 445.5 625 Q413 669 350 669 Q268 669 213 594 Q158 519 132 354 Z M72 354 Q87 450 113 519.5 Q139 589 176 633.5 Q213 678 258.5 699 Q304 720 358 720 Q446 720 491 663 Q536 606 536 485 Q536 456 533 424 Q530 392 525 356 Q510 255 483.5 185 Q457 115 420.5 71.5 Q384 28 338.5 8 Q293 -12 240 -12 Q152 -12 106.5 44.5 Q61 101 61 222 Q61 251 64 284 Q67 317 72 354 Z " />
<glyph glyph-name="one" unicode="1" horiz-adv-x="437" d="M276 622 Q232 595 187 575.5 Q142 556 91 546 L90 592 Q116 598 145 609.5 Q174 621 202.5 636 Q231 651 258 669.5 Q285 688 308 709 L347 709 L236 46 L375 46 L367 0 L13 0 L21 46 L180 46 L276 622 Z " />
<glyph glyph-name="two" unicode="2" horiz-adv-x="493" d="M-5 42 L320 389 Q347 417 364.5 440 Q382 463 392 483 Q402 503 406 521.5 Q410 540 410 560 Q410 608 380 636.5 Q350 665 298 665 Q249 665 202.5 644 Q156 623 107 582 L80 621 Q128 666 188 693 Q248 720 312 720 Q345 720 374 710 Q403 700 424 681.5 Q445 663 457.5 635.5 Q470 608 470 574 Q470 517 443.5 468.5 Q417 420 363 364 L69 52 L390 52 L381 0 L-13 0 L-5 42 Z " />
<glyph glyph-name="three" unicode="3" horiz-adv-x="505" d="M23 124 Q41 103 58.5 87.5 Q76 72 96.5 62 Q117 52 140.5 47 Q164 42 193 42 Q229 42 262 54.5 Q295 67 320.5 89.5 Q346 112 361.5 144 Q377 176 377 215 Q377 242 369 264.5 Q361 287 343.5 303.5 Q326 320 298 329.5 Q270 339 230 339 Q225 339 217.5 338.5 Q210 338 202 338 Q194 338 188 337.5 Q182 337 181 337 L187 390 Q229 391 267.5 404.5 Q306 418 334.5 441.5 Q363 465 380 496.5 Q397 528 397 565 Q397 616 365 641.5 Q333 667 287 667 Q243 667 203 654.5 Q163 642 124 615 L105 655 Q147 684 195 702 Q243 720 300 720 Q370 720 413.5 683.5 Q457 647 457 578 Q457 544 444.5 511.5 Q432 479 410 452 Q388 425 358 404.5 Q328 384 294 375 Q369 368 403.5 328 Q438 288 438 225 Q438 168 416.5 124 Q395 80 360 50 Q325 20 279.5 4 Q234 -12 186 -12 Q121 -12 72 9 Q23 30 -19 83 L23 124 Z " />
<glyph glyph-name="four" unicode="4" horiz-adv-x="522" d="M345 226 L416 651 L82 226 L345 226 Z M336 175 L12 175 L20 219 L406 709 L480 709 L398 226 L485 226 L477 175 L390 175 L361 0 L307 0 L336 175 Z " />
<glyph glyph-name="five" unicode="5" horiz-adv-x="523" d="M168 709 L494 709 L482 654 L205 654 L141 382 Q166 405 206.5 421.5 Q247 438 294 438 Q375 438 414.5 392 Q454 346 454 268 Q454 200 432.5 148 Q411 96 375 60.5 Q339 25 290.5 6.5 Q242 -12 188 -12 Q144 -12 94.5 2 Q45 16 3 49 L37 95 Q75 69 112 54.5 Q149 40 190 40 Q233 40 270.5 53 Q308 66 336 92.5 Q364 119 379.5 159.5 Q395 200 395 254 Q395 311 367.5 349 Q340 387 279 387 Q229 387 191.5 368.5 Q154 350 128 325 L116 276 L66 276 L168 709 Z " />
<glyph glyph-name="six" unicode="6" horiz-adv-x="528" d="M55 302 Q70 414 101 493 Q132 572 175 622.5 Q218 673 269.5 696.5 Q321 720 377 720 Q419 720 456.5 706 Q494 692 521 663 L487 623 Q459 649 432 659 Q405 669 373 669 Q317 669 276 641.5 Q235 614 205.5 570 Q176 526 155.5 470 Q135 414 122 356 Q141 372 164 386.5 Q187 401 212 412.5 Q237 424 264 430.5 Q291 437 318 437 Q359 437 388.5 424 Q418 411 437 388 Q456 365 465 334.5 Q474 304 474 268 Q474 255 473 243 Q472 231 470 217 Q453 103 386.5 45.5 Q320 -12 224 -12 Q133 -12 91 42.5 Q49 97 49 203 Q49 225 50 250.5 Q51 276 55 302 Z M234 39 Q263 39 291.5 49 Q320 59 344 80 Q368 101 385.5 134 Q403 167 411 214 Q415 237 415 260 Q415 325 382 355 Q349 385 301 385 Q272 385 244.5 376 Q217 367 193 353.5 Q169 340 148.5 325 Q128 310 115 298 Q110 271 108.5 247 Q107 223 107 202 Q107 114 141 76.5 Q175 39 234 39 Z " />
<glyph glyph-name="seven" unicode="7" horiz-adv-x="431" d="M99 0 L42 0 L43 8 L411 654 L76 654 L86 709 L485 709 L477 668 L99 0 Z " />
<glyph glyph-name="eight" unicode="8" horiz-adv-x="516" d="M78 153 Q78 102 113 70.5 Q148 39 212 39 Q251 39 285 52 Q319 65 343.5 87.5 Q368 110 382 141.5 Q396 173 396 210 Q396 240 384.5 263.5 Q373 287 354 305 Q335 323 310.5 336 Q286 349 260 358 Q225 344 192.5 326 Q160 308 134.5 283 Q109 258 93.5 226 Q78 194 78 153 Z M170 534 Q170 511 179 491.5 Q188 472 203.5 456.5 Q219 441 239 429 Q259 417 281 408 Q303 417 329.5 433 Q356 449 379 470.5 Q402 492 417 518.5 Q432 545 432 577 Q432 623 402.5 647 Q373 671 322 671 Q290 671 262.5 661.5 Q235 652 214.5 634 Q194 616 182 590.5 Q170 565 170 534 Z M20 142 Q20 185 34.5 222 Q49 259 75 289 Q101 319 136.5 342.5 Q172 366 215 383 Q164 403 138 439.5 Q112 476 112 525 Q112 569 129 605 Q146 641 175.5 666.5 Q205 692 245 706 Q285 720 330 720 Q402 720 446 684 Q490 648 490 585 Q490 553 477.5 523.5 Q465 494 443 468.5 Q421 443 392 421.5 Q363 400 329 385 Q455 327 455 218 Q455 167 436 124.5 Q417 82 383 52 Q349 22 302 5 Q255 -12 200 -12 Q112 -12 66 29 Q20 70 20 142 Z " />
<glyph glyph-name="nine" unicode="9" horiz-adv-x="520" d="M486 494 Q486 380 463.5 286.5 Q441 193 400.5 127 Q360 61 303 24.5 Q246 -12 177 -12 Q132 -12 90.5 1 Q49 14 22 41 L56 84 Q81 64 108.5 51.5 Q136 39 180 39 Q228 39 268 64 Q308 89 339 131.5 Q370 174 390.5 230.5 Q411 287 420 351 Q379 309 327 290 Q275 271 225 271 Q183 271 152.5 286 Q122 301 103 326 Q84 351 75 383.5 Q66 416 66 452 Q66 510 83.5 559.5 Q101 609 133 644.5 Q165 680 210 700 Q255 720 310 720 Q398 720 442 658.5 Q486 597 486 494 Z M303 669 Q270 669 238 656 Q206 643 181 616.5 Q156 590 140.5 550 Q125 510 125 456 Q125 387 157.5 355.5 Q190 324 239 324 Q267 324 294.5 331.5 Q322 339 346.5 352 Q371 365 391 381 Q411 397 424 414 Q439 546 407 607.5 Q375 669 303 669 Z " />
<glyph glyph-name="dollar" unicode="&#x24;" horiz-adv-x="507" d="M172 -1 Q107 3 62 30.5 Q17 58 -12 96 L29 132 Q64 92 104 69 Q144 46 195 46 Q232 46 265 56 Q298 66 323 85.5 Q348 105 363 133 Q378 161 378 198 Q378 240 347.5 270.5 Q317 301 241 326 Q197 340 166.5 355 Q136 370 116.5 389 Q97 408 88 431 Q79 454 79 483 Q79 527 95 562.5 Q111 598 138.5 623 Q166 648 204 663 Q242 678 286 682 L301 767 L346 767 L331 682 Q387 678 429 654.5 Q471 631 496 589 L455 557 Q426 596 387 615.5 Q348 635 305 635 Q271 635 240.5 626 Q210 617 187 599.5 Q164 582 150.5 556.5 Q137 531 137 498 Q137 473 146.5 455 Q156 437 174.5 423 Q193 409 219.5 397.5 Q246 386 281 374 Q364 346 400 306.5 Q436 267 436 209 Q436 164 418.5 127 Q401 90 371.5 62.5 Q342 35 302 18.5 Q262 2 217 -1 L203 -87 L158 -87 L172 -1 Z " />
<glyph glyph-name="Euro" unicode="&#x20ac;" horiz-adv-x="593" d="M18 437 L90 437 Q106 491 135.5 542 Q165 593 206 632.5 Q247 672 298.5 696 Q350 720 410 720 Q440 720 469 713.5 Q498 707 524 692.5 Q550 678 572.5 654 Q595 630 610 594 L568 567 Q544 620 499.5 646 Q455 672 401 672 Q356 672 316.5 654.5 Q277 637 244.5 605.5 Q212 574 187 531 Q162 488 146 437 L489 437 L479 392 L134 392 L128 362 Q126 348 124 334 Q122 320 121 308 L457 308 L446 263 L120 263 Q121 212 133 170.5 Q145 129 167.5 99 Q190 69 222.5 52.5 Q255 36 296 36 Q360 36 407.5 60.5 Q455 85 496 120 L522 84 Q471 37 413 12.5 Q355 -12 284 -12 Q225 -12 183.5 11 Q142 34 115.5 72 Q89 110 76.5 159.5 Q64 209 64 263 L-25 263 L-14 308 L65 308 Q67 333 73 360 Q75 376 79 392 L8 392 L18 437 Z " />
<glyph glyph-name="cent" unicode="&#xa2;" horiz-adv-x="519" d="M453 152 Q409 117 365.5 100 Q322 83 277 79 L260 -18 L215 -18 L232 78 Q191 81 159 98 Q127 115 105 143.5 Q83 172 72 211.5 Q61 251 61 298 Q61 373 82 431.5 Q103 490 139 531 Q175 572 222 595 Q269 618 322 622 L339 720 L384 720 L367 621 Q440 613 474 565 Q508 517 502 439 L450 439 Q454 509 421.5 541.5 Q389 574 333 574 Q286 574 247.5 554 Q209 534 181 499 Q153 464 138 415 Q123 366 123 308 Q123 272 131.5 239 Q140 206 157 181 Q174 156 200.5 141.5 Q227 127 263 127 Q311 127 349 143 Q387 159 433 190 L453 152 Z " />
<glyph glyph-name="sterling" unicode="&#xa3;" horiz-adv-x="499" d="M212 243 Q212 212 203.5 185.5 Q195 159 181 136 Q167 113 149 92 Q131 71 112 52 L407 52 L399 0 L-6 0 L2 49 L50 51 Q69 70 88.5 91 Q108 112 123.5 135 Q139 158 148.5 184 Q158 210 158 238 Q158 260 154 286 Q150 312 147 327 L51 327 L59 374 L139 374 Q125 412 116.5 447.5 Q108 483 108 516 Q108 564 127.5 602 Q147 640 179 666 Q211 692 252 706 Q293 720 336 720 Q396 720 439 700 Q482 680 510 637 L468 604 Q424 669 333 669 Q298 669 267.5 659 Q237 649 214.5 630 Q192 611 179 583 Q166 555 166 519 Q166 491 174.5 456 Q183 421 197 374 L354 374 L346 327 L204 327 Q207 311 209.5 287 Q212 263 212 243 Z " />
<glyph glyph-name="yen" unicode="&#xa5;" horiz-adv-x="558" d="M347 392 L514 392 L506 346 L313 346 L300 267 L492 267 L484 221 L292 221 L255 0 L201 0 L238 221 L46 221 L54 267 L246 267 L259 346 L67 346 L75 392 L241 392 L110 709 L173 709 L295 402 L523 709 L584 709 L347 392 Z " />
<glyph glyph-name="florin" unicode="&#x192;" horiz-adv-x="415" d="M2 -154 Q40 -154 57 -129.5 Q74 -105 85 -50 L168 351 L91 351 L91 396 L178 396 L212 564 Q218 594 226 620.5 Q234 647 248.5 666.5 Q263 686 285.5 697.5 Q308 709 343 709 L398 709 L398 663 L350 663 Q328 663 314 656 Q300 649 291 634.5 Q282 620 276 598 Q270 576 264 546 L232 396 L327 396 L327 351 L224 351 L148 -23 Q139 -68 130 -101.5 Q121 -135 106.5 -157 Q92 -179 69 -189.5 Q46 -200 9 -200 L-38 -200 L-38 -154 L2 -154 Z " />
<glyph glyph-name="section" unicode="&#xa7;" horiz-adv-x="517" d="M84 100 Q106 75 137 54.5 Q168 34 215 34 Q235 34 258 39 Q281 44 300 55.5 Q319 67 331.5 85.5 Q344 104 344 130 Q344 148 334.5 160.5 Q325 173 310 182.5 Q295 192 275 199 Q255 206 234 213 Q209 221 184.5 230 Q160 239 140.5 253 Q121 267 108.5 287 Q96 307 96 337 Q96 358 104 381 Q112 404 129.5 424 Q147 444 174 458.5 Q201 473 239 478 Q185 493 162.5 521.5 Q140 550 140 585 Q140 613 153 639.5 Q166 666 190.5 687 Q215 708 249 720.5 Q283 733 325 733 Q373 733 414.5 715 Q456 697 476 665 L441 635 Q419 659 391 674 Q363 689 321 689 Q295 689 273 682.5 Q251 676 234 664 Q217 652 207.5 634.5 Q198 617 198 595 Q198 575 208 561.5 Q218 548 234 538 Q250 528 271 520.5 Q292 513 315 506 Q339 498 362.5 488.5 Q386 479 405 464.5 Q424 450 435.5 429 Q447 408 447 378 Q447 346 435.5 321.5 Q424 297 404.5 280 Q385 263 360.5 253 Q336 243 311 240 Q357 222 379.5 198 Q402 174 402 139 Q402 108 387.5 80.5 Q373 53 347.5 32.5 Q322 12 287 0 Q252 -12 211 -12 Q163 -12 117 7.5 Q71 27 45 65 L84 100 Z M283 450 Q220 450 185 421 Q150 392 150 347 Q150 329 159 315 Q168 301 184 290.5 Q200 280 221 274.5 Q242 269 265 268 Q287 269 310 274 Q333 279 351.5 291 Q370 303 381.5 322.5 Q393 342 393 371 Q393 390 384 405 Q375 420 360 430 Q345 440 325 445 Q305 450 283 450 Z " />
<glyph glyph-name="copyright" unicode="&#xa9;" horiz-adv-x="825" d="M558 227 Q532 199 498 182 Q464 165 419 165 Q377 165 346.5 180.5 Q316 196 296 223 Q276 250 266.5 286 Q257 322 257 363 Q257 403 267.5 438.5 Q278 474 299 501 Q320 528 351 543.5 Q382 559 423 559 Q481 559 518 527 Q555 495 556 434 L517 434 Q513 472 492.5 496.5 Q472 521 421 521 Q361 521 330.5 478 Q300 435 300 365 Q300 280 333 241.5 Q366 203 423 203 Q462 203 487 217.5 Q512 232 534 253 L558 227 Z M420 684 Q350 684 291 659 Q232 634 189.5 590.5 Q147 547 123.5 487.5 Q100 428 100 360 Q100 279 126 218.5 Q152 158 196 117.5 Q240 77 298 57 Q356 37 420 37 Q481 37 539 61 Q597 85 642 128 Q687 171 714.5 230.5 Q742 290 742 360 Q742 432 717.5 491.5 Q693 551 649.5 594 Q606 637 547.5 660.5 Q489 684 420 684 Z M420 720 Q499 720 565 694 Q631 668 679 620.5 Q727 573 753.5 507.5 Q780 442 780 364 Q780 285 750.5 218.5 Q721 152 671 103.5 Q621 55 556 27.5 Q491 0 420 0 Q348 0 282.5 22.5 Q217 45 167.5 90 Q118 135 89 202.5 Q60 270 60 360 Q60 438 88 504 Q116 570 164.5 618 Q213 666 278.5 693 Q344 720 420 720 Z " />
<glyph glyph-name="registered" unicode="&#xae;" horiz-adv-x="422" d="M249 638 Q281 638 295.5 623.5 Q310 609 310 586 Q310 552 279 538 L321 463 L292 463 L254 531 L207 531 L207 463 L181 463 L181 638 L249 638 Z M207 616 L207 552 L240 552 Q284 552 284 585 Q284 602 274.5 609 Q265 616 243 616 L207 616 Z M244 694 Q214 694 188 683 Q162 672 143 652.5 Q124 633 113 606.5 Q102 580 102 549 Q102 477 142 440.5 Q182 404 244 404 Q272 404 297.5 415 Q323 426 342.5 445.5 Q362 465 374 491.5 Q386 518 386 549 Q386 613 347.5 653.5 Q309 694 244 694 Z M244 724 Q283 724 315 711 Q347 698 370.5 675 Q394 652 406.5 620 Q419 588 419 549 Q419 511 404.5 479 Q390 447 366 424 Q342 401 310 387.5 Q278 374 244 374 Q206 374 174 385.5 Q142 397 119 419.5 Q96 442 82.5 474.5 Q69 507 69 549 Q69 586 82.5 618.5 Q96 651 119.5 674 Q143 697 175 710.5 Q207 724 244 724 Z " />
<glyph glyph-name="trademark" unicode="&#x2122;" horiz-adv-x="609" d="M570 463 L548 663 L471 463 L440 463 L366 663 L346 463 L309 463 L336 720 L381 720 L457 516 L535 720 L578 720 L608 463 L570 463 Z M154 685 L69 685 L69 720 L277 720 L277 685 L193 685 L193 463 L154 463 L154 685 Z " />
<glyph glyph-name="ordfeminine" unicode="&#xaa;" horiz-adv-x="466" d="M338 311 Q329 303 315.5 293 Q302 283 285.5 274.5 Q269 266 249.5 260.5 Q230 255 208 255 Q140 255 110 296.5 Q80 338 80 406 Q80 458 93 503 Q106 548 131 581.5 Q156 615 192.5 634 Q229 653 275 653 Q316 653 342 635.5 Q368 618 382 593 L391 645 L439 645 L377 264 L330 264 L338 311 Z M373 541 Q367 551 358 563.5 Q349 576 336.5 586 Q324 596 308 603 Q292 610 273 610 Q242 610 216 596.5 Q190 583 171 557.5 Q152 532 141 496.5 Q130 461 130 418 Q130 395 135 373.5 Q140 352 151 335 Q162 318 180 308 Q198 298 224 298 Q243 298 261 305 Q279 312 294.5 321.5 Q310 331 322.5 342 Q335 353 343 362 L373 541 Z " />
<glyph glyph-name="ordmasculine" unicode="&#xba;" horiz-adv-x="466" d="M129 417 Q129 355 158 326.5 Q187 298 233 298 Q264 298 292 309.5 Q320 321 341.5 345 Q363 369 375.5 405 Q388 441 388 490 Q388 553 359 582.5 Q330 612 285 612 Q253 612 225 600 Q197 588 175.5 563.5 Q154 539 141.5 502.5 Q129 466 129 417 Z M82 411 Q82 466 97.5 510.5 Q113 555 141 586.5 Q169 618 207.5 635.5 Q246 653 292 653 Q361 653 399 611.5 Q437 570 437 495 Q437 440 420.5 396 Q404 352 375.5 320.5 Q347 289 308.5 272 Q270 255 226 255 Q157 255 119.5 295.5 Q82 336 82 411 Z " />
<glyph glyph-name="guillemotleft" unicode="&#xab;" horiz-adv-x="457" d="M195.003 136.024 L161.005 108.025 L33.0131 254.016 L36.0129 271.015 L213.002 415.007 L238.001 389.008 L95.0093 262.016 L195.003 136.024 Z M387.003 136.024 L353.005 108.025 L225.013 254.016 L228.013 271.015 L405.002 415.007 L430.001 389.008 L287.009 262.016 L387.003 136.024 Z " />
<glyph glyph-name="guillemotright" unicode="&#xbb;" horiz-adv-x="458" d="M53 387 L87 415 L215 269 L212 252 L35 108 L10 134 L153 261 L53 387 Z M246 387 L280 415 L408 269 L405 252 L228 108 L203 134 L346 261 L246 387 Z " />
<glyph glyph-name="guilsinglleft" unicode="&#x2039;" horiz-adv-x="265" d="M195 136 L161 108 L33 254 L36 271 L213 415 L238 389 L95 262 L195 136 Z " />
<glyph glyph-name="guilsinglright" unicode="&#x203a;" horiz-adv-x="265" d="M53 387 L87 415 L215 269 L212 252 L35 108 L10 134 L153 261 L53 387 Z " />
<glyph glyph-name="quoteleft" unicode="&#x2018;" horiz-adv-x="201" d="M205 607 Q205 584 188.5 568 Q172 552 146 552 Q120 552 110.5 568.5 Q101 585 101 605 Q101 622 106.5 641 Q112 660 124 679.5 Q136 699 156 717 Q176 735 205 750 L216 727 Q183 709 163.5 686 Q144 663 137 629 Q154 643 171 643 Q188 643 196.5 632 Q205 621 205 607 Z " />
<glyph glyph-name="quoteright" unicode="&#x2019;" horiz-adv-x="203" d="M106 665 Q106 688 122.5 704 Q139 720 165 720 Q191 720 200.5 703.5 Q210 687 210 667 Q210 650 204.5 631 Q199 612 187 592.5 Q175 573 155 555 Q135 537 106 522 L95 545 Q128 563 147.5 586 Q167 609 174 643 Q157 629 140 629 Q123 629 114.5 640 Q106 651 106 665 Z " />
<glyph glyph-name="quotesinglbase" unicode="&#x201a;" horiz-adv-x="202" d="M16 16 Q16 39 32.5 55 Q49 71 75 71 Q101 71 110.5 54.5 Q120 38 120 18 Q120 1 114.5 -18 Q109 -37 97 -56.5 Q85 -76 65 -94 Q45 -112 16 -127 L5 -104 Q38 -86 57.5 -63 Q77 -40 84 -6 Q67 -20 50 -20 Q33 -20 24.5 -9 Q16 2 16 16 Z " />
<glyph glyph-name="quotedblleft" unicode="&#x201c;" horiz-adv-x="344" d="M350.006 607.041 Q350.006 584.042 333.507 568.043 Q317.008 552.044 291.01 552.044 Q265.012 552.044 255.512 568.543 Q246.013 585.042 246.013 605.041 Q246.013 622.04 251.512 641.039 Q257.012 660.037 269.011 679.536 Q281.011 699.035 301.009 717.034 Q321.008 735.033 350.006 750.032 L361.006 727.033 Q328.008 709.034 308.509 686.036 Q289.01 663.037 282.011 629.039 Q299.01 643.038 316.009 643.038 Q333.008 643.038 341.507 632.039 Q350.006 621.04 350.006 607.041 Z M205.006 607.041 Q205.006 584.042 188.507 568.043 Q172.008 552.044 146.01 552.044 Q120.012 552.044 110.512 568.543 Q101.013 585.042 101.013 605.041 Q101.013 622.04 106.512 641.039 Q112.012 660.037 124.011 679.536 Q136.011 699.035 156.009 717.034 Q176.008 735.033 205.006 750.032 L216.006 727.033 Q183.008 709.034 163.509 686.036 Q144.01 663.037 137.011 629.039 Q154.01 643.038 171.009 643.038 Q188.008 643.038 196.507 632.039 Q205.006 621.04 205.006 607.041 Z " />
<glyph glyph-name="quotedblright" unicode="&#x201d;" horiz-adv-x="346" d="M108 665 Q108 688 124.5 704 Q141 720 167 720 Q193 720 202.5 703.5 Q212 687 212 667 Q212 650 206.5 631 Q201 612 189 592.5 Q177 573 157 555 Q137 537 108 522 L97 545 Q130 563 149.5 586 Q169 609 176 643 Q159 629 142 629 Q125 629 116.5 640 Q108 651 108 665 Z M253 665 Q253 688 269.5 704 Q286 720 312 720 Q338 720 347.5 703.5 Q357 687 357 667 Q357 650 351.5 631 Q346 612 334 592.5 Q322 573 302 555 Q282 537 253 522 L242 545 Q275 563 294.5 586 Q314 609 321 643 Q304 629 287 629 Q270 629 261.5 640 Q253 651 253 665 Z " />
<glyph glyph-name="quotedblbase" unicode="&#x201e;" horiz-adv-x="349" d="M16 16 Q16 39 32.5 55 Q49 71 75 71 Q101 71 110.5 54.5 Q120 38 120 18 Q120 1 114.5 -18 Q109 -37 97 -56.5 Q85 -76 65 -94 Q45 -112 16 -127 L5 -104 Q38 -86 57.5 -63 Q77 -40 84 -6 Q67 -20 50 -20 Q33 -20 24.5 -9 Q16 2 16 16 Z M162 16 Q162 39 178.5 55 Q195 71 221 71 Q247 71 256.5 54.5 Q266 38 266 18 Q266 1 260.5 -18 Q255 -37 243 -56.5 Q231 -76 211 -94 Q191 -112 162 -127 L151 -104 Q184 -86 203.5 -63 Q223 -40 230 -6 Q213 -20 196 -20 Q179 -20 170.5 -9 Q162 2 162 16 Z " />
<glyph glyph-name="dagger" unicode="&#x2020;" horiz-adv-x="497" d="M153 -105 L247 458 L73 458 L82 510 L256 510 L291 719 L346 719 L311 510 L485 510 L477 458 L302 458 L207 -105 L153 -105 Z " />
<glyph glyph-name="daggerdbl" unicode="&#x2021;" horiz-adv-x="494" d="M153 -105 L188 103 L13 103 L22 155 L197 155 L247 458 L73 458 L82 510 L256 510 L291 719 L344 719 L309 510 L484 510 L475 458 L300 458 L249 155 L424 155 L415 103 L241 103 L206 -105 L153 -105 Z " />
<glyph glyph-name="bullet" unicode="&#x2022;" horiz-adv-x="500" d="M144 312 Q144 336 152.5 356 Q161 376 176 390.5 Q191 405 210.5 413 Q230 421 253 421 Q275 421 294.5 413 Q314 405 329 391 Q344 377 353 357 Q362 337 362 312 Q362 262 330 232 Q298 202 252 202 Q229 202 209.5 210 Q190 218 175.5 233 Q161 248 152.5 268 Q144 288 144 312 Z " />
<glyph glyph-name="ellipsis" unicode="&#x2026;" horiz-adv-x="764" d="M37 35 Q37 58 51 70.5 Q65 83 85 83 Q106 83 120 71 Q134 59 134 36 Q134 13 120 0.5 Q106 -12 85 -12 Q64 -12 50.5 0.5 Q37 13 37 35 Z M554 35 Q554 58 568 70.5 Q582 83 602 83 Q623 83 637 71 Q651 59 651 36 Q651 13 637 0.5 Q623 -12 602 -12 Q581 -12 567.5 0.5 Q554 13 554 35 Z M295 35 Q295 58 309 70.5 Q323 83 343 83 Q364 83 378 71 Q392 59 392 36 Q392 13 378 0.5 Q364 -12 343 -12 Q322 -12 308.5 0.5 Q295 13 295 35 Z " />
<glyph glyph-name="paragraph" unicode="&#xb6;" horiz-adv-x="526" d="M389 0 L337 0 L449 672 L344 672 L231 0 L179 0 L241 371 Q166 376 124.5 414.5 Q83 453 83 517 Q83 561 100 598.5 Q117 636 147.5 663 Q178 690 219.5 705 Q261 720 311 720 L510 720 L389 0 Z " />
<glyph glyph-name="periodcentered" unicode="&#xb7;" horiz-adv-x="267" d="M85 339 Q85 362 99 374.5 Q113 387 133 387 Q154 387 168 375 Q182 363 182 340 Q182 317 168 304.5 Q154 292 133 292 Q112 292 98.5 304.5 Q85 317 85 339 Z " />
<glyph glyph-name="uni00AD" unicode="&#xad;" horiz-adv-x="334" d="M10 303 L273 303 L264 252 L2 252 L10 303 Z " />
<glyph glyph-name="endash" unicode="&#x2013;" horiz-adv-x="500" d="M-2 287 L492 287 L484 241 L-10 241 L-2 287 Z " />
<glyph glyph-name="emdash" unicode="&#x2014;" horiz-adv-x="1000" d="M-2 287 L986 287 L978 241 L-10 241 L-2 287 Z " />
<glyph glyph-name="Agrave" unicode="&#xc0;" horiz-adv-x="625" d="M413 720 L554 0 L491 0 L448 220 L151 220 L35 0 L-30 0 L352 720 L413 720 Z M439 274 L370 648 L176 274 L439 274 Z M487 792 L462 757 L308 840 L338 886 L487 792 Z " />
<glyph glyph-name="Aacute" unicode="&#xc1;" horiz-adv-x="625" d="M413 720 L554 0 L491 0 L448 220 L151 220 L35 0 L-30 0 L352 720 L413 720 Z M439 274 L370 648 L176 274 L439 274 Z M492 887 L508 840 L325 757 L314 792 L492 887 Z " />
<glyph glyph-name="Acircumflex" unicode="&#xc2;" horiz-adv-x="625" d="M413 720 L554 0 L491 0 L448 220 L151 220 L35 0 L-30 0 L352 720 L413 720 Z M439 274 L370 648 L176 274 L439 274 Z M426 868 L493 781 L470 757 L398 824 L304 756 L282 781 L383 868 L426 868 Z " />
<glyph glyph-name="Atilde" unicode="&#xc3;" horiz-adv-x="625" d="M413 720 L554 0 L491 0 L448 220 L151 220 L35 0 L-30 0 L352 720 L413 720 Z M439 274 L370 648 L176 274 L439 274 Z M533 848 Q516 813 495 798.5 Q474 784 451 784 Q433 784 416.5 789.5 Q400 795 385 801 Q370 807 357 812.5 Q344 818 332 818 Q318 818 310 811 Q302 804 285 781 L253 796 Q273 831 295.5 846.5 Q318 862 341 862 Q357 862 371 856.5 Q385 851 398.5 844.5 Q412 838 425.5 832.5 Q439 827 454 827 Q468 827 478.5 833.5 Q489 840 503 862 L533 848 Z " />
<glyph glyph-name="Adieresis" unicode="&#xc4;" horiz-adv-x="625" d="M413 720 L554 0 L491 0 L448 220 L151 220 L35 0 L-30 0 L352 720 L413 720 Z M439 274 L370 648 L176 274 L439 274 Z M440 813 Q440 831 455.5 845.5 Q471 860 491 860 Q507 860 516.5 849.5 Q526 839 526 825 Q526 806 511.5 792.5 Q497 779 477 779 Q460 779 450 789 Q440 799 440 813 Z M265 813 Q265 831 279.5 845.5 Q294 860 315 860 Q331 860 340.5 849.5 Q350 839 350 825 Q350 806 335.5 792.5 Q321 779 301 779 Q284 779 274.5 789 Q265 799 265 813 Z " />
<glyph glyph-name="Aring" unicode="&#xc5;" horiz-adv-x="625" d="M304 780 Q304 802 313 821 Q322 840 337 854 Q352 868 371.5 876 Q391 884 412 884 Q447 884 468 864 Q489 844 489 810 Q489 774 468 748 Q447 722 414 712 L554 0 L491 0 L448 220 L151 220 L35 0 L-30 0 L347 713 Q304 729 304 780 Z M439 274 L370 648 L176 274 L439 274 Z M345 784 Q345 764 356.5 753.5 Q368 743 388 743 Q416 743 433 761 Q450 779 450 806 Q450 847 406 847 Q379 847 362 829 Q345 811 345 784 Z " />
<glyph glyph-name="AE" unicode="&#xc6;" horiz-adv-x="967" d="M455 227 L200 227 L37 0 L-30 0 L488 720 L974 720 L965 667 L589 667 L544 398 L887 398 L879 345 L535 345 L485 52 L871 52 L862 0 L418 0 L455 227 Z M465 280 L529 667 L513 667 L236 280 L465 280 Z " />
<glyph glyph-name="Ccedilla" unicode="&#xc7;" horiz-adv-x="641" d="M212 -153 Q226 -158 241.5 -162.5 Q257 -167 276 -167 Q285 -167 294.5 -165.5 Q304 -164 312.5 -159.5 Q321 -155 326 -146 Q331 -137 331 -122 Q331 -103 314.5 -97 Q298 -91 266 -91 L257 -91 L288 -11 Q228 -8 185 16 Q142 40 115 79.5 Q88 119 75 170.5 Q62 222 62 280 Q62 368 87 449.5 Q112 531 159.5 594 Q207 657 276.5 695 Q346 733 436 733 Q486 733 527 718 Q568 703 595 675 Q622 647 634 607 Q646 567 639 518 L580 518 Q583 548 576.5 577 Q570 606 552 628.5 Q534 651 503 664.5 Q472 678 425 678 Q357 678 302 648 Q247 618 208 565.5 Q169 513 148 442 Q127 371 127 289 Q127 169 178 106 Q229 43 320 43 Q391 43 443 69.5 Q495 96 541 137 L569 97 Q519 49 457.5 20.5 Q396 -8 324 -11 L306 -59 Q318 -59 330.5 -62 Q343 -65 352.5 -71.5 Q362 -78 368.5 -88.5 Q375 -99 375 -115 Q375 -162 344.5 -183 Q314 -204 272 -204 Q246 -204 225 -198 Q204 -192 196 -187 L212 -153 Z " />
<glyph glyph-name="Egrave" unicode="&#xc8;" horiz-adv-x="586" d="M157 720 L593 720 L584 667 L208 667 L163 398 L506 398 L497 344 L153 344 L104 52 L489 52 L481 0 L37 0 L157 720 Z M471 792 L446 757 L292 840 L322 886 L471 792 Z " />
<glyph glyph-name="Eacute" unicode="&#xc9;" horiz-adv-x="586" d="M157 720 L593 720 L584 667 L208 667 L163 398 L506 398 L497 344 L153 344 L104 52 L489 52 L481 0 L37 0 L157 720 Z M493 887 L509 840 L326 757 L315 792 L493 887 Z " />
<glyph glyph-name="Ecircumflex" unicode="&#xca;" horiz-adv-x="586" d="M157 720 L593 720 L584 667 L208 667 L163 398 L506 398 L497 344 L153 344 L104 52 L489 52 L481 0 L37 0 L157 720 Z M419 868 L486 781 L463 757 L391 824 L297 756 L275 781 L376 868 L419 868 Z " />
<glyph glyph-name="Edieresis" unicode="&#xcb;" horiz-adv-x="586" d="M157 720 L593 720 L584 667 L208 667 L163 398 L506 398 L497 344 L153 344 L104 52 L489 52 L481 0 L37 0 L157 720 Z M436 813 Q436 831 451.5 845.5 Q467 860 487 860 Q503 860 512.5 849.5 Q522 839 522 825 Q522 806 507.5 792.5 Q493 779 473 779 Q456 779 446 789 Q436 799 436 813 Z M261 813 Q261 831 275.5 845.5 Q290 860 311 860 Q327 860 336.5 849.5 Q346 839 346 825 Q346 806 331.5 792.5 Q317 779 297 779 Q280 779 270.5 789 Q261 799 261 813 Z " />
<glyph glyph-name="Igrave" unicode="&#xcc;" horiz-adv-x="233" d="M157 720 L216 720 L96 0 L37 0 L157 720 Z M284 792 L259 757 L105 840 L135 886 L284 792 Z " />
<glyph glyph-name="Iacute" unicode="&#xcd;" horiz-adv-x="233" d="M157 720 L216 720 L96 0 L37 0 L157 720 Z M287 887 L303 840 L120 757 L109 792 L287 887 Z " />
<glyph glyph-name="Icircumflex" unicode="&#xce;" horiz-adv-x="233" d="M157 720 L216 720 L96 0 L37 0 L157 720 Z M235 868 L302 781 L279 757 L207 824 L113 756 L91 781 L192 868 L235 868 Z " />
<glyph glyph-name="Idieresis" unicode="&#xcf;" horiz-adv-x="233" d="M157 720 L216 720 L96 0 L37 0 L157 720 Z M248 813 Q248 831 263.5 845.5 Q279 860 299 860 Q315 860 324.5 849.5 Q334 839 334 825 Q334 806 319.5 792.5 Q305 779 285 779 Q268 779 258 789 Q248 799 248 813 Z M73 813 Q73 831 87.5 845.5 Q102 860 123 860 Q139 860 148.5 849.5 Q158 839 158 825 Q158 806 143.5 792.5 Q129 779 109 779 Q92 779 82.5 789 Q73 799 73 813 Z " />
<glyph glyph-name="Eth" unicode="&#xd0;" horiz-adv-x="704" d="M28 391 L114 391 L169 720 L358 720 Q502 720 578 652.5 Q654 585 654 440 Q654 214 547.5 107 Q441 0 228 0 L49 0 L105 340 L19 340 L28 391 Z M219 665 L173 391 L373 391 L364 340 L165 340 L117 55 L251 55 Q345 55 410 82.5 Q475 110 515.5 160 Q556 210 574 278.5 Q592 347 592 430 Q592 542 535 603.5 Q478 665 353 665 L219 665 Z " />
<glyph glyph-name="Ntilde" unicode="&#xd1;" horiz-adv-x="689" d="M157 720 L214 720 L511 105 L613 720 L673 720 L552 0 L497 0 L199 616 L96 0 L37 0 L157 720 Z M577 848 Q560 813 539 798.5 Q518 784 495 784 Q477 784 460.5 789.5 Q444 795 429 801 Q414 807 401 812.5 Q388 818 376 818 Q362 818 354 811 Q346 804 329 781 L297 796 Q317 831 339.5 846.5 Q362 862 385 862 Q401 862 415 856.5 Q429 851 442.5 844.5 Q456 838 469.5 832.5 Q483 827 498 827 Q512 827 522.5 833.5 Q533 840 547 862 L577 848 Z " />
<glyph glyph-name="Ograve" unicode="&#xd2;" horiz-adv-x="747" d="M135 370 Q130 344 128.5 320.5 Q127 297 127 275 Q127 156 183 100 Q239 44 334 44 Q388 44 436 63 Q484 82 522.5 122 Q561 162 588.5 223.5 Q616 285 630 370 Q634 393 635.5 413.5 Q637 434 637 453 Q637 564 583 620.5 Q529 677 435 677 Q379 677 329.5 657 Q280 637 241 598 Q202 559 174.5 502 Q147 445 135 370 Z M70 370 Q84 463 119 531.5 Q154 600 204.5 645 Q255 690 317 711.5 Q379 733 447 733 Q503 733 550 715.5 Q597 698 630.5 663 Q664 628 682.5 575.5 Q701 523 701 453 Q701 433 700 413 Q699 393 695 370 Q679 265 643 192 Q607 119 557.5 73.5 Q508 28 448 8 Q388 -12 322 -12 Q265 -12 217 4.5 Q169 21 134.5 55.5 Q100 90 81 143 Q62 196 62 270 Q62 293 63.5 318 Q65 343 70 370 Z M557 792 L532 757 L378 840 L408 886 L557 792 Z " />
<glyph glyph-name="Oacute" unicode="&#xd3;" horiz-adv-x="747" d="M135 370 Q130 344 128.5 320.5 Q127 297 127 275 Q127 156 183 100 Q239 44 334 44 Q388 44 436 63 Q484 82 522.5 122 Q561 162 588.5 223.5 Q616 285 630 370 Q634 393 635.5 413.5 Q637 434 637 453 Q637 564 583 620.5 Q529 677 435 677 Q379 677 329.5 657 Q280 637 241 598 Q202 559 174.5 502 Q147 445 135 370 Z M70 370 Q84 463 119 531.5 Q154 600 204.5 645 Q255 690 317 711.5 Q379 733 447 733 Q503 733 550 715.5 Q597 698 630.5 663 Q664 628 682.5 575.5 Q701 523 701 453 Q701 433 700 413 Q699 393 695 370 Q679 265 643 192 Q607 119 557.5 73.5 Q508 28 448 8 Q388 -12 322 -12 Q265 -12 217 4.5 Q169 21 134.5 55.5 Q100 90 81 143 Q62 196 62 270 Q62 293 63.5 318 Q65 343 70 370 Z M548 887 L564 840 L381 757 L370 792 L548 887 Z " />
<glyph glyph-name="Ocircumflex" unicode="&#xd4;" horiz-adv-x="747" d="M135 370 Q130 344 128.5 320.5 Q127 297 127 275 Q127 156 183 100 Q239 44 334 44 Q388 44 436 63 Q484 82 522.5 122 Q561 162 588.5 223.5 Q616 285 630 370 Q634 393 635.5 413.5 Q637 434 637 453 Q637 564 583 620.5 Q529 677 435 677 Q379 677 329.5 657 Q280 637 241 598 Q202 559 174.5 502 Q147 445 135 370 Z M70 370 Q84 463 119 531.5 Q154 600 204.5 645 Q255 690 317 711.5 Q379 733 447 733 Q503 733 550 715.5 Q597 698 630.5 663 Q664 628 682.5 575.5 Q701 523 701 453 Q701 433 700 413 Q699 393 695 370 Q679 265 643 192 Q607 119 557.5 73.5 Q508 28 448 8 Q388 -12 322 -12 Q265 -12 217 4.5 Q169 21 134.5 55.5 Q100 90 81 143 Q62 196 62 270 Q62 293 63.5 318 Q65 343 70 370 Z M488 868 L555 781 L532 757 L460 824 L366 756 L344 781 L445 868 L488 868 Z " />
<glyph glyph-name="Otilde" unicode="&#xd5;" horiz-adv-x="747" d="M135 370 Q130 344 128.5 320.5 Q127 297 127 275 Q127 156 183 100 Q239 44 334 44 Q388 44 436 63 Q484 82 522.5 122 Q561 162 588.5 223.5 Q616 285 630 370 Q634 393 635.5 413.5 Q637 434 637 453 Q637 564 583 620.5 Q529 677 435 677 Q379 677 329.5 657 Q280 637 241 598 Q202 559 174.5 502 Q147 445 135 370 Z M70 370 Q84 463 119 531.5 Q154 600 204.5 645 Q255 690 317 711.5 Q379 733 447 733 Q503 733 550 715.5 Q597 698 630.5 663 Q664 628 682.5 575.5 Q701 523 701 453 Q701 433 700 413 Q699 393 695 370 Q679 265 643 192 Q607 119 557.5 73.5 Q508 28 448 8 Q388 -12 322 -12 Q265 -12 217 4.5 Q169 21 134.5 55.5 Q100 90 81 143 Q62 196 62 270 Q62 293 63.5 318 Q65 343 70 370 Z M610 848 Q593 813 572 798.5 Q551 784 528 784 Q510 784 493.5 789.5 Q477 795 462 801 Q447 807 434 812.5 Q421 818 409 818 Q395 818 387 811 Q379 804 362 781 L330 796 Q350 831 372.5 846.5 Q395 862 418 862 Q434 862 448 856.5 Q462 851 475.5 844.5 Q489 838 502.5 832.5 Q516 827 531 827 Q545 827 555.5 833.5 Q566 840 580 862 L610 848 Z " />
<glyph glyph-name="Odieresis" unicode="&#xd6;" horiz-adv-x="747" d="M135 370 Q130 344 128.5 320.5 Q127 297 127 275 Q127 156 183 100 Q239 44 334 44 Q388 44 436 63 Q484 82 522.5 122 Q561 162 588.5 223.5 Q616 285 630 370 Q634 393 635.5 413.5 Q637 434 637 453 Q637 564 583 620.5 Q529 677 435 677 Q379 677 329.5 657 Q280 637 241 598 Q202 559 174.5 502 Q147 445 135 370 Z M70 370 Q84 463 119 531.5 Q154 600 204.5 645 Q255 690 317 711.5 Q379 733 447 733 Q503 733 550 715.5 Q597 698 630.5 663 Q664 628 682.5 575.5 Q701 523 701 453 Q701 433 700 413 Q699 393 695 370 Q679 265 643 192 Q607 119 557.5 73.5 Q508 28 448 8 Q388 -12 322 -12 Q265 -12 217 4.5 Q169 21 134.5 55.5 Q100 90 81 143 Q62 196 62 270 Q62 293 63.5 318 Q65 343 70 370 Z M509 813 Q509 831 524.5 845.5 Q540 860 560 860 Q576 860 585.5 849.5 Q595 839 595 825 Q595 806 580.5 792.5 Q566 779 546 779 Q529 779 519 789 Q509 799 509 813 Z M334 813 Q334 831 348.5 845.5 Q363 860 384 860 Q400 860 409.5 849.5 Q419 839 419 825 Q419 806 404.5 792.5 Q390 779 370 779 Q353 779 343.5 789 Q334 799 334 813 Z " />
<glyph glyph-name="Oslash" unicode="&#xd8;" horiz-adv-x="747" d="M70 370 Q84 463 119 531.5 Q154 600 204.5 645 Q255 690 317 711.5 Q379 733 447 733 Q485 733 520 724 L544 777 L600 777 L569 707 Q630 678 665.5 614.5 Q701 551 701 453 Q701 433 700 413 Q699 393 695 370 Q679 265 643 192 Q607 119 557.5 73.5 Q508 28 448 8 Q388 -12 322 -12 Q285 -12 250 -4 L223 -65 L168 -65 L202 10 Q137 38 99.5 101.5 Q62 165 62 270 Q62 293 63.5 318 Q65 343 70 370 Z M135 370 Q130 344 128.5 320.5 Q127 297 127 275 Q127 194 153 142.5 Q179 91 227 67 L496 670 Q469 677 435 677 Q379 677 329.5 657 Q280 637 241 598 Q202 559 174.5 502 Q147 445 135 370 Z M637 453 Q637 526 612.5 575.5 Q588 625 543 651 L274 50 Q302 44 334 44 Q388 44 436 63 Q484 82 522.5 122 Q561 162 588.5 223.5 Q616 285 630 370 Q634 393 635.5 413.5 Q637 434 637 453 Z " />
<glyph glyph-name="Ugrave" unicode="&#xd9;" horiz-adv-x="679" d="M211 720 L137 275 Q117 156 157.5 99 Q198 42 300 42 Q354 42 393.5 57.5 Q433 73 461 102.5 Q489 132 506.5 175.5 Q524 219 533 275 L607 720 L667 720 L591 265 Q568 123 492.5 55.5 Q417 -12 292 -12 Q233 -12 187 4.5 Q141 21 112.5 55 Q84 89 74 141 Q64 193 76 265 L152 720 L211 720 Z M504 792 L479 757 L325 840 L355 886 L504 792 Z " />
<glyph glyph-name="Uacute" unicode="&#xda;" horiz-adv-x="679" d="M211 720 L137 275 Q117 156 157.5 99 Q198 42 300 42 Q354 42 393.5 57.5 Q433 73 461 102.5 Q489 132 506.5 175.5 Q524 219 533 275 L607 720 L667 720 L591 265 Q568 123 492.5 55.5 Q417 -12 292 -12 Q233 -12 187 4.5 Q141 21 112.5 55 Q84 89 74 141 Q64 193 76 265 L152 720 L211 720 Z M526 887 L542 840 L359 757 L348 792 L526 887 Z " />
<glyph glyph-name="Ucircumflex" unicode="&#xdb;" horiz-adv-x="679" d="M211 720 L137 275 Q117 156 157.5 99 Q198 42 300 42 Q354 42 393.5 57.5 Q433 73 461 102.5 Q489 132 506.5 175.5 Q524 219 533 275 L607 720 L667 720 L591 265 Q568 123 492.5 55.5 Q417 -12 292 -12 Q233 -12 187 4.5 Q141 21 112.5 55 Q84 89 74 141 Q64 193 76 265 L152 720 L211 720 Z M451 868 L518 781 L495 757 L423 824 L329 756 L307 781 L408 868 L451 868 Z " />
<glyph glyph-name="Udieresis" unicode="&#xdc;" horiz-adv-x="679" d="M211 720 L137 275 Q117 156 157.5 99 Q198 42 300 42 Q354 42 393.5 57.5 Q433 73 461 102.5 Q489 132 506.5 175.5 Q524 219 533 275 L607 720 L667 720 L591 265 Q568 123 492.5 55.5 Q417 -12 292 -12 Q233 -12 187 4.5 Q141 21 112.5 55 Q84 89 74 141 Q64 193 76 265 L152 720 L211 720 Z M469 813 Q469 831 484.5 845.5 Q500 860 520 860 Q536 860 545.5 849.5 Q555 839 555 825 Q555 806 540.5 792.5 Q526 779 506 779 Q489 779 479 789 Q469 799 469 813 Z M294 813 Q294 831 308.5 845.5 Q323 860 344 860 Q360 860 369.5 849.5 Q379 839 379 825 Q379 806 364.5 792.5 Q350 779 330 779 Q313 779 303.5 789 Q294 799 294 813 Z " />
<glyph glyph-name="Yacute" unicode="&#xdd;" horiz-adv-x="553" d="M247 310 L90 720 L157 720 L288 371 L536 720 L603 720 L307 310 L255 0 L195 0 L247 310 Z M467 887 L483 840 L300 757 L289 792 L467 887 Z " />
<glyph glyph-name="Thorn" unicode="&#xde;" horiz-adv-x="581" d="M148 720 L208 720 L187 597 L342 597 Q385 597 422 588 Q459 579 486.5 558.5 Q514 538 529.5 505.5 Q545 473 545 425 Q545 362 523.5 314.5 Q502 267 464 235.5 Q426 204 373.5 188.5 Q321 173 259 173 L116 173 L87 0 L28 0 L148 720 Z M177 542 L124 223 L261 223 Q376 223 430.5 275 Q485 327 485 418 Q485 481 447.5 511.5 Q410 542 329 542 L177 542 Z " />
<glyph glyph-name="germandbls" unicode="&#xdf;" horiz-adv-x="528" d="M118 475 L60 475 L66 512 L126 522 L129 535 Q137 583 156 618 Q175 653 203 675.5 Q231 698 265.5 709 Q300 720 339 720 Q419 720 456.5 683 Q494 646 494 584 Q494 544 480.5 509.5 Q467 475 442 448.5 Q417 422 382.5 404 Q348 386 306 379 Q470 361 470 218 Q470 167 455 124.5 Q440 82 412 52 Q384 22 344.5 5 Q305 -12 256 -12 Q226 -12 197.5 -5 Q169 2 153 16 L180 59 Q188 54 208.5 45.5 Q229 37 261 37 Q291 37 318 48 Q345 59 365.5 81 Q386 103 398 135.5 Q410 168 410 212 Q410 246 398 270 Q386 294 364.5 310.5 Q343 327 312 337 Q281 347 243 352 L250 402 Q287 406 320.5 418 Q354 430 379 451 Q404 472 418.5 503 Q433 534 433 575 Q433 620 407 645 Q381 670 326 670 Q262 670 227.5 632.5 Q193 595 182 528 L94 0 L39 0 L118 475 Z " />
<glyph glyph-name="agrave" unicode="&#xe0;" horiz-adv-x="561" d="M397 71 Q386 59 368 45 Q350 31 326 18 Q302 5 272.5 -3.5 Q243 -12 208 -12 Q163 -12 130.5 3 Q98 18 76.5 45.5 Q55 73 45 111 Q35 149 35 196 Q35 267 53 329 Q71 391 105.5 437 Q140 483 189.5 509.5 Q239 536 301 536 Q332 536 355.5 528.5 Q379 521 398 508.5 Q417 496 431 479.5 Q445 463 456 445 L470 524 L525 524 L438 0 L385 0 L397 71 Z M445 380 Q438 393 425.5 411 Q413 429 395 445 Q377 461 353 472 Q329 483 299 483 Q256 483 219 464 Q182 445 154.5 409.5 Q127 374 111.5 323.5 Q96 273 96 210 Q96 178 101.5 147.5 Q107 117 121 93 Q135 69 159.5 54.5 Q184 40 222 40 Q252 40 279.5 49.5 Q307 59 330.5 73.5 Q354 88 372.5 104 Q391 120 403 132 L445 380 Z M397 616 L366 586 L242 708 L283 746 L397 616 Z " />
<glyph glyph-name="aacute" unicode="&#xe1;" horiz-adv-x="561" d="M397 71 Q386 59 368 45 Q350 31 326 18 Q302 5 272.5 -3.5 Q243 -12 208 -12 Q163 -12 130.5 3 Q98 18 76.5 45.5 Q55 73 45 111 Q35 149 35 196 Q35 267 53 329 Q71 391 105.5 437 Q140 483 189.5 509.5 Q239 536 301 536 Q332 536 355.5 528.5 Q379 521 398 508.5 Q417 496 431 479.5 Q445 463 456 445 L470 524 L525 524 L438 0 L385 0 L397 71 Z M445 380 Q438 393 425.5 411 Q413 429 395 445 Q377 461 353 472 Q329 483 299 483 Q256 483 219 464 Q182 445 154.5 409.5 Q127 374 111.5 323.5 Q96 273 96 210 Q96 178 101.5 147.5 Q107 117 121 93 Q135 69 159.5 54.5 Q184 40 222 40 Q252 40 279.5 49.5 Q307 59 330.5 73.5 Q354 88 372.5 104 Q391 120 403 132 L445 380 Z M404 746 L431 707 L266 586 L246 616 L404 746 Z " />
<glyph glyph-name="acircumflex" unicode="&#xe2;" horiz-adv-x="561" d="M397 71 Q386 59 368 45 Q350 31 326 18 Q302 5 272.5 -3.5 Q243 -12 208 -12 Q163 -12 130.5 3 Q98 18 76.5 45.5 Q55 73 45 111 Q35 149 35 196 Q35 267 53 329 Q71 391 105.5 437 Q140 483 189.5 509.5 Q239 536 301 536 Q332 536 355.5 528.5 Q379 521 398 508.5 Q417 496 431 479.5 Q445 463 456 445 L470 524 L525 524 L438 0 L385 0 L397 71 Z M445 380 Q438 393 425.5 411 Q413 429 395 445 Q377 461 353 472 Q329 483 299 483 Q256 483 219 464 Q182 445 154.5 409.5 Q127 374 111.5 323.5 Q96 273 96 210 Q96 178 101.5 147.5 Q107 117 121 93 Q135 69 159.5 54.5 Q184 40 222 40 Q252 40 279.5 49.5 Q307 59 330.5 73.5 Q354 88 372.5 104 Q391 120 403 132 L445 380 Z M380 753 L459 604 L426 583 L350 704 L235 584 L208 604 L337 753 L380 753 Z " />
<glyph glyph-name="atilde" unicode="&#xe3;" horiz-adv-x="561" d="M397 71 Q386 59 368 45 Q350 31 326 18 Q302 5 272.5 -3.5 Q243 -12 208 -12 Q163 -12 130.5 3 Q98 18 76.5 45.5 Q55 73 45 111 Q35 149 35 196 Q35 267 53 329 Q71 391 105.5 437 Q140 483 189.5 509.5 Q239 536 301 536 Q332 536 355.5 528.5 Q379 521 398 508.5 Q417 496 431 479.5 Q445 463 456 445 L470 524 L525 524 L438 0 L385 0 L397 71 Z M445 380 Q438 393 425.5 411 Q413 429 395 445 Q377 461 353 472 Q329 483 299 483 Q256 483 219 464 Q182 445 154.5 409.5 Q127 374 111.5 323.5 Q96 273 96 210 Q96 178 101.5 147.5 Q107 117 121 93 Q135 69 159.5 54.5 Q184 40 222 40 Q252 40 279.5 49.5 Q307 59 330.5 73.5 Q354 88 372.5 104 Q391 120 403 132 L445 380 Z M472 676 Q455 641 434 626.5 Q413 612 390 612 Q372 612 355.5 617.5 Q339 623 324 629 Q309 635 296 640.5 Q283 646 271 646 Q257 646 249 639 Q241 632 224 609 L192 624 Q213 659 234.5 674.5 Q256 690 279 690 Q295 690 309.5 684.5 Q324 679 337.5 672.5 Q351 666 364.5 660.5 Q378 655 393 655 Q407 655 418 661.5 Q429 668 441 690 L472 676 Z " />
<glyph glyph-name="adieresis" unicode="&#xe4;" horiz-adv-x="561" d="M397 71 Q386 59 368 45 Q350 31 326 18 Q302 5 272.5 -3.5 Q243 -12 208 -12 Q163 -12 130.5 3 Q98 18 76.5 45.5 Q55 73 45 111 Q35 149 35 196 Q35 267 53 329 Q71 391 105.5 437 Q140 483 189.5 509.5 Q239 536 301 536 Q332 536 355.5 528.5 Q379 521 398 508.5 Q417 496 431 479.5 Q445 463 456 445 L470 524 L525 524 L438 0 L385 0 L397 71 Z M445 380 Q438 393 425.5 411 Q413 429 395 445 Q377 461 353 472 Q329 483 299 483 Q256 483 219 464 Q182 445 154.5 409.5 Q127 374 111.5 323.5 Q96 273 96 210 Q96 178 101.5 147.5 Q107 117 121 93 Q135 69 159.5 54.5 Q184 40 222 40 Q252 40 279.5 49.5 Q307 59 330.5 73.5 Q354 88 372.5 104 Q391 120 403 132 L445 380 Z M400 662 Q400 680 414.5 694.5 Q429 709 450 709 Q467 709 476 698.5 Q485 688 485 674 Q485 654 470.5 641 Q456 628 437 628 Q420 628 410 638 Q400 648 400 662 Z M224 662 Q224 680 239 694.5 Q254 709 274 709 Q291 709 300 698.5 Q309 688 309 674 Q309 655 295 641.5 Q281 628 261 628 Q244 628 234 638 Q224 648 224 662 Z " />
<glyph glyph-name="aring" unicode="&#xe5;" horiz-adv-x="561" d="M397 71 Q386 59 368 45 Q350 31 326 18 Q302 5 272.5 -3.5 Q243 -12 208 -12 Q163 -12 130.5 3 Q98 18 76.5 45.5 Q55 73 45 111 Q35 149 35 196 Q35 267 53 329 Q71 391 105.5 437 Q140 483 189.5 509.5 Q239 536 301 536 Q332 536 355.5 528.5 Q379 521 398 508.5 Q417 496 431 479.5 Q445 463 456 445 L470 524 L525 524 L438 0 L385 0 L397 71 Z M445 380 Q438 393 425.5 411 Q413 429 395 445 Q377 461 353 472 Q329 483 299 483 Q256 483 219 464 Q182 445 154.5 409.5 Q127 374 111.5 323.5 Q96 273 96 210 Q96 178 101.5 147.5 Q107 117 121 93 Q135 69 159.5 54.5 Q184 40 222 40 Q252 40 279.5 49.5 Q307 59 330.5 73.5 Q354 88 372.5 104 Q391 120 403 132 L445 380 Z M299 652 Q299 632 310 622 Q321 612 339 612 Q366 612 382.5 629 Q399 646 399 672 Q399 691 388 701.5 Q377 712 357 712 Q331 712 315 695 Q299 678 299 652 Z M258 647 Q258 669 266.5 687.5 Q275 706 289.5 719.5 Q304 733 323 741 Q342 749 363 749 Q397 749 418 729 Q439 709 439 676 Q439 631 408.5 604 Q378 577 334 577 Q299 577 278.5 595.5 Q258 614 258 647 Z " />
<glyph glyph-name="ae" unicode="&#xe6;" horiz-adv-x="901" d="M814 60 Q764 21 710 4.5 Q656 -12 605 -12 Q539 -12 496.5 17 Q454 46 435 97 Q384 45 327.5 16.5 Q271 -12 208 -12 Q163 -12 130.5 3 Q98 18 76.5 45.5 Q55 73 45 111 Q35 149 35 196 Q35 267 53 329 Q71 391 105.5 437 Q140 483 189.5 509.5 Q239 536 301 536 Q332 536 355.5 528.5 Q379 521 398 508.5 Q417 496 431 479.5 Q445 463 456 445 L470 524 L525 524 L505 421 Q523 445 545 465.5 Q567 486 593 502 Q619 518 648.5 527 Q678 536 712 536 Q780 536 820 504 Q860 472 860 410 Q860 371 845 337 Q830 303 789 277.5 Q748 252 673.5 236.5 Q599 221 481 218 Q478 183 482 151 Q486 119 501.5 94.5 Q517 70 545.5 55 Q574 40 619 40 Q664 40 705 53.5 Q746 67 788 99 L814 60 Z M445 380 Q438 393 425.5 411 Q413 429 395 445 Q377 461 353 472 Q329 483 299 483 Q256 483 219 464 Q182 445 154.5 409.5 Q127 374 111.5 323.5 Q96 273 96 210 Q96 178 102.5 147.5 Q109 117 125 93.5 Q141 70 167 55.5 Q193 41 231 41 Q261 41 287 50.5 Q313 60 334.5 74 Q356 88 373.5 104 Q391 120 403 132 L445 380 Z M489 268 Q585 270 645.5 281 Q706 292 741 310 Q776 328 789 352 Q802 376 802 403 Q802 418 797.5 433 Q793 448 781.5 459.5 Q770 471 751.5 478.5 Q733 486 706 486 Q655 486 616 462.5 Q577 439 550 405 Q523 371 507.5 333.5 Q492 296 489 268 Z " />
<glyph glyph-name="ccedilla" unicode="&#xe7;" horiz-adv-x="508" d="M127 -152 Q140 -157 155.5 -161.5 Q171 -166 190 -166 Q199 -166 209 -164.5 Q219 -163 227.5 -158.5 Q236 -154 241.5 -145 Q247 -136 247 -121 Q247 -102 229.5 -96 Q212 -90 180 -90 L171 -90 L202 -11 Q122 -4 79.5 55 Q37 114 37 208 Q37 286 60 347 Q83 408 121.5 450 Q160 492 210.5 514 Q261 536 316 536 Q403 536 444.5 487 Q486 438 477 351 L424 351 Q427 420 395 452 Q363 484 308 484 Q261 484 222.5 464.5 Q184 445 156.5 410 Q129 375 113.5 326.5 Q98 278 98 220 Q98 184 106.5 151 Q115 118 132.5 93.5 Q150 69 176.5 54.5 Q203 40 239 40 Q263 40 283 43.5 Q303 47 322.5 54 Q342 61 361.5 72.5 Q381 84 405 100 L423 60 Q376 23 330.5 6.5 Q285 -10 237 -12 L220 -58 Q232 -58 244.5 -61 Q257 -64 266.5 -70.5 Q276 -77 282.5 -87.5 Q289 -98 289 -114 Q289 -161 258.5 -182 Q228 -203 186 -203 Q160 -203 139.5 -197 Q119 -191 110 -186 L127 -152 Z " />
<glyph glyph-name="egrave" unicode="&#xe8;" horiz-adv-x="506" d="M429 60 Q379 21 326.5 4.5 Q274 -12 223 -12 Q131 -12 84 40 Q37 92 37 186 Q37 265 59.5 330 Q82 395 120.5 440.5 Q159 486 211.5 511 Q264 536 324 536 Q397 536 436.5 502 Q476 468 476 409 Q476 368 460 334 Q444 300 402 275 Q360 250 286.5 235.5 Q213 221 99 218 Q98 210 98 203 Q98 196 98 188 Q98 158 104.5 131 Q111 104 127 84 Q143 64 169.5 52 Q196 40 237 40 Q282 40 323 53.5 Q364 67 406 99 L429 60 Z M105 268 Q199 270 259.5 280 Q320 290 355 307.5 Q390 325 403.5 349 Q417 373 417 403 Q417 441 393 463.5 Q369 486 318 486 Q266 486 227.5 462 Q189 438 163 404 Q137 370 122.5 332.5 Q108 295 105 268 Z M401 616 L370 586 L246 708 L287 746 L401 616 Z " />
<glyph glyph-name="eacute" unicode="&#xe9;" horiz-adv-x="506" d="M429 60 Q379 21 326.5 4.5 Q274 -12 223 -12 Q131 -12 84 40 Q37 92 37 186 Q37 265 59.5 330 Q82 395 120.5 440.5 Q159 486 211.5 511 Q264 536 324 536 Q397 536 436.5 502 Q476 468 476 409 Q476 368 460 334 Q444 300 402 275 Q360 250 286.5 235.5 Q213 221 99 218 Q98 210 98 203 Q98 196 98 188 Q98 158 104.5 131 Q111 104 127 84 Q143 64 169.5 52 Q196 40 237 40 Q282 40 323 53.5 Q364 67 406 99 L429 60 Z M105 268 Q199 270 259.5 280 Q320 290 355 307.5 Q390 325 403.5 349 Q417 373 417 403 Q417 441 393 463.5 Q369 486 318 486 Q266 486 227.5 462 Q189 438 163 404 Q137 370 122.5 332.5 Q108 295 105 268 Z M411 746 L438 707 L273 586 L253 616 L411 746 Z " />
<glyph glyph-name="ecircumflex" unicode="&#xea;" horiz-adv-x="506" d="M429 60 Q379 21 326.5 4.5 Q274 -12 223 -12 Q131 -12 84 40 Q37 92 37 186 Q37 265 59.5 330 Q82 395 120.5 440.5 Q159 486 211.5 511 Q264 536 324 536 Q397 536 436.5 502 Q476 468 476 409 Q476 368 460 334 Q444 300 402 275 Q360 250 286.5 235.5 Q213 221 99 218 Q98 210 98 203 Q98 196 98 188 Q98 158 104.5 131 Q111 104 127 84 Q143 64 169.5 52 Q196 40 237 40 Q282 40 323 53.5 Q364 67 406 99 L429 60 Z M105 268 Q199 270 259.5 280 Q320 290 355 307.5 Q390 325 403.5 349 Q417 373 417 403 Q417 441 393 463.5 Q369 486 318 486 Q266 486 227.5 462 Q189 438 163 404 Q137 370 122.5 332.5 Q108 295 105 268 Z M370 753 L449 604 L416 583 L340 704 L225 584 L198 604 L327 753 L370 753 Z " />
<glyph glyph-name="edieresis" unicode="&#xeb;" horiz-adv-x="506" d="M429 60 Q379 21 326.5 4.5 Q274 -12 223 -12 Q131 -12 84 40 Q37 92 37 186 Q37 265 59.5 330 Q82 395 120.5 440.5 Q159 486 211.5 511 Q264 536 324 536 Q397 536 436.5 502 Q476 468 476 409 Q476 368 460 334 Q444 300 402 275 Q360 250 286.5 235.5 Q213 221 99 218 Q98 210 98 203 Q98 196 98 188 Q98 158 104.5 131 Q111 104 127 84 Q143 64 169.5 52 Q196 40 237 40 Q282 40 323 53.5 Q364 67 406 99 L429 60 Z M105 268 Q199 270 259.5 280 Q320 290 355 307.5 Q390 325 403.5 349 Q417 373 417 403 Q417 441 393 463.5 Q369 486 318 486 Q266 486 227.5 462 Q189 438 163 404 Q137 370 122.5 332.5 Q108 295 105 268 Z M385 662 Q385 680 399.5 694.5 Q414 709 435 709 Q452 709 461 698.5 Q470 688 470 674 Q470 654 455.5 641 Q441 628 422 628 Q405 628 395 638 Q385 648 385 662 Z M209 662 Q209 680 224 694.5 Q239 709 259 709 Q276 709 285 698.5 Q294 688 294 674 Q294 655 280 641.5 Q266 628 246 628 Q229 628 219 638 Q209 648 209 662 Z " />
<glyph glyph-name="igrave" unicode="&#xec;" horiz-adv-x="214" d="M236 616 L205 586 L81 708 L122 746 L236 616 Z M85 0 L29 0 L117 523 L173 523 L85 0 Z " />
<glyph glyph-name="iacute" unicode="&#xed;" horiz-adv-x="214" d="M240 746 L267 707 L102 586 L82 616 L240 746 Z M85 0 L29 0 L117 523 L173 523 L85 0 Z " />
<glyph glyph-name="icircumflex" unicode="&#xee;" horiz-adv-x="214" d="M85 0 L29 0 L117 523 L173 523 L85 0 Z M202 753 L281 604 L248 583 L172 704 L57 584 L30 604 L159 753 L202 753 Z " />
<glyph glyph-name="idieresis" unicode="&#xef;" horiz-adv-x="214" d="M217 662 Q217 680 231.5 694.5 Q246 709 267 709 Q284 709 293 698.5 Q302 688 302 674 Q302 654 287.5 641 Q273 628 254 628 Q237 628 227 638 Q217 648 217 662 Z M41 662 Q41 680 56 694.5 Q71 709 91 709 Q108 709 117 698.5 Q126 688 126 674 Q126 655 112 641.5 Q98 628 78 628 Q61 628 51 638 Q41 648 41 662 Z M85 0 L29 0 L117 523 L173 523 L85 0 Z " />
<glyph glyph-name="eth" unicode="&#xf0;" horiz-adv-x="523" d="M244 557 L336 613 Q286 657 209 677 L230 721 Q277 710 316 691 Q355 672 385 643 L489 706 L508 666 L414 610 Q443 570 458.5 512 Q474 454 474 382 Q474 297 456 225 Q438 153 402.5 100.5 Q367 48 316 18 Q265 -12 199 -12 Q115 -12 71 37 Q27 86 27 167 Q27 218 43 266 Q59 314 89.5 351.5 Q120 389 164 412 Q208 435 264 435 Q318 435 357 413 Q396 391 421 356 Q425 422 412 479 Q399 536 366 580 L263 519 L244 557 Z M206 40 Q242 40 274 55 Q306 70 332.5 101 Q359 132 379 180.5 Q399 229 410 296 Q399 309 386 325 Q373 341 355.5 354 Q338 367 316 376 Q294 385 266 385 Q233 385 201 372.5 Q169 360 143.5 333.5 Q118 307 102.5 267.5 Q87 228 87 174 Q87 106 121.5 73 Q156 40 206 40 Z " />
<glyph glyph-name="ntilde" unicode="&#xf1;" horiz-adv-x="531" d="M164 524 L150 443 Q191 484 238.5 510 Q286 536 340 536 Q386 536 414.5 521 Q443 506 456.5 479 Q470 452 471 415.5 Q472 379 465 336 L409 0 L353 0 L407 329 Q421 407 401 445 Q381 483 319 483 Q290 483 263.5 472 Q237 461 214.5 446 Q192 431 173.5 414 Q155 397 143 385 L79 0 L23 0 L111 524 L164 524 Z M469 676 Q452 641 431 626.5 Q410 612 387 612 Q369 612 352.5 617.5 Q336 623 321 629 Q306 635 293 640.5 Q280 646 268 646 Q254 646 246 639 Q238 632 221 609 L189 624 Q210 659 231.5 674.5 Q253 690 276 690 Q292 690 306.5 684.5 Q321 679 334.5 672.5 Q348 666 361.5 660.5 Q375 655 390 655 Q404 655 415 661.5 Q426 668 438 690 L469 676 Z " />
<glyph glyph-name="ograve" unicode="&#xf2;" horiz-adv-x="558" d="M83 261 Q80 244 79 228 Q78 212 78 198 Q78 117 114.5 79 Q151 41 214 41 Q249 41 282 53.5 Q315 66 342 93 Q369 120 389 161.5 Q409 203 418 261 Q421 278 422 293.5 Q423 309 423 323 Q423 405 384 444 Q345 483 285 483 Q250 483 217.5 469.5 Q185 456 158 428 Q131 400 111.5 358.5 Q92 317 83 261 Z M21 260 Q31 326 55.5 377.5 Q80 429 116 464.5 Q152 500 197.5 518 Q243 536 294 536 Q384 536 434 482 Q484 428 484 327 Q484 311 483 294.5 Q482 278 479 261 Q468 190 443 138.5 Q418 87 382.5 53.5 Q347 20 302 4 Q257 -12 205 -12 Q114 -12 65 42 Q16 96 16 193 Q16 209 17 225.5 Q18 242 21 260 Z M416 616 L385 586 L261 708 L302 746 L416 616 Z " />
<glyph glyph-name="oacute" unicode="&#xf3;" horiz-adv-x="558" d="M83 261 Q80 244 79 228 Q78 212 78 198 Q78 117 114.5 79 Q151 41 214 41 Q249 41 282 53.5 Q315 66 342 93 Q369 120 389 161.5 Q409 203 418 261 Q421 278 422 293.5 Q423 309 423 323 Q423 405 384 444 Q345 483 285 483 Q250 483 217.5 469.5 Q185 456 158 428 Q131 400 111.5 358.5 Q92 317 83 261 Z M21 260 Q31 326 55.5 377.5 Q80 429 116 464.5 Q152 500 197.5 518 Q243 536 294 536 Q384 536 434 482 Q484 428 484 327 Q484 311 483 294.5 Q482 278 479 261 Q468 190 443 138.5 Q418 87 382.5 53.5 Q347 20 302 4 Q257 -12 205 -12 Q114 -12 65 42 Q16 96 16 193 Q16 209 17 225.5 Q18 242 21 260 Z M412 746 L439 707 L274 586 L254 616 L412 746 Z " />
<glyph glyph-name="ocircumflex" unicode="&#xf4;" horiz-adv-x="558" d="M83 261 Q80 244 79 228 Q78 212 78 198 Q78 117 114.5 79 Q151 41 214 41 Q249 41 282 53.5 Q315 66 342 93 Q369 120 389 161.5 Q409 203 418 261 Q421 278 422 293.5 Q423 309 423 323 Q423 405 384 444 Q345 483 285 483 Q250 483 217.5 469.5 Q185 456 158 428 Q131 400 111.5 358.5 Q92 317 83 261 Z M21 260 Q31 326 55.5 377.5 Q80 429 116 464.5 Q152 500 197.5 518 Q243 536 294 536 Q384 536 434 482 Q484 428 484 327 Q484 311 483 294.5 Q482 278 479 261 Q468 190 443 138.5 Q418 87 382.5 53.5 Q347 20 302 4 Q257 -12 205 -12 Q114 -12 65 42 Q16 96 16 193 Q16 209 17 225.5 Q18 242 21 260 Z M372 753 L451 604 L418 583 L342 704 L227 584 L200 604 L329 753 L372 753 Z " />
<glyph glyph-name="otilde" unicode="&#xf5;" horiz-adv-x="558" d="M83 261 Q80 244 79 228 Q78 212 78 198 Q78 117 114.5 79 Q151 41 214 41 Q249 41 282 53.5 Q315 66 342 93 Q369 120 389 161.5 Q409 203 418 261 Q421 278 422 293.5 Q423 309 423 323 Q423 405 384 444 Q345 483 285 483 Q250 483 217.5 469.5 Q185 456 158 428 Q131 400 111.5 358.5 Q92 317 83 261 Z M21 260 Q31 326 55.5 377.5 Q80 429 116 464.5 Q152 500 197.5 518 Q243 536 294 536 Q384 536 434 482 Q484 428 484 327 Q484 311 483 294.5 Q482 278 479 261 Q468 190 443 138.5 Q418 87 382.5 53.5 Q347 20 302 4 Q257 -12 205 -12 Q114 -12 65 42 Q16 96 16 193 Q16 209 17 225.5 Q18 242 21 260 Z M473 676 Q456 641 435 626.5 Q414 612 391 612 Q373 612 356.5 617.5 Q340 623 325 629 Q310 635 297 640.5 Q284 646 272 646 Q258 646 250 639 Q242 632 225 609 L193 624 Q214 659 235.5 674.5 Q257 690 280 690 Q296 690 310.5 684.5 Q325 679 338.5 672.5 Q352 666 365.5 660.5 Q379 655 394 655 Q408 655 419 661.5 Q430 668 442 690 L473 676 Z " />
<glyph glyph-name="odieresis" unicode="&#xf6;" horiz-adv-x="558" d="M83 261 Q80 244 79 228 Q78 212 78 198 Q78 117 114.5 79 Q151 41 214 41 Q249 41 282 53.5 Q315 66 342 93 Q369 120 389 161.5 Q409 203 418 261 Q421 278 422 293.5 Q423 309 423 323 Q423 405 384 444 Q345 483 285 483 Q250 483 217.5 469.5 Q185 456 158 428 Q131 400 111.5 358.5 Q92 317 83 261 Z M21 260 Q31 326 55.5 377.5 Q80 429 116 464.5 Q152 500 197.5 518 Q243 536 294 536 Q384 536 434 482 Q484 428 484 327 Q484 311 483 294.5 Q482 278 479 261 Q468 190 443 138.5 Q418 87 382.5 53.5 Q347 20 302 4 Q257 -12 205 -12 Q114 -12 65 42 Q16 96 16 193 Q16 209 17 225.5 Q18 242 21 260 Z M387 662 Q387 680 401.5 694.5 Q416 709 437 709 Q454 709 463 698.5 Q472 688 472 674 Q472 654 457.5 641 Q443 628 424 628 Q407 628 397 638 Q387 648 387 662 Z M211 662 Q211 680 226 694.5 Q241 709 261 709 Q278 709 287 698.5 Q296 688 296 674 Q296 655 282 641.5 Q268 628 248 628 Q231 628 221 638 Q211 648 211 662 Z " />
<glyph glyph-name="oslash" unicode="&#xf8;" horiz-adv-x="558" d="M37 260 Q47 326 71.5 377.5 Q96 429 132 464.5 Q168 500 213.5 518 Q259 536 310 536 Q326 536 340 534 Q354 532 368 529 L397 592 L453 592 L414 510 Q456 485 478 439 Q500 393 500 327 Q500 311 499 294.5 Q498 278 495 261 Q484 190 459 138.5 Q434 87 398.5 53.5 Q363 20 318 4 Q273 -12 221 -12 Q207 -12 195 -10.5 Q183 -9 172 -7 L142 -72 L88 -72 L125 9 Q80 32 56 78.5 Q32 125 32 193 Q32 209 33 225.5 Q34 242 37 260 Z M99 261 Q96 244 95 228 Q94 212 94 198 Q94 99 150 62 L344 477 Q323 483 301 483 Q266 483 233.5 469.5 Q201 456 174 428 Q147 400 127.5 358.5 Q108 317 99 261 Z M439 323 Q439 370 425.5 402.5 Q412 435 388 455 L196 44 Q211 41 230 41 Q265 41 298 53.5 Q331 66 358 93 Q385 120 405 161.5 Q425 203 434 261 Q437 278 438 293.5 Q439 309 439 323 Z " />
<glyph glyph-name="oe" unicode="&#x153;" horiz-adv-x="907" d="M37 260 Q47 326 71.5 377.5 Q96 429 132 464.5 Q168 500 213.5 518 Q259 536 310 536 Q385 536 429 497.5 Q473 459 485 387 Q518 453 578.5 494.5 Q639 536 715 536 Q790 536 827 503.5 Q864 471 864 412 Q864 371 848 336.5 Q832 302 790 276.5 Q748 251 674.5 236 Q601 221 487 218 Q486 210 486 203 Q486 196 486 188 Q486 158 492.5 131 Q499 104 515 84 Q531 64 557.5 52 Q584 40 625 40 Q670 40 711 53.5 Q752 67 794 99 L817 59 Q767 20 714.5 4 Q662 -12 611 -12 Q543 -12 496.5 21.5 Q450 55 439 115 Q404 49 348.5 18.5 Q293 -12 221 -12 Q130 -12 81 42 Q32 96 32 193 Q32 209 33 225.5 Q34 242 37 260 Z M99 261 Q96 244 95 228 Q94 212 94 198 Q94 117 130.5 79 Q167 41 230 41 Q265 41 298 53.5 Q331 66 358 93 Q385 120 405 161.5 Q425 203 434 261 Q437 278 438 293.5 Q439 309 439 323 Q439 405 400 444 Q361 483 301 483 Q266 483 233.5 469.5 Q201 456 174 428 Q147 400 127.5 358.5 Q108 317 99 261 Z M493 267 Q590 268 650.5 279.5 Q711 291 745.5 309.5 Q780 328 792.5 352.5 Q805 377 805 406 Q805 444 781.5 465 Q758 486 710 486 Q658 486 619 462 Q580 438 553 403.5 Q526 369 511 331.5 Q496 294 493 267 Z " />
<glyph glyph-name="ugrave" unicode="&#xf9;" horiz-adv-x="526" d="M350 0 L363 80 Q348 65 328.5 48.5 Q309 32 285 18.5 Q261 5 233 -3.5 Q205 -12 174 -12 Q126 -12 97.5 3 Q69 18 55.5 44 Q42 70 41.5 104 Q41 138 47 176 L106 524 L163 524 L106 187 Q95 116 112 78.5 Q129 41 193 41 Q220 41 244.5 49.5 Q269 58 291.5 72 Q314 86 333.5 103.5 Q353 121 370 138 L435 524 L491 524 L403 0 L350 0 Z M400 616 L369 586 L245 708 L286 746 L400 616 Z " />
<glyph glyph-name="uacute" unicode="&#xfa;" horiz-adv-x="526" d="M350 0 L363 80 Q348 65 328.5 48.5 Q309 32 285 18.5 Q261 5 233 -3.5 Q205 -12 174 -12 Q126 -12 97.5 3 Q69 18 55.5 44 Q42 70 41.5 104 Q41 138 47 176 L106 524 L163 524 L106 187 Q95 116 112 78.5 Q129 41 193 41 Q220 41 244.5 49.5 Q269 58 291.5 72 Q314 86 333.5 103.5 Q353 121 370 138 L435 524 L491 524 L403 0 L350 0 Z M408 746 L435 707 L270 586 L250 616 L408 746 Z " />
<glyph glyph-name="ucircumflex" unicode="&#xfb;" horiz-adv-x="526" d="M350 0 L363 80 Q348 65 328.5 48.5 Q309 32 285 18.5 Q261 5 233 -3.5 Q205 -12 174 -12 Q126 -12 97.5 3 Q69 18 55.5 44 Q42 70 41.5 104 Q41 138 47 176 L106 524 L163 524 L106 187 Q95 116 112 78.5 Q129 41 193 41 Q220 41 244.5 49.5 Q269 58 291.5 72 Q314 86 333.5 103.5 Q353 121 370 138 L435 524 L491 524 L403 0 L350 0 Z M362 753 L441 604 L408 583 L332 704 L217 584 L190 604 L319 753 L362 753 Z " />
<glyph glyph-name="udieresis" unicode="&#xfc;" horiz-adv-x="526" d="M350 0 L363 80 Q348 65 328.5 48.5 Q309 32 285 18.5 Q261 5 233 -3.5 Q205 -12 174 -12 Q126 -12 97.5 3 Q69 18 55.5 44 Q42 70 41.5 104 Q41 138 47 176 L106 524 L163 524 L106 187 Q95 116 112 78.5 Q129 41 193 41 Q220 41 244.5 49.5 Q269 58 291.5 72 Q314 86 333.5 103.5 Q353 121 370 138 L435 524 L491 524 L403 0 L350 0 Z M367 662 Q367 680 381.5 694.5 Q396 709 417 709 Q434 709 443 698.5 Q452 688 452 674 Q452 654 437.5 641 Q423 628 404 628 Q387 628 377 638 Q367 648 367 662 Z M191 662 Q191 680 206 694.5 Q221 709 241 709 Q258 709 267 698.5 Q276 688 276 674 Q276 655 262 641.5 Q248 628 228 628 Q211 628 201 638 Q191 648 191 662 Z " />
<glyph glyph-name="yacute" unicode="&#xfd;" horiz-adv-x="453" d="M461 524 L180 -34 Q159 -76 141 -107.5 Q123 -139 104.5 -160 Q86 -181 63 -191.5 Q40 -202 9 -202 Q-17 -202 -35.5 -199.5 Q-54 -197 -74 -191 L-57 -143 Q-49 -146 -30.5 -149 Q-12 -152 9 -152 Q24 -152 37 -147.5 Q50 -143 62 -131.5 Q74 -120 87 -100 Q100 -80 115 -48 L138 1 L41 524 L102 524 L180 77 L400 524 L461 524 Z M363 746 L390 707 L225 586 L205 616 L363 746 Z " />
<glyph glyph-name="thorn" unicode="&#xfe;" horiz-adv-x="565" d="M101 129 Q108 115 120.5 99.5 Q133 84 151 70.5 Q169 57 192 48 Q215 39 245 39 Q291 39 329.5 58.5 Q368 78 395 114 Q422 150 437 202 Q452 254 452 319 Q452 399 420.5 442 Q389 485 326 485 Q270 485 226 455.5 Q182 426 143 382 L101 129 Z M-10 -200 L143 720 L199 720 L152 439 Q194 484 242.5 510 Q291 536 348 536 Q391 536 422 521 Q453 506 473 479 Q493 452 503 414 Q513 376 513 330 Q513 259 496 197 Q479 135 445.5 88.5 Q412 42 362 15 Q312 -12 245 -12 Q210 -12 184 -3 Q158 6 139 19 Q120 32 108 46 Q96 60 91 70 L46 -200 L-10 -200 Z " />
<glyph glyph-name="ydieresis" unicode="&#xff;" horiz-adv-x="453" d="M461 524 L180 -34 Q159 -76 141 -107.5 Q123 -139 104.5 -160 Q86 -181 63 -191.5 Q40 -202 9 -202 Q-17 -202 -35.5 -199.5 Q-54 -197 -74 -191 L-57 -143 Q-49 -146 -30.5 -149 Q-12 -152 9 -152 Q24 -152 37 -147.5 Q50 -143 62 -131.5 Q74 -120 87 -100 Q100 -80 115 -48 L138 1 L41 524 L102 524 L180 77 L400 524 L461 524 Z M324 662 Q324 680 338.5 694.5 Q353 709 374 709 Q391 709 400 698.5 Q409 688 409 674 Q409 654 394.5 641 Q380 628 361 628 Q344 628 334 638 Q324 648 324 662 Z M148 662 Q148 680 163 694.5 Q178 709 198 709 Q215 709 224 698.5 Q233 688 233 674 Q233 655 219 641.5 Q205 628 185 628 Q168 628 158 638 Q148 648 148 662 Z " />
<glyph glyph-name="Amacron" unicode="&#x100;" horiz-adv-x="625" d="M413 720 L554 0 L491 0 L448 220 L151 220 L35 0 L-30 0 L352 720 L413 720 Z M439 274 L370 648 L176 274 L439 274 Z M271 842 L538 842 L530 795 L263 795 L271 842 Z " />
<glyph glyph-name="amacron" unicode="&#x101;" horiz-adv-x="561" d="M397 71 Q386 59 368 45 Q350 31 326 18 Q302 5 272.5 -3.5 Q243 -12 208 -12 Q163 -12 130.5 3 Q98 18 76.5 45.5 Q55 73 45 111 Q35 149 35 196 Q35 267 53 329 Q71 391 105.5 437 Q140 483 189.5 509.5 Q239 536 301 536 Q332 536 355.5 528.5 Q379 521 398 508.5 Q417 496 431 479.5 Q445 463 456 445 L470 524 L525 524 L438 0 L385 0 L397 71 Z M445 380 Q438 393 425.5 411 Q413 429 395 445 Q377 461 353 472 Q329 483 299 483 Q256 483 219 464 Q182 445 154.5 409.5 Q127 374 111.5 323.5 Q96 273 96 210 Q96 178 101.5 147.5 Q107 117 121 93 Q135 69 159.5 54.5 Q184 40 222 40 Q252 40 279.5 49.5 Q307 59 330.5 73.5 Q354 88 372.5 104 Q391 120 403 132 L445 380 Z M218 674 L485 674 L477 627 L211 627 L218 674 Z " />
<glyph glyph-name="Abreve" unicode="&#x102;" horiz-adv-x="625" d="M413 720 L554 0 L491 0 L448 220 L151 220 L35 0 L-30 0 L352 720 L413 720 Z M439 274 L370 648 L176 274 L439 274 Z M390 813 Q438 813 463 832 Q488 851 502 896 L541 888 Q524 828 483 799.5 Q442 771 382 771 Q321 771 292 798 Q263 825 264 886 L307 895 Q308 850 326.5 831.5 Q345 813 390 813 Z " />
<glyph glyph-name="abreve" unicode="&#x103;" horiz-adv-x="561" d="M397 71 Q386 59 368 45 Q350 31 326 18 Q302 5 272.5 -3.5 Q243 -12 208 -12 Q163 -12 130.5 3 Q98 18 76.5 45.5 Q55 73 45 111 Q35 149 35 196 Q35 267 53 329 Q71 391 105.5 437 Q140 483 189.5 509.5 Q239 536 301 536 Q332 536 355.5 528.5 Q379 521 398 508.5 Q417 496 431 479.5 Q445 463 456 445 L470 524 L525 524 L438 0 L385 0 L397 71 Z M445 380 Q438 393 425.5 411 Q413 429 395 445 Q377 461 353 472 Q329 483 299 483 Q256 483 219 464 Q182 445 154.5 409.5 Q127 374 111.5 323.5 Q96 273 96 210 Q96 178 101.5 147.5 Q107 117 121 93 Q135 69 159.5 54.5 Q184 40 222 40 Q252 40 279.5 49.5 Q307 59 330.5 73.5 Q354 88 372.5 104 Q391 120 403 132 L445 380 Z M334 637 Q386 637 409.5 660.5 Q433 684 446 729 L486 721 Q469 656 430.5 626 Q392 596 326 596 Q261 596 233.5 625 Q206 654 208 720 L250 729 Q252 679 269 658 Q286 637 334 637 Z " />
<glyph glyph-name="Aogonek" unicode="&#x104;" horiz-adv-x="625" d="M413 720 L554 0 Q500 -40 469 -74.5 Q438 -109 438 -145 Q438 -175 474 -175 Q490 -175 504.5 -169.5 Q519 -164 535 -156 L547 -189 Q530 -200 505 -209.5 Q480 -219 455 -219 Q420 -219 402 -202.5 Q384 -186 384 -158 Q384 -136 393.5 -114.5 Q403 -93 418.5 -72.5 Q434 -52 453 -33.5 Q472 -15 491 0 L448 220 L151 220 L35 0 L-30 0 L352 720 L413 720 Z M439 274 L370 648 L176 274 L439 274 Z " />
<glyph glyph-name="aogonek" unicode="&#x105;" horiz-adv-x="561" d="M438 0 Q387 -39 355.5 -74 Q324 -109 324 -144 Q324 -175 360 -175 Q377 -175 391 -169.5 Q405 -164 422 -156 L434 -189 Q417 -200 392 -209.5 Q367 -219 342 -219 Q307 -219 289 -202.5 Q271 -186 271 -158 Q271 -135 281.5 -113 Q292 -91 308.5 -70 Q325 -49 345 -30.5 Q365 -12 385 4 L397 71 Q386 59 368 45 Q350 31 326 18 Q302 5 272.5 -3.5 Q243 -12 208 -12 Q163 -12 130.5 3 Q98 18 76.5 45.5 Q55 73 45 111 Q35 149 35 196 Q35 267 53 329 Q71 391 105.5 437 Q140 483 189.5 509.5 Q239 536 301 536 Q332 536 355.5 528.5 Q379 521 398 508.5 Q417 496 431 479.5 Q445 463 456 445 L470 524 L525 524 L438 0 Z M445 380 Q438 393 425.5 411 Q413 429 395 445 Q377 461 353 472 Q329 483 299 483 Q256 483 219 464 Q182 445 154.5 409.5 Q127 374 111.5 323.5 Q96 273 96 210 Q96 178 101.5 147.5 Q107 117 121 93 Q135 69 159.5 54.5 Q184 40 222 40 Q252 40 279.5 49.5 Q307 59 330.5 73.5 Q354 88 372.5 104 Q391 120 403 132 L445 380 Z " />
<glyph glyph-name="Cacute" unicode="&#x106;" horiz-adv-x="641" d="M569 97 Q516 47 450.5 17.5 Q385 -12 307 -12 Q242 -12 195.5 11 Q149 34 119.5 74 Q90 114 76 167 Q62 220 62 280 Q62 371 87 453.5 Q112 536 159.5 598 Q207 660 276.5 696.5 Q346 733 436 733 Q486 733 527 718 Q568 703 595 675 Q622 647 634 607 Q646 567 639 518 L580 518 Q583 548 576.5 577 Q570 606 552 628.5 Q534 651 503 664.5 Q472 678 425 678 Q357 678 302 648 Q247 618 208 565.5 Q169 513 148 442 Q127 371 127 289 Q127 169 175 106 Q223 43 320 43 Q391 43 443 69.5 Q495 96 541 137 L569 97 Z M540 887 L556 840 L373 757 L362 792 L540 887 Z " />
<glyph glyph-name="cacute" unicode="&#x107;" horiz-adv-x="508" d="M426 60 Q376 21 328.5 4.5 Q281 -12 228 -12 Q183 -12 147.5 3.5 Q112 19 87.5 48 Q63 77 50 117 Q37 157 37 207 Q37 286 59.5 347 Q82 408 120 450 Q158 492 207.5 514 Q257 536 312 536 Q402 536 444 487 Q486 438 477 351 L424 351 Q427 420 395 452 Q363 484 308 484 Q261 484 222.5 464.5 Q184 445 156.5 410 Q129 375 113.5 326.5 Q98 278 98 220 Q98 184 106.5 151 Q115 118 132.5 93.5 Q150 69 176.5 54.5 Q203 40 239 40 Q263 40 283 43.5 Q303 47 322.5 54 Q342 61 361.5 72.5 Q381 84 405 100 L426 60 Z M411 746 L438 707 L273 586 L253 616 L411 746 Z " />
<glyph glyph-name="Ccircumflex" unicode="&#x108;" horiz-adv-x="641" d="M569 97 Q516 47 450.5 17.5 Q385 -12 307 -12 Q242 -12 195.5 11 Q149 34 119.5 74 Q90 114 76 167 Q62 220 62 280 Q62 371 87 453.5 Q112 536 159.5 598 Q207 660 276.5 696.5 Q346 733 436 733 Q486 733 527 718 Q568 703 595 675 Q622 647 634 607 Q646 567 639 518 L580 518 Q583 548 576.5 577 Q570 606 552 628.5 Q534 651 503 664.5 Q472 678 425 678 Q357 678 302 648 Q247 618 208 565.5 Q169 513 148 442 Q127 371 127 289 Q127 169 175 106 Q223 43 320 43 Q391 43 443 69.5 Q495 96 541 137 L569 97 Z M470 868 L537 781 L514 757 L442 824 L348 756 L326 781 L427 868 L470 868 Z " />
<glyph glyph-name="ccircumflex" unicode="&#x109;" horiz-adv-x="508" d="M426 60 Q376 21 328.5 4.5 Q281 -12 228 -12 Q183 -12 147.5 3.5 Q112 19 87.5 48 Q63 77 50 117 Q37 157 37 207 Q37 286 59.5 347 Q82 408 120 450 Q158 492 207.5 514 Q257 536 312 536 Q402 536 444 487 Q486 438 477 351 L424 351 Q427 420 395 452 Q363 484 308 484 Q261 484 222.5 464.5 Q184 445 156.5 410 Q129 375 113.5 326.5 Q98 278 98 220 Q98 184 106.5 151 Q115 118 132.5 93.5 Q150 69 176.5 54.5 Q203 40 239 40 Q263 40 283 43.5 Q303 47 322.5 54 Q342 61 361.5 72.5 Q381 84 405 100 L426 60 Z M372 753 L451 604 L418 583 L342 704 L227 584 L200 604 L329 753 L372 753 Z " />
<glyph glyph-name="Cdotaccent" unicode="&#x10a;" horiz-adv-x="641" d="M569 97 Q516 47 450.5 17.5 Q385 -12 307 -12 Q242 -12 195.5 11 Q149 34 119.5 74 Q90 114 76 167 Q62 220 62 280 Q62 371 87 453.5 Q112 536 159.5 598 Q207 660 276.5 696.5 Q346 733 436 733 Q486 733 527 718 Q568 703 595 675 Q622 647 634 607 Q646 567 639 518 L580 518 Q583 548 576.5 577 Q570 606 552 628.5 Q534 651 503 664.5 Q472 678 425 678 Q357 678 302 648 Q247 618 208 565.5 Q169 513 148 442 Q127 371 127 289 Q127 169 175 106 Q223 43 320 43 Q391 43 443 69.5 Q495 96 541 137 L569 97 Z M412 816 Q412 836 427 848.5 Q442 861 462 861 Q478 861 487 851.5 Q496 842 496 828 Q496 808 482 795.5 Q468 783 448 783 Q432 783 422 792.5 Q412 802 412 816 Z " />
<glyph glyph-name="cdotaccent" unicode="&#x10b;" horiz-adv-x="508" d="M426 60 Q376 21 328.5 4.5 Q281 -12 228 -12 Q183 -12 147.5 3.5 Q112 19 87.5 48 Q63 77 50 117 Q37 157 37 207 Q37 286 59.5 347 Q82 408 120 450 Q158 492 207.5 514 Q257 536 312 536 Q402 536 444 487 Q486 438 477 351 L424 351 Q427 420 395 452 Q363 484 308 484 Q261 484 222.5 464.5 Q184 445 156.5 410 Q129 375 113.5 326.5 Q98 278 98 220 Q98 184 106.5 151 Q115 118 132.5 93.5 Q150 69 176.5 54.5 Q203 40 239 40 Q263 40 283 43.5 Q303 47 322.5 54 Q342 61 361.5 72.5 Q381 84 405 100 L426 60 Z M294 663 Q294 683 309 695.5 Q324 708 344 708 Q359 708 369 698.5 Q379 689 379 675 Q379 655 364.5 642.5 Q350 630 331 630 Q315 630 304.5 639.5 Q294 649 294 663 Z " />
<glyph glyph-name="Ccaron" unicode="&#x10c;" horiz-adv-x="641" d="M569 97 Q516 47 450.5 17.5 Q385 -12 307 -12 Q242 -12 195.5 11 Q149 34 119.5 74 Q90 114 76 167 Q62 220 62 280 Q62 371 87 453.5 Q112 536 159.5 598 Q207 660 276.5 696.5 Q346 733 436 733 Q486 733 527 718 Q568 703 595 675 Q622 647 634 607 Q646 567 639 518 L580 518 Q583 548 576.5 577 Q570 606 552 628.5 Q534 651 503 664.5 Q472 678 425 678 Q357 678 302 648 Q247 618 208 565.5 Q169 513 148 442 Q127 371 127 289 Q127 169 175 106 Q223 43 320 43 Q391 43 443 69.5 Q495 96 541 137 L569 97 Z M427 767 L355 854 L384 879 L457 811 L551 878 L571 854 L471 767 L427 767 Z " />
<glyph glyph-name="ccaron" unicode="&#x10d;" horiz-adv-x="508" d="M426 60 Q376 21 328.5 4.5 Q281 -12 228 -12 Q183 -12 147.5 3.5 Q112 19 87.5 48 Q63 77 50 117 Q37 157 37 207 Q37 286 59.5 347 Q82 408 120 450 Q158 492 207.5 514 Q257 536 312 536 Q402 536 444 487 Q486 438 477 351 L424 351 Q427 420 395 452 Q363 484 308 484 Q261 484 222.5 464.5 Q184 445 156.5 410 Q129 375 113.5 326.5 Q98 278 98 220 Q98 184 106.5 151 Q115 118 132.5 93.5 Q150 69 176.5 54.5 Q203 40 239 40 Q263 40 283 43.5 Q303 47 322.5 54 Q342 61 361.5 72.5 Q381 84 405 100 L426 60 Z M307 591 L228 740 L262 761 L337 640 L452 761 L478 740 L350 591 L307 591 Z " />
<glyph glyph-name="Dcaron" unicode="&#x10e;" horiz-adv-x="682" d="M204 665 L105 55 L230 55 Q377 55 457 132.5 Q537 210 560 359 Q564 384 566 406.5 Q568 429 568 450 Q568 558 512.5 611.5 Q457 665 334 665 L204 665 Z M338 720 Q480 720 556 655.5 Q632 591 632 453 Q632 431 630 408 Q628 385 624 359 Q609 263 575.5 194.5 Q542 126 490 83 Q438 40 368 20 Q298 0 212 0 L36 0 L152 720 L338 720 Z M359 767 L287 854 L316 879 L389 811 L483 878 L503 854 L403 767 L359 767 Z " />
<glyph glyph-name="dcaron" unicode="&#x10f;" horiz-adv-x="610" d="M396 70 Q385 58 367 44 Q349 30 325.5 17.5 Q302 5 272.5 -3.5 Q243 -12 208 -12 Q163 -12 130.5 3 Q98 18 76.5 45.5 Q55 73 45 111 Q35 149 35 196 Q35 267 53 329 Q71 391 105.5 437 Q140 483 189.5 509.5 Q239 536 301 536 Q332 536 355.5 528.5 Q379 521 398 508.5 Q417 496 431 479.5 Q445 463 456 445 L503 720 L558 720 L438 0 L385 0 L396 70 Z M445 380 Q438 393 425.5 411 Q413 429 395 445 Q377 461 353 472 Q329 483 299 483 Q256 483 219 464 Q182 445 154.5 409.5 Q127 374 111.5 323.5 Q96 273 96 210 Q96 178 101.5 147.5 Q107 117 121 93 Q135 69 159.5 54.5 Q184 40 222 40 Q252 40 279.5 49.5 Q307 59 330.5 73.5 Q354 88 372.5 104 Q391 120 403 132 L445 380 Z M673 720 L730 720 L649 538 L606 538 L673 720 Z " />
<glyph glyph-name="Dcroat" unicode="&#x110;" horiz-adv-x="704" d="M28 391 L114 391 L169 720 L358 720 Q502 720 578 652.5 Q654 585 654 440 Q654 214 547.5 107 Q441 0 228 0 L49 0 L105 340 L19 340 L28 391 Z M219 665 L173 391 L373 391 L364 340 L165 340 L117 55 L251 55 Q345 55 410 82.5 Q475 110 515.5 160 Q556 210 574 278.5 Q592 347 592 430 Q592 542 535 603.5 Q478 665 353 665 L219 665 Z " />
<glyph glyph-name="dcroat" unicode="&#x111;" horiz-adv-x="560" d="M315 637 L489 637 L503 720 L558 720 L545 637 L613 637 L605 595 L537 595 L438 0 L385 0 L397 71 Q386 59 368 45 Q350 31 326 18 Q302 5 272.5 -3.5 Q243 -12 208 -12 Q118 -12 75.5 40 Q33 92 33 184 Q33 253 51 311.5 Q69 370 102.5 413.5 Q136 457 184.5 481.5 Q233 506 295 506 Q326 506 351 497.5 Q376 489 395.5 476.5 Q415 464 429 448.5 Q443 433 452 418 L482 595 L307 595 L315 637 Z M440 351 Q432 364 419 382 Q406 400 387 415.5 Q368 431 343 442 Q318 453 287 453 Q248 453 213 435 Q178 417 152 384 Q126 351 111 303.5 Q96 256 96 196 Q96 165 102.5 137 Q109 109 123.5 87.5 Q138 66 162 53.5 Q186 41 221 41 Q254 41 282 50.5 Q310 60 333 73.5 Q356 87 373.5 102.5 Q391 118 403 130 L440 351 Z " />
<glyph glyph-name="Emacron" unicode="&#x112;" horiz-adv-x="586" d="M157 720 L593 720 L584 667 L208 667 L163 398 L506 398 L497 344 L153 344 L104 52 L489 52 L481 0 L37 0 L157 720 Z M268 842 L535 842 L527 795 L260 795 L268 842 Z " />
<glyph glyph-name="emacron" unicode="&#x113;" horiz-adv-x="506" d="M429 60 Q379 21 326.5 4.5 Q274 -12 223 -12 Q131 -12 84 40 Q37 92 37 186 Q37 265 59.5 330 Q82 395 120.5 440.5 Q159 486 211.5 511 Q264 536 324 536 Q397 536 436.5 502 Q476 468 476 409 Q476 368 460 334 Q444 300 402 275 Q360 250 286.5 235.5 Q213 221 99 218 Q98 210 98 203 Q98 196 98 188 Q98 158 104.5 131 Q111 104 127 84 Q143 64 169.5 52 Q196 40 237 40 Q282 40 323 53.5 Q364 67 406 99 L429 60 Z M105 268 Q199 270 259.5 280 Q320 290 355 307.5 Q390 325 403.5 349 Q417 373 417 403 Q417 441 393 463.5 Q369 486 318 486 Q266 486 227.5 462 Q189 438 163 404 Q137 370 122.5 332.5 Q108 295 105 268 Z M213 674 L480 674 L472 627 L206 627 L213 674 Z " />
<glyph glyph-name="Ebreve" unicode="&#x114;" horiz-adv-x="586" d="M157 720 L593 720 L584 667 L208 667 L163 398 L506 398 L497 344 L153 344 L104 52 L489 52 L481 0 L37 0 L157 720 Z M401 813 Q449 813 474 832 Q499 851 513 896 L552 888 Q535 828 494 799.5 Q453 771 393 771 Q332 771 303 798 Q274 825 275 886 L318 895 Q319 850 337.5 831.5 Q356 813 401 813 Z " />
<glyph glyph-name="ebreve" unicode="&#x115;" horiz-adv-x="506" d="M429 60 Q379 21 326.5 4.5 Q274 -12 223 -12 Q131 -12 84 40 Q37 92 37 186 Q37 265 59.5 330 Q82 395 120.5 440.5 Q159 486 211.5 511 Q264 536 324 536 Q397 536 436.5 502 Q476 468 476 409 Q476 368 460 334 Q444 300 402 275 Q360 250 286.5 235.5 Q213 221 99 218 Q98 210 98 203 Q98 196 98 188 Q98 158 104.5 131 Q111 104 127 84 Q143 64 169.5 52 Q196 40 237 40 Q282 40 323 53.5 Q364 67 406 99 L429 60 Z M105 268 Q199 270 259.5 280 Q320 290 355 307.5 Q390 325 403.5 349 Q417 373 417 403 Q417 441 393 463.5 Q369 486 318 486 Q266 486 227.5 462 Q189 438 163 404 Q137 370 122.5 332.5 Q108 295 105 268 Z M344 637 Q396 637 419.5 660.5 Q443 684 456 729 L496 721 Q479 656 440.5 626 Q402 596 336 596 Q271 596 243.5 625 Q216 654 218 720 L260 729 Q262 679 279 658 Q296 637 344 637 Z " />
<glyph glyph-name="Edotaccent" unicode="&#x116;" horiz-adv-x="586" d="M157 720 L593 720 L584 667 L208 667 L163 398 L506 398 L497 344 L153 344 L104 52 L489 52 L481 0 L37 0 L157 720 Z M356 816 Q356 836 371 848.5 Q386 861 406 861 Q422 861 431 851.5 Q440 842 440 828 Q440 808 426 795.5 Q412 783 392 783 Q376 783 366 792.5 Q356 802 356 816 Z " />
<glyph glyph-name="edotaccent" unicode="&#x117;" horiz-adv-x="506" d="M429 60 Q379 21 326.5 4.5 Q274 -12 223 -12 Q131 -12 84 40 Q37 92 37 186 Q37 265 59.5 330 Q82 395 120.5 440.5 Q159 486 211.5 511 Q264 536 324 536 Q397 536 436.5 502 Q476 468 476 409 Q476 368 460 334 Q444 300 402 275 Q360 250 286.5 235.5 Q213 221 99 218 Q98 210 98 203 Q98 196 98 188 Q98 158 104.5 131 Q111 104 127 84 Q143 64 169.5 52 Q196 40 237 40 Q282 40 323 53.5 Q364 67 406 99 L429 60 Z M105 268 Q199 270 259.5 280 Q320 290 355 307.5 Q390 325 403.5 349 Q417 373 417 403 Q417 441 393 463.5 Q369 486 318 486 Q266 486 227.5 462 Q189 438 163 404 Q137 370 122.5 332.5 Q108 295 105 268 Z M304 663 Q304 683 319 695.5 Q334 708 354 708 Q369 708 379 698.5 Q389 689 389 675 Q389 655 374.5 642.5 Q360 630 341 630 Q325 630 314.5 639.5 Q304 649 304 663 Z " />
<glyph glyph-name="Eogonek" unicode="&#x118;" horiz-adv-x="586" d="M157 720 L593 720 L584 667 L208 667 L163 398 L506 398 L497 344 L153 344 L104 52 L490 52 L481 0 L454 0 Q403 -39 372 -74 Q341 -109 341 -144 Q341 -175 377 -175 Q394 -175 408 -169.5 Q422 -164 439 -156 L451 -189 Q434 -200 409 -209.5 Q384 -219 358 -219 Q323 -219 305.5 -202.5 Q288 -186 288 -158 Q288 -136 297.5 -114.5 Q307 -93 322.5 -72.5 Q338 -52 357.5 -33.5 Q377 -15 397 0 L37 0 L157 720 Z " />
<glyph glyph-name="eogonek" unicode="&#x119;" horiz-adv-x="506" d="M429 60 Q403 40 377 27 Q351 14 327 0 Q301 -14 278.5 -32 Q256 -50 239 -69 Q222 -88 212.5 -107 Q203 -126 203 -144 Q203 -175 239 -175 Q256 -175 270 -169.5 Q284 -164 301 -156 L313 -189 Q296 -200 271 -209.5 Q246 -219 221 -219 Q186 -219 168 -202.5 Q150 -186 150 -158 Q150 -138 158 -118 Q166 -98 179.5 -79.5 Q193 -61 210 -43.5 Q227 -26 245 -11 Q240 -12 234 -12 Q228 -12 223 -12 Q131 -12 84 40 Q37 92 37 186 Q37 265 59.5 330 Q82 395 120.5 440.5 Q159 486 211.5 511 Q264 536 324 536 Q397 536 436.5 502 Q476 468 476 409 Q476 368 460 334 Q444 300 402 275 Q360 250 286.5 235.5 Q213 221 99 218 Q98 210 98 203 Q98 196 98 188 Q98 158 104.5 131 Q111 104 127 84 Q143 64 169.5 52 Q196 40 237 40 Q282 40 323 53.5 Q364 67 406 99 L429 60 Z M105 268 Q199 270 259.5 280 Q320 290 355 307.5 Q390 325 403.5 349 Q417 373 417 403 Q417 441 393 463.5 Q369 486 318 486 Q266 486 227.5 462 Q189 438 163 404 Q137 370 122.5 332.5 Q108 295 105 268 Z " />
<glyph glyph-name="Ecaron" unicode="&#x11a;" horiz-adv-x="586" d="M157 720 L593 720 L584 667 L208 667 L163 398 L506 398 L497 344 L153 344 L104 52 L489 52 L481 0 L37 0 L157 720 Z M370 767 L298 854 L327 879 L400 811 L494 878 L514 854 L414 767 L370 767 Z " />
<glyph glyph-name="ecaron" unicode="&#x11b;" horiz-adv-x="506" d="M429 60 Q379 21 326.5 4.5 Q274 -12 223 -12 Q131 -12 84 40 Q37 92 37 186 Q37 265 59.5 330 Q82 395 120.5 440.5 Q159 486 211.5 511 Q264 536 324 536 Q397 536 436.5 502 Q476 468 476 409 Q476 368 460 334 Q444 300 402 275 Q360 250 286.5 235.5 Q213 221 99 218 Q98 210 98 203 Q98 196 98 188 Q98 158 104.5 131 Q111 104 127 84 Q143 64 169.5 52 Q196 40 237 40 Q282 40 323 53.5 Q364 67 406 99 L429 60 Z M105 268 Q199 270 259.5 280 Q320 290 355 307.5 Q390 325 403.5 349 Q417 373 417 403 Q417 441 393 463.5 Q369 486 318 486 Q266 486 227.5 462 Q189 438 163 404 Q137 370 122.5 332.5 Q108 295 105 268 Z M308 591 L229 740 L263 761 L338 640 L453 761 L479 740 L351 591 L308 591 Z " />
<glyph glyph-name="Gcircumflex" unicode="&#x11c;" horiz-adv-x="703" d="M426 361 L645 361 L602 102 Q566 66 528 43.5 Q490 21 453.5 8.5 Q417 -4 384 -8 Q351 -12 324 -12 Q253 -12 203 10 Q153 32 121 71.5 Q89 111 74 164.5 Q59 218 59 281 Q59 378 86 460.5 Q113 543 163.5 603.5 Q214 664 286.5 698.5 Q359 733 451 733 Q523 733 567.5 712.5 Q612 692 635.5 661 Q659 630 665 593 Q671 556 667 523 L608 523 Q610 556 603 584.5 Q596 613 576.5 634 Q557 655 523 666.5 Q489 678 437 678 Q363 678 304.5 646 Q246 614 206 560.5 Q166 507 145 437 Q124 367 124 291 Q124 173 175.5 107.5 Q227 42 336 42 Q399 42 451.5 63 Q504 84 553 128 L583 309 L417 309 L426 361 Z M488 868 L555 781 L532 757 L460 824 L366 756 L344 781 L445 868 L488 868 Z " />
<glyph glyph-name="gcircumflex" unicode="&#x11d;" horiz-adv-x="561" d="M435 -15 Q426 -70 407.5 -107 Q389 -144 360.5 -167 Q332 -190 292.5 -200 Q253 -210 202 -210 Q148 -210 100.5 -199 Q53 -188 23 -175 L42 -128 Q71 -141 111.5 -151.5 Q152 -162 198 -162 Q247 -162 280 -151 Q313 -140 334.5 -118 Q356 -96 368 -62 Q380 -28 387 18 L395 69 Q362 35 314.5 12.5 Q267 -10 207 -10 Q161 -10 128.5 6 Q96 22 75 50 Q54 78 44.5 115.5 Q35 153 35 197 Q35 261 51.5 322 Q68 383 101.5 430.5 Q135 478 185.5 507 Q236 536 304 536 Q336 536 361 526.5 Q386 517 405 503 Q424 489 436.5 472.5 Q449 456 457 442 L471 524 L525 524 L435 -15 Z M444 378 Q438 393 426 411 Q414 429 396 445 Q378 461 354.5 472 Q331 483 303 483 Q253 483 214.5 461.5 Q176 440 149.5 403 Q123 366 109.5 316.5 Q96 267 96 210 Q96 173 102.5 141.5 Q109 110 123.5 87.5 Q138 65 161.5 52.5 Q185 40 220 40 Q251 40 278 49.5 Q305 59 328.5 73 Q352 87 370.5 103 Q389 119 403 131 L444 378 Z M384 753 L463 604 L430 583 L354 704 L239 584 L212 604 L341 753 L384 753 Z " />
<glyph glyph-name="Gbreve" unicode="&#x11e;" horiz-adv-x="703" d="M426 361 L645 361 L602 102 Q566 66 528 43.5 Q490 21 453.5 8.5 Q417 -4 384 -8 Q351 -12 324 -12 Q253 -12 203 10 Q153 32 121 71.5 Q89 111 74 164.5 Q59 218 59 281 Q59 378 86 460.5 Q113 543 163.5 603.5 Q214 664 286.5 698.5 Q359 733 451 733 Q523 733 567.5 712.5 Q612 692 635.5 661 Q659 630 665 593 Q671 556 667 523 L608 523 Q610 556 603 584.5 Q596 613 576.5 634 Q557 655 523 666.5 Q489 678 437 678 Q363 678 304.5 646 Q246 614 206 560.5 Q166 507 145 437 Q124 367 124 291 Q124 173 175.5 107.5 Q227 42 336 42 Q399 42 451.5 63 Q504 84 553 128 L583 309 L417 309 L426 361 Z M472 813 Q520 813 545 832 Q570 851 584 896 L623 888 Q606 828 565 799.5 Q524 771 464 771 Q403 771 374 798 Q345 825 346 886 L389 895 Q390 850 408.5 831.5 Q427 813 472 813 Z " />
<glyph glyph-name="gbreve" unicode="&#x11f;" horiz-adv-x="561" d="M435 -15 Q426 -70 407.5 -107 Q389 -144 360.5 -167 Q332 -190 292.5 -200 Q253 -210 202 -210 Q148 -210 100.5 -199 Q53 -188 23 -175 L42 -128 Q71 -141 111.5 -151.5 Q152 -162 198 -162 Q247 -162 280 -151 Q313 -140 334.5 -118 Q356 -96 368 -62 Q380 -28 387 18 L395 69 Q362 35 314.5 12.5 Q267 -10 207 -10 Q161 -10 128.5 6 Q96 22 75 50 Q54 78 44.5 115.5 Q35 153 35 197 Q35 261 51.5 322 Q68 383 101.5 430.5 Q135 478 185.5 507 Q236 536 304 536 Q336 536 361 526.5 Q386 517 405 503 Q424 489 436.5 472.5 Q449 456 457 442 L471 524 L525 524 L435 -15 Z M444 378 Q438 393 426 411 Q414 429 396 445 Q378 461 354.5 472 Q331 483 303 483 Q253 483 214.5 461.5 Q176 440 149.5 403 Q123 366 109.5 316.5 Q96 267 96 210 Q96 173 102.5 141.5 Q109 110 123.5 87.5 Q138 65 161.5 52.5 Q185 40 220 40 Q251 40 278 49.5 Q305 59 328.5 73 Q352 87 370.5 103 Q389 119 403 131 L444 378 Z M345 637 Q397 637 420.5 660.5 Q444 684 457 729 L497 721 Q480 656 441.5 626 Q403 596 337 596 Q272 596 244.5 625 Q217 654 219 720 L261 729 Q263 679 280 658 Q297 637 345 637 Z " />
<glyph glyph-name="Gdotaccent" unicode="&#x120;" horiz-adv-x="703" d="M426 361 L645 361 L602 102 Q566 66 528 43.5 Q490 21 453.5 8.5 Q417 -4 384 -8 Q351 -12 324 -12 Q253 -12 203 10 Q153 32 121 71.5 Q89 111 74 164.5 Q59 218 59 281 Q59 378 86 460.5 Q113 543 163.5 603.5 Q214 664 286.5 698.5 Q359 733 451 733 Q523 733 567.5 712.5 Q612 692 635.5 661 Q659 630 665 593 Q671 556 667 523 L608 523 Q610 556 603 584.5 Q596 613 576.5 634 Q557 655 523 666.5 Q489 678 437 678 Q363 678 304.5 646 Q246 614 206 560.5 Q166 507 145 437 Q124 367 124 291 Q124 173 175.5 107.5 Q227 42 336 42 Q399 42 451.5 63 Q504 84 553 128 L583 309 L417 309 L426 361 Z M432 816 Q432 836 447 848.5 Q462 861 482 861 Q498 861 507 851.5 Q516 842 516 828 Q516 808 502 795.5 Q488 783 468 783 Q452 783 442 792.5 Q432 802 432 816 Z " />
<glyph glyph-name="gdotaccent" unicode="&#x121;" horiz-adv-x="561" d="M435 -15 Q426 -70 407.5 -107 Q389 -144 360.5 -167 Q332 -190 292.5 -200 Q253 -210 202 -210 Q148 -210 100.5 -199 Q53 -188 23 -175 L42 -128 Q71 -141 111.5 -151.5 Q152 -162 198 -162 Q247 -162 280 -151 Q313 -140 334.5 -118 Q356 -96 368 -62 Q380 -28 387 18 L395 69 Q362 35 314.5 12.5 Q267 -10 207 -10 Q161 -10 128.5 6 Q96 22 75 50 Q54 78 44.5 115.5 Q35 153 35 197 Q35 261 51.5 322 Q68 383 101.5 430.5 Q135 478 185.5 507 Q236 536 304 536 Q336 536 361 526.5 Q386 517 405 503 Q424 489 436.5 472.5 Q449 456 457 442 L471 524 L525 524 L435 -15 Z M444 378 Q438 393 426 411 Q414 429 396 445 Q378 461 354.5 472 Q331 483 303 483 Q253 483 214.5 461.5 Q176 440 149.5 403 Q123 366 109.5 316.5 Q96 267 96 210 Q96 173 102.5 141.5 Q109 110 123.5 87.5 Q138 65 161.5 52.5 Q185 40 220 40 Q251 40 278 49.5 Q305 59 328.5 73 Q352 87 370.5 103 Q389 119 403 131 L444 378 Z M305 663 Q305 683 320 695.5 Q335 708 355 708 Q370 708 380 698.5 Q390 689 390 675 Q390 655 375.5 642.5 Q361 630 342 630 Q326 630 315.5 639.5 Q305 649 305 663 Z " />
<glyph glyph-name="Gcommaaccent" unicode="&#x122;" horiz-adv-x="703" d="M426 361 L645 361 L602 102 Q566 66 528 43.5 Q490 21 453.5 8.5 Q417 -4 384 -8 Q351 -12 324 -12 Q253 -12 203 10 Q153 32 121 71.5 Q89 111 74 164.5 Q59 218 59 281 Q59 378 86 460.5 Q113 543 163.5 603.5 Q214 664 286.5 698.5 Q359 733 451 733 Q523 733 567.5 712.5 Q612 692 635.5 661 Q659 630 665 593 Q671 556 667 523 L608 523 Q610 556 603 584.5 Q596 613 576.5 634 Q557 655 523 666.5 Q489 678 437 678 Q363 678 304.5 646 Q246 614 206 560.5 Q166 507 145 437 Q124 367 124 291 Q124 173 175.5 107.5 Q227 42 336 42 Q399 42 451.5 63 Q504 84 553 128 L583 309 L417 309 L426 361 Z M283 -60 L334 -71 L253 -226 L216 -216 L283 -60 Z " />
<glyph glyph-name="gcommaaccent" unicode="&#x123;" horiz-adv-x="561" d="M435 -15 Q426 -70 407.5 -107 Q389 -144 360.5 -167 Q332 -190 292.5 -200 Q253 -210 202 -210 Q148 -210 100.5 -199 Q53 -188 23 -175 L42 -128 Q71 -141 111.5 -151.5 Q152 -162 198 -162 Q247 -162 280 -151 Q313 -140 334.5 -118 Q356 -96 368 -62 Q380 -28 387 18 L395 69 Q362 35 314.5 12.5 Q267 -10 207 -10 Q161 -10 128.5 6 Q96 22 75 50 Q54 78 44.5 115.5 Q35 153 35 197 Q35 261 51.5 322 Q68 383 101.5 430.5 Q135 478 185.5 507 Q236 536 304 536 Q336 536 361 526.5 Q386 517 405 503 Q424 489 436.5 472.5 Q449 456 457 442 L471 524 L525 524 L435 -15 Z M444 378 Q438 393 426 411 Q414 429 396 445 Q378 461 354.5 472 Q331 483 303 483 Q253 483 214.5 461.5 Q176 440 149.5 403 Q123 366 109.5 316.5 Q96 267 96 210 Q96 173 102.5 141.5 Q109 110 123.5 87.5 Q138 65 161.5 52.5 Q185 40 220 40 Q251 40 278 49.5 Q305 59 328.5 73 Q352 87 370.5 103 Q389 119 403 131 L444 378 Z M353 589 L302 603 L383 759 L422 749 L353 589 Z " />
<glyph glyph-name="Hcircumflex" unicode="&#x124;" horiz-adv-x="685" d="M157 720 L216 720 L164 406 L556 406 L608 720 L669 720 L548 0 L488 0 L547 352 L155 352 L96 0 L37 0 L157 720 Z M461 868 L528 781 L505 757 L433 824 L339 756 L317 781 L418 868 L461 868 Z " />
<glyph glyph-name="hcircumflex" unicode="&#x125;" horiz-adv-x="531" d="M200 720 L153 443 Q193 482 240.5 509 Q288 536 343 536 Q385 536 412.5 522 Q440 508 454 482.5 Q468 457 470 420 Q472 383 465 337 L409 0 L353 0 L407 327 Q412 355 413 383 Q414 411 406 433.5 Q398 456 378.5 469.5 Q359 483 322 483 Q294 483 268.5 474 Q243 465 220.5 451 Q198 437 178.5 419.5 Q159 402 143 385 L79 0 L23 0 L143 720 L200 720 Z M208 843 L275 756 L252 732 L180 799 L86 731 L64 756 L165 843 L208 843 Z " />
<glyph glyph-name="Hbar" unicode="&#x126;" horiz-adv-x="709" d="M86 599 L148 599 L169 720 L229 720 L208 599 L601 599 L621 720 L681 720 L660 599 L722 599 L716 557 L653 557 L560 0 L501 0 L560 352 L168 352 L109 0 L49 0 L142 557 L80 557 L86 599 Z M569 406 L594 557 L202 557 L177 406 L569 406 Z " />
<glyph glyph-name="hbar" unicode="&#x127;" horiz-adv-x="531" d="M200 720 L186 636 L360 636 L353 597 L179 597 L146 400 Q184 439 232.5 467.5 Q281 496 336 496 Q379 496 406 482 Q433 468 447.5 442 Q462 416 464 379 Q466 342 458 296 L409 0 L353 0 L401 288 Q405 317 406.5 345.5 Q408 374 399.5 397 Q391 420 370.5 434.5 Q350 449 311 449 Q285 449 261.5 440 Q238 431 216 417 Q194 403 174.5 384.5 Q155 366 137 347 L79 0 L23 0 L123 597 L53 597 L60 636 L129 636 L143 720 L200 720 Z " />
<glyph glyph-name="Itilde" unicode="&#x128;" horiz-adv-x="233" d="M157 720 L216 720 L96 0 L37 0 L157 720 Z M348 848 Q331 813 310 798.5 Q289 784 266 784 Q248 784 231.5 789.5 Q215 795 200 801 Q185 807 172 812.5 Q159 818 147 818 Q133 818 125 811 Q117 804 100 781 L68 796 Q88 831 110.5 846.5 Q133 862 156 862 Q172 862 186 856.5 Q200 851 213.5 844.5 Q227 838 240.5 832.5 Q254 827 269 827 Q283 827 293.5 833.5 Q304 840 318 862 L348 848 Z " />
<glyph glyph-name="itilde" unicode="&#x129;" horiz-adv-x="214" d="M302 676 Q285 641 264 626.5 Q243 612 220 612 Q202 612 185.5 617.5 Q169 623 154 629 Q139 635 126 640.5 Q113 646 101 646 Q87 646 79 639 Q71 632 54 609 L22 624 Q43 659 64.5 674.5 Q86 690 109 690 Q125 690 139.5 684.5 Q154 679 167.5 672.5 Q181 666 194.5 660.5 Q208 655 223 655 Q237 655 248 661.5 Q259 668 271 690 L302 676 Z M85 0 L29 0 L117 523 L173 523 L85 0 Z " />
<glyph glyph-name="Imacron" unicode="&#x12a;" horiz-adv-x="233" d="M157 720 L216 720 L96 0 L37 0 L157 720 Z M76 842 L343 842 L335 795 L68 795 L76 842 Z " />
<glyph glyph-name="imacron" unicode="&#x12b;" horiz-adv-x="214" d="M33 674 L300 674 L292 627 L26 627 L33 674 Z M85 0 L29 0 L117 523 L173 523 L85 0 Z " />
<glyph glyph-name="Ibreve" unicode="&#x12c;" horiz-adv-x="233" d="M157 720 L216 720 L96 0 L37 0 L157 720 Z M208 813 Q256 813 281 832 Q306 851 320 896 L359 888 Q342 828 301 799.5 Q260 771 200 771 Q139 771 110 798 Q81 825 82 886 L125 895 Q126 850 144.5 831.5 Q163 813 208 813 Z " />
<glyph glyph-name="ibreve" unicode="&#x12d;" horiz-adv-x="214" d="M164 637 Q216 637 239.5 660.5 Q263 684 276 729 L316 721 Q299 656 260.5 626 Q222 596 156 596 Q91 596 63.5 625 Q36 654 38 720 L80 729 Q82 679 99 658 Q116 637 164 637 Z M85 0 L29 0 L117 523 L173 523 L85 0 Z " />
<glyph glyph-name="Iogonek" unicode="&#x12e;" horiz-adv-x="233" d="M157 720 L216 720 L96 0 Q45 -39 13.5 -74 Q-18 -109 -18 -144 Q-18 -175 18 -175 Q35 -175 49 -169.5 Q63 -164 80 -156 L92 -189 Q75 -200 50 -209.5 Q25 -219 0 -219 Q-35 -219 -53 -202.5 Q-71 -186 -71 -157 Q-71 -135 -61.5 -113.5 Q-52 -92 -36.5 -72 Q-21 -52 -1.5 -33.5 Q18 -15 37 0 L157 720 Z " />
<glyph glyph-name="iogonek" unicode="&#x12f;" horiz-adv-x="212" d="M83 0 Q32 -39 0.5 -74 Q-31 -109 -31 -144 Q-31 -175 6 -175 Q22 -175 36.5 -169.5 Q51 -164 67 -156 L79 -189 Q62 -200 37 -209.5 Q12 -219 -13 -219 Q-48 -219 -66 -202.5 Q-84 -186 -84 -158 Q-84 -136 -74 -113.5 Q-64 -91 -48 -70.5 Q-32 -50 -11.5 -31.5 Q9 -13 29 2 L117 524 L172 524 L83 0 Z M126 663 Q126 683 141 695.5 Q156 708 176 708 Q192 708 201.5 698.5 Q211 689 211 675 Q211 655 197 642.5 Q183 630 163 630 Q146 630 136 639.5 Q126 649 126 663 Z " />
<glyph glyph-name="Idotaccent" unicode="&#x130;" horiz-adv-x="233" d="M157 720 L216 720 L96 0 L37 0 L157 720 Z M164 816 Q164 836 179 848.5 Q194 861 214 861 Q230 861 239 851.5 Q248 842 248 828 Q248 808 234 795.5 Q220 783 200 783 Q184 783 174 792.5 Q164 802 164 816 Z " />
<glyph glyph-name="dotlessi" unicode="&#x131;" horiz-adv-x="214" d="M85 0 L29 0 L117 523 L173 523 L85 0 Z " />
<glyph glyph-name="IJ" unicode="&#x132;" horiz-adv-x="622" d="M157 720 L216 720 L96 0 L37 0 L157 720 Z M515 145 Q501 61 458 24.5 Q415 -12 339 -12 Q308 -12 273.5 -5 Q239 2 212 16 L236 65 Q261 53 286.5 46.5 Q312 40 346 40 Q370 40 388 46 Q406 52 420 66.5 Q434 81 443 105.5 Q452 130 458 167 L551 720 L611 720 L515 145 Z " />
<glyph glyph-name="ij" unicode="&#x133;" horiz-adv-x="430" d="M126 663 Q126 683 141 695.5 Q156 708 176 708 Q192 708 201.5 698.5 Q211 689 211 675 Q211 655 197 642.5 Q183 630 163 630 Q146 630 136 639.5 Q126 649 126 663 Z M84 0 L29 0 L117 524 L172 524 L84 0 Z M288 -79 Q283 -108 275 -131 Q267 -154 253 -170 Q239 -186 218 -194.5 Q197 -203 166 -203 Q149 -203 133 -201 Q117 -199 103 -193 L117 -148 Q126 -151 138 -153 Q150 -155 163 -155 Q189 -155 206 -140 Q223 -125 231 -78 L333 524 L389 524 L288 -79 Z M343 663 Q343 683 358 696.5 Q373 710 393 710 Q409 710 418.5 700 Q428 690 428 675 Q428 655 414 641.5 Q400 628 380 628 Q363 628 353 637.5 Q343 647 343 663 Z " />
<glyph glyph-name="Jcircumflex" unicode="&#x134;" horiz-adv-x="381" d="M274 145 Q260 61 217 24.5 Q174 -12 98 -12 Q67 -12 32.5 -5 Q-2 2 -29 16 L-5 65 Q20 53 45.5 46.5 Q71 40 105 40 Q129 40 147 46 Q165 52 179 66.5 Q193 81 202 105.5 Q211 130 217 167 L310 720 L370 720 L274 145 Z M385 868 L452 781 L429 757 L357 824 L263 756 L241 781 L342 868 L385 868 Z " />
<glyph glyph-name="jcircumflex" unicode="&#x135;" horiz-adv-x="214" d="M72 -79 Q67 -108 59 -131 Q51 -154 37 -170 Q23 -186 2 -194.5 Q-19 -203 -50 -203 Q-67 -203 -83 -201 Q-99 -199 -113 -193 L-99 -148 Q-90 -151 -78 -153 Q-66 -155 -53 -155 Q-27 -155 -10 -140 Q7 -125 15 -78 L117 524 L173 524 L72 -79 Z M202 753 L281 604 L248 583 L172 704 L57 584 L30 604 L159 753 L202 753 Z " />
<glyph glyph-name="Kcommaaccent" unicode="&#x136;" horiz-adv-x="614" d="M157 720 L216 720 L163 400 L311 400 L554 720 L621 720 L359 377 L539 0 L470 0 L302 349 L154 349 L96 0 L37 0 L157 720 Z M215 -60 L266 -71 L185 -226 L148 -216 L215 -60 Z " />
<glyph glyph-name="kcommaaccent" unicode="&#x137;" horiz-adv-x="480" d="M132 317 L195 317 L411 524 L480 524 L240 292 L417 0 L347 0 L184 266 L124 266 L79 0 L23 0 L143 720 L200 720 L132 317 Z M179 -60 L230 -71 L149 -226 L112 -216 L179 -60 Z " />
<glyph glyph-name="kgreenlandic" unicode="&#x138;" horiz-adv-x="486" d="M127 313 L189 313 L408 524 L475 524 L234 291 L413 0 L347 0 L179 266 L119 266 L74 0 L18 0 L106 524 L162 524 L127 313 Z " />
<glyph glyph-name="Lacute" unicode="&#x139;" horiz-adv-x="512" d="M216 720 L105 54 L443 54 L434 0 L37 0 L157 720 L216 720 Z M311 887 L327 840 L144 757 L133 792 L311 887 Z " />
<glyph glyph-name="lacute" unicode="&#x13a;" horiz-adv-x="202" d="M23 0 L143 720 L200 720 L79 0 L23 0 Z M275 887 L291 840 L108 757 L97 792 L275 887 Z " />
<glyph glyph-name="Lcommaaccent" unicode="&#x13b;" horiz-adv-x="512" d="M216 720 L105 54 L443 54 L434 0 L37 0 L157 720 L216 720 Z M186 -60 L237 -71 L156 -226 L119 -216 L186 -60 Z " />
<glyph glyph-name="lcommaaccent" unicode="&#x13c;" horiz-adv-x="202" d="M23 0 L143 720 L200 720 L79 0 L23 0 Z M17 -60 L68 -71 L-13 -226 L-50 -216 L17 -60 Z " />
<glyph glyph-name="Lcaron" unicode="&#x13d;" horiz-adv-x="512" d="M216 720 L105 54 L443 54 L434 0 L37 0 L157 720 L216 720 Z M396 720 L453 720 L372 538 L329 538 L396 720 Z " />
<glyph glyph-name="lcaron" unicode="&#x13e;" horiz-adv-x="239" d="M23 0 L143 720 L200 720 L79 0 L23 0 Z M312 720 L369 720 L288 538 L245 538 L312 720 Z " />
<glyph glyph-name="Ldot" unicode="&#x13f;" horiz-adv-x="512" d="M216 720 L105 54 L443 54 L434 0 L37 0 L157 720 L216 720 Z M338 363 Q338 388 355 401.5 Q372 415 394 415 Q411 415 423 405.5 Q435 396 435 377 Q435 354 417.5 340 Q400 326 379 326 Q361 326 349.5 336 Q338 346 338 363 Z " />
<glyph glyph-name="ldot" unicode="&#x140;" horiz-adv-x="293" d="M23 0 L143 720 L200 720 L79 0 L23 0 Z M207 349 Q207 375 224.5 388 Q242 401 262 401 Q281 401 292 391.5 Q303 382 303 364 Q303 341 286.5 326.5 Q270 312 248 312 Q230 312 218.5 322 Q207 332 207 349 Z " />
<glyph glyph-name="Lslash" unicode="&#x141;" horiz-adv-x="512" d="M216 720 L159 375 L396 463 L388 415 L151 326 L105 54 L443 54 L434 0 L37 0 L88 306 L-3 272 L6 321 L95 355 L157 720 L216 720 Z " />
<glyph glyph-name="lslash" unicode="&#x142;" horiz-adv-x="231" d="M38 0 L94 335 L10 300 L18 347 L102 382 L158 720 L214 720 L162 404 L250 442 L242 395 L154 357 L94 0 L38 0 Z " />
<glyph glyph-name="Nacute" unicode="&#x143;" horiz-adv-x="689" d="M157 720 L214 720 L511 105 L613 720 L673 720 L552 0 L497 0 L199 616 L96 0 L37 0 L157 720 Z M528 887 L544 840 L361 757 L350 792 L528 887 Z " />
<glyph glyph-name="nacute" unicode="&#x144;" horiz-adv-x="531" d="M164 524 L150 443 Q191 484 238.5 510 Q286 536 340 536 Q386 536 414.5 521 Q443 506 456.5 479 Q470 452 471 415.5 Q472 379 465 336 L409 0 L353 0 L407 329 Q421 407 401 445 Q381 483 319 483 Q290 483 263.5 472 Q237 461 214.5 446 Q192 431 173.5 414 Q155 397 143 385 L79 0 L23 0 L111 524 L164 524 Z M431 746 L458 707 L293 586 L273 616 L431 746 Z " />
<glyph glyph-name="Ncommaaccent" unicode="&#x145;" horiz-adv-x="689" d="M157 720 L214 720 L511 105 L613 720 L673 720 L552 0 L497 0 L199 616 L96 0 L37 0 L157 720 Z M256 -60 L307 -71 L226 -226 L189 -216 L256 -60 Z " />
<glyph glyph-name="ncommaaccent" unicode="&#x146;" horiz-adv-x="531" d="M164 524 L150 443 Q191 484 238.5 510 Q286 536 340 536 Q386 536 414.5 521 Q443 506 456.5 479 Q470 452 471 415.5 Q472 379 465 336 L409 0 L353 0 L407 329 Q421 407 401 445 Q381 483 319 483 Q290 483 263.5 472 Q237 461 214.5 446 Q192 431 173.5 414 Q155 397 143 385 L79 0 L23 0 L111 524 L164 524 Z M188 -60 L239 -71 L158 -226 L121 -216 L188 -60 Z " />
<glyph glyph-name="Ncaron" unicode="&#x147;" horiz-adv-x="689" d="M157 720 L214 720 L511 105 L613 720 L673 720 L552 0 L497 0 L199 616 L96 0 L37 0 L157 720 Z M406 767 L334 854 L363 879 L436 811 L530 878 L550 854 L450 767 L406 767 Z " />
<glyph glyph-name="ncaron" unicode="&#x148;" horiz-adv-x="531" d="M164 524 L150 443 Q191 484 238.5 510 Q286 536 340 536 Q386 536 414.5 521 Q443 506 456.5 479 Q470 452 471 415.5 Q472 379 465 336 L409 0 L353 0 L407 329 Q421 407 401 445 Q381 483 319 483 Q290 483 263.5 472 Q237 461 214.5 446 Q192 431 173.5 414 Q155 397 143 385 L79 0 L23 0 L111 524 L164 524 Z M299 591 L220 740 L254 761 L329 640 L444 761 L470 740 L342 591 L299 591 Z " />
<glyph glyph-name="napostrophe" unicode="&#x149;" horiz-adv-x="548" d="M181 524 L167 443 Q208 484 255.5 510 Q303 536 357 536 Q403 536 431.5 521 Q460 506 473.5 479 Q487 452 488 415.5 Q489 379 482 336 L426 0 L370 0 L424 329 Q438 407 418 445 Q398 483 336 483 Q307 483 280.5 472 Q254 461 231.5 446 Q209 431 190.5 414 Q172 397 160 385 L96 0 L40 0 L128 524 L181 524 Z M34.3961 637.154 Q34.3961 657.946 49.2455 672.41 Q64.0949 686.874 87.494 686.874 Q110.893 686.874 119.443 671.958 Q127.992 657.042 127.992 638.962 Q127.992 623.595 123.043 606.419 Q118.093 589.243 107.293 571.615 Q96.4936 553.987 78.4943 537.715 Q60.4951 521.444 34.3961 507.884 L24.4965 528.675 Q54.1953 544.947 71.7446 565.739 Q89.2939 586.531 95.5936 617.267 Q80.2943 604.611 64.9949 604.611 Q49.6955 604.611 42.0458 614.555 Q34.3961 624.499 34.3961 637.154 Z " />
<glyph glyph-name="Eng" unicode="&#x14a;" horiz-adv-x="689" d="M157 720 L214 720 L511 105 L613 720 L673 720 L542 -62 Q537 -90 526.5 -115.5 Q516 -141 497 -160.5 Q478 -180 450 -191.5 Q422 -203 382 -203 Q369 -203 352.5 -201.5 Q336 -200 320.5 -197 Q305 -194 292.5 -191 Q280 -188 274 -185 L296 -137 Q304 -140 330 -145.5 Q356 -151 385 -151 Q426 -151 450.5 -130 Q475 -109 483 -59 L494 6 L199 616 L96 0 L37 0 L157 720 Z " />
<glyph glyph-name="eng" unicode="&#x14b;" horiz-adv-x="531" d="M164 524 L150 443 Q191 484 238.5 510 Q286 536 340 536 Q386 536 414.5 521 Q443 506 456.5 479 Q470 452 471 415.5 Q472 379 465 336 L396 -79 Q391 -108 383 -131 Q375 -154 361 -170 Q347 -186 326 -194.5 Q305 -203 274 -203 Q257 -203 241 -201 Q225 -199 210 -193 L225 -148 Q234 -151 246 -153 Q258 -155 271 -155 Q297 -155 314 -140 Q331 -125 339 -78 L407 329 Q421 407 401 445 Q381 483 319 483 Q290 483 263.5 472 Q237 461 214.5 446 Q192 431 173.5 414 Q155 397 143 385 L79 0 L23 0 L111 524 L164 524 Z " />
<glyph glyph-name="Omacron" unicode="&#x14c;" horiz-adv-x="747" d="M135 370 Q130 344 128.5 320.5 Q127 297 127 275 Q127 156 183 100 Q239 44 334 44 Q388 44 436 63 Q484 82 522.5 122 Q561 162 588.5 223.5 Q616 285 630 370 Q634 393 635.5 413.5 Q637 434 637 453 Q637 564 583 620.5 Q529 677 435 677 Q379 677 329.5 657 Q280 637 241 598 Q202 559 174.5 502 Q147 445 135 370 Z M70 370 Q84 463 119 531.5 Q154 600 204.5 645 Q255 690 317 711.5 Q379 733 447 733 Q503 733 550 715.5 Q597 698 630.5 663 Q664 628 682.5 575.5 Q701 523 701 453 Q701 433 700 413 Q699 393 695 370 Q679 265 643 192 Q607 119 557.5 73.5 Q508 28 448 8 Q388 -12 322 -12 Q265 -12 217 4.5 Q169 21 134.5 55.5 Q100 90 81 143 Q62 196 62 270 Q62 293 63.5 318 Q65 343 70 370 Z M337 842 L604 842 L596 795 L329 795 L337 842 Z " />
<glyph glyph-name="omacron" unicode="&#x14d;" horiz-adv-x="558" d="M83 261 Q80 244 79 228 Q78 212 78 198 Q78 117 114.5 79 Q151 41 214 41 Q249 41 282 53.5 Q315 66 342 93 Q369 120 389 161.5 Q409 203 418 261 Q421 278 422 293.5 Q423 309 423 323 Q423 405 384 444 Q345 483 285 483 Q250 483 217.5 469.5 Q185 456 158 428 Q131 400 111.5 358.5 Q92 317 83 261 Z M21 260 Q31 326 55.5 377.5 Q80 429 116 464.5 Q152 500 197.5 518 Q243 536 294 536 Q384 536 434 482 Q484 428 484 327 Q484 311 483 294.5 Q482 278 479 261 Q468 190 443 138.5 Q418 87 382.5 53.5 Q347 20 302 4 Q257 -12 205 -12 Q114 -12 65 42 Q16 96 16 193 Q16 209 17 225.5 Q18 242 21 260 Z M208 674 L475 674 L467 627 L201 627 L208 674 Z " />
<glyph glyph-name="Obreve" unicode="&#x14e;" horiz-adv-x="747" d="M135 370 Q130 344 128.5 320.5 Q127 297 127 275 Q127 156 183 100 Q239 44 334 44 Q388 44 436 63 Q484 82 522.5 122 Q561 162 588.5 223.5 Q616 285 630 370 Q634 393 635.5 413.5 Q637 434 637 453 Q637 564 583 620.5 Q529 677 435 677 Q379 677 329.5 657 Q280 637 241 598 Q202 559 174.5 502 Q147 445 135 370 Z M70 370 Q84 463 119 531.5 Q154 600 204.5 645 Q255 690 317 711.5 Q379 733 447 733 Q503 733 550 715.5 Q597 698 630.5 663 Q664 628 682.5 575.5 Q701 523 701 453 Q701 433 700 413 Q699 393 695 370 Q679 265 643 192 Q607 119 557.5 73.5 Q508 28 448 8 Q388 -12 322 -12 Q265 -12 217 4.5 Q169 21 134.5 55.5 Q100 90 81 143 Q62 196 62 270 Q62 293 63.5 318 Q65 343 70 370 Z M469 813 Q517 813 542 832 Q567 851 581 896 L620 888 Q603 828 562 799.5 Q521 771 461 771 Q400 771 371 798 Q342 825 343 886 L386 895 Q387 850 405.5 831.5 Q424 813 469 813 Z " />
<glyph glyph-name="obreve" unicode="&#x14f;" horiz-adv-x="558" d="M83 261 Q80 244 79 228 Q78 212 78 198 Q78 117 114.5 79 Q151 41 214 41 Q249 41 282 53.5 Q315 66 342 93 Q369 120 389 161.5 Q409 203 418 261 Q421 278 422 293.5 Q423 309 423 323 Q423 405 384 444 Q345 483 285 483 Q250 483 217.5 469.5 Q185 456 158 428 Q131 400 111.5 358.5 Q92 317 83 261 Z M21 260 Q31 326 55.5 377.5 Q80 429 116 464.5 Q152 500 197.5 518 Q243 536 294 536 Q384 536 434 482 Q484 428 484 327 Q484 311 483 294.5 Q482 278 479 261 Q468 190 443 138.5 Q418 87 382.5 53.5 Q347 20 302 4 Q257 -12 205 -12 Q114 -12 65 42 Q16 96 16 193 Q16 209 17 225.5 Q18 242 21 260 Z M334 637 Q386 637 409.5 660.5 Q433 684 446 729 L486 721 Q469 656 430.5 626 Q392 596 326 596 Q261 596 233.5 625 Q206 654 208 720 L250 729 Q252 679 269 658 Q286 637 334 637 Z " />
<glyph glyph-name="Ohungarumlaut" unicode="&#x150;" horiz-adv-x="747" d="M135 370 Q130 344 128.5 320.5 Q127 297 127 275 Q127 156 183 100 Q239 44 334 44 Q388 44 436 63 Q484 82 522.5 122 Q561 162 588.5 223.5 Q616 285 630 370 Q634 393 635.5 413.5 Q637 434 637 453 Q637 564 583 620.5 Q529 677 435 677 Q379 677 329.5 657 Q280 637 241 598 Q202 559 174.5 502 Q147 445 135 370 Z M70 370 Q84 463 119 531.5 Q154 600 204.5 645 Q255 690 317 711.5 Q379 733 447 733 Q503 733 550 715.5 Q597 698 630.5 663 Q664 628 682.5 575.5 Q701 523 701 453 Q701 433 700 413 Q699 393 695 370 Q679 265 643 192 Q607 119 557.5 73.5 Q508 28 448 8 Q388 -12 322 -12 Q265 -12 217 4.5 Q169 21 134.5 55.5 Q100 90 81 143 Q62 196 62 270 Q62 293 63.5 318 Q65 343 70 370 Z M537 888 L387 756 L362 779 L505 919 L537 888 Z M646 873 L505 756 L482 781 L616 906 L646 873 Z " />
<glyph glyph-name="ohungarumlaut" unicode="&#x151;" horiz-adv-x="558" d="M83 261 Q80 244 79 228 Q78 212 78 198 Q78 117 114.5 79 Q151 41 214 41 Q249 41 282 53.5 Q315 66 342 93 Q369 120 389 161.5 Q409 203 418 261 Q421 278 422 293.5 Q423 309 423 323 Q423 405 384 444 Q345 483 285 483 Q250 483 217.5 469.5 Q185 456 158 428 Q131 400 111.5 358.5 Q92 317 83 261 Z M21 260 Q31 326 55.5 377.5 Q80 429 116 464.5 Q152 500 197.5 518 Q243 536 294 536 Q384 536 434 482 Q484 428 484 327 Q484 311 483 294.5 Q482 278 479 261 Q468 190 443 138.5 Q418 87 382.5 53.5 Q347 20 302 4 Q257 -12 205 -12 Q114 -12 65 42 Q16 96 16 193 Q16 209 17 225.5 Q18 242 21 260 Z M380 715 L232 585 L208 608 L349 745 L380 715 Z M488 702 L348 585 L326 608 L459 733 L488 702 Z " />
<glyph glyph-name="OE" unicode="&#x152;" horiz-adv-x="1124" d="M603 152 Q579 107 547 75.5 Q515 44 477 24.5 Q439 5 397 -3.5 Q355 -12 311 -12 Q256 -12 210.5 5.5 Q165 23 132 59.5 Q99 96 80.5 151 Q62 206 62 281 Q62 394 93.5 478.5 Q125 563 177.5 619.5 Q230 676 299.5 704 Q369 732 445 732 Q488 732 525.5 721 Q563 710 592.5 688.5 Q622 667 642.5 635.5 Q663 604 672 562 L698 720 L1131 720 L1121 666 L745 666 L701 398 L1043 398 L1035 346 L692 346 L644 54 L1029 54 L1019 0 L578 0 L603 152 Z M127 291 Q127 166 181.5 105.5 Q236 45 328 45 Q389 45 446 66.5 Q503 88 547 134.5 Q591 181 618 255.5 Q645 330 645 436 Q645 500 628.5 545 Q612 590 583.5 619 Q555 648 518 661.5 Q481 675 439 675 Q372 675 315 649.5 Q258 624 216 575 Q174 526 150.5 454.5 Q127 383 127 291 Z " />
<glyph glyph-name="Racute" unicode="&#x154;" horiz-adv-x="613" d="M370 720 Q424 720 463 708 Q502 696 527.5 673.5 Q553 651 565.5 619.5 Q578 588 578 550 Q578 472 541 413.5 Q504 355 418 317 L528 0 L463 0 L358 304 Q341 300 321 298.5 Q301 297 278 297 L145 297 L96 0 L37 0 L157 720 L370 720 Z M207 666 L154 348 L299 348 Q411 348 463.5 399.5 Q516 451 516 543 Q516 603 479 634.5 Q442 666 360 666 L207 666 Z M471 887 L487 840 L304 757 L293 792 L471 887 Z " />
<glyph glyph-name="racute" unicode="&#x155;" horiz-adv-x="298" d="M147 439 Q170 480 206 508 Q242 536 283 536 Q294 536 306 534.5 Q318 533 327 529 L310 472 Q302 475 291.5 476 Q281 477 270 477 Q250 477 231 467.5 Q212 458 195.5 443 Q179 428 165.5 410 Q152 392 142 375 L79 0 L23 0 L111 524 L161 524 L147 439 Z M322 746 L349 707 L184 586 L164 616 L322 746 Z " />
<glyph glyph-name="Rcommaaccent" unicode="&#x156;" horiz-adv-x="613" d="M370 720 Q424 720 463 708 Q502 696 527.5 673.5 Q553 651 565.5 619.5 Q578 588 578 550 Q578 472 541 413.5 Q504 355 418 317 L528 0 L463 0 L358 304 Q341 300 321 298.5 Q301 297 278 297 L145 297 L96 0 L37 0 L157 720 L370 720 Z M207 666 L154 348 L299 348 Q411 348 463.5 399.5 Q516 451 516 543 Q516 603 479 634.5 Q442 666 360 666 L207 666 Z M218 -60 L269 -71 L188 -226 L151 -216 L218 -60 Z " />
<glyph glyph-name="rcommaaccent" unicode="&#x157;" horiz-adv-x="298" d="M147 439 Q170 480 206 508 Q242 536 283 536 Q294 536 306 534.5 Q318 533 327 529 L310 472 Q302 475 291.5 476 Q281 477 270 477 Q250 477 231 467.5 Q212 458 195.5 443 Q179 428 165.5 410 Q152 392 142 375 L79 0 L23 0 L111 524 L161 524 L147 439 Z M17 -60 L68 -71 L-13 -226 L-50 -216 L17 -60 Z " />
<glyph glyph-name="Rcaron" unicode="&#x158;" horiz-adv-x="613" d="M370 720 Q424 720 463 708 Q502 696 527.5 673.5 Q553 651 565.5 619.5 Q578 588 578 550 Q578 472 541 413.5 Q504 355 418 317 L528 0 L463 0 L358 304 Q341 300 321 298.5 Q301 297 278 297 L145 297 L96 0 L37 0 L157 720 L370 720 Z M207 666 L154 348 L299 348 Q411 348 463.5 399.5 Q516 451 516 543 Q516 603 479 634.5 Q442 666 360 666 L207 666 Z M338 767 L266 854 L295 879 L368 811 L462 878 L482 854 L382 767 L338 767 Z " />
<glyph glyph-name="rcaron" unicode="&#x159;" horiz-adv-x="298" d="M147 439 Q170 480 206 508 Q242 536 283 536 Q294 536 306 534.5 Q318 533 327 529 L310 472 Q302 475 291.5 476 Q281 477 270 477 Q250 477 231 467.5 Q212 458 195.5 443 Q179 428 165.5 410 Q152 392 142 375 L79 0 L23 0 L111 524 L161 524 L147 439 Z M207 591 L128 740 L162 761 L237 640 L352 761 L378 740 L250 591 L207 591 Z " />
<glyph glyph-name="Sacute" unicode="&#x15a;" horiz-adv-x="561" d="M44 132 Q84 87 131.5 64 Q179 41 239 41 Q277 41 312 52 Q347 63 373.5 84.5 Q400 106 416 137.5 Q432 169 432 210 Q432 256 400 287.5 Q368 319 286 346 Q237 362 201.5 377.5 Q166 393 143 413 Q120 433 109 459 Q98 485 98 521 Q98 569 117.5 608 Q137 647 171 675 Q205 703 252 718 Q299 733 355 733 Q423 733 474 708 Q525 683 560 629 L515 593 Q483 641 438 661 Q393 681 346 681 Q307 681 273 671 Q239 661 214 642 Q189 623 175 595 Q161 567 161 531 Q161 502 171 483 Q181 464 201 449.5 Q221 435 252.5 422.5 Q284 410 327 394 Q372 377 403.5 360 Q435 343 455.5 322.5 Q476 302 485 277.5 Q494 253 494 222 Q494 168 474 124.5 Q454 81 418 50.5 Q382 20 332.5 4 Q283 -12 225 -12 Q151 -12 94 17.5 Q37 47 2 92 L44 132 Z M465 887 L481 840 L298 757 L287 792 L465 887 Z " />
<glyph glyph-name="sacute" unicode="&#x15b;" horiz-adv-x="456" d="M26 107 Q58 76 96 57 Q134 38 177 38 Q243 38 285 67.5 Q327 97 327 148 Q327 167 321.5 181.5 Q316 196 302 207.5 Q288 219 265 228.5 Q242 238 206 246 Q129 264 96.5 294.5 Q64 325 64 380 Q64 414 78.5 443 Q93 472 119 492.5 Q145 513 182.5 524.5 Q220 536 267 536 Q377 536 433 459 L396 424 Q368 457 333 472 Q298 487 260 487 Q199 487 161 460.5 Q123 434 123 389 Q123 348 152.5 328.5 Q182 309 245 293 Q319 275 354 243 Q389 211 389 159 Q389 118 372.5 86 Q356 54 327 32 Q298 10 258 -1 Q218 -12 172 -12 Q110 -12 62.5 11.5 Q15 35 -12 68 L26 107 Z M371 746 L398 707 L233 586 L213 616 L371 746 Z " />
<glyph glyph-name="Scircumflex" unicode="&#x15c;" horiz-adv-x="561" d="M44 132 Q84 87 131.5 64 Q179 41 239 41 Q277 41 312 52 Q347 63 373.5 84.5 Q400 106 416 137.5 Q432 169 432 210 Q432 256 400 287.5 Q368 319 286 346 Q237 362 201.5 377.5 Q166 393 143 413 Q120 433 109 459 Q98 485 98 521 Q98 569 117.5 608 Q137 647 171 675 Q205 703 252 718 Q299 733 355 733 Q423 733 474 708 Q525 683 560 629 L515 593 Q483 641 438 661 Q393 681 346 681 Q307 681 273 671 Q239 661 214 642 Q189 623 175 595 Q161 567 161 531 Q161 502 171 483 Q181 464 201 449.5 Q221 435 252.5 422.5 Q284 410 327 394 Q372 377 403.5 360 Q435 343 455.5 322.5 Q476 302 485 277.5 Q494 253 494 222 Q494 168 474 124.5 Q454 81 418 50.5 Q382 20 332.5 4 Q283 -12 225 -12 Q151 -12 94 17.5 Q37 47 2 92 L44 132 Z M387 868 L454 781 L431 757 L359 824 L265 756 L243 781 L344 868 L387 868 Z " />
<glyph glyph-name="scircumflex" unicode="&#x15d;" horiz-adv-x="456" d="M26 107 Q58 76 96 57 Q134 38 177 38 Q243 38 285 67.5 Q327 97 327 148 Q327 167 321.5 181.5 Q316 196 302 207.5 Q288 219 265 228.5 Q242 238 206 246 Q129 264 96.5 294.5 Q64 325 64 380 Q64 414 78.5 443 Q93 472 119 492.5 Q145 513 182.5 524.5 Q220 536 267 536 Q377 536 433 459 L396 424 Q368 457 333 472 Q298 487 260 487 Q199 487 161 460.5 Q123 434 123 389 Q123 348 152.5 328.5 Q182 309 245 293 Q319 275 354 243 Q389 211 389 159 Q389 118 372.5 86 Q356 54 327 32 Q298 10 258 -1 Q218 -12 172 -12 Q110 -12 62.5 11.5 Q15 35 -12 68 L26 107 Z M319 753 L398 604 L365 583 L289 704 L174 584 L147 604 L276 753 L319 753 Z " />
<glyph glyph-name="Scedilla" unicode="&#x15e;" horiz-adv-x="561" d="M145 -152 Q158 -157 173.5 -161.5 Q189 -166 207 -166 Q216 -166 226.5 -164.5 Q237 -163 245 -158.5 Q253 -154 258.5 -145 Q264 -136 264 -121 Q264 -102 247 -96 Q230 -90 198 -90 L189 -90 L219 -12 Q147 -10 92 18.5 Q37 47 2 92 L44 132 Q84 87 131.5 64 Q179 41 239 41 Q277 41 312 52 Q347 63 373.5 84.5 Q400 106 416 137.5 Q432 169 432 210 Q432 256 400 286.5 Q368 317 286 344 Q237 360 201.5 376.5 Q166 393 143 413.5 Q120 434 109 459 Q98 484 98 516 Q98 566 118.5 606 Q139 646 174 674.5 Q209 703 255.5 718 Q302 733 355 733 Q423 733 474 708 Q525 683 560 629 L515 593 Q483 641 438 661 Q393 681 346 681 Q309 681 275.5 671 Q242 661 216.5 641.5 Q191 622 176 593.5 Q161 565 161 527 Q161 500 171.5 481.5 Q182 463 203 448.5 Q224 434 255 421.5 Q286 409 327 394 Q372 377 403.5 359.5 Q435 342 455 322 Q475 302 484.5 277.5 Q494 253 494 222 Q494 173 476.5 132 Q459 91 427.5 61 Q396 31 352 12.5 Q308 -6 256 -10 L238 -58 Q250 -58 262.5 -61 Q275 -64 284.5 -70.5 Q294 -77 300.5 -87.5 Q307 -98 307 -114 Q307 -138 298.5 -154.5 Q290 -171 276 -182 Q262 -193 243.5 -198 Q225 -203 204 -203 Q178 -203 157 -197 Q136 -191 128 -186 L145 -152 Z " />
<glyph glyph-name="scedilla" unicode="&#x15f;" horiz-adv-x="456" d="M77 -152 Q89 -157 105 -161.5 Q121 -166 139 -166 Q148 -166 158.5 -164.5 Q169 -163 177 -158.5 Q185 -154 190.5 -145 Q196 -136 196 -121 Q196 -102 178.5 -96 Q161 -90 130 -90 L121 -90 L151 -11 Q97 -7 55 15.5 Q13 38 -11 68 L27 107 Q59 76 97 57 Q135 38 178 38 Q209 38 236.5 46 Q264 54 284 68.5 Q304 83 316 104 Q328 125 328 152 Q328 186 301.5 207.5 Q275 229 207 246 Q130 264 97.5 293 Q65 322 65 370 Q65 408 80 439 Q95 470 122 491.5 Q149 513 186 524.5 Q223 536 268 536 Q378 536 434 459 L397 424 Q369 457 334 472 Q299 487 261 487 Q200 487 163 460 Q126 433 126 384 Q126 346 156 328 Q186 310 246 293 Q320 273 355 242.5 Q390 212 390 162 Q390 124 374.5 93 Q359 62 332 39.5 Q305 17 268 4 Q231 -9 187 -11 L170 -58 Q182 -58 194.5 -61 Q207 -64 216.5 -70.5 Q226 -77 232.5 -87.5 Q239 -98 239 -114 Q239 -161 208 -182 Q177 -203 135 -203 Q110 -203 89 -197 Q68 -191 60 -186 L77 -152 Z " />
<glyph glyph-name="Scaron" unicode="&#x160;" horiz-adv-x="561" d="M44 132 Q84 87 131.5 64 Q179 41 239 41 Q277 41 312 52 Q347 63 373.5 84.5 Q400 106 416 137.5 Q432 169 432 210 Q432 256 400 287.5 Q368 319 286 346 Q237 362 201.5 377.5 Q166 393 143 413 Q120 433 109 459 Q98 485 98 521 Q98 569 117.5 608 Q137 647 171 675 Q205 703 252 718 Q299 733 355 733 Q423 733 474 708 Q525 683 560 629 L515 593 Q483 641 438 661 Q393 681 346 681 Q307 681 273 671 Q239 661 214 642 Q189 623 175 595 Q161 567 161 531 Q161 502 171 483 Q181 464 201 449.5 Q221 435 252.5 422.5 Q284 410 327 394 Q372 377 403.5 360 Q435 343 455.5 322.5 Q476 302 485 277.5 Q494 253 494 222 Q494 168 474 124.5 Q454 81 418 50.5 Q382 20 332.5 4 Q283 -12 225 -12 Q151 -12 94 17.5 Q37 47 2 92 L44 132 Z M348 767 L276 854 L305 879 L378 811 L472 878 L492 854 L392 767 L348 767 Z " />
<glyph glyph-name="scaron" unicode="&#x161;" horiz-adv-x="456" d="M26 107 Q58 76 96 57 Q134 38 177 38 Q243 38 285 67.5 Q327 97 327 148 Q327 167 321.5 181.5 Q316 196 302 207.5 Q288 219 265 228.5 Q242 238 206 246 Q129 264 96.5 294.5 Q64 325 64 380 Q64 414 78.5 443 Q93 472 119 492.5 Q145 513 182.5 524.5 Q220 536 267 536 Q377 536 433 459 L396 424 Q368 457 333 472 Q298 487 260 487 Q199 487 161 460.5 Q123 434 123 389 Q123 348 152.5 328.5 Q182 309 245 293 Q319 275 354 243 Q389 211 389 159 Q389 118 372.5 86 Q356 54 327 32 Q298 10 258 -1 Q218 -12 172 -12 Q110 -12 62.5 11.5 Q15 35 -12 68 L26 107 Z M251 591 L172 740 L206 761 L281 640 L396 761 L422 740 L294 591 L251 591 Z " />
<glyph glyph-name="Scommaaccent" unicode="&#x218;" horiz-adv-x="561" d="M44 132 Q84 87 131.5 64 Q179 41 239 41 Q277 41 312 52 Q347 63 373.5 84.5 Q400 106 416 137.5 Q432 169 432 210 Q432 256 400 287.5 Q368 319 286 346 Q237 362 201.5 377.5 Q166 393 143 413 Q120 433 109 459 Q98 485 98 521 Q98 569 117.5 608 Q137 647 171 675 Q205 703 252 718 Q299 733 355 733 Q423 733 474 708 Q525 683 560 629 L515 593 Q483 641 438 661 Q393 681 346 681 Q307 681 273 671 Q239 661 214 642 Q189 623 175 595 Q161 567 161 531 Q161 502 171 483 Q181 464 201 449.5 Q221 435 252.5 422.5 Q284 410 327 394 Q372 377 403.5 360 Q435 343 455.5 322.5 Q476 302 485 277.5 Q494 253 494 222 Q494 168 474 124.5 Q454 81 418 50.5 Q382 20 332.5 4 Q283 -12 225 -12 Q151 -12 94 17.5 Q37 47 2 92 L44 132 Z M188 -60 L239 -71 L158 -226 L121 -216 L188 -60 Z " />
<glyph glyph-name="scommaaccent" unicode="&#x219;" horiz-adv-x="456" d="M26 107 Q58 76 96 57 Q134 38 177 38 Q243 38 285 67.5 Q327 97 327 148 Q327 167 321.5 181.5 Q316 196 302 207.5 Q288 219 265 228.5 Q242 238 206 246 Q129 264 96.5 294.5 Q64 325 64 380 Q64 414 78.5 443 Q93 472 119 492.5 Q145 513 182.5 524.5 Q220 536 267 536 Q377 536 433 459 L396 424 Q368 457 333 472 Q298 487 260 487 Q199 487 161 460.5 Q123 434 123 389 Q123 348 152.5 328.5 Q182 309 245 293 Q319 275 354 243 Q389 211 389 159 Q389 118 372.5 86 Q356 54 327 32 Q298 10 258 -1 Q218 -12 172 -12 Q110 -12 62.5 11.5 Q15 35 -12 68 L26 107 Z M161 -60 L212 -71 L131 -226 L94 -216 L161 -60 Z " />
<glyph glyph-name="uni021A" unicode="&#x21a;" horiz-adv-x="551" d="M306 667 L79 667 L88 720 L602 720 L593 667 L366 667 L255 0 L195 0 L306 667 Z M188 -60 L239 -71 L158 -226 L121 -216 L188 -60 Z " />
<glyph glyph-name="uni021B" unicode="&#x21b;" horiz-adv-x="279" d="M173 475 L109 88 Q104 59 112.5 47.5 Q121 36 146 36 Q163 36 179.5 40.5 Q196 45 210 51 L216 9 Q199 1 174.5 -5.5 Q150 -12 130 -12 Q84 -12 64 8.5 Q44 29 52 76 L118 475 L55 475 L61 512 L127 524 L160 663 L205 663 L182 524 L281 524 L272 475 L173 475 Z M85 -60 L136 -71 L55 -226 L18 -216 L85 -60 Z " />
<glyph glyph-name="Tcaron" unicode="&#x164;" horiz-adv-x="551" d="M306 667 L79 667 L88 720 L602 720 L593 667 L366 667 L255 0 L195 0 L306 667 Z M322 767 L250 854 L279 879 L352 811 L446 878 L466 854 L366 767 L322 767 Z " />
<glyph glyph-name="tcaron" unicode="&#x165;" horiz-adv-x="279" d="M173 475 L109 88 Q104 59 112.5 47.5 Q121 36 146 36 Q163 36 179.5 40.5 Q196 45 210 51 L216 9 Q199 1 174.5 -5.5 Q150 -12 130 -12 Q84 -12 64 8.5 Q44 29 52 76 L118 475 L55 475 L61 512 L127 524 L160 663 L205 663 L182 524 L281 524 L272 475 L173 475 Z M324 759 L381 759 L300 577 L257 577 L324 759 Z " />
<glyph glyph-name="Tbar" unicode="&#x166;" horiz-adv-x="552" d="M133 403 L263 403 L307 667 L80 667 L89 720 L603 720 L594 667 L367 667 L324 403 L452 403 L445 358 L316 358 L256 0 L196 0 L256 358 L126 358 L133 403 Z " />
<glyph glyph-name="tbar" unicode="&#x167;" horiz-adv-x="279" d="M173 475 L149 332 L233 332 L225 285 L141 285 L109 88 Q104 59 112.5 47.5 Q121 36 146 36 Q163 36 179.5 40.5 Q196 45 210 51 L216 9 Q199 1 174.5 -5.5 Q150 -12 130 -12 Q84 -12 64 8.5 Q44 29 52 76 L86 285 L23 285 L31 332 L94 332 L118 475 L55 475 L61 512 L127 524 L160 663 L205 663 L182 524 L266 524 L257 475 L173 475 Z " />
<glyph glyph-name="uni0162" unicode="&#x162;" horiz-adv-x="551" d="M307 667 L80 667 L89 720 L603 720 L594 667 L367 667 L256 0 L243 0 L221 -58 Q233 -58 245.5 -61 Q258 -64 267.5 -70.5 Q277 -77 283.5 -87.5 Q290 -98 290 -114 Q290 -161 259.5 -182 Q229 -203 187 -203 Q161 -203 140.5 -197 Q120 -191 111 -186 L128 -152 Q141 -157 156.5 -161.5 Q172 -166 191 -166 Q200 -166 210 -164.5 Q220 -163 228 -158.5 Q236 -154 241.5 -145 Q247 -136 247 -121 Q247 -102 230 -96 Q213 -90 181 -90 L172 -90 L207 0 L196 0 L307 667 Z " />
<glyph glyph-name="uni0163" unicode="&#x163;" horiz-adv-x="279" d="M15 -152 Q28 -157 43.5 -161.5 Q59 -166 78 -166 Q87 -166 97 -164.5 Q107 -163 115.5 -158.5 Q124 -154 129.5 -145 Q135 -136 135 -121 Q135 -102 117.5 -96 Q100 -90 69 -90 L60 -90 L91 -7 Q39 7 52 76 L118 475 L55 475 L61 512 L127 524 L160 663 L205 663 L182 524 L266 524 L257 475 L173 475 L109 88 Q104 59 112.5 47.5 Q121 36 146 36 Q163 36 179.5 40.5 Q196 45 210 51 L216 9 Q199 1 174.5 -5.5 Q150 -12 130 -12 L126 -12 L109 -58 Q121 -58 133.5 -61 Q146 -64 155.5 -70.5 Q165 -77 171.5 -87.5 Q178 -98 178 -114 Q178 -138 169.5 -154.5 Q161 -171 146.5 -182 Q132 -193 113.5 -198 Q95 -203 74 -203 Q49 -203 28 -197 Q7 -191 -1 -186 L15 -152 Z " />
<glyph glyph-name="Utilde" unicode="&#x168;" horiz-adv-x="679" d="M211 720 L137 275 Q117 156 157.5 99 Q198 42 300 42 Q354 42 393.5 57.5 Q433 73 461 102.5 Q489 132 506.5 175.5 Q524 219 533 275 L607 720 L667 720 L591 265 Q568 123 492.5 55.5 Q417 -12 292 -12 Q233 -12 187 4.5 Q141 21 112.5 55 Q84 89 74 141 Q64 193 76 265 L152 720 L211 720 Z M570 848 Q553 813 532 798.5 Q511 784 488 784 Q470 784 453.5 789.5 Q437 795 422 801 Q407 807 394 812.5 Q381 818 369 818 Q355 818 347 811 Q339 804 322 781 L290 796 Q310 831 332.5 846.5 Q355 862 378 862 Q394 862 408 856.5 Q422 851 435.5 844.5 Q449 838 462.5 832.5 Q476 827 491 827 Q505 827 515.5 833.5 Q526 840 540 862 L570 848 Z " />
<glyph glyph-name="utilde" unicode="&#x169;" horiz-adv-x="526" d="M350 0 L363 80 Q348 65 328.5 48.5 Q309 32 285 18.5 Q261 5 233 -3.5 Q205 -12 174 -12 Q126 -12 97.5 3 Q69 18 55.5 44 Q42 70 41.5 104 Q41 138 47 176 L106 524 L163 524 L106 187 Q95 116 112 78.5 Q129 41 193 41 Q220 41 244.5 49.5 Q269 58 291.5 72 Q314 86 333.5 103.5 Q353 121 370 138 L435 524 L491 524 L403 0 L350 0 Z M456 676 Q439 641 418 626.5 Q397 612 374 612 Q356 612 339.5 617.5 Q323 623 308 629 Q293 635 280 640.5 Q267 646 255 646 Q241 646 233 639 Q225 632 208 609 L176 624 Q197 659 218.5 674.5 Q240 690 263 690 Q279 690 293.5 684.5 Q308 679 321.5 672.5 Q335 666 348.5 660.5 Q362 655 377 655 Q391 655 402 661.5 Q413 668 425 690 L456 676 Z " />
<glyph glyph-name="Umacron" unicode="&#x16a;" horiz-adv-x="679" d="M211 720 L137 275 Q117 156 157.5 99 Q198 42 300 42 Q354 42 393.5 57.5 Q433 73 461 102.5 Q489 132 506.5 175.5 Q524 219 533 275 L607 720 L667 720 L591 265 Q568 123 492.5 55.5 Q417 -12 292 -12 Q233 -12 187 4.5 Q141 21 112.5 55 Q84 89 74 141 Q64 193 76 265 L152 720 L211 720 Z M297 842 L564 842 L556 795 L289 795 L297 842 Z " />
<glyph glyph-name="umacron" unicode="&#x16b;" horiz-adv-x="526" d="M350 0 L363 80 Q348 65 328.5 48.5 Q309 32 285 18.5 Q261 5 233 -3.5 Q205 -12 174 -12 Q126 -12 97.5 3 Q69 18 55.5 44 Q42 70 41.5 104 Q41 138 47 176 L106 524 L163 524 L106 187 Q95 116 112 78.5 Q129 41 193 41 Q220 41 244.5 49.5 Q269 58 291.5 72 Q314 86 333.5 103.5 Q353 121 370 138 L435 524 L491 524 L403 0 L350 0 Z M194 674 L461 674 L453 627 L187 627 L194 674 Z " />
<glyph glyph-name="Ubreve" unicode="&#x16c;" horiz-adv-x="679" d="M211 720 L137 275 Q117 156 157.5 99 Q198 42 300 42 Q354 42 393.5 57.5 Q433 73 461 102.5 Q489 132 506.5 175.5 Q524 219 533 275 L607 720 L667 720 L591 265 Q568 123 492.5 55.5 Q417 -12 292 -12 Q233 -12 187 4.5 Q141 21 112.5 55 Q84 89 74 141 Q64 193 76 265 L152 720 L211 720 Z M438 813 Q486 813 511 832 Q536 851 550 896 L589 888 Q572 828 531 799.5 Q490 771 430 771 Q369 771 340 798 Q311 825 312 886 L355 895 Q356 850 374.5 831.5 Q393 813 438 813 Z " />
<glyph glyph-name="ubreve" unicode="&#x16d;" horiz-adv-x="526" d="M350 0 L363 80 Q348 65 328.5 48.5 Q309 32 285 18.5 Q261 5 233 -3.5 Q205 -12 174 -12 Q126 -12 97.5 3 Q69 18 55.5 44 Q42 70 41.5 104 Q41 138 47 176 L106 524 L163 524 L106 187 Q95 116 112 78.5 Q129 41 193 41 Q220 41 244.5 49.5 Q269 58 291.5 72 Q314 86 333.5 103.5 Q353 121 370 138 L435 524 L491 524 L403 0 L350 0 Z M323 637 Q375 637 398.5 660.5 Q422 684 435 729 L475 721 Q458 656 419.5 626 Q381 596 315 596 Q250 596 222.5 625 Q195 654 197 720 L239 729 Q241 679 258 658 Q275 637 323 637 Z " />
<glyph glyph-name="Uring" unicode="&#x16e;" horiz-adv-x="679" d="M211 720 L137 275 Q117 156 157.5 99 Q198 42 300 42 Q354 42 393.5 57.5 Q433 73 461 102.5 Q489 132 506.5 175.5 Q524 219 533 275 L607 720 L667 720 L591 265 Q568 123 492.5 55.5 Q417 -12 292 -12 Q233 -12 187 4.5 Q141 21 112.5 55 Q84 89 74 141 Q64 193 76 265 L152 720 L211 720 Z M376 817 Q376 797 387 787 Q398 777 418 777 Q444 777 460.5 794.5 Q477 812 477 837 Q477 877 434 877 Q409 877 392.5 860 Q376 843 376 817 Z M336 812 Q336 834 344.5 852.5 Q353 871 367 884.5 Q381 898 400 906 Q419 914 440 914 Q475 914 496 894 Q517 874 517 841 Q517 796 486 769 Q455 742 412 742 Q377 742 356.5 760.5 Q336 779 336 812 Z " />
<glyph glyph-name="uring" unicode="&#x16f;" horiz-adv-x="526" d="M350 0 L363 80 Q348 65 328.5 48.5 Q309 32 285 18.5 Q261 5 233 -3.5 Q205 -12 174 -12 Q126 -12 97.5 3 Q69 18 55.5 44 Q42 70 41.5 104 Q41 138 47 176 L106 524 L163 524 L106 187 Q95 116 112 78.5 Q129 41 193 41 Q220 41 244.5 49.5 Q269 58 291.5 72 Q314 86 333.5 103.5 Q353 121 370 138 L435 524 L491 524 L403 0 L350 0 Z M279 652 Q279 632 290 622 Q301 612 319 612 Q346 612 362.5 629 Q379 646 379 672 Q379 691 368 701.5 Q357 712 337 712 Q311 712 295 695 Q279 678 279 652 Z M238 647 Q238 669 246.5 687.5 Q255 706 269.5 719.5 Q284 733 303 741 Q322 749 343 749 Q377 749 398 729 Q419 709 419 676 Q419 631 388.5 604 Q358 577 314 577 Q279 577 258.5 595.5 Q238 614 238 647 Z " />
<glyph glyph-name="Uhungarumlaut" unicode="&#x170;" horiz-adv-x="679" d="M211 720 L137 275 Q117 156 157.5 99 Q198 42 300 42 Q354 42 393.5 57.5 Q433 73 461 102.5 Q489 132 506.5 175.5 Q524 219 533 275 L607 720 L667 720 L591 265 Q568 123 492.5 55.5 Q417 -12 292 -12 Q233 -12 187 4.5 Q141 21 112.5 55 Q84 89 74 141 Q64 193 76 265 L152 720 L211 720 Z M478 888 L328 756 L303 779 L446 919 L478 888 Z M587 873 L446 756 L423 781 L557 906 L587 873 Z " />
<glyph glyph-name="uhungarumlaut" unicode="&#x171;" horiz-adv-x="526" d="M350 0 L363 80 Q348 65 328.5 48.5 Q309 32 285 18.5 Q261 5 233 -3.5 Q205 -12 174 -12 Q126 -12 97.5 3 Q69 18 55.5 44 Q42 70 41.5 104 Q41 138 47 176 L106 524 L163 524 L106 187 Q95 116 112 78.5 Q129 41 193 41 Q220 41 244.5 49.5 Q269 58 291.5 72 Q314 86 333.5 103.5 Q353 121 370 138 L435 524 L491 524 L403 0 L350 0 Z M374 715 L226 585 L202 608 L343 745 L374 715 Z M482 702 L342 585 L320 608 L453 733 L482 702 Z " />
<glyph glyph-name="Uogonek" unicode="&#x172;" horiz-adv-x="678" d="M211 720 L137 275 Q117 156 161 99 Q205 42 300 42 Q354 42 393.5 57.5 Q433 73 461 102.5 Q489 132 506.5 175.5 Q524 219 533 275 L607 720 L667 720 L591 265 Q574 168 531 109 Q488 50 422 10 Q395 -6 372 -25.5 Q349 -45 331.5 -65.5 Q314 -86 304 -106.5 Q294 -127 294 -144 Q294 -175 330 -175 Q347 -175 361 -169.5 Q375 -164 392 -156 L404 -189 Q387 -200 362 -209.5 Q337 -219 312 -219 Q277 -219 259 -202.5 Q241 -186 241 -158 Q241 -137 249.5 -117 Q258 -97 271.5 -78 Q285 -59 302.5 -41 Q320 -23 339 -8 Q327 -10 314 -11 Q301 -12 287 -12 Q230 -12 185 4.5 Q140 21 112 55 Q84 89 74 141 Q64 193 76 265 L152 720 L211 720 Z " />
<glyph glyph-name="uogonek" unicode="&#x173;" horiz-adv-x="526" d="M403 0 Q352 -39 320.5 -74 Q289 -109 289 -144 Q289 -175 325 -175 Q342 -175 356 -169.5 Q370 -164 387 -156 L399 -189 Q382 -200 357 -209.5 Q332 -219 307 -219 Q272 -219 254 -202.5 Q236 -186 236 -158 Q236 -135 246 -113 Q256 -91 272.5 -70 Q289 -49 309 -30.5 Q329 -12 350 3 L363 80 Q348 65 328.5 48.5 Q309 32 285 18.5 Q261 5 233 -3.5 Q205 -12 174 -12 Q126 -12 97.5 3 Q69 18 55.5 44 Q42 70 41.5 104 Q41 138 47 176 L106 524 L163 524 L106 187 Q95 116 112 78.5 Q129 41 193 41 Q220 41 244.5 49.5 Q269 58 291.5 72 Q314 86 333.5 103.5 Q353 121 370 138 L435 524 L491 524 L403 0 Z " />
<glyph glyph-name="Wcircumflex" unicode="&#x174;" horiz-adv-x="909" d="M91 720 L150 720 L216 76 L495 720 L557 720 L621 75 L899 720 L959 720 L648 0 L576 0 L511 634 L234 0 L162 0 L91 720 Z M565 868 L632 781 L609 757 L537 824 L443 756 L421 781 L522 868 L565 868 Z " />
<glyph glyph-name="wcircumflex" unicode="&#x175;" horiz-adv-x="697" d="M700 524 L486 0 L425 0 L360 440 L152 0 L92 0 L54 524 L111 524 L137 72 L345 518 L401 518 L466 72 L644 524 L700 524 Z M429 753 L508 604 L475 583 L399 704 L284 584 L257 604 L386 753 L429 753 Z " />
<glyph glyph-name="Wgrave" unicode="&#x1e80;" horiz-adv-x="909" d="M91 720 L150 720 L216 76 L495 720 L557 720 L621 75 L899 720 L959 720 L648 0 L576 0 L511 634 L234 0 L162 0 L91 720 Z M634 792 L609 757 L455 840 L485 886 L634 792 Z " />
<glyph glyph-name="wgrave" unicode="&#x1e81;" horiz-adv-x="697" d="M700 524 L486 0 L425 0 L360 440 L152 0 L92 0 L54 524 L111 524 L137 72 L345 518 L401 518 L466 72 L644 524 L700 524 Z M473 616 L442 586 L318 708 L359 746 L473 616 Z " />
<glyph glyph-name="Wacute" unicode="&#x1e82;" horiz-adv-x="909" d="M91 720 L150 720 L216 76 L495 720 L557 720 L621 75 L899 720 L959 720 L648 0 L576 0 L511 634 L234 0 L162 0 L91 720 Z M625 887 L641 840 L458 757 L447 792 L625 887 Z " />
<glyph glyph-name="wacute" unicode="&#x1e83;" horiz-adv-x="697" d="M700 524 L486 0 L425 0 L360 440 L152 0 L92 0 L54 524 L111 524 L137 72 L345 518 L401 518 L466 72 L644 524 L700 524 Z M459 746 L486 707 L321 586 L301 616 L459 746 Z " />
<glyph glyph-name="Wdieresis" unicode="&#x1e84;" horiz-adv-x="909" d="M91 720 L150 720 L216 76 L495 720 L557 720 L621 75 L899 720 L959 720 L648 0 L576 0 L511 634 L234 0 L162 0 L91 720 Z M586 813 Q586 831 601.5 845.5 Q617 860 637 860 Q653 860 662.5 849.5 Q672 839 672 825 Q672 806 657.5 792.5 Q643 779 623 779 Q606 779 596 789 Q586 799 586 813 Z M411 813 Q411 831 425.5 845.5 Q440 860 461 860 Q477 860 486.5 849.5 Q496 839 496 825 Q496 806 481.5 792.5 Q467 779 447 779 Q430 779 420.5 789 Q411 799 411 813 Z " />
<glyph glyph-name="wdieresis" unicode="&#x1e85;" horiz-adv-x="697" d="M700 524 L486 0 L425 0 L360 440 L152 0 L92 0 L54 524 L111 524 L137 72 L345 518 L401 518 L466 72 L644 524 L700 524 Z M445 662 Q445 680 459.5 694.5 Q474 709 495 709 Q512 709 521 698.5 Q530 688 530 674 Q530 654 515.5 641 Q501 628 482 628 Q465 628 455 638 Q445 648 445 662 Z M269 662 Q269 680 284 694.5 Q299 709 319 709 Q336 709 345 698.5 Q354 688 354 674 Q354 655 340 641.5 Q326 628 306 628 Q289 628 279 638 Q269 648 269 662 Z " />
<glyph glyph-name="Ygrave" unicode="&#x1ef2;" horiz-adv-x="553" d="M247 310 L90 720 L157 720 L288 371 L536 720 L603 720 L307 310 L255 0 L195 0 L247 310 Z M451 792 L426 757 L272 840 L302 886 L451 792 Z " />
<glyph glyph-name="ygrave" unicode="&#x1ef3;" horiz-adv-x="453" d="M461 524 L180 -34 Q159 -76 141 -107.5 Q123 -139 104.5 -160 Q86 -181 63 -191.5 Q40 -202 9 -202 Q-17 -202 -35.5 -199.5 Q-54 -197 -74 -191 L-57 -143 Q-49 -146 -30.5 -149 Q-12 -152 9 -152 Q24 -152 37 -147.5 Q50 -143 62 -131.5 Q74 -120 87 -100 Q100 -80 115 -48 L138 1 L41 524 L102 524 L180 77 L400 524 L461 524 Z M340 616 L309 586 L185 708 L226 746 L340 616 Z " />
<glyph glyph-name="Ycircumflex" unicode="&#x176;" horiz-adv-x="553" d="M247 310 L90 720 L157 720 L288 371 L536 720 L603 720 L307 310 L255 0 L195 0 L247 310 Z M381 868 L448 781 L425 757 L353 824 L259 756 L237 781 L338 868 L381 868 Z " />
<glyph glyph-name="ycircumflex" unicode="&#x177;" horiz-adv-x="453" d="M461 524 L180 -34 Q159 -76 141 -107.5 Q123 -139 104.5 -160 Q86 -181 63 -191.5 Q40 -202 9 -202 Q-17 -202 -35.5 -199.5 Q-54 -197 -74 -191 L-57 -143 Q-49 -146 -30.5 -149 Q-12 -152 9 -152 Q24 -152 37 -147.5 Q50 -143 62 -131.5 Q74 -120 87 -100 Q100 -80 115 -48 L138 1 L41 524 L102 524 L180 77 L400 524 L461 524 Z M308 753 L387 604 L354 583 L278 704 L163 584 L136 604 L265 753 L308 753 Z " />
<glyph glyph-name="Ydieresis" unicode="&#x178;" horiz-adv-x="553" d="M247 310 L90 720 L157 720 L288 371 L536 720 L603 720 L307 310 L255 0 L195 0 L247 310 Z M403 813 Q403 831 418.5 845.5 Q434 860 454 860 Q470 860 479.5 849.5 Q489 839 489 825 Q489 806 474.5 792.5 Q460 779 440 779 Q423 779 413 789 Q403 799 403 813 Z M228 813 Q228 831 242.5 845.5 Q257 860 278 860 Q294 860 303.5 849.5 Q313 839 313 825 Q313 806 298.5 792.5 Q284 779 264 779 Q247 779 237.5 789 Q228 799 228 813 Z " />
<glyph glyph-name="Zacute" unicode="&#x179;" horiz-adv-x="568" d="M-3 41 L504 667 L131 667 L140 720 L601 720 L596 693 L77 53 L488 53 L479 0 L-11 0 L-3 41 Z M485 887 L501 840 L318 757 L307 792 L485 887 Z " />
<glyph glyph-name="zacute" unicode="&#x17a;" horiz-adv-x="416" d="M-9 41 L343 474 L70 474 L78 524 L426 524 L420 491 L61 50 L343 50 L335 0 L-17 0 L-9 41 Z M359 746 L386 707 L221 586 L201 616 L359 746 Z " />
<glyph glyph-name="Zdotaccent" unicode="&#x17b;" horiz-adv-x="568" d="M-3 41 L504 667 L131 667 L140 720 L601 720 L596 693 L77 53 L488 53 L479 0 L-11 0 L-3 41 Z M343 816 Q343 836 358 848.5 Q373 861 393 861 Q409 861 418 851.5 Q427 842 427 828 Q427 808 413 795.5 Q399 783 379 783 Q363 783 353 792.5 Q343 802 343 816 Z " />
<glyph glyph-name="zdotaccent" unicode="&#x17c;" horiz-adv-x="416" d="M-9 41 L343 474 L70 474 L78 524 L426 524 L420 491 L61 50 L343 50 L335 0 L-17 0 L-9 41 Z M237 663 Q237 683 252 695.5 Q267 708 287 708 Q302 708 312 698.5 Q322 689 322 675 Q322 655 307.5 642.5 Q293 630 274 630 Q258 630 247.5 639.5 Q237 649 237 663 Z " />
<glyph glyph-name="Zcaron" unicode="&#x17d;" horiz-adv-x="568" d="M-3 41 L504 667 L131 667 L140 720 L601 720 L596 693 L77 53 L488 53 L479 0 L-11 0 L-3 41 Z M353 767 L281 854 L310 879 L383 811 L477 878 L497 854 L397 767 L353 767 Z " />
<glyph glyph-name="zcaron" unicode="&#x17e;" horiz-adv-x="416" d="M-9 41 L343 474 L70 474 L78 524 L426 524 L420 491 L61 50 L343 50 L335 0 L-17 0 L-9 41 Z M236 591 L157 740 L191 761 L266 640 L381 761 L407 740 L279 591 L236 591 Z " />
<glyph glyph-name="longs" unicode="&#x17f;" horiz-adv-x="248" d="M118 475 L60 475 L66 512 L126 522 L140 603 Q144 629 154 652.5 Q164 676 179.5 693.5 Q195 711 217.5 721.5 Q240 732 270 732 Q283 732 298.5 730.5 Q314 729 328 724 L317 679 Q308 682 297 684 Q286 686 272 686 Q248 686 226 669 Q204 652 196 606 L95 0 L39 0 L118 475 Z " />
<glyph glyph-name="dotlessj" unicode="&#x237;" horiz-adv-x="214" d="M72 -79 Q67 -108 59 -131 Q51 -154 37 -170 Q23 -186 2 -194.5 Q-19 -203 -50 -203 Q-67 -203 -83 -201 Q-99 -199 -113 -193 L-99 -148 Q-90 -151 -78 -153 Q-66 -155 -53 -155 Q-27 -155 -10 -140 Q7 -125 15 -78 L117 524 L173 524 L72 -79 Z " />
<glyph glyph-name="ff" unicode="&#xfb00;" horiz-adv-x="498" d="M369 475 L174 475 L95 0 L39 0 L118 475 L60 475 L66 512 L126 522 L138 591 Q142 617 152 640.5 Q162 664 178.5 681.5 Q195 699 217.5 709.5 Q240 720 270 720 Q296 720 326 712 L315 667 Q306 670 295 672 Q284 674 270 674 Q246 674 224 657 Q202 640 194 594 L183 524 L377 524 L391 604 Q395 630 405 653.5 Q415 677 430.5 694.5 Q446 712 468.5 722.5 Q491 733 521 733 Q535 733 550 731.5 Q565 730 579 725 L568 680 Q549 687 523 687 Q498 687 476.5 670.5 Q455 654 447 607 L434 524 L531 524 L523 475 L425 475 L346 0 L289 0 L369 475 Z " />
<glyph glyph-name="fi" unicode="&#xfb01;" horiz-adv-x="475" d="M346 0 L289 0 L369 475 L174 475 L95 0 L39 0 L118 475 L60 475 L66 512 L126 522 L140 603 Q144 629 153.5 652.5 Q163 676 179 693.5 Q195 711 217 721.5 Q239 732 269 732 Q282 732 296 730.5 Q310 729 324 725 L316 679 Q299 685 272 685 Q248 685 226 668.5 Q204 652 196 606 L183 524 L434 524 L346 0 Z M388 663 Q388 683 402.5 696.5 Q417 710 437 710 Q453 710 462.5 700 Q472 690 472 675 Q472 655 457.5 641.5 Q443 628 423 628 Q407 628 397.5 637.5 Q388 647 388 663 Z " />
<glyph glyph-name="fl" unicode="&#xfb02;" horiz-adv-x="469" d="M289 0 L369 475 L174 475 L95 0 L39 0 L118 475 L60 475 L66 512 L126 522 L140 603 Q144 629 153.5 652.5 Q163 676 179 693.5 Q195 711 217 721.5 Q239 732 269 732 Q282 732 296 730.5 Q310 729 324 725 L316 679 Q299 685 272 685 Q248 685 226 668.5 Q204 652 196 606 L183 524 L377 524 L410 720 L466 720 L346 0 L289 0 Z " />
<glyph glyph-name="ft" unicode="&#xf603;" horiz-adv-x="530" d="M424 475 L360 88 Q355 59 363.5 47.5 Q372 36 397 36 Q414 36 430.5 40.5 Q447 45 461 51 L467 9 Q450 1 425.5 -5.5 Q401 -12 381 -12 Q335 -12 314.5 8.5 Q294 29 303 76 L369 475 L174 475 L95 0 L39 0 L118 475 L60 475 L66 512 L126 522 L140 603 Q144 629 153.5 652.5 Q163 676 179 693.5 Q195 711 217 721.5 Q239 732 269 732 Q282 732 296 730.5 Q310 729 324 725 L316 679 Q299 685 272 685 Q248 685 226 668.5 Q204 652 196 606 L183 524 L377 524 L410 663 L456 663 L433 524 L531 524 L523 475 L424 475 Z " />
<glyph glyph-name="ffi" unicode="&#xfb03;" horiz-adv-x="726" d="M369 475 L174 475 L95 0 L39 0 L118 475 L60 475 L66 512 L126 522 L138 592 Q142 618 152 641.5 Q162 665 177.5 682.5 Q193 700 215.5 710.5 Q238 721 268 721 Q282 721 297 719 Q312 717 326 712 L315 667 Q306 670 295 672 Q284 674 270 674 Q246 674 224.5 658 Q203 642 195 595 L183 524 L377 524 L391 603 Q395 629 404.5 652.5 Q414 676 430 693.5 Q446 711 468 721.5 Q490 732 520 732 Q532 732 546.5 730.5 Q561 729 574 725 L567 679 Q550 685 523 685 Q498 685 476.5 669 Q455 653 447 606 L434 524 L684 524 L597 0 L540 0 L620 475 L425 475 L346 0 L289 0 L369 475 Z M639 663 Q639 683 653.5 696.5 Q668 710 688 710 Q704 710 713.5 700 Q723 690 723 675 Q723 655 708.5 641.5 Q694 628 674 628 Q658 628 648.5 637.5 Q639 647 639 663 Z " />
<glyph glyph-name="ffl" unicode="&#xfb04;" horiz-adv-x="719" d="M368 475 L174 475 L95 0 L39 0 L118 475 L60 475 L66 512 L126 522 L138 591 Q142 617 152 640.5 Q162 664 177.5 681.5 Q193 699 215.5 709.5 Q238 720 268 720 Q296 720 326 712 L315 667 Q306 670 295 672 Q284 674 270 674 Q246 674 224 657 Q202 640 194 594 L183 524 L376 524 L390 603 Q394 629 403.5 652.5 Q413 676 429 693.5 Q445 711 467 721.5 Q489 732 519 732 Q531 732 545.5 730.5 Q560 729 573 725 L566 679 Q549 685 522 685 Q497 685 475.5 669 Q454 653 446 606 L433 524 L627 524 L660 720 L716 720 L596 0 L539 0 L619 475 L424 475 L345 0 L288 0 L368 475 Z " />
<glyph glyph-name="perthousand" unicode="&#x2030;" horiz-adv-x="1069" d="M438 125 Q438 162 453 194 Q468 226 492.5 250 Q517 274 550 288 Q583 302 619 302 Q661 302 690 282.5 Q719 263 733 227 Q758 259 795.5 280.5 Q833 302 875 302 Q934 302 968.5 265 Q1003 228 1003 173 Q1003 137 988.5 105 Q974 73 950 49.5 Q926 26 894 12 Q862 -2 826 -2 Q784 -2 751.5 18 Q719 38 707 70 Q679 35 642.5 16.5 Q606 -2 565 -2 Q507 -2 472.5 33 Q438 68 438 125 Z M85 540 Q85 577 99.5 609.5 Q114 642 139 666 Q164 690 196.5 703.5 Q229 717 265 717 Q323 717 359 682 Q395 647 395 588 Q395 552 380 520 Q365 488 340 464.5 Q315 441 282 427 Q249 413 214 413 Q155 413 120 447.5 Q85 482 85 540 Z M668 720 L722 720 L169 0 L115 0 L668 720 Z M134 547 Q134 505 158 481 Q182 457 221 457 Q246 457 268.5 466.5 Q291 476 308.5 493 Q326 510 336 532.5 Q346 555 346 582 Q346 623 321.5 648.5 Q297 674 258 674 Q233 674 210.5 664 Q188 654 171 636.5 Q154 619 144 596 Q134 573 134 547 Z M742 130 Q742 90 765.5 65.5 Q789 41 831 41 Q856 41 878.5 51 Q901 61 918 78 Q935 95 945 117.5 Q955 140 955 166 Q955 204 931.5 231.5 Q908 259 867 259 Q842 259 819.5 248.5 Q797 238 779.5 220.5 Q762 203 752 179.5 Q742 156 742 130 Z M487 133 Q487 93 511 67 Q535 41 575 41 Q600 41 622 51 Q644 61 661 78 Q678 95 688 117.5 Q698 140 698 166 Q698 204 674.5 231.5 Q651 259 611 259 Q586 259 563.5 248.5 Q541 238 524 221 Q507 204 497 181 Q487 158 487 133 Z " />
<glyph glyph-name="percent" unicode="&#x25;" horiz-adv-x="814" d="M475 132 Q475 93 498.5 67 Q522 41 562 41 Q587 41 609 51 Q631 61 648 78 Q665 95 675 117.5 Q685 140 685 166 Q685 204 661.5 231.5 Q638 259 598 259 Q573 259 550.5 248.5 Q528 238 511.5 221 Q495 204 485 180.5 Q475 157 475 132 Z M425 125 Q425 162 440 194 Q455 226 479.5 250 Q504 274 537 288 Q570 302 606 302 Q635 302 658.5 292 Q682 282 699 264.5 Q716 247 725 223.5 Q734 200 734 172 Q734 136 719 104.5 Q704 73 679.5 49.5 Q655 26 622.5 12 Q590 -2 555 -2 Q496 -2 460.5 33.5 Q425 69 425 125 Z M121 547 Q121 505 145 481 Q169 457 208 457 Q233 457 255.5 466.5 Q278 476 295.5 493 Q313 510 323 532.5 Q333 555 333 582 Q333 623 308.5 648.5 Q284 674 245 674 Q220 674 197.5 664 Q175 654 158 636.5 Q141 619 131 596 Q121 573 121 547 Z M72 540 Q72 577 86.5 609.5 Q101 642 126 666 Q151 690 183.5 703.5 Q216 717 252 717 Q310 717 346 682 Q382 647 382 588 Q382 552 367 520 Q352 488 327 464.5 Q302 441 269 427 Q236 413 201 413 Q142 413 107 447.5 Q72 482 72 540 Z M655 720 L709 720 L156 0 L102 0 L655 720 Z " />
<glyph glyph-name="fraction" unicode="&#x2044;" horiz-adv-x="126" d="M379 720 L430 720 L-121 -1 L-173 -1 L379 720 Z " />
<glyph glyph-name="zerosuperior" unicode="&#x2070;" horiz-adv-x="348" d="M143 583 Q141 567 139.5 553 Q138 539 138 526 Q138 483 152.5 460.5 Q167 438 202 438 Q241 438 269.5 476 Q298 514 309 583 Q311 597 312.5 610 Q314 623 314 634 Q314 679 298.5 703 Q283 727 250 727 Q212 727 183 689.5 Q154 652 143 583 Z M90 583 Q105 678 149.5 725.5 Q194 773 258 773 Q367 773 367 642 Q367 628 365.5 614 Q364 600 362 584 Q348 487 303 440 Q258 393 194 393 Q85 393 85 523 Q85 537 86 551.5 Q87 566 90 583 Z " />
<glyph glyph-name="onesuperior" unicode="&#xb9;" horiz-adv-x="237" d="M140 400 L190 698 Q164 687 139.5 680 Q115 673 87 671 L87 708 Q119 714 155 730 Q191 746 217 768 L251 768 L189 400 L140 400 Z " />
<glyph glyph-name="twosuperior" unicode="&#xb2;" horiz-adv-x="295" d="M44 436 L210 584 Q226 599 238 611 Q250 623 258 634 Q266 645 269.5 657 Q273 669 273 684 Q273 729 218 729 Q192 729 161.5 716.5 Q131 704 102 683 L84 717 Q114 740 152.5 756.5 Q191 773 230 773 Q276 773 301 752 Q326 731 326 694 Q326 662 308.5 632.5 Q291 603 256 571 L111 443 L290 443 L282 400 L38 400 L44 436 Z " />
<glyph glyph-name="threesuperior" unicode="&#xb3;" horiz-adv-x="310" d="M68 475 Q90 455 111.5 445 Q133 435 168 435 Q212 435 237.5 453.5 Q263 472 263 511 Q263 537 243.5 552 Q224 567 178 567 Q173 567 162 566.5 Q151 566 150 566 L156 608 Q206 609 238 629 Q270 649 270 689 Q270 715 252.5 723.5 Q235 732 209 732 Q184 732 161 724.5 Q138 717 115 704 L102 738 Q127 752 157 762.5 Q187 773 225 773 Q269 773 294.5 755 Q320 737 320 699 Q320 661 295.5 632.5 Q271 604 229 593 Q275 589 293.5 567 Q312 545 312 516 Q312 486 300 463.5 Q288 441 268 425 Q248 409 221 401 Q194 393 163 393 Q123 393 91 405 Q59 417 38 443 L68 475 Z " />
<glyph glyph-name="foursuperior" unicode="&#x2074;" horiz-adv-x="323" d="M120 521 L258 521 L292 722 L120 521 Z M251 479 L59 479 L66 518 L280 768 L346 768 L305 521 L350 521 L343 479 L297 479 L284 400 L238 400 L251 479 Z " />
<glyph glyph-name="fivesuperior" unicode="&#x2075;" horiz-adv-x="320" d="M148 768 L343 768 L333 726 L177 726 L148 608 Q162 618 185 626.5 Q208 635 235 635 Q283 635 305.5 609.5 Q328 584 328 542 Q328 507 315.5 479.5 Q303 452 281 433 Q259 414 229.5 403.5 Q200 393 167 393 Q138 393 107 401.5 Q76 410 51 428 L75 463 Q98 450 121.5 442.5 Q145 435 171 435 Q216 435 248.5 459.5 Q281 484 281 534 Q281 560 265.5 577.5 Q250 595 218 595 Q192 595 172.5 586 Q153 577 139 566 L130 534 L90 534 L148 768 Z " />
<glyph glyph-name="sixsuperior" unicode="&#x2076;" horiz-adv-x="325" d="M85 519 Q85 574 98 621 Q111 668 135.5 701.5 Q160 735 195.5 754 Q231 773 277 773 Q301 773 325.5 766 Q350 759 368 745 L342 710 Q325 722 309 727 Q293 732 274 732 Q243 732 220.5 720.5 Q198 709 182 689 Q166 669 155.5 643 Q145 617 139 587 Q160 604 189.5 618.5 Q219 633 251 633 Q301 633 322 606 Q343 579 343 542 Q343 507 331.5 479.5 Q320 452 299.5 433 Q279 414 251.5 403.5 Q224 393 192 393 Q135 393 110 428 Q85 463 85 519 Z M239 593 Q224 593 209 588.5 Q194 584 180 577 Q166 570 154.5 562 Q143 554 135 547 Q129 487 144.5 459.5 Q160 432 200 432 Q238 432 267 456.5 Q296 481 296 534 Q296 566 280.5 579.5 Q265 593 239 593 Z " />
<glyph glyph-name="sevensuperior" unicode="&#x2077;" horiz-adv-x="278" d="M121 400 L73 400 L74 405 L277 725 L82 725 L90 768 L338 768 L332 737 L121 400 Z " />
<glyph glyph-name="eightsuperior" unicode="&#x2078;" horiz-adv-x="321" d="M118 484 Q118 458 137 443.5 Q156 429 191 429 Q233 429 260 450 Q287 471 287 508 Q287 523 280.5 534 Q274 545 263 552.5 Q252 560 238 565 Q224 570 209 574 Q192 568 176 560.5 Q160 553 147 542.5 Q134 532 126 517.5 Q118 503 118 484 Z M165 677 Q165 653 184 640 Q203 627 226 618 Q238 623 252 630 Q266 637 277.5 646 Q289 655 297 667 Q305 679 305 694 Q305 716 288.5 728 Q272 740 244 740 Q209 740 187 723 Q165 706 165 677 Z M70 477 Q70 523 99.5 550 Q129 577 180 596 Q118 620 118 670 Q118 693 128 712 Q138 731 156 744.5 Q174 758 198 765.5 Q222 773 249 773 Q298 773 324.5 754 Q351 735 351 701 Q351 666 326 640.5 Q301 615 261 599 Q300 583 318 563.5 Q336 544 336 514 Q336 487 325 464.5 Q314 442 293.5 426.5 Q273 411 245.5 402 Q218 393 185 393 Q129 393 99.5 415.5 Q70 438 70 477 Z " />
<glyph glyph-name="ninesuperior" unicode="&#x2079;" horiz-adv-x="325" d="M344 649 Q344 592 331.5 545 Q319 498 294.5 464.5 Q270 431 235 412 Q200 393 155 393 Q129 393 103 401 Q77 409 61 420 L84 456 Q98 448 117 441 Q136 434 163 434 Q214 434 248.5 473.5 Q283 513 293 578 Q269 551 238.5 539 Q208 527 176 527 Q152 527 135 535 Q118 543 106.5 556 Q95 569 90 586.5 Q85 604 85 623 Q85 657 96.5 684.5 Q108 712 128.5 731.5 Q149 751 177 762 Q205 773 237 773 Q294 773 319 739.5 Q344 706 344 649 Z M191 565 Q223 565 250 582 Q277 599 295 622 Q308 734 230 734 Q210 734 192 728.5 Q174 723 160.5 710.5 Q147 698 139 678 Q131 658 131 629 Q131 598 146.5 581.5 Q162 565 191 565 Z " />
<glyph glyph-name="zeroinferior" unicode="&#x2080;" horiz-adv-x="348" d="M60 88 Q58 72 56.5 58 Q55 44 55 31 Q55 -12 69.5 -34.5 Q84 -57 119 -57 Q158 -57 186.5 -19 Q215 19 226 88 Q228 102 229.5 115 Q231 128 231 139 Q231 184 215.5 208 Q200 232 167 232 Q129 232 100 194.5 Q71 157 60 88 Z M7 88 Q22 183 66.5 230.5 Q111 278 175 278 Q284 278 284 147 Q284 133 282.5 119 Q281 105 279 89 Q265 -8 220 -55 Q175 -102 111 -102 Q2 -102 2 28 Q2 42 3 56.5 Q4 71 7 88 Z " />
<glyph glyph-name="oneinferior" unicode="&#x2081;" horiz-adv-x="247" d="M61 -95 L111 203 Q85 192 60.5 185 Q36 178 8 176 L8 213 Q40 219 76 235 Q112 251 138 273 L172 273 L110 -95 L61 -95 Z " />
<glyph glyph-name="twoinferior" unicode="&#x2082;" horiz-adv-x="295" d="M-38 -59 L128 89 Q144 104 156 116 Q168 128 176 139 Q184 150 187.5 162 Q191 174 191 189 Q191 234 136 234 Q110 234 79.5 221.5 Q49 209 20 188 L2 222 Q32 245 70.5 261.5 Q109 278 148 278 Q194 278 219 257 Q244 236 244 199 Q244 167 226.5 137.5 Q209 108 174 76 L29 -52 L208 -52 L200 -95 L-44 -95 L-38 -59 Z " />
<glyph glyph-name="threeinferior" unicode="&#x2083;" horiz-adv-x="310" d="M-14 -20 Q8 -40 29.5 -50 Q51 -60 86 -60 Q130 -60 155.5 -41.5 Q181 -23 181 16 Q181 42 161.5 57 Q142 72 96 72 Q91 72 80 71.5 Q69 71 68 71 L74 113 Q124 114 156 134 Q188 154 188 194 Q188 220 170.5 228.5 Q153 237 127 237 Q102 237 79 229.5 Q56 222 33 209 L20 243 Q45 257 75 267.5 Q105 278 143 278 Q187 278 212.5 260 Q238 242 238 204 Q238 166 213.5 137.5 Q189 109 147 98 Q193 94 211.5 72 Q230 50 230 21 Q230 -9 218 -31.5 Q206 -54 186 -70 Q166 -86 139 -94 Q112 -102 81 -102 Q41 -102 9 -90 Q-23 -78 -44 -52 L-14 -20 Z " />
<glyph glyph-name="fourinferior" unicode="&#x2084;" horiz-adv-x="324" d="M34 26 L172 26 L206 227 L34 26 Z M165 -16 L-27 -16 L-20 23 L194 273 L260 273 L219 26 L264 26 L257 -16 L211 -16 L198 -95 L152 -95 L165 -16 Z " />
<glyph glyph-name="fiveinferior" unicode="&#x2085;" horiz-adv-x="320" d="M67 273 L262 273 L252 231 L96 231 L67 113 Q81 123 104 131.5 Q127 140 154 140 Q202 140 224.5 114.5 Q247 89 247 47 Q247 12 234.5 -15.5 Q222 -43 200 -62 Q178 -81 148.5 -91.5 Q119 -102 86 -102 Q57 -102 26 -93.5 Q-5 -85 -30 -67 L-6 -32 Q17 -45 40.5 -52.5 Q64 -60 90 -60 Q135 -60 167.5 -35.5 Q200 -11 200 39 Q200 65 184.5 82.5 Q169 100 137 100 Q111 100 91.5 91 Q72 82 58 71 L49 39 L9 39 L67 273 Z " />
<glyph glyph-name="sixinferior" unicode="&#x2086;" horiz-adv-x="326" d="M-1 24 Q-1 79 12 126 Q25 173 49.5 206.5 Q74 240 109.5 259 Q145 278 191 278 Q215 278 239.5 271 Q264 264 282 250 L256 215 Q239 227 223 232 Q207 237 188 237 Q157 237 134.5 225.5 Q112 214 96 194 Q80 174 69.5 148 Q59 122 53 92 Q74 109 103.5 123.5 Q133 138 165 138 Q215 138 236 111 Q257 84 257 47 Q257 12 245.5 -15.5 Q234 -43 213.5 -62 Q193 -81 165.5 -91.5 Q138 -102 106 -102 Q49 -102 24 -67 Q-1 -32 -1 24 Z M153 98 Q138 98 123 93.5 Q108 89 94 82 Q80 75 68.5 67 Q57 59 49 52 Q43 -8 58.5 -35.5 Q74 -63 114 -63 Q152 -63 181 -38.5 Q210 -14 210 39 Q210 71 194.5 84.5 Q179 98 153 98 Z " />
<glyph glyph-name="seveninferior" unicode="&#x2087;" horiz-adv-x="278" d="M42 -95 L-6 -95 L-5 -90 L198 230 L3 230 L11 273 L259 273 L253 242 L42 -95 Z " />
<glyph glyph-name="eightinferior" unicode="&#x2088;" horiz-adv-x="322" d="M32 -11 Q32 -37 51 -51.5 Q70 -66 105 -66 Q147 -66 174 -45 Q201 -24 201 13 Q201 28 194.5 39 Q188 50 177 57.5 Q166 65 152 70 Q138 75 123 79 Q106 73 90 65.5 Q74 58 61 47.5 Q48 37 40 22.5 Q32 8 32 -11 Z M79 182 Q79 158 98 145 Q117 132 140 123 Q152 128 166 135 Q180 142 191.5 151 Q203 160 211 172 Q219 184 219 199 Q219 221 202.5 233 Q186 245 158 245 Q123 245 101 228 Q79 211 79 182 Z M-16 -18 Q-16 28 13.5 55 Q43 82 94 101 Q32 125 32 175 Q32 198 42 217 Q52 236 70 249.5 Q88 263 112 270.5 Q136 278 163 278 Q212 278 238.5 259 Q265 240 265 206 Q265 171 240 145.5 Q215 120 175 104 Q214 88 232 68.5 Q250 49 250 19 Q250 -8 239 -30.5 Q228 -53 207.5 -68.5 Q187 -84 159.5 -93 Q132 -102 99 -102 Q43 -102 13.5 -79.5 Q-16 -57 -16 -18 Z " />
<glyph glyph-name="nineinferior" unicode="&#x2089;" horiz-adv-x="325" d="M261 154 Q261 97 248.5 50 Q236 3 211.5 -30.5 Q187 -64 152 -83 Q117 -102 72 -102 Q46 -102 20 -94 Q-6 -86 -22 -75 L1 -39 Q15 -47 34 -54 Q53 -61 80 -61 Q131 -61 165.5 -21.5 Q200 18 210 83 Q186 56 155.5 44 Q125 32 93 32 Q69 32 52 40 Q35 48 23.5 61 Q12 74 7 91.5 Q2 109 2 128 Q2 162 13.5 189.5 Q25 217 45.5 236.5 Q66 256 94 267 Q122 278 154 278 Q211 278 236 244.5 Q261 211 261 154 Z M108 70 Q140 70 167 87 Q194 104 212 127 Q225 239 147 239 Q127 239 109 233.5 Q91 228 77.5 215.5 Q64 203 56 183 Q48 163 48 134 Q48 103 63.5 86.5 Q79 70 108 70 Z " />
<glyph glyph-name="onehalf" unicode="&#xbd;" horiz-adv-x="811" d="M639 720 L690 720 L139 -1 L87 -1 L639 720 Z M162 351 L212 649 Q186 638 161.5 631 Q137 624 109 622 L109 659 Q141 665 177 681 Q213 697 239 719 L273 719 L211 351 L162 351 Z M441 37 L607 185 Q623 200 635 212 Q647 224 655 235 Q663 246 666.5 258 Q670 270 670 285 Q670 330 615 330 Q589 330 558.5 317.5 Q528 305 499 284 L481 318 Q511 341 549.5 357.5 Q588 374 627 374 Q673 374 698 353 Q723 332 723 295 Q723 263 705.5 233.5 Q688 204 653 172 L508 44 L687 44 L679 1 L435 1 L441 37 Z " />
<glyph glyph-name="onequarter" unicode="&#xbc;" horiz-adv-x="811" d="M659 720 L710 720 L159 -1 L107 -1 L659 720 Z M145 351 L195 649 Q169 638 144.5 631 Q120 624 92 622 L92 659 Q124 665 160 681 Q196 697 222 719 L256 719 L194 351 L145 351 Z M484 122 L622 122 L656 323 L484 122 Z M615 80 L423 80 L430 119 L644 369 L710 369 L669 122 L714 122 L707 80 L661 80 L648 1 L602 1 L615 80 Z " />
<glyph glyph-name="threequarters" unicode="&#xbe;" horiz-adv-x="811" d="M709 720 L760 720 L209 -1 L157 -1 L709 720 Z M508 122 L646 122 L680 323 L508 122 Z M639 80 L447 80 L454 119 L668 369 L734 369 L693 122 L738 122 L731 80 L685 80 L672 1 L626 1 L639 80 Z M98 426 Q120 406 141.5 396 Q163 386 198 386 Q242 386 267.5 404.5 Q293 423 293 462 Q293 488 273.5 503 Q254 518 208 518 Q203 518 192 517.5 Q181 517 180 517 L186 559 Q236 560 268 580 Q300 600 300 640 Q300 666 282.5 674.5 Q265 683 239 683 Q214 683 191 675.5 Q168 668 145 655 L132 689 Q157 703 187 713.5 Q217 724 255 724 Q299 724 324.5 706 Q350 688 350 650 Q350 612 325.5 583.5 Q301 555 259 544 Q305 540 323.5 518 Q342 496 342 467 Q342 437 330 414.5 Q318 392 298 376 Q278 360 251 352 Q224 344 193 344 Q153 344 121 356 Q89 368 68 394 L98 426 Z " />
<glyph glyph-name="onethird" unicode="&#x2153;" horiz-adv-x="811" d="M644 720 L695 720 L144 -1 L92 -1 L644 720 Z M141 351 L191 649 Q165 638 140.5 631 Q116 624 88 622 L88 659 Q120 665 156 681 Q192 697 218 719 L252 719 L190 351 L141 351 Z M493 76 Q515 56 536.5 46 Q558 36 593 36 Q637 36 662.5 54.5 Q688 73 688 112 Q688 138 668.5 153 Q649 168 603 168 Q598 168 587 167.5 Q576 167 575 167 L581 209 Q631 210 663 230 Q695 250 695 290 Q695 316 677.5 324.5 Q660 333 634 333 Q609 333 586 325.5 Q563 318 540 305 L527 339 Q552 353 582 363.5 Q612 374 650 374 Q694 374 719.5 356 Q745 338 745 300 Q745 262 720.5 233.5 Q696 205 654 194 Q700 190 718.5 168 Q737 146 737 117 Q737 87 725 64.5 Q713 42 693 26 Q673 10 646 2 Q619 -6 588 -6 Q548 -6 516 6 Q484 18 463 44 L493 76 Z " />
<glyph glyph-name="twothirds" unicode="&#x2154;" horiz-adv-x="811" d="M722 720 L773 720 L222 -1 L170 -1 L722 720 Z M66 387 L232 535 Q248 550 260 562 Q272 574 280 585 Q288 596 291.5 608 Q295 620 295 635 Q295 680 240 680 Q214 680 183.5 667.5 Q153 655 124 634 L106 668 Q136 691 174.5 707.5 Q213 724 252 724 Q298 724 323 703 Q348 682 348 645 Q348 613 330.5 583.5 Q313 554 278 522 L133 394 L312 394 L304 351 L60 351 L66 387 Z M549 76 Q571 56 592.5 46 Q614 36 649 36 Q693 36 718.5 54.5 Q744 73 744 112 Q744 138 724.5 153 Q705 168 659 168 Q654 168 643 167.5 Q632 167 631 167 L637 209 Q687 210 719 230 Q751 250 751 290 Q751 316 733.5 324.5 Q716 333 690 333 Q665 333 642 325.5 Q619 318 596 305 L583 339 Q608 353 638 363.5 Q668 374 706 374 Q750 374 775.5 356 Q801 338 801 300 Q801 262 776.5 233.5 Q752 205 710 194 Q756 190 774.5 168 Q793 146 793 117 Q793 87 781 64.5 Q769 42 749 26 Q729 10 702 2 Q675 -6 644 -6 Q604 -6 572 6 Q540 18 519 44 L549 76 Z " />
<glyph glyph-name="onefifth" unicode="&#xf500;" horiz-adv-x="811" d="M654 720 L705 720 L154 -1 L102 -1 L654 720 Z M168 351 L218 649 Q192 638 167.5 631 Q143 624 115 622 L115 659 Q147 665 183 681 Q219 697 245 719 L279 719 L217 351 L168 351 Z M552 369 L747 369 L737 327 L581 327 L552 209 Q566 219 589 227.5 Q612 236 639 236 Q687 236 709.5 210.5 Q732 185 732 143 Q732 108 719.5 80.5 Q707 53 685 34 Q663 15 633.5 4.5 Q604 -6 571 -6 Q542 -6 511 2.5 Q480 11 455 29 L479 64 Q502 51 525.5 43.5 Q549 36 575 36 Q620 36 652.5 60.5 Q685 85 685 135 Q685 161 669.5 178.5 Q654 196 622 196 Q596 196 576.5 187 Q557 178 543 167 L534 135 L494 135 L552 369 Z " />
<glyph glyph-name="twofifths" unicode="&#xf501;" horiz-adv-x="811" d="M686 720 L737 720 L186 -1 L134 -1 L686 720 Z M42 387 L208 535 Q224 550 236 562 Q248 574 256 585 Q264 596 267.5 608 Q271 620 271 635 Q271 680 216 680 Q190 680 159.5 667.5 Q129 655 100 634 L82 668 Q112 691 150.5 707.5 Q189 724 228 724 Q274 724 299 703 Q324 682 324 645 Q324 613 306.5 583.5 Q289 554 254 522 L109 394 L288 394 L280 351 L36 351 L42 387 Z M565 369 L760 369 L750 327 L594 327 L565 209 Q579 219 602 227.5 Q625 236 652 236 Q700 236 722.5 210.5 Q745 185 745 143 Q745 108 732.5 80.5 Q720 53 698 34 Q676 15 646.5 4.5 Q617 -6 584 -6 Q555 -6 524 2.5 Q493 11 468 29 L492 64 Q515 51 538.5 43.5 Q562 36 588 36 Q633 36 665.5 60.5 Q698 85 698 135 Q698 161 682.5 178.5 Q667 196 635 196 Q609 196 589.5 187 Q570 178 556 167 L547 135 L507 135 L565 369 Z " />
<glyph glyph-name="threefifths" unicode="&#xf502;" horiz-adv-x="811" d="M693 720 L744 720 L193 -1 L141 -1 L693 720 Z M572 369 L767 369 L757 327 L601 327 L572 209 Q586 219 609 227.5 Q632 236 659 236 Q707 236 729.5 210.5 Q752 185 752 143 Q752 108 739.5 80.5 Q727 53 705 34 Q683 15 653.5 4.5 Q624 -6 591 -6 Q562 -6 531 2.5 Q500 11 475 29 L499 64 Q522 51 545.5 43.5 Q569 36 595 36 Q640 36 672.5 60.5 Q705 85 705 135 Q705 161 689.5 178.5 Q674 196 642 196 Q616 196 596.5 187 Q577 178 563 167 L554 135 L514 135 L572 369 Z M85 426 Q107 406 128.5 396 Q150 386 185 386 Q229 386 254.5 404.5 Q280 423 280 462 Q280 488 260.5 503 Q241 518 195 518 Q190 518 179 517.5 Q168 517 167 517 L173 559 Q223 560 255 580 Q287 600 287 640 Q287 666 269.5 674.5 Q252 683 226 683 Q201 683 178 675.5 Q155 668 132 655 L119 689 Q144 703 174 713.5 Q204 724 242 724 Q286 724 311.5 706 Q337 688 337 650 Q337 612 312.5 583.5 Q288 555 246 544 Q292 540 310.5 518 Q329 496 329 467 Q329 437 317 414.5 Q305 392 285 376 Q265 360 238 352 Q211 344 180 344 Q140 344 108 356 Q76 368 55 394 L85 426 Z " />
<glyph glyph-name="fourfifths" unicode="&#xf503;" horiz-adv-x="811" d="M706 720 L757 720 L206 -1 L154 -1 L706 720 Z M592 369 L787 369 L777 327 L621 327 L592 209 Q606 219 629 227.5 Q652 236 679 236 Q727 236 749.5 210.5 Q772 185 772 143 Q772 108 759.5 80.5 Q747 53 725 34 Q703 15 673.5 4.5 Q644 -6 611 -6 Q582 -6 551 2.5 Q520 11 495 29 L519 64 Q542 51 565.5 43.5 Q589 36 615 36 Q660 36 692.5 60.5 Q725 85 725 135 Q725 161 709.5 178.5 Q694 196 662 196 Q636 196 616.5 187 Q597 178 583 167 L574 135 L534 135 L592 369 Z M103 472 L241 472 L275 673 L103 472 Z M234 430 L42 430 L49 469 L263 719 L329 719 L288 472 L333 472 L326 430 L280 430 L267 351 L221 351 L234 430 Z " />
<glyph glyph-name="onesixth" unicode="&#xf504;" horiz-adv-x="811" d="M643 720 L694 720 L143 -1 L91 -1 L643 720 Z M146 351 L196 649 Q170 638 145.5 631 Q121 624 93 622 L93 659 Q125 665 161 681 Q197 697 223 719 L257 719 L195 351 L146 351 Z M455 120 Q455 175 468 222 Q481 269 505.5 302.5 Q530 336 565.5 355 Q601 374 647 374 Q671 374 695.5 367 Q720 360 738 346 L712 311 Q695 323 679 328 Q663 333 644 333 Q613 333 590.5 321.5 Q568 310 552 290 Q536 270 525.5 244 Q515 218 509 188 Q530 205 559.5 219.5 Q589 234 621 234 Q671 234 692 207 Q713 180 713 143 Q713 108 701.5 80.5 Q690 53 669.5 34 Q649 15 621.5 4.5 Q594 -6 562 -6 Q505 -6 480 29 Q455 64 455 120 Z M609 194 Q594 194 579 189.5 Q564 185 550 178 Q536 171 524.5 163 Q513 155 505 148 Q499 88 514.5 60.5 Q530 33 570 33 Q608 33 637 57.5 Q666 82 666 135 Q666 167 650.5 180.5 Q635 194 609 194 Z " />
<glyph glyph-name="fivesixths" unicode="&#xf505;" horiz-adv-x="811" d="M706 720 L757 720 L206 -1 L154 -1 L706 720 Z M498 120 Q498 175 511 222 Q524 269 548.5 302.5 Q573 336 608.5 355 Q644 374 690 374 Q714 374 738.5 367 Q763 360 781 346 L755 311 Q738 323 722 328 Q706 333 687 333 Q656 333 633.5 321.5 Q611 310 595 290 Q579 270 568.5 244 Q558 218 552 188 Q573 205 602.5 219.5 Q632 234 664 234 Q714 234 735 207 Q756 180 756 143 Q756 108 744.5 80.5 Q733 53 712.5 34 Q692 15 664.5 4.5 Q637 -6 605 -6 Q548 -6 523 29 Q498 64 498 120 Z M652 194 Q637 194 622 189.5 Q607 185 593 178 Q579 171 567.5 163 Q556 155 548 148 Q542 88 557.5 60.5 Q573 33 613 33 Q651 33 680 57.5 Q709 82 709 135 Q709 167 693.5 180.5 Q678 194 652 194 Z M164 719 L359 719 L349 677 L193 677 L164 559 Q178 569 201 577.5 Q224 586 251 586 Q299 586 321.5 560.5 Q344 535 344 493 Q344 458 331.5 430.5 Q319 403 297 384 Q275 365 245.5 354.5 Q216 344 183 344 Q154 344 123 352.5 Q92 361 67 379 L91 414 Q114 401 137.5 393.5 Q161 386 187 386 Q232 386 264.5 410.5 Q297 435 297 485 Q297 511 281.5 528.5 Q266 546 234 546 Q208 546 188.5 537 Q169 528 155 517 L146 485 L106 485 L164 719 Z " />
<glyph glyph-name="oneeighth" unicode="&#x215b;" horiz-adv-x="811" d="M665 720 L716 720 L165 -1 L113 -1 L665 720 Z M167 351 L217 649 Q191 638 166.5 631 Q142 624 114 622 L114 659 Q146 665 182 681 Q218 697 244 719 L278 719 L216 351 L167 351 Z M514 85 Q514 59 533 44.5 Q552 30 587 30 Q629 30 656 51 Q683 72 683 109 Q683 124 676.5 135 Q670 146 659 153.5 Q648 161 634 166 Q620 171 605 175 Q588 169 572 161.5 Q556 154 543 143.5 Q530 133 522 118.5 Q514 104 514 85 Z M561 278 Q561 254 580 241 Q599 228 622 219 Q634 224 648 231 Q662 238 673.5 247 Q685 256 693 268 Q701 280 701 295 Q701 317 684.5 329 Q668 341 640 341 Q605 341 583 324 Q561 307 561 278 Z M466 78 Q466 124 495.5 151 Q525 178 576 197 Q514 221 514 271 Q514 294 524 313 Q534 332 552 345.5 Q570 359 594 366.5 Q618 374 645 374 Q694 374 720.5 355 Q747 336 747 302 Q747 267 722 241.5 Q697 216 657 200 Q696 184 714 164.5 Q732 145 732 115 Q732 88 721 65.5 Q710 43 689.5 27.5 Q669 12 641.5 3 Q614 -6 581 -6 Q525 -6 495.5 16.5 Q466 39 466 78 Z " />
<glyph glyph-name="threeeighths" unicode="&#x215c;" horiz-adv-x="811" d="M684 720 L735 720 L184 -1 L132 -1 L684 720 Z M523 85 Q523 59 542 44.5 Q561 30 596 30 Q638 30 665 51 Q692 72 692 109 Q692 124 685.5 135 Q679 146 668 153.5 Q657 161 643 166 Q629 171 614 175 Q597 169 581 161.5 Q565 154 552 143.5 Q539 133 531 118.5 Q523 104 523 85 Z M570 278 Q570 254 589 241 Q608 228 631 219 Q643 224 657 231 Q671 238 682.5 247 Q694 256 702 268 Q710 280 710 295 Q710 317 693.5 329 Q677 341 649 341 Q614 341 592 324 Q570 307 570 278 Z M475 78 Q475 124 504.5 151 Q534 178 585 197 Q523 221 523 271 Q523 294 533 313 Q543 332 561 345.5 Q579 359 603 366.5 Q627 374 654 374 Q703 374 729.5 355 Q756 336 756 302 Q756 267 731 241.5 Q706 216 666 200 Q705 184 723 164.5 Q741 145 741 115 Q741 88 730 65.5 Q719 43 698.5 27.5 Q678 12 650.5 3 Q623 -6 590 -6 Q534 -6 504.5 16.5 Q475 39 475 78 Z M66 426 Q88 406 109.5 396 Q131 386 166 386 Q210 386 235.5 404.5 Q261 423 261 462 Q261 488 241.5 503 Q222 518 176 518 Q171 518 160 517.5 Q149 517 148 517 L154 559 Q204 560 236 580 Q268 600 268 640 Q268 666 250.5 674.5 Q233 683 207 683 Q182 683 159 675.5 Q136 668 113 655 L100 689 Q125 703 155 713.5 Q185 724 223 724 Q267 724 292.5 706 Q318 688 318 650 Q318 612 293.5 583.5 Q269 555 227 544 Q273 540 291.5 518 Q310 496 310 467 Q310 437 298 414.5 Q286 392 266 376 Q246 360 219 352 Q192 344 161 344 Q121 344 89 356 Q57 368 36 394 L66 426 Z " />
<glyph glyph-name="fiveeighths" unicode="&#x215d;" horiz-adv-x="811" d="M713 720 L764 720 L213 -1 L161 -1 L713 720 Z M159 719 L354 719 L344 677 L188 677 L159 559 Q173 569 196 577.5 Q219 586 246 586 Q294 586 316.5 560.5 Q339 535 339 493 Q339 458 326.5 430.5 Q314 403 292 384 Q270 365 240.5 354.5 Q211 344 178 344 Q149 344 118 352.5 Q87 361 62 379 L86 414 Q109 401 132.5 393.5 Q156 386 182 386 Q227 386 259.5 410.5 Q292 435 292 485 Q292 511 276.5 528.5 Q261 546 229 546 Q203 546 183.5 537 Q164 528 150 517 L141 485 L101 485 L159 719 Z M555 85 Q555 59 574 44.5 Q593 30 628 30 Q670 30 697 51 Q724 72 724 109 Q724 124 717.5 135 Q711 146 700 153.5 Q689 161 675 166 Q661 171 646 175 Q629 169 613 161.5 Q597 154 584 143.5 Q571 133 563 118.5 Q555 104 555 85 Z M602 278 Q602 254 621 241 Q640 228 663 219 Q675 224 689 231 Q703 238 714.5 247 Q726 256 734 268 Q742 280 742 295 Q742 317 725.5 329 Q709 341 681 341 Q646 341 624 324 Q602 307 602 278 Z M507 78 Q507 124 536.5 151 Q566 178 617 197 Q555 221 555 271 Q555 294 565 313 Q575 332 593 345.5 Q611 359 635 366.5 Q659 374 686 374 Q735 374 761.5 355 Q788 336 788 302 Q788 267 763 241.5 Q738 216 698 200 Q737 184 755 164.5 Q773 145 773 115 Q773 88 762 65.5 Q751 43 730.5 27.5 Q710 12 682.5 3 Q655 -6 622 -6 Q566 -6 536.5 16.5 Q507 39 507 78 Z " />
<glyph glyph-name="seveneighths" unicode="&#x215e;" horiz-adv-x="811" d="M655 720 L706 720 L155 -1 L103 -1 L655 720 Z M516 85 Q516 59 535 44.5 Q554 30 589 30 Q631 30 658 51 Q685 72 685 109 Q685 124 678.5 135 Q672 146 661 153.5 Q650 161 636 166 Q622 171 607 175 Q590 169 574 161.5 Q558 154 545 143.5 Q532 133 524 118.5 Q516 104 516 85 Z M563 278 Q563 254 582 241 Q601 228 624 219 Q636 224 650 231 Q664 238 675.5 247 Q687 256 695 268 Q703 280 703 295 Q703 317 686.5 329 Q670 341 642 341 Q607 341 585 324 Q563 307 563 278 Z M468 78 Q468 124 497.5 151 Q527 178 578 197 Q516 221 516 271 Q516 294 526 313 Q536 332 554 345.5 Q572 359 596 366.5 Q620 374 647 374 Q696 374 722.5 355 Q749 336 749 302 Q749 267 724 241.5 Q699 216 659 200 Q698 184 716 164.5 Q734 145 734 115 Q734 88 723 65.5 Q712 43 691.5 27.5 Q671 12 643.5 3 Q616 -6 583 -6 Q527 -6 497.5 16.5 Q468 39 468 78 Z M137 351 L89 351 L90 356 L293 676 L98 676 L106 719 L354 719 L348 688 L137 351 Z " />
<glyph glyph-name="oneseventh" unicode="&#xf506;" horiz-adv-x="811" d="M627 720 L678 720 L127 -1 L75 -1 L627 720 Z M127 351 L177 649 Q151 638 126.5 631 Q102 624 74 622 L74 659 Q106 665 142 681 Q178 697 204 719 L238 719 L176 351 L127 351 Z M555 1 L507 1 L508 6 L711 326 L516 326 L524 369 L772 369 L766 338 L555 1 Z " />
<glyph glyph-name="twosevenths" unicode="&#xf507;" horiz-adv-x="811" d="M717 720 L768 720 L217 -1 L165 -1 L717 720 Z M66 387 L232 535 Q248 550 260 562 Q272 574 280 585 Q288 596 291.5 608 Q295 620 295 635 Q295 680 240 680 Q214 680 183.5 667.5 Q153 655 124 634 L106 668 Q136 691 174.5 707.5 Q213 724 252 724 Q298 724 323 703 Q348 682 348 645 Q348 613 330.5 583.5 Q313 554 278 522 L133 394 L312 394 L304 351 L60 351 L66 387 Z M603 1 L555 1 L556 6 L759 326 L564 326 L572 369 L820 369 L814 338 L603 1 Z " />
<glyph glyph-name="threesevenths" unicode="&#xf508;" horiz-adv-x="811" d="M684 720 L735 720 L184 -1 L132 -1 L684 720 Z M590 1 L542 1 L543 6 L746 326 L551 326 L559 369 L807 369 L801 338 L590 1 Z M69 426 Q91 406 112.5 396 Q134 386 169 386 Q213 386 238.5 404.5 Q264 423 264 462 Q264 488 244.5 503 Q225 518 179 518 Q174 518 163 517.5 Q152 517 151 517 L157 559 Q207 560 239 580 Q271 600 271 640 Q271 666 253.5 674.5 Q236 683 210 683 Q185 683 162 675.5 Q139 668 116 655 L103 689 Q128 703 158 713.5 Q188 724 226 724 Q270 724 295.5 706 Q321 688 321 650 Q321 612 296.5 583.5 Q272 555 230 544 Q276 540 294.5 518 Q313 496 313 467 Q313 437 301 414.5 Q289 392 269 376 Q249 360 222 352 Q195 344 164 344 Q124 344 92 356 Q60 368 39 394 L69 426 Z " />
<glyph glyph-name="foursevenths" unicode="&#xf509;" horiz-adv-x="811" d="M686 720 L737 720 L186 -1 L134 -1 L686 720 Z M101 472 L239 472 L273 673 L101 472 Z M232 430 L40 430 L47 469 L261 719 L327 719 L286 472 L331 472 L324 430 L278 430 L265 351 L219 351 L232 430 Z M589 1 L541 1 L542 6 L745 326 L550 326 L558 369 L806 369 L800 338 L589 1 Z " />
<glyph glyph-name="fivesevenths" unicode="&#xf50a;" horiz-adv-x="811" d="M685 720 L736 720 L185 -1 L133 -1 L685 720 Z M147 719 L342 719 L332 677 L176 677 L147 559 Q161 569 184 577.5 Q207 586 234 586 Q282 586 304.5 560.5 Q327 535 327 493 Q327 458 314.5 430.5 Q302 403 280 384 Q258 365 228.5 354.5 Q199 344 166 344 Q137 344 106 352.5 Q75 361 50 379 L74 414 Q97 401 120.5 393.5 Q144 386 170 386 Q215 386 247.5 410.5 Q280 435 280 485 Q280 511 264.5 528.5 Q249 546 217 546 Q191 546 171.5 537 Q152 528 138 517 L129 485 L89 485 L147 719 Z M590 1 L542 1 L543 6 L746 326 L551 326 L559 369 L807 369 L801 338 L590 1 Z " />
<glyph glyph-name="sixsevenths" unicode="&#xf50b;" horiz-adv-x="811" d="M689 720 L740 720 L189 -1 L137 -1 L689 720 Z M72 470 Q72 525 85 572 Q98 619 122.5 652.5 Q147 686 182.5 705 Q218 724 264 724 Q288 724 312.5 717 Q337 710 355 696 L329 661 Q312 673 296 678 Q280 683 261 683 Q230 683 207.5 671.5 Q185 660 169 640 Q153 620 142.5 594 Q132 568 126 538 Q147 555 176.5 569.5 Q206 584 238 584 Q288 584 309 557 Q330 530 330 493 Q330 458 318.5 430.5 Q307 403 286.5 384 Q266 365 238.5 354.5 Q211 344 179 344 Q122 344 97 379 Q72 414 72 470 Z M226 544 Q211 544 196 539.5 Q181 535 167 528 Q153 521 141.5 513 Q130 505 122 498 Q116 438 131.5 410.5 Q147 383 187 383 Q225 383 254 407.5 Q283 432 283 485 Q283 517 267.5 530.5 Q252 544 226 544 Z M603 1 L555 1 L556 6 L759 326 L564 326 L572 369 L820 369 L814 338 L603 1 Z " />
<glyph glyph-name="oneninth" unicode="&#xf50c;" horiz-adv-x="811" d="M645 720 L696 720 L145 -1 L93 -1 L645 720 Z M138 351 L188 649 Q162 638 137.5 631 Q113 624 85 622 L85 659 Q117 665 153 681 Q189 697 215 719 L249 719 L187 351 L138 351 Z M747 250 Q747 193 734.5 146 Q722 99 697.5 65.5 Q673 32 638 13 Q603 -6 558 -6 Q532 -6 506 2 Q480 10 464 21 L487 57 Q501 49 520 42 Q539 35 566 35 Q617 35 651.5 74.5 Q686 114 696 179 Q672 152 641.5 140 Q611 128 579 128 Q555 128 538 136 Q521 144 509.5 157 Q498 170 493 187.5 Q488 205 488 224 Q488 258 499.5 285.5 Q511 313 531.5 332.5 Q552 352 580 363 Q608 374 640 374 Q697 374 722 340.5 Q747 307 747 250 Z M594 166 Q626 166 653 183 Q680 200 698 223 Q711 335 633 335 Q613 335 595 329.5 Q577 324 563.5 311.5 Q550 299 542 279 Q534 259 534 230 Q534 199 549.5 182.5 Q565 166 594 166 Z " />
<glyph glyph-name="twoninths" unicode="&#xf50d;" horiz-adv-x="811" d="M691 720 L742 720 L191 -1 L139 -1 L691 720 Z M61 387 L227 535 Q243 550 255 562 Q267 574 275 585 Q283 596 286.5 608 Q290 620 290 635 Q290 680 235 680 Q209 680 178.5 667.5 Q148 655 119 634 L101 668 Q131 691 169.5 707.5 Q208 724 247 724 Q293 724 318 703 Q343 682 343 645 Q343 613 325.5 583.5 Q308 554 273 522 L128 394 L307 394 L299 351 L55 351 L61 387 Z M770 250 Q770 193 757.5 146 Q745 99 720.5 65.5 Q696 32 661 13 Q626 -6 581 -6 Q555 -6 529 2 Q503 10 487 21 L510 57 Q524 49 543 42 Q562 35 589 35 Q640 35 674.5 74.5 Q709 114 719 179 Q695 152 664.5 140 Q634 128 602 128 Q578 128 561 136 Q544 144 532.5 157 Q521 170 516 187.5 Q511 205 511 224 Q511 258 522.5 285.5 Q534 313 554.5 332.5 Q575 352 603 363 Q631 374 663 374 Q720 374 745 340.5 Q770 307 770 250 Z M617 166 Q649 166 676 183 Q703 200 721 223 Q734 335 656 335 Q636 335 618 329.5 Q600 324 586.5 311.5 Q573 299 565 279 Q557 259 557 230 Q557 199 572.5 182.5 Q588 166 617 166 Z " />
<glyph glyph-name="fourninths" unicode="&#xf50e;" horiz-adv-x="811" d="M708 720 L759 720 L208 -1 L156 -1 L708 720 Z M104 472 L242 472 L276 673 L104 472 Z M235 430 L43 430 L50 469 L264 719 L330 719 L289 472 L334 472 L327 430 L281 430 L268 351 L222 351 L235 430 Z M777 250 Q777 193 764.5 146 Q752 99 727.5 65.5 Q703 32 668 13 Q633 -6 588 -6 Q562 -6 536 2 Q510 10 494 21 L517 57 Q531 49 550 42 Q569 35 596 35 Q647 35 681.5 74.5 Q716 114 726 179 Q702 152 671.5 140 Q641 128 609 128 Q585 128 568 136 Q551 144 539.5 157 Q528 170 523 187.5 Q518 205 518 224 Q518 258 529.5 285.5 Q541 313 561.5 332.5 Q582 352 610 363 Q638 374 670 374 Q727 374 752 340.5 Q777 307 777 250 Z M624 166 Q656 166 683 183 Q710 200 728 223 Q741 335 663 335 Q643 335 625 329.5 Q607 324 593.5 311.5 Q580 299 572 279 Q564 259 564 230 Q564 199 579.5 182.5 Q595 166 624 166 Z " />
<glyph glyph-name="fiveninths" unicode="&#xf50f;" horiz-adv-x="811" d="M694 720 L745 720 L194 -1 L142 -1 L694 720 Z M147 719 L342 719 L332 677 L176 677 L147 559 Q161 569 184 577.5 Q207 586 234 586 Q282 586 304.5 560.5 Q327 535 327 493 Q327 458 314.5 430.5 Q302 403 280 384 Q258 365 228.5 354.5 Q199 344 166 344 Q137 344 106 352.5 Q75 361 50 379 L74 414 Q97 401 120.5 393.5 Q144 386 170 386 Q215 386 247.5 410.5 Q280 435 280 485 Q280 511 264.5 528.5 Q249 546 217 546 Q191 546 171.5 537 Q152 528 138 517 L129 485 L89 485 L147 719 Z M769 250 Q769 193 756.5 146 Q744 99 719.5 65.5 Q695 32 660 13 Q625 -6 580 -6 Q554 -6 528 2 Q502 10 486 21 L509 57 Q523 49 542 42 Q561 35 588 35 Q639 35 673.5 74.5 Q708 114 718 179 Q694 152 663.5 140 Q633 128 601 128 Q577 128 560 136 Q543 144 531.5 157 Q520 170 515 187.5 Q510 205 510 224 Q510 258 521.5 285.5 Q533 313 553.5 332.5 Q574 352 602 363 Q630 374 662 374 Q719 374 744 340.5 Q769 307 769 250 Z M616 166 Q648 166 675 183 Q702 200 720 223 Q733 335 655 335 Q635 335 617 329.5 Q599 324 585.5 311.5 Q572 299 564 279 Q556 259 556 230 Q556 199 571.5 182.5 Q587 166 616 166 Z " />
<glyph glyph-name="sevenninths" unicode="&#xf510;" horiz-adv-x="811" d="M641 720 L692 720 L141 -1 L89 -1 L641 720 Z M766 250 Q766 193 753.5 146 Q741 99 716.5 65.5 Q692 32 657 13 Q622 -6 577 -6 Q551 -6 525 2 Q499 10 483 21 L506 57 Q520 49 539 42 Q558 35 585 35 Q636 35 670.5 74.5 Q705 114 715 179 Q691 152 660.5 140 Q630 128 598 128 Q574 128 557 136 Q540 144 528.5 157 Q517 170 512 187.5 Q507 205 507 224 Q507 258 518.5 285.5 Q530 313 550.5 332.5 Q571 352 599 363 Q627 374 659 374 Q716 374 741 340.5 Q766 307 766 250 Z M613 166 Q645 166 672 183 Q699 200 717 223 Q730 335 652 335 Q632 335 614 329.5 Q596 324 582.5 311.5 Q569 299 561 279 Q553 259 553 230 Q553 199 568.5 182.5 Q584 166 613 166 Z M121 351 L73 351 L74 356 L277 676 L82 676 L90 719 L338 719 L332 688 L121 351 Z " />
<glyph glyph-name="eightninths" unicode="&#xf511;" horiz-adv-x="811" d="M709 720 L760 720 L209 -1 L157 -1 L709 720 Z M777 250 Q777 193 764.5 146 Q752 99 727.5 65.5 Q703 32 668 13 Q633 -6 588 -6 Q562 -6 536 2 Q510 10 494 21 L517 57 Q531 49 550 42 Q569 35 596 35 Q647 35 681.5 74.5 Q716 114 726 179 Q702 152 671.5 140 Q641 128 609 128 Q585 128 568 136 Q551 144 539.5 157 Q528 170 523 187.5 Q518 205 518 224 Q518 258 529.5 285.5 Q541 313 561.5 332.5 Q582 352 610 363 Q638 374 670 374 Q727 374 752 340.5 Q777 307 777 250 Z M624 166 Q656 166 683 183 Q710 200 728 223 Q741 335 663 335 Q643 335 625 329.5 Q607 324 593.5 311.5 Q580 299 572 279 Q564 259 564 230 Q564 199 579.5 182.5 Q595 166 624 166 Z M131 435 Q131 409 150 394.5 Q169 380 204 380 Q246 380 273 401 Q300 422 300 459 Q300 474 293.5 485 Q287 496 276 503.5 Q265 511 251 516 Q237 521 222 525 Q205 519 189 511.5 Q173 504 160 493.5 Q147 483 139 468.5 Q131 454 131 435 Z M178 628 Q178 604 197 591 Q216 578 239 569 Q251 574 265 581 Q279 588 290.5 597 Q302 606 310 618 Q318 630 318 645 Q318 667 301.5 679 Q285 691 257 691 Q222 691 200 674 Q178 657 178 628 Z M83 428 Q83 474 112.5 501 Q142 528 193 547 Q131 571 131 621 Q131 644 141 663 Q151 682 169 695.5 Q187 709 211 716.5 Q235 724 262 724 Q311 724 337.5 705 Q364 686 364 652 Q364 617 339 591.5 Q314 566 274 550 Q313 534 331 514.5 Q349 495 349 465 Q349 438 338 415.5 Q327 393 306.5 377.5 Q286 362 258.5 353 Q231 344 198 344 Q142 344 112.5 366.5 Q83 389 83 428 Z " />
<glyph glyph-name="minus" unicode="&#x2212;" horiz-adv-x="600" d="M560 275 L40 275 L40 322 L560 322 L560 275 Z " />
<glyph glyph-name="uni2215" unicode="&#x2215;" horiz-adv-x="128" d="M379 720 L430 720 L-121 -1 L-173 -1 L379 720 Z " />
<glyph glyph-name="uni2219" unicode="&#x2219;" horiz-adv-x="265" d="M87 339 Q87 361 100 373 Q113 385 133 385 Q153 385 166.5 373.5 Q180 362 180 339 Q180 320 166.5 307 Q153 294 133 294 Q113 294 100 306.5 Q87 319 87 339 Z " />
<glyph glyph-name="approxequal" unicode="&#x2248;" horiz-adv-x="744" d="M692 198 Q641 162 594.5 141 Q548 120 498 120 Q460 120 426 131 Q392 142 360.5 155 Q329 168 298 179 Q267 190 234 190 Q189 190 149.5 171 Q110 152 66 121 L44 160 Q94 196 142.5 217 Q191 238 246 238 Q285 238 319.5 227 Q354 216 385.5 203 Q417 190 446.5 179 Q476 168 503 168 Q544 168 581 184.5 Q618 201 668 235 L692 198 Z M696 388 Q645 352 598.5 331 Q552 310 502 310 Q464 310 430 321 Q396 332 364.5 345 Q333 358 302 369 Q271 380 238 380 Q193 380 153.5 361 Q114 342 70 311 L48 350 Q98 386 146.5 407 Q195 428 250 428 Q289 428 323.5 417 Q358 406 389.5 393 Q421 380 450.5 369 Q480 358 507 358 Q548 358 585 374.5 Q622 391 672 425 L696 388 Z " />
<glyph glyph-name="notequal" unicode="&#x2260;" horiz-adv-x="600" d="M560 185 L270 185 L158 0 L105 0 L217 185 L40 185 L40 229 L243 229 L309 338 L40 338 L40 383 L336 383 L421 523 L474 523 L389 383 L560 383 L560 338 L362 338 L296 229 L560 229 L560 185 Z " />
<glyph glyph-name="lessequal" unicode="&#x2264;" horiz-adv-x="600" d="M560 0 L40 0 L40 47 L560 47 L560 0 Z M41 321 L41 350 L541 569 L559 525 L122 335 L559 146 L541 101 L41 321 Z " />
<glyph glyph-name="greaterequal" unicode="&#x2265;" horiz-adv-x="600" d="M39 47 L559 47 L559 0 L39 0 L39 47 Z M58 101 L40 146 L477 335 L40 525 L58 569 L558 350 L558 321 L58 101 Z " />
<glyph glyph-name="less" unicode="&#x3c;" horiz-adv-x="600" d="M19 279 L19 308 L565 531 L583 486 L102 293 L583 102 L565 56 L19 279 Z " />
<glyph glyph-name="equal" unicode="&#x3d;" horiz-adv-x="600" d="M560 338 L40 338 L40 383 L560 383 L560 338 Z M560 185 L40 185 L40 229 L560 229 L560 185 Z " />
<glyph glyph-name="greater" unicode="&#x3e;" horiz-adv-x="600" d="M34 62 L17 107 L496 299 L17 492 L35 536 L580 314 L580 284 L34 62 Z " />
<glyph glyph-name="logicalnot" unicode="&#xac;" horiz-adv-x="600" d="M521 128 L521 336 L32 336 L32 381 L568 381 L568 128 L521 128 Z " />
<glyph glyph-name="plus" unicode="&#x2b;" horiz-adv-x="600" d="M325 322 L561 322 L561 275 L325 275 L325 38 L275 38 L275 275 L38 275 L38 322 L275 322 L275 561 L325 561 L325 322 Z " />
<glyph glyph-name="plusminus" unicode="&#xb1;" horiz-adv-x="600" d="M325 322 L561 322 L561 275 L325 275 L325 47 L560 47 L560 0 L40 0 L40 47 L275 47 L275 275 L38 275 L38 322 L275 322 L275 561 L325 561 L325 322 Z " />
<glyph glyph-name="divide" unicode="&#xf7;" horiz-adv-x="600" d="M299 513 Q316 513 328 500.5 Q340 488 340 470 Q340 453 328 441 Q316 429 299 429 Q283 429 270.5 441.5 Q258 454 258 470 Q258 487 270 500 Q282 513 299 513 Z M40 322 L560 322 L560 275 L40 275 L40 322 Z M299 172 Q316 172 328 159.5 Q340 147 340 130 Q340 113 328 100.5 Q316 88 299 88 Q283 88 270.5 101 Q258 114 258 130 Q258 147 270 159.5 Q282 172 299 172 Z " />
<glyph glyph-name="multiply" unicode="&#xd7;" horiz-adv-x="600" d="M334 291 L502 124 L468 88 L300 256 L132 88 L97 125 L266 292 L97 459 L131 495 L299 327 L467 495 L502 458 L334 291 Z " />
<glyph glyph-name="partialdiff" unicode="&#x2202;" horiz-adv-x="591" d="M237 -12 Q152 -12 107.5 39 Q63 90 63 174 Q63 227 77 274.5 Q91 322 118.5 358 Q146 394 186.5 415 Q227 436 280 436 Q307 436 334.5 427.5 Q362 419 384.5 401.5 Q407 384 422.5 357 Q438 330 442 294 Q446 332 448.5 366 Q451 400 451 429 Q451 536 418 593.5 Q385 651 305 651 Q268 651 236 640.5 Q204 630 169 607 L148 647 Q185 674 227.5 687.5 Q270 701 307 701 Q401 701 452.5 638.5 Q504 576 504 438 Q504 391 499.5 340 Q495 289 484 239 Q473 189 454 143.5 Q435 98 405 63.5 Q375 29 333.5 8.5 Q292 -12 237 -12 Z M244 41 Q287 41 319 59 Q351 77 373 104.5 Q395 132 406 165 Q417 198 417 229 Q417 302 380 344.5 Q343 387 283 387 Q240 387 209.5 368 Q179 349 159 319 Q139 289 129.5 252 Q120 215 120 179 Q120 107 156 74 Q192 41 244 41 Z " />
<glyph glyph-name="Omega" unicode="&#x2126;" horiz-adv-x="787" d="M460 76 Q495 92 529.5 119 Q564 146 592 185 Q620 224 637 274.5 Q654 325 654 388 Q654 463 635.5 517.5 Q617 572 583.5 607 Q550 642 503 658.5 Q456 675 399 675 Q342 675 294.5 657 Q247 639 213.5 602 Q180 565 161 510 Q142 455 142 380 Q142 323 157.5 275.5 Q173 228 198 190 Q223 152 253 124 Q283 96 313 78 L313 0 L70 0 L70 54 L255 54 L255 67 Q223 85 191.5 114.5 Q160 144 135 184.5 Q110 225 94 275.5 Q78 326 78 386 Q78 475 103 540 Q128 605 171 648 Q214 691 272.5 711.5 Q331 732 399 732 Q466 732 524.5 713 Q583 694 626 653 Q669 612 693.5 548.5 Q718 485 718 397 Q718 330 700 275 Q682 220 653.5 178 Q625 136 589 107.5 Q553 79 518 65 L518 54 L703 54 L703 0 L460 0 L460 76 Z " />
<glyph glyph-name="Delta" unicode="&#x2206;" horiz-adv-x="655" d="M361 720 L624 0 L31 0 L292 720 L361 720 Z M544 51 L326 655 L109 51 L544 51 Z " />
<glyph glyph-name="product" unicode="&#x220f;" horiz-adv-x="693" d="M88 720 L606 720 L606 -140 L545 -140 L545 669 L148 669 L148 -140 L88 -140 L88 720 Z " />
<glyph glyph-name="summation" unicode="&#x2211;" horiz-adv-x="571" d="M126 666 L357 319 L122 -65 L541 -65 L541 -119 L36 -119 L36 -92 L284 318 L36 693 L36 720 L502 720 L502 666 L126 666 Z " />
<glyph glyph-name="uni0394" unicode="&#x394;" horiz-adv-x="655" d="M361 720 L624 0 L31 0 L292 720 L361 720 Z M544 51 L326 655 L109 51 L544 51 Z " />
<glyph glyph-name="uni03A9" unicode="&#x3a9;" horiz-adv-x="787" d="M460 76 Q495 92 529.5 119 Q564 146 592 185 Q620 224 637 274.5 Q654 325 654 388 Q654 463 635.5 517.5 Q617 572 583.5 607 Q550 642 503 658.5 Q456 675 399 675 Q342 675 294.5 657 Q247 639 213.5 602 Q180 565 161 510 Q142 455 142 380 Q142 323 157.5 275.5 Q173 228 198 190 Q223 152 253 124 Q283 96 313 78 L313 0 L70 0 L70 54 L255 54 L255 67 Q223 85 191.5 114.5 Q160 144 135 184.5 Q110 225 94 275.5 Q78 326 78 386 Q78 475 103 540 Q128 605 171 648 Q214 691 272.5 711.5 Q331 732 399 732 Q466 732 524.5 713 Q583 694 626 653 Q669 612 693.5 548.5 Q718 485 718 397 Q718 330 700 275 Q682 220 653.5 178 Q625 136 589 107.5 Q553 79 518 65 L518 54 L703 54 L703 0 L460 0 L460 76 Z " />
<glyph glyph-name="uni03BC" unicode="&#x3bc;" horiz-adv-x="566" d="M420 0 L420 82 Q398 37 362.5 13 Q327 -11 273 -11 Q222 -11 192.5 6.5 Q163 24 141 57 L141 -200 L85 -200 L85 524 L141 524 L141 204 Q141 126 172 80.5 Q203 35 275 35 Q309 35 335.5 50 Q362 65 380 87.5 Q398 110 407 136 Q416 162 416 184 L416 524 L473 524 L473 0 L420 0 Z " />
<glyph glyph-name="pi" unicode="&#x3c0;" horiz-adv-x="653" d="M36 524 L617 524 L617 474 L526 474 L526 0 L470 0 L470 474 L188 474 L188 0 L131 0 L131 474 L36 474 L36 524 Z " />
</font>
</svg>
