<?xml version="1.0" encoding="UTF-8"?>
<svg xmlns="http://www.w3.org/2000/svg" xmlns:xlink="http://www.w3.org/1999/xlink" version="1.2" >
<font id="LFTEticaBk-Italic">
<font-face  font-family="LFT Etica" units-per-em="1000" ascent="930" descent="-270" font-style="italic" font-weight="350" font-stretch="normal" cap-height="720" x-height="525" underline-position="-75" underline-thickness="50" />
<missing-glyph  horiz-adv-x="176" d="" />
<glyph glyph-name="space" unicode="&#x20;" horiz-adv-x="203" d="" />
<glyph glyph-name="numbersign" unicode="&#x23;" horiz-adv-x="695" d="M243 247 L400 247 L450 388 L289 388 L243 247 Z M504 388 L455 247 L592 247 L592 195 L438 195 L371 13 L322 25 L384 195 L223 195 L157 13 L109 25 L169 195 L53 195 L53 247 L187 247 L236 388 L108 388 L108 441 L254 441 L323 639 L373 627 L309 441 L468 441 L538 638 L588 627 L523 441 L646 441 L646 388 L504 388 Z " />
<glyph glyph-name="ampersand" unicode="&#x26;" horiz-adv-x="694" d="M277 563 Q277 539 288.5 509 Q300 479 326 445 Q395 475 427 511.5 Q459 548 459 590 Q459 622 438 643 Q417 664 381 664 Q336 664 306.5 635 Q277 606 277 563 Z M258 47 Q308 47 352 71.5 Q396 96 441 141 L292 373 Q213 339 170.5 291 Q128 243 128 175 Q128 148 136.5 125 Q145 102 161.5 84.5 Q178 67 202.5 57 Q227 47 258 47 Z M471 87 Q417 33 361.5 8 Q306 -17 240 -17 Q198 -17 164 -4 Q130 9 106 32.5 Q82 56 69 88.5 Q56 121 56 161 Q56 249 109 310.5 Q162 372 262 417 Q239 447 224 480.5 Q209 514 209 552 Q209 588 223 619.5 Q237 651 261.5 674 Q286 697 319.5 710.5 Q353 724 392 724 Q452 724 488 691.5 Q524 659 524 602 Q524 534 478.5 485 Q433 436 357 401 L427 295 L565 397 L597 349 L457 244 L596 33 L535 -9 L471 87 Z " />
<glyph glyph-name="asterisk" unicode="&#x2a;" horiz-adv-x="428" d="M254 525 L168 428 L134 451 L205 556 L101 596 L114 633 L226 606 L235 720 L274 720 L283 607 L396 634 L409 596 L302 556 L370 451 L339 428 L254 525 Z " />
<glyph glyph-name="comma" unicode="&#x2c;" horiz-adv-x="234" d="M15 30 Q15 58 33.5 74.5 Q52 91 80 91 Q108 91 120 73 Q132 55 132 32 Q132 -15 101 -59.5 Q70 -104 1 -132 L-10 -100 Q32 -80 51.5 -57 Q71 -34 77 -5 Q65 -11 52 -11 Q34 -11 24.5 1 Q15 13 15 30 Z " />
<glyph glyph-name="hyphen" unicode="&#x2d;" horiz-adv-x="325" d="M35 310 L294 310 L282 240 L23 240 L35 310 Z " />
<glyph glyph-name="period" unicode="&#x2e;" horiz-adv-x="243" d="M25 41 Q25 67 41 81.5 Q57 96 82 96 Q107 96 123 82 Q139 68 139 42 Q139 17 123 2.5 Q107 -12 82 -12 Q56 -12 40.5 2.5 Q25 17 25 41 Z " />
<glyph glyph-name="colon" unicode="&#x3a;" horiz-adv-x="243" d="M29 41 Q29 67 45 81.5 Q61 96 86 96 Q111 96 127 82 Q143 68 143 42 Q143 17 127 2.5 Q111 -12 86 -12 Q60 -12 44.5 2.5 Q29 17 29 41 Z M92 443 Q92 469 108 483.5 Q124 498 149 498 Q174 498 190 484 Q206 470 206 444 Q206 419 190 404.5 Q174 390 149 390 Q123 390 107.5 404.5 Q92 419 92 443 Z " />
<glyph glyph-name="semicolon" unicode="&#x3b;" horiz-adv-x="241" d="M15 30 Q15 58 33.5 74.5 Q52 91 80 91 Q108 91 120 73 Q132 55 132 32 Q132 -15 101 -59.5 Q70 -104 1 -132 L-10 -100 Q32 -80 51.5 -57 Q71 -34 77 -5 Q65 -11 52 -11 Q34 -11 24.5 1 Q15 13 15 30 Z M91 443 Q91 469 107 483.5 Q123 498 148 498 Q173 498 189 484 Q205 470 205 444 Q205 419 189 404.5 Q173 390 148 390 Q122 390 106.5 404.5 Q91 419 91 443 Z " />
<glyph glyph-name="question" unicode="&#x3f;" horiz-adv-x="507" d="M202 224 Q209 268 229 300.5 Q249 333 273.5 359.5 Q298 386 325 409 Q352 432 374.5 456 Q397 480 411.5 507.5 Q426 535 426 571 Q426 616 399 641.5 Q372 667 318 667 Q253 667 210.5 628.5 Q168 590 156 519 L88 519 Q105 622 169 677.5 Q233 733 334 733 Q410 733 456 695 Q502 657 502 586 Q502 541 486.5 507.5 Q471 474 447 446 Q423 418 394.5 393 Q366 368 340 342.5 Q314 317 294 287.5 Q274 258 268 221 L264 198 L198 198 L202 224 Z M150 31 Q150 60 168 76.5 Q186 93 214 93 Q234 93 247 81.5 Q260 70 260 49 Q260 21 241 4.5 Q222 -12 196 -12 Q175 -12 162.5 -0.5 Q150 11 150 31 Z " />
<glyph glyph-name="exclam" unicode="&#x21;" horiz-adv-x="303" d="M144 479 L184 720 L260 720 L220 479 L163 198 L106 198 L144 479 Z M54 31 Q54 60 72 76.5 Q90 93 118 93 Q138 93 151 81.5 Q164 70 164 49 Q164 21 145 4.5 Q126 -12 100 -12 Q79 -12 66.5 -0.5 Q54 11 54 31 Z " />
<glyph glyph-name="exclamdown" unicode="&#xa1;" horiz-adv-x="303" d="M146 46 L106 -195 L30 -195 L70 46 L127 327 L184 327 L146 46 Z M236 494 Q236 465 218 448.5 Q200 432 172 432 Q152 432 139 443.5 Q126 455 126 476 Q126 504 145 520.5 Q164 537 190 537 Q211 537 223.5 525.5 Q236 514 236 494 Z " />
<glyph glyph-name="questiondown" unicode="&#xbf;" horiz-adv-x="507" d="M313.012 301.014 Q306.013 257.016 286.014 224.518 Q266.015 192.02 241.517 165.522 Q217.018 139.024 190.02 116.025 Q163.021 93.0264 140.523 69.0278 Q118.024 45.0293 103.525 17.531 Q89.026 -9.96735 89.026 -45.9651 Q89.026 -90.9624 116.024 -116.461 Q143.023 -141.959 197.019 -141.959 Q262.015 -141.959 304.513 -103.462 Q347.01 -64.964 359.01 6.03168 L427.005 6.03168 Q410.006 -96.962 346.01 -152.459 Q282.014 -207.955 181.02 -207.955 Q105.025 -207.955 59.0278 -169.958 Q13.0306 -131.96 13.0306 -60.9642 Q13.0306 -15.967 28.5297 17.531 Q44.0287 51.0289 68.0273 79.0272 Q92.0258 107.026 120.524 132.024 Q149.022 157.022 175.021 182.521 Q201.019 208.019 221.018 237.518 Q241.017 267.016 247.016 304.013 L251.016 327.012 L317.012 327.012 L313.012 301.014 Z M365.009 494.002 Q365.009 465.004 347.01 448.505 Q329.011 432.006 301.013 432.006 Q281.014 432.006 268.015 443.505 Q255.016 455.004 255.016 476.003 Q255.016 504.001 274.015 520.5 Q293.014 536.999 319.012 536.999 Q340.011 536.999 352.51 525.5 Q365.009 514.001 365.009 494.002 Z " />
<glyph glyph-name="at" unicode="&#x40;" horiz-adv-x="984" d="M607 341 Q578 362 521 362 Q479 362 445.5 345 Q412 328 388.5 299 Q365 270 352.5 232.5 Q340 195 340 153 Q340 107 359.5 77 Q379 47 425 47 Q452 47 475 59 Q498 71 516 90.5 Q534 110 547.5 135.5 Q561 161 568 188 L607 341 Z M619 145 Q613 122 613 104 Q613 75 626.5 60 Q640 45 673 45 Q717 45 751.5 67.5 Q786 90 810 127 Q834 164 846.5 210.5 Q859 257 859 305 Q859 377 835 431 Q811 485 767.5 521 Q724 557 664 575.5 Q604 594 531 594 Q443 594 368.5 563.5 Q294 533 240 478.5 Q186 424 156 349 Q126 274 126 185 Q126 102 154 38.5 Q182 -25 231.5 -69 Q281 -113 348.5 -135.5 Q416 -158 494 -158 Q581 -158 649.5 -135.5 Q718 -113 781 -67 L809 -109 Q743 -161 661.5 -186.5 Q580 -212 493 -212 Q403 -212 325 -186 Q247 -160 189 -109.5 Q131 -59 97.5 15 Q64 89 64 186 Q64 289 100 374.5 Q136 460 199 521 Q262 582 348 615.5 Q434 649 534 649 Q623 649 694.5 625 Q766 601 816 556.5 Q866 512 893 449.5 Q920 387 920 311 Q920 245 902 187.5 Q884 130 851 87 Q818 44 771 19 Q724 -6 667 -6 Q611 -6 584.5 19.5 Q558 45 563 88 Q538 50 502 23.5 Q466 -3 414 -3 Q344 -3 310.5 40 Q277 83 277 152 Q277 203 294 250.5 Q311 298 343.5 334.5 Q376 371 422.5 392.5 Q469 414 528 414 Q573 414 610.5 404 Q648 394 675 377 L619 145 Z " />
<glyph glyph-name="A" unicode="A" horiz-adv-x="623" d="M422 720 L557 0 L478 0 L438 206 L157 206 L51 0 L-30 0 L344 720 L422 720 Z M429 273 L369 633 L189 273 L429 273 Z " />
<glyph glyph-name="B" unicode="B" horiz-adv-x="608" d="M214 653 L172 402 L307 402 Q345 402 380.5 409 Q416 416 443 433.5 Q470 451 486.5 481 Q503 511 503 557 Q503 610 466 631.5 Q429 653 364 653 L214 653 Z M116 67 L292 67 Q386 67 434.5 113.5 Q483 160 483 233 Q483 291 440 314.5 Q397 338 327 338 L161 338 L116 67 Z M151 720 L388 720 Q490 720 535.5 682 Q581 644 581 576 Q581 542 571.5 509 Q562 476 542.5 448 Q523 420 493 400.5 Q463 381 422 375 L421 372 Q460 367 486 353.5 Q512 340 528 321 Q544 302 551 279 Q558 256 558 232 Q558 168 535.5 124 Q513 80 473 52.5 Q433 25 378.5 12.5 Q324 0 260 0 L31 0 L151 720 Z " />
<glyph glyph-name="C" unicode="C" horiz-adv-x="633" d="M566 96 Q510 45 443 16.5 Q376 -12 299 -12 Q235 -12 189 10.5 Q143 33 113.5 72 Q84 111 70 164 Q56 217 56 278 Q56 367 80.5 449.5 Q105 532 152.5 595 Q200 658 269 695.5 Q338 733 428 733 Q480 733 521 718.5 Q562 704 589 675.5 Q616 647 627 605.5 Q638 564 631 510 L557 510 Q560 544 555 572 Q550 600 533.5 620 Q517 640 488 651 Q459 662 415 662 Q351 662 299.5 633.5 Q248 605 212 554.5 Q176 504 157 435.5 Q138 367 138 287 Q138 174 184.5 116 Q231 58 315 58 Q383 58 433.5 84.5 Q484 111 528 148 L566 96 Z " />
<glyph glyph-name="D" unicode="D" horiz-adv-x="675" d="M214 653 L116 67 L244 67 Q386 67 459.5 141.5 Q533 216 555 359 Q559 384 561 407 Q563 430 563 451 Q563 550 511 601.5 Q459 653 342 653 L214 653 Z M347 720 Q494 720 567.5 655.5 Q641 591 641 456 Q641 433 639.5 410 Q638 387 634 359 Q621 261 588 192.5 Q555 124 503.5 81.5 Q452 39 381 19.5 Q310 0 220 0 L30 0 L151 720 L347 720 Z " />
<glyph glyph-name="E" unicode="E" horiz-adv-x="567" d="M151 720 L587 720 L577 654 L215 654 L172 401 L502 401 L492 336 L162 336 L117 66 L487 66 L475 0 L31 0 L151 720 Z " />
<glyph glyph-name="F" unicode="F" horiz-adv-x="528" d="M151 720 L566 720 L556 654 L215 654 L172 399 L473 399 L462 334 L161 334 L105 0 L31 0 L151 720 Z " />
<glyph glyph-name="G" unicode="G" horiz-adv-x="693" d="M413 368 L641 368 L596 98 Q560 62 523 40.5 Q486 19 450 7.5 Q414 -4 381 -8 Q348 -12 321 -12 Q250 -12 200 10 Q150 32 118 70.5 Q86 109 71.5 162 Q57 215 57 277 Q57 375 84 458.5 Q111 542 161 603 Q211 664 283 698.5 Q355 733 445 733 Q516 733 561 715 Q606 697 630.5 667 Q655 637 662 598.5 Q669 560 663 519 L586 519 Q590 552 584 578.5 Q578 605 560 624 Q542 643 510 653.5 Q478 664 430 664 Q360 664 305.5 633.5 Q251 603 214 551 Q177 499 158 431.5 Q139 364 139 289 Q139 178 187.5 117 Q236 56 333 56 Q391 56 441.5 76.5 Q492 97 536 136 L564 302 L402 302 L413 368 Z " />
<glyph glyph-name="H" unicode="H" horiz-adv-x="676" d="M151 720 L225 720 L173 409 L538 409 L590 720 L665 720 L545 0 L470 0 L527 340 L162 340 L105 0 L31 0 L151 720 Z " />
<glyph glyph-name="I" unicode="I" horiz-adv-x="236" d="M151 720 L225 720 L105 0 L31 0 L151 720 Z " />
<glyph glyph-name="J" unicode="J" horiz-adv-x="380" d="M281 159 Q266 71 222 29.5 Q178 -12 100 -12 Q68 -12 31.5 -5.5 Q-5 1 -31 15 L-3 78 Q20 67 44.5 61 Q69 55 99 55 Q123 55 141 60.5 Q159 66 172 80 Q185 94 193.5 117 Q202 140 208 175 L299 720 L374 720 L281 159 Z " />
<glyph glyph-name="K" unicode="K" horiz-adv-x="605" d="M151 720 L225 720 L173 403 L309 403 L541 720 L625 720 L370 370 L540 0 L454 0 L299 340 L163 340 L105 0 L31 0 L151 720 Z " />
<glyph glyph-name="L" unicode="L" horiz-adv-x="508" d="M225 720 L117 67 L443 67 L431 0 L31 0 L151 720 L225 720 Z " />
<glyph glyph-name="M" unicode="M" horiz-adv-x="838" d="M661 0 L701 591 L400 0 L338 0 L237 591 L80 0 L8 0 L198 720 L286 720 L389 112 L696 720 L781 720 L732 0 L661 0 Z " />
<glyph glyph-name="N" unicode="N" horiz-adv-x="680" d="M151 720 L220 720 L498 139 L595 720 L669 720 L549 0 L482 0 L201 582 L104 0 L31 0 L151 720 Z " />
<glyph glyph-name="O" unicode="O" horiz-adv-x="738" d="M147 368 Q138 317 138 275 Q138 164 187 110.5 Q236 57 329 57 Q438 57 512 131.5 Q586 206 612 368 Q616 389 617.5 409 Q619 429 619 447 Q619 553 571 607.5 Q523 662 431 662 Q319 662 245 586.5 Q171 511 147 368 Z M65 368 Q80 458 113.5 526.5 Q147 595 195 640.5 Q243 686 304.5 709.5 Q366 733 438 733 Q498 733 546.5 715.5 Q595 698 629.5 663.5 Q664 629 682.5 577.5 Q701 526 701 459 Q701 438 699 413.5 Q697 389 693 364 Q678 262 644 190.5 Q610 119 561 74 Q512 29 451 8.5 Q390 -12 321 -12 Q261 -12 212 4.5 Q163 21 128.5 54.5 Q94 88 75.5 140 Q57 192 57 263 Q57 287 58.5 313 Q60 339 65 368 Z " />
<glyph glyph-name="P" unicode="P" horiz-adv-x="581" d="M215 654 L164 350 L296 350 Q399 350 448.5 399.5 Q498 449 498 535 Q498 593 463.5 623.5 Q429 654 356 654 L215 654 Z M151 720 L371 720 Q475 720 524 674 Q573 628 573 547 Q573 490 555.5 442.5 Q538 395 503 360 Q468 325 414 305.5 Q360 286 287 286 L153 286 L105 0 L31 0 L151 720 Z " />
<glyph glyph-name="Q" unicode="Q" horiz-adv-x="738" d="M64 368 Q79 458 113 526.5 Q147 595 195.5 640.5 Q244 686 306 709.5 Q368 733 440 733 Q500 733 548 715.5 Q596 698 629.5 663.5 Q663 629 681.5 577.5 Q700 526 700 459 Q700 438 698 413.5 Q696 389 692 364 Q681 294 662.5 240 Q644 186 616.5 145.5 Q589 105 553.5 76 Q518 47 475 26 L473 19 L614 -28 L580 -94 L363 -9 Q342 -12 320 -12 Q260 -12 211 4.5 Q162 21 127.5 54.5 Q93 88 74.5 140 Q56 192 56 263 Q56 287 57.5 313 Q59 339 64 368 Z M146 368 Q137 317 137 275 Q137 164 186 110.5 Q235 57 328 57 Q437 57 511 131.5 Q585 206 611 368 Q615 389 616.5 409 Q618 429 618 447 Q618 553 570 607.5 Q522 662 430 662 Q318 662 244 586.5 Q170 511 146 368 Z " />
<glyph glyph-name="R" unicode="R" horiz-adv-x="609" d="M370 720 Q478 720 527.5 674.5 Q577 629 577 551 Q577 474 539 411 Q501 348 419 311 L527 0 L446 0 L346 294 Q313 288 270 288 L153 288 L105 0 L31 0 L151 720 L370 720 Z M214 654 L164 352 L293 352 Q393 352 446.5 401 Q500 450 500 537 Q500 594 465 624 Q430 654 357 654 L214 654 Z " />
<glyph glyph-name="S" unicode="S" horiz-adv-x="558" d="M50 146 Q88 101 135 76.5 Q182 52 237 52 Q274 52 306.5 62 Q339 72 363.5 91.5 Q388 111 402 139.5 Q416 168 416 206 Q416 230 408.5 249 Q401 268 384.5 283.5 Q368 299 341.5 312 Q315 325 276 338 Q229 354 194.5 371 Q160 388 138 410 Q116 432 105.5 460 Q95 488 95 526 Q95 573 114 611 Q133 649 166.5 676 Q200 703 245.5 718 Q291 733 345 733 Q419 733 471 707.5 Q523 682 558 630 L508 583 Q476 628 432 648.5 Q388 669 340 669 Q307 669 277 661 Q247 653 224.5 636 Q202 619 188.5 593 Q175 567 175 532 Q175 505 185.5 486 Q196 467 216 452 Q236 437 265 424 Q294 411 332 397 Q375 381 406 364.5 Q437 348 457 327 Q477 306 486.5 279 Q496 252 496 215 Q496 162 476 119.5 Q456 77 421 48 Q386 19 337 3.5 Q288 -12 230 -12 Q152 -12 93 18 Q34 48 -1 96 L50 146 Z " />
<glyph glyph-name="T" unicode="T" horiz-adv-x="550" d="M298 653 L77 653 L87 720 L603 720 L593 653 L373 653 L263 0 L188 0 L298 653 Z " />
<glyph glyph-name="U" unicode="U" horiz-adv-x="669" d="M220 720 L146 276 Q140 243 140 214 Q140 134 181.5 94.5 Q223 55 298 55 Q396 55 446 112 Q496 169 514 276 L588 720 L662 720 L587 267 Q564 127 487.5 57.5 Q411 -12 283 -12 Q181 -12 122.5 38 Q64 88 64 194 Q64 211 66 229 Q68 247 71 267 L146 720 L220 720 Z " />
<glyph glyph-name="V" unicode="V" horiz-adv-x="578" d="M87 720 L166 720 L252 86 L554 720 L631 720 L283 0 L193 0 L87 720 Z " />
<glyph glyph-name="W" unicode="W" horiz-adv-x="895" d="M87 720 L163 720 L219 98 L481 720 L555 720 L610 97 L870 720 L947 720 L642 0 L555 0 L500 607 L241 0 L154 0 L87 720 Z " />
<glyph glyph-name="X" unicode="X" horiz-adv-x="562" d="M249 368 L94 720 L177 720 L304 426 L526 720 L610 720 L336 362 L493 0 L407 0 L279 298 L54 0 L-33 0 L249 368 Z " />
<glyph glyph-name="Y" unicode="Y" horiz-adv-x="545" d="M232 305 L77 720 L161 720 L283 382 L519 720 L602 720 L307 305 L256 0 L181 0 L232 305 Z " />
<glyph glyph-name="Z" unicode="Z" horiz-adv-x="566" d="M-2 51 L485 653 L105 653 L115 720 L606 720 L601 686 L99 67 L494 67 L482 0 L-11 0 L-2 51 Z " />
<glyph glyph-name="a" unicode="a" horiz-adv-x="567" d="M388 70 Q377 58 359.5 43.5 Q342 29 318.5 17 Q295 5 266.5 -3.5 Q238 -12 205 -12 Q161 -12 129 3.5 Q97 19 76 46.5 Q55 74 45 112.5 Q35 151 35 197 Q35 272 53.5 334.5 Q72 397 106.5 442 Q141 487 190 512 Q239 537 299 537 Q357 537 393 511 Q429 485 451 447 L464 525 L531 525 L443 0 L380 0 L388 70 Z M435 374 Q428 386 416 402.5 Q404 419 387 434 Q370 449 347 459 Q324 469 296 469 Q257 469 223 451 Q189 433 164.5 399 Q140 365 126 316 Q112 267 112 206 Q112 172 118 144 Q124 116 137.5 96 Q151 76 174 65 Q197 54 231 54 Q258 54 282.5 63 Q307 72 328 85.5 Q349 99 366.5 114 Q384 129 396 142 L435 374 Z " />
<glyph glyph-name="b" unicode="b" horiz-adv-x="567" d="M117 141 Q123 127 135 111.5 Q147 96 164 83.5 Q181 71 203 63 Q225 55 252 55 Q294 55 329 73 Q364 91 388.5 125 Q413 159 426.5 208 Q440 257 440 319 Q440 393 411.5 431.5 Q383 470 328 470 Q301 470 276.5 461.5 Q252 453 230.5 439.5 Q209 426 190.5 409 Q172 392 156 375 L117 141 Z M22 0 L142 720 L213 720 L168 449 Q206 490 252 513.5 Q298 537 352 537 Q436 537 476.5 481.5 Q517 426 517 331 Q517 260 500.5 197.5 Q484 135 451 88.5 Q418 42 367.5 15 Q317 -12 248 -12 Q215 -12 189.5 -3.5 Q164 5 146 18 Q128 31 116.5 45.5 Q105 60 99 72 L82 0 L22 0 Z " />
<glyph glyph-name="c" unicode="c" horiz-adv-x="503" d="M431 62 Q382 24 328 6 Q274 -12 220 -12 Q131 -12 82 46.5 Q33 105 33 211 Q33 289 55 349.5 Q77 410 115 452 Q153 494 203.5 515.5 Q254 537 311 537 Q401 537 443 487 Q485 437 474 346 L406 346 Q408 417 382.5 445.5 Q357 474 303 474 Q261 474 225.5 455.5 Q190 437 164.5 403.5 Q139 370 124.5 323.5 Q110 277 110 221 Q110 143 141 97.5 Q172 52 239 52 Q262 52 281.5 55.5 Q301 59 320 66.5 Q339 74 358.5 85 Q378 96 402 111 L431 62 Z " />
<glyph glyph-name="d" unicode="d" horiz-adv-x="569" d="M388 73 Q377 61 359.5 46 Q342 31 318.5 18.5 Q295 6 266.5 -3 Q238 -12 205 -12 Q161 -12 129 3.5 Q97 19 76 47 Q55 75 45 113.5 Q35 152 35 198 Q35 273 53.5 335 Q72 397 106.5 442 Q141 487 190 512 Q239 537 299 537 Q357 537 391.5 512.5 Q426 488 448 453 L492 720 L563 720 L443 0 L380 0 L388 73 Z M435 374 Q428 386 416 402.5 Q404 419 387 434 Q370 449 347 459 Q324 469 296 469 Q257 469 223 451 Q189 433 164.5 399.5 Q140 366 126 318.5 Q112 271 112 211 Q112 139 138.5 96.5 Q165 54 233 54 Q260 54 284 63 Q308 72 329 85.5 Q350 99 367 114 Q384 129 396 142 L435 374 Z " />
<glyph glyph-name="e" unicode="e" horiz-adv-x="491" d="M432 60 Q382 22 330.5 5 Q279 -12 227 -12 Q137 -12 86 41 Q35 94 35 200 Q35 275 56 337 Q77 399 115 443.5 Q153 488 204.5 512.5 Q256 537 318 537 Q358 537 388 526 Q418 515 437.5 496.5 Q457 478 466.5 453.5 Q476 429 476 401 Q476 367 465.5 334.5 Q455 302 417.5 275.5 Q380 249 307.5 232 Q235 215 111 212 Q111 182 116 153 Q121 124 135.5 101.5 Q150 79 176 65.5 Q202 52 244 52 Q287 52 322.5 66.5 Q358 81 401 110 L432 60 Z M116 270 Q209 275 266 285.5 Q323 296 353.5 312 Q384 328 394.5 348 Q405 368 405 393 Q405 408 400 422.5 Q395 437 383 448.5 Q371 460 352 467.5 Q333 475 305 475 Q256 475 221.5 453.5 Q187 432 164.5 400.5 Q142 369 130.5 333.5 Q119 298 116 270 Z " />
<glyph glyph-name="f" unicode="f" horiz-adv-x="259" d="M113 464 L55 464 L62 510 L122 521 L135 596 Q146 662 178 697.5 Q210 733 273 733 Q304 733 336 724 L323 668 Q313 671 302.5 673 Q292 675 278 675 Q266 675 255 672 Q244 669 234 661 Q224 653 217 638.5 Q210 624 206 600 L194 525 L289 525 L279 464 L184 464 L106 0 L35 0 L113 464 Z " />
<glyph glyph-name="g" unicode="g" horiz-adv-x="567" d="M444 7 Q433 -58 413 -99.5 Q393 -141 363 -166 Q333 -191 292.5 -200.5 Q252 -210 201 -210 Q144 -210 99.5 -200 Q55 -190 25 -176 L49 -115 Q78 -126 116.5 -136 Q155 -146 201 -146 Q246 -146 277 -136 Q308 -126 328 -105.5 Q348 -85 359.5 -53.5 Q371 -22 378 21 L386 72 Q354 38 307.5 14.5 Q261 -9 204 -9 Q160 -9 128 7 Q96 23 75.5 51 Q55 79 45 117 Q35 155 35 199 Q35 264 51.5 325 Q68 386 101 433 Q134 480 184 508.5 Q234 537 302 537 Q332 537 356.5 528.5 Q381 520 399.5 506.5 Q418 493 431 477.5 Q444 462 452 448 L465 525 L531 525 L444 7 Z M435 375 Q429 388 417 404.5 Q405 421 387.5 435 Q370 449 347.5 459 Q325 469 297 469 Q253 469 218.5 449 Q184 429 160.5 394.5 Q137 360 124.5 312 Q112 264 112 209 Q112 134 140 95 Q168 56 231 56 Q259 56 283.5 64.5 Q308 73 328.5 85.5 Q349 98 366 112 Q383 126 395 138 L435 375 Z " />
<glyph glyph-name="h" unicode="h" horiz-adv-x="541" d="M214 720 L170 450 Q207 487 253 512 Q299 537 352 537 Q419 537 449.5 502 Q480 467 480 403 Q480 374 474 341 L417 0 L345 0 L399 325 Q401 340 403 356 Q405 372 405 395 Q405 408 402 422 Q399 436 390.5 447 Q382 458 366.5 465 Q351 472 327 472 Q302 472 277 462.5 Q252 453 230 438.5 Q208 424 189.5 408.5 Q171 393 158 381 L94 0 L23 0 L143 720 L214 720 Z " />
<glyph glyph-name="i" unicode="i" horiz-adv-x="226" d="M126 661 Q126 684 142.5 698.5 Q159 713 182 713 Q202 713 213 702.5 Q224 692 224 674 Q224 651 208 637 Q192 623 167 623 Q149 623 137.5 633.5 Q126 644 126 661 Z M98 0 L28 0 L116 525 L186 525 L98 0 Z " />
<glyph glyph-name="j" unicode="j" horiz-adv-x="226" d="M86 -73 Q81 -103 71.5 -127.5 Q62 -152 47 -168.5 Q32 -185 9.5 -194 Q-13 -203 -44 -203 Q-62 -203 -79 -201 Q-96 -199 -110 -193 L-93 -137 Q-85 -140 -73.5 -141.5 Q-62 -143 -50 -143 Q-24 -143 -8 -129 Q8 -115 16 -69 L116 525 L186 525 L86 -73 Z M126 660 Q126 684 143 699 Q160 714 183 714 Q202 714 213 703.5 Q224 693 224 675 Q224 651 207.5 636.5 Q191 622 168 622 Q149 622 137.5 632.5 Q126 643 126 660 Z " />
<glyph glyph-name="k" unicode="k" horiz-adv-x="485" d="M148 323 L206 323 L402 525 L490 525 L261 289 L426 0 L341 0 L195 260 L137 260 L93 0 L22 0 L142 720 L213 720 L148 323 Z " />
<glyph glyph-name="l" unicode="l" horiz-adv-x="217" d="M23 0 L143 720 L214 720 L94 0 L23 0 Z " />
<glyph glyph-name="m" unicode="m" horiz-adv-x="798" d="M177 525 L164 447 Q199 484 241 510.5 Q283 537 338 537 Q393 537 417 511 Q441 485 447 446 Q484 483 527.5 510 Q571 537 626 537 Q658 537 679.5 528 Q701 519 713.5 503.5 Q726 488 731.5 467 Q737 446 737 421 Q737 407 735.5 392.5 Q734 378 732 363 L671 0 L600 0 L659 352 Q661 364 662 378 Q663 392 663 405 Q663 437 648.5 454 Q634 471 596 471 Q573 471 550.5 461 Q528 451 508.5 437 Q489 423 473 408.5 Q457 394 448 384 L384 0 L311 0 L370 350 Q372 363 373 377.5 Q374 392 374 404 Q374 436 360.5 453.5 Q347 471 309 471 Q285 471 262.5 461 Q240 451 220 437 Q200 423 184 408 Q168 393 157 382 L93 0 L22 0 L110 525 L177 525 Z " />
<glyph glyph-name="n" unicode="n" horiz-adv-x="540" d="M177 525 L164 446 Q201 485 248 511 Q295 537 348 537 Q420 537 449.5 500.5 Q479 464 479 403 Q479 373 473 340 L416 0 L344 0 L398 325 Q400 340 401.5 355 Q403 370 403 392 Q403 428 385 450 Q367 472 325 472 Q298 472 272.5 461.5 Q247 451 224.5 437 Q202 423 184.5 407 Q167 391 157 381 L93 0 L22 0 L110 525 L177 525 Z " />
<glyph glyph-name="o" unicode="o" horiz-adv-x="559" d="M112 262 Q110 245 109 230 Q108 215 108 201 Q108 121 142 86.5 Q176 52 235 52 Q269 52 300 64.5 Q331 77 356 103 Q381 129 399.5 168.5 Q418 208 427 262 Q430 278 431 292.5 Q432 307 432 321 Q432 398 398 436 Q364 474 305 474 Q270 474 238.5 460.5 Q207 447 181.5 420 Q156 393 138 353.5 Q120 314 112 262 Z M37 263 Q60 394 133 465.5 Q206 537 320 537 Q412 537 460 484.5 Q508 432 508 333 Q508 316 506.5 296.5 Q505 277 502 258 Q482 126 407.5 57 Q333 -12 223 -12 Q129 -12 80.5 40.5 Q32 93 32 190 Q32 207 33 225.5 Q34 244 37 263 Z " />
<glyph glyph-name="p" unicode="p" horiz-adv-x="566" d="M116 137 Q123 124 135 109.5 Q147 95 164 82.5 Q181 70 202.5 62 Q224 54 251 54 Q338 54 389 124 Q440 194 440 319 Q440 392 412 431 Q384 470 330 470 Q304 470 279.5 462 Q255 454 233 440.5 Q211 427 191.5 410 Q172 393 156 376 L116 137 Z M-11 -200 L110 525 L178 525 L164 444 Q206 489 252.5 513 Q299 537 353 537 Q437 537 477.5 481.5 Q518 426 518 332 Q518 260 501 197.5 Q484 135 450.5 88.5 Q417 42 367.5 15 Q318 -12 253 -12 Q220 -12 194.5 -4 Q169 4 150.5 16 Q132 28 120.5 41 Q109 54 104 64 L60 -200 L-11 -200 Z " />
<glyph glyph-name="q" unicode="q" horiz-adv-x="567" d="M382 63 Q372 53 356 40 Q340 27 317.5 15.5 Q295 4 267.5 -4 Q240 -12 207 -12 Q162 -12 129.5 3.5 Q97 19 76 47 Q55 75 45 114 Q35 153 35 199 Q35 273 54 335 Q73 397 107.5 442 Q142 487 191.5 512 Q241 537 302 537 Q359 537 394 512 Q429 487 452 450 L465 525 L531 525 L410 -200 L338 -200 L382 63 Z M435 377 Q429 389 417.5 405 Q406 421 389 435.5 Q372 450 349.5 459.5 Q327 469 298 469 Q259 469 225 451 Q191 433 166 400 Q141 367 126.5 319.5 Q112 272 112 212 Q112 177 117.5 148 Q123 119 136.5 98 Q150 77 172 65.5 Q194 54 227 54 Q256 54 281.5 62.5 Q307 71 328.5 83.5 Q350 96 367 110 Q384 124 395 136 L435 377 Z " />
<glyph glyph-name="r" unicode="r" horiz-adv-x="311" d="M160 442 Q183 482 218.5 509.5 Q254 537 292 537 Q304 537 315.5 534.5 Q327 532 337 528 L316 456 Q307 460 297 461 Q287 462 274 462 Q256 462 239 453 Q222 444 206.5 430.5 Q191 417 177.5 400.5 Q164 384 155 369 L93 0 L22 0 L110 525 L175 525 L160 442 Z " />
<glyph glyph-name="s" unicode="s" horiz-adv-x="464" d="M32 118 Q61 88 101 68 Q141 48 186 48 Q241 48 278 74.5 Q315 101 315 153 Q315 170 309.5 183 Q304 196 291 205.5 Q278 215 256.5 223.5 Q235 232 204 240 Q128 260 95.5 291.5 Q63 323 63 378 Q63 412 77.5 441.5 Q92 471 118.5 492 Q145 513 182.5 525 Q220 537 267 537 Q325 537 367 517 Q409 497 439 459 L395 415 Q367 447 332 462 Q297 477 262 477 Q202 477 171 452.5 Q140 428 140 386 Q140 350 168 332 Q196 314 253 297 Q326 277 359.5 246.5 Q393 216 393 161 Q393 119 377 87 Q361 55 333 33 Q305 11 266 -0.5 Q227 -12 182 -12 Q113 -12 64.5 12 Q16 36 -12 71 L32 118 Z " />
<glyph glyph-name="t" unicode="t" horiz-adv-x="279" d="M181 464 L119 94 Q118 89 117.5 85 Q117 81 117 77 Q117 59 126.5 52.5 Q136 46 153 46 Q167 46 180 50 Q193 54 206 59 L212 7 Q193 -1 171 -6.5 Q149 -12 127 -12 Q89 -12 67 4.5 Q45 21 45 56 Q45 62 45 68.5 Q45 75 47 83 L111 464 L48 464 L55 510 L121 524 L156 667 L215 667 L191 525 L280 525 L270 464 L181 464 Z " />
<glyph glyph-name="u" unicode="u" horiz-adv-x="533" d="M343 0 L356 78 Q341 62 321.5 46 Q302 30 279 17 Q256 4 229 -4 Q202 -12 172 -12 Q135 -12 110 -2.5 Q85 7 69.5 23.5 Q54 40 47.5 63.5 Q41 87 41 114 Q41 128 43 143 Q45 158 47 174 L106 525 L178 525 L122 191 Q120 177 118.5 159 Q117 141 117 130 Q117 88 133 70.5 Q149 53 195 53 Q219 53 242.5 61 Q266 69 287.5 81.5 Q309 94 328 110 Q347 126 362 142 L426 525 L497 525 L409 0 L343 0 Z " />
<glyph glyph-name="v" unicode="v" horiz-adv-x="464" d="M122 525 L191 76 L414 525 L487 525 L221 0 L137 0 L50 525 L122 525 Z " />
<glyph glyph-name="w" unicode="w" horiz-adv-x="700" d="M712 525 L500 0 L421 0 L366 419 L177 0 L97 0 L60 525 L130 525 L153 88 L347 520 L418 520 L474 88 L641 525 L712 525 Z " />
<glyph glyph-name="x" unicode="x" horiz-adv-x="469" d="M186 266 L60 525 L136 525 L235 317 L401 525 L481 525 L271 266 L401 0 L326 0 L223 217 L48 0 L-33 0 L186 266 Z " />
<glyph glyph-name="y" unicode="y" horiz-adv-x="459" d="M479 525 L205 -20 Q181 -68 162 -102.5 Q143 -137 122.5 -159 Q102 -181 77.5 -191.5 Q53 -202 18 -202 Q-8 -202 -27 -199 Q-46 -196 -66 -190 L-48 -135 Q-37 -137 -20 -140 Q-3 -143 19 -143 Q34 -143 47 -138.5 Q60 -134 72 -122.5 Q84 -111 96.5 -90.5 Q109 -70 125 -38 L143 0 L50 525 L125 525 L193 92 L403 525 L479 525 Z " />
<glyph glyph-name="z" unicode="z" horiz-adv-x="424" d="M-6 49 L323 463 L66 463 L77 525 L430 525 L423 487 L82 60 L350 60 L340 0 L-14 0 L-6 49 Z " />
<glyph glyph-name="bracketleft" unicode="&#x5b;" horiz-adv-x="333" d="M17 -125 L158 720 L335 720 L325 660 L218 660 L97 -65 L204 -65 L194 -125 L17 -125 Z " />
<glyph glyph-name="bracketright" unicode="&#x5d;" horiz-adv-x="332" d="M-3 -125 L7 -65 L114 -65 L235 660 L128 660 L138 720 L313 720 L172 -125 L-3 -125 Z " />
<glyph glyph-name="parenleft" unicode="&#x28;" horiz-adv-x="337" d="M343 704 Q285 639 243.5 579 Q202 519 176 458.5 Q150 398 137.5 335 Q125 272 125 203 Q125 124 145.5 51.5 Q166 -21 210 -93 L164 -128 Q110 -67 83 20.5 Q56 108 56 205 Q56 360 121 490 Q186 620 299 733 L343 704 Z " />
<glyph glyph-name="parenright" unicode="&#x29;" horiz-adv-x="338" d="M-3 -99 Q55 -34 96.5 26 Q138 86 164 146.5 Q190 207 202.5 270 Q215 333 215 402 Q215 481 194.5 553.5 Q174 626 130 698 L176 733 Q230 672 257 584.5 Q284 497 284 400 Q284 245 219 115 Q154 -15 41 -128 L-3 -99 Z " />
<glyph glyph-name="braceleft" unicode="&#x7b;" horiz-adv-x="352" d="M349 662 Q302 662 282.5 631.5 Q263 601 253 541 L230 408 Q226 384 220 364 Q214 344 203 328.5 Q192 313 174 301.5 Q156 290 129 283 Q167 277 180 256.5 Q193 236 193 206 Q193 192 191 176 Q189 160 186 143 L170 48 Q168 34 166.5 21.5 Q165 9 165 -2 Q165 -34 180 -50.5 Q195 -67 235 -67 L268 -67 L258 -125 L223 -125 Q151 -125 121.5 -103 Q92 -81 92 -27 Q92 -15 93.5 -1.5 Q95 12 97 28 L116 146 Q118 158 119 168.5 Q120 179 120 188 Q120 220 105.5 236 Q91 252 54 252 L26 252 L36 313 L62 313 Q112 313 133.5 343 Q155 373 166 440 L183 543 Q190 589 202.5 622.5 Q215 656 235.5 677.5 Q256 699 287 709.5 Q318 720 362 720 L399 720 L390 662 L349 662 Z " />
<glyph glyph-name="braceright" unicode="&#x7d;" horiz-adv-x="352" d="M15 -67 Q62 -67 81.5 -36.5 Q101 -6 111 54 L134 187 Q138 211 144 231 Q150 251 161 266.5 Q172 282 190 293.5 Q208 305 235 312 Q197 318 184 338.5 Q171 359 171 389 Q171 403 173 419 Q175 435 178 452 L194 547 Q196 561 197.5 573.5 Q199 586 199 597 Q199 629 184 645.5 Q169 662 129 662 L96 662 L106 720 L141 720 Q213 720 242.5 698 Q272 676 272 622 Q272 610 270.5 596.5 Q269 583 267 567 L248 449 Q246 437 245 426.5 Q244 416 244 407 Q244 375 258.5 359 Q273 343 310 343 L338 343 L328 282 L302 282 Q252 282 230.5 252 Q209 222 198 155 L181 52 Q174 6 161.5 -27.5 Q149 -61 128.5 -82.5 Q108 -104 77 -114.5 Q46 -125 2 -125 L-35 -125 L-26 -67 L15 -67 Z " />
<glyph glyph-name="backslash" unicode="&#x5c;" horiz-adv-x="383" d="M360 -92 L298 -92 L59 739 L124 739 L360 -92 Z " />
<glyph glyph-name="slash" unicode="&#x2f;" horiz-adv-x="353" d="M333 739 L401 739 L22 -92 L-43 -92 L333 739 Z " />
<glyph glyph-name="brokenbar" unicode="&#xa6;" horiz-adv-x="500" d="M282 -200 L218 -200 L218 206 L282 206 L282 -200 Z M282 314 L218 314 L218 720 L282 720 L282 314 Z " />
<glyph glyph-name="bar" unicode="&#x7c;" horiz-adv-x="500" d="M282 -200 L218 -200 L218 720 L282 720 L282 -200 Z " />
<glyph glyph-name="asciicircum" unicode="&#x5e;" horiz-adv-x="669" d="M616 446 L569 410 L392 640 L136 410 L102 449 L370 693 L429 693 L616 446 Z " />
<glyph glyph-name="underscore" unicode="&#x5f;" horiz-adv-x="479" d="M-81 -173 L401 -173 L392 -228 L-90 -228 L-81 -173 Z " />
<glyph glyph-name="asciitilde" unicode="&#x7e;" horiz-adv-x="756" d="M706 295 Q650 251 599 228.5 Q548 206 498 206 Q461 206 428.5 217 Q396 228 365.5 241.5 Q335 255 305 266 Q275 277 243 277 Q196 277 157.5 257 Q119 237 76 208 L48 261 Q103 301 155 324 Q207 347 261 347 Q296 347 328.5 335.5 Q361 324 391.5 310.5 Q422 297 450.5 286 Q479 275 506 275 Q548 275 587.5 293 Q627 311 677 345 L706 295 Z " />
<glyph glyph-name="zero" unicode="0" horiz-adv-x="583" d="M135 353 Q129 316 125.5 281.5 Q122 247 122 220 Q122 131 153.5 91 Q185 51 247 51 Q326 51 379.5 124 Q433 197 460 355 Q472 430 472 485 Q472 573 443 613.5 Q414 654 353 654 Q273 654 217.5 583 Q162 512 135 353 Z M62 353 Q95 545 169.5 632.5 Q244 720 360 720 Q451 720 499 665.5 Q547 611 547 493 Q547 463 543.5 429 Q540 395 534 357 Q519 259 491 189.5 Q463 120 425 75 Q387 30 339 9 Q291 -12 234 -12 Q143 -12 96 43.5 Q49 99 49 217 Q49 279 62 353 Z " />
<glyph glyph-name="one" unicode="1" horiz-adv-x="442" d="M266 603 Q224 578 180.5 560 Q137 542 89 534 L89 590 Q115 596 143.5 607.5 Q172 619 200.5 634.5 Q229 650 255.5 669 Q282 688 304 709 L354 709 L245 61 L380 61 L370 0 L12 0 L22 61 L175 61 L266 603 Z " />
<glyph glyph-name="two" unicode="2" horiz-adv-x="491" d="M-5 51 L306 386 Q332 414 349 436 Q366 458 376.5 477.5 Q387 497 391.5 515 Q396 533 396 553 Q396 598 368.5 624.5 Q341 651 291 651 Q246 651 201 629.5 Q156 608 111 571 L79 620 Q129 665 188.5 692.5 Q248 720 312 720 Q345 720 374.5 709 Q404 698 425.5 677.5 Q447 657 459.5 628.5 Q472 600 472 565 Q472 534 464.5 507 Q457 480 443.5 455 Q430 430 410.5 405.5 Q391 381 367 356 L92 66 L395 66 L384 0 L-14 0 L-5 51 Z " />
<glyph glyph-name="three" unicode="3" horiz-adv-x="502" d="M28 132 Q62 94 99.5 73.5 Q137 53 193 53 Q227 53 258 64 Q289 75 313 96 Q337 117 351 147.5 Q365 178 365 217 Q365 268 333.5 300 Q302 332 227 333 Q222 333 214.5 332.5 Q207 332 199.5 332 Q192 332 185.5 331.5 Q179 331 177 331 L185 395 Q224 396 260 408.5 Q296 421 324 443 Q352 465 368.5 495 Q385 525 385 561 Q385 608 355.5 631 Q326 654 283 654 Q241 654 202.5 641 Q164 628 126 603 L103 653 Q147 683 196 701.5 Q245 720 302 720 Q372 720 415 683 Q458 646 458 578 Q458 543 446 511.5 Q434 480 412.5 453 Q391 426 361.5 405.5 Q332 385 298 374 Q370 367 403 327 Q436 287 436 227 Q436 169 415 124.5 Q394 80 359 49.5 Q324 19 278.5 3.5 Q233 -12 185 -12 Q121 -12 70.5 10.5 Q20 33 -19 84 L28 132 Z " />
<glyph glyph-name="four" unicode="4" horiz-adv-x="524" d="M338 234 L405 635 L97 234 L338 234 Z M327 169 L10 169 L20 227 L393 709 L487 709 L407 234 L489 234 L478 169 L396 169 L368 0 L299 0 L327 169 Z " />
<glyph glyph-name="five" unicode="5" horiz-adv-x="517" d="M164 709 L493 709 L477 639 L211 639 L152 388 Q176 410 213 426 Q250 442 299 442 Q377 442 416 397.5 Q455 353 455 275 Q455 206 434 153 Q413 100 376 63 Q339 26 290 7 Q241 -12 185 -12 Q140 -12 90.5 3 Q41 18 0 53 L39 107 Q74 81 112 67.5 Q150 54 191 54 Q232 54 266.5 67 Q301 80 326.5 105.5 Q352 131 366.5 169 Q381 207 381 258 Q381 312 354.5 345.5 Q328 379 271 379 Q226 379 192 361 Q158 343 136 322 L128 288 L64 288 L164 709 Z " />
<glyph glyph-name="six" unicode="6" horiz-adv-x="524" d="M44 214 Q44 324 67.5 417 Q91 510 133.5 577.5 Q176 645 237 682.5 Q298 720 373 720 Q411 720 448.5 706.5 Q486 693 515 662 L476 613 Q449 637 422.5 647 Q396 657 365 657 Q309 657 269.5 629.5 Q230 602 202.5 559.5 Q175 517 158 466 Q141 415 130 367 Q169 401 216 420.5 Q263 440 316 440 Q355 440 383 426.5 Q411 413 430 389.5 Q449 366 458 334 Q467 302 467 266 Q467 200 449 148.5 Q431 97 398.5 61.5 Q366 26 321 7 Q276 -12 222 -12 Q130 -12 87 47 Q44 106 44 214 Z M232 49 Q263 49 293 61.5 Q323 74 345.5 99.5 Q368 125 382 163 Q396 201 396 252 Q396 316 366 345.5 Q336 375 290 375 Q265 375 240 366.5 Q215 358 192.5 345.5 Q170 333 151.5 319 Q133 305 121 294 Q119 272 117.5 252.5 Q116 233 116 216 Q116 126 146 87.5 Q176 49 232 49 Z " />
<glyph glyph-name="seven" unicode="7" horiz-adv-x="432" d="M110 0 L36 0 L38 10 L393 644 L73 644 L85 709 L486 709 L477 658 L110 0 Z " />
<glyph glyph-name="eight" unicode="8" horiz-adv-x="514" d="M90 158 Q90 110 121.5 80.5 Q153 51 213 51 Q249 51 280 63 Q311 75 333.5 96 Q356 117 369 146 Q382 175 382 209 Q382 238 371.5 260.5 Q361 283 343 300.5 Q325 318 302.5 330 Q280 342 256 351 Q224 338 194 320.5 Q164 303 141 279.5 Q118 256 104 226 Q90 196 90 158 Z M181 536 Q181 490 211 460.5 Q241 431 282 414 Q303 423 327 438 Q351 453 372 473.5 Q393 494 406.5 519.5 Q420 545 420 574 Q420 616 393 638 Q366 660 318 660 Q258 660 219.5 626.5 Q181 593 181 536 Z M16 145 Q16 189 31.5 226 Q47 263 73 292.5 Q99 322 133 344 Q167 366 205 381 Q157 401 132.5 437 Q108 473 108 522 Q108 566 125 602.5 Q142 639 171.5 665 Q201 691 241.5 705.5 Q282 720 329 720 Q402 720 446 684 Q490 648 490 584 Q490 551 477.5 521.5 Q465 492 444 466.5 Q423 441 395 420.5 Q367 400 336 385 Q455 328 455 221 Q455 168 436 125.5 Q417 83 383 52 Q349 21 302 4.5 Q255 -12 199 -12 Q111 -12 63.5 29.5 Q16 71 16 145 Z " />
<glyph glyph-name="nine" unicode="9" horiz-adv-x="517" d="M481 409 Q464 295 435 214.5 Q406 134 366.5 84 Q327 34 278 11 Q229 -12 172 -12 Q123 -12 85 3 Q47 18 21 44 L57 92 Q80 73 106.5 60 Q133 47 179 47 Q223 47 258 70 Q293 93 320.5 132.5 Q348 172 368 226 Q388 280 401 342 Q359 307 312 287.5 Q265 268 211 268 Q169 268 140.5 281.5 Q112 295 94.5 318.5 Q77 342 69.5 374 Q62 406 62 442 Q62 464 65 488 Q72 544 92.5 587 Q113 630 144.5 659.5 Q176 689 216.5 704.5 Q257 720 305 720 Q353 720 387.5 704 Q422 688 444 659.5 Q466 631 476.5 590 Q487 549 487 500 Q487 480 485.5 456 Q484 432 481 409 Z M298 657 Q238 657 193 617 Q148 577 137 492 Q134 468 134 449 Q134 329 228 329 Q255 329 281.5 337 Q308 345 332 357.5 Q356 370 376.5 385 Q397 400 411 413 Q415 435 416.5 456.5 Q418 478 418 496 Q418 576 386.5 616.5 Q355 657 298 657 Z " />
<glyph glyph-name="dollar" unicode="&#x24;" horiz-adv-x="503" d="M168 0 Q105 5 60 32.5 Q15 60 -14 98 L35 142 Q68 104 109 81 Q150 58 198 58 Q231 58 261 67 Q291 76 314 94 Q337 112 350.5 138 Q364 164 364 198 Q364 238 335 266 Q306 294 232 319 Q150 345 113 382 Q76 419 76 479 Q76 524 92 559.5 Q108 595 135.5 621 Q163 647 200.5 662 Q238 677 282 681 L296 766 L355 766 L341 681 Q392 675 432 651.5 Q472 628 497 589 L449 549 Q421 585 383 604.5 Q345 624 303 624 Q271 624 243 616 Q215 608 194 592 Q173 576 160.5 552 Q148 528 148 497 Q148 474 157 456.5 Q166 439 183.5 425.5 Q201 412 227 400.5 Q253 389 286 378 Q366 351 401.5 311.5 Q437 272 437 214 Q437 169 420.5 132.5 Q404 96 375.5 68 Q347 40 308.5 23 Q270 6 227 0 L212 -87 L153 -87 L168 0 Z " />
<glyph glyph-name="Euro" unicode="&#x20ac;" horiz-adv-x="586" d="M27 445 L97 445 Q113 497 142 547 Q171 597 211.5 635 Q252 673 303 696.5 Q354 720 413 720 Q441 720 470 714 Q499 708 525 693.5 Q551 679 573.5 655.5 Q596 632 612 598 L562 563 Q537 611 495.5 635.5 Q454 660 402 660 Q361 660 325 644 Q289 628 259 599 Q229 570 206 530.5 Q183 491 167 445 L491 445 L478 390 L152 390 Q150 381 149 373.5 Q148 366 146 357 Q144 343 142.5 332 Q141 321 140 309 L458 309 L445 254 L139 254 Q142 160 184 105 Q226 50 302 50 Q363 50 408 72.5 Q453 95 495 129 L524 86 Q470 37 412.5 12.5 Q355 -12 285 -12 Q228 -12 187 9.5 Q146 31 120 67.5 Q94 104 81 152 Q68 200 68 254 L-19 254 L-6 309 L70 309 Q70 321 72 331.5 Q74 342 76 356 Q78 365 79 372.5 Q80 380 82 390 L13 390 L27 445 Z " />
<glyph glyph-name="cent" unicode="&#xa2;" horiz-adv-x="510" d="M453 151 Q413 120 371.5 103 Q330 86 288 81 L271 -18 L209 -18 L225 82 Q147 93 103 148 Q59 203 59 297 Q59 370 78.5 428.5 Q98 487 132.5 528.5 Q167 570 214.5 594 Q262 618 317 623 L333 720 L394 720 L378 620 Q445 609 477.5 560.5 Q510 512 502 434 L434 434 Q438 500 410.5 529.5 Q383 559 331 559 Q287 559 251 541 Q215 523 189.5 490 Q164 457 150.5 411 Q137 365 137 309 Q137 274 144.5 243.5 Q152 213 168 190.5 Q184 168 208.5 155 Q233 142 266 142 Q289 142 308 145.5 Q327 149 345.5 156.5 Q364 164 382.5 175 Q401 186 422 201 L453 151 Z " />
<glyph glyph-name="sterling" unicode="&#xa3;" horiz-adv-x="496" d="M220 245 Q220 216 211.5 191 Q203 166 189.5 144 Q176 122 159.5 102.5 Q143 83 126 66 L410 66 L399 0 L-7 0 L3 60 L51 64 Q69 81 87 101 Q105 121 119.5 143 Q134 165 143 188.5 Q152 212 152 238 Q152 259 148 284 Q144 309 141 323 L49 323 L58 379 L130 379 Q119 414 111.5 447 Q104 480 104 511 Q104 559 123.5 597.5 Q143 636 175 663.5 Q207 691 249 705.5 Q291 720 336 720 Q393 720 438.5 699.5 Q484 679 511 635 L463 592 Q441 622 409 638.5 Q377 655 333 655 Q264 655 221 619 Q178 583 178 516 Q178 488 185.5 454.5 Q193 421 204 379 L367 379 L358 323 L213 323 Q216 308 218 285.5 Q220 263 220 245 Z " />
<glyph glyph-name="yen" unicode="&#xa5;" horiz-adv-x="554" d="M67 390 L230 390 L105 709 L182 709 L294 409 L510 709 L586 709 L351 390 L516 390 L507 335 L315 335 L301 253 L493 253 L484 197 L292 197 L259 0 L192 0 L225 197 L35 197 L44 253 L234 253 L248 335 L58 335 L67 390 Z " />
<glyph glyph-name="florin" unicode="&#x192;" horiz-adv-x="423" d="M3 -144 Q37 -144 54.5 -120.5 Q72 -97 83 -45 L164 345 L86 345 L86 399 L175 399 L207 557 Q213 588 222 615.5 Q231 643 246 664 Q261 685 285 697 Q309 709 346 709 L406 709 L406 652 L357 652 Q335 652 321.5 644 Q308 636 299 621 Q290 606 284.5 583.5 Q279 561 273 533 L244 399 L338 399 L338 345 L234 345 L167 16 Q156 -37 146 -77.5 Q136 -118 120 -145 Q104 -172 79.5 -186 Q55 -200 14 -200 L-37 -200 L-37 -144 L3 -144 Z " />
<glyph glyph-name="section" unicode="&#xa7;" horiz-adv-x="509" d="M81 108 Q105 83 138 63.5 Q171 44 216 44 Q236 44 256 48.5 Q276 53 292.5 63.5 Q309 74 319.5 90.5 Q330 107 330 131 Q330 155 312.5 169.5 Q295 184 268 194.5 Q241 205 210.5 214.5 Q180 224 153 238.5 Q126 253 108.5 275 Q91 297 91 333 Q91 355 99 378 Q107 401 123.5 420 Q140 439 166.5 453.5 Q193 468 229 474 Q177 490 156 518.5 Q135 547 135 580 Q135 610 147.5 637.5 Q160 665 184.5 686 Q209 707 244.5 720 Q280 733 326 733 Q377 733 416 713.5 Q455 694 477 661 L436 623 Q412 646 385 662.5 Q358 679 320 679 Q266 679 235.5 657.5 Q205 636 205 594 Q205 577 212.5 564.5 Q220 552 233.5 542 Q247 532 265 524.5 Q283 517 304 510 Q338 499 364 487 Q390 475 408 460.5 Q426 446 435.5 427.5 Q445 409 445 384 Q445 352 433 328 Q421 304 402 286.5 Q383 269 359.5 258.5 Q336 248 313 244 Q359 225 380 201 Q401 177 401 142 Q401 109 386 81 Q371 53 345.5 32.5 Q320 12 284.5 0 Q249 -12 209 -12 Q159 -12 112.5 8 Q66 28 39 67 L81 108 Z M279 445 Q253 445 231 438 Q209 431 192.5 418 Q176 405 166.5 387 Q157 369 157 348 Q157 315 186.5 293.5 Q216 272 264 272 Q286 272 306.5 279 Q327 286 342.5 299 Q358 312 367 329.5 Q376 347 376 368 Q376 387 367.5 401 Q359 415 345.5 425 Q332 435 314.5 440 Q297 445 279 445 Z " />
<glyph glyph-name="copyright" unicode="&#xa9;" horiz-adv-x="810" d="M552 227 Q525 198 490.5 181.5 Q456 165 410 165 Q368 165 337.5 180.5 Q307 196 286.5 222.5 Q266 249 256.5 285 Q247 321 247 362 Q247 403 257.5 439 Q268 475 289 501.5 Q310 528 341.5 543.5 Q373 559 415 559 Q473 559 511 527 Q549 495 550 432 L506 432 Q502 469 482 493 Q462 517 413 517 Q356 517 326 475 Q296 433 296 364 Q296 283 328 245.5 Q360 208 415 208 Q453 208 479 222 Q505 236 527 256 L552 227 Z M411 680 Q342 680 284 655.5 Q226 631 184 588 Q142 545 118.5 486.5 Q95 428 95 360 Q95 280 120.5 220.5 Q146 161 189.5 121 Q233 81 290.5 61 Q348 41 411 41 Q472 41 529 65 Q586 89 630.5 131.5 Q675 174 702 232.5 Q729 291 729 360 Q729 431 705 490 Q681 549 638.5 591 Q596 633 537.5 656.5 Q479 680 411 680 Z M411 720 Q490 720 556.5 694 Q623 668 670.5 621 Q718 574 744.5 508.5 Q771 443 771 364 Q771 285 741.5 218.5 Q712 152 662.5 103.5 Q613 55 547.5 27.5 Q482 0 411 0 Q339 0 273.5 22.5 Q208 45 158.5 90 Q109 135 80 202.5 Q51 270 51 360 Q51 438 79 504 Q107 570 155.5 618 Q204 666 270 693 Q336 720 411 720 Z " />
<glyph glyph-name="registered" unicode="&#xae;" horiz-adv-x="421" d="M256 637 Q290 637 305 622 Q320 607 320 584 Q320 550 288 536 L330 462 L299 462 L261 529 L216 529 L216 462 L188 462 L188 637 L256 637 Z M216 614 L216 551 L248 551 Q270 551 280.5 558.5 Q291 566 291 584 Q291 614 250 614 L216 614 Z M251 692 Q221 692 195 681 Q169 670 150.5 651 Q132 632 121 605.5 Q110 579 110 548 Q110 477 150 441 Q190 405 251 405 Q279 405 304.5 416 Q330 427 349.5 446 Q369 465 381 491.5 Q393 518 393 548 Q393 613 354 652.5 Q315 692 251 692 Z M251 725 Q290 725 323 712 Q356 699 379 676 Q402 653 415 620 Q428 587 428 548 Q428 510 413.5 478 Q399 446 374.5 422.5 Q350 399 318 385.5 Q286 372 251 372 Q213 372 181 383.5 Q149 395 125.5 417.5 Q102 440 89 473 Q76 506 76 548 Q76 586 89.5 618.5 Q103 651 126.5 674.5 Q150 698 182 711.5 Q214 725 251 725 Z " />
<glyph glyph-name="trademark" unicode="&#x2122;" horiz-adv-x="615" d="M573 461 L552 656 L477 461 L445 461 L373 656 L354 461 L313 461 L341 720 L389 720 L463 521 L538 720 L583 720 L613 461 L573 461 Z M155 681 L70 681 L70 720 L282 720 L282 681 L197 681 L197 461 L155 461 L155 681 Z " />
<glyph glyph-name="ordfeminine" unicode="&#xaa;" horiz-adv-x="469" d="M333 314 Q324 305 311.5 295 Q299 285 282.5 276 Q266 267 245.5 261 Q225 255 200 255 Q137 255 103.5 294 Q70 333 70 400 Q70 442 80 486.5 Q90 531 113 568.5 Q136 606 172.5 630 Q209 654 262 654 Q300 654 330 634 Q360 614 379 588 L389 645 L444 645 L379 263 L328 263 L333 314 Z M368 532 Q363 541 354 553 Q345 565 332 576 Q319 587 302 594.5 Q285 602 264 602 Q229 602 204.5 585 Q180 568 164.5 540 Q149 512 141.5 477.5 Q134 443 134 407 Q134 361 152.5 332.5 Q171 304 218 304 Q253 304 286 326 Q319 348 339 375 L368 532 Z " />
<glyph glyph-name="ordmasculine" unicode="&#xba;" horiz-adv-x="462" d="M141 420 Q141 363 167 336.5 Q193 310 234 310 Q262 310 287.5 321 Q313 332 332 354 Q351 376 362.5 409.5 Q374 443 374 489 Q374 547 348.5 574 Q323 601 283 601 Q254 601 228.5 589.5 Q203 578 183.5 555.5 Q164 533 152.5 499 Q141 465 141 420 Z M80 413 Q80 469 96 513.5 Q112 558 140.5 589.5 Q169 621 207.5 638 Q246 655 292 655 Q359 655 397.5 613 Q436 571 436 496 Q436 440 419.5 395.5 Q403 351 374.5 319.5 Q346 288 307.5 271.5 Q269 255 225 255 Q156 255 118 296 Q80 337 80 413 Z " />
<glyph glyph-name="guillemotleft" unicode="&#xab;" horiz-adv-x="461" d="M404.003 141.023 L360.006 104.026 L235.014 249.017 L240.013 276.015 L412.003 419.006 L445.001 383.009 L313.009 262.016 L404.003 141.023 Z M203.003 141.023 L159.006 104.026 L34.0138 249.017 L39.0135 276.015 L211.003 419.006 L244.001 383.009 L112.009 262.016 L203.003 141.023 Z " />
<glyph glyph-name="guillemotright" unicode="&#xbb;" horiz-adv-x="463" d="M260 382 L304 419 L429 274 L424 247 L252 104 L219 140 L351 261 L260 382 Z M57 382 L101 419 L226 274 L221 247 L49 104 L16 140 L148 261 L57 382 Z " />
<glyph glyph-name="guilsinglleft" unicode="&#x2039;" horiz-adv-x="260" d="M203 141 L159 104 L34 249 L39 276 L211 419 L244 383 L112 262 L203 141 Z " />
<glyph glyph-name="guilsinglright" unicode="&#x203a;" horiz-adv-x="260" d="M57 382 L101 419 L226 274 L221 247 L49 104 L16 140 L148 261 L57 382 Z " />
<glyph glyph-name="quoteleft" unicode="&#x2018;" horiz-adv-x="200" d="M208 602 Q208 576 191 559.5 Q174 543 145 543 Q119 543 108.5 559.5 Q98 576 98 598 Q98 615 102 635 Q106 655 118.5 675 Q131 695 153 714.5 Q175 734 211 751 L222 723 Q187 703 170 682.5 Q153 662 148 634 Q160 640 173 640 Q190 640 199 629.5 Q208 619 208 602 Z " />
<glyph glyph-name="quoteright" unicode="&#x2019;" horiz-adv-x="201" d="M111 662 Q111 688 128 704.5 Q145 721 174 721 Q200 721 210.5 704.5 Q221 688 221 666 Q221 649 217 629 Q213 609 200.5 589 Q188 569 166 549.5 Q144 530 108 513 L97 541 Q132 561 149 581.5 Q166 602 171 630 Q159 624 146 624 Q129 624 120 634.5 Q111 645 111 662 Z " />
<glyph glyph-name="quotesinglbase" unicode="&#x201a;" horiz-adv-x="193" d="M-1 19 Q-1 45 16 61.5 Q33 78 62 78 Q88 78 98.5 61.5 Q109 45 109 23 Q109 6 105 -14 Q101 -34 88.5 -54 Q76 -74 54 -93.5 Q32 -113 -4 -130 L-15 -102 Q20 -82 37 -61.5 Q54 -41 59 -13 Q47 -19 34 -19 Q17 -19 8 -8.5 Q-1 2 -1 19 Z " />
<glyph glyph-name="quotedblleft" unicode="&#x201c;" horiz-adv-x="351" d="M208.007 602.04 Q208.007 576.042 191.008 559.543 Q174.009 543.044 145.011 543.044 Q119.012 543.044 108.513 559.543 Q98.0135 576.042 98.0135 598.041 Q98.0135 615.04 102.013 635.038 Q106.013 655.037 118.512 675.036 Q131.011 695.035 153.01 714.534 Q175.009 734.032 211.007 751.031 L222.006 723.033 Q187.008 703.034 170.009 682.535 Q153.01 662.037 148.01 634.038 Q160.01 640.038 173.009 640.038 Q190.008 640.038 199.007 629.539 Q208.007 619.039 208.007 602.04 Z M359.007 602.04 Q359.007 576.042 342.008 559.543 Q325.009 543.044 296.011 543.044 Q270.012 543.044 259.513 559.543 Q249.013 576.042 249.013 598.041 Q249.013 615.04 253.013 635.038 Q257.013 655.037 269.512 675.036 Q282.011 695.035 304.01 714.534 Q326.009 734.032 362.007 751.031 L373.006 723.033 Q338.008 703.034 321.009 682.535 Q304.01 662.037 299.01 634.038 Q311.01 640.038 324.009 640.038 Q341.008 640.038 350.007 629.539 Q359.007 619.039 359.007 602.04 Z " />
<glyph glyph-name="quotedblright" unicode="&#x201d;" horiz-adv-x="352" d="M262 662 Q262 688 279 704.5 Q296 721 325 721 Q351 721 361.5 704.5 Q372 688 372 666 Q372 649 368 629 Q364 609 351.5 589 Q339 569 317 549.5 Q295 530 259 513 L248 541 Q283 561 300 581.5 Q317 602 322 630 Q310 624 297 624 Q280 624 271 634.5 Q262 645 262 662 Z M111 662 Q111 688 128 704.5 Q145 721 174 721 Q200 721 210.5 704.5 Q221 688 221 666 Q221 649 217 629 Q213 609 200.5 589 Q188 569 166 549.5 Q144 530 108 513 L97 541 Q132 561 149 581.5 Q166 602 171 630 Q159 624 146 624 Q129 624 120 634.5 Q111 645 111 662 Z " />
<glyph glyph-name="quotedblbase" unicode="&#x201e;" horiz-adv-x="343" d="M148 19 Q148 45 165 61.5 Q182 78 211 78 Q237 78 247.5 61.5 Q258 45 258 23 Q258 6 254 -14 Q250 -34 237.5 -54 Q225 -74 203 -93.5 Q181 -113 145 -130 L134 -102 Q169 -82 186 -61.5 Q203 -41 208 -13 Q196 -19 183 -19 Q166 -19 157 -8.5 Q148 2 148 19 Z M-1 19 Q-1 45 16 61.5 Q33 78 62 78 Q88 78 98.5 61.5 Q109 45 109 23 Q109 6 105 -14 Q101 -34 88.5 -54 Q76 -74 54 -93.5 Q32 -113 -4 -130 L-15 -102 Q20 -82 37 -61.5 Q54 -41 59 -13 Q47 -19 34 -19 Q17 -19 8 -8.5 Q-1 2 -1 19 Z " />
<glyph glyph-name="dagger" unicode="&#x2020;" horiz-adv-x="487" d="M142 -105 L235 449 L69 449 L80 512 L246 512 L280 719 L347 719 L313 512 L480 512 L469 449 L302 449 L209 -105 L142 -105 Z " />
<glyph glyph-name="daggerdbl" unicode="&#x2021;" horiz-adv-x="486" d="M142 -105 L177 101 L11 101 L21 163 L187 163 L235 449 L69 449 L80 512 L246 512 L280 719 L345 719 L311 512 L478 512 L467 449 L300 449 L252 163 L419 163 L409 101 L242 101 L207 -105 L142 -105 Z " />
<glyph glyph-name="bullet" unicode="&#x2022;" horiz-adv-x="500" d="M139 312 Q139 337 148 358 Q157 379 172.5 394 Q188 409 208.5 417.5 Q229 426 253 426 Q275 426 296 417.5 Q317 409 332.5 394 Q348 379 357.5 358 Q367 337 367 312 Q367 286 358 265 Q349 244 333 229 Q317 214 296.5 205.5 Q276 197 252 197 Q228 197 207.5 205.5 Q187 214 171.5 229.5 Q156 245 147.5 266 Q139 287 139 312 Z " />
<glyph glyph-name="ellipsis" unicode="&#x2026;" horiz-adv-x="770" d="M552 41 Q552 67 568 81.5 Q584 96 609 96 Q634 96 650 82 Q666 68 666 42 Q666 17 650 2.5 Q634 -12 609 -12 Q583 -12 567.5 2.5 Q552 17 552 41 Z M288 41 Q288 67 304 81.5 Q320 96 345 96 Q370 96 386 82 Q402 68 402 42 Q402 17 386 2.5 Q370 -12 345 -12 Q319 -12 303.5 2.5 Q288 17 288 41 Z M25 41 Q25 67 41 81.5 Q57 96 82 96 Q107 96 123 82 Q139 68 139 42 Q139 17 123 2.5 Q107 -12 82 -12 Q56 -12 40.5 2.5 Q25 17 25 41 Z " />
<glyph glyph-name="paragraph" unicode="&#xb6;" horiz-adv-x="525" d="M394 0 L330 0 L442 668 L349 668 L237 0 L173 0 L234 366 Q159 369 120 408.5 Q81 448 81 513 Q81 558 98 596 Q115 634 145 661.5 Q175 689 217 704.5 Q259 720 309 720 L514 720 L394 0 Z " />
<glyph glyph-name="periodcentered" unicode="&#xb7;" horiz-adv-x="274" d="M80 337 Q80 363 96 377.5 Q112 392 137 392 Q162 392 178 378 Q194 364 194 338 Q194 313 178 298.5 Q162 284 137 284 Q111 284 95.5 298.5 Q80 313 80 337 Z " />
<glyph glyph-name="uni00AD" unicode="&#xad;" horiz-adv-x="325" d="M32 310 L291 310 L279 240 L20 240 L32 310 Z " />
<glyph glyph-name="endash" unicode="&#x2013;" horiz-adv-x="485" d="M-1 293 L484 293 L475 237 L-10 237 L-1 293 Z " />
<glyph glyph-name="emdash" unicode="&#x2014;" horiz-adv-x="970" d="M-1 293 L969 293 L960 237 L-10 237 L-1 293 Z " />
<glyph glyph-name="Agrave" unicode="&#xc0;" horiz-adv-x="623" d="M422 720 L557 0 L478 0 L438 206 L157 206 L51 0 L-30 0 L344 720 L422 720 Z M429 273 L369 633 L189 273 L429 273 Z M479 798 L450 755 L284 835 L318 898 L479 798 Z " />
<glyph glyph-name="Aacute" unicode="&#xc1;" horiz-adv-x="623" d="M422 720 L557 0 L478 0 L438 206 L157 206 L51 0 L-30 0 L344 720 L422 720 Z M429 273 L369 633 L189 273 L429 273 Z M477 902 L506 839 L323 755 L298 802 L477 902 Z " />
<glyph glyph-name="Acircumflex" unicode="&#xc2;" horiz-adv-x="623" d="M422 720 L557 0 L478 0 L438 206 L157 206 L51 0 L-30 0 L344 720 L422 720 Z M429 273 L369 633 L189 273 L429 273 Z M443 889 L518 790 L483 759 L406 831 L307 759 L279 790 L391 889 L443 889 Z " />
<glyph glyph-name="Atilde" unicode="&#xc3;" horiz-adv-x="623" d="M422 720 L557 0 L478 0 L438 206 L157 206 L51 0 L-30 0 L344 720 L422 720 Z M429 273 L369 633 L189 273 L429 273 Z M532 857 Q513 815 491.5 798.5 Q470 782 444 782 Q427 782 410.5 787 Q394 792 379 798.5 Q364 805 350.5 810 Q337 815 327 815 Q315 815 306 808 Q297 801 281 779 L244 796 Q267 838 288.5 854.5 Q310 871 334 871 Q350 871 365 866 Q380 861 393.5 854.5 Q407 848 420.5 843 Q434 838 449 838 Q463 838 472.5 845 Q482 852 496 873 L532 857 Z " />
<glyph glyph-name="Adieresis" unicode="&#xc4;" horiz-adv-x="623" d="M422 720 L557 0 L478 0 L438 206 L157 206 L51 0 L-30 0 L344 720 L422 720 Z M429 273 L369 633 L189 273 L429 273 Z M443 815 Q443 836 458.5 851.5 Q474 867 498 867 Q517 867 526.5 856.5 Q536 846 536 829 Q536 809 521 793.5 Q506 778 483 778 Q463 778 453 788.5 Q443 799 443 815 Z M260 815 Q260 836 275.5 851.5 Q291 867 314 867 Q334 867 344 856 Q354 845 354 829 Q354 808 338 793 Q322 778 300 778 Q280 778 270 788.5 Q260 799 260 815 Z " />
<glyph glyph-name="Aring" unicode="&#xc5;" horiz-adv-x="623" d="M304 780 Q304 802 312.5 821.5 Q321 841 336 855 Q351 869 370.5 877 Q390 885 411 885 Q446 885 468 864.5 Q490 844 490 811 Q490 777 471 752 Q452 727 423 716 L557 0 L478 0 L438 206 L157 206 L51 0 L-30 0 L342 716 Q324 724 314 740.5 Q304 757 304 780 Z M429 276 L368 629 L190 276 L429 276 Z M352 786 Q352 750 389 750 Q414 750 428 766 Q442 782 442 806 Q442 841 404 841 Q380 841 366 825.5 Q352 810 352 786 Z " />
<glyph glyph-name="AE" unicode="&#xc6;" horiz-adv-x="945" d="M445 217 L204 217 L53 0 L-34 0 L469 720 L965 720 L954 651 L593 651 L551 403 L880 403 L869 334 L540 334 L495 68 L864 68 L853 0 L409 0 L445 217 Z M457 284 L518 653 L501 653 L247 284 L457 284 Z " />
<glyph glyph-name="Ccedilla" unicode="&#xc7;" horiz-adv-x="633" d="M204 -152 Q217 -157 231.5 -161 Q246 -165 263 -165 Q283 -165 299.5 -157.5 Q316 -150 316 -124 Q316 -107 300.5 -101.5 Q285 -96 256 -96 L241 -96 L272 -11 Q215 -7 174 17 Q133 41 106.5 79.5 Q80 118 67.5 169 Q55 220 55 278 Q55 367 79.5 449.5 Q104 532 151.5 595 Q199 658 268.5 695.5 Q338 733 428 733 Q480 733 521 718.5 Q562 704 589 675.5 Q616 647 627 605.5 Q638 564 631 510 L557 510 Q560 540 555 567.5 Q550 595 533.5 616 Q517 637 488 649.5 Q459 662 415 662 Q351 662 299.5 633.5 Q248 605 212 554.5 Q176 504 157 435.5 Q138 367 138 287 Q138 174 184.5 116 Q231 58 315 58 Q383 58 433.5 84.5 Q484 111 528 148 L563 97 Q510 49 449.5 21 Q389 -7 318 -11 L301 -57 Q314 -57 327 -60 Q340 -63 350 -70 Q360 -77 366 -88 Q372 -99 372 -116 Q372 -164 341.5 -187 Q311 -210 261 -210 Q236 -210 215.5 -204 Q195 -198 187 -193 L204 -152 Z " />
<glyph glyph-name="Egrave" unicode="&#xc8;" horiz-adv-x="567" d="M151 720 L587 720 L577 654 L215 654 L172 401 L502 401 L492 336 L162 336 L117 66 L487 66 L475 0 L31 0 L151 720 Z M465 798 L436 755 L270 835 L304 898 L465 798 Z " />
<glyph glyph-name="Eacute" unicode="&#xc9;" horiz-adv-x="567" d="M151 720 L587 720 L577 654 L215 654 L172 401 L502 401 L492 336 L162 336 L117 66 L487 66 L475 0 L31 0 L151 720 Z M462 902 L491 839 L308 755 L283 802 L462 902 Z " />
<glyph glyph-name="Ecircumflex" unicode="&#xca;" horiz-adv-x="567" d="M151 720 L587 720 L577 654 L215 654 L172 401 L502 401 L492 336 L162 336 L117 66 L487 66 L475 0 L31 0 L151 720 Z M431 889 L506 790 L471 759 L394 831 L295 759 L267 790 L379 889 L431 889 Z " />
<glyph glyph-name="Edieresis" unicode="&#xcb;" horiz-adv-x="567" d="M151 720 L587 720 L577 654 L215 654 L172 401 L502 401 L492 336 L162 336 L117 66 L487 66 L475 0 L31 0 L151 720 Z M440 815 Q440 836 455.5 851.5 Q471 867 495 867 Q514 867 523.5 856.5 Q533 846 533 829 Q533 809 518 793.5 Q503 778 480 778 Q460 778 450 788.5 Q440 799 440 815 Z M257 815 Q257 836 272.5 851.5 Q288 867 311 867 Q331 867 341 856 Q351 845 351 829 Q351 808 335 793 Q319 778 297 778 Q277 778 267 788.5 Q257 799 257 815 Z " />
<glyph glyph-name="Igrave" unicode="&#xcc;" horiz-adv-x="236" d="M151 720 L225 720 L105 0 L31 0 L151 720 Z M273 798 L244 755 L78 835 L112 898 L273 798 Z " />
<glyph glyph-name="Iacute" unicode="&#xcd;" horiz-adv-x="236" d="M151 720 L225 720 L105 0 L31 0 L151 720 Z M276 902 L305 839 L122 755 L97 802 L276 902 Z " />
<glyph glyph-name="Icircumflex" unicode="&#xce;" horiz-adv-x="236" d="M151 720 L225 720 L105 0 L31 0 L151 720 Z M248 889 L323 790 L288 759 L211 831 L112 759 L84 790 L196 889 L248 889 Z " />
<glyph glyph-name="Idieresis" unicode="&#xcf;" horiz-adv-x="236" d="M151 720 L225 720 L105 0 L31 0 L151 720 Z M249 815 Q249 836 264.5 851.5 Q280 867 304 867 Q323 867 332.5 856.5 Q342 846 342 829 Q342 809 327 793.5 Q312 778 289 778 Q269 778 259 788.5 Q249 799 249 815 Z M66 815 Q66 836 81.5 851.5 Q97 867 120 867 Q140 867 150 856 Q160 845 160 829 Q160 808 144 793 Q128 778 106 778 Q86 778 76 788.5 Q66 799 66 815 Z " />
<glyph glyph-name="Eth" unicode="&#xd0;" horiz-adv-x="696" d="M371 720 Q518 720 591.5 655.5 Q665 591 665 456 Q665 433 663.5 410 Q662 387 658 359 Q645 261 612 192.5 Q579 124 527.5 81.5 Q476 39 405 19.5 Q334 0 244 0 L54 0 L110 335 L33 335 L44 396 L120 396 L175 720 L371 720 Z M238 653 L195 396 L384 396 L373 335 L185 335 L140 67 L268 67 Q410 67 483.5 141.5 Q557 216 579 359 Q583 384 585 407 Q587 430 587 451 Q587 550 535 601.5 Q483 653 366 653 L238 653 Z " />
<glyph glyph-name="Ntilde" unicode="&#xd1;" horiz-adv-x="680" d="M151 720 L220 720 L498 139 L595 720 L669 720 L549 0 L482 0 L201 582 L104 0 L31 0 L151 720 Z M571 857 Q552 815 530.5 798.5 Q509 782 483 782 Q466 782 449.5 787 Q433 792 418 798.5 Q403 805 389.5 810 Q376 815 366 815 Q354 815 345 808 Q336 801 320 779 L283 796 Q306 838 327.5 854.5 Q349 871 373 871 Q389 871 404 866 Q419 861 432.5 854.5 Q446 848 459.5 843 Q473 838 488 838 Q502 838 511.5 845 Q521 852 535 873 L571 857 Z " />
<glyph glyph-name="Ograve" unicode="&#xd2;" horiz-adv-x="738" d="M147 368 Q138 317 138 275 Q138 164 187 110.5 Q236 57 329 57 Q438 57 512 131.5 Q586 206 612 368 Q616 389 617.5 409 Q619 429 619 447 Q619 553 571 607.5 Q523 662 431 662 Q319 662 245 586.5 Q171 511 147 368 Z M65 368 Q80 458 113.5 526.5 Q147 595 195 640.5 Q243 686 304.5 709.5 Q366 733 438 733 Q498 733 546.5 715.5 Q595 698 629.5 663.5 Q664 629 682.5 577.5 Q701 526 701 459 Q701 438 699 413.5 Q697 389 693 364 Q678 262 644 190.5 Q610 119 561 74 Q512 29 451 8.5 Q390 -12 321 -12 Q261 -12 212 4.5 Q163 21 128.5 54.5 Q94 88 75.5 140 Q57 192 57 263 Q57 287 58.5 313 Q60 339 65 368 Z M537 798 L508 755 L342 835 L376 898 L537 798 Z " />
<glyph glyph-name="Oacute" unicode="&#xd3;" horiz-adv-x="738" d="M147 368 Q138 317 138 275 Q138 164 187 110.5 Q236 57 329 57 Q438 57 512 131.5 Q586 206 612 368 Q616 389 617.5 409 Q619 429 619 447 Q619 553 571 607.5 Q523 662 431 662 Q319 662 245 586.5 Q171 511 147 368 Z M65 368 Q80 458 113.5 526.5 Q147 595 195 640.5 Q243 686 304.5 709.5 Q366 733 438 733 Q498 733 546.5 715.5 Q595 698 629.5 663.5 Q664 629 682.5 577.5 Q701 526 701 459 Q701 438 699 413.5 Q697 389 693 364 Q678 262 644 190.5 Q610 119 561 74 Q512 29 451 8.5 Q390 -12 321 -12 Q261 -12 212 4.5 Q163 21 128.5 54.5 Q94 88 75.5 140 Q57 192 57 263 Q57 287 58.5 313 Q60 339 65 368 Z M525 902 L554 839 L371 755 L346 802 L525 902 Z " />
<glyph glyph-name="Ocircumflex" unicode="&#xd4;" horiz-adv-x="738" d="M147 368 Q138 317 138 275 Q138 164 187 110.5 Q236 57 329 57 Q438 57 512 131.5 Q586 206 612 368 Q616 389 617.5 409 Q619 429 619 447 Q619 553 571 607.5 Q523 662 431 662 Q319 662 245 586.5 Q171 511 147 368 Z M65 368 Q80 458 113.5 526.5 Q147 595 195 640.5 Q243 686 304.5 709.5 Q366 733 438 733 Q498 733 546.5 715.5 Q595 698 629.5 663.5 Q664 629 682.5 577.5 Q701 526 701 459 Q701 438 699 413.5 Q697 389 693 364 Q678 262 644 190.5 Q610 119 561 74 Q512 29 451 8.5 Q390 -12 321 -12 Q261 -12 212 4.5 Q163 21 128.5 54.5 Q94 88 75.5 140 Q57 192 57 263 Q57 287 58.5 313 Q60 339 65 368 Z M508 889 L583 790 L548 759 L471 831 L372 759 L344 790 L456 889 L508 889 Z " />
<glyph glyph-name="Otilde" unicode="&#xd5;" horiz-adv-x="738" d="M147 368 Q138 317 138 275 Q138 164 187 110.5 Q236 57 329 57 Q438 57 512 131.5 Q586 206 612 368 Q616 389 617.5 409 Q619 429 619 447 Q619 553 571 607.5 Q523 662 431 662 Q319 662 245 586.5 Q171 511 147 368 Z M65 368 Q80 458 113.5 526.5 Q147 595 195 640.5 Q243 686 304.5 709.5 Q366 733 438 733 Q498 733 546.5 715.5 Q595 698 629.5 663.5 Q664 629 682.5 577.5 Q701 526 701 459 Q701 438 699 413.5 Q697 389 693 364 Q678 262 644 190.5 Q610 119 561 74 Q512 29 451 8.5 Q390 -12 321 -12 Q261 -12 212 4.5 Q163 21 128.5 54.5 Q94 88 75.5 140 Q57 192 57 263 Q57 287 58.5 313 Q60 339 65 368 Z M611 857 Q592 815 570.5 798.5 Q549 782 523 782 Q506 782 489.5 787 Q473 792 458 798.5 Q443 805 429.5 810 Q416 815 406 815 Q394 815 385 808 Q376 801 360 779 L323 796 Q346 838 367.5 854.5 Q389 871 413 871 Q429 871 444 866 Q459 861 472.5 854.5 Q486 848 499.5 843 Q513 838 528 838 Q542 838 551.5 845 Q561 852 575 873 L611 857 Z " />
<glyph glyph-name="Odieresis" unicode="&#xd6;" horiz-adv-x="738" d="M147 368 Q138 317 138 275 Q138 164 187 110.5 Q236 57 329 57 Q438 57 512 131.5 Q586 206 612 368 Q616 389 617.5 409 Q619 429 619 447 Q619 553 571 607.5 Q523 662 431 662 Q319 662 245 586.5 Q171 511 147 368 Z M65 368 Q80 458 113.5 526.5 Q147 595 195 640.5 Q243 686 304.5 709.5 Q366 733 438 733 Q498 733 546.5 715.5 Q595 698 629.5 663.5 Q664 629 682.5 577.5 Q701 526 701 459 Q701 438 699 413.5 Q697 389 693 364 Q678 262 644 190.5 Q610 119 561 74 Q512 29 451 8.5 Q390 -12 321 -12 Q261 -12 212 4.5 Q163 21 128.5 54.5 Q94 88 75.5 140 Q57 192 57 263 Q57 287 58.5 313 Q60 339 65 368 Z M515 815 Q515 836 530.5 851.5 Q546 867 570 867 Q589 867 598.5 856.5 Q608 846 608 829 Q608 809 593 793.5 Q578 778 555 778 Q535 778 525 788.5 Q515 799 515 815 Z M332 815 Q332 836 347.5 851.5 Q363 867 386 867 Q406 867 416 856 Q426 845 426 829 Q426 808 410 793 Q394 778 372 778 Q352 778 342 788.5 Q332 799 332 815 Z " />
<glyph glyph-name="Oslash" unicode="&#xd8;" horiz-adv-x="738" d="M65 368 Q80 458 113.5 526.5 Q147 595 195 640.5 Q243 686 304.5 709.5 Q366 733 438 733 Q475 733 513 725 L539 782 L602 782 L568 706 Q631 677 666 615 Q701 553 701 459 Q701 438 699 413.5 Q697 389 693 364 Q678 262 644 190.5 Q610 119 561 74 Q512 29 451 8.5 Q390 -12 321 -12 Q283 -12 246 -4 L215 -73 L152 -73 L191 13 Q128 41 92.5 102.5 Q57 164 57 263 Q57 287 58.5 313 Q60 339 65 368 Z M147 368 Q138 317 138 275 Q138 132 222 82 L482 657 Q470 659 457.5 660.5 Q445 662 431 662 Q319 662 245 586.5 Q171 511 147 368 Z M619 447 Q619 585 536 636 L276 62 Q288 59 301.5 58 Q315 57 329 57 Q438 57 512 131.5 Q586 206 612 368 Q616 389 617.5 409 Q619 429 619 447 Z " />
<glyph glyph-name="Ugrave" unicode="&#xd9;" horiz-adv-x="669" d="M220 720 L146 276 Q140 243 140 214 Q140 134 181.5 94.5 Q223 55 298 55 Q396 55 446 112 Q496 169 514 276 L588 720 L662 720 L587 267 Q564 127 487.5 57.5 Q411 -12 283 -12 Q181 -12 122.5 38 Q64 88 64 194 Q64 211 66 229 Q68 247 71 267 L146 720 L220 720 Z M508 798 L479 755 L313 835 L347 898 L508 798 Z " />
<glyph glyph-name="Uacute" unicode="&#xda;" horiz-adv-x="669" d="M220 720 L146 276 Q140 243 140 214 Q140 134 181.5 94.5 Q223 55 298 55 Q396 55 446 112 Q496 169 514 276 L588 720 L662 720 L587 267 Q564 127 487.5 57.5 Q411 -12 283 -12 Q181 -12 122.5 38 Q64 88 64 194 Q64 211 66 229 Q68 247 71 267 L146 720 L220 720 Z M492 902 L521 839 L338 755 L313 802 L492 902 Z " />
<glyph glyph-name="Ucircumflex" unicode="&#xdb;" horiz-adv-x="669" d="M220 720 L146 276 Q140 243 140 214 Q140 134 181.5 94.5 Q223 55 298 55 Q396 55 446 112 Q496 169 514 276 L588 720 L662 720 L587 267 Q564 127 487.5 57.5 Q411 -12 283 -12 Q181 -12 122.5 38 Q64 88 64 194 Q64 211 66 229 Q68 247 71 267 L146 720 L220 720 Z M458 889 L533 790 L498 759 L421 831 L322 759 L294 790 L406 889 L458 889 Z " />
<glyph glyph-name="Udieresis" unicode="&#xdc;" horiz-adv-x="669" d="M220 720 L146 276 Q140 243 140 214 Q140 134 181.5 94.5 Q223 55 298 55 Q396 55 446 112 Q496 169 514 276 L588 720 L662 720 L587 267 Q564 127 487.5 57.5 Q411 -12 283 -12 Q181 -12 122.5 38 Q64 88 64 194 Q64 211 66 229 Q68 247 71 267 L146 720 L220 720 Z M468 815 Q468 836 483.5 851.5 Q499 867 523 867 Q542 867 551.5 856.5 Q561 846 561 829 Q561 809 546 793.5 Q531 778 508 778 Q488 778 478 788.5 Q468 799 468 815 Z M285 815 Q285 836 300.5 851.5 Q316 867 339 867 Q359 867 369 856 Q379 845 379 829 Q379 808 363 793 Q347 778 325 778 Q305 778 295 788.5 Q285 799 285 815 Z " />
<glyph glyph-name="Yacute" unicode="&#xdd;" horiz-adv-x="545" d="M232 305 L77 720 L161 720 L283 382 L519 720 L602 720 L307 305 L256 0 L181 0 L232 305 Z M430 902 L459 839 L276 755 L251 802 L430 902 Z " />
<glyph glyph-name="Thorn" unicode="&#xde;" horiz-adv-x="577" d="M143 720 L217 720 L198 601 L343 601 Q384 601 420.5 592 Q457 583 484.5 562.5 Q512 542 528 509 Q544 476 544 428 Q544 363 523.5 314 Q503 265 465.5 232.5 Q428 200 375.5 183.5 Q323 167 259 167 L125 167 L97 0 L23 0 L143 720 Z M186 532 L135 230 L264 230 Q369 230 419.5 279 Q470 328 470 416 Q470 474 436 503 Q402 532 327 532 L186 532 Z " />
<glyph glyph-name="germandbls" unicode="&#xdf;" horiz-adv-x="536" d="M113 464 L54 464 L61 510 L122 522 L125 539 Q133 588 154 623.5 Q175 659 204 682 Q233 705 269 716 Q305 727 344 727 Q422 727 461 690.5 Q500 654 500 588 Q500 547 487 511.5 Q474 476 450.5 448.5 Q427 421 394 403 Q361 385 321 378 Q397 367 437 326.5 Q477 286 477 217 Q477 166 461 123.5 Q445 81 416 51 Q387 21 347 4.5 Q307 -12 259 -12 Q232 -12 201.5 -4 Q171 4 154 20 L183 70 Q194 63 214.5 55.5 Q235 48 265 48 Q293 48 318.5 58 Q344 68 363 89 Q382 110 393 141 Q404 172 404 214 Q404 278 362 306.5 Q320 335 247 345 L257 405 Q291 409 322 420.5 Q353 432 376.5 452.5 Q400 473 414 503 Q428 533 428 574 Q428 665 329 665 Q269 665 237 629.5 Q205 594 194 525 L106 0 L35 0 L113 464 Z " />
<glyph glyph-name="agrave" unicode="&#xe0;" horiz-adv-x="567" d="M388 70 Q377 58 359.5 43.5 Q342 29 318.5 17 Q295 5 266.5 -3.5 Q238 -12 205 -12 Q161 -12 129 3.5 Q97 19 76 46.5 Q55 74 45 112.5 Q35 151 35 197 Q35 272 53.5 334.5 Q72 397 106.5 442 Q141 487 190 512 Q239 537 299 537 Q357 537 393 511 Q429 485 451 447 L464 525 L531 525 L443 0 L380 0 L388 70 Z M435 374 Q428 386 416 402.5 Q404 419 387 434 Q370 449 347 459 Q324 469 296 469 Q257 469 223 451 Q189 433 164.5 399 Q140 365 126 316 Q112 267 112 206 Q112 172 118 144 Q124 116 137.5 96 Q151 76 174 65 Q197 54 231 54 Q258 54 282.5 63 Q307 72 328 85.5 Q349 99 366.5 114 Q384 129 396 142 L435 374 Z M436 619 L404 584 L255 707 L305 758 L436 619 Z " />
<glyph glyph-name="aacute" unicode="&#xe1;" horiz-adv-x="567" d="M388 70 Q377 58 359.5 43.5 Q342 29 318.5 17 Q295 5 266.5 -3.5 Q238 -12 205 -12 Q161 -12 129 3.5 Q97 19 76 46.5 Q55 74 45 112.5 Q35 151 35 197 Q35 272 53.5 334.5 Q72 397 106.5 442 Q141 487 190 512 Q239 537 299 537 Q357 537 393 511 Q429 485 451 447 L464 525 L531 525 L443 0 L380 0 L388 70 Z M435 374 Q428 386 416 402.5 Q404 419 387 434 Q370 449 347 459 Q324 469 296 469 Q257 469 223 451 Q189 433 164.5 399 Q140 365 126 316 Q112 267 112 206 Q112 172 118 144 Q124 116 137.5 96 Q151 76 174 65 Q197 54 231 54 Q258 54 282.5 63 Q307 72 328 85.5 Q349 99 366.5 114 Q384 129 396 142 L435 374 Z M417 758 L457 706 L290 584 L258 625 L417 758 Z " />
<glyph glyph-name="acircumflex" unicode="&#xe2;" horiz-adv-x="567" d="M388 70 Q377 58 359.5 43.5 Q342 29 318.5 17 Q295 5 266.5 -3.5 Q238 -12 205 -12 Q161 -12 129 3.5 Q97 19 76 46.5 Q55 74 45 112.5 Q35 151 35 197 Q35 272 53.5 334.5 Q72 397 106.5 442 Q141 487 190 512 Q239 537 299 537 Q357 537 393 511 Q429 485 451 447 L464 525 L531 525 L443 0 L380 0 L388 70 Z M435 374 Q428 386 416 402.5 Q404 419 387 434 Q370 449 347 459 Q324 469 296 469 Q257 469 223 451 Q189 433 164.5 399 Q140 365 126 316 Q112 267 112 206 Q112 172 118 144 Q124 116 137.5 96 Q151 76 174 65 Q197 54 231 54 Q258 54 282.5 63 Q307 72 328 85.5 Q349 99 366.5 114 Q384 129 396 142 L435 374 Z M387 759 L466 611 L425 584 L352 697 L241 585 L208 611 L336 759 L387 759 Z " />
<glyph glyph-name="atilde" unicode="&#xe3;" horiz-adv-x="567" d="M388 70 Q377 58 359.5 43.5 Q342 29 318.5 17 Q295 5 266.5 -3.5 Q238 -12 205 -12 Q161 -12 129 3.5 Q97 19 76 46.5 Q55 74 45 112.5 Q35 151 35 197 Q35 272 53.5 334.5 Q72 397 106.5 442 Q141 487 190 512 Q239 537 299 537 Q357 537 393 511 Q429 485 451 447 L464 525 L531 525 L443 0 L380 0 L388 70 Z M435 374 Q428 386 416 402.5 Q404 419 387 434 Q370 449 347 459 Q324 469 296 469 Q257 469 223 451 Q189 433 164.5 399 Q140 365 126 316 Q112 267 112 206 Q112 172 118 144 Q124 116 137.5 96 Q151 76 174 65 Q197 54 231 54 Q258 54 282.5 63 Q307 72 328 85.5 Q349 99 366.5 114 Q384 129 396 142 L435 374 Z M484 683 Q465 641 443.5 624.5 Q422 608 396 608 Q379 608 362.5 613 Q346 618 331 624.5 Q316 631 302.5 636 Q289 641 279 641 Q267 641 258 634 Q249 627 233 605 L196 622 Q219 664 240.5 680.5 Q262 697 286 697 Q302 697 317 692 Q332 687 345.5 680.5 Q359 674 372.5 669 Q386 664 401 664 Q415 664 424.5 671 Q434 678 448 699 L484 683 Z " />
<glyph glyph-name="adieresis" unicode="&#xe4;" horiz-adv-x="567" d="M388 70 Q377 58 359.5 43.5 Q342 29 318.5 17 Q295 5 266.5 -3.5 Q238 -12 205 -12 Q161 -12 129 3.5 Q97 19 76 46.5 Q55 74 45 112.5 Q35 151 35 197 Q35 272 53.5 334.5 Q72 397 106.5 442 Q141 487 190 512 Q239 537 299 537 Q357 537 393 511 Q429 485 451 447 L464 525 L531 525 L443 0 L380 0 L388 70 Z M435 374 Q428 386 416 402.5 Q404 419 387 434 Q370 449 347 459 Q324 469 296 469 Q257 469 223 451 Q189 433 164.5 399 Q140 365 126 316 Q112 267 112 206 Q112 172 118 144 Q124 116 137.5 96 Q151 76 174 65 Q197 54 231 54 Q258 54 282.5 63 Q307 72 328 85.5 Q349 99 366.5 114 Q384 129 396 142 L435 374 Z M387 646 Q387 667 402 682.5 Q417 698 442 698 Q461 698 470.5 687.5 Q480 677 480 660 Q480 639 465 624 Q450 609 427 609 Q407 609 397 619.5 Q387 630 387 646 Z M204 646 Q204 667 219.5 682.5 Q235 698 258 698 Q278 698 288 687 Q298 676 298 660 Q298 638 282 623.5 Q266 609 244 609 Q224 609 214 619.5 Q204 630 204 646 Z " />
<glyph glyph-name="aring" unicode="&#xe5;" horiz-adv-x="567" d="M388 70 Q377 58 359.5 43.5 Q342 29 318.5 17 Q295 5 266.5 -3.5 Q238 -12 205 -12 Q161 -12 129 3.5 Q97 19 76 46.5 Q55 74 45 112.5 Q35 151 35 197 Q35 272 53.5 334.5 Q72 397 106.5 442 Q141 487 190 512 Q239 537 299 537 Q357 537 393 511 Q429 485 451 447 L464 525 L531 525 L443 0 L380 0 L388 70 Z M435 374 Q428 386 416 402.5 Q404 419 387 434 Q370 449 347 459 Q324 469 296 469 Q257 469 223 451 Q189 433 164.5 399 Q140 365 126 316 Q112 267 112 206 Q112 172 118 144 Q124 116 137.5 96 Q151 76 174 65 Q197 54 231 54 Q258 54 282.5 63 Q307 72 328 85.5 Q349 99 366.5 114 Q384 129 396 142 L435 374 Z M303 655 Q303 619 340 619 Q363 619 377 635 Q391 651 391 674 Q391 708 354 708 Q331 708 317 693 Q303 678 303 655 Z M254 648 Q254 670 262.5 689.5 Q271 709 286 722.5 Q301 736 320.5 744 Q340 752 362 752 Q396 752 417.5 732 Q439 712 439 679 Q439 656 430.5 637 Q422 618 407.5 604.5 Q393 591 373.5 583.5 Q354 576 332 576 Q297 576 275.5 595 Q254 614 254 648 Z " />
<glyph glyph-name="ae" unicode="&#xe6;" horiz-adv-x="868" d="M805 58 Q755 20 706.5 4 Q658 -12 613 -12 Q545 -12 496.5 19.5 Q448 51 431 99 Q377 39 322 13.5 Q267 -12 208 -12 Q164 -12 131.5 3 Q99 18 77.5 45 Q56 72 45.5 109.5 Q35 147 35 193 Q35 268 53.5 331 Q72 394 106.5 439.5 Q141 485 190 511 Q239 537 299 537 Q357 537 393 511 Q429 485 451 447 L464 525 L531 525 L517 439 Q530 460 549.5 477.5 Q569 495 593 508.5 Q617 522 644 529.5 Q671 537 699 537 Q738 537 766.5 526 Q795 515 814.5 496.5 Q834 478 843.5 453.5 Q853 429 853 401 Q853 367 842.5 334 Q832 301 794.5 275 Q757 249 684.5 231.5 Q612 214 488 212 Q488 185 493 157 Q498 129 512.5 105.5 Q527 82 553 67 Q579 52 621 52 Q664 52 699.5 66 Q735 80 778 109 L805 58 Z M435 374 Q428 386 416 402.5 Q404 419 387 434 Q370 449 347 459 Q324 469 296 469 Q257 469 223 451 Q189 433 164.5 399.5 Q140 366 126 318.5 Q112 271 112 211 Q112 181 117.5 152.5 Q123 124 136.5 102.5 Q150 81 173 68 Q196 55 230 55 Q255 55 278.5 63 Q302 71 323 83.5 Q344 96 362.5 112 Q381 128 397 145 L435 374 Z M493 268 Q588 273 645 284 Q702 295 732.5 311 Q763 327 772.5 347.5 Q782 368 782 393 Q782 408 777 422.5 Q772 437 761 448.5 Q750 460 732 467.5 Q714 475 688 475 Q640 475 604.5 453.5 Q569 432 545 400.5 Q521 369 508.5 333 Q496 297 493 268 Z " />
<glyph glyph-name="ccedilla" unicode="&#xe7;" horiz-adv-x="503" d="M123 -150 Q136 -155 151 -159 Q166 -163 183 -163 Q203 -163 218.5 -155.5 Q234 -148 234 -122 Q234 -105 218.5 -99.5 Q203 -94 174 -94 L159 -94 L191 -10 Q116 -1 74.5 56.5 Q33 114 33 211 Q33 239 36 265 Q43 324 64 371 Q85 418 116.5 452 Q148 486 188 507 Q228 528 273 534 Q292 537 314 537 Q404 537 444.5 487 Q485 437 474 346 L406 346 Q408 417 381.5 444.5 Q355 472 301 472 Q265 472 233.5 458 Q202 444 177.5 418 Q153 392 136.5 356 Q120 320 114 275 Q112 262 111 248.5 Q110 235 110 221 Q110 143 141 97.5 Q172 52 239 52 Q250 52 260.5 53 Q271 54 281 56 Q311 61 339 74.5 Q367 88 402 111 L431 62 Q395 33 356 16 Q317 -1 276 -8 Q266 -10 256 -10.5 Q246 -11 236 -12 L220 -55 Q233 -55 245.5 -58 Q258 -61 268 -68 Q278 -75 284.5 -86 Q291 -97 291 -114 Q291 -149 273 -171 Q255 -193 225 -202 Q205 -208 180 -208 Q155 -208 134 -202 Q113 -196 105 -191 L123 -150 Z " />
<glyph glyph-name="egrave" unicode="&#xe8;" horiz-adv-x="491" d="M432 60 Q382 22 330.5 5 Q279 -12 227 -12 Q137 -12 86 41 Q35 94 35 200 Q35 275 56 337 Q77 399 115 443.5 Q153 488 204.5 512.5 Q256 537 318 537 Q358 537 388 526 Q418 515 437.5 496.5 Q457 478 466.5 453.5 Q476 429 476 401 Q476 367 465.5 334.5 Q455 302 417.5 275.5 Q380 249 307.5 232 Q235 215 111 212 Q111 182 116 153 Q121 124 135.5 101.5 Q150 79 176 65.5 Q202 52 244 52 Q287 52 322.5 66.5 Q358 81 401 110 L432 60 Z M116 270 Q209 275 266 285.5 Q323 296 353.5 312 Q384 328 394.5 348 Q405 368 405 393 Q405 408 400 422.5 Q395 437 383 448.5 Q371 460 352 467.5 Q333 475 305 475 Q256 475 221.5 453.5 Q187 432 164.5 400.5 Q142 369 130.5 333.5 Q119 298 116 270 Z M384 619 L352 584 L203 707 L253 758 L384 619 Z " />
<glyph glyph-name="eacute" unicode="&#xe9;" horiz-adv-x="491" d="M432 60 Q382 22 330.5 5 Q279 -12 227 -12 Q137 -12 86 41 Q35 94 35 200 Q35 275 56 337 Q77 399 115 443.5 Q153 488 204.5 512.5 Q256 537 318 537 Q358 537 388 526 Q418 515 437.5 496.5 Q457 478 466.5 453.5 Q476 429 476 401 Q476 367 465.5 334.5 Q455 302 417.5 275.5 Q380 249 307.5 232 Q235 215 111 212 Q111 182 116 153 Q121 124 135.5 101.5 Q150 79 176 65.5 Q202 52 244 52 Q287 52 322.5 66.5 Q358 81 401 110 L432 60 Z M116 270 Q209 275 266 285.5 Q323 296 353.5 312 Q384 328 394.5 348 Q405 368 405 393 Q405 408 400 422.5 Q395 437 383 448.5 Q371 460 352 467.5 Q333 475 305 475 Q256 475 221.5 453.5 Q187 432 164.5 400.5 Q142 369 130.5 333.5 Q119 298 116 270 Z M403 758 L443 706 L276 584 L244 625 L403 758 Z " />
<glyph glyph-name="ecircumflex" unicode="&#xea;" horiz-adv-x="491" d="M432 60 Q382 22 330.5 5 Q279 -12 227 -12 Q137 -12 86 41 Q35 94 35 200 Q35 275 56 337 Q77 399 115 443.5 Q153 488 204.5 512.5 Q256 537 318 537 Q358 537 388 526 Q418 515 437.5 496.5 Q457 478 466.5 453.5 Q476 429 476 401 Q476 367 465.5 334.5 Q455 302 417.5 275.5 Q380 249 307.5 232 Q235 215 111 212 Q111 182 116 153 Q121 124 135.5 101.5 Q150 79 176 65.5 Q202 52 244 52 Q287 52 322.5 66.5 Q358 81 401 110 L432 60 Z M116 270 Q209 275 266 285.5 Q323 296 353.5 312 Q384 328 394.5 348 Q405 368 405 393 Q405 408 400 422.5 Q395 437 383 448.5 Q371 460 352 467.5 Q333 475 305 475 Q256 475 221.5 453.5 Q187 432 164.5 400.5 Q142 369 130.5 333.5 Q119 298 116 270 Z M384 755 L463 607 L422 580 L349 693 L238 581 L205 607 L333 755 L384 755 Z " />
<glyph glyph-name="edieresis" unicode="&#xeb;" horiz-adv-x="491" d="M432 60 Q382 22 330.5 5 Q279 -12 227 -12 Q137 -12 86 41 Q35 94 35 200 Q35 275 56 337 Q77 399 115 443.5 Q153 488 204.5 512.5 Q256 537 318 537 Q358 537 388 526 Q418 515 437.5 496.5 Q457 478 466.5 453.5 Q476 429 476 401 Q476 367 465.5 334.5 Q455 302 417.5 275.5 Q380 249 307.5 232 Q235 215 111 212 Q111 182 116 153 Q121 124 135.5 101.5 Q150 79 176 65.5 Q202 52 244 52 Q287 52 322.5 66.5 Q358 81 401 110 L432 60 Z M116 270 Q209 275 266 285.5 Q323 296 353.5 312 Q384 328 394.5 348 Q405 368 405 393 Q405 408 400 422.5 Q395 437 383 448.5 Q371 460 352 467.5 Q333 475 305 475 Q256 475 221.5 453.5 Q187 432 164.5 400.5 Q142 369 130.5 333.5 Q119 298 116 270 Z M385 646 Q385 667 400 682.5 Q415 698 440 698 Q459 698 468.5 687.5 Q478 677 478 660 Q478 639 463 624 Q448 609 425 609 Q405 609 395 619.5 Q385 630 385 646 Z M202 646 Q202 667 217.5 682.5 Q233 698 256 698 Q276 698 286 687 Q296 676 296 660 Q296 638 280 623.5 Q264 609 242 609 Q222 609 212 619.5 Q202 630 202 646 Z " />
<glyph glyph-name="igrave" unicode="&#xec;" horiz-adv-x="226" d="M226 619 L194 584 L45 707 L95 758 L226 619 Z M98 0 L28 0 L116 525 L186 525 L98 0 Z " />
<glyph glyph-name="iacute" unicode="&#xed;" horiz-adv-x="226" d="M257 758 L297 706 L130 584 L98 625 L257 758 Z M98 0 L28 0 L116 525 L186 525 L98 0 Z " />
<glyph glyph-name="icircumflex" unicode="&#xee;" horiz-adv-x="226" d="M98 0 L28 0 L116 525 L186 525 L98 0 Z M218 755 L297 607 L256 580 L183 693 L72 581 L39 607 L167 755 L218 755 Z " />
<glyph glyph-name="idieresis" unicode="&#xef;" horiz-adv-x="226" d="M221 646 Q221 667 236 682.5 Q251 698 276 698 Q295 698 304.5 687.5 Q314 677 314 660 Q314 639 299 624 Q284 609 261 609 Q241 609 231 619.5 Q221 630 221 646 Z M38 646 Q38 667 53.5 682.5 Q69 698 92 698 Q112 698 122 687 Q132 676 132 660 Q132 638 116 623.5 Q100 609 78 609 Q58 609 48 619.5 Q38 630 38 646 Z M98 0 L28 0 L116 525 L186 525 L98 0 Z " />
<glyph glyph-name="eth" unicode="&#xf0;" horiz-adv-x="515" d="M241 557 L322 607 Q274 648 195 666 L222 722 Q320 703 382 645 L476 703 L500 656 L417 605 Q444 567 458 509 Q472 451 472 383 Q472 298 453.5 225.5 Q435 153 399.5 100.5 Q364 48 312 18 Q260 -12 193 -12 Q111 -12 66.5 35.5 Q22 83 22 167 Q22 220 38 269 Q54 318 84 355.5 Q114 393 157.5 415 Q201 437 255 437 Q307 437 343.5 416.5 Q380 396 404 361 Q408 424 397.5 476 Q387 528 358 568 L265 511 L241 557 Z M204 52 Q272 52 322.5 110 Q373 168 393 293 Q384 305 371 319.5 Q358 334 341.5 346 Q325 358 304.5 366 Q284 374 258 374 Q227 374 197.5 362 Q168 350 145 326 Q122 302 108 265 Q94 228 94 178 Q94 114 125 83 Q156 52 204 52 Z " />
<glyph glyph-name="ntilde" unicode="&#xf1;" horiz-adv-x="540" d="M177 525 L164 446 Q201 485 248 511 Q295 537 348 537 Q420 537 449.5 500.5 Q479 464 479 403 Q479 373 473 340 L416 0 L344 0 L398 325 Q400 340 401.5 355 Q403 370 403 392 Q403 428 385 450 Q367 472 325 472 Q298 472 272.5 461.5 Q247 451 224.5 437 Q202 423 184.5 407 Q167 391 157 381 L93 0 L22 0 L110 525 L177 525 Z M464 683 Q445 641 423.5 624.5 Q402 608 376 608 Q359 608 342.5 613 Q326 618 311 624.5 Q296 631 282.5 636 Q269 641 259 641 Q247 641 238 634 Q229 627 213 605 L176 622 Q199 664 220.5 680.5 Q242 697 266 697 Q282 697 297 692 Q312 687 325.5 680.5 Q339 674 352.5 669 Q366 664 381 664 Q395 664 404.5 671 Q414 678 428 699 L464 683 Z " />
<glyph glyph-name="ograve" unicode="&#xf2;" horiz-adv-x="559" d="M112 262 Q110 245 109 230 Q108 215 108 201 Q108 121 142 86.5 Q176 52 235 52 Q269 52 300 64.5 Q331 77 356 103 Q381 129 399.5 168.5 Q418 208 427 262 Q430 278 431 292.5 Q432 307 432 321 Q432 398 398 436 Q364 474 305 474 Q270 474 238.5 460.5 Q207 447 181.5 420 Q156 393 138 353.5 Q120 314 112 262 Z M37 263 Q60 394 133 465.5 Q206 537 320 537 Q412 537 460 484.5 Q508 432 508 333 Q508 316 506.5 296.5 Q505 277 502 258 Q482 126 407.5 57 Q333 -12 223 -12 Q129 -12 80.5 40.5 Q32 93 32 190 Q32 207 33 225.5 Q34 244 37 263 Z M399 619 L367 584 L218 707 L268 758 L399 619 Z " />
<glyph glyph-name="oacute" unicode="&#xf3;" horiz-adv-x="559" d="M112 262 Q110 245 109 230 Q108 215 108 201 Q108 121 142 86.5 Q176 52 235 52 Q269 52 300 64.5 Q331 77 356 103 Q381 129 399.5 168.5 Q418 208 427 262 Q430 278 431 292.5 Q432 307 432 321 Q432 398 398 436 Q364 474 305 474 Q270 474 238.5 460.5 Q207 447 181.5 420 Q156 393 138 353.5 Q120 314 112 262 Z M37 263 Q60 394 133 465.5 Q206 537 320 537 Q412 537 460 484.5 Q508 432 508 333 Q508 316 506.5 296.5 Q505 277 502 258 Q482 126 407.5 57 Q333 -12 223 -12 Q129 -12 80.5 40.5 Q32 93 32 190 Q32 207 33 225.5 Q34 244 37 263 Z M424 758 L464 706 L297 584 L265 625 L424 758 Z " />
<glyph glyph-name="ocircumflex" unicode="&#xf4;" horiz-adv-x="559" d="M112 262 Q110 245 109 230 Q108 215 108 201 Q108 121 142 86.5 Q176 52 235 52 Q269 52 300 64.5 Q331 77 356 103 Q381 129 399.5 168.5 Q418 208 427 262 Q430 278 431 292.5 Q432 307 432 321 Q432 398 398 436 Q364 474 305 474 Q270 474 238.5 460.5 Q207 447 181.5 420 Q156 393 138 353.5 Q120 314 112 262 Z M37 263 Q60 394 133 465.5 Q206 537 320 537 Q412 537 460 484.5 Q508 432 508 333 Q508 316 506.5 296.5 Q505 277 502 258 Q482 126 407.5 57 Q333 -12 223 -12 Q129 -12 80.5 40.5 Q32 93 32 190 Q32 207 33 225.5 Q34 244 37 263 Z M380 755 L459 607 L418 580 L345 693 L234 581 L201 607 L329 755 L380 755 Z " />
<glyph glyph-name="otilde" unicode="&#xf5;" horiz-adv-x="559" d="M112 262 Q110 245 109 230 Q108 215 108 201 Q108 121 142 86.5 Q176 52 235 52 Q269 52 300 64.5 Q331 77 356 103 Q381 129 399.5 168.5 Q418 208 427 262 Q430 278 431 292.5 Q432 307 432 321 Q432 398 398 436 Q364 474 305 474 Q270 474 238.5 460.5 Q207 447 181.5 420 Q156 393 138 353.5 Q120 314 112 262 Z M37 263 Q60 394 133 465.5 Q206 537 320 537 Q412 537 460 484.5 Q508 432 508 333 Q508 316 506.5 296.5 Q505 277 502 258 Q482 126 407.5 57 Q333 -12 223 -12 Q129 -12 80.5 40.5 Q32 93 32 190 Q32 207 33 225.5 Q34 244 37 263 Z M484 683 Q465 641 443.5 624.5 Q422 608 396 608 Q379 608 362.5 613 Q346 618 331 624.5 Q316 631 302.5 636 Q289 641 279 641 Q267 641 258 634 Q249 627 233 605 L196 622 Q219 664 240.5 680.5 Q262 697 286 697 Q302 697 317 692 Q332 687 345.5 680.5 Q359 674 372.5 669 Q386 664 401 664 Q415 664 424.5 671 Q434 678 448 699 L484 683 Z " />
<glyph glyph-name="odieresis" unicode="&#xf6;" horiz-adv-x="559" d="M112 262 Q110 245 109 230 Q108 215 108 201 Q108 121 142 86.5 Q176 52 235 52 Q269 52 300 64.5 Q331 77 356 103 Q381 129 399.5 168.5 Q418 208 427 262 Q430 278 431 292.5 Q432 307 432 321 Q432 398 398 436 Q364 474 305 474 Q270 474 238.5 460.5 Q207 447 181.5 420 Q156 393 138 353.5 Q120 314 112 262 Z M37 263 Q60 394 133 465.5 Q206 537 320 537 Q412 537 460 484.5 Q508 432 508 333 Q508 316 506.5 296.5 Q505 277 502 258 Q482 126 407.5 57 Q333 -12 223 -12 Q129 -12 80.5 40.5 Q32 93 32 190 Q32 207 33 225.5 Q34 244 37 263 Z M386 646 Q386 667 401 682.5 Q416 698 441 698 Q460 698 469.5 687.5 Q479 677 479 660 Q479 639 464 624 Q449 609 426 609 Q406 609 396 619.5 Q386 630 386 646 Z M203 646 Q203 667 218.5 682.5 Q234 698 257 698 Q277 698 287 687 Q297 676 297 660 Q297 638 281 623.5 Q265 609 243 609 Q223 609 213 619.5 Q203 630 203 646 Z " />
<glyph glyph-name="oslash" unicode="&#xf8;" horiz-adv-x="559" d="M37 263 Q60 394 133 465.5 Q206 537 320 537 Q345 537 364 533 L392 593 L456 593 L419 515 Q508 467 508 333 Q508 316 506.5 296.5 Q505 277 502 258 Q482 126 407.5 57 Q333 -12 223 -12 Q210 -12 198.5 -11 Q187 -10 176 -8 L146 -74 L83 -74 L122 10 Q77 33 54.5 78.5 Q32 124 32 190 Q32 207 33 225.5 Q34 244 37 263 Z M112 262 Q110 245 109 230 Q108 215 108 201 Q108 154 119.5 123.5 Q131 93 153 76 L335 471 Q321 474 305 474 Q270 474 238.5 460.5 Q207 447 181.5 420 Q156 393 138 353.5 Q120 314 112 262 Z M432 321 Q432 407 387 446 L205 54 Q213 53 220 52.5 Q227 52 235 52 Q269 52 300 64.5 Q331 77 356 103 Q381 129 399.5 168.5 Q418 208 427 262 Q430 278 431 292.5 Q432 307 432 321 Z " />
<glyph glyph-name="ugrave" unicode="&#xf9;" horiz-adv-x="533" d="M343 0 L356 78 Q341 62 321.5 46 Q302 30 279 17 Q256 4 229 -4 Q202 -12 172 -12 Q135 -12 110 -2.5 Q85 7 69.5 23.5 Q54 40 47.5 63.5 Q41 87 41 114 Q41 128 43 143 Q45 158 47 174 L106 525 L178 525 L122 191 Q120 177 118.5 159 Q117 141 117 130 Q117 88 133 70.5 Q149 53 195 53 Q219 53 242.5 61 Q266 69 287.5 81.5 Q309 94 328 110 Q347 126 362 142 L426 525 L497 525 L409 0 L343 0 Z M388 619 L356 584 L207 707 L257 758 L388 619 Z " />
<glyph glyph-name="uacute" unicode="&#xfa;" horiz-adv-x="533" d="M343 0 L356 78 Q341 62 321.5 46 Q302 30 279 17 Q256 4 229 -4 Q202 -12 172 -12 Q135 -12 110 -2.5 Q85 7 69.5 23.5 Q54 40 47.5 63.5 Q41 87 41 114 Q41 128 43 143 Q45 158 47 174 L106 525 L178 525 L122 191 Q120 177 118.5 159 Q117 141 117 130 Q117 88 133 70.5 Q149 53 195 53 Q219 53 242.5 61 Q266 69 287.5 81.5 Q309 94 328 110 Q347 126 362 142 L426 525 L497 525 L409 0 L343 0 Z M424 758 L464 706 L297 584 L265 625 L424 758 Z " />
<glyph glyph-name="ucircumflex" unicode="&#xfb;" horiz-adv-x="533" d="M343 0 L356 78 Q341 62 321.5 46 Q302 30 279 17 Q256 4 229 -4 Q202 -12 172 -12 Q135 -12 110 -2.5 Q85 7 69.5 23.5 Q54 40 47.5 63.5 Q41 87 41 114 Q41 128 43 143 Q45 158 47 174 L106 525 L178 525 L122 191 Q120 177 118.5 159 Q117 141 117 130 Q117 88 133 70.5 Q149 53 195 53 Q219 53 242.5 61 Q266 69 287.5 81.5 Q309 94 328 110 Q347 126 362 142 L426 525 L497 525 L409 0 L343 0 Z M366 755 L445 607 L404 580 L331 693 L220 581 L187 607 L315 755 L366 755 Z " />
<glyph glyph-name="udieresis" unicode="&#xfc;" horiz-adv-x="533" d="M343 0 L356 78 Q341 62 321.5 46 Q302 30 279 17 Q256 4 229 -4 Q202 -12 172 -12 Q135 -12 110 -2.5 Q85 7 69.5 23.5 Q54 40 47.5 63.5 Q41 87 41 114 Q41 128 43 143 Q45 158 47 174 L106 525 L178 525 L122 191 Q120 177 118.5 159 Q117 141 117 130 Q117 88 133 70.5 Q149 53 195 53 Q219 53 242.5 61 Q266 69 287.5 81.5 Q309 94 328 110 Q347 126 362 142 L426 525 L497 525 L409 0 L343 0 Z M376 646 Q376 667 391 682.5 Q406 698 431 698 Q450 698 459.5 687.5 Q469 677 469 660 Q469 639 454 624 Q439 609 416 609 Q396 609 386 619.5 Q376 630 376 646 Z M193 646 Q193 667 208.5 682.5 Q224 698 247 698 Q267 698 277 687 Q287 676 287 660 Q287 638 271 623.5 Q255 609 233 609 Q213 609 203 619.5 Q193 630 193 646 Z " />
<glyph glyph-name="yacute" unicode="&#xfd;" horiz-adv-x="459" d="M479 525 L205 -20 Q181 -68 162 -102.5 Q143 -137 122.5 -159 Q102 -181 77.5 -191.5 Q53 -202 18 -202 Q-8 -202 -27 -199 Q-46 -196 -66 -190 L-48 -135 Q-37 -137 -20 -140 Q-3 -143 19 -143 Q34 -143 47 -138.5 Q60 -134 72 -122.5 Q84 -111 96.5 -90.5 Q109 -70 125 -38 L143 0 L50 525 L125 525 L193 92 L403 525 L479 525 Z M365 758 L405 706 L238 584 L206 625 L365 758 Z " />
<glyph glyph-name="thorn" unicode="&#xfe;" horiz-adv-x="560" d="M111 134 Q118 121 130 106.5 Q142 92 159 79.5 Q176 67 198.5 59 Q221 51 248 51 Q292 51 327 70 Q362 89 386.5 124 Q411 159 424 208.5 Q437 258 437 320 Q437 394 408.5 433.5 Q380 473 323 473 Q271 473 229 444.5 Q187 416 152 378 L111 134 Z M-15 -200 L138 720 L208 720 L162 444 Q202 486 249.5 511.5 Q297 537 352 537 Q434 537 473.5 482.5 Q513 428 513 334 Q513 262 496.5 199 Q480 136 447 89 Q414 42 364.5 15 Q315 -12 249 -12 Q216 -12 190.5 -3.5 Q165 5 147 17 Q129 29 117.5 42.5 Q106 56 100 66 L56 -200 L-15 -200 Z " />
<glyph glyph-name="ydieresis" unicode="&#xff;" horiz-adv-x="459" d="M479 525 L205 -20 Q181 -68 162 -102.5 Q143 -137 122.5 -159 Q102 -181 77.5 -191.5 Q53 -202 18 -202 Q-8 -202 -27 -199 Q-46 -196 -66 -190 L-48 -135 Q-37 -137 -20 -140 Q-3 -143 19 -143 Q34 -143 47 -138.5 Q60 -134 72 -122.5 Q84 -111 96.5 -90.5 Q109 -70 125 -38 L143 0 L50 525 L125 525 L193 92 L403 525 L479 525 Z M338 646 Q338 667 353 682.5 Q368 698 393 698 Q412 698 421.5 687.5 Q431 677 431 660 Q431 639 416 624 Q401 609 378 609 Q358 609 348 619.5 Q338 630 338 646 Z M155 646 Q155 667 170.5 682.5 Q186 698 209 698 Q229 698 239 687 Q249 676 249 660 Q249 638 233 623.5 Q217 609 195 609 Q175 609 165 619.5 Q155 630 155 646 Z " />
<glyph glyph-name="Amacron" unicode="&#x100;" horiz-adv-x="623" d="M422 720 L557 0 L478 0 L438 206 L157 206 L51 0 L-30 0 L344 720 L422 720 Z M429 273 L369 633 L189 273 L429 273 Z M271 847 L536 847 L526 790 L261 790 L271 847 Z " />
<glyph glyph-name="amacron" unicode="&#x101;" horiz-adv-x="567" d="M388 70 Q377 58 359.5 43.5 Q342 29 318.5 17 Q295 5 266.5 -3.5 Q238 -12 205 -12 Q161 -12 129 3.5 Q97 19 76 46.5 Q55 74 45 112.5 Q35 151 35 197 Q35 272 53.5 334.5 Q72 397 106.5 442 Q141 487 190 512 Q239 537 299 537 Q357 537 393 511 Q429 485 451 447 L464 525 L531 525 L443 0 L380 0 L388 70 Z M435 374 Q428 386 416 402.5 Q404 419 387 434 Q370 449 347 459 Q324 469 296 469 Q257 469 223 451 Q189 433 164.5 399 Q140 365 126 316 Q112 267 112 206 Q112 172 118 144 Q124 116 137.5 96 Q151 76 174 65 Q197 54 231 54 Q258 54 282.5 63 Q307 72 328 85.5 Q349 99 366.5 114 Q384 129 396 142 L435 374 Z M220 679 L485 679 L475 621 L210 621 L220 679 Z " />
<glyph glyph-name="Abreve" unicode="&#x102;" horiz-adv-x="623" d="M422 720 L557 0 L478 0 L438 206 L157 206 L51 0 L-30 0 L344 720 L422 720 Z M429 273 L369 633 L189 273 L429 273 Z M391 821 Q438 821 461 844.5 Q484 868 495 906 L546 897 Q531 836 491.5 803 Q452 770 389 770 Q324 770 295.5 799 Q267 828 265 885 L318 895 Q320 857 334 839 Q348 821 391 821 Z " />
<glyph glyph-name="abreve" unicode="&#x103;" horiz-adv-x="567" d="M388 70 Q377 58 359.5 43.5 Q342 29 318.5 17 Q295 5 266.5 -3.5 Q238 -12 205 -12 Q161 -12 129 3.5 Q97 19 76 46.5 Q55 74 45 112.5 Q35 151 35 197 Q35 272 53.5 334.5 Q72 397 106.5 442 Q141 487 190 512 Q239 537 299 537 Q357 537 393 511 Q429 485 451 447 L464 525 L531 525 L443 0 L380 0 L388 70 Z M435 374 Q428 386 416 402.5 Q404 419 387 434 Q370 449 347 459 Q324 469 296 469 Q257 469 223 451 Q189 433 164.5 399 Q140 365 126 316 Q112 267 112 206 Q112 172 118 144 Q124 116 137.5 96 Q151 76 174 65 Q197 54 231 54 Q258 54 282.5 63 Q307 72 328 85.5 Q349 99 366.5 114 Q384 129 396 142 L435 374 Z M352 646 Q398 646 420.5 671 Q443 696 454 735 L504 726 Q489 661 450 628 Q411 595 345 595 Q282 595 254 627 Q226 659 224 719 L277 729 Q279 690 293 668 Q307 646 352 646 Z " />
<glyph glyph-name="Aogonek" unicode="&#x104;" horiz-adv-x="624" d="M422 720 L557 0 Q505 -38 476 -72 Q447 -106 447 -138 Q447 -165 480 -165 Q495 -165 509 -160 Q523 -155 537 -148 L548 -193 Q530 -204 504 -213.5 Q478 -223 450 -223 Q413 -223 395 -205.5 Q377 -188 377 -160 Q377 -138 386 -116.5 Q395 -95 410 -74.5 Q425 -54 444.5 -35.5 Q464 -17 485 0 L472 26 L438 206 L157 206 L51 0 L-30 0 L344 720 L422 720 Z M429 276 L368 629 L190 276 L429 276 Z " />
<glyph glyph-name="aogonek" unicode="&#x105;" horiz-adv-x="567" d="M443 0 Q395 -38 366.5 -72 Q338 -106 338 -138 Q338 -166 371 -166 Q386 -166 399.5 -162 Q413 -158 428 -151 L440 -193 Q421 -204 395.5 -213.5 Q370 -223 342 -223 Q304 -223 286 -205.5 Q268 -188 268 -160 Q268 -137 277.5 -115 Q287 -93 302.5 -73 Q318 -53 338 -34 Q358 -15 380 2 L388 70 Q371 52 340.5 30 Q310 8 267 -4 Q237 -12 205 -12 Q161 -12 129 3.5 Q97 19 76 46.5 Q55 74 45 112.5 Q35 151 35 197 Q35 214 36 229.5 Q37 245 39 261 Q46 315 63.5 360.5 Q81 406 107.5 441.5 Q134 477 169.5 500 Q205 523 248 532 Q260 534 272.5 535.5 Q285 537 299 537 Q357 537 393 511 Q429 485 451 447 L464 525 L531 525 L443 0 Z M435 374 Q428 386 416 402.5 Q404 419 387 434 Q370 449 347 459 Q324 469 296 469 Q230 469 182 420 Q134 371 118 282 Q112 246 112 206 Q112 172 118 144 Q124 116 137.5 96 Q151 76 174 65 Q197 54 231 54 Q258 54 282.5 63 Q307 72 328 85.5 Q349 99 366.5 114 Q384 129 396 142 L435 374 Z " />
<glyph glyph-name="Cacute" unicode="&#x106;" horiz-adv-x="633" d="M566 96 Q510 45 443 16.5 Q376 -12 299 -12 Q235 -12 189 10.5 Q143 33 113.5 72 Q84 111 70 164 Q56 217 56 278 Q56 367 80.5 449.5 Q105 532 152.5 595 Q200 658 269 695.5 Q338 733 428 733 Q480 733 521 718.5 Q562 704 589 675.5 Q616 647 627 605.5 Q638 564 631 510 L557 510 Q560 544 555 572 Q550 600 533.5 620 Q517 640 488 651 Q459 662 415 662 Q351 662 299.5 633.5 Q248 605 212 554.5 Q176 504 157 435.5 Q138 367 138 287 Q138 174 184.5 116 Q231 58 315 58 Q383 58 433.5 84.5 Q484 111 528 148 L566 96 Z M512 902 L541 839 L358 755 L333 802 L512 902 Z " />
<glyph glyph-name="cacute" unicode="&#x107;" horiz-adv-x="503" d="M431 62 Q382 24 328 6 Q274 -12 220 -12 Q131 -12 82 46.5 Q33 105 33 211 Q33 289 55 349.5 Q77 410 115 452 Q153 494 203.5 515.5 Q254 537 311 537 Q401 537 443 487 Q485 437 474 346 L406 346 Q408 417 382.5 445.5 Q357 474 303 474 Q261 474 225.5 455.5 Q190 437 164.5 403.5 Q139 370 124.5 323.5 Q110 277 110 221 Q110 143 141 97.5 Q172 52 239 52 Q262 52 281.5 55.5 Q301 59 320 66.5 Q339 74 358.5 85 Q378 96 402 111 L431 62 Z M424 758 L464 706 L297 584 L265 625 L424 758 Z " />
<glyph glyph-name="Ccircumflex" unicode="&#x108;" horiz-adv-x="633" d="M566 96 Q510 45 443 16.5 Q376 -12 299 -12 Q235 -12 189 10.5 Q143 33 113.5 72 Q84 111 70 164 Q56 217 56 278 Q56 367 80.5 449.5 Q105 532 152.5 595 Q200 658 269 695.5 Q338 733 428 733 Q480 733 521 718.5 Q562 704 589 675.5 Q616 647 627 605.5 Q638 564 631 510 L557 510 Q560 544 555 572 Q550 600 533.5 620 Q517 640 488 651 Q459 662 415 662 Q351 662 299.5 633.5 Q248 605 212 554.5 Q176 504 157 435.5 Q138 367 138 287 Q138 174 184.5 116 Q231 58 315 58 Q383 58 433.5 84.5 Q484 111 528 148 L566 96 Z M490 889 L565 790 L530 759 L453 831 L354 759 L326 790 L438 889 L490 889 Z " />
<glyph glyph-name="ccircumflex" unicode="&#x109;" horiz-adv-x="503" d="M431 62 Q382 24 328 6 Q274 -12 220 -12 Q131 -12 82 46.5 Q33 105 33 211 Q33 289 55 349.5 Q77 410 115 452 Q153 494 203.5 515.5 Q254 537 311 537 Q401 537 443 487 Q485 437 474 346 L406 346 Q408 417 382.5 445.5 Q357 474 303 474 Q261 474 225.5 455.5 Q190 437 164.5 403.5 Q139 370 124.5 323.5 Q110 277 110 221 Q110 143 141 97.5 Q172 52 239 52 Q262 52 281.5 55.5 Q301 59 320 66.5 Q339 74 358.5 85 Q378 96 402 111 L431 62 Z M380 755 L459 607 L418 580 L345 693 L234 581 L201 607 L329 755 L380 755 Z " />
<glyph glyph-name="Cdotaccent" unicode="&#x10a;" horiz-adv-x="633" d="M566 96 Q510 45 443 16.5 Q376 -12 299 -12 Q235 -12 189 10.5 Q143 33 113.5 72 Q84 111 70 164 Q56 217 56 278 Q56 367 80.5 449.5 Q105 532 152.5 595 Q200 658 269 695.5 Q338 733 428 733 Q480 733 521 718.5 Q562 704 589 675.5 Q616 647 627 605.5 Q638 564 631 510 L557 510 Q560 544 555 572 Q550 600 533.5 620 Q517 640 488 651 Q459 662 415 662 Q351 662 299.5 633.5 Q248 605 212 554.5 Q176 504 157 435.5 Q138 367 138 287 Q138 174 184.5 116 Q231 58 315 58 Q383 58 433.5 84.5 Q484 111 528 148 L566 96 Z M387 814 Q387 838 404 852 Q421 866 444 866 Q463 866 474 856 Q485 846 485 828 Q485 805 468.5 790.5 Q452 776 429 776 Q410 776 398.5 786.5 Q387 797 387 814 Z " />
<glyph glyph-name="cdotaccent" unicode="&#x10b;" horiz-adv-x="503" d="M431 62 Q382 24 328 6 Q274 -12 220 -12 Q131 -12 82 46.5 Q33 105 33 211 Q33 289 55 349.5 Q77 410 115 452 Q153 494 203.5 515.5 Q254 537 311 537 Q401 537 443 487 Q485 437 474 346 L406 346 Q408 417 382.5 445.5 Q357 474 303 474 Q261 474 225.5 455.5 Q190 437 164.5 403.5 Q139 370 124.5 323.5 Q110 277 110 221 Q110 143 141 97.5 Q172 52 239 52 Q262 52 281.5 55.5 Q301 59 320 66.5 Q339 74 358.5 85 Q378 96 402 111 L431 62 Z M285 661 Q285 684 302 698.5 Q319 713 342 713 Q361 713 372 702.5 Q383 692 383 674 Q383 651 366.5 637 Q350 623 327 623 Q308 623 296.5 633.5 Q285 644 285 661 Z " />
<glyph glyph-name="Ccaron" unicode="&#x10c;" horiz-adv-x="633" d="M566 96 Q510 45 443 16.5 Q376 -12 299 -12 Q235 -12 189 10.5 Q143 33 113.5 72 Q84 111 70 164 Q56 217 56 278 Q56 367 80.5 449.5 Q105 532 152.5 595 Q200 658 269 695.5 Q338 733 428 733 Q480 733 521 718.5 Q562 704 589 675.5 Q616 647 627 605.5 Q638 564 631 510 L557 510 Q560 544 555 572 Q550 600 533.5 620 Q517 640 488 651 Q459 662 415 662 Q351 662 299.5 633.5 Q248 605 212 554.5 Q176 504 157 435.5 Q138 367 138 287 Q138 174 184.5 116 Q231 58 315 58 Q383 58 433.5 84.5 Q484 111 528 148 L566 96 Z M405 766 L328 865 L366 897 L441 824 L542 896 L566 865 L458 766 L405 766 Z " />
<glyph glyph-name="ccaron" unicode="&#x10d;" horiz-adv-x="503" d="M431 62 Q382 24 328 6 Q274 -12 220 -12 Q131 -12 82 46.5 Q33 105 33 211 Q33 289 55 349.5 Q77 410 115 452 Q153 494 203.5 515.5 Q254 537 311 537 Q401 537 443 487 Q485 437 474 346 L406 346 Q408 417 382.5 445.5 Q357 474 303 474 Q261 474 225.5 455.5 Q190 437 164.5 403.5 Q139 370 124.5 323.5 Q110 277 110 221 Q110 143 141 97.5 Q172 52 239 52 Q262 52 281.5 55.5 Q301 59 320 66.5 Q339 74 358.5 85 Q378 96 402 111 L431 62 Z M300 586 L221 734 L264 760 L336 648 L448 762 L480 734 L351 586 L300 586 Z " />
<glyph glyph-name="Dcaron" unicode="&#x10e;" horiz-adv-x="675" d="M214 653 L116 67 L244 67 Q386 67 459.5 141.5 Q533 216 555 359 Q559 384 561 407 Q563 430 563 451 Q563 550 511 601.5 Q459 653 342 653 L214 653 Z M347 720 Q494 720 567.5 655.5 Q641 591 641 456 Q641 433 639.5 410 Q638 387 634 359 Q621 261 588 192.5 Q555 124 503.5 81.5 Q452 39 381 19.5 Q310 0 220 0 L30 0 L151 720 L347 720 Z M333 766 L256 865 L294 897 L369 824 L470 896 L494 865 L386 766 L333 766 Z " />
<glyph glyph-name="dcaron" unicode="&#x10f;" horiz-adv-x="609" d="M388 73 Q377 61 359.5 46 Q342 31 318.5 18.5 Q295 6 266.5 -3 Q238 -12 205 -12 Q161 -12 129 3.5 Q97 19 76 47 Q55 75 45 113.5 Q35 152 35 198 Q35 273 53.5 335 Q72 397 106.5 442 Q141 487 190 512 Q239 537 299 537 Q357 537 391.5 512.5 Q426 488 448 453 L492 720 L563 720 L443 0 L380 0 L388 73 Z M435 374 Q428 386 416 402.5 Q404 419 387 434 Q370 449 347 459 Q324 469 296 469 Q257 469 223 451 Q189 433 164.5 399.5 Q140 366 126 318.5 Q112 271 112 211 Q112 139 138.5 96.5 Q165 54 233 54 Q260 54 284 63 Q308 72 329 85.5 Q350 99 367 114 Q384 129 396 142 L435 374 Z M666 720 L739 720 L659 535 L603 535 L666 720 Z " />
<glyph glyph-name="Dcroat" unicode="&#x110;" horiz-adv-x="696" d="M371 720 Q518 720 591.5 655.5 Q665 591 665 456 Q665 433 663.5 410 Q662 387 658 359 Q645 261 612 192.5 Q579 124 527.5 81.5 Q476 39 405 19.5 Q334 0 244 0 L54 0 L110 335 L33 335 L44 396 L120 396 L175 720 L371 720 Z M238 653 L195 396 L384 396 L373 335 L185 335 L140 67 L268 67 Q410 67 483.5 141.5 Q557 216 579 359 Q583 384 585 407 Q587 430 587 451 Q587 550 535 601.5 Q483 653 366 653 L238 653 Z " />
<glyph glyph-name="dcroat" unicode="&#x111;" horiz-adv-x="570" d="M312 641 L480 641 L493 720 L564 720 L551 641 L615 641 L606 585 L542 585 L444 0 L379 0 L389 71 Q378 59 360 44.5 Q342 30 319 17.5 Q296 5 267.5 -3.5 Q239 -12 206 -12 Q118 -12 76 40.5 Q34 93 34 185 Q34 256 52.5 315.5 Q71 375 104.5 417.5 Q138 460 185.5 483.5 Q233 507 292 507 Q321 507 344.5 499.5 Q368 492 387 480 Q406 468 420 452.5 Q434 437 444 422 L471 585 L303 585 L312 641 Z M430 347 Q423 360 411.5 376 Q400 392 382.5 406 Q365 420 342.5 429.5 Q320 439 292 439 Q254 439 221 423 Q188 407 163.5 377 Q139 347 125 302.5 Q111 258 111 201 Q111 171 117.5 144.5 Q124 118 138 98 Q152 78 175.5 66.5 Q199 55 232 55 Q260 55 285 63.5 Q310 72 330.5 84.5 Q351 97 367.5 111 Q384 125 395 137 L430 347 Z " />
<glyph glyph-name="Emacron" unicode="&#x112;" horiz-adv-x="567" d="M151 720 L587 720 L577 654 L215 654 L172 401 L502 401 L492 336 L162 336 L117 66 L487 66 L475 0 L31 0 L151 720 Z M262 847 L527 847 L517 790 L252 790 L262 847 Z " />
<glyph glyph-name="emacron" unicode="&#x113;" horiz-adv-x="491" d="M432 60 Q382 22 330.5 5 Q279 -12 227 -12 Q137 -12 86 41 Q35 94 35 200 Q35 275 56 337 Q77 399 115 443.5 Q153 488 204.5 512.5 Q256 537 318 537 Q358 537 388 526 Q418 515 437.5 496.5 Q457 478 466.5 453.5 Q476 429 476 401 Q476 367 465.5 334.5 Q455 302 417.5 275.5 Q380 249 307.5 232 Q235 215 111 212 Q111 182 116 153 Q121 124 135.5 101.5 Q150 79 176 65.5 Q202 52 244 52 Q287 52 322.5 66.5 Q358 81 401 110 L432 60 Z M116 270 Q209 275 266 285.5 Q323 296 353.5 312 Q384 328 394.5 348 Q405 368 405 393 Q405 408 400 422.5 Q395 437 383 448.5 Q371 460 352 467.5 Q333 475 305 475 Q256 475 221.5 453.5 Q187 432 164.5 400.5 Q142 369 130.5 333.5 Q119 298 116 270 Z M210 679 L475 679 L465 621 L200 621 L210 679 Z " />
<glyph glyph-name="Ebreve" unicode="&#x114;" horiz-adv-x="567" d="M151 720 L587 720 L577 654 L215 654 L172 401 L502 401 L492 336 L162 336 L117 66 L487 66 L475 0 L31 0 L151 720 Z M384 821 Q431 821 454 844.5 Q477 868 488 906 L539 897 Q524 836 484.5 803 Q445 770 382 770 Q317 770 288.5 799 Q260 828 258 885 L311 895 Q313 857 327 839 Q341 821 384 821 Z " />
<glyph glyph-name="ebreve" unicode="&#x115;" horiz-adv-x="491" d="M432 60 Q382 22 330.5 5 Q279 -12 227 -12 Q137 -12 86 41 Q35 94 35 200 Q35 275 56 337 Q77 399 115 443.5 Q153 488 204.5 512.5 Q256 537 318 537 Q358 537 388 526 Q418 515 437.5 496.5 Q457 478 466.5 453.5 Q476 429 476 401 Q476 367 465.5 334.5 Q455 302 417.5 275.5 Q380 249 307.5 232 Q235 215 111 212 Q111 182 116 153 Q121 124 135.5 101.5 Q150 79 176 65.5 Q202 52 244 52 Q287 52 322.5 66.5 Q358 81 401 110 L432 60 Z M116 270 Q209 275 266 285.5 Q323 296 353.5 312 Q384 328 394.5 348 Q405 368 405 393 Q405 408 400 422.5 Q395 437 383 448.5 Q371 460 352 467.5 Q333 475 305 475 Q256 475 221.5 453.5 Q187 432 164.5 400.5 Q142 369 130.5 333.5 Q119 298 116 270 Z M329 646 Q375 646 397.5 671 Q420 696 431 735 L481 726 Q466 661 427 628 Q388 595 322 595 Q259 595 231 627 Q203 659 201 719 L254 729 Q256 690 270 668 Q284 646 329 646 Z " />
<glyph glyph-name="Edotaccent" unicode="&#x116;" horiz-adv-x="567" d="M151 720 L587 720 L577 654 L215 654 L172 401 L502 401 L492 336 L162 336 L117 66 L487 66 L475 0 L31 0 L151 720 Z M342 814 Q342 838 359 852 Q376 866 399 866 Q418 866 429 856 Q440 846 440 828 Q440 805 423.5 790.5 Q407 776 384 776 Q365 776 353.5 786.5 Q342 797 342 814 Z " />
<glyph glyph-name="edotaccent" unicode="&#x117;" horiz-adv-x="491" d="M432 60 Q382 22 330.5 5 Q279 -12 227 -12 Q137 -12 86 41 Q35 94 35 200 Q35 275 56 337 Q77 399 115 443.5 Q153 488 204.5 512.5 Q256 537 318 537 Q358 537 388 526 Q418 515 437.5 496.5 Q457 478 466.5 453.5 Q476 429 476 401 Q476 367 465.5 334.5 Q455 302 417.5 275.5 Q380 249 307.5 232 Q235 215 111 212 Q111 182 116 153 Q121 124 135.5 101.5 Q150 79 176 65.5 Q202 52 244 52 Q287 52 322.5 66.5 Q358 81 401 110 L432 60 Z M116 270 Q209 275 266 285.5 Q323 296 353.5 312 Q384 328 394.5 348 Q405 368 405 393 Q405 408 400 422.5 Q395 437 383 448.5 Q371 460 352 467.5 Q333 475 305 475 Q256 475 221.5 453.5 Q187 432 164.5 400.5 Q142 369 130.5 333.5 Q119 298 116 270 Z M284 661 Q284 684 301 698.5 Q318 713 341 713 Q360 713 371 702.5 Q382 692 382 674 Q382 651 365.5 637 Q349 623 326 623 Q307 623 295.5 633.5 Q284 644 284 661 Z " />
<glyph glyph-name="Eogonek" unicode="&#x118;" horiz-adv-x="567" d="M151 720 L587 720 L576 651 L215 651 L173 403 L502 403 L491 334 L162 334 L117 68 L486 68 L475 0 L448 0 Q400 -38 372 -72 Q344 -106 344 -138 Q344 -166 377 -166 Q393 -166 406 -162 Q419 -158 434 -151 L445 -193 Q428 -204 402 -213.5 Q376 -223 348 -223 Q310 -223 292 -205.5 Q274 -188 274 -160 Q274 -138 283 -116.5 Q292 -95 307 -74.5 Q322 -54 341.5 -35.5 Q361 -17 383 0 L31 0 L151 720 Z " />
<glyph glyph-name="eogonek" unicode="&#x119;" horiz-adv-x="491" d="M432 60 Q412 45 391 32 Q370 19 351 8 Q324 -9 301 -28 Q278 -47 261.5 -66 Q245 -85 236 -103.5 Q227 -122 227 -138 Q227 -166 260 -166 Q275 -166 288.5 -162 Q302 -158 317 -151 L329 -193 Q310 -204 284.5 -213.5 Q259 -223 231 -223 Q193 -223 175 -205.5 Q157 -188 157 -160 Q157 -118 185.5 -80.5 Q214 -43 252 -11 Q246 -11 239.5 -11.5 Q233 -12 227 -12 Q137 -12 86 41 Q35 94 35 200 Q35 275 56 337 Q77 399 115 443.5 Q153 488 204.5 512.5 Q256 537 318 537 Q358 537 388 526 Q418 515 437.5 496.5 Q457 478 466.5 453.5 Q476 429 476 401 Q476 367 465.5 334.5 Q455 302 417.5 275.5 Q380 249 307.5 232 Q235 215 111 212 Q111 182 116 153 Q121 124 135.5 101.5 Q150 79 176 65.5 Q202 52 244 52 Q287 52 322.5 66.5 Q358 81 401 110 L432 60 Z M116 270 Q209 275 266 285.5 Q323 296 353.5 312 Q384 328 394.5 348 Q405 368 405 393 Q405 408 400 422.5 Q395 437 383 448.5 Q371 460 352 467.5 Q333 475 305 475 Q256 475 221.5 453.5 Q187 432 164.5 400.5 Q142 369 130.5 333.5 Q119 298 116 270 Z " />
<glyph glyph-name="Ecaron" unicode="&#x11a;" horiz-adv-x="567" d="M151 720 L587 720 L577 654 L215 654 L172 401 L502 401 L492 336 L162 336 L117 66 L487 66 L475 0 L31 0 L151 720 Z M346 766 L269 865 L307 897 L382 824 L483 896 L507 865 L399 766 L346 766 Z " />
<glyph glyph-name="ecaron" unicode="&#x11b;" horiz-adv-x="491" d="M432 60 Q382 22 330.5 5 Q279 -12 227 -12 Q137 -12 86 41 Q35 94 35 200 Q35 275 56 337 Q77 399 115 443.5 Q153 488 204.5 512.5 Q256 537 318 537 Q358 537 388 526 Q418 515 437.5 496.5 Q457 478 466.5 453.5 Q476 429 476 401 Q476 367 465.5 334.5 Q455 302 417.5 275.5 Q380 249 307.5 232 Q235 215 111 212 Q111 182 116 153 Q121 124 135.5 101.5 Q150 79 176 65.5 Q202 52 244 52 Q287 52 322.5 66.5 Q358 81 401 110 L432 60 Z M116 270 Q209 275 266 285.5 Q323 296 353.5 312 Q384 328 394.5 348 Q405 368 405 393 Q405 408 400 422.5 Q395 437 383 448.5 Q371 460 352 467.5 Q333 475 305 475 Q256 475 221.5 453.5 Q187 432 164.5 400.5 Q142 369 130.5 333.5 Q119 298 116 270 Z M295 586 L216 734 L259 760 L331 648 L443 762 L475 734 L346 586 L295 586 Z " />
<glyph glyph-name="Gcircumflex" unicode="&#x11c;" horiz-adv-x="693" d="M413 368 L641 368 L596 98 Q560 62 523 40.5 Q486 19 450 7.5 Q414 -4 381 -8 Q348 -12 321 -12 Q250 -12 200 10 Q150 32 118 70.5 Q86 109 71.5 162 Q57 215 57 277 Q57 375 84 458.5 Q111 542 161 603 Q211 664 283 698.5 Q355 733 445 733 Q516 733 561 715 Q606 697 630.5 667 Q655 637 662 598.5 Q669 560 663 519 L586 519 Q590 552 584 578.5 Q578 605 560 624 Q542 643 510 653.5 Q478 664 430 664 Q360 664 305.5 633.5 Q251 603 214 551 Q177 499 158 431.5 Q139 364 139 289 Q139 178 187.5 117 Q236 56 333 56 Q391 56 441.5 76.5 Q492 97 536 136 L564 302 L402 302 L413 368 Z M491 889 L566 790 L531 759 L454 831 L355 759 L327 790 L439 889 L491 889 Z " />
<glyph glyph-name="gcircumflex" unicode="&#x11d;" horiz-adv-x="567" d="M444 7 Q433 -58 413 -99.5 Q393 -141 363 -166 Q333 -191 292.5 -200.5 Q252 -210 201 -210 Q144 -210 99.5 -200 Q55 -190 25 -176 L49 -115 Q78 -126 116.5 -136 Q155 -146 201 -146 Q246 -146 277 -136 Q308 -126 328 -105.5 Q348 -85 359.5 -53.5 Q371 -22 378 21 L386 72 Q354 38 307.5 14.5 Q261 -9 204 -9 Q160 -9 128 7 Q96 23 75.5 51 Q55 79 45 117 Q35 155 35 199 Q35 264 51.5 325 Q68 386 101 433 Q134 480 184 508.5 Q234 537 302 537 Q332 537 356.5 528.5 Q381 520 399.5 506.5 Q418 493 431 477.5 Q444 462 452 448 L465 525 L531 525 L444 7 Z M435 375 Q429 388 417 404.5 Q405 421 387.5 435 Q370 449 347.5 459 Q325 469 297 469 Q253 469 218.5 449 Q184 429 160.5 394.5 Q137 360 124.5 312 Q112 264 112 209 Q112 134 140 95 Q168 56 231 56 Q259 56 283.5 64.5 Q308 73 328.5 85.5 Q349 98 366 112 Q383 126 395 138 L435 375 Z M377 755 L456 607 L415 580 L342 693 L231 581 L198 607 L326 755 L377 755 Z " />
<glyph glyph-name="Gbreve" unicode="&#x11e;" horiz-adv-x="693" d="M413 368 L641 368 L596 98 Q560 62 523 40.5 Q486 19 450 7.5 Q414 -4 381 -8 Q348 -12 321 -12 Q250 -12 200 10 Q150 32 118 70.5 Q86 109 71.5 162 Q57 215 57 277 Q57 375 84 458.5 Q111 542 161 603 Q211 664 283 698.5 Q355 733 445 733 Q516 733 561 715 Q606 697 630.5 667 Q655 637 662 598.5 Q669 560 663 519 L586 519 Q590 552 584 578.5 Q578 605 560 624 Q542 643 510 653.5 Q478 664 430 664 Q360 664 305.5 633.5 Q251 603 214 551 Q177 499 158 431.5 Q139 364 139 289 Q139 178 187.5 117 Q236 56 333 56 Q391 56 441.5 76.5 Q492 97 536 136 L564 302 L402 302 L413 368 Z M447 821 Q494 821 517 844.5 Q540 868 551 906 L602 897 Q587 836 547.5 803 Q508 770 445 770 Q380 770 351.5 799 Q323 828 321 885 L374 895 Q376 857 390 839 Q404 821 447 821 Z " />
<glyph glyph-name="gbreve" unicode="&#x11f;" horiz-adv-x="567" d="M444 7 Q433 -58 413 -99.5 Q393 -141 363 -166 Q333 -191 292.5 -200.5 Q252 -210 201 -210 Q144 -210 99.5 -200 Q55 -190 25 -176 L49 -115 Q78 -126 116.5 -136 Q155 -146 201 -146 Q246 -146 277 -136 Q308 -126 328 -105.5 Q348 -85 359.5 -53.5 Q371 -22 378 21 L386 72 Q354 38 307.5 14.5 Q261 -9 204 -9 Q160 -9 128 7 Q96 23 75.5 51 Q55 79 45 117 Q35 155 35 199 Q35 264 51.5 325 Q68 386 101 433 Q134 480 184 508.5 Q234 537 302 537 Q332 537 356.5 528.5 Q381 520 399.5 506.5 Q418 493 431 477.5 Q444 462 452 448 L465 525 L531 525 L444 7 Z M435 375 Q429 388 417 404.5 Q405 421 387.5 435 Q370 449 347.5 459 Q325 469 297 469 Q253 469 218.5 449 Q184 429 160.5 394.5 Q137 360 124.5 312 Q112 264 112 209 Q112 134 140 95 Q168 56 231 56 Q259 56 283.5 64.5 Q308 73 328.5 85.5 Q349 98 366 112 Q383 126 395 138 L435 375 Z M335 646 Q381 646 403.5 671 Q426 696 437 735 L487 726 Q472 661 433 628 Q394 595 328 595 Q265 595 237 627 Q209 659 207 719 L260 729 Q262 690 276 668 Q290 646 335 646 Z " />
<glyph glyph-name="Gdotaccent" unicode="&#x120;" horiz-adv-x="693" d="M413 368 L641 368 L596 98 Q560 62 523 40.5 Q486 19 450 7.5 Q414 -4 381 -8 Q348 -12 321 -12 Q250 -12 200 10 Q150 32 118 70.5 Q86 109 71.5 162 Q57 215 57 277 Q57 375 84 458.5 Q111 542 161 603 Q211 664 283 698.5 Q355 733 445 733 Q516 733 561 715 Q606 697 630.5 667 Q655 637 662 598.5 Q669 560 663 519 L586 519 Q590 552 584 578.5 Q578 605 560 624 Q542 643 510 653.5 Q478 664 430 664 Q360 664 305.5 633.5 Q251 603 214 551 Q177 499 158 431.5 Q139 364 139 289 Q139 178 187.5 117 Q236 56 333 56 Q391 56 441.5 76.5 Q492 97 536 136 L564 302 L402 302 L413 368 Z M410 814 Q410 838 427 852 Q444 866 467 866 Q486 866 497 856 Q508 846 508 828 Q508 805 491.5 790.5 Q475 776 452 776 Q433 776 421.5 786.5 Q410 797 410 814 Z " />
<glyph glyph-name="gdotaccent" unicode="&#x121;" horiz-adv-x="567" d="M444 7 Q433 -58 413 -99.5 Q393 -141 363 -166 Q333 -191 292.5 -200.5 Q252 -210 201 -210 Q144 -210 99.5 -200 Q55 -190 25 -176 L49 -115 Q78 -126 116.5 -136 Q155 -146 201 -146 Q246 -146 277 -136 Q308 -126 328 -105.5 Q348 -85 359.5 -53.5 Q371 -22 378 21 L386 72 Q354 38 307.5 14.5 Q261 -9 204 -9 Q160 -9 128 7 Q96 23 75.5 51 Q55 79 45 117 Q35 155 35 199 Q35 264 51.5 325 Q68 386 101 433 Q134 480 184 508.5 Q234 537 302 537 Q332 537 356.5 528.5 Q381 520 399.5 506.5 Q418 493 431 477.5 Q444 462 452 448 L465 525 L531 525 L444 7 Z M435 375 Q429 388 417 404.5 Q405 421 387.5 435 Q370 449 347.5 459 Q325 469 297 469 Q253 469 218.5 449 Q184 429 160.5 394.5 Q137 360 124.5 312 Q112 264 112 209 Q112 134 140 95 Q168 56 231 56 Q259 56 283.5 64.5 Q308 73 328.5 85.5 Q349 98 366 112 Q383 126 395 138 L435 375 Z M297 661 Q297 684 314 698.5 Q331 713 354 713 Q373 713 384 702.5 Q395 692 395 674 Q395 651 378.5 637 Q362 623 339 623 Q320 623 308.5 633.5 Q297 644 297 661 Z " />
<glyph glyph-name="Gcommaaccent" unicode="&#x122;" horiz-adv-x="693" d="M413 368 L641 368 L596 98 Q560 62 523 40.5 Q486 19 450 7.5 Q414 -4 381 -8 Q348 -12 321 -12 Q250 -12 200 10 Q150 32 118 70.5 Q86 109 71.5 162 Q57 215 57 277 Q57 375 84 458.5 Q111 542 161 603 Q211 664 283 698.5 Q355 733 445 733 Q516 733 561 715 Q606 697 630.5 667 Q655 637 662 598.5 Q669 560 663 519 L586 519 Q590 552 584 578.5 Q578 605 560 624 Q542 643 510 653.5 Q478 664 430 664 Q360 664 305.5 633.5 Q251 603 214 551 Q177 499 158 431.5 Q139 364 139 289 Q139 178 187.5 117 Q236 56 333 56 Q391 56 441.5 76.5 Q492 97 536 136 L564 302 L402 302 L413 368 Z M317 -60 L381 -76 L300 -235 L250 -220 L317 -60 Z " />
<glyph glyph-name="gcommaaccent" unicode="&#x123;" horiz-adv-x="567" d="M444 7 Q433 -58 413 -99.5 Q393 -141 363 -166 Q333 -191 292.5 -200.5 Q252 -210 201 -210 Q144 -210 99.5 -200 Q55 -190 25 -176 L49 -115 Q78 -126 116.5 -136 Q155 -146 201 -146 Q246 -146 277 -136 Q308 -126 328 -105.5 Q348 -85 359.5 -53.5 Q371 -22 378 21 L386 72 Q354 38 307.5 14.5 Q261 -9 204 -9 Q160 -9 128 7 Q96 23 75.5 51 Q55 79 45 117 Q35 155 35 199 Q35 264 51.5 325 Q68 386 101 433 Q134 480 184 508.5 Q234 537 302 537 Q332 537 356.5 528.5 Q381 520 399.5 506.5 Q418 493 431 477.5 Q444 462 452 448 L465 525 L531 525 L444 7 Z M435 375 Q429 388 417 404.5 Q405 421 387.5 435 Q370 449 347.5 459 Q325 469 297 469 Q253 469 218.5 449 Q184 429 160.5 394.5 Q137 360 124.5 312 Q112 264 112 209 Q112 134 140 95 Q168 56 231 56 Q259 56 283.5 64.5 Q308 73 328.5 85.5 Q349 98 366 112 Q383 126 395 138 L435 375 Z M350 587 L285 606 L368 765 L419 751 L350 587 Z " />
<glyph glyph-name="Hcircumflex" unicode="&#x124;" horiz-adv-x="676" d="M151 720 L225 720 L173 409 L538 409 L590 720 L665 720 L545 0 L470 0 L527 340 L162 340 L105 0 L31 0 L151 720 Z M470 889 L545 790 L510 759 L433 831 L334 759 L306 790 L418 889 L470 889 Z " />
<glyph glyph-name="hcircumflex" unicode="&#x125;" horiz-adv-x="541" d="M214 720 L170 450 Q207 487 253 512 Q299 537 352 537 Q419 537 449.5 502 Q480 467 480 403 Q480 374 474 341 L417 0 L345 0 L399 325 Q401 340 403 356 Q405 372 405 395 Q405 408 402 422 Q399 436 390.5 447 Q382 458 366.5 465 Q351 472 327 472 Q302 472 277 462.5 Q252 453 230 438.5 Q208 424 189.5 408.5 Q171 393 158 381 L94 0 L23 0 L143 720 L214 720 Z M227 866 L302 767 L267 736 L190 808 L91 736 L63 767 L175 866 L227 866 Z " />
<glyph glyph-name="Hbar" unicode="&#x126;" horiz-adv-x="698" d="M81 603 L143 603 L162 720 L237 720 L218 603 L583 603 L602 720 L676 720 L657 603 L717 603 L707 545 L647 545 L556 0 L482 0 L539 340 L174 340 L117 0 L42 0 L133 545 L71 545 L81 603 Z M551 411 L573 545 L208 545 L186 411 L551 411 Z " />
<glyph glyph-name="hbar" unicode="&#x127;" horiz-adv-x="540" d="M213 720 L200 640 L365 640 L356 586 L191 586 L161 406 Q197 444 244 470.5 Q291 497 344 497 Q426 497 454 444.5 Q482 392 466 300 L416 0 L344 0 L392 285 Q396 312 397.5 338.5 Q399 365 391.5 386 Q384 407 365.5 419.5 Q347 432 313 432 Q289 432 266 423.5 Q243 415 222 402 Q201 389 183 373 Q165 357 150 342 L93 0 L22 0 L120 586 L54 586 L63 640 L129 640 L142 720 L213 720 Z " />
<glyph glyph-name="Itilde" unicode="&#x128;" horiz-adv-x="236" d="M151 720 L225 720 L105 0 L31 0 L151 720 Z M346 857 Q327 815 305.5 798.5 Q284 782 258 782 Q241 782 224.5 787 Q208 792 193 798.5 Q178 805 164.5 810 Q151 815 141 815 Q129 815 120 808 Q111 801 95 779 L58 796 Q81 838 102.5 854.5 Q124 871 148 871 Q164 871 179 866 Q194 861 207.5 854.5 Q221 848 234.5 843 Q248 838 263 838 Q277 838 286.5 845 Q296 852 310 873 L346 857 Z " />
<glyph glyph-name="itilde" unicode="&#x129;" horiz-adv-x="226" d="M312 683 Q293 641 271.5 624.5 Q250 608 224 608 Q207 608 190.5 613 Q174 618 159 624.5 Q144 631 130.5 636 Q117 641 107 641 Q95 641 86 634 Q77 627 61 605 L24 622 Q47 664 68.5 680.5 Q90 697 114 697 Q130 697 145 692 Q160 687 173.5 680.5 Q187 674 200.5 669 Q214 664 229 664 Q243 664 252.5 671 Q262 678 276 699 L312 683 Z M98 0 L28 0 L116 525 L186 525 L98 0 Z " />
<glyph glyph-name="Imacron" unicode="&#x12a;" horiz-adv-x="236" d="M151 720 L225 720 L105 0 L31 0 L151 720 Z M71 847 L336 847 L326 790 L61 790 L71 847 Z " />
<glyph glyph-name="imacron" unicode="&#x12b;" horiz-adv-x="226" d="M44 679 L309 679 L299 621 L34 621 L44 679 Z M98 0 L28 0 L116 525 L186 525 L98 0 Z " />
<glyph glyph-name="Ibreve" unicode="&#x12c;" horiz-adv-x="236" d="M151 720 L225 720 L105 0 L31 0 L151 720 Z M205 821 Q252 821 275 844.5 Q298 868 309 906 L360 897 Q345 836 305.5 803 Q266 770 203 770 Q138 770 109.5 799 Q81 828 79 885 L132 895 Q134 857 148 839 Q162 821 205 821 Z " />
<glyph glyph-name="ibreve" unicode="&#x12d;" horiz-adv-x="226" d="M173 646 Q219 646 241.5 671 Q264 696 275 735 L325 726 Q310 661 271 628 Q232 595 166 595 Q103 595 75 627 Q47 659 45 719 L98 729 Q100 690 114 668 Q128 646 173 646 Z M98 0 L28 0 L116 525 L186 525 L98 0 Z " />
<glyph glyph-name="Iogonek" unicode="&#x12e;" horiz-adv-x="236" d="M151 720 L225 720 L105 0 Q59 -38 30.5 -72 Q2 -106 2 -138 Q2 -166 35 -166 Q50 -166 63 -162 Q76 -158 92 -151 L103 -193 Q85 -204 59 -213.5 Q33 -223 5 -223 Q-32 -223 -50 -205.5 Q-68 -188 -68 -160 Q-68 -138 -59.5 -116.5 Q-51 -95 -36.5 -74.5 Q-22 -54 -4.5 -35.5 Q13 -17 31 0 L151 720 Z " />
<glyph glyph-name="iogonek" unicode="&#x12f;" horiz-adv-x="227" d="M98 0 Q50 -38 22 -72 Q-6 -106 -6 -138 Q-6 -166 27 -166 Q42 -166 55.5 -162 Q69 -158 84 -151 L96 -193 Q77 -204 51 -213.5 Q25 -223 -3 -223 Q-40 -223 -58 -205.5 Q-76 -188 -76 -160 Q-76 -138 -67 -116.5 Q-58 -95 -43.5 -75 Q-29 -55 -10.5 -36 Q8 -17 28 0 L116 525 L186 525 L98 0 Z M126 661 Q126 684 142.5 698.5 Q159 713 182 713 Q202 713 213 702.5 Q224 692 224 674 Q224 651 208 637 Q192 623 167 623 Q149 623 137.5 633.5 Q126 644 126 661 Z " />
<glyph glyph-name="Idotaccent" unicode="&#x130;" horiz-adv-x="236" d="M151 720 L225 720 L105 0 L31 0 L151 720 Z M159 814 Q159 838 176 852 Q193 866 216 866 Q235 866 246 856 Q257 846 257 828 Q257 805 240.5 790.5 Q224 776 201 776 Q182 776 170.5 786.5 Q159 797 159 814 Z " />
<glyph glyph-name="dotlessi" unicode="&#x131;" horiz-adv-x="226" d="M98 0 L28 0 L116 525 L186 525 L98 0 Z " />
<glyph glyph-name="IJ" unicode="&#x132;" horiz-adv-x="617" d="M151 720 L225 720 L105 0 L31 0 L151 720 Z M518 159 Q503 71 459 29.5 Q415 -12 337 -12 Q305 -12 268.5 -5.5 Q232 1 206 15 L234 78 Q257 67 281.5 61 Q306 55 336 55 Q360 55 378 60.5 Q396 66 409 80 Q422 94 430.5 117 Q439 140 445 175 L536 720 L611 720 L518 159 Z " />
<glyph glyph-name="ij" unicode="&#x133;" horiz-adv-x="430" d="M126 661 Q126 684 142.5 698.5 Q159 713 182 713 Q202 713 213 702.5 Q224 692 224 674 Q224 651 208 637 Q192 623 167 623 Q149 623 137.5 633.5 Q126 644 126 661 Z M98 0 L28 0 L116 525 L186 525 L98 0 Z M290 -73 Q285 -103 275.5 -127.5 Q266 -152 251 -168.5 Q236 -185 213.5 -194 Q191 -203 160 -203 Q142 -203 125 -201 Q108 -199 94 -193 L111 -137 Q119 -140 130.5 -141.5 Q142 -143 154 -143 Q180 -143 196 -129 Q212 -115 220 -69 L320 525 L390 525 L290 -73 Z M330 660 Q330 684 347 699 Q364 714 387 714 Q406 714 417 703.5 Q428 693 428 675 Q428 651 411.5 636.5 Q395 622 372 622 Q353 622 341.5 632.5 Q330 643 330 660 Z " />
<glyph glyph-name="Jcircumflex" unicode="&#x134;" horiz-adv-x="380" d="M281 159 Q266 71 222 29.5 Q178 -12 100 -12 Q68 -12 31.5 -5.5 Q-5 1 -31 15 L-3 78 Q20 67 44.5 61 Q69 55 99 55 Q123 55 141 60.5 Q159 66 172 80 Q185 94 193.5 117 Q202 140 208 175 L299 720 L374 720 L281 159 Z M394 889 L469 790 L434 759 L357 831 L258 759 L230 790 L342 889 L394 889 Z " />
<glyph glyph-name="jcircumflex" unicode="&#x135;" horiz-adv-x="226" d="M86 -73 Q81 -103 71.5 -127.5 Q62 -152 47 -168.5 Q32 -185 9.5 -194 Q-13 -203 -44 -203 Q-62 -203 -79 -201 Q-96 -199 -110 -193 L-93 -137 Q-85 -140 -73.5 -141.5 Q-62 -143 -50 -143 Q-24 -143 -8 -129 Q8 -115 16 -69 L116 525 L186 525 L86 -73 Z M216 755 L295 607 L254 580 L181 693 L70 581 L37 607 L165 755 L216 755 Z " />
<glyph glyph-name="Kcommaaccent" unicode="&#x136;" horiz-adv-x="605" d="M151 720 L225 720 L173 403 L309 403 L541 720 L625 720 L370 370 L540 0 L454 0 L299 340 L163 340 L105 0 L31 0 L151 720 Z M223 -60 L287 -76 L206 -235 L156 -220 L223 -60 Z " />
<glyph glyph-name="kcommaaccent" unicode="&#x137;" horiz-adv-x="485" d="M148 323 L206 323 L402 525 L490 525 L261 289 L426 0 L341 0 L195 260 L137 260 L93 0 L22 0 L142 720 L213 720 L148 323 Z M180 -60 L244 -76 L163 -235 L113 -220 L180 -60 Z " />
<glyph glyph-name="kgreenlandic" unicode="&#x138;" horiz-adv-x="488" d="M137 318 L194 318 L401 525 L482 525 L249 290 L419 0 L339 0 L182 259 L127 259 L84 0 L13 0 L101 525 L172 525 L137 318 Z " />
<glyph glyph-name="Lacute" unicode="&#x139;" horiz-adv-x="508" d="M225 720 L117 67 L443 67 L431 0 L31 0 L151 720 L225 720 Z M291 902 L320 839 L137 755 L112 802 L291 902 Z " />
<glyph glyph-name="lacute" unicode="&#x13a;" horiz-adv-x="217" d="M23 0 L143 720 L214 720 L94 0 L23 0 Z M250 902 L279 839 L96 755 L71 802 L250 902 Z " />
<glyph glyph-name="Lcommaaccent" unicode="&#x13b;" horiz-adv-x="508" d="M225 720 L117 67 L443 67 L431 0 L31 0 L151 720 L225 720 Z M203 -60 L267 -76 L186 -235 L136 -220 L203 -60 Z " />
<glyph glyph-name="lcommaaccent" unicode="&#x13c;" horiz-adv-x="217" d="M23 0 L143 720 L214 720 L94 0 L23 0 Z M13 -60 L77 -76 L-4 -235 L-54 -220 L13 -60 Z " />
<glyph glyph-name="Lcaron" unicode="&#x13d;" horiz-adv-x="508" d="M225 720 L117 67 L443 67 L431 0 L31 0 L151 720 L225 720 Z M375 720 L448 720 L368 535 L312 535 L375 720 Z " />
<glyph glyph-name="lcaron" unicode="&#x13e;" horiz-adv-x="254" d="M23 0 L143 720 L214 720 L94 0 L23 0 Z M311 720 L384 720 L304 535 L248 535 L311 720 Z " />
<glyph glyph-name="Ldot" unicode="&#x13f;" horiz-adv-x="509" d="M225 720 L117 69 L443 69 L431 0 L31 0 L151 720 L225 720 Z M332 364 Q332 393 351 407.5 Q370 422 394 422 Q414 422 427.5 411.5 Q441 401 441 380 Q441 354 422 338 Q403 322 377 322 Q357 322 344.5 333 Q332 344 332 364 Z " />
<glyph glyph-name="ldot" unicode="&#x140;" horiz-adv-x="312" d="M23 0 L143 720 L214 720 L94 0 L23 0 Z M216 348 Q216 377 235.5 391.5 Q255 406 278 406 Q298 406 311 395.5 Q324 385 324 364 Q324 337 305.5 321.5 Q287 306 261 306 Q241 306 228.5 317 Q216 328 216 348 Z " />
<glyph glyph-name="Lslash" unicode="&#x141;" horiz-adv-x="508" d="M225 720 L170 388 L393 471 L383 411 L160 328 L117 69 L443 69 L431 0 L31 0 L82 303 L-8 268 L2 328 L92 362 L151 720 L225 720 Z " />
<glyph glyph-name="lslash" unicode="&#x142;" horiz-adv-x="250" d="M22 352 L99 385 L155 720 L226 720 L175 411 L260 448 L250 390 L165 352 L106 0 L35 0 L90 326 L12 293 L22 352 Z " />
<glyph glyph-name="Nacute" unicode="&#x143;" horiz-adv-x="680" d="M151 720 L220 720 L498 139 L595 720 L669 720 L549 0 L482 0 L201 582 L104 0 L31 0 L151 720 Z M512 902 L541 839 L358 755 L333 802 L512 902 Z " />
<glyph glyph-name="nacute" unicode="&#x144;" horiz-adv-x="540" d="M177 525 L164 446 Q201 485 248 511 Q295 537 348 537 Q420 537 449.5 500.5 Q479 464 479 403 Q479 373 473 340 L416 0 L344 0 L398 325 Q400 340 401.5 355 Q403 370 403 392 Q403 428 385 450 Q367 472 325 472 Q298 472 272.5 461.5 Q247 451 224.5 437 Q202 423 184.5 407 Q167 391 157 381 L93 0 L22 0 L110 525 L177 525 Z M422 758 L462 706 L295 584 L263 625 L422 758 Z " />
<glyph glyph-name="Ncommaaccent" unicode="&#x145;" horiz-adv-x="680" d="M151 720 L220 720 L498 139 L595 720 L669 720 L549 0 L482 0 L201 582 L104 0 L31 0 L151 720 Z M278 -60 L342 -76 L261 -235 L211 -220 L278 -60 Z " />
<glyph glyph-name="ncommaaccent" unicode="&#x146;" horiz-adv-x="540" d="M177 525 L164 446 Q201 485 248 511 Q295 537 348 537 Q420 537 449.5 500.5 Q479 464 479 403 Q479 373 473 340 L416 0 L344 0 L398 325 Q400 340 401.5 355 Q403 370 403 392 Q403 428 385 450 Q367 472 325 472 Q298 472 272.5 461.5 Q247 451 224.5 437 Q202 423 184.5 407 Q167 391 157 381 L93 0 L22 0 L110 525 L177 525 Z M197 -60 L261 -76 L180 -235 L130 -220 L197 -60 Z " />
<glyph glyph-name="Ncaron" unicode="&#x147;" horiz-adv-x="680" d="M151 720 L220 720 L498 139 L595 720 L669 720 L549 0 L482 0 L201 582 L104 0 L31 0 L151 720 Z M394 766 L317 865 L355 897 L430 824 L531 896 L555 865 L447 766 L394 766 Z " />
<glyph glyph-name="ncaron" unicode="&#x148;" horiz-adv-x="540" d="M177 525 L164 446 Q201 485 248 511 Q295 537 348 537 Q420 537 449.5 500.5 Q479 464 479 403 Q479 373 473 340 L416 0 L344 0 L398 325 Q400 340 401.5 355 Q403 370 403 392 Q403 428 385 450 Q367 472 325 472 Q298 472 272.5 461.5 Q247 451 224.5 437 Q202 423 184.5 407 Q167 391 157 381 L93 0 L22 0 L110 525 L177 525 Z M289 586 L210 734 L253 760 L325 648 L437 762 L469 734 L340 586 L289 586 Z " />
<glyph glyph-name="napostrophe" unicode="&#x149;" horiz-adv-x="556" d="M193 525 L180 446 Q217 485 264 511 Q311 537 364 537 Q436 537 465.5 500.5 Q495 464 495 403 Q495 373 489 340 L432 0 L360 0 L414 325 Q416 340 417.5 355 Q419 370 419 392 Q419 428 401 450 Q383 472 341 472 Q314 472 288.5 461.5 Q263 451 240.5 437 Q218 423 200.5 407 Q183 391 173 381 L109 0 L38 0 L126 525 L193 525 Z M52.1209 638.654 Q52.1209 661.734 67.1484 676.381 Q82.176 691.028 107.811 691.028 Q130.794 691.028 140.076 676.381 Q149.358 661.734 149.358 642.205 Q149.358 627.114 145.822 609.36 Q142.286 591.606 131.236 573.853 Q120.187 556.099 100.739 538.789 Q81.292 521.479 49.469 506.388 L39.7453 531.243 Q70.6843 548.997 85.7119 567.195 Q100.739 585.393 105.159 610.248 Q94.5516 604.922 83.0599 604.922 Q68.0324 604.922 60.0767 614.243 Q52.1209 623.563 52.1209 638.654 Z " />
<glyph glyph-name="Eng" unicode="&#x14a;" horiz-adv-x="680" d="M151 720 L220 720 L498 139 L595 720 L669 720 L540 -56 Q535 -86 523.5 -113 Q512 -140 492.5 -160 Q473 -180 444.5 -191.5 Q416 -203 376 -203 Q347 -203 315.5 -197.5 Q284 -192 270 -186 L290 -128 Q298 -131 322 -136.5 Q346 -142 373 -142 Q412 -142 435.5 -121 Q459 -100 467 -52 L477 8 L201 582 L104 0 L31 0 L151 720 Z " />
<glyph glyph-name="eng" unicode="&#x14b;" horiz-adv-x="539" d="M173 525 L164 446 Q201 485 248 511 Q295 537 346 537 Q391 537 419 522 Q447 507 461.5 481 Q476 455 477.5 418.5 Q479 382 472 339 L403 -72 Q393 -132 364.5 -167.5 Q336 -203 272 -203 Q255 -203 237.5 -201 Q220 -199 206 -193 L223 -138 Q240 -145 266 -145 Q292 -145 307.5 -130.5 Q323 -116 331 -71 L398 328 Q410 402 392 437.5 Q374 473 317 473 Q291 473 267 463 Q243 453 222 439 Q201 425 184.5 409.5 Q168 394 157 382 L93 0 L22 0 L110 525 L173 525 Z " />
<glyph glyph-name="Omacron" unicode="&#x14c;" horiz-adv-x="738" d="M147 368 Q138 317 138 275 Q138 164 187 110.5 Q236 57 329 57 Q438 57 512 131.5 Q586 206 612 368 Q616 389 617.5 409 Q619 429 619 447 Q619 553 571 607.5 Q523 662 431 662 Q319 662 245 586.5 Q171 511 147 368 Z M65 368 Q80 458 113.5 526.5 Q147 595 195 640.5 Q243 686 304.5 709.5 Q366 733 438 733 Q498 733 546.5 715.5 Q595 698 629.5 663.5 Q664 629 682.5 577.5 Q701 526 701 459 Q701 438 699 413.5 Q697 389 693 364 Q678 262 644 190.5 Q610 119 561 74 Q512 29 451 8.5 Q390 -12 321 -12 Q261 -12 212 4.5 Q163 21 128.5 54.5 Q94 88 75.5 140 Q57 192 57 263 Q57 287 58.5 313 Q60 339 65 368 Z M329 847 L594 847 L584 790 L319 790 L329 847 Z " />
<glyph glyph-name="omacron" unicode="&#x14d;" horiz-adv-x="559" d="M112 262 Q110 245 109 230 Q108 215 108 201 Q108 121 142 86.5 Q176 52 235 52 Q269 52 300 64.5 Q331 77 356 103 Q381 129 399.5 168.5 Q418 208 427 262 Q430 278 431 292.5 Q432 307 432 321 Q432 398 398 436 Q364 474 305 474 Q270 474 238.5 460.5 Q207 447 181.5 420 Q156 393 138 353.5 Q120 314 112 262 Z M37 263 Q60 394 133 465.5 Q206 537 320 537 Q412 537 460 484.5 Q508 432 508 333 Q508 316 506.5 296.5 Q505 277 502 258 Q482 126 407.5 57 Q333 -12 223 -12 Q129 -12 80.5 40.5 Q32 93 32 190 Q32 207 33 225.5 Q34 244 37 263 Z M204 679 L469 679 L459 621 L194 621 L204 679 Z " />
<glyph glyph-name="Obreve" unicode="&#x14e;" horiz-adv-x="738" d="M147 368 Q138 317 138 275 Q138 164 187 110.5 Q236 57 329 57 Q438 57 512 131.5 Q586 206 612 368 Q616 389 617.5 409 Q619 429 619 447 Q619 553 571 607.5 Q523 662 431 662 Q319 662 245 586.5 Q171 511 147 368 Z M65 368 Q80 458 113.5 526.5 Q147 595 195 640.5 Q243 686 304.5 709.5 Q366 733 438 733 Q498 733 546.5 715.5 Q595 698 629.5 663.5 Q664 629 682.5 577.5 Q701 526 701 459 Q701 438 699 413.5 Q697 389 693 364 Q678 262 644 190.5 Q610 119 561 74 Q512 29 451 8.5 Q390 -12 321 -12 Q261 -12 212 4.5 Q163 21 128.5 54.5 Q94 88 75.5 140 Q57 192 57 263 Q57 287 58.5 313 Q60 339 65 368 Z M465 821 Q512 821 535 844.5 Q558 868 569 906 L620 897 Q605 836 565.5 803 Q526 770 463 770 Q398 770 369.5 799 Q341 828 339 885 L392 895 Q394 857 408 839 Q422 821 465 821 Z " />
<glyph glyph-name="obreve" unicode="&#x14f;" horiz-adv-x="559" d="M112 262 Q110 245 109 230 Q108 215 108 201 Q108 121 142 86.5 Q176 52 235 52 Q269 52 300 64.5 Q331 77 356 103 Q381 129 399.5 168.5 Q418 208 427 262 Q430 278 431 292.5 Q432 307 432 321 Q432 398 398 436 Q364 474 305 474 Q270 474 238.5 460.5 Q207 447 181.5 420 Q156 393 138 353.5 Q120 314 112 262 Z M37 263 Q60 394 133 465.5 Q206 537 320 537 Q412 537 460 484.5 Q508 432 508 333 Q508 316 506.5 296.5 Q505 277 502 258 Q482 126 407.5 57 Q333 -12 223 -12 Q129 -12 80.5 40.5 Q32 93 32 190 Q32 207 33 225.5 Q34 244 37 263 Z M344 646 Q390 646 412.5 671 Q435 696 446 735 L496 726 Q481 661 442 628 Q403 595 337 595 Q274 595 246 627 Q218 659 216 719 L269 729 Q271 690 285 668 Q299 646 344 646 Z " />
<glyph glyph-name="Ohungarumlaut" unicode="&#x150;" horiz-adv-x="738" d="M147 368 Q138 317 138 275 Q138 164 187 110.5 Q236 57 329 57 Q438 57 512 131.5 Q586 206 612 368 Q616 389 617.5 409 Q619 429 619 447 Q619 553 571 607.5 Q523 662 431 662 Q319 662 245 586.5 Q171 511 147 368 Z M65 368 Q80 458 113.5 526.5 Q147 595 195 640.5 Q243 686 304.5 709.5 Q366 733 438 733 Q498 733 546.5 715.5 Q595 698 629.5 663.5 Q664 629 682.5 577.5 Q701 526 701 459 Q701 438 699 413.5 Q697 389 693 364 Q678 262 644 190.5 Q610 119 561 74 Q512 29 451 8.5 Q390 -12 321 -12 Q261 -12 212 4.5 Q163 21 128.5 54.5 Q94 88 75.5 140 Q57 192 57 263 Q57 287 58.5 313 Q60 339 65 368 Z M533 890 L383 755 L349 787 L489 931 L533 890 Z M654 874 L512 754 L480 790 L614 918 L654 874 Z " />
<glyph glyph-name="ohungarumlaut" unicode="&#x151;" horiz-adv-x="559" d="M112 262 Q110 245 109 230 Q108 215 108 201 Q108 121 142 86.5 Q176 52 235 52 Q269 52 300 64.5 Q331 77 356 103 Q381 129 399.5 168.5 Q418 208 427 262 Q430 278 431 292.5 Q432 307 432 321 Q432 398 398 436 Q364 474 305 474 Q270 474 238.5 460.5 Q207 447 181.5 420 Q156 393 138 353.5 Q120 314 112 262 Z M37 263 Q60 394 133 465.5 Q206 537 320 537 Q412 537 460 484.5 Q508 432 508 333 Q508 316 506.5 296.5 Q505 277 502 258 Q482 126 407.5 57 Q333 -12 223 -12 Q129 -12 80.5 40.5 Q32 93 32 190 Q32 207 33 225.5 Q34 244 37 263 Z M396 724 L258 583 L219 613 L346 760 L396 724 Z M518 709 L386 583 L348 613 L470 747 L518 709 Z " />
<glyph glyph-name="OE" unicode="&#x152;" horiz-adv-x="1087" d="M581 154 Q536 70 461.5 29 Q387 -12 303 -12 Q248 -12 202.5 6 Q157 24 124.5 60 Q92 96 74 151 Q56 206 56 280 Q56 392 86.5 477 Q117 562 169 618.5 Q221 675 289.5 703.5 Q358 732 434 732 Q474 732 510 721.5 Q546 711 574.5 691 Q603 671 623 641 Q643 611 651 572 L675 720 L1107 720 L1096 651 L734 651 L692 403 L1021 403 L1011 338 L682 338 L637 69 L1007 69 L995 0 L555 0 L581 154 Z M137 291 Q137 174 187.5 117 Q238 60 326 60 Q384 60 437.5 81.5 Q491 103 531.5 148.5 Q572 194 596 265 Q620 336 620 436 Q620 495 605.5 537.5 Q591 580 565 607 Q539 634 504 647 Q469 660 429 660 Q366 660 312.5 635 Q259 610 220 563 Q181 516 159 447.5 Q137 379 137 291 Z " />
<glyph glyph-name="oe" unicode="&#x153;" horiz-adv-x="874" d="M815 60 Q765 22 716 5 Q667 -12 615 -12 Q549 -12 503 19 Q457 50 439 109 Q404 51 349.5 19.5 Q295 -12 223 -12 Q129 -12 80.5 40.5 Q32 93 32 190 Q32 207 33 225.5 Q34 244 37 263 Q60 394 132.5 465.5 Q205 537 315 537 Q351 537 379 527.5 Q407 518 428.5 501.5 Q450 485 464 463 Q478 441 486 416 Q522 470 577 503.5 Q632 537 701 537 Q741 537 771 526 Q801 515 820.5 496.5 Q840 478 849.5 453.5 Q859 429 859 401 Q859 367 849 334.5 Q839 302 802 276 Q765 250 692 232.5 Q619 215 494 212 Q494 182 499 153 Q504 124 518.5 101.5 Q533 79 559 65.5 Q585 52 627 52 Q670 52 705.5 66.5 Q741 81 784 110 L815 60 Z M112 262 Q110 245 109 230 Q108 215 108 201 Q108 121 142 86.5 Q176 52 235 52 Q269 52 300 64.5 Q331 77 356 103 Q381 129 399.5 168.5 Q418 208 427 262 Q430 278 431 292.5 Q432 307 432 321 Q432 398 398 436 Q364 474 305 474 Q270 474 238.5 460.5 Q207 447 181.5 420 Q156 393 138 353.5 Q120 314 112 262 Z M499 269 Q593 274 650 285 Q707 296 737.5 311.5 Q768 327 778 347.5 Q788 368 788 393 Q788 408 783 422.5 Q778 437 766.5 448.5 Q755 460 736.5 467.5 Q718 475 691 475 Q641 475 606 453 Q571 431 548 399.5 Q525 368 513.5 332.5 Q502 297 499 269 Z " />
<glyph glyph-name="Racute" unicode="&#x154;" horiz-adv-x="609" d="M370 720 Q478 720 527.5 674.5 Q577 629 577 551 Q577 474 539 411 Q501 348 419 311 L527 0 L446 0 L346 294 Q313 288 270 288 L153 288 L105 0 L31 0 L151 720 L370 720 Z M214 654 L164 352 L293 352 Q393 352 446.5 401 Q500 450 500 537 Q500 594 465 624 Q430 654 357 654 L214 654 Z M442 902 L471 839 L288 755 L263 802 L442 902 Z " />
<glyph glyph-name="racute" unicode="&#x155;" horiz-adv-x="311" d="M160 442 Q183 482 218.5 509.5 Q254 537 292 537 Q304 537 315.5 534.5 Q327 532 337 528 L316 456 Q307 460 297 461 Q287 462 274 462 Q256 462 239 453 Q222 444 206.5 430.5 Q191 417 177.5 400.5 Q164 384 155 369 L93 0 L22 0 L110 525 L175 525 L160 442 Z M325 758 L365 706 L198 584 L166 625 L325 758 Z " />
<glyph glyph-name="Rcommaaccent" unicode="&#x156;" horiz-adv-x="609" d="M370 720 Q478 720 527.5 674.5 Q577 629 577 551 Q577 474 539 411 Q501 348 419 311 L527 0 L446 0 L346 294 Q313 288 270 288 L153 288 L105 0 L31 0 L151 720 L370 720 Z M214 654 L164 352 L293 352 Q393 352 446.5 401 Q500 450 500 537 Q500 594 465 624 Q430 654 357 654 L214 654 Z M248 -60 L312 -76 L231 -235 L181 -220 L248 -60 Z " />
<glyph glyph-name="rcommaaccent" unicode="&#x157;" horiz-adv-x="311" d="M160 442 Q183 482 218.5 509.5 Q254 537 292 537 Q304 537 315.5 534.5 Q327 532 337 528 L316 456 Q307 460 297 461 Q287 462 274 462 Q256 462 239 453 Q222 444 206.5 430.5 Q191 417 177.5 400.5 Q164 384 155 369 L93 0 L22 0 L110 525 L175 525 L160 442 Z M18 -60 L82 -76 L1 -235 L-49 -220 L18 -60 Z " />
<glyph glyph-name="Rcaron" unicode="&#x158;" horiz-adv-x="609" d="M370 720 Q478 720 527.5 674.5 Q577 629 577 551 Q577 474 539 411 Q501 348 419 311 L527 0 L446 0 L346 294 Q313 288 270 288 L153 288 L105 0 L31 0 L151 720 L370 720 Z M214 654 L164 352 L293 352 Q393 352 446.5 401 Q500 450 500 537 Q500 594 465 624 Q430 654 357 654 L214 654 Z M321 766 L244 865 L282 897 L357 824 L458 896 L482 865 L374 766 L321 766 Z " />
<glyph glyph-name="rcaron" unicode="&#x159;" horiz-adv-x="311" d="M160 442 Q183 482 218.5 509.5 Q254 537 292 537 Q304 537 315.5 534.5 Q327 532 337 528 L316 456 Q307 460 297 461 Q287 462 274 462 Q256 462 239 453 Q222 444 206.5 430.5 Q191 417 177.5 400.5 Q164 384 155 369 L93 0 L22 0 L110 525 L175 525 L160 442 Z M185 586 L106 734 L149 760 L221 648 L333 762 L365 734 L236 586 L185 586 Z " />
<glyph glyph-name="Sacute" unicode="&#x15a;" horiz-adv-x="558" d="M50 146 Q88 101 135 76.5 Q182 52 237 52 Q274 52 306.5 62 Q339 72 363.5 91.5 Q388 111 402 139.5 Q416 168 416 206 Q416 230 408.5 249 Q401 268 384.5 283.5 Q368 299 341.5 312 Q315 325 276 338 Q229 354 194.5 371 Q160 388 138 410 Q116 432 105.5 460 Q95 488 95 526 Q95 573 114 611 Q133 649 166.5 676 Q200 703 245.5 718 Q291 733 345 733 Q419 733 471 707.5 Q523 682 558 630 L508 583 Q476 628 432 648.5 Q388 669 340 669 Q307 669 277 661 Q247 653 224.5 636 Q202 619 188.5 593 Q175 567 175 532 Q175 505 185.5 486 Q196 467 216 452 Q236 437 265 424 Q294 411 332 397 Q375 381 406 364.5 Q437 348 457 327 Q477 306 486.5 279 Q496 252 496 215 Q496 162 476 119.5 Q456 77 421 48 Q386 19 337 3.5 Q288 -12 230 -12 Q152 -12 93 18 Q34 48 -1 96 L50 146 Z M443 902 L472 839 L289 755 L264 802 L443 902 Z " />
<glyph glyph-name="sacute" unicode="&#x15b;" horiz-adv-x="464" d="M32 118 Q61 88 101 68 Q141 48 186 48 Q241 48 278 74.5 Q315 101 315 153 Q315 170 309.5 183 Q304 196 291 205.5 Q278 215 256.5 223.5 Q235 232 204 240 Q128 260 95.5 291.5 Q63 323 63 378 Q63 412 77.5 441.5 Q92 471 118.5 492 Q145 513 182.5 525 Q220 537 267 537 Q325 537 367 517 Q409 497 439 459 L395 415 Q367 447 332 462 Q297 477 262 477 Q202 477 171 452.5 Q140 428 140 386 Q140 350 168 332 Q196 314 253 297 Q326 277 359.5 246.5 Q393 216 393 161 Q393 119 377 87 Q361 55 333 33 Q305 11 266 -0.5 Q227 -12 182 -12 Q113 -12 64.5 12 Q16 36 -12 71 L32 118 Z M383 773 L423 721 L256 599 L224 640 L383 773 Z " />
<glyph glyph-name="Scircumflex" unicode="&#x15c;" horiz-adv-x="558" d="M50 146 Q88 101 135 76.5 Q182 52 237 52 Q274 52 306.5 62 Q339 72 363.5 91.5 Q388 111 402 139.5 Q416 168 416 206 Q416 230 408.5 249 Q401 268 384.5 283.5 Q368 299 341.5 312 Q315 325 276 338 Q229 354 194.5 371 Q160 388 138 410 Q116 432 105.5 460 Q95 488 95 526 Q95 573 114 611 Q133 649 166.5 676 Q200 703 245.5 718 Q291 733 345 733 Q419 733 471 707.5 Q523 682 558 630 L508 583 Q476 628 432 648.5 Q388 669 340 669 Q307 669 277 661 Q247 653 224.5 636 Q202 619 188.5 593 Q175 567 175 532 Q175 505 185.5 486 Q196 467 216 452 Q236 437 265 424 Q294 411 332 397 Q375 381 406 364.5 Q437 348 457 327 Q477 306 486.5 279 Q496 252 496 215 Q496 162 476 119.5 Q456 77 421 48 Q386 19 337 3.5 Q288 -12 230 -12 Q152 -12 93 18 Q34 48 -1 96 L50 146 Z M396 889 L471 790 L436 759 L359 831 L260 759 L232 790 L344 889 L396 889 Z " />
<glyph glyph-name="scircumflex" unicode="&#x15d;" horiz-adv-x="464" d="M32 118 Q61 88 101 68 Q141 48 186 48 Q241 48 278 74.5 Q315 101 315 153 Q315 170 309.5 183 Q304 196 291 205.5 Q278 215 256.5 223.5 Q235 232 204 240 Q128 260 95.5 291.5 Q63 323 63 378 Q63 412 77.5 441.5 Q92 471 118.5 492 Q145 513 182.5 525 Q220 537 267 537 Q325 537 367 517 Q409 497 439 459 L395 415 Q367 447 332 462 Q297 477 262 477 Q202 477 171 452.5 Q140 428 140 386 Q140 350 168 332 Q196 314 253 297 Q326 277 359.5 246.5 Q393 216 393 161 Q393 119 377 87 Q361 55 333 33 Q305 11 266 -0.5 Q227 -12 182 -12 Q113 -12 64.5 12 Q16 36 -12 71 L32 118 Z M330 755 L409 607 L368 580 L295 693 L184 581 L151 607 L279 755 L330 755 Z " />
<glyph glyph-name="Scedilla" unicode="&#x15e;" horiz-adv-x="558" d="M147 -150 Q160 -155 175 -159 Q190 -163 207 -163 Q227 -163 242.5 -155.5 Q258 -148 258 -122 Q258 -105 242.5 -99.5 Q227 -94 198 -94 L183 -94 L214 -11 Q142 -8 87 21 Q32 50 -1 96 L50 146 Q88 101 135 76.5 Q182 52 237 52 Q274 52 306.5 62 Q339 72 363.5 91.5 Q388 111 402 139.5 Q416 168 416 206 Q416 230 408.5 249 Q401 268 384.5 283.5 Q368 299 341.5 312 Q315 325 276 338 Q229 354 194.5 371 Q160 388 138 410 Q116 432 105.5 460 Q95 488 95 526 Q95 573 114 611 Q133 649 166.5 676 Q200 703 245.5 718 Q291 733 345 733 Q419 733 471 707.5 Q523 682 558 630 L508 583 Q476 628 432 648.5 Q388 669 340 669 Q307 669 277 661 Q247 653 224.5 636 Q202 619 188.5 593 Q175 567 175 532 Q175 505 185.5 486 Q196 467 216 452 Q236 437 265 424 Q294 411 332 397 Q375 381 406 364.5 Q437 348 457 327 Q477 306 486.5 279 Q496 252 496 215 Q496 165 478.5 125 Q461 85 430 56 Q399 27 355.5 10 Q312 -7 260 -11 L244 -55 Q257 -55 269.5 -58 Q282 -61 292 -68 Q302 -75 308.5 -86 Q315 -97 315 -114 Q315 -162 284 -185 Q253 -208 204 -208 Q179 -208 158 -202 Q137 -196 129 -191 L147 -150 Z " />
<glyph glyph-name="scedilla" unicode="&#x15f;" horiz-adv-x="464" d="M90 -150 Q103 -155 118 -159 Q133 -163 150 -163 Q170 -163 185.5 -155.5 Q201 -148 201 -122 Q201 -105 185.5 -99.5 Q170 -94 141 -94 L126 -94 L157 -11 Q98 -6 55.5 16.5 Q13 39 -12 71 L32 118 Q61 88 101 68 Q141 48 186 48 Q210 48 227 52 Q266 60 290.5 85.5 Q315 111 315 153 Q315 170 309.5 183 Q304 196 291 205.5 Q278 215 256.5 223.5 Q235 232 204 240 Q128 260 95.5 291.5 Q63 323 63 378 Q63 438 104 479.5 Q145 521 217 533 Q229 535 241 536 Q253 537 267 537 Q325 537 367 517 Q409 497 439 459 L395 415 Q367 447 332 462 Q297 477 262 477 Q236 477 219 473 Q140 456 140 386 Q140 350 168 332 Q196 314 253 297 Q326 277 359.5 246.5 Q393 216 393 161 Q393 122 378.5 91 Q364 60 338.5 38 Q313 16 278.5 4 Q244 -8 203 -11 L187 -55 Q200 -55 212.5 -58 Q225 -61 235 -68 Q245 -75 251.5 -86 Q258 -97 258 -114 Q258 -149 240 -171 Q222 -193 192 -202 Q172 -208 147 -208 Q122 -208 101 -202 Q80 -196 72 -191 L90 -150 Z " />
<glyph glyph-name="Scaron" unicode="&#x160;" horiz-adv-x="558" d="M50 146 Q88 101 135 76.5 Q182 52 237 52 Q274 52 306.5 62 Q339 72 363.5 91.5 Q388 111 402 139.5 Q416 168 416 206 Q416 230 408.5 249 Q401 268 384.5 283.5 Q368 299 341.5 312 Q315 325 276 338 Q229 354 194.5 371 Q160 388 138 410 Q116 432 105.5 460 Q95 488 95 526 Q95 573 114 611 Q133 649 166.5 676 Q200 703 245.5 718 Q291 733 345 733 Q419 733 471 707.5 Q523 682 558 630 L508 583 Q476 628 432 648.5 Q388 669 340 669 Q307 669 277 661 Q247 653 224.5 636 Q202 619 188.5 593 Q175 567 175 532 Q175 505 185.5 486 Q196 467 216 452 Q236 437 265 424 Q294 411 332 397 Q375 381 406 364.5 Q437 348 457 327 Q477 306 486.5 279 Q496 252 496 215 Q496 162 476 119.5 Q456 77 421 48 Q386 19 337 3.5 Q288 -12 230 -12 Q152 -12 93 18 Q34 48 -1 96 L50 146 Z M327 766 L250 865 L288 897 L363 824 L464 896 L488 865 L380 766 L327 766 Z " />
<glyph glyph-name="scaron" unicode="&#x161;" horiz-adv-x="464" d="M32 118 Q61 88 101 68 Q141 48 186 48 Q241 48 278 74.5 Q315 101 315 153 Q315 170 309.5 183 Q304 196 291 205.5 Q278 215 256.5 223.5 Q235 232 204 240 Q128 260 95.5 291.5 Q63 323 63 378 Q63 412 77.5 441.5 Q92 471 118.5 492 Q145 513 182.5 525 Q220 537 267 537 Q325 537 367 517 Q409 497 439 459 L395 415 Q367 447 332 462 Q297 477 262 477 Q202 477 171 452.5 Q140 428 140 386 Q140 350 168 332 Q196 314 253 297 Q326 277 359.5 246.5 Q393 216 393 161 Q393 119 377 87 Q361 55 333 33 Q305 11 266 -0.5 Q227 -12 182 -12 Q113 -12 64.5 12 Q16 36 -12 71 L32 118 Z M253 586 L174 734 L217 760 L289 648 L401 762 L433 734 L304 586 L253 586 Z " />
<glyph glyph-name="Scommaaccent" unicode="&#x218;" horiz-adv-x="558" d="M50 146 Q88 101 135 76.5 Q182 52 237 52 Q274 52 306.5 62 Q339 72 363.5 91.5 Q388 111 402 139.5 Q416 168 416 206 Q416 230 408.5 249 Q401 268 384.5 283.5 Q368 299 341.5 312 Q315 325 276 338 Q229 354 194.5 371 Q160 388 138 410 Q116 432 105.5 460 Q95 488 95 526 Q95 573 114 611 Q133 649 166.5 676 Q200 703 245.5 718 Q291 733 345 733 Q419 733 471 707.5 Q523 682 558 630 L508 583 Q476 628 432 648.5 Q388 669 340 669 Q307 669 277 661 Q247 653 224.5 636 Q202 619 188.5 593 Q175 567 175 532 Q175 505 185.5 486 Q196 467 216 452 Q236 437 265 424 Q294 411 332 397 Q375 381 406 364.5 Q437 348 457 327 Q477 306 486.5 279 Q496 252 496 215 Q496 162 476 119.5 Q456 77 421 48 Q386 19 337 3.5 Q288 -12 230 -12 Q152 -12 93 18 Q34 48 -1 96 L50 146 Z M219 -60 L283 -76 L202 -235 L152 -220 L219 -60 Z " />
<glyph glyph-name="scommaaccent" unicode="&#x219;" horiz-adv-x="464" d="M32 118 Q61 88 101 68 Q141 48 186 48 Q241 48 278 74.5 Q315 101 315 153 Q315 170 309.5 183 Q304 196 291 205.5 Q278 215 256.5 223.5 Q235 232 204 240 Q128 260 95.5 291.5 Q63 323 63 378 Q63 412 77.5 441.5 Q92 471 118.5 492 Q145 513 182.5 525 Q220 537 267 537 Q325 537 367 517 Q409 497 439 459 L395 415 Q367 447 332 462 Q297 477 262 477 Q202 477 171 452.5 Q140 428 140 386 Q140 350 168 332 Q196 314 253 297 Q326 277 359.5 246.5 Q393 216 393 161 Q393 119 377 87 Q361 55 333 33 Q305 11 266 -0.5 Q227 -12 182 -12 Q113 -12 64.5 12 Q16 36 -12 71 L32 118 Z M170 -60 L234 -76 L153 -235 L103 -220 L170 -60 Z " />
<glyph glyph-name="uni021A" unicode="&#x21a;" horiz-adv-x="550" d="M298 653 L77 653 L87 720 L603 720 L593 653 L373 653 L263 0 L188 0 L298 653 Z M182 -60 L246 -76 L165 -235 L115 -220 L182 -60 Z " />
<glyph glyph-name="uni021B" unicode="&#x21b;" horiz-adv-x="279" d="M181 464 L119 94 Q118 89 117.5 85 Q117 81 117 77 Q117 59 126.5 52.5 Q136 46 153 46 Q167 46 180 50 Q193 54 206 59 L212 7 Q193 -1 171 -6.5 Q149 -12 127 -12 Q89 -12 67 4.5 Q45 21 45 56 Q45 62 45 68.5 Q45 75 47 83 L111 464 L48 464 L55 510 L121 524 L156 667 L215 667 L191 525 L280 525 L270 464 L181 464 Z M85 -60 L149 -76 L68 -235 L18 -220 L85 -60 Z " />
<glyph glyph-name="Tcaron" unicode="&#x164;" horiz-adv-x="550" d="M298 653 L77 653 L87 720 L603 720 L593 653 L373 653 L263 0 L188 0 L298 653 Z M330 766 L253 865 L291 897 L366 824 L467 896 L491 865 L383 766 L330 766 Z " />
<glyph glyph-name="tcaron" unicode="&#x165;" horiz-adv-x="279" d="M181 464 L119 94 Q118 89 117.5 85 Q117 81 117 77 Q117 59 126.5 52.5 Q136 46 153 46 Q167 46 180 50 Q193 54 206 59 L212 7 Q193 -1 171 -6.5 Q149 -12 127 -12 Q89 -12 67 4.5 Q45 21 45 56 Q45 62 45 68.5 Q45 75 47 83 L111 464 L48 464 L55 510 L121 524 L156 667 L215 667 L191 525 L280 525 L270 464 L181 464 Z M327 764 L400 764 L320 579 L264 579 L327 764 Z " />
<glyph glyph-name="Tbar" unicode="&#x166;" horiz-adv-x="551" d="M132 403 L255 403 L297 651 L76 651 L87 720 L603 720 L592 651 L372 651 L330 403 L456 403 L446 341 L320 341 L263 0 L188 0 L245 341 L122 341 L132 403 Z " />
<glyph glyph-name="tbar" unicode="&#x167;" horiz-adv-x="279" d="M181 464 L159 334 L242 334 L232 276 L149 276 L119 97 Q118 92 117.5 88 Q117 84 117 80 Q117 62 126.5 55.5 Q136 49 153 49 Q167 49 180.5 52.5 Q194 56 207 61 L210 7 Q191 -1 167.5 -6.5 Q144 -12 122 -12 Q45 -12 45 56 Q45 62 45 68.5 Q45 75 47 83 L79 276 L16 276 L26 334 L89 334 L111 464 L48 464 L55 510 L121 524 L156 667 L215 667 L191 525 L274 525 L264 464 L181 464 Z " />
<glyph glyph-name="uni0162" unicode="&#x162;" horiz-adv-x="550" d="M297 651 L76 651 L87 720 L603 720 L592 651 L372 651 L263 0 L244 0 L224 -55 Q237 -55 250 -58 Q263 -61 273 -68 Q283 -75 289.5 -86 Q296 -97 296 -114 Q296 -162 264.5 -185 Q233 -208 185 -208 Q160 -208 139 -202 Q118 -196 110 -191 L128 -150 Q141 -155 156 -159 Q171 -163 188 -163 Q208 -163 223 -155.5 Q238 -148 238 -122 Q238 -105 223 -99.5 Q208 -94 179 -94 L164 -94 L199 0 L188 0 L297 651 Z " />
<glyph glyph-name="uni0163" unicode="&#x163;" horiz-adv-x="279" d="M11 -150 Q25 -155 39.5 -159 Q54 -163 71 -163 Q92 -163 107 -154.5 Q122 -146 122 -122 Q122 -105 107 -99.5 Q92 -94 63 -94 L47 -94 L81 -5 Q45 10 45 56 Q45 62 45 68.5 Q45 75 47 83 L111 464 L48 464 L55 510 L121 524 L156 667 L215 667 L191 525 L274 525 L264 464 L181 464 L119 97 Q118 92 117.5 88 Q117 84 117 80 Q117 62 126.5 55.5 Q136 49 153 49 Q167 49 180 52.5 Q193 56 207 61 L210 7 Q191 -1 167 -6.5 Q143 -12 123 -12 L108 -55 Q121 -55 133.5 -58 Q146 -61 156 -68 Q166 -75 172.5 -86 Q179 -97 179 -114 Q179 -162 148 -185 Q117 -208 68 -208 Q43 -208 22 -202 Q1 -196 -7 -191 L11 -150 Z " />
<glyph glyph-name="Utilde" unicode="&#x168;" horiz-adv-x="669" d="M220 720 L146 276 Q140 243 140 214 Q140 134 181.5 94.5 Q223 55 298 55 Q396 55 446 112 Q496 169 514 276 L588 720 L662 720 L587 267 Q564 127 487.5 57.5 Q411 -12 283 -12 Q181 -12 122.5 38 Q64 88 64 194 Q64 211 66 229 Q68 247 71 267 L146 720 L220 720 Z M559 857 Q540 815 518.5 798.5 Q497 782 471 782 Q454 782 437.5 787 Q421 792 406 798.5 Q391 805 377.5 810 Q364 815 354 815 Q342 815 333 808 Q324 801 308 779 L271 796 Q294 838 315.5 854.5 Q337 871 361 871 Q377 871 392 866 Q407 861 420.5 854.5 Q434 848 447.5 843 Q461 838 476 838 Q490 838 499.5 845 Q509 852 523 873 L559 857 Z " />
<glyph glyph-name="utilde" unicode="&#x169;" horiz-adv-x="533" d="M343 0 L356 78 Q341 62 321.5 46 Q302 30 279 17 Q256 4 229 -4 Q202 -12 172 -12 Q135 -12 110 -2.5 Q85 7 69.5 23.5 Q54 40 47.5 63.5 Q41 87 41 114 Q41 128 43 143 Q45 158 47 174 L106 525 L178 525 L122 191 Q120 177 118.5 159 Q117 141 117 130 Q117 88 133 70.5 Q149 53 195 53 Q219 53 242.5 61 Q266 69 287.5 81.5 Q309 94 328 110 Q347 126 362 142 L426 525 L497 525 L409 0 L343 0 Z M472 683 Q453 641 431.5 624.5 Q410 608 384 608 Q367 608 350.5 613 Q334 618 319 624.5 Q304 631 290.5 636 Q277 641 267 641 Q255 641 246 634 Q237 627 221 605 L184 622 Q207 664 228.5 680.5 Q250 697 274 697 Q290 697 305 692 Q320 687 333.5 680.5 Q347 674 360.5 669 Q374 664 389 664 Q403 664 412.5 671 Q422 678 436 699 L472 683 Z " />
<glyph glyph-name="Umacron" unicode="&#x16a;" horiz-adv-x="669" d="M220 720 L146 276 Q140 243 140 214 Q140 134 181.5 94.5 Q223 55 298 55 Q396 55 446 112 Q496 169 514 276 L588 720 L662 720 L587 267 Q564 127 487.5 57.5 Q411 -12 283 -12 Q181 -12 122.5 38 Q64 88 64 194 Q64 211 66 229 Q68 247 71 267 L146 720 L220 720 Z M292 847 L557 847 L547 790 L282 790 L292 847 Z " />
<glyph glyph-name="umacron" unicode="&#x16b;" horiz-adv-x="533" d="M343 0 L356 78 Q341 62 321.5 46 Q302 30 279 17 Q256 4 229 -4 Q202 -12 172 -12 Q135 -12 110 -2.5 Q85 7 69.5 23.5 Q54 40 47.5 63.5 Q41 87 41 114 Q41 128 43 143 Q45 158 47 174 L106 525 L178 525 L122 191 Q120 177 118.5 159 Q117 141 117 130 Q117 88 133 70.5 Q149 53 195 53 Q219 53 242.5 61 Q266 69 287.5 81.5 Q309 94 328 110 Q347 126 362 142 L426 525 L497 525 L409 0 L343 0 Z M196 679 L461 679 L451 621 L186 621 L196 679 Z " />
<glyph glyph-name="Ubreve" unicode="&#x16c;" horiz-adv-x="669" d="M220 720 L146 276 Q140 243 140 214 Q140 134 181.5 94.5 Q223 55 298 55 Q396 55 446 112 Q496 169 514 276 L588 720 L662 720 L587 267 Q564 127 487.5 57.5 Q411 -12 283 -12 Q181 -12 122.5 38 Q64 88 64 194 Q64 211 66 229 Q68 247 71 267 L146 720 L220 720 Z M412 821 Q459 821 482 844.5 Q505 868 516 906 L567 897 Q552 836 512.5 803 Q473 770 410 770 Q345 770 316.5 799 Q288 828 286 885 L339 895 Q341 857 355 839 Q369 821 412 821 Z " />
<glyph glyph-name="ubreve" unicode="&#x16d;" horiz-adv-x="533" d="M343 0 L356 78 Q341 62 321.5 46 Q302 30 279 17 Q256 4 229 -4 Q202 -12 172 -12 Q135 -12 110 -2.5 Q85 7 69.5 23.5 Q54 40 47.5 63.5 Q41 87 41 114 Q41 128 43 143 Q45 158 47 174 L106 525 L178 525 L122 191 Q120 177 118.5 159 Q117 141 117 130 Q117 88 133 70.5 Q149 53 195 53 Q219 53 242.5 61 Q266 69 287.5 81.5 Q309 94 328 110 Q347 126 362 142 L426 525 L497 525 L409 0 L343 0 Z M335 646 Q381 646 403.5 671 Q426 696 437 735 L487 726 Q472 661 433 628 Q394 595 328 595 Q265 595 237 627 Q209 659 207 719 L260 729 Q262 690 276 668 Q290 646 335 646 Z " />
<glyph glyph-name="Uring" unicode="&#x16e;" horiz-adv-x="669" d="M220 720 L146 276 Q127 164 168.5 110.5 Q210 57 298 57 Q396 57 446 113 Q496 169 514 276 L588 720 L662 720 L587 267 Q564 127 487.5 57.5 Q411 -12 283 -12 Q224 -12 179.5 4.5 Q135 21 106.5 55.5 Q78 90 68.5 142.5 Q59 195 71 267 L146 720 L220 720 Z M378 817 Q378 798 389 787.5 Q400 777 419 777 Q445 777 461 794.5 Q477 812 477 838 Q477 856 466.5 866.5 Q456 877 436 877 Q410 877 394 860 Q378 843 378 817 Z M338 812 Q338 834 346.5 852.5 Q355 871 369 884.5 Q383 898 402 906 Q421 914 442 914 Q475 914 495.5 894 Q516 874 516 842 Q516 820 508 801.5 Q500 783 485.5 770 Q471 757 452.5 749.5 Q434 742 413 742 Q379 742 358.5 761 Q338 780 338 812 Z " />
<glyph glyph-name="uring" unicode="&#x16f;" horiz-adv-x="533" d="M343 0 L356 78 Q341 62 321.5 46 Q302 30 279 17 Q256 4 229 -4 Q202 -12 172 -12 Q135 -12 110 -2.5 Q85 7 69.5 23.5 Q54 40 47.5 63.5 Q41 87 41 114 Q41 128 43 143 Q45 158 47 174 L106 525 L178 525 L122 191 Q120 177 118.5 159 Q117 141 117 130 Q117 88 133 70.5 Q149 53 195 53 Q219 53 242.5 61 Q266 69 287.5 81.5 Q309 94 328 110 Q347 126 362 142 L426 525 L497 525 L409 0 L343 0 Z M282 655 Q282 619 319 619 Q342 619 356 635 Q370 651 370 674 Q370 708 333 708 Q310 708 296 693 Q282 678 282 655 Z M233 648 Q233 670 241.5 689.5 Q250 709 265 722.5 Q280 736 299.5 744 Q319 752 341 752 Q375 752 396.5 732 Q418 712 418 679 Q418 656 409.5 637 Q401 618 386.5 604.5 Q372 591 352.5 583.5 Q333 576 311 576 Q276 576 254.5 595 Q233 614 233 648 Z " />
<glyph glyph-name="Uhungarumlaut" unicode="&#x170;" horiz-adv-x="669" d="M220 720 L146 276 Q140 243 140 214 Q140 134 181.5 94.5 Q223 55 298 55 Q396 55 446 112 Q496 169 514 276 L588 720 L662 720 L587 267 Q564 127 487.5 57.5 Q411 -12 283 -12 Q181 -12 122.5 38 Q64 88 64 194 Q64 211 66 229 Q68 247 71 267 L146 720 L220 720 Z M481 890 L331 755 L297 787 L437 931 L481 890 Z M602 874 L460 754 L428 790 L562 918 L602 874 Z " />
<glyph glyph-name="uhungarumlaut" unicode="&#x171;" horiz-adv-x="533" d="M343 0 L356 78 Q341 62 321.5 46 Q302 30 279 17 Q256 4 229 -4 Q202 -12 172 -12 Q135 -12 110 -2.5 Q85 7 69.5 23.5 Q54 40 47.5 63.5 Q41 87 41 114 Q41 128 43 143 Q45 158 47 174 L106 525 L178 525 L122 191 Q120 177 118.5 159 Q117 141 117 130 Q117 88 133 70.5 Q149 53 195 53 Q219 53 242.5 61 Q266 69 287.5 81.5 Q309 94 328 110 Q347 126 362 142 L426 525 L497 525 L409 0 L343 0 Z M384 724 L246 583 L207 613 L334 760 L384 724 Z M506 709 L374 583 L336 613 L458 747 L506 709 Z " />
<glyph glyph-name="Uogonek" unicode="&#x172;" horiz-adv-x="669" d="M220 720 L146 276 Q140 243 140 214 Q140 134 181.5 94.5 Q223 55 298 55 Q315 55 329.5 57 Q344 59 358 62 Q426 79 462.5 133 Q499 187 514 276 L588 720 L662 720 L587 267 Q573 179 536.5 117.5 Q500 56 433 10 Q408 -7 386.5 -25.5 Q365 -44 349 -63.5 Q333 -83 323.5 -102 Q314 -121 314 -138 Q314 -166 347 -166 Q362 -166 375.5 -162 Q389 -158 404 -151 L416 -193 Q397 -204 371.5 -213.5 Q346 -223 318 -223 Q280 -223 262 -205.5 Q244 -188 244 -160 Q244 -139 252 -118.5 Q260 -98 273 -79 Q286 -60 302.5 -42 Q319 -24 337 -8 Q323 -10 311 -11 Q299 -12 283 -12 Q181 -12 122.5 38 Q64 88 64 194 Q64 211 66 229 Q68 247 71 267 L146 720 L220 720 Z " />
<glyph glyph-name="uogonek" unicode="&#x173;" horiz-adv-x="533" d="M409 0 Q360 -38 331 -72 Q302 -106 302 -138 Q302 -166 335 -166 Q350 -166 363.5 -162 Q377 -158 392 -151 L404 -193 Q385 -204 359.5 -213.5 Q334 -223 306 -223 Q268 -223 250 -205.5 Q232 -188 232 -160 Q232 -137 241 -115.5 Q250 -94 265.5 -73.5 Q281 -53 301 -34 Q321 -15 343 2 L356 78 Q341 62 321.5 46 Q302 30 279 17 Q256 4 229 -4 Q202 -12 172 -12 Q135 -12 110 -2.5 Q85 7 69.5 23.5 Q54 40 47.5 63.5 Q41 87 41 114 Q41 128 43 143 Q45 158 47 174 L106 525 L178 525 L122 191 Q120 177 118.5 159 Q117 141 117 130 Q117 88 133 70.5 Q149 53 195 53 Q219 53 242.5 61 Q266 69 287.5 81.5 Q309 94 328 110 Q347 126 362 142 L426 525 L497 525 L409 0 L409 0 Z " />
<glyph glyph-name="Wcircumflex" unicode="&#x174;" horiz-adv-x="895" d="M87 720 L163 720 L219 98 L481 720 L555 720 L610 97 L870 720 L947 720 L642 0 L555 0 L500 607 L241 0 L154 0 L87 720 Z M569 889 L644 790 L609 759 L532 831 L433 759 L405 790 L517 889 L569 889 Z " />
<glyph glyph-name="wcircumflex" unicode="&#x175;" horiz-adv-x="700" d="M712 525 L500 0 L421 0 L366 419 L177 0 L97 0 L60 525 L130 525 L153 88 L347 520 L418 520 L474 88 L641 525 L712 525 Z M443 755 L522 607 L481 580 L408 693 L297 581 L264 607 L392 755 L443 755 Z " />
<glyph glyph-name="Wgrave" unicode="&#x1e80;" horiz-adv-x="895" d="M87 720 L163 720 L219 98 L481 720 L555 720 L610 97 L870 720 L947 720 L642 0 L555 0 L500 607 L241 0 L154 0 L87 720 Z M599 798 L570 755 L404 835 L438 898 L599 798 Z " />
<glyph glyph-name="wgrave" unicode="&#x1e81;" horiz-adv-x="700" d="M712 525 L500 0 L421 0 L366 419 L177 0 L97 0 L60 525 L130 525 L153 88 L347 520 L418 520 L474 88 L641 525 L712 525 Z M470 619 L438 584 L289 707 L339 758 L470 619 Z " />
<glyph glyph-name="Wacute" unicode="&#x1e82;" horiz-adv-x="895" d="M87 720 L163 720 L219 98 L481 720 L555 720 L610 97 L870 720 L947 720 L642 0 L555 0 L500 607 L241 0 L154 0 L87 720 Z M593 902 L622 839 L439 755 L414 802 L593 902 Z " />
<glyph glyph-name="wacute" unicode="&#x1e83;" horiz-adv-x="700" d="M712 525 L500 0 L421 0 L366 419 L177 0 L97 0 L60 525 L130 525 L153 88 L347 520 L418 520 L474 88 L641 525 L712 525 Z M479 758 L519 706 L352 584 L320 625 L479 758 Z " />
<glyph glyph-name="Wdieresis" unicode="&#x1e84;" horiz-adv-x="895" d="M87 720 L163 720 L219 98 L481 720 L555 720 L610 97 L870 720 L947 720 L642 0 L555 0 L500 607 L241 0 L154 0 L87 720 Z M581 815 Q581 836 596.5 851.5 Q612 867 636 867 Q655 867 664.5 856.5 Q674 846 674 829 Q674 809 659 793.5 Q644 778 621 778 Q601 778 591 788.5 Q581 799 581 815 Z M398 815 Q398 836 413.5 851.5 Q429 867 452 867 Q472 867 482 856 Q492 845 492 829 Q492 808 476 793 Q460 778 438 778 Q418 778 408 788.5 Q398 799 398 815 Z " />
<glyph glyph-name="wdieresis" unicode="&#x1e85;" horiz-adv-x="700" d="M712 525 L500 0 L421 0 L366 419 L177 0 L97 0 L60 525 L130 525 L153 88 L347 520 L418 520 L474 88 L641 525 L712 525 Z M451 646 Q451 667 466 682.5 Q481 698 506 698 Q525 698 534.5 687.5 Q544 677 544 660 Q544 639 529 624 Q514 609 491 609 Q471 609 461 619.5 Q451 630 451 646 Z M268 646 Q268 667 283.5 682.5 Q299 698 322 698 Q342 698 352 687 Q362 676 362 660 Q362 638 346 623.5 Q330 609 308 609 Q288 609 278 619.5 Q268 630 268 646 Z " />
<glyph glyph-name="Ygrave" unicode="&#x1ef2;" horiz-adv-x="545" d="M232 305 L77 720 L161 720 L283 382 L519 720 L602 720 L307 305 L256 0 L181 0 L232 305 Z M427 798 L398 755 L232 835 L266 898 L427 798 Z " />
<glyph glyph-name="ygrave" unicode="&#x1ef3;" horiz-adv-x="459" d="M479 525 L205 -20 Q181 -68 162 -102.5 Q143 -137 122.5 -159 Q102 -181 77.5 -191.5 Q53 -202 18 -202 Q-8 -202 -27 -199 Q-46 -196 -66 -190 L-48 -135 Q-37 -137 -20 -140 Q-3 -143 19 -143 Q34 -143 47 -138.5 Q60 -134 72 -122.5 Q84 -111 96.5 -90.5 Q109 -70 125 -38 L143 0 L50 525 L125 525 L193 92 L403 525 L479 525 Z M371 619 L339 584 L190 707 L240 758 L371 619 Z " />
<glyph glyph-name="Ycircumflex" unicode="&#x176;" horiz-adv-x="545" d="M232 305 L77 720 L161 720 L283 382 L519 720 L602 720 L307 305 L256 0 L181 0 L232 305 Z M383 889 L458 790 L423 759 L346 831 L247 759 L219 790 L331 889 L383 889 Z " />
<glyph glyph-name="ycircumflex" unicode="&#x177;" horiz-adv-x="459" d="M479 525 L205 -20 Q181 -68 162 -102.5 Q143 -137 122.5 -159 Q102 -181 77.5 -191.5 Q53 -202 18 -202 Q-8 -202 -27 -199 Q-46 -196 -66 -190 L-48 -135 Q-37 -137 -20 -140 Q-3 -143 19 -143 Q34 -143 47 -138.5 Q60 -134 72 -122.5 Q84 -111 96.5 -90.5 Q109 -70 125 -38 L143 0 L50 525 L125 525 L193 92 L403 525 L479 525 Z M332 755 L411 607 L370 580 L297 693 L186 581 L153 607 L281 755 L332 755 Z " />
<glyph glyph-name="Ydieresis" unicode="&#x178;" horiz-adv-x="545" d="M232 305 L77 720 L161 720 L283 382 L519 720 L602 720 L307 305 L256 0 L181 0 L232 305 Z M396 815 Q396 836 411.5 851.5 Q427 867 451 867 Q470 867 479.5 856.5 Q489 846 489 829 Q489 809 474 793.5 Q459 778 436 778 Q416 778 406 788.5 Q396 799 396 815 Z M213 815 Q213 836 228.5 851.5 Q244 867 267 867 Q287 867 297 856 Q307 845 307 829 Q307 808 291 793 Q275 778 253 778 Q233 778 223 788.5 Q213 799 213 815 Z " />
<glyph glyph-name="Zacute" unicode="&#x179;" horiz-adv-x="566" d="M-2 51 L485 653 L105 653 L115 720 L606 720 L601 686 L99 67 L494 67 L482 0 L-11 0 L-2 51 Z M459 902 L488 839 L305 755 L280 802 L459 902 Z " />
<glyph glyph-name="zacute" unicode="&#x17a;" horiz-adv-x="424" d="M-6 49 L323 463 L66 463 L77 525 L430 525 L423 487 L82 60 L350 60 L340 0 L-14 0 L-6 49 Z M373 758 L413 706 L246 584 L214 625 L373 758 Z " />
<glyph glyph-name="Zdotaccent" unicode="&#x17b;" horiz-adv-x="566" d="M-2 51 L485 653 L105 653 L115 720 L606 720 L601 686 L99 67 L494 67 L482 0 L-11 0 L-2 51 Z M322 814 Q322 838 339 852 Q356 866 379 866 Q398 866 409 856 Q420 846 420 828 Q420 805 403.5 790.5 Q387 776 364 776 Q345 776 333.5 786.5 Q322 797 322 814 Z " />
<glyph glyph-name="zdotaccent" unicode="&#x17c;" horiz-adv-x="424" d="M-6 49 L323 463 L66 463 L77 525 L430 525 L423 487 L82 60 L350 60 L340 0 L-14 0 L-6 49 Z M220 661 Q220 684 237 698.5 Q254 713 277 713 Q296 713 307 702.5 Q318 692 318 674 Q318 651 301.5 637 Q285 623 262 623 Q243 623 231.5 633.5 Q220 644 220 661 Z " />
<glyph glyph-name="Zcaron" unicode="&#x17d;" horiz-adv-x="566" d="M-2 51 L485 653 L105 653 L115 720 L606 720 L601 686 L99 67 L494 67 L482 0 L-11 0 L-2 51 Z M335 766 L258 865 L296 897 L371 824 L472 896 L496 865 L388 766 L335 766 Z " />
<glyph glyph-name="zcaron" unicode="&#x17e;" horiz-adv-x="424" d="M-6 49 L323 463 L66 463 L77 525 L430 525 L423 487 L82 60 L350 60 L340 0 L-14 0 L-6 49 Z M240 586 L161 734 L204 760 L276 648 L388 762 L420 734 L291 586 L240 586 Z " />
<glyph glyph-name="longs" unicode="&#x17f;" horiz-adv-x="255" d="M113 464 L55 464 L62 510 L122 521 L135 596 Q140 624 150.5 649 Q161 674 178 693 Q195 712 218.5 722.5 Q242 733 274 733 Q304 733 336 724 L323 668 Q313 671 302.5 673 Q292 675 278 675 Q255 675 235 659 Q215 643 207 600 L107 0 L35 0 L113 464 Z " />
<glyph glyph-name="dotlessj" unicode="&#x237;" horiz-adv-x="226" d="M86 -73 Q81 -103 71.5 -127.5 Q62 -152 47 -168.5 Q32 -185 9.5 -194 Q-13 -203 -44 -203 Q-62 -203 -79 -201 Q-96 -199 -110 -193 L-93 -137 Q-85 -140 -73.5 -141.5 Q-62 -143 -50 -143 Q-24 -143 -8 -129 Q8 -115 16 -69 L116 525 L186 525 L86 -73 Z " />
<glyph glyph-name="ff" unicode="&#xfb00;" horiz-adv-x="524" d="M378 464 L184 464 L106 0 L35 0 L113 464 L55 464 L62 510 L122 521 L133 584 Q137 612 147.5 637 Q158 662 175 680.5 Q192 699 216 709.5 Q240 720 271 720 Q303 720 335 711 L321 656 Q311 659 300.5 661 Q290 663 276 663 Q253 663 232.5 647 Q212 631 204 588 L194 525 L388 525 L400 597 Q405 625 415.5 650 Q426 675 442.5 693.5 Q459 712 482.5 722.5 Q506 733 538 733 Q569 733 601 724 L587 668 Q578 671 567 673 Q556 675 542 675 Q519 675 499 659.5 Q479 644 472 601 L459 525 L553 525 L543 464 L449 464 L371 0 L300 0 L378 464 Z " />
<glyph glyph-name="fi" unicode="&#xfb01;" horiz-adv-x="499" d="M113 464 L55 464 L62 510 L122 521 L135 596 Q140 624 150.5 649 Q161 674 177.5 693 Q194 712 217.5 722.5 Q241 733 273 733 Q302 733 334 724 L322 668 Q304 674 278 674 Q255 674 234.5 658.5 Q214 643 206 600 L194 525 L459 525 L371 0 L300 0 L378 464 L184 464 L106 0 L35 0 L113 464 Z M398 660 Q398 686 415.5 700.5 Q433 715 456 715 Q474 715 485 704.5 Q496 694 496 676 Q496 651 479.5 635.5 Q463 620 440 620 Q422 620 410 631 Q398 642 398 660 Z " />
<glyph glyph-name="fl" unicode="&#xfb02;" horiz-adv-x="494" d="M113 464 L55 464 L62 510 L122 521 L135 596 Q140 624 150.5 649 Q161 674 177.5 693 Q194 712 217.5 722.5 Q241 733 273 733 Q302 733 334 724 L322 668 Q304 674 278 674 Q255 674 234.5 658.5 Q214 643 206 600 L194 525 L388 525 L420 720 L491 720 L371 0 L300 0 L378 464 L184 464 L106 0 L35 0 L113 464 Z " />
<glyph glyph-name="ft" unicode="&#xf603;" horiz-adv-x="546" d="M448 464 L386 97 Q381 69 389.5 59 Q398 49 420 49 Q434 49 447 52.5 Q460 56 474 61 L477 7 Q457 -1 433.5 -6.5 Q410 -12 389 -12 Q298 -12 314 83 L378 464 L184 464 L106 0 L35 0 L113 464 L55 464 L62 510 L122 521 L135 596 Q140 624 150.5 649 Q161 674 177.5 693 Q194 712 217.5 722.5 Q241 733 273 733 Q302 733 334 724 L322 668 Q304 674 278 674 Q255 674 234.5 658.5 Q214 643 206 600 L194 525 L388 525 L423 667 L482 667 L458 525 L547 525 L537 464 L448 464 Z " />
<glyph glyph-name="ffi" unicode="&#xfb03;" horiz-adv-x="763" d="M378 464 L184 464 L106 0 L35 0 L113 464 L55 464 L62 510 L122 521 L133 585 Q138 613 148.5 638 Q159 663 176 681.5 Q193 700 216.5 710.5 Q240 721 271 721 Q287 721 303 718.5 Q319 716 335 711 L321 656 Q311 659 300.5 661 Q290 663 276 663 Q253 663 232.5 647.5 Q212 632 205 589 L194 525 L388 525 L400 596 Q404 624 414.5 649 Q425 674 442 693 Q459 712 482.5 722.5 Q506 733 538 733 Q568 733 598 724 L587 668 Q567 674 542 674 Q519 674 499 658.5 Q479 643 471 600 L459 525 L723 525 L635 0 L563 0 L641 464 L449 464 L371 0 L300 0 L378 464 Z M661 660 Q661 686 679 700.5 Q697 715 720 715 Q738 715 749 704.5 Q760 694 760 676 Q760 651 743.5 635.5 Q727 620 704 620 Q685 620 673 631 Q661 642 661 660 Z " />
<glyph glyph-name="ffl" unicode="&#xfb04;" horiz-adv-x="759" d="M378 464 L184 464 L106 0 L35 0 L113 464 L55 464 L62 510 L122 521 L133 584 Q137 612 147.5 637 Q158 662 175 680.5 Q192 699 215.5 709.5 Q239 720 270 720 Q303 720 335 711 L321 656 Q311 659 300.5 661 Q290 663 276 663 Q253 663 232.5 647 Q212 631 204 588 L194 525 L388 525 L400 596 Q404 624 414.5 649 Q425 674 442 693 Q459 712 482.5 722.5 Q506 733 538 733 Q568 733 598 724 L587 668 Q567 674 542 674 Q519 674 499 658.5 Q479 643 471 600 L459 525 L653 525 L685 720 L756 720 L636 0 L565 0 L643 464 L449 464 L371 0 L300 0 L378 464 Z " />
<glyph glyph-name="perthousand" unicode="&#x2030;" horiz-adv-x="1076" d="M445 127 Q445 165 460 198.5 Q475 232 500 257 Q525 282 558.5 296.5 Q592 311 630 311 Q671 311 700 291.5 Q729 272 743 237 Q769 271 806 291 Q843 311 886 311 Q915 311 938.5 301 Q962 291 979 273 Q996 255 1005 230.5 Q1014 206 1014 178 Q1014 140 999 107 Q984 74 959.5 49 Q935 24 902.5 10 Q870 -4 836 -4 Q791 -4 759.5 15.5 Q728 35 714 67 Q686 32 650 14 Q614 -4 575 -4 Q515 -4 480 33 Q445 70 445 127 Z M82 532 Q82 570 96.5 603.5 Q111 637 136.5 662 Q162 687 195.5 701.5 Q229 716 267 716 Q327 716 362.5 679.5 Q398 643 398 584 Q398 546 383 513 Q368 480 342.5 455 Q317 430 283.5 416 Q250 402 214 402 Q154 402 118 437.5 Q82 473 82 532 Z M661 720 L736 720 L190 0 L116 0 L661 720 Z M142 541 Q142 503 164 479 Q186 455 223 455 Q247 455 268 464.5 Q289 474 304.5 490 Q320 506 329 528 Q338 550 338 576 Q338 614 316.5 638.5 Q295 663 258 663 Q234 663 212.5 653.5 Q191 644 175.5 627.5 Q160 611 151 588.5 Q142 566 142 541 Z M504 136 Q504 98 526 74 Q548 50 586 50 Q610 50 631 59.5 Q652 69 668 85.5 Q684 102 693 123.5 Q702 145 702 170 Q702 207 680.5 232.5 Q659 258 621 258 Q597 258 575.5 248.5 Q554 239 538.5 222.5 Q523 206 513.5 183.5 Q504 161 504 136 Z M758 136 Q758 99 779 74.5 Q800 50 838 50 Q862 50 883 59.5 Q904 69 919.5 85.5 Q935 102 944 123.5 Q953 145 953 170 Q953 207 932 232.5 Q911 258 873 258 Q850 258 829 248.5 Q808 239 792 222.5 Q776 206 767 183.5 Q758 161 758 136 Z " />
<glyph glyph-name="percent" unicode="&#x25;" horiz-adv-x="824" d="M506 137 Q506 99 527.5 74.5 Q549 50 587 50 Q611 50 631.5 59.5 Q652 69 668 85.5 Q684 102 693 123.5 Q702 145 702 170 Q702 207 680.5 232.5 Q659 258 622 258 Q598 258 577 248.5 Q556 239 540 222.5 Q524 206 515 184 Q506 162 506 137 Z M446 128 Q446 166 461 199.5 Q476 233 501 257.5 Q526 282 559.5 296.5 Q593 311 631 311 Q661 311 685.5 301 Q710 291 727 273 Q744 255 753.5 230.5 Q763 206 763 177 Q763 139 748 106.5 Q733 74 707.5 49 Q682 24 648.5 10 Q615 -4 578 -4 Q518 -4 482 33 Q446 70 446 128 Z M143 541 Q143 503 165 479 Q187 455 224 455 Q248 455 269 464.5 Q290 474 305.5 490 Q321 506 330 528 Q339 550 339 576 Q339 614 317.5 638.5 Q296 663 259 663 Q235 663 213.5 653.5 Q192 644 176.5 627.5 Q161 611 152 588.5 Q143 566 143 541 Z M83 532 Q83 570 97.5 603.5 Q112 637 137.5 662 Q163 687 196.5 701.5 Q230 716 268 716 Q328 716 363.5 679.5 Q399 643 399 584 Q399 546 384 513 Q369 480 343.5 455 Q318 430 284.5 416 Q251 402 215 402 Q155 402 119 437.5 Q83 473 83 532 Z M662 720 L737 720 L191 0 L117 0 L662 720 Z " />
<glyph glyph-name="fraction" unicode="&#x2044;" horiz-adv-x="112" d="M310 720 L372 720 L-172 -1 L-234 -1 L310 720 Z " />
<glyph glyph-name="zerosuperior" unicode="&#x2070;" horiz-adv-x="349" d="M85 586 Q102 681 144 728 Q186 775 252 775 Q359 775 359 646 Q359 632 358 615 Q357 598 354 581 Q337 481 298 437 Q259 393 194 393 Q140 393 110 424 Q80 455 80 521 Q80 535 81 552 Q82 569 85 586 Z M147 589 Q141 554 141 527 Q141 483 155 464.5 Q169 446 198 446 Q231 446 256.5 476.5 Q282 507 295 584 Q297 598 298.5 612 Q300 626 300 637 Q300 682 284.5 701.5 Q269 721 243 721 Q210 721 184.5 691.5 Q159 662 147 589 Z " />
<glyph glyph-name="onesuperior" unicode="&#xb9;" horiz-adv-x="243" d="M132 400 L180 687 Q154 678 130.5 672.5 Q107 667 81 666 L82 709 Q114 715 149.5 731 Q185 747 211 770 L253 770 L191 400 L132 400 Z " />
<glyph glyph-name="twosuperior" unicode="&#xb2;" horiz-adv-x="298" d="M42 443 L200 586 Q231 614 246.5 632.5 Q262 651 262 680 Q262 721 213 721 Q187 721 157.5 708.5 Q128 696 99 677 L81 716 Q111 740 150.5 757.5 Q190 775 230 775 Q275 775 301 753.5 Q327 732 327 694 Q327 660 309 630 Q291 600 255 568 L123 452 L292 452 L283 400 L35 400 L42 443 Z " />
<glyph glyph-name="threesuperior" unicode="&#xb3;" horiz-adv-x="310" d="M71 482 Q91 464 112 454 Q133 444 166 444 Q209 444 231.5 462.5 Q254 481 254 515 Q254 538 236 550.5 Q218 563 176 563 Q170 563 159 562.5 Q148 562 146 562 L155 614 Q203 615 232 632.5 Q261 650 261 687 Q261 709 246 716.5 Q231 724 207 724 Q183 724 160 717 Q137 710 116 698 L102 739 Q127 754 158.5 764.5 Q190 775 228 775 Q273 775 298.5 756.5 Q324 738 324 700 Q324 662 299.5 633.5 Q275 605 234 594 Q279 591 297 569 Q315 547 315 518 Q315 488 303 464.5 Q291 441 270.5 425.5 Q250 410 222 401.5 Q194 393 163 393 Q123 393 90.5 405 Q58 417 36 443 L71 482 Z " />
<glyph glyph-name="foursuperior" unicode="&#x2074;" horiz-adv-x="327" d="M120 525 L245 525 L276 714 L120 525 Z M236 475 L52 475 L61 523 L264 770 L344 770 L303 525 L345 525 L336 475 L294 475 L282 400 L224 400 L236 475 Z " />
<glyph glyph-name="fivesuperior" unicode="&#x2075;" horiz-adv-x="318" d="M140 770 L340 770 L328 718 L178 718 L151 610 Q165 619 186 627.5 Q207 636 235 636 Q281 636 303 611 Q325 586 325 545 Q325 510 312.5 481.5 Q300 453 278 433.5 Q256 414 226 403.5 Q196 393 162 393 Q131 393 99 402.5 Q67 412 44 431 L72 471 Q95 458 118 450.5 Q141 443 166 443 Q209 443 237 466 Q265 489 265 534 Q265 557 251.5 572 Q238 587 210 587 Q187 587 169.5 578.5 Q152 570 139 561 L131 531 L83 531 L140 770 Z " />
<glyph glyph-name="sixsuperior" unicode="&#x2076;" horiz-adv-x="326" d="M75 520 Q75 574 88 620.5 Q101 667 125.5 701.5 Q150 736 186.5 755.5 Q223 775 271 775 Q295 775 319.5 768 Q344 761 364 746 L336 705 Q302 726 268 726 Q238 726 217 715.5 Q196 705 181.5 686.5 Q167 668 157.5 643 Q148 618 141 590 Q161 607 189 621 Q217 635 248 635 Q296 635 317.5 608 Q339 581 339 543 Q339 507 327 479.5 Q315 452 294 432.5 Q273 413 245 403 Q217 393 185 393 Q127 393 101 427.5 Q75 462 75 520 Z M229 586 Q202 586 176.5 571.5 Q151 557 135 543 Q128 493 143 467 Q158 441 195 441 Q230 441 255.5 463 Q281 485 281 533 Q281 560 267 573 Q253 586 229 586 Z " />
<glyph glyph-name="sevensuperior" unicode="&#x2077;" horiz-adv-x="281" d="M128 400 L68 400 L69 406 L264 718 L77 718 L86 770 L338 770 L331 732 L128 400 Z " />
<glyph glyph-name="eightsuperior" unicode="&#x2078;" horiz-adv-x="323" d="M116 487 Q116 465 133.5 452 Q151 439 183 439 Q221 439 246.5 458 Q272 477 272 509 Q272 535 252 548 Q232 561 199 573 Q183 565 168 557.5 Q153 550 141.5 540 Q130 530 123 517 Q116 504 116 487 Z M166 679 Q166 657 183 645.5 Q200 634 223 623 Q235 628 247 635 Q259 642 269 651 Q279 660 285.5 671 Q292 682 292 694 Q292 713 278 723.5 Q264 734 238 734 Q204 734 185 719.5 Q166 705 166 679 Z M60 478 Q60 525 89.5 552.5 Q119 580 164 597 Q138 608 123 625.5 Q108 643 108 669 Q108 717 146 746 Q184 775 245 775 Q294 775 320 756.5 Q346 738 346 703 Q346 668 322.5 642.5 Q299 617 262 601 Q298 585 315 566 Q332 547 332 518 Q332 489 320.5 466 Q309 443 288.5 426.5 Q268 410 239.5 401.5 Q211 393 177 393 Q120 393 90 416 Q60 439 60 478 Z " />
<glyph glyph-name="ninesuperior" unicode="&#x2079;" horiz-adv-x="326" d="M342 650 Q342 595 329.5 548 Q317 501 293 466.5 Q269 432 233 412.5 Q197 393 150 393 Q124 393 98.5 400 Q73 407 56 420 L81 463 Q96 454 114.5 448 Q133 442 158 442 Q208 442 235 479 Q262 516 277 574 Q254 550 227 539.5 Q200 529 169 529 Q145 529 128 537 Q111 545 100 558.5 Q89 572 84 589 Q79 606 79 625 Q79 660 91 688 Q103 716 124 735.5 Q145 755 173 765 Q201 775 234 775 Q291 775 316.5 741 Q342 707 342 650 Z M189 575 Q216 575 241.5 591 Q267 607 284 624 Q299 727 225 727 Q188 727 161.5 704.5 Q135 682 135 632 Q135 575 189 575 Z " />
<glyph glyph-name="zeroinferior" unicode="&#x2080;" horiz-adv-x="349" d="M7 91 Q24 186 66 233 Q108 280 174 280 Q281 280 281 151 Q281 137 280 120 Q279 103 276 86 Q259 -14 220 -58 Q181 -102 116 -102 Q62 -102 32 -71 Q2 -40 2 26 Q2 40 3 57 Q4 74 7 91 Z M69 94 Q63 59 63 32 Q63 -12 77 -30.5 Q91 -49 120 -49 Q153 -49 178.5 -18.5 Q204 12 217 89 Q219 103 220.5 117 Q222 131 222 142 Q222 187 206.5 206.5 Q191 226 165 226 Q132 226 106.5 196.5 Q81 167 69 94 Z " />
<glyph glyph-name="oneinferior" unicode="&#x2081;" horiz-adv-x="248" d="M66 -95 L114 192 Q88 183 64.5 177.5 Q41 172 15 171 L16 214 Q48 220 83.5 236 Q119 252 145 275 L187 275 L125 -95 L66 -95 Z " />
<glyph glyph-name="twoinferior" unicode="&#x2082;" horiz-adv-x="298" d="M-38 -52 L120 91 Q151 119 166.5 137.5 Q182 156 182 185 Q182 226 133 226 Q107 226 77.5 213.5 Q48 201 19 182 L1 221 Q31 245 70.5 262.5 Q110 280 150 280 Q195 280 221 258.5 Q247 237 247 199 Q247 165 229 135 Q211 105 175 73 L43 -43 L212 -43 L203 -95 L-45 -95 L-38 -52 Z " />
<glyph glyph-name="threeinferior" unicode="&#x2083;" horiz-adv-x="310" d="M-7 -13 Q13 -31 34 -41 Q55 -51 88 -51 Q131 -51 153.5 -32.5 Q176 -14 176 20 Q176 43 158 55.5 Q140 68 98 68 Q92 68 81 67.5 Q70 67 68 67 L77 119 Q125 120 154 137.5 Q183 155 183 192 Q183 214 168 221.5 Q153 229 129 229 Q105 229 82 222 Q59 215 38 203 L24 244 Q49 259 80.5 269.5 Q112 280 150 280 Q195 280 220.5 261.5 Q246 243 246 205 Q246 167 221.5 138.5 Q197 110 156 99 Q201 96 219 74 Q237 52 237 23 Q237 -7 225 -30.5 Q213 -54 192.5 -69.5 Q172 -85 144 -93.5 Q116 -102 85 -102 Q45 -102 12.5 -90 Q-20 -78 -42 -52 L-7 -13 Z " />
<glyph glyph-name="fourinferior" unicode="&#x2084;" horiz-adv-x="327" d="M33 30 L158 30 L189 219 L33 30 Z M149 -20 L-35 -20 L-26 28 L177 275 L257 275 L216 30 L258 30 L249 -20 L207 -20 L195 -95 L137 -95 L149 -20 Z " />
<glyph glyph-name="fiveinferior" unicode="&#x2085;" horiz-adv-x="318" d="M63 275 L263 275 L251 223 L101 223 L74 115 Q88 124 109 132.5 Q130 141 158 141 Q204 141 226 116 Q248 91 248 50 Q248 15 235.5 -13.5 Q223 -42 201 -61.5 Q179 -81 149 -91.5 Q119 -102 85 -102 Q54 -102 22 -92.5 Q-10 -83 -33 -64 L-5 -24 Q18 -37 41 -44.5 Q64 -52 89 -52 Q132 -52 160 -29 Q188 -6 188 39 Q188 62 174.5 77 Q161 92 133 92 Q110 92 92.5 83.5 Q75 75 62 66 L54 36 L6 36 L63 275 Z " />
<glyph glyph-name="sixinferior" unicode="&#x2086;" horiz-adv-x="326" d="M-2 25 Q-2 79 11 125.5 Q24 172 48.5 206.5 Q73 241 109.5 260.5 Q146 280 194 280 Q218 280 242.5 273 Q267 266 287 251 L259 210 Q225 231 191 231 Q161 231 140 220.5 Q119 210 104.5 191.5 Q90 173 80.5 148 Q71 123 64 95 Q84 112 112 126 Q140 140 171 140 Q219 140 240.5 113 Q262 86 262 48 Q262 12 250 -15.5 Q238 -43 217 -62.5 Q196 -82 168 -92 Q140 -102 108 -102 Q50 -102 24 -67.5 Q-2 -33 -2 25 Z M152 91 Q125 91 99.5 76.5 Q74 62 58 48 Q51 -2 66 -28 Q81 -54 118 -54 Q153 -54 178.5 -32 Q204 -10 204 38 Q204 65 190 78 Q176 91 152 91 Z " />
<glyph glyph-name="seveninferior" unicode="&#x2087;" horiz-adv-x="281" d="M53 -95 L-7 -95 L-6 -89 L189 223 L2 223 L11 275 L263 275 L256 237 L53 -95 Z " />
<glyph glyph-name="eightinferior" unicode="&#x2088;" horiz-adv-x="323" d="M36 -8 Q36 -30 53.5 -43 Q71 -56 103 -56 Q141 -56 166.5 -37 Q192 -18 192 14 Q192 40 172 53 Q152 66 119 78 Q103 70 88 62.5 Q73 55 61.5 45 Q50 35 43 22 Q36 9 36 -8 Z M86 184 Q86 162 103 150.5 Q120 139 143 128 Q155 133 167 140 Q179 147 189 156 Q199 165 205.5 176 Q212 187 212 199 Q212 218 198 228.5 Q184 239 158 239 Q124 239 105 224.5 Q86 210 86 184 Z M-20 -17 Q-20 30 9.5 57.5 Q39 85 84 102 Q58 113 43 130.5 Q28 148 28 174 Q28 222 66 251 Q104 280 165 280 Q214 280 240 261.5 Q266 243 266 208 Q266 173 242.5 147.5 Q219 122 182 106 Q218 90 235 71 Q252 52 252 23 Q252 -6 240.5 -29 Q229 -52 208.5 -68.5 Q188 -85 159.5 -93.5 Q131 -102 97 -102 Q40 -102 10 -79 Q-20 -56 -20 -17 Z " />
<glyph glyph-name="nineinferior" unicode="&#x2089;" horiz-adv-x="326" d="M266 155 Q266 100 253.5 53 Q241 6 217 -28.5 Q193 -63 157 -82.5 Q121 -102 74 -102 Q48 -102 22.5 -95 Q-3 -88 -20 -75 L5 -32 Q20 -41 38.5 -47 Q57 -53 82 -53 Q132 -53 159 -16 Q186 21 201 79 Q178 55 151 44.5 Q124 34 93 34 Q69 34 52 42 Q35 50 24 63.5 Q13 77 8 94 Q3 111 3 130 Q3 165 15 193 Q27 221 48 240.5 Q69 260 97 270 Q125 280 158 280 Q215 280 240.5 246 Q266 212 266 155 Z M113 80 Q140 80 165.5 96 Q191 112 208 129 Q223 232 149 232 Q112 232 85.5 209.5 Q59 187 59 137 Q59 80 113 80 Z " />
<glyph glyph-name="onehalf" unicode="&#xbd;" horiz-adv-x="811" d="M578 720 L640 720 L96 -1 L34 -1 L578 720 Z M127 351 L175 638 Q149 629 125.5 623.5 Q102 618 76 617 L77 660 Q109 666 144.5 682 Q180 698 206 721 L248 721 L186 351 L127 351 Z M419 44 L577 187 Q608 215 623.5 233.5 Q639 252 639 281 Q639 322 590 322 Q564 322 534.5 309.5 Q505 297 476 278 L458 317 Q488 341 527.5 358.5 Q567 376 607 376 Q652 376 678 354.5 Q704 333 704 295 Q704 261 686 231 Q668 201 632 169 L500 53 L669 53 L660 1 L412 1 L419 44 Z " />
<glyph glyph-name="onequarter" unicode="&#xbc;" horiz-adv-x="811" d="M644 720 L706 720 L162 -1 L100 -1 L644 720 Z M172 351 L220 638 Q194 629 170.5 623.5 Q147 618 121 617 L122 660 Q154 666 189.5 682 Q225 698 251 721 L293 721 L231 351 L172 351 Z M494 126 L619 126 L650 315 L494 126 Z M610 76 L426 76 L435 124 L638 371 L718 371 L677 126 L719 126 L710 76 L668 76 L656 1 L598 1 L610 76 Z " />
<glyph glyph-name="threequarters" unicode="&#xbe;" horiz-adv-x="811" d="M668 720 L730 720 L186 -1 L124 -1 L668 720 Z M494 126 L619 126 L650 315 L494 126 Z M610 76 L426 76 L435 124 L638 371 L718 371 L677 126 L719 126 L710 76 L668 76 L656 1 L598 1 L610 76 Z M105 433 Q125 415 146 405 Q167 395 200 395 Q243 395 265.5 413.5 Q288 432 288 466 Q288 489 270 501.5 Q252 514 210 514 Q204 514 193 513.5 Q182 513 180 513 L189 565 Q237 566 266 583.5 Q295 601 295 638 Q295 660 280 667.5 Q265 675 241 675 Q217 675 194 668 Q171 661 150 649 L136 690 Q161 705 192.5 715.5 Q224 726 262 726 Q307 726 332.5 707.5 Q358 689 358 651 Q358 613 333.5 584.5 Q309 556 268 545 Q313 542 331 520 Q349 498 349 469 Q349 439 337 415.5 Q325 392 304.5 376.5 Q284 361 256 352.5 Q228 344 197 344 Q157 344 124.5 356 Q92 368 70 394 L105 433 Z " />
<glyph glyph-name="onethird" unicode="&#x2153;" horiz-adv-x="811" d="M614 720 L676 720 L132 -1 L70 -1 L614 720 Z M149 351 L197 638 Q171 629 147.5 623.5 Q124 618 98 617 L99 660 Q131 666 166.5 682 Q202 698 228 721 L270 721 L208 351 L149 351 Z M480 83 Q500 65 521 55 Q542 45 575 45 Q618 45 640.5 63.5 Q663 82 663 116 Q663 139 645 151.5 Q627 164 585 164 Q579 164 568 163.5 Q557 163 555 163 L564 215 Q612 216 641 233.5 Q670 251 670 288 Q670 310 655 317.5 Q640 325 616 325 Q592 325 569 318 Q546 311 525 299 L511 340 Q536 355 567.5 365.5 Q599 376 637 376 Q682 376 707.5 357.5 Q733 339 733 301 Q733 263 708.5 234.5 Q684 206 643 195 Q688 192 706 170 Q724 148 724 119 Q724 89 712 65.5 Q700 42 679.5 26.5 Q659 11 631 2.5 Q603 -6 572 -6 Q532 -6 499.5 6 Q467 18 445 44 L480 83 Z " />
<glyph glyph-name="twothirds" unicode="&#x2154;" horiz-adv-x="811" d="M672 720 L734 720 L190 -1 L128 -1 L672 720 Z M61 394 L219 537 Q250 565 265.5 583.5 Q281 602 281 631 Q281 672 232 672 Q206 672 176.5 659.5 Q147 647 118 628 L100 667 Q130 691 169.5 708.5 Q209 726 249 726 Q294 726 320 704.5 Q346 683 346 645 Q346 611 328 581 Q310 551 274 519 L142 403 L311 403 L302 351 L54 351 L61 394 Z M509 83 Q529 65 550 55 Q571 45 604 45 Q647 45 669.5 63.5 Q692 82 692 116 Q692 139 674 151.5 Q656 164 614 164 Q608 164 597 163.5 Q586 163 584 163 L593 215 Q641 216 670 233.5 Q699 251 699 288 Q699 310 684 317.5 Q669 325 645 325 Q621 325 598 318 Q575 311 554 299 L540 340 Q565 355 596.5 365.5 Q628 376 666 376 Q711 376 736.5 357.5 Q762 339 762 301 Q762 263 737.5 234.5 Q713 206 672 195 Q717 192 735 170 Q753 148 753 119 Q753 89 741 65.5 Q729 42 708.5 26.5 Q688 11 660 2.5 Q632 -6 601 -6 Q561 -6 528.5 6 Q496 18 474 44 L509 83 Z " />
<glyph glyph-name="onefifth" unicode="&#xf500;" horiz-adv-x="811" d="M614 720 L676 720 L132 -1 L70 -1 L614 720 Z M174 351 L222 638 Q196 629 172.5 623.5 Q149 618 123 617 L124 660 Q156 666 191.5 682 Q227 698 253 721 L295 721 L233 351 L174 351 Z M532 371 L732 371 L720 319 L570 319 L543 211 Q557 220 578 228.5 Q599 237 627 237 Q673 237 695 212 Q717 187 717 146 Q717 111 704.5 82.5 Q692 54 670 34.5 Q648 15 618 4.5 Q588 -6 554 -6 Q523 -6 491 3.5 Q459 13 436 32 L464 72 Q487 59 510 51.5 Q533 44 558 44 Q601 44 629 67 Q657 90 657 135 Q657 158 643.5 173 Q630 188 602 188 Q579 188 561.5 179.5 Q544 171 531 162 L523 132 L475 132 L532 371 Z " />
<glyph glyph-name="twofifths" unicode="&#xf501;" horiz-adv-x="811" d="M680 720 L742 720 L198 -1 L136 -1 L680 720 Z M69 394 L227 537 Q258 565 273.5 583.5 Q289 602 289 631 Q289 672 240 672 Q214 672 184.5 659.5 Q155 647 126 628 L108 667 Q138 691 177.5 708.5 Q217 726 257 726 Q302 726 328 704.5 Q354 683 354 645 Q354 611 336 581 Q318 551 282 519 L150 403 L319 403 L310 351 L62 351 L69 394 Z M568 371 L768 371 L756 319 L606 319 L579 211 Q593 220 614 228.5 Q635 237 663 237 Q709 237 731 212 Q753 187 753 146 Q753 111 740.5 82.5 Q728 54 706 34.5 Q684 15 654 4.5 Q624 -6 590 -6 Q559 -6 527 3.5 Q495 13 472 32 L500 72 Q523 59 546 51.5 Q569 44 594 44 Q637 44 665 67 Q693 90 693 135 Q693 158 679.5 173 Q666 188 638 188 Q615 188 597.5 179.5 Q580 171 567 162 L559 132 L511 132 L568 371 Z " />
<glyph glyph-name="threefifths" unicode="&#xf502;" horiz-adv-x="811" d="M674 720 L736 720 L192 -1 L130 -1 L674 720 Z M559 371 L759 371 L747 319 L597 319 L570 211 Q584 220 605 228.5 Q626 237 654 237 Q700 237 722 212 Q744 187 744 146 Q744 111 731.5 82.5 Q719 54 697 34.5 Q675 15 645 4.5 Q615 -6 581 -6 Q550 -6 518 3.5 Q486 13 463 32 L491 72 Q514 59 537 51.5 Q560 44 585 44 Q628 44 656 67 Q684 90 684 135 Q684 158 670.5 173 Q657 188 629 188 Q606 188 588.5 179.5 Q571 171 558 162 L550 132 L502 132 L559 371 Z M103 433 Q123 415 144 405 Q165 395 198 395 Q241 395 263.5 413.5 Q286 432 286 466 Q286 489 268 501.5 Q250 514 208 514 Q202 514 191 513.5 Q180 513 178 513 L187 565 Q235 566 264 583.5 Q293 601 293 638 Q293 660 278 667.5 Q263 675 239 675 Q215 675 192 668 Q169 661 148 649 L134 690 Q159 705 190.5 715.5 Q222 726 260 726 Q305 726 330.5 707.5 Q356 689 356 651 Q356 613 331.5 584.5 Q307 556 266 545 Q311 542 329 520 Q347 498 347 469 Q347 439 335 415.5 Q323 392 302.5 376.5 Q282 361 254 352.5 Q226 344 195 344 Q155 344 122.5 356 Q90 368 68 394 L103 433 Z " />
<glyph glyph-name="fourfifths" unicode="&#xf503;" horiz-adv-x="811" d="M673 720 L735 720 L191 -1 L129 -1 L673 720 Z M572 371 L772 371 L760 319 L610 319 L583 211 Q597 220 618 228.5 Q639 237 667 237 Q713 237 735 212 Q757 187 757 146 Q757 111 744.5 82.5 Q732 54 710 34.5 Q688 15 658 4.5 Q628 -6 594 -6 Q563 -6 531 3.5 Q499 13 476 32 L504 72 Q527 59 550 51.5 Q573 44 598 44 Q641 44 669 67 Q697 90 697 135 Q697 158 683.5 173 Q670 188 642 188 Q619 188 601.5 179.5 Q584 171 571 162 L563 132 L515 132 L572 371 Z M115 476 L240 476 L271 665 L115 476 Z M231 426 L47 426 L56 474 L259 721 L339 721 L298 476 L340 476 L331 426 L289 426 L277 351 L219 351 L231 426 Z " />
<glyph glyph-name="onesixth" unicode="&#xf504;" horiz-adv-x="811" d="M618 720 L680 720 L136 -1 L74 -1 L618 720 Z M163 351 L211 638 Q185 629 161.5 623.5 Q138 618 112 617 L113 660 Q145 666 180.5 682 Q216 698 242 721 L284 721 L222 351 L163 351 Z M447 121 Q447 175 460 221.5 Q473 268 497.5 302.5 Q522 337 558.5 356.5 Q595 376 643 376 Q667 376 691.5 369 Q716 362 736 347 L708 306 Q674 327 640 327 Q610 327 589 316.5 Q568 306 553.5 287.5 Q539 269 529.5 244 Q520 219 513 191 Q533 208 561 222 Q589 236 620 236 Q668 236 689.5 209 Q711 182 711 144 Q711 108 699 80.5 Q687 53 666 33.5 Q645 14 617 4 Q589 -6 557 -6 Q499 -6 473 28.5 Q447 63 447 121 Z M601 187 Q574 187 548.5 172.5 Q523 158 507 144 Q500 94 515 68 Q530 42 567 42 Q602 42 627.5 64 Q653 86 653 134 Q653 161 639 174 Q625 187 601 187 Z " />
<glyph glyph-name="fivesixths" unicode="&#xf505;" horiz-adv-x="811" d="M670 720 L732 720 L188 -1 L126 -1 L670 720 Z M476 121 Q476 175 489 221.5 Q502 268 526.5 302.5 Q551 337 587.5 356.5 Q624 376 672 376 Q696 376 720.5 369 Q745 362 765 347 L737 306 Q703 327 669 327 Q639 327 618 316.5 Q597 306 582.5 287.5 Q568 269 558.5 244 Q549 219 542 191 Q562 208 590 222 Q618 236 649 236 Q697 236 718.5 209 Q740 182 740 144 Q740 108 728 80.5 Q716 53 695 33.5 Q674 14 646 4 Q618 -6 586 -6 Q528 -6 502 28.5 Q476 63 476 121 Z M630 187 Q603 187 577.5 172.5 Q552 158 536 144 Q529 94 544 68 Q559 42 596 42 Q631 42 656.5 64 Q682 86 682 134 Q682 161 668 174 Q654 187 630 187 Z M165 721 L365 721 L353 669 L203 669 L176 561 Q190 570 211 578.5 Q232 587 260 587 Q306 587 328 562 Q350 537 350 496 Q350 461 337.5 432.5 Q325 404 303 384.5 Q281 365 251 354.5 Q221 344 187 344 Q156 344 124 353.5 Q92 363 69 382 L97 422 Q120 409 143 401.5 Q166 394 191 394 Q234 394 262 417 Q290 440 290 485 Q290 508 276.5 523 Q263 538 235 538 Q212 538 194.5 529.5 Q177 521 164 512 L156 482 L108 482 L165 721 Z " />
<glyph glyph-name="oneeighth" unicode="&#x215b;" horiz-adv-x="811" d="M625 720 L687 720 L143 -1 L81 -1 L625 720 Z M172 351 L220 638 Q194 629 170.5 623.5 Q147 618 121 617 L122 660 Q154 666 189.5 682 Q225 698 251 721 L293 721 L231 351 L172 351 Z M504 88 Q504 66 521.5 53 Q539 40 571 40 Q609 40 634.5 59 Q660 78 660 110 Q660 136 640 149 Q620 162 587 174 Q571 166 556 158.5 Q541 151 529.5 141 Q518 131 511 118 Q504 105 504 88 Z M554 280 Q554 258 571 246.5 Q588 235 611 224 Q623 229 635 236 Q647 243 657 252 Q667 261 673.5 272 Q680 283 680 295 Q680 314 666 324.5 Q652 335 626 335 Q592 335 573 320.5 Q554 306 554 280 Z M448 79 Q448 126 477.5 153.5 Q507 181 552 198 Q526 209 511 226.5 Q496 244 496 270 Q496 318 534 347 Q572 376 633 376 Q682 376 708 357.5 Q734 339 734 304 Q734 269 710.5 243.5 Q687 218 650 202 Q686 186 703 167 Q720 148 720 119 Q720 90 708.5 67 Q697 44 676.5 27.5 Q656 11 627.5 2.5 Q599 -6 565 -6 Q508 -6 478 17 Q448 40 448 79 Z " />
<glyph glyph-name="threeeighths" unicode="&#x215c;" horiz-adv-x="811" d="M668 720 L730 720 L186 -1 L124 -1 L668 720 Z M521 88 Q521 66 538.5 53 Q556 40 588 40 Q626 40 651.5 59 Q677 78 677 110 Q677 136 657 149 Q637 162 604 174 Q588 166 573 158.5 Q558 151 546.5 141 Q535 131 528 118 Q521 105 521 88 Z M571 280 Q571 258 588 246.5 Q605 235 628 224 Q640 229 652 236 Q664 243 674 252 Q684 261 690.5 272 Q697 283 697 295 Q697 314 683 324.5 Q669 335 643 335 Q609 335 590 320.5 Q571 306 571 280 Z M465 79 Q465 126 494.5 153.5 Q524 181 569 198 Q543 209 528 226.5 Q513 244 513 270 Q513 318 551 347 Q589 376 650 376 Q699 376 725 357.5 Q751 339 751 304 Q751 269 727.5 243.5 Q704 218 667 202 Q703 186 720 167 Q737 148 737 119 Q737 90 725.5 67 Q714 44 693.5 27.5 Q673 11 644.5 2.5 Q616 -6 582 -6 Q525 -6 495 17 Q465 40 465 79 Z M86 433 Q106 415 127 405 Q148 395 181 395 Q224 395 246.5 413.5 Q269 432 269 466 Q269 489 251 501.5 Q233 514 191 514 Q185 514 174 513.5 Q163 513 161 513 L170 565 Q218 566 247 583.5 Q276 601 276 638 Q276 660 261 667.5 Q246 675 222 675 Q198 675 175 668 Q152 661 131 649 L117 690 Q142 705 173.5 715.5 Q205 726 243 726 Q288 726 313.5 707.5 Q339 689 339 651 Q339 613 314.5 584.5 Q290 556 249 545 Q294 542 312 520 Q330 498 330 469 Q330 439 318 415.5 Q306 392 285.5 376.5 Q265 361 237 352.5 Q209 344 178 344 Q138 344 105.5 356 Q73 368 51 394 L86 433 Z " />
<glyph glyph-name="fiveeighths" unicode="&#x215d;" horiz-adv-x="811" d="M670 720 L732 720 L188 -1 L126 -1 L670 720 Z M152 721 L352 721 L340 669 L190 669 L163 561 Q177 570 198 578.5 Q219 587 247 587 Q293 587 315 562 Q337 537 337 496 Q337 461 324.5 432.5 Q312 404 290 384.5 Q268 365 238 354.5 Q208 344 174 344 Q143 344 111 353.5 Q79 363 56 382 L84 422 Q107 409 130 401.5 Q153 394 178 394 Q221 394 249 417 Q277 440 277 485 Q277 508 263.5 523 Q250 538 222 538 Q199 538 181.5 529.5 Q164 521 151 512 L143 482 L95 482 L152 721 Z M532 88 Q532 66 549.5 53 Q567 40 599 40 Q637 40 662.5 59 Q688 78 688 110 Q688 136 668 149 Q648 162 615 174 Q599 166 584 158.5 Q569 151 557.5 141 Q546 131 539 118 Q532 105 532 88 Z M582 280 Q582 258 599 246.5 Q616 235 639 224 Q651 229 663 236 Q675 243 685 252 Q695 261 701.5 272 Q708 283 708 295 Q708 314 694 324.5 Q680 335 654 335 Q620 335 601 320.5 Q582 306 582 280 Z M476 79 Q476 126 505.5 153.5 Q535 181 580 198 Q554 209 539 226.5 Q524 244 524 270 Q524 318 562 347 Q600 376 661 376 Q710 376 736 357.5 Q762 339 762 304 Q762 269 738.5 243.5 Q715 218 678 202 Q714 186 731 167 Q748 148 748 119 Q748 90 736.5 67 Q725 44 704.5 27.5 Q684 11 655.5 2.5 Q627 -6 593 -6 Q536 -6 506 17 Q476 40 476 79 Z " />
<glyph glyph-name="seveneighths" unicode="&#x215e;" horiz-adv-x="811" d="M625 720 L687 720 L143 -1 L81 -1 L625 720 Z M514 88 Q514 66 531.5 53 Q549 40 581 40 Q619 40 644.5 59 Q670 78 670 110 Q670 136 650 149 Q630 162 597 174 Q581 166 566 158.5 Q551 151 539.5 141 Q528 131 521 118 Q514 105 514 88 Z M564 280 Q564 258 581 246.5 Q598 235 621 224 Q633 229 645 236 Q657 243 667 252 Q677 261 683.5 272 Q690 283 690 295 Q690 314 676 324.5 Q662 335 636 335 Q602 335 583 320.5 Q564 306 564 280 Z M458 79 Q458 126 487.5 153.5 Q517 181 562 198 Q536 209 521 226.5 Q506 244 506 270 Q506 318 544 347 Q582 376 643 376 Q692 376 718 357.5 Q744 339 744 304 Q744 269 720.5 243.5 Q697 218 660 202 Q696 186 713 167 Q730 148 730 119 Q730 90 718.5 67 Q707 44 686.5 27.5 Q666 11 637.5 2.5 Q609 -6 575 -6 Q518 -6 488 17 Q458 40 458 79 Z M166 351 L106 351 L107 357 L302 669 L115 669 L124 721 L376 721 L369 683 L166 351 Z " />
<glyph glyph-name="oneseventh" unicode="&#xf506;" horiz-adv-x="811" d="M616 720 L678 720 L134 -1 L72 -1 L616 720 Z M146 351 L194 638 Q168 629 144.5 623.5 Q121 618 95 617 L96 660 Q128 666 163.5 682 Q199 698 225 721 L267 721 L205 351 L146 351 Z M565 1 L505 1 L506 7 L701 319 L514 319 L523 371 L775 371 L768 333 L565 1 Z " />
<glyph glyph-name="twosevenths" unicode="&#xf507;" horiz-adv-x="811" d="M662 720 L724 720 L180 -1 L118 -1 L662 720 Z M51 394 L209 537 Q240 565 255.5 583.5 Q271 602 271 631 Q271 672 222 672 Q196 672 166.5 659.5 Q137 647 108 628 L90 667 Q120 691 159.5 708.5 Q199 726 239 726 Q284 726 310 704.5 Q336 683 336 645 Q336 611 318 581 Q300 551 264 519 L132 403 L301 403 L292 351 L44 351 L51 394 Z M579 1 L519 1 L520 7 L715 319 L528 319 L537 371 L789 371 L782 333 L579 1 Z " />
<glyph glyph-name="threesevenths" unicode="&#xf508;" horiz-adv-x="811" d="M657 720 L719 720 L175 -1 L113 -1 L657 720 Z M585 1 L525 1 L526 7 L721 319 L534 319 L543 371 L795 371 L788 333 L585 1 Z M80 433 Q100 415 121 405 Q142 395 175 395 Q218 395 240.5 413.5 Q263 432 263 466 Q263 489 245 501.5 Q227 514 185 514 Q179 514 168 513.5 Q157 513 155 513 L164 565 Q212 566 241 583.5 Q270 601 270 638 Q270 660 255 667.5 Q240 675 216 675 Q192 675 169 668 Q146 661 125 649 L111 690 Q136 705 167.5 715.5 Q199 726 237 726 Q282 726 307.5 707.5 Q333 689 333 651 Q333 613 308.5 584.5 Q284 556 243 545 Q288 542 306 520 Q324 498 324 469 Q324 439 312 415.5 Q300 392 279.5 376.5 Q259 361 231 352.5 Q203 344 172 344 Q132 344 99.5 356 Q67 368 45 394 L80 433 Z " />
<glyph glyph-name="foursevenths" unicode="&#xf509;" horiz-adv-x="811" d="M664 720 L726 720 L182 -1 L120 -1 L664 720 Z M112 476 L237 476 L268 665 L112 476 Z M228 426 L44 426 L53 474 L256 721 L336 721 L295 476 L337 476 L328 426 L286 426 L274 351 L216 351 L228 426 Z M586 1 L526 1 L527 7 L722 319 L535 319 L544 371 L796 371 L789 333 L586 1 Z " />
<glyph glyph-name="fivesevenths" unicode="&#xf50a;" horiz-adv-x="811" d="M640 720 L702 720 L158 -1 L96 -1 L640 720 Z M140 721 L340 721 L328 669 L178 669 L151 561 Q165 570 186 578.5 Q207 587 235 587 Q281 587 303 562 Q325 537 325 496 Q325 461 312.5 432.5 Q300 404 278 384.5 Q256 365 226 354.5 Q196 344 162 344 Q131 344 99 353.5 Q67 363 44 382 L72 422 Q95 409 118 401.5 Q141 394 166 394 Q209 394 237 417 Q265 440 265 485 Q265 508 251.5 523 Q238 538 210 538 Q187 538 169.5 529.5 Q152 521 139 512 L131 482 L83 482 L140 721 Z M575 1 L515 1 L516 7 L711 319 L524 319 L533 371 L785 371 L778 333 L575 1 Z " />
<glyph glyph-name="sixsevenths" unicode="&#xf50b;" horiz-adv-x="811" d="M659 720 L721 720 L177 -1 L115 -1 L659 720 Z M74 471 Q74 525 87 571.5 Q100 618 124.5 652.5 Q149 687 185.5 706.5 Q222 726 270 726 Q294 726 318.5 719 Q343 712 363 697 L335 656 Q301 677 267 677 Q237 677 216 666.5 Q195 656 180.5 637.5 Q166 619 156.5 594 Q147 569 140 541 Q160 558 188 572 Q216 586 247 586 Q295 586 316.5 559 Q338 532 338 494 Q338 458 326 430.5 Q314 403 293 383.5 Q272 364 244 354 Q216 344 184 344 Q126 344 100 378.5 Q74 413 74 471 Z M228 537 Q201 537 175.5 522.5 Q150 508 134 494 Q127 444 142 418 Q157 392 194 392 Q229 392 254.5 414 Q280 436 280 484 Q280 511 266 524 Q252 537 228 537 Z M582 1 L522 1 L523 7 L718 319 L531 319 L540 371 L792 371 L785 333 L582 1 Z " />
<glyph glyph-name="oneninth" unicode="&#xf50c;" horiz-adv-x="811" d="M605 720 L667 720 L123 -1 L61 -1 L605 720 Z M141 351 L189 638 Q163 629 139.5 623.5 Q116 618 90 617 L91 660 Q123 666 158.5 682 Q194 698 220 721 L262 721 L200 351 L141 351 Z M732 251 Q732 196 719.5 149 Q707 102 683 67.5 Q659 33 623 13.5 Q587 -6 540 -6 Q514 -6 488.5 1 Q463 8 446 21 L471 64 Q486 55 504.5 49 Q523 43 548 43 Q598 43 625 80 Q652 117 667 175 Q644 151 617 140.5 Q590 130 559 130 Q535 130 518 138 Q501 146 490 159.5 Q479 173 474 190 Q469 207 469 226 Q469 261 481 289 Q493 317 514 336.5 Q535 356 563 366 Q591 376 624 376 Q681 376 706.5 342 Q732 308 732 251 Z M579 176 Q606 176 631.5 192 Q657 208 674 225 Q689 328 615 328 Q578 328 551.5 305.5 Q525 283 525 233 Q525 176 579 176 Z " />
<glyph glyph-name="twoninths" unicode="&#xf50d;" horiz-adv-x="811" d="M684 720 L746 720 L202 -1 L140 -1 L684 720 Z M66 394 L224 537 Q255 565 270.5 583.5 Q286 602 286 631 Q286 672 237 672 Q211 672 181.5 659.5 Q152 647 123 628 L105 667 Q135 691 174.5 708.5 Q214 726 254 726 Q299 726 325 704.5 Q351 683 351 645 Q351 611 333 581 Q315 551 279 519 L147 403 L316 403 L307 351 L59 351 L66 394 Z M777 251 Q777 196 764.5 149 Q752 102 728 67.5 Q704 33 668 13.5 Q632 -6 585 -6 Q559 -6 533.5 1 Q508 8 491 21 L516 64 Q531 55 549.5 49 Q568 43 593 43 Q643 43 670 80 Q697 117 712 175 Q689 151 662 140.5 Q635 130 604 130 Q580 130 563 138 Q546 146 535 159.5 Q524 173 519 190 Q514 207 514 226 Q514 261 526 289 Q538 317 559 336.5 Q580 356 608 366 Q636 376 669 376 Q726 376 751.5 342 Q777 308 777 251 Z M624 176 Q651 176 676.5 192 Q702 208 719 225 Q734 328 660 328 Q623 328 596.5 305.5 Q570 283 570 233 Q570 176 624 176 Z " />
<glyph glyph-name="fourninths" unicode="&#xf50e;" horiz-adv-x="811" d="M672 720 L734 720 L190 -1 L128 -1 L672 720 Z M120 476 L245 476 L276 665 L120 476 Z M236 426 L52 426 L61 474 L264 721 L344 721 L303 476 L345 476 L336 426 L294 426 L282 351 L224 351 L236 426 Z M769 251 Q769 196 756.5 149 Q744 102 720 67.5 Q696 33 660 13.5 Q624 -6 577 -6 Q551 -6 525.5 1 Q500 8 483 21 L508 64 Q523 55 541.5 49 Q560 43 585 43 Q635 43 662 80 Q689 117 704 175 Q681 151 654 140.5 Q627 130 596 130 Q572 130 555 138 Q538 146 527 159.5 Q516 173 511 190 Q506 207 506 226 Q506 261 518 289 Q530 317 551 336.5 Q572 356 600 366 Q628 376 661 376 Q718 376 743.5 342 Q769 308 769 251 Z M616 176 Q643 176 668.5 192 Q694 208 711 225 Q726 328 652 328 Q615 328 588.5 305.5 Q562 283 562 233 Q562 176 616 176 Z " />
<glyph glyph-name="fiveninths" unicode="&#xf50f;" horiz-adv-x="811" d="M659 720 L721 720 L177 -1 L115 -1 L659 720 Z M151 721 L351 721 L339 669 L189 669 L162 561 Q176 570 197 578.5 Q218 587 246 587 Q292 587 314 562 Q336 537 336 496 Q336 461 323.5 432.5 Q311 404 289 384.5 Q267 365 237 354.5 Q207 344 173 344 Q142 344 110 353.5 Q78 363 55 382 L83 422 Q106 409 129 401.5 Q152 394 177 394 Q220 394 248 417 Q276 440 276 485 Q276 508 262.5 523 Q249 538 221 538 Q198 538 180.5 529.5 Q163 521 150 512 L142 482 L94 482 L151 721 Z M753 251 Q753 196 740.5 149 Q728 102 704 67.5 Q680 33 644 13.5 Q608 -6 561 -6 Q535 -6 509.5 1 Q484 8 467 21 L492 64 Q507 55 525.5 49 Q544 43 569 43 Q619 43 646 80 Q673 117 688 175 Q665 151 638 140.5 Q611 130 580 130 Q556 130 539 138 Q522 146 511 159.5 Q500 173 495 190 Q490 207 490 226 Q490 261 502 289 Q514 317 535 336.5 Q556 356 584 366 Q612 376 645 376 Q702 376 727.5 342 Q753 308 753 251 Z M600 176 Q627 176 652.5 192 Q678 208 695 225 Q710 328 636 328 Q599 328 572.5 305.5 Q546 283 546 233 Q546 176 600 176 Z " />
<glyph glyph-name="sevenninths" unicode="&#xf510;" horiz-adv-x="811" d="M599 720 L661 720 L117 -1 L55 -1 L599 720 Z M749 251 Q749 196 736.5 149 Q724 102 700 67.5 Q676 33 640 13.5 Q604 -6 557 -6 Q531 -6 505.5 1 Q480 8 463 21 L488 64 Q503 55 521.5 49 Q540 43 565 43 Q615 43 642 80 Q669 117 684 175 Q661 151 634 140.5 Q607 130 576 130 Q552 130 535 138 Q518 146 507 159.5 Q496 173 491 190 Q486 207 486 226 Q486 261 498 289 Q510 317 531 336.5 Q552 356 580 366 Q608 376 641 376 Q698 376 723.5 342 Q749 308 749 251 Z M596 176 Q623 176 648.5 192 Q674 208 691 225 Q706 328 632 328 Q595 328 568.5 305.5 Q542 283 542 233 Q542 176 596 176 Z M142 351 L82 351 L83 357 L278 669 L91 669 L100 721 L352 721 L345 683 L142 351 Z " />
<glyph glyph-name="eightninths" unicode="&#xf511;" horiz-adv-x="811" d="M662 720 L724 720 L180 -1 L118 -1 L662 720 Z M743 251 Q743 196 730.5 149 Q718 102 694 67.5 Q670 33 634 13.5 Q598 -6 551 -6 Q525 -6 499.5 1 Q474 8 457 21 L482 64 Q497 55 515.5 49 Q534 43 559 43 Q609 43 636 80 Q663 117 678 175 Q655 151 628 140.5 Q601 130 570 130 Q546 130 529 138 Q512 146 501 159.5 Q490 173 485 190 Q480 207 480 226 Q480 261 492 289 Q504 317 525 336.5 Q546 356 574 366 Q602 376 635 376 Q692 376 717.5 342 Q743 308 743 251 Z M590 176 Q617 176 642.5 192 Q668 208 685 225 Q700 328 626 328 Q589 328 562.5 305.5 Q536 283 536 233 Q536 176 590 176 Z M124 438 Q124 416 141.5 403 Q159 390 191 390 Q229 390 254.5 409 Q280 428 280 460 Q280 486 260 499 Q240 512 207 524 Q191 516 176 508.5 Q161 501 149.5 491 Q138 481 131 468 Q124 455 124 438 Z M174 630 Q174 608 191 596.5 Q208 585 231 574 Q243 579 255 586 Q267 593 277 602 Q287 611 293.5 622 Q300 633 300 645 Q300 664 286 674.5 Q272 685 246 685 Q212 685 193 670.5 Q174 656 174 630 Z M68 429 Q68 476 97.5 503.5 Q127 531 172 548 Q146 559 131 576.5 Q116 594 116 620 Q116 668 154 697 Q192 726 253 726 Q302 726 328 707.5 Q354 689 354 654 Q354 619 330.5 593.5 Q307 568 270 552 Q306 536 323 517 Q340 498 340 469 Q340 440 328.5 417 Q317 394 296.5 377.5 Q276 361 247.5 352.5 Q219 344 185 344 Q128 344 98 367 Q68 390 68 429 Z " />
<glyph glyph-name="minus" unicode="&#x2212;" horiz-adv-x="600" d="M560 269 L40 269 L40 326 L560 326 L560 269 Z " />
<glyph glyph-name="uni2215" unicode="&#x2215;" horiz-adv-x="112" d="M310 720 L372 720 L-172 -1 L-234 -1 L310 720 Z " />
<glyph glyph-name="uni2219" unicode="&#x2219;" horiz-adv-x="272" d="M85 338 Q85 363 100 376.5 Q115 390 138 390 Q161 390 176 377 Q191 364 191 338 Q191 317 176 302.5 Q161 288 138 288 Q113 288 99 301.5 Q85 315 85 338 Z " />
<glyph glyph-name="approxequal" unicode="&#x2248;" horiz-adv-x="744" d="M701 398 Q645 354 594 331.5 Q543 309 493 309 Q456 309 423.5 320 Q391 331 360.5 344.5 Q330 358 300 369 Q270 380 238 380 Q191 380 152.5 360 Q114 340 71 311 L43 364 Q98 404 150 427 Q202 450 256 450 Q291 450 323.5 438.5 Q356 427 386.5 413.5 Q417 400 445.5 389 Q474 378 501 378 Q543 378 582.5 396 Q622 414 672 448 L701 398 Z M698 200 Q642 156 591 133.5 Q540 111 490 111 Q453 111 420.5 122 Q388 133 357.5 146.5 Q327 160 297 171 Q267 182 235 182 Q188 182 149.5 162 Q111 142 68 113 L40 166 Q95 206 147 229 Q199 252 253 252 Q288 252 320.5 240.5 Q353 229 383.5 215.5 Q414 202 442.5 191 Q471 180 498 180 Q540 180 579.5 198 Q619 216 669 250 L698 200 Z " />
<glyph glyph-name="notequal" unicode="&#x2260;" horiz-adv-x="600" d="M560 179 L272 179 L163 0 L99 0 L208 179 L40 179 L40 232 L239 232 L303 338 L40 338 L40 391 L335 391 L416 523 L480 523 L400 391 L560 391 L560 338 L368 338 L303 232 L560 232 L560 179 Z " />
<glyph glyph-name="lessequal" unicode="&#x2264;" horiz-adv-x="600" d="M560 0 L40 0 L40 56 L560 56 L560 0 Z M41 325 L41 362 L537 580 L559 526 L138 344 L559 163 L537 107 L41 325 Z " />
<glyph glyph-name="greaterequal" unicode="&#x2265;" horiz-adv-x="600" d="M39 56 L559 56 L559 0 L39 0 L39 56 Z M62 107 L40 163 L461 344 L40 526 L62 580 L558 362 L558 325 L62 107 Z " />
<glyph glyph-name="less" unicode="&#x3c;" horiz-adv-x="600" d="M20 275 L20 313 L562 536 L584 480 L120 294 L585 109 L562 53 L20 275 Z " />
<glyph glyph-name="equal" unicode="&#x3d;" horiz-adv-x="600" d="M560 338 L40 338 L40 391 L560 391 L560 338 Z M560 179 L40 179 L40 232 L560 232 L560 179 Z " />
<glyph glyph-name="greater" unicode="&#x3e;" horiz-adv-x="600" d="M37 58 L16 113 L479 299 L16 485 L38 540 L579 318 L579 280 L37 58 Z " />
<glyph glyph-name="logicalnot" unicode="&#xac;" horiz-adv-x="600" d="M513 126 L513 331 L32 331 L32 385 L568 385 L568 126 L513 126 Z " />
<glyph glyph-name="plus" unicode="&#x2b;" horiz-adv-x="600" d="M329 326 L561 326 L561 269 L329 269 L329 36 L270 36 L270 269 L38 269 L38 326 L270 326 L270 559 L329 559 L329 326 Z " />
<glyph glyph-name="plusminus" unicode="&#xb1;" horiz-adv-x="600" d="M329 326 L561 326 L561 269 L329 269 L329 56 L560 56 L560 0 L40 0 L40 56 L270 56 L270 269 L38 269 L38 326 L270 326 L270 559 L329 559 L329 326 Z " />
<glyph glyph-name="divide" unicode="&#xf7;" horiz-adv-x="600" d="M299 174 Q318 174 331 160.5 Q344 147 344 127 Q344 109 331 95.5 Q318 82 299 82 Q282 82 268.5 96 Q255 110 255 127 Q255 146 268 160 Q281 174 299 174 Z M40 326 L560 326 L560 269 L40 269 L40 326 Z M299 519 Q318 519 331 505 Q344 491 344 472 Q344 454 331 440.5 Q318 427 299 427 Q282 427 268 441 Q254 455 254 472 Q254 491 267.5 505 Q281 519 299 519 Z " />
<glyph glyph-name="multiply" unicode="&#xd7;" horiz-adv-x="600" d="M340 291 L505 126 L465 85 L300 249 L135 85 L94 128 L260 292 L94 456 L134 498 L299 334 L464 498 L505 454 L340 291 Z " />
<glyph glyph-name="partialdiff" unicode="&#x2202;" horiz-adv-x="594" d="M239 -12 Q153 -12 106 39 Q59 90 59 177 Q59 230 73 277.5 Q87 325 115 361 Q143 397 184 418 Q225 439 278 439 Q304 439 330.5 430.5 Q357 422 379 405.5 Q401 389 416.5 363.5 Q432 338 437 304 Q440 339 442.5 370.5 Q445 402 445 430 Q445 532 413 586 Q381 640 304 640 Q234 640 167 599 L143 646 Q181 674 226.5 687.5 Q272 701 310 701 Q408 701 460 637.5 Q512 574 512 436 Q512 389 507.5 337.5 Q503 286 491 236.5 Q479 187 459 141.5 Q439 96 409 62 Q379 28 337 8 Q295 -12 239 -12 Z M248 51 Q288 51 318.5 67.5 Q349 84 369.5 109.5 Q390 135 400 166 Q410 197 410 227 Q410 298 376 338.5 Q342 379 285 379 Q244 379 215 361.5 Q186 344 167.5 316 Q149 288 140 253 Q131 218 131 184 Q131 115 164.5 83 Q198 51 248 51 Z " />
<glyph glyph-name="Omega" unicode="&#x2126;" horiz-adv-x="790" d="M459 87 Q492 103 525 129.5 Q558 156 584.5 193 Q611 230 627 278 Q643 326 643 385 Q643 456 625.5 508 Q608 560 576.5 593.5 Q545 627 500 643.5 Q455 660 401 660 Q346 660 301 642.5 Q256 625 223.5 589.5 Q191 554 173.5 501 Q156 448 156 378 Q156 324 171 278.5 Q186 233 209.5 196.5 Q233 160 261.5 133 Q290 106 318 88 L318 0 L66 0 L66 67 L245 67 L245 81 Q215 98 184.5 126.5 Q154 155 129.5 194 Q105 233 89.5 281.5 Q74 330 74 388 Q74 475 99 540 Q124 605 168 647.5 Q212 690 271.5 711.5 Q331 733 401 733 Q470 733 529.5 713.5 Q589 694 632 653 Q675 612 699.5 549 Q724 486 724 400 Q724 335 707 282 Q690 229 662.5 188.5 Q635 148 600.5 120.5 Q566 93 532 79 L532 67 L711 67 L711 0 L459 0 L459 87 Z " />
<glyph glyph-name="Delta" unicode="&#x2206;" horiz-adv-x="665" d="M352 720 L612 0 L3 0 L262 720 L352 720 Z M510 64 L306 639 L102 64 L510 64 Z " />
<glyph glyph-name="product" unicode="&#x220f;" horiz-adv-x="696" d="M83 720 L613 720 L613 -140 L536 -140 L536 655 L160 655 L160 -140 L83 -140 L83 720 Z " />
<glyph glyph-name="summation" unicode="&#x2211;" horiz-adv-x="577" d="M145 651 L368 318 L139 -50 L548 -50 L548 -119 L31 -119 L31 -85 L277 317 L31 686 L31 720 L511 720 L511 651 L145 651 Z " />
<glyph glyph-name="uni0394" unicode="&#x394;" horiz-adv-x="665" d="M377 720 L637 0 L28 0 L287 720 L377 720 Z M535 64 L331 639 L127 64 L535 64 Z " />
<glyph glyph-name="uni03A9" unicode="&#x3a9;" horiz-adv-x="790" d="M459 87 Q492 103 525 129.5 Q558 156 584.5 193 Q611 230 627 278 Q643 326 643 385 Q643 456 625.5 508 Q608 560 576.5 593.5 Q545 627 500 643.5 Q455 660 401 660 Q346 660 301 642.5 Q256 625 223.5 589.5 Q191 554 173.5 501 Q156 448 156 378 Q156 324 171 278.5 Q186 233 209.5 196.5 Q233 160 261.5 133 Q290 106 318 88 L318 0 L66 0 L66 67 L245 67 L245 81 Q215 98 184.5 126.5 Q154 155 129.5 194 Q105 233 89.5 281.5 Q74 330 74 388 Q74 475 99 540 Q124 605 168 647.5 Q212 690 271.5 711.5 Q331 733 401 733 Q470 733 529.5 713.5 Q589 694 632 653 Q675 612 699.5 549 Q724 486 724 400 Q724 335 707 282 Q690 229 662.5 188.5 Q635 148 600.5 120.5 Q566 93 532 79 L532 67 L711 67 L711 0 L459 0 L459 87 Z " />
<glyph glyph-name="uni03BC" unicode="&#x3bc;" horiz-adv-x="571" d="M415 0 L415 78 Q395 36 360.5 13 Q326 -10 275 -10 Q229 -10 201 5.5 Q173 21 152 51 L152 -200 L80 -200 L80 525 L152 525 L152 200 Q152 127 181.5 87 Q211 47 277 47 Q308 47 332 59.5 Q356 72 372.5 91 Q389 110 398 132.5 Q407 155 409 175 L409 525 L482 525 L482 0 L415 0 Z " />
<glyph glyph-name="pi" unicode="&#x3c0;" horiz-adv-x="662" d="M55 525 L645 525 L645 462 L557 462 L557 0 L484 0 L484 462 L221 462 L221 0 L148 0 L148 462 L55 462 L55 525 Z " />
<glyph glyph-name="mu" unicode="&#xb5;" horiz-adv-x="571" d="M415 0 L415 78 Q395 36 360.5 13 Q326 -10 275 -10 Q229 -10 201 5.5 Q173 21 152 51 L152 -200 L80 -200 L80 525 L152 525 L152 200 Q152 127 181.5 87 Q211 47 277 47 Q308 47 332 59.5 Q356 72 372.5 91 Q389 110 398 132.5 Q407 155 409 175 L409 525 L482 525 L482 0 L415 0 Z " />
<glyph glyph-name="infinity" unicode="&#x221e;" horiz-adv-x="764" d="M709 313 Q709 276 698.5 246.5 Q688 217 669.5 196 Q651 175 626 163.5 Q601 152 573 152 Q540 152 513 163 Q486 174 463.5 190.5 Q441 207 421.5 227 Q402 247 386 264 Q347 216 302.5 184 Q258 152 206 152 Q138 152 97 191 Q56 230 56 302 Q56 336 66.5 365 Q77 394 97 415 Q117 436 145.5 447.5 Q174 459 209 459 Q238 459 262.5 450 Q287 441 308.5 425 Q330 409 349 387.5 Q368 366 387 341 Q408 365 428 386.5 Q448 408 470 424.5 Q492 441 516.5 450.5 Q541 460 571 460 Q605 460 631 448 Q657 436 674.5 416 Q692 396 700.5 369.5 Q709 343 709 313 Z M652 307 Q652 349 631 378.5 Q610 408 562 408 Q542 408 525 401.5 Q508 395 491.5 382 Q475 369 457.5 349.5 Q440 330 419 304 Q434 285 451.5 267 Q469 249 488 235 Q507 221 527 212.5 Q547 204 567 204 Q589 204 605 213 Q621 222 631.5 236.5 Q642 251 647 269.5 Q652 288 652 307 Z M354 303 Q316 357 282.5 382 Q249 407 211 407 Q185 407 166.5 398 Q148 389 136 374.5 Q124 360 118.5 341.5 Q113 323 113 303 Q113 259 138 230.5 Q163 202 211 202 Q245 202 282 228.5 Q319 255 354 303 Z " />
<glyph glyph-name="integral" unicode="&#x222b;" horiz-adv-x="358" d="M64 -143 Q103 -143 123.5 -119.5 Q144 -96 144 -34 L144 632 Q144 666 151.5 695 Q159 724 175 745 Q191 766 216.5 778 Q242 790 278 790 L344 790 L344 733 L289 733 Q244 733 227.5 701.5 Q211 670 211 612 L211 -32 Q211 -69 205 -100 Q199 -131 183.5 -153 Q168 -175 140 -187.5 Q112 -200 69 -200 L11 -200 L11 -143 L64 -143 Z " />
<glyph glyph-name="lozenge" unicode="&#x25ca;" horiz-adv-x="612" d="M100 352 L291 700 L351 700 L550 354 L351 0 L291 0 L100 352 Z M170 352 L321 66 L479 352 L321 634 L170 352 Z " />
<glyph glyph-name="zero.tosf" unicode="&#xf81e;" horiz-adv-x="582" d="M131 303 Q126 277 124 250.5 Q122 224 122 204 Q122 123 149.5 87.5 Q177 52 242 52 Q323 52 369.5 112.5 Q416 173 439 308 Q448 359 448 397 Q448 476 420 511.5 Q392 547 328 547 Q247 547 199.5 487.5 Q152 428 131 303 Z M56 307 Q81 454 150 533 Q219 612 334 612 Q430 612 476.5 562 Q523 512 523 406 Q523 384 521 359.5 Q519 335 515 308 Q490 142 420 65 Q350 -12 233 -12 Q136 -12 91.5 40 Q47 92 47 199 Q47 222 49 250 Q51 278 56 307 Z " />
<glyph glyph-name="one.tosf" unicode="&#xf81f;" horiz-adv-x="582" d="M313 495 Q271 470 227.5 452 Q184 434 136 426 L136 482 Q162 488 190.5 499.5 Q219 511 247.5 526.5 Q276 542 302.5 561 Q329 580 351 601 L401 601 L310 61 L445 61 L435 0 L77 0 L87 61 L240 61 L313 495 Z " />
<glyph glyph-name="two.tosf" unicode="&#xf820;" horiz-adv-x="582" d="M49 48 L326 295 Q378 341 405.5 377 Q433 413 433 458 Q433 500 403.5 523 Q374 546 329 546 Q284 546 238.5 524 Q193 502 148 467 L118 513 Q166 557 224.5 584.5 Q283 612 347 612 Q381 612 411 603.5 Q441 595 463 577.5 Q485 560 497.5 534 Q510 508 510 474 Q510 445 504 421 Q498 397 484 373.5 Q470 350 446.5 325 Q423 300 388 269 L156 66 L449 66 L438 0 L41 0 L49 48 Z " />
</font>
</svg>
