<?xml version="1.0" encoding="UTF-8"?>
<svg xmlns="http://www.w3.org/2000/svg" xmlns:xlink="http://www.w3.org/1999/xlink" version="1.2" >
<font id="LFT Etica Comp">
<font-face  font-family="LFT Etica Compressed" units-per-em="1000" ascent="1010" descent="-270" font-style="normal" font-weight="400" font-stretch="extra-condensed" cap-height="720" x-height="525" underline-position="-75" underline-thickness="50" />
<missing-glyph  horiz-adv-x="182" d="" />
<glyph glyph-name="space" unicode="&#x20;" horiz-adv-x="126" d="" />
<glyph glyph-name="Acircumflex" unicode="&#xc2;" horiz-adv-x="425" d="M411 0 L334 0 L294 198 L130 198 L90 0 L15 0 L166 720 L260 720 L411 0 Z M211 645 Q204 597 195 541.5 Q186 486 174 420 L144 270 L281 270 L251 420 Q241 474 231.5 531 Q222 588 211 645 Z M318 785 L284 759 L214 827 L143 759 L109 784 L186 881 L242 881 L318 785 Z " />
<glyph glyph-name="Adieresis" unicode="&#xc4;" horiz-adv-x="425" d="M411 0 L334 0 L294 198 L130 198 L90 0 L15 0 L166 720 L260 720 L411 0 Z M211 645 Q204 597 195 541.5 Q186 486 174 420 L144 270 L281 270 L251 420 Q241 474 231.5 531 Q222 588 211 645 Z M141 889 Q162 889 174.5 876 Q187 863 187 842 Q187 820 174.5 807.5 Q162 795 141 795 Q120 795 106.5 807.5 Q93 820 93 842 Q93 863 106.5 876 Q120 889 141 889 Z M287 889 Q309 889 321.5 876 Q334 863 334 842 Q334 820 321.5 807.5 Q309 795 287 795 Q267 795 253.5 807.5 Q240 820 240 842 Q240 863 253.5 876 Q267 889 287 889 Z " />
<glyph glyph-name="Agrave" unicode="&#xc0;" horiz-adv-x="425" d="M411 0 L334 0 L294 198 L130 198 L90 0 L15 0 L166 720 L260 720 L411 0 Z M211 645 Q204 597 195 541.5 Q186 486 174 420 L144 270 L281 270 L251 420 Q241 474 231.5 531 Q222 588 211 645 Z M298 799 L271 759 L130 845 L164 895 L298 799 Z " />
<glyph glyph-name="Amacron" unicode="&#x100;" horiz-adv-x="425" d="M411 0 L334 0 L294 198 L130 198 L90 0 L15 0 L166 720 L260 720 L411 0 Z M211 645 Q204 597 195 541.5 Q186 486 174 420 L144 270 L281 270 L251 420 Q241 474 231.5 531 Q222 588 211 645 Z M316 807 L111 807 L111 864 L316 864 L316 807 Z " />
<glyph glyph-name="Aogonek" unicode="&#x104;" horiz-adv-x="425" d="M411 0 L404 0 Q390 -14 378 -30.5 Q366 -47 357 -64.5 Q348 -82 343 -99 Q338 -116 338 -131 Q338 -150 347.5 -159 Q357 -168 371 -168 Q390 -168 406 -155 L423 -190 Q407 -204 388.5 -212.5 Q370 -221 347 -221 Q316 -221 297 -201.5 Q278 -182 278 -146 Q278 -106 298 -68 Q318 -30 342 0 L334 0 L294 198 L130 198 L90 0 L15 0 L166 720 L260 720 L411 0 Z M212 645 Q204 588 194.5 531.5 Q185 475 174 421 L143 270 L281 270 L250 421 Q240 475 231 531.5 Q222 588 212 645 Z " />
<glyph glyph-name="Aring" unicode="&#xc5;" horiz-adv-x="425" d="M213 886 Q245 886 267 865 Q289 844 289 795 Q289 767 281.5 749 Q274 731 260 720 L411 0 L334 0 L294 198 L130 198 L90 0 L15 0 L166 721 Q153 731 145 749 Q137 767 137 794 Q137 844 159 865 Q181 886 213 886 Z M213 848 Q198 848 190.5 836 Q183 824 183 794 Q183 765 190.5 754 Q198 743 213 743 Q228 743 236 754.5 Q244 766 244 795 Q244 824 236 836 Q228 848 213 848 Z M211 645 Q204 597 195 541.5 Q186 486 174 420 L144 270 L281 270 L251 420 Q241 474 231.5 531 Q222 588 211 645 Z " />
<glyph glyph-name="Atilde" unicode="&#xc3;" horiz-adv-x="425" d="M411 0 L334 0 L294 198 L130 198 L90 0 L15 0 L166 720 L260 720 L411 0 Z M211 645 Q204 597 195 541.5 Q186 486 174 420 L144 270 L281 270 L251 420 Q241 474 231.5 531 Q222 588 211 645 Z M318 866 Q306 786 260 786 Q247 786 234.5 791.5 Q222 797 210.5 803 Q199 809 189 814.5 Q179 820 170 820 Q151 820 143 785 L107 798 Q121 878 166 878 Q179 878 191 872.5 Q203 867 214 861 Q225 855 235.5 849.5 Q246 844 255 844 Q266 844 272 851.5 Q278 859 282 878 L318 866 Z " />
<glyph glyph-name="AE" unicode="&#xc6;" horiz-adv-x="646" d="M600 648 L383 648 L383 405 L579 405 L579 334 L383 334 L383 72 L605 72 L605 0 L307 0 L307 210 L160 210 L91 0 L15 0 L250 720 L600 720 L600 648 Z M299 644 L180 281 L307 281 L307 644 L299 644 Z " />
<glyph glyph-name="B" unicode="B" horiz-adv-x="433" d="M218 720 Q299 720 337.5 674 Q376 628 376 542 Q376 480 356 436 Q336 392 281 379 L281 378 Q315 370 337 354 Q359 338 371.5 315.5 Q384 293 389 264.5 Q394 236 394 204 Q394 152 384.5 114 Q375 76 353.5 50.5 Q332 25 296 12.5 Q260 0 207 0 L56 0 L56 720 L218 720 Z M132 654 L132 405 L200 405 Q224 405 242.5 411 Q261 417 273.5 432 Q286 447 293 472 Q300 497 300 536 Q300 602 274 628 Q248 654 206 654 L132 654 Z M132 337 L132 66 L221 66 Q270 66 292.5 101 Q315 136 315 211 Q315 282 290 309.5 Q265 337 220 337 L132 337 Z " />
<glyph glyph-name="C" unicode="C" horiz-adv-x="422" d="M225 733 Q314 733 350.5 676 Q387 619 388 503 L315 503 Q313 582 295.5 622.5 Q278 663 228 663 Q198 663 177 647 Q156 631 142.5 595 Q129 559 123 502 Q117 445 117 363 Q117 208 145 134.5 Q173 61 232 61 Q269 61 294.5 75.5 Q320 90 351 120 L390 66 Q354 26 315 7 Q276 -12 227 -12 Q180 -12 144.5 6 Q109 24 85 67 Q61 110 49 182.5 Q37 255 37 363 Q37 469 49.5 540 Q62 611 86 654 Q110 697 145 715 Q180 733 225 733 Z " />
<glyph glyph-name="Cacute" unicode="&#x106;" horiz-adv-x="422" d="M225 733 Q314 733 350.5 676 Q387 619 388 503 L315 503 Q313 582 295.5 622.5 Q278 663 228 663 Q198 663 177 647 Q156 631 142.5 595 Q129 559 123 502 Q117 445 117 363 Q117 208 145 134.5 Q173 61 232 61 Q269 61 294.5 75.5 Q320 90 351 120 L390 66 Q354 26 315 7 Q276 -12 227 -12 Q180 -12 144.5 6 Q109 24 85 67 Q61 110 49 182.5 Q37 255 37 363 Q37 469 49.5 540 Q62 611 86 654 Q110 697 145 715 Q180 733 225 733 Z M313 845 L172 759 L145 799 L279 895 L313 845 Z " />
<glyph glyph-name="Ccaron" unicode="&#x10c;" horiz-adv-x="422" d="M225 733 Q314 733 350.5 676 Q387 619 388 503 L315 503 Q313 582 295.5 622.5 Q278 663 228 663 Q198 663 177 647 Q156 631 142.5 595 Q129 559 123 502 Q117 445 117 363 Q117 208 145 134.5 Q173 61 232 61 Q269 61 294.5 75.5 Q320 90 351 120 L390 66 Q354 26 315 7 Q276 -12 227 -12 Q180 -12 144.5 6 Q109 24 85 67 Q61 110 49 182.5 Q37 255 37 363 Q37 469 49.5 540 Q62 611 86 654 Q110 697 145 715 Q180 733 225 733 Z M201 765 L124 862 L158 887 L229 819 L299 887 L333 861 L257 765 L201 765 Z " />
<glyph glyph-name="Ccedilla" unicode="&#xc7;" horiz-adv-x="422" d="M390 66 Q355 28 318.5 9 Q282 -10 237 -12 L229 -60 Q253 -63 271 -79.5 Q289 -96 289 -128 Q289 -169 267.5 -190 Q246 -211 213 -211 Q197 -211 180.5 -207 Q164 -203 150 -197 L160 -157 Q171 -161 184 -164 Q197 -167 207 -167 Q239 -167 239 -130 Q239 -112 228.5 -103 Q218 -94 194 -94 L181 -94 L195 -10 Q156 -4 126.5 18 Q97 40 77 83.5 Q57 127 47 195.5 Q37 264 37 363 Q37 469 49.5 540 Q62 611 86 654 Q110 697 145 715 Q180 733 225 733 Q314 733 350.5 676 Q387 619 388 503 L315 503 Q313 582 295.5 622.5 Q278 663 228 663 Q198 663 177 647 Q156 631 142.5 595 Q129 559 123 502 Q117 445 117 363 Q117 208 145 134.5 Q173 61 232 61 Q269 61 294.5 75.5 Q320 90 351 120 L390 66 Z " />
<glyph glyph-name="Ccircumflex" unicode="&#x108;" horiz-adv-x="422" d="M225 733 Q314 733 350.5 676 Q387 619 388 503 L315 503 Q313 582 295.5 622.5 Q278 663 228 663 Q198 663 177 647 Q156 631 142.5 595 Q129 559 123 502 Q117 445 117 363 Q117 208 145 134.5 Q173 61 232 61 Q269 61 294.5 75.5 Q320 90 351 120 L390 66 Q354 26 315 7 Q276 -12 227 -12 Q180 -12 144.5 6 Q109 24 85 67 Q61 110 49 182.5 Q37 255 37 363 Q37 469 49.5 540 Q62 611 86 654 Q110 697 145 715 Q180 733 225 733 Z M333 785 L299 759 L229 827 L158 759 L124 784 L201 881 L257 881 L333 785 Z " />
<glyph glyph-name="Cdotaccent" unicode="&#x10a;" horiz-adv-x="422" d="M225 733 Q314 733 350.5 676 Q387 619 388 503 L315 503 Q313 582 295.5 622.5 Q278 663 228 663 Q198 663 177 647 Q156 631 142.5 595 Q129 559 123 502 Q117 445 117 363 Q117 208 145 134.5 Q173 61 232 61 Q269 61 294.5 75.5 Q320 90 351 120 L390 66 Q354 26 315 7 Q276 -12 227 -12 Q180 -12 144.5 6 Q109 24 85 67 Q61 110 49 182.5 Q37 255 37 363 Q37 469 49.5 540 Q62 611 86 654 Q110 697 145 715 Q180 733 225 733 Z M229 874 Q250 874 264 861.5 Q278 849 278 827 Q278 805 264 792.5 Q250 780 229 780 Q208 780 193.5 792 Q179 804 179 827 Q179 849 193.5 861.5 Q208 874 229 874 Z " />
<glyph glyph-name="D" unicode="D" horiz-adv-x="459" d="M199 720 Q315 720 368.5 633 Q422 546 422 359 Q422 263 407 195 Q392 127 362.5 83.5 Q333 40 290 20 Q247 0 191 0 L56 0 L56 720 L199 720 Z M132 649 L132 72 L197 72 Q268 72 304.5 148 Q341 224 341 360 Q341 498 307 573.5 Q273 649 197 649 L132 649 Z " />
<glyph glyph-name="Eth" unicode="&#xd0;" horiz-adv-x="477" d="M218 720 Q334 720 387.5 633 Q441 546 441 359 Q441 263 426 195 Q411 127 381.5 83.5 Q352 40 309 20 Q266 0 210 0 L75 0 L75 333 L37 333 L37 395 L75 395 L75 720 L218 720 Z M216 72 Q288 72 324.5 147.5 Q361 223 361 360 Q361 498 327 573.5 Q293 649 216 649 L151 649 L151 395 L254 395 L254 333 L151 333 L151 72 L216 72 Z " />
<glyph glyph-name="Dcaron" unicode="&#x10e;" horiz-adv-x="459" d="M199 720 Q315 720 368.5 633 Q422 546 422 359 Q422 263 407 195 Q392 127 362.5 83.5 Q333 40 290 20 Q247 0 191 0 L56 0 L56 720 L199 720 Z M132 649 L132 72 L197 72 Q268 72 304.5 148 Q341 224 341 360 Q341 498 307 573.5 Q273 649 197 649 L132 649 Z M186 765 L109 862 L143 887 L214 819 L284 887 L318 861 L242 765 L186 765 Z " />
<glyph glyph-name="Dcroat" unicode="&#x110;" horiz-adv-x="477" d="M218 720 Q334 720 387.5 633 Q441 546 441 359 Q441 263 426 195 Q411 127 381.5 83.5 Q352 40 309 20 Q266 0 210 0 L75 0 L75 333 L37 333 L37 395 L75 395 L75 720 L218 720 Z M216 72 Q288 72 324.5 147.5 Q361 223 361 360 Q361 498 327 573.5 Q293 649 216 649 L151 649 L151 395 L254 395 L254 333 L151 333 L151 72 L216 72 Z " />
<glyph glyph-name="E" unicode="E" horiz-adv-x="396" d="M350 648 L132 648 L132 405 L329 405 L329 334 L132 334 L132 72 L355 72 L355 0 L56 0 L56 720 L350 720 L350 648 Z " />
<glyph glyph-name="Eacute" unicode="&#xc9;" horiz-adv-x="396" d="M350 648 L132 648 L132 405 L329 405 L329 334 L132 334 L132 72 L355 72 L355 0 L56 0 L56 720 L350 720 L350 648 Z M294 845 L153 759 L126 799 L260 895 L294 845 Z " />
<glyph glyph-name="Ebreve" unicode="&#x114;" horiz-adv-x="396" d="M350 648 L132 648 L132 405 L329 405 L329 334 L132 334 L132 72 L355 72 L355 0 L56 0 L56 720 L350 720 L350 648 Z M305 873 Q300 813 278 786.5 Q256 760 208 760 Q160 760 138.5 786.5 Q117 813 112 873 L157 880 Q162 843 173.5 826.5 Q185 810 208 810 Q232 810 243.5 826.5 Q255 843 259 880 L305 873 Z " />
<glyph glyph-name="Ecaron" unicode="&#x11a;" horiz-adv-x="396" d="M350 648 L132 648 L132 405 L329 405 L329 334 L132 334 L132 72 L355 72 L355 0 L56 0 L56 720 L350 720 L350 648 Z M181 765 L104 862 L138 887 L209 819 L279 887 L313 861 L237 765 L181 765 Z " />
<glyph glyph-name="Ecircumflex" unicode="&#xca;" horiz-adv-x="396" d="M350 648 L132 648 L132 405 L329 405 L329 334 L132 334 L132 72 L355 72 L355 0 L56 0 L56 720 L350 720 L350 648 Z M313 785 L279 759 L209 827 L138 759 L104 784 L181 881 L237 881 L313 785 Z " />
<glyph glyph-name="Edieresis" unicode="&#xcb;" horiz-adv-x="396" d="M350 648 L132 648 L132 405 L329 405 L329 334 L132 334 L132 72 L355 72 L355 0 L56 0 L56 720 L350 720 L350 648 Z M136 889 Q157 889 169.5 876 Q182 863 182 842 Q182 820 169.5 807.5 Q157 795 136 795 Q115 795 101.5 807.5 Q88 820 88 842 Q88 863 101.5 876 Q115 889 136 889 Z M282 889 Q304 889 316.5 876 Q329 863 329 842 Q329 820 316.5 807.5 Q304 795 282 795 Q262 795 248.5 807.5 Q235 820 235 842 Q235 863 248.5 876 Q262 889 282 889 Z " />
<glyph glyph-name="Edotaccent" unicode="&#x116;" horiz-adv-x="396" d="M350 648 L132 648 L132 405 L329 405 L329 334 L132 334 L132 72 L355 72 L355 0 L56 0 L56 720 L350 720 L350 648 Z M209 874 Q230 874 244 861.5 Q258 849 258 827 Q258 805 244 792.5 Q230 780 209 780 Q188 780 173.5 792 Q159 804 159 827 Q159 849 173.5 861.5 Q188 874 209 874 Z " />
<glyph glyph-name="Egrave" unicode="&#xc8;" horiz-adv-x="396" d="M350 648 L132 648 L132 405 L329 405 L329 334 L132 334 L132 72 L355 72 L355 0 L56 0 L56 720 L350 720 L350 648 Z M293 799 L266 759 L125 845 L159 895 L293 799 Z " />
<glyph glyph-name="Emacron" unicode="&#x112;" horiz-adv-x="396" d="M350 648 L132 648 L132 405 L329 405 L329 334 L132 334 L132 72 L355 72 L355 0 L56 0 L56 720 L350 720 L350 648 Z M311 807 L106 807 L106 864 L311 864 L311 807 Z " />
<glyph glyph-name="Eogonek" unicode="&#x118;" horiz-adv-x="396" d="M350 648 L132 648 L132 405 L329 405 L329 334 L132 334 L132 72 L355 72 L355 0 L325 0 Q299 -30 281.5 -66 Q264 -102 264 -131 Q264 -150 273 -159 Q282 -168 296 -168 Q315 -168 332 -155 L349 -190 Q332 -204 314 -212.5 Q296 -221 273 -221 Q242 -221 223 -201.5 Q204 -182 204 -146 Q204 -106 224 -67.5 Q244 -29 271 0 L56 0 L56 720 L350 720 L350 648 Z " />
<glyph glyph-name="F" unicode="F" horiz-adv-x="365" d="M337 648 L133 648 L133 399 L312 399 L312 328 L133 328 L133 0 L56 0 L56 720 L337 720 L337 648 Z " />
<glyph glyph-name="G" unicode="G" horiz-adv-x="455" d="M237 733 Q283 733 314 720 Q345 707 364.5 680.5 Q384 654 393 614.5 Q402 575 402 523 L327 523 Q327 592 308 627 Q289 662 239 662 Q206 662 183 647 Q160 632 145 597 Q130 562 123.5 504.5 Q117 447 117 362 Q117 275 124.5 216.5 Q132 158 147 122 Q162 86 185 71 Q208 56 240 56 Q270 56 292 65 Q314 74 333 94 L333 303 L239 303 L239 370 L406 370 L406 58 Q369 20 329 4 Q289 -12 236 -12 Q189 -12 152 5 Q115 22 89.5 65 Q64 108 50.5 180 Q37 252 37 363 Q37 469 50 540 Q63 611 88.5 654 Q114 697 151 715 Q188 733 237 733 Z " />
<glyph glyph-name="Gbreve" unicode="&#x11e;" horiz-adv-x="455" d="M237 733 Q283 733 314 720 Q345 707 364.5 680.5 Q384 654 393 614.5 Q402 575 402 523 L327 523 Q327 592 308 627 Q289 662 239 662 Q206 662 183 647 Q160 632 145 597 Q130 562 123.5 504.5 Q117 447 117 362 Q117 275 124.5 216.5 Q132 158 147 122 Q162 86 185 71 Q208 56 240 56 Q270 56 292 65 Q314 74 333 94 L333 303 L239 303 L239 370 L406 370 L406 58 Q369 20 329 4 Q289 -12 236 -12 Q189 -12 152 5 Q115 22 89.5 65 Q64 108 50.5 180 Q37 252 37 363 Q37 469 50 540 Q63 611 88.5 654 Q114 697 151 715 Q188 733 237 733 Z M336 873 Q331 813 309 786.5 Q287 760 239 760 Q191 760 169.5 786.5 Q148 813 143 873 L188 880 Q193 843 204.5 826.5 Q216 810 239 810 Q263 810 274.5 826.5 Q286 843 290 880 L336 873 Z " />
<glyph glyph-name="Gcircumflex" unicode="&#x11c;" horiz-adv-x="455" d="M237 733 Q283 733 314 720 Q345 707 364.5 680.5 Q384 654 393 614.5 Q402 575 402 523 L327 523 Q327 592 308 627 Q289 662 239 662 Q206 662 183 647 Q160 632 145 597 Q130 562 123.5 504.5 Q117 447 117 362 Q117 275 124.5 216.5 Q132 158 147 122 Q162 86 185 71 Q208 56 240 56 Q270 56 292 65 Q314 74 333 94 L333 303 L239 303 L239 370 L406 370 L406 58 Q369 20 329 4 Q289 -12 236 -12 Q189 -12 152 5 Q115 22 89.5 65 Q64 108 50.5 180 Q37 252 37 363 Q37 469 50 540 Q63 611 88.5 654 Q114 697 151 715 Q188 733 237 733 Z M344 785 L310 759 L240 827 L169 759 L135 784 L212 881 L268 881 L344 785 Z " />
<glyph glyph-name="Gcommaaccent" unicode="&#x122;" horiz-adv-x="455" d="M237 733 Q283 733 314 720 Q345 707 364.5 680.5 Q384 654 393 614.5 Q402 575 402 523 L327 523 Q327 592 308 627 Q289 662 239 662 Q206 662 183 647 Q160 632 145 597 Q130 562 123.5 504.5 Q117 447 117 362 Q117 275 124.5 216.5 Q132 158 147 122 Q162 86 185 71 Q208 56 240 56 Q270 56 292 65 Q314 74 333 94 L333 303 L239 303 L239 370 L406 370 L406 58 Q369 20 329 4 Q289 -12 236 -12 Q189 -12 152 5 Q115 22 89.5 65 Q64 108 50.5 180 Q37 252 37 363 Q37 469 50 540 Q63 611 88.5 654 Q114 697 151 715 Q188 733 237 733 Z M274 -70 L223 -231 L176 -219 L212 -56 L274 -70 Z " />
<glyph glyph-name="Gdotaccent" unicode="&#x120;" horiz-adv-x="455" d="M237 733 Q283 733 314 720 Q345 707 364.5 680.5 Q384 654 393 614.5 Q402 575 402 523 L327 523 Q327 592 308 627 Q289 662 239 662 Q206 662 183 647 Q160 632 145 597 Q130 562 123.5 504.5 Q117 447 117 362 Q117 275 124.5 216.5 Q132 158 147 122 Q162 86 185 71 Q208 56 240 56 Q270 56 292 65 Q314 74 333 94 L333 303 L239 303 L239 370 L406 370 L406 58 Q369 20 329 4 Q289 -12 236 -12 Q189 -12 152 5 Q115 22 89.5 65 Q64 108 50.5 180 Q37 252 37 363 Q37 469 50 540 Q63 611 88.5 654 Q114 697 151 715 Q188 733 237 733 Z M240 874 Q261 874 275 861.5 Q289 849 289 827 Q289 805 275 792.5 Q261 780 240 780 Q219 780 204.5 792 Q190 804 190 827 Q190 849 204.5 861.5 Q219 874 240 874 Z " />
<glyph glyph-name="H" unicode="H" horiz-adv-x="463" d="M406 0 L330 0 L330 337 L132 337 L132 0 L56 0 L56 720 L132 720 L132 409 L330 409 L330 720 L406 720 L406 0 Z " />
<glyph glyph-name="Hbar" unicode="&#x126;" horiz-adv-x="491" d="M461 548 L420 548 L420 0 L344 0 L344 337 L146 337 L146 0 L70 0 L70 548 L30 548 L30 606 L70 606 L70 720 L146 720 L146 606 L344 606 L344 720 L420 720 L420 606 L461 606 L461 548 Z M344 548 L146 548 L146 409 L344 409 L344 548 Z " />
<glyph glyph-name="Hcircumflex" unicode="&#x124;" horiz-adv-x="463" d="M406 0 L330 0 L330 337 L132 337 L132 0 L56 0 L56 720 L132 720 L132 409 L330 409 L330 720 L406 720 L406 0 Z M336 785 L302 759 L232 827 L161 759 L127 784 L204 881 L260 881 L336 785 Z " />
<glyph glyph-name="I" unicode="I" horiz-adv-x="188" d="M132 0 L56 0 L56 720 L132 720 L132 0 Z " />
<glyph glyph-name="IJ" unicode="&#x132;" horiz-adv-x="453" d="M402 110 Q402 56 377 22 Q352 -12 294 -12 Q268 -12 242 -7 Q216 -2 196 8 L208 71 Q227 64 243.5 60.5 Q260 57 279 57 Q302 57 314.5 71 Q327 85 327 128 L327 720 L402 720 L402 110 Z M132 0 L56 0 L56 720 L132 720 L132 0 Z " />
<glyph glyph-name="Iacute" unicode="&#xcd;" horiz-adv-x="188" d="M132 0 L56 0 L56 720 L132 720 L132 0 Z M180 845 L39 759 L12 799 L146 895 L180 845 Z " />
<glyph glyph-name="Ibreve" unicode="&#x12c;" horiz-adv-x="188" d="M132 0 L56 0 L56 720 L132 720 L132 0 Z M192 873 Q187 813 165 786.5 Q143 760 95 760 Q47 760 25.5 786.5 Q4 813 -1 873 L44 880 Q49 843 60.5 826.5 Q72 810 95 810 Q119 810 130.5 826.5 Q142 843 146 880 L192 873 Z " />
<glyph glyph-name="Icircumflex" unicode="&#xce;" horiz-adv-x="188" d="M132 0 L56 0 L56 720 L132 720 L132 0 Z M199 785 L165 759 L95 827 L24 759 L-10 784 L67 881 L123 881 L199 785 Z " />
<glyph glyph-name="Idieresis" unicode="&#xcf;" horiz-adv-x="188" d="M132 0 L56 0 L56 720 L132 720 L132 0 Z M23 889 Q44 889 56.5 876 Q69 863 69 842 Q69 820 56.5 807.5 Q44 795 23 795 Q2 795 -11.5 807.5 Q-25 820 -25 842 Q-25 863 -11.5 876 Q2 889 23 889 Z M169 889 Q191 889 203.5 876 Q216 863 216 842 Q216 820 203.5 807.5 Q191 795 169 795 Q149 795 135.5 807.5 Q122 820 122 842 Q122 863 135.5 876 Q149 889 169 889 Z " />
<glyph glyph-name="Idotaccent" unicode="&#x130;" horiz-adv-x="188" d="M132 0 L56 0 L56 720 L132 720 L132 0 Z M96 874 Q117 874 131 861.5 Q145 849 145 827 Q145 805 131 792.5 Q117 780 96 780 Q75 780 60.5 792 Q46 804 46 827 Q46 849 60.5 861.5 Q75 874 96 874 Z " />
<glyph glyph-name="Igrave" unicode="&#xcc;" horiz-adv-x="188" d="M132 0 L56 0 L56 720 L132 720 L132 0 Z M180 799 L153 759 L12 845 L46 895 L180 799 Z " />
<glyph glyph-name="Imacron" unicode="&#x12a;" horiz-adv-x="188" d="M132 0 L56 0 L56 720 L132 720 L132 0 Z M198 807 L-7 807 L-7 864 L198 864 L198 807 Z " />
<glyph glyph-name="Iogonek" unicode="&#x12e;" horiz-adv-x="188" d="M132 0 L126 0 Q96 -32 79 -65.5 Q62 -99 62 -131 Q62 -150 71 -159 Q80 -168 94 -168 Q113 -168 129 -155 L146 -190 Q130 -204 111.5 -212.5 Q93 -221 70 -221 Q40 -221 21 -201.5 Q2 -182 2 -146 Q2 -104 21 -67.5 Q40 -31 64 0 L56 0 L56 720 L132 720 L132 0 Z " />
<glyph glyph-name="Itilde" unicode="&#x128;" horiz-adv-x="188" d="M132 0 L56 0 L56 720 L132 720 L132 0 Z M200 866 Q188 786 142 786 Q129 786 116.5 791.5 Q104 797 92.5 803 Q81 809 71 814.5 Q61 820 52 820 Q33 820 25 785 L-11 798 Q3 878 48 878 Q61 878 73 872.5 Q85 867 96 861 Q107 855 117.5 849.5 Q128 844 137 844 Q148 844 154 851.5 Q160 859 164 878 L200 866 Z " />
<glyph glyph-name="J" unicode="J" horiz-adv-x="265" d="M214 110 Q214 56 189 22 Q164 -12 106 -12 Q80 -12 54 -7 Q28 -2 8 8 L20 71 Q39 64 55.5 60.5 Q72 57 91 57 Q114 57 126.5 71 Q139 85 139 128 L139 720 L214 720 L214 110 Z " />
<glyph glyph-name="Jcircumflex" unicode="&#x134;" horiz-adv-x="265" d="M214 110 Q214 56 189 22 Q164 -12 106 -12 Q80 -12 54 -7 Q28 -2 8 8 L20 71 Q39 64 55.5 60.5 Q72 57 91 57 Q114 57 126.5 71 Q139 85 139 128 L139 720 L214 720 L214 110 Z M281 785 L247 759 L177 827 L106 759 L72 784 L149 881 L205 881 L281 785 Z " />
<glyph glyph-name="K" unicode="K" horiz-adv-x="417" d="M258 367 L403 0 L324 0 L193 329 L132 329 L132 0 L56 0 L56 720 L132 720 L132 399 L192 399 L303 720 L383 720 L258 367 Z " />
<glyph glyph-name="Kcommaaccent" unicode="&#x136;" horiz-adv-x="417" d="M258 367 L403 0 L324 0 L193 329 L132 329 L132 0 L56 0 L56 720 L132 720 L132 399 L192 399 L303 720 L383 720 L258 367 Z M248 -70 L197 -231 L150 -219 L186 -56 L248 -70 Z " />
<glyph glyph-name="L" unicode="L" horiz-adv-x="348" d="M132 72 L330 72 L330 0 L56 0 L56 720 L132 720 L132 72 Z " />
<glyph glyph-name="Lacute" unicode="&#x139;" horiz-adv-x="348" d="M132 72 L330 72 L330 0 L56 0 L56 720 L132 720 L132 72 Z M186 845 L45 759 L18 799 L152 895 L186 845 Z " />
<glyph glyph-name="Lcaron" unicode="&#x13d;" horiz-adv-x="348" d="M132 72 L330 72 L330 0 L56 0 L56 720 L132 720 L132 72 Z M256 532 L207 532 L231 720 L298 720 L256 532 Z " />
<glyph glyph-name="Lcommaaccent" unicode="&#x13b;" horiz-adv-x="348" d="M132 72 L330 72 L330 0 L56 0 L56 720 L132 720 L132 72 Z M232 -70 L181 -231 L134 -219 L170 -56 L232 -70 Z " />
<glyph glyph-name="Ldot" unicode="&#x13f;" horiz-adv-x="357" d="M275 422 Q298 422 312 408.5 Q326 395 326 372 Q326 349 312 335 Q298 321 275 321 Q252 321 238.5 335 Q225 349 225 372 Q225 395 239 408.5 Q253 422 275 422 Z M132 72 L330 72 L330 0 L56 0 L56 720 L132 720 L132 72 Z " />
<glyph glyph-name="Lslash" unicode="&#x141;" horiz-adv-x="370" d="M343 72 L343 0 L70 0 L70 287 L21 268 L21 337 L70 356 L70 720 L146 720 L146 386 L281 441 L281 372 L146 318 L146 72 L343 72 Z " />
<glyph glyph-name="M" unicode="M" horiz-adv-x="575" d="M528 0 L458 0 L443 604 L441 604 Q434 566 427 523 Q420 480 412 443 L323 0 L252 0 L162 441 Q155 478 148 521.5 Q141 565 134 604 L132 604 L118 0 L46 0 L69 720 L173 720 L262 253 Q269 218 275.5 177 Q282 136 288 101 L289 101 L314 254 L403 720 L506 720 L528 0 Z " />
<glyph glyph-name="N" unicode="N" horiz-adv-x="472" d="M416 0 L346 0 L157 469 Q147 495 139 521.5 Q131 548 129 575 L127 575 L127 0 L56 0 L56 720 L128 720 L317 247 Q328 218 334.5 197 Q341 176 344 145 L346 145 L345 720 L416 720 L416 0 Z " />
<glyph glyph-name="Nacute" unicode="&#x143;" horiz-adv-x="472" d="M416 0 L346 0 L157 469 Q147 495 139 521.5 Q131 548 129 575 L127 575 L127 0 L56 0 L56 720 L128 720 L317 247 Q328 218 334.5 197 Q341 176 344 145 L346 145 L345 720 L416 720 L416 0 Z M326 845 L185 759 L158 799 L292 895 L326 845 Z " />
<glyph glyph-name="Ncaron" unicode="&#x147;" horiz-adv-x="472" d="M416 0 L346 0 L157 469 Q147 495 139 521.5 Q131 548 129 575 L127 575 L127 0 L56 0 L56 720 L128 720 L317 247 Q328 218 334.5 197 Q341 176 344 145 L346 145 L345 720 L416 720 L416 0 Z M214 765 L137 862 L171 887 L242 819 L312 887 L346 861 L270 765 L214 765 Z " />
<glyph glyph-name="Ncommaaccent" unicode="&#x145;" horiz-adv-x="472" d="M416 0 L346 0 L157 469 Q147 495 139 521.5 Q131 548 129 575 L127 575 L127 0 L56 0 L56 720 L128 720 L317 247 Q328 218 334.5 197 Q341 176 344 145 L346 145 L345 720 L416 720 L416 0 Z M276 -70 L225 -231 L178 -219 L214 -56 L276 -70 Z " />
<glyph glyph-name="Eng" unicode="&#x14a;" horiz-adv-x="473" d="M417 720 L417 -84 Q417 -135 394.5 -169 Q372 -203 318 -203 Q294 -203 270.5 -198 Q247 -193 229 -184 L241 -123 Q272 -137 302 -137 Q322 -137 333.5 -123.5 Q345 -110 345 -69 L345 5 L160 465 Q149 491 140.5 516 Q132 541 127 567 L127 0 L56 0 L56 720 L128 720 L317 251 Q323 235 327.5 223 Q332 211 336 199 Q340 187 342.5 174 Q345 161 347 145 L347 720 L417 720 Z " />
<glyph glyph-name="Ntilde" unicode="&#xd1;" horiz-adv-x="472" d="M416 0 L346 0 L157 469 Q147 495 139 521.5 Q131 548 129 575 L127 575 L127 0 L56 0 L56 720 L128 720 L317 247 Q328 218 334.5 197 Q341 176 344 145 L346 145 L345 720 L416 720 L416 0 Z M346 866 Q334 786 288 786 Q275 786 262.5 791.5 Q250 797 238.5 803 Q227 809 217 814.5 Q207 820 198 820 Q179 820 171 785 L135 798 Q149 878 194 878 Q207 878 219 872.5 Q231 867 242 861 Q253 855 263.5 849.5 Q274 844 283 844 Q294 844 300 851.5 Q306 859 310 878 L346 866 Z " />
<glyph glyph-name="O" unicode="O" horiz-adv-x="464" d="M233 733 Q280 733 316.5 715.5 Q353 698 377.5 655.5 Q402 613 414.5 542 Q427 471 427 364 Q427 254 414 182 Q401 110 376.5 66.5 Q352 23 315.5 5.5 Q279 -12 232 -12 Q185 -12 148.5 5.5 Q112 23 87 66.5 Q62 110 49.5 182 Q37 254 37 364 Q37 471 50 542 Q63 613 87.5 655.5 Q112 698 148.5 715.5 Q185 733 233 733 Z M232 662 Q203 662 181 648 Q159 634 145 599.5 Q131 565 124 507.5 Q117 450 117 364 Q117 277 124 218 Q131 159 145 124 Q159 89 181 74 Q203 59 233 59 Q262 59 283.5 73.5 Q305 88 319.5 123.5 Q334 159 341 217.5 Q348 276 348 364 Q348 450 341 507.5 Q334 565 319.5 599.5 Q305 634 283 648 Q261 662 232 662 Z " />
<glyph glyph-name="Oacute" unicode="&#xd3;" horiz-adv-x="464" d="M233 733 Q280 733 316.5 715.5 Q353 698 377.5 655.5 Q402 613 414.5 542 Q427 471 427 364 Q427 254 414 182 Q401 110 376.5 66.5 Q352 23 315.5 5.5 Q279 -12 232 -12 Q185 -12 148.5 5.5 Q112 23 87 66.5 Q62 110 49.5 182 Q37 254 37 364 Q37 471 50 542 Q63 613 87.5 655.5 Q112 698 148.5 715.5 Q185 733 233 733 Z M232 662 Q203 662 181 648 Q159 634 145 599.5 Q131 565 124 507.5 Q117 450 117 364 Q117 277 124 218 Q131 159 145 124 Q159 89 181 74 Q203 59 233 59 Q262 59 283.5 73.5 Q305 88 319.5 123.5 Q334 159 341 217.5 Q348 276 348 364 Q348 450 341 507.5 Q334 565 319.5 599.5 Q305 634 283 648 Q261 662 232 662 Z M317 845 L176 759 L149 799 L283 895 L317 845 Z " />
<glyph glyph-name="Obreve" unicode="&#x14e;" horiz-adv-x="464" d="M233 733 Q280 733 316.5 715.5 Q353 698 377.5 655.5 Q402 613 414.5 542 Q427 471 427 364 Q427 254 414 182 Q401 110 376.5 66.5 Q352 23 315.5 5.5 Q279 -12 232 -12 Q185 -12 148.5 5.5 Q112 23 87 66.5 Q62 110 49.5 182 Q37 254 37 364 Q37 471 50 542 Q63 613 87.5 655.5 Q112 698 148.5 715.5 Q185 733 233 733 Z M232 662 Q203 662 181 648 Q159 634 145 599.5 Q131 565 124 507.5 Q117 450 117 364 Q117 277 124 218 Q131 159 145 124 Q159 89 181 74 Q203 59 233 59 Q262 59 283.5 73.5 Q305 88 319.5 123.5 Q334 159 341 217.5 Q348 276 348 364 Q348 450 341 507.5 Q334 565 319.5 599.5 Q305 634 283 648 Q261 662 232 662 Z M330 873 Q325 813 303 786.5 Q281 760 233 760 Q185 760 163.5 786.5 Q142 813 137 873 L182 880 Q187 843 198.5 826.5 Q210 810 233 810 Q257 810 268.5 826.5 Q280 843 284 880 L330 873 Z " />
<glyph glyph-name="Ocircumflex" unicode="&#xd4;" horiz-adv-x="464" d="M233 733 Q280 733 316.5 715.5 Q353 698 377.5 655.5 Q402 613 414.5 542 Q427 471 427 364 Q427 254 414 182 Q401 110 376.5 66.5 Q352 23 315.5 5.5 Q279 -12 232 -12 Q185 -12 148.5 5.5 Q112 23 87 66.5 Q62 110 49.5 182 Q37 254 37 364 Q37 471 50 542 Q63 613 87.5 655.5 Q112 698 148.5 715.5 Q185 733 233 733 Z M232 662 Q203 662 181 648 Q159 634 145 599.5 Q131 565 124 507.5 Q117 450 117 364 Q117 277 124 218 Q131 159 145 124 Q159 89 181 74 Q203 59 233 59 Q262 59 283.5 73.5 Q305 88 319.5 123.5 Q334 159 341 217.5 Q348 276 348 364 Q348 450 341 507.5 Q334 565 319.5 599.5 Q305 634 283 648 Q261 662 232 662 Z M338 785 L304 759 L234 827 L163 759 L129 784 L206 881 L262 881 L338 785 Z " />
<glyph glyph-name="Odieresis" unicode="&#xd6;" horiz-adv-x="464" d="M233 733 Q280 733 316.5 715.5 Q353 698 377.5 655.5 Q402 613 414.5 542 Q427 471 427 364 Q427 254 414 182 Q401 110 376.5 66.5 Q352 23 315.5 5.5 Q279 -12 232 -12 Q185 -12 148.5 5.5 Q112 23 87 66.5 Q62 110 49.5 182 Q37 254 37 364 Q37 471 50 542 Q63 613 87.5 655.5 Q112 698 148.5 715.5 Q185 733 233 733 Z M232 662 Q203 662 181 648 Q159 634 145 599.5 Q131 565 124 507.5 Q117 450 117 364 Q117 277 124 218 Q131 159 145 124 Q159 89 181 74 Q203 59 233 59 Q262 59 283.5 73.5 Q305 88 319.5 123.5 Q334 159 341 217.5 Q348 276 348 364 Q348 450 341 507.5 Q334 565 319.5 599.5 Q305 634 283 648 Q261 662 232 662 Z M161 889 Q182 889 194.5 876 Q207 863 207 842 Q207 820 194.5 807.5 Q182 795 161 795 Q140 795 126.5 807.5 Q113 820 113 842 Q113 863 126.5 876 Q140 889 161 889 Z M307 889 Q329 889 341.5 876 Q354 863 354 842 Q354 820 341.5 807.5 Q329 795 307 795 Q287 795 273.5 807.5 Q260 820 260 842 Q260 863 273.5 876 Q287 889 307 889 Z " />
<glyph glyph-name="Ograve" unicode="&#xd2;" horiz-adv-x="464" d="M233 733 Q280 733 316.5 715.5 Q353 698 377.5 655.5 Q402 613 414.5 542 Q427 471 427 364 Q427 254 414 182 Q401 110 376.5 66.5 Q352 23 315.5 5.5 Q279 -12 232 -12 Q185 -12 148.5 5.5 Q112 23 87 66.5 Q62 110 49.5 182 Q37 254 37 364 Q37 471 50 542 Q63 613 87.5 655.5 Q112 698 148.5 715.5 Q185 733 233 733 Z M232 662 Q203 662 181 648 Q159 634 145 599.5 Q131 565 124 507.5 Q117 450 117 364 Q117 277 124 218 Q131 159 145 124 Q159 89 181 74 Q203 59 233 59 Q262 59 283.5 73.5 Q305 88 319.5 123.5 Q334 159 341 217.5 Q348 276 348 364 Q348 450 341 507.5 Q334 565 319.5 599.5 Q305 634 283 648 Q261 662 232 662 Z M318 799 L291 759 L150 845 L184 895 L318 799 Z " />
<glyph glyph-name="Ohungarumlaut" unicode="&#x150;" horiz-adv-x="464" d="M233 733 Q280 733 316.5 715.5 Q353 698 377.5 655.5 Q402 613 414.5 542 Q427 471 427 364 Q427 254 414 182 Q401 110 376.5 66.5 Q352 23 315.5 5.5 Q279 -12 232 -12 Q185 -12 148.5 5.5 Q112 23 87 66.5 Q62 110 49.5 182 Q37 254 37 364 Q37 471 50 542 Q63 613 87.5 655.5 Q112 698 148.5 715.5 Q185 733 233 733 Z M232 662 Q203 662 181 648 Q159 634 145 599.5 Q131 565 124 507.5 Q117 450 117 364 Q117 277 124 218 Q131 159 145 124 Q159 89 181 74 Q203 59 233 59 Q262 59 283.5 73.5 Q305 88 319.5 123.5 Q334 159 341 217.5 Q348 276 348 364 Q348 450 341 507.5 Q334 565 319.5 599.5 Q305 634 283 648 Q261 662 232 662 Z M287 864 L166 756 L131 787 L243 904 L287 864 Z M415 863 L295 756 L261 787 L372 903 L415 863 Z " />
<glyph glyph-name="Omacron" unicode="&#x14c;" horiz-adv-x="464" d="M233 733 Q280 733 316.5 715.5 Q353 698 377.5 655.5 Q402 613 414.5 542 Q427 471 427 364 Q427 254 414 182 Q401 110 376.5 66.5 Q352 23 315.5 5.5 Q279 -12 232 -12 Q185 -12 148.5 5.5 Q112 23 87 66.5 Q62 110 49.5 182 Q37 254 37 364 Q37 471 50 542 Q63 613 87.5 655.5 Q112 698 148.5 715.5 Q185 733 233 733 Z M232 662 Q203 662 181 648 Q159 634 145 599.5 Q131 565 124 507.5 Q117 450 117 364 Q117 277 124 218 Q131 159 145 124 Q159 89 181 74 Q203 59 233 59 Q262 59 283.5 73.5 Q305 88 319.5 123.5 Q334 159 341 217.5 Q348 276 348 364 Q348 450 341 507.5 Q334 565 319.5 599.5 Q305 634 283 648 Q261 662 232 662 Z M336 807 L131 807 L131 864 L336 864 L336 807 Z " />
<glyph glyph-name="Oslash" unicode="&#xd8;" horiz-adv-x="464" d="M340 700 Q383 665 405 585.5 Q427 506 427 364 Q427 254 414 182 Q401 110 376.5 66.5 Q352 23 315.5 5.5 Q279 -12 232 -12 Q208 -12 191 -8 L178 -66 L115 -66 L133 15 Q109 31 91 59.5 Q73 88 61 130 Q49 172 43 230 Q37 288 37 364 Q37 471 50 542 Q63 613 87.5 655.5 Q112 698 148.5 715.5 Q185 733 233 733 Q257 733 282 728 L293 780 L357 780 L340 700 Z M232 662 Q203 662 181 648 Q159 634 145 599.5 Q131 565 124 507.5 Q117 450 117 364 Q117 261 126 198.5 Q135 136 155 103 L265 657 Q248 662 232 662 Z M233 59 Q262 59 283.5 73.5 Q305 88 319.5 123.5 Q334 159 341 217.5 Q348 276 348 364 Q348 452 340.5 510 Q333 568 318 602 L209 61 Q214 60 220 59.5 Q226 59 233 59 Z " />
<glyph glyph-name="Otilde" unicode="&#xd5;" horiz-adv-x="464" d="M233 733 Q280 733 316.5 715.5 Q353 698 377.5 655.5 Q402 613 414.5 542 Q427 471 427 364 Q427 254 414 182 Q401 110 376.5 66.5 Q352 23 315.5 5.5 Q279 -12 232 -12 Q185 -12 148.5 5.5 Q112 23 87 66.5 Q62 110 49.5 182 Q37 254 37 364 Q37 471 50 542 Q63 613 87.5 655.5 Q112 698 148.5 715.5 Q185 733 233 733 Z M232 662 Q203 662 181 648 Q159 634 145 599.5 Q131 565 124 507.5 Q117 450 117 364 Q117 277 124 218 Q131 159 145 124 Q159 89 181 74 Q203 59 233 59 Q262 59 283.5 73.5 Q305 88 319.5 123.5 Q334 159 341 217.5 Q348 276 348 364 Q348 450 341 507.5 Q334 565 319.5 599.5 Q305 634 283 648 Q261 662 232 662 Z M338 866 Q326 786 280 786 Q267 786 254.5 791.5 Q242 797 230.5 803 Q219 809 209 814.5 Q199 820 190 820 Q171 820 163 785 L127 798 Q141 878 186 878 Q199 878 211 872.5 Q223 867 234 861 Q245 855 255.5 849.5 Q266 844 275 844 Q286 844 292 851.5 Q298 859 302 878 L338 866 Z " />
<glyph glyph-name="OE" unicode="&#x152;" horiz-adv-x="692" d="M223 733 Q268 733 303 711 Q338 689 359 638 L359 720 L646 720 L646 648 L429 648 L429 405 L625 405 L625 334 L429 334 L429 72 L651 72 L651 0 L358 0 L358 85 Q338 31 302.5 9.5 Q267 -12 222 -12 Q181 -12 147 5.5 Q113 23 88.5 66.5 Q64 110 50.5 182 Q37 254 37 364 Q37 471 50.5 542 Q64 613 88.5 655.5 Q113 698 147.5 715.5 Q182 733 223 733 Z M232 662 Q203 662 181 648 Q159 634 145 599.5 Q131 565 124 507.5 Q117 450 117 364 Q117 277 124 218 Q131 159 145 124 Q159 89 180.5 74 Q202 59 232 59 Q261 59 282.5 73.5 Q304 88 318.5 123.5 Q333 159 340 217.5 Q347 276 347 364 Q347 451 340 508.5 Q333 566 318.5 600 Q304 634 282.5 648 Q261 662 232 662 Z " />
<glyph glyph-name="P" unicode="P" horiz-adv-x="392" d="M209 721 Q248 721 278 709.5 Q308 698 328.5 672.5 Q349 647 360 605 Q371 563 371 503 Q371 441 360 398 Q349 355 327 328.5 Q305 302 273.5 290 Q242 278 201 278 L132 278 L132 1 L56 1 L56 721 L209 721 Z M131 651 L131 346 L198 346 Q243 346 267.5 379.5 Q292 413 292 500 Q292 585 269.5 618 Q247 651 205 651 L131 651 Z " />
<glyph glyph-name="Thorn" unicode="&#xde;" horiz-adv-x="384" d="M123 605 L200 605 Q237 605 267 594 Q297 583 318 557.5 Q339 532 350.5 490 Q362 448 362 386 Q362 324 350.5 281.5 Q339 239 317 212.5 Q295 186 264 174 Q233 162 193 162 L124 162 L124 0 L48 0 L48 720 L123 720 L123 605 Z M123 535 L123 230 L189 230 Q234 230 259 263.5 Q284 297 284 384 Q284 469 261.5 502 Q239 535 196 535 L123 535 Z " />
<glyph glyph-name="Q" unicode="Q" horiz-adv-x="467" d="M233 733 Q280 733 316.5 715.5 Q353 698 377.5 655.5 Q402 613 414.5 542 Q427 471 427 364 Q427 219 403 139 Q379 59 335 25 L335 24 L439 -19 L406 -82 L260 -10 Q253 -11 246.5 -11.5 Q240 -12 232 -12 Q185 -12 148.5 5.5 Q112 23 87 66.5 Q62 110 49.5 182 Q37 254 37 364 Q37 471 50 542 Q63 613 87.5 655.5 Q112 698 148.5 715.5 Q185 733 233 733 Z M232 662 Q203 662 181 648 Q159 634 145 599.5 Q131 565 124 507.5 Q117 450 117 364 Q117 277 124 218 Q131 159 145 124 Q159 89 181 74 Q203 59 233 59 Q262 59 283.5 73.5 Q305 88 319.5 123.5 Q334 159 341 217.5 Q348 276 348 364 Q348 450 341 507.5 Q334 565 319.5 599.5 Q305 634 283 648 Q261 662 232 662 Z " />
<glyph glyph-name="R" unicode="R" horiz-adv-x="420" d="M206 720 Q290 720 330.5 670.5 Q371 621 371 505 Q371 422 351 375.5 Q331 329 294 306 L398 0 L316 0 L223 281 L199 281 L132 281 L132 0 L56 0 L56 720 L206 720 Z M131 650 L131 347 L194 347 Q217 347 235.5 354 Q254 361 267 378 Q280 395 287 425 Q294 455 294 502 Q294 586 270.5 618 Q247 650 202 650 L131 650 Z " />
<glyph glyph-name="Racute" unicode="&#x154;" horiz-adv-x="420" d="M206 720 Q290 720 330.5 670.5 Q371 621 371 505 Q371 422 351 375.5 Q331 329 294 306 L398 0 L316 0 L223 281 L199 281 L132 281 L132 0 L56 0 L56 720 L206 720 Z M131 650 L131 347 L194 347 Q217 347 235.5 354 Q254 361 267 378 Q280 395 287 425 Q294 455 294 502 Q294 586 270.5 618 Q247 650 202 650 L131 650 Z M286 845 L145 759 L118 799 L252 895 L286 845 Z " />
<glyph glyph-name="Rcaron" unicode="&#x158;" horiz-adv-x="420" d="M206 720 Q290 720 330.5 670.5 Q371 621 371 505 Q371 422 351 375.5 Q331 329 294 306 L398 0 L316 0 L223 281 L199 281 L132 281 L132 0 L56 0 L56 720 L206 720 Z M131 650 L131 347 L194 347 Q217 347 235.5 354 Q254 361 267 378 Q280 395 287 425 Q294 455 294 502 Q294 586 270.5 618 Q247 650 202 650 L131 650 Z M174 765 L97 862 L131 887 L202 819 L272 887 L306 861 L230 765 L174 765 Z " />
<glyph glyph-name="Rcommaaccent" unicode="&#x156;" horiz-adv-x="420" d="M206 720 Q290 720 330.5 670.5 Q371 621 371 505 Q371 422 351 375.5 Q331 329 294 306 L398 0 L316 0 L223 281 L199 281 L132 281 L132 0 L56 0 L56 720 L206 720 Z M131 650 L131 347 L194 347 Q217 347 235.5 354 Q254 361 267 378 Q280 395 287 425 Q294 455 294 502 Q294 586 270.5 618 Q247 650 202 650 L131 650 Z M255 -70 L204 -231 L157 -219 L193 -56 L255 -70 Z " />
<glyph glyph-name="S" unicode="S" horiz-adv-x="356" d="M209 733 Q280 733 332 686 L297 627 Q279 645 256.5 654 Q234 663 211 663 Q169 663 141.5 637 Q114 611 114 551 Q114 528 120 509 Q126 490 138.5 472.5 Q151 455 170 436.5 Q189 418 216 396 Q240 377 262 356 Q284 335 301 310 Q318 285 328 255 Q338 225 338 189 Q338 96 295 42 Q252 -12 165 -12 Q123 -12 87 2.5 Q51 17 16 46 L52 107 Q79 86 106 74.5 Q133 63 160 63 Q203 63 231 92.5 Q259 122 259 182 Q259 209 251 231 Q243 253 229.5 272.5 Q216 292 198 308.5 Q180 325 160 342 Q135 362 112.5 383 Q90 404 72.5 429 Q55 454 45 484 Q35 514 35 551 Q35 642 82 687.5 Q129 733 209 733 Z " />
<glyph glyph-name="Sacute" unicode="&#x15a;" horiz-adv-x="356" d="M209 733 Q280 733 332 686 L297 627 Q279 645 256.5 654 Q234 663 211 663 Q169 663 141.5 637 Q114 611 114 551 Q114 528 120 509 Q126 490 138.5 472.5 Q151 455 170 436.5 Q189 418 216 396 Q240 377 262 356 Q284 335 301 310 Q318 285 328 255 Q338 225 338 189 Q338 96 295 42 Q252 -12 165 -12 Q123 -12 87 2.5 Q51 17 16 46 L52 107 Q79 86 106 74.5 Q133 63 160 63 Q203 63 231 92.5 Q259 122 259 182 Q259 209 251 231 Q243 253 229.5 272.5 Q216 292 198 308.5 Q180 325 160 342 Q135 362 112.5 383 Q90 404 72.5 429 Q55 454 45 484 Q35 514 35 551 Q35 642 82 687.5 Q129 733 209 733 Z M287 845 L146 759 L119 799 L253 895 L287 845 Z " />
<glyph glyph-name="Scaron" unicode="&#x160;" horiz-adv-x="356" d="M209 733 Q280 733 332 686 L297 627 Q279 645 256.5 654 Q234 663 211 663 Q169 663 141.5 637 Q114 611 114 551 Q114 528 120 509 Q126 490 138.5 472.5 Q151 455 170 436.5 Q189 418 216 396 Q240 377 262 356 Q284 335 301 310 Q318 285 328 255 Q338 225 338 189 Q338 96 295 42 Q252 -12 165 -12 Q123 -12 87 2.5 Q51 17 16 46 L52 107 Q79 86 106 74.5 Q133 63 160 63 Q203 63 231 92.5 Q259 122 259 182 Q259 209 251 231 Q243 253 229.5 272.5 Q216 292 198 308.5 Q180 325 160 342 Q135 362 112.5 383 Q90 404 72.5 429 Q55 454 45 484 Q35 514 35 551 Q35 642 82 687.5 Q129 733 209 733 Z M175 765 L98 862 L132 887 L203 819 L273 887 L307 861 L231 765 L175 765 Z " />
<glyph glyph-name="Scedilla" unicode="&#x15e;" horiz-adv-x="356" d="M338 189 Q338 103 302 50.5 Q266 -2 192 -10 L184 -60 Q208 -63 226 -79.5 Q244 -96 244 -128 Q244 -169 222.5 -190 Q201 -211 168 -211 Q152 -211 135.5 -207 Q119 -203 105 -197 L115 -157 Q126 -161 139 -164 Q152 -167 162 -167 Q194 -167 194 -130 Q194 -112 183.5 -103 Q173 -94 149 -94 L136 -94 L150 -12 Q113 -9 80.5 5.5 Q48 20 16 46 L52 107 Q79 86 106 74.5 Q133 63 160 63 Q203 63 231 92.5 Q259 122 259 182 Q259 209 251 231 Q243 253 229.5 272.5 Q216 292 198 308.5 Q180 325 160 342 Q135 362 112.5 383 Q90 404 72.5 429 Q55 454 45 484 Q35 514 35 551 Q35 642 82 687.5 Q129 733 209 733 Q280 733 332 686 L297 627 Q279 645 256.5 654 Q234 663 211 663 Q169 663 141.5 637 Q114 611 114 551 Q114 528 120 509 Q126 490 138.5 472.5 Q151 455 170 436.5 Q189 418 216 396 Q240 377 262 356 Q284 335 301 310 Q318 285 328 255 Q338 225 338 189 Z " />
<glyph glyph-name="Scircumflex" unicode="&#x15c;" horiz-adv-x="356" d="M209 733 Q280 733 332 686 L297 627 Q279 645 256.5 654 Q234 663 211 663 Q169 663 141.5 637 Q114 611 114 551 Q114 528 120 509 Q126 490 138.5 472.5 Q151 455 170 436.5 Q189 418 216 396 Q240 377 262 356 Q284 335 301 310 Q318 285 328 255 Q338 225 338 189 Q338 96 295 42 Q252 -12 165 -12 Q123 -12 87 2.5 Q51 17 16 46 L52 107 Q79 86 106 74.5 Q133 63 160 63 Q203 63 231 92.5 Q259 122 259 182 Q259 209 251 231 Q243 253 229.5 272.5 Q216 292 198 308.5 Q180 325 160 342 Q135 362 112.5 383 Q90 404 72.5 429 Q55 454 45 484 Q35 514 35 551 Q35 642 82 687.5 Q129 733 209 733 Z M307 785 L273 759 L203 827 L132 759 L98 784 L175 881 L231 881 L307 785 Z " />
<glyph glyph-name="Scommaaccent" unicode="&#x218;" horiz-adv-x="356" d="M209 733 Q280 733 332 686 L297 627 Q279 645 256.5 654 Q234 663 211 663 Q169 663 141.5 637 Q114 611 114 551 Q114 528 120 509 Q126 490 138.5 472.5 Q151 455 170 436.5 Q189 418 216 396 Q240 377 262 356 Q284 335 301 310 Q318 285 328 255 Q338 225 338 189 Q338 96 295 42 Q252 -12 165 -12 Q123 -12 87 2.5 Q51 17 16 46 L52 107 Q79 86 106 74.5 Q133 63 160 63 Q203 63 231 92.5 Q259 122 259 182 Q259 209 251 231 Q243 253 229.5 272.5 Q216 292 198 308.5 Q180 325 160 342 Q135 362 112.5 383 Q90 404 72.5 429 Q55 454 45 484 Q35 514 35 551 Q35 642 82 687.5 Q129 733 209 733 Z M218 -72 L167 -233 L120 -221 L156 -58 L218 -72 Z " />
<glyph glyph-name="T" unicode="T" horiz-adv-x="378" d="M363 648 L227 648 L227 0 L151 0 L151 648 L15 648 L15 720 L363 720 L363 648 Z " />
<glyph glyph-name="Tbar" unicode="&#x166;" horiz-adv-x="384" d="M230 648 L230 400 L305 400 L305 339 L230 339 L230 0 L154 0 L154 339 L79 339 L79 400 L154 400 L154 648 L18 648 L18 720 L366 720 L366 648 L230 648 Z " />
<glyph glyph-name="Tcaron" unicode="&#x164;" horiz-adv-x="378" d="M363 648 L227 648 L227 0 L151 0 L151 648 L15 648 L15 720 L363 720 L363 648 Z M162 765 L85 862 L119 887 L190 819 L260 887 L294 861 L218 765 L162 765 Z " />
<glyph glyph-name="U" unicode="U" horiz-adv-x="447" d="M399 227 Q399 158 388 112 Q377 66 355 38.5 Q333 11 300 -0.5 Q267 -12 223 -12 Q180 -12 147.5 -1 Q115 10 93 37.5 Q71 65 59.5 111 Q48 157 48 227 L48 720 L124 720 L124 233 Q124 183 129.5 150 Q135 117 147 97 Q159 77 178 68.5 Q197 60 224 60 Q251 60 270 68.5 Q289 77 300.5 97 Q312 117 317.5 150 Q323 183 323 233 L323 720 L399 720 L399 227 Z " />
<glyph glyph-name="Uacute" unicode="&#xda;" horiz-adv-x="447" d="M399 227 Q399 158 388 112 Q377 66 355 38.5 Q333 11 300 -0.5 Q267 -12 223 -12 Q180 -12 147.5 -1 Q115 10 93 37.5 Q71 65 59.5 111 Q48 157 48 227 L48 720 L124 720 L124 233 Q124 183 129.5 150 Q135 117 147 97 Q159 77 178 68.5 Q197 60 224 60 Q251 60 270 68.5 Q289 77 300.5 97 Q312 117 317.5 150 Q323 183 323 233 L323 720 L399 720 L399 227 Z M310 845 L169 759 L142 799 L276 895 L310 845 Z " />
<glyph glyph-name="Ubreve" unicode="&#x16c;" horiz-adv-x="447" d="M399 227 Q399 158 388 112 Q377 66 355 38.5 Q333 11 300 -0.5 Q267 -12 223 -12 Q180 -12 147.5 -1 Q115 10 93 37.5 Q71 65 59.5 111 Q48 157 48 227 L48 720 L124 720 L124 233 Q124 183 129.5 150 Q135 117 147 97 Q159 77 178 68.5 Q197 60 224 60 Q251 60 270 68.5 Q289 77 300.5 97 Q312 117 317.5 150 Q323 183 323 233 L323 720 L399 720 L399 227 Z M321 873 Q316 813 294 786.5 Q272 760 224 760 Q176 760 154.5 786.5 Q133 813 128 873 L173 880 Q178 843 189.5 826.5 Q201 810 224 810 Q248 810 259.5 826.5 Q271 843 275 880 L321 873 Z " />
<glyph glyph-name="Ucircumflex" unicode="&#xdb;" horiz-adv-x="447" d="M399 227 Q399 158 388 112 Q377 66 355 38.5 Q333 11 300 -0.5 Q267 -12 223 -12 Q180 -12 147.5 -1 Q115 10 93 37.5 Q71 65 59.5 111 Q48 157 48 227 L48 720 L124 720 L124 233 Q124 183 129.5 150 Q135 117 147 97 Q159 77 178 68.5 Q197 60 224 60 Q251 60 270 68.5 Q289 77 300.5 97 Q312 117 317.5 150 Q323 183 323 233 L323 720 L399 720 L399 227 Z M329 785 L295 759 L225 827 L154 759 L120 784 L197 881 L253 881 L329 785 Z " />
<glyph glyph-name="Udieresis" unicode="&#xdc;" horiz-adv-x="447" d="M399 227 Q399 158 388 112 Q377 66 355 38.5 Q333 11 300 -0.5 Q267 -12 223 -12 Q180 -12 147.5 -1 Q115 10 93 37.5 Q71 65 59.5 111 Q48 157 48 227 L48 720 L124 720 L124 233 Q124 183 129.5 150 Q135 117 147 97 Q159 77 178 68.5 Q197 60 224 60 Q251 60 270 68.5 Q289 77 300.5 97 Q312 117 317.5 150 Q323 183 323 233 L323 720 L399 720 L399 227 Z M152 889 Q173 889 185.5 876 Q198 863 198 842 Q198 820 185.5 807.5 Q173 795 152 795 Q131 795 117.5 807.5 Q104 820 104 842 Q104 863 117.5 876 Q131 889 152 889 Z M298 889 Q320 889 332.5 876 Q345 863 345 842 Q345 820 332.5 807.5 Q320 795 298 795 Q278 795 264.5 807.5 Q251 820 251 842 Q251 863 264.5 876 Q278 889 298 889 Z " />
<glyph glyph-name="Ugrave" unicode="&#xd9;" horiz-adv-x="447" d="M399 227 Q399 158 388 112 Q377 66 355 38.5 Q333 11 300 -0.5 Q267 -12 223 -12 Q180 -12 147.5 -1 Q115 10 93 37.5 Q71 65 59.5 111 Q48 157 48 227 L48 720 L124 720 L124 233 Q124 183 129.5 150 Q135 117 147 97 Q159 77 178 68.5 Q197 60 224 60 Q251 60 270 68.5 Q289 77 300.5 97 Q312 117 317.5 150 Q323 183 323 233 L323 720 L399 720 L399 227 Z M309 799 L282 759 L141 845 L175 895 L309 799 Z " />
<glyph glyph-name="Uhungarumlaut" unicode="&#x170;" horiz-adv-x="447" d="M399 227 Q399 158 388 112 Q377 66 355 38.5 Q333 11 300 -0.5 Q267 -12 223 -12 Q180 -12 147.5 -1 Q115 10 93 37.5 Q71 65 59.5 111 Q48 157 48 227 L48 720 L124 720 L124 233 Q124 183 129.5 150 Q135 117 147 97 Q159 77 178 68.5 Q197 60 224 60 Q251 60 270 68.5 Q289 77 300.5 97 Q312 117 317.5 150 Q323 183 323 233 L323 720 L399 720 L399 227 Z M278 864 L157 756 L122 787 L234 904 L278 864 Z M406 863 L286 756 L252 787 L363 903 L406 863 Z " />
<glyph glyph-name="Umacron" unicode="&#x16a;" horiz-adv-x="447" d="M399 227 Q399 158 388 112 Q377 66 355 38.5 Q333 11 300 -0.5 Q267 -12 223 -12 Q180 -12 147.5 -1 Q115 10 93 37.5 Q71 65 59.5 111 Q48 157 48 227 L48 720 L124 720 L124 233 Q124 183 129.5 150 Q135 117 147 97 Q159 77 178 68.5 Q197 60 224 60 Q251 60 270 68.5 Q289 77 300.5 97 Q312 117 317.5 150 Q323 183 323 233 L323 720 L399 720 L399 227 Z M326 807 L121 807 L121 864 L326 864 L326 807 Z " />
<glyph glyph-name="Uogonek" unicode="&#x172;" horiz-adv-x="447" d="M399 227 Q399 182 394.5 148.5 Q390 115 382 90 Q374 65 362 48 Q350 31 334 19 Q317 5 300.5 -11.5 Q284 -28 271 -47 Q258 -66 250 -87 Q242 -108 242 -132 Q242 -150 251.5 -159 Q261 -168 275 -168 Q293 -168 310 -155 L327 -190 Q311 -204 292.5 -212.5 Q274 -221 251 -221 Q220 -221 201 -201.5 Q182 -182 182 -146 Q182 -110 198.5 -75 Q215 -40 239 -11 Q234 -12 223 -12 Q180 -12 147.5 -1 Q115 10 93 37.5 Q71 65 59.5 111 Q48 157 48 227 L48 720 L124 720 L124 233 Q124 183 129.5 150 Q135 117 147 97 Q159 77 178 68.5 Q197 60 224 60 Q251 60 270 68.5 Q289 77 300.5 97 Q312 117 317.5 150 Q323 183 323 233 L323 720 L399 720 L399 227 Z " />
<glyph glyph-name="Uring" unicode="&#x16e;" horiz-adv-x="447" d="M399 227 Q399 158 388 112 Q377 66 355 38.5 Q333 11 300 -0.5 Q267 -12 223 -12 Q180 -12 147.5 -1 Q115 10 93 37.5 Q71 65 59.5 111 Q48 157 48 227 L48 720 L124 720 L124 233 Q124 183 129.5 150 Q135 117 147 97 Q159 77 178 68.5 Q197 60 224 60 Q251 60 270 68.5 Q289 77 300.5 97 Q312 117 317.5 150 Q323 183 323 233 L323 720 L399 720 L399 227 Z M225 929 Q257 929 278.5 908.5 Q300 888 300 839 Q300 791 278.5 770.5 Q257 750 225 750 Q193 750 171 770 Q149 790 149 838 Q149 888 171 908.5 Q193 929 225 929 Z M225 892 Q210 892 202 880 Q194 868 194 838 Q194 809 202 798 Q210 787 225 787 Q239 787 247 798.5 Q255 810 255 839 Q255 868 247 880 Q239 892 225 892 Z " />
<glyph glyph-name="Utilde" unicode="&#x168;" horiz-adv-x="447" d="M399 227 Q399 158 388 112 Q377 66 355 38.5 Q333 11 300 -0.5 Q267 -12 223 -12 Q180 -12 147.5 -1 Q115 10 93 37.5 Q71 65 59.5 111 Q48 157 48 227 L48 720 L124 720 L124 233 Q124 183 129.5 150 Q135 117 147 97 Q159 77 178 68.5 Q197 60 224 60 Q251 60 270 68.5 Q289 77 300.5 97 Q312 117 317.5 150 Q323 183 323 233 L323 720 L399 720 L399 227 Z M329 866 Q317 786 271 786 Q258 786 245.5 791.5 Q233 797 221.5 803 Q210 809 200 814.5 Q190 820 181 820 Q162 820 154 785 L118 798 Q132 878 177 878 Q190 878 202 872.5 Q214 867 225 861 Q236 855 246.5 849.5 Q257 844 266 844 Q277 844 283 851.5 Q289 859 293 878 L329 866 Z " />
<glyph glyph-name="V" unicode="V" horiz-adv-x="397" d="M381 720 L243 0 L153 0 L15 720 L96 720 L199 92 L303 720 L381 720 Z " />
<glyph glyph-name="W" unicode="W" horiz-adv-x="616" d="M597 720 L488 0 L395 0 L329 449 L309 585 Q304 552 299 516.5 Q294 481 289 449 L221 0 L130 0 L19 720 L99 720 L164 233 L180 104 Q184 136 188 169 Q192 202 197 233 L270 720 L352 720 L422 232 Q427 200 430.5 167 Q434 134 439 102 Q444 134 448 166.5 Q452 199 456 232 L522 720 L597 720 Z " />
<glyph glyph-name="Wacute" unicode="&#x1e82;" horiz-adv-x="616" d="M597 720 L488 0 L395 0 L329 449 L309 585 Q304 552 299 516.5 Q294 481 289 449 L221 0 L130 0 L19 720 L99 720 L164 233 L180 104 Q184 136 188 169 Q192 202 197 233 L270 720 L352 720 L422 232 Q427 200 430.5 167 Q434 134 439 102 Q444 134 448 166.5 Q452 199 456 232 L522 720 L597 720 Z M391 845 L250 759 L223 799 L357 895 L391 845 Z " />
<glyph glyph-name="Wcircumflex" unicode="&#x174;" horiz-adv-x="616" d="M597 720 L488 0 L395 0 L329 449 L309 585 Q304 552 299 516.5 Q294 481 289 449 L221 0 L130 0 L19 720 L99 720 L164 233 L180 104 Q184 136 188 169 Q192 202 197 233 L270 720 L352 720 L422 232 Q427 200 430.5 167 Q434 134 439 102 Q444 134 448 166.5 Q452 199 456 232 L522 720 L597 720 Z M411 785 L377 759 L307 827 L236 759 L202 784 L279 881 L335 881 L411 785 Z " />
<glyph glyph-name="Wdieresis" unicode="&#x1e84;" horiz-adv-x="616" d="M597 720 L488 0 L395 0 L329 449 L309 585 Q304 552 299 516.5 Q294 481 289 449 L221 0 L130 0 L19 720 L99 720 L164 233 L180 104 Q184 136 188 169 Q192 202 197 233 L270 720 L352 720 L422 232 Q427 200 430.5 167 Q434 134 439 102 Q444 134 448 166.5 Q452 199 456 232 L522 720 L597 720 Z M234 889 Q255 889 267.5 876 Q280 863 280 842 Q280 820 267.5 807.5 Q255 795 234 795 Q213 795 199.5 807.5 Q186 820 186 842 Q186 863 199.5 876 Q213 889 234 889 Z M380 889 Q402 889 414.5 876 Q427 863 427 842 Q427 820 414.5 807.5 Q402 795 380 795 Q360 795 346.5 807.5 Q333 820 333 842 Q333 863 346.5 876 Q360 889 380 889 Z " />
<glyph glyph-name="Wgrave" unicode="&#x1e80;" horiz-adv-x="616" d="M597 720 L488 0 L395 0 L329 449 L309 585 Q304 552 299 516.5 Q294 481 289 449 L221 0 L130 0 L19 720 L99 720 L164 233 L180 104 Q184 136 188 169 Q192 202 197 233 L270 720 L352 720 L422 232 Q427 200 430.5 167 Q434 134 439 102 Q444 134 448 166.5 Q452 199 456 232 L522 720 L597 720 Z M391 799 L364 759 L223 845 L257 895 L391 799 Z " />
<glyph glyph-name="X" unicode="X" horiz-adv-x="388" d="M292 0 L192 280 L93 0 L13 0 L150 362 L18 720 L100 720 L195 433 L292 720 L372 720 L237 361 L374 0 L292 0 Z " />
<glyph glyph-name="Y" unicode="Y" horiz-adv-x="387" d="M374 720 L230 297 L230 0 L154 0 L154 297 L13 720 L93 720 L193 395 L295 720 L374 720 Z " />
<glyph glyph-name="Yacute" unicode="&#xdd;" horiz-adv-x="387" d="M374 720 L230 297 L230 0 L154 0 L154 297 L13 720 L93 720 L193 395 L295 720 L374 720 Z M278 845 L137 759 L110 799 L244 895 L278 845 Z " />
<glyph glyph-name="Ycircumflex" unicode="&#x176;" horiz-adv-x="387" d="M374 720 L230 297 L230 0 L154 0 L154 297 L13 720 L93 720 L193 395 L295 720 L374 720 Z M298 785 L264 759 L194 827 L123 759 L89 784 L166 881 L222 881 L298 785 Z " />
<glyph glyph-name="Ydieresis" unicode="&#x178;" horiz-adv-x="387" d="M374 720 L230 297 L230 0 L154 0 L154 297 L13 720 L93 720 L193 395 L295 720 L374 720 Z M121 889 Q142 889 154.5 876 Q167 863 167 842 Q167 820 154.5 807.5 Q142 795 121 795 Q100 795 86.5 807.5 Q73 820 73 842 Q73 863 86.5 876 Q100 889 121 889 Z M267 889 Q289 889 301.5 876 Q314 863 314 842 Q314 820 301.5 807.5 Q289 795 267 795 Q247 795 233.5 807.5 Q220 820 220 842 Q220 863 233.5 876 Q247 889 267 889 Z " />
<glyph glyph-name="Ygrave" unicode="&#x1ef2;" horiz-adv-x="387" d="M374 720 L230 297 L230 0 L154 0 L154 297 L13 720 L93 720 L193 395 L295 720 L374 720 Z M278 799 L251 759 L110 845 L144 895 L278 799 Z " />
<glyph glyph-name="Z" unicode="Z" horiz-adv-x="387" d="M360 688 L113 72 L359 72 L359 0 L27 0 L27 50 L263 648 L44 648 L44 720 L360 720 L360 688 Z " />
<glyph glyph-name="Zacute" unicode="&#x179;" horiz-adv-x="387" d="M360 688 L113 72 L359 72 L359 0 L27 0 L27 50 L263 648 L44 648 L44 720 L360 720 L360 688 Z M282 845 L141 759 L114 799 L248 895 L282 845 Z " />
<glyph glyph-name="Zcaron" unicode="&#x17d;" horiz-adv-x="387" d="M360 688 L113 72 L359 72 L359 0 L27 0 L27 50 L263 648 L44 648 L44 720 L360 720 L360 688 Z M169 765 L92 862 L126 887 L197 819 L267 887 L301 861 L225 765 L169 765 Z " />
<glyph glyph-name="Zdotaccent" unicode="&#x17b;" horiz-adv-x="387" d="M360 688 L113 72 L359 72 L359 0 L27 0 L27 50 L263 648 L44 648 L44 720 L360 720 L360 688 Z M197 874 Q218 874 232 861.5 Q246 849 246 827 Q246 805 232 792.5 Q218 780 197 780 Q176 780 161.5 792 Q147 804 147 827 Q147 849 161.5 861.5 Q176 874 197 874 Z " />
<glyph glyph-name="uni0162" unicode="&#x162;" horiz-adv-x="378" d="M209 0 L199 -58 Q223 -61 241 -77.5 Q259 -94 259 -126 Q259 -167 237.5 -188 Q216 -209 183 -209 Q167 -209 150.5 -205 Q134 -201 120 -195 L130 -155 Q141 -159 154 -162 Q167 -165 177 -165 Q209 -165 209 -128 Q209 -110 198.5 -101 Q188 -92 164 -92 L151 -92 L167 0 L151 0 L151 648 L15 648 L15 720 L363 720 L363 648 L227 648 L227 0 L209 0 Z " />
<glyph glyph-name="uni021A" unicode="&#x21a;" horiz-adv-x="378" d="M363 648 L227 648 L227 0 L151 0 L151 648 L15 648 L15 720 L363 720 L363 648 Z M232 -70 L181 -231 L134 -219 L170 -56 L232 -70 Z " />
<glyph glyph-name="a" unicode="a" horiz-adv-x="334" d="M173 538 Q235 538 263.5 502 Q292 466 292 386 L292 0 L232 0 L229 87 Q215 36 187.5 12 Q160 -12 125 -12 Q80 -12 52 24.5 Q24 61 24 140 Q24 168 30 197.5 Q36 227 52 251 Q68 275 96 290.5 Q124 306 169 306 Q183 306 196 304.5 Q209 303 221 301 L221 378 Q221 426 209 449 Q197 472 168 472 Q141 472 117.5 460 Q94 448 69 428 L40 480 Q70 505 104 521.5 Q138 538 173 538 Z M183 255 Q134 255 113.5 224 Q93 193 93 137 Q93 89 106.5 68 Q120 47 142 47 Q157 47 171 58 Q185 69 196.5 89 Q208 109 214.5 137 Q221 165 221 198 L221 250 Q213 252 202.5 253.5 Q192 255 183 255 Z " />
<glyph glyph-name="aacute" unicode="&#xe1;" horiz-adv-x="334" d="M173 538 Q235 538 263.5 502 Q292 466 292 386 L292 0 L232 0 L229 87 Q215 36 187.5 12 Q160 -12 125 -12 Q80 -12 52 24.5 Q24 61 24 140 Q24 168 30 197.5 Q36 227 52 251 Q68 275 96 290.5 Q124 306 169 306 Q183 306 196 304.5 Q209 303 221 301 L221 378 Q221 426 209 449 Q197 472 168 472 Q141 472 117.5 460 Q94 448 69 428 L40 480 Q70 505 104 521.5 Q138 538 173 538 Z M183 255 Q134 255 113.5 224 Q93 193 93 137 Q93 89 106.5 68 Q120 47 142 47 Q157 47 171 58 Q185 69 196.5 89 Q208 109 214.5 137 Q221 165 221 198 L221 250 Q213 252 202.5 253.5 Q192 255 183 255 Z M262 727 L148 590 L110 618 L212 765 L262 727 Z " />
<glyph glyph-name="abreve" unicode="&#x103;" horiz-adv-x="334" d="M173 538 Q235 538 263.5 502 Q292 466 292 386 L292 0 L232 0 L229 87 Q215 36 187.5 12 Q160 -12 125 -12 Q80 -12 52 24.5 Q24 61 24 140 Q24 168 30 197.5 Q36 227 52 251 Q68 275 96 290.5 Q124 306 169 306 Q183 306 196 304.5 Q209 303 221 301 L221 378 Q221 426 209 449 Q197 472 168 472 Q141 472 117.5 460 Q94 448 69 428 L40 480 Q70 505 104 521.5 Q138 538 173 538 Z M183 255 Q134 255 113.5 224 Q93 193 93 137 Q93 89 106.5 68 Q120 47 142 47 Q157 47 171 58 Q185 69 196.5 89 Q208 109 214.5 137 Q221 165 221 198 L221 250 Q213 252 202.5 253.5 Q192 255 183 255 Z M283 754 Q277 673 252.5 635.5 Q228 598 177 598 Q127 598 103 635 Q79 672 73 753 L120 761 Q127 703 138.5 676.5 Q150 650 177 650 Q206 650 218 677 Q230 704 237 761 L283 754 Z " />
<glyph glyph-name="acircumflex" unicode="&#xe2;" horiz-adv-x="334" d="M173 538 Q235 538 263.5 502 Q292 466 292 386 L292 0 L232 0 L229 87 Q215 36 187.5 12 Q160 -12 125 -12 Q80 -12 52 24.5 Q24 61 24 140 Q24 168 30 197.5 Q36 227 52 251 Q68 275 96 290.5 Q124 306 169 306 Q183 306 196 304.5 Q209 303 221 301 L221 378 Q221 426 209 449 Q197 472 168 472 Q141 472 117.5 460 Q94 448 69 428 L40 480 Q70 505 104 521.5 Q138 538 173 538 Z M183 255 Q134 255 113.5 224 Q93 193 93 137 Q93 89 106.5 68 Q120 47 142 47 Q157 47 171 58 Q185 69 196.5 89 Q208 109 214.5 137 Q221 165 221 198 L221 250 Q213 252 202.5 253.5 Q192 255 183 255 Z M178 694 L120 581 L81 598 L150 757 L205 757 L274 598 L236 581 L178 694 Z " />
<glyph glyph-name="adieresis" unicode="&#xe4;" horiz-adv-x="334" d="M173 538 Q235 538 263.5 502 Q292 466 292 386 L292 0 L232 0 L229 87 Q215 36 187.5 12 Q160 -12 125 -12 Q80 -12 52 24.5 Q24 61 24 140 Q24 168 30 197.5 Q36 227 52 251 Q68 275 96 290.5 Q124 306 169 306 Q183 306 196 304.5 Q209 303 221 301 L221 378 Q221 426 209 449 Q197 472 168 472 Q141 472 117.5 460 Q94 448 69 428 L40 480 Q70 505 104 521.5 Q138 538 173 538 Z M183 255 Q134 255 113.5 224 Q93 193 93 137 Q93 89 106.5 68 Q120 47 142 47 Q157 47 171 58 Q185 69 196.5 89 Q208 109 214.5 137 Q221 165 221 198 L221 250 Q213 252 202.5 253.5 Q192 255 183 255 Z M105 721 Q126 721 138.5 708.5 Q151 696 151 675 Q151 653 138.5 640.5 Q126 628 105 628 Q84 628 70.5 640 Q57 652 57 675 Q57 696 70.5 708.5 Q84 721 105 721 Z M251 721 Q273 721 285.5 708.5 Q298 696 298 675 Q298 653 285.5 640.5 Q273 628 251 628 Q231 628 217.5 640 Q204 652 204 675 Q204 696 217.5 708.5 Q231 721 251 721 Z " />
<glyph glyph-name="agrave" unicode="&#xe0;" horiz-adv-x="334" d="M173 538 Q235 538 263.5 502 Q292 466 292 386 L292 0 L232 0 L229 87 Q215 36 187.5 12 Q160 -12 125 -12 Q80 -12 52 24.5 Q24 61 24 140 Q24 168 30 197.5 Q36 227 52 251 Q68 275 96 290.5 Q124 306 169 306 Q183 306 196 304.5 Q209 303 221 301 L221 378 Q221 426 209 449 Q197 472 168 472 Q141 472 117.5 460 Q94 448 69 428 L40 480 Q70 505 104 521.5 Q138 538 173 538 Z M183 255 Q134 255 113.5 224 Q93 193 93 137 Q93 89 106.5 68 Q120 47 142 47 Q157 47 171 58 Q185 69 196.5 89 Q208 109 214.5 137 Q221 165 221 198 L221 250 Q213 252 202.5 253.5 Q192 255 183 255 Z M247 613 L209 585 L98 717 L148 757 L247 613 Z " />
<glyph glyph-name="amacron" unicode="&#x101;" horiz-adv-x="334" d="M173 538 Q235 538 263.5 502 Q292 466 292 386 L292 0 L232 0 L229 87 Q215 36 187.5 12 Q160 -12 125 -12 Q80 -12 52 24.5 Q24 61 24 140 Q24 168 30 197.5 Q36 227 52 251 Q68 275 96 290.5 Q124 306 169 306 Q183 306 196 304.5 Q209 303 221 301 L221 378 Q221 426 209 449 Q197 472 168 472 Q141 472 117.5 460 Q94 448 69 428 L40 480 Q70 505 104 521.5 Q138 538 173 538 Z M183 255 Q134 255 113.5 224 Q93 193 93 137 Q93 89 106.5 68 Q120 47 142 47 Q157 47 171 58 Q185 69 196.5 89 Q208 109 214.5 137 Q221 165 221 198 L221 250 Q213 252 202.5 253.5 Q192 255 183 255 Z M280 637 L75 637 L75 694 L280 694 L280 637 Z " />
<glyph glyph-name="aogonek" unicode="&#x105;" horiz-adv-x="337" d="M173 538 Q235 538 263.5 502 Q292 466 292 386 L292 0 Q263 -32 245.5 -67 Q228 -102 228 -131 Q228 -150 237 -159 Q246 -168 260 -168 Q279 -168 296 -155 L313 -190 Q296 -204 278 -212.5 Q260 -221 236 -221 Q206 -221 187 -201.5 Q168 -182 168 -146 Q168 -105 188 -66.5 Q208 -28 236 1 L232 1 L229 87 Q215 36 187.5 12 Q160 -12 125 -12 Q80 -12 52 24.5 Q24 61 24 140 Q24 168 30 197.5 Q36 227 52 251 Q68 275 96 290.5 Q124 306 169 306 Q183 306 196 304.5 Q209 303 221 301 L221 378 Q221 426 209 449 Q197 472 168 472 Q141 472 117.5 460 Q94 448 69 428 L40 480 Q70 505 104 521.5 Q138 538 173 538 Z M183 255 Q134 255 113.5 224 Q93 193 93 137 Q93 89 106.5 68 Q120 47 142 47 Q157 47 171 58 Q185 69 196.5 89 Q208 109 214.5 137 Q221 165 221 198 L221 250 Q213 252 202.5 253.5 Q192 255 183 255 Z " />
<glyph glyph-name="aring" unicode="&#xe5;" horiz-adv-x="334" d="M173 538 Q235 538 263.5 502 Q292 466 292 386 L292 0 L232 0 L229 87 Q215 36 187.5 12 Q160 -12 125 -12 Q80 -12 52 24.5 Q24 61 24 140 Q24 168 30 197.5 Q36 227 52 251 Q68 275 96 290.5 Q124 306 169 306 Q183 306 196 304.5 Q209 303 221 301 L221 378 Q221 426 209 449 Q197 472 168 472 Q141 472 117.5 460 Q94 448 69 428 L40 480 Q70 505 104 521.5 Q138 538 173 538 Z M183 255 Q134 255 113.5 224 Q93 193 93 137 Q93 89 106.5 68 Q120 47 142 47 Q157 47 171 58 Q185 69 196.5 89 Q208 109 214.5 137 Q221 165 221 198 L221 250 Q213 252 202.5 253.5 Q192 255 183 255 Z M177 764 Q209 764 230.5 743.5 Q252 723 252 674 Q252 626 230.5 605.5 Q209 585 177 585 Q145 585 123 605.5 Q101 626 101 674 Q101 723 123 743.5 Q145 764 177 764 Z M177 727 Q162 727 154 715 Q146 703 146 674 Q146 645 154 633.5 Q162 622 177 622 Q191 622 199 633.5 Q207 645 207 674 Q207 703 199 715 Q191 727 177 727 Z " />
<glyph glyph-name="atilde" unicode="&#xe3;" horiz-adv-x="334" d="M173 538 Q235 538 263.5 502 Q292 466 292 386 L292 0 L232 0 L229 87 Q215 36 187.5 12 Q160 -12 125 -12 Q80 -12 52 24.5 Q24 61 24 140 Q24 168 30 197.5 Q36 227 52 251 Q68 275 96 290.5 Q124 306 169 306 Q183 306 196 304.5 Q209 303 221 301 L221 378 Q221 426 209 449 Q197 472 168 472 Q141 472 117.5 460 Q94 448 69 428 L40 480 Q70 505 104 521.5 Q138 538 173 538 Z M183 255 Q134 255 113.5 224 Q93 193 93 137 Q93 89 106.5 68 Q120 47 142 47 Q157 47 171 58 Q185 69 196.5 89 Q208 109 214.5 137 Q221 165 221 198 L221 250 Q213 252 202.5 253.5 Q192 255 183 255 Z M283 700 Q271 620 225 620 Q212 620 200 625.5 Q188 631 176.5 637 Q165 643 154.5 648.5 Q144 654 135 654 Q124 654 118.5 646.5 Q113 639 108 620 L72 632 Q86 712 131 712 Q144 712 156 706.5 Q168 701 179 695 Q190 689 200.5 683.5 Q211 678 220 678 Q231 678 237 685.5 Q243 693 248 712 L283 700 Z " />
<glyph glyph-name="ae" unicode="&#xe6;" horiz-adv-x="519" d="M365 537 Q400 537 424.5 525 Q449 513 464.5 486.5 Q480 460 487 417 Q494 374 494 312 L494 241 L292 241 Q292 184 296.5 147.5 Q301 111 311 89.5 Q321 68 336.5 60 Q352 52 374 52 Q399 52 420 61 Q441 70 467 86 L491 33 Q462 12 431.5 0 Q401 -12 362 -12 Q317 -12 286 9 Q255 30 237 93 Q222 36 191.5 12 Q161 -12 126 -12 Q81 -12 52 24.5 Q23 61 23 140 Q23 168 29 197.5 Q35 227 51 251 Q67 275 95.5 290.5 Q124 306 168 306 Q182 306 195.5 304.5 Q209 303 221 301 L221 378 Q221 473 168 473 Q140 473 116.5 461 Q93 449 68 429 L39 481 Q69 505 103.5 521.5 Q138 538 173 538 Q238 538 266 481 Q284 510 308.5 523.5 Q333 537 365 537 Z M363 478 Q328 478 310 439 Q292 400 292 301 L426 301 Q426 349 423.5 382.5 Q421 416 414.5 437 Q408 458 395.5 468 Q383 478 363 478 Z M184 256 Q134 256 113.5 225 Q93 194 93 138 Q93 90 106.5 68.5 Q120 47 142 47 Q157 47 171 57.5 Q185 68 196.5 87.5 Q208 107 214.5 135 Q221 163 221 197 L221 251 Q213 253 202.5 254.5 Q192 256 184 256 Z " />
<glyph glyph-name="b" unicode="b" horiz-adv-x="372" d="M119 485 Q139 509 164 523 Q189 537 219 537 Q247 537 269 525.5 Q291 514 307 483.5 Q323 453 331.5 400 Q340 347 340 263 Q340 178 331.5 124.5 Q323 71 306.5 40.5 Q290 10 266.5 -1 Q243 -12 212 -12 Q180 -12 154.5 4.5 Q129 21 115 45 L111 0 L47 0 L47 720 L119 720 L119 485 Z M197 472 Q174 472 153.5 456.5 Q133 441 119 418 L119 107 Q129 86 148.5 69.5 Q168 53 191 53 Q209 53 223 60 Q237 67 246.5 89 Q256 111 260.5 152.5 Q265 194 265 262 Q265 329 260 370 Q255 411 246 433.5 Q237 456 224.5 464 Q212 472 197 472 Z " />
<glyph glyph-name="c" unicode="c" horiz-adv-x="324" d="M181 537 Q251 537 277.5 494 Q304 451 304 366 L240 366 Q239 421 226 448 Q213 475 181 475 Q163 475 149.5 465 Q136 455 126 430.5 Q116 406 111 365.5 Q106 325 106 264 Q106 208 110 168.5 Q114 129 123.5 104 Q133 79 148 67.5 Q163 56 186 56 Q208 56 228.5 64 Q249 72 274 93 L304 41 Q246 -12 175 -12 Q137 -12 110 2.5 Q83 17 65.5 49.5 Q48 82 40 134.5 Q32 187 32 263 Q32 346 43 399 Q54 452 74 483 Q94 514 121 525.5 Q148 537 181 537 Z " />
<glyph glyph-name="cacute" unicode="&#x107;" horiz-adv-x="324" d="M181 537 Q251 537 277.5 494 Q304 451 304 366 L240 366 Q239 421 226 448 Q213 475 181 475 Q163 475 149.5 465 Q136 455 126 430.5 Q116 406 111 365.5 Q106 325 106 264 Q106 208 110 168.5 Q114 129 123.5 104 Q133 79 148 67.5 Q163 56 186 56 Q208 56 228.5 64 Q249 72 274 93 L304 41 Q246 -12 175 -12 Q137 -12 110 2.5 Q83 17 65.5 49.5 Q48 82 40 134.5 Q32 187 32 263 Q32 346 43 399 Q54 452 74 483 Q94 514 121 525.5 Q148 537 181 537 Z M268 727 L154 590 L116 618 L218 765 L268 727 Z " />
<glyph glyph-name="ccaron" unicode="&#x10d;" horiz-adv-x="324" d="M181 537 Q251 537 277.5 494 Q304 451 304 366 L240 366 Q239 421 226 448 Q213 475 181 475 Q163 475 149.5 465 Q136 455 126 430.5 Q116 406 111 365.5 Q106 325 106 264 Q106 208 110 168.5 Q114 129 123.5 104 Q133 79 148 67.5 Q163 56 186 56 Q208 56 228.5 64 Q249 72 274 93 L304 41 Q246 -12 175 -12 Q137 -12 110 2.5 Q83 17 65.5 49.5 Q48 82 40 134.5 Q32 187 32 263 Q32 346 43 399 Q54 452 74 483 Q94 514 121 525.5 Q148 537 181 537 Z M280 749 L211 590 L156 590 L87 749 L125 766 L183 652 L242 766 L280 749 Z " />
<glyph glyph-name="ccedilla" unicode="&#xe7;" horiz-adv-x="324" d="M304 41 Q257 -3 197 -11 L189 -57 Q213 -60 231 -76.5 Q249 -93 249 -125 Q249 -166 227.5 -187 Q206 -208 173 -208 Q157 -208 140.5 -204 Q124 -200 110 -194 L120 -154 Q131 -158 144 -161 Q157 -164 167 -164 Q199 -164 199 -127 Q199 -109 188.5 -100 Q178 -91 154 -91 L141 -91 L155 -11 Q122 -7 99 9.5 Q76 26 61 59 Q46 92 39 142 Q32 192 32 263 Q32 346 43 399 Q54 452 74 483 Q94 514 121 525.5 Q148 537 181 537 Q251 537 277.5 494 Q304 451 304 366 L240 366 Q239 421 226 448 Q213 475 181 475 Q163 475 149.5 465 Q136 455 126 430.5 Q116 406 111 365.5 Q106 325 106 264 Q106 208 110 168.5 Q114 129 123.5 104 Q133 79 148 67.5 Q163 56 186 56 Q208 56 228.5 64 Q249 72 274 93 L304 41 Z " />
<glyph glyph-name="ccircumflex" unicode="&#x109;" horiz-adv-x="324" d="M181 537 Q251 537 277.5 494 Q304 451 304 366 L240 366 Q239 421 226 448 Q213 475 181 475 Q163 475 149.5 465 Q136 455 126 430.5 Q116 406 111 365.5 Q106 325 106 264 Q106 208 110 168.5 Q114 129 123.5 104 Q133 79 148 67.5 Q163 56 186 56 Q208 56 228.5 64 Q249 72 274 93 L304 41 Q246 -12 175 -12 Q137 -12 110 2.5 Q83 17 65.5 49.5 Q48 82 40 134.5 Q32 187 32 263 Q32 346 43 399 Q54 452 74 483 Q94 514 121 525.5 Q148 537 181 537 Z M184 694 L126 581 L87 598 L156 757 L211 757 L280 598 L242 581 L184 694 Z " />
<glyph glyph-name="cdotaccent" unicode="&#x10b;" horiz-adv-x="324" d="M181 537 Q251 537 277.5 494 Q304 451 304 366 L240 366 Q239 421 226 448 Q213 475 181 475 Q163 475 149.5 465 Q136 455 126 430.5 Q116 406 111 365.5 Q106 325 106 264 Q106 208 110 168.5 Q114 129 123.5 104 Q133 79 148 67.5 Q163 56 186 56 Q208 56 228.5 64 Q249 72 274 93 L304 41 Q246 -12 175 -12 Q137 -12 110 2.5 Q83 17 65.5 49.5 Q48 82 40 134.5 Q32 187 32 263 Q32 346 43 399 Q54 452 74 483 Q94 514 121 525.5 Q148 537 181 537 Z M186 716 Q207 716 221 703.5 Q235 691 235 669 Q235 647 221 634.5 Q207 622 186 622 Q165 622 150.5 634.5 Q136 647 136 669 Q136 691 150.5 703.5 Q165 716 186 716 Z " />
<glyph glyph-name="d" unicode="d" horiz-adv-x="372" d="M325 0 L260 0 L257 46 Q241 20 216 4 Q191 -12 157 -12 Q127 -12 103.5 1 Q80 14 64.5 45.5 Q49 77 40.5 129.5 Q32 182 32 262 Q32 343 40.5 396.5 Q49 450 65 481 Q81 512 104 524.5 Q127 537 157 537 Q186 537 210 523.5 Q234 510 254 487 L254 720 L325 720 L325 0 Z M177 472 Q161 472 148 464 Q135 456 125.5 433.5 Q116 411 111 370 Q106 329 106 263 Q106 198 111 157.5 Q116 117 125.5 93.5 Q135 70 149 61.5 Q163 53 182 53 Q205 53 224.5 69.5 Q244 86 254 104 L254 418 Q243 438 220.5 455 Q198 472 177 472 Z " />
<glyph glyph-name="eth" unicode="&#xf0;" horiz-adv-x="349" d="M246 608 Q281 558 297.5 485.5 Q314 413 314 303 Q314 144 280 66 Q246 -12 169 -12 Q138 -12 111.5 -2.5 Q85 7 66 32 Q47 57 36 100.5 Q25 144 25 212 Q25 276 34 319.5 Q43 363 59.5 389.5 Q76 416 99 427.5 Q122 439 151 439 Q180 439 203 424 Q226 409 243 383 Q240 436 228.5 478 Q217 520 195 554 L147 501 L102 542 L156 603 Q123 636 72 664 L104 722 Q134 707 159.5 690.5 Q185 674 206 654 L258 709 L302 669 L246 608 Z M168 50 Q206 50 225.5 117 Q245 184 245 315 Q232 341 211.5 360 Q191 379 168 379 Q153 379 140 371.5 Q127 364 117.5 345 Q108 326 102.5 293 Q97 260 97 210 Q97 159 102.5 127.5 Q108 96 117.5 79 Q127 62 140 56 Q153 50 168 50 Z " />
<glyph glyph-name="dcaron" unicode="&#x10f;" horiz-adv-x="452" d="M325 0 L260 0 L257 46 Q241 20 216 4 Q191 -12 157 -12 Q127 -12 103.5 1 Q80 14 64.5 45.5 Q49 77 40.5 129.5 Q32 182 32 262 Q32 343 40.5 396.5 Q49 450 65 481 Q81 512 104 524.5 Q127 537 157 537 Q186 537 210 523.5 Q234 510 254 487 L254 720 L325 720 L325 0 Z M177 472 Q161 472 148 464 Q135 456 125.5 433.5 Q116 411 111 370 Q106 329 106 263 Q106 198 111 157.5 Q116 117 125.5 93.5 Q135 70 149 61.5 Q163 53 182 53 Q205 53 224.5 69.5 Q244 86 254 104 L254 418 Q243 438 220.5 455 Q198 472 177 472 Z M425 532 L376 532 L400 720 L467 720 L425 532 Z " />
<glyph glyph-name="dcroat" unicode="&#x111;" horiz-adv-x="383" d="M325 642 L369 642 L369 589 L325 589 L325 0 L260 0 L257 45 Q241 20 216 4 Q191 -12 157 -12 Q127 -12 103.5 0 Q80 12 64.5 42 Q49 72 40.5 122 Q32 172 32 248 Q32 324 40.5 374 Q49 424 65 453.5 Q81 483 104.5 495 Q128 507 157 507 Q185 507 210 493.5 Q235 480 254 457 L254 589 L156 589 L156 642 L254 642 L254 720 L325 720 L325 642 Z M177 442 Q161 442 148 434.5 Q135 427 126 406 Q117 385 112 347 Q107 309 107 247 Q107 187 111.5 149.5 Q116 112 125.5 90.5 Q135 69 149 61 Q163 53 182 53 Q205 53 224.5 69.5 Q244 86 254 104 L254 388 Q243 408 220.5 425 Q198 442 177 442 Z " />
<glyph glyph-name="e" unicode="e" horiz-adv-x="333" d="M180 537 Q215 537 239.5 524.5 Q264 512 279.5 485 Q295 458 302 415 Q309 372 309 310 Q309 293 309 274.5 Q309 256 308 239 L106 239 Q106 181 111.5 144.5 Q117 108 127.5 87.5 Q138 67 153 59.5 Q168 52 189 52 Q214 52 235 61 Q256 70 281 86 L306 33 Q276 12 246 0 Q216 -12 177 -12 Q144 -12 117.5 -1.5 Q91 9 72 39.5 Q53 70 42.5 124.5 Q32 179 32 267 Q32 352 43 405 Q54 458 73.5 487 Q93 516 120 526.5 Q147 537 180 537 Z M178 478 Q142 478 124 437.5 Q106 397 106 299 L241 299 Q241 394 229 436 Q217 478 178 478 Z " />
<glyph glyph-name="eacute" unicode="&#xe9;" horiz-adv-x="333" d="M180 537 Q215 537 239.5 524.5 Q264 512 279.5 485 Q295 458 302 415 Q309 372 309 310 Q309 293 309 274.5 Q309 256 308 239 L106 239 Q106 181 111.5 144.5 Q117 108 127.5 87.5 Q138 67 153 59.5 Q168 52 189 52 Q214 52 235 61 Q256 70 281 86 L306 33 Q276 12 246 0 Q216 -12 177 -12 Q144 -12 117.5 -1.5 Q91 9 72 39.5 Q53 70 42.5 124.5 Q32 179 32 267 Q32 352 43 405 Q54 458 73.5 487 Q93 516 120 526.5 Q147 537 180 537 Z M178 478 Q142 478 124 437.5 Q106 397 106 299 L241 299 Q241 394 229 436 Q217 478 178 478 Z M268 727 L154 590 L116 618 L218 765 L268 727 Z " />
<glyph glyph-name="ebreve" unicode="&#x115;" horiz-adv-x="333" d="M180 537 Q215 537 239.5 524.5 Q264 512 279.5 485 Q295 458 302 415 Q309 372 309 310 Q309 293 309 274.5 Q309 256 308 239 L106 239 Q106 181 111.5 144.5 Q117 108 127.5 87.5 Q138 67 153 59.5 Q168 52 189 52 Q214 52 235 61 Q256 70 281 86 L306 33 Q276 12 246 0 Q216 -12 177 -12 Q144 -12 117.5 -1.5 Q91 9 72 39.5 Q53 70 42.5 124.5 Q32 179 32 267 Q32 352 43 405 Q54 458 73.5 487 Q93 516 120 526.5 Q147 537 180 537 Z M178 478 Q142 478 124 437.5 Q106 397 106 299 L241 299 Q241 394 229 436 Q217 478 178 478 Z M288 754 Q282 673 257.5 635.5 Q233 598 182 598 Q132 598 108 635 Q84 672 78 753 L125 761 Q132 703 143.5 676.5 Q155 650 182 650 Q211 650 223 677 Q235 704 242 761 L288 754 Z " />
<glyph glyph-name="ecaron" unicode="&#x11b;" horiz-adv-x="333" d="M180 537 Q215 537 239.5 524.5 Q264 512 279.5 485 Q295 458 302 415 Q309 372 309 310 Q309 293 309 274.5 Q309 256 308 239 L106 239 Q106 181 111.5 144.5 Q117 108 127.5 87.5 Q138 67 153 59.5 Q168 52 189 52 Q214 52 235 61 Q256 70 281 86 L306 33 Q276 12 246 0 Q216 -12 177 -12 Q144 -12 117.5 -1.5 Q91 9 72 39.5 Q53 70 42.5 124.5 Q32 179 32 267 Q32 352 43 405 Q54 458 73.5 487 Q93 516 120 526.5 Q147 537 180 537 Z M178 478 Q142 478 124 437.5 Q106 397 106 299 L241 299 Q241 394 229 436 Q217 478 178 478 Z M279 749 L210 590 L155 590 L86 749 L124 766 L182 652 L241 766 L279 749 Z " />
<glyph glyph-name="ecircumflex" unicode="&#xea;" horiz-adv-x="333" d="M180 537 Q215 537 239.5 524.5 Q264 512 279.5 485 Q295 458 302 415 Q309 372 309 310 Q309 293 309 274.5 Q309 256 308 239 L106 239 Q106 181 111.5 144.5 Q117 108 127.5 87.5 Q138 67 153 59.5 Q168 52 189 52 Q214 52 235 61 Q256 70 281 86 L306 33 Q276 12 246 0 Q216 -12 177 -12 Q144 -12 117.5 -1.5 Q91 9 72 39.5 Q53 70 42.5 124.5 Q32 179 32 267 Q32 352 43 405 Q54 458 73.5 487 Q93 516 120 526.5 Q147 537 180 537 Z M178 478 Q142 478 124 437.5 Q106 397 106 299 L241 299 Q241 394 229 436 Q217 478 178 478 Z M182 694 L124 581 L85 598 L154 757 L209 757 L278 598 L240 581 L182 694 Z " />
<glyph glyph-name="edieresis" unicode="&#xeb;" horiz-adv-x="333" d="M180 537 Q215 537 239.5 524.5 Q264 512 279.5 485 Q295 458 302 415 Q309 372 309 310 Q309 293 309 274.5 Q309 256 308 239 L106 239 Q106 181 111.5 144.5 Q117 108 127.5 87.5 Q138 67 153 59.5 Q168 52 189 52 Q214 52 235 61 Q256 70 281 86 L306 33 Q276 12 246 0 Q216 -12 177 -12 Q144 -12 117.5 -1.5 Q91 9 72 39.5 Q53 70 42.5 124.5 Q32 179 32 267 Q32 352 43 405 Q54 458 73.5 487 Q93 516 120 526.5 Q147 537 180 537 Z M178 478 Q142 478 124 437.5 Q106 397 106 299 L241 299 Q241 394 229 436 Q217 478 178 478 Z M110 721 Q131 721 143.5 708.5 Q156 696 156 675 Q156 653 143.5 640.5 Q131 628 110 628 Q89 628 75.5 640 Q62 652 62 675 Q62 696 75.5 708.5 Q89 721 110 721 Z M256 721 Q278 721 290.5 708.5 Q303 696 303 675 Q303 653 290.5 640.5 Q278 628 256 628 Q236 628 222.5 640 Q209 652 209 675 Q209 696 222.5 708.5 Q236 721 256 721 Z " />
<glyph glyph-name="edotaccent" unicode="&#x117;" horiz-adv-x="333" d="M180 537 Q215 537 239.5 524.5 Q264 512 279.5 485 Q295 458 302 415 Q309 372 309 310 Q309 293 309 274.5 Q309 256 308 239 L106 239 Q106 181 111.5 144.5 Q117 108 127.5 87.5 Q138 67 153 59.5 Q168 52 189 52 Q214 52 235 61 Q256 70 281 86 L306 33 Q276 12 246 0 Q216 -12 177 -12 Q144 -12 117.5 -1.5 Q91 9 72 39.5 Q53 70 42.5 124.5 Q32 179 32 267 Q32 352 43 405 Q54 458 73.5 487 Q93 516 120 526.5 Q147 537 180 537 Z M178 478 Q142 478 124 437.5 Q106 397 106 299 L241 299 Q241 394 229 436 Q217 478 178 478 Z M186 716 Q207 716 221 703.5 Q235 691 235 669 Q235 647 221 634.5 Q207 622 186 622 Q165 622 150.5 634.5 Q136 647 136 669 Q136 691 150.5 703.5 Q165 716 186 716 Z " />
<glyph glyph-name="egrave" unicode="&#xe8;" horiz-adv-x="333" d="M180 537 Q215 537 239.5 524.5 Q264 512 279.5 485 Q295 458 302 415 Q309 372 309 310 Q309 293 309 274.5 Q309 256 308 239 L106 239 Q106 181 111.5 144.5 Q117 108 127.5 87.5 Q138 67 153 59.5 Q168 52 189 52 Q214 52 235 61 Q256 70 281 86 L306 33 Q276 12 246 0 Q216 -12 177 -12 Q144 -12 117.5 -1.5 Q91 9 72 39.5 Q53 70 42.5 124.5 Q32 179 32 267 Q32 352 43 405 Q54 458 73.5 487 Q93 516 120 526.5 Q147 537 180 537 Z M178 478 Q142 478 124 437.5 Q106 397 106 299 L241 299 Q241 394 229 436 Q217 478 178 478 Z M253 613 L215 585 L104 717 L154 757 L253 613 Z " />
<glyph glyph-name="emacron" unicode="&#x113;" horiz-adv-x="333" d="M180 537 Q215 537 239.5 524.5 Q264 512 279.5 485 Q295 458 302 415 Q309 372 309 310 Q309 293 309 274.5 Q309 256 308 239 L106 239 Q106 181 111.5 144.5 Q117 108 127.5 87.5 Q138 67 153 59.5 Q168 52 189 52 Q214 52 235 61 Q256 70 281 86 L306 33 Q276 12 246 0 Q216 -12 177 -12 Q144 -12 117.5 -1.5 Q91 9 72 39.5 Q53 70 42.5 124.5 Q32 179 32 267 Q32 352 43 405 Q54 458 73.5 487 Q93 516 120 526.5 Q147 537 180 537 Z M178 478 Q142 478 124 437.5 Q106 397 106 299 L241 299 Q241 394 229 436 Q217 478 178 478 Z M285 637 L80 637 L80 694 L285 694 L285 637 Z " />
<glyph glyph-name="eogonek" unicode="&#x119;" horiz-adv-x="333" d="M180 537 Q215 537 239.5 524.5 Q264 512 279.5 485 Q295 458 302 415 Q309 372 309 310 Q309 293 309 275 Q309 257 308 239 L106 239 Q106 181 111.5 144.5 Q117 108 127.5 87.5 Q138 67 153 59.5 Q168 52 189 52 Q214 52 235 61 Q256 70 281 86 L306 33 Q295 25 282.5 17 Q270 9 257 -2 Q232 -23 212 -58.5 Q192 -94 192 -131 Q192 -150 201 -159 Q210 -168 224 -168 Q243 -168 260 -155 L277 -190 Q260 -204 242 -212.5 Q224 -221 201 -221 Q170 -221 151 -201.5 Q132 -182 132 -146 Q132 -110 148.5 -75 Q165 -40 190 -11 Q185 -12 177 -12 Q144 -12 117.5 -1.5 Q91 9 72 39.5 Q53 70 42.5 124.5 Q32 179 32 267 Q32 352 43 405 Q54 458 73.5 487 Q93 516 120 526.5 Q147 537 180 537 Z M178 478 Q142 478 124 437.5 Q106 397 106 299 L241 299 Q241 394 229 436 Q217 478 178 478 Z " />
<glyph glyph-name="f" unicode="f" horiz-adv-x="221" d="M162 732 Q179 732 197 729.5 Q215 727 232 722 L224 665 Q204 671 180 671 Q158 671 148 658 Q138 645 138 611 L138 525 L218 525 L218 466 L138 466 L138 0 L67 0 L67 466 L19 466 L19 515 L67 523 L67 610 Q67 674 88 703 Q109 732 162 732 Z " />
<glyph glyph-name="g" unicode="g" horiz-adv-x="373" d="M159 537 Q188 537 214.5 520 Q241 503 258 479 L261 525 L325 525 L325 -35 Q325 -84 317 -117.5 Q309 -151 293 -171.5 Q277 -192 253 -201 Q229 -210 197 -210 Q159 -210 124 -202 Q89 -194 66 -183 L83 -125 Q103 -134 129.5 -141 Q156 -148 183 -148 Q202 -148 215.5 -142.5 Q229 -137 237.5 -123 Q246 -109 250 -84 Q254 -59 254 -21 L254 46 Q237 22 213 7 Q189 -8 157 -8 Q127 -8 103.5 5 Q80 18 64.5 49.5 Q49 81 40.5 133 Q32 185 32 264 Q32 347 40.5 400 Q49 453 65.5 483.5 Q82 514 105.5 525.5 Q129 537 159 537 Z M178 472 Q161 472 148 464 Q135 456 125.5 433.5 Q116 411 111 370.5 Q106 330 106 264 Q106 200 111 159.5 Q116 119 125.5 96.5 Q135 74 149.5 65.5 Q164 57 182 57 Q205 57 224.5 74 Q244 91 254 110 L254 418 Q248 428 239.5 437.5 Q231 447 220.5 454.5 Q210 462 199 467 Q188 472 178 472 Z " />
<glyph glyph-name="gbreve" unicode="&#x11f;" horiz-adv-x="373" d="M159 537 Q188 537 214.5 520 Q241 503 258 479 L261 525 L325 525 L325 -35 Q325 -84 317 -117.5 Q309 -151 293 -171.5 Q277 -192 253 -201 Q229 -210 197 -210 Q159 -210 124 -202 Q89 -194 66 -183 L83 -125 Q103 -134 129.5 -141 Q156 -148 183 -148 Q202 -148 215.5 -142.5 Q229 -137 237.5 -123 Q246 -109 250 -84 Q254 -59 254 -21 L254 46 Q237 22 213 7 Q189 -8 157 -8 Q127 -8 103.5 5 Q80 18 64.5 49.5 Q49 81 40.5 133 Q32 185 32 264 Q32 347 40.5 400 Q49 453 65.5 483.5 Q82 514 105.5 525.5 Q129 537 159 537 Z M178 472 Q161 472 148 464 Q135 456 125.5 433.5 Q116 411 111 370.5 Q106 330 106 264 Q106 200 111 159.5 Q116 119 125.5 96.5 Q135 74 149.5 65.5 Q164 57 182 57 Q205 57 224.5 74 Q244 91 254 110 L254 418 Q248 428 239.5 437.5 Q231 447 220.5 454.5 Q210 462 199 467 Q188 472 178 472 Z M299 754 Q293 673 268.5 635.5 Q244 598 193 598 Q143 598 119 635 Q95 672 89 753 L136 761 Q143 703 154.5 676.5 Q166 650 193 650 Q222 650 234 677 Q246 704 253 761 L299 754 Z " />
<glyph glyph-name="gcircumflex" unicode="&#x11d;" horiz-adv-x="373" d="M159 537 Q188 537 214.5 520 Q241 503 258 479 L261 525 L325 525 L325 -35 Q325 -84 317 -117.5 Q309 -151 293 -171.5 Q277 -192 253 -201 Q229 -210 197 -210 Q159 -210 124 -202 Q89 -194 66 -183 L83 -125 Q103 -134 129.5 -141 Q156 -148 183 -148 Q202 -148 215.5 -142.5 Q229 -137 237.5 -123 Q246 -109 250 -84 Q254 -59 254 -21 L254 46 Q237 22 213 7 Q189 -8 157 -8 Q127 -8 103.5 5 Q80 18 64.5 49.5 Q49 81 40.5 133 Q32 185 32 264 Q32 347 40.5 400 Q49 453 65.5 483.5 Q82 514 105.5 525.5 Q129 537 159 537 Z M178 472 Q161 472 148 464 Q135 456 125.5 433.5 Q116 411 111 370.5 Q106 330 106 264 Q106 200 111 159.5 Q116 119 125.5 96.5 Q135 74 149.5 65.5 Q164 57 182 57 Q205 57 224.5 74 Q244 91 254 110 L254 418 Q248 428 239.5 437.5 Q231 447 220.5 454.5 Q210 462 199 467 Q188 472 178 472 Z M194 694 L136 581 L97 598 L166 757 L221 757 L290 598 L252 581 L194 694 Z " />
<glyph glyph-name="gcommaaccent" unicode="&#x123;" horiz-adv-x="373" d="M159 537 Q188 537 214.5 520 Q241 503 258 479 L261 525 L325 525 L325 -35 Q325 -84 317 -117.5 Q309 -151 293 -171.5 Q277 -192 253 -201 Q229 -210 197 -210 Q159 -210 124 -202 Q89 -194 66 -183 L83 -125 Q103 -134 129.5 -141 Q156 -148 183 -148 Q202 -148 215.5 -142.5 Q229 -137 237.5 -123 Q246 -109 250 -84 Q254 -59 254 -21 L254 46 Q237 22 213 7 Q189 -8 157 -8 Q127 -8 103.5 5 Q80 18 64.5 49.5 Q49 81 40.5 133 Q32 185 32 264 Q32 347 40.5 400 Q49 453 65.5 483.5 Q82 514 105.5 525.5 Q129 537 159 537 Z M178 472 Q161 472 148 464 Q135 456 125.5 433.5 Q116 411 111 370.5 Q106 330 106 264 Q106 200 111 159.5 Q116 119 125.5 96.5 Q135 74 149.5 65.5 Q164 57 182 57 Q205 57 224.5 74 Q244 91 254 110 L254 418 Q248 428 239.5 437.5 Q231 447 220.5 454.5 Q210 462 199 467 Q188 472 178 472 Z M255 757 L219 591 L156 605 L208 769 L255 757 Z " />
<glyph glyph-name="gdotaccent" unicode="&#x121;" horiz-adv-x="373" d="M159 537 Q188 537 214.5 520 Q241 503 258 479 L261 525 L325 525 L325 -35 Q325 -84 317 -117.5 Q309 -151 293 -171.5 Q277 -192 253 -201 Q229 -210 197 -210 Q159 -210 124 -202 Q89 -194 66 -183 L83 -125 Q103 -134 129.5 -141 Q156 -148 183 -148 Q202 -148 215.5 -142.5 Q229 -137 237.5 -123 Q246 -109 250 -84 Q254 -59 254 -21 L254 46 Q237 22 213 7 Q189 -8 157 -8 Q127 -8 103.5 5 Q80 18 64.5 49.5 Q49 81 40.5 133 Q32 185 32 264 Q32 347 40.5 400 Q49 453 65.5 483.5 Q82 514 105.5 525.5 Q129 537 159 537 Z M178 472 Q161 472 148 464 Q135 456 125.5 433.5 Q116 411 111 370.5 Q106 330 106 264 Q106 200 111 159.5 Q116 119 125.5 96.5 Q135 74 149.5 65.5 Q164 57 182 57 Q205 57 224.5 74 Q244 91 254 110 L254 418 Q248 428 239.5 437.5 Q231 447 220.5 454.5 Q210 462 199 467 Q188 472 178 472 Z M196 716 Q217 716 231 703.5 Q245 691 245 669 Q245 647 231 634.5 Q217 622 196 622 Q175 622 160.5 634.5 Q146 647 146 669 Q146 691 160.5 703.5 Q175 716 196 716 Z " />
<glyph glyph-name="h" unicode="h" horiz-adv-x="364" d="M218 537 Q272 537 296.5 501 Q321 465 321 379 L321 0 L250 0 L250 369 Q250 428 238 450 Q226 472 201 472 Q181 472 158.5 457 Q136 442 119 419 L119 0 L47 0 L47 720 L119 720 L119 485 Q140 508 165.5 522.5 Q191 537 218 537 Z " />
<glyph glyph-name="hbar" unicode="&#x127;" horiz-adv-x="375" d="M129 642 L226 642 L226 589 L129 589 L129 443 Q151 468 176.5 482.5 Q202 497 229 497 Q283 497 307.5 461 Q332 425 332 339 L332 0 L261 0 L261 329 Q261 388 249 410 Q237 432 211 432 Q191 432 169 417.5 Q147 403 129 379 L129 0 L58 0 L58 589 L14 589 L14 642 L58 642 L58 720 L129 720 L129 642 Z " />
<glyph glyph-name="hcircumflex" unicode="&#x125;" horiz-adv-x="364" d="M218 537 Q272 537 296.5 501 Q321 465 321 379 L321 0 L250 0 L250 369 Q250 428 238 450 Q226 472 201 472 Q181 472 158.5 457 Q136 442 119 419 L119 0 L47 0 L47 720 L119 720 L119 485 Q140 508 165.5 522.5 Q191 537 218 537 Z M188 765 L154 739 L84 807 L13 739 L-21 764 L56 861 L112 861 L188 765 Z " />
<glyph glyph-name="i" unicode="i" horiz-adv-x="164" d="M83 716 Q104 716 118 703.5 Q132 691 132 669 Q132 647 118 634.5 Q104 622 83 622 Q62 622 47.5 634.5 Q33 647 33 669 Q33 691 47.5 703.5 Q62 716 83 716 Z M117 0 L47 0 L47 525 L117 525 L117 0 Z " />
<glyph glyph-name="dotlessi" unicode="&#x131;" horiz-adv-x="164" d="M117 0 L47 0 L47 525 L117 525 L117 0 Z " />
<glyph glyph-name="iacute" unicode="&#xed;" horiz-adv-x="164" d="M117 0 L47 0 L47 525 L117 525 L117 0 Z M167 727 L53 590 L15 618 L117 765 L167 727 Z " />
<glyph glyph-name="ibreve" unicode="&#x12d;" horiz-adv-x="164" d="M117 0 L47 0 L47 525 L117 525 L117 0 Z M188 754 Q182 673 157.5 635.5 Q133 598 82 598 Q32 598 8 635 Q-16 672 -22 753 L25 761 Q32 703 43.5 676.5 Q55 650 82 650 Q111 650 123 677 Q135 704 142 761 L188 754 Z " />
<glyph glyph-name="icircumflex" unicode="&#xee;" horiz-adv-x="164" d="M117 0 L47 0 L47 525 L117 525 L117 0 Z M83 694 L25 581 L-14 598 L55 757 L110 757 L179 598 L141 581 L83 694 Z " />
<glyph glyph-name="idieresis" unicode="&#xef;" horiz-adv-x="164" d="M117 0 L47 0 L47 525 L117 525 L117 0 Z M10 721 Q31 721 43.5 708.5 Q56 696 56 675 Q56 653 43.5 640.5 Q31 628 10 628 Q-11 628 -24.5 640 Q-38 652 -38 675 Q-38 696 -24.5 708.5 Q-11 721 10 721 Z M156 721 Q178 721 190.5 708.5 Q203 696 203 675 Q203 653 190.5 640.5 Q178 628 156 628 Q136 628 122.5 640 Q109 652 109 675 Q109 696 122.5 708.5 Q136 721 156 721 Z " />
<glyph glyph-name="igrave" unicode="&#xec;" horiz-adv-x="164" d="M117 0 L47 0 L47 525 L117 525 L117 0 Z M153 613 L115 585 L4 717 L54 757 L153 613 Z " />
<glyph glyph-name="ij" unicode="&#x133;" horiz-adv-x="332" d="M249 716 Q270 716 283 703.5 Q296 691 296 669 Q296 647 283 634.5 Q270 622 249 622 Q229 622 215 634.5 Q201 647 201 669 Q201 691 215 703.5 Q229 716 249 716 Z M285 -99 Q285 -154 267.5 -179 Q250 -204 202 -204 Q185 -204 167 -201.5 Q149 -199 133 -193 L140 -135 Q152 -138 160.5 -139.5 Q169 -141 180 -141 Q198 -141 206 -132 Q214 -123 214 -99 L214 525 L285 525 L285 -99 Z M83 716 Q104 716 118 703.5 Q132 691 132 669 Q132 647 118 634.5 Q104 622 83 622 Q62 622 47.5 634.5 Q33 647 33 669 Q33 691 47.5 703.5 Q62 716 83 716 Z M117 0 L47 0 L47 525 L117 525 L117 0 Z " />
<glyph glyph-name="imacron" unicode="&#x12b;" horiz-adv-x="164" d="M117 0 L47 0 L47 525 L117 525 L117 0 Z M186 637 L-19 637 L-19 694 L186 694 L186 637 Z " />
<glyph glyph-name="iogonek" unicode="&#x12f;" horiz-adv-x="167" d="M84 716 Q105 716 118 703.5 Q131 691 131 669 Q131 647 118.5 634.5 Q106 622 84 622 Q64 622 50 634.5 Q36 647 36 669 Q36 691 50 703.5 Q64 716 84 716 Z M120 0 L115 0 Q89 -30 71.5 -66 Q54 -102 54 -131 Q54 -150 63.5 -159 Q73 -168 87 -168 Q105 -168 122 -155 L139 -190 Q123 -204 104.5 -212.5 Q86 -221 63 -221 Q32 -221 13 -201.5 Q-6 -182 -6 -146 Q-6 -104 13 -67.5 Q32 -31 56 0 L49 0 L49 525 L120 525 L120 0 Z " />
<glyph glyph-name="itilde" unicode="&#x129;" horiz-adv-x="164" d="M117 0 L47 0 L47 525 L117 525 L117 0 Z M188 700 Q176 620 130 620 Q117 620 105 625.5 Q93 631 81.5 637 Q70 643 59.5 648.5 Q49 654 40 654 Q29 654 23.5 646.5 Q18 639 13 620 L-23 632 Q-9 712 36 712 Q49 712 61 706.5 Q73 701 84 695 Q95 689 105.5 683.5 Q116 678 125 678 Q136 678 142 685.5 Q148 693 153 712 L188 700 Z " />
<glyph glyph-name="j" unicode="j" horiz-adv-x="168" d="M85 716 Q106 716 119 703.5 Q132 691 132 669 Q132 647 119 634.5 Q106 622 85 622 Q65 622 51 634.5 Q37 647 37 669 Q37 691 51 703.5 Q65 716 85 716 Z M121 -99 Q121 -154 103.5 -179 Q86 -204 38 -204 Q21 -204 3 -201.5 Q-15 -199 -31 -193 L-24 -135 Q-12 -138 -3.5 -139.5 Q5 -141 16 -141 Q34 -141 42 -132 Q50 -123 50 -99 L50 525 L121 525 L121 -99 Z " />
<glyph glyph-name="dotlessj" unicode="&#x237;" horiz-adv-x="168" d="M121 -99 Q121 -154 103.5 -179 Q86 -204 38 -204 Q21 -204 3 -201.5 Q-15 -199 -31 -193 L-24 -135 Q-12 -138 -3.5 -139.5 Q5 -141 16 -141 Q34 -141 42 -132 Q50 -123 50 -99 L50 525 L121 525 L121 -99 Z " />
<glyph glyph-name="jcircumflex" unicode="&#x135;" horiz-adv-x="168" d="M121 -99 Q121 -154 103.5 -179 Q86 -204 38 -204 Q21 -204 3 -201.5 Q-15 -199 -31 -193 L-24 -135 Q-12 -138 -3.5 -139.5 Q5 -141 16 -141 Q34 -141 42 -132 Q50 -123 50 -99 L50 525 L121 525 L121 -99 Z M87 694 L29 581 L-10 598 L59 757 L114 757 L183 598 L145 581 L87 694 Z " />
<glyph glyph-name="k" unicode="k" horiz-adv-x="339" d="M119 320 L159 320 L240 525 L314 525 L217 286 L328 0 L254 0 L158 252 L119 252 L119 0 L47 0 L47 722 L119 722 L119 320 Z " />
<glyph glyph-name="kcommaaccent" unicode="&#x137;" horiz-adv-x="339" d="M119 320 L159 320 L240 525 L314 525 L217 286 L328 0 L254 0 L158 252 L119 252 L119 0 L47 0 L47 722 L119 722 L119 320 Z M220 -70 L169 -231 L123 -219 L158 -56 L220 -70 Z " />
<glyph glyph-name="kgreenlandic" unicode="&#x138;" horiz-adv-x="339" d="M216 286 L328 0 L255 0 L158 252 L118 252 L118 0 L47 0 L47 525 L118 525 L118 320 L158 320 L240 525 L314 525 L216 286 Z " />
<glyph glyph-name="l" unicode="l" horiz-adv-x="166" d="M119 0 L47 0 L47 720 L119 720 L119 0 Z " />
<glyph glyph-name="lacute" unicode="&#x13a;" horiz-adv-x="166" d="M119 0 L47 0 L47 720 L119 720 L119 0 Z M170 845 L29 759 L2 799 L136 895 L170 845 Z " />
<glyph glyph-name="lcaron" unicode="&#x13e;" horiz-adv-x="236" d="M119 0 L47 0 L47 720 L119 720 L119 0 Z M209 532 L160 532 L184 720 L251 720 L209 532 Z " />
<glyph glyph-name="lcommaaccent" unicode="&#x13c;" horiz-adv-x="166" d="M119 0 L47 0 L47 720 L119 720 L119 0 Z M124 -70 L73 -231 L27 -219 L62 -56 L124 -70 Z " />
<glyph glyph-name="ldot" unicode="&#x140;" horiz-adv-x="266" d="M119 0 L47 0 L47 720 L119 720 L119 0 Z M215 406 Q238 406 252 392.5 Q266 379 266 356 Q266 333 252 319 Q238 305 215 305 Q192 305 178.5 319 Q165 333 165 356 Q165 379 179 392.5 Q193 406 215 406 Z " />
<glyph glyph-name="lslash" unicode="&#x142;" horiz-adv-x="192" d="M177 370 L130 346 L130 0 L59 0 L59 310 L14 287 L14 351 L59 375 L59 720 L130 720 L130 409 L177 434 L177 370 Z " />
<glyph glyph-name="m" unicode="m" horiz-adv-x="537" d="M400 537 Q448 537 471.5 501.5 Q495 466 495 381 L495 0 L423 0 L423 372 Q423 422 412 447 Q401 472 374 472 Q363 472 352.5 465.5 Q342 459 333 450 Q324 441 317 431.5 Q310 422 306 415 Q306 407 306.5 398 Q307 389 307 378 L307 0 L236 0 L236 372 Q236 422 225 447 Q214 472 187 472 Q176 472 165.5 465.5 Q155 459 146 450 Q137 441 130 431 Q123 421 119 414 L119 0 L47 0 L47 525 L110 525 L112 473 Q131 500 156.5 518.5 Q182 537 213 537 Q247 537 266.5 520.5 Q286 504 296 472 Q318 501 344.5 519 Q371 537 400 537 Z " />
<glyph glyph-name="n" unicode="n" horiz-adv-x="364" d="M219 537 Q249 537 268.5 525.5 Q288 514 299.5 493 Q311 472 316 443 Q321 414 321 379 L321 0 L250 0 L250 370 Q250 421 237.5 446.5 Q225 472 195 472 Q182 472 170.5 465.5 Q159 459 149 450 Q139 441 131 431 Q123 421 119 414 L119 0 L47 0 L47 525 L112 525 L115 479 Q134 504 160.5 520.5 Q187 537 219 537 Z " />
<glyph glyph-name="nacute" unicode="&#x144;" horiz-adv-x="364" d="M219 537 Q249 537 268.5 525.5 Q288 514 299.5 493 Q311 472 316 443 Q321 414 321 379 L321 0 L250 0 L250 370 Q250 421 237.5 446.5 Q225 472 195 472 Q182 472 170.5 465.5 Q159 459 149 450 Q139 441 131 431 Q123 421 119 414 L119 0 L47 0 L47 525 L112 525 L115 479 Q134 504 160.5 520.5 Q187 537 219 537 Z M265 727 L151 590 L113 618 L215 765 L265 727 Z " />
<glyph glyph-name="napostrophe" unicode="&#x149;" horiz-adv-x="387" d="M37 700 Q66 700 77.5 677 Q89 654 89 627 Q89 589 74.5 557 Q60 525 21 500 L4 528 Q30 545 38.5 566 Q47 587 48 612 Q38 604 27.5 602.5 Q17 601 8 606 Q-1 611 -6.5 622 Q-12 633 -12 648 Q-12 671 1.5 685.5 Q15 700 37 700 Z M242 537 Q272 537 291.5 525.5 Q311 514 322.5 493 Q334 472 339 443 Q344 414 344 379 L344 0 L273 0 L273 370 Q273 421 260.5 446.5 Q248 472 218 472 Q205 472 193.5 465.5 Q182 459 172 450 Q162 441 154 431 Q146 421 142 414 L142 0 L70 0 L70 525 L135 525 L138 479 Q157 504 183.5 520.5 Q210 537 242 537 Z " />
<glyph glyph-name="ncaron" unicode="&#x148;" horiz-adv-x="364" d="M219 537 Q249 537 268.5 525.5 Q288 514 299.5 493 Q311 472 316 443 Q321 414 321 379 L321 0 L250 0 L250 370 Q250 421 237.5 446.5 Q225 472 195 472 Q182 472 170.5 465.5 Q159 459 149 450 Q139 441 131 431 Q123 421 119 414 L119 0 L47 0 L47 525 L112 525 L115 479 Q134 504 160.5 520.5 Q187 537 219 537 Z M276 749 L207 590 L152 590 L83 749 L121 766 L179 652 L238 766 L276 749 Z " />
<glyph glyph-name="ncommaaccent" unicode="&#x146;" horiz-adv-x="364" d="M219 537 Q249 537 268.5 525.5 Q288 514 299.5 493 Q311 472 316 443 Q321 414 321 379 L321 0 L250 0 L250 370 Q250 421 237.5 446.5 Q225 472 195 472 Q182 472 170.5 465.5 Q159 459 149 450 Q139 441 131 431 Q123 421 119 414 L119 0 L47 0 L47 525 L112 525 L115 479 Q134 504 160.5 520.5 Q187 537 219 537 Z M223 -70 L172 -231 L126 -219 L161 -56 L223 -70 Z " />
<glyph glyph-name="eng" unicode="&#x14b;" horiz-adv-x="364" d="M218 537 Q273 537 297 501 Q321 465 321 379 L321 -99 Q321 -153 305.5 -178.5 Q290 -204 247 -204 Q232 -204 216.5 -201.5 Q201 -199 187 -193 L194 -133 Q210 -139 223 -139 Q237 -139 243.5 -130 Q250 -121 250 -96 L250 370 Q250 430 237.5 451 Q225 472 200 472 Q180 472 158 458 Q136 444 119 423 L119 0 L47 0 L47 525 L111 525 L113 479 Q136 505 162.5 521 Q189 537 218 537 Z " />
<glyph glyph-name="ntilde" unicode="&#xf1;" horiz-adv-x="364" d="M219 537 Q249 537 268.5 525.5 Q288 514 299.5 493 Q311 472 316 443 Q321 414 321 379 L321 0 L250 0 L250 370 Q250 421 237.5 446.5 Q225 472 195 472 Q182 472 170.5 465.5 Q159 459 149 450 Q139 441 131 431 Q123 421 119 414 L119 0 L47 0 L47 525 L112 525 L115 479 Q134 504 160.5 520.5 Q187 537 219 537 Z M286 700 Q274 620 228 620 Q215 620 203 625.5 Q191 631 179.5 637 Q168 643 157.5 648.5 Q147 654 138 654 Q127 654 121.5 646.5 Q116 639 111 620 L75 632 Q89 712 134 712 Q147 712 159 706.5 Q171 701 182 695 Q193 689 203.5 683.5 Q214 678 223 678 Q234 678 240 685.5 Q246 693 251 712 L286 700 Z " />
<glyph glyph-name="o" unicode="o" horiz-adv-x="368" d="M184 537 Q222 537 250.5 523.5 Q279 510 298 478.5 Q317 447 326.5 394.5 Q336 342 336 263 Q336 184 326.5 131.5 Q317 79 297.5 47 Q278 15 249.5 1.5 Q221 -12 182 -12 Q144 -12 115.5 1.5 Q87 15 68.5 46.5 Q50 78 41 131 Q32 184 32 262 Q32 341 41.5 393.5 Q51 446 70 478 Q89 510 117.5 523.5 Q146 537 184 537 Z M184 476 Q164 476 149.5 466 Q135 456 125.5 431.5 Q116 407 111 366 Q106 325 106 263 Q106 201 111 160 Q116 119 125.5 94.5 Q135 70 149.5 60 Q164 50 184 50 Q203 50 217.5 60 Q232 70 242 94.5 Q252 119 256.5 160 Q261 201 261 263 Q261 325 256.5 366 Q252 407 242 431.5 Q232 456 217.5 466 Q203 476 184 476 Z " />
<glyph glyph-name="oacute" unicode="&#xf3;" horiz-adv-x="368" d="M184 537 Q222 537 250.5 523.5 Q279 510 298 478.5 Q317 447 326.5 394.5 Q336 342 336 263 Q336 184 326.5 131.5 Q317 79 297.5 47 Q278 15 249.5 1.5 Q221 -12 182 -12 Q144 -12 115.5 1.5 Q87 15 68.5 46.5 Q50 78 41 131 Q32 184 32 262 Q32 341 41.5 393.5 Q51 446 70 478 Q89 510 117.5 523.5 Q146 537 184 537 Z M184 476 Q164 476 149.5 466 Q135 456 125.5 431.5 Q116 407 111 366 Q106 325 106 263 Q106 201 111 160 Q116 119 125.5 94.5 Q135 70 149.5 60 Q164 50 184 50 Q203 50 217.5 60 Q232 70 242 94.5 Q252 119 256.5 160 Q261 201 261 263 Q261 325 256.5 366 Q252 407 242 431.5 Q232 456 217.5 466 Q203 476 184 476 Z M270 727 L156 590 L118 618 L220 765 L270 727 Z " />
<glyph glyph-name="obreve" unicode="&#x14f;" horiz-adv-x="368" d="M184 537 Q222 537 250.5 523.5 Q279 510 298 478.5 Q317 447 326.5 394.5 Q336 342 336 263 Q336 184 326.5 131.5 Q317 79 297.5 47 Q278 15 249.5 1.5 Q221 -12 182 -12 Q144 -12 115.5 1.5 Q87 15 68.5 46.5 Q50 78 41 131 Q32 184 32 262 Q32 341 41.5 393.5 Q51 446 70 478 Q89 510 117.5 523.5 Q146 537 184 537 Z M184 476 Q164 476 149.5 466 Q135 456 125.5 431.5 Q116 407 111 366 Q106 325 106 263 Q106 201 111 160 Q116 119 125.5 94.5 Q135 70 149.5 60 Q164 50 184 50 Q203 50 217.5 60 Q232 70 242 94.5 Q252 119 256.5 160 Q261 201 261 263 Q261 325 256.5 366 Q252 407 242 431.5 Q232 456 217.5 466 Q203 476 184 476 Z M291 754 Q285 673 260.5 635.5 Q236 598 185 598 Q135 598 111 635 Q87 672 81 753 L128 761 Q135 703 146.5 676.5 Q158 650 185 650 Q214 650 226 677 Q238 704 245 761 L291 754 Z " />
<glyph glyph-name="ocircumflex" unicode="&#xf4;" horiz-adv-x="368" d="M184 537 Q222 537 250.5 523.5 Q279 510 298 478.5 Q317 447 326.5 394.5 Q336 342 336 263 Q336 184 326.5 131.5 Q317 79 297.5 47 Q278 15 249.5 1.5 Q221 -12 182 -12 Q144 -12 115.5 1.5 Q87 15 68.5 46.5 Q50 78 41 131 Q32 184 32 262 Q32 341 41.5 393.5 Q51 446 70 478 Q89 510 117.5 523.5 Q146 537 184 537 Z M184 476 Q164 476 149.5 466 Q135 456 125.5 431.5 Q116 407 111 366 Q106 325 106 263 Q106 201 111 160 Q116 119 125.5 94.5 Q135 70 149.5 60 Q164 50 184 50 Q203 50 217.5 60 Q232 70 242 94.5 Q252 119 256.5 160 Q261 201 261 263 Q261 325 256.5 366 Q252 407 242 431.5 Q232 456 217.5 466 Q203 476 184 476 Z M186 694 L128 581 L89 598 L158 757 L213 757 L282 598 L244 581 L186 694 Z " />
<glyph glyph-name="odieresis" unicode="&#xf6;" horiz-adv-x="368" d="M184 537 Q222 537 250.5 523.5 Q279 510 298 478.5 Q317 447 326.5 394.5 Q336 342 336 263 Q336 184 326.5 131.5 Q317 79 297.5 47 Q278 15 249.5 1.5 Q221 -12 182 -12 Q144 -12 115.5 1.5 Q87 15 68.5 46.5 Q50 78 41 131 Q32 184 32 262 Q32 341 41.5 393.5 Q51 446 70 478 Q89 510 117.5 523.5 Q146 537 184 537 Z M184 476 Q164 476 149.5 466 Q135 456 125.5 431.5 Q116 407 111 366 Q106 325 106 263 Q106 201 111 160 Q116 119 125.5 94.5 Q135 70 149.5 60 Q164 50 184 50 Q203 50 217.5 60 Q232 70 242 94.5 Q252 119 256.5 160 Q261 201 261 263 Q261 325 256.5 366 Q252 407 242 431.5 Q232 456 217.5 466 Q203 476 184 476 Z M113 721 Q134 721 146.5 708.5 Q159 696 159 675 Q159 653 146.5 640.5 Q134 628 113 628 Q92 628 78.5 640 Q65 652 65 675 Q65 696 78.5 708.5 Q92 721 113 721 Z M259 721 Q281 721 293.5 708.5 Q306 696 306 675 Q306 653 293.5 640.5 Q281 628 259 628 Q239 628 225.5 640 Q212 652 212 675 Q212 696 225.5 708.5 Q239 721 259 721 Z " />
<glyph glyph-name="ograve" unicode="&#xf2;" horiz-adv-x="368" d="M184 537 Q222 537 250.5 523.5 Q279 510 298 478.5 Q317 447 326.5 394.5 Q336 342 336 263 Q336 184 326.5 131.5 Q317 79 297.5 47 Q278 15 249.5 1.5 Q221 -12 182 -12 Q144 -12 115.5 1.5 Q87 15 68.5 46.5 Q50 78 41 131 Q32 184 32 262 Q32 341 41.5 393.5 Q51 446 70 478 Q89 510 117.5 523.5 Q146 537 184 537 Z M184 476 Q164 476 149.5 466 Q135 456 125.5 431.5 Q116 407 111 366 Q106 325 106 263 Q106 201 111 160 Q116 119 125.5 94.5 Q135 70 149.5 60 Q164 50 184 50 Q203 50 217.5 60 Q232 70 242 94.5 Q252 119 256.5 160 Q261 201 261 263 Q261 325 256.5 366 Q252 407 242 431.5 Q232 456 217.5 466 Q203 476 184 476 Z M256 613 L218 585 L107 717 L157 757 L256 613 Z " />
<glyph glyph-name="ohungarumlaut" unicode="&#x151;" horiz-adv-x="368" d="M184 537 Q222 537 250.5 523.5 Q279 510 298 478.5 Q317 447 326.5 394.5 Q336 342 336 263 Q336 184 326.5 131.5 Q317 79 297.5 47 Q278 15 249.5 1.5 Q221 -12 182 -12 Q144 -12 115.5 1.5 Q87 15 68.5 46.5 Q50 78 41 131 Q32 184 32 262 Q32 341 41.5 393.5 Q51 446 70 478 Q89 510 117.5 523.5 Q146 537 184 537 Z M184 476 Q164 476 149.5 466 Q135 456 125.5 431.5 Q116 407 111 366 Q106 325 106 263 Q106 201 111 160 Q116 119 125.5 94.5 Q135 70 149.5 60 Q164 50 184 50 Q203 50 217.5 60 Q232 70 242 94.5 Q252 119 256.5 160 Q261 201 261 263 Q261 325 256.5 366 Q252 407 242 431.5 Q232 456 217.5 466 Q203 476 184 476 Z M243 720 L137 584 L101 609 L193 754 L243 720 Z M352 719 L248 584 L211 609 L303 753 L352 719 Z " />
<glyph glyph-name="omacron" unicode="&#x14d;" horiz-adv-x="368" d="M184 537 Q222 537 250.5 523.5 Q279 510 298 478.5 Q317 447 326.5 394.5 Q336 342 336 263 Q336 184 326.5 131.5 Q317 79 297.5 47 Q278 15 249.5 1.5 Q221 -12 182 -12 Q144 -12 115.5 1.5 Q87 15 68.5 46.5 Q50 78 41 131 Q32 184 32 262 Q32 341 41.5 393.5 Q51 446 70 478 Q89 510 117.5 523.5 Q146 537 184 537 Z M184 476 Q164 476 149.5 466 Q135 456 125.5 431.5 Q116 407 111 366 Q106 325 106 263 Q106 201 111 160 Q116 119 125.5 94.5 Q135 70 149.5 60 Q164 50 184 50 Q203 50 217.5 60 Q232 70 242 94.5 Q252 119 256.5 160 Q261 201 261 263 Q261 325 256.5 366 Q252 407 242 431.5 Q232 456 217.5 466 Q203 476 184 476 Z M288 637 L83 637 L83 694 L288 694 L288 637 Z " />
<glyph glyph-name="oslash" unicode="&#xf8;" horiz-adv-x="368" d="M268 513 Q302 487 319 428 Q336 369 336 263 Q336 184 326.5 131.5 Q317 79 297.5 47 Q278 15 249.5 1.5 Q221 -12 182 -12 Q163 -12 148 -9 L134 -73 L73 -73 L93 17 Q62 45 47 103 Q32 161 32 262 Q32 341 41.5 393.5 Q51 446 70 478 Q89 510 117.5 523.5 Q146 537 184 537 Q191 537 197.5 536.5 Q204 536 210 535 L223 593 L285 593 L268 513 Z M184 476 Q164 476 149.5 466 Q135 456 125.5 431.5 Q116 407 111 366 Q106 325 106 263 Q106 164 119 116 L195 475 L184 476 Z M184 50 Q203 50 217.5 60 Q232 70 242 94.5 Q252 119 256.5 160 Q261 201 261 263 Q261 320 257.5 358.5 Q254 397 246 423 L166 52 Q171 51 175 50.5 Q179 50 184 50 Z " />
<glyph glyph-name="otilde" unicode="&#xf5;" horiz-adv-x="368" d="M184 537 Q222 537 250.5 523.5 Q279 510 298 478.5 Q317 447 326.5 394.5 Q336 342 336 263 Q336 184 326.5 131.5 Q317 79 297.5 47 Q278 15 249.5 1.5 Q221 -12 182 -12 Q144 -12 115.5 1.5 Q87 15 68.5 46.5 Q50 78 41 131 Q32 184 32 262 Q32 341 41.5 393.5 Q51 446 70 478 Q89 510 117.5 523.5 Q146 537 184 537 Z M184 476 Q164 476 149.5 466 Q135 456 125.5 431.5 Q116 407 111 366 Q106 325 106 263 Q106 201 111 160 Q116 119 125.5 94.5 Q135 70 149.5 60 Q164 50 184 50 Q203 50 217.5 60 Q232 70 242 94.5 Q252 119 256.5 160 Q261 201 261 263 Q261 325 256.5 366 Q252 407 242 431.5 Q232 456 217.5 466 Q203 476 184 476 Z M291 700 Q279 620 233 620 Q220 620 208 625.5 Q196 631 184.5 637 Q173 643 162.5 648.5 Q152 654 143 654 Q132 654 126.5 646.5 Q121 639 116 620 L80 632 Q94 712 139 712 Q152 712 164 706.5 Q176 701 187 695 Q198 689 208.5 683.5 Q219 678 228 678 Q239 678 245 685.5 Q251 693 256 712 L291 700 Z " />
<glyph glyph-name="oe" unicode="&#x153;" horiz-adv-x="562" d="M409 537 Q444 537 468.5 524.5 Q493 512 508.5 485 Q524 458 531 414.5 Q538 371 538 310 Q538 293 537.5 275 Q537 257 537 239 L335 239 Q335 181 340 144.5 Q345 108 355.5 87.5 Q366 67 381.5 59.5 Q397 52 417 52 Q442 52 463.5 61 Q485 70 510 86 L535 33 Q505 12 475 0 Q445 -12 406 -12 Q358 -12 332.5 12 Q307 36 297 73 Q283 31 256 9.5 Q229 -12 183 -12 Q145 -12 116.5 1.5 Q88 15 69 46.5 Q50 78 41 131 Q32 184 32 262 Q32 341 41 393.5 Q50 446 69 478 Q88 510 116.5 523.5 Q145 537 183 537 Q225 537 254 517.5 Q283 498 297 451 Q311 489 336 513 Q361 537 409 537 Z M407 478 Q371 478 353 437.5 Q335 397 335 299 L470 299 Q469 394 457.5 436 Q446 478 407 478 Z M184 476 Q164 476 149.5 466 Q135 456 125.5 431.5 Q116 407 111 366 Q106 325 106 263 Q106 201 111 160 Q116 119 125.5 94.5 Q135 70 149.5 60 Q164 50 184 50 Q203 50 217.5 60 Q232 70 241.5 94.5 Q251 119 256 160 Q261 201 261 263 Q261 326 256 367.5 Q251 409 241 433 Q231 457 216.5 466.5 Q202 476 184 476 Z " />
<glyph glyph-name="p" unicode="p" horiz-adv-x="373" d="M219 537 Q247 537 269 525.5 Q291 514 307 483.5 Q323 453 331.5 400 Q340 347 340 263 Q340 178 331.5 124.5 Q323 71 307 40.5 Q291 10 267 -1 Q243 -12 213 -12 Q181 -12 157 4.5 Q133 21 119 44 L119 -200 L47 -200 L47 525 L112 525 L114 481 Q134 507 160.5 522 Q187 537 219 537 Z M197 472 Q174 472 153.5 456.5 Q133 441 119 418 L119 106 Q130 86 149 69.5 Q168 53 191 53 Q209 53 223 60 Q237 67 246 89 Q255 111 260 152.5 Q265 194 265 262 Q265 328 260 369.5 Q255 411 246 433.5 Q237 456 224.5 464 Q212 472 197 472 Z " />
<glyph glyph-name="thorn" unicode="&#xfe;" horiz-adv-x="373" d="M118 486 Q138 510 164 523.5 Q190 537 219 537 Q247 537 269 525.5 Q291 514 307 483.5 Q323 453 331.5 400 Q340 347 340 263 Q340 178 331.5 124.5 Q323 71 307 40.5 Q291 10 267 -1 Q243 -12 213 -12 Q181 -12 157 4.5 Q133 21 119 44 L119 -200 L47 -200 L47 720 L118 720 L118 486 Z M197 472 Q174 472 153.5 456.5 Q133 441 119 418 L119 105 Q129 85 148.5 69 Q168 53 191 53 Q209 53 223 60 Q237 67 246 89 Q255 111 260 152.5 Q265 194 265 262 Q265 329 260 370 Q255 411 246 433.5 Q237 456 224.5 464 Q212 472 197 472 Z " />
<glyph glyph-name="q" unicode="q" horiz-adv-x="372" d="M159 537 Q188 537 214 522.5 Q240 508 258 482 L260 525 L325 525 L324 -200 L253 -200 L253 39 Q237 16 213 2 Q189 -12 157 -12 Q127 -12 103.5 1 Q80 14 64.5 45.5 Q49 77 40.5 129.5 Q32 182 32 262 Q32 346 41 399.5 Q50 453 66.5 483.5 Q83 514 106.5 525.5 Q130 537 159 537 Z M177 472 Q161 472 148 464 Q135 456 125.5 433.5 Q116 411 111 370 Q106 329 106 263 Q106 198 111 157.5 Q116 117 125.5 93.5 Q135 70 149 61.5 Q163 53 182 53 Q205 53 224.5 70.5 Q244 88 254 106 L254 418 Q243 438 220.5 455 Q198 472 177 472 Z " />
<glyph glyph-name="r" unicode="r" horiz-adv-x="241" d="M201 537 Q223 537 239 529 L231 457 Q224 459 217.5 459.5 Q211 460 205 460 Q174 460 154 437.5 Q134 415 119 380 L119 0 L47 0 L47 525 L110 525 L112 459 Q126 492 149 514.5 Q172 537 201 537 Z " />
<glyph glyph-name="racute" unicode="&#x155;" horiz-adv-x="241" d="M201 537 Q223 537 239 529 L231 457 Q224 459 217.5 459.5 Q211 460 205 460 Q174 460 154 437.5 Q134 415 119 380 L119 0 L47 0 L47 525 L110 525 L112 459 Q126 492 149 514.5 Q172 537 201 537 Z M221 727 L107 590 L69 618 L171 765 L221 727 Z " />
<glyph glyph-name="rcaron" unicode="&#x159;" horiz-adv-x="241" d="M201 537 Q223 537 239 529 L231 457 Q224 459 217.5 459.5 Q211 460 205 460 Q174 460 154 437.5 Q134 415 119 380 L119 0 L47 0 L47 525 L110 525 L112 459 Q126 492 149 514.5 Q172 537 201 537 Z M232 749 L163 590 L108 590 L39 749 L77 766 L135 652 L194 766 L232 749 Z " />
<glyph glyph-name="rcommaaccent" unicode="&#x157;" horiz-adv-x="241" d="M201 537 Q223 537 239 529 L231 457 Q224 459 217.5 459.5 Q211 460 205 460 Q174 460 154 437.5 Q134 415 119 380 L119 0 L47 0 L47 525 L110 525 L112 459 Q126 492 149 514.5 Q172 537 201 537 Z M135 -70 L84 -231 L38 -219 L73 -56 L135 -70 Z " />
<glyph glyph-name="s" unicode="s" horiz-adv-x="296" d="M159 538 Q227 538 272 491 L237 442 Q207 475 166 475 Q140 475 122.5 458.5 Q105 442 105 406 Q105 388 109 374.5 Q113 361 122 349 Q131 337 144 324.5 Q157 312 175 297 Q193 282 209.5 266.5 Q226 251 239 232 Q252 213 259.5 190.5 Q267 168 267 138 Q267 64 232.5 26 Q198 -12 132 -12 Q69 -12 15 39 L49 89 Q66 72 87.5 61.5 Q109 51 131 51 Q161 51 178.5 70.5 Q196 90 196 132 Q196 167 176.5 193.5 Q157 220 126 243 Q107 258 90 274 Q73 290 60.5 309 Q48 328 41 351.5 Q34 375 34 405 Q34 471 69.5 504.5 Q105 538 159 538 Z " />
<glyph glyph-name="sacute" unicode="&#x15b;" horiz-adv-x="296" d="M159 538 Q227 538 272 491 L237 442 Q207 475 166 475 Q140 475 122.5 458.5 Q105 442 105 406 Q105 388 109 374.5 Q113 361 122 349 Q131 337 144 324.5 Q157 312 175 297 Q193 282 209.5 266.5 Q226 251 239 232 Q252 213 259.5 190.5 Q267 168 267 138 Q267 64 232.5 26 Q198 -12 132 -12 Q69 -12 15 39 L49 89 Q66 72 87.5 61.5 Q109 51 131 51 Q161 51 178.5 70.5 Q196 90 196 132 Q196 167 176.5 193.5 Q157 220 126 243 Q107 258 90 274 Q73 290 60.5 309 Q48 328 41 351.5 Q34 375 34 405 Q34 471 69.5 504.5 Q105 538 159 538 Z M247 727 L133 590 L95 618 L197 765 L247 727 Z " />
<glyph glyph-name="scaron" unicode="&#x161;" horiz-adv-x="296" d="M159 538 Q227 538 272 491 L237 442 Q207 475 166 475 Q140 475 122.5 458.5 Q105 442 105 406 Q105 388 109 374.5 Q113 361 122 349 Q131 337 144 324.5 Q157 312 175 297 Q193 282 209.5 266.5 Q226 251 239 232 Q252 213 259.5 190.5 Q267 168 267 138 Q267 64 232.5 26 Q198 -12 132 -12 Q69 -12 15 39 L49 89 Q66 72 87.5 61.5 Q109 51 131 51 Q161 51 178.5 70.5 Q196 90 196 132 Q196 167 176.5 193.5 Q157 220 126 243 Q107 258 90 274 Q73 290 60.5 309 Q48 328 41 351.5 Q34 375 34 405 Q34 471 69.5 504.5 Q105 538 159 538 Z M258 749 L189 590 L134 590 L65 749 L103 766 L161 652 L220 766 L258 749 Z " />
<glyph glyph-name="scedilla" unicode="&#x15f;" horiz-adv-x="296" d="M175 297 Q193 282 209.5 266.5 Q226 251 239 232 Q252 213 259.5 190.5 Q267 168 267 138 Q267 69 237 31 Q207 -7 148 -11 L140 -57 Q164 -60 182 -76.5 Q200 -93 200 -125 Q200 -166 178.5 -187 Q157 -208 124 -208 Q108 -208 91.5 -204 Q75 -200 61 -194 L71 -154 Q82 -158 95 -161 Q108 -164 118 -164 Q150 -164 150 -127 Q150 -109 139.5 -100 Q129 -91 105 -91 L92 -91 L106 -10 Q58 -1 15 39 L49 89 Q66 72 87.5 61.5 Q109 51 131 51 Q161 51 178.5 70.5 Q196 90 196 132 Q196 167 176.5 193.5 Q157 220 126 243 Q107 258 90 274 Q73 290 60.5 309 Q48 328 41 351.5 Q34 375 34 405 Q34 471 69.5 504.5 Q105 538 159 538 Q227 538 272 491 L237 442 Q207 475 166 475 Q140 475 122.5 458.5 Q105 442 105 406 Q105 388 109 374.5 Q113 361 122 349 Q131 337 144 324.5 Q157 312 175 297 Z " />
<glyph glyph-name="scircumflex" unicode="&#x15d;" horiz-adv-x="296" d="M159 538 Q227 538 272 491 L237 442 Q207 475 166 475 Q140 475 122.5 458.5 Q105 442 105 406 Q105 388 109 374.5 Q113 361 122 349 Q131 337 144 324.5 Q157 312 175 297 Q193 282 209.5 266.5 Q226 251 239 232 Q252 213 259.5 190.5 Q267 168 267 138 Q267 64 232.5 26 Q198 -12 132 -12 Q69 -12 15 39 L49 89 Q66 72 87.5 61.5 Q109 51 131 51 Q161 51 178.5 70.5 Q196 90 196 132 Q196 167 176.5 193.5 Q157 220 126 243 Q107 258 90 274 Q73 290 60.5 309 Q48 328 41 351.5 Q34 375 34 405 Q34 471 69.5 504.5 Q105 538 159 538 Z M163 694 L105 581 L66 598 L135 757 L190 757 L259 598 L221 581 L163 694 Z " />
<glyph glyph-name="scommaaccent" unicode="&#x219;" horiz-adv-x="296" d="M159 538 Q227 538 272 491 L237 442 Q207 475 166 475 Q140 475 122.5 458.5 Q105 442 105 406 Q105 388 109 374.5 Q113 361 122 349 Q131 337 144 324.5 Q157 312 175 297 Q193 282 209.5 266.5 Q226 251 239 232 Q252 213 259.5 190.5 Q267 168 267 138 Q267 64 232.5 26 Q198 -12 132 -12 Q69 -12 15 39 L49 89 Q66 72 87.5 61.5 Q109 51 131 51 Q161 51 178.5 70.5 Q196 90 196 132 Q196 167 176.5 193.5 Q157 220 126 243 Q107 258 90 274 Q73 290 60.5 309 Q48 328 41 351.5 Q34 375 34 405 Q34 471 69.5 504.5 Q105 538 159 538 Z M174 -70 L123 -231 L77 -219 L112 -56 L174 -70 Z " />
<glyph glyph-name="germandbls" unicode="&#xdf;" horiz-adv-x="390" d="M198 720 Q274 720 303.5 675 Q333 630 333 551 Q333 485 304.5 438 Q276 391 229 379 Q359 355 359 185 Q359 90 329.5 39 Q300 -12 236 -12 Q217 -12 197 -8 Q177 -4 161 3 L174 63 Q199 52 223 52 Q253 52 268 89.5 Q283 127 283 188 Q283 263 254.5 298.5 Q226 334 175 346 L175 407 Q211 415 236 449.5 Q261 484 261 550 Q261 604 247 632.5 Q233 661 197 661 Q161 661 146 633.5 Q131 606 131 538 L131 0 L60 0 L60 462 L19 462 L19 515 L60 523 L60 546 Q60 639 94 679.5 Q128 720 198 720 Z " />
<glyph glyph-name="longs" unicode="&#x17f;" horiz-adv-x="221" d="M162 732 Q179 732 197 729.5 Q215 727 232 722 L224 665 Q204 671 180 671 Q158 671 148 658 Q138 645 138 611 L138 0 L67 0 L67 466 L19 466 L19 515 L67 523 L67 610 Q67 674 88 703 Q109 732 162 732 Z " />
<glyph glyph-name="t" unicode="t" horiz-adv-x="240" d="M138 525 L227 525 L227 466 L138 466 L138 92 Q138 69 144.5 60.5 Q151 52 173 52 Q187 52 198.5 54.5 Q210 57 221 61 L229 3 Q212 -4 194 -8 Q176 -12 159 -12 Q113 -12 90 10 Q67 32 67 85 L67 466 L19 466 L19 517 L67 524 L73 669 L138 669 L138 525 Z " />
<glyph glyph-name="tbar" unicode="&#x167;" horiz-adv-x="258" d="M238 3 Q221 -4 203 -8 Q185 -12 168 -12 Q122 -12 99 10 Q76 32 76 85 L76 273 L28 273 L28 331 L76 331 L76 466 L28 466 L28 517 L76 524 L82 669 L147 669 L147 525 L236 525 L236 466 L147 466 L147 331 L236 331 L236 273 L147 273 L147 92 Q147 69 153.5 60.5 Q160 52 182 52 Q196 52 207.5 54.5 Q219 57 230 61 L238 3 Z " />
<glyph glyph-name="tcaron" unicode="&#x165;" horiz-adv-x="240" d="M138 525 L227 525 L227 466 L138 466 L138 92 Q138 69 144.5 60.5 Q151 52 173 52 Q187 52 198.5 54.5 Q210 57 221 61 L229 3 Q212 -4 194 -8 Q176 -12 159 -12 Q113 -12 90 10 Q67 32 67 85 L67 466 L19 466 L19 517 L67 524 L73 669 L138 669 L138 525 Z M235 580 L186 580 L210 768 L277 768 L235 580 Z " />
<glyph glyph-name="u" unicode="u" horiz-adv-x="361" d="M314 525 L314 0 L250 0 L248 47 Q228 21 202 4.5 Q176 -12 144 -12 Q114 -12 94.5 -0.5 Q75 11 63.5 31.5 Q52 52 47 81 Q42 110 42 145 L42 525 L114 525 L114 155 Q114 104 126 78.5 Q138 53 168 53 Q180 53 191 59 Q202 65 212 74 Q222 83 229.5 92.5 Q237 102 242 110 L242 525 L314 525 Z " />
<glyph glyph-name="uacute" unicode="&#xfa;" horiz-adv-x="361" d="M314 525 L314 0 L250 0 L248 47 Q228 21 202 4.5 Q176 -12 144 -12 Q114 -12 94.5 -0.5 Q75 11 63.5 31.5 Q52 52 47 81 Q42 110 42 145 L42 525 L114 525 L114 155 Q114 104 126 78.5 Q138 53 168 53 Q180 53 191 59 Q202 65 212 74 Q222 83 229.5 92.5 Q237 102 242 110 L242 525 L314 525 Z M264 727 L150 590 L112 618 L214 765 L264 727 Z " />
<glyph glyph-name="ubreve" unicode="&#x16d;" horiz-adv-x="361" d="M314 525 L314 0 L250 0 L248 47 Q228 21 202 4.5 Q176 -12 144 -12 Q114 -12 94.5 -0.5 Q75 11 63.5 31.5 Q52 52 47 81 Q42 110 42 145 L42 525 L114 525 L114 155 Q114 104 126 78.5 Q138 53 168 53 Q180 53 191 59 Q202 65 212 74 Q222 83 229.5 92.5 Q237 102 242 110 L242 525 L314 525 Z M285 754 Q279 673 254.5 635.5 Q230 598 179 598 Q129 598 105 635 Q81 672 75 753 L122 761 Q129 703 140.5 676.5 Q152 650 179 650 Q208 650 220 677 Q232 704 239 761 L285 754 Z " />
<glyph glyph-name="ucircumflex" unicode="&#xfb;" horiz-adv-x="361" d="M314 525 L314 0 L250 0 L248 47 Q228 21 202 4.5 Q176 -12 144 -12 Q114 -12 94.5 -0.5 Q75 11 63.5 31.5 Q52 52 47 81 Q42 110 42 145 L42 525 L114 525 L114 155 Q114 104 126 78.5 Q138 53 168 53 Q180 53 191 59 Q202 65 212 74 Q222 83 229.5 92.5 Q237 102 242 110 L242 525 L314 525 Z M179 694 L121 581 L82 598 L151 757 L206 757 L275 598 L237 581 L179 694 Z " />
<glyph glyph-name="udieresis" unicode="&#xfc;" horiz-adv-x="361" d="M314 525 L314 0 L250 0 L248 47 Q228 21 202 4.5 Q176 -12 144 -12 Q114 -12 94.5 -0.5 Q75 11 63.5 31.5 Q52 52 47 81 Q42 110 42 145 L42 525 L114 525 L114 155 Q114 104 126 78.5 Q138 53 168 53 Q180 53 191 59 Q202 65 212 74 Q222 83 229.5 92.5 Q237 102 242 110 L242 525 L314 525 Z M107 721 Q128 721 140.5 708.5 Q153 696 153 675 Q153 653 140.5 640.5 Q128 628 107 628 Q86 628 72.5 640 Q59 652 59 675 Q59 696 72.5 708.5 Q86 721 107 721 Z M253 721 Q275 721 287.5 708.5 Q300 696 300 675 Q300 653 287.5 640.5 Q275 628 253 628 Q233 628 219.5 640 Q206 652 206 675 Q206 696 219.5 708.5 Q233 721 253 721 Z " />
<glyph glyph-name="ugrave" unicode="&#xf9;" horiz-adv-x="361" d="M314 525 L314 0 L250 0 L248 47 Q228 21 202 4.5 Q176 -12 144 -12 Q114 -12 94.5 -0.5 Q75 11 63.5 31.5 Q52 52 47 81 Q42 110 42 145 L42 525 L114 525 L114 155 Q114 104 126 78.5 Q138 53 168 53 Q180 53 191 59 Q202 65 212 74 Q222 83 229.5 92.5 Q237 102 242 110 L242 525 L314 525 Z M249 613 L211 585 L100 717 L150 757 L249 613 Z " />
<glyph glyph-name="uhungarumlaut" unicode="&#x171;" horiz-adv-x="361" d="M314 525 L314 0 L250 0 L248 47 Q228 21 202 4.5 Q176 -12 144 -12 Q114 -12 94.5 -0.5 Q75 11 63.5 31.5 Q52 52 47 81 Q42 110 42 145 L42 525 L114 525 L114 155 Q114 104 126 78.5 Q138 53 168 53 Q180 53 191 59 Q202 65 212 74 Q222 83 229.5 92.5 Q237 102 242 110 L242 525 L314 525 Z M236 720 L130 584 L94 609 L186 754 L236 720 Z M345 719 L241 584 L204 609 L296 753 L345 719 Z " />
<glyph glyph-name="umacron" unicode="&#x16b;" horiz-adv-x="361" d="M314 525 L314 0 L250 0 L248 47 Q228 21 202 4.5 Q176 -12 144 -12 Q114 -12 94.5 -0.5 Q75 11 63.5 31.5 Q52 52 47 81 Q42 110 42 145 L42 525 L114 525 L114 155 Q114 104 126 78.5 Q138 53 168 53 Q180 53 191 59 Q202 65 212 74 Q222 83 229.5 92.5 Q237 102 242 110 L242 525 L314 525 Z M283 637 L78 637 L78 694 L283 694 L283 637 Z " />
<glyph glyph-name="uni0163" unicode="&#x163;" horiz-adv-x="240" d="M149 -57 Q173 -60 191 -76.5 Q209 -93 209 -125 Q209 -166 187.5 -187 Q166 -208 133 -208 Q117 -208 100.5 -204 Q84 -200 70 -194 L80 -154 Q91 -158 104 -161 Q117 -164 127 -164 Q159 -164 159 -127 Q159 -109 148.5 -100 Q138 -91 114 -91 L101 -91 L116 -6 Q91 3 79 25 Q67 47 67 85 L67 466 L19 466 L19 517 L67 524 L73 669 L138 669 L138 525 L227 525 L227 466 L138 466 L138 92 Q138 69 144.5 60.5 Q151 52 173 52 Q187 52 198.5 54.5 Q210 57 221 61 L229 3 Q212 -4 194 -8 Q176 -12 159 -12 L157 -12 L149 -57 Z " />
<glyph glyph-name="uni021B" unicode="&#x21b;" horiz-adv-x="240" d="M138 525 L227 525 L227 466 L138 466 L138 92 Q138 69 144.5 60.5 Q151 52 173 52 Q187 52 198.5 54.5 Q210 57 221 61 L229 3 Q212 -4 194 -8 Q176 -12 159 -12 Q113 -12 90 10 Q67 32 67 85 L67 466 L19 466 L19 517 L67 524 L73 669 L138 669 L138 525 Z M183 -70 L132 -231 L86 -219 L121 -56 L183 -70 Z " />
<glyph glyph-name="uogonek" unicode="&#x173;" horiz-adv-x="361" d="M314 0 Q286 -31 268.5 -66 Q251 -101 251 -131 Q251 -150 260 -159 Q269 -168 283 -168 Q302 -168 319 -155 L336 -190 Q319 -204 301 -212.5 Q283 -221 260 -221 Q229 -221 210 -201.5 Q191 -182 191 -146 Q191 -104 210 -68 Q229 -32 255 0 L250 0 L248 47 Q229 21 202.5 4.5 Q176 -12 144 -12 Q114 -12 94.5 -0.5 Q75 11 63.5 31.5 Q52 52 47 81 Q42 110 42 145 L42 525 L114 525 L114 155 Q114 104 126 78.5 Q138 53 168 53 Q180 53 191 59 Q202 65 212 74 Q222 83 229.5 92.5 Q237 102 242 110 L242 525 L314 525 L314 0 Z " />
<glyph glyph-name="uring" unicode="&#x16f;" horiz-adv-x="361" d="M314 525 L314 0 L250 0 L248 47 Q228 21 202 4.5 Q176 -12 144 -12 Q114 -12 94.5 -0.5 Q75 11 63.5 31.5 Q52 52 47 81 Q42 110 42 145 L42 525 L114 525 L114 155 Q114 104 126 78.5 Q138 53 168 53 Q180 53 191 59 Q202 65 212 74 Q222 83 229.5 92.5 Q237 102 242 110 L242 525 L314 525 Z M179 764 Q211 764 232.5 743.5 Q254 723 254 674 Q254 626 232.5 605.5 Q211 585 179 585 Q147 585 125 605.5 Q103 626 103 674 Q103 723 125 743.5 Q147 764 179 764 Z M179 727 Q164 727 156 715 Q148 703 148 674 Q148 645 156 633.5 Q164 622 179 622 Q193 622 201 633.5 Q209 645 209 674 Q209 703 201 715 Q193 727 179 727 Z " />
<glyph glyph-name="utilde" unicode="&#x169;" horiz-adv-x="361" d="M314 525 L314 0 L250 0 L248 47 Q228 21 202 4.5 Q176 -12 144 -12 Q114 -12 94.5 -0.5 Q75 11 63.5 31.5 Q52 52 47 81 Q42 110 42 145 L42 525 L114 525 L114 155 Q114 104 126 78.5 Q138 53 168 53 Q180 53 191 59 Q202 65 212 74 Q222 83 229.5 92.5 Q237 102 242 110 L242 525 L314 525 Z M285 700 Q273 620 227 620 Q214 620 202 625.5 Q190 631 178.5 637 Q167 643 156.5 648.5 Q146 654 137 654 Q126 654 120.5 646.5 Q115 639 110 620 L74 632 Q88 712 133 712 Q146 712 158 706.5 Q170 701 181 695 Q192 689 202.5 683.5 Q213 678 222 678 Q233 678 239 685.5 Q245 693 250 712 L285 700 Z " />
<glyph glyph-name="v" unicode="v" horiz-adv-x="336" d="M208 0 L123 0 L13 525 L88 525 L165 82 L167 82 L250 525 L323 525 L208 0 Z " />
<glyph glyph-name="w" unicode="w" horiz-adv-x="487" d="M474 525 L391 0 L311 0 L242 417 L175 0 L95 0 L14 525 L86 525 L139 80 L203 521 L284 521 L350 83 L402 525 L474 525 Z " />
<glyph glyph-name="wacute" unicode="&#x1e83;" horiz-adv-x="487" d="M474 525 L391 0 L311 0 L242 417 L175 0 L95 0 L14 525 L86 525 L139 80 L203 521 L284 521 L350 83 L402 525 L474 525 Z M325 727 L211 590 L173 618 L275 765 L325 727 Z " />
<glyph glyph-name="wcircumflex" unicode="&#x175;" horiz-adv-x="487" d="M474 525 L391 0 L311 0 L242 417 L175 0 L95 0 L14 525 L86 525 L139 80 L203 521 L284 521 L350 83 L402 525 L474 525 Z M241 694 L183 581 L144 598 L213 757 L268 757 L337 598 L299 581 L241 694 Z " />
<glyph glyph-name="wdieresis" unicode="&#x1e85;" horiz-adv-x="487" d="M474 525 L391 0 L311 0 L242 417 L175 0 L95 0 L14 525 L86 525 L139 80 L203 521 L284 521 L350 83 L402 525 L474 525 Z M168 721 Q189 721 201.5 708.5 Q214 696 214 675 Q214 653 201.5 640.5 Q189 628 168 628 Q147 628 133.5 640 Q120 652 120 675 Q120 696 133.5 708.5 Q147 721 168 721 Z M314 721 Q336 721 348.5 708.5 Q361 696 361 675 Q361 653 348.5 640.5 Q336 628 314 628 Q294 628 280.5 640 Q267 652 267 675 Q267 696 280.5 708.5 Q294 721 314 721 Z " />
<glyph glyph-name="wgrave" unicode="&#x1e81;" horiz-adv-x="487" d="M474 525 L391 0 L311 0 L242 417 L175 0 L95 0 L14 525 L86 525 L139 80 L203 521 L284 521 L350 83 L402 525 L474 525 Z M311 613 L273 585 L162 717 L212 757 L311 613 Z " />
<glyph glyph-name="x" unicode="x" horiz-adv-x="336" d="M207 268 L323 0 L245 0 L162 212 L88 0 L13 0 L120 268 L15 525 L91 525 L165 322 L241 525 L316 525 L207 268 Z " />
<glyph glyph-name="y" unicode="y" horiz-adv-x="332" d="M318 525 L196 -27 Q186 -72 177 -105.5 Q168 -139 156 -160.5 Q144 -182 127.5 -192.5 Q111 -203 86 -203 Q64 -203 46.5 -199.5 Q29 -196 13 -190 L28 -132 Q36 -135 45.5 -137 Q55 -139 69 -139 Q78 -139 85.5 -135.5 Q93 -132 100 -122 Q107 -112 112.5 -94.5 Q118 -77 124 -49 L129 -30 L11 525 L89 525 L164 83 L245 525 L318 525 Z " />
<glyph glyph-name="yacute" unicode="&#xfd;" horiz-adv-x="332" d="M318 525 L196 -27 Q186 -72 177 -105.5 Q168 -139 156 -160.5 Q144 -182 127.5 -192.5 Q111 -203 86 -203 Q64 -203 46.5 -199.5 Q29 -196 13 -190 L28 -132 Q36 -135 45.5 -137 Q55 -139 69 -139 Q78 -139 85.5 -135.5 Q93 -132 100 -122 Q107 -112 112.5 -94.5 Q118 -77 124 -49 L129 -30 L11 525 L89 525 L164 83 L245 525 L318 525 Z M252 727 L138 590 L100 618 L202 765 L252 727 Z " />
<glyph glyph-name="ycircumflex" unicode="&#x177;" horiz-adv-x="332" d="M318 525 L196 -27 Q186 -72 177 -105.5 Q168 -139 156 -160.5 Q144 -182 127.5 -192.5 Q111 -203 86 -203 Q64 -203 46.5 -199.5 Q29 -196 13 -190 L28 -132 Q36 -135 45.5 -137 Q55 -139 69 -139 Q78 -139 85.5 -135.5 Q93 -132 100 -122 Q107 -112 112.5 -94.5 Q118 -77 124 -49 L129 -30 L11 525 L89 525 L164 83 L245 525 L318 525 Z M168 694 L110 581 L71 598 L140 757 L195 757 L264 598 L226 581 L168 694 Z " />
<glyph glyph-name="ydieresis" unicode="&#xff;" horiz-adv-x="332" d="M318 525 L196 -27 Q186 -72 177 -105.5 Q168 -139 156 -160.5 Q144 -182 127.5 -192.5 Q111 -203 86 -203 Q64 -203 46.5 -199.5 Q29 -196 13 -190 L28 -132 Q36 -135 45.5 -137 Q55 -139 69 -139 Q78 -139 85.5 -135.5 Q93 -132 100 -122 Q107 -112 112.5 -94.5 Q118 -77 124 -49 L129 -30 L11 525 L89 525 L164 83 L245 525 L318 525 Z M96 721 Q117 721 129.5 708.5 Q142 696 142 675 Q142 653 129.5 640.5 Q117 628 96 628 Q75 628 61.5 640 Q48 652 48 675 Q48 696 61.5 708.5 Q75 721 96 721 Z M242 721 Q264 721 276.5 708.5 Q289 696 289 675 Q289 653 276.5 640.5 Q264 628 242 628 Q222 628 208.5 640 Q195 652 195 675 Q195 696 208.5 708.5 Q222 721 242 721 Z " />
<glyph glyph-name="ygrave" unicode="&#x1ef3;" horiz-adv-x="332" d="M318 525 L196 -27 Q186 -72 177 -105.5 Q168 -139 156 -160.5 Q144 -182 127.5 -192.5 Q111 -203 86 -203 Q64 -203 46.5 -199.5 Q29 -196 13 -190 L28 -132 Q36 -135 45.5 -137 Q55 -139 69 -139 Q78 -139 85.5 -135.5 Q93 -132 100 -122 Q107 -112 112.5 -94.5 Q118 -77 124 -49 L129 -30 L11 525 L89 525 L164 83 L245 525 L318 525 Z M238 613 L200 585 L89 717 L139 757 L238 613 Z " />
<glyph glyph-name="z" unicode="z" horiz-adv-x="285" d="M267 484 L101 63 L266 63 L266 0 L21 0 L21 54 L182 462 L25 462 L25 525 L267 525 L267 484 Z " />
<glyph glyph-name="zacute" unicode="&#x17a;" horiz-adv-x="285" d="M267 484 L101 63 L266 63 L266 0 L21 0 L21 54 L182 462 L25 462 L25 525 L267 525 L267 484 Z M231 727 L117 590 L79 618 L181 765 L231 727 Z " />
<glyph glyph-name="zcaron" unicode="&#x17e;" horiz-adv-x="285" d="M267 484 L101 63 L266 63 L266 0 L21 0 L21 54 L182 462 L25 462 L25 525 L267 525 L267 484 Z M242 749 L173 590 L118 590 L49 749 L87 766 L145 652 L204 766 L242 749 Z " />
<glyph glyph-name="zdotaccent" unicode="&#x17c;" horiz-adv-x="285" d="M267 484 L101 63 L266 63 L266 0 L21 0 L21 54 L182 462 L25 462 L25 525 L267 525 L267 484 Z M149 716 Q170 716 184 703.5 Q198 691 198 669 Q198 647 184 634.5 Q170 622 149 622 Q128 622 113.5 634.5 Q99 647 99 669 Q99 691 113.5 703.5 Q128 716 149 716 Z " />
<glyph glyph-name="ordfeminine" unicode="&#xaa;" horiz-adv-x="298" d="M152 656 Q199 656 220 629.5 Q241 603 241 544 L241 262 L196 262 L194 325 Q183 288 162.5 270.5 Q142 253 116 253 Q83 253 61 280 Q39 307 39 364 Q39 385 43.5 406.5 Q48 428 60 445.5 Q72 463 93 474.5 Q114 486 148 486 Q158 486 168 485 Q178 484 187 482 L187 536 Q187 571 178 588.5 Q169 606 148 606 Q127 606 109 598 Q91 590 72 576 L51 614 Q74 632 100 644 Q126 656 152 656 Z M159 448 Q124 448 108.5 426 Q93 404 93 363 Q93 328 102.5 313 Q112 298 129 298 Q152 298 169.5 327.5 Q187 357 187 406 L187 444 Q182 446 173.5 447 Q165 448 159 448 Z " />
<glyph glyph-name="ordmasculine" unicode="&#xba;" horiz-adv-x="303" d="M151 655 Q180 655 201.5 645.5 Q223 636 237 613 Q251 590 258 551.5 Q265 513 265 455 Q265 397 258 358.5 Q251 320 236.5 296.5 Q222 273 200.5 263.5 Q179 254 150 254 Q121 254 100 263.5 Q79 273 65 296.5 Q51 320 44.5 358.5 Q38 397 38 454 Q38 512 45 550.5 Q52 589 66 612.5 Q80 636 101 645.5 Q122 655 151 655 Z M151 609 Q137 609 126.5 602 Q116 595 109 577 Q102 559 98.5 529.5 Q95 500 95 455 Q95 410 98.5 380 Q102 350 109 332.5 Q116 315 126.5 307.5 Q137 300 151 300 Q165 300 175.5 307.5 Q186 315 193.5 332.5 Q201 350 204.5 380 Q208 410 208 455 Q208 500 204.5 529.5 Q201 559 193.5 577 Q186 595 175.5 602 Q165 609 151 609 Z " />
<glyph glyph-name="Delta" unicode="&#x2206;" horiz-adv-x="437" d="M422 0 L16 0 L176 720 L261 720 L422 0 Z M106 65 L330 65 L218 624 L106 65 Z " />
<glyph glyph-name="uni0394" unicode="&#x394;" horiz-adv-x="437" d="M422 0 L16 0 L176 720 L261 720 L422 0 Z M106 65 L330 65 L218 624 L106 65 Z " />
<glyph glyph-name="Omega" unicode="&#x2126;" horiz-adv-x="523" d="M262 733 Q313 733 350.5 717 Q388 701 413.5 663 Q439 625 451.5 561 Q464 497 464 401 Q464 337 457.5 287.5 Q451 238 438.5 200 Q426 162 406 135.5 Q386 109 359 91 L359 71 L471 71 L471 0 L300 0 L300 103 Q345 125 365.5 196 Q386 267 386 383 Q386 461 378.5 514.5 Q371 568 355.5 601 Q340 634 316.5 648.5 Q293 663 262 663 Q231 663 207.5 648.5 Q184 634 168.5 601 Q153 568 145 514.5 Q137 461 137 383 Q137 267 157.5 196 Q178 125 223 103 L223 0 L50 0 L50 71 L163 71 L162 91 Q109 127 84.5 200.5 Q60 274 60 400 Q60 496 72.5 560 Q85 624 110 662.5 Q135 701 173 717 Q211 733 262 733 Z " />
<glyph glyph-name="uni03A9" unicode="&#x3a9;" horiz-adv-x="523" d="M262 733 Q313 733 350.5 717 Q388 701 413.5 663 Q439 625 451.5 561 Q464 497 464 401 Q464 337 457.5 287.5 Q451 238 438.5 200 Q426 162 406 135.5 Q386 109 359 91 L359 71 L471 71 L471 0 L300 0 L300 103 Q345 125 365.5 196 Q386 267 386 383 Q386 461 378.5 514.5 Q371 568 355.5 601 Q340 634 316.5 648.5 Q293 663 262 663 Q231 663 207.5 648.5 Q184 634 168.5 601 Q153 568 145 514.5 Q137 461 137 383 Q137 267 157.5 196 Q178 125 223 103 L223 0 L50 0 L50 71 L163 71 L162 91 Q109 127 84.5 200.5 Q60 274 60 400 Q60 496 72.5 560 Q85 624 110 662.5 Q135 701 173 717 Q211 733 262 733 Z " />
<glyph glyph-name="uni03BC" unicode="&#x3bc;" horiz-adv-x="369" d="M321 0 L255 0 L253 51 Q249 25 227.5 7 Q206 -11 177 -11 Q156 -11 140.5 -1.5 Q125 8 120 21 L120 -200 L48 -200 L48 525 L120 525 L120 146 Q120 108 133 79.5 Q146 51 179 51 Q210 51 228.5 73 Q247 95 249 129 L249 525 L321 525 L321 0 Z " />
<glyph glyph-name="mu" unicode="&#xb5;" horiz-adv-x="369" d="M321 0 L255 0 L253 51 Q249 25 227.5 7 Q206 -11 177 -11 Q156 -11 140.5 -1.5 Q125 8 120 21 L120 -200 L48 -200 L48 525 L120 525 L120 146 Q120 108 133 79.5 Q146 51 179 51 Q210 51 228.5 73 Q247 95 249 129 L249 525 L321 525 L321 0 Z " />
<glyph glyph-name="pi" unicode="&#x3c0;" horiz-adv-x="445" d="M419 463 L370 463 L370 0 L297 0 L297 463 L150 463 L150 0 L77 0 L77 463 L26 463 L26 525 L419 525 L419 463 Z " />
<glyph glyph-name="zero" unicode="0" horiz-adv-x="416" d="M213 717 Q254 717 284.5 701 Q315 685 335 644.5 Q355 604 365 535 Q375 466 375 361 Q375 243 364 170 Q353 97 332 56.5 Q311 16 280.5 2 Q250 -12 210 -12 Q169 -12 138 2 Q107 16 85 56.5 Q63 97 52 170 Q41 243 41 360 Q41 466 51.5 535 Q62 604 83.5 644.5 Q105 685 137.5 701 Q170 717 213 717 Z M210 651 Q185 651 167 639 Q149 627 137.5 594.5 Q126 562 120.5 505.5 Q115 449 115 360 Q115 260 121 199.5 Q127 139 138.5 106.5 Q150 74 168 63.5 Q186 53 210 53 Q233 53 250.5 63.5 Q268 74 279.5 106.5 Q291 139 296.5 199.5 Q302 260 302 360 Q302 449 297 505.5 Q292 562 281 594.5 Q270 627 252.5 639 Q235 651 210 651 Z " />
<glyph glyph-name="one" unicode="1" horiz-adv-x="354" d="M237 60 L343 60 L343 0 L47 0 L47 60 L164 60 L164 597 Q109 550 40 529 L26 586 Q74 606 111 634.5 Q148 663 183 706 L237 706 L237 60 Z " />
<glyph glyph-name="two" unicode="2" horiz-adv-x="366" d="M180 716 Q246 716 285 679 Q324 642 324 567 Q324 545 321 524 Q318 503 311.5 481 Q305 459 294.5 434 Q284 409 269 379 L116 65 L329 65 L329 0 L35 0 L35 52 L201 396 Q224 443 237 482.5 Q250 522 250 561 Q250 608 227 628.5 Q204 649 168 649 Q139 649 111 632 Q83 615 53 584 L17 633 Q49 668 89 692 Q129 716 180 716 Z " />
<glyph glyph-name="three" unicode="3" horiz-adv-x="369" d="M164 717 Q235 717 272 675.5 Q309 634 309 543 Q309 472 279.5 429 Q250 386 195 370 Q269 356 304 308.5 Q339 261 339 185 Q339 93 292.5 40 Q246 -13 163 -13 Q121 -13 85 1 Q49 15 14 45 L50 100 Q77 78 103.5 66.5 Q130 55 159 55 Q207 55 234.5 91.5 Q262 128 262 189 Q262 252 227.5 290 Q193 328 136 328 Q125 328 115.5 327.5 Q106 327 92 326 L90 393 Q158 395 197.5 431.5 Q237 468 237 534 Q237 591 215.5 620 Q194 649 155 649 Q129 649 102.5 635.5 Q76 622 51 599 L17 649 Q45 678 82.5 697.5 Q120 717 164 717 Z " />
<glyph glyph-name="four" unicode="4" horiz-adv-x="382" d="M301 222 L363 222 L363 160 L301 160 L301 0 L232 0 L232 160 L19 160 L19 216 L205 706 L301 706 L301 222 Z M230 622 L86 222 L232 222 L232 622 L230 622 Z " />
<glyph glyph-name="five" unicode="5" horiz-adv-x="364" d="M299 634 L123 634 L112 404 Q126 419 149 428.5 Q172 438 201 438 Q264 438 299 389.5 Q334 341 334 231 Q334 164 321.5 118 Q309 72 287 43 Q265 14 236 1 Q207 -12 173 -12 Q135 -12 100 0.5 Q65 13 30 41 L63 96 Q90 75 113.5 65 Q137 55 166 55 Q185 55 201.5 63 Q218 71 231 90 Q244 109 251.5 141.5 Q259 174 259 223 Q259 304 240 338.5 Q221 373 183 373 Q161 373 142 364 Q123 355 108 339 L105 298 L43 298 L62 706 L304 706 L299 634 Z " />
<glyph glyph-name="six" unicode="6" horiz-adv-x="377" d="M220 717 Q250 717 277.5 706 Q305 695 332 674 L302 618 Q268 649 225 649 Q194 649 173 630.5 Q152 612 138.5 578.5 Q125 545 118.5 497.5 Q112 450 110 392 Q129 413 156 426 Q183 439 210 439 Q283 439 315.5 387 Q348 335 348 221 Q348 155 336.5 110 Q325 65 304.5 38 Q284 11 255 -0.5 Q226 -12 191 -12 Q145 -12 116 6.5 Q87 25 70 64 Q53 103 46.5 163.5 Q40 224 40 308 Q40 407 49 483.5 Q58 560 79 612 Q100 664 134.5 690.5 Q169 717 220 717 Z M197 374 Q172 374 149.5 361.5 Q127 349 110 332 Q110 246 114.5 191.5 Q119 137 129 105.5 Q139 74 154.5 62.5 Q170 51 191 51 Q210 51 226 58 Q242 65 252.5 83.5 Q263 102 269 133.5 Q275 165 275 215 Q275 262 271 292.5 Q267 323 257.5 341 Q248 359 233 366.5 Q218 374 197 374 Z " />
<glyph glyph-name="seven" unicode="7" horiz-adv-x="339" d="M328 657 L148 0 L75 0 L75 10 L248 636 L14 636 L14 706 L328 706 L328 657 Z " />
<glyph glyph-name="eight" unicode="8" horiz-adv-x="386" d="M195 717 Q267 717 305.5 675 Q344 633 344 561 Q344 497 316.5 454.5 Q289 412 250 382 Q304 342 330.5 294.5 Q357 247 357 180 Q357 142 346.5 107 Q336 72 315 45.5 Q294 19 262.5 3.5 Q231 -12 190 -12 Q148 -12 117.5 2 Q87 16 67 40 Q47 64 37 95.5 Q27 127 27 162 Q27 233 53.5 282.5 Q80 332 134 374 Q92 406 66 446 Q40 486 40 546 Q40 624 80 670.5 Q120 717 195 717 Z M194 655 Q153 655 132.5 627.5 Q112 600 112 548 Q112 526 117 508.5 Q122 491 132.5 476 Q143 461 159.5 446.5 Q176 432 200 416 Q234 446 253.5 478.5 Q273 511 273 561 Q273 606 253.5 630.5 Q234 655 194 655 Z M180 339 Q138 305 118.5 262.5 Q99 220 99 165 Q99 108 124.5 78.5 Q150 49 189 49 Q231 49 255 80 Q279 111 279 175 Q279 230 254.5 268.5 Q230 307 180 339 Z " />
<glyph glyph-name="nine" unicode="9" horiz-adv-x="377" d="M157 -12 Q127 -12 99.5 -1 Q72 10 45 31 L75 87 Q109 56 152 56 Q183 56 204 74.5 Q225 93 238.5 126.5 Q252 160 258.5 207.5 Q265 255 267 313 Q248 292 221 279 Q194 266 167 266 Q93 266 61 318 Q29 370 29 484 Q29 550 40.5 595 Q52 640 72.5 667 Q93 694 122 705.5 Q151 717 186 717 Q232 717 261 698.5 Q290 680 307 641 Q324 602 330.5 541.5 Q337 481 337 397 Q337 298 328 221.5 Q319 145 298 93 Q277 41 242.5 14.5 Q208 -12 157 -12 Z M180 331 Q205 331 227.5 343.5 Q250 356 267 373 Q267 459 262.5 513.5 Q258 568 248 599.5 Q238 631 222.5 642.5 Q207 654 186 654 Q166 654 150.5 647 Q135 640 124.5 621.5 Q114 603 108 571 Q102 539 102 490 Q102 443 106 412.5 Q110 382 119.5 364 Q129 346 144 338.5 Q159 331 180 331 Z " />
<glyph glyph-name="fraction" unicode="&#x2044;" horiz-adv-x="102" d="M-56 0 L-113 0 L157 720 L214 720 L-56 0 Z " />
<glyph glyph-name="onehalf" unicode="&#xbd;" horiz-adv-x="606" d="M167 350 L110 350 L110 651 Q94 640 81 634.5 Q68 629 48 624 L40 664 Q66 674 85.5 687.5 Q105 701 122 721 L167 721 L167 350 Z M164 0 L107 0 L378 720 L435 720 L164 0 Z M453 379 Q490 379 513 361.5 Q536 344 538 302 Q538 275 529.5 249 Q521 223 505 191 L431 44 L542 44 L542 0 L368 0 L368 35 L449 199 Q460 219 470 244.5 Q480 270 480 291 Q480 314 470 323.5 Q460 333 443 333 Q428 333 412.5 324 Q397 315 383 301 L358 336 Q376 355 400 367 Q424 379 453 379 Z " />
<glyph glyph-name="onethird" unicode="&#x2153;" horiz-adv-x="606" d="M163 350 L107 350 L107 651 Q91 640 78 634.5 Q65 629 45 624 L37 664 Q63 674 82.5 687.5 Q102 701 119 721 L163 721 L163 350 Z M166 0 L109 0 L380 720 L437 720 L166 0 Z M464 378 Q502 378 523.5 357 Q545 336 545 286 Q545 250 528.5 226.5 Q512 203 482 194 Q524 186 541 160 Q558 134 558 97 Q558 49 533.5 20 Q509 -9 461 -9 Q437 -9 416.5 -1.5 Q396 6 375 21 L397 58 Q426 37 452 37 Q473 37 486 52 Q499 67 499 101 Q499 136 483 151.5 Q467 167 440 167 L418 167 L418 209 Q453 209 471.5 228.5 Q490 248 490 278 Q490 309 479.5 320.5 Q469 332 452 332 Q428 332 400 309 L378 343 Q397 360 417.5 369 Q438 378 464 378 Z " />
<glyph glyph-name="twothirds" unicode="&#x2154;" horiz-adv-x="606" d="M135 729 Q172 729 195 711.5 Q218 694 220 652 Q220 625 211.5 599 Q203 573 187 541 L113 394 L224 394 L224 350 L50 350 L50 385 L131 549 Q142 569 152 594.5 Q162 620 162 641 Q162 664 152 673.5 Q142 683 125 683 Q110 683 94.5 674 Q79 665 65 651 L40 686 Q58 705 82 717 Q106 729 135 729 Z M194 0 L137 0 L408 720 L465 720 L194 0 Z M479 378 Q517 378 538.5 357 Q560 336 560 286 Q560 250 543 226.5 Q526 203 497 194 Q539 186 556 160 Q573 134 573 97 Q573 49 548.5 20 Q524 -9 476 -9 Q430 -9 390 21 L411 58 Q425 48 439 42.5 Q453 37 467 37 Q487 37 500.5 52 Q514 67 514 101 Q514 136 498 151.5 Q482 167 454 167 L433 167 L432 209 Q468 209 486.5 228.5 Q505 248 505 278 Q505 309 494.5 320.5 Q484 332 467 332 Q443 332 415 309 L393 343 Q430 378 479 378 Z " />
<glyph glyph-name="onequarter" unicode="&#xbc;" horiz-adv-x="606" d="M168 350 L112 350 L112 651 Q95 640 82.5 634.5 Q70 629 50 624 L41 664 Q67 674 86.5 687.5 Q106 701 124 721 L168 721 L168 350 Z M170 0 L113 0 L383 720 L440 720 L170 0 Z M505 122 L540 122 L540 81 L505 81 L505 1 L451 1 L451 81 L335 81 L335 119 L432 371 L505 371 L505 122 Z M450 312 L385 122 L451 122 L452 312 L450 312 Z " />
<glyph glyph-name="threequarters" unicode="&#xbe;" horiz-adv-x="606" d="M147 728 Q185 728 206.5 707 Q228 686 228 636 Q228 600 211 576.5 Q194 553 165 544 Q207 536 224 510 Q241 484 241 447 Q241 399 216.5 370 Q192 341 144 341 Q98 341 58 371 L79 408 Q93 398 107 392.5 Q121 387 135 387 Q155 387 168.5 402 Q182 417 182 451 Q182 486 166 501.5 Q150 517 122 517 L101 517 L100 559 Q136 559 154.5 578.5 Q173 598 173 628 Q173 659 162.5 670.5 Q152 682 135 682 Q111 682 83 659 L61 693 Q98 728 147 728 Z M216 0 L159 0 L429 720 L486 720 L216 0 Z M544 122 L579 122 L579 81 L544 81 L544 1 L490 1 L490 81 L374 81 L374 119 L471 371 L544 371 L544 122 Z M489 312 L424 122 L490 122 L491 312 L489 312 Z " />
<glyph glyph-name="onefifth" unicode="&#xf500;" horiz-adv-x="606" d="M165 350 L108 350 L108 651 Q92 640 79 634.5 Q66 629 46 624 L38 664 Q64 674 83.5 687.5 Q103 701 120 721 L165 721 L165 350 Z M163 0 L106 0 L377 720 L434 720 L163 0 Z M532 322 L435 322 L429 214 Q437 221 449 225.5 Q461 230 476 230 Q552 230 552 120 Q552 52 523.5 21 Q495 -10 455 -10 Q411 -10 369 17 L387 55 Q403 46 417 41 Q431 36 445 36 Q465 36 480 53 Q495 70 495 117 Q495 155 486.5 171.5 Q478 188 461 188 Q440 188 426 172 L424 152 L377 152 L389 371 L536 371 L532 322 Z " />
<glyph glyph-name="twofifths" unicode="&#xf501;" horiz-adv-x="606" d="M134 729 Q171 729 194 711.5 Q217 694 219 652 Q219 625 210.5 599 Q202 573 186 541 L112 394 L223 394 L223 350 L49 350 L49 385 L130 549 Q141 569 151 594.5 Q161 620 161 641 Q161 664 151 673.5 Q141 683 124 683 Q109 683 93.5 674 Q78 665 64 651 L39 686 Q57 705 81 717 Q105 729 134 729 Z M202 0 L145 0 L415 720 L472 720 L202 0 Z M557 322 L459 322 L454 214 Q462 221 473.5 225.5 Q485 230 501 230 Q577 230 577 120 Q577 52 548.5 21 Q520 -10 480 -10 Q436 -10 394 17 L412 55 Q428 46 441.5 41 Q455 36 470 36 Q490 36 505 53 Q520 70 520 117 Q520 155 511.5 171.5 Q503 188 486 188 Q465 188 451 172 L449 152 L402 152 L414 371 L560 371 L557 322 Z " />
<glyph glyph-name="threefifths" unicode="&#xf502;" horiz-adv-x="606" d="M147 728 Q185 728 207 707 Q229 686 229 636 Q229 600 212 576.5 Q195 553 166 544 Q207 536 224 510 Q241 484 241 447 Q241 399 216.5 370 Q192 341 144 341 Q120 341 99.5 348.5 Q79 356 59 371 L80 408 Q94 398 107.5 392.5 Q121 387 136 387 Q156 387 169 402 Q182 417 182 451 Q182 486 166 501.5 Q150 517 123 517 L102 517 L101 559 Q136 559 154.5 578.5 Q173 598 173 628 Q173 659 162.5 670.5 Q152 682 136 682 Q122 682 109.5 676 Q97 670 83 659 L61 693 Q99 728 147 728 Z M199 0 L142 0 L413 720 L470 720 L199 0 Z M548 322 L450 322 L444 214 Q453 221 464.5 225.5 Q476 230 492 230 Q568 230 568 120 Q568 52 539.5 21 Q511 -10 471 -10 Q427 -10 385 17 L403 55 Q419 46 432.5 41 Q446 36 461 36 Q481 36 496 53 Q511 70 511 117 Q511 155 502.5 171.5 Q494 188 477 188 Q456 188 442 172 L440 152 L393 152 L405 371 L551 371 L548 322 Z " />
<glyph glyph-name="fourfifths" unicode="&#xf503;" horiz-adv-x="606" d="M200 472 L235 472 L235 431 L200 431 L200 351 L146 351 L146 431 L30 431 L30 469 L127 721 L200 721 L200 472 Z M202 0 L145 0 L415 720 L472 720 L202 0 Z M145 662 L80 472 L146 472 L147 662 L145 662 Z M549 322 L452 322 L446 214 Q454 221 466 225.5 Q478 230 493 230 Q570 230 570 120 Q570 86 562.5 61.5 Q555 37 541.5 21 Q528 5 510 -2.5 Q492 -10 472 -10 Q428 -10 386 17 L404 55 Q420 46 434 41 Q448 36 462 36 Q483 36 497.5 53 Q512 70 512 117 Q512 155 503.5 171.5 Q495 188 478 188 Q457 188 443 172 L441 152 L394 152 L406 371 L553 371 L549 322 Z " />
<glyph glyph-name="onesixth" unicode="&#xf504;" horiz-adv-x="606" d="M166 350 L110 350 L110 651 Q93 640 80.5 634.5 Q68 629 48 624 L39 664 Q65 674 84.5 687.5 Q104 701 122 721 L166 721 L166 350 Z M174 0 L117 0 L387 720 L444 720 L174 0 Z M463 378 Q497 378 530 356 L514 316 Q493 331 471 331 Q415 331 412 209 Q421 219 435.5 225 Q450 231 466 231 Q508 231 525.5 203 Q543 175 543 118 Q543 46 518 18.5 Q493 -9 450 -9 Q423 -9 404.5 -0.5 Q386 8 375.5 28.5 Q365 49 360.5 82 Q356 115 356 164 Q356 273 381 325.5 Q406 378 463 378 Z M453 189 Q440 189 430 183.5 Q420 178 412 170 Q412 128 414 101.5 Q416 75 420.5 60 Q425 45 432.5 39 Q440 33 450 33 Q467 33 477 49 Q487 65 487 114 Q487 157 479 173 Q471 189 453 189 Z " />
<glyph glyph-name="fivesixths" unicode="&#xf505;" horiz-adv-x="606" d="M205 672 L108 672 L102 564 Q110 571 122 575.5 Q134 580 149 580 Q225 580 225 470 Q225 402 196.5 371 Q168 340 128 340 Q84 340 42 367 L60 405 Q76 396 90 391 Q104 386 118 386 Q138 386 153 403 Q168 420 168 467 Q168 505 159.5 521.5 Q151 538 134 538 Q113 538 99 522 L97 502 L50 502 L62 721 L209 721 L205 672 Z M187 0 L130 0 L401 720 L458 720 L187 0 Z M467 378 Q503 378 534 356 L518 316 Q497 331 475 331 Q419 331 416 209 Q426 219 440.5 225 Q455 231 470 231 Q512 231 529.5 203 Q547 175 547 118 Q547 46 522 18.5 Q497 -9 454 -9 Q427 -9 408.5 -0.5 Q390 8 379.5 28.5 Q369 49 364.5 82 Q360 115 360 164 Q360 273 385 325.5 Q410 378 467 378 Z M457 189 Q444 189 434 183.5 Q424 178 416 170 Q416 128 418.5 101.5 Q421 75 425.5 60 Q430 45 437 39 Q444 33 454 33 Q471 33 481 49 Q491 65 491 114 Q491 157 483 173 Q475 189 457 189 Z " />
<glyph glyph-name="oneseventh" unicode="&#xf506;" horiz-adv-x="606" d="M164 350 L107 350 L107 652 Q91 641 78 635 Q65 629 45 625 L37 664 Q63 674 82.5 687.5 Q102 701 119 722 L164 722 L164 350 Z M177 0 L120 0 L391 720 L448 720 L177 0 Z M552 338 L462 1 L404 1 L404 7 L493 326 L380 326 L380 371 L552 371 L552 338 Z " />
<glyph glyph-name="twosevenths" unicode="&#xf507;" horiz-adv-x="606" d="M134 729 Q171 729 194 711.5 Q217 694 219 652 Q219 625 210.5 599 Q202 573 186 541 L113 394 L224 394 L224 350 L50 350 L50 385 L131 549 Q141 569 151.5 594.5 Q162 620 162 641 Q162 664 151.5 673.5 Q141 683 124 683 Q110 683 94 674 Q78 665 64 651 L39 686 Q57 705 81.5 717 Q106 729 134 729 Z M207 0 L150 0 L420 720 L477 720 L207 0 Z M584 338 L495 1 L437 1 L437 7 L526 326 L412 326 L412 371 L584 371 L584 338 Z " />
<glyph glyph-name="threesevenths" unicode="&#xf508;" horiz-adv-x="606" d="M115 728 Q153 728 174.5 707 Q196 686 196 636 Q196 600 179.5 576.5 Q163 553 133 544 Q175 536 192 510 Q209 484 209 447 Q209 399 184.5 370 Q160 341 112 341 Q88 341 67.5 348.5 Q47 356 26 371 L48 408 Q77 387 103 387 Q123 387 136.5 402 Q150 417 150 451 Q150 486 134 501.5 Q118 517 91 517 L69 517 L69 559 Q104 559 122.5 578.5 Q141 598 141 628 Q141 659 130.5 670.5 Q120 682 103 682 Q79 682 51 659 L29 693 Q48 710 68.5 719 Q89 728 115 728 Z M184 0 L127 0 L397 720 L454 720 L184 0 Z M572 338 L482 1 L424 1 L424 7 L513 326 L400 326 L400 371 L572 371 L572 338 Z " />
<glyph glyph-name="foursevenths" unicode="&#xf509;" horiz-adv-x="606" d="M186 472 L221 472 L221 431 L186 431 L186 351 L132 351 L132 431 L16 431 L16 469 L113 721 L186 721 L186 472 Z M195 0 L138 0 L409 720 L466 720 L195 0 Z M131 662 L66 472 L132 472 L133 662 L131 662 Z M579 338 L490 1 L432 1 L432 7 L520 326 L407 326 L407 371 L579 371 L579 338 Z " />
<glyph glyph-name="fivesevenths" unicode="&#xf50a;" horiz-adv-x="606" d="M190 672 L92 672 L86 564 Q95 571 106.5 575.5 Q118 580 134 580 Q210 580 210 470 Q210 402 181.5 371 Q153 340 113 340 Q69 340 27 367 L45 405 Q60 396 74 391 Q88 386 103 386 Q123 386 138 403 Q153 420 153 467 Q153 505 144 521.5 Q135 538 118 538 Q98 538 84 522 L82 502 L35 502 L47 721 L193 721 L190 672 Z M189 0 L132 0 L402 720 L459 720 L189 0 Z M577 338 L488 1 L430 1 L430 7 L518 326 L405 326 L405 371 L577 371 L577 338 Z " />
<glyph glyph-name="sixsevenths" unicode="&#xf50b;" horiz-adv-x="606" d="M133 728 Q168 728 201 706 L184 666 Q164 681 142 681 Q86 681 83 559 Q92 569 106.5 575 Q121 581 137 581 Q179 581 196.5 553 Q214 525 214 468 Q214 396 189 368.5 Q164 341 120 341 Q93 341 75 349.5 Q57 358 46 378.5 Q35 399 30.5 432 Q26 465 26 514 Q26 623 51 675.5 Q76 728 133 728 Z M193 0 L135 0 L406 720 L463 720 L193 0 Z M123 539 Q111 539 101 533.5 Q91 528 83 520 Q83 478 85 451.5 Q87 425 91.5 410 Q96 395 103 389 Q110 383 120 383 Q138 383 148 399 Q158 415 158 464 Q158 507 150 523 Q142 539 123 539 Z M579 338 L489 1 L431 1 L431 7 L520 326 L407 326 L407 371 L579 371 L579 338 Z " />
<glyph glyph-name="oneeighth" unicode="&#x215b;" horiz-adv-x="606" d="M165 350 L108 350 L108 651 Q92 640 79.5 634.5 Q67 629 47 624 L38 664 Q64 674 83.5 687.5 Q103 701 121 721 L165 721 L165 350 Z M164 0 L107 0 L377 720 L434 720 L164 0 Z M449 378 Q496 378 516 354.5 Q536 331 536 298 Q536 270 523.5 243.5 Q511 217 487 199 Q516 179 531 156 Q546 133 546 98 Q546 53 520 22 Q494 -9 443 -9 Q392 -9 368 18 Q344 45 344 87 Q344 123 360 149 Q376 175 405 195 Q382 210 368 236 Q354 262 354 289 Q354 327 377 352.5 Q400 378 449 378 Z M446 338 Q428 338 418 325.5 Q408 313 408 291 Q408 269 418 254.5 Q428 240 450 224 Q464 235 473 255 Q482 275 482 295 Q482 314 474 326 Q466 338 446 338 Z M438 170 Q421 154 409 135 Q397 116 397 86 Q397 63 408 48 Q419 33 443 33 Q465 33 476 51.5 Q487 70 487 96 Q487 122 473.5 139.5 Q460 157 438 170 Z " />
<glyph glyph-name="threeeighths" unicode="&#x215c;" horiz-adv-x="606" d="M125 728 Q163 728 185 707 Q207 686 207 636 Q207 600 190 576.5 Q173 553 144 544 Q186 536 202.5 510 Q219 484 219 447 Q219 399 195 370 Q171 341 123 341 Q98 341 77.5 348.5 Q57 356 37 371 L58 408 Q72 398 85.5 392.5 Q99 387 114 387 Q134 387 147.5 402 Q161 417 161 451 Q161 486 145 501.5 Q129 517 101 517 L80 517 L79 559 Q115 559 133 578.5 Q151 598 151 628 Q151 659 140.5 670.5 Q130 682 114 682 Q100 682 87.5 676 Q75 670 61 659 L39 693 Q77 728 125 728 Z M185 0 L127 0 L398 720 L455 720 L185 0 Z M475 378 Q522 378 542 354.5 Q562 331 562 298 Q562 270 549.5 243.5 Q537 217 513 199 Q542 179 557 156 Q572 133 572 98 Q572 53 546 22 Q520 -9 469 -9 Q418 -9 394 18 Q370 45 370 87 Q370 123 386 149 Q402 175 431 195 Q408 210 394 236 Q380 262 380 289 Q380 327 403 352.5 Q426 378 475 378 Z M472 338 Q454 338 444 325.5 Q434 313 434 291 Q434 269 444 254.5 Q454 240 475 224 Q490 235 499 255 Q508 275 508 295 Q508 314 500 326 Q492 338 472 338 Z M464 170 Q447 154 435 135 Q423 116 423 86 Q423 63 434 48 Q445 33 469 33 Q491 33 502 51.5 Q513 70 513 96 Q513 122 499.5 139.5 Q486 157 464 170 Z " />
<glyph glyph-name="fiveeighths" unicode="&#x215d;" horiz-adv-x="606" d="M205 672 L108 672 L102 564 Q110 571 122 575.5 Q134 580 149 580 Q226 580 226 470 Q226 402 197 371 Q168 340 128 340 Q84 340 42 367 L60 405 Q76 396 90 391 Q104 386 118 386 Q138 386 153 403 Q168 420 168 467 Q168 505 159.5 521.5 Q151 538 134 538 Q113 538 99 522 L97 502 L50 502 L62 721 L209 721 L205 672 Z M189 0 L132 0 L402 720 L459 720 L189 0 Z M472 378 Q520 378 540 354.5 Q560 331 560 298 Q560 270 547 243.5 Q534 217 511 199 Q540 179 554.5 156 Q569 133 569 98 Q569 53 543.5 22 Q518 -9 466 -9 Q415 -9 391 18 Q367 45 367 87 Q367 123 383.5 149 Q400 175 429 195 Q405 210 391.5 236 Q378 262 378 289 Q378 327 401 352.5 Q424 378 472 378 Z M470 338 Q451 338 441 325.5 Q431 313 431 291 Q431 269 441 254.5 Q451 240 473 224 Q488 235 497 255 Q506 275 506 295 Q506 314 497.5 326 Q489 338 470 338 Z M461 170 Q444 154 432 135 Q420 116 420 86 Q420 63 431.5 48 Q443 33 466 33 Q489 33 500 51.5 Q511 70 511 96 Q511 122 497.5 139.5 Q484 157 461 170 Z " />
<glyph glyph-name="seveneighths" unicode="&#x215e;" horiz-adv-x="606" d="M226 688 L137 351 L79 351 L79 357 L168 676 L54 676 L54 721 L226 721 L226 688 Z M163 0 L106 0 L377 720 L434 720 L163 0 Z M458 378 Q506 378 526 354.5 Q546 331 546 298 Q546 270 533 243.5 Q520 217 497 199 Q526 179 540.5 156 Q555 133 555 98 Q555 53 529.5 22 Q504 -9 452 -9 Q401 -9 377 18 Q353 45 353 87 Q353 123 369.5 149 Q386 175 415 195 Q391 210 377.5 236 Q364 262 364 289 Q364 327 387 352.5 Q410 378 458 378 Z M456 338 Q437 338 427 325.5 Q417 313 417 291 Q417 269 427 254.5 Q437 240 459 224 Q474 235 483 255 Q492 275 492 295 Q492 314 483.5 326 Q475 338 456 338 Z M447 170 Q430 154 418 135 Q406 116 406 86 Q406 63 417.5 48 Q429 33 452 33 Q474 33 485.5 51.5 Q497 70 497 96 Q497 122 483.5 139.5 Q470 157 447 170 Z " />
<glyph glyph-name="oneninth" unicode="&#xf50c;" horiz-adv-x="606" d="M165 350 L108 350 L108 651 Q92 640 79.5 634.5 Q67 629 47 624 L38 664 Q64 674 83.5 687.5 Q103 701 120 721 L165 721 L165 350 Z M163 0 L106 0 L377 720 L434 720 L163 0 Z M459 378 Q513 378 533.5 335.5 Q554 293 554 205 Q554 96 529 43.5 Q504 -9 447 -9 Q427 -9 410.5 -3.5 Q394 2 379 12 L396 52 Q406 45 417 41 Q428 37 440 37 Q466 37 480.5 66 Q495 95 497 158 Q476 137 442 137 Q401 137 383.5 165 Q366 193 366 251 Q366 322 391 350 Q416 378 459 378 Z M459 335 Q442 335 432 319 Q422 303 422 254 Q422 211 430 194.5 Q438 178 456 178 Q469 178 479 184.5 Q489 191 497 199 Q497 240 495 266.5 Q493 293 488.5 308 Q484 323 476.5 329 Q469 335 459 335 Z " />
<glyph glyph-name="twoninths" unicode="&#xf50d;" horiz-adv-x="606" d="M139 729 Q176 729 199 711.5 Q222 694 224 652 Q224 625 215.5 599 Q207 573 191 541 L117 394 L228 394 L228 350 L54 350 L54 385 L135 549 Q145 569 155.5 594.5 Q166 620 166 641 Q166 664 156 673.5 Q146 683 129 683 Q114 683 98.5 674 Q83 665 69 651 L44 686 Q61 705 85.5 717 Q110 729 139 729 Z M212 0 L154 0 L425 720 L482 720 L212 0 Z M498 378 Q553 378 573 335.5 Q593 293 593 205 Q593 96 568 43.5 Q543 -9 486 -9 Q467 -9 450.5 -3.5 Q434 2 418 12 L436 52 Q456 37 479 37 Q505 37 519.5 66 Q534 95 536 158 Q527 148 512.5 142.5 Q498 137 482 137 Q441 137 423 165 Q405 193 405 251 Q405 322 430 350 Q455 378 498 378 Z M498 335 Q481 335 471.5 319 Q462 303 462 254 Q462 211 469.5 194.5 Q477 178 496 178 Q509 178 518.5 184.5 Q528 191 536 199 Q536 240 534 266.5 Q532 293 527.5 308 Q523 323 515.5 329 Q508 335 498 335 Z " />
<glyph glyph-name="fourninths" unicode="&#xf50e;" horiz-adv-x="606" d="M205 472 L240 472 L240 431 L205 431 L205 351 L151 351 L151 431 L35 431 L35 469 L132 721 L205 721 L205 472 Z M213 0 L156 0 L427 720 L484 720 L213 0 Z M150 662 L85 472 L151 472 L152 662 L150 662 Z M500 378 Q554 378 574.5 335.5 Q595 293 595 205 Q595 96 570 43.5 Q545 -9 488 -9 Q469 -9 452.5 -3.5 Q436 2 420 12 L437 52 Q447 45 458 41 Q469 37 481 37 Q507 37 521.5 66 Q536 95 538 158 Q529 148 514.5 142.5 Q500 137 484 137 Q443 137 425 165 Q407 193 407 251 Q407 322 432 350 Q457 378 500 378 Z M500 335 Q483 335 473.5 319 Q464 303 464 254 Q464 211 471.5 194.5 Q479 178 498 178 Q510 178 520 184.5 Q530 191 538 199 Q538 240 536 266.5 Q534 293 529.5 308 Q525 323 517.5 329 Q510 335 500 335 Z " />
<glyph glyph-name="fiveninths" unicode="&#xf50f;" horiz-adv-x="606" d="M195 672 L97 672 L91 564 Q100 571 111.5 575.5 Q123 580 138 580 Q215 580 215 470 Q215 436 207.5 411.5 Q200 387 186.5 371 Q173 355 155 347.5 Q137 340 117 340 Q74 340 32 367 L50 405 Q65 396 79 391 Q93 386 108 386 Q128 386 142.5 403 Q157 420 157 467 Q157 505 148.5 521.5 Q140 538 123 538 Q103 538 89 522 L87 502 L40 502 L51 721 L198 721 L195 672 Z M191 0 L134 0 L404 720 L461 720 L191 0 Z M477 378 Q531 378 551 335.5 Q571 293 571 205 Q571 96 546 43.5 Q521 -9 464 -9 Q445 -9 428.5 -3.5 Q412 2 396 12 L414 52 Q424 45 435 41 Q446 37 457 37 Q483 37 498 66 Q513 95 515 158 Q494 137 460 137 Q419 137 401 165 Q383 193 383 251 Q383 322 408.5 350 Q434 378 477 378 Z M477 335 Q460 335 450 319 Q440 303 440 254 Q440 211 448 194.5 Q456 178 474 178 Q487 178 496.5 184.5 Q506 191 514 199 Q514 240 512 266.5 Q510 293 505.5 308 Q501 323 494 329 Q487 335 477 335 Z " />
<glyph glyph-name="sevenninths" unicode="&#xf510;" horiz-adv-x="606" d="M227 688 L137 351 L79 351 L79 357 L168 676 L54 676 L54 721 L227 721 L227 688 Z M173 0 L116 0 L386 720 L443 720 L173 0 Z M469 378 Q523 378 543.5 335.5 Q564 293 564 205 Q564 96 539 43.5 Q514 -9 457 -9 Q421 -9 389 12 L406 52 Q416 45 427 41 Q438 37 450 37 Q476 37 490.5 66 Q505 95 507 158 Q497 148 482.5 142.5 Q468 137 453 137 Q412 137 394 165 Q376 193 376 251 Q376 322 401 350 Q426 378 469 378 Z M469 335 Q452 335 442.5 319 Q433 303 433 254 Q433 211 440.5 194.5 Q448 178 466 178 Q479 178 489 184.5 Q499 191 507 199 Q507 240 505 266.5 Q503 293 498.5 308 Q494 323 486.5 329 Q479 335 469 335 Z " />
<glyph glyph-name="eightninths" unicode="&#xf511;" horiz-adv-x="606" d="M145 728 Q192 728 212 704.5 Q232 681 232 648 Q232 620 219.5 593.5 Q207 567 183 549 Q212 529 227 506 Q242 483 242 448 Q242 403 216 372 Q190 341 139 341 Q88 341 64 368 Q40 395 40 437 Q40 473 56 499 Q72 525 101 545 Q77 560 63.5 586 Q50 612 50 639 Q50 677 73 702.5 Q96 728 145 728 Z M202 0 L145 0 L416 720 L473 720 L202 0 Z M142 688 Q124 688 113.5 675.5 Q103 663 103 641 Q103 619 113 604.5 Q123 590 145 574 Q160 585 169 605 Q178 625 178 645 Q178 664 169.5 676 Q161 688 142 688 Z M134 520 Q117 504 105 485 Q93 466 93 436 Q93 413 104 398 Q115 383 138 383 Q161 383 172 401.5 Q183 420 183 446 Q183 472 169.5 489.5 Q156 507 134 520 Z M478 378 Q532 378 552.5 335.5 Q573 293 573 205 Q573 96 548 43.5 Q523 -9 466 -9 Q446 -9 429.5 -3.5 Q413 2 398 12 L415 52 Q425 45 436 41 Q447 37 459 37 Q485 37 499.5 66 Q514 95 516 158 Q506 148 491.5 142.5 Q477 137 462 137 Q421 137 403 165 Q385 193 385 251 Q385 322 410 350 Q435 378 478 378 Z M478 335 Q461 335 451 319 Q441 303 441 254 Q441 211 449 194.5 Q457 178 475 178 Q488 178 498 184.5 Q508 191 516 199 Q516 240 514 266.5 Q512 293 507.5 308 Q503 323 495.5 329 Q488 335 478 335 Z " />
<glyph glyph-name="zeroinferior" unicode="&#x2080;" horiz-adv-x="253" d="M128 281 Q152 281 170 272.5 Q188 264 199.5 243 Q211 222 217 185.5 Q223 149 223 92 Q223 30 216.5 -9 Q210 -48 198 -69.5 Q186 -91 168 -98.5 Q150 -106 127 -106 Q104 -106 85.5 -98.5 Q67 -91 54.5 -69.5 Q42 -48 35.5 -9 Q29 30 29 92 Q29 149 35 185.5 Q41 222 53.5 243 Q66 264 84.5 272.5 Q103 281 128 281 Z M127 237 Q116 237 108.5 231 Q101 225 96.5 209 Q92 193 89.5 165 Q87 137 87 92 Q87 42 89.5 12 Q92 -18 97 -34.5 Q102 -51 109.5 -56.5 Q117 -62 127 -62 Q137 -62 144.5 -56.5 Q152 -51 156.5 -34.5 Q161 -18 163.5 12 Q166 42 166 92 Q166 137 164 165 Q162 193 157 209 Q152 225 144.5 231 Q137 237 127 237 Z " />
<glyph glyph-name="oneinferior" unicode="&#x2081;" horiz-adv-x="185" d="M140 -96 L84 -96 L84 205 Q68 194 55 188.5 Q42 183 22 178 L14 218 Q40 228 59.5 241.5 Q79 255 96 275 L140 275 L140 -96 Z " />
<glyph glyph-name="twoinferior" unicode="&#x2082;" horiz-adv-x="219" d="M106 283 Q143 283 166 265.5 Q189 248 191 206 Q191 179 182.5 153 Q174 127 158 95 L85 -52 L196 -52 L196 -96 L22 -96 L22 -61 L103 103 Q113 123 123 148.5 Q133 174 133 195 Q133 218 123 227.5 Q113 237 96 237 Q81 237 65.5 228 Q50 219 36 205 L11 240 Q29 259 53 271 Q77 283 106 283 Z " />
<glyph glyph-name="threeinferior" unicode="&#x2083;" horiz-adv-x="216" d="M102 282 Q140 282 162 261 Q184 240 184 190 Q184 154 167 130.5 Q150 107 121 98 Q162 90 179 64 Q196 38 196 1 Q196 -47 172 -76 Q148 -105 100 -105 Q75 -105 54.5 -97.5 Q34 -90 14 -75 L35 -38 Q49 -48 62.5 -53.5 Q76 -59 91 -59 Q111 -59 124.5 -44 Q138 -29 138 5 Q138 40 121.5 55.5 Q105 71 78 71 L57 71 L56 113 Q92 113 110 132.5 Q128 152 128 182 Q128 213 117.5 224.5 Q107 236 91 236 Q77 236 64.5 230 Q52 224 38 213 L16 247 Q54 282 102 282 Z " />
<glyph glyph-name="fourinferior" unicode="&#x2084;" horiz-adv-x="240" d="M187 26 L221 26 L221 -15 L187 -15 L187 -95 L132 -95 L132 -15 L17 -15 L17 23 L113 275 L187 275 L187 26 Z M131 216 L66 26 L132 26 L133 216 L131 216 Z " />
<glyph glyph-name="fiveinferior" unicode="&#x2085;" horiz-adv-x="226" d="M186 226 L88 226 L82 118 Q90 125 102 129.5 Q114 134 129 134 Q206 134 206 24 Q206 -10 198.5 -34.5 Q191 -59 177.5 -75 Q164 -91 146 -98.5 Q128 -106 108 -106 Q65 -106 23 -79 L41 -41 Q56 -50 70 -55 Q84 -60 99 -60 Q119 -60 133.5 -43 Q148 -26 148 21 Q148 59 139.5 75.5 Q131 92 114 92 Q94 92 80 76 L78 56 L31 56 L42 275 L189 275 L186 226 Z " />
<glyph glyph-name="sixinferior" unicode="&#x2086;" horiz-adv-x="235" d="M134 282 Q169 282 202 260 L185 220 Q165 235 143 235 Q87 235 84 113 Q93 123 107.5 129 Q122 135 138 135 Q180 135 197.5 107 Q215 79 215 22 Q215 -50 190 -77.5 Q165 -105 121 -105 Q94 -105 76 -96.5 Q58 -88 47 -67.5 Q36 -47 31.5 -14 Q27 19 27 68 Q27 177 52 229.5 Q77 282 134 282 Z M124 93 Q112 93 102 87.5 Q92 82 84 74 Q84 32 86 5.5 Q88 -21 92.5 -36 Q97 -51 104 -57 Q111 -63 121 -63 Q139 -63 149 -47 Q159 -31 159 18 Q159 61 151 77 Q143 93 124 93 Z " />
<glyph glyph-name="seveninferior" unicode="&#x2087;" horiz-adv-x="199" d="M186 242 L96 -95 L38 -95 L38 -89 L127 230 L13 230 L13 275 L186 275 L186 242 Z " />
<glyph glyph-name="eightinferior" unicode="&#x2088;" horiz-adv-x="239" d="M124 282 Q171 282 191.5 258.5 Q212 235 212 202 Q212 174 199 147.5 Q186 121 163 103 Q192 83 206.5 60 Q221 37 221 2 Q221 -43 195.5 -74 Q170 -105 118 -105 Q67 -105 43 -78 Q19 -51 19 -9 Q19 27 35.5 53 Q52 79 81 99 Q57 114 43.5 140 Q30 166 30 193 Q30 231 52.5 256.5 Q75 282 124 282 Z M121 242 Q103 242 93 229.5 Q83 217 83 195 Q83 173 93 158.5 Q103 144 125 128 Q139 139 148.5 159 Q158 179 158 199 Q158 218 149.5 230 Q141 242 121 242 Z M113 74 Q96 58 84 39 Q72 20 72 -10 Q72 -33 83 -48 Q94 -63 118 -63 Q140 -63 151 -44.5 Q162 -26 162 0 Q162 26 148.5 43.5 Q135 61 113 74 Z " />
<glyph glyph-name="nineinferior" unicode="&#x2089;" horiz-adv-x="235" d="M113 282 Q167 282 187.5 239.5 Q208 197 208 109 Q208 0 183 -52.5 Q158 -105 101 -105 Q65 -105 33 -84 L50 -44 Q60 -51 71 -55 Q82 -59 94 -59 Q120 -59 134.5 -30 Q149 -1 151 62 Q142 52 127.5 46.5 Q113 41 97 41 Q56 41 38 69 Q20 97 20 155 Q20 226 45 254 Q70 282 113 282 Z M113 239 Q96 239 86.5 223 Q77 207 77 158 Q77 115 84.5 98.5 Q92 82 111 82 Q123 82 133 88.5 Q143 95 151 103 Q151 144 149 170.5 Q147 197 142.5 212 Q138 227 130.5 233 Q123 239 113 239 Z " />
<glyph glyph-name="zerosuperior" unicode="&#x2070;" horiz-adv-x="253" d="M128 777 Q152 777 170 768.5 Q188 760 199.5 739 Q211 718 217 681.5 Q223 645 223 588 Q223 526 216.5 487 Q210 448 198 426.5 Q186 405 168 397.5 Q150 390 127 390 Q104 390 85.5 397.5 Q67 405 54.5 426.5 Q42 448 35.5 487 Q29 526 29 588 Q29 645 35 681.5 Q41 718 53.5 739 Q66 760 84.5 768.5 Q103 777 128 777 Z M127 733 Q116 733 108.5 727 Q101 721 96.5 705 Q92 689 89.5 661 Q87 633 87 588 Q87 538 89.5 508 Q92 478 97 461.5 Q102 445 109.5 439.5 Q117 434 127 434 Q137 434 144.5 439.5 Q152 445 156.5 461.5 Q161 478 163.5 508 Q166 538 166 588 Q166 633 164 661 Q162 689 157 705 Q152 721 144.5 727 Q137 733 127 733 Z " />
<glyph glyph-name="onesuperior" unicode="&#xb9;" horiz-adv-x="185" d="M142 400 L86 400 L86 701 Q70 690 57 684.5 Q44 679 24 674 L16 714 Q42 724 61.5 737.5 Q81 751 98 771 L142 771 L142 400 Z " />
<glyph glyph-name="twosuperior" unicode="&#xb2;" horiz-adv-x="219" d="M106 779 Q143 779 166 761.5 Q189 744 191 702 Q191 675 182.5 649 Q174 623 158 591 L85 444 L196 444 L196 400 L22 400 L22 435 L103 599 Q113 619 123 644.5 Q133 670 133 691 Q133 714 123 723.5 Q113 733 96 733 Q81 733 65.5 724 Q50 715 36 701 L11 736 Q29 755 53 767 Q77 779 106 779 Z " />
<glyph glyph-name="threesuperior" unicode="&#xb3;" horiz-adv-x="216" d="M102 778 Q140 778 162 757 Q184 736 184 686 Q184 650 167 626.5 Q150 603 121 594 Q162 586 179 560 Q196 534 196 497 Q196 449 172 420 Q148 391 100 391 Q75 391 54.5 398.5 Q34 406 14 421 L35 458 Q49 448 62.5 442.5 Q76 437 91 437 Q111 437 124.5 452 Q138 467 138 501 Q138 536 121.5 551.5 Q105 567 78 567 L57 567 L56 609 Q92 609 110 628.5 Q128 648 128 678 Q128 709 117.5 720.5 Q107 732 91 732 Q77 732 64.5 726 Q52 720 38 709 L16 743 Q54 778 102 778 Z " />
<glyph glyph-name="foursuperior" unicode="&#x2074;" horiz-adv-x="240" d="M187 522 L221 522 L221 481 L187 481 L187 401 L132 401 L132 481 L17 481 L17 519 L113 771 L187 771 L187 522 Z M131 712 L66 522 L132 522 L133 712 L131 712 Z " />
<glyph glyph-name="fivesuperior" unicode="&#x2075;" horiz-adv-x="226" d="M184 722 L86 722 L80 614 Q88 621 100 625.5 Q112 630 127 630 Q204 630 204 520 Q204 486 196.5 461.5 Q189 437 175.5 421 Q162 405 144 397.5 Q126 390 106 390 Q63 390 21 417 L39 455 Q54 446 68 441 Q82 436 97 436 Q117 436 131.5 453 Q146 470 146 517 Q146 555 137.5 571.5 Q129 588 112 588 Q92 588 78 572 L76 552 L29 552 L40 771 L187 771 L184 722 Z " />
<glyph glyph-name="sixsuperior" unicode="&#x2076;" horiz-adv-x="235" d="M134 778 Q169 778 202 756 L185 716 Q165 731 143 731 Q87 731 84 609 Q93 619 107.5 625 Q122 631 138 631 Q180 631 197.5 603 Q215 575 215 518 Q215 446 190 418.5 Q165 391 121 391 Q94 391 76 399.5 Q58 408 47 428.5 Q36 449 31.5 482 Q27 515 27 564 Q27 673 52 725.5 Q77 778 134 778 Z M124 589 Q112 589 102 583.5 Q92 578 84 570 Q84 528 86 501.5 Q88 475 92.5 460 Q97 445 104 439 Q111 433 121 433 Q139 433 149 449 Q159 465 159 514 Q159 557 151 573 Q143 589 124 589 Z " />
<glyph glyph-name="sevensuperior" unicode="&#x2077;" horiz-adv-x="199" d="M186 738 L96 401 L38 401 L38 407 L127 726 L13 726 L13 771 L186 771 L186 738 Z " />
<glyph glyph-name="eightsuperior" unicode="&#x2078;" horiz-adv-x="239" d="M124 778 Q171 778 191.5 754.5 Q212 731 212 698 Q212 670 199 643.5 Q186 617 163 599 Q192 579 206.5 556 Q221 533 221 498 Q221 453 195.5 422 Q170 391 118 391 Q67 391 43 418 Q19 445 19 487 Q19 523 35.5 549 Q52 575 81 595 Q57 610 43.5 636 Q30 662 30 689 Q30 727 52.5 752.5 Q75 778 124 778 Z M121 738 Q103 738 93 725.5 Q83 713 83 691 Q83 669 93 654.5 Q103 640 125 624 Q139 635 148.5 655 Q158 675 158 695 Q158 714 149.5 726 Q141 738 121 738 Z M113 570 Q96 554 84 535 Q72 516 72 486 Q72 463 83 448 Q94 433 118 433 Q140 433 151 451.5 Q162 470 162 496 Q162 522 148.5 539.5 Q135 557 113 570 Z " />
<glyph glyph-name="ninesuperior" unicode="&#x2079;" horiz-adv-x="235" d="M113 778 Q167 778 187.5 735.5 Q208 693 208 605 Q208 496 183 443.5 Q158 391 101 391 Q65 391 33 412 L50 452 Q60 445 71 441 Q82 437 94 437 Q120 437 134.5 466 Q149 495 151 558 Q142 548 127.5 542.5 Q113 537 97 537 Q56 537 38 565 Q20 593 20 651 Q20 722 45 750 Q70 778 113 778 Z M113 735 Q96 735 86.5 719 Q77 703 77 654 Q77 611 84.5 594.5 Q92 578 111 578 Q123 578 133 584.5 Q143 591 151 599 Q151 640 149 666.5 Q147 693 142.5 708 Q138 723 130.5 729 Q123 735 113 735 Z " />
<glyph glyph-name="asterisk" unicode="&#x2a;" horiz-adv-x="322" d="M186 594 L280 615 L292 582 L204 546 L260 457 L231 436 L161 516 L92 436 L62 457 L119 546 L30 582 L42 615 L135 594 L143 690 L178 690 L186 594 Z " />
<glyph glyph-name="backslash" unicode="&#x5c;" horiz-adv-x="232" d="M78 739 L220 -92 L154 -92 L12 739 L78 739 Z " />
<glyph glyph-name="bullet" unicode="&#x2022;" horiz-adv-x="374" d="M188 415 Q230 415 260 386.5 Q290 358 290 312 Q290 266 260.5 237 Q231 208 187 208 Q142 208 113.5 238 Q85 268 85 312 Q85 357 114.5 386 Q144 415 188 415 Z " />
<glyph glyph-name="colon" unicode="&#x3a;" horiz-adv-x="174" d="M87 482 Q110 482 124 469 Q138 456 138 433 Q138 409 124 395.5 Q110 382 87 382 Q64 382 50.5 395.5 Q37 409 37 432 Q37 455 51 468.5 Q65 482 87 482 Z M87 88 Q110 88 124 74.5 Q138 61 138 38 Q138 15 124 1 Q110 -13 87 -13 Q64 -13 50.5 1 Q37 15 37 38 Q37 61 51 74.5 Q65 88 87 88 Z " />
<glyph glyph-name="comma" unicode="&#x2c;" horiz-adv-x="175" d="M87 91 Q116 91 130.5 71 Q145 51 145 23 Q145 -23 125.5 -62 Q106 -101 58 -126 L39 -96 Q70 -77 83.5 -56 Q97 -35 99 -3 Q74 -17 53.5 -5 Q33 7 33 37 Q33 59 48.5 75 Q64 91 87 91 Z " />
<glyph glyph-name="ellipsis" unicode="&#x2026;" horiz-adv-x="528" d="M425 88 Q448 88 462 74.5 Q476 61 476 38 Q476 15 462 1 Q448 -13 425 -13 Q402 -13 388.5 1 Q375 15 375 38 Q375 61 389 74.5 Q403 88 425 88 Z M260 88 Q283 88 297 74.5 Q311 61 311 38 Q311 15 297 1 Q283 -13 260 -13 Q237 -13 223.5 1 Q210 15 210 38 Q210 61 224 74.5 Q238 88 260 88 Z M96 88 Q119 88 133 74.5 Q147 61 147 38 Q147 15 133 1 Q119 -13 96 -13 Q73 -13 59.5 1 Q46 15 46 38 Q46 61 60 74.5 Q74 88 96 88 Z " />
<glyph glyph-name="exclam" unicode="&#x21;" horiz-adv-x="217" d="M149 478 L140 197 L82 197 L73 478 L73 720 L149 720 L149 478 Z M111 88 Q133 88 146.5 74.5 Q160 61 160 38 Q160 16 146.5 2 Q133 -12 111 -12 Q88 -12 73.5 2 Q59 16 59 38 Q59 61 73.5 74.5 Q88 88 111 88 Z " />
<glyph glyph-name="exclamdown" unicode="&#xa1;" horiz-adv-x="217" d="M114 437 Q91 437 77 450.5 Q63 464 63 487 Q63 509 77 523 Q91 537 114 537 Q137 537 150.5 523 Q164 509 164 486 Q164 464 150.5 450.5 Q137 437 114 437 Z M77 -195 L77 47 L86 328 L144 328 L152 47 L152 -195 L77 -195 Z " />
<glyph glyph-name="numbersign" unicode="&#x23;" horiz-adv-x="450" d="M390 631 L348 442 L420 442 L420 391 L336 391 L305 246 L384 246 L384 195 L292 195 L251 12 L204 22 L242 195 L151 195 L110 12 L62 22 L100 195 L32 195 L32 246 L113 246 L144 391 L67 391 L67 442 L157 442 L200 639 L249 631 L207 442 L298 442 L341 639 L390 631 Z M195 391 L164 246 L254 246 L285 391 L195 391 Z " />
<glyph glyph-name="period" unicode="&#x2e;" horiz-adv-x="174" d="M86 88 Q109 88 123 74.5 Q137 61 137 38 Q137 15 123 1 Q109 -13 86 -13 Q63 -13 49.5 1 Q36 15 36 38 Q36 61 50 74.5 Q64 88 86 88 Z " />
<glyph glyph-name="periodcentered" unicode="&#xb7;" horiz-adv-x="203" d="M98 378 Q121 378 135 364.5 Q149 351 149 328 Q149 305 135 291 Q121 277 98 277 Q75 277 61.5 291 Q48 305 48 328 Q48 351 62 364.5 Q76 378 98 378 Z " />
<glyph glyph-name="question" unicode="&#x3f;" horiz-adv-x="344" d="M170 732 Q240 732 274.5 692 Q309 652 309 559 Q309 502 292 462 Q275 422 255 387 Q235 352 218 315.5 Q201 279 201 229 L201 197 L130 197 L130 225 Q130 282 146.5 322.5 Q163 363 182.5 398 Q202 433 218.5 468 Q235 503 235 548 Q235 612 218 637 Q201 662 166 662 Q133 662 114 629.5 Q95 597 95 520 L29 520 Q29 579 37 619.5 Q45 660 62.5 685 Q80 710 106.5 721 Q133 732 170 732 Z M165 87 Q187 87 200 73.5 Q213 60 213 38 Q213 16 200 2.5 Q187 -11 165 -11 Q142 -11 128.5 2.5 Q115 16 115 38 Q115 60 128.5 73.5 Q142 87 165 87 Z " />
<glyph glyph-name="questiondown" unicode="&#xbf;" horiz-adv-x="343" d="M189 439 Q166 439 153.5 452 Q141 465 141 487 Q141 510 153.5 523.5 Q166 537 189 537 Q212 537 225.5 523.5 Q239 510 239 487 Q239 465 225.5 452 Q212 439 189 439 Z M184 -207 Q114 -207 79.5 -166.5 Q45 -126 45 -33 Q45 5 53 34.5 Q61 64 73 89.5 Q85 115 99 138 Q113 161 125 185.5 Q137 210 145 236.5 Q153 263 153 297 L153 329 L224 329 L224 300 Q224 243 207.5 202.5 Q191 162 171.5 127.5 Q152 93 135.5 58 Q119 23 119 -22 Q119 -87 136 -112 Q153 -137 188 -137 Q221 -137 240 -104.5 Q259 -72 259 6 L324 6 Q324 -53 316 -94 Q308 -135 291 -160 Q274 -185 247.5 -196 Q221 -207 184 -207 Z " />
<glyph glyph-name="quotedbl" unicode="&#x22;" horiz-adv-x="252" d="M98 441 L45 441 L45 720 L98 720 L98 441 Z M207 441 L154 441 L154 720 L207 720 L207 441 Z " />
<glyph glyph-name="quotesingle" unicode="&#x27;" horiz-adv-x="143" d="M98 441 L45 441 L45 720 L98 720 L98 441 Z " />
<glyph glyph-name="semicolon" unicode="&#x3b;" horiz-adv-x="175" d="M89 482 Q112 482 126 469 Q140 456 140 433 Q140 409 126 395.5 Q112 382 89 382 Q66 382 52 395.5 Q38 409 38 432 Q38 455 52.5 468.5 Q67 482 89 482 Z M87 91 Q116 91 130.5 71 Q145 51 145 23 Q145 -23 125.5 -62 Q106 -101 58 -126 L39 -96 Q70 -77 83.5 -56 Q97 -35 99 -3 Q74 -17 53.5 -5 Q33 7 33 37 Q33 59 48.5 75 Q64 91 87 91 Z " />
<glyph glyph-name="slash" unicode="&#x2f;" horiz-adv-x="232" d="M77 -92 L11 -92 L153 739 L220 739 L77 -92 Z " />
<glyph glyph-name="underscore" unicode="&#x5f;" horiz-adv-x="348" d="M348 -230 L0 -230 L0 -174 L348 -174 L348 -230 Z " />
<glyph glyph-name="braceleft" unicode="&#x7b;" horiz-adv-x="243" d="M226 661 L206 661 Q176 661 167 638.5 Q158 616 158 572 L158 404 Q158 360 146 331 Q134 302 101 291 Q135 280 146.5 250.5 Q158 221 158 177 L158 23 Q158 -22 167 -44 Q176 -66 207 -66 L226 -66 L226 -125 L199 -125 Q133 -125 109 -90.5 Q85 -56 85 21 L85 163 Q85 215 76.5 237.5 Q68 260 39 260 L22 260 L22 322 L39 322 Q68 322 76.5 345 Q85 368 85 422 L85 569 Q85 608 90.5 636.5 Q96 665 109 683.5 Q122 702 144 711 Q166 720 199 720 L226 720 L226 661 Z " />
<glyph glyph-name="braceright" unicode="&#x7d;" horiz-adv-x="241" d="M42 720 Q75 720 97 711 Q119 702 132 683.5 Q145 665 150.5 636.5 Q156 608 156 569 L156 422 Q156 368 164 345 Q172 322 201 322 L219 322 L219 260 L202 260 Q173 260 164.5 237.5 Q156 215 156 163 L156 21 Q156 -56 132 -90.5 Q108 -125 41 -125 L15 -125 L15 -66 L34 -66 Q65 -66 74 -44 Q83 -22 83 23 L83 177 Q83 221 94.5 250.5 Q106 280 139 291 Q107 302 95 331 Q83 360 83 404 L83 572 Q83 616 74 638.5 Q65 661 35 661 L15 661 L15 720 L42 720 Z " />
<glyph glyph-name="bracketleft" unicode="&#x5b;" horiz-adv-x="238" d="M192 661 L130 661 L130 -66 L192 -66 L192 -125 L58 -125 L58 720 L192 720 L192 661 Z " />
<glyph glyph-name="bracketright" unicode="&#x5d;" horiz-adv-x="236" d="M178 720 L178 -125 L44 -125 L44 -66 L106 -66 L106 661 L44 661 L44 720 L178 720 Z " />
<glyph glyph-name="parenleft" unicode="&#x28;" horiz-adv-x="222" d="M184 711 Q165 661 151.5 613 Q138 565 130 515.5 Q122 466 118 412.5 Q114 359 114 298 Q114 238 118 186 Q122 134 130 86 Q138 38 151.5 -8.5 Q165 -55 184 -104 L139 -126 Q92 -43 66.5 63.5 Q41 170 41 296 Q41 427 66 536 Q91 645 138 732 L184 711 Z " />
<glyph glyph-name="parenright" unicode="&#x29;" horiz-adv-x="221" d="M82 732 Q129 645 154 536 Q179 427 179 296 Q179 170 154 63.5 Q129 -43 81 -126 L36 -104 Q55 -55 68.5 -8.5 Q82 38 90.5 86 Q99 134 103 186 Q107 238 107 298 Q107 359 103 412.5 Q99 466 90.5 515.5 Q82 565 69 613 Q56 661 37 711 L82 732 Z " />
<glyph glyph-name="emdash" unicode="&#x2014;" horiz-adv-x="690" d="M690 237 L0 237 L0 292 L690 292 L690 237 Z " />
<glyph glyph-name="endash" unicode="&#x2013;" horiz-adv-x="349" d="M349 237 L0 237 L0 292 L349 292 L349 237 Z " />
<glyph glyph-name="hyphen" unicode="&#x2d;" horiz-adv-x="183" d="M161 245 L22 245 L22 310 L161 310 L161 245 Z " />
<glyph glyph-name="uni00AD" unicode="&#xad;" horiz-adv-x="183" d="M161 245 L22 245 L22 310 L161 310 L161 245 Z " />
<glyph glyph-name="guillemotleft" unicode="&#xab;" horiz-adv-x="317" d="M293 397 L219 261 L293 123 L250 99 L154 252 L154 269 L250 423 L293 397 Z M160 397 L86 261 L160 123 L117 99 L21 252 L21 269 L117 423 L160 397 Z " />
<glyph glyph-name="guillemotright" unicode="&#xbb;" horiz-adv-x="317" d="M297 269 L297 252 L201 99 L158 123 L232 261 L158 397 L201 423 L297 269 Z M164 269 L164 252 L68 99 L25 123 L99 261 L25 397 L68 423 L164 269 Z " />
<glyph glyph-name="guilsinglleft" unicode="&#x2039;" horiz-adv-x="185" d="M160 397 L86 261 L160 123 L117 99 L21 252 L21 269 L117 423 L160 397 Z " />
<glyph glyph-name="guilsinglright" unicode="&#x203a;" horiz-adv-x="185" d="M164 269 L164 252 L68 99 L25 123 L99 261 L25 397 L68 423 L164 269 Z " />
<glyph glyph-name="quotedblbase" unicode="&#x201e;" horiz-adv-x="289" d="M207 83 Q235 83 248.5 63.5 Q262 44 262 18 Q262 -21 247 -56 Q232 -91 192 -117 L174 -91 Q197 -74 208 -54 Q219 -34 221 -6 Q209 -14 197.5 -14.5 Q186 -15 177 -9.5 Q168 -4 162.5 6.5 Q157 17 157 31 Q157 52 171 67.5 Q185 83 207 83 Z M79 83 Q107 83 120.5 63.5 Q134 44 134 18 Q134 -21 119 -56 Q104 -91 64 -117 L46 -91 Q69 -74 80 -54 Q91 -34 93 -6 Q81 -14 69.5 -14.5 Q58 -15 49 -9.5 Q40 -4 34.5 6.5 Q29 17 29 31 Q29 52 43 67.5 Q57 83 79 83 Z " />
<glyph glyph-name="quotedblleft" unicode="&#x201c;" horiz-adv-x="287" d="M209 537 Q181 537 168 556.5 Q155 576 155 602 Q155 641 169.5 675.5 Q184 710 224 736 L243 710 Q198 679 195 626 Q218 640 238.5 629 Q259 618 259 589 Q259 568 245.5 552.5 Q232 537 209 537 Z M82 537 Q54 537 41 556.5 Q28 576 28 602 Q28 641 42.5 675.5 Q57 710 97 736 L116 710 Q71 679 68 626 Q91 640 111.5 629 Q132 618 132 589 Q132 568 118.5 552.5 Q105 537 82 537 Z " />
<glyph glyph-name="quotedblright" unicode="&#x201d;" horiz-adv-x="287" d="M204 721 Q233 721 246 701.5 Q259 682 259 656 Q259 617 244 582 Q229 547 189 521 L171 547 Q194 563 205.5 583.5 Q217 604 219 632 Q195 617 174.5 628.5 Q154 640 154 669 Q154 690 168 705.5 Q182 721 204 721 Z M77 721 Q106 721 119 701.5 Q132 682 132 656 Q132 617 117 582 Q102 547 62 521 L44 547 Q67 563 78.5 583.5 Q90 604 92 632 Q68 617 47.5 628.5 Q27 640 27 669 Q27 690 41 705.5 Q55 721 77 721 Z " />
<glyph glyph-name="quoteleft" unicode="&#x2018;" horiz-adv-x="160" d="M82 537 Q54 537 41 556.5 Q28 576 28 602 Q28 641 42.5 675.5 Q57 710 97 736 L116 710 Q71 679 68 626 Q91 640 111.5 629 Q132 618 132 589 Q132 568 118.5 552.5 Q105 537 82 537 Z " />
<glyph glyph-name="quoteright" unicode="&#x2019;" horiz-adv-x="160" d="M77 721 Q106 721 119 701.5 Q132 682 132 656 Q132 617 117 582 Q102 547 62 521 L44 547 Q67 563 78.5 583.5 Q90 604 92 632 Q68 617 47.5 628.5 Q27 640 27 669 Q27 690 41 705.5 Q55 721 77 721 Z " />
<glyph glyph-name="quotesinglbase" unicode="&#x201a;" horiz-adv-x="167" d="M79 83 Q107 83 120.5 63.5 Q134 44 134 18 Q134 -21 119 -56 Q104 -91 64 -117 L46 -91 Q69 -74 80 -54 Q91 -34 93 -6 Q81 -14 69.5 -14.5 Q58 -15 49 -9.5 Q40 -4 34.5 6.5 Q29 17 29 31 Q29 52 43 67.5 Q57 83 79 83 Z " />
<glyph glyph-name="Abreve" unicode="&#x102;" horiz-adv-x="425" d="M411 0 L334 0 L294 198 L130 198 L90 0 L15 0 L166 720 L260 720 L411 0 Z M211 645 Q204 597 195 541.5 Q186 486 174 420 L144 270 L281 270 L251 420 Q241 474 231.5 531 Q222 588 211 645 Z M310 873 Q305 813 283 786.5 Q261 760 213 760 Q165 760 143.5 786.5 Q122 813 117 873 L162 880 Q167 843 178.5 826.5 Q190 810 213 810 Q237 810 248.5 826.5 Q260 843 264 880 L310 873 Z " />
<glyph glyph-name="uni00A0" unicode="&#xa0;" horiz-adv-x="202" d="" />
<glyph glyph-name="Aacute" unicode="&#xc1;" horiz-adv-x="425" d="M411 0 L334 0 L294 198 L130 198 L90 0 L15 0 L166 720 L260 720 L411 0 Z M211 645 Q204 597 195 541.5 Q186 486 174 420 L144 270 L281 270 L251 420 Q241 474 231.5 531 Q222 588 211 645 Z M298 845 L157 759 L130 799 L264 895 L298 845 Z " />
<glyph glyph-name="A" unicode="A" horiz-adv-x="425" d="M411 0 L334 0 L294 198 L130 198 L90 0 L15 0 L166 720 L260 720 L411 0 Z M211 645 Q204 597 195 541.5 Q186 486 174 420 L144 270 L281 270 L251 420 Q241 474 231.5 531 Q222 588 211 645 Z " />
<glyph glyph-name="florin" unicode="&#x192;" horiz-adv-x="308" d="M290 647 L258 647 Q235 647 226 630 Q217 613 212 581 L189 402 L236 402 L236 344 L181 344 L129 -55 Q124 -91 117 -118.5 Q110 -146 97 -164 Q84 -182 63.5 -191 Q43 -200 11 -200 L-26 -200 L-26 -142 L0 -142 Q26 -142 39 -125.5 Q52 -109 57 -72 L109 344 L61 344 L61 402 L118 402 L145 598 Q148 621 154.5 640.5 Q161 660 173 674.5 Q185 689 203 697 Q221 705 248 705 L290 705 L290 647 Z " />
<glyph glyph-name="Euro" unicode="&#x20ac;" horiz-adv-x="433" d="M242 716 Q300 716 335.5 685.5 Q371 655 393 585 L335 564 Q319 609 295 630.5 Q271 652 241 652 Q219 652 201.5 641.5 Q184 631 170.5 606 Q157 581 148 540 Q139 499 136 439 L328 439 L324 389 L134 389 L134 358 Q134 345 134 333 Q134 321 135 309 L316 309 L312 259 L137 259 Q141 202 150.5 163 Q160 124 173.5 100 Q187 76 205 65 Q223 54 245 54 Q280 54 304.5 71.5 Q329 89 349 131 L391 94 Q365 36 326.5 12 Q288 -12 235 -12 Q198 -12 168.5 2.5 Q139 17 117 49.5 Q95 82 81.5 133.5 Q68 185 63 259 L8 259 L12 309 L61 309 Q60 322 60 334 Q60 346 60 358 L60 389 L20 389 L24 439 L62 439 Q66 515 79.5 567.5 Q93 620 115.5 653 Q138 686 169.5 701 Q201 716 242 716 Z " />
<glyph glyph-name="cent" unicode="&#xa2;" horiz-adv-x="325" d="M211 621 Q264 613 284 570.5 Q304 528 305 453 L240 453 Q240 508 227 534.5 Q214 561 182 561 Q164 561 150.5 551 Q137 541 127 517 Q117 493 112 452.5 Q107 412 107 351 Q107 295 111 255.5 Q115 216 124.5 191 Q134 166 149 154.5 Q164 143 187 143 Q209 143 229.5 151.5 Q250 160 275 181 L306 129 Q262 89 211 79 L211 -18 L151 -18 L151 78 Q119 82 97 99 Q75 116 60.5 148.5 Q46 181 39.5 231 Q33 281 33 350 Q33 423 41.5 472.5 Q50 522 65.5 553.5 Q81 585 103 600 Q125 615 151 620 L151 720 L211 720 L211 621 Z " />
<glyph glyph-name="currency" unicode="&#xa4;" horiz-adv-x="438" d="M385 493 L326 434 Q337 419 344 400 Q351 381 351 361 Q351 340 344 321 Q337 302 326 287 L386 229 L351 194 L292 253 Q276 242 257.5 236 Q239 230 220 230 Q199 230 180 236 Q161 242 146 253 L86 195 L52 230 L111 287 Q100 303 94 322 Q88 341 88 361 Q88 382 95 401 Q102 420 111 434 L52 493 L86 527 L145 468 Q160 479 179.5 485.5 Q199 492 220 492 Q240 492 258.5 485.5 Q277 479 292 469 L350 527 L385 493 Z M219 440 Q187 440 163.5 417.5 Q140 395 140 361 Q140 327 162.5 304 Q185 281 219 281 Q251 281 275 305 Q299 329 299 361 Q299 395 275 417.5 Q251 440 219 440 Z " />
<glyph glyph-name="dollar" unicode="&#x24;" horiz-adv-x="342" d="M207 681 Q242 679 270 663.5 Q298 648 324 613 L286 565 Q267 589 246 602.5 Q225 616 196 616 Q157 616 132.5 591.5 Q108 567 108 517 Q108 490 115.5 470 Q123 450 136 434 Q149 418 166.5 405 Q184 392 204 378 Q227 362 247.5 344.5 Q268 327 283 304.5 Q298 282 307 252.5 Q316 223 316 182 Q316 142 306.5 112 Q297 82 281.5 60.5 Q266 39 245 26 Q224 13 201 7 L201 -87 L141 -87 L141 1 Q102 5 71.5 22 Q41 39 15 68 L55 120 Q75 97 99.5 83 Q124 69 149 69 Q195 69 217 98 Q239 127 239 174 Q239 206 232 228.5 Q225 251 213 268 Q201 285 184 298.5 Q167 312 146 326 Q123 342 102 359.5 Q81 377 65.5 399 Q50 421 41 449 Q32 477 32 514 Q32 591 64 629 Q96 667 147 678 L147 763 L207 763 L207 681 Z " />
<glyph glyph-name="sterling" unicode="&#xa3;" horiz-adv-x="372" d="M197 716 Q252 716 285.5 688.5 Q319 661 348 607 L291 573 Q270 611 249 630 Q228 649 201 649 Q161 649 143 623.5 Q125 598 125 538 Q125 499 139 459.5 Q153 420 166 378 L280 378 L280 321 L182 321 Q188 300 192 278 Q196 256 196 236 Q196 186 176.5 143 Q157 100 130 65 L339 65 L339 0 L28 0 L28 60 L60 63 Q86 97 104.5 137.5 Q123 178 123 225 Q123 249 118 273.5 Q113 298 106 321 L29 321 L29 378 L88 378 Q74 420 62 460 Q50 500 50 542 Q50 592 61 625.5 Q72 659 91.5 679 Q111 699 138 707.5 Q165 716 197 716 Z " />
<glyph glyph-name="yen" unicode="&#xa5;" horiz-adv-x="389" d="M247 385 L350 385 L350 337 L228 337 L228 255 L350 255 L350 208 L228 208 L228 0 L157 0 L157 208 L37 208 L37 255 L157 255 L157 337 L37 337 L35 385 L137 385 L15 706 L93 706 L194 409 L297 706 L374 706 L247 385 Z " />
<glyph glyph-name="approxequal" unicode="&#x2248;" horiz-adv-x="378" d="M363 343 Q340 325 315.5 314 Q291 303 264 303 Q244 303 225 308.5 Q206 314 187.5 320.5 Q169 327 151.5 332.5 Q134 338 118 338 Q95 338 75.5 328.5 Q56 319 35 304 L14 346 Q37 365 62 375.5 Q87 386 116 386 Q136 386 155.5 380.5 Q175 375 193 369 Q211 363 227.5 357.5 Q244 352 259 352 Q281 352 300 360 Q319 368 342 385 L363 343 Z M363 212 Q340 194 315.5 183.5 Q291 173 264 173 Q244 173 225 178.5 Q206 184 187.5 190.5 Q169 197 151.5 202.5 Q134 208 118 208 Q95 208 75.5 198.5 Q56 189 35 173 L13 216 Q37 234 61.5 245 Q86 256 116 256 Q136 256 155.5 250.5 Q175 245 193 238.5 Q211 232 227.5 226.5 Q244 221 259 221 Q281 221 300 229.5 Q319 238 342 255 L363 212 Z " />
<glyph glyph-name="asciitilde" unicode="&#x7e;" horiz-adv-x="382" d="M365 292 Q342 275 317.5 264 Q293 253 266 253 Q246 253 227 258.5 Q208 264 189.5 270.5 Q171 277 153.5 282.5 Q136 288 120 288 Q97 288 77.5 278.5 Q58 269 37 253 L16 296 Q39 315 64 325.5 Q89 336 118 336 Q138 336 157.5 330.5 Q177 325 195 318.5 Q213 312 229.5 306.5 Q246 301 261 301 Q283 301 302 309.5 Q321 318 344 335 L365 292 Z " />
<glyph glyph-name="divide" unicode="&#xf7;" horiz-adv-x="364" d="M182 448 Q196 448 206 438.5 Q216 429 216 413 Q216 399 206.5 389.5 Q197 380 182 380 Q169 380 159 389.5 Q149 399 149 413 Q149 428 158.5 438 Q168 448 182 448 Z M335 274 L29 274 L29 325 L335 325 L335 274 Z M182 222 Q196 222 206 212 Q216 202 216 187 Q216 173 206.5 163 Q197 153 182 153 Q169 153 159 163 Q149 173 149 187 Q149 201 158.5 211.5 Q168 222 182 222 Z " />
<glyph glyph-name="equal" unicode="&#x3d;" horiz-adv-x="364" d="M335 318 L29 318 L29 369 L335 369 L335 318 Z M335 208 L29 208 L29 259 L335 259 L335 208 Z " />
<glyph glyph-name="greater" unicode="&#x3e;" horiz-adv-x="364" d="M343 316 L343 273 L42 132 L23 183 L265 295 L22 408 L45 458 L343 316 Z " />
<glyph glyph-name="greaterequal" unicode="&#x2265;" horiz-adv-x="395" d="M370 335 L370 294 L78 170 L57 220 L294 315 L56 410 L78 461 L370 335 Z M367 148 L367 97 L62 97 L62 148 L367 148 Z " />
<glyph glyph-name="infinity" unicode="&#x221e;" horiz-adv-x="499" d="M370 409 Q418 409 441 380 Q464 351 464 311 Q464 260 437.5 231.5 Q411 203 370 203 Q349 203 331.5 210 Q314 217 299.5 227.5 Q285 238 273 250.5 Q261 263 250 274 Q238 262 225.5 249 Q213 236 198.5 226 Q184 216 167 209.5 Q150 203 130 203 Q88 203 61 230.5 Q34 258 34 309 Q34 351 59 380 Q84 409 132 409 Q169 409 196.5 386.5 Q224 364 250 333 Q279 365 305.5 387 Q332 409 370 409 Z M137 368 Q108 368 95 349.5 Q82 331 82 305 Q82 282 95 263 Q108 244 134 244 Q158 244 180.5 261.5 Q203 279 223 304 Q197 335 179 351.5 Q161 368 137 368 Z M365 368 Q340 368 322 351.5 Q304 335 278 304 Q297 282 320 263 Q343 244 368 244 Q394 244 406.5 263 Q419 282 419 305 Q419 332 406 350 Q393 368 365 368 Z " />
<glyph glyph-name="integral" unicode="&#x222b;" horiz-adv-x="230" d="M225 740 L195 740 Q167 740 156 720.5 Q145 701 145 665 L145 -84 Q145 -110 140.5 -131.5 Q136 -153 124 -168 Q112 -183 92 -191.5 Q72 -200 42 -200 L4 -200 L4 -150 L32 -150 Q58 -150 71 -135 Q84 -120 84 -81 L84 682 Q84 729 106.5 759.5 Q129 790 182 790 L225 790 L225 740 Z " />
<glyph glyph-name="less" unicode="&#x3c;" horiz-adv-x="364" d="M343 408 L100 295 L342 183 L323 132 L22 273 L22 316 L320 458 L343 408 Z " />
<glyph glyph-name="lessequal" unicode="&#x2264;" horiz-adv-x="364" d="M339 410 L101 315 L338 220 L317 170 L25 294 L25 335 L317 461 L339 410 Z M333 97 L28 97 L28 148 L333 148 L333 97 Z " />
<glyph glyph-name="logicalnot" unicode="&#xac;" horiz-adv-x="364" d="M339 172 L286 172 L286 295 L25 295 L25 346 L339 346 L339 172 Z " />
<glyph glyph-name="minus" unicode="&#x2212;" horiz-adv-x="364" d="M335 274 L29 274 L29 325 L335 325 L335 274 Z " />
<glyph glyph-name="multiply" unicode="&#xd7;" horiz-adv-x="364" d="M306 382 L216 293 L305 205 L268 166 L180 255 L90 167 L52 205 L142 294 L53 381 L91 420 L179 331 L269 420 L306 382 Z " />
<glyph glyph-name="notequal" unicode="&#x2260;" horiz-adv-x="364" d="M234 317 L198 258 L335 258 L335 207 L168 207 L108 107 L59 107 L119 207 L29 207 L29 258 L150 258 L185 317 L29 317 L29 367 L215 367 L258 438 L306 438 L264 367 L335 367 L335 317 L234 317 Z " />
<glyph glyph-name="partialdiff" unicode="&#x2202;" horiz-adv-x="390" d="M206 701 Q278 701 311 639 Q344 577 344 455 Q344 219 293.5 103.5 Q243 -12 154 -12 Q100 -12 67.5 37.5 Q35 87 35 176 Q35 233 46 281.5 Q57 330 76.5 365.5 Q96 401 123.5 420.5 Q151 440 184 440 Q217 440 241 421.5 Q265 403 276 376 Q277 390 277.5 406.5 Q278 423 278 434 Q278 492 272 532 Q266 572 255 596 Q244 620 227 630.5 Q210 641 189 641 Q169 641 148 633.5 Q127 626 107 614 L90 665 Q115 682 147.5 691.5 Q180 701 206 701 Z M197 378 Q178 378 161.5 364 Q145 350 133 324.5 Q121 299 114 262.5 Q107 226 107 181 Q107 155 110 132 Q113 109 120 91.5 Q127 74 137.5 63.5 Q148 53 163 53 Q189 53 208.5 79.5 Q228 106 241.5 144.5 Q255 183 262 226.5 Q269 270 270 305 Q261 335 242.5 356.5 Q224 378 197 378 Z " />
<glyph glyph-name="percent" unicode="&#x25;" horiz-adv-x="575" d="M182 0 L125 0 L395 720 L452 720 L182 0 Z M138 718 Q164 718 184 710 Q204 702 217.5 683 Q231 664 238 633.5 Q245 603 245 557 Q245 511 238 480 Q231 449 217.5 430 Q204 411 184 403 Q164 395 138 395 Q111 395 91 403 Q71 411 57.5 430 Q44 449 37.5 480 Q31 511 31 557 Q31 603 37.5 633.5 Q44 664 57.5 683 Q71 702 91 710 Q111 718 138 718 Z M138 665 Q112 665 100.5 641.5 Q89 618 89 557 Q89 495 100.5 471.5 Q112 448 138 448 Q163 448 175.5 471.5 Q188 495 188 557 Q188 618 175.5 641.5 Q163 665 138 665 Z M436 319 Q463 319 483 311 Q503 303 516.5 284 Q530 265 537 234.5 Q544 204 544 158 Q544 112 537 81 Q530 50 516.5 31 Q503 12 483 4 Q463 -4 436 -4 Q410 -4 390 4 Q370 12 356.5 31 Q343 50 336 81 Q329 112 329 158 Q329 204 336 234.5 Q343 265 356.5 284 Q370 303 390 311 Q410 319 436 319 Z M436 266 Q411 266 399 242.5 Q387 219 387 158 Q387 96 399 72.5 Q411 49 436 49 Q462 49 474 72.5 Q486 96 486 158 Q486 219 474 242.5 Q462 266 436 266 Z " />
<glyph glyph-name="perthousand" unicode="&#x2030;" horiz-adv-x="717" d="M180 0 L123 0 L394 720 L451 720 L180 0 Z M137 718 Q164 718 184 710 Q204 702 217.5 683.5 Q231 665 237.5 634.5 Q244 604 244 558 Q244 512 237.5 481 Q231 450 217.5 431 Q204 412 184 404 Q164 396 137 396 Q111 396 91 404 Q71 412 57.5 431 Q44 450 37.5 481 Q31 512 31 558 Q31 603 37.5 634 Q44 665 57.5 683.5 Q71 702 91 710 Q111 718 137 718 Z M137 665 Q112 665 100 642 Q88 619 88 557 Q88 495 100 472 Q112 449 137 449 Q162 449 174.5 472 Q187 495 187 557 Q187 619 174.5 642 Q162 665 137 665 Z M591 318 Q616 318 635.5 310 Q655 302 668.5 283.5 Q682 265 688.5 234.5 Q695 204 695 158 Q695 112 688.5 81 Q682 50 668.5 31 Q655 12 635.5 4 Q616 -4 591 -4 Q562 -4 542 7 Q522 18 510 44 Q498 18 478 7 Q458 -4 429 -4 Q403 -4 384 4 Q365 12 352 31 Q339 50 332.5 81 Q326 112 326 158 Q326 204 332.5 234.5 Q339 265 352 283.5 Q365 302 384.5 310 Q404 318 429 318 Q458 318 478 307 Q498 296 510 270 Q522 296 542 307 Q562 318 591 318 Z M432 265 Q407 265 395 242 Q383 219 383 157 Q383 95 395 71.5 Q407 48 432 48 Q457 48 469.5 72 Q482 96 482 158 Q482 219 469.5 242 Q457 265 432 265 Z M588 265 Q563 265 551 242 Q539 219 539 157 Q539 95 551 71.5 Q563 48 588 48 Q613 48 625 72 Q637 96 637 158 Q637 219 625 242 Q613 265 588 265 Z " />
<glyph glyph-name="plus" unicode="&#x2b;" horiz-adv-x="364" d="M210 325 L335 325 L335 274 L210 274 L210 148 L154 148 L154 274 L29 274 L29 325 L154 325 L154 452 L210 452 L210 325 Z " />
<glyph glyph-name="plusminus" unicode="&#xb1;" horiz-adv-x="364" d="M209 326 L334 326 L334 275 L209 275 L209 168 L335 168 L335 117 L30 117 L30 168 L154 168 L154 275 L29 275 L29 326 L154 326 L154 453 L209 453 L209 326 Z " />
<glyph glyph-name="product" unicode="&#x220f;" horiz-adv-x="457" d="M401 -140 L331 -140 L331 656 L126 656 L126 -140 L56 -140 L56 720 L401 720 L401 -140 Z " />
<glyph glyph-name="radical" unicode="&#x221a;" horiz-adv-x="479" d="M269 -166 L204 -166 L112 255 L26 255 L26 310 L166 310 L235 -64 L416 824 L481 824 L269 -166 Z " />
<glyph glyph-name="summation" unicode="&#x2211;" horiz-adv-x="366" d="M317 654 L104 654 L245 318 L102 -53 L350 -53 L350 -119 L13 -119 L13 -86 L169 317 L13 687 L13 720 L317 720 L317 654 Z " />
<glyph glyph-name="uni2215" unicode="&#x2215;" horiz-adv-x="102" d="M-56 0 L-113 0 L157 720 L214 720 L-56 0 Z " />
<glyph glyph-name="uni2219" unicode="&#x2219;" horiz-adv-x="274" d="M137 388 Q160 388 174.5 375 Q189 362 189 339 Q189 315 174.5 301.5 Q160 288 137 288 Q115 288 101 301.5 Q87 315 87 338 Q87 361 101.5 374.5 Q116 388 137 388 Z " />
<glyph glyph-name="arroewup" unicode="&#x2191;" horiz-adv-x="484" d="M421 341 L385 303 L270 417 L270 8 L215 8 L215 417 L99 304 L63 340 L244 516 L421 341 Z " />
<glyph glyph-name="arrowCircleLeft" unicode="&#x21b6;" horiz-adv-x="732" d="M448 505 Q554 505 611 444 Q668 383 669 279 L614 279 Q613 357 571 405.5 Q529 454 446 454 Q358 454 315 401 Q272 348 272 255 L272 133 L388 246 L424 211 L243 34 L66 209 L102 247 L217 133 L217 243 Q217 371 275 438 Q333 505 448 505 Z " />
<glyph glyph-name="arrowCircleRight" unicode="&#x21b7;" horiz-adv-x="732" d="M284 505 Q399 505 457 438 Q515 371 515 243 L515 133 L630 247 L666 209 L489 34 L308 211 L344 246 L460 133 L460 255 Q460 348 417 401 Q374 454 286 454 Q203 454 161 405.5 Q119 357 118 279 L63 279 Q64 383 121 444 Q178 505 284 505 Z " />
<glyph glyph-name="arrowDubDown" unicode="&#x21d3;" horiz-adv-x="732" d="M452 146 L521 216 L558 174 L369 -12 L177 174 L215 214 L283 148 L283 604 L332 604 L332 102 L368 67 L403 102 L403 604 L452 604 L452 146 Z " />
<glyph glyph-name="arrowDubLeft" unicode="&#x21d0;" horiz-adv-x="754" d="M225 206 L294 137 L253 100 L66 290 L252 481 L292 443 L226 375 L682 375 L682 326 L181 326 L145 290 L180 255 L682 255 L682 206 L225 206 Z " />
<glyph glyph-name="arrowDubRight" unicode="&#x21d2;" horiz-adv-x="754" d="M72 253 L574 253 L609 288 L574 324 L72 324 L72 373 L528 373 L462 441 L502 479 L688 288 L502 98 L461 135 L530 204 L72 204 L72 253 Z " />
<glyph glyph-name="arrowDubTop" unicode="&#x21d1;" horiz-adv-x="732" d="M403 0 L403 502 L368 537 L332 501 L332 0 L283 0 L283 456 L215 390 L177 430 L369 616 L558 430 L521 388 L452 457 L452 0 L403 0 Z " />
<glyph glyph-name="arrowLeftRight" unicode="&#x2194;" horiz-adv-x="1007" d="M179 428 L217 392 L103 277 L901 277 L786 392 L824 429 L1000 251 L825 71 L788 107 L901 222 L103 222 L215 107 L179 71 L4 251 L179 428 Z " />
<glyph glyph-name="arrowNE" unicode="&#x2197;" horiz-adv-x="480" d="M425 438 L425 188 L373 188 L373 347 L91 64 L51 103 L334 386 L175 386 L175 438 L425 438 Z " />
<glyph glyph-name="arrowNW" unicode="&#x2196;" horiz-adv-x="480" d="M306 386 L147 386 L430 103 L390 64 L108 347 L108 188 L56 188 L56 438 L306 438 L306 386 Z " />
<glyph glyph-name="arrowSE" unicode="&#x2198;" horiz-adv-x="480" d="M174 102 L333 102 L51 384 L90 424 L372 140 L372 299 L424 299 L424 50 L174 49 L174 102 Z " />
<glyph glyph-name="arrowSW" unicode="&#x2199;" horiz-adv-x="480" d="M56 50 L56 299 L108 299 L108 140 L390 424 L430 384 L147 102 L306 102 L306 49 L56 50 Z " />
<glyph glyph-name="arrowUpDown" unicode="&#x2195;" horiz-adv-x="732" d="M545 543 L509 505 L394 619 L394 -179 L509 -64 L545 -102 L367 -277 L187 -102 L223 -66 L339 -179 L339 619 L224 507 L187 543 L368 718 L545 543 Z " />
<glyph glyph-name="arrowdown" unicode="&#x2193;" horiz-adv-x="484" d="M63 182 L99 218 L215 105 L215 514 L270 514 L270 105 L385 219 L421 181 L244 6 L63 182 Z " />
<glyph glyph-name="arrowleft" unicode="&#x2190;" horiz-adv-x="512" d="M180 444 L216 408 L103 292 L512 292 L512 237 L103 237 L217 122 L179 86 L4 263 L180 444 Z " />
<glyph glyph-name="arrowright" unicode="&#x2192;" horiz-adv-x="512" d="M333 86 L295 122 L409 237 L0 237 L0 292 L409 292 L296 408 L332 444 L508 263 L333 86 Z " />
<glyph glyph-name="circle" unicode="&#x25cb;" horiz-adv-x="438" d="M219 455 Q246 455 270 444.5 Q294 434 311.5 416.5 Q329 399 339.5 375 Q350 351 350 324 Q350 297 339.5 273 Q329 249 311.5 231 Q294 213 270 203 Q246 193 219 193 Q192 193 168 203 Q144 213 126 231 Q108 249 98 273 Q88 297 88 324 Q88 351 98 375 Q108 399 126 416.5 Q144 434 168 444.5 Q192 455 219 455 Z " />
<glyph glyph-name="lozenge" unicode="&#x25ca;" horiz-adv-x="360" d="M327 352 L199 125 L156 125 L33 351 L156 575 L199 575 L327 352 Z M94 351 L178 192 L266 351 L178 508 L94 351 Z " />
<glyph glyph-name="triangle" unicode="&#x25b3;" horiz-adv-x="328" d="M241 320 L88 223 L88 414 L241 320 Z " />
<glyph glyph-name="ampersand" unicode="&#x26;" horiz-adv-x="490" d="M231 724 Q293 724 320.5 684.5 Q348 645 348 581 Q348 519 323 478 Q298 437 253 404 L300 314 L387 379 L421 323 L334 258 L461 29 L402 -9 L353 77 Q329 28 290.5 6 Q252 -16 210 -16 Q178 -16 149 -3 Q120 10 98.5 36 Q77 62 64 101 Q51 140 51 193 Q51 270 81 323 Q111 376 161 411 Q146 438 135.5 460.5 Q125 483 118.5 502.5 Q112 522 108.5 540.5 Q105 559 105 578 Q105 608 111.5 634.5 Q118 661 133 681 Q148 701 172 712.5 Q196 724 231 724 Z M231 665 Q199 665 186 641 Q173 617 173 584 Q173 554 184 524.5 Q195 495 218 454 Q252 479 267.5 510.5 Q283 542 283 587 Q283 619 272 642 Q261 665 231 665 Z M194 358 Q159 335 140 292 Q121 249 121 201 Q121 170 128 143 Q135 116 148 96.5 Q161 77 179 65.5 Q197 54 219 54 Q250 54 277.5 72.5 Q305 91 318 131 L194 358 Z " />
<glyph glyph-name="asciicircum" unicode="&#x5e;" horiz-adv-x="449" d="M396 484 L359 451 L225 588 L89 451 L52 485 L203 642 L246 642 L396 484 Z " />
<glyph glyph-name="at" unicode="&#x40;" horiz-adv-x="753" d="M414 648 Q483 648 537 623 Q591 598 627.5 554 Q664 510 683.5 449 Q703 388 703 316 Q703 227 687.5 165.5 Q672 104 646 66 Q620 28 586 10.5 Q552 -7 514 -7 Q477 -7 452 12 Q427 31 426 66 Q408 31 382 14 Q356 -3 324 -3 Q306 -3 289.5 5.5 Q273 14 260.5 33 Q248 52 240.5 81.5 Q233 111 233 152 Q233 209 246 257.5 Q259 306 282 341 Q305 376 336.5 396 Q368 416 405 416 Q436 416 463 406 Q490 396 509 380 L471 134 Q463 82 474 60 Q485 38 519 38 Q542 38 566 51.5 Q590 65 609.5 96.5 Q629 128 641.5 179.5 Q654 231 654 306 Q654 380 636.5 436 Q619 492 587 529.5 Q555 567 510 585.5 Q465 604 410 604 Q350 604 294 573 Q238 542 194.5 487 Q151 432 125 356.5 Q99 281 99 191 Q99 108 118.5 41.5 Q138 -25 174 -71 Q210 -117 261.5 -141.5 Q313 -166 377 -166 Q492 -166 592 -68 L622 -102 Q565 -159 502.5 -184.5 Q440 -210 378 -210 Q301 -210 240.5 -183 Q180 -156 137.5 -104.5 Q95 -53 72.5 21 Q50 95 50 189 Q50 286 77.5 370 Q105 454 154 516 Q203 578 269.5 613 Q336 648 414 648 Z M404 370 Q378 370 356 352 Q334 334 318 303.5 Q302 273 293 233.5 Q284 194 284 152 Q284 94 300.5 68.5 Q317 43 338 43 Q353 43 367 52 Q381 61 392.5 77.5 Q404 94 412.5 117 Q421 140 425 167 L454 354 Q435 370 404 370 Z " />
<glyph glyph-name="bar" unicode="&#x7c;" horiz-adv-x="341" d="M202 -200 L139 -200 L139 720 L202 720 L202 -200 Z " />
<glyph glyph-name="brokenbar" unicode="&#xa6;" horiz-adv-x="341" d="M202 312 L139 312 L139 720 L202 720 L202 312 Z M202 -200 L139 -200 L139 208 L202 208 L202 -200 Z " />
<glyph glyph-name="copyright" unicode="&#xa9;" horiz-adv-x="543" d="M271 720 Q332 720 377 702.5 Q422 685 450.5 644 Q479 603 493 534 Q507 465 507 362 Q507 258 493 188.5 Q479 119 450 77 Q421 35 376.5 17.5 Q332 0 271 0 Q211 0 166.5 17 Q122 34 93 75.5 Q64 117 50 187 Q36 257 36 362 Q36 465 50 533.5 Q64 602 93 643.5 Q122 685 166 702.5 Q210 720 271 720 Z M271 682 Q221 682 184.5 666.5 Q148 651 124 614.5 Q100 578 88 516.5 Q76 455 76 362 Q76 267 88 204.5 Q100 142 124.5 105 Q149 68 185.5 53 Q222 38 271 38 Q320 38 357 53.5 Q394 69 418.5 106.5 Q443 144 455 206 Q467 268 467 362 Q467 455 455 516.5 Q443 578 419 615 Q395 652 358 667 Q321 682 271 682 Z M274 560 Q326 560 346 523.5 Q366 487 369 422 L321 422 Q318 470 308 491.5 Q298 513 275 513 Q246 513 231.5 480.5 Q217 448 217 364 Q217 282 231 249 Q245 216 280 216 Q313 216 345 245 L368 209 Q322 166 271 166 Q214 166 189.5 214 Q165 262 165 363 Q165 466 191 513 Q217 560 274 560 Z " />
<glyph glyph-name="dagger" unicode="&#x2020;" horiz-adv-x="326" d="M193 442 L297 442 L297 389 L193 389 L193 43 L132 43 L132 389 L29 389 L29 442 L132 442 L132 571 L193 571 L193 442 Z " />
<glyph glyph-name="daggerdbl" unicode="&#x2021;" horiz-adv-x="326" d="M193 442 L297 442 L297 390 L193 390 L193 224 L297 224 L297 172 L193 172 L193 43 L133 43 L133 172 L29 172 L29 224 L133 224 L133 390 L29 390 L29 442 L133 442 L133 571 L193 571 L193 442 Z " />
<glyph glyph-name="degree" unicode="&#xb0;" horiz-adv-x="242" d="M122 748 Q140 748 156.5 741 Q173 734 185.5 721.5 Q198 709 205.5 692.5 Q213 676 213 657 Q213 638 206 621.5 Q199 605 186.5 592.5 Q174 580 157.5 573 Q141 566 122 566 Q83 566 56 592 Q29 618 29 657 Q29 676 36.5 692.5 Q44 709 56.5 721.5 Q69 734 86 741 Q103 748 122 748 Z M122 708 Q99 708 85 694 Q71 680 71 658 Q71 635 85.5 620 Q100 605 122 605 Q143 605 157 620 Q171 635 171 658 Q171 680 157.5 694 Q144 708 122 708 Z " />
<glyph glyph-name="paragraph" unicode="&#xb6;" horiz-adv-x="358" d="M302 0 L246 0 L246 672 L200 672 L200 0 L144 0 L144 362 Q81 368 51 409.5 Q21 451 21 543 Q21 637 56 678.5 Q91 720 160 720 L302 720 L302 0 Z " />
<glyph glyph-name="registered" unicode="&#xae;" horiz-adv-x="423" d="M212 726 Q251 726 284 713 Q317 700 340 676.5 Q363 653 376 620 Q389 587 389 548 Q389 510 374.5 477.5 Q360 445 335.5 421 Q311 397 279 383.5 Q247 370 212 370 Q174 370 141.5 382 Q109 394 85 416.5 Q61 439 47.5 472.5 Q34 506 34 548 Q34 586 47.5 618.5 Q61 651 85 675 Q109 699 141.5 712.5 Q174 726 212 726 Z M212 692 Q182 692 156 681 Q130 670 111 651 Q92 632 81 605.5 Q70 579 70 548 Q70 477 110 440.5 Q150 404 212 404 Q240 404 265.5 415 Q291 426 310.5 445.5 Q330 465 341.5 491.5 Q353 518 353 548 Q353 580 343 606.5 Q333 633 314 652 Q295 671 269 681.5 Q243 692 212 692 Z M217 638 Q249 638 264.5 623 Q280 608 280 584 Q280 550 249 536 L291 462 L257 462 L220 528 L177 528 L177 462 L147 462 L147 638 L217 638 Z M177 613 L177 552 L207 552 Q249 552 249 584 Q249 613 210 613 L177 613 Z " />
<glyph glyph-name="section" unicode="&#xa7;" horiz-adv-x="357" d="M191 733 Q222 733 246.5 723.5 Q271 714 292 697 L264 648 Q247 659 230.5 666 Q214 673 196 673 Q169 673 152 656 Q135 639 135 606 Q135 574 157.5 552 Q180 530 212 507 Q229 494 245.5 480 Q262 466 275.5 449 Q289 432 297 411 Q305 390 305 363 Q305 318 285 287.5 Q265 257 227 249 Q256 225 277 195.5 Q298 166 298 124 Q298 60 262 24.5 Q226 -11 172 -11 Q140 -11 107 1.5 Q74 14 47 40 L80 89 Q97 71 119 60.5 Q141 50 164 50 Q190 50 208.5 66.5 Q227 83 227 118 Q227 152 206 174.5 Q185 197 157 219 Q139 232 122.5 246.5 Q106 261 93.5 278.5 Q81 296 73 317.5 Q65 339 65 368 Q65 411 86.5 439 Q108 467 143 472 Q108 499 87 529.5 Q66 560 66 604 Q66 636 76 660.5 Q86 685 103 701 Q120 717 142.5 725 Q165 733 191 733 Z M174 437 Q154 436 140.5 420.5 Q127 405 127 372 Q127 354 133.5 338 Q140 322 150 310.5 Q160 299 173 291.5 Q186 284 198 283 Q215 284 228.5 300 Q242 316 242 352 Q242 390 220 412 Q198 434 174 437 Z " />
<glyph glyph-name="trademark" unicode="&#x2122;" horiz-adv-x="397" d="M153 682 L105 682 L105 460 L65 460 L65 682 L16 682 L16 720 L153 720 L153 682 Z M364 460 L327 460 L322 638 L321 638 Q318 626 315.5 614 Q313 602 311 591 L286 460 L253 460 L227 592 Q225 603 223 615 Q221 627 219 638 L217 638 L212 460 L176 460 L184 720 L232 720 L259 565 L268 511 L270 511 L279 564 L309 720 L356 720 L364 460 Z " />
<glyph glyph-name="acute" unicode="&#xb4;" horiz-adv-x="343" d="M249 727 L135 590 L97 618 L199 765 L249 727 Z " />
<glyph glyph-name="breve" unicode="&#x2d8;" horiz-adv-x="343" d="M277 754 Q271 673 246.5 635.5 Q222 598 171 598 Q121 598 97 635 Q73 672 67 753 L114 761 Q121 703 132.5 676.5 Q144 650 171 650 Q200 650 212 677 Q224 704 231 761 L277 754 Z " />
<glyph glyph-name="caron" unicode="&#x2c7;" horiz-adv-x="343" d="M268 749 L199 590 L144 590 L75 749 L113 766 L171 652 L230 766 L268 749 Z " />
<glyph glyph-name="cedilla" unicode="&#xb8;" horiz-adv-x="343" d="M179 -58 Q203 -61 221 -77.5 Q239 -94 239 -126 Q239 -167 217.5 -188 Q196 -209 163 -209 Q147 -209 130.5 -205 Q114 -201 100 -195 L110 -155 Q121 -159 134 -162 Q147 -165 157 -165 Q189 -165 189 -128 Q189 -110 178.5 -101 Q168 -92 144 -92 L131 -92 L148 8 L190 8 L179 -58 Z " />
<glyph glyph-name="circumflex" unicode="&#x2c6;" horiz-adv-x="343" d="M172 694 L114 581 L75 598 L144 757 L199 757 L268 598 L230 581 L172 694 Z " />
<glyph glyph-name="dieresis" unicode="&#xa8;" horiz-adv-x="343" d="M99 721 Q120 721 132.5 708.5 Q145 696 145 675 Q145 653 132.5 640.5 Q120 628 99 628 Q78 628 64.5 640 Q51 652 51 675 Q51 696 64.5 708.5 Q78 721 99 721 Z M245 721 Q267 721 279.5 708.5 Q292 696 292 675 Q292 653 279.5 640.5 Q267 628 245 628 Q225 628 211.5 640 Q198 652 198 675 Q198 696 211.5 708.5 Q225 721 245 721 Z " />
<glyph glyph-name="dotaccent" unicode="&#x2d9;" horiz-adv-x="343" d="M172 716 Q193 716 207 703.5 Q221 691 221 669 Q221 647 207 634.5 Q193 622 172 622 Q151 622 136.5 634.5 Q122 647 122 669 Q122 691 136.5 703.5 Q151 716 172 716 Z " />
<glyph glyph-name="grave" unicode="&#x60;" horiz-adv-x="343" d="M246 613 L208 585 L97 717 L147 757 L246 613 Z " />
<glyph glyph-name="hungarumlaut" unicode="&#x2dd;" horiz-adv-x="343" d="M188 720 L82 584 L46 609 L138 754 L188 720 Z M297 719 L193 584 L156 609 L248 753 L297 719 Z " />
<glyph glyph-name="macron" unicode="&#xaf;" horiz-adv-x="343" d="M274 637 L69 637 L69 694 L274 694 L274 637 Z " />
<glyph glyph-name="ogonek" unicode="&#x2db;" horiz-adv-x="343" d="M214 10 L214 0 Q188 -30 170.5 -66 Q153 -102 153 -131 Q153 -150 162.5 -159 Q172 -168 186 -168 Q204 -168 221 -155 L238 -190 Q222 -204 203.5 -212.5 Q185 -221 162 -221 Q131 -221 112 -201.5 Q93 -182 93 -146 Q93 -124 99.5 -102 Q106 -80 117.5 -59.5 Q129 -39 143 -20.5 Q157 -2 172 13 L214 10 Z " />
<glyph glyph-name="ring" unicode="&#x2da;" horiz-adv-x="343" d="M172 764 Q204 764 225.5 743.5 Q247 723 247 674 Q247 626 225.5 605.5 Q204 585 172 585 Q140 585 118 605.5 Q96 626 96 674 Q96 723 118 743.5 Q140 764 172 764 Z M172 727 Q157 727 149 715 Q141 703 141 674 Q141 645 149 633.5 Q157 622 172 622 Q186 622 194 633.5 Q202 645 202 674 Q202 703 194 715 Q186 727 172 727 Z " />
<glyph glyph-name="tilde" unicode="&#x2dc;" horiz-adv-x="343" d="M277 700 Q265 620 219 620 Q206 620 194 625.5 Q182 631 170.5 637 Q159 643 148.5 648.5 Q138 654 129 654 Q118 654 112.5 646.5 Q107 639 102 620 L66 632 Q80 712 125 712 Q138 712 150 706.5 Q162 701 173 695 Q184 689 194.5 683.5 Q205 678 214 678 Q225 678 231 685.5 Q237 693 242 712 L277 700 Z " />
<glyph glyph-name="commaaccent" unicode="&#x326;" d="M220 -70 L169 -231 L123 -219 L158 -56 L220 -70 Z " />
<glyph glyph-name="apostrophe" unicode="&#x2bc;" horiz-adv-x="343" d="M170 733 Q199 733 210.5 710 Q222 687 222 660 Q222 622 207.5 590 Q193 558 154 533 L137 561 Q163 578 171.5 599 Q180 620 181 645 Q171 637 160.5 635.5 Q150 634 141 639 Q132 644 126.5 655 Q121 666 121 681 Q121 704 134.5 718.5 Q148 733 170 733 Z " />
<glyph glyph-name="uni02C9" unicode="&#x2c9;" horiz-adv-x="343" d="M274 637 L69 637 L69 694 L274 694 L274 637 Z " />
</font>
</svg>
